%TF.GenerationSoftware,KiCad,Pcbnew,6.0.4-6f826c9f35~116~ubuntu20.04.1*%
%TF.CreationDate,2022-05-16T15:23:52+00:00*%
%TF.ProjectId,USTSIPM01A,55535453-4950-44d3-9031-412e6b696361,rev?*%
%TF.SameCoordinates,Original*%
%TF.FileFunction,Legend,Bot*%
%TF.FilePolarity,Positive*%
%FSLAX46Y46*%
G04 Gerber Fmt 4.6, Leading zero omitted, Abs format (unit mm)*
G04 Created by KiCad (PCBNEW 6.0.4-6f826c9f35~116~ubuntu20.04.1) date 2022-05-16 15:23:52*
%MOMM*%
%LPD*%
G01*
G04 APERTURE LIST*
%ADD10C,0.150000*%
%ADD11C,0.120000*%
G04 APERTURE END LIST*
D10*
%TO.C,R13*%
X31884857Y9073619D02*
X32218190Y9549809D01*
X32456285Y9073619D02*
X32456285Y10073619D01*
X32075333Y10073619D01*
X31980095Y10026000D01*
X31932476Y9978380D01*
X31884857Y9883142D01*
X31884857Y9740285D01*
X31932476Y9645047D01*
X31980095Y9597428D01*
X32075333Y9549809D01*
X32456285Y9549809D01*
X30932476Y9073619D02*
X31503904Y9073619D01*
X31218190Y9073619D02*
X31218190Y10073619D01*
X31313428Y9930761D01*
X31408666Y9835523D01*
X31503904Y9787904D01*
X30599142Y10073619D02*
X29980095Y10073619D01*
X30313428Y9692666D01*
X30170571Y9692666D01*
X30075333Y9645047D01*
X30027714Y9597428D01*
X29980095Y9502190D01*
X29980095Y9264095D01*
X30027714Y9168857D01*
X30075333Y9121238D01*
X30170571Y9073619D01*
X30456285Y9073619D01*
X30551523Y9121238D01*
X30599142Y9168857D01*
%TO.C,C12*%
X30231142Y12834857D02*
X30278761Y12882476D01*
X30326380Y13025333D01*
X30326380Y13120571D01*
X30278761Y13263428D01*
X30183523Y13358666D01*
X30088285Y13406285D01*
X29897809Y13453904D01*
X29754952Y13453904D01*
X29564476Y13406285D01*
X29469238Y13358666D01*
X29374000Y13263428D01*
X29326380Y13120571D01*
X29326380Y13025333D01*
X29374000Y12882476D01*
X29421619Y12834857D01*
X30326380Y11882476D02*
X30326380Y12453904D01*
X30326380Y12168190D02*
X29326380Y12168190D01*
X29469238Y12263428D01*
X29564476Y12358666D01*
X29612095Y12453904D01*
X29421619Y11501523D02*
X29374000Y11453904D01*
X29326380Y11358666D01*
X29326380Y11120571D01*
X29374000Y11025333D01*
X29421619Y10977714D01*
X29516857Y10930095D01*
X29612095Y10930095D01*
X29754952Y10977714D01*
X30326380Y11549142D01*
X30326380Y10930095D01*
%TO.C,C9*%
X5085142Y12358666D02*
X5132761Y12406285D01*
X5180380Y12549142D01*
X5180380Y12644380D01*
X5132761Y12787238D01*
X5037523Y12882476D01*
X4942285Y12930095D01*
X4751809Y12977714D01*
X4608952Y12977714D01*
X4418476Y12930095D01*
X4323238Y12882476D01*
X4228000Y12787238D01*
X4180380Y12644380D01*
X4180380Y12549142D01*
X4228000Y12406285D01*
X4275619Y12358666D01*
X5180380Y11882476D02*
X5180380Y11692000D01*
X5132761Y11596761D01*
X5085142Y11549142D01*
X4942285Y11453904D01*
X4751809Y11406285D01*
X4370857Y11406285D01*
X4275619Y11453904D01*
X4228000Y11501523D01*
X4180380Y11596761D01*
X4180380Y11787238D01*
X4228000Y11882476D01*
X4275619Y11930095D01*
X4370857Y11977714D01*
X4608952Y11977714D01*
X4704190Y11930095D01*
X4751809Y11882476D01*
X4799428Y11787238D01*
X4799428Y11596761D01*
X4751809Y11501523D01*
X4704190Y11453904D01*
X4608952Y11406285D01*
%TO.C,C13*%
X27437142Y12834857D02*
X27484761Y12882476D01*
X27532380Y13025333D01*
X27532380Y13120571D01*
X27484761Y13263428D01*
X27389523Y13358666D01*
X27294285Y13406285D01*
X27103809Y13453904D01*
X26960952Y13453904D01*
X26770476Y13406285D01*
X26675238Y13358666D01*
X26580000Y13263428D01*
X26532380Y13120571D01*
X26532380Y13025333D01*
X26580000Y12882476D01*
X26627619Y12834857D01*
X27532380Y11882476D02*
X27532380Y12453904D01*
X27532380Y12168190D02*
X26532380Y12168190D01*
X26675238Y12263428D01*
X26770476Y12358666D01*
X26818095Y12453904D01*
X26532380Y11549142D02*
X26532380Y10930095D01*
X26913333Y11263428D01*
X26913333Y11120571D01*
X26960952Y11025333D01*
X27008571Y10977714D01*
X27103809Y10930095D01*
X27341904Y10930095D01*
X27437142Y10977714D01*
X27484761Y11025333D01*
X27532380Y11120571D01*
X27532380Y11406285D01*
X27484761Y11501523D01*
X27437142Y11549142D01*
%TO.C,C14*%
X32971142Y5148857D02*
X33018761Y5196476D01*
X33066380Y5339333D01*
X33066380Y5434571D01*
X33018761Y5577428D01*
X32923523Y5672666D01*
X32828285Y5720285D01*
X32637809Y5767904D01*
X32494952Y5767904D01*
X32304476Y5720285D01*
X32209238Y5672666D01*
X32114000Y5577428D01*
X32066380Y5434571D01*
X32066380Y5339333D01*
X32114000Y5196476D01*
X32161619Y5148857D01*
X33066380Y4196476D02*
X33066380Y4767904D01*
X33066380Y4482190D02*
X32066380Y4482190D01*
X32209238Y4577428D01*
X32304476Y4672666D01*
X32352095Y4767904D01*
X32399714Y3339333D02*
X33066380Y3339333D01*
X32018761Y3577428D02*
X32733047Y3815523D01*
X32733047Y3196476D01*
%TO.C,L1*%
X48452380Y11596666D02*
X48452380Y12072857D01*
X47452380Y12072857D01*
X48452380Y10739523D02*
X48452380Y11310952D01*
X48452380Y11025238D02*
X47452380Y11025238D01*
X47595238Y11120476D01*
X47690476Y11215714D01*
X47738095Y11310952D01*
%TO.C,D2*%
X43156095Y11201619D02*
X43156095Y12201619D01*
X42918000Y12201619D01*
X42775142Y12154000D01*
X42679904Y12058761D01*
X42632285Y11963523D01*
X42584666Y11773047D01*
X42584666Y11630190D01*
X42632285Y11439714D01*
X42679904Y11344476D01*
X42775142Y11249238D01*
X42918000Y11201619D01*
X43156095Y11201619D01*
X42203714Y12106380D02*
X42156095Y12154000D01*
X42060857Y12201619D01*
X41822761Y12201619D01*
X41727523Y12154000D01*
X41679904Y12106380D01*
X41632285Y12011142D01*
X41632285Y11915904D01*
X41679904Y11773047D01*
X42251333Y11201619D01*
X41632285Y11201619D01*
%TO.C,R1*%
X22264666Y9327619D02*
X22598000Y9803809D01*
X22836095Y9327619D02*
X22836095Y10327619D01*
X22455142Y10327619D01*
X22359904Y10280000D01*
X22312285Y10232380D01*
X22264666Y10137142D01*
X22264666Y9994285D01*
X22312285Y9899047D01*
X22359904Y9851428D01*
X22455142Y9803809D01*
X22836095Y9803809D01*
X21312285Y9327619D02*
X21883714Y9327619D01*
X21598000Y9327619D02*
X21598000Y10327619D01*
X21693238Y10184761D01*
X21788476Y10089523D01*
X21883714Y10041904D01*
%TO.C,C3*%
X30471142Y4672666D02*
X30518761Y4720285D01*
X30566380Y4863142D01*
X30566380Y4958380D01*
X30518761Y5101238D01*
X30423523Y5196476D01*
X30328285Y5244095D01*
X30137809Y5291714D01*
X29994952Y5291714D01*
X29804476Y5244095D01*
X29709238Y5196476D01*
X29614000Y5101238D01*
X29566380Y4958380D01*
X29566380Y4863142D01*
X29614000Y4720285D01*
X29661619Y4672666D01*
X29566380Y4339333D02*
X29566380Y3720285D01*
X29947333Y4053619D01*
X29947333Y3910761D01*
X29994952Y3815523D01*
X30042571Y3767904D01*
X30137809Y3720285D01*
X30375904Y3720285D01*
X30471142Y3767904D01*
X30518761Y3815523D01*
X30566380Y3910761D01*
X30566380Y4196476D01*
X30518761Y4291714D01*
X30471142Y4339333D01*
%TO.C,R12*%
X17002357Y6785619D02*
X17335690Y7261809D01*
X17573785Y6785619D02*
X17573785Y7785619D01*
X17192833Y7785619D01*
X17097595Y7738000D01*
X17049976Y7690380D01*
X17002357Y7595142D01*
X17002357Y7452285D01*
X17049976Y7357047D01*
X17097595Y7309428D01*
X17192833Y7261809D01*
X17573785Y7261809D01*
X16049976Y6785619D02*
X16621404Y6785619D01*
X16335690Y6785619D02*
X16335690Y7785619D01*
X16430928Y7642761D01*
X16526166Y7547523D01*
X16621404Y7499904D01*
X15669023Y7690380D02*
X15621404Y7738000D01*
X15526166Y7785619D01*
X15288071Y7785619D01*
X15192833Y7738000D01*
X15145214Y7690380D01*
X15097595Y7595142D01*
X15097595Y7499904D01*
X15145214Y7357047D01*
X15716642Y6785619D01*
X15097595Y6785619D01*
%TO.C,C15*%
X35471142Y6098857D02*
X35518761Y6146476D01*
X35566380Y6289333D01*
X35566380Y6384571D01*
X35518761Y6527428D01*
X35423523Y6622666D01*
X35328285Y6670285D01*
X35137809Y6717904D01*
X34994952Y6717904D01*
X34804476Y6670285D01*
X34709238Y6622666D01*
X34614000Y6527428D01*
X34566380Y6384571D01*
X34566380Y6289333D01*
X34614000Y6146476D01*
X34661619Y6098857D01*
X35566380Y5146476D02*
X35566380Y5717904D01*
X35566380Y5432190D02*
X34566380Y5432190D01*
X34709238Y5527428D01*
X34804476Y5622666D01*
X34852095Y5717904D01*
X34566380Y4241714D02*
X34566380Y4717904D01*
X35042571Y4765523D01*
X34994952Y4717904D01*
X34947333Y4622666D01*
X34947333Y4384571D01*
X34994952Y4289333D01*
X35042571Y4241714D01*
X35137809Y4194095D01*
X35375904Y4194095D01*
X35471142Y4241714D01*
X35518761Y4289333D01*
X35566380Y4384571D01*
X35566380Y4622666D01*
X35518761Y4717904D01*
X35471142Y4765523D01*
%TO.C,C1*%
X21087142Y12358666D02*
X21134761Y12406285D01*
X21182380Y12549142D01*
X21182380Y12644380D01*
X21134761Y12787238D01*
X21039523Y12882476D01*
X20944285Y12930095D01*
X20753809Y12977714D01*
X20610952Y12977714D01*
X20420476Y12930095D01*
X20325238Y12882476D01*
X20230000Y12787238D01*
X20182380Y12644380D01*
X20182380Y12549142D01*
X20230000Y12406285D01*
X20277619Y12358666D01*
X21182380Y11406285D02*
X21182380Y11977714D01*
X21182380Y11692000D02*
X20182380Y11692000D01*
X20325238Y11787238D01*
X20420476Y11882476D01*
X20468095Y11977714D01*
%TO.C,U2*%
X10159904Y2719619D02*
X10159904Y1910095D01*
X10112285Y1814857D01*
X10064666Y1767238D01*
X9969428Y1719619D01*
X9778952Y1719619D01*
X9683714Y1767238D01*
X9636095Y1814857D01*
X9588476Y1910095D01*
X9588476Y2719619D01*
X9159904Y2624380D02*
X9112285Y2672000D01*
X9017047Y2719619D01*
X8778952Y2719619D01*
X8683714Y2672000D01*
X8636095Y2624380D01*
X8588476Y2529142D01*
X8588476Y2433904D01*
X8636095Y2291047D01*
X9207523Y1719619D01*
X8588476Y1719619D01*
%TO.C,R11*%
X14802380Y3436857D02*
X14326190Y3770190D01*
X14802380Y4008285D02*
X13802380Y4008285D01*
X13802380Y3627333D01*
X13850000Y3532095D01*
X13897619Y3484476D01*
X13992857Y3436857D01*
X14135714Y3436857D01*
X14230952Y3484476D01*
X14278571Y3532095D01*
X14326190Y3627333D01*
X14326190Y4008285D01*
X14802380Y2484476D02*
X14802380Y3055904D01*
X14802380Y2770190D02*
X13802380Y2770190D01*
X13945238Y2865428D01*
X14040476Y2960666D01*
X14088095Y3055904D01*
X14802380Y1532095D02*
X14802380Y2103523D01*
X14802380Y1817809D02*
X13802380Y1817809D01*
X13945238Y1913047D01*
X14040476Y2008285D01*
X14088095Y2103523D01*
%TO.C,R6*%
X56458380Y7024666D02*
X55982190Y7358000D01*
X56458380Y7596095D02*
X55458380Y7596095D01*
X55458380Y7215142D01*
X55506000Y7119904D01*
X55553619Y7072285D01*
X55648857Y7024666D01*
X55791714Y7024666D01*
X55886952Y7072285D01*
X55934571Y7119904D01*
X55982190Y7215142D01*
X55982190Y7596095D01*
X55458380Y6167523D02*
X55458380Y6358000D01*
X55506000Y6453238D01*
X55553619Y6500857D01*
X55696476Y6596095D01*
X55886952Y6643714D01*
X56267904Y6643714D01*
X56363142Y6596095D01*
X56410761Y6548476D01*
X56458380Y6453238D01*
X56458380Y6262761D01*
X56410761Y6167523D01*
X56363142Y6119904D01*
X56267904Y6072285D01*
X56029809Y6072285D01*
X55934571Y6119904D01*
X55886952Y6167523D01*
X55839333Y6262761D01*
X55839333Y6453238D01*
X55886952Y6548476D01*
X55934571Y6596095D01*
X56029809Y6643714D01*
%TO.C,R2*%
X15660666Y9327619D02*
X15994000Y9803809D01*
X16232095Y9327619D02*
X16232095Y10327619D01*
X15851142Y10327619D01*
X15755904Y10280000D01*
X15708285Y10232380D01*
X15660666Y10137142D01*
X15660666Y9994285D01*
X15708285Y9899047D01*
X15755904Y9851428D01*
X15851142Y9803809D01*
X16232095Y9803809D01*
X15279714Y10232380D02*
X15232095Y10280000D01*
X15136857Y10327619D01*
X14898761Y10327619D01*
X14803523Y10280000D01*
X14755904Y10232380D01*
X14708285Y10137142D01*
X14708285Y10041904D01*
X14755904Y9899047D01*
X15327333Y9327619D01*
X14708285Y9327619D01*
%TO.C,R8*%
X4136380Y2706666D02*
X3660190Y3040000D01*
X4136380Y3278095D02*
X3136380Y3278095D01*
X3136380Y2897142D01*
X3184000Y2801904D01*
X3231619Y2754285D01*
X3326857Y2706666D01*
X3469714Y2706666D01*
X3564952Y2754285D01*
X3612571Y2801904D01*
X3660190Y2897142D01*
X3660190Y3278095D01*
X3564952Y2135238D02*
X3517333Y2230476D01*
X3469714Y2278095D01*
X3374476Y2325714D01*
X3326857Y2325714D01*
X3231619Y2278095D01*
X3184000Y2230476D01*
X3136380Y2135238D01*
X3136380Y1944761D01*
X3184000Y1849523D01*
X3231619Y1801904D01*
X3326857Y1754285D01*
X3374476Y1754285D01*
X3469714Y1801904D01*
X3517333Y1849523D01*
X3564952Y1944761D01*
X3564952Y2135238D01*
X3612571Y2230476D01*
X3660190Y2278095D01*
X3755428Y2325714D01*
X3945904Y2325714D01*
X4041142Y2278095D01*
X4088761Y2230476D01*
X4136380Y2135238D01*
X4136380Y1944761D01*
X4088761Y1849523D01*
X4041142Y1801904D01*
X3945904Y1754285D01*
X3755428Y1754285D01*
X3660190Y1801904D01*
X3612571Y1849523D01*
X3564952Y1944761D01*
%TO.C,C11*%
X36581142Y12834857D02*
X36628761Y12882476D01*
X36676380Y13025333D01*
X36676380Y13120571D01*
X36628761Y13263428D01*
X36533523Y13358666D01*
X36438285Y13406285D01*
X36247809Y13453904D01*
X36104952Y13453904D01*
X35914476Y13406285D01*
X35819238Y13358666D01*
X35724000Y13263428D01*
X35676380Y13120571D01*
X35676380Y13025333D01*
X35724000Y12882476D01*
X35771619Y12834857D01*
X36676380Y11882476D02*
X36676380Y12453904D01*
X36676380Y12168190D02*
X35676380Y12168190D01*
X35819238Y12263428D01*
X35914476Y12358666D01*
X35962095Y12453904D01*
X36676380Y10930095D02*
X36676380Y11501523D01*
X36676380Y11215809D02*
X35676380Y11215809D01*
X35819238Y11311047D01*
X35914476Y11406285D01*
X35962095Y11501523D01*
%TO.C,C8*%
X45471142Y4672666D02*
X45518761Y4720285D01*
X45566380Y4863142D01*
X45566380Y4958380D01*
X45518761Y5101238D01*
X45423523Y5196476D01*
X45328285Y5244095D01*
X45137809Y5291714D01*
X44994952Y5291714D01*
X44804476Y5244095D01*
X44709238Y5196476D01*
X44614000Y5101238D01*
X44566380Y4958380D01*
X44566380Y4863142D01*
X44614000Y4720285D01*
X44661619Y4672666D01*
X44994952Y4101238D02*
X44947333Y4196476D01*
X44899714Y4244095D01*
X44804476Y4291714D01*
X44756857Y4291714D01*
X44661619Y4244095D01*
X44614000Y4196476D01*
X44566380Y4101238D01*
X44566380Y3910761D01*
X44614000Y3815523D01*
X44661619Y3767904D01*
X44756857Y3720285D01*
X44804476Y3720285D01*
X44899714Y3767904D01*
X44947333Y3815523D01*
X44994952Y3910761D01*
X44994952Y4101238D01*
X45042571Y4196476D01*
X45090190Y4244095D01*
X45185428Y4291714D01*
X45375904Y4291714D01*
X45471142Y4244095D01*
X45518761Y4196476D01*
X45566380Y4101238D01*
X45566380Y3910761D01*
X45518761Y3815523D01*
X45471142Y3767904D01*
X45375904Y3720285D01*
X45185428Y3720285D01*
X45090190Y3767904D01*
X45042571Y3815523D01*
X44994952Y3910761D01*
%TO.C,R4*%
X9207166Y9327619D02*
X9540500Y9803809D01*
X9778595Y9327619D02*
X9778595Y10327619D01*
X9397642Y10327619D01*
X9302404Y10280000D01*
X9254785Y10232380D01*
X9207166Y10137142D01*
X9207166Y9994285D01*
X9254785Y9899047D01*
X9302404Y9851428D01*
X9397642Y9803809D01*
X9778595Y9803809D01*
X8350023Y9994285D02*
X8350023Y9327619D01*
X8588119Y10375238D02*
X8826214Y9660952D01*
X8207166Y9660952D01*
%TO.C,C4*%
X37971142Y3722666D02*
X38018761Y3770285D01*
X38066380Y3913142D01*
X38066380Y4008380D01*
X38018761Y4151238D01*
X37923523Y4246476D01*
X37828285Y4294095D01*
X37637809Y4341714D01*
X37494952Y4341714D01*
X37304476Y4294095D01*
X37209238Y4246476D01*
X37114000Y4151238D01*
X37066380Y4008380D01*
X37066380Y3913142D01*
X37114000Y3770285D01*
X37161619Y3722666D01*
X37399714Y2865523D02*
X38066380Y2865523D01*
X37018761Y3103619D02*
X37733047Y3341714D01*
X37733047Y2722666D01*
%TO.C,R5*%
X4896380Y2706666D02*
X4420190Y3040000D01*
X4896380Y3278095D02*
X3896380Y3278095D01*
X3896380Y2897142D01*
X3944000Y2801904D01*
X3991619Y2754285D01*
X4086857Y2706666D01*
X4229714Y2706666D01*
X4324952Y2754285D01*
X4372571Y2801904D01*
X4420190Y2897142D01*
X4420190Y3278095D01*
X3896380Y1801904D02*
X3896380Y2278095D01*
X4372571Y2325714D01*
X4324952Y2278095D01*
X4277333Y2182857D01*
X4277333Y1944761D01*
X4324952Y1849523D01*
X4372571Y1801904D01*
X4467809Y1754285D01*
X4705904Y1754285D01*
X4801142Y1801904D01*
X4848761Y1849523D01*
X4896380Y1944761D01*
X4896380Y2182857D01*
X4848761Y2278095D01*
X4801142Y2325714D01*
%TO.C,R7*%
X56458380Y10580666D02*
X55982190Y10914000D01*
X56458380Y11152095D02*
X55458380Y11152095D01*
X55458380Y10771142D01*
X55506000Y10675904D01*
X55553619Y10628285D01*
X55648857Y10580666D01*
X55791714Y10580666D01*
X55886952Y10628285D01*
X55934571Y10675904D01*
X55982190Y10771142D01*
X55982190Y11152095D01*
X55458380Y10247333D02*
X55458380Y9580666D01*
X56458380Y10009238D01*
%TO.C,R9*%
X9564666Y8817619D02*
X9898000Y9293809D01*
X10136095Y8817619D02*
X10136095Y9817619D01*
X9755142Y9817619D01*
X9659904Y9770000D01*
X9612285Y9722380D01*
X9564666Y9627142D01*
X9564666Y9484285D01*
X9612285Y9389047D01*
X9659904Y9341428D01*
X9755142Y9293809D01*
X10136095Y9293809D01*
X9088476Y8817619D02*
X8898000Y8817619D01*
X8802761Y8865238D01*
X8755142Y8912857D01*
X8659904Y9055714D01*
X8612285Y9246190D01*
X8612285Y9627142D01*
X8659904Y9722380D01*
X8707523Y9770000D01*
X8802761Y9817619D01*
X8993238Y9817619D01*
X9088476Y9770000D01*
X9136095Y9722380D01*
X9183714Y9627142D01*
X9183714Y9389047D01*
X9136095Y9293809D01*
X9088476Y9246190D01*
X8993238Y9198571D01*
X8802761Y9198571D01*
X8707523Y9246190D01*
X8659904Y9293809D01*
X8612285Y9389047D01*
%TO.C,D1*%
X27686380Y5244095D02*
X26686380Y5244095D01*
X26686380Y5006000D01*
X26734000Y4863142D01*
X26829238Y4767904D01*
X26924476Y4720285D01*
X27114952Y4672666D01*
X27257809Y4672666D01*
X27448285Y4720285D01*
X27543523Y4767904D01*
X27638761Y4863142D01*
X27686380Y5006000D01*
X27686380Y5244095D01*
X27686380Y3720285D02*
X27686380Y4291714D01*
X27686380Y4006000D02*
X26686380Y4006000D01*
X26829238Y4101238D01*
X26924476Y4196476D01*
X26972095Y4291714D01*
%TO.C,C6*%
X7625142Y12358666D02*
X7672761Y12406285D01*
X7720380Y12549142D01*
X7720380Y12644380D01*
X7672761Y12787238D01*
X7577523Y12882476D01*
X7482285Y12930095D01*
X7291809Y12977714D01*
X7148952Y12977714D01*
X6958476Y12930095D01*
X6863238Y12882476D01*
X6768000Y12787238D01*
X6720380Y12644380D01*
X6720380Y12549142D01*
X6768000Y12406285D01*
X6815619Y12358666D01*
X6720380Y11501523D02*
X6720380Y11692000D01*
X6768000Y11787238D01*
X6815619Y11834857D01*
X6958476Y11930095D01*
X7148952Y11977714D01*
X7529904Y11977714D01*
X7625142Y11930095D01*
X7672761Y11882476D01*
X7720380Y11787238D01*
X7720380Y11596761D01*
X7672761Y11501523D01*
X7625142Y11453904D01*
X7529904Y11406285D01*
X7291809Y11406285D01*
X7196571Y11453904D01*
X7148952Y11501523D01*
X7101333Y11596761D01*
X7101333Y11787238D01*
X7148952Y11882476D01*
X7196571Y11930095D01*
X7291809Y11977714D01*
%TO.C,U3*%
X51053904Y13861619D02*
X51053904Y13052095D01*
X51006285Y12956857D01*
X50958666Y12909238D01*
X50863428Y12861619D01*
X50672952Y12861619D01*
X50577714Y12909238D01*
X50530095Y12956857D01*
X50482476Y13052095D01*
X50482476Y13861619D01*
X50101523Y13861619D02*
X49482476Y13861619D01*
X49815809Y13480666D01*
X49672952Y13480666D01*
X49577714Y13433047D01*
X49530095Y13385428D01*
X49482476Y13290190D01*
X49482476Y13052095D01*
X49530095Y12956857D01*
X49577714Y12909238D01*
X49672952Y12861619D01*
X49958666Y12861619D01*
X50053904Y12909238D01*
X50101523Y12956857D01*
%TO.C,C5*%
X14483142Y12358666D02*
X14530761Y12406285D01*
X14578380Y12549142D01*
X14578380Y12644380D01*
X14530761Y12787238D01*
X14435523Y12882476D01*
X14340285Y12930095D01*
X14149809Y12977714D01*
X14006952Y12977714D01*
X13816476Y12930095D01*
X13721238Y12882476D01*
X13626000Y12787238D01*
X13578380Y12644380D01*
X13578380Y12549142D01*
X13626000Y12406285D01*
X13673619Y12358666D01*
X13578380Y11453904D02*
X13578380Y11930095D01*
X14054571Y11977714D01*
X14006952Y11930095D01*
X13959333Y11834857D01*
X13959333Y11596761D01*
X14006952Y11501523D01*
X14054571Y11453904D01*
X14149809Y11406285D01*
X14387904Y11406285D01*
X14483142Y11453904D01*
X14530761Y11501523D01*
X14578380Y11596761D01*
X14578380Y11834857D01*
X14530761Y11930095D01*
X14483142Y11977714D01*
%TO.C,R3*%
X38600666Y3203619D02*
X38934000Y3679809D01*
X39172095Y3203619D02*
X39172095Y4203619D01*
X38791142Y4203619D01*
X38695904Y4156000D01*
X38648285Y4108380D01*
X38600666Y4013142D01*
X38600666Y3870285D01*
X38648285Y3775047D01*
X38695904Y3727428D01*
X38791142Y3679809D01*
X39172095Y3679809D01*
X38267333Y4203619D02*
X37648285Y4203619D01*
X37981619Y3822666D01*
X37838761Y3822666D01*
X37743523Y3775047D01*
X37695904Y3727428D01*
X37648285Y3632190D01*
X37648285Y3394095D01*
X37695904Y3298857D01*
X37743523Y3251238D01*
X37838761Y3203619D01*
X38124476Y3203619D01*
X38219714Y3251238D01*
X38267333Y3298857D01*
%TO.C,C10*%
X39375142Y12580857D02*
X39422761Y12628476D01*
X39470380Y12771333D01*
X39470380Y12866571D01*
X39422761Y13009428D01*
X39327523Y13104666D01*
X39232285Y13152285D01*
X39041809Y13199904D01*
X38898952Y13199904D01*
X38708476Y13152285D01*
X38613238Y13104666D01*
X38518000Y13009428D01*
X38470380Y12866571D01*
X38470380Y12771333D01*
X38518000Y12628476D01*
X38565619Y12580857D01*
X39470380Y11628476D02*
X39470380Y12199904D01*
X39470380Y11914190D02*
X38470380Y11914190D01*
X38613238Y12009428D01*
X38708476Y12104666D01*
X38756095Y12199904D01*
X38470380Y11009428D02*
X38470380Y10914190D01*
X38518000Y10818952D01*
X38565619Y10771333D01*
X38660857Y10723714D01*
X38851333Y10676095D01*
X39089428Y10676095D01*
X39279904Y10723714D01*
X39375142Y10771333D01*
X39422761Y10818952D01*
X39470380Y10914190D01*
X39470380Y11009428D01*
X39422761Y11104666D01*
X39375142Y11152285D01*
X39279904Y11199904D01*
X39089428Y11247523D01*
X38851333Y11247523D01*
X38660857Y11199904D01*
X38565619Y11152285D01*
X38518000Y11104666D01*
X38470380Y11009428D01*
%TO.C,C2*%
X50204666Y5074857D02*
X50252285Y5027238D01*
X50395142Y4979619D01*
X50490380Y4979619D01*
X50633238Y5027238D01*
X50728476Y5122476D01*
X50776095Y5217714D01*
X50823714Y5408190D01*
X50823714Y5551047D01*
X50776095Y5741523D01*
X50728476Y5836761D01*
X50633238Y5932000D01*
X50490380Y5979619D01*
X50395142Y5979619D01*
X50252285Y5932000D01*
X50204666Y5884380D01*
X49823714Y5884380D02*
X49776095Y5932000D01*
X49680857Y5979619D01*
X49442761Y5979619D01*
X49347523Y5932000D01*
X49299904Y5884380D01*
X49252285Y5789142D01*
X49252285Y5693904D01*
X49299904Y5551047D01*
X49871333Y4979619D01*
X49252285Y4979619D01*
%TO.C,C7*%
X42821142Y4672666D02*
X42868761Y4720285D01*
X42916380Y4863142D01*
X42916380Y4958380D01*
X42868761Y5101238D01*
X42773523Y5196476D01*
X42678285Y5244095D01*
X42487809Y5291714D01*
X42344952Y5291714D01*
X42154476Y5244095D01*
X42059238Y5196476D01*
X41964000Y5101238D01*
X41916380Y4958380D01*
X41916380Y4863142D01*
X41964000Y4720285D01*
X42011619Y4672666D01*
X41916380Y4339333D02*
X41916380Y3672666D01*
X42916380Y4101238D01*
%TO.C,R10*%
X15056380Y7397357D02*
X14580190Y7730690D01*
X15056380Y7968785D02*
X14056380Y7968785D01*
X14056380Y7587833D01*
X14104000Y7492595D01*
X14151619Y7444976D01*
X14246857Y7397357D01*
X14389714Y7397357D01*
X14484952Y7444976D01*
X14532571Y7492595D01*
X14580190Y7587833D01*
X14580190Y7968785D01*
X15056380Y6444976D02*
X15056380Y7016404D01*
X15056380Y6730690D02*
X14056380Y6730690D01*
X14199238Y6825928D01*
X14294476Y6921166D01*
X14342095Y7016404D01*
X14056380Y5825928D02*
X14056380Y5730690D01*
X14104000Y5635452D01*
X14151619Y5587833D01*
X14246857Y5540214D01*
X14437333Y5492595D01*
X14675428Y5492595D01*
X14865904Y5540214D01*
X14961142Y5587833D01*
X15008761Y5635452D01*
X15056380Y5730690D01*
X15056380Y5825928D01*
X15008761Y5921166D01*
X14961142Y5968785D01*
X14865904Y6016404D01*
X14675428Y6064023D01*
X14437333Y6064023D01*
X14246857Y6016404D01*
X14151619Y5968785D01*
X14104000Y5921166D01*
X14056380Y5825928D01*
D11*
%TO.C,R13*%
X31014936Y11911000D02*
X31469064Y11911000D01*
X31014936Y10441000D02*
X31469064Y10441000D01*
%TO.C,C12*%
X27459000Y11930748D02*
X27459000Y12453252D01*
X28929000Y11930748D02*
X28929000Y12453252D01*
%TO.C,C9*%
X3783000Y11930748D02*
X3783000Y12453252D01*
X2313000Y11930748D02*
X2313000Y12453252D01*
%TO.C,C13*%
X26135000Y11930748D02*
X26135000Y12453252D01*
X24665000Y11930748D02*
X24665000Y12453252D01*
%TO.C,C14*%
X30199000Y4244748D02*
X30199000Y4767252D01*
X31669000Y4244748D02*
X31669000Y4767252D01*
%TO.C,L1*%
X44360000Y10827936D02*
X44360000Y12032064D01*
X47080000Y10827936D02*
X47080000Y12032064D01*
%TO.C,D2*%
X43118000Y13554000D02*
X41268000Y13554000D01*
X41268000Y12354000D02*
X41268000Y13554000D01*
X43118000Y12354000D02*
X41268000Y12354000D01*
%TO.C,R1*%
X21870936Y12165000D02*
X22325064Y12165000D01*
X21870936Y10695000D02*
X22325064Y10695000D01*
%TO.C,C3*%
X29169000Y4244748D02*
X29169000Y4767252D01*
X27699000Y4244748D02*
X27699000Y4767252D01*
%TO.C,R12*%
X16586564Y4853000D02*
X16132436Y4853000D01*
X16586564Y6323000D02*
X16132436Y6323000D01*
%TO.C,C15*%
X34169000Y5194748D02*
X34169000Y5717252D01*
X32699000Y5194748D02*
X32699000Y5717252D01*
%TO.C,C1*%
X18315000Y11930748D02*
X18315000Y12453252D01*
X19785000Y11930748D02*
X19785000Y12453252D01*
%TO.C,U2*%
X9398000Y6132000D02*
X10198000Y6132000D01*
X9398000Y3012000D02*
X7598000Y3012000D01*
X9398000Y3012000D02*
X10198000Y3012000D01*
X9398000Y6132000D02*
X8598000Y6132000D01*
%TO.C,R11*%
X13435000Y2566936D02*
X13435000Y3021064D01*
X11965000Y2566936D02*
X11965000Y3021064D01*
%TO.C,R6*%
X53621000Y6630936D02*
X53621000Y7085064D01*
X55091000Y6630936D02*
X55091000Y7085064D01*
%TO.C,R2*%
X15266936Y12165000D02*
X15721064Y12165000D01*
X15266936Y10695000D02*
X15721064Y10695000D01*
%TO.C,R8*%
X4599000Y2767064D02*
X4599000Y2312936D01*
X6069000Y2767064D02*
X6069000Y2312936D01*
%TO.C,C11*%
X35279000Y11930748D02*
X35279000Y12453252D01*
X33809000Y11930748D02*
X33809000Y12453252D01*
%TO.C,C8*%
X44169000Y4244748D02*
X44169000Y4767252D01*
X42699000Y4244748D02*
X42699000Y4767252D01*
%TO.C,R4*%
X8813436Y10695000D02*
X9267564Y10695000D01*
X8813436Y12165000D02*
X9267564Y12165000D01*
%TO.C,C4*%
X36669000Y3294748D02*
X36669000Y3817252D01*
X35199000Y3294748D02*
X35199000Y3817252D01*
%TO.C,R5*%
X2059000Y2312936D02*
X2059000Y2767064D01*
X3529000Y2312936D02*
X3529000Y2767064D01*
%TO.C,R7*%
X55091000Y10186936D02*
X55091000Y10641064D01*
X53621000Y10186936D02*
X53621000Y10641064D01*
%TO.C,R9*%
X9625064Y6885000D02*
X9170936Y6885000D01*
X9625064Y8355000D02*
X9170936Y8355000D01*
%TO.C,D1*%
X26534000Y5206000D02*
X26534000Y3356000D01*
X25334000Y5206000D02*
X25334000Y3356000D01*
X26534000Y3356000D02*
X25334000Y3356000D01*
%TO.C,C6*%
X4853000Y11930748D02*
X4853000Y12453252D01*
X6323000Y11930748D02*
X6323000Y12453252D01*
%TO.C,U3*%
X51192000Y8804000D02*
X49392000Y8804000D01*
X49392000Y12024000D02*
X52342000Y12024000D01*
%TO.C,C5*%
X11711000Y11930748D02*
X11711000Y12453252D01*
X13181000Y11930748D02*
X13181000Y12453252D01*
%TO.C,R3*%
X38661064Y2741000D02*
X38206936Y2741000D01*
X38661064Y1271000D02*
X38206936Y1271000D01*
%TO.C,C10*%
X36603000Y11676748D02*
X36603000Y12199252D01*
X38073000Y11676748D02*
X38073000Y12199252D01*
%TO.C,C2*%
X49776748Y6377000D02*
X50299252Y6377000D01*
X49776748Y7847000D02*
X50299252Y7847000D01*
%TO.C,C7*%
X40049000Y4244748D02*
X40049000Y4767252D01*
X41519000Y4244748D02*
X41519000Y4767252D01*
%TO.C,R10*%
X12219000Y6527436D02*
X12219000Y6981564D01*
X13689000Y6527436D02*
X13689000Y6981564D01*
%TD*%
M02*
