%TF.GenerationSoftware,KiCad,Pcbnew,6.0.4-6f826c9f35~116~ubuntu20.04.1*%
%TF.CreationDate,2022-05-17T19:32:16+00:00*%
%TF.ProjectId,USTSIPM01A,55535453-4950-44d3-9031-412e6b696361,rev?*%
%TF.SameCoordinates,Original*%
%TF.FileFunction,Copper,L1,Top*%
%TF.FilePolarity,Positive*%
%FSLAX46Y46*%
G04 Gerber Fmt 4.6, Leading zero omitted, Abs format (unit mm)*
G04 Created by KiCad (PCBNEW 6.0.4-6f826c9f35~116~ubuntu20.04.1) date 2022-05-17 19:32:16*
%MOMM*%
%LPD*%
G01*
G04 APERTURE LIST*
G04 Aperture macros list*
%AMOutline4P*
0 Free polygon, 4 corners , with rotation*
0 The origin of the aperture is its center*
0 number of corners: always 4*
0 $1 to $8 corner X, Y*
0 $9 Rotation angle, in degrees counterclockwise*
0 create outline with 4 corners*
4,1,4,$1,$2,$3,$4,$5,$6,$7,$8,$1,$2,$9*%
G04 Aperture macros list end*
%TA.AperFunction,ComponentPad*%
%ADD10R,1.524000X1.524000*%
%TD*%
%TA.AperFunction,SMDPad,CuDef*%
%ADD11Outline4P,-1.750000X-1.750000X1.750000X-1.750000X1.750000X1.750000X-1.750000X1.750000X0.000000*%
%TD*%
%TA.AperFunction,SMDPad,CuDef*%
%ADD12Outline4P,-1.750000X-1.750000X1.750000X-1.750000X1.750000X1.750000X-1.750000X1.750000X90.000000*%
%TD*%
%TA.AperFunction,SMDPad,CuDef*%
%ADD13Outline4P,-1.750000X-1.750000X1.750000X-1.750000X1.750000X1.750000X-1.750000X1.750000X180.000000*%
%TD*%
%TA.AperFunction,SMDPad,CuDef*%
%ADD14Outline4P,-1.750000X-1.750000X1.750000X-1.750000X1.750000X1.750000X-1.750000X1.750000X270.000000*%
%TD*%
%TA.AperFunction,ViaPad*%
%ADD15C,0.800000*%
%TD*%
%TA.AperFunction,Conductor*%
%ADD16C,0.400000*%
%TD*%
%TA.AperFunction,Conductor*%
%ADD17C,0.600000*%
%TD*%
G04 APERTURE END LIST*
D10*
%TO.P,J4,1*%
%TO.N,GND*%
X55118000Y7500000D03*
%TO.P,J4,2*%
X57658000Y7500000D03*
%TD*%
%TO.P,J6,1*%
%TO.N,GND*%
X55118000Y12580000D03*
%TO.P,J6,2*%
X57658000Y12580000D03*
%TD*%
%TO.P,J5,1*%
%TO.N,/+3V6*%
X55118000Y10040000D03*
%TO.P,J5,2*%
X57658000Y10040000D03*
%TD*%
%TO.P,J8,1*%
%TO.N,/OUT*%
X55118000Y4960000D03*
%TO.P,J8,2*%
X57658000Y4960000D03*
%TD*%
D11*
%TO.P,U1,1,A*%
%TO.N,Net-(R5-Pad2)*%
X4050000Y4050000D03*
D12*
%TO.P,U1,2,FO*%
%TO.N,unconnected-(U1-Pad2)*%
X10950000Y4050000D03*
D13*
%TO.P,U1,3,K*%
%TO.N,Net-(C6-Pad1)*%
X10950000Y10950000D03*
D14*
%TO.P,U1,4,NC*%
%TO.N,unconnected-(U1-Pad4)*%
X4050000Y10950000D03*
%TD*%
D10*
%TO.P,J9,1*%
%TO.N,GND*%
X55118000Y2420000D03*
%TO.P,J9,2*%
X57658000Y2420000D03*
%TD*%
D15*
%TO.N,GND*%
X14224000Y2540000D03*
X36576000Y1016000D03*
X1270000Y8890000D03*
X30226000Y8382000D03*
X21844000Y13462000D03*
X36322000Y8382000D03*
X28702000Y3302000D03*
X39624000Y13462000D03*
X3556000Y1270000D03*
X24130000Y8382000D03*
X38862000Y3302000D03*
X16002000Y2540000D03*
X20574000Y2794000D03*
X43180000Y11430000D03*
X1016000Y3302000D03*
X14478000Y9652000D03*
X53340000Y3810000D03*
X25654000Y1016000D03*
X28702000Y8382000D03*
X17526000Y9652000D03*
X22352000Y3556000D03*
X38862000Y8128000D03*
X33274000Y3302000D03*
X37846000Y9144000D03*
X48260000Y3810000D03*
X50546000Y12192000D03*
X40386000Y7366000D03*
X48006000Y1016000D03*
X40386000Y9398000D03*
X1270000Y13462000D03*
X19050000Y8382000D03*
X36068000Y3302000D03*
X45466000Y1016000D03*
X22606000Y8382000D03*
X14478000Y7620000D03*
X42418000Y1016000D03*
X7366000Y13462000D03*
X33274000Y1016000D03*
X20574000Y8636000D03*
X33274000Y8382000D03*
X41656000Y3302000D03*
X51816000Y3556000D03*
X30988000Y13208000D03*
X19558000Y3556000D03*
X50038000Y5334000D03*
X17526000Y7620000D03*
X43434000Y7366000D03*
X40132000Y10668000D03*
X34798000Y8382000D03*
X25654000Y3302000D03*
X30480000Y3302000D03*
X44704000Y3302000D03*
X1778000Y1270000D03*
X31750000Y8382000D03*
X18034000Y2540000D03*
X25654000Y8382000D03*
X39370000Y1016000D03*
X53086000Y6350000D03*
X49530000Y1524000D03*
X27178000Y8382000D03*
X16002000Y7620000D03*
X28956000Y1016000D03*
X50800000Y2540000D03*
X15240000Y13462000D03*
%TO.N,Net-(C10-Pad1)*%
X49530000Y8128000D03*
X44704000Y8382000D03*
%TO.N,Net-(C6-Pad1)*%
X10160000Y13208000D03*
%TO.N,Net-(R5-Pad2)*%
X1778000Y7366000D03*
%TD*%
D16*
%TO.N,Net-(C10-Pad1)*%
X49276000Y8382000D02*
X49530000Y8128000D01*
X44704000Y8382000D02*
X49276000Y8382000D01*
D17*
%TO.N,Net-(C6-Pad1)*%
X10160000Y11740000D02*
X10950000Y10950000D01*
X10160000Y13208000D02*
X10160000Y11740000D01*
%TO.N,Net-(R5-Pad2)*%
X1778000Y6322000D02*
X4050000Y4050000D01*
X1778000Y7366000D02*
X1778000Y6322000D01*
%TD*%
%TA.AperFunction,Conductor*%
%TO.N,GND*%
G36*
X59441621Y14479498D02*
G01*
X59488114Y14425842D01*
X59499500Y14373500D01*
X59499500Y626500D01*
X59479498Y558379D01*
X59425842Y511886D01*
X59373500Y500500D01*
X626500Y500500D01*
X558379Y520502D01*
X511886Y574158D01*
X500500Y626500D01*
X500500Y1617160D01*
X54056000Y1617160D01*
X54056442Y1609714D01*
X54057994Y1596664D01*
X54062952Y1578626D01*
X54099755Y1495769D01*
X54112713Y1476915D01*
X54175342Y1414396D01*
X54194212Y1401475D01*
X54277125Y1364820D01*
X54295202Y1359892D01*
X54307787Y1358424D01*
X54315088Y1358000D01*
X54949885Y1358000D01*
X54965124Y1362475D01*
X54966329Y1363865D01*
X54968000Y1371548D01*
X54968000Y1376115D01*
X55268000Y1376115D01*
X55272475Y1360876D01*
X55273865Y1359671D01*
X55281548Y1358000D01*
X55920840Y1358000D01*
X55928286Y1358442D01*
X55941336Y1359994D01*
X55959374Y1364952D01*
X56042231Y1401755D01*
X56061085Y1414713D01*
X56123604Y1477342D01*
X56136525Y1496212D01*
X56173180Y1579125D01*
X56178108Y1597202D01*
X56179576Y1609787D01*
X56180000Y1617088D01*
X56180000Y1617160D01*
X56596000Y1617160D01*
X56596442Y1609714D01*
X56597994Y1596664D01*
X56602952Y1578626D01*
X56639755Y1495769D01*
X56652713Y1476915D01*
X56715342Y1414396D01*
X56734212Y1401475D01*
X56817125Y1364820D01*
X56835202Y1359892D01*
X56847787Y1358424D01*
X56855088Y1358000D01*
X57489885Y1358000D01*
X57505124Y1362475D01*
X57506329Y1363865D01*
X57508000Y1371548D01*
X57508000Y1376115D01*
X57808000Y1376115D01*
X57812475Y1360876D01*
X57813865Y1359671D01*
X57821548Y1358000D01*
X58460840Y1358000D01*
X58468286Y1358442D01*
X58481336Y1359994D01*
X58499374Y1364952D01*
X58582231Y1401755D01*
X58601085Y1414713D01*
X58663604Y1477342D01*
X58676525Y1496212D01*
X58713180Y1579125D01*
X58718108Y1597202D01*
X58719576Y1609787D01*
X58720000Y1617088D01*
X58720000Y2251885D01*
X58715525Y2267124D01*
X58714135Y2268329D01*
X58706452Y2270000D01*
X57826115Y2270000D01*
X57810876Y2265525D01*
X57809671Y2264135D01*
X57808000Y2256452D01*
X57808000Y1376115D01*
X57508000Y1376115D01*
X57508000Y2251885D01*
X57503525Y2267124D01*
X57502135Y2268329D01*
X57494452Y2270000D01*
X56614115Y2270000D01*
X56598876Y2265525D01*
X56597671Y2264135D01*
X56596000Y2256452D01*
X56596000Y1617160D01*
X56180000Y1617160D01*
X56180000Y2251885D01*
X56175525Y2267124D01*
X56174135Y2268329D01*
X56166452Y2270000D01*
X55286115Y2270000D01*
X55270876Y2265525D01*
X55269671Y2264135D01*
X55268000Y2256452D01*
X55268000Y1376115D01*
X54968000Y1376115D01*
X54968000Y2251885D01*
X54963525Y2267124D01*
X54962135Y2268329D01*
X54954452Y2270000D01*
X54074115Y2270000D01*
X54058876Y2265525D01*
X54057671Y2264135D01*
X54056000Y2256452D01*
X54056000Y1617160D01*
X500500Y1617160D01*
X500500Y7373389D01*
X1072394Y7373389D01*
X1090999Y7204865D01*
X1149266Y7045644D01*
X1156081Y7035501D01*
X1177500Y6965226D01*
X1177500Y6369619D01*
X1176422Y6353173D01*
X1172318Y6322000D01*
X1177500Y6282639D01*
X1192956Y6165238D01*
X1253464Y6019159D01*
X1349718Y5893718D01*
X1356264Y5888695D01*
X1374671Y5874571D01*
X1387062Y5863703D01*
X1962595Y5288170D01*
X1996621Y5225858D01*
X1999500Y5199075D01*
X1999500Y2255354D01*
X2002618Y2229154D01*
X2048061Y2126847D01*
X2127287Y2047759D01*
X2137924Y2043056D01*
X2137926Y2043055D01*
X2197462Y2016735D01*
X2229673Y2002494D01*
X2255354Y1999500D01*
X5844646Y1999500D01*
X5848350Y1999941D01*
X5848353Y1999941D01*
X5855746Y2000821D01*
X5870846Y2002618D01*
X5973153Y2048061D01*
X6052241Y2127287D01*
X6097506Y2229673D01*
X6100500Y2255354D01*
X8899500Y2255354D01*
X8902618Y2229154D01*
X8948061Y2126847D01*
X9027287Y2047759D01*
X9037924Y2043056D01*
X9037926Y2043055D01*
X9097462Y2016735D01*
X9129673Y2002494D01*
X9155354Y1999500D01*
X12744646Y1999500D01*
X12748350Y1999941D01*
X12748353Y1999941D01*
X12755746Y2000821D01*
X12770846Y2002618D01*
X12873153Y2048061D01*
X12952241Y2127287D01*
X12997506Y2229673D01*
X13000500Y2255354D01*
X13000500Y2588115D01*
X54056000Y2588115D01*
X54060475Y2572876D01*
X54061865Y2571671D01*
X54069548Y2570000D01*
X54949885Y2570000D01*
X54965124Y2574475D01*
X54966329Y2575865D01*
X54968000Y2583548D01*
X54968000Y2588115D01*
X55268000Y2588115D01*
X55272475Y2572876D01*
X55273865Y2571671D01*
X55281548Y2570000D01*
X56161885Y2570000D01*
X56177124Y2574475D01*
X56178329Y2575865D01*
X56180000Y2583548D01*
X56180000Y2588115D01*
X56596000Y2588115D01*
X56600475Y2572876D01*
X56601865Y2571671D01*
X56609548Y2570000D01*
X57489885Y2570000D01*
X57505124Y2574475D01*
X57506329Y2575865D01*
X57508000Y2583548D01*
X57508000Y2588115D01*
X57808000Y2588115D01*
X57812475Y2572876D01*
X57813865Y2571671D01*
X57821548Y2570000D01*
X58701885Y2570000D01*
X58717124Y2574475D01*
X58718329Y2575865D01*
X58720000Y2583548D01*
X58720000Y3222840D01*
X58719558Y3230286D01*
X58718006Y3243336D01*
X58713048Y3261374D01*
X58676245Y3344231D01*
X58663287Y3363085D01*
X58600658Y3425604D01*
X58581788Y3438525D01*
X58498875Y3475180D01*
X58480798Y3480108D01*
X58468213Y3481576D01*
X58460912Y3482000D01*
X57826115Y3482000D01*
X57810876Y3477525D01*
X57809671Y3476135D01*
X57808000Y3468452D01*
X57808000Y2588115D01*
X57508000Y2588115D01*
X57508000Y3463885D01*
X57503525Y3479124D01*
X57502135Y3480329D01*
X57494452Y3482000D01*
X56855160Y3482000D01*
X56847714Y3481558D01*
X56834664Y3480006D01*
X56816626Y3475048D01*
X56733769Y3438245D01*
X56714915Y3425287D01*
X56652396Y3362658D01*
X56639475Y3343788D01*
X56602820Y3260875D01*
X56597892Y3242798D01*
X56596424Y3230213D01*
X56596000Y3222912D01*
X56596000Y2588115D01*
X56180000Y2588115D01*
X56180000Y3222840D01*
X56179558Y3230286D01*
X56178006Y3243336D01*
X56173048Y3261374D01*
X56136245Y3344231D01*
X56123287Y3363085D01*
X56060658Y3425604D01*
X56041788Y3438525D01*
X55958875Y3475180D01*
X55940798Y3480108D01*
X55928213Y3481576D01*
X55920912Y3482000D01*
X55286115Y3482000D01*
X55270876Y3477525D01*
X55269671Y3476135D01*
X55268000Y3468452D01*
X55268000Y2588115D01*
X54968000Y2588115D01*
X54968000Y3463885D01*
X54963525Y3479124D01*
X54962135Y3480329D01*
X54954452Y3482000D01*
X54315160Y3482000D01*
X54307714Y3481558D01*
X54294664Y3480006D01*
X54276626Y3475048D01*
X54193769Y3438245D01*
X54174915Y3425287D01*
X54112396Y3362658D01*
X54099475Y3343788D01*
X54062820Y3260875D01*
X54057892Y3242798D01*
X54056424Y3230213D01*
X54056000Y3222912D01*
X54056000Y2588115D01*
X13000500Y2588115D01*
X13000500Y4153354D01*
X54055500Y4153354D01*
X54058618Y4127154D01*
X54104061Y4024847D01*
X54183287Y3945759D01*
X54193924Y3941056D01*
X54193926Y3941055D01*
X54253462Y3914735D01*
X54285673Y3900494D01*
X54311354Y3897500D01*
X55924646Y3897500D01*
X55928350Y3897941D01*
X55928353Y3897941D01*
X55935746Y3898821D01*
X55950846Y3900618D01*
X56053153Y3946061D01*
X56132241Y4025287D01*
X56177506Y4127673D01*
X56180500Y4153354D01*
X56595500Y4153354D01*
X56598618Y4127154D01*
X56644061Y4024847D01*
X56723287Y3945759D01*
X56733924Y3941056D01*
X56733926Y3941055D01*
X56793462Y3914735D01*
X56825673Y3900494D01*
X56851354Y3897500D01*
X58464646Y3897500D01*
X58468350Y3897941D01*
X58468353Y3897941D01*
X58475746Y3898821D01*
X58490846Y3900618D01*
X58593153Y3946061D01*
X58672241Y4025287D01*
X58717506Y4127673D01*
X58720500Y4153354D01*
X58720500Y5766646D01*
X58717382Y5792846D01*
X58696001Y5840983D01*
X58676663Y5884518D01*
X58671939Y5895153D01*
X58592713Y5974241D01*
X58582076Y5978944D01*
X58582074Y5978945D01*
X58522538Y6005265D01*
X58490327Y6019506D01*
X58464646Y6022500D01*
X56851354Y6022500D01*
X56847650Y6022059D01*
X56847647Y6022059D01*
X56840254Y6021179D01*
X56825154Y6019382D01*
X56816514Y6015544D01*
X56816513Y6015544D01*
X56739583Y5981373D01*
X56722847Y5973939D01*
X56714628Y5965706D01*
X56714627Y5965705D01*
X56683142Y5934165D01*
X56643759Y5894713D01*
X56639056Y5884076D01*
X56639055Y5884074D01*
X56630049Y5863703D01*
X56598494Y5792327D01*
X56595500Y5766646D01*
X56595500Y4153354D01*
X56180500Y4153354D01*
X56180500Y5766646D01*
X56177382Y5792846D01*
X56156001Y5840983D01*
X56136663Y5884518D01*
X56131939Y5895153D01*
X56052713Y5974241D01*
X56042076Y5978944D01*
X56042074Y5978945D01*
X55982538Y6005265D01*
X55950327Y6019506D01*
X55924646Y6022500D01*
X54311354Y6022500D01*
X54307650Y6022059D01*
X54307647Y6022059D01*
X54300254Y6021179D01*
X54285154Y6019382D01*
X54276514Y6015544D01*
X54276513Y6015544D01*
X54199583Y5981373D01*
X54182847Y5973939D01*
X54174628Y5965706D01*
X54174627Y5965705D01*
X54143142Y5934165D01*
X54103759Y5894713D01*
X54099056Y5884076D01*
X54099055Y5884074D01*
X54090049Y5863703D01*
X54058494Y5792327D01*
X54055500Y5766646D01*
X54055500Y4153354D01*
X13000500Y4153354D01*
X13000500Y5844646D01*
X12997382Y5870846D01*
X12991507Y5884074D01*
X12956663Y5962518D01*
X12951939Y5973153D01*
X12872713Y6052241D01*
X12862076Y6056944D01*
X12862074Y6056945D01*
X12802538Y6083265D01*
X12770327Y6097506D01*
X12744646Y6100500D01*
X9155354Y6100500D01*
X9151650Y6100059D01*
X9151647Y6100059D01*
X9144254Y6099179D01*
X9129154Y6097382D01*
X9026847Y6051939D01*
X9018628Y6043706D01*
X9018627Y6043705D01*
X8995462Y6020499D01*
X8947759Y5972713D01*
X8902494Y5870327D01*
X8899500Y5844646D01*
X8899500Y2255354D01*
X6100500Y2255354D01*
X6100500Y5844646D01*
X6097382Y5870846D01*
X6091507Y5884074D01*
X6056663Y5962518D01*
X6051939Y5973153D01*
X5972713Y6052241D01*
X5962076Y6056944D01*
X5962074Y6056945D01*
X5902538Y6083265D01*
X5870327Y6097506D01*
X5844646Y6100500D01*
X2900925Y6100500D01*
X2832804Y6120502D01*
X2811830Y6137405D01*
X2415405Y6533830D01*
X2381379Y6596142D01*
X2378500Y6622925D01*
X2378500Y6697160D01*
X54056000Y6697160D01*
X54056442Y6689714D01*
X54057994Y6676664D01*
X54062952Y6658626D01*
X54099755Y6575769D01*
X54112713Y6556915D01*
X54175342Y6494396D01*
X54194212Y6481475D01*
X54277125Y6444820D01*
X54295202Y6439892D01*
X54307787Y6438424D01*
X54315088Y6438000D01*
X54949885Y6438000D01*
X54965124Y6442475D01*
X54966329Y6443865D01*
X54968000Y6451548D01*
X54968000Y6456115D01*
X55268000Y6456115D01*
X55272475Y6440876D01*
X55273865Y6439671D01*
X55281548Y6438000D01*
X55920840Y6438000D01*
X55928286Y6438442D01*
X55941336Y6439994D01*
X55959374Y6444952D01*
X56042231Y6481755D01*
X56061085Y6494713D01*
X56123604Y6557342D01*
X56136525Y6576212D01*
X56173180Y6659125D01*
X56178108Y6677202D01*
X56179576Y6689787D01*
X56180000Y6697088D01*
X56180000Y6697160D01*
X56596000Y6697160D01*
X56596442Y6689714D01*
X56597994Y6676664D01*
X56602952Y6658626D01*
X56639755Y6575769D01*
X56652713Y6556915D01*
X56715342Y6494396D01*
X56734212Y6481475D01*
X56817125Y6444820D01*
X56835202Y6439892D01*
X56847787Y6438424D01*
X56855088Y6438000D01*
X57489885Y6438000D01*
X57505124Y6442475D01*
X57506329Y6443865D01*
X57508000Y6451548D01*
X57508000Y6456115D01*
X57808000Y6456115D01*
X57812475Y6440876D01*
X57813865Y6439671D01*
X57821548Y6438000D01*
X58460840Y6438000D01*
X58468286Y6438442D01*
X58481336Y6439994D01*
X58499374Y6444952D01*
X58582231Y6481755D01*
X58601085Y6494713D01*
X58663604Y6557342D01*
X58676525Y6576212D01*
X58713180Y6659125D01*
X58718108Y6677202D01*
X58719576Y6689787D01*
X58720000Y6697088D01*
X58720000Y7331885D01*
X58715525Y7347124D01*
X58714135Y7348329D01*
X58706452Y7350000D01*
X57826115Y7350000D01*
X57810876Y7345525D01*
X57809671Y7344135D01*
X57808000Y7336452D01*
X57808000Y6456115D01*
X57508000Y6456115D01*
X57508000Y7331885D01*
X57503525Y7347124D01*
X57502135Y7348329D01*
X57494452Y7350000D01*
X56614115Y7350000D01*
X56598876Y7345525D01*
X56597671Y7344135D01*
X56596000Y7336452D01*
X56596000Y6697160D01*
X56180000Y6697160D01*
X56180000Y7331885D01*
X56175525Y7347124D01*
X56174135Y7348329D01*
X56166452Y7350000D01*
X55286115Y7350000D01*
X55270876Y7345525D01*
X55269671Y7344135D01*
X55268000Y7336452D01*
X55268000Y6456115D01*
X54968000Y6456115D01*
X54968000Y7331885D01*
X54963525Y7347124D01*
X54962135Y7348329D01*
X54954452Y7350000D01*
X54074115Y7350000D01*
X54058876Y7345525D01*
X54057671Y7344135D01*
X54056000Y7336452D01*
X54056000Y6697160D01*
X2378500Y6697160D01*
X2378500Y6963107D01*
X2393717Y7022373D01*
X2396361Y7026053D01*
X2401703Y7039340D01*
X2456766Y7176313D01*
X2456767Y7176315D01*
X2459601Y7183366D01*
X2481388Y7336452D01*
X2482909Y7347138D01*
X2482909Y7347141D01*
X2483490Y7351222D01*
X2483645Y7366000D01*
X2481840Y7380920D01*
X2476152Y7427917D01*
X2463276Y7534320D01*
X2403345Y7692923D01*
X2387225Y7716377D01*
X2311614Y7826392D01*
X2311613Y7826393D01*
X2307312Y7832651D01*
X2274935Y7861498D01*
X2186392Y7940388D01*
X2186388Y7940390D01*
X2180721Y7945440D01*
X2030881Y8024776D01*
X1866441Y8066081D01*
X1858843Y8066121D01*
X1858841Y8066121D01*
X1781668Y8066525D01*
X1696895Y8066969D01*
X1689508Y8065195D01*
X1689504Y8065195D01*
X1546162Y8030780D01*
X1532032Y8027388D01*
X1525288Y8023907D01*
X1525285Y8023906D01*
X1520089Y8021224D01*
X1381369Y7949625D01*
X1375647Y7944633D01*
X1375645Y7944632D01*
X1304069Y7882192D01*
X1253604Y7838169D01*
X1227723Y7801344D01*
X1169199Y7718072D01*
X1156113Y7699453D01*
X1094524Y7541487D01*
X1093532Y7533954D01*
X1093532Y7533953D01*
X1079573Y7427917D01*
X1072394Y7373389D01*
X500500Y7373389D01*
X500500Y8389389D01*
X43998394Y8389389D01*
X44016999Y8220865D01*
X44019609Y8213734D01*
X44057886Y8109138D01*
X44075266Y8061644D01*
X44169830Y7920917D01*
X44175442Y7915810D01*
X44175445Y7915807D01*
X44289612Y7811923D01*
X44289616Y7811920D01*
X44295233Y7806809D01*
X44301906Y7803186D01*
X44301910Y7803183D01*
X44437558Y7729533D01*
X44437560Y7729532D01*
X44444235Y7725908D01*
X44451584Y7723980D01*
X44600883Y7684812D01*
X44600885Y7684812D01*
X44608233Y7682884D01*
X44694609Y7681527D01*
X44770161Y7680340D01*
X44770164Y7680340D01*
X44777760Y7680221D01*
X44785165Y7681917D01*
X44785166Y7681917D01*
X44888878Y7705670D01*
X44943029Y7718072D01*
X45094498Y7794253D01*
X45100270Y7799182D01*
X45100272Y7799184D01*
X45141580Y7834465D01*
X45161305Y7851311D01*
X45226094Y7880342D01*
X45243135Y7881500D01*
X48787445Y7881500D01*
X48855566Y7861498D01*
X48899213Y7813255D01*
X48901266Y7807644D01*
X48905498Y7801346D01*
X48905499Y7801344D01*
X48918574Y7781887D01*
X48995830Y7666917D01*
X49001442Y7661810D01*
X49001445Y7661807D01*
X49115612Y7557923D01*
X49115616Y7557920D01*
X49121233Y7552809D01*
X49127906Y7549186D01*
X49127910Y7549183D01*
X49263558Y7475533D01*
X49263560Y7475532D01*
X49270235Y7471908D01*
X49277584Y7469980D01*
X49426883Y7430812D01*
X49426885Y7430812D01*
X49434233Y7428884D01*
X49520609Y7427527D01*
X49596161Y7426340D01*
X49596164Y7426340D01*
X49603760Y7426221D01*
X49611165Y7427917D01*
X49611166Y7427917D01*
X49671586Y7441755D01*
X49769029Y7464072D01*
X49920498Y7540253D01*
X50049423Y7650366D01*
X50062177Y7668115D01*
X54056000Y7668115D01*
X54060475Y7652876D01*
X54061865Y7651671D01*
X54069548Y7650000D01*
X54949885Y7650000D01*
X54965124Y7654475D01*
X54966329Y7655865D01*
X54968000Y7663548D01*
X54968000Y7668115D01*
X55268000Y7668115D01*
X55272475Y7652876D01*
X55273865Y7651671D01*
X55281548Y7650000D01*
X56161885Y7650000D01*
X56177124Y7654475D01*
X56178329Y7655865D01*
X56180000Y7663548D01*
X56180000Y7668115D01*
X56596000Y7668115D01*
X56600475Y7652876D01*
X56601865Y7651671D01*
X56609548Y7650000D01*
X57489885Y7650000D01*
X57505124Y7654475D01*
X57506329Y7655865D01*
X57508000Y7663548D01*
X57508000Y7668115D01*
X57808000Y7668115D01*
X57812475Y7652876D01*
X57813865Y7651671D01*
X57821548Y7650000D01*
X58701885Y7650000D01*
X58717124Y7654475D01*
X58718329Y7655865D01*
X58720000Y7663548D01*
X58720000Y8302840D01*
X58719558Y8310286D01*
X58718006Y8323336D01*
X58713048Y8341374D01*
X58676245Y8424231D01*
X58663287Y8443085D01*
X58600658Y8505604D01*
X58581788Y8518525D01*
X58498875Y8555180D01*
X58480798Y8560108D01*
X58468213Y8561576D01*
X58460912Y8562000D01*
X57826115Y8562000D01*
X57810876Y8557525D01*
X57809671Y8556135D01*
X57808000Y8548452D01*
X57808000Y7668115D01*
X57508000Y7668115D01*
X57508000Y8543885D01*
X57503525Y8559124D01*
X57502135Y8560329D01*
X57494452Y8562000D01*
X56855160Y8562000D01*
X56847714Y8561558D01*
X56834664Y8560006D01*
X56816626Y8555048D01*
X56733769Y8518245D01*
X56714915Y8505287D01*
X56652396Y8442658D01*
X56639475Y8423788D01*
X56602820Y8340875D01*
X56597892Y8322798D01*
X56596424Y8310213D01*
X56596000Y8302912D01*
X56596000Y7668115D01*
X56180000Y7668115D01*
X56180000Y8302840D01*
X56179558Y8310286D01*
X56178006Y8323336D01*
X56173048Y8341374D01*
X56136245Y8424231D01*
X56123287Y8443085D01*
X56060658Y8505604D01*
X56041788Y8518525D01*
X55958875Y8555180D01*
X55940798Y8560108D01*
X55928213Y8561576D01*
X55920912Y8562000D01*
X55286115Y8562000D01*
X55270876Y8557525D01*
X55269671Y8556135D01*
X55268000Y8548452D01*
X55268000Y7668115D01*
X54968000Y7668115D01*
X54968000Y8543885D01*
X54963525Y8559124D01*
X54962135Y8560329D01*
X54954452Y8562000D01*
X54315160Y8562000D01*
X54307714Y8561558D01*
X54294664Y8560006D01*
X54276626Y8555048D01*
X54193769Y8518245D01*
X54174915Y8505287D01*
X54112396Y8442658D01*
X54099475Y8423788D01*
X54062820Y8340875D01*
X54057892Y8322798D01*
X54056424Y8310213D01*
X54056000Y8302912D01*
X54056000Y7668115D01*
X50062177Y7668115D01*
X50148361Y7788053D01*
X50166010Y7831955D01*
X50208766Y7938313D01*
X50208767Y7938315D01*
X50211601Y7945366D01*
X50235490Y8113222D01*
X50235645Y8128000D01*
X50215276Y8296320D01*
X50155345Y8454923D01*
X50086440Y8555180D01*
X50063614Y8588392D01*
X50063613Y8588393D01*
X50059312Y8594651D01*
X50053641Y8599704D01*
X49938392Y8702388D01*
X49938388Y8702390D01*
X49932721Y8707440D01*
X49782881Y8786776D01*
X49618441Y8828081D01*
X49610844Y8828121D01*
X49610842Y8828121D01*
X49570239Y8828333D01*
X49533004Y8828528D01*
X49489436Y8836543D01*
X49475252Y8841861D01*
X49465941Y8845785D01*
X49431965Y8861737D01*
X49431964Y8861737D01*
X49423837Y8865553D01*
X49414963Y8866935D01*
X49411350Y8868039D01*
X49396693Y8871885D01*
X49392990Y8872699D01*
X49384580Y8875852D01*
X49338157Y8879302D01*
X49328144Y8880452D01*
X49314991Y8882500D01*
X49299796Y8882500D01*
X49290459Y8882846D01*
X49275036Y8883992D01*
X49241608Y8886476D01*
X49232832Y8884603D01*
X49223875Y8883992D01*
X49223875Y8883998D01*
X49209682Y8882500D01*
X45243309Y8882500D01*
X45175188Y8902502D01*
X45159499Y8914417D01*
X45106721Y8961440D01*
X44956881Y9040776D01*
X44792441Y9082081D01*
X44784843Y9082121D01*
X44784841Y9082121D01*
X44707668Y9082525D01*
X44622895Y9082969D01*
X44615508Y9081195D01*
X44615504Y9081195D01*
X44472162Y9046780D01*
X44458032Y9043388D01*
X44451288Y9039907D01*
X44451285Y9039906D01*
X44331231Y8977941D01*
X44307369Y8965625D01*
X44301647Y8960633D01*
X44301645Y8960632D01*
X44281496Y8943055D01*
X44179604Y8854169D01*
X44167216Y8836543D01*
X44132240Y8786776D01*
X44082113Y8715453D01*
X44020524Y8557487D01*
X44019532Y8549954D01*
X44019532Y8549953D01*
X44002923Y8423788D01*
X43998394Y8389389D01*
X500500Y8389389D01*
X500500Y9155354D01*
X1999500Y9155354D01*
X2002618Y9129154D01*
X2006456Y9120514D01*
X2006456Y9120513D01*
X2024349Y9080230D01*
X2048061Y9026847D01*
X2127287Y8947759D01*
X2137924Y8943056D01*
X2137926Y8943055D01*
X2197462Y8916735D01*
X2229673Y8902494D01*
X2255354Y8899500D01*
X5844646Y8899500D01*
X5848350Y8899941D01*
X5848353Y8899941D01*
X5855746Y8900821D01*
X5870846Y8902618D01*
X5897426Y8914424D01*
X5962518Y8943337D01*
X5973153Y8948061D01*
X5981469Y8956391D01*
X6044023Y9019055D01*
X6052241Y9027287D01*
X6059360Y9043388D01*
X6093675Y9121008D01*
X6097506Y9129673D01*
X6100500Y9155354D01*
X8899500Y9155354D01*
X8902618Y9129154D01*
X8906456Y9120514D01*
X8906456Y9120513D01*
X8924349Y9080230D01*
X8948061Y9026847D01*
X9027287Y8947759D01*
X9037924Y8943056D01*
X9037926Y8943055D01*
X9097462Y8916735D01*
X9129673Y8902494D01*
X9155354Y8899500D01*
X12744646Y8899500D01*
X12748350Y8899941D01*
X12748353Y8899941D01*
X12755746Y8900821D01*
X12770846Y8902618D01*
X12797426Y8914424D01*
X12862518Y8943337D01*
X12873153Y8948061D01*
X12881469Y8956391D01*
X12944023Y9019055D01*
X12952241Y9027287D01*
X12959360Y9043388D01*
X12993675Y9121008D01*
X12997506Y9129673D01*
X13000500Y9155354D01*
X13000500Y9233354D01*
X54055500Y9233354D01*
X54058618Y9207154D01*
X54062456Y9198514D01*
X54062456Y9198513D01*
X54097102Y9120513D01*
X54104061Y9104847D01*
X54112294Y9096628D01*
X54112295Y9096627D01*
X54126867Y9082081D01*
X54183287Y9025759D01*
X54193924Y9021056D01*
X54193926Y9021055D01*
X54253462Y8994735D01*
X54285673Y8980494D01*
X54311354Y8977500D01*
X55924646Y8977500D01*
X55928350Y8977941D01*
X55928353Y8977941D01*
X55935746Y8978821D01*
X55950846Y8980618D01*
X56053153Y9026061D01*
X56064998Y9037926D01*
X56092858Y9065835D01*
X56132241Y9105287D01*
X56138973Y9120513D01*
X56173675Y9199008D01*
X56177506Y9207673D01*
X56180500Y9233354D01*
X56595500Y9233354D01*
X56598618Y9207154D01*
X56602456Y9198514D01*
X56602456Y9198513D01*
X56637102Y9120513D01*
X56644061Y9104847D01*
X56652294Y9096628D01*
X56652295Y9096627D01*
X56666867Y9082081D01*
X56723287Y9025759D01*
X56733924Y9021056D01*
X56733926Y9021055D01*
X56793462Y8994735D01*
X56825673Y8980494D01*
X56851354Y8977500D01*
X58464646Y8977500D01*
X58468350Y8977941D01*
X58468353Y8977941D01*
X58475746Y8978821D01*
X58490846Y8980618D01*
X58593153Y9026061D01*
X58604998Y9037926D01*
X58632858Y9065835D01*
X58672241Y9105287D01*
X58678973Y9120513D01*
X58713675Y9199008D01*
X58717506Y9207673D01*
X58720500Y9233354D01*
X58720500Y10846646D01*
X58717382Y10872846D01*
X58671939Y10975153D01*
X58592713Y11054241D01*
X58582076Y11058944D01*
X58582074Y11058945D01*
X58522538Y11085265D01*
X58490327Y11099506D01*
X58464646Y11102500D01*
X56851354Y11102500D01*
X56847650Y11102059D01*
X56847647Y11102059D01*
X56840254Y11101179D01*
X56825154Y11099382D01*
X56722847Y11053939D01*
X56643759Y10974713D01*
X56598494Y10872327D01*
X56595500Y10846646D01*
X56595500Y9233354D01*
X56180500Y9233354D01*
X56180500Y10846646D01*
X56177382Y10872846D01*
X56131939Y10975153D01*
X56052713Y11054241D01*
X56042076Y11058944D01*
X56042074Y11058945D01*
X55982538Y11085265D01*
X55950327Y11099506D01*
X55924646Y11102500D01*
X54311354Y11102500D01*
X54307650Y11102059D01*
X54307647Y11102059D01*
X54300254Y11101179D01*
X54285154Y11099382D01*
X54182847Y11053939D01*
X54103759Y10974713D01*
X54058494Y10872327D01*
X54055500Y10846646D01*
X54055500Y9233354D01*
X13000500Y9233354D01*
X13000500Y11777160D01*
X54056000Y11777160D01*
X54056442Y11769714D01*
X54057994Y11756664D01*
X54062952Y11738626D01*
X54099755Y11655769D01*
X54112713Y11636915D01*
X54175342Y11574396D01*
X54194212Y11561475D01*
X54277125Y11524820D01*
X54295202Y11519892D01*
X54307787Y11518424D01*
X54315088Y11518000D01*
X54949885Y11518000D01*
X54965124Y11522475D01*
X54966329Y11523865D01*
X54968000Y11531548D01*
X54968000Y11536115D01*
X55268000Y11536115D01*
X55272475Y11520876D01*
X55273865Y11519671D01*
X55281548Y11518000D01*
X55920840Y11518000D01*
X55928286Y11518442D01*
X55941336Y11519994D01*
X55959374Y11524952D01*
X56042231Y11561755D01*
X56061085Y11574713D01*
X56123604Y11637342D01*
X56136525Y11656212D01*
X56173180Y11739125D01*
X56178108Y11757202D01*
X56179576Y11769787D01*
X56180000Y11777088D01*
X56180000Y11777160D01*
X56596000Y11777160D01*
X56596442Y11769714D01*
X56597994Y11756664D01*
X56602952Y11738626D01*
X56639755Y11655769D01*
X56652713Y11636915D01*
X56715342Y11574396D01*
X56734212Y11561475D01*
X56817125Y11524820D01*
X56835202Y11519892D01*
X56847787Y11518424D01*
X56855088Y11518000D01*
X57489885Y11518000D01*
X57505124Y11522475D01*
X57506329Y11523865D01*
X57508000Y11531548D01*
X57508000Y11536115D01*
X57808000Y11536115D01*
X57812475Y11520876D01*
X57813865Y11519671D01*
X57821548Y11518000D01*
X58460840Y11518000D01*
X58468286Y11518442D01*
X58481336Y11519994D01*
X58499374Y11524952D01*
X58582231Y11561755D01*
X58601085Y11574713D01*
X58663604Y11637342D01*
X58676525Y11656212D01*
X58713180Y11739125D01*
X58718108Y11757202D01*
X58719576Y11769787D01*
X58720000Y11777088D01*
X58720000Y12411885D01*
X58715525Y12427124D01*
X58714135Y12428329D01*
X58706452Y12430000D01*
X57826115Y12430000D01*
X57810876Y12425525D01*
X57809671Y12424135D01*
X57808000Y12416452D01*
X57808000Y11536115D01*
X57508000Y11536115D01*
X57508000Y12411885D01*
X57503525Y12427124D01*
X57502135Y12428329D01*
X57494452Y12430000D01*
X56614115Y12430000D01*
X56598876Y12425525D01*
X56597671Y12424135D01*
X56596000Y12416452D01*
X56596000Y11777160D01*
X56180000Y11777160D01*
X56180000Y12411885D01*
X56175525Y12427124D01*
X56174135Y12428329D01*
X56166452Y12430000D01*
X55286115Y12430000D01*
X55270876Y12425525D01*
X55269671Y12424135D01*
X55268000Y12416452D01*
X55268000Y11536115D01*
X54968000Y11536115D01*
X54968000Y12411885D01*
X54963525Y12427124D01*
X54962135Y12428329D01*
X54954452Y12430000D01*
X54074115Y12430000D01*
X54058876Y12425525D01*
X54057671Y12424135D01*
X54056000Y12416452D01*
X54056000Y11777160D01*
X13000500Y11777160D01*
X13000500Y12744646D01*
X13000087Y12748115D01*
X54056000Y12748115D01*
X54060475Y12732876D01*
X54061865Y12731671D01*
X54069548Y12730000D01*
X54949885Y12730000D01*
X54965124Y12734475D01*
X54966329Y12735865D01*
X54968000Y12743548D01*
X54968000Y12748115D01*
X55268000Y12748115D01*
X55272475Y12732876D01*
X55273865Y12731671D01*
X55281548Y12730000D01*
X56161885Y12730000D01*
X56177124Y12734475D01*
X56178329Y12735865D01*
X56180000Y12743548D01*
X56180000Y12748115D01*
X56596000Y12748115D01*
X56600475Y12732876D01*
X56601865Y12731671D01*
X56609548Y12730000D01*
X57489885Y12730000D01*
X57505124Y12734475D01*
X57506329Y12735865D01*
X57508000Y12743548D01*
X57508000Y12748115D01*
X57808000Y12748115D01*
X57812475Y12732876D01*
X57813865Y12731671D01*
X57821548Y12730000D01*
X58701885Y12730000D01*
X58717124Y12734475D01*
X58718329Y12735865D01*
X58720000Y12743548D01*
X58720000Y13382840D01*
X58719558Y13390286D01*
X58718006Y13403336D01*
X58713048Y13421374D01*
X58676245Y13504231D01*
X58663287Y13523085D01*
X58600658Y13585604D01*
X58581788Y13598525D01*
X58498875Y13635180D01*
X58480798Y13640108D01*
X58468213Y13641576D01*
X58460912Y13642000D01*
X57826115Y13642000D01*
X57810876Y13637525D01*
X57809671Y13636135D01*
X57808000Y13628452D01*
X57808000Y12748115D01*
X57508000Y12748115D01*
X57508000Y13623885D01*
X57503525Y13639124D01*
X57502135Y13640329D01*
X57494452Y13642000D01*
X56855160Y13642000D01*
X56847714Y13641558D01*
X56834664Y13640006D01*
X56816626Y13635048D01*
X56733769Y13598245D01*
X56714915Y13585287D01*
X56652396Y13522658D01*
X56639475Y13503788D01*
X56602820Y13420875D01*
X56597892Y13402798D01*
X56596424Y13390213D01*
X56596000Y13382912D01*
X56596000Y12748115D01*
X56180000Y12748115D01*
X56180000Y13382840D01*
X56179558Y13390286D01*
X56178006Y13403336D01*
X56173048Y13421374D01*
X56136245Y13504231D01*
X56123287Y13523085D01*
X56060658Y13585604D01*
X56041788Y13598525D01*
X55958875Y13635180D01*
X55940798Y13640108D01*
X55928213Y13641576D01*
X55920912Y13642000D01*
X55286115Y13642000D01*
X55270876Y13637525D01*
X55269671Y13636135D01*
X55268000Y13628452D01*
X55268000Y12748115D01*
X54968000Y12748115D01*
X54968000Y13623885D01*
X54963525Y13639124D01*
X54962135Y13640329D01*
X54954452Y13642000D01*
X54315160Y13642000D01*
X54307714Y13641558D01*
X54294664Y13640006D01*
X54276626Y13635048D01*
X54193769Y13598245D01*
X54174915Y13585287D01*
X54112396Y13522658D01*
X54099475Y13503788D01*
X54062820Y13420875D01*
X54057892Y13402798D01*
X54056424Y13390213D01*
X54056000Y13382912D01*
X54056000Y12748115D01*
X13000087Y12748115D01*
X12997382Y12770846D01*
X12951939Y12873153D01*
X12872713Y12952241D01*
X12862076Y12956944D01*
X12862074Y12956945D01*
X12802538Y12983265D01*
X12770327Y12997506D01*
X12744646Y13000500D01*
X10983264Y13000500D01*
X10915143Y13020502D01*
X10868650Y13074158D01*
X10858521Y13144253D01*
X10864909Y13189138D01*
X10864909Y13189141D01*
X10865490Y13193222D01*
X10865645Y13208000D01*
X10863840Y13222920D01*
X10846188Y13368780D01*
X10845276Y13376320D01*
X10785345Y13534923D01*
X10716440Y13635180D01*
X10693614Y13668392D01*
X10693613Y13668393D01*
X10689312Y13674651D01*
X10677514Y13685163D01*
X10568392Y13782388D01*
X10568388Y13782390D01*
X10562721Y13787440D01*
X10412881Y13866776D01*
X10248441Y13908081D01*
X10240843Y13908121D01*
X10240841Y13908121D01*
X10163668Y13908525D01*
X10078895Y13908969D01*
X10071508Y13907195D01*
X10071504Y13907195D01*
X9928162Y13872780D01*
X9914032Y13869388D01*
X9907288Y13865907D01*
X9907285Y13865906D01*
X9902089Y13863224D01*
X9763369Y13791625D01*
X9635604Y13680169D01*
X9538113Y13541453D01*
X9476524Y13383487D01*
X9454394Y13215389D01*
X9457292Y13189138D01*
X9462681Y13140326D01*
X9450275Y13070422D01*
X9402045Y13018322D01*
X9337442Y13000500D01*
X9155354Y13000500D01*
X9151650Y13000059D01*
X9151647Y13000059D01*
X9144254Y12999179D01*
X9129154Y12997382D01*
X9026847Y12951939D01*
X8947759Y12872713D01*
X8902494Y12770327D01*
X8899500Y12744646D01*
X8899500Y9155354D01*
X6100500Y9155354D01*
X6100500Y12744646D01*
X6097382Y12770846D01*
X6051939Y12873153D01*
X5972713Y12952241D01*
X5962076Y12956944D01*
X5962074Y12956945D01*
X5902538Y12983265D01*
X5870327Y12997506D01*
X5844646Y13000500D01*
X2255354Y13000500D01*
X2251650Y13000059D01*
X2251647Y13000059D01*
X2244254Y12999179D01*
X2229154Y12997382D01*
X2126847Y12951939D01*
X2047759Y12872713D01*
X2002494Y12770327D01*
X1999500Y12744646D01*
X1999500Y9155354D01*
X500500Y9155354D01*
X500500Y14373500D01*
X520502Y14441621D01*
X574158Y14488114D01*
X626500Y14499500D01*
X59373500Y14499500D01*
X59441621Y14479498D01*
G37*
%TD.AperFunction*%
%TD*%
M02*
