%TF.GenerationSoftware,KiCad,Pcbnew,6.0.4-6f826c9f35~116~ubuntu20.04.1*%
%TF.CreationDate,2022-05-17T19:32:16+00:00*%
%TF.ProjectId,USTSIPM01A,55535453-4950-44d3-9031-412e6b696361,rev?*%
%TF.SameCoordinates,Original*%
%TF.FileFunction,Copper,L2,Bot*%
%TF.FilePolarity,Positive*%
%FSLAX46Y46*%
G04 Gerber Fmt 4.6, Leading zero omitted, Abs format (unit mm)*
G04 Created by KiCad (PCBNEW 6.0.4-6f826c9f35~116~ubuntu20.04.1) date 2022-05-17 19:32:16*
%MOMM*%
%LPD*%
G01*
G04 APERTURE LIST*
G04 Aperture macros list*
%AMRoundRect*
0 Rectangle with rounded corners*
0 $1 Rounding radius*
0 $2 $3 $4 $5 $6 $7 $8 $9 X,Y pos of 4 corners*
0 Add a 4 corners polygon primitive as box body*
4,1,4,$2,$3,$4,$5,$6,$7,$8,$9,$2,$3,0*
0 Add four circle primitives for the rounded corners*
1,1,$1+$1,$2,$3*
1,1,$1+$1,$4,$5*
1,1,$1+$1,$6,$7*
1,1,$1+$1,$8,$9*
0 Add four rect primitives between the rounded corners*
20,1,$1+$1,$2,$3,$4,$5,0*
20,1,$1+$1,$4,$5,$6,$7,0*
20,1,$1+$1,$6,$7,$8,$9,0*
20,1,$1+$1,$8,$9,$2,$3,0*%
G04 Aperture macros list end*
%TA.AperFunction,ComponentPad*%
%ADD10R,1.524000X1.524000*%
%TD*%
%TA.AperFunction,SMDPad,CuDef*%
%ADD11RoundRect,0.250000X-0.262500X-0.450000X0.262500X-0.450000X0.262500X0.450000X-0.262500X0.450000X0*%
%TD*%
%TA.AperFunction,SMDPad,CuDef*%
%ADD12RoundRect,0.250000X0.475000X-0.250000X0.475000X0.250000X-0.475000X0.250000X-0.475000X-0.250000X0*%
%TD*%
%TA.AperFunction,SMDPad,CuDef*%
%ADD13RoundRect,0.250000X-0.475000X0.250000X-0.475000X-0.250000X0.475000X-0.250000X0.475000X0.250000X0*%
%TD*%
%TA.AperFunction,SMDPad,CuDef*%
%ADD14RoundRect,0.250001X1.074999X-0.462499X1.074999X0.462499X-1.074999X0.462499X-1.074999X-0.462499X0*%
%TD*%
%TA.AperFunction,SMDPad,CuDef*%
%ADD15R,0.600000X0.700000*%
%TD*%
%TA.AperFunction,SMDPad,CuDef*%
%ADD16RoundRect,0.250000X0.450000X-0.262500X0.450000X0.262500X-0.450000X0.262500X-0.450000X-0.262500X0*%
%TD*%
%TA.AperFunction,SMDPad,CuDef*%
%ADD17RoundRect,0.150000X-0.512500X-0.150000X0.512500X-0.150000X0.512500X0.150000X-0.512500X0.150000X0*%
%TD*%
%TA.AperFunction,SMDPad,CuDef*%
%ADD18RoundRect,0.250000X-0.450000X0.262500X-0.450000X-0.262500X0.450000X-0.262500X0.450000X0.262500X0*%
%TD*%
%TA.AperFunction,SMDPad,CuDef*%
%ADD19R,0.700000X0.600000*%
%TD*%
%TA.AperFunction,SMDPad,CuDef*%
%ADD20R,1.560000X0.650000*%
%TD*%
%TA.AperFunction,SMDPad,CuDef*%
%ADD21RoundRect,0.250000X-0.250000X-0.475000X0.250000X-0.475000X0.250000X0.475000X-0.250000X0.475000X0*%
%TD*%
%TA.AperFunction,ViaPad*%
%ADD22C,0.800000*%
%TD*%
%TA.AperFunction,Conductor*%
%ADD23C,0.600000*%
%TD*%
%TA.AperFunction,Conductor*%
%ADD24C,0.400000*%
%TD*%
G04 APERTURE END LIST*
D10*
%TO.P,J4,1*%
%TO.N,GND*%
X55118000Y7500000D03*
%TO.P,J4,2*%
X57658000Y7500000D03*
%TD*%
%TO.P,J6,1*%
%TO.N,GND*%
X55118000Y12580000D03*
%TO.P,J6,2*%
X57658000Y12580000D03*
%TD*%
%TO.P,J5,1*%
%TO.N,/+3V6*%
X55118000Y10040000D03*
%TO.P,J5,2*%
X57658000Y10040000D03*
%TD*%
%TO.P,J8,1*%
%TO.N,/OUT*%
X55118000Y4960000D03*
%TO.P,J8,2*%
X57658000Y4960000D03*
%TD*%
%TO.P,J9,1*%
%TO.N,GND*%
X55118000Y2420000D03*
%TO.P,J9,2*%
X57658000Y2420000D03*
%TD*%
D11*
%TO.P,R13,1*%
%TO.N,31V7*%
X30075500Y11430000D03*
%TO.P,R13,2*%
%TO.N,Net-(C10-Pad1)*%
X31900500Y11430000D03*
%TD*%
D12*
%TO.P,C12,1*%
%TO.N,31V7*%
X27940000Y11242000D03*
%TO.P,C12,2*%
%TO.N,GND*%
X27940000Y13142000D03*
%TD*%
%TO.P,C9,1*%
%TO.N,Net-(C6-Pad1)*%
X3048000Y11242000D03*
%TO.P,C9,2*%
%TO.N,GND*%
X3048000Y13142000D03*
%TD*%
%TO.P,C13,1*%
%TO.N,31V7*%
X25146000Y11242000D03*
%TO.P,C13,2*%
%TO.N,GND*%
X25146000Y13142000D03*
%TD*%
D13*
%TO.P,C14,1*%
%TO.N,/+3V6*%
X41910000Y6538000D03*
%TO.P,C14,2*%
%TO.N,GND*%
X41910000Y4638000D03*
%TD*%
D14*
%TO.P,L1,1*%
%TO.N,/+3V6*%
X43180000Y9942500D03*
%TO.P,L1,2*%
%TO.N,Net-(D2-Pad2)*%
X43180000Y12917500D03*
%TD*%
D15*
%TO.P,D2,1,K*%
%TO.N,Net-(C10-Pad1)*%
X38924000Y11938000D03*
%TO.P,D2,2,A*%
%TO.N,Net-(D2-Pad2)*%
X40324000Y11938000D03*
%TD*%
D11*
%TO.P,R1,1*%
%TO.N,Net-(C1-Pad1)*%
X20931500Y11430000D03*
%TO.P,R1,2*%
%TO.N,31V7*%
X22756500Y11430000D03*
%TD*%
D13*
%TO.P,C3,1*%
%TO.N,/+3V6*%
X44958000Y6538000D03*
%TO.P,C3,2*%
%TO.N,GND*%
X44958000Y4638000D03*
%TD*%
D16*
%TO.P,R12,1*%
%TO.N,/OUT*%
X6858000Y1627500D03*
%TO.P,R12,2*%
%TO.N,Net-(R10-Pad1)*%
X6858000Y3452500D03*
%TD*%
D13*
%TO.P,C15,1*%
%TO.N,/+3V6*%
X38862000Y6538000D03*
%TO.P,C15,2*%
%TO.N,GND*%
X38862000Y4638000D03*
%TD*%
D12*
%TO.P,C1,1*%
%TO.N,Net-(C1-Pad1)*%
X18542000Y11242000D03*
%TO.P,C1,2*%
%TO.N,GND*%
X18542000Y13142000D03*
%TD*%
D17*
%TO.P,U2,1*%
%TO.N,Net-(R10-Pad1)*%
X10019750Y3791250D03*
%TO.P,U2,2,V-*%
%TO.N,GND*%
X10019750Y4741250D03*
%TO.P,U2,3,+*%
%TO.N,Net-(R5-Pad2)*%
X10019750Y5691250D03*
%TO.P,U2,4,-*%
%TO.N,Net-(R10-Pad2)*%
X12294750Y5691250D03*
%TO.P,U2,5,~{DIS}*%
%TO.N,Net-(R11-Pad2)*%
X12294750Y4741250D03*
%TO.P,U2,6,V+*%
%TO.N,+3V3*%
X12294750Y3791250D03*
%TD*%
D16*
%TO.P,R11,1*%
%TO.N,+3V3*%
X15240000Y3913500D03*
%TO.P,R11,2*%
%TO.N,Net-(R11-Pad2)*%
X15240000Y5738500D03*
%TD*%
D11*
%TO.P,R6,1*%
%TO.N,Net-(C10-Pad1)*%
X50141500Y9144000D03*
%TO.P,R6,2*%
%TO.N,/FB*%
X51966500Y9144000D03*
%TD*%
%TO.P,R2,1*%
%TO.N,Net-(C5-Pad1)*%
X14581500Y11430000D03*
%TO.P,R2,2*%
%TO.N,Net-(C1-Pad1)*%
X16406500Y11430000D03*
%TD*%
D18*
%TO.P,R8,1*%
%TO.N,Net-(R5-Pad2)*%
X4553250Y6415750D03*
%TO.P,R8,2*%
%TO.N,GND*%
X4553250Y4590750D03*
%TD*%
D12*
%TO.P,C11,1*%
%TO.N,Net-(C10-Pad1)*%
X34036000Y11242000D03*
%TO.P,C11,2*%
%TO.N,GND*%
X34036000Y13142000D03*
%TD*%
D13*
%TO.P,C8,1*%
%TO.N,+3V3*%
X17780000Y5776000D03*
%TO.P,C8,2*%
%TO.N,GND*%
X17780000Y3876000D03*
%TD*%
D11*
%TO.P,R4,1*%
%TO.N,Net-(C6-Pad1)*%
X8128000Y11430000D03*
%TO.P,R4,2*%
%TO.N,Net-(C5-Pad1)*%
X9953000Y11430000D03*
%TD*%
D13*
%TO.P,C4,1*%
%TO.N,/+3V6*%
X35814000Y6538000D03*
%TO.P,C4,2*%
%TO.N,GND*%
X35814000Y4638000D03*
%TD*%
D16*
%TO.P,R5,1*%
%TO.N,GND*%
X2267250Y4590750D03*
%TO.P,R5,2*%
%TO.N,Net-(R5-Pad2)*%
X2267250Y6415750D03*
%TD*%
%TO.P,R7,1*%
%TO.N,/FB*%
X52070000Y11279500D03*
%TO.P,R7,2*%
%TO.N,GND*%
X52070000Y13104500D03*
%TD*%
D11*
%TO.P,R9,1*%
%TO.N,Net-(R10-Pad2)*%
X10752750Y7789250D03*
%TO.P,R9,2*%
%TO.N,GND*%
X12577750Y7789250D03*
%TD*%
D19*
%TO.P,D1,1,K*%
%TO.N,/+3V6*%
X48260000Y6542000D03*
%TO.P,D1,2,A*%
%TO.N,GND*%
X48260000Y5142000D03*
%TD*%
D12*
%TO.P,C6,1*%
%TO.N,Net-(C6-Pad1)*%
X5588000Y11242000D03*
%TO.P,C6,2*%
%TO.N,GND*%
X5588000Y13142000D03*
%TD*%
D20*
%TO.P,U3,1,PGND*%
%TO.N,GND*%
X49102000Y13142000D03*
%TO.P,U3,2,GND*%
X49102000Y12192000D03*
%TO.P,U3,3,FB*%
%TO.N,/FB*%
X49102000Y11242000D03*
%TO.P,U3,4,SHDN*%
%TO.N,/+3V6*%
X46402000Y11242000D03*
%TO.P,U3,5,VCC*%
X46402000Y12192000D03*
%TO.P,U3,6,LX*%
%TO.N,Net-(D2-Pad2)*%
X46402000Y13142000D03*
%TD*%
D12*
%TO.P,C5,1*%
%TO.N,Net-(C5-Pad1)*%
X12192000Y11242000D03*
%TO.P,C5,2*%
%TO.N,GND*%
X12192000Y13142000D03*
%TD*%
D11*
%TO.P,R3,1*%
%TO.N,+3V3*%
X31091500Y6350000D03*
%TO.P,R3,2*%
%TO.N,/+3V6*%
X32916500Y6350000D03*
%TD*%
D12*
%TO.P,C10,1*%
%TO.N,Net-(C10-Pad1)*%
X36576000Y11242000D03*
%TO.P,C10,2*%
%TO.N,GND*%
X36576000Y13142000D03*
%TD*%
D21*
%TO.P,C2,1*%
%TO.N,/+3V6*%
X46294000Y8890000D03*
%TO.P,C2,2*%
%TO.N,GND*%
X48194000Y8890000D03*
%TD*%
D13*
%TO.P,C7,1*%
%TO.N,+3V3*%
X20574000Y7046000D03*
%TO.P,C7,2*%
%TO.N,GND*%
X20574000Y5146000D03*
%TD*%
D16*
%TO.P,R10,1*%
%TO.N,Net-(R10-Pad1)*%
X7366000Y5287000D03*
%TO.P,R10,2*%
%TO.N,Net-(R10-Pad2)*%
X7366000Y7112000D03*
%TD*%
D22*
%TO.N,GND*%
X14224000Y2540000D03*
X36576000Y1016000D03*
X1270000Y8890000D03*
X30226000Y8382000D03*
X21844000Y13462000D03*
X36322000Y8382000D03*
X28702000Y3302000D03*
X39624000Y13462000D03*
X3556000Y1270000D03*
X24130000Y8382000D03*
X38862000Y3302000D03*
X16002000Y2540000D03*
X20574000Y2794000D03*
X43180000Y11430000D03*
X1016000Y3302000D03*
X14478000Y9652000D03*
X53340000Y3810000D03*
X25654000Y1016000D03*
X28702000Y8382000D03*
X17526000Y9652000D03*
X22352000Y3556000D03*
X38862000Y8128000D03*
X33274000Y3302000D03*
X37846000Y9144000D03*
X48260000Y3810000D03*
X50546000Y12192000D03*
X40386000Y7366000D03*
X48006000Y1016000D03*
X40386000Y9398000D03*
X1270000Y13462000D03*
X19050000Y8382000D03*
X36068000Y3302000D03*
X45466000Y1016000D03*
X22606000Y8382000D03*
X14478000Y7620000D03*
X42418000Y1016000D03*
X7366000Y13462000D03*
X33274000Y1016000D03*
X20574000Y8636000D03*
X33274000Y8382000D03*
X41656000Y3302000D03*
X51816000Y3556000D03*
X30988000Y13208000D03*
X19558000Y3556000D03*
X50038000Y5334000D03*
X17526000Y7620000D03*
X43434000Y7366000D03*
X40132000Y10668000D03*
X34798000Y8382000D03*
X25654000Y3302000D03*
X30480000Y3302000D03*
X44704000Y3302000D03*
X1778000Y1270000D03*
X31750000Y8382000D03*
X18034000Y2540000D03*
X25654000Y8382000D03*
X39370000Y1016000D03*
X53086000Y6350000D03*
X49530000Y1524000D03*
X27178000Y8382000D03*
X16002000Y7620000D03*
X28956000Y1016000D03*
X50800000Y2540000D03*
X15240000Y13462000D03*
%TO.N,Net-(C10-Pad1)*%
X49530000Y8128000D03*
X44704000Y8382000D03*
%TO.N,Net-(C6-Pad1)*%
X10160000Y13208000D03*
%TO.N,Net-(R5-Pad2)*%
X1778000Y7366000D03*
%TD*%
D23*
%TO.N,Net-(C1-Pad1)*%
X18730000Y11430000D02*
X18542000Y11242000D01*
X20931500Y11430000D02*
X18730000Y11430000D01*
X18542000Y11242000D02*
X16594500Y11242000D01*
X16594500Y11242000D02*
X16406500Y11430000D01*
%TO.N,GND*%
X47752000Y11996022D02*
X47752000Y9332000D01*
X49102000Y12192000D02*
X49102000Y13142000D01*
X54967500Y13104500D02*
X55118000Y12954000D01*
X47752000Y9332000D02*
X48194000Y8890000D01*
X49102000Y12192000D02*
X47947978Y12192000D01*
X52032500Y13142000D02*
X52070000Y13104500D01*
X49102000Y13142000D02*
X52032500Y13142000D01*
X47947978Y12192000D02*
X47752000Y11996022D01*
D24*
%TO.N,Net-(C10-Pad1)*%
X36896000Y11242000D02*
X37592000Y11938000D01*
X37592000Y11938000D02*
X38924000Y11938000D01*
X38924000Y11938000D02*
X38924000Y9590000D01*
X38924000Y9590000D02*
X39878000Y8636000D01*
X40132000Y8382000D02*
X44704000Y8382000D01*
X39878000Y8636000D02*
X40132000Y8382000D01*
X32088500Y11242000D02*
X31900500Y11430000D01*
D23*
X50141500Y9144000D02*
X50141500Y8739500D01*
D24*
X36576000Y11242000D02*
X36896000Y11242000D01*
X34036000Y11242000D02*
X32088500Y11242000D01*
D23*
X50141500Y8739500D02*
X49530000Y8128000D01*
D24*
X36576000Y11242000D02*
X34036000Y11242000D01*
%TO.N,/+3V6*%
X35814000Y6538000D02*
X38862000Y6538000D01*
X41910000Y6538000D02*
X44958000Y6538000D01*
D23*
X55118000Y10040000D02*
X57658000Y10040000D01*
D24*
X38862000Y6538000D02*
X41910000Y6538000D01*
D23*
X49530000Y6542000D02*
X51136981Y6542000D01*
X55118000Y10040000D02*
X55118000Y9906000D01*
X46290000Y6542000D02*
X44962000Y6542000D01*
X46264500Y9942500D02*
X46294000Y9972000D01*
X43180000Y9942500D02*
X46264500Y9942500D01*
D24*
X32916500Y6350000D02*
X35626000Y6350000D01*
D23*
X51754000Y6542000D02*
X51136981Y6542000D01*
X46294000Y8890000D02*
X46294000Y6546000D01*
X54754981Y10160000D02*
X57658000Y10160000D01*
X55118000Y9906000D02*
X51754000Y6542000D01*
X46402000Y12192000D02*
X46402000Y11242000D01*
X46294000Y9972000D02*
X46294000Y11134000D01*
X49530000Y6542000D02*
X46290000Y6542000D01*
X46294000Y11134000D02*
X46402000Y11242000D01*
X46294000Y8890000D02*
X46294000Y9972000D01*
X44962000Y6542000D02*
X44958000Y6538000D01*
D24*
X35626000Y6350000D02*
X35814000Y6538000D01*
D23*
X46294000Y6546000D02*
X46290000Y6542000D01*
%TO.N,Net-(C5-Pad1)*%
X12192000Y11242000D02*
X10141000Y11242000D01*
X14393500Y11242000D02*
X14581500Y11430000D01*
X12192000Y11242000D02*
X14393500Y11242000D01*
X10141000Y11242000D02*
X9953000Y11430000D01*
%TO.N,Net-(C6-Pad1)*%
X5588000Y11242000D02*
X7940000Y11242000D01*
X3048000Y11242000D02*
X5588000Y11242000D01*
X9906000Y13208000D02*
X10160000Y13208000D01*
X8128000Y11430000D02*
X9906000Y13208000D01*
X7940000Y11242000D02*
X8128000Y11430000D01*
D24*
%TO.N,+3V3*%
X15917500Y3913500D02*
X17780000Y5776000D01*
X15240000Y3913500D02*
X15917500Y3913500D01*
X15117750Y3791250D02*
X15240000Y3913500D01*
X20574000Y7046000D02*
X30395500Y7046000D01*
X20574000Y7046000D02*
X19050000Y7046000D01*
X30395500Y7046000D02*
X31091500Y6350000D01*
X19050000Y7046000D02*
X17780000Y5776000D01*
X12294750Y3791250D02*
X15117750Y3791250D01*
D23*
%TO.N,31V7*%
X27940000Y11242000D02*
X29887500Y11242000D01*
X29887500Y11242000D02*
X30075500Y11430000D01*
X25146000Y11242000D02*
X22944500Y11242000D01*
X27940000Y11242000D02*
X25146000Y11242000D01*
X22944500Y11242000D02*
X22756500Y11430000D01*
%TO.N,Net-(D2-Pad2)*%
X43404500Y13142000D02*
X43180000Y12917500D01*
X43180000Y12917500D02*
X42635500Y12917500D01*
X46402000Y13142000D02*
X43404500Y13142000D01*
X42635500Y12917500D02*
X41656000Y11938000D01*
X41656000Y11938000D02*
X40324000Y11938000D01*
D24*
%TO.N,Net-(R5-Pad2)*%
X2267250Y6415750D02*
X4553250Y6415750D01*
X9294750Y5691250D02*
X8786020Y6199980D01*
D23*
X1778000Y6905000D02*
X2267250Y6415750D01*
D24*
X8786020Y6199980D02*
X4769020Y6199980D01*
D23*
X1778000Y7366000D02*
X1778000Y6905000D01*
D24*
X4769020Y6199980D02*
X4553250Y6415750D01*
X10019750Y5691250D02*
X9294750Y5691250D01*
X10019750Y5691250D02*
X9954230Y5756770D01*
%TO.N,/OUT*%
X6604000Y1288750D02*
X21608750Y1288750D01*
X51442000Y4960000D02*
X55118000Y4960000D01*
X57658000Y4960000D02*
X55118000Y4960000D01*
X51442000Y4960000D02*
X51054000Y4572000D01*
X48768000Y2286000D02*
X51442000Y4960000D01*
X22606000Y2286000D02*
X48768000Y2286000D01*
X48768000Y2286000D02*
X51054000Y4572000D01*
X21608750Y1288750D02*
X22606000Y2286000D01*
%TO.N,/FB*%
X52032500Y11242000D02*
X52070000Y11279500D01*
X52070000Y11279500D02*
X52070000Y9294500D01*
X49102000Y11242000D02*
X52032500Y11242000D01*
%TO.N,Net-(R11-Pad2)*%
X12294750Y4741250D02*
X14242750Y4741250D01*
X14242750Y4741250D02*
X15240000Y5738500D01*
%TO.N,Net-(R10-Pad2)*%
X12192000Y6350000D02*
X10752750Y7789250D01*
X7366000Y7112000D02*
X8043250Y7789250D01*
X12294750Y5691250D02*
X12192000Y5794000D01*
X12192000Y5794000D02*
X12192000Y6350000D01*
X8043250Y7789250D02*
X10752750Y7789250D01*
%TO.N,Net-(R10-Pad1)*%
X7347250Y4844750D02*
X7347250Y3857000D01*
X7347250Y3857000D02*
X6604000Y3113750D01*
X8400750Y3791250D02*
X8871250Y3791250D01*
X7413000Y3791250D02*
X7347250Y3857000D01*
X8871250Y3791250D02*
X7413000Y3791250D01*
X8871250Y3791250D02*
X10019750Y3791250D01*
%TD*%
%TA.AperFunction,Conductor*%
%TO.N,GND*%
G36*
X59441621Y14479498D02*
G01*
X59488114Y14425842D01*
X59499500Y14373500D01*
X59499500Y626500D01*
X59479498Y558379D01*
X59425842Y511886D01*
X59373500Y500500D01*
X626500Y500500D01*
X558379Y520502D01*
X511886Y574158D01*
X500500Y626500D01*
X500500Y7373389D01*
X1072394Y7373389D01*
X1090999Y7204865D01*
X1149266Y7045644D01*
X1156081Y7035501D01*
X1177500Y6965226D01*
X1177500Y6952619D01*
X1176422Y6936173D01*
X1172318Y6905000D01*
X1187351Y6790809D01*
X1192956Y6748238D01*
X1242558Y6628488D01*
X1253464Y6602159D01*
X1252250Y6601656D01*
X1266750Y6547541D01*
X1266750Y6110478D01*
X1277614Y6020703D01*
X1280594Y6013175D01*
X1280595Y6013173D01*
X1294147Y5978945D01*
X1333137Y5880467D01*
X1424328Y5760328D01*
X1544467Y5669137D01*
X1608082Y5643950D01*
X1677173Y5616595D01*
X1677175Y5616594D01*
X1684703Y5613614D01*
X1774478Y5602750D01*
X2760022Y5602750D01*
X2849797Y5613614D01*
X2857325Y5616594D01*
X2857327Y5616595D01*
X2926418Y5643950D01*
X2990033Y5669137D01*
X3110172Y5760328D01*
X3189950Y5865430D01*
X3247067Y5907597D01*
X3290312Y5915250D01*
X3530188Y5915250D01*
X3598309Y5895248D01*
X3630550Y5865431D01*
X3710328Y5760328D01*
X3830467Y5669137D01*
X3894082Y5643950D01*
X3963173Y5616595D01*
X3963175Y5616594D01*
X3970703Y5613614D01*
X4060478Y5602750D01*
X5046022Y5602750D01*
X5135797Y5613614D01*
X5143325Y5616594D01*
X5143327Y5616595D01*
X5214953Y5644954D01*
X5276033Y5669137D01*
X5282881Y5674335D01*
X5290358Y5678548D01*
X5291106Y5677221D01*
X5348590Y5699097D01*
X5358412Y5699480D01*
X6239500Y5699480D01*
X6307621Y5679478D01*
X6354114Y5625822D01*
X6365500Y5573480D01*
X6365500Y4981728D01*
X6376364Y4891953D01*
X6431887Y4751717D01*
X6523078Y4631578D01*
X6643217Y4540387D01*
X6657071Y4534902D01*
X6723371Y4508652D01*
X6779345Y4464978D01*
X6802822Y4397975D01*
X6786346Y4328916D01*
X6735151Y4279728D01*
X6676988Y4265500D01*
X6365228Y4265500D01*
X6275453Y4254636D01*
X6267925Y4251656D01*
X6267923Y4251655D01*
X6198832Y4224300D01*
X6135217Y4199113D01*
X6015078Y4107922D01*
X5923887Y3987783D01*
X5868364Y3847547D01*
X5857500Y3757772D01*
X5857500Y3147228D01*
X5868364Y3057453D01*
X5923887Y2917217D01*
X6015078Y2797078D01*
X6135217Y2705887D01*
X6258310Y2657151D01*
X6314282Y2613478D01*
X6337759Y2546475D01*
X6321283Y2477416D01*
X6270088Y2428227D01*
X6258313Y2422850D01*
X6135217Y2374113D01*
X6015078Y2282922D01*
X5923887Y2162783D01*
X5868364Y2022547D01*
X5857500Y1932772D01*
X5857500Y1322228D01*
X5868364Y1232453D01*
X5923887Y1092217D01*
X6015078Y972078D01*
X6135217Y880887D01*
X6166193Y868623D01*
X6267923Y828345D01*
X6267925Y828344D01*
X6275453Y825364D01*
X6365228Y814500D01*
X6411258Y814500D01*
X6448065Y808999D01*
X6456163Y805197D01*
X6465033Y803816D01*
X6465036Y803815D01*
X6549093Y790728D01*
X6565009Y788250D01*
X21538569Y788250D01*
X21550454Y786922D01*
X21550495Y787432D01*
X21559441Y786712D01*
X21568197Y784731D01*
X21621013Y788008D01*
X21628817Y788250D01*
X21644690Y788250D01*
X21654802Y789698D01*
X21664856Y790728D01*
X21692847Y792465D01*
X21711288Y793609D01*
X21719732Y796657D01*
X21723444Y797426D01*
X21738149Y801093D01*
X21741777Y802154D01*
X21750668Y803427D01*
X21793032Y822689D01*
X21802387Y826496D01*
X21837693Y839241D01*
X21837697Y839243D01*
X21846137Y842290D01*
X21853385Y847585D01*
X21856725Y849361D01*
X21869839Y857024D01*
X21873011Y859053D01*
X21881178Y862766D01*
X21887973Y868621D01*
X21887976Y868623D01*
X21916425Y893137D01*
X21924346Y899426D01*
X21931152Y904398D01*
X21935086Y907272D01*
X21945829Y918015D01*
X21952676Y924373D01*
X21982987Y950491D01*
X21989787Y956350D01*
X21994670Y963884D01*
X22000569Y970646D01*
X22000574Y970642D01*
X22009550Y981736D01*
X22644974Y1617160D01*
X54056000Y1617160D01*
X54056442Y1609714D01*
X54057994Y1596664D01*
X54062952Y1578626D01*
X54099755Y1495769D01*
X54112713Y1476915D01*
X54175342Y1414396D01*
X54194212Y1401475D01*
X54277125Y1364820D01*
X54295202Y1359892D01*
X54307787Y1358424D01*
X54315088Y1358000D01*
X54949885Y1358000D01*
X54965124Y1362475D01*
X54966329Y1363865D01*
X54968000Y1371548D01*
X54968000Y1376115D01*
X55268000Y1376115D01*
X55272475Y1360876D01*
X55273865Y1359671D01*
X55281548Y1358000D01*
X55920840Y1358000D01*
X55928286Y1358442D01*
X55941336Y1359994D01*
X55959374Y1364952D01*
X56042231Y1401755D01*
X56061085Y1414713D01*
X56123604Y1477342D01*
X56136525Y1496212D01*
X56173180Y1579125D01*
X56178108Y1597202D01*
X56179576Y1609787D01*
X56180000Y1617088D01*
X56180000Y1617160D01*
X56596000Y1617160D01*
X56596442Y1609714D01*
X56597994Y1596664D01*
X56602952Y1578626D01*
X56639755Y1495769D01*
X56652713Y1476915D01*
X56715342Y1414396D01*
X56734212Y1401475D01*
X56817125Y1364820D01*
X56835202Y1359892D01*
X56847787Y1358424D01*
X56855088Y1358000D01*
X57489885Y1358000D01*
X57505124Y1362475D01*
X57506329Y1363865D01*
X57508000Y1371548D01*
X57508000Y1376115D01*
X57808000Y1376115D01*
X57812475Y1360876D01*
X57813865Y1359671D01*
X57821548Y1358000D01*
X58460840Y1358000D01*
X58468286Y1358442D01*
X58481336Y1359994D01*
X58499374Y1364952D01*
X58582231Y1401755D01*
X58601085Y1414713D01*
X58663604Y1477342D01*
X58676525Y1496212D01*
X58713180Y1579125D01*
X58718108Y1597202D01*
X58719576Y1609787D01*
X58720000Y1617088D01*
X58720000Y2251885D01*
X58715525Y2267124D01*
X58714135Y2268329D01*
X58706452Y2270000D01*
X57826115Y2270000D01*
X57810876Y2265525D01*
X57809671Y2264135D01*
X57808000Y2256452D01*
X57808000Y1376115D01*
X57508000Y1376115D01*
X57508000Y2251885D01*
X57503525Y2267124D01*
X57502135Y2268329D01*
X57494452Y2270000D01*
X56614115Y2270000D01*
X56598876Y2265525D01*
X56597671Y2264135D01*
X56596000Y2256452D01*
X56596000Y1617160D01*
X56180000Y1617160D01*
X56180000Y2251885D01*
X56175525Y2267124D01*
X56174135Y2268329D01*
X56166452Y2270000D01*
X55286115Y2270000D01*
X55270876Y2265525D01*
X55269671Y2264135D01*
X55268000Y2256452D01*
X55268000Y1376115D01*
X54968000Y1376115D01*
X54968000Y2251885D01*
X54963525Y2267124D01*
X54962135Y2268329D01*
X54954452Y2270000D01*
X54074115Y2270000D01*
X54058876Y2265525D01*
X54057671Y2264135D01*
X54056000Y2256452D01*
X54056000Y1617160D01*
X22644974Y1617160D01*
X22776409Y1748595D01*
X22838721Y1782621D01*
X22865504Y1785500D01*
X48697819Y1785500D01*
X48709704Y1784172D01*
X48709745Y1784682D01*
X48718691Y1783962D01*
X48727447Y1781981D01*
X48780263Y1785258D01*
X48788067Y1785500D01*
X48803940Y1785500D01*
X48814052Y1786948D01*
X48824106Y1787978D01*
X48852097Y1789715D01*
X48870538Y1790859D01*
X48878982Y1793907D01*
X48882694Y1794676D01*
X48897399Y1798343D01*
X48901027Y1799404D01*
X48909918Y1800677D01*
X48952282Y1819939D01*
X48961637Y1823746D01*
X48996943Y1836491D01*
X48996947Y1836493D01*
X49005387Y1839540D01*
X49012635Y1844835D01*
X49015975Y1846611D01*
X49029089Y1854274D01*
X49032261Y1856303D01*
X49040428Y1860016D01*
X49047223Y1865871D01*
X49047226Y1865873D01*
X49075675Y1890387D01*
X49083596Y1896676D01*
X49090402Y1901648D01*
X49094336Y1904522D01*
X49105079Y1915265D01*
X49111926Y1921623D01*
X49124865Y1932772D01*
X49149037Y1953600D01*
X49153920Y1961134D01*
X49159819Y1967896D01*
X49159824Y1967892D01*
X49168800Y1978986D01*
X49777929Y2588115D01*
X54056000Y2588115D01*
X54060475Y2572876D01*
X54061865Y2571671D01*
X54069548Y2570000D01*
X54949885Y2570000D01*
X54965124Y2574475D01*
X54966329Y2575865D01*
X54968000Y2583548D01*
X54968000Y2588115D01*
X55268000Y2588115D01*
X55272475Y2572876D01*
X55273865Y2571671D01*
X55281548Y2570000D01*
X56161885Y2570000D01*
X56177124Y2574475D01*
X56178329Y2575865D01*
X56180000Y2583548D01*
X56180000Y2588115D01*
X56596000Y2588115D01*
X56600475Y2572876D01*
X56601865Y2571671D01*
X56609548Y2570000D01*
X57489885Y2570000D01*
X57505124Y2574475D01*
X57506329Y2575865D01*
X57508000Y2583548D01*
X57508000Y2588115D01*
X57808000Y2588115D01*
X57812475Y2572876D01*
X57813865Y2571671D01*
X57821548Y2570000D01*
X58701885Y2570000D01*
X58717124Y2574475D01*
X58718329Y2575865D01*
X58720000Y2583548D01*
X58720000Y3222840D01*
X58719558Y3230286D01*
X58718006Y3243336D01*
X58713048Y3261374D01*
X58676245Y3344231D01*
X58663287Y3363085D01*
X58600658Y3425604D01*
X58581788Y3438525D01*
X58498875Y3475180D01*
X58480798Y3480108D01*
X58468213Y3481576D01*
X58460912Y3482000D01*
X57826115Y3482000D01*
X57810876Y3477525D01*
X57809671Y3476135D01*
X57808000Y3468452D01*
X57808000Y2588115D01*
X57508000Y2588115D01*
X57508000Y3463885D01*
X57503525Y3479124D01*
X57502135Y3480329D01*
X57494452Y3482000D01*
X56855160Y3482000D01*
X56847714Y3481558D01*
X56834664Y3480006D01*
X56816626Y3475048D01*
X56733769Y3438245D01*
X56714915Y3425287D01*
X56652396Y3362658D01*
X56639475Y3343788D01*
X56602820Y3260875D01*
X56597892Y3242798D01*
X56596424Y3230213D01*
X56596000Y3222912D01*
X56596000Y2588115D01*
X56180000Y2588115D01*
X56180000Y3222840D01*
X56179558Y3230286D01*
X56178006Y3243336D01*
X56173048Y3261374D01*
X56136245Y3344231D01*
X56123287Y3363085D01*
X56060658Y3425604D01*
X56041788Y3438525D01*
X55958875Y3475180D01*
X55940798Y3480108D01*
X55928213Y3481576D01*
X55920912Y3482000D01*
X55286115Y3482000D01*
X55270876Y3477525D01*
X55269671Y3476135D01*
X55268000Y3468452D01*
X55268000Y2588115D01*
X54968000Y2588115D01*
X54968000Y3463885D01*
X54963525Y3479124D01*
X54962135Y3480329D01*
X54954452Y3482000D01*
X54315160Y3482000D01*
X54307714Y3481558D01*
X54294664Y3480006D01*
X54276626Y3475048D01*
X54193769Y3438245D01*
X54174915Y3425287D01*
X54112396Y3362658D01*
X54099475Y3343788D01*
X54062820Y3260875D01*
X54057892Y3242798D01*
X54056424Y3230213D01*
X54056000Y3222912D01*
X54056000Y2588115D01*
X49777929Y2588115D01*
X51612409Y4422595D01*
X51674721Y4456621D01*
X51701504Y4459500D01*
X53929500Y4459500D01*
X53997621Y4439498D01*
X54044114Y4385842D01*
X54055500Y4333500D01*
X54055500Y4153354D01*
X54058618Y4127154D01*
X54062456Y4118514D01*
X54062456Y4118513D01*
X54099140Y4035926D01*
X54104061Y4024847D01*
X54183287Y3945759D01*
X54193924Y3941056D01*
X54193926Y3941055D01*
X54253462Y3914735D01*
X54285673Y3900494D01*
X54311354Y3897500D01*
X55924646Y3897500D01*
X55928350Y3897941D01*
X55928353Y3897941D01*
X55935746Y3898821D01*
X55950846Y3900618D01*
X56053153Y3946061D01*
X56132241Y4025287D01*
X56177506Y4127673D01*
X56180500Y4153354D01*
X56180500Y4333500D01*
X56200502Y4401621D01*
X56254158Y4448114D01*
X56306500Y4459500D01*
X56469500Y4459500D01*
X56537621Y4439498D01*
X56584114Y4385842D01*
X56595500Y4333500D01*
X56595500Y4153354D01*
X56598618Y4127154D01*
X56602456Y4118514D01*
X56602456Y4118513D01*
X56639140Y4035926D01*
X56644061Y4024847D01*
X56723287Y3945759D01*
X56733924Y3941056D01*
X56733926Y3941055D01*
X56793462Y3914735D01*
X56825673Y3900494D01*
X56851354Y3897500D01*
X58464646Y3897500D01*
X58468350Y3897941D01*
X58468353Y3897941D01*
X58475746Y3898821D01*
X58490846Y3900618D01*
X58593153Y3946061D01*
X58672241Y4025287D01*
X58717506Y4127673D01*
X58720500Y4153354D01*
X58720500Y5766646D01*
X58717382Y5792846D01*
X58685142Y5865430D01*
X58676663Y5884518D01*
X58671939Y5895153D01*
X58659474Y5907597D01*
X58625511Y5941500D01*
X58592713Y5974241D01*
X58582076Y5978944D01*
X58582074Y5978945D01*
X58522538Y6005265D01*
X58490327Y6019506D01*
X58464646Y6022500D01*
X56851354Y6022500D01*
X56847650Y6022059D01*
X56847647Y6022059D01*
X56840254Y6021179D01*
X56825154Y6019382D01*
X56816514Y6015544D01*
X56816513Y6015544D01*
X56753782Y5987680D01*
X56722847Y5973939D01*
X56714628Y5965706D01*
X56714627Y5965705D01*
X56686368Y5937396D01*
X56643759Y5894713D01*
X56639056Y5884076D01*
X56639055Y5884074D01*
X56630813Y5865430D01*
X56598494Y5792327D01*
X56595500Y5766646D01*
X56595500Y5586500D01*
X56575498Y5518379D01*
X56521842Y5471886D01*
X56469500Y5460500D01*
X56306500Y5460500D01*
X56238379Y5480502D01*
X56191886Y5534158D01*
X56180500Y5586500D01*
X56180500Y5766646D01*
X56177382Y5792846D01*
X56145142Y5865430D01*
X56136663Y5884518D01*
X56131939Y5895153D01*
X56119474Y5907597D01*
X56085511Y5941500D01*
X56052713Y5974241D01*
X56042076Y5978944D01*
X56042074Y5978945D01*
X55982538Y6005265D01*
X55950327Y6019506D01*
X55924646Y6022500D01*
X54311354Y6022500D01*
X54307650Y6022059D01*
X54307647Y6022059D01*
X54300254Y6021179D01*
X54285154Y6019382D01*
X54276514Y6015544D01*
X54276513Y6015544D01*
X54213782Y5987680D01*
X54182847Y5973939D01*
X54174628Y5965706D01*
X54174627Y5965705D01*
X54146368Y5937396D01*
X54103759Y5894713D01*
X54099056Y5884076D01*
X54099055Y5884074D01*
X54090813Y5865430D01*
X54058494Y5792327D01*
X54055500Y5766646D01*
X54055500Y5586500D01*
X54035498Y5518379D01*
X53981842Y5471886D01*
X53929500Y5460500D01*
X51512181Y5460500D01*
X51500296Y5461828D01*
X51500255Y5461318D01*
X51491309Y5462038D01*
X51482553Y5464019D01*
X51447240Y5461828D01*
X51429736Y5460742D01*
X51421933Y5460500D01*
X51406060Y5460500D01*
X51395948Y5459052D01*
X51385894Y5458022D01*
X51357903Y5456285D01*
X51339462Y5455141D01*
X51331018Y5452093D01*
X51327306Y5451324D01*
X51312601Y5447657D01*
X51308973Y5446596D01*
X51300082Y5445323D01*
X51257718Y5426061D01*
X51248363Y5422254D01*
X51213057Y5409509D01*
X51213053Y5409507D01*
X51204613Y5406460D01*
X51197365Y5401165D01*
X51194025Y5399389D01*
X51180911Y5391726D01*
X51177739Y5389697D01*
X51169572Y5385984D01*
X51162777Y5380129D01*
X51162774Y5380127D01*
X51134325Y5355613D01*
X51126405Y5349325D01*
X51115664Y5341478D01*
X51104921Y5330735D01*
X51098075Y5324377D01*
X51060963Y5292400D01*
X51056080Y5284866D01*
X51050181Y5278104D01*
X51050176Y5278108D01*
X51041200Y5267014D01*
X48597591Y2823405D01*
X48535279Y2789379D01*
X48508496Y2786500D01*
X22676176Y2786500D01*
X22664296Y2787828D01*
X22664255Y2787317D01*
X22655307Y2788037D01*
X22646552Y2790018D01*
X22603014Y2787317D01*
X22593745Y2786742D01*
X22585943Y2786500D01*
X22570060Y2786500D01*
X22565612Y2785863D01*
X22565610Y2785863D01*
X22559942Y2785052D01*
X22549891Y2784022D01*
X22512420Y2781697D01*
X22512419Y2781697D01*
X22503461Y2781141D01*
X22495017Y2778093D01*
X22491324Y2777328D01*
X22476584Y2773653D01*
X22472968Y2772596D01*
X22464082Y2771323D01*
X22421734Y2752068D01*
X22412367Y2748255D01*
X22368613Y2732460D01*
X22361361Y2727162D01*
X22358015Y2725383D01*
X22344911Y2717726D01*
X22341739Y2715697D01*
X22333572Y2711984D01*
X22326776Y2706129D01*
X22326774Y2706127D01*
X22298321Y2681610D01*
X22290405Y2675325D01*
X22283598Y2670352D01*
X22283591Y2670346D01*
X22279664Y2667477D01*
X22268928Y2656741D01*
X22262082Y2650384D01*
X22224963Y2618400D01*
X22220079Y2610866D01*
X22214181Y2604104D01*
X22214176Y2604108D01*
X22205200Y2593013D01*
X21438340Y1826154D01*
X21376028Y1792129D01*
X21349245Y1789250D01*
X7984500Y1789250D01*
X7916379Y1809252D01*
X7869886Y1862908D01*
X7858500Y1915250D01*
X7858500Y1932772D01*
X7847636Y2022547D01*
X7792113Y2162783D01*
X7700922Y2282922D01*
X7580783Y2374113D01*
X7457690Y2422849D01*
X7401718Y2466522D01*
X7378241Y2533525D01*
X7394717Y2602584D01*
X7445912Y2651773D01*
X7457687Y2657150D01*
X7580783Y2705887D01*
X7700922Y2797078D01*
X7792113Y2917217D01*
X7847636Y3057453D01*
X7858500Y3147228D01*
X7858500Y3164750D01*
X7878502Y3232871D01*
X7932158Y3279364D01*
X7984500Y3290750D01*
X9181995Y3290750D01*
X9250116Y3270748D01*
X9256851Y3266104D01*
X9263930Y3260875D01*
X9286493Y3244209D01*
X9286496Y3244208D01*
X9294066Y3238616D01*
X9421881Y3193731D01*
X9429527Y3193008D01*
X9429528Y3193008D01*
X9435498Y3192444D01*
X9453416Y3190750D01*
X10586084Y3190750D01*
X10604002Y3192444D01*
X10609972Y3193008D01*
X10609973Y3193008D01*
X10617619Y3193731D01*
X10745434Y3238616D01*
X10753004Y3244208D01*
X10753007Y3244209D01*
X10846829Y3313508D01*
X10854400Y3319100D01*
X10903964Y3386204D01*
X10929291Y3420493D01*
X10929292Y3420496D01*
X10934884Y3428066D01*
X10979769Y3555881D01*
X10982750Y3587416D01*
X10982750Y3995084D01*
X10979769Y4026619D01*
X10934884Y4154434D01*
X10929292Y4162004D01*
X10929291Y4162007D01*
X10860873Y4254636D01*
X10854400Y4263400D01*
X10832294Y4279728D01*
X10753007Y4338291D01*
X10753004Y4338292D01*
X10745434Y4343884D01*
X10617619Y4388769D01*
X10609973Y4389492D01*
X10609972Y4389492D01*
X10604002Y4390056D01*
X10586084Y4391750D01*
X9453416Y4391750D01*
X9435498Y4390056D01*
X9429528Y4389492D01*
X9429527Y4389492D01*
X9421881Y4388769D01*
X9294066Y4343884D01*
X9286496Y4338292D01*
X9286493Y4338291D01*
X9256855Y4316399D01*
X9190177Y4292016D01*
X9181995Y4291750D01*
X8121312Y4291750D01*
X8053191Y4311752D01*
X8006698Y4365408D01*
X7996594Y4435682D01*
X8026088Y4500262D01*
X8074930Y4534902D01*
X8080794Y4537224D01*
X8088783Y4540387D01*
X8208922Y4631578D01*
X8300113Y4751717D01*
X8355636Y4891953D01*
X8366500Y4981728D01*
X8366500Y5573480D01*
X8386502Y5641601D01*
X8440158Y5688094D01*
X8492500Y5699480D01*
X8526515Y5699480D01*
X8594636Y5679478D01*
X8615610Y5662576D01*
X8891216Y5386971D01*
X8898683Y5377627D01*
X8899072Y5377958D01*
X8904890Y5371122D01*
X8909680Y5363530D01*
X8916408Y5357588D01*
X8916409Y5357587D01*
X8949359Y5328487D01*
X8955047Y5323140D01*
X8966257Y5311930D01*
X8969843Y5309242D01*
X8969846Y5309240D01*
X8974427Y5305806D01*
X8982268Y5299423D01*
X9017138Y5268627D01*
X9025263Y5264812D01*
X9028433Y5262730D01*
X9041420Y5254927D01*
X9044744Y5253107D01*
X9051926Y5247724D01*
X9060327Y5244575D01*
X9060328Y5244574D01*
X9095486Y5231394D01*
X9104803Y5227467D01*
X9138784Y5211513D01*
X9138787Y5211512D01*
X9146913Y5207697D01*
X9155787Y5206315D01*
X9159400Y5205211D01*
X9174076Y5201360D01*
X9177766Y5200549D01*
X9186170Y5197398D01*
X9195122Y5196733D01*
X9197759Y5196153D01*
X9245560Y5174443D01*
X9286489Y5144212D01*
X9286491Y5144211D01*
X9294066Y5138616D01*
X9421881Y5093731D01*
X9429527Y5093008D01*
X9429528Y5093008D01*
X9435498Y5092444D01*
X9453416Y5090750D01*
X10586084Y5090750D01*
X10604002Y5092444D01*
X10609972Y5093008D01*
X10609973Y5093008D01*
X10617619Y5093731D01*
X10745434Y5138616D01*
X10753004Y5144208D01*
X10753007Y5144209D01*
X10846829Y5213508D01*
X10854400Y5219100D01*
X10871130Y5241750D01*
X10929291Y5320493D01*
X10929292Y5320496D01*
X10934884Y5328066D01*
X10979769Y5455881D01*
X10982750Y5487416D01*
X10982750Y5895084D01*
X10979769Y5926619D01*
X10934884Y6054434D01*
X10929292Y6062004D01*
X10929291Y6062007D01*
X10859992Y6155829D01*
X10854400Y6163400D01*
X10835129Y6177634D01*
X10753007Y6238291D01*
X10753004Y6238292D01*
X10745434Y6243884D01*
X10617619Y6288769D01*
X10609973Y6289492D01*
X10609972Y6289492D01*
X10604002Y6290056D01*
X10586084Y6291750D01*
X9454254Y6291750D01*
X9386133Y6311752D01*
X9365159Y6328655D01*
X9189554Y6504260D01*
X9182088Y6513604D01*
X9181698Y6513272D01*
X9175880Y6520108D01*
X9171090Y6527700D01*
X9131419Y6562736D01*
X9125732Y6568082D01*
X9114514Y6579300D01*
X9110925Y6581990D01*
X9106336Y6585430D01*
X9098497Y6591812D01*
X9070359Y6616662D01*
X9063632Y6622603D01*
X9055509Y6626417D01*
X9052356Y6628488D01*
X9039344Y6636307D01*
X9036025Y6638124D01*
X9028844Y6643506D01*
X8985281Y6659837D01*
X8975967Y6663763D01*
X8941986Y6679717D01*
X8941983Y6679718D01*
X8933857Y6683533D01*
X8924983Y6684915D01*
X8921370Y6686019D01*
X8906713Y6689865D01*
X8903010Y6690679D01*
X8894600Y6693832D01*
X8848177Y6697282D01*
X8838164Y6698432D01*
X8825011Y6700480D01*
X8809816Y6700480D01*
X8800479Y6700826D01*
X8785056Y6701972D01*
X8751628Y6704456D01*
X8742852Y6702583D01*
X8733895Y6701972D01*
X8733895Y6701978D01*
X8719702Y6700480D01*
X8492500Y6700480D01*
X8424379Y6720482D01*
X8377886Y6774138D01*
X8366500Y6826480D01*
X8366500Y7162750D01*
X8386502Y7230871D01*
X8440158Y7277364D01*
X8492500Y7288750D01*
X9832845Y7288750D01*
X9900966Y7268748D01*
X9947459Y7215092D01*
X9950437Y7206633D01*
X9950614Y7206703D01*
X10006137Y7066467D01*
X10097328Y6946328D01*
X10217467Y6855137D01*
X10229179Y6850500D01*
X10350173Y6802595D01*
X10350175Y6802594D01*
X10357703Y6799614D01*
X10447478Y6788750D01*
X10993246Y6788750D01*
X11061367Y6768748D01*
X11082341Y6751845D01*
X11477789Y6356397D01*
X11511815Y6294085D01*
X11506750Y6223270D01*
X11472357Y6177634D01*
X11474335Y6175656D01*
X11467671Y6168992D01*
X11460100Y6163400D01*
X11454508Y6155829D01*
X11385209Y6062007D01*
X11385208Y6062004D01*
X11379616Y6054434D01*
X11334731Y5926619D01*
X11331750Y5895084D01*
X11331750Y5487416D01*
X11334731Y5455881D01*
X11379616Y5328066D01*
X11385210Y5320493D01*
X11385212Y5320489D01*
X11406912Y5291109D01*
X11431295Y5224431D01*
X11415758Y5155155D01*
X11406912Y5141391D01*
X11385212Y5112011D01*
X11379616Y5104434D01*
X11334731Y4976619D01*
X11331750Y4945084D01*
X11331750Y4537416D01*
X11334731Y4505881D01*
X11379616Y4378066D01*
X11385211Y4370491D01*
X11385212Y4370489D01*
X11406912Y4341109D01*
X11431295Y4274431D01*
X11415758Y4205155D01*
X11406912Y4191391D01*
X11385212Y4162011D01*
X11379616Y4154434D01*
X11334731Y4026619D01*
X11331750Y3995084D01*
X11331750Y3587416D01*
X11334731Y3555881D01*
X11379616Y3428066D01*
X11385208Y3420496D01*
X11385209Y3420493D01*
X11410536Y3386204D01*
X11460100Y3319100D01*
X11467671Y3313508D01*
X11561493Y3244209D01*
X11561496Y3244208D01*
X11569066Y3238616D01*
X11696881Y3193731D01*
X11704527Y3193008D01*
X11704528Y3193008D01*
X11710498Y3192444D01*
X11728416Y3190750D01*
X12861084Y3190750D01*
X12879002Y3192444D01*
X12884972Y3193008D01*
X12884973Y3193008D01*
X12892619Y3193731D01*
X13020434Y3238616D01*
X13028004Y3244208D01*
X13028007Y3244209D01*
X13050570Y3260875D01*
X13057646Y3266101D01*
X13124323Y3290484D01*
X13132505Y3290750D01*
X14313863Y3290750D01*
X14381984Y3270748D01*
X14396089Y3259380D01*
X14397078Y3258078D01*
X14517217Y3166887D01*
X14566870Y3147228D01*
X14649923Y3114345D01*
X14649925Y3114344D01*
X14657453Y3111364D01*
X14747228Y3100500D01*
X15732772Y3100500D01*
X15822547Y3111364D01*
X15830075Y3114344D01*
X15830077Y3114345D01*
X15913130Y3147228D01*
X15962783Y3166887D01*
X16082922Y3258078D01*
X16174113Y3378217D01*
X16219617Y3493148D01*
X16247674Y3535860D01*
X16254579Y3542765D01*
X16261426Y3549123D01*
X16291737Y3575241D01*
X16298537Y3581100D01*
X16303420Y3588634D01*
X16309319Y3595396D01*
X16309324Y3595392D01*
X16318300Y3606486D01*
X17650409Y4938595D01*
X17712721Y4972621D01*
X17739504Y4975500D01*
X18297772Y4975500D01*
X18387547Y4986364D01*
X18395075Y4989344D01*
X18395077Y4989345D01*
X18464168Y5016700D01*
X18527783Y5041887D01*
X18647922Y5133078D01*
X18739113Y5253217D01*
X18777234Y5349500D01*
X18791655Y5385923D01*
X18791656Y5385925D01*
X18794636Y5393453D01*
X18805500Y5483228D01*
X18805500Y6041496D01*
X18825502Y6109617D01*
X18842405Y6130591D01*
X19220409Y6508595D01*
X19282721Y6542621D01*
X19309504Y6545500D01*
X19535426Y6545500D01*
X19603547Y6525498D01*
X19635788Y6495680D01*
X19706078Y6403078D01*
X19826217Y6311887D01*
X19859314Y6298783D01*
X19958923Y6259345D01*
X19958925Y6259344D01*
X19966453Y6256364D01*
X20056228Y6245500D01*
X21091772Y6245500D01*
X21181547Y6256364D01*
X21189075Y6259344D01*
X21189077Y6259345D01*
X21288686Y6298783D01*
X21321783Y6311887D01*
X21441922Y6403078D01*
X21512211Y6495680D01*
X21569329Y6537847D01*
X21612574Y6545500D01*
X30135996Y6545500D01*
X30204117Y6525498D01*
X30225091Y6508595D01*
X30241595Y6492091D01*
X30275621Y6429779D01*
X30278500Y6402996D01*
X30278500Y5857228D01*
X30289364Y5767453D01*
X30292344Y5759925D01*
X30292345Y5759923D01*
X30301223Y5737500D01*
X30344887Y5627217D01*
X30436078Y5507078D01*
X30556217Y5415887D01*
X30610417Y5394428D01*
X30688923Y5363345D01*
X30688925Y5363344D01*
X30696453Y5360364D01*
X30786228Y5349500D01*
X31396772Y5349500D01*
X31486547Y5360364D01*
X31494075Y5363344D01*
X31494077Y5363345D01*
X31572583Y5394428D01*
X31626783Y5415887D01*
X31746922Y5507078D01*
X31838113Y5627217D01*
X31886849Y5750310D01*
X31930522Y5806282D01*
X31997525Y5829759D01*
X32066584Y5813283D01*
X32115773Y5762088D01*
X32121150Y5750313D01*
X32169887Y5627217D01*
X32261078Y5507078D01*
X32381217Y5415887D01*
X32435417Y5394428D01*
X32513923Y5363345D01*
X32513925Y5363344D01*
X32521453Y5360364D01*
X32611228Y5349500D01*
X33221772Y5349500D01*
X33311547Y5360364D01*
X33319075Y5363344D01*
X33319077Y5363345D01*
X33397583Y5394428D01*
X33451783Y5415887D01*
X33571922Y5507078D01*
X33663113Y5627217D01*
X33718636Y5767453D01*
X33721312Y5766394D01*
X33750432Y5815612D01*
X33813879Y5847470D01*
X33836405Y5849500D01*
X34963721Y5849500D01*
X35031842Y5829498D01*
X35039899Y5823863D01*
X35066217Y5803887D01*
X35137930Y5775494D01*
X35198923Y5751345D01*
X35198925Y5751344D01*
X35206453Y5748364D01*
X35296228Y5737500D01*
X36331772Y5737500D01*
X36421547Y5748364D01*
X36429075Y5751344D01*
X36429077Y5751345D01*
X36510187Y5783459D01*
X36561783Y5803887D01*
X36681922Y5895078D01*
X36752211Y5987680D01*
X36809329Y6029847D01*
X36852574Y6037500D01*
X37823426Y6037500D01*
X37891547Y6017498D01*
X37923788Y5987680D01*
X37994078Y5895078D01*
X38114217Y5803887D01*
X38165813Y5783459D01*
X38246923Y5751345D01*
X38246925Y5751344D01*
X38254453Y5748364D01*
X38344228Y5737500D01*
X39379772Y5737500D01*
X39469547Y5748364D01*
X39477075Y5751344D01*
X39477077Y5751345D01*
X39558187Y5783459D01*
X39609783Y5803887D01*
X39729922Y5895078D01*
X39800211Y5987680D01*
X39857329Y6029847D01*
X39900574Y6037500D01*
X40871426Y6037500D01*
X40939547Y6017498D01*
X40971788Y5987680D01*
X41042078Y5895078D01*
X41162217Y5803887D01*
X41213813Y5783459D01*
X41294923Y5751345D01*
X41294925Y5751344D01*
X41302453Y5748364D01*
X41392228Y5737500D01*
X42427772Y5737500D01*
X42517547Y5748364D01*
X42525075Y5751344D01*
X42525077Y5751345D01*
X42606187Y5783459D01*
X42657783Y5803887D01*
X42777922Y5895078D01*
X42848211Y5987680D01*
X42905329Y6029847D01*
X42948574Y6037500D01*
X43919426Y6037500D01*
X43987547Y6017498D01*
X44019788Y5987680D01*
X44090078Y5895078D01*
X44210217Y5803887D01*
X44261813Y5783459D01*
X44342923Y5751345D01*
X44342925Y5751344D01*
X44350453Y5748364D01*
X44440228Y5737500D01*
X45475772Y5737500D01*
X45565547Y5748364D01*
X45573075Y5751344D01*
X45573077Y5751345D01*
X45654187Y5783459D01*
X45705783Y5803887D01*
X45825922Y5895078D01*
X45831116Y5901921D01*
X45833788Y5904593D01*
X45896100Y5938620D01*
X45922886Y5941500D01*
X46242381Y5941500D01*
X46258827Y5940422D01*
X46290000Y5936318D01*
X46298188Y5937396D01*
X46321173Y5940422D01*
X46337619Y5941500D01*
X51706381Y5941500D01*
X51722827Y5940422D01*
X51754000Y5936318D01*
X51762188Y5937396D01*
X51793361Y5941500D01*
X51800365Y5942422D01*
X51800366Y5942422D01*
X51902574Y5955878D01*
X51910762Y5956956D01*
X52056841Y6017464D01*
X52098238Y6049229D01*
X52182282Y6113718D01*
X52201430Y6138672D01*
X52212297Y6151062D01*
X52758395Y6697160D01*
X54056000Y6697160D01*
X54056442Y6689714D01*
X54057994Y6676664D01*
X54062952Y6658626D01*
X54099755Y6575769D01*
X54112713Y6556915D01*
X54175342Y6494396D01*
X54194212Y6481475D01*
X54277125Y6444820D01*
X54295202Y6439892D01*
X54307787Y6438424D01*
X54315088Y6438000D01*
X54949885Y6438000D01*
X54965124Y6442475D01*
X54966329Y6443865D01*
X54968000Y6451548D01*
X54968000Y6456115D01*
X55268000Y6456115D01*
X55272475Y6440876D01*
X55273865Y6439671D01*
X55281548Y6438000D01*
X55920840Y6438000D01*
X55928286Y6438442D01*
X55941336Y6439994D01*
X55959374Y6444952D01*
X56042231Y6481755D01*
X56061085Y6494713D01*
X56123604Y6557342D01*
X56136525Y6576212D01*
X56173180Y6659125D01*
X56178108Y6677202D01*
X56179576Y6689787D01*
X56180000Y6697088D01*
X56180000Y6697160D01*
X56596000Y6697160D01*
X56596442Y6689714D01*
X56597994Y6676664D01*
X56602952Y6658626D01*
X56639755Y6575769D01*
X56652713Y6556915D01*
X56715342Y6494396D01*
X56734212Y6481475D01*
X56817125Y6444820D01*
X56835202Y6439892D01*
X56847787Y6438424D01*
X56855088Y6438000D01*
X57489885Y6438000D01*
X57505124Y6442475D01*
X57506329Y6443865D01*
X57508000Y6451548D01*
X57508000Y6456115D01*
X57808000Y6456115D01*
X57812475Y6440876D01*
X57813865Y6439671D01*
X57821548Y6438000D01*
X58460840Y6438000D01*
X58468286Y6438442D01*
X58481336Y6439994D01*
X58499374Y6444952D01*
X58582231Y6481755D01*
X58601085Y6494713D01*
X58663604Y6557342D01*
X58676525Y6576212D01*
X58713180Y6659125D01*
X58718108Y6677202D01*
X58719576Y6689787D01*
X58720000Y6697088D01*
X58720000Y7331885D01*
X58715525Y7347124D01*
X58714135Y7348329D01*
X58706452Y7350000D01*
X57826115Y7350000D01*
X57810876Y7345525D01*
X57809671Y7344135D01*
X57808000Y7336452D01*
X57808000Y6456115D01*
X57508000Y6456115D01*
X57508000Y7331885D01*
X57503525Y7347124D01*
X57502135Y7348329D01*
X57494452Y7350000D01*
X56614115Y7350000D01*
X56598876Y7345525D01*
X56597671Y7344135D01*
X56596000Y7336452D01*
X56596000Y6697160D01*
X56180000Y6697160D01*
X56180000Y7331885D01*
X56175525Y7347124D01*
X56174135Y7348329D01*
X56166452Y7350000D01*
X55286115Y7350000D01*
X55270876Y7345525D01*
X55269671Y7344135D01*
X55268000Y7336452D01*
X55268000Y6456115D01*
X54968000Y6456115D01*
X54968000Y7331885D01*
X54963525Y7347124D01*
X54962135Y7348329D01*
X54954452Y7350000D01*
X54074115Y7350000D01*
X54058876Y7345525D01*
X54057671Y7344135D01*
X54056000Y7336452D01*
X54056000Y6697160D01*
X52758395Y6697160D01*
X53840905Y7779670D01*
X53903217Y7813696D01*
X53974032Y7808631D01*
X54030868Y7766084D01*
X54055679Y7699564D01*
X54056000Y7690575D01*
X54056000Y7668115D01*
X54060475Y7652876D01*
X54061865Y7651671D01*
X54069548Y7650000D01*
X54949885Y7650000D01*
X54965124Y7654475D01*
X54966329Y7655865D01*
X54968000Y7663548D01*
X54968000Y7668115D01*
X55268000Y7668115D01*
X55272475Y7652876D01*
X55273865Y7651671D01*
X55281548Y7650000D01*
X56161885Y7650000D01*
X56177124Y7654475D01*
X56178329Y7655865D01*
X56180000Y7663548D01*
X56180000Y7668115D01*
X56596000Y7668115D01*
X56600475Y7652876D01*
X56601865Y7651671D01*
X56609548Y7650000D01*
X57489885Y7650000D01*
X57505124Y7654475D01*
X57506329Y7655865D01*
X57508000Y7663548D01*
X57508000Y7668115D01*
X57808000Y7668115D01*
X57812475Y7652876D01*
X57813865Y7651671D01*
X57821548Y7650000D01*
X58701885Y7650000D01*
X58717124Y7654475D01*
X58718329Y7655865D01*
X58720000Y7663548D01*
X58720000Y8302840D01*
X58719558Y8310286D01*
X58718006Y8323336D01*
X58713048Y8341374D01*
X58676245Y8424231D01*
X58663287Y8443085D01*
X58600658Y8505604D01*
X58581788Y8518525D01*
X58498875Y8555180D01*
X58480798Y8560108D01*
X58468213Y8561576D01*
X58460912Y8562000D01*
X57826115Y8562000D01*
X57810876Y8557525D01*
X57809671Y8556135D01*
X57808000Y8548452D01*
X57808000Y7668115D01*
X57508000Y7668115D01*
X57508000Y8543885D01*
X57503525Y8559124D01*
X57502135Y8560329D01*
X57494452Y8562000D01*
X56855160Y8562000D01*
X56847714Y8561558D01*
X56834664Y8560006D01*
X56816626Y8555048D01*
X56733769Y8518245D01*
X56714915Y8505287D01*
X56652396Y8442658D01*
X56639475Y8423788D01*
X56602820Y8340875D01*
X56597892Y8322798D01*
X56596424Y8310213D01*
X56596000Y8302912D01*
X56596000Y7668115D01*
X56180000Y7668115D01*
X56180000Y8302840D01*
X56179558Y8310286D01*
X56178006Y8323336D01*
X56173048Y8341374D01*
X56136245Y8424231D01*
X56123287Y8443085D01*
X56060658Y8505604D01*
X56041788Y8518525D01*
X55958875Y8555180D01*
X55940798Y8560108D01*
X55928213Y8561576D01*
X55920912Y8562000D01*
X55286115Y8562000D01*
X55270876Y8557525D01*
X55269671Y8556135D01*
X55268000Y8548452D01*
X55268000Y7668115D01*
X54968000Y7668115D01*
X54968000Y8543885D01*
X54963525Y8559124D01*
X54962135Y8560329D01*
X54954452Y8562000D01*
X54927425Y8562000D01*
X54859304Y8582002D01*
X54812811Y8635658D01*
X54802707Y8705932D01*
X54832201Y8770512D01*
X54838330Y8777095D01*
X55001830Y8940595D01*
X55064142Y8974621D01*
X55090925Y8977500D01*
X55924646Y8977500D01*
X55928350Y8977941D01*
X55928353Y8977941D01*
X55935746Y8978821D01*
X55950846Y8980618D01*
X56053153Y9026061D01*
X56067843Y9040776D01*
X56109860Y9082867D01*
X56132241Y9105287D01*
X56177506Y9207673D01*
X56180500Y9233354D01*
X56180500Y9313500D01*
X56200502Y9381621D01*
X56254158Y9428114D01*
X56306500Y9439500D01*
X56469500Y9439500D01*
X56537621Y9419498D01*
X56584114Y9365842D01*
X56595500Y9313500D01*
X56595500Y9233354D01*
X56598618Y9207154D01*
X56602456Y9198514D01*
X56602456Y9198513D01*
X56602606Y9198176D01*
X56644061Y9104847D01*
X56723287Y9025759D01*
X56733924Y9021056D01*
X56733926Y9021055D01*
X56790853Y8995888D01*
X56825673Y8980494D01*
X56851354Y8977500D01*
X58464646Y8977500D01*
X58468350Y8977941D01*
X58468353Y8977941D01*
X58475746Y8978821D01*
X58490846Y8980618D01*
X58593153Y9026061D01*
X58607843Y9040776D01*
X58649860Y9082867D01*
X58672241Y9105287D01*
X58717506Y9207673D01*
X58720500Y9233354D01*
X58720500Y10846646D01*
X58719652Y10853776D01*
X58718499Y10863459D01*
X58717382Y10872846D01*
X58712227Y10884453D01*
X58676663Y10964518D01*
X58671939Y10975153D01*
X58592713Y11054241D01*
X58582076Y11058944D01*
X58582074Y11058945D01*
X58522538Y11085265D01*
X58490327Y11099506D01*
X58464646Y11102500D01*
X56851354Y11102500D01*
X56847650Y11102059D01*
X56847647Y11102059D01*
X56840254Y11101179D01*
X56825154Y11099382D01*
X56722847Y11053939D01*
X56643759Y10974713D01*
X56639056Y10964076D01*
X56639055Y10964074D01*
X56630462Y10944636D01*
X56598494Y10872327D01*
X56597397Y10862916D01*
X56594905Y10853776D01*
X56591186Y10854790D01*
X56570639Y10806501D01*
X56511935Y10766572D01*
X56473293Y10760500D01*
X56302646Y10760500D01*
X56234525Y10780502D01*
X56188032Y10834158D01*
X56182275Y10854691D01*
X56181005Y10854342D01*
X56178499Y10863459D01*
X56177382Y10872846D01*
X56172227Y10884453D01*
X56136663Y10964518D01*
X56131939Y10975153D01*
X56052713Y11054241D01*
X56042076Y11058944D01*
X56042074Y11058945D01*
X55982538Y11085265D01*
X55950327Y11099506D01*
X55924646Y11102500D01*
X54311354Y11102500D01*
X54307650Y11102059D01*
X54307647Y11102059D01*
X54300254Y11101179D01*
X54285154Y11099382D01*
X54182847Y11053939D01*
X54103759Y10974713D01*
X54099056Y10964076D01*
X54099055Y10964074D01*
X54090462Y10944636D01*
X54058494Y10872327D01*
X54055500Y10846646D01*
X54055500Y9744925D01*
X54035498Y9676804D01*
X54018595Y9655830D01*
X52994595Y8631830D01*
X52932283Y8597804D01*
X52861468Y8602869D01*
X52804632Y8645416D01*
X52779821Y8711936D01*
X52779500Y8720925D01*
X52779500Y9636772D01*
X52768636Y9726547D01*
X52761849Y9743691D01*
X52716275Y9858796D01*
X52713113Y9866783D01*
X52621922Y9986922D01*
X52615078Y9992117D01*
X52609008Y9998187D01*
X52611248Y10000427D01*
X52578153Y10045256D01*
X52570500Y10088500D01*
X52570500Y10359595D01*
X52590502Y10427716D01*
X52644158Y10474209D01*
X52652617Y10477187D01*
X52652547Y10477364D01*
X52699331Y10495887D01*
X52792783Y10532887D01*
X52912922Y10624078D01*
X53004113Y10744217D01*
X53043217Y10842983D01*
X53056655Y10876923D01*
X53056656Y10876925D01*
X53059636Y10884453D01*
X53070500Y10974228D01*
X53070500Y11584772D01*
X53059636Y11674547D01*
X53034266Y11738626D01*
X53019009Y11777160D01*
X54056000Y11777160D01*
X54056442Y11769714D01*
X54057994Y11756664D01*
X54062952Y11738626D01*
X54099755Y11655769D01*
X54112713Y11636915D01*
X54175342Y11574396D01*
X54194212Y11561475D01*
X54277125Y11524820D01*
X54295202Y11519892D01*
X54307787Y11518424D01*
X54315088Y11518000D01*
X54949885Y11518000D01*
X54965124Y11522475D01*
X54966329Y11523865D01*
X54968000Y11531548D01*
X54968000Y11536115D01*
X55268000Y11536115D01*
X55272475Y11520876D01*
X55273865Y11519671D01*
X55281548Y11518000D01*
X55920840Y11518000D01*
X55928286Y11518442D01*
X55941336Y11519994D01*
X55959374Y11524952D01*
X56042231Y11561755D01*
X56061085Y11574713D01*
X56123604Y11637342D01*
X56136525Y11656212D01*
X56173180Y11739125D01*
X56178108Y11757202D01*
X56179576Y11769787D01*
X56180000Y11777088D01*
X56180000Y11777160D01*
X56596000Y11777160D01*
X56596442Y11769714D01*
X56597994Y11756664D01*
X56602952Y11738626D01*
X56639755Y11655769D01*
X56652713Y11636915D01*
X56715342Y11574396D01*
X56734212Y11561475D01*
X56817125Y11524820D01*
X56835202Y11519892D01*
X56847787Y11518424D01*
X56855088Y11518000D01*
X57489885Y11518000D01*
X57505124Y11522475D01*
X57506329Y11523865D01*
X57508000Y11531548D01*
X57508000Y11536115D01*
X57808000Y11536115D01*
X57812475Y11520876D01*
X57813865Y11519671D01*
X57821548Y11518000D01*
X58460840Y11518000D01*
X58468286Y11518442D01*
X58481336Y11519994D01*
X58499374Y11524952D01*
X58582231Y11561755D01*
X58601085Y11574713D01*
X58663604Y11637342D01*
X58676525Y11656212D01*
X58713180Y11739125D01*
X58718108Y11757202D01*
X58719576Y11769787D01*
X58720000Y11777088D01*
X58720000Y12411885D01*
X58715525Y12427124D01*
X58714135Y12428329D01*
X58706452Y12430000D01*
X57826115Y12430000D01*
X57810876Y12425525D01*
X57809671Y12424135D01*
X57808000Y12416452D01*
X57808000Y11536115D01*
X57508000Y11536115D01*
X57508000Y12411885D01*
X57503525Y12427124D01*
X57502135Y12428329D01*
X57494452Y12430000D01*
X56614115Y12430000D01*
X56598876Y12425525D01*
X56597671Y12424135D01*
X56596000Y12416452D01*
X56596000Y11777160D01*
X56180000Y11777160D01*
X56180000Y12411885D01*
X56175525Y12427124D01*
X56174135Y12428329D01*
X56166452Y12430000D01*
X55286115Y12430000D01*
X55270876Y12425525D01*
X55269671Y12424135D01*
X55268000Y12416452D01*
X55268000Y11536115D01*
X54968000Y11536115D01*
X54968000Y12411885D01*
X54963525Y12427124D01*
X54962135Y12428329D01*
X54954452Y12430000D01*
X54074115Y12430000D01*
X54058876Y12425525D01*
X54057671Y12424135D01*
X54056000Y12416452D01*
X54056000Y11777160D01*
X53019009Y11777160D01*
X53014714Y11788008D01*
X53004113Y11814783D01*
X52912922Y11934922D01*
X52792783Y12026113D01*
X52715056Y12056887D01*
X52660077Y12078655D01*
X52660075Y12078656D01*
X52652547Y12081636D01*
X52562772Y12092500D01*
X51577228Y12092500D01*
X51487453Y12081636D01*
X51479925Y12078656D01*
X51479923Y12078655D01*
X51424944Y12056887D01*
X51347217Y12026113D01*
X51227078Y11934922D01*
X51135887Y11814783D01*
X51132726Y11806800D01*
X51132640Y11806647D01*
X51081774Y11757118D01*
X51022867Y11742500D01*
X50183715Y11742500D01*
X50115594Y11762502D01*
X50094698Y11779327D01*
X50062949Y11811021D01*
X50062944Y11811025D01*
X50054713Y11819241D01*
X50044076Y11823944D01*
X50044074Y11823945D01*
X49984538Y11850265D01*
X49952327Y11864506D01*
X49926646Y11867500D01*
X48277354Y11867500D01*
X48273650Y11867059D01*
X48273647Y11867059D01*
X48266254Y11866179D01*
X48251154Y11864382D01*
X48148847Y11818939D01*
X48069759Y11739713D01*
X48024494Y11637327D01*
X48021500Y11611646D01*
X48021500Y10872354D01*
X48024618Y10846154D01*
X48028456Y10837514D01*
X48028456Y10837513D01*
X48053779Y10780502D01*
X48070061Y10743847D01*
X48149287Y10664759D01*
X48159924Y10660056D01*
X48159926Y10660055D01*
X48201897Y10641500D01*
X48251673Y10619494D01*
X48277354Y10616500D01*
X49926646Y10616500D01*
X49930350Y10616941D01*
X49930353Y10616941D01*
X49937746Y10617821D01*
X49952846Y10619618D01*
X49978282Y10630916D01*
X50044518Y10660337D01*
X50055153Y10665061D01*
X50063373Y10673295D01*
X50063376Y10673297D01*
X50094541Y10704517D01*
X50156823Y10738597D01*
X50183714Y10741500D01*
X51075403Y10741500D01*
X51143524Y10721498D01*
X51175762Y10691684D01*
X51227078Y10624078D01*
X51347217Y10532887D01*
X51440669Y10495887D01*
X51487453Y10477364D01*
X51486394Y10474688D01*
X51535612Y10445568D01*
X51567470Y10382121D01*
X51569500Y10359595D01*
X51569500Y10218493D01*
X51549498Y10150372D01*
X51489884Y10101341D01*
X51431217Y10078113D01*
X51311078Y9986922D01*
X51219887Y9866783D01*
X51171641Y9744925D01*
X51171152Y9743691D01*
X51127478Y9687718D01*
X51060475Y9664241D01*
X50991416Y9680717D01*
X50942227Y9731912D01*
X50936848Y9743691D01*
X50936360Y9744925D01*
X50888113Y9866783D01*
X50796922Y9986922D01*
X50676783Y10078113D01*
X50613168Y10103300D01*
X50544077Y10130655D01*
X50544075Y10130656D01*
X50536547Y10133636D01*
X50446772Y10144500D01*
X49836228Y10144500D01*
X49746453Y10133636D01*
X49738925Y10130656D01*
X49738923Y10130655D01*
X49669832Y10103300D01*
X49606217Y10078113D01*
X49486078Y9986922D01*
X49394887Y9866783D01*
X49391725Y9858796D01*
X49346152Y9743691D01*
X49339364Y9726547D01*
X49328500Y9636772D01*
X49328500Y8889100D01*
X49308498Y8820979D01*
X49260290Y8777134D01*
X49140117Y8715108D01*
X49133369Y8711625D01*
X49005604Y8600169D01*
X48908113Y8461453D01*
X48846524Y8303487D01*
X48845532Y8295954D01*
X48845532Y8295953D01*
X48825462Y8143500D01*
X48824394Y8135389D01*
X48842999Y7966865D01*
X48869185Y7895309D01*
X48892115Y7832651D01*
X48901266Y7807644D01*
X48905502Y7801341D01*
X48905502Y7801340D01*
X48917641Y7783275D01*
X48995830Y7666917D01*
X49001442Y7661810D01*
X49001445Y7661807D01*
X49115612Y7557923D01*
X49115616Y7557920D01*
X49121233Y7552809D01*
X49127906Y7549186D01*
X49127910Y7549183D01*
X49263558Y7475533D01*
X49263560Y7475532D01*
X49270235Y7471908D01*
X49277584Y7469980D01*
X49426883Y7430812D01*
X49426885Y7430812D01*
X49434233Y7428884D01*
X49520609Y7427527D01*
X49596161Y7426340D01*
X49596164Y7426340D01*
X49603760Y7426221D01*
X49611165Y7427917D01*
X49611166Y7427917D01*
X49671586Y7441755D01*
X49769029Y7464072D01*
X49920498Y7540253D01*
X50049423Y7650366D01*
X50148361Y7788053D01*
X50159105Y7814778D01*
X50211601Y7945366D01*
X50214208Y7944318D01*
X50239674Y7988439D01*
X50357840Y8106605D01*
X50420152Y8140631D01*
X50439350Y8143282D01*
X50442963Y8143500D01*
X50446772Y8143500D01*
X50536547Y8154364D01*
X50544075Y8157344D01*
X50544077Y8157345D01*
X50613579Y8184863D01*
X50676783Y8209887D01*
X50796922Y8301078D01*
X50888113Y8421217D01*
X50936849Y8544310D01*
X50980522Y8600282D01*
X51047525Y8623759D01*
X51116584Y8607283D01*
X51165773Y8556088D01*
X51171150Y8544313D01*
X51219887Y8421217D01*
X51311078Y8301078D01*
X51431217Y8209887D01*
X51494421Y8184863D01*
X51563923Y8157345D01*
X51563925Y8157344D01*
X51571453Y8154364D01*
X51661228Y8143500D01*
X52202075Y8143500D01*
X52270196Y8123498D01*
X52316689Y8069842D01*
X52326793Y7999568D01*
X52297299Y7934988D01*
X52291170Y7928405D01*
X51542170Y7179405D01*
X51479858Y7145379D01*
X51453075Y7142500D01*
X47020500Y7142500D01*
X46952379Y7162502D01*
X46905886Y7216158D01*
X46894500Y7268500D01*
X46894500Y7929114D01*
X46914502Y7997235D01*
X46930743Y8017388D01*
X46936922Y8022078D01*
X46942299Y8029161D01*
X47022921Y8135377D01*
X47028113Y8142217D01*
X47059296Y8220976D01*
X47080655Y8274923D01*
X47080656Y8274925D01*
X47083636Y8282453D01*
X47094500Y8372228D01*
X47094500Y9407772D01*
X47083636Y9497547D01*
X47028113Y9637783D01*
X46956665Y9731912D01*
X46942115Y9751081D01*
X46942113Y9751083D01*
X46936922Y9757922D01*
X46931108Y9762335D01*
X46897380Y9824099D01*
X46894500Y9850886D01*
X46894500Y9924381D01*
X46895578Y9940827D01*
X46898604Y9963812D01*
X46899682Y9972000D01*
X46896234Y9998187D01*
X46895578Y10003173D01*
X46894500Y10019619D01*
X46894500Y10490500D01*
X46914502Y10558621D01*
X46968158Y10605114D01*
X47020500Y10616500D01*
X47226646Y10616500D01*
X47230350Y10616941D01*
X47230353Y10616941D01*
X47237746Y10617821D01*
X47252846Y10619618D01*
X47278282Y10630916D01*
X47344518Y10660337D01*
X47355153Y10665061D01*
X47390408Y10700377D01*
X47402387Y10712377D01*
X47434241Y10744287D01*
X47444094Y10766572D01*
X47475675Y10838008D01*
X47479506Y10846673D01*
X47482500Y10872354D01*
X47482500Y11611646D01*
X47479382Y11637846D01*
X47466918Y11665907D01*
X47457546Y11736281D01*
X47466830Y11768001D01*
X47471837Y11779327D01*
X47479506Y11796673D01*
X47482500Y11822354D01*
X47482500Y12561646D01*
X47479382Y12587846D01*
X47466918Y12615907D01*
X47457546Y12686281D01*
X47466830Y12718001D01*
X47472297Y12730366D01*
X47479506Y12746673D01*
X47479674Y12748115D01*
X54056000Y12748115D01*
X54060475Y12732876D01*
X54061865Y12731671D01*
X54069548Y12730000D01*
X54949885Y12730000D01*
X54965124Y12734475D01*
X54966329Y12735865D01*
X54968000Y12743548D01*
X54968000Y12748115D01*
X55268000Y12748115D01*
X55272475Y12732876D01*
X55273865Y12731671D01*
X55281548Y12730000D01*
X56161885Y12730000D01*
X56177124Y12734475D01*
X56178329Y12735865D01*
X56180000Y12743548D01*
X56180000Y12748115D01*
X56596000Y12748115D01*
X56600475Y12732876D01*
X56601865Y12731671D01*
X56609548Y12730000D01*
X57489885Y12730000D01*
X57505124Y12734475D01*
X57506329Y12735865D01*
X57508000Y12743548D01*
X57508000Y12748115D01*
X57808000Y12748115D01*
X57812475Y12732876D01*
X57813865Y12731671D01*
X57821548Y12730000D01*
X58701885Y12730000D01*
X58717124Y12734475D01*
X58718329Y12735865D01*
X58720000Y12743548D01*
X58720000Y13382840D01*
X58719558Y13390286D01*
X58718006Y13403336D01*
X58713048Y13421374D01*
X58676245Y13504231D01*
X58663287Y13523085D01*
X58600658Y13585604D01*
X58581788Y13598525D01*
X58498875Y13635180D01*
X58480798Y13640108D01*
X58468213Y13641576D01*
X58460912Y13642000D01*
X57826115Y13642000D01*
X57810876Y13637525D01*
X57809671Y13636135D01*
X57808000Y13628452D01*
X57808000Y12748115D01*
X57508000Y12748115D01*
X57508000Y13623885D01*
X57503525Y13639124D01*
X57502135Y13640329D01*
X57494452Y13642000D01*
X56855160Y13642000D01*
X56847714Y13641558D01*
X56834664Y13640006D01*
X56816626Y13635048D01*
X56733769Y13598245D01*
X56714915Y13585287D01*
X56652396Y13522658D01*
X56639475Y13503788D01*
X56602820Y13420875D01*
X56597892Y13402798D01*
X56596424Y13390213D01*
X56596000Y13382912D01*
X56596000Y12748115D01*
X56180000Y12748115D01*
X56180000Y13382840D01*
X56179558Y13390286D01*
X56178006Y13403336D01*
X56173048Y13421374D01*
X56136245Y13504231D01*
X56123287Y13523085D01*
X56060658Y13585604D01*
X56041788Y13598525D01*
X55958875Y13635180D01*
X55940798Y13640108D01*
X55928213Y13641576D01*
X55920912Y13642000D01*
X55286115Y13642000D01*
X55270876Y13637525D01*
X55269671Y13636135D01*
X55268000Y13628452D01*
X55268000Y12748115D01*
X54968000Y12748115D01*
X54968000Y13623885D01*
X54963525Y13639124D01*
X54962135Y13640329D01*
X54954452Y13642000D01*
X54315160Y13642000D01*
X54307714Y13641558D01*
X54294664Y13640006D01*
X54276626Y13635048D01*
X54193769Y13598245D01*
X54174915Y13585287D01*
X54112396Y13522658D01*
X54099475Y13503788D01*
X54062820Y13420875D01*
X54057892Y13402798D01*
X54056424Y13390213D01*
X54056000Y13382912D01*
X54056000Y12748115D01*
X47479674Y12748115D01*
X47482500Y12772354D01*
X47482500Y13511646D01*
X47479382Y13537846D01*
X47452430Y13598525D01*
X47438663Y13629518D01*
X47433939Y13640153D01*
X47354713Y13719241D01*
X47344076Y13723944D01*
X47344074Y13723945D01*
X47277563Y13753349D01*
X47252327Y13764506D01*
X47226646Y13767500D01*
X45577354Y13767500D01*
X45573650Y13767059D01*
X45573647Y13767059D01*
X45566254Y13766179D01*
X45551154Y13764382D01*
X45542517Y13760546D01*
X45542511Y13760544D01*
X45526313Y13753349D01*
X45475165Y13742500D01*
X44728886Y13742500D01*
X44660765Y13762502D01*
X44648059Y13772742D01*
X44647922Y13772922D01*
X44527783Y13864112D01*
X44387547Y13919636D01*
X44379509Y13920609D01*
X44379508Y13920609D01*
X44347937Y13924429D01*
X44297771Y13930500D01*
X43180738Y13930500D01*
X42062230Y13930499D01*
X42058472Y13930044D01*
X42058467Y13930044D01*
X41980483Y13920608D01*
X41980480Y13920607D01*
X41972453Y13919636D01*
X41832217Y13864112D01*
X41712078Y13772922D01*
X41620888Y13652783D01*
X41565364Y13512547D01*
X41564391Y13504509D01*
X41564391Y13504508D01*
X41564304Y13503788D01*
X41554500Y13422771D01*
X41554500Y13418982D01*
X41554501Y12737926D01*
X41534499Y12669805D01*
X41517596Y12648831D01*
X41444170Y12575405D01*
X41381858Y12541379D01*
X41355075Y12538500D01*
X40827261Y12538500D01*
X40776313Y12549260D01*
X40702993Y12581675D01*
X40702992Y12581675D01*
X40694327Y12585506D01*
X40668646Y12588500D01*
X39979354Y12588500D01*
X39975650Y12588059D01*
X39975647Y12588059D01*
X39968254Y12587179D01*
X39953154Y12585382D01*
X39944514Y12581544D01*
X39944513Y12581544D01*
X39862117Y12544945D01*
X39850847Y12539939D01*
X39771759Y12460713D01*
X39767056Y12450076D01*
X39767055Y12450074D01*
X39739263Y12387210D01*
X39693424Y12332994D01*
X39625551Y12312167D01*
X39557193Y12331342D01*
X39508872Y12387010D01*
X39480663Y12450519D01*
X39480661Y12450521D01*
X39475939Y12461153D01*
X39396713Y12540241D01*
X39386076Y12544944D01*
X39386074Y12544945D01*
X39317175Y12575405D01*
X39294327Y12585506D01*
X39268646Y12588500D01*
X38579354Y12588500D01*
X38575650Y12588059D01*
X38575647Y12588059D01*
X38568254Y12587179D01*
X38553154Y12585382D01*
X38544514Y12581544D01*
X38544513Y12581544D01*
X38462117Y12544945D01*
X38450847Y12539939D01*
X38442628Y12531706D01*
X38442627Y12531705D01*
X38386502Y12475482D01*
X38324219Y12441403D01*
X38297329Y12438500D01*
X37662181Y12438500D01*
X37650296Y12439828D01*
X37650255Y12439318D01*
X37641309Y12440038D01*
X37632553Y12442019D01*
X37597240Y12439828D01*
X37579736Y12438742D01*
X37571933Y12438500D01*
X37556060Y12438500D01*
X37545948Y12437052D01*
X37535894Y12436022D01*
X37507903Y12434285D01*
X37489462Y12433141D01*
X37481018Y12430093D01*
X37477306Y12429324D01*
X37462601Y12425657D01*
X37458973Y12424596D01*
X37450082Y12423323D01*
X37407718Y12404061D01*
X37398363Y12400254D01*
X37363057Y12387509D01*
X37363053Y12387507D01*
X37354613Y12384460D01*
X37347365Y12379165D01*
X37344025Y12377389D01*
X37330911Y12369726D01*
X37327739Y12367697D01*
X37319572Y12363984D01*
X37312777Y12358129D01*
X37312774Y12358127D01*
X37284325Y12333613D01*
X37276405Y12327325D01*
X37265664Y12319478D01*
X37254921Y12308735D01*
X37248075Y12302377D01*
X37210963Y12270400D01*
X37206080Y12262866D01*
X37200181Y12256104D01*
X37200176Y12256108D01*
X37191200Y12245014D01*
X37025591Y12079405D01*
X36963279Y12045379D01*
X36936496Y12042500D01*
X36058228Y12042500D01*
X35968453Y12031636D01*
X35960925Y12028656D01*
X35960923Y12028655D01*
X35920239Y12012547D01*
X35828217Y11976113D01*
X35708078Y11884922D01*
X35663367Y11826017D01*
X35637789Y11792320D01*
X35580671Y11750153D01*
X35537426Y11742500D01*
X35074574Y11742500D01*
X35006453Y11762502D01*
X34974211Y11792320D01*
X34948634Y11826017D01*
X34903922Y11884922D01*
X34783783Y11976113D01*
X34691761Y12012547D01*
X34651077Y12028655D01*
X34651075Y12028656D01*
X34643547Y12031636D01*
X34553772Y12042500D01*
X33518228Y12042500D01*
X33428453Y12031636D01*
X33420925Y12028656D01*
X33420923Y12028655D01*
X33380239Y12012547D01*
X33288217Y11976113D01*
X33168078Y11884922D01*
X33123367Y11826017D01*
X33097789Y11792320D01*
X33040671Y11750153D01*
X32997426Y11742500D01*
X32839500Y11742500D01*
X32771379Y11762502D01*
X32724886Y11816158D01*
X32713500Y11868500D01*
X32713500Y11922772D01*
X32702636Y12012547D01*
X32696259Y12028655D01*
X32650275Y12144796D01*
X32650274Y12144798D01*
X32647113Y12152783D01*
X32555922Y12272922D01*
X32435783Y12364113D01*
X32334870Y12404067D01*
X32303077Y12416655D01*
X32303075Y12416656D01*
X32295547Y12419636D01*
X32205772Y12430500D01*
X31595228Y12430500D01*
X31505453Y12419636D01*
X31497925Y12416656D01*
X31497923Y12416655D01*
X31466130Y12404067D01*
X31365217Y12364113D01*
X31245078Y12272922D01*
X31153887Y12152783D01*
X31115920Y12056887D01*
X31105152Y12029691D01*
X31061478Y11973718D01*
X30994475Y11950241D01*
X30925416Y11966717D01*
X30876227Y12017912D01*
X30870848Y12029691D01*
X30860081Y12056887D01*
X30822113Y12152783D01*
X30730922Y12272922D01*
X30610783Y12364113D01*
X30509870Y12404067D01*
X30478077Y12416655D01*
X30478075Y12416656D01*
X30470547Y12419636D01*
X30380772Y12430500D01*
X29770228Y12430500D01*
X29680453Y12419636D01*
X29672925Y12416656D01*
X29672923Y12416655D01*
X29641130Y12404067D01*
X29540217Y12364113D01*
X29420078Y12272922D01*
X29328887Y12152783D01*
X29325726Y12144798D01*
X29325725Y12144796D01*
X29279742Y12028655D01*
X29273364Y12012547D01*
X29272391Y12004506D01*
X29266202Y11953363D01*
X29238161Y11888138D01*
X29179309Y11848428D01*
X29141115Y11842500D01*
X28900886Y11842500D01*
X28832765Y11862502D01*
X28812612Y11878743D01*
X28807922Y11884922D01*
X28781529Y11904956D01*
X28698831Y11967727D01*
X28687783Y11976113D01*
X28595761Y12012547D01*
X28555077Y12028655D01*
X28555075Y12028656D01*
X28547547Y12031636D01*
X28457772Y12042500D01*
X27422228Y12042500D01*
X27332453Y12031636D01*
X27324925Y12028656D01*
X27324923Y12028655D01*
X27284239Y12012547D01*
X27192217Y11976113D01*
X27181169Y11967727D01*
X27098472Y11904956D01*
X27072078Y11884922D01*
X27067665Y11879108D01*
X27005901Y11845380D01*
X26979114Y11842500D01*
X26106886Y11842500D01*
X26038765Y11862502D01*
X26018612Y11878743D01*
X26013922Y11884922D01*
X25987529Y11904956D01*
X25904831Y11967727D01*
X25893783Y11976113D01*
X25801761Y12012547D01*
X25761077Y12028655D01*
X25761075Y12028656D01*
X25753547Y12031636D01*
X25663772Y12042500D01*
X24628228Y12042500D01*
X24538453Y12031636D01*
X24530925Y12028656D01*
X24530923Y12028655D01*
X24490239Y12012547D01*
X24398217Y11976113D01*
X24387169Y11967727D01*
X24304472Y11904956D01*
X24278078Y11884922D01*
X24273665Y11879108D01*
X24211901Y11845380D01*
X24185114Y11842500D01*
X23690885Y11842500D01*
X23622764Y11862502D01*
X23576271Y11916158D01*
X23565798Y11953363D01*
X23559609Y12004506D01*
X23558636Y12012547D01*
X23552259Y12028655D01*
X23506275Y12144796D01*
X23506274Y12144798D01*
X23503113Y12152783D01*
X23411922Y12272922D01*
X23291783Y12364113D01*
X23190870Y12404067D01*
X23159077Y12416655D01*
X23159075Y12416656D01*
X23151547Y12419636D01*
X23061772Y12430500D01*
X22451228Y12430500D01*
X22361453Y12419636D01*
X22353925Y12416656D01*
X22353923Y12416655D01*
X22322130Y12404067D01*
X22221217Y12364113D01*
X22101078Y12272922D01*
X22009887Y12152783D01*
X21971920Y12056887D01*
X21961152Y12029691D01*
X21917478Y11973718D01*
X21850475Y11950241D01*
X21781416Y11966717D01*
X21732227Y12017912D01*
X21726848Y12029691D01*
X21716081Y12056887D01*
X21678113Y12152783D01*
X21586922Y12272922D01*
X21466783Y12364113D01*
X21365870Y12404067D01*
X21334077Y12416655D01*
X21334075Y12416656D01*
X21326547Y12419636D01*
X21236772Y12430500D01*
X20626228Y12430500D01*
X20536453Y12419636D01*
X20528925Y12416656D01*
X20528923Y12416655D01*
X20497130Y12404067D01*
X20396217Y12364113D01*
X20276078Y12272922D01*
X20184887Y12152783D01*
X20181726Y12144798D01*
X20167994Y12110116D01*
X20124319Y12054142D01*
X20050842Y12030500D01*
X19165562Y12030500D01*
X19149650Y12032489D01*
X19149547Y12031636D01*
X19059772Y12042500D01*
X18024228Y12042500D01*
X17934453Y12031636D01*
X17926925Y12028656D01*
X17926923Y12028655D01*
X17886239Y12012547D01*
X17794217Y11976113D01*
X17783169Y11967727D01*
X17700472Y11904956D01*
X17674078Y11884922D01*
X17669665Y11879108D01*
X17607901Y11845380D01*
X17581114Y11842500D01*
X17340885Y11842500D01*
X17272764Y11862502D01*
X17226271Y11916158D01*
X17215798Y11953363D01*
X17209609Y12004506D01*
X17208636Y12012547D01*
X17202259Y12028655D01*
X17156275Y12144796D01*
X17156274Y12144798D01*
X17153113Y12152783D01*
X17061922Y12272922D01*
X16941783Y12364113D01*
X16840870Y12404067D01*
X16809077Y12416655D01*
X16809075Y12416656D01*
X16801547Y12419636D01*
X16711772Y12430500D01*
X16101228Y12430500D01*
X16011453Y12419636D01*
X16003925Y12416656D01*
X16003923Y12416655D01*
X15972130Y12404067D01*
X15871217Y12364113D01*
X15751078Y12272922D01*
X15659887Y12152783D01*
X15621920Y12056887D01*
X15611152Y12029691D01*
X15567478Y11973718D01*
X15500475Y11950241D01*
X15431416Y11966717D01*
X15382227Y12017912D01*
X15376848Y12029691D01*
X15366081Y12056887D01*
X15328113Y12152783D01*
X15236922Y12272922D01*
X15116783Y12364113D01*
X15015870Y12404067D01*
X14984077Y12416655D01*
X14984075Y12416656D01*
X14976547Y12419636D01*
X14886772Y12430500D01*
X14276228Y12430500D01*
X14186453Y12419636D01*
X14178925Y12416656D01*
X14178923Y12416655D01*
X14147130Y12404067D01*
X14046217Y12364113D01*
X13926078Y12272922D01*
X13834887Y12152783D01*
X13831726Y12144798D01*
X13831725Y12144796D01*
X13785742Y12028655D01*
X13779364Y12012547D01*
X13778391Y12004506D01*
X13772202Y11953363D01*
X13744161Y11888138D01*
X13685309Y11848428D01*
X13647115Y11842500D01*
X13152886Y11842500D01*
X13084765Y11862502D01*
X13064612Y11878743D01*
X13059922Y11884922D01*
X13033529Y11904956D01*
X12950831Y11967727D01*
X12939783Y11976113D01*
X12847761Y12012547D01*
X12807077Y12028655D01*
X12807075Y12028656D01*
X12799547Y12031636D01*
X12709772Y12042500D01*
X11674228Y12042500D01*
X11584453Y12031636D01*
X11576925Y12028656D01*
X11576923Y12028655D01*
X11536239Y12012547D01*
X11444217Y11976113D01*
X11433169Y11967727D01*
X11350472Y11904956D01*
X11324078Y11884922D01*
X11319665Y11879108D01*
X11257901Y11845380D01*
X11231114Y11842500D01*
X10887385Y11842500D01*
X10819264Y11862502D01*
X10772771Y11916158D01*
X10762298Y11953363D01*
X10756109Y12004506D01*
X10755136Y12012547D01*
X10748759Y12028655D01*
X10702775Y12144796D01*
X10702774Y12144798D01*
X10699613Y12152783D01*
X10608422Y12272922D01*
X10543168Y12322453D01*
X10495126Y12358919D01*
X10495125Y12358919D01*
X10488283Y12364113D01*
X10481697Y12366720D01*
X10432675Y12417065D01*
X10418508Y12486633D01*
X10444201Y12552818D01*
X10487442Y12588539D01*
X10543714Y12616841D01*
X10550498Y12620253D01*
X10679423Y12730366D01*
X10778361Y12868053D01*
X10841601Y13025366D01*
X10865490Y13193222D01*
X10865645Y13208000D01*
X10845276Y13376320D01*
X10785345Y13534923D01*
X10741632Y13598525D01*
X10693614Y13668392D01*
X10693613Y13668393D01*
X10689312Y13674651D01*
X10683641Y13679704D01*
X10568392Y13782388D01*
X10568388Y13782390D01*
X10562721Y13787440D01*
X10412881Y13866776D01*
X10248441Y13908081D01*
X10240843Y13908121D01*
X10240841Y13908121D01*
X10163668Y13908525D01*
X10078895Y13908969D01*
X10071508Y13907195D01*
X10071504Y13907195D01*
X9928162Y13872780D01*
X9914032Y13869388D01*
X9907284Y13865905D01*
X9907281Y13865904D01*
X9791437Y13806113D01*
X9764985Y13797816D01*
X9765402Y13796259D01*
X9757426Y13794122D01*
X9749238Y13793044D01*
X9603159Y13732536D01*
X9477718Y13636282D01*
X9472695Y13629736D01*
X9458571Y13611329D01*
X9447703Y13598938D01*
X8316170Y12467405D01*
X8253858Y12433379D01*
X8227075Y12430500D01*
X7822728Y12430500D01*
X7732953Y12419636D01*
X7725425Y12416656D01*
X7725423Y12416655D01*
X7693630Y12404067D01*
X7592717Y12364113D01*
X7472578Y12272922D01*
X7381387Y12152783D01*
X7378226Y12144798D01*
X7378225Y12144796D01*
X7332242Y12028655D01*
X7325864Y12012547D01*
X7324891Y12004506D01*
X7318702Y11953363D01*
X7290661Y11888138D01*
X7231809Y11848428D01*
X7193615Y11842500D01*
X6548886Y11842500D01*
X6480765Y11862502D01*
X6460612Y11878743D01*
X6455922Y11884922D01*
X6429529Y11904956D01*
X6346831Y11967727D01*
X6335783Y11976113D01*
X6243761Y12012547D01*
X6203077Y12028655D01*
X6203075Y12028656D01*
X6195547Y12031636D01*
X6105772Y12042500D01*
X5070228Y12042500D01*
X4980453Y12031636D01*
X4972925Y12028656D01*
X4972923Y12028655D01*
X4932239Y12012547D01*
X4840217Y11976113D01*
X4829169Y11967727D01*
X4746472Y11904956D01*
X4720078Y11884922D01*
X4715665Y11879108D01*
X4653901Y11845380D01*
X4627114Y11842500D01*
X4008886Y11842500D01*
X3940765Y11862502D01*
X3920612Y11878743D01*
X3915922Y11884922D01*
X3889529Y11904956D01*
X3806831Y11967727D01*
X3795783Y11976113D01*
X3703761Y12012547D01*
X3663077Y12028655D01*
X3663075Y12028656D01*
X3655547Y12031636D01*
X3565772Y12042500D01*
X2530228Y12042500D01*
X2440453Y12031636D01*
X2432925Y12028656D01*
X2432923Y12028655D01*
X2392239Y12012547D01*
X2300217Y11976113D01*
X2180078Y11884922D01*
X2088887Y11764783D01*
X2078531Y11738626D01*
X2041855Y11645992D01*
X2033364Y11624547D01*
X2022500Y11534772D01*
X2022500Y10949228D01*
X2033364Y10859453D01*
X2036344Y10851925D01*
X2036345Y10851923D01*
X2043379Y10834158D01*
X2088887Y10719217D01*
X2180078Y10599078D01*
X2300217Y10507887D01*
X2330526Y10495887D01*
X2432923Y10455345D01*
X2432925Y10455344D01*
X2440453Y10452364D01*
X2530228Y10441500D01*
X3565772Y10441500D01*
X3655547Y10452364D01*
X3663075Y10455344D01*
X3663077Y10455345D01*
X3765474Y10495887D01*
X3795783Y10507887D01*
X3842042Y10543000D01*
X3909081Y10593885D01*
X3909083Y10593887D01*
X3915922Y10599078D01*
X3920335Y10604892D01*
X3982099Y10638620D01*
X4008886Y10641500D01*
X4627114Y10641500D01*
X4695235Y10621498D01*
X4715388Y10605257D01*
X4720078Y10599078D01*
X4726917Y10593887D01*
X4726919Y10593885D01*
X4793958Y10543000D01*
X4840217Y10507887D01*
X4870526Y10495887D01*
X4972923Y10455345D01*
X4972925Y10455344D01*
X4980453Y10452364D01*
X5070228Y10441500D01*
X6105772Y10441500D01*
X6195547Y10452364D01*
X6203075Y10455344D01*
X6203077Y10455345D01*
X6305474Y10495887D01*
X6335783Y10507887D01*
X6382042Y10543000D01*
X6449081Y10593885D01*
X6449083Y10593887D01*
X6455922Y10599078D01*
X6460335Y10604892D01*
X6522099Y10638620D01*
X6548886Y10641500D01*
X7368723Y10641500D01*
X7436844Y10621498D01*
X7460729Y10599408D01*
X7461313Y10599992D01*
X7467383Y10593922D01*
X7472578Y10587078D01*
X7592717Y10495887D01*
X7639501Y10477364D01*
X7725423Y10443345D01*
X7725425Y10443344D01*
X7732953Y10440364D01*
X7822728Y10429500D01*
X8433272Y10429500D01*
X8523047Y10440364D01*
X8530575Y10443344D01*
X8530577Y10443345D01*
X8616499Y10477364D01*
X8663283Y10495887D01*
X8783422Y10587078D01*
X8874613Y10707217D01*
X8923349Y10830310D01*
X8967022Y10886282D01*
X9034025Y10909759D01*
X9103084Y10893283D01*
X9152273Y10842088D01*
X9157650Y10830313D01*
X9206387Y10707217D01*
X9297578Y10587078D01*
X9417717Y10495887D01*
X9464501Y10477364D01*
X9550423Y10443345D01*
X9550425Y10443344D01*
X9557953Y10440364D01*
X9647728Y10429500D01*
X10258272Y10429500D01*
X10348047Y10440364D01*
X10355575Y10443344D01*
X10355577Y10443345D01*
X10441499Y10477364D01*
X10488283Y10495887D01*
X10608422Y10587078D01*
X10613617Y10593922D01*
X10619687Y10599992D01*
X10621168Y10598511D01*
X10669030Y10633846D01*
X10712277Y10641500D01*
X11231114Y10641500D01*
X11299235Y10621498D01*
X11319388Y10605257D01*
X11324078Y10599078D01*
X11330917Y10593887D01*
X11330919Y10593885D01*
X11397958Y10543000D01*
X11444217Y10507887D01*
X11474526Y10495887D01*
X11576923Y10455345D01*
X11576925Y10455344D01*
X11584453Y10452364D01*
X11674228Y10441500D01*
X12709772Y10441500D01*
X12799547Y10452364D01*
X12807075Y10455344D01*
X12807077Y10455345D01*
X12909474Y10495887D01*
X12939783Y10507887D01*
X12986042Y10543000D01*
X13053081Y10593885D01*
X13053083Y10593887D01*
X13059922Y10599078D01*
X13064335Y10604892D01*
X13126099Y10638620D01*
X13152886Y10641500D01*
X13822223Y10641500D01*
X13890344Y10621498D01*
X13914229Y10599408D01*
X13914813Y10599992D01*
X13920883Y10593922D01*
X13926078Y10587078D01*
X14046217Y10495887D01*
X14093001Y10477364D01*
X14178923Y10443345D01*
X14178925Y10443344D01*
X14186453Y10440364D01*
X14276228Y10429500D01*
X14886772Y10429500D01*
X14976547Y10440364D01*
X14984075Y10443344D01*
X14984077Y10443345D01*
X15069999Y10477364D01*
X15116783Y10495887D01*
X15236922Y10587078D01*
X15328113Y10707217D01*
X15376849Y10830310D01*
X15420522Y10886282D01*
X15487525Y10909759D01*
X15556584Y10893283D01*
X15605773Y10842088D01*
X15611150Y10830313D01*
X15659887Y10707217D01*
X15751078Y10587078D01*
X15871217Y10495887D01*
X15918001Y10477364D01*
X16003923Y10443345D01*
X16003925Y10443344D01*
X16011453Y10440364D01*
X16101228Y10429500D01*
X16711772Y10429500D01*
X16801547Y10440364D01*
X16809075Y10443344D01*
X16809077Y10443345D01*
X16894999Y10477364D01*
X16941783Y10495887D01*
X17061922Y10587078D01*
X17067117Y10593922D01*
X17073187Y10599992D01*
X17074668Y10598511D01*
X17122530Y10633846D01*
X17165777Y10641500D01*
X17581114Y10641500D01*
X17649235Y10621498D01*
X17669388Y10605257D01*
X17674078Y10599078D01*
X17680917Y10593887D01*
X17680919Y10593885D01*
X17747958Y10543000D01*
X17794217Y10507887D01*
X17824526Y10495887D01*
X17926923Y10455345D01*
X17926925Y10455344D01*
X17934453Y10452364D01*
X18024228Y10441500D01*
X19059772Y10441500D01*
X19149547Y10452364D01*
X19157075Y10455344D01*
X19157077Y10455345D01*
X19259474Y10495887D01*
X19289783Y10507887D01*
X19409922Y10599078D01*
X19501113Y10719217D01*
X19513255Y10749884D01*
X19556930Y10805858D01*
X19630407Y10829500D01*
X20050842Y10829500D01*
X20118963Y10809498D01*
X20167994Y10749884D01*
X20184887Y10707217D01*
X20276078Y10587078D01*
X20396217Y10495887D01*
X20443001Y10477364D01*
X20528923Y10443345D01*
X20528925Y10443344D01*
X20536453Y10440364D01*
X20626228Y10429500D01*
X21236772Y10429500D01*
X21326547Y10440364D01*
X21334075Y10443344D01*
X21334077Y10443345D01*
X21419999Y10477364D01*
X21466783Y10495887D01*
X21586922Y10587078D01*
X21678113Y10707217D01*
X21726849Y10830310D01*
X21770522Y10886282D01*
X21837525Y10909759D01*
X21906584Y10893283D01*
X21955773Y10842088D01*
X21961150Y10830313D01*
X22009887Y10707217D01*
X22101078Y10587078D01*
X22221217Y10495887D01*
X22268001Y10477364D01*
X22353923Y10443345D01*
X22353925Y10443344D01*
X22361453Y10440364D01*
X22451228Y10429500D01*
X23061772Y10429500D01*
X23151547Y10440364D01*
X23159075Y10443344D01*
X23159077Y10443345D01*
X23244999Y10477364D01*
X23291783Y10495887D01*
X23411922Y10587078D01*
X23417117Y10593922D01*
X23423187Y10599992D01*
X23424668Y10598511D01*
X23472530Y10633846D01*
X23515777Y10641500D01*
X24185114Y10641500D01*
X24253235Y10621498D01*
X24273388Y10605257D01*
X24278078Y10599078D01*
X24284917Y10593887D01*
X24284919Y10593885D01*
X24351958Y10543000D01*
X24398217Y10507887D01*
X24428526Y10495887D01*
X24530923Y10455345D01*
X24530925Y10455344D01*
X24538453Y10452364D01*
X24628228Y10441500D01*
X25663772Y10441500D01*
X25753547Y10452364D01*
X25761075Y10455344D01*
X25761077Y10455345D01*
X25863474Y10495887D01*
X25893783Y10507887D01*
X25940042Y10543000D01*
X26007081Y10593885D01*
X26007083Y10593887D01*
X26013922Y10599078D01*
X26018335Y10604892D01*
X26080099Y10638620D01*
X26106886Y10641500D01*
X26979114Y10641500D01*
X27047235Y10621498D01*
X27067388Y10605257D01*
X27072078Y10599078D01*
X27078917Y10593887D01*
X27078919Y10593885D01*
X27145958Y10543000D01*
X27192217Y10507887D01*
X27222526Y10495887D01*
X27324923Y10455345D01*
X27324925Y10455344D01*
X27332453Y10452364D01*
X27422228Y10441500D01*
X28457772Y10441500D01*
X28547547Y10452364D01*
X28555075Y10455344D01*
X28555077Y10455345D01*
X28657474Y10495887D01*
X28687783Y10507887D01*
X28734042Y10543000D01*
X28801081Y10593885D01*
X28801083Y10593887D01*
X28807922Y10599078D01*
X28812335Y10604892D01*
X28874099Y10638620D01*
X28900886Y10641500D01*
X29316223Y10641500D01*
X29384344Y10621498D01*
X29408229Y10599408D01*
X29408813Y10599992D01*
X29414883Y10593922D01*
X29420078Y10587078D01*
X29540217Y10495887D01*
X29587001Y10477364D01*
X29672923Y10443345D01*
X29672925Y10443344D01*
X29680453Y10440364D01*
X29770228Y10429500D01*
X30380772Y10429500D01*
X30470547Y10440364D01*
X30478075Y10443344D01*
X30478077Y10443345D01*
X30563999Y10477364D01*
X30610783Y10495887D01*
X30730922Y10587078D01*
X30822113Y10707217D01*
X30870849Y10830310D01*
X30914522Y10886282D01*
X30981525Y10909759D01*
X31050584Y10893283D01*
X31099773Y10842088D01*
X31105150Y10830313D01*
X31153887Y10707217D01*
X31245078Y10587078D01*
X31365217Y10495887D01*
X31412001Y10477364D01*
X31497923Y10443345D01*
X31497925Y10443344D01*
X31505453Y10440364D01*
X31595228Y10429500D01*
X32205772Y10429500D01*
X32295547Y10440364D01*
X32303075Y10443344D01*
X32303077Y10443345D01*
X32388999Y10477364D01*
X32435783Y10495887D01*
X32555922Y10587078D01*
X32561110Y10593913D01*
X32561115Y10593918D01*
X32635321Y10691680D01*
X32692439Y10733847D01*
X32735683Y10741500D01*
X32997426Y10741500D01*
X33065547Y10721498D01*
X33097788Y10691680D01*
X33168078Y10599078D01*
X33288217Y10507887D01*
X33318526Y10495887D01*
X33420923Y10455345D01*
X33420925Y10455344D01*
X33428453Y10452364D01*
X33518228Y10441500D01*
X34553772Y10441500D01*
X34643547Y10452364D01*
X34651075Y10455344D01*
X34651077Y10455345D01*
X34753474Y10495887D01*
X34783783Y10507887D01*
X34903922Y10599078D01*
X34974211Y10691680D01*
X35031329Y10733847D01*
X35074574Y10741500D01*
X35537426Y10741500D01*
X35605547Y10721498D01*
X35637788Y10691680D01*
X35708078Y10599078D01*
X35828217Y10507887D01*
X35858526Y10495887D01*
X35960923Y10455345D01*
X35960925Y10455344D01*
X35968453Y10452364D01*
X36058228Y10441500D01*
X37093772Y10441500D01*
X37183547Y10452364D01*
X37191075Y10455344D01*
X37191077Y10455345D01*
X37293474Y10495887D01*
X37323783Y10507887D01*
X37443922Y10599078D01*
X37535113Y10719217D01*
X37580621Y10834158D01*
X37587655Y10851923D01*
X37587656Y10851925D01*
X37590636Y10859453D01*
X37601500Y10949228D01*
X37601500Y11187496D01*
X37621502Y11255617D01*
X37638405Y11276591D01*
X37762409Y11400595D01*
X37824721Y11434621D01*
X37851504Y11437500D01*
X38297243Y11437500D01*
X38365364Y11417498D01*
X38386338Y11400595D01*
X38386595Y11400338D01*
X38420621Y11338026D01*
X38423500Y11311243D01*
X38423500Y9660181D01*
X38422172Y9648296D01*
X38422682Y9648255D01*
X38421962Y9639309D01*
X38419981Y9630553D01*
X38420537Y9621593D01*
X38423258Y9577736D01*
X38423500Y9569933D01*
X38423500Y9554060D01*
X38424135Y9549626D01*
X38424948Y9543950D01*
X38425978Y9533894D01*
X38428859Y9487462D01*
X38431907Y9479018D01*
X38432676Y9475306D01*
X38436343Y9460601D01*
X38437404Y9456973D01*
X38438677Y9448082D01*
X38457939Y9405718D01*
X38461746Y9396363D01*
X38474491Y9361057D01*
X38474493Y9361053D01*
X38477540Y9352613D01*
X38482835Y9345365D01*
X38484611Y9342025D01*
X38492274Y9328911D01*
X38494303Y9325739D01*
X38498016Y9317572D01*
X38503871Y9310777D01*
X38503873Y9310774D01*
X38528387Y9282325D01*
X38534676Y9274404D01*
X38539105Y9268342D01*
X38542522Y9263664D01*
X38553265Y9252921D01*
X38559623Y9246075D01*
X38591600Y9208963D01*
X38599134Y9204080D01*
X38605896Y9198181D01*
X38605892Y9198176D01*
X38616986Y9189200D01*
X39728466Y8077720D01*
X39735932Y8068376D01*
X39736322Y8068708D01*
X39742140Y8061872D01*
X39746930Y8054280D01*
X39753658Y8048338D01*
X39753659Y8048337D01*
X39786600Y8019245D01*
X39792288Y8013898D01*
X39803506Y8002680D01*
X39807094Y7999991D01*
X39807095Y7999990D01*
X39811684Y7996550D01*
X39819523Y7990168D01*
X39845909Y7966865D01*
X39854388Y7959377D01*
X39862511Y7955563D01*
X39865664Y7953492D01*
X39878676Y7945673D01*
X39881994Y7943857D01*
X39889176Y7938474D01*
X39932741Y7922142D01*
X39942050Y7918220D01*
X39984163Y7898447D01*
X39993036Y7897065D01*
X39996658Y7895958D01*
X40011328Y7892109D01*
X40015017Y7891298D01*
X40023419Y7888148D01*
X40032364Y7887483D01*
X40032374Y7887481D01*
X40069828Y7884698D01*
X40079855Y7883548D01*
X40093009Y7881500D01*
X40108203Y7881500D01*
X40117541Y7881154D01*
X40166391Y7877524D01*
X40175167Y7879397D01*
X40184124Y7880008D01*
X40184124Y7880002D01*
X40198317Y7881500D01*
X44164403Y7881500D01*
X44232524Y7861498D01*
X44249202Y7848694D01*
X44295233Y7806809D01*
X44301906Y7803186D01*
X44301910Y7803183D01*
X44437558Y7729533D01*
X44437560Y7729532D01*
X44444235Y7725908D01*
X44451584Y7723980D01*
X44600883Y7684812D01*
X44600885Y7684812D01*
X44608233Y7682884D01*
X44694609Y7681527D01*
X44770161Y7680340D01*
X44770164Y7680340D01*
X44777760Y7680221D01*
X44785165Y7681917D01*
X44785166Y7681917D01*
X44905474Y7709471D01*
X44943029Y7718072D01*
X45094498Y7794253D01*
X45194904Y7880008D01*
X45217651Y7899436D01*
X45217652Y7899437D01*
X45223423Y7904366D01*
X45322361Y8042053D01*
X45348029Y8105904D01*
X45391996Y8161648D01*
X45459121Y8184773D01*
X45528092Y8167936D01*
X45565299Y8135087D01*
X45645702Y8029161D01*
X45651078Y8022078D01*
X45656892Y8017665D01*
X45690620Y7955901D01*
X45693500Y7929114D01*
X45693500Y7454318D01*
X45673498Y7386197D01*
X45619842Y7339704D01*
X45552364Y7329231D01*
X45475772Y7338500D01*
X44440228Y7338500D01*
X44350453Y7327636D01*
X44342925Y7324656D01*
X44342923Y7324655D01*
X44286734Y7302408D01*
X44210217Y7272113D01*
X44090078Y7180922D01*
X44084890Y7174087D01*
X44019789Y7088320D01*
X43962671Y7046153D01*
X43919426Y7038500D01*
X42948574Y7038500D01*
X42880453Y7058502D01*
X42848211Y7088320D01*
X42783110Y7174087D01*
X42777922Y7180922D01*
X42657783Y7272113D01*
X42581266Y7302408D01*
X42525077Y7324655D01*
X42525075Y7324656D01*
X42517547Y7327636D01*
X42427772Y7338500D01*
X41392228Y7338500D01*
X41302453Y7327636D01*
X41294925Y7324656D01*
X41294923Y7324655D01*
X41238734Y7302408D01*
X41162217Y7272113D01*
X41042078Y7180922D01*
X41036890Y7174087D01*
X40971789Y7088320D01*
X40914671Y7046153D01*
X40871426Y7038500D01*
X39900574Y7038500D01*
X39832453Y7058502D01*
X39800211Y7088320D01*
X39735110Y7174087D01*
X39729922Y7180922D01*
X39609783Y7272113D01*
X39533266Y7302408D01*
X39477077Y7324655D01*
X39477075Y7324656D01*
X39469547Y7327636D01*
X39379772Y7338500D01*
X38344228Y7338500D01*
X38254453Y7327636D01*
X38246925Y7324656D01*
X38246923Y7324655D01*
X38190734Y7302408D01*
X38114217Y7272113D01*
X37994078Y7180922D01*
X37988890Y7174087D01*
X37923789Y7088320D01*
X37866671Y7046153D01*
X37823426Y7038500D01*
X36852574Y7038500D01*
X36784453Y7058502D01*
X36752211Y7088320D01*
X36687110Y7174087D01*
X36681922Y7180922D01*
X36561783Y7272113D01*
X36485266Y7302408D01*
X36429077Y7324655D01*
X36429075Y7324656D01*
X36421547Y7327636D01*
X36331772Y7338500D01*
X35296228Y7338500D01*
X35206453Y7327636D01*
X35198925Y7324656D01*
X35198923Y7324655D01*
X35142734Y7302408D01*
X35066217Y7272113D01*
X34946078Y7180922D01*
X34854887Y7060783D01*
X34817388Y6966070D01*
X34803153Y6930117D01*
X34759479Y6874143D01*
X34686001Y6850500D01*
X33836405Y6850500D01*
X33768284Y6870502D01*
X33721791Y6924158D01*
X33718813Y6932617D01*
X33718636Y6932547D01*
X33708609Y6957873D01*
X33663113Y7072783D01*
X33571922Y7192922D01*
X33451783Y7284113D01*
X33341856Y7327636D01*
X33319077Y7336655D01*
X33319075Y7336656D01*
X33311547Y7339636D01*
X33221772Y7350500D01*
X32611228Y7350500D01*
X32521453Y7339636D01*
X32513925Y7336656D01*
X32513923Y7336655D01*
X32491144Y7327636D01*
X32381217Y7284113D01*
X32261078Y7192922D01*
X32169887Y7072783D01*
X32122527Y6953163D01*
X32121152Y6949691D01*
X32077478Y6893718D01*
X32010475Y6870241D01*
X31941416Y6886717D01*
X31892227Y6937912D01*
X31886848Y6949691D01*
X31885474Y6953163D01*
X31838113Y7072783D01*
X31746922Y7192922D01*
X31626783Y7284113D01*
X31516856Y7327636D01*
X31494077Y7336655D01*
X31494075Y7336656D01*
X31486547Y7339636D01*
X31396772Y7350500D01*
X30854536Y7350500D01*
X30786415Y7370502D01*
X30771129Y7382058D01*
X30740900Y7408755D01*
X30735212Y7414102D01*
X30723994Y7425320D01*
X30720405Y7428010D01*
X30715816Y7431450D01*
X30707977Y7437832D01*
X30679839Y7462682D01*
X30673112Y7468623D01*
X30664989Y7472437D01*
X30661836Y7474508D01*
X30648824Y7482327D01*
X30645505Y7484144D01*
X30638324Y7489526D01*
X30613037Y7499006D01*
X30594764Y7505856D01*
X30585447Y7509783D01*
X30551466Y7525737D01*
X30551463Y7525738D01*
X30543337Y7529553D01*
X30534463Y7530935D01*
X30530850Y7532039D01*
X30516193Y7535885D01*
X30512490Y7536699D01*
X30504080Y7539852D01*
X30457657Y7543302D01*
X30447644Y7544452D01*
X30434491Y7546500D01*
X30419296Y7546500D01*
X30409959Y7546846D01*
X30394536Y7547992D01*
X30361108Y7550476D01*
X30352332Y7548603D01*
X30343375Y7547992D01*
X30343375Y7547998D01*
X30329182Y7546500D01*
X21612574Y7546500D01*
X21544453Y7566502D01*
X21512211Y7596320D01*
X21471466Y7650000D01*
X21441922Y7688922D01*
X21321783Y7780113D01*
X21241440Y7811923D01*
X21189077Y7832655D01*
X21189075Y7832656D01*
X21181547Y7835636D01*
X21091772Y7846500D01*
X20056228Y7846500D01*
X19966453Y7835636D01*
X19958925Y7832656D01*
X19958923Y7832655D01*
X19906560Y7811923D01*
X19826217Y7780113D01*
X19706078Y7688922D01*
X19676535Y7650000D01*
X19635789Y7596320D01*
X19578671Y7554153D01*
X19535426Y7546500D01*
X19120175Y7546500D01*
X19108295Y7547828D01*
X19108254Y7547317D01*
X19099309Y7548037D01*
X19090552Y7550018D01*
X19039422Y7546846D01*
X19037746Y7546742D01*
X19029944Y7546500D01*
X19014060Y7546500D01*
X19009612Y7545863D01*
X19009610Y7545863D01*
X19003942Y7545052D01*
X18993891Y7544022D01*
X18956419Y7541697D01*
X18956417Y7541697D01*
X18947462Y7541141D01*
X18939025Y7538095D01*
X18935325Y7537329D01*
X18920601Y7533657D01*
X18916973Y7532596D01*
X18908082Y7531323D01*
X18865718Y7512061D01*
X18856363Y7508254D01*
X18821057Y7495509D01*
X18821053Y7495507D01*
X18812613Y7492460D01*
X18805365Y7487165D01*
X18802025Y7485389D01*
X18788911Y7477726D01*
X18785739Y7475697D01*
X18777572Y7471984D01*
X18770777Y7466129D01*
X18770774Y7466127D01*
X18742325Y7441613D01*
X18734405Y7435325D01*
X18723664Y7427478D01*
X18712921Y7416735D01*
X18706075Y7410377D01*
X18668963Y7378400D01*
X18664080Y7370866D01*
X18658181Y7364104D01*
X18658176Y7364108D01*
X18649200Y7353014D01*
X17909591Y6613405D01*
X17847279Y6579379D01*
X17820496Y6576500D01*
X17262228Y6576500D01*
X17172453Y6565636D01*
X17164925Y6562656D01*
X17164923Y6562655D01*
X17101781Y6537655D01*
X17032217Y6510113D01*
X16912078Y6418922D01*
X16820887Y6298783D01*
X16765364Y6158547D01*
X16754500Y6068772D01*
X16754500Y5510504D01*
X16734498Y5442383D01*
X16717595Y5421409D01*
X16391132Y5094946D01*
X16328820Y5060920D01*
X16258005Y5065985D01*
X16201169Y5108532D01*
X16176358Y5175052D01*
X16184885Y5230424D01*
X16226655Y5335923D01*
X16226656Y5335925D01*
X16229636Y5343453D01*
X16240500Y5433228D01*
X16240500Y6043772D01*
X16229636Y6133547D01*
X16222702Y6151062D01*
X16184716Y6247003D01*
X16174113Y6273783D01*
X16082922Y6393922D01*
X15962783Y6485113D01*
X15891661Y6513272D01*
X15830077Y6537655D01*
X15830075Y6537656D01*
X15822547Y6540636D01*
X15732772Y6551500D01*
X14747228Y6551500D01*
X14657453Y6540636D01*
X14649925Y6537656D01*
X14649923Y6537655D01*
X14588339Y6513272D01*
X14517217Y6485113D01*
X14397078Y6393922D01*
X14305887Y6273783D01*
X14295284Y6247003D01*
X14257299Y6151062D01*
X14250364Y6133547D01*
X14239500Y6043772D01*
X14239500Y5498004D01*
X14219498Y5429883D01*
X14202595Y5408909D01*
X14072341Y5278655D01*
X14010029Y5244629D01*
X13983246Y5241750D01*
X13357364Y5241750D01*
X13289243Y5261752D01*
X13242750Y5315408D01*
X13232646Y5385682D01*
X13238481Y5409497D01*
X13252223Y5448631D01*
X13252224Y5448634D01*
X13254769Y5455881D01*
X13257750Y5487416D01*
X13257750Y5895084D01*
X13254769Y5926619D01*
X13209884Y6054434D01*
X13204292Y6062004D01*
X13204291Y6062007D01*
X13134992Y6155829D01*
X13129400Y6163400D01*
X13110129Y6177634D01*
X13028007Y6238291D01*
X13028004Y6238292D01*
X13020434Y6243884D01*
X12892619Y6288769D01*
X12884973Y6289492D01*
X12884972Y6289492D01*
X12879002Y6290056D01*
X12861084Y6291750D01*
X12815541Y6291750D01*
X12747420Y6311752D01*
X12700927Y6365408D01*
X12689783Y6409949D01*
X12689651Y6412087D01*
X12687141Y6452538D01*
X12684093Y6460982D01*
X12683324Y6464694D01*
X12679657Y6479399D01*
X12678596Y6483027D01*
X12677323Y6491918D01*
X12658061Y6534282D01*
X12654254Y6543637D01*
X12641509Y6578943D01*
X12641507Y6578947D01*
X12638460Y6587387D01*
X12633165Y6594635D01*
X12631389Y6597975D01*
X12623726Y6611089D01*
X12621697Y6614261D01*
X12617984Y6622428D01*
X12612129Y6629223D01*
X12612127Y6629226D01*
X12587613Y6657675D01*
X12581324Y6665596D01*
X12576352Y6672402D01*
X12573478Y6676336D01*
X12562735Y6687079D01*
X12556377Y6693926D01*
X12553164Y6697655D01*
X12524400Y6731037D01*
X12516866Y6735920D01*
X12510104Y6741819D01*
X12510108Y6741824D01*
X12499014Y6750800D01*
X11602655Y7647159D01*
X11568629Y7709471D01*
X11565750Y7736254D01*
X11565750Y8282022D01*
X11554886Y8371797D01*
X11550847Y8382000D01*
X11502525Y8504046D01*
X11499363Y8512033D01*
X11408172Y8632172D01*
X11288033Y8723363D01*
X11192346Y8761248D01*
X11155327Y8775905D01*
X11155325Y8775906D01*
X11147797Y8778886D01*
X11058022Y8789750D01*
X10447478Y8789750D01*
X10357703Y8778886D01*
X10350175Y8775906D01*
X10350173Y8775905D01*
X10313154Y8761248D01*
X10217467Y8723363D01*
X10097328Y8632172D01*
X10006137Y8512033D01*
X9950614Y8371797D01*
X9947938Y8372856D01*
X9918818Y8323638D01*
X9855371Y8291780D01*
X9832845Y8289750D01*
X8113430Y8289750D01*
X8101545Y8291078D01*
X8101504Y8290568D01*
X8092558Y8291288D01*
X8083802Y8293269D01*
X8048489Y8291078D01*
X8030985Y8289992D01*
X8023182Y8289750D01*
X8007310Y8289750D01*
X7997198Y8288302D01*
X7987144Y8287272D01*
X7959153Y8285535D01*
X7940712Y8284391D01*
X7932268Y8281343D01*
X7928556Y8280574D01*
X7913851Y8276907D01*
X7910223Y8275846D01*
X7901332Y8274573D01*
X7858968Y8255311D01*
X7849613Y8251504D01*
X7814307Y8238759D01*
X7814303Y8238757D01*
X7805863Y8235710D01*
X7798615Y8230415D01*
X7795275Y8228639D01*
X7782161Y8220976D01*
X7778989Y8218947D01*
X7770822Y8215234D01*
X7764027Y8209379D01*
X7764024Y8209377D01*
X7735575Y8184863D01*
X7727655Y8178575D01*
X7716914Y8170728D01*
X7706171Y8159985D01*
X7699325Y8153627D01*
X7662213Y8121650D01*
X7657330Y8114116D01*
X7651431Y8107354D01*
X7651426Y8107358D01*
X7642450Y8096264D01*
X7508091Y7961905D01*
X7445779Y7927879D01*
X7418996Y7925000D01*
X6873228Y7925000D01*
X6783453Y7914136D01*
X6775925Y7911156D01*
X6775923Y7911155D01*
X6737540Y7895958D01*
X6643217Y7858613D01*
X6523078Y7767422D01*
X6431887Y7647283D01*
X6406700Y7583668D01*
X6384505Y7527608D01*
X6376364Y7507047D01*
X6365500Y7417272D01*
X6365500Y6826480D01*
X6345498Y6758359D01*
X6291842Y6711866D01*
X6239500Y6700480D01*
X5667834Y6700480D01*
X5599713Y6720482D01*
X5553220Y6774138D01*
X5545710Y6795468D01*
X5543859Y6802758D01*
X5542886Y6810797D01*
X5487363Y6951033D01*
X5396172Y7071172D01*
X5276033Y7162363D01*
X5198849Y7192922D01*
X5143327Y7214905D01*
X5143325Y7214906D01*
X5135797Y7217886D01*
X5046022Y7228750D01*
X4060478Y7228750D01*
X3970703Y7217886D01*
X3963175Y7214906D01*
X3963173Y7214905D01*
X3907651Y7192922D01*
X3830467Y7162363D01*
X3710328Y7071172D01*
X3685529Y7038500D01*
X3630551Y6966070D01*
X3573433Y6923903D01*
X3530188Y6916250D01*
X3290312Y6916250D01*
X3222191Y6936252D01*
X3189949Y6966070D01*
X3134972Y7038500D01*
X3110172Y7071172D01*
X2990033Y7162363D01*
X2912849Y7192922D01*
X2857327Y7214905D01*
X2857325Y7214906D01*
X2849797Y7217886D01*
X2760022Y7228750D01*
X2609534Y7228750D01*
X2541413Y7248752D01*
X2494920Y7302408D01*
X2483541Y7356070D01*
X2483602Y7361864D01*
X2483602Y7361870D01*
X2483645Y7366000D01*
X2482145Y7378400D01*
X2476141Y7428010D01*
X2463276Y7534320D01*
X2403345Y7692923D01*
X2387225Y7716377D01*
X2311614Y7826392D01*
X2311613Y7826393D01*
X2307312Y7832651D01*
X2292280Y7846044D01*
X2186392Y7940388D01*
X2186388Y7940390D01*
X2180721Y7945440D01*
X2170772Y7950708D01*
X2082897Y7997235D01*
X2030881Y8024776D01*
X1866441Y8066081D01*
X1858843Y8066121D01*
X1858841Y8066121D01*
X1781668Y8066525D01*
X1696895Y8066969D01*
X1689508Y8065195D01*
X1689504Y8065195D01*
X1567432Y8035887D01*
X1532032Y8027388D01*
X1525288Y8023907D01*
X1525285Y8023906D01*
X1388861Y7953492D01*
X1381369Y7949625D01*
X1375647Y7944633D01*
X1375645Y7944632D01*
X1352618Y7924544D01*
X1253604Y7838169D01*
X1227720Y7801340D01*
X1163154Y7709471D01*
X1156113Y7699453D01*
X1094524Y7541487D01*
X1093532Y7533954D01*
X1093532Y7533953D01*
X1077754Y7414102D01*
X1072394Y7373389D01*
X500500Y7373389D01*
X500500Y14373500D01*
X520502Y14441621D01*
X574158Y14488114D01*
X626500Y14499500D01*
X59373500Y14499500D01*
X59441621Y14479498D01*
G37*
%TD.AperFunction*%
%TA.AperFunction,Conductor*%
G36*
X45263621Y12521498D02*
G01*
X45310114Y12467842D01*
X45321500Y12415500D01*
X45321500Y11822354D01*
X45324618Y11796154D01*
X45328455Y11787516D01*
X45337082Y11768094D01*
X45346454Y11697719D01*
X45337170Y11666000D01*
X45324494Y11637327D01*
X45321500Y11611646D01*
X45321500Y10872354D01*
X45324618Y10846154D01*
X45328456Y10837514D01*
X45328456Y10837513D01*
X45353779Y10780502D01*
X45370061Y10743847D01*
X45375763Y10738155D01*
X45397137Y10672895D01*
X45379250Y10604188D01*
X45327057Y10556059D01*
X45271197Y10543000D01*
X44878106Y10543000D01*
X44809985Y10563002D01*
X44760954Y10622617D01*
X44742274Y10669797D01*
X44742273Y10669799D01*
X44739112Y10677783D01*
X44647922Y10797922D01*
X44527783Y10889112D01*
X44387547Y10944636D01*
X44379509Y10945609D01*
X44379508Y10945609D01*
X44347937Y10949429D01*
X44297771Y10955500D01*
X43180738Y10955500D01*
X42062230Y10955499D01*
X42058472Y10955044D01*
X42058467Y10955044D01*
X41980483Y10945608D01*
X41980480Y10945607D01*
X41972453Y10944636D01*
X41832217Y10889112D01*
X41712078Y10797922D01*
X41620888Y10677783D01*
X41565364Y10537547D01*
X41554500Y10447771D01*
X41554501Y9437230D01*
X41554956Y9433472D01*
X41554956Y9433467D01*
X41561230Y9381621D01*
X41565364Y9347453D01*
X41620888Y9207217D01*
X41634564Y9189200D01*
X41712078Y9087078D01*
X41709868Y9085400D01*
X41737235Y9035283D01*
X41732170Y8964468D01*
X41689623Y8907632D01*
X41623103Y8882821D01*
X41614114Y8882500D01*
X40391504Y8882500D01*
X40323383Y8902502D01*
X40302409Y8919405D01*
X39461405Y9760409D01*
X39427379Y9822721D01*
X39424500Y9849504D01*
X39424500Y11311329D01*
X39444502Y11379450D01*
X39461327Y11400347D01*
X39468023Y11407055D01*
X39476241Y11415287D01*
X39486062Y11437500D01*
X39508737Y11488790D01*
X39554576Y11543006D01*
X39622449Y11563833D01*
X39690807Y11544658D01*
X39739128Y11488990D01*
X39767337Y11425481D01*
X39767339Y11425479D01*
X39772061Y11414847D01*
X39851287Y11335759D01*
X39861924Y11331056D01*
X39861926Y11331055D01*
X39906546Y11311329D01*
X39953673Y11290494D01*
X39979354Y11287500D01*
X40668646Y11287500D01*
X40672350Y11287941D01*
X40672353Y11287941D01*
X40679746Y11288821D01*
X40694846Y11290618D01*
X40775968Y11326651D01*
X40827116Y11337500D01*
X41608381Y11337500D01*
X41624827Y11336422D01*
X41656000Y11332318D01*
X41664188Y11333396D01*
X41695361Y11337500D01*
X41748821Y11344538D01*
X41804574Y11351878D01*
X41812762Y11352956D01*
X41958841Y11413464D01*
X41980391Y11430000D01*
X42084282Y11509718D01*
X42090963Y11518424D01*
X42103429Y11534671D01*
X42114297Y11547062D01*
X42434830Y11867595D01*
X42497142Y11901621D01*
X42523925Y11904500D01*
X44174021Y11904501D01*
X44297770Y11904501D01*
X44301528Y11904956D01*
X44301533Y11904956D01*
X44379517Y11914392D01*
X44379520Y11914393D01*
X44387547Y11915364D01*
X44527783Y11970888D01*
X44647922Y12062078D01*
X44739112Y12182217D01*
X44794636Y12322453D01*
X44795870Y12332646D01*
X44801284Y12377389D01*
X44805500Y12412229D01*
X44805500Y12416020D01*
X44805729Y12419815D01*
X44806749Y12419753D01*
X44825502Y12483621D01*
X44879158Y12530114D01*
X44931500Y12541500D01*
X45195500Y12541500D01*
X45263621Y12521498D01*
G37*
%TD.AperFunction*%
%TD*%
M02*
