%TF.GenerationSoftware,KiCad,Pcbnew,6.0.4-6f826c9f35~116~ubuntu20.04.1*%
%TF.CreationDate,2022-05-16T15:23:52+00:00*%
%TF.ProjectId,USTSIPM01A,55535453-4950-44d3-9031-412e6b696361,rev?*%
%TF.SameCoordinates,Original*%
%TF.FileFunction,Paste,Bot*%
%TF.FilePolarity,Positive*%
%FSLAX46Y46*%
G04 Gerber Fmt 4.6, Leading zero omitted, Abs format (unit mm)*
G04 Created by KiCad (PCBNEW 6.0.4-6f826c9f35~116~ubuntu20.04.1) date 2022-05-16 15:23:52*
%MOMM*%
%LPD*%
G01*
G04 APERTURE LIST*
G04 Aperture macros list*
%AMRoundRect*
0 Rectangle with rounded corners*
0 $1 Rounding radius*
0 $2 $3 $4 $5 $6 $7 $8 $9 X,Y pos of 4 corners*
0 Add a 4 corners polygon primitive as box body*
4,1,4,$2,$3,$4,$5,$6,$7,$8,$9,$2,$3,0*
0 Add four circle primitives for the rounded corners*
1,1,$1+$1,$2,$3*
1,1,$1+$1,$4,$5*
1,1,$1+$1,$6,$7*
1,1,$1+$1,$8,$9*
0 Add four rect primitives between the rounded corners*
20,1,$1+$1,$2,$3,$4,$5,0*
20,1,$1+$1,$4,$5,$6,$7,0*
20,1,$1+$1,$6,$7,$8,$9,0*
20,1,$1+$1,$8,$9,$2,$3,0*%
G04 Aperture macros list end*
%ADD10RoundRect,0.250000X-0.262500X-0.450000X0.262500X-0.450000X0.262500X0.450000X-0.262500X0.450000X0*%
%ADD11RoundRect,0.250000X0.475000X-0.250000X0.475000X0.250000X-0.475000X0.250000X-0.475000X-0.250000X0*%
%ADD12RoundRect,0.250001X1.074999X-0.462499X1.074999X0.462499X-1.074999X0.462499X-1.074999X-0.462499X0*%
%ADD13R,0.600000X0.700000*%
%ADD14RoundRect,0.250000X0.262500X0.450000X-0.262500X0.450000X-0.262500X-0.450000X0.262500X-0.450000X0*%
%ADD15RoundRect,0.150000X-0.512500X-0.150000X0.512500X-0.150000X0.512500X0.150000X-0.512500X0.150000X0*%
%ADD16RoundRect,0.250000X0.450000X-0.262500X0.450000X0.262500X-0.450000X0.262500X-0.450000X-0.262500X0*%
%ADD17RoundRect,0.250000X-0.450000X0.262500X-0.450000X-0.262500X0.450000X-0.262500X0.450000X0.262500X0*%
%ADD18R,0.700000X0.600000*%
%ADD19R,1.560000X0.650000*%
%ADD20RoundRect,0.250000X-0.250000X-0.475000X0.250000X-0.475000X0.250000X0.475000X-0.250000X0.475000X0*%
G04 APERTURE END LIST*
D10*
%TO.C,R13*%
X30329500Y11176000D03*
X32154500Y11176000D03*
%TD*%
D11*
%TO.C,C12*%
X28194000Y11242000D03*
X28194000Y13142000D03*
%TD*%
%TO.C,C9*%
X3048000Y11242000D03*
X3048000Y13142000D03*
%TD*%
%TO.C,C13*%
X25400000Y11242000D03*
X25400000Y13142000D03*
%TD*%
%TO.C,C14*%
X30934000Y3556000D03*
X30934000Y5456000D03*
%TD*%
D12*
%TO.C,L1*%
X45720000Y9942500D03*
X45720000Y12917500D03*
%TD*%
D13*
%TO.C,D2*%
X41718000Y12954000D03*
X43118000Y12954000D03*
%TD*%
D10*
%TO.C,R1*%
X21185500Y11430000D03*
X23010500Y11430000D03*
%TD*%
D11*
%TO.C,C3*%
X28434000Y3556000D03*
X28434000Y5456000D03*
%TD*%
D14*
%TO.C,R12*%
X17272000Y5588000D03*
X15447000Y5588000D03*
%TD*%
D11*
%TO.C,C15*%
X33434000Y4506000D03*
X33434000Y6406000D03*
%TD*%
%TO.C,C1*%
X19050000Y11242000D03*
X19050000Y13142000D03*
%TD*%
D15*
%TO.C,U2*%
X8260500Y3622000D03*
X8260500Y4572000D03*
X8260500Y5522000D03*
X10535500Y5522000D03*
X10535500Y4572000D03*
X10535500Y3622000D03*
%TD*%
D16*
%TO.C,R11*%
X12700000Y1881500D03*
X12700000Y3706500D03*
%TD*%
%TO.C,R6*%
X54356000Y5945500D03*
X54356000Y7770500D03*
%TD*%
D10*
%TO.C,R2*%
X14581500Y11430000D03*
X16406500Y11430000D03*
%TD*%
D17*
%TO.C,R8*%
X5334000Y3452500D03*
X5334000Y1627500D03*
%TD*%
D11*
%TO.C,C11*%
X34544000Y11242000D03*
X34544000Y13142000D03*
%TD*%
%TO.C,C8*%
X43434000Y3556000D03*
X43434000Y5456000D03*
%TD*%
D10*
%TO.C,R4*%
X8128000Y11430000D03*
X9953000Y11430000D03*
%TD*%
D11*
%TO.C,C4*%
X35934000Y2606000D03*
X35934000Y4506000D03*
%TD*%
D16*
%TO.C,R5*%
X2794000Y1627500D03*
X2794000Y3452500D03*
%TD*%
%TO.C,R7*%
X54356000Y9501500D03*
X54356000Y11326500D03*
%TD*%
D14*
%TO.C,R9*%
X10310500Y7620000D03*
X8485500Y7620000D03*
%TD*%
D18*
%TO.C,D1*%
X25934000Y3806000D03*
X25934000Y5206000D03*
%TD*%
D11*
%TO.C,C6*%
X5588000Y11242000D03*
X5588000Y13142000D03*
%TD*%
D19*
%TO.C,U3*%
X51642000Y11364000D03*
X51642000Y10414000D03*
X51642000Y9464000D03*
X48942000Y9464000D03*
X48942000Y10414000D03*
X48942000Y11364000D03*
%TD*%
D11*
%TO.C,C5*%
X12446000Y11242000D03*
X12446000Y13142000D03*
%TD*%
D14*
%TO.C,R3*%
X39346500Y2006000D03*
X37521500Y2006000D03*
%TD*%
D11*
%TO.C,C10*%
X37338000Y10988000D03*
X37338000Y12888000D03*
%TD*%
D20*
%TO.C,C2*%
X49088000Y7112000D03*
X50988000Y7112000D03*
%TD*%
D11*
%TO.C,C7*%
X40784000Y3556000D03*
X40784000Y5456000D03*
%TD*%
D16*
%TO.C,R10*%
X12954000Y5842000D03*
X12954000Y7667000D03*
%TD*%
M02*
