%TF.GenerationSoftware,KiCad,Pcbnew,6.0.4-6f826c9f35~116~ubuntu20.04.1*%
%TF.CreationDate,2022-05-16T15:23:52+00:00*%
%TF.ProjectId,USTSIPM01A,55535453-4950-44d3-9031-412e6b696361,rev?*%
%TF.SameCoordinates,Original*%
%TF.FileFunction,Copper,L2,Bot*%
%TF.FilePolarity,Positive*%
%FSLAX46Y46*%
G04 Gerber Fmt 4.6, Leading zero omitted, Abs format (unit mm)*
G04 Created by KiCad (PCBNEW 6.0.4-6f826c9f35~116~ubuntu20.04.1) date 2022-05-16 15:23:52*
%MOMM*%
%LPD*%
G01*
G04 APERTURE LIST*
G04 Aperture macros list*
%AMRoundRect*
0 Rectangle with rounded corners*
0 $1 Rounding radius*
0 $2 $3 $4 $5 $6 $7 $8 $9 X,Y pos of 4 corners*
0 Add a 4 corners polygon primitive as box body*
4,1,4,$2,$3,$4,$5,$6,$7,$8,$9,$2,$3,0*
0 Add four circle primitives for the rounded corners*
1,1,$1+$1,$2,$3*
1,1,$1+$1,$4,$5*
1,1,$1+$1,$6,$7*
1,1,$1+$1,$8,$9*
0 Add four rect primitives between the rounded corners*
20,1,$1+$1,$2,$3,$4,$5,0*
20,1,$1+$1,$4,$5,$6,$7,0*
20,1,$1+$1,$6,$7,$8,$9,0*
20,1,$1+$1,$8,$9,$2,$3,0*%
G04 Aperture macros list end*
%TA.AperFunction,ComponentPad*%
%ADD10C,6.000000*%
%TD*%
%TA.AperFunction,ComponentPad*%
%ADD11R,1.524000X1.524000*%
%TD*%
%TA.AperFunction,SMDPad,CuDef*%
%ADD12RoundRect,0.250000X-0.262500X-0.450000X0.262500X-0.450000X0.262500X0.450000X-0.262500X0.450000X0*%
%TD*%
%TA.AperFunction,SMDPad,CuDef*%
%ADD13RoundRect,0.250000X0.475000X-0.250000X0.475000X0.250000X-0.475000X0.250000X-0.475000X-0.250000X0*%
%TD*%
%TA.AperFunction,SMDPad,CuDef*%
%ADD14RoundRect,0.250001X1.074999X-0.462499X1.074999X0.462499X-1.074999X0.462499X-1.074999X-0.462499X0*%
%TD*%
%TA.AperFunction,SMDPad,CuDef*%
%ADD15R,0.600000X0.700000*%
%TD*%
%TA.AperFunction,SMDPad,CuDef*%
%ADD16RoundRect,0.250000X0.262500X0.450000X-0.262500X0.450000X-0.262500X-0.450000X0.262500X-0.450000X0*%
%TD*%
%TA.AperFunction,SMDPad,CuDef*%
%ADD17RoundRect,0.150000X-0.512500X-0.150000X0.512500X-0.150000X0.512500X0.150000X-0.512500X0.150000X0*%
%TD*%
%TA.AperFunction,SMDPad,CuDef*%
%ADD18RoundRect,0.250000X0.450000X-0.262500X0.450000X0.262500X-0.450000X0.262500X-0.450000X-0.262500X0*%
%TD*%
%TA.AperFunction,SMDPad,CuDef*%
%ADD19RoundRect,0.250000X-0.450000X0.262500X-0.450000X-0.262500X0.450000X-0.262500X0.450000X0.262500X0*%
%TD*%
%TA.AperFunction,SMDPad,CuDef*%
%ADD20R,0.700000X0.600000*%
%TD*%
%TA.AperFunction,SMDPad,CuDef*%
%ADD21R,1.560000X0.650000*%
%TD*%
%TA.AperFunction,SMDPad,CuDef*%
%ADD22RoundRect,0.250000X-0.250000X-0.475000X0.250000X-0.475000X0.250000X0.475000X-0.250000X0.475000X0*%
%TD*%
G04 APERTURE END LIST*
D10*
%TO.P,M3,1*%
%TO.N,GND*%
X40000000Y65000000D03*
%TD*%
D11*
%TO.P,J4,1*%
%TO.N,GND*%
X57404000Y10160000D03*
%TO.P,J4,2*%
X59944000Y10160000D03*
%TD*%
D10*
%TO.P,M4,1*%
%TO.N,GND*%
X-2500000Y55000000D03*
%TD*%
D11*
%TO.P,J6,1*%
%TO.N,GND*%
X57404000Y12700000D03*
%TO.P,J6,2*%
X59944000Y12700000D03*
%TD*%
%TO.P,J5,1*%
%TO.N,/+3V6*%
X57404000Y7620000D03*
%TO.P,J5,2*%
X59944000Y7620000D03*
%TD*%
%TO.P,J8,1*%
%TO.N,/OUT*%
X57404000Y5080000D03*
%TO.P,J8,2*%
X59944000Y5080000D03*
%TD*%
D10*
%TO.P,M1,1*%
%TO.N,GND*%
X62500000Y60000000D03*
%TD*%
D11*
%TO.P,J9,1*%
%TO.N,GND*%
X57404000Y2540000D03*
%TO.P,J9,2*%
X59944000Y2540000D03*
%TD*%
D10*
%TO.P,M2,1*%
%TO.N,GND*%
X60000000Y67500000D03*
%TD*%
D12*
%TO.P,R13,1*%
%TO.N,31V7*%
X30329500Y11176000D03*
%TO.P,R13,2*%
%TO.N,Net-(C10-Pad1)*%
X32154500Y11176000D03*
%TD*%
D13*
%TO.P,C12,1*%
%TO.N,31V7*%
X28194000Y11242000D03*
%TO.P,C12,2*%
%TO.N,GND*%
X28194000Y13142000D03*
%TD*%
%TO.P,C9,1*%
%TO.N,Net-(C6-Pad1)*%
X3048000Y11242000D03*
%TO.P,C9,2*%
%TO.N,GND*%
X3048000Y13142000D03*
%TD*%
%TO.P,C13,1*%
%TO.N,31V7*%
X25400000Y11242000D03*
%TO.P,C13,2*%
%TO.N,GND*%
X25400000Y13142000D03*
%TD*%
%TO.P,C14,1*%
%TO.N,/+3V6*%
X30934000Y3556000D03*
%TO.P,C14,2*%
%TO.N,GND*%
X30934000Y5456000D03*
%TD*%
D14*
%TO.P,L1,1*%
%TO.N,/+3V6*%
X45720000Y9942500D03*
%TO.P,L1,2*%
%TO.N,Net-(D2-Pad2)*%
X45720000Y12917500D03*
%TD*%
D15*
%TO.P,D2,1,K*%
%TO.N,Net-(C10-Pad1)*%
X41718000Y12954000D03*
%TO.P,D2,2,A*%
%TO.N,Net-(D2-Pad2)*%
X43118000Y12954000D03*
%TD*%
D12*
%TO.P,R1,1*%
%TO.N,Net-(C1-Pad1)*%
X21185500Y11430000D03*
%TO.P,R1,2*%
%TO.N,31V7*%
X23010500Y11430000D03*
%TD*%
D13*
%TO.P,C3,1*%
%TO.N,/+3V6*%
X28434000Y3556000D03*
%TO.P,C3,2*%
%TO.N,GND*%
X28434000Y5456000D03*
%TD*%
D16*
%TO.P,R12,1*%
%TO.N,/OUT*%
X17272000Y5588000D03*
%TO.P,R12,2*%
%TO.N,Net-(R10-Pad1)*%
X15447000Y5588000D03*
%TD*%
D13*
%TO.P,C15,1*%
%TO.N,/+3V6*%
X33434000Y4506000D03*
%TO.P,C15,2*%
%TO.N,GND*%
X33434000Y6406000D03*
%TD*%
%TO.P,C1,1*%
%TO.N,Net-(C1-Pad1)*%
X19050000Y11242000D03*
%TO.P,C1,2*%
%TO.N,GND*%
X19050000Y13142000D03*
%TD*%
D17*
%TO.P,U2,1*%
%TO.N,Net-(R10-Pad1)*%
X8260500Y3622000D03*
%TO.P,U2,2,V-*%
%TO.N,GND*%
X8260500Y4572000D03*
%TO.P,U2,3,+*%
%TO.N,Net-(R5-Pad2)*%
X8260500Y5522000D03*
%TO.P,U2,4,-*%
%TO.N,Net-(R10-Pad2)*%
X10535500Y5522000D03*
%TO.P,U2,5,~{DIS}*%
%TO.N,Net-(R11-Pad2)*%
X10535500Y4572000D03*
%TO.P,U2,6,V+*%
%TO.N,+3V3*%
X10535500Y3622000D03*
%TD*%
D18*
%TO.P,R11,1*%
%TO.N,+3V3*%
X12700000Y1881500D03*
%TO.P,R11,2*%
%TO.N,Net-(R11-Pad2)*%
X12700000Y3706500D03*
%TD*%
%TO.P,R6,1*%
%TO.N,Net-(C10-Pad1)*%
X54356000Y5945500D03*
%TO.P,R6,2*%
%TO.N,/FB*%
X54356000Y7770500D03*
%TD*%
D12*
%TO.P,R2,1*%
%TO.N,Net-(C5-Pad1)*%
X14581500Y11430000D03*
%TO.P,R2,2*%
%TO.N,Net-(C1-Pad1)*%
X16406500Y11430000D03*
%TD*%
D19*
%TO.P,R8,1*%
%TO.N,Net-(R5-Pad2)*%
X5334000Y3452500D03*
%TO.P,R8,2*%
%TO.N,GND*%
X5334000Y1627500D03*
%TD*%
D13*
%TO.P,C11,1*%
%TO.N,Net-(C10-Pad1)*%
X34544000Y11242000D03*
%TO.P,C11,2*%
%TO.N,GND*%
X34544000Y13142000D03*
%TD*%
%TO.P,C8,1*%
%TO.N,+3V3*%
X43434000Y3556000D03*
%TO.P,C8,2*%
%TO.N,GND*%
X43434000Y5456000D03*
%TD*%
D12*
%TO.P,R4,1*%
%TO.N,Net-(C6-Pad1)*%
X8128000Y11430000D03*
%TO.P,R4,2*%
%TO.N,Net-(C5-Pad1)*%
X9953000Y11430000D03*
%TD*%
D13*
%TO.P,C4,1*%
%TO.N,/+3V6*%
X35934000Y2606000D03*
%TO.P,C4,2*%
%TO.N,GND*%
X35934000Y4506000D03*
%TD*%
D18*
%TO.P,R5,1*%
%TO.N,GND*%
X2794000Y1627500D03*
%TO.P,R5,2*%
%TO.N,Net-(R5-Pad2)*%
X2794000Y3452500D03*
%TD*%
%TO.P,R7,1*%
%TO.N,/FB*%
X54356000Y9501500D03*
%TO.P,R7,2*%
%TO.N,GND*%
X54356000Y11326500D03*
%TD*%
D16*
%TO.P,R9,1*%
%TO.N,Net-(R10-Pad2)*%
X10310500Y7620000D03*
%TO.P,R9,2*%
%TO.N,GND*%
X8485500Y7620000D03*
%TD*%
D20*
%TO.P,D1,1,K*%
%TO.N,/+3V6*%
X25934000Y3806000D03*
%TO.P,D1,2,A*%
%TO.N,GND*%
X25934000Y5206000D03*
%TD*%
D13*
%TO.P,C6,1*%
%TO.N,Net-(C6-Pad1)*%
X5588000Y11242000D03*
%TO.P,C6,2*%
%TO.N,GND*%
X5588000Y13142000D03*
%TD*%
D21*
%TO.P,U3,1,PGND*%
%TO.N,GND*%
X51642000Y11364000D03*
%TO.P,U3,2,GND*%
X51642000Y10414000D03*
%TO.P,U3,3,FB*%
%TO.N,/FB*%
X51642000Y9464000D03*
%TO.P,U3,4,SHDN*%
%TO.N,/+3V6*%
X48942000Y9464000D03*
%TO.P,U3,5,VCC*%
X48942000Y10414000D03*
%TO.P,U3,6,LX*%
%TO.N,Net-(D2-Pad2)*%
X48942000Y11364000D03*
%TD*%
D13*
%TO.P,C5,1*%
%TO.N,Net-(C5-Pad1)*%
X12446000Y11242000D03*
%TO.P,C5,2*%
%TO.N,GND*%
X12446000Y13142000D03*
%TD*%
D16*
%TO.P,R3,1*%
%TO.N,+3V3*%
X39346500Y2006000D03*
%TO.P,R3,2*%
%TO.N,/+3V6*%
X37521500Y2006000D03*
%TD*%
D13*
%TO.P,C10,1*%
%TO.N,Net-(C10-Pad1)*%
X37338000Y10988000D03*
%TO.P,C10,2*%
%TO.N,GND*%
X37338000Y12888000D03*
%TD*%
D22*
%TO.P,C2,1*%
%TO.N,/+3V6*%
X49088000Y7112000D03*
%TO.P,C2,2*%
%TO.N,GND*%
X50988000Y7112000D03*
%TD*%
D13*
%TO.P,C7,1*%
%TO.N,+3V3*%
X40784000Y3556000D03*
%TO.P,C7,2*%
%TO.N,GND*%
X40784000Y5456000D03*
%TD*%
D18*
%TO.P,R10,1*%
%TO.N,Net-(R10-Pad1)*%
X12954000Y5842000D03*
%TO.P,R10,2*%
%TO.N,Net-(R10-Pad2)*%
X12954000Y7667000D03*
%TD*%
M02*
