%TF.GenerationSoftware,KiCad,Pcbnew,6.0.4-6f826c9f35~116~ubuntu20.04.1*%
%TF.CreationDate,2022-05-24T18:19:01+00:00*%
%TF.ProjectId,USTSIPM01A,55535453-4950-44d3-9031-412e6b696361,rev?*%
%TF.SameCoordinates,Original*%
%TF.FileFunction,Legend,Bot*%
%TF.FilePolarity,Positive*%
%FSLAX46Y46*%
G04 Gerber Fmt 4.6, Leading zero omitted, Abs format (unit mm)*
G04 Created by KiCad (PCBNEW 6.0.4-6f826c9f35~116~ubuntu20.04.1) date 2022-05-24 18:19:01*
%MOMM*%
%LPD*%
G01*
G04 APERTURE LIST*
%ADD10C,0.150000*%
%ADD11C,0.120000*%
G04 APERTURE END LIST*
D10*
%TO.C,R13*%
X32138857Y9199619D02*
X32472190Y9675809D01*
X32710285Y9199619D02*
X32710285Y10199619D01*
X32329333Y10199619D01*
X32234095Y10152000D01*
X32186476Y10104380D01*
X32138857Y10009142D01*
X32138857Y9866285D01*
X32186476Y9771047D01*
X32234095Y9723428D01*
X32329333Y9675809D01*
X32710285Y9675809D01*
X31186476Y9199619D02*
X31757904Y9199619D01*
X31472190Y9199619D02*
X31472190Y10199619D01*
X31567428Y10056761D01*
X31662666Y9961523D01*
X31757904Y9913904D01*
X30853142Y10199619D02*
X30234095Y10199619D01*
X30567428Y9818666D01*
X30424571Y9818666D01*
X30329333Y9771047D01*
X30281714Y9723428D01*
X30234095Y9628190D01*
X30234095Y9390095D01*
X30281714Y9294857D01*
X30329333Y9247238D01*
X30424571Y9199619D01*
X30710285Y9199619D01*
X30805523Y9247238D01*
X30853142Y9294857D01*
%TO.C,C12*%
X28836857Y9294857D02*
X28884476Y9247238D01*
X29027333Y9199619D01*
X29122571Y9199619D01*
X29265428Y9247238D01*
X29360666Y9342476D01*
X29408285Y9437714D01*
X29455904Y9628190D01*
X29455904Y9771047D01*
X29408285Y9961523D01*
X29360666Y10056761D01*
X29265428Y10152000D01*
X29122571Y10199619D01*
X29027333Y10199619D01*
X28884476Y10152000D01*
X28836857Y10104380D01*
X27884476Y9199619D02*
X28455904Y9199619D01*
X28170190Y9199619D02*
X28170190Y10199619D01*
X28265428Y10056761D01*
X28360666Y9961523D01*
X28455904Y9913904D01*
X27503523Y10104380D02*
X27455904Y10152000D01*
X27360666Y10199619D01*
X27122571Y10199619D01*
X27027333Y10152000D01*
X26979714Y10104380D01*
X26932095Y10009142D01*
X26932095Y9913904D01*
X26979714Y9771047D01*
X27551142Y9199619D01*
X26932095Y9199619D01*
%TO.C,C9*%
X3405142Y9564666D02*
X3452761Y9612285D01*
X3500380Y9755142D01*
X3500380Y9850380D01*
X3452761Y9993238D01*
X3357523Y10088476D01*
X3262285Y10136095D01*
X3071809Y10183714D01*
X2928952Y10183714D01*
X2738476Y10136095D01*
X2643238Y10088476D01*
X2548000Y9993238D01*
X2500380Y9850380D01*
X2500380Y9755142D01*
X2548000Y9612285D01*
X2595619Y9564666D01*
X3500380Y9088476D02*
X3500380Y8898000D01*
X3452761Y8802761D01*
X3405142Y8755142D01*
X3262285Y8659904D01*
X3071809Y8612285D01*
X2690857Y8612285D01*
X2595619Y8659904D01*
X2548000Y8707523D01*
X2500380Y8802761D01*
X2500380Y8993238D01*
X2548000Y9088476D01*
X2595619Y9136095D01*
X2690857Y9183714D01*
X2928952Y9183714D01*
X3024190Y9136095D01*
X3071809Y9088476D01*
X3119428Y8993238D01*
X3119428Y8802761D01*
X3071809Y8707523D01*
X3024190Y8659904D01*
X2928952Y8612285D01*
%TO.C,C13*%
X25788857Y9294857D02*
X25836476Y9247238D01*
X25979333Y9199619D01*
X26074571Y9199619D01*
X26217428Y9247238D01*
X26312666Y9342476D01*
X26360285Y9437714D01*
X26407904Y9628190D01*
X26407904Y9771047D01*
X26360285Y9961523D01*
X26312666Y10056761D01*
X26217428Y10152000D01*
X26074571Y10199619D01*
X25979333Y10199619D01*
X25836476Y10152000D01*
X25788857Y10104380D01*
X24836476Y9199619D02*
X25407904Y9199619D01*
X25122190Y9199619D02*
X25122190Y10199619D01*
X25217428Y10056761D01*
X25312666Y9961523D01*
X25407904Y9913904D01*
X24503142Y10199619D02*
X23884095Y10199619D01*
X24217428Y9818666D01*
X24074571Y9818666D01*
X23979333Y9771047D01*
X23931714Y9723428D01*
X23884095Y9628190D01*
X23884095Y9390095D01*
X23931714Y9294857D01*
X23979333Y9247238D01*
X24074571Y9199619D01*
X24360285Y9199619D01*
X24455523Y9247238D01*
X24503142Y9294857D01*
%TO.C,L1*%
X45912380Y11596666D02*
X45912380Y12072857D01*
X44912380Y12072857D01*
X45912380Y10739523D02*
X45912380Y11310952D01*
X45912380Y11025238D02*
X44912380Y11025238D01*
X45055238Y11120476D01*
X45150476Y11215714D01*
X45198095Y11310952D01*
%TO.C,D2*%
X40362095Y9961619D02*
X40362095Y10961619D01*
X40124000Y10961619D01*
X39981142Y10914000D01*
X39885904Y10818761D01*
X39838285Y10723523D01*
X39790666Y10533047D01*
X39790666Y10390190D01*
X39838285Y10199714D01*
X39885904Y10104476D01*
X39981142Y10009238D01*
X40124000Y9961619D01*
X40362095Y9961619D01*
X39409714Y10866380D02*
X39362095Y10914000D01*
X39266857Y10961619D01*
X39028761Y10961619D01*
X38933523Y10914000D01*
X38885904Y10866380D01*
X38838285Y10771142D01*
X38838285Y10675904D01*
X38885904Y10533047D01*
X39457333Y9961619D01*
X38838285Y9961619D01*
%TO.C,R1*%
X22010666Y9327619D02*
X22344000Y9803809D01*
X22582095Y9327619D02*
X22582095Y10327619D01*
X22201142Y10327619D01*
X22105904Y10280000D01*
X22058285Y10232380D01*
X22010666Y10137142D01*
X22010666Y9994285D01*
X22058285Y9899047D01*
X22105904Y9851428D01*
X22201142Y9803809D01*
X22582095Y9803809D01*
X21058285Y9327619D02*
X21629714Y9327619D01*
X21344000Y9327619D02*
X21344000Y10327619D01*
X21439238Y10184761D01*
X21534476Y10089523D01*
X21629714Y10041904D01*
%TO.C,R12*%
X9088380Y3182857D02*
X8612190Y3516190D01*
X9088380Y3754285D02*
X8088380Y3754285D01*
X8088380Y3373333D01*
X8136000Y3278095D01*
X8183619Y3230476D01*
X8278857Y3182857D01*
X8421714Y3182857D01*
X8516952Y3230476D01*
X8564571Y3278095D01*
X8612190Y3373333D01*
X8612190Y3754285D01*
X9088380Y2230476D02*
X9088380Y2801904D01*
X9088380Y2516190D02*
X8088380Y2516190D01*
X8231238Y2611428D01*
X8326476Y2706666D01*
X8374095Y2801904D01*
X8183619Y1849523D02*
X8136000Y1801904D01*
X8088380Y1706666D01*
X8088380Y1468571D01*
X8136000Y1373333D01*
X8183619Y1325714D01*
X8278857Y1278095D01*
X8374095Y1278095D01*
X8516952Y1325714D01*
X9088380Y1897142D01*
X9088380Y1278095D01*
%TO.C,C1*%
X18899142Y9564666D02*
X18946761Y9612285D01*
X18994380Y9755142D01*
X18994380Y9850380D01*
X18946761Y9993238D01*
X18851523Y10088476D01*
X18756285Y10136095D01*
X18565809Y10183714D01*
X18422952Y10183714D01*
X18232476Y10136095D01*
X18137238Y10088476D01*
X18042000Y9993238D01*
X17994380Y9850380D01*
X17994380Y9755142D01*
X18042000Y9612285D01*
X18089619Y9564666D01*
X18994380Y8612285D02*
X18994380Y9183714D01*
X18994380Y8898000D02*
X17994380Y8898000D01*
X18137238Y8993238D01*
X18232476Y9088476D01*
X18280095Y9183714D01*
%TO.C,U2*%
X11937904Y2833619D02*
X11937904Y2024095D01*
X11890285Y1928857D01*
X11842666Y1881238D01*
X11747428Y1833619D01*
X11556952Y1833619D01*
X11461714Y1881238D01*
X11414095Y1928857D01*
X11366476Y2024095D01*
X11366476Y2833619D01*
X10937904Y2738380D02*
X10890285Y2786000D01*
X10795047Y2833619D01*
X10556952Y2833619D01*
X10461714Y2786000D01*
X10414095Y2738380D01*
X10366476Y2643142D01*
X10366476Y2547904D01*
X10414095Y2405047D01*
X10985523Y1833619D01*
X10366476Y1833619D01*
%TO.C,R11*%
X18930857Y1833619D02*
X19264190Y2309809D01*
X19502285Y1833619D02*
X19502285Y2833619D01*
X19121333Y2833619D01*
X19026095Y2786000D01*
X18978476Y2738380D01*
X18930857Y2643142D01*
X18930857Y2500285D01*
X18978476Y2405047D01*
X19026095Y2357428D01*
X19121333Y2309809D01*
X19502285Y2309809D01*
X17978476Y1833619D02*
X18549904Y1833619D01*
X18264190Y1833619D02*
X18264190Y2833619D01*
X18359428Y2690761D01*
X18454666Y2595523D01*
X18549904Y2547904D01*
X17026095Y1833619D02*
X17597523Y1833619D01*
X17311809Y1833619D02*
X17311809Y2833619D01*
X17407047Y2690761D01*
X17502285Y2595523D01*
X17597523Y2547904D01*
%TO.C,R6*%
X51220666Y7041619D02*
X51554000Y7517809D01*
X51792095Y7041619D02*
X51792095Y8041619D01*
X51411142Y8041619D01*
X51315904Y7994000D01*
X51268285Y7946380D01*
X51220666Y7851142D01*
X51220666Y7708285D01*
X51268285Y7613047D01*
X51315904Y7565428D01*
X51411142Y7517809D01*
X51792095Y7517809D01*
X50363523Y8041619D02*
X50554000Y8041619D01*
X50649238Y7994000D01*
X50696857Y7946380D01*
X50792095Y7803523D01*
X50839714Y7613047D01*
X50839714Y7232095D01*
X50792095Y7136857D01*
X50744476Y7089238D01*
X50649238Y7041619D01*
X50458761Y7041619D01*
X50363523Y7089238D01*
X50315904Y7136857D01*
X50268285Y7232095D01*
X50268285Y7470190D01*
X50315904Y7565428D01*
X50363523Y7613047D01*
X50458761Y7660666D01*
X50649238Y7660666D01*
X50744476Y7613047D01*
X50792095Y7565428D01*
X50839714Y7470190D01*
%TO.C,R2*%
X16422666Y9199619D02*
X16756000Y9675809D01*
X16994095Y9199619D02*
X16994095Y10199619D01*
X16613142Y10199619D01*
X16517904Y10152000D01*
X16470285Y10104380D01*
X16422666Y10009142D01*
X16422666Y9866285D01*
X16470285Y9771047D01*
X16517904Y9723428D01*
X16613142Y9675809D01*
X16994095Y9675809D01*
X16041714Y10104380D02*
X15994095Y10152000D01*
X15898857Y10199619D01*
X15660761Y10199619D01*
X15565523Y10152000D01*
X15517904Y10104380D01*
X15470285Y10009142D01*
X15470285Y9913904D01*
X15517904Y9771047D01*
X16089333Y9199619D01*
X15470285Y9199619D01*
%TO.C,R8*%
X3325630Y5669916D02*
X2849440Y6003250D01*
X3325630Y6241345D02*
X2325630Y6241345D01*
X2325630Y5860392D01*
X2373250Y5765154D01*
X2420869Y5717535D01*
X2516107Y5669916D01*
X2658964Y5669916D01*
X2754202Y5717535D01*
X2801821Y5765154D01*
X2849440Y5860392D01*
X2849440Y6241345D01*
X2754202Y5098488D02*
X2706583Y5193726D01*
X2658964Y5241345D01*
X2563726Y5288964D01*
X2516107Y5288964D01*
X2420869Y5241345D01*
X2373250Y5193726D01*
X2325630Y5098488D01*
X2325630Y4908011D01*
X2373250Y4812773D01*
X2420869Y4765154D01*
X2516107Y4717535D01*
X2563726Y4717535D01*
X2658964Y4765154D01*
X2706583Y4812773D01*
X2754202Y4908011D01*
X2754202Y5098488D01*
X2801821Y5193726D01*
X2849440Y5241345D01*
X2944678Y5288964D01*
X3135154Y5288964D01*
X3230392Y5241345D01*
X3278011Y5193726D01*
X3325630Y5098488D01*
X3325630Y4908011D01*
X3278011Y4812773D01*
X3230392Y4765154D01*
X3135154Y4717535D01*
X2944678Y4717535D01*
X2849440Y4765154D01*
X2801821Y4812773D01*
X2754202Y4908011D01*
%TO.C,C11*%
X34393142Y9532857D02*
X34440761Y9580476D01*
X34488380Y9723333D01*
X34488380Y9818571D01*
X34440761Y9961428D01*
X34345523Y10056666D01*
X34250285Y10104285D01*
X34059809Y10151904D01*
X33916952Y10151904D01*
X33726476Y10104285D01*
X33631238Y10056666D01*
X33536000Y9961428D01*
X33488380Y9818571D01*
X33488380Y9723333D01*
X33536000Y9580476D01*
X33583619Y9532857D01*
X34488380Y8580476D02*
X34488380Y9151904D01*
X34488380Y8866190D02*
X33488380Y8866190D01*
X33631238Y8961428D01*
X33726476Y9056666D01*
X33774095Y9151904D01*
X34488380Y7628095D02*
X34488380Y8199523D01*
X34488380Y7913809D02*
X33488380Y7913809D01*
X33631238Y8009047D01*
X33726476Y8104285D01*
X33774095Y8199523D01*
%TO.C,R4*%
X9207166Y9199619D02*
X9540500Y9675809D01*
X9778595Y9199619D02*
X9778595Y10199619D01*
X9397642Y10199619D01*
X9302404Y10152000D01*
X9254785Y10104380D01*
X9207166Y10009142D01*
X9207166Y9866285D01*
X9254785Y9771047D01*
X9302404Y9723428D01*
X9397642Y9675809D01*
X9778595Y9675809D01*
X8350023Y9866285D02*
X8350023Y9199619D01*
X8588119Y10247238D02*
X8826214Y9532952D01*
X8207166Y9532952D01*
%TO.C,R5*%
X2738380Y2960666D02*
X2262190Y3294000D01*
X2738380Y3532095D02*
X1738380Y3532095D01*
X1738380Y3151142D01*
X1786000Y3055904D01*
X1833619Y3008285D01*
X1928857Y2960666D01*
X2071714Y2960666D01*
X2166952Y3008285D01*
X2214571Y3055904D01*
X2262190Y3151142D01*
X2262190Y3532095D01*
X1738380Y2055904D02*
X1738380Y2532095D01*
X2214571Y2579714D01*
X2166952Y2532095D01*
X2119333Y2436857D01*
X2119333Y2198761D01*
X2166952Y2103523D01*
X2214571Y2055904D01*
X2309809Y2008285D01*
X2547904Y2008285D01*
X2643142Y2055904D01*
X2690761Y2103523D01*
X2738380Y2198761D01*
X2738380Y2436857D01*
X2690761Y2532095D01*
X2643142Y2579714D01*
%TO.C,R9*%
X14390666Y8183619D02*
X14724000Y8659809D01*
X14962095Y8183619D02*
X14962095Y9183619D01*
X14581142Y9183619D01*
X14485904Y9136000D01*
X14438285Y9088380D01*
X14390666Y8993142D01*
X14390666Y8850285D01*
X14438285Y8755047D01*
X14485904Y8707428D01*
X14581142Y8659809D01*
X14962095Y8659809D01*
X13914476Y8183619D02*
X13724000Y8183619D01*
X13628761Y8231238D01*
X13581142Y8278857D01*
X13485904Y8421714D01*
X13438285Y8612190D01*
X13438285Y8993142D01*
X13485904Y9088380D01*
X13533523Y9136000D01*
X13628761Y9183619D01*
X13819238Y9183619D01*
X13914476Y9136000D01*
X13962095Y9088380D01*
X14009714Y8993142D01*
X14009714Y8755047D01*
X13962095Y8659809D01*
X13914476Y8612190D01*
X13819238Y8564571D01*
X13628761Y8564571D01*
X13533523Y8612190D01*
X13485904Y8659809D01*
X13438285Y8755047D01*
%TO.C,D1*%
X47188380Y6580095D02*
X46188380Y6580095D01*
X46188380Y6342000D01*
X46236000Y6199142D01*
X46331238Y6103904D01*
X46426476Y6056285D01*
X46616952Y6008666D01*
X46759809Y6008666D01*
X46950285Y6056285D01*
X47045523Y6103904D01*
X47140761Y6199142D01*
X47188380Y6342000D01*
X47188380Y6580095D01*
X47188380Y5056285D02*
X47188380Y5627714D01*
X47188380Y5342000D02*
X46188380Y5342000D01*
X46331238Y5437238D01*
X46426476Y5532476D01*
X46474095Y5627714D01*
%TO.C,C6*%
X5945142Y9564666D02*
X5992761Y9612285D01*
X6040380Y9755142D01*
X6040380Y9850380D01*
X5992761Y9993238D01*
X5897523Y10088476D01*
X5802285Y10136095D01*
X5611809Y10183714D01*
X5468952Y10183714D01*
X5278476Y10136095D01*
X5183238Y10088476D01*
X5088000Y9993238D01*
X5040380Y9850380D01*
X5040380Y9755142D01*
X5088000Y9612285D01*
X5135619Y9564666D01*
X5040380Y8707523D02*
X5040380Y8898000D01*
X5088000Y8993238D01*
X5135619Y9040857D01*
X5278476Y9136095D01*
X5468952Y9183714D01*
X5849904Y9183714D01*
X5945142Y9136095D01*
X5992761Y9088476D01*
X6040380Y8993238D01*
X6040380Y8802761D01*
X5992761Y8707523D01*
X5945142Y8659904D01*
X5849904Y8612285D01*
X5611809Y8612285D01*
X5516571Y8659904D01*
X5468952Y8707523D01*
X5421333Y8802761D01*
X5421333Y8993238D01*
X5468952Y9088476D01*
X5516571Y9136095D01*
X5611809Y9183714D01*
%TO.C,C5*%
X12358666Y9294857D02*
X12406285Y9247238D01*
X12549142Y9199619D01*
X12644380Y9199619D01*
X12787238Y9247238D01*
X12882476Y9342476D01*
X12930095Y9437714D01*
X12977714Y9628190D01*
X12977714Y9771047D01*
X12930095Y9961523D01*
X12882476Y10056761D01*
X12787238Y10152000D01*
X12644380Y10199619D01*
X12549142Y10199619D01*
X12406285Y10152000D01*
X12358666Y10104380D01*
X11453904Y10199619D02*
X11930095Y10199619D01*
X11977714Y9723428D01*
X11930095Y9771047D01*
X11834857Y9818666D01*
X11596761Y9818666D01*
X11501523Y9771047D01*
X11453904Y9723428D01*
X11406285Y9628190D01*
X11406285Y9390095D01*
X11453904Y9294857D01*
X11501523Y9247238D01*
X11596761Y9199619D01*
X11834857Y9199619D01*
X11930095Y9247238D01*
X11977714Y9294857D01*
%TO.C,R3*%
X32170666Y4119619D02*
X32504000Y4595809D01*
X32742095Y4119619D02*
X32742095Y5119619D01*
X32361142Y5119619D01*
X32265904Y5072000D01*
X32218285Y5024380D01*
X32170666Y4929142D01*
X32170666Y4786285D01*
X32218285Y4691047D01*
X32265904Y4643428D01*
X32361142Y4595809D01*
X32742095Y4595809D01*
X31837333Y5119619D02*
X31218285Y5119619D01*
X31551619Y4738666D01*
X31408761Y4738666D01*
X31313523Y4691047D01*
X31265904Y4643428D01*
X31218285Y4548190D01*
X31218285Y4310095D01*
X31265904Y4214857D01*
X31313523Y4167238D01*
X31408761Y4119619D01*
X31694476Y4119619D01*
X31789714Y4167238D01*
X31837333Y4214857D01*
%TO.C,C10*%
X36933142Y9532857D02*
X36980761Y9580476D01*
X37028380Y9723333D01*
X37028380Y9818571D01*
X36980761Y9961428D01*
X36885523Y10056666D01*
X36790285Y10104285D01*
X36599809Y10151904D01*
X36456952Y10151904D01*
X36266476Y10104285D01*
X36171238Y10056666D01*
X36076000Y9961428D01*
X36028380Y9818571D01*
X36028380Y9723333D01*
X36076000Y9580476D01*
X36123619Y9532857D01*
X37028380Y8580476D02*
X37028380Y9151904D01*
X37028380Y8866190D02*
X36028380Y8866190D01*
X36171238Y8961428D01*
X36266476Y9056666D01*
X36314095Y9151904D01*
X36028380Y7961428D02*
X36028380Y7866190D01*
X36076000Y7770952D01*
X36123619Y7723333D01*
X36218857Y7675714D01*
X36409333Y7628095D01*
X36647428Y7628095D01*
X36837904Y7675714D01*
X36933142Y7723333D01*
X36980761Y7770952D01*
X37028380Y7866190D01*
X37028380Y7961428D01*
X36980761Y8056666D01*
X36933142Y8104285D01*
X36837904Y8151904D01*
X36647428Y8199523D01*
X36409333Y8199523D01*
X36218857Y8151904D01*
X36123619Y8104285D01*
X36076000Y8056666D01*
X36028380Y7961428D01*
%TO.C,C7*%
X22963142Y5754666D02*
X23010761Y5802285D01*
X23058380Y5945142D01*
X23058380Y6040380D01*
X23010761Y6183238D01*
X22915523Y6278476D01*
X22820285Y6326095D01*
X22629809Y6373714D01*
X22486952Y6373714D01*
X22296476Y6326095D01*
X22201238Y6278476D01*
X22106000Y6183238D01*
X22058380Y6040380D01*
X22058380Y5945142D01*
X22106000Y5802285D01*
X22153619Y5754666D01*
X22058380Y5421333D02*
X22058380Y4754666D01*
X23058380Y5183238D01*
%TO.C,R10*%
X7583130Y9975107D02*
X7106940Y10308440D01*
X7583130Y10546535D02*
X6583130Y10546535D01*
X6583130Y10165583D01*
X6630750Y10070345D01*
X6678369Y10022726D01*
X6773607Y9975107D01*
X6916464Y9975107D01*
X7011702Y10022726D01*
X7059321Y10070345D01*
X7106940Y10165583D01*
X7106940Y10546535D01*
X7583130Y9022726D02*
X7583130Y9594154D01*
X7583130Y9308440D02*
X6583130Y9308440D01*
X6725988Y9403678D01*
X6821226Y9498916D01*
X6868845Y9594154D01*
X6583130Y8403678D02*
X6583130Y8308440D01*
X6630750Y8213202D01*
X6678369Y8165583D01*
X6773607Y8117964D01*
X6964083Y8070345D01*
X7202178Y8070345D01*
X7392654Y8117964D01*
X7487892Y8165583D01*
X7535511Y8213202D01*
X7583130Y8308440D01*
X7583130Y8403678D01*
X7535511Y8498916D01*
X7487892Y8546535D01*
X7392654Y8594154D01*
X7202178Y8641773D01*
X6964083Y8641773D01*
X6773607Y8594154D01*
X6678369Y8546535D01*
X6630750Y8498916D01*
X6583130Y8403678D01*
D11*
%TO.C,R13*%
X30760936Y12165000D02*
X31215064Y12165000D01*
X30760936Y10695000D02*
X31215064Y10695000D01*
%TO.C,C12*%
X27205000Y11930748D02*
X27205000Y12453252D01*
X28675000Y11930748D02*
X28675000Y12453252D01*
%TO.C,C9*%
X3783000Y11930748D02*
X3783000Y12453252D01*
X2313000Y11930748D02*
X2313000Y12453252D01*
%TO.C,C13*%
X25881000Y11930748D02*
X25881000Y12453252D01*
X24411000Y11930748D02*
X24411000Y12453252D01*
%TO.C,C14*%
X42645000Y5849252D02*
X42645000Y5326748D01*
X41175000Y5849252D02*
X41175000Y5326748D01*
%TO.C,L1*%
X41820000Y10827936D02*
X41820000Y12032064D01*
X44540000Y10827936D02*
X44540000Y12032064D01*
%TO.C,D2*%
X40324000Y12538000D02*
X38474000Y12538000D01*
X38474000Y11338000D02*
X38474000Y12538000D01*
X40324000Y11338000D02*
X38474000Y11338000D01*
%TO.C,R1*%
X21616936Y12165000D02*
X22071064Y12165000D01*
X21616936Y10695000D02*
X22071064Y10695000D01*
%TO.C,C3*%
X44223000Y5849252D02*
X44223000Y5326748D01*
X45693000Y5849252D02*
X45693000Y5326748D01*
%TO.C,R12*%
X6123000Y2312936D02*
X6123000Y2767064D01*
X7593000Y2312936D02*
X7593000Y2767064D01*
%TO.C,C15*%
X38127000Y5849252D02*
X38127000Y5326748D01*
X39597000Y5849252D02*
X39597000Y5326748D01*
%TO.C,C1*%
X17807000Y11930748D02*
X17807000Y12453252D01*
X19277000Y11930748D02*
X19277000Y12453252D01*
%TO.C,U2*%
X11157250Y6301250D02*
X11957250Y6301250D01*
X11157250Y3181250D02*
X9357250Y3181250D01*
X11157250Y3181250D02*
X11957250Y3181250D01*
X11157250Y6301250D02*
X10357250Y6301250D01*
%TO.C,R11*%
X15975000Y4598936D02*
X15975000Y5053064D01*
X14505000Y4598936D02*
X14505000Y5053064D01*
%TO.C,R6*%
X50826936Y9879000D02*
X51281064Y9879000D01*
X50826936Y8409000D02*
X51281064Y8409000D01*
%TO.C,R2*%
X15266936Y12165000D02*
X15721064Y12165000D01*
X15266936Y10695000D02*
X15721064Y10695000D01*
%TO.C,R8*%
X3818250Y5764502D02*
X3818250Y5241998D01*
X5288250Y5764502D02*
X5288250Y5241998D01*
%TO.C,C11*%
X34771000Y11930748D02*
X34771000Y12453252D01*
X33301000Y11930748D02*
X33301000Y12453252D01*
%TO.C,C8*%
X17045000Y5087252D02*
X17045000Y4564748D01*
X18515000Y5087252D02*
X18515000Y4564748D01*
%TO.C,R4*%
X8813436Y10695000D02*
X9267564Y10695000D01*
X8813436Y12165000D02*
X9267564Y12165000D01*
%TO.C,C4*%
X35079000Y5849252D02*
X35079000Y5326748D01*
X36549000Y5849252D02*
X36549000Y5326748D01*
%TO.C,R5*%
X1532250Y5276186D02*
X1532250Y5730314D01*
X3002250Y5276186D02*
X3002250Y5730314D01*
%TO.C,R7*%
X52805000Y11964936D02*
X52805000Y12419064D01*
X51335000Y11964936D02*
X51335000Y12419064D01*
%TO.C,R9*%
X11438186Y8524250D02*
X11892314Y8524250D01*
X11438186Y7054250D02*
X11892314Y7054250D01*
%TO.C,D1*%
X47660000Y5142000D02*
X47660000Y6992000D01*
X48860000Y5142000D02*
X48860000Y6992000D01*
X47660000Y6992000D02*
X48860000Y6992000D01*
%TO.C,C6*%
X4853000Y11930748D02*
X4853000Y12453252D01*
X6323000Y11930748D02*
X6323000Y12453252D01*
%TO.C,U3*%
X48652000Y10582000D02*
X46852000Y10582000D01*
X46852000Y13802000D02*
X49802000Y13802000D01*
%TO.C,C5*%
X11457000Y11930748D02*
X11457000Y12453252D01*
X12927000Y11930748D02*
X12927000Y12453252D01*
%TO.C,R3*%
X31776936Y5615000D02*
X32231064Y5615000D01*
X31776936Y7085000D02*
X32231064Y7085000D01*
%TO.C,C10*%
X35841000Y11930748D02*
X35841000Y12453252D01*
X37311000Y11930748D02*
X37311000Y12453252D01*
%TO.C,C2*%
X46982748Y8155000D02*
X47505252Y8155000D01*
X46982748Y9625000D02*
X47505252Y9625000D01*
%TO.C,C7*%
X21309000Y6357252D02*
X21309000Y5834748D01*
X19839000Y6357252D02*
X19839000Y5834748D01*
%TO.C,R10*%
X6631000Y5972436D02*
X6631000Y6426564D01*
X8101000Y5972436D02*
X8101000Y6426564D01*
%TD*%
M02*
