M48
; DRILL file {KiCad 6.0.4-6f826c9f35~116~ubuntu20.04.1} date Tue May 24 17:55:46 2022
; FORMAT={-:-/ absolute / metric / decimal}
; #@! TF.CreationDate,2022-05-24T17:55:46+00:00
; #@! TF.GenerationSoftware,Kicad,Pcbnew,6.0.4-6f826c9f35~116~ubuntu20.04.1
; #@! TF.FileFunction,Plated,1,2,PTH
FMAT,2
METRIC
; #@! TA.AperFunction,Plated,PTH,ViaDrill
T1C0.400
; #@! TA.AperFunction,Plated,PTH,ComponentDrill
T2C0.889
%
G90
G05
T1
X1.016Y3.302
X1.27Y13.462
X1.27Y8.89
X1.778Y7.366
X1.778Y1.27
X3.556Y1.27
X7.366Y13.462
X10.16Y13.208
X14.224Y2.54
X14.478Y9.652
X14.478Y7.62
X15.24Y13.462
X16.002Y7.62
X16.002Y2.54
X17.526Y9.652
X17.526Y7.62
X18.034Y2.54
X19.05Y8.382
X19.558Y3.556
X20.574Y8.636
X20.574Y2.794
X21.844Y13.462
X22.352Y3.556
X22.606Y8.382
X24.13Y8.382
X25.654Y8.382
X25.654Y3.302
X25.654Y1.016
X27.178Y8.382
X28.702Y8.382
X28.702Y3.302
X28.956Y1.016
X30.226Y8.382
X30.48Y3.302
X30.988Y13.208
X31.75Y8.382
X33.274Y8.382
X33.274Y3.302
X33.274Y1.016
X34.798Y8.382
X36.068Y3.302
X36.322Y8.382
X36.576Y1.016
X37.846Y9.144
X38.862Y8.128
X38.862Y3.302
X39.37Y1.016
X39.624Y13.462
X40.132Y10.668
X40.386Y9.398
X40.386Y7.366
X41.656Y3.302
X42.418Y1.016
X43.18Y11.43
X43.434Y7.366
X44.704Y8.382
X44.704Y3.302
X45.466Y1.016
X48.006Y1.016
X48.26Y3.81
X49.53Y8.128
X49.53Y1.524
X50.038Y5.334
X50.546Y12.192
X50.8Y2.54
X51.816Y3.556
X53.086Y6.35
X53.34Y3.81
T2
X55.118Y12.58
X55.118Y10.04
X55.118Y7.5
X55.118Y4.96
X55.118Y2.42
X57.658Y12.58
X57.658Y10.04
X57.658Y7.5
X57.658Y4.96
X57.658Y2.42
T0
M30
