M48
; DRILL file {KiCad 6.0.4-6f826c9f35~116~ubuntu20.04.1} date Thu May  5 07:01:52 2022
; FORMAT={-:-/ absolute / metric / decimal}
; #@! TF.CreationDate,2022-05-05T07:01:52+00:00
; #@! TF.GenerationSoftware,Kicad,Pcbnew,6.0.4-6f826c9f35~116~ubuntu20.04.1
; #@! TF.FileFunction,Plated,1,2,PTH
FMAT,2
METRIC
; #@! TA.AperFunction,Plated,PTH,ViaDrill
T1C0.400
; #@! TA.AperFunction,Plated,PTH,ComponentDrill
T2C0.889
; #@! TA.AperFunction,Plated,PTH,ComponentDrill
T3C3.000
%
G90
G05
T1
X5.715Y10.16
X6.096Y27.813
X6.096Y26.67
X7.239Y30.988
X7.239Y29.464
X7.239Y28.448
X7.239Y27.432
X7.239Y26.543
X7.239Y10.16
X7.747Y15.748
X8.763Y13.208
X8.763Y10.16
X9.271Y33.02
X10.287Y13.208
X10.287Y10.16
X10.795Y33.02
X11.43Y28.956
X11.811Y10.16
X12.065Y27.94
X12.446Y28.956
X12.827Y24.892
X12.827Y11.684
X13.335Y10.16
X14.351Y26.162
X14.351Y18.288
X14.859Y20.828
X16.256Y24.384
X16.383Y23.368
X16.383Y22.352
X16.383Y16.256
X17.399Y16.285
X17.907Y20.32
X17.907Y14.224
X18.415Y23.368
X19.431Y38.1
X19.431Y36.068
X19.431Y34.544
X19.431Y32.512
X19.939Y23.368
X20.447Y19.812
X20.955Y38.1
X22.987Y38.1
X22.987Y16.256
X22.987Y14.732
X22.987Y13.208
X24.511Y13.208
X26.035Y30.988
X26.035Y29.464
X26.035Y27.432
X26.035Y25.908
X26.035Y13.208
X27.559Y13.208
X28.067Y30.988
X28.067Y29.464
X28.067Y27.432
X28.067Y25.908
T2
X25.273Y38.1
X25.273Y35.56
X25.273Y33.02
X25.273Y23.368
X25.273Y20.828
X25.273Y18.288
X25.273Y15.748
X25.273Y7.62
X25.273Y5.08
X25.273Y2.54
X27.813Y38.1
X27.813Y35.56
X27.813Y33.02
X27.813Y23.368
X27.813Y20.828
X27.813Y18.288
X27.813Y15.748
X27.813Y7.62
X27.813Y5.08
X27.813Y2.54
T3
X5.207Y35.56
X5.207Y5.08
X15.367Y35.56
X15.367Y5.08
T0
M30
