%TF.GenerationSoftware,KiCad,Pcbnew,6.0.4-6f826c9f35~116~ubuntu20.04.1*%
%TF.CreationDate,2022-07-08T08:24:41+00:00*%
%TF.ProjectId,USTSIPM01A,55535453-4950-44d3-9031-412e6b696361,rev?*%
%TF.SameCoordinates,Original*%
%TF.FileFunction,Legend,Top*%
%TF.FilePolarity,Positive*%
%FSLAX46Y46*%
G04 Gerber Fmt 4.6, Leading zero omitted, Abs format (unit mm)*
G04 Created by KiCad (PCBNEW 6.0.4-6f826c9f35~116~ubuntu20.04.1) date 2022-07-08 08:24:41*
%MOMM*%
%LPD*%
G01*
G04 APERTURE LIST*
%ADD10C,0.200000*%
%ADD11C,0.150000*%
G04 APERTURE END LIST*
D10*
X50746571Y3070000D02*
X50622761Y3131904D01*
X50437047Y3131904D01*
X50251333Y3070000D01*
X50127523Y2946190D01*
X50065619Y2822380D01*
X50003714Y2574761D01*
X50003714Y2389047D01*
X50065619Y2141428D01*
X50127523Y2017619D01*
X50251333Y1893809D01*
X50437047Y1831904D01*
X50560857Y1831904D01*
X50746571Y1893809D01*
X50808476Y1955714D01*
X50808476Y2389047D01*
X50560857Y2389047D01*
X51365619Y1831904D02*
X51365619Y3131904D01*
X52108476Y1831904D01*
X52108476Y3131904D01*
X52727523Y1831904D02*
X52727523Y3131904D01*
X53037047Y3131904D01*
X53222761Y3070000D01*
X53346571Y2946190D01*
X53408476Y2822380D01*
X53470380Y2574761D01*
X53470380Y2389047D01*
X53408476Y2141428D01*
X53346571Y2017619D01*
X53222761Y1893809D01*
X53037047Y1831904D01*
X52727523Y1831904D01*
X24367714Y7600404D02*
X24367714Y6548023D01*
X24429619Y6424214D01*
X24491523Y6362309D01*
X24615333Y6300404D01*
X24862952Y6300404D01*
X24986761Y6362309D01*
X25048666Y6424214D01*
X25110571Y6548023D01*
X25110571Y7600404D01*
X25667714Y6362309D02*
X25853428Y6300404D01*
X26162952Y6300404D01*
X26286761Y6362309D01*
X26348666Y6424214D01*
X26410571Y6548023D01*
X26410571Y6671833D01*
X26348666Y6795642D01*
X26286761Y6857547D01*
X26162952Y6919452D01*
X25915333Y6981357D01*
X25791523Y7043261D01*
X25729619Y7105166D01*
X25667714Y7228976D01*
X25667714Y7352785D01*
X25729619Y7476595D01*
X25791523Y7538500D01*
X25915333Y7600404D01*
X26224857Y7600404D01*
X26410571Y7538500D01*
X26782000Y7600404D02*
X27524857Y7600404D01*
X27153428Y6300404D02*
X27153428Y7600404D01*
X27958190Y6424214D02*
X28020095Y6362309D01*
X27958190Y6300404D01*
X27896285Y6362309D01*
X27958190Y6424214D01*
X27958190Y6300404D01*
X29320095Y6424214D02*
X29258190Y6362309D01*
X29072476Y6300404D01*
X28948666Y6300404D01*
X28762952Y6362309D01*
X28639142Y6486119D01*
X28577238Y6609928D01*
X28515333Y6857547D01*
X28515333Y7043261D01*
X28577238Y7290880D01*
X28639142Y7414690D01*
X28762952Y7538500D01*
X28948666Y7600404D01*
X29072476Y7600404D01*
X29258190Y7538500D01*
X29320095Y7476595D01*
X29753428Y7600404D02*
X30620095Y7600404D01*
X29753428Y6300404D01*
X30620095Y6300404D01*
X21829619Y5507404D02*
X21829619Y4455023D01*
X21891523Y4331214D01*
X21953428Y4269309D01*
X22077238Y4207404D01*
X22324857Y4207404D01*
X22448666Y4269309D01*
X22510571Y4331214D01*
X22572476Y4455023D01*
X22572476Y5507404D01*
X23129619Y4269309D02*
X23315333Y4207404D01*
X23624857Y4207404D01*
X23748666Y4269309D01*
X23810571Y4331214D01*
X23872476Y4455023D01*
X23872476Y4578833D01*
X23810571Y4702642D01*
X23748666Y4764547D01*
X23624857Y4826452D01*
X23377238Y4888357D01*
X23253428Y4950261D01*
X23191523Y5012166D01*
X23129619Y5135976D01*
X23129619Y5259785D01*
X23191523Y5383595D01*
X23253428Y5445500D01*
X23377238Y5507404D01*
X23686761Y5507404D01*
X23872476Y5445500D01*
X24243904Y5507404D02*
X24986761Y5507404D01*
X24615333Y4207404D02*
X24615333Y5507404D01*
X25358190Y4269309D02*
X25543904Y4207404D01*
X25853428Y4207404D01*
X25977238Y4269309D01*
X26039142Y4331214D01*
X26101047Y4455023D01*
X26101047Y4578833D01*
X26039142Y4702642D01*
X25977238Y4764547D01*
X25853428Y4826452D01*
X25605809Y4888357D01*
X25482000Y4950261D01*
X25420095Y5012166D01*
X25358190Y5135976D01*
X25358190Y5259785D01*
X25420095Y5383595D01*
X25482000Y5445500D01*
X25605809Y5507404D01*
X25915333Y5507404D01*
X26101047Y5445500D01*
X26658190Y4207404D02*
X26658190Y5507404D01*
X27277238Y4207404D02*
X27277238Y5507404D01*
X27772476Y5507404D01*
X27896285Y5445500D01*
X27958190Y5383595D01*
X28020095Y5259785D01*
X28020095Y5074071D01*
X27958190Y4950261D01*
X27896285Y4888357D01*
X27772476Y4826452D01*
X27277238Y4826452D01*
X28577238Y4207404D02*
X28577238Y5507404D01*
X29010571Y4578833D01*
X29443904Y5507404D01*
X29443904Y4207404D01*
X30310571Y5507404D02*
X30434380Y5507404D01*
X30558190Y5445500D01*
X30620095Y5383595D01*
X30682000Y5259785D01*
X30743904Y5012166D01*
X30743904Y4702642D01*
X30682000Y4455023D01*
X30620095Y4331214D01*
X30558190Y4269309D01*
X30434380Y4207404D01*
X30310571Y4207404D01*
X30186761Y4269309D01*
X30124857Y4331214D01*
X30062952Y4455023D01*
X30001047Y4702642D01*
X30001047Y5012166D01*
X30062952Y5259785D01*
X30124857Y5383595D01*
X30186761Y5445500D01*
X30310571Y5507404D01*
X31982000Y4207404D02*
X31239142Y4207404D01*
X31610571Y4207404D02*
X31610571Y5507404D01*
X31486761Y5321690D01*
X31362952Y5197880D01*
X31239142Y5135976D01*
X32477238Y4578833D02*
X33096285Y4578833D01*
X32353428Y4207404D02*
X32786761Y5507404D01*
X33220095Y4207404D01*
X50560857Y5671904D02*
X50808476Y5671904D01*
X50932285Y5610000D01*
X51056095Y5486190D01*
X51118000Y5238571D01*
X51118000Y4805238D01*
X51056095Y4557619D01*
X50932285Y4433809D01*
X50808476Y4371904D01*
X50560857Y4371904D01*
X50437047Y4433809D01*
X50313238Y4557619D01*
X50251333Y4805238D01*
X50251333Y5238571D01*
X50313238Y5486190D01*
X50437047Y5610000D01*
X50560857Y5671904D01*
X51675142Y5671904D02*
X51675142Y4619523D01*
X51737047Y4495714D01*
X51798952Y4433809D01*
X51922761Y4371904D01*
X52170380Y4371904D01*
X52294190Y4433809D01*
X52356095Y4495714D01*
X52418000Y4619523D01*
X52418000Y5671904D01*
X52851333Y5671904D02*
X53594190Y5671904D01*
X53222761Y4371904D02*
X53222761Y5671904D01*
X50746571Y13230000D02*
X50622761Y13291904D01*
X50437047Y13291904D01*
X50251333Y13230000D01*
X50127523Y13106190D01*
X50065619Y12982380D01*
X50003714Y12734761D01*
X50003714Y12549047D01*
X50065619Y12301428D01*
X50127523Y12177619D01*
X50251333Y12053809D01*
X50437047Y11991904D01*
X50560857Y11991904D01*
X50746571Y12053809D01*
X50808476Y12115714D01*
X50808476Y12549047D01*
X50560857Y12549047D01*
X51365619Y11991904D02*
X51365619Y13291904D01*
X52108476Y11991904D01*
X52108476Y13291904D01*
X52727523Y11991904D02*
X52727523Y13291904D01*
X53037047Y13291904D01*
X53222761Y13230000D01*
X53346571Y13106190D01*
X53408476Y12982380D01*
X53470380Y12734761D01*
X53470380Y12549047D01*
X53408476Y12301428D01*
X53346571Y12177619D01*
X53222761Y12053809D01*
X53037047Y11991904D01*
X52727523Y11991904D01*
X50313238Y10751904D02*
X51118000Y10751904D01*
X50684666Y10256666D01*
X50870380Y10256666D01*
X50994190Y10194761D01*
X51056095Y10132857D01*
X51118000Y10009047D01*
X51118000Y9699523D01*
X51056095Y9575714D01*
X50994190Y9513809D01*
X50870380Y9451904D01*
X50498952Y9451904D01*
X50375142Y9513809D01*
X50313238Y9575714D01*
X51489428Y10751904D02*
X51922761Y9451904D01*
X52356095Y10751904D01*
X53346571Y10751904D02*
X53098952Y10751904D01*
X52975142Y10690000D01*
X52913238Y10628095D01*
X52789428Y10442380D01*
X52727523Y10194761D01*
X52727523Y9699523D01*
X52789428Y9575714D01*
X52851333Y9513809D01*
X52975142Y9451904D01*
X53222761Y9451904D01*
X53346571Y9513809D01*
X53408476Y9575714D01*
X53470380Y9699523D01*
X53470380Y10009047D01*
X53408476Y10132857D01*
X53346571Y10194761D01*
X53222761Y10256666D01*
X52975142Y10256666D01*
X52851333Y10194761D01*
X52789428Y10132857D01*
X52727523Y10009047D01*
X50746571Y8150000D02*
X50622761Y8211904D01*
X50437047Y8211904D01*
X50251333Y8150000D01*
X50127523Y8026190D01*
X50065619Y7902380D01*
X50003714Y7654761D01*
X50003714Y7469047D01*
X50065619Y7221428D01*
X50127523Y7097619D01*
X50251333Y6973809D01*
X50437047Y6911904D01*
X50560857Y6911904D01*
X50746571Y6973809D01*
X50808476Y7035714D01*
X50808476Y7469047D01*
X50560857Y7469047D01*
X51365619Y6911904D02*
X51365619Y8211904D01*
X52108476Y6911904D01*
X52108476Y8211904D01*
X52727523Y6911904D02*
X52727523Y8211904D01*
X53037047Y8211904D01*
X53222761Y8150000D01*
X53346571Y8026190D01*
X53408476Y7902380D01*
X53470380Y7654761D01*
X53470380Y7469047D01*
X53408476Y7221428D01*
X53346571Y7097619D01*
X53222761Y6973809D01*
X53037047Y6911904D01*
X52727523Y6911904D01*
D11*
%TO.C,U1*%
X6719345Y8224869D02*
X6719345Y7415345D01*
X6766964Y7320107D01*
X6814583Y7272488D01*
X6909821Y7224869D01*
X7100297Y7224869D01*
X7195535Y7272488D01*
X7243154Y7320107D01*
X7290773Y7415345D01*
X7290773Y8224869D01*
X8290773Y7224869D02*
X7719345Y7224869D01*
X8005059Y7224869D02*
X8005059Y8224869D01*
X7909821Y8082011D01*
X7814583Y7986773D01*
X7719345Y7939154D01*
%TO.C,J4*%
X53848000Y6230000D02*
X53848000Y8516000D01*
X58928000Y6230000D02*
X53848000Y6230000D01*
X58928000Y8516000D02*
X58928000Y6230000D01*
%TO.C,J6*%
X58928000Y11310000D02*
X53848000Y11310000D01*
X53848000Y11310000D02*
X53848000Y13596000D01*
X58928000Y13596000D02*
X58928000Y11310000D01*
%TO.C,J5*%
X58928000Y8770000D02*
X53848000Y8770000D01*
X53848000Y8770000D02*
X53848000Y11056000D01*
X58928000Y11056000D02*
X58928000Y8770000D01*
%TO.C,J8*%
X53848000Y3690000D02*
X53848000Y5976000D01*
X58928000Y5976000D02*
X58928000Y3690000D01*
X58928000Y3690000D02*
X53848000Y3690000D01*
%TO.C,U1*%
X8900000Y4000000D02*
X6100000Y4000000D01*
X11000000Y8900000D02*
X11000000Y6100000D01*
X6100000Y11000000D02*
X8900000Y11000000D01*
X4000000Y6100000D02*
X4000000Y8900000D01*
X5069509Y6471300D02*
G75*
G03*
X5069509Y6471300I-401609J0D01*
G01*
%TO.C,J9*%
X58928000Y3436000D02*
X58928000Y1150000D01*
X53848000Y1150000D02*
X53848000Y3436000D01*
X58928000Y1150000D02*
X53848000Y1150000D01*
%TD*%
M02*
