  0
SECTION
  2
HEADER
  9
$ANGBASE
  50
0.0
  9
$ANGDIR
  70
1
  9
$MEASUREMENT
  70
0
  0
ENDSEC
  0
SECTION
  2
TABLES
  0
TABLE
  2
LTYPE
  70
4
  0
LTYPE
  5
40F
  2
CONTINUOUS
  70
0
  3
Solid line
  72
65
  73
0
  40
0.0
  0
LTYPE
  5
410
  2
DASHDOT
 70
0
  3
Dash Dot ____ _ ____ _
 72
65
 73
4
 40
2.0
 49
1.25
 49
-0.25
 49
0.25
 49
-0.25
  0
LTYPE
  5
411
  2
DASHED
 70
0
  3
Dashed __ __ __ __ __
 72
65
 73
2
 40
0.75
 49
0.5
 49
-0.25
  0
LTYPE
  5
43B
  2
DOTTED
 70
0
  3
Dotted .  .  .  .
 72
65
 73
2
 40
0.2
 49
0.0
 49
-0.2
  0
ENDTAB
  0
TABLE
  2
STYLE
  70
4
  0
STYLE
  2
KICAD
  70
0
  40
0
  41
1
  42
1
  50
0
  71
0
  3
isocp.shx
  0
STYLE
  2
KICADB
  70
0
  40
0
  41
1
  42
1
  50
0
  71
0
  3
isocp.shx
  0
STYLE
  2
KICADI
  70
0
  40
0
  41
1
  42
1
  50
15
  71
0
  3
isocp.shx
  0
STYLE
  2
KICADBI
  70
0
  40
0
  41
1
  42
1
  50
15
  71
0
  3
isocp.shx
  0
ENDTAB
  0
TABLE
  2
LAYER
  70
1
  0
LAYER
  2
BLACK
  70
0
  62
7
  6
CONTINUOUS
  0
ENDTAB
  0
ENDSEC
  0
SECTION
  2
ENTITIES
0
LINE
8
BLACK
6
CONTINUOUS
10
2.39
20
0.07
11
2.33
21
0.07
0
LINE
8
BLACK
6
CONTINUOUS
10
2.33
20
0.07
11
2.33
21
0.13
0
LINE
8
BLACK
6
CONTINUOUS
10
2.33
20
0.13
11
2.39
21
0.13
0
LINE
8
BLACK
6
CONTINUOUS
10
2.39
20
0.13
11
2.39
21
0.07
0
LINE
8
BLACK
6
CONTINUOUS
10
2.29
20
0.07
11
2.23
21
0.07
0
LINE
8
BLACK
6
CONTINUOUS
10
2.23
20
0.07
11
2.23
21
0.13
0
LINE
8
BLACK
6
CONTINUOUS
10
2.23
20
0.13
11
2.29
21
0.13
0
LINE
8
BLACK
6
CONTINUOUS
10
2.29
20
0.13
11
2.29
21
0.07
0
LINE
8
BLACK
6
CONTINUOUS
10
0.5
20
0.0905512
11
0.362205
21
0.0905512
0
LINE
8
BLACK
6
CONTINUOUS
10
0.362205
20
0.0905512
11
0.362205
21
0.228346
0
LINE
8
BLACK
6
CONTINUOUS
10
0.362205
20
0.228346
11
0.5
21
0.228346
0
LINE
8
BLACK
6
CONTINUOUS
10
0.5
20
0.228346
11
0.5
21
0.0905512
0
LINE
8
BLACK
6
CONTINUOUS
10
0.228346
20
0.0905512
11
0.0905512
21
0.0905512
0
LINE
8
BLACK
6
CONTINUOUS
10
0.0905512
20
0.0905512
11
0.0905512
21
0.228346
0
LINE
8
BLACK
6
CONTINUOUS
10
0.0905512
20
0.228346
11
0.228346
21
0.228346
0
LINE
8
BLACK
6
CONTINUOUS
10
0.228346
20
0.228346
11
0.228346
21
0.0905512
0
LINE
8
BLACK
6
CONTINUOUS
10
2.29
20
0.17
11
2.23
21
0.17
0
LINE
8
BLACK
6
CONTINUOUS
10
2.23
20
0.17
11
2.23
21
0.23
0
LINE
8
BLACK
6
CONTINUOUS
10
2.23
20
0.23
11
2.29
21
0.23
0
LINE
8
BLACK
6
CONTINUOUS
10
2.29
20
0.23
11
2.29
21
0.17
0
LINE
8
BLACK
6
CONTINUOUS
10
2.39
20
0.17
11
2.33
21
0.17
0
LINE
8
BLACK
6
CONTINUOUS
10
2.33
20
0.17
11
2.33
21
0.23
0
LINE
8
BLACK
6
CONTINUOUS
10
2.33
20
0.23
11
2.39
21
0.23
0
LINE
8
BLACK
6
CONTINUOUS
10
2.39
20
0.23
11
2.39
21
0.17
0
LINE
8
BLACK
6
CONTINUOUS
10
2.29
20
0.27
11
2.23
21
0.27
0
LINE
8
BLACK
6
CONTINUOUS
10
2.23
20
0.27
11
2.23
21
0.33
0
LINE
8
BLACK
6
CONTINUOUS
10
2.23
20
0.33
11
2.29
21
0.33
0
LINE
8
BLACK
6
CONTINUOUS
10
2.29
20
0.33
11
2.29
21
0.27
0
LINE
8
BLACK
6
CONTINUOUS
10
2.39
20
0.27
11
2.33
21
0.27
0
LINE
8
BLACK
6
CONTINUOUS
10
2.33
20
0.27
11
2.33
21
0.33
0
LINE
8
BLACK
6
CONTINUOUS
10
2.33
20
0.33
11
2.39
21
0.33
0
LINE
8
BLACK
6
CONTINUOUS
10
2.39
20
0.33
11
2.39
21
0.27
0
LINE
8
BLACK
6
CONTINUOUS
10
0.228346
20
0.362205
11
0.0905512
21
0.362205
0
LINE
8
BLACK
6
CONTINUOUS
10
0.0905512
20
0.362205
11
0.0905512
21
0.5
0
LINE
8
BLACK
6
CONTINUOUS
10
0.0905512
20
0.5
11
0.228346
21
0.5
0
LINE
8
BLACK
6
CONTINUOUS
10
0.228346
20
0.5
11
0.228346
21
0.362205
0
LINE
8
BLACK
6
CONTINUOUS
10
0.5
20
0.362205
11
0.362205
21
0.362205
0
LINE
8
BLACK
6
CONTINUOUS
10
0.362205
20
0.362205
11
0.362205
21
0.5
0
LINE
8
BLACK
6
CONTINUOUS
10
0.362205
20
0.5
11
0.5
21
0.5
0
LINE
8
BLACK
6
CONTINUOUS
10
0.5
20
0.5
11
0.5
21
0.362205
0
LINE
8
BLACK
6
CONTINUOUS
10
2.29
20
0.37
11
2.23
21
0.37
0
LINE
8
BLACK
6
CONTINUOUS
10
2.23
20
0.37
11
2.23
21
0.43
0
LINE
8
BLACK
6
CONTINUOUS
10
2.23
20
0.43
11
2.29
21
0.43
0
LINE
8
BLACK
6
CONTINUOUS
10
2.29
20
0.43
11
2.29
21
0.37
0
LINE
8
BLACK
6
CONTINUOUS
10
2.39
20
0.37
11
2.33
21
0.37
0
LINE
8
BLACK
6
CONTINUOUS
10
2.33
20
0.37
11
2.33
21
0.43
0
LINE
8
BLACK
6
CONTINUOUS
10
2.33
20
0.43
11
2.39
21
0.43
0
LINE
8
BLACK
6
CONTINUOUS
10
2.39
20
0.43
11
2.39
21
0.37
0
LINE
8
BLACK
6
CONTINUOUS
10
2.39
20
0.47
11
2.33
21
0.47
0
LINE
8
BLACK
6
CONTINUOUS
10
2.33
20
0.47
11
2.33
21
0.53
0
LINE
8
BLACK
6
CONTINUOUS
10
2.33
20
0.53
11
2.39
21
0.53
0
LINE
8
BLACK
6
CONTINUOUS
10
2.39
20
0.53
11
2.39
21
0.47
0
LINE
8
BLACK
6
CONTINUOUS
10
2.29
20
0.47
11
2.23
21
0.47
0
LINE
8
BLACK
6
CONTINUOUS
10
2.23
20
0.47
11
2.23
21
0.53
0
LINE
8
BLACK
6
CONTINUOUS
10
2.23
20
0.53
11
2.29
21
0.53
0
LINE
8
BLACK
6
CONTINUOUS
10
2.29
20
0.53
11
2.29
21
0.47
0
LINE
8
BLACK
6
CONTINUOUS
10
-0.089775
20
2.28315
11
-0.0762935
21
2.28137
0
LINE
8
BLACK
6
CONTINUOUS
10
-0.0762935
20
2.28137
11
-0.0631054
21
2.27806
0
LINE
8
BLACK
6
CONTINUOUS
10
-0.0631054
20
2.27806
11
-0.0503854
21
2.27325
0
LINE
8
BLACK
6
CONTINUOUS
10
-0.0503854
20
2.27325
11
-0.0383022
21
2.26702
0
LINE
8
BLACK
6
CONTINUOUS
10
-0.0383022
20
2.26702
11
-0.0270159
21
2.25943
0
LINE
8
BLACK
6
CONTINUOUS
10
-0.0270159
20
2.25943
11
-0.016676
21
2.2506
0
LINE
8
BLACK
6
CONTINUOUS
10
-0.016676
20
2.2506
11
-0.00741969
21
2.24064
0
LINE
8
BLACK
6
CONTINUOUS
10
-0.00741969
20
2.24064
11
0.000630394
21
2.22968
0
LINE
8
BLACK
6
CONTINUOUS
10
0.000630394
20
2.22968
11
0.00736752
21
2.21787
0
LINE
8
BLACK
6
CONTINUOUS
10
0.00736752
20
2.21787
11
0.0127024
21
2.20536
0
LINE
8
BLACK
6
CONTINUOUS
10
0.0127024
20
2.20536
11
0.0165644
21
2.19232
0
LINE
8
BLACK
6
CONTINUOUS
10
0.0165644
20
2.19232
11
0.0189023
21
2.17893
0
LINE
8
BLACK
6
CONTINUOUS
10
0.0189023
20
2.17893
11
0.019685
21
2.16535
0
LINE
8
BLACK
6
CONTINUOUS
10
0.019685
20
2.16535
11
0.019452
21
2.15794
0
LINE
8
BLACK
6
CONTINUOUS
10
0.019452
20
2.15794
11
0.0178184
21
2.14444
0
LINE
8
BLACK
6
CONTINUOUS
10
0.0178184
20
2.14444
11
0.014644
21
2.13122
0
LINE
8
BLACK
6
CONTINUOUS
10
0.014644
20
2.13122
11
0.00997102
21
2.11845
0
LINE
8
BLACK
6
CONTINUOUS
10
0.00997102
20
2.11845
11
0.00386126
21
2.1063
0
LINE
8
BLACK
6
CONTINUOUS
10
0.00386126
20
2.1063
11
-0.00360425
21
2.09493
0
LINE
8
BLACK
6
CONTINUOUS
10
-0.00360425
20
2.09493
11
-0.0123265
21
2.0845
0
LINE
8
BLACK
6
CONTINUOUS
10
-0.0123265
20
2.0845
11
-0.02219
21
2.07514
0
LINE
8
BLACK
6
CONTINUOUS
10
-0.02219
20
2.07514
11
-0.033064
21
2.06698
0
LINE
8
BLACK
6
CONTINUOUS
10
-0.033064
20
2.06698
11
-0.0448043
21
2.06012
0
LINE
8
BLACK
6
CONTINUOUS
10
-0.0448043
20
2.06012
11
-0.0572553
21
2.05465
0
LINE
8
BLACK
6
CONTINUOUS
10
-0.0572553
20
2.05465
11
-0.070252
21
2.05065
0
LINE
8
BLACK
6
CONTINUOUS
10
-0.070252
20
2.05065
11
-0.083622
21
2.04818
0
LINE
8
BLACK
6
CONTINUOUS
10
-0.083622
20
2.04818
11
-0.0971884
21
2.04725
0
LINE
8
BLACK
6
CONTINUOUS
10
-0.0971884
20
2.04725
11
-0.110771
21
2.04789
0
LINE
8
BLACK
6
CONTINUOUS
10
-0.110771
20
2.04789
11
-0.12419
21
2.05009
0
LINE
8
BLACK
6
CONTINUOUS
10
-0.12419
20
2.05009
11
-0.137268
21
2.05381
0
LINE
8
BLACK
6
CONTINUOUS
10
-0.137268
20
2.05381
11
-0.14983
21
2.05902
0
LINE
8
BLACK
6
CONTINUOUS
10
-0.14983
20
2.05902
11
-0.161712
21
2.06563
0
LINE
8
BLACK
6
CONTINUOUS
10
-0.161712
20
2.06563
11
-0.172754
21
2.07357
0
LINE
8
BLACK
6
CONTINUOUS
10
-0.172754
20
2.07357
11
-0.182812
21
2.08272
0
LINE
8
BLACK
6
CONTINUOUS
10
-0.182812
20
2.08272
11
-0.191751
21
2.09296
0
LINE
8
BLACK
6
CONTINUOUS
10
-0.191751
20
2.09296
11
-0.199452
21
2.10417
0
LINE
8
BLACK
6
CONTINUOUS
10
-0.199452
20
2.10417
11
-0.205815
21
2.11619
0
LINE
8
BLACK
6
CONTINUOUS
10
-0.205815
20
2.11619
11
-0.210755
21
2.12886
0
LINE
8
BLACK
6
CONTINUOUS
10
-0.210755
20
2.12886
11
-0.214205
21
2.14201
0
LINE
8
BLACK
6
CONTINUOUS
10
-0.214205
20
2.14201
11
-0.216121
21
2.15547
0
LINE
8
BLACK
6
CONTINUOUS
10
-0.216121
20
2.15547
11
-0.216477
21
2.16906
0
LINE
8
BLACK
6
CONTINUOUS
10
-0.216477
20
2.16906
11
-0.215268
21
2.18261
0
LINE
8
BLACK
6
CONTINUOUS
10
-0.215268
20
2.18261
11
-0.212511
21
2.19592
0
LINE
8
BLACK
6
CONTINUOUS
10
-0.212511
20
2.19592
11
-0.208241
21
2.20883
0
LINE
8
BLACK
6
CONTINUOUS
10
-0.208241
20
2.20883
11
-0.202516
21
2.22117
0
LINE
8
BLACK
6
CONTINUOUS
10
-0.202516
20
2.22117
11
-0.195411
21
2.23276
0
LINE
8
BLACK
6
CONTINUOUS
10
-0.195411
20
2.23276
11
-0.187021
21
2.24346
0
LINE
8
BLACK
6
CONTINUOUS
10
-0.187021
20
2.24346
11
-0.177456
21
2.25313
0
LINE
8
BLACK
6
CONTINUOUS
10
-0.177456
20
2.25313
11
-0.166844
21
2.26163
0
LINE
8
BLACK
6
CONTINUOUS
10
-0.166844
20
2.26163
11
-0.155325
21
2.26886
0
LINE
8
BLACK
6
CONTINUOUS
10
-0.155325
20
2.26886
11
-0.143052
21
2.27471
0
LINE
8
BLACK
6
CONTINUOUS
10
-0.143052
20
2.27471
11
-0.130187
21
2.27911
0
LINE
8
BLACK
6
CONTINUOUS
10
-0.130187
20
2.27911
11
-0.116902
21
2.28201
0
LINE
8
BLACK
6
CONTINUOUS
10
-0.116902
20
2.28201
11
-0.103371
21
2.28336
0
LINE
8
BLACK
6
CONTINUOUS
10
-0.103371
20
2.28336
11
-0.089775
21
2.28315
0
LINE
8
BLACK
6
CONTINUOUS
10
2.46928
20
2.48
11
2.48276
21
2.47822
0
LINE
8
BLACK
6
CONTINUOUS
10
2.48276
20
2.47822
11
2.49595
21
2.47491
0
LINE
8
BLACK
6
CONTINUOUS
10
2.49595
20
2.47491
11
2.50867
21
2.4701
0
LINE
8
BLACK
6
CONTINUOUS
10
2.50867
20
2.4701
11
2.52075
21
2.46387
0
LINE
8
BLACK
6
CONTINUOUS
10
2.52075
20
2.46387
11
2.53204
21
2.45628
0
LINE
8
BLACK
6
CONTINUOUS
10
2.53204
20
2.45628
11
2.54238
21
2.44745
0
LINE
8
BLACK
6
CONTINUOUS
10
2.54238
20
2.44745
11
2.55164
21
2.43749
0
LINE
8
BLACK
6
CONTINUOUS
10
2.55164
20
2.43749
11
2.55969
21
2.42653
0
LINE
8
BLACK
6
CONTINUOUS
10
2.55969
20
2.42653
11
2.56642
21
2.41472
0
LINE
8
BLACK
6
CONTINUOUS
10
2.56642
20
2.41472
11
2.57176
21
2.40221
0
LINE
8
BLACK
6
CONTINUOUS
10
2.57176
20
2.40221
11
2.57562
21
2.38918
0
LINE
8
BLACK
6
CONTINUOUS
10
2.57562
20
2.38918
11
2.57796
21
2.37578
0
LINE
8
BLACK
6
CONTINUOUS
10
2.57796
20
2.37578
11
2.57874
21
2.3622
0
LINE
8
BLACK
6
CONTINUOUS
10
2.57874
20
2.3622
11
2.57851
21
2.35479
0
LINE
8
BLACK
6
CONTINUOUS
10
2.57851
20
2.35479
11
2.57687
21
2.34129
0
LINE
8
BLACK
6
CONTINUOUS
10
2.57687
20
2.34129
11
2.5737
21
2.32807
0
LINE
8
BLACK
6
CONTINUOUS
10
2.5737
20
2.32807
11
2.56903
21
2.3153
0
LINE
8
BLACK
6
CONTINUOUS
10
2.56903
20
2.3153
11
2.56292
21
2.30315
0
LINE
8
BLACK
6
CONTINUOUS
10
2.56292
20
2.30315
11
2.55545
21
2.29178
0
LINE
8
BLACK
6
CONTINUOUS
10
2.55545
20
2.29178
11
2.54673
21
2.28135
0
LINE
8
BLACK
6
CONTINUOUS
10
2.54673
20
2.28135
11
2.53687
21
2.27199
0
LINE
8
BLACK
6
CONTINUOUS
10
2.53687
20
2.27199
11
2.52599
21
2.26383
0
LINE
8
BLACK
6
CONTINUOUS
10
2.52599
20
2.26383
11
2.51425
21
2.25697
0
LINE
8
BLACK
6
CONTINUOUS
10
2.51425
20
2.25697
11
2.5018
21
2.2515
0
LINE
8
BLACK
6
CONTINUOUS
10
2.5018
20
2.2515
11
2.4888
21
2.2475
0
LINE
8
BLACK
6
CONTINUOUS
10
2.4888
20
2.2475
11
2.47543
21
2.24503
0
LINE
8
BLACK
6
CONTINUOUS
10
2.47543
20
2.24503
11
2.46187
21
2.2441
0
LINE
8
BLACK
6
CONTINUOUS
10
2.46187
20
2.2441
11
2.44828
21
2.24474
0
LINE
8
BLACK
6
CONTINUOUS
10
2.44828
20
2.24474
11
2.43486
21
2.24694
0
LINE
8
BLACK
6
CONTINUOUS
10
2.43486
20
2.24694
11
2.42179
21
2.25066
0
LINE
8
BLACK
6
CONTINUOUS
10
2.42179
20
2.25066
11
2.40922
21
2.25587
0
LINE
8
BLACK
6
CONTINUOUS
10
2.40922
20
2.25587
11
2.39734
21
2.26248
0
LINE
8
BLACK
6
CONTINUOUS
10
2.39734
20
2.26248
11
2.3863
21
2.27042
0
LINE
8
BLACK
6
CONTINUOUS
10
2.3863
20
2.27042
11
2.37624
21
2.27957
0
LINE
8
BLACK
6
CONTINUOUS
10
2.37624
20
2.27957
11
2.3673
21
2.28981
0
LINE
8
BLACK
6
CONTINUOUS
10
2.3673
20
2.28981
11
2.3596
21
2.30102
0
LINE
8
BLACK
6
CONTINUOUS
10
2.3596
20
2.30102
11
2.35324
21
2.31304
0
LINE
8
BLACK
6
CONTINUOUS
10
2.35324
20
2.31304
11
2.3483
21
2.32571
0
LINE
8
BLACK
6
CONTINUOUS
10
2.3483
20
2.32571
11
2.34485
21
2.33886
0
LINE
8
BLACK
6
CONTINUOUS
10
2.34485
20
2.33886
11
2.34293
21
2.35232
0
LINE
8
BLACK
6
CONTINUOUS
10
2.34293
20
2.35232
11
2.34258
21
2.36591
0
LINE
8
BLACK
6
CONTINUOUS
10
2.34258
20
2.36591
11
2.34379
21
2.37946
0
LINE
8
BLACK
6
CONTINUOUS
10
2.34379
20
2.37946
11
2.34654
21
2.39277
0
LINE
8
BLACK
6
CONTINUOUS
10
2.34654
20
2.39277
11
2.35081
21
2.40568
0
LINE
8
BLACK
6
CONTINUOUS
10
2.35081
20
2.40568
11
2.35654
21
2.41802
0
LINE
8
BLACK
6
CONTINUOUS
10
2.35654
20
2.41802
11
2.36364
21
2.42961
0
LINE
8
BLACK
6
CONTINUOUS
10
2.36364
20
2.42961
11
2.37203
21
2.44031
0
LINE
8
BLACK
6
CONTINUOUS
10
2.37203
20
2.44031
11
2.3816
21
2.44998
0
LINE
8
BLACK
6
CONTINUOUS
10
2.3816
20
2.44998
11
2.39221
21
2.45848
0
LINE
8
BLACK
6
CONTINUOUS
10
2.39221
20
2.45848
11
2.40373
21
2.46571
0
LINE
8
BLACK
6
CONTINUOUS
10
2.40373
20
2.46571
11
2.416
21
2.47156
0
LINE
8
BLACK
6
CONTINUOUS
10
2.416
20
2.47156
11
2.42887
21
2.47596
0
LINE
8
BLACK
6
CONTINUOUS
10
2.42887
20
2.47596
11
2.44215
21
2.47886
0
LINE
8
BLACK
6
CONTINUOUS
10
2.44215
20
2.47886
11
2.45568
21
2.48021
0
LINE
8
BLACK
6
CONTINUOUS
10
2.45568
20
2.48021
11
2.46928
21
2.48
0
LINE
8
BLACK
6
CONTINUOUS
10
1.58345
20
2.67685
11
1.59693
21
2.67507
0
LINE
8
BLACK
6
CONTINUOUS
10
1.59693
20
2.67507
11
1.61012
21
2.67176
0
LINE
8
BLACK
6
CONTINUOUS
10
1.61012
20
2.67176
11
1.62284
21
2.66695
0
LINE
8
BLACK
6
CONTINUOUS
10
1.62284
20
2.66695
11
1.63493
21
2.66072
0
LINE
8
BLACK
6
CONTINUOUS
10
1.63493
20
2.66072
11
1.64621
21
2.65313
0
LINE
8
BLACK
6
CONTINUOUS
10
1.64621
20
2.65313
11
1.65655
21
2.6443
0
LINE
8
BLACK
6
CONTINUOUS
10
1.65655
20
2.6443
11
1.66581
21
2.63434
0
LINE
8
BLACK
6
CONTINUOUS
10
1.66581
20
2.63434
11
1.67386
21
2.62338
0
LINE
8
BLACK
6
CONTINUOUS
10
1.67386
20
2.62338
11
1.6806
21
2.61157
0
LINE
8
BLACK
6
CONTINUOUS
10
1.6806
20
2.61157
11
1.68593
21
2.59906
0
LINE
8
BLACK
6
CONTINUOUS
10
1.68593
20
2.59906
11
1.68979
21
2.58603
0
LINE
8
BLACK
6
CONTINUOUS
10
1.68979
20
2.58603
11
1.69213
21
2.57263
0
LINE
8
BLACK
6
CONTINUOUS
10
1.69213
20
2.57263
11
1.69291
21
2.55906
0
LINE
8
BLACK
6
CONTINUOUS
10
1.69291
20
2.55906
11
1.69268
21
2.55164
0
LINE
8
BLACK
6
CONTINUOUS
10
1.69268
20
2.55164
11
1.69105
21
2.53814
0
LINE
8
BLACK
6
CONTINUOUS
10
1.69105
20
2.53814
11
1.68787
21
2.52492
0
LINE
8
BLACK
6
CONTINUOUS
10
1.68787
20
2.52492
11
1.6832
21
2.51215
0
LINE
8
BLACK
6
CONTINUOUS
10
1.6832
20
2.51215
11
1.67709
21
2.5
0
LINE
8
BLACK
6
CONTINUOUS
10
1.67709
20
2.5
11
1.66962
21
2.48863
0
LINE
8
BLACK
6
CONTINUOUS
10
1.66962
20
2.48863
11
1.6609
21
2.4782
0
LINE
8
BLACK
6
CONTINUOUS
10
1.6609
20
2.4782
11
1.65104
21
2.46884
0
LINE
8
BLACK
6
CONTINUOUS
10
1.65104
20
2.46884
11
1.64016
21
2.46068
0
LINE
8
BLACK
6
CONTINUOUS
10
1.64016
20
2.46068
11
1.62842
21
2.45382
0
LINE
8
BLACK
6
CONTINUOUS
10
1.62842
20
2.45382
11
1.61597
21
2.44835
0
LINE
8
BLACK
6
CONTINUOUS
10
1.61597
20
2.44835
11
1.60298
21
2.44435
0
LINE
8
BLACK
6
CONTINUOUS
10
1.60298
20
2.44435
11
1.58961
21
2.44188
0
LINE
8
BLACK
6
CONTINUOUS
10
1.58961
20
2.44188
11
1.57604
21
2.44095
0
LINE
8
BLACK
6
CONTINUOUS
10
1.57604
20
2.44095
11
1.56246
21
2.44159
0
LINE
8
BLACK
6
CONTINUOUS
10
1.56246
20
2.44159
11
1.54904
21
2.44379
0
LINE
8
BLACK
6
CONTINUOUS
10
1.54904
20
2.44379
11
1.53596
21
2.44751
0
LINE
8
BLACK
6
CONTINUOUS
10
1.53596
20
2.44751
11
1.5234
21
2.45272
0
LINE
8
BLACK
6
CONTINUOUS
10
1.5234
20
2.45272
11
1.51152
21
2.45933
0
LINE
8
BLACK
6
CONTINUOUS
10
1.51152
20
2.45933
11
1.50047
21
2.46727
0
LINE
8
BLACK
6
CONTINUOUS
10
1.50047
20
2.46727
11
1.49042
21
2.47642
0
LINE
8
BLACK
6
CONTINUOUS
10
1.49042
20
2.47642
11
1.48148
21
2.48666
0
LINE
8
BLACK
6
CONTINUOUS
10
1.48148
20
2.48666
11
1.47378
21
2.49787
0
LINE
8
BLACK
6
CONTINUOUS
10
1.47378
20
2.49787
11
1.46741
21
2.50989
0
LINE
8
BLACK
6
CONTINUOUS
10
1.46741
20
2.50989
11
1.46247
21
2.52256
0
LINE
8
BLACK
6
CONTINUOUS
10
1.46247
20
2.52256
11
1.45902
21
2.53571
0
LINE
8
BLACK
6
CONTINUOUS
10
1.45902
20
2.53571
11
1.45711
21
2.54917
0
LINE
8
BLACK
6
CONTINUOUS
10
1.45711
20
2.54917
11
1.45675
21
2.56277
0
LINE
8
BLACK
6
CONTINUOUS
10
1.45675
20
2.56277
11
1.45796
21
2.57631
0
LINE
8
BLACK
6
CONTINUOUS
10
1.45796
20
2.57631
11
1.46072
21
2.58962
0
LINE
8
BLACK
6
CONTINUOUS
10
1.46072
20
2.58962
11
1.46499
21
2.60253
0
LINE
8
BLACK
6
CONTINUOUS
10
1.46499
20
2.60253
11
1.47071
21
2.61487
0
LINE
8
BLACK
6
CONTINUOUS
10
1.47071
20
2.61487
11
1.47782
21
2.62646
0
LINE
8
BLACK
6
CONTINUOUS
10
1.47782
20
2.62646
11
1.48621
21
2.63716
0
LINE
8
BLACK
6
CONTINUOUS
10
1.48621
20
2.63716
11
1.49577
21
2.64683
0
LINE
8
BLACK
6
CONTINUOUS
10
1.49577
20
2.64683
11
1.50638
21
2.65533
0
LINE
8
BLACK
6
CONTINUOUS
10
1.50638
20
2.65533
11
1.5179
21
2.66256
0
LINE
8
BLACK
6
CONTINUOUS
10
1.5179
20
2.66256
11
1.53018
21
2.66841
0
LINE
8
BLACK
6
CONTINUOUS
10
1.53018
20
2.66841
11
1.54304
21
2.67281
0
LINE
8
BLACK
6
CONTINUOUS
10
1.54304
20
2.67281
11
1.55633
21
2.67571
0
LINE
8
BLACK
6
CONTINUOUS
10
1.55633
20
2.67571
11
1.56986
21
2.67706
0
LINE
8
BLACK
6
CONTINUOUS
10
1.56986
20
2.67706
11
1.58345
21
2.67685
0
LINE
8
BLACK
6
CONTINUOUS
10
2.37085
20
2.77527
11
2.38434
21
2.7735
0
LINE
8
BLACK
6
CONTINUOUS
10
2.38434
20
2.7735
11
2.39752
21
2.77019
0
LINE
8
BLACK
6
CONTINUOUS
10
2.39752
20
2.77019
11
2.41024
21
2.76538
0
LINE
8
BLACK
6
CONTINUOUS
10
2.41024
20
2.76538
11
2.42233
21
2.75914
0
LINE
8
BLACK
6
CONTINUOUS
10
2.42233
20
2.75914
11
2.43361
21
2.75156
0
LINE
8
BLACK
6
CONTINUOUS
10
2.43361
20
2.75156
11
2.44395
21
2.74273
0
LINE
8
BLACK
6
CONTINUOUS
10
2.44395
20
2.74273
11
2.45321
21
2.73277
0
LINE
8
BLACK
6
CONTINUOUS
10
2.45321
20
2.73277
11
2.46126
21
2.72181
0
LINE
8
BLACK
6
CONTINUOUS
10
2.46126
20
2.72181
11
2.468
21
2.71
0
LINE
8
BLACK
6
CONTINUOUS
10
2.468
20
2.71
11
2.47333
21
2.69749
0
LINE
8
BLACK
6
CONTINUOUS
10
2.47333
20
2.69749
11
2.47719
21
2.68445
0
LINE
8
BLACK
6
CONTINUOUS
10
2.47719
20
2.68445
11
2.47953
21
2.67106
0
LINE
8
BLACK
6
CONTINUOUS
10
2.47953
20
2.67106
11
2.48031
21
2.65748
0
LINE
8
BLACK
6
CONTINUOUS
10
2.48031
20
2.65748
11
2.48008
21
2.65006
0
LINE
8
BLACK
6
CONTINUOUS
10
2.48008
20
2.65006
11
2.47845
21
2.63656
0
LINE
8
BLACK
6
CONTINUOUS
10
2.47845
20
2.63656
11
2.47527
21
2.62334
0
LINE
8
BLACK
6
CONTINUOUS
10
2.47527
20
2.62334
11
2.4706
21
2.61057
0
LINE
8
BLACK
6
CONTINUOUS
10
2.4706
20
2.61057
11
2.46449
21
2.59843
0
LINE
8
BLACK
6
CONTINUOUS
10
2.46449
20
2.59843
11
2.45703
21
2.58706
0
LINE
8
BLACK
6
CONTINUOUS
10
2.45703
20
2.58706
11
2.4483
21
2.57663
0
LINE
8
BLACK
6
CONTINUOUS
10
2.4483
20
2.57663
11
2.43844
21
2.56727
0
LINE
8
BLACK
6
CONTINUOUS
10
2.43844
20
2.56727
11
2.42757
21
2.5591
0
LINE
8
BLACK
6
CONTINUOUS
10
2.42757
20
2.5591
11
2.41583
21
2.55224
0
LINE
8
BLACK
6
CONTINUOUS
10
2.41583
20
2.55224
11
2.40337
21
2.54678
0
LINE
8
BLACK
6
CONTINUOUS
10
2.40337
20
2.54678
11
2.39038
21
2.54278
0
LINE
8
BLACK
6
CONTINUOUS
10
2.39038
20
2.54278
11
2.37701
21
2.5403
0
LINE
8
BLACK
6
CONTINUOUS
10
2.37701
20
2.5403
11
2.36344
21
2.53938
0
LINE
8
BLACK
6
CONTINUOUS
10
2.36344
20
2.53938
11
2.34986
21
2.54002
0
LINE
8
BLACK
6
CONTINUOUS
10
2.34986
20
2.54002
11
2.33644
21
2.54221
0
LINE
8
BLACK
6
CONTINUOUS
10
2.33644
20
2.54221
11
2.32336
21
2.54594
0
LINE
8
BLACK
6
CONTINUOUS
10
2.32336
20
2.54594
11
2.3108
21
2.55114
0
LINE
8
BLACK
6
CONTINUOUS
10
2.3108
20
2.55114
11
2.29892
21
2.55776
0
LINE
8
BLACK
6
CONTINUOUS
10
2.29892
20
2.55776
11
2.28788
21
2.56569
0
LINE
8
BLACK
6
CONTINUOUS
10
2.28788
20
2.56569
11
2.27782
21
2.57484
0
LINE
8
BLACK
6
CONTINUOUS
10
2.27782
20
2.57484
11
2.26888
21
2.58509
0
LINE
8
BLACK
6
CONTINUOUS
10
2.26888
20
2.58509
11
2.26118
21
2.5963
0
LINE
8
BLACK
6
CONTINUOUS
10
2.26118
20
2.5963
11
2.25481
21
2.60831
0
LINE
8
BLACK
6
CONTINUOUS
10
2.25481
20
2.60831
11
2.24988
21
2.62098
0
LINE
8
BLACK
6
CONTINUOUS
10
2.24988
20
2.62098
11
2.24642
21
2.63413
0
LINE
8
BLACK
6
CONTINUOUS
10
2.24642
20
2.63413
11
2.24451
21
2.6476
0
LINE
8
BLACK
6
CONTINUOUS
10
2.24451
20
2.6476
11
2.24415
21
2.66119
0
LINE
8
BLACK
6
CONTINUOUS
10
2.24415
20
2.66119
11
2.24536
21
2.67473
0
LINE
8
BLACK
6
CONTINUOUS
10
2.24536
20
2.67473
11
2.24812
21
2.68805
0
LINE
8
BLACK
6
CONTINUOUS
10
2.24812
20
2.68805
11
2.25239
21
2.70096
0
LINE
8
BLACK
6
CONTINUOUS
10
2.25239
20
2.70096
11
2.25811
21
2.71329
0
LINE
8
BLACK
6
CONTINUOUS
10
2.25811
20
2.71329
11
2.26522
21
2.72489
0
LINE
8
BLACK
6
CONTINUOUS
10
2.26522
20
2.72489
11
2.27361
21
2.73559
0
LINE
8
BLACK
6
CONTINUOUS
10
2.27361
20
2.73559
11
2.28317
21
2.74525
0
LINE
8
BLACK
6
CONTINUOUS
10
2.28317
20
2.74525
11
2.29379
21
2.75376
0
LINE
8
BLACK
6
CONTINUOUS
10
2.29379
20
2.75376
11
2.3053
21
2.76098
0
LINE
8
BLACK
6
CONTINUOUS
10
2.3053
20
2.76098
11
2.31758
21
2.76684
0
LINE
8
BLACK
6
CONTINUOUS
10
2.31758
20
2.76684
11
2.33044
21
2.77124
0
LINE
8
BLACK
6
CONTINUOUS
10
2.33044
20
2.77124
11
2.34373
21
2.77414
0
LINE
8
BLACK
6
CONTINUOUS
10
2.34373
20
2.77414
11
2.35726
21
2.77549
0
LINE
8
BLACK
6
CONTINUOUS
10
2.35726
20
2.77549
11
2.37085
21
2.77527
  0
ENDSEC
  0
EOF
