  0
SECTION
  2
HEADER
  9
$ANGBASE
  50
0.0
  9
$ANGDIR
  70
1
  9
$MEASUREMENT
  70
0
  0
ENDSEC
  0
SECTION
  2
TABLES
  0
TABLE
  2
LTYPE
  70
4
  0
LTYPE
  5
40F
  2
CONTINUOUS
  70
0
  3
Solid line
  72
65
  73
0
  40
0.0
  0
LTYPE
  5
410
  2
DASHDOT
 70
0
  3
Dash Dot ____ _ ____ _
 72
65
 73
4
 40
2.0
 49
1.25
 49
-0.25
 49
0.25
 49
-0.25
  0
LTYPE
  5
411
  2
DASHED
 70
0
  3
Dashed __ __ __ __ __
 72
65
 73
2
 40
0.75
 49
0.5
 49
-0.25
  0
LTYPE
  5
43B
  2
DOTTED
 70
0
  3
Dotted .  .  .  .
 72
65
 73
2
 40
0.2
 49
0.0
 49
-0.2
  0
ENDTAB
  0
TABLE
  2
STYLE
  70
4
  0
STYLE
  2
KICAD
  70
0
  40
0
  41
1
  42
1
  50
0
  71
0
  3
isocp.shx
  0
STYLE
  2
KICADB
  70
0
  40
0
  41
1
  42
1
  50
0
  71
0
  3
isocp.shx
  0
STYLE
  2
KICADI
  70
0
  40
0
  41
1
  42
1
  50
15
  71
0
  3
isocp.shx
  0
STYLE
  2
KICADBI
  70
0
  40
0
  41
1
  42
1
  50
15
  71
0
  3
isocp.shx
  0
ENDTAB
  0
TABLE
  2
LAYER
  70
1
  0
LAYER
  2
BLACK
  70
0
  62
7
  6
CONTINUOUS
  0
ENDTAB
  0
ENDSEC
  0
SECTION
  2
ENTITIES
0
LINE
8
BLACK
6
CONTINUOUS
10
0.231902
20
0.0331623
11
0.231614
21
0.0338583
0
LINE
8
BLACK
6
CONTINUOUS
10
0.231614
20
0.0338583
11
0.231614
21
0.166142
0
LINE
8
BLACK
6
CONTINUOUS
10
0.231614
20
0.166142
11
0.231902
21
0.166838
0
LINE
8
BLACK
6
CONTINUOUS
10
0.231902
20
0.166838
11
0.232598
21
0.167126
0
LINE
8
BLACK
6
CONTINUOUS
10
0.232598
20
0.167126
11
0.307402
21
0.167126
0
LINE
8
BLACK
6
CONTINUOUS
10
0.307402
20
0.167126
11
0.308098
21
0.166838
0
LINE
8
BLACK
6
CONTINUOUS
10
0.308098
20
0.166838
11
0.308386
21
0.166142
0
LINE
8
BLACK
6
CONTINUOUS
10
0.308386
20
0.166142
11
0.308386
21
0.0338583
0
LINE
8
BLACK
6
CONTINUOUS
10
0.308386
20
0.0338583
11
0.308098
21
0.0331623
0
LINE
8
BLACK
6
CONTINUOUS
10
0.308098
20
0.0331623
11
0.307402
21
0.032874
0
LINE
8
BLACK
6
CONTINUOUS
10
0.307402
20
0.032874
11
0.232598
21
0.032874
0
LINE
8
BLACK
6
CONTINUOUS
10
0.232598
20
0.032874
11
0.231902
21
0.0331623
0
LINE
8
BLACK
6
CONTINUOUS
10
0.233583
20
0.165157
11
0.233583
21
0.0348425
0
LINE
8
BLACK
6
CONTINUOUS
10
0.233583
20
0.0348425
11
0.306417
21
0.0348425
0
LINE
8
BLACK
6
CONTINUOUS
10
0.306417
20
0.0348425
11
0.306417
21
0.165157
0
LINE
8
BLACK
6
CONTINUOUS
10
0.306417
20
0.165157
11
0.233583
21
0.165157
0
LINE
8
BLACK
6
CONTINUOUS
10
0.357857
20
0.119038
11
0.357569
21
0.119734
0
LINE
8
BLACK
6
CONTINUOUS
10
0.357569
20
0.119734
11
0.357569
21
0.253593
0
LINE
8
BLACK
6
CONTINUOUS
10
0.357569
20
0.253593
11
0.357857
21
0.254289
0
LINE
8
BLACK
6
CONTINUOUS
10
0.357857
20
0.254289
11
0.358553
21
0.254577
0
LINE
8
BLACK
6
CONTINUOUS
10
0.358553
20
0.254577
11
0.51997
21
0.254577
0
LINE
8
BLACK
6
CONTINUOUS
10
0.51997
20
0.254577
11
0.520666
21
0.254289
0
LINE
8
BLACK
6
CONTINUOUS
10
0.520666
20
0.254289
11
0.520955
21
0.253593
0
LINE
8
BLACK
6
CONTINUOUS
10
0.520955
20
0.253593
11
0.520955
21
0.119734
0
LINE
8
BLACK
6
CONTINUOUS
10
0.520955
20
0.119734
11
0.520666
21
0.119038
0
LINE
8
BLACK
6
CONTINUOUS
10
0.520666
20
0.119038
11
0.51997
21
0.11875
0
LINE
8
BLACK
6
CONTINUOUS
10
0.51997
20
0.11875
11
0.358553
21
0.11875
0
LINE
8
BLACK
6
CONTINUOUS
10
0.358553
20
0.11875
11
0.357857
21
0.119038
0
LINE
8
BLACK
6
CONTINUOUS
10
0.359537
20
0.252608
11
0.359537
21
0.120719
0
LINE
8
BLACK
6
CONTINUOUS
10
0.359537
20
0.120719
11
0.518986
21
0.120719
0
LINE
8
BLACK
6
CONTINUOUS
10
0.518986
20
0.120719
11
0.518986
21
0.252608
0
LINE
8
BLACK
6
CONTINUOUS
10
0.518986
20
0.252608
11
0.359537
21
0.252608
0
LINE
8
BLACK
6
CONTINUOUS
10
0.660721
20
0.122375
11
0.660433
21
0.123071
0
LINE
8
BLACK
6
CONTINUOUS
10
0.660433
20
0.123071
11
0.660433
21
0.256929
0
LINE
8
BLACK
6
CONTINUOUS
10
0.660433
20
0.256929
11
0.660721
21
0.257625
0
LINE
8
BLACK
6
CONTINUOUS
10
0.660721
20
0.257625
11
0.661417
21
0.257913
0
LINE
8
BLACK
6
CONTINUOUS
10
0.661417
20
0.257913
11
0.738583
21
0.257913
0
LINE
8
BLACK
6
CONTINUOUS
10
0.738583
20
0.257913
11
0.739279
21
0.257625
0
LINE
8
BLACK
6
CONTINUOUS
10
0.739279
20
0.257625
11
0.739567
21
0.256929
0
LINE
8
BLACK
6
CONTINUOUS
10
0.739567
20
0.256929
11
0.739567
21
0.123071
0
LINE
8
BLACK
6
CONTINUOUS
10
0.739567
20
0.123071
11
0.739279
21
0.122375
0
LINE
8
BLACK
6
CONTINUOUS
10
0.739279
20
0.122375
11
0.738583
21
0.122087
0
LINE
8
BLACK
6
CONTINUOUS
10
0.738583
20
0.122087
11
0.661417
21
0.122087
0
LINE
8
BLACK
6
CONTINUOUS
10
0.661417
20
0.122087
11
0.660721
21
0.122375
0
LINE
8
BLACK
6
CONTINUOUS
10
0.662402
20
0.255945
11
0.662402
21
0.124055
0
LINE
8
BLACK
6
CONTINUOUS
10
0.662402
20
0.124055
11
0.737598
21
0.124055
0
LINE
8
BLACK
6
CONTINUOUS
10
0.737598
20
0.124055
11
0.737598
21
0.255945
0
LINE
8
BLACK
6
CONTINUOUS
10
0.737598
20
0.255945
11
0.662402
21
0.255945
0
LINE
8
BLACK
6
CONTINUOUS
10
0.561902
20
0.123162
11
0.561614
21
0.123858
0
LINE
8
BLACK
6
CONTINUOUS
10
0.561614
20
0.123858
11
0.561614
21
0.256142
0
LINE
8
BLACK
6
CONTINUOUS
10
0.561614
20
0.256142
11
0.561902
21
0.256838
0
LINE
8
BLACK
6
CONTINUOUS
10
0.561902
20
0.256838
11
0.562598
21
0.257126
0
LINE
8
BLACK
6
CONTINUOUS
10
0.562598
20
0.257126
11
0.637402
21
0.257126
0
LINE
8
BLACK
6
CONTINUOUS
10
0.637402
20
0.257126
11
0.638098
21
0.256838
0
LINE
8
BLACK
6
CONTINUOUS
10
0.638098
20
0.256838
11
0.638386
21
0.256142
0
LINE
8
BLACK
6
CONTINUOUS
10
0.638386
20
0.256142
11
0.638386
21
0.123858
0
LINE
8
BLACK
6
CONTINUOUS
10
0.638386
20
0.123858
11
0.638098
21
0.123162
0
LINE
8
BLACK
6
CONTINUOUS
10
0.638098
20
0.123162
11
0.637402
21
0.122874
0
LINE
8
BLACK
6
CONTINUOUS
10
0.637402
20
0.122874
11
0.562598
21
0.122874
0
LINE
8
BLACK
6
CONTINUOUS
10
0.562598
20
0.122874
11
0.561902
21
0.123162
0
LINE
8
BLACK
6
CONTINUOUS
10
0.563583
20
0.255157
11
0.563583
21
0.124843
0
LINE
8
BLACK
6
CONTINUOUS
10
0.563583
20
0.124843
11
0.636417
21
0.124843
0
LINE
8
BLACK
6
CONTINUOUS
10
0.636417
20
0.124843
11
0.636417
21
0.255157
0
LINE
8
BLACK
6
CONTINUOUS
10
0.636417
20
0.255157
11
0.563583
21
0.255157
0
LINE
8
BLACK
6
CONTINUOUS
10
0.0511643
20
0.149826
11
0.050876
21
0.150522
0
LINE
8
BLACK
6
CONTINUOUS
10
0.050876
20
0.150522
11
0.050876
21
0.282805
0
LINE
8
BLACK
6
CONTINUOUS
10
0.050876
20
0.282805
11
0.0511643
21
0.283501
0
LINE
8
BLACK
6
CONTINUOUS
10
0.0511643
20
0.283501
11
0.0518602
21
0.283789
0
LINE
8
BLACK
6
CONTINUOUS
10
0.0518602
20
0.283789
11
0.126663
21
0.283789
0
LINE
8
BLACK
6
CONTINUOUS
10
0.126663
20
0.283789
11
0.127359
21
0.283501
0
LINE
8
BLACK
6
CONTINUOUS
10
0.127359
20
0.283501
11
0.127648
21
0.282805
0
LINE
8
BLACK
6
CONTINUOUS
10
0.127648
20
0.282805
11
0.127648
21
0.150522
0
LINE
8
BLACK
6
CONTINUOUS
10
0.127648
20
0.150522
11
0.127359
21
0.149826
0
LINE
8
BLACK
6
CONTINUOUS
10
0.127359
20
0.149826
11
0.126663
21
0.149537
0
LINE
8
BLACK
6
CONTINUOUS
10
0.126663
20
0.149537
11
0.0518602
21
0.149537
0
LINE
8
BLACK
6
CONTINUOUS
10
0.0518602
20
0.149537
11
0.0511643
21
0.149826
0
LINE
8
BLACK
6
CONTINUOUS
10
0.0528445
20
0.281821
11
0.0528445
21
0.151506
0
LINE
8
BLACK
6
CONTINUOUS
10
0.0528445
20
0.151506
11
0.125679
21
0.151506
0
LINE
8
BLACK
6
CONTINUOUS
10
0.125679
20
0.151506
11
0.125679
21
0.281821
0
LINE
8
BLACK
6
CONTINUOUS
10
0.125679
20
0.281821
11
0.0528445
21
0.281821
0
LINE
8
BLACK
6
CONTINUOUS
10
0.141164
20
0.149826
11
0.140876
21
0.150522
0
LINE
8
BLACK
6
CONTINUOUS
10
0.140876
20
0.150522
11
0.140876
21
0.282805
0
LINE
8
BLACK
6
CONTINUOUS
10
0.140876
20
0.282805
11
0.141164
21
0.283501
0
LINE
8
BLACK
6
CONTINUOUS
10
0.141164
20
0.283501
11
0.14186
21
0.283789
0
LINE
8
BLACK
6
CONTINUOUS
10
0.14186
20
0.283789
11
0.216663
21
0.283789
0
LINE
8
BLACK
6
CONTINUOUS
10
0.216663
20
0.283789
11
0.217359
21
0.283501
0
LINE
8
BLACK
6
CONTINUOUS
10
0.217359
20
0.283501
11
0.217648
21
0.282805
0
LINE
8
BLACK
6
CONTINUOUS
10
0.217648
20
0.282805
11
0.217648
21
0.150522
0
LINE
8
BLACK
6
CONTINUOUS
10
0.217648
20
0.150522
11
0.217359
21
0.149826
0
LINE
8
BLACK
6
CONTINUOUS
10
0.217359
20
0.149826
11
0.216663
21
0.149537
0
LINE
8
BLACK
6
CONTINUOUS
10
0.216663
20
0.149537
11
0.14186
21
0.149537
0
LINE
8
BLACK
6
CONTINUOUS
10
0.14186
20
0.149537
11
0.141164
21
0.149826
0
LINE
8
BLACK
6
CONTINUOUS
10
0.142844
20
0.281821
11
0.142844
21
0.151506
0
LINE
8
BLACK
6
CONTINUOUS
10
0.142844
20
0.151506
11
0.215679
21
0.151506
0
LINE
8
BLACK
6
CONTINUOUS
10
0.215679
20
0.151506
11
0.215679
21
0.281821
0
LINE
8
BLACK
6
CONTINUOUS
10
0.215679
20
0.281821
11
0.142844
21
0.281821
0
LINE
8
BLACK
6
CONTINUOUS
10
1.37072
20
0.152375
11
1.37043
21
0.153071
0
LINE
8
BLACK
6
CONTINUOUS
10
1.37043
20
0.153071
11
1.37043
21
0.286929
0
LINE
8
BLACK
6
CONTINUOUS
10
1.37043
20
0.286929
11
1.37072
21
0.287625
0
LINE
8
BLACK
6
CONTINUOUS
10
1.37072
20
0.287625
11
1.37142
21
0.287913
0
LINE
8
BLACK
6
CONTINUOUS
10
1.37142
20
0.287913
11
1.44858
21
0.287913
0
LINE
8
BLACK
6
CONTINUOUS
10
1.44858
20
0.287913
11
1.44928
21
0.287625
0
LINE
8
BLACK
6
CONTINUOUS
10
1.44928
20
0.287625
11
1.44957
21
0.286929
0
LINE
8
BLACK
6
CONTINUOUS
10
1.44957
20
0.286929
11
1.44957
21
0.153071
0
LINE
8
BLACK
6
CONTINUOUS
10
1.44957
20
0.153071
11
1.44928
21
0.152375
0
LINE
8
BLACK
6
CONTINUOUS
10
1.44928
20
0.152375
11
1.44858
21
0.152087
0
LINE
8
BLACK
6
CONTINUOUS
10
1.44858
20
0.152087
11
1.37142
21
0.152087
0
LINE
8
BLACK
6
CONTINUOUS
10
1.37142
20
0.152087
11
1.37072
21
0.152375
0
LINE
8
BLACK
6
CONTINUOUS
10
1.3724
20
0.285945
11
1.3724
21
0.154055
0
LINE
8
BLACK
6
CONTINUOUS
10
1.3724
20
0.154055
11
1.4476
21
0.154055
0
LINE
8
BLACK
6
CONTINUOUS
10
1.4476
20
0.154055
11
1.4476
21
0.285945
0
LINE
8
BLACK
6
CONTINUOUS
10
1.4476
20
0.285945
11
1.3724
21
0.285945
0
LINE
8
BLACK
6
CONTINUOUS
10
1.73072
20
0.152375
11
1.73043
21
0.153071
0
LINE
8
BLACK
6
CONTINUOUS
10
1.73043
20
0.153071
11
1.73043
21
0.286929
0
LINE
8
BLACK
6
CONTINUOUS
10
1.73043
20
0.286929
11
1.73072
21
0.287625
0
LINE
8
BLACK
6
CONTINUOUS
10
1.73072
20
0.287625
11
1.73142
21
0.287913
0
LINE
8
BLACK
6
CONTINUOUS
10
1.73142
20
0.287913
11
1.80858
21
0.287913
0
LINE
8
BLACK
6
CONTINUOUS
10
1.80858
20
0.287913
11
1.80928
21
0.287625
0
LINE
8
BLACK
6
CONTINUOUS
10
1.80928
20
0.287625
11
1.80957
21
0.286929
0
LINE
8
BLACK
6
CONTINUOUS
10
1.80957
20
0.286929
11
1.80957
21
0.153071
0
LINE
8
BLACK
6
CONTINUOUS
10
1.80957
20
0.153071
11
1.80928
21
0.152375
0
LINE
8
BLACK
6
CONTINUOUS
10
1.80928
20
0.152375
11
1.80858
21
0.152087
0
LINE
8
BLACK
6
CONTINUOUS
10
1.80858
20
0.152087
11
1.73142
21
0.152087
0
LINE
8
BLACK
6
CONTINUOUS
10
1.73142
20
0.152087
11
1.73072
21
0.152375
0
LINE
8
BLACK
6
CONTINUOUS
10
1.7324
20
0.285945
11
1.7324
21
0.154055
0
LINE
8
BLACK
6
CONTINUOUS
10
1.7324
20
0.154055
11
1.8076
21
0.154055
0
LINE
8
BLACK
6
CONTINUOUS
10
1.8076
20
0.154055
11
1.8076
21
0.285945
0
LINE
8
BLACK
6
CONTINUOUS
10
1.8076
20
0.285945
11
1.7324
21
0.285945
0
LINE
8
BLACK
6
CONTINUOUS
10
1.61072
20
0.152375
11
1.61043
21
0.153071
0
LINE
8
BLACK
6
CONTINUOUS
10
1.61043
20
0.153071
11
1.61043
21
0.286929
0
LINE
8
BLACK
6
CONTINUOUS
10
1.61043
20
0.286929
11
1.61072
21
0.287625
0
LINE
8
BLACK
6
CONTINUOUS
10
1.61072
20
0.287625
11
1.61142
21
0.287913
0
LINE
8
BLACK
6
CONTINUOUS
10
1.61142
20
0.287913
11
1.68858
21
0.287913
0
LINE
8
BLACK
6
CONTINUOUS
10
1.68858
20
0.287913
11
1.68928
21
0.287625
0
LINE
8
BLACK
6
CONTINUOUS
10
1.68928
20
0.287625
11
1.68957
21
0.286929
0
LINE
8
BLACK
6
CONTINUOUS
10
1.68957
20
0.286929
11
1.68957
21
0.153071
0
LINE
8
BLACK
6
CONTINUOUS
10
1.68957
20
0.153071
11
1.68928
21
0.152375
0
LINE
8
BLACK
6
CONTINUOUS
10
1.68928
20
0.152375
11
1.68858
21
0.152087
0
LINE
8
BLACK
6
CONTINUOUS
10
1.68858
20
0.152087
11
1.61142
21
0.152087
0
LINE
8
BLACK
6
CONTINUOUS
10
1.61142
20
0.152087
11
1.61072
21
0.152375
0
LINE
8
BLACK
6
CONTINUOUS
10
1.6124
20
0.285945
11
1.6124
21
0.154055
0
LINE
8
BLACK
6
CONTINUOUS
10
1.6124
20
0.154055
11
1.6876
21
0.154055
0
LINE
8
BLACK
6
CONTINUOUS
10
1.6876
20
0.154055
11
1.6876
21
0.285945
0
LINE
8
BLACK
6
CONTINUOUS
10
1.6876
20
0.285945
11
1.6124
21
0.285945
0
LINE
8
BLACK
6
CONTINUOUS
10
1.49072
20
0.152375
11
1.49043
21
0.153071
0
LINE
8
BLACK
6
CONTINUOUS
10
1.49043
20
0.153071
11
1.49043
21
0.286929
0
LINE
8
BLACK
6
CONTINUOUS
10
1.49043
20
0.286929
11
1.49072
21
0.287625
0
LINE
8
BLACK
6
CONTINUOUS
10
1.49072
20
0.287625
11
1.49142
21
0.287913
0
LINE
8
BLACK
6
CONTINUOUS
10
1.49142
20
0.287913
11
1.56858
21
0.287913
0
LINE
8
BLACK
6
CONTINUOUS
10
1.56858
20
0.287913
11
1.56928
21
0.287625
0
LINE
8
BLACK
6
CONTINUOUS
10
1.56928
20
0.287625
11
1.56957
21
0.286929
0
LINE
8
BLACK
6
CONTINUOUS
10
1.56957
20
0.286929
11
1.56957
21
0.153071
0
LINE
8
BLACK
6
CONTINUOUS
10
1.56957
20
0.153071
11
1.56928
21
0.152375
0
LINE
8
BLACK
6
CONTINUOUS
10
1.56928
20
0.152375
11
1.56858
21
0.152087
0
LINE
8
BLACK
6
CONTINUOUS
10
1.56858
20
0.152087
11
1.49142
21
0.152087
0
LINE
8
BLACK
6
CONTINUOUS
10
1.49142
20
0.152087
11
1.49072
21
0.152375
0
LINE
8
BLACK
6
CONTINUOUS
10
1.4924
20
0.285945
11
1.4924
21
0.154055
0
LINE
8
BLACK
6
CONTINUOUS
10
1.4924
20
0.154055
11
1.5676
21
0.154055
0
LINE
8
BLACK
6
CONTINUOUS
10
1.5676
20
0.154055
11
1.5676
21
0.285945
0
LINE
8
BLACK
6
CONTINUOUS
10
1.5676
20
0.285945
11
1.4924
21
0.285945
0
LINE
8
BLACK
6
CONTINUOUS
10
0.770721
20
0.172375
11
0.770433
21
0.173071
0
LINE
8
BLACK
6
CONTINUOUS
10
0.770433
20
0.173071
11
0.770433
21
0.306929
0
LINE
8
BLACK
6
CONTINUOUS
10
0.770433
20
0.306929
11
0.770721
21
0.307625
0
LINE
8
BLACK
6
CONTINUOUS
10
0.770721
20
0.307625
11
0.771417
21
0.307913
0
LINE
8
BLACK
6
CONTINUOUS
10
0.771417
20
0.307913
11
0.848583
21
0.307913
0
LINE
8
BLACK
6
CONTINUOUS
10
0.848583
20
0.307913
11
0.849279
21
0.307625
0
LINE
8
BLACK
6
CONTINUOUS
10
0.849279
20
0.307625
11
0.849567
21
0.306929
0
LINE
8
BLACK
6
CONTINUOUS
10
0.849567
20
0.306929
11
0.849567
21
0.173071
0
LINE
8
BLACK
6
CONTINUOUS
10
0.849567
20
0.173071
11
0.849279
21
0.172375
0
LINE
8
BLACK
6
CONTINUOUS
10
0.849279
20
0.172375
11
0.848583
21
0.172087
0
LINE
8
BLACK
6
CONTINUOUS
10
0.848583
20
0.172087
11
0.771417
21
0.172087
0
LINE
8
BLACK
6
CONTINUOUS
10
0.771417
20
0.172087
11
0.770721
21
0.172375
0
LINE
8
BLACK
6
CONTINUOUS
10
0.772402
20
0.305945
11
0.772402
21
0.174055
0
LINE
8
BLACK
6
CONTINUOUS
10
0.772402
20
0.174055
11
0.847598
21
0.174055
0
LINE
8
BLACK
6
CONTINUOUS
10
0.847598
20
0.174055
11
0.847598
21
0.305945
0
LINE
8
BLACK
6
CONTINUOUS
10
0.847598
20
0.305945
11
0.772402
21
0.305945
0
LINE
8
BLACK
6
CONTINUOUS
10
0.251902
20
0.177237
11
0.251614
21
0.177933
0
LINE
8
BLACK
6
CONTINUOUS
10
0.251614
20
0.177933
11
0.251614
21
0.310217
0
LINE
8
BLACK
6
CONTINUOUS
10
0.251614
20
0.310217
11
0.251902
21
0.310913
0
LINE
8
BLACK
6
CONTINUOUS
10
0.251902
20
0.310913
11
0.252598
21
0.311201
0
LINE
8
BLACK
6
CONTINUOUS
10
0.252598
20
0.311201
11
0.327402
21
0.311201
0
LINE
8
BLACK
6
CONTINUOUS
10
0.327402
20
0.311201
11
0.328098
21
0.310913
0
LINE
8
BLACK
6
CONTINUOUS
10
0.328098
20
0.310913
11
0.328386
21
0.310217
0
LINE
8
BLACK
6
CONTINUOUS
10
0.328386
20
0.310217
11
0.328386
21
0.177933
0
LINE
8
BLACK
6
CONTINUOUS
10
0.328386
20
0.177933
11
0.328098
21
0.177237
0
LINE
8
BLACK
6
CONTINUOUS
10
0.328098
20
0.177237
11
0.327402
21
0.176949
0
LINE
8
BLACK
6
CONTINUOUS
10
0.327402
20
0.176949
11
0.252598
21
0.176949
0
LINE
8
BLACK
6
CONTINUOUS
10
0.252598
20
0.176949
11
0.251902
21
0.177237
0
LINE
8
BLACK
6
CONTINUOUS
10
0.253583
20
0.309232
11
0.253583
21
0.178917
0
LINE
8
BLACK
6
CONTINUOUS
10
0.253583
20
0.178917
11
0.326417
21
0.178917
0
LINE
8
BLACK
6
CONTINUOUS
10
0.326417
20
0.178917
11
0.326417
21
0.309232
0
LINE
8
BLACK
6
CONTINUOUS
10
0.326417
20
0.309232
11
0.253583
21
0.309232
0
LINE
8
BLACK
6
CONTINUOUS
10
1.87174
20
0.180091
11
1.87146
21
0.180787
0
LINE
8
BLACK
6
CONTINUOUS
10
1.87146
20
0.180787
11
1.87146
21
0.279213
0
LINE
8
BLACK
6
CONTINUOUS
10
1.87146
20
0.279213
11
1.87174
21
0.279909
0
LINE
8
BLACK
6
CONTINUOUS
10
1.87174
20
0.279909
11
1.87244
21
0.280197
0
LINE
8
BLACK
6
CONTINUOUS
10
1.87244
20
0.280197
11
1.92756
21
0.280197
0
LINE
8
BLACK
6
CONTINUOUS
10
1.92756
20
0.280197
11
1.92826
21
0.279909
0
LINE
8
BLACK
6
CONTINUOUS
10
1.92826
20
0.279909
11
1.92854
21
0.279213
0
LINE
8
BLACK
6
CONTINUOUS
10
1.92854
20
0.279213
11
1.92854
21
0.180787
0
LINE
8
BLACK
6
CONTINUOUS
10
1.92854
20
0.180787
11
1.92826
21
0.180091
0
LINE
8
BLACK
6
CONTINUOUS
10
1.92826
20
0.180091
11
1.92756
21
0.179803
0
LINE
8
BLACK
6
CONTINUOUS
10
1.92756
20
0.179803
11
1.87244
21
0.179803
0
LINE
8
BLACK
6
CONTINUOUS
10
1.87244
20
0.179803
11
1.87174
21
0.180091
0
LINE
8
BLACK
6
CONTINUOUS
10
1.87343
20
0.278228
11
1.87343
21
0.181772
0
LINE
8
BLACK
6
CONTINUOUS
10
1.87343
20
0.181772
11
1.92657
21
0.181772
0
LINE
8
BLACK
6
CONTINUOUS
10
1.92657
20
0.181772
11
1.92657
21
0.278228
0
LINE
8
BLACK
6
CONTINUOUS
10
1.92657
20
0.278228
11
1.87343
21
0.278228
0
LINE
8
BLACK
6
CONTINUOUS
10
1.19316
20
0.211902
11
1.19287
21
0.212598
0
LINE
8
BLACK
6
CONTINUOUS
10
1.19287
20
0.212598
11
1.19287
21
0.287402
0
LINE
8
BLACK
6
CONTINUOUS
10
1.19287
20
0.287402
11
1.19316
21
0.288098
0
LINE
8
BLACK
6
CONTINUOUS
10
1.19316
20
0.288098
11
1.19386
21
0.288386
0
LINE
8
BLACK
6
CONTINUOUS
10
1.19386
20
0.288386
11
1.32614
21
0.288386
0
LINE
8
BLACK
6
CONTINUOUS
10
1.32614
20
0.288386
11
1.32684
21
0.288098
0
LINE
8
BLACK
6
CONTINUOUS
10
1.32684
20
0.288098
11
1.32713
21
0.287402
0
LINE
8
BLACK
6
CONTINUOUS
10
1.32713
20
0.287402
11
1.32713
21
0.212598
0
LINE
8
BLACK
6
CONTINUOUS
10
1.32713
20
0.212598
11
1.32684
21
0.211902
0
LINE
8
BLACK
6
CONTINUOUS
10
1.32684
20
0.211902
11
1.32614
21
0.211614
0
LINE
8
BLACK
6
CONTINUOUS
10
1.32614
20
0.211614
11
1.19386
21
0.211614
0
LINE
8
BLACK
6
CONTINUOUS
10
1.19386
20
0.211614
11
1.19316
21
0.211902
0
LINE
8
BLACK
6
CONTINUOUS
10
1.19484
20
0.286417
11
1.19484
21
0.213583
0
LINE
8
BLACK
6
CONTINUOUS
10
1.19484
20
0.213583
11
1.32516
21
0.213583
0
LINE
8
BLACK
6
CONTINUOUS
10
1.32516
20
0.213583
11
1.32516
21
0.286417
0
LINE
8
BLACK
6
CONTINUOUS
10
1.32516
20
0.286417
11
1.19484
21
0.286417
0
LINE
8
BLACK
6
CONTINUOUS
10
0.392424
20
0.268566
11
0.392136
21
0.269262
0
LINE
8
BLACK
6
CONTINUOUS
10
0.392136
20
0.269262
11
0.392136
21
0.344065
0
LINE
8
BLACK
6
CONTINUOUS
10
0.392136
20
0.344065
11
0.392424
21
0.344761
0
LINE
8
BLACK
6
CONTINUOUS
10
0.392424
20
0.344761
11
0.39312
21
0.345049
0
LINE
8
BLACK
6
CONTINUOUS
10
0.39312
20
0.345049
11
0.525404
21
0.345049
0
LINE
8
BLACK
6
CONTINUOUS
10
0.525404
20
0.345049
11
0.5261
21
0.344761
0
LINE
8
BLACK
6
CONTINUOUS
10
0.5261
20
0.344761
11
0.526388
21
0.344065
0
LINE
8
BLACK
6
CONTINUOUS
10
0.526388
20
0.344065
11
0.526388
21
0.269262
0
LINE
8
BLACK
6
CONTINUOUS
10
0.526388
20
0.269262
11
0.5261
21
0.268566
0
LINE
8
BLACK
6
CONTINUOUS
10
0.5261
20
0.268566
11
0.525404
21
0.268278
0
LINE
8
BLACK
6
CONTINUOUS
10
0.525404
20
0.268278
11
0.39312
21
0.268278
0
LINE
8
BLACK
6
CONTINUOUS
10
0.39312
20
0.268278
11
0.392424
21
0.268566
0
LINE
8
BLACK
6
CONTINUOUS
10
0.394104
20
0.343081
11
0.394104
21
0.270246
0
LINE
8
BLACK
6
CONTINUOUS
10
0.394104
20
0.270246
11
0.524419
21
0.270246
0
LINE
8
BLACK
6
CONTINUOUS
10
0.524419
20
0.270246
11
0.524419
21
0.343081
0
LINE
8
BLACK
6
CONTINUOUS
10
0.524419
20
0.343081
11
0.394104
21
0.343081
0
LINE
8
BLACK
6
CONTINUOUS
10
1.79237
20
0.310721
11
1.79209
21
0.311417
0
LINE
8
BLACK
6
CONTINUOUS
10
1.79209
20
0.311417
11
1.79209
21
0.388583
0
LINE
8
BLACK
6
CONTINUOUS
10
1.79209
20
0.388583
11
1.79237
21
0.389279
0
LINE
8
BLACK
6
CONTINUOUS
10
1.79237
20
0.389279
11
1.79307
21
0.389567
0
LINE
8
BLACK
6
CONTINUOUS
10
1.79307
20
0.389567
11
1.92693
21
0.389567
0
LINE
8
BLACK
6
CONTINUOUS
10
1.92693
20
0.389567
11
1.92763
21
0.389279
0
LINE
8
BLACK
6
CONTINUOUS
10
1.92763
20
0.389279
11
1.92791
21
0.388583
0
LINE
8
BLACK
6
CONTINUOUS
10
1.92791
20
0.388583
11
1.92791
21
0.311417
0
LINE
8
BLACK
6
CONTINUOUS
10
1.92791
20
0.311417
11
1.92763
21
0.310721
0
LINE
8
BLACK
6
CONTINUOUS
10
1.92763
20
0.310721
11
1.92693
21
0.310433
0
LINE
8
BLACK
6
CONTINUOUS
10
1.92693
20
0.310433
11
1.79307
21
0.310433
0
LINE
8
BLACK
6
CONTINUOUS
10
1.79307
20
0.310433
11
1.79237
21
0.310721
0
LINE
8
BLACK
6
CONTINUOUS
10
1.79406
20
0.387598
11
1.79406
21
0.312402
0
LINE
8
BLACK
6
CONTINUOUS
10
1.79406
20
0.312402
11
1.92594
21
0.312402
0
LINE
8
BLACK
6
CONTINUOUS
10
1.92594
20
0.312402
11
1.92594
21
0.387598
0
LINE
8
BLACK
6
CONTINUOUS
10
1.92594
20
0.387598
11
1.79406
21
0.387598
0
LINE
8
BLACK
6
CONTINUOUS
10
1.94316
20
0.321902
11
1.94287
21
0.322598
0
LINE
8
BLACK
6
CONTINUOUS
10
1.94287
20
0.322598
11
1.94287
21
0.397402
0
LINE
8
BLACK
6
CONTINUOUS
10
1.94287
20
0.397402
11
1.94316
21
0.398098
0
LINE
8
BLACK
6
CONTINUOUS
10
1.94316
20
0.398098
11
1.94386
21
0.398386
0
LINE
8
BLACK
6
CONTINUOUS
10
1.94386
20
0.398386
11
2.07614
21
0.398386
0
LINE
8
BLACK
6
CONTINUOUS
10
2.07614
20
0.398386
11
2.07684
21
0.398098
0
LINE
8
BLACK
6
CONTINUOUS
10
2.07684
20
0.398098
11
2.07713
21
0.397402
0
LINE
8
BLACK
6
CONTINUOUS
10
2.07713
20
0.397402
11
2.07713
21
0.322598
0
LINE
8
BLACK
6
CONTINUOUS
10
2.07713
20
0.322598
11
2.07684
21
0.321902
0
LINE
8
BLACK
6
CONTINUOUS
10
2.07684
20
0.321902
11
2.07614
21
0.321614
0
LINE
8
BLACK
6
CONTINUOUS
10
2.07614
20
0.321614
11
1.94386
21
0.321614
0
LINE
8
BLACK
6
CONTINUOUS
10
1.94386
20
0.321614
11
1.94316
21
0.321902
0
LINE
8
BLACK
6
CONTINUOUS
10
1.94484
20
0.396417
11
1.94484
21
0.323583
0
LINE
8
BLACK
6
CONTINUOUS
10
1.94484
20
0.323583
11
2.07516
21
0.323583
0
LINE
8
BLACK
6
CONTINUOUS
10
2.07516
20
0.323583
11
2.07516
21
0.396417
0
LINE
8
BLACK
6
CONTINUOUS
10
2.07516
20
0.396417
11
1.94484
21
0.396417
0
LINE
8
BLACK
6
CONTINUOUS
10
1.6371
20
0.352847
11
1.63681
21
0.353543
0
LINE
8
BLACK
6
CONTINUOUS
10
1.63681
20
0.353543
11
1.63681
21
0.546457
0
LINE
8
BLACK
6
CONTINUOUS
10
1.63681
20
0.546457
11
1.6371
21
0.547153
0
LINE
8
BLACK
6
CONTINUOUS
10
1.6371
20
0.547153
11
1.6378
21
0.547441
0
LINE
8
BLACK
6
CONTINUOUS
10
1.6378
20
0.547441
11
1.7622
21
0.547441
0
LINE
8
BLACK
6
CONTINUOUS
10
1.7622
20
0.547441
11
1.7629
21
0.547153
0
LINE
8
BLACK
6
CONTINUOUS
10
1.7629
20
0.547153
11
1.76319
21
0.546457
0
LINE
8
BLACK
6
CONTINUOUS
10
1.76319
20
0.546457
11
1.76319
21
0.353543
0
LINE
8
BLACK
6
CONTINUOUS
10
1.76319
20
0.353543
11
1.7629
21
0.352847
0
LINE
8
BLACK
6
CONTINUOUS
10
1.7629
20
0.352847
11
1.7622
21
0.352559
0
LINE
8
BLACK
6
CONTINUOUS
10
1.7622
20
0.352559
11
1.6378
21
0.352559
0
LINE
8
BLACK
6
CONTINUOUS
10
1.6378
20
0.352559
11
1.6371
21
0.352847
0
LINE
8
BLACK
6
CONTINUOUS
10
1.63878
20
0.545472
11
1.63878
21
0.354528
0
LINE
8
BLACK
6
CONTINUOUS
10
1.63878
20
0.354528
11
1.76122
21
0.354528
0
LINE
8
BLACK
6
CONTINUOUS
10
1.76122
20
0.354528
11
1.76122
21
0.545472
0
LINE
8
BLACK
6
CONTINUOUS
10
1.76122
20
0.545472
11
1.63878
21
0.545472
0
LINE
8
BLACK
6
CONTINUOUS
10
1.78482
20
0.408438
11
1.78453
21
0.409134
0
LINE
8
BLACK
6
CONTINUOUS
10
1.78453
20
0.409134
11
1.78453
21
0.550866
0
LINE
8
BLACK
6
CONTINUOUS
10
1.78453
20
0.550866
11
1.78482
21
0.551562
0
LINE
8
BLACK
6
CONTINUOUS
10
1.78482
20
0.551562
11
1.78551
21
0.55185
0
LINE
8
BLACK
6
CONTINUOUS
10
1.78551
20
0.55185
11
1.97449
21
0.55185
0
LINE
8
BLACK
6
CONTINUOUS
10
1.97449
20
0.55185
11
1.97518
21
0.551562
0
LINE
8
BLACK
6
CONTINUOUS
10
1.97518
20
0.551562
11
1.97547
21
0.550866
0
LINE
8
BLACK
6
CONTINUOUS
10
1.97547
20
0.550866
11
1.97547
21
0.409134
0
LINE
8
BLACK
6
CONTINUOUS
10
1.97547
20
0.409134
11
1.97518
21
0.408438
0
LINE
8
BLACK
6
CONTINUOUS
10
1.97518
20
0.408438
11
1.97449
21
0.40815
0
LINE
8
BLACK
6
CONTINUOUS
10
1.97449
20
0.40815
11
1.78551
21
0.40815
0
LINE
8
BLACK
6
CONTINUOUS
10
1.78551
20
0.40815
11
1.78482
21
0.408438
0
LINE
8
BLACK
6
CONTINUOUS
10
1.7865
20
0.549882
11
1.7865
21
0.410118
0
LINE
8
BLACK
6
CONTINUOUS
10
1.7865
20
0.410118
11
1.9735
21
0.410118
0
LINE
8
BLACK
6
CONTINUOUS
10
1.9735
20
0.410118
11
1.9735
21
0.549882
0
LINE
8
BLACK
6
CONTINUOUS
10
1.9735
20
0.549882
11
1.7865
21
0.549882
0
LINE
8
BLACK
6
CONTINUOUS
10
1.15316
20
0.411902
11
1.15287
21
0.412598
0
LINE
8
BLACK
6
CONTINUOUS
10
1.15287
20
0.412598
11
1.15287
21
0.487402
0
LINE
8
BLACK
6
CONTINUOUS
10
1.15287
20
0.487402
11
1.15316
21
0.488098
0
LINE
8
BLACK
6
CONTINUOUS
10
1.15316
20
0.488098
11
1.15386
21
0.488386
0
LINE
8
BLACK
6
CONTINUOUS
10
1.15386
20
0.488386
11
1.28614
21
0.488386
0
LINE
8
BLACK
6
CONTINUOUS
10
1.28614
20
0.488386
11
1.28684
21
0.488098
0
LINE
8
BLACK
6
CONTINUOUS
10
1.28684
20
0.488098
11
1.28713
21
0.487402
0
LINE
8
BLACK
6
CONTINUOUS
10
1.28713
20
0.487402
11
1.28713
21
0.412598
0
LINE
8
BLACK
6
CONTINUOUS
10
1.28713
20
0.412598
11
1.28684
21
0.411902
0
LINE
8
BLACK
6
CONTINUOUS
10
1.28684
20
0.411902
11
1.28614
21
0.411614
0
LINE
8
BLACK
6
CONTINUOUS
10
1.28614
20
0.411614
11
1.15386
21
0.411614
0
LINE
8
BLACK
6
CONTINUOUS
10
1.15386
20
0.411614
11
1.15316
21
0.411902
0
LINE
8
BLACK
6
CONTINUOUS
10
1.15484
20
0.486417
11
1.15484
21
0.413583
0
LINE
8
BLACK
6
CONTINUOUS
10
1.15484
20
0.413583
11
1.28516
21
0.413583
0
LINE
8
BLACK
6
CONTINUOUS
10
1.28516
20
0.413583
11
1.28516
21
0.486417
0
LINE
8
BLACK
6
CONTINUOUS
10
1.28516
20
0.486417
11
1.15484
21
0.486417
0
LINE
8
BLACK
6
CONTINUOUS
10
0.289087
20
0.411902
11
0.288799
21
0.412598
0
LINE
8
BLACK
6
CONTINUOUS
10
0.288799
20
0.412598
11
0.288799
21
0.487402
0
LINE
8
BLACK
6
CONTINUOUS
10
0.288799
20
0.487402
11
0.289087
21
0.488098
0
LINE
8
BLACK
6
CONTINUOUS
10
0.289087
20
0.488098
11
0.289783
21
0.488386
0
LINE
8
BLACK
6
CONTINUOUS
10
0.289783
20
0.488386
11
0.422067
21
0.488386
0
LINE
8
BLACK
6
CONTINUOUS
10
0.422067
20
0.488386
11
0.422763
21
0.488098
0
LINE
8
BLACK
6
CONTINUOUS
10
0.422763
20
0.488098
11
0.423051
21
0.487402
0
LINE
8
BLACK
6
CONTINUOUS
10
0.423051
20
0.487402
11
0.423051
21
0.412598
0
LINE
8
BLACK
6
CONTINUOUS
10
0.423051
20
0.412598
11
0.422763
21
0.411902
0
LINE
8
BLACK
6
CONTINUOUS
10
0.422763
20
0.411902
11
0.422067
21
0.411614
0
LINE
8
BLACK
6
CONTINUOUS
10
0.422067
20
0.411614
11
0.289783
21
0.411614
0
LINE
8
BLACK
6
CONTINUOUS
10
0.289783
20
0.411614
11
0.289087
21
0.411902
0
LINE
8
BLACK
6
CONTINUOUS
10
0.290768
20
0.486417
11
0.290768
21
0.413583
0
LINE
8
BLACK
6
CONTINUOUS
10
0.290768
20
0.413583
11
0.421083
21
0.413583
0
LINE
8
BLACK
6
CONTINUOUS
10
0.421083
20
0.413583
11
0.421083
21
0.486417
0
LINE
8
BLACK
6
CONTINUOUS
10
0.421083
20
0.486417
11
0.290768
21
0.486417
0
LINE
8
BLACK
6
CONTINUOUS
10
0.543162
20
0.411902
11
0.542874
21
0.412598
0
LINE
8
BLACK
6
CONTINUOUS
10
0.542874
20
0.412598
11
0.542874
21
0.487402
0
LINE
8
BLACK
6
CONTINUOUS
10
0.542874
20
0.487402
11
0.543162
21
0.488098
0
LINE
8
BLACK
6
CONTINUOUS
10
0.543162
20
0.488098
11
0.543858
21
0.488386
0
LINE
8
BLACK
6
CONTINUOUS
10
0.543858
20
0.488386
11
0.676142
21
0.488386
0
LINE
8
BLACK
6
CONTINUOUS
10
0.676142
20
0.488386
11
0.676838
21
0.488098
0
LINE
8
BLACK
6
CONTINUOUS
10
0.676838
20
0.488098
11
0.677126
21
0.487402
0
LINE
8
BLACK
6
CONTINUOUS
10
0.677126
20
0.487402
11
0.677126
21
0.412598
0
LINE
8
BLACK
6
CONTINUOUS
10
0.677126
20
0.412598
11
0.676838
21
0.411902
0
LINE
8
BLACK
6
CONTINUOUS
10
0.676838
20
0.411902
11
0.676142
21
0.411614
0
LINE
8
BLACK
6
CONTINUOUS
10
0.676142
20
0.411614
11
0.543858
21
0.411614
0
LINE
8
BLACK
6
CONTINUOUS
10
0.543858
20
0.411614
11
0.543162
21
0.411902
0
LINE
8
BLACK
6
CONTINUOUS
10
0.544843
20
0.486417
11
0.544843
21
0.413583
0
LINE
8
BLACK
6
CONTINUOUS
10
0.544843
20
0.413583
11
0.675157
21
0.413583
0
LINE
8
BLACK
6
CONTINUOUS
10
0.675157
20
0.413583
11
0.675157
21
0.486417
0
LINE
8
BLACK
6
CONTINUOUS
10
0.675157
20
0.486417
11
0.544843
21
0.486417
0
LINE
8
BLACK
6
CONTINUOUS
10
0.793162
20
0.411902
11
0.792874
21
0.412598
0
LINE
8
BLACK
6
CONTINUOUS
10
0.792874
20
0.412598
11
0.792874
21
0.487402
0
LINE
8
BLACK
6
CONTINUOUS
10
0.792874
20
0.487402
11
0.793162
21
0.488098
0
LINE
8
BLACK
6
CONTINUOUS
10
0.793162
20
0.488098
11
0.793858
21
0.488386
0
LINE
8
BLACK
6
CONTINUOUS
10
0.793858
20
0.488386
11
0.926142
21
0.488386
0
LINE
8
BLACK
6
CONTINUOUS
10
0.926142
20
0.488386
11
0.926838
21
0.488098
0
LINE
8
BLACK
6
CONTINUOUS
10
0.926838
20
0.488098
11
0.927126
21
0.487402
0
LINE
8
BLACK
6
CONTINUOUS
10
0.927126
20
0.487402
11
0.927126
21
0.412598
0
LINE
8
BLACK
6
CONTINUOUS
10
0.927126
20
0.412598
11
0.926838
21
0.411902
0
LINE
8
BLACK
6
CONTINUOUS
10
0.926838
20
0.411902
11
0.926142
21
0.411614
0
LINE
8
BLACK
6
CONTINUOUS
10
0.926142
20
0.411614
11
0.793858
21
0.411614
0
LINE
8
BLACK
6
CONTINUOUS
10
0.793858
20
0.411614
11
0.793162
21
0.411902
0
LINE
8
BLACK
6
CONTINUOUS
10
0.794843
20
0.486417
11
0.794843
21
0.413583
0
LINE
8
BLACK
6
CONTINUOUS
10
0.794843
20
0.413583
11
0.925157
21
0.413583
0
LINE
8
BLACK
6
CONTINUOUS
10
0.925157
20
0.413583
11
0.925157
21
0.486417
0
LINE
8
BLACK
6
CONTINUOUS
10
0.925157
20
0.486417
11
0.794843
21
0.486417
0
LINE
8
BLACK
6
CONTINUOUS
10
1.06072
20
0.412375
11
1.06043
21
0.413071
0
LINE
8
BLACK
6
CONTINUOUS
10
1.06043
20
0.413071
11
1.06043
21
0.546929
0
LINE
8
BLACK
6
CONTINUOUS
10
1.06043
20
0.546929
11
1.06072
21
0.547625
0
LINE
8
BLACK
6
CONTINUOUS
10
1.06072
20
0.547625
11
1.06142
21
0.547913
0
LINE
8
BLACK
6
CONTINUOUS
10
1.06142
20
0.547913
11
1.13858
21
0.547913
0
LINE
8
BLACK
6
CONTINUOUS
10
1.13858
20
0.547913
11
1.13928
21
0.547625
0
LINE
8
BLACK
6
CONTINUOUS
10
1.13928
20
0.547625
11
1.13957
21
0.546929
0
LINE
8
BLACK
6
CONTINUOUS
10
1.13957
20
0.546929
11
1.13957
21
0.413071
0
LINE
8
BLACK
6
CONTINUOUS
10
1.13957
20
0.413071
11
1.13928
21
0.412375
0
LINE
8
BLACK
6
CONTINUOUS
10
1.13928
20
0.412375
11
1.13858
21
0.412087
0
LINE
8
BLACK
6
CONTINUOUS
10
1.13858
20
0.412087
11
1.06142
21
0.412087
0
LINE
8
BLACK
6
CONTINUOUS
10
1.06142
20
0.412087
11
1.06072
21
0.412375
0
LINE
8
BLACK
6
CONTINUOUS
10
1.0624
20
0.545945
11
1.0624
21
0.414055
0
LINE
8
BLACK
6
CONTINUOUS
10
1.0624
20
0.414055
11
1.1376
21
0.414055
0
LINE
8
BLACK
6
CONTINUOUS
10
1.1376
20
0.414055
11
1.1376
21
0.545945
0
LINE
8
BLACK
6
CONTINUOUS
10
1.1376
20
0.545945
11
1.0624
21
0.545945
0
LINE
8
BLACK
6
CONTINUOUS
10
0.0807213
20
0.412375
11
0.0804331
21
0.413071
0
LINE
8
BLACK
6
CONTINUOUS
10
0.0804331
20
0.413071
11
0.0804331
21
0.546929
0
LINE
8
BLACK
6
CONTINUOUS
10
0.0804331
20
0.546929
11
0.0807213
21
0.547625
0
LINE
8
BLACK
6
CONTINUOUS
10
0.0807213
20
0.547625
11
0.0814173
21
0.547913
0
LINE
8
BLACK
6
CONTINUOUS
10
0.0814173
20
0.547913
11
0.158583
21
0.547913
0
LINE
8
BLACK
6
CONTINUOUS
10
0.158583
20
0.547913
11
0.159279
21
0.547625
0
LINE
8
BLACK
6
CONTINUOUS
10
0.159279
20
0.547625
11
0.159567
21
0.546929
0
LINE
8
BLACK
6
CONTINUOUS
10
0.159567
20
0.546929
11
0.159567
21
0.413071
0
LINE
8
BLACK
6
CONTINUOUS
10
0.159567
20
0.413071
11
0.159279
21
0.412375
0
LINE
8
BLACK
6
CONTINUOUS
10
0.159279
20
0.412375
11
0.158583
21
0.412087
0
LINE
8
BLACK
6
CONTINUOUS
10
0.158583
20
0.412087
11
0.0814173
21
0.412087
0
LINE
8
BLACK
6
CONTINUOUS
10
0.0814173
20
0.412087
11
0.0807213
21
0.412375
0
LINE
8
BLACK
6
CONTINUOUS
10
0.0824016
20
0.545945
11
0.0824016
21
0.414055
0
LINE
8
BLACK
6
CONTINUOUS
10
0.0824016
20
0.414055
11
0.157598
21
0.414055
0
LINE
8
BLACK
6
CONTINUOUS
10
0.157598
20
0.414055
11
0.157598
21
0.545945
0
LINE
8
BLACK
6
CONTINUOUS
10
0.157598
20
0.545945
11
0.0824016
21
0.545945
0
LINE
8
BLACK
6
CONTINUOUS
10
0.440721
20
0.412375
11
0.440433
21
0.413071
0
LINE
8
BLACK
6
CONTINUOUS
10
0.440433
20
0.413071
11
0.440433
21
0.546929
0
LINE
8
BLACK
6
CONTINUOUS
10
0.440433
20
0.546929
11
0.440721
21
0.547625
0
LINE
8
BLACK
6
CONTINUOUS
10
0.440721
20
0.547625
11
0.441417
21
0.547913
0
LINE
8
BLACK
6
CONTINUOUS
10
0.441417
20
0.547913
11
0.518583
21
0.547913
0
LINE
8
BLACK
6
CONTINUOUS
10
0.518583
20
0.547913
11
0.519279
21
0.547625
0
LINE
8
BLACK
6
CONTINUOUS
10
0.519279
20
0.547625
11
0.519567
21
0.546929
0
LINE
8
BLACK
6
CONTINUOUS
10
0.519567
20
0.546929
11
0.519567
21
0.413071
0
LINE
8
BLACK
6
CONTINUOUS
10
0.519567
20
0.413071
11
0.519279
21
0.412375
0
LINE
8
BLACK
6
CONTINUOUS
10
0.519279
20
0.412375
11
0.518583
21
0.412087
0
LINE
8
BLACK
6
CONTINUOUS
10
0.518583
20
0.412087
11
0.441417
21
0.412087
0
LINE
8
BLACK
6
CONTINUOUS
10
0.441417
20
0.412087
11
0.440721
21
0.412375
0
LINE
8
BLACK
6
CONTINUOUS
10
0.442402
20
0.545945
11
0.442402
21
0.414055
0
LINE
8
BLACK
6
CONTINUOUS
10
0.442402
20
0.414055
11
0.517598
21
0.414055
0
LINE
8
BLACK
6
CONTINUOUS
10
0.517598
20
0.414055
11
0.517598
21
0.545945
0
LINE
8
BLACK
6
CONTINUOUS
10
0.517598
20
0.545945
11
0.442402
21
0.545945
0
LINE
8
BLACK
6
CONTINUOUS
10
1.40072
20
0.412375
11
1.40043
21
0.413071
0
LINE
8
BLACK
6
CONTINUOUS
10
1.40043
20
0.413071
11
1.40043
21
0.546929
0
LINE
8
BLACK
6
CONTINUOUS
10
1.40043
20
0.546929
11
1.40072
21
0.547625
0
LINE
8
BLACK
6
CONTINUOUS
10
1.40072
20
0.547625
11
1.40142
21
0.547913
0
LINE
8
BLACK
6
CONTINUOUS
10
1.40142
20
0.547913
11
1.47858
21
0.547913
0
LINE
8
BLACK
6
CONTINUOUS
10
1.47858
20
0.547913
11
1.47928
21
0.547625
0
LINE
8
BLACK
6
CONTINUOUS
10
1.47928
20
0.547625
11
1.47957
21
0.546929
0
LINE
8
BLACK
6
CONTINUOUS
10
1.47957
20
0.546929
11
1.47957
21
0.413071
0
LINE
8
BLACK
6
CONTINUOUS
10
1.47957
20
0.413071
11
1.47928
21
0.412375
0
LINE
8
BLACK
6
CONTINUOUS
10
1.47928
20
0.412375
11
1.47858
21
0.412087
0
LINE
8
BLACK
6
CONTINUOUS
10
1.47858
20
0.412087
11
1.40142
21
0.412087
0
LINE
8
BLACK
6
CONTINUOUS
10
1.40142
20
0.412087
11
1.40072
21
0.412375
0
LINE
8
BLACK
6
CONTINUOUS
10
1.4024
20
0.545945
11
1.4024
21
0.414055
0
LINE
8
BLACK
6
CONTINUOUS
10
1.4024
20
0.414055
11
1.4776
21
0.414055
0
LINE
8
BLACK
6
CONTINUOUS
10
1.4776
20
0.414055
11
1.4776
21
0.545945
0
LINE
8
BLACK
6
CONTINUOUS
10
1.4776
20
0.545945
11
1.4024
21
0.545945
0
LINE
8
BLACK
6
CONTINUOUS
10
1.30072
20
0.412375
11
1.30043
21
0.413071
0
LINE
8
BLACK
6
CONTINUOUS
10
1.30043
20
0.413071
11
1.30043
21
0.546929
0
LINE
8
BLACK
6
CONTINUOUS
10
1.30043
20
0.546929
11
1.30072
21
0.547625
0
LINE
8
BLACK
6
CONTINUOUS
10
1.30072
20
0.547625
11
1.30142
21
0.547913
0
LINE
8
BLACK
6
CONTINUOUS
10
1.30142
20
0.547913
11
1.37858
21
0.547913
0
LINE
8
BLACK
6
CONTINUOUS
10
1.37858
20
0.547913
11
1.37928
21
0.547625
0
LINE
8
BLACK
6
CONTINUOUS
10
1.37928
20
0.547625
11
1.37957
21
0.546929
0
LINE
8
BLACK
6
CONTINUOUS
10
1.37957
20
0.546929
11
1.37957
21
0.413071
0
LINE
8
BLACK
6
CONTINUOUS
10
1.37957
20
0.413071
11
1.37928
21
0.412375
0
LINE
8
BLACK
6
CONTINUOUS
10
1.37928
20
0.412375
11
1.37858
21
0.412087
0
LINE
8
BLACK
6
CONTINUOUS
10
1.37858
20
0.412087
11
1.30142
21
0.412087
0
LINE
8
BLACK
6
CONTINUOUS
10
1.30142
20
0.412087
11
1.30072
21
0.412375
0
LINE
8
BLACK
6
CONTINUOUS
10
1.3024
20
0.545945
11
1.3024
21
0.414055
0
LINE
8
BLACK
6
CONTINUOUS
10
1.3024
20
0.414055
11
1.3776
21
0.414055
0
LINE
8
BLACK
6
CONTINUOUS
10
1.3776
20
0.414055
11
1.3776
21
0.545945
0
LINE
8
BLACK
6
CONTINUOUS
10
1.3776
20
0.545945
11
1.3024
21
0.545945
0
LINE
8
BLACK
6
CONTINUOUS
10
0.180721
20
0.412375
11
0.180433
21
0.413071
0
LINE
8
BLACK
6
CONTINUOUS
10
0.180433
20
0.413071
11
0.180433
21
0.546929
0
LINE
8
BLACK
6
CONTINUOUS
10
0.180433
20
0.546929
11
0.180721
21
0.547625
0
LINE
8
BLACK
6
CONTINUOUS
10
0.180721
20
0.547625
11
0.181417
21
0.547913
0
LINE
8
BLACK
6
CONTINUOUS
10
0.181417
20
0.547913
11
0.258583
21
0.547913
0
LINE
8
BLACK
6
CONTINUOUS
10
0.258583
20
0.547913
11
0.259279
21
0.547625
0
LINE
8
BLACK
6
CONTINUOUS
10
0.259279
20
0.547625
11
0.259567
21
0.546929
0
LINE
8
BLACK
6
CONTINUOUS
10
0.259567
20
0.546929
11
0.259567
21
0.413071
0
LINE
8
BLACK
6
CONTINUOUS
10
0.259567
20
0.413071
11
0.259279
21
0.412375
0
LINE
8
BLACK
6
CONTINUOUS
10
0.259279
20
0.412375
11
0.258583
21
0.412087
0
LINE
8
BLACK
6
CONTINUOUS
10
0.258583
20
0.412087
11
0.181417
21
0.412087
0
LINE
8
BLACK
6
CONTINUOUS
10
0.181417
20
0.412087
11
0.180721
21
0.412375
0
LINE
8
BLACK
6
CONTINUOUS
10
0.182402
20
0.545945
11
0.182402
21
0.414055
0
LINE
8
BLACK
6
CONTINUOUS
10
0.182402
20
0.414055
11
0.257598
21
0.414055
0
LINE
8
BLACK
6
CONTINUOUS
10
0.257598
20
0.414055
11
0.257598
21
0.545945
0
LINE
8
BLACK
6
CONTINUOUS
10
0.257598
20
0.545945
11
0.182402
21
0.545945
0
LINE
8
BLACK
6
CONTINUOUS
10
0.690721
20
0.412375
11
0.690433
21
0.413071
0
LINE
8
BLACK
6
CONTINUOUS
10
0.690433
20
0.413071
11
0.690433
21
0.546929
0
LINE
8
BLACK
6
CONTINUOUS
10
0.690433
20
0.546929
11
0.690721
21
0.547625
0
LINE
8
BLACK
6
CONTINUOUS
10
0.690721
20
0.547625
11
0.691417
21
0.547913
0
LINE
8
BLACK
6
CONTINUOUS
10
0.691417
20
0.547913
11
0.768583
21
0.547913
0
LINE
8
BLACK
6
CONTINUOUS
10
0.768583
20
0.547913
11
0.769279
21
0.547625
0
LINE
8
BLACK
6
CONTINUOUS
10
0.769279
20
0.547625
11
0.769567
21
0.546929
0
LINE
8
BLACK
6
CONTINUOUS
10
0.769567
20
0.546929
11
0.769567
21
0.413071
0
LINE
8
BLACK
6
CONTINUOUS
10
0.769567
20
0.413071
11
0.769279
21
0.412375
0
LINE
8
BLACK
6
CONTINUOUS
10
0.769279
20
0.412375
11
0.768583
21
0.412087
0
LINE
8
BLACK
6
CONTINUOUS
10
0.768583
20
0.412087
11
0.691417
21
0.412087
0
LINE
8
BLACK
6
CONTINUOUS
10
0.691417
20
0.412087
11
0.690721
21
0.412375
0
LINE
8
BLACK
6
CONTINUOUS
10
0.692402
20
0.545945
11
0.692402
21
0.414055
0
LINE
8
BLACK
6
CONTINUOUS
10
0.692402
20
0.414055
11
0.767598
21
0.414055
0
LINE
8
BLACK
6
CONTINUOUS
10
0.767598
20
0.414055
11
0.767598
21
0.545945
0
LINE
8
BLACK
6
CONTINUOUS
10
0.767598
20
0.545945
11
0.692402
21
0.545945
0
LINE
8
BLACK
6
CONTINUOUS
10
0.950721
20
0.412375
11
0.950433
21
0.413071
0
LINE
8
BLACK
6
CONTINUOUS
10
0.950433
20
0.413071
11
0.950433
21
0.546929
0
LINE
8
BLACK
6
CONTINUOUS
10
0.950433
20
0.546929
11
0.950721
21
0.547625
0
LINE
8
BLACK
6
CONTINUOUS
10
0.950721
20
0.547625
11
0.951417
21
0.547913
0
LINE
8
BLACK
6
CONTINUOUS
10
0.951417
20
0.547913
11
1.02858
21
0.547913
0
LINE
8
BLACK
6
CONTINUOUS
10
1.02858
20
0.547913
11
1.02928
21
0.547625
0
LINE
8
BLACK
6
CONTINUOUS
10
1.02928
20
0.547625
11
1.02957
21
0.546929
0
LINE
8
BLACK
6
CONTINUOUS
10
1.02957
20
0.546929
11
1.02957
21
0.413071
0
LINE
8
BLACK
6
CONTINUOUS
10
1.02957
20
0.413071
11
1.02928
21
0.412375
0
LINE
8
BLACK
6
CONTINUOUS
10
1.02928
20
0.412375
11
1.02858
21
0.412087
0
LINE
8
BLACK
6
CONTINUOUS
10
1.02858
20
0.412087
11
0.951417
21
0.412087
0
LINE
8
BLACK
6
CONTINUOUS
10
0.951417
20
0.412087
11
0.950721
21
0.412375
0
LINE
8
BLACK
6
CONTINUOUS
10
0.952402
20
0.545945
11
0.952402
21
0.414055
0
LINE
8
BLACK
6
CONTINUOUS
10
0.952402
20
0.414055
11
1.0276
21
0.414055
0
LINE
8
BLACK
6
CONTINUOUS
10
1.0276
20
0.414055
11
1.0276
21
0.545945
0
LINE
8
BLACK
6
CONTINUOUS
10
1.0276
20
0.545945
11
0.952402
21
0.545945
0
LINE
8
BLACK
6
CONTINUOUS
10
2.0119
20
0.413162
11
2.01161
21
0.413858
0
LINE
8
BLACK
6
CONTINUOUS
10
2.01161
20
0.413858
11
2.01161
21
0.546142
0
LINE
8
BLACK
6
CONTINUOUS
10
2.01161
20
0.546142
11
2.0119
21
0.546838
0
LINE
8
BLACK
6
CONTINUOUS
10
2.0119
20
0.546838
11
2.0126
21
0.547126
0
LINE
8
BLACK
6
CONTINUOUS
10
2.0126
20
0.547126
11
2.0874
21
0.547126
0
LINE
8
BLACK
6
CONTINUOUS
10
2.0874
20
0.547126
11
2.0881
21
0.546838
0
LINE
8
BLACK
6
CONTINUOUS
10
2.0881
20
0.546838
11
2.08839
21
0.546142
0
LINE
8
BLACK
6
CONTINUOUS
10
2.08839
20
0.546142
11
2.08839
21
0.413858
0
LINE
8
BLACK
6
CONTINUOUS
10
2.08839
20
0.413858
11
2.0881
21
0.413162
0
LINE
8
BLACK
6
CONTINUOUS
10
2.0881
20
0.413162
11
2.0874
21
0.412874
0
LINE
8
BLACK
6
CONTINUOUS
10
2.0874
20
0.412874
11
2.0126
21
0.412874
0
LINE
8
BLACK
6
CONTINUOUS
10
2.0126
20
0.412874
11
2.0119
21
0.413162
0
LINE
8
BLACK
6
CONTINUOUS
10
2.01358
20
0.545157
11
2.01358
21
0.414843
0
LINE
8
BLACK
6
CONTINUOUS
10
2.01358
20
0.414843
11
2.08642
21
0.414843
0
LINE
8
BLACK
6
CONTINUOUS
10
2.08642
20
0.414843
11
2.08642
21
0.545157
0
LINE
8
BLACK
6
CONTINUOUS
10
2.08642
20
0.545157
11
2.01358
21
0.545157
0
LINE
8
BLACK
6
CONTINUOUS
10
1.51009
20
0.441745
11
1.5098
21
0.442441
0
LINE
8
BLACK
6
CONTINUOUS
10
1.5098
20
0.442441
11
1.5098
21
0.497559
0
LINE
8
BLACK
6
CONTINUOUS
10
1.5098
20
0.497559
11
1.51009
21
0.498255
0
LINE
8
BLACK
6
CONTINUOUS
10
1.51009
20
0.498255
11
1.51079
21
0.498543
0
LINE
8
BLACK
6
CONTINUOUS
10
1.51079
20
0.498543
11
1.60921
21
0.498543
0
LINE
8
BLACK
6
CONTINUOUS
10
1.60921
20
0.498543
11
1.60991
21
0.498255
0
LINE
8
BLACK
6
CONTINUOUS
10
1.60991
20
0.498255
11
1.6102
21
0.497559
0
LINE
8
BLACK
6
CONTINUOUS
10
1.6102
20
0.497559
11
1.6102
21
0.442441
0
LINE
8
BLACK
6
CONTINUOUS
10
1.6102
20
0.442441
11
1.60991
21
0.441745
0
LINE
8
BLACK
6
CONTINUOUS
10
1.60991
20
0.441745
11
1.60921
21
0.441457
0
LINE
8
BLACK
6
CONTINUOUS
10
1.60921
20
0.441457
11
1.51079
21
0.441457
0
LINE
8
BLACK
6
CONTINUOUS
10
1.51079
20
0.441457
11
1.51009
21
0.441745
0
LINE
8
BLACK
6
CONTINUOUS
10
1.51177
20
0.496575
11
1.51177
21
0.443425
0
LINE
8
BLACK
6
CONTINUOUS
10
1.51177
20
0.443425
11
1.60823
21
0.443425
0
LINE
8
BLACK
6
CONTINUOUS
10
1.60823
20
0.443425
11
1.60823
21
0.496575
0
LINE
8
BLACK
6
CONTINUOUS
10
1.60823
20
0.496575
11
1.51177
21
0.496575
  0
ENDSEC
  0
EOF
