  0
SECTION
  2
HEADER
  9
$ANGBASE
  50
0.0
  9
$ANGDIR
  70
1
  9
$MEASUREMENT
  70
0
  0
ENDSEC
  0
SECTION
  2
TABLES
  0
TABLE
  2
LTYPE
  70
4
  0
LTYPE
  5
40F
  2
CONTINUOUS
  70
0
  3
Solid line
  72
65
  73
0
  40
0.0
  0
LTYPE
  5
410
  2
DASHDOT
 70
0
  3
Dash Dot ____ _ ____ _
 72
65
 73
4
 40
2.0
 49
1.25
 49
-0.25
 49
0.25
 49
-0.25
  0
LTYPE
  5
411
  2
DASHED
 70
0
  3
Dashed __ __ __ __ __
 72
65
 73
2
 40
0.75
 49
0.5
 49
-0.25
  0
LTYPE
  5
43B
  2
DOTTED
 70
0
  3
Dotted .  .  .  .
 72
65
 73
2
 40
0.2
 49
0.0
 49
-0.2
  0
ENDTAB
  0
TABLE
  2
STYLE
  70
4
  0
STYLE
  2
KICAD
  70
0
  40
0
  41
1
  42
1
  50
0
  71
0
  3
isocp.shx
  0
STYLE
  2
KICADB
  70
0
  40
0
  41
1
  42
1
  50
0
  71
0
  3
isocp.shx
  0
STYLE
  2
KICADI
  70
0
  40
0
  41
1
  42
1
  50
15
  71
0
  3
isocp.shx
  0
STYLE
  2
KICADBI
  70
0
  40
0
  41
1
  42
1
  50
15
  71
0
  3
isocp.shx
  0
ENDTAB
  0
TABLE
  2
LAYER
  70
1
  0
LAYER
  2
BLACK
  70
0
  62
7
  6
CONTINUOUS
  0
ENDTAB
  0
ENDSEC
  0
SECTION
  2
ENTITIES
0
LINE
8
BLACK
6
CONTINUOUS
10
4.6160264960629922
20
-4.1554507086614176
11
4.6195868110236216
21
-4.1575062598425196
0
LINE
8
BLACK
6
CONTINUOUS
10
4.6195868110236216
20
-4.1575062598425196
11
4.6224937401574806
21
-4.1604131889763778
0
LINE
8
BLACK
6
CONTINUOUS
10
4.6224937401574806
20
-4.1604131889763778
11
4.6245492913385826
21
-4.163973503937008
0
LINE
8
BLACK
6
CONTINUOUS
10
4.6245492913385826
20
-4.163973503937008
11
4.6256133070866143
21
-4.1679444881889767
0
LINE
8
BLACK
6
CONTINUOUS
10
4.6256133070866143
20
-4.1679444881889767
11
4.6256133070866143
21
-4.1720555118110232
0
LINE
8
BLACK
6
CONTINUOUS
10
4.6256133070866143
20
-4.1720555118110232
11
4.6245492913385826
21
-4.1760264960629918
0
LINE
8
BLACK
6
CONTINUOUS
10
4.6245492913385826
20
-4.1760264960629918
11
4.6224937401574806
21
-4.1795868110236221
0
LINE
8
BLACK
6
CONTINUOUS
10
4.6224937401574806
20
-4.1795868110236221
11
4.6218110236220475
21
-4.1802695275590551
0
LINE
8
BLACK
6
CONTINUOUS
10
4.6218110236220475
20
-4.1802695275590551
11
4.6218110236220475
21
-4.2062100787401571
0
LINE
8
BLACK
6
CONTINUOUS
10
4.6218110236220475
20
-4.2062100787401571
11
4.6472544881889766
21
-4.2316535433070861
0
LINE
8
BLACK
6
CONTINUOUS
10
4.6472544881889766
20
-4.2316535433070861
11
4.768346456692913
21
-4.2316535433070861
0
LINE
8
BLACK
6
CONTINUOUS
10
4.768346456692913
20
-4.2316535433070861
11
4.768346456692913
21
-4.3694488188976379
0
LINE
8
BLACK
6
CONTINUOUS
10
4.768346456692913
20
-4.3694488188976379
11
4.6305511811023621
21
-4.3694488188976379
0
LINE
8
BLACK
6
CONTINUOUS
10
4.6305511811023621
20
-4.3694488188976379
11
4.6305511811023621
21
-4.2483568503937006
0
LINE
8
BLACK
6
CONTINUOUS
10
4.6305511811023621
20
-4.2483568503937006
11
4.6016483464566926
21
-4.2194540157480311
0
LINE
8
BLACK
6
CONTINUOUS
10
4.6016483464566926
20
-4.2194540157480311
11
4.6006296850393698
21
-4.2182924409448814
0
LINE
8
BLACK
6
CONTINUOUS
10
4.6006296850393698
20
-4.2182924409448814
11
4.5990880314960627
21
-4.2156222440944884
0
LINE
8
BLACK
6
CONTINUOUS
10
4.5990880314960627
20
-4.2156222440944884
11
4.5982900393700783
21
-4.2126440157480314
0
LINE
8
BLACK
6
CONTINUOUS
10
4.5982900393700783
20
-4.2126440157480314
11
4.5981889763779522
21
-4.2111023622047243
0
LINE
8
BLACK
6
CONTINUOUS
10
4.5981889763779522
20
-4.2111023622047243
11
4.5981889763779522
21
-4.1802695275590551
0
LINE
8
BLACK
6
CONTINUOUS
10
4.5981889763779522
20
-4.1802695275590551
11
4.5975062598425191
21
-4.1795868110236221
0
LINE
8
BLACK
6
CONTINUOUS
10
4.5975062598425191
20
-4.1795868110236221
11
4.5954507086614171
21
-4.1760264960629918
0
LINE
8
BLACK
6
CONTINUOUS
10
4.5954507086614171
20
-4.1760264960629918
11
4.5943866929133854
21
-4.1720555118110232
0
LINE
8
BLACK
6
CONTINUOUS
10
4.5943866929133854
20
-4.1720555118110232
11
4.5943866929133854
21
-4.1679444881889767
0
LINE
8
BLACK
6
CONTINUOUS
10
4.5943866929133854
20
-4.1679444881889767
11
4.5954507086614171
21
-4.163973503937008
0
LINE
8
BLACK
6
CONTINUOUS
10
4.5954507086614171
20
-4.163973503937008
11
4.5975062598425191
21
-4.1604131889763778
0
LINE
8
BLACK
6
CONTINUOUS
10
4.5975062598425191
20
-4.1604131889763778
11
4.6004131889763782
21
-4.1575062598425196
0
LINE
8
BLACK
6
CONTINUOUS
10
4.6004131889763782
20
-4.1575062598425196
11
4.6039735039370075
21
-4.1554507086614176
0
LINE
8
BLACK
6
CONTINUOUS
10
4.6039735039370075
20
-4.1554507086614176
11
4.6079444881889762
21
-4.1543866929133859
0
LINE
8
BLACK
6
CONTINUOUS
10
4.6079444881889762
20
-4.1543866929133859
11
4.6120555118110236
21
-4.1543866929133859
0
LINE
8
BLACK
6
CONTINUOUS
10
4.6120555118110236
20
-4.1543866929133859
11
4.6160264960629922
21
-4.1554507086614176
0
LINE
8
BLACK
6
CONTINUOUS
10
5.04
20
-4.3694488188976379
11
4.9022047244094491
21
-4.3694488188976379
0
LINE
8
BLACK
6
CONTINUOUS
10
4.9022047244094491
20
-4.3694488188976379
11
4.9022047244094491
21
-4.2316535433070861
0
LINE
8
BLACK
6
CONTINUOUS
10
4.9022047244094491
20
-4.2316535433070861
11
5.04
21
-4.2316535433070861
0
LINE
8
BLACK
6
CONTINUOUS
10
5.04
20
-4.2316535433070861
11
5.04
21
-4.3694488188976379
0
LINE
8
BLACK
6
CONTINUOUS
10
6.7400000000000002
20
-4.2947244094488184
11
6.6799999999999997
21
-4.2947244094488184
0
LINE
8
BLACK
6
CONTINUOUS
10
6.6799999999999997
20
-4.2947244094488184
11
6.6799999999999997
21
-4.2347244094488188
0
LINE
8
BLACK
6
CONTINUOUS
10
6.6799999999999997
20
-4.2347244094488188
11
6.7400000000000002
21
-4.2347244094488188
0
LINE
8
BLACK
6
CONTINUOUS
10
6.7400000000000002
20
-4.2347244094488188
11
6.7400000000000002
21
-4.2947244094488184
0
LINE
8
BLACK
6
CONTINUOUS
10
6.8399999999999999
20
-4.2947244094488184
11
6.7800000000000002
21
-4.2947244094488184
0
LINE
8
BLACK
6
CONTINUOUS
10
6.7800000000000002
20
-4.2947244094488184
11
6.7800000000000002
21
-4.2347244094488188
0
LINE
8
BLACK
6
CONTINUOUS
10
6.7800000000000002
20
-4.2347244094488188
11
6.8399999999999999
21
-4.2347244094488188
0
LINE
8
BLACK
6
CONTINUOUS
10
6.8399999999999999
20
-4.2347244094488188
11
6.8399999999999999
21
-4.2947244094488184
0
LINE
8
BLACK
6
CONTINUOUS
10
6.3060264960629917
20
-4.1154507086614176
11
6.309586811023622
21
-4.1175062598425196
0
LINE
8
BLACK
6
CONTINUOUS
10
6.309586811023622
20
-4.1175062598425196
11
6.3124937401574801
21
-4.1204131889763778
0
LINE
8
BLACK
6
CONTINUOUS
10
6.3124937401574801
20
-4.1204131889763778
11
6.3134826377952757
21
-4.1221259842519684
0
LINE
8
BLACK
6
CONTINUOUS
10
6.3134826377952757
20
-4.1221259842519684
11
6.4799999999999995
21
-4.1221259842519684
0
LINE
8
BLACK
6
CONTINUOUS
10
6.4799999999999995
20
-4.1221259842519684
11
6.481536141732283
21
-4.1222772834645669
0
LINE
8
BLACK
6
CONTINUOUS
10
6.481536141732283
20
-4.1222772834645669
11
6.4843745669291337
21
-4.1234529921259844
0
LINE
8
BLACK
6
CONTINUOUS
10
6.4843745669291337
20
-4.1234529921259844
11
6.485567755905512
21
-4.1244322440944883
0
LINE
8
BLACK
6
CONTINUOUS
10
6.485567755905512
20
-4.1244322440944883
11
6.4860340551181102
21
-4.1248985433070864
0
LINE
8
BLACK
6
CONTINUOUS
10
6.4860340551181102
20
-4.1248985433070864
11
6.4879444881889761
21
-4.1243866929133857
0
LINE
8
BLACK
6
CONTINUOUS
10
6.4879444881889761
20
-4.1243866929133857
11
6.4920555118110235
21
-4.1243866929133857
0
LINE
8
BLACK
6
CONTINUOUS
10
6.4920555118110235
20
-4.1243866929133857
11
6.4960264960629921
21
-4.1254507086614174
0
LINE
8
BLACK
6
CONTINUOUS
10
6.4960264960629921
20
-4.1254507086614174
11
6.4995868110236215
21
-4.1275062598425194
0
LINE
8
BLACK
6
CONTINUOUS
10
6.4995868110236215
20
-4.1275062598425194
11
6.5024937401574805
21
-4.1304131889763775
0
LINE
8
BLACK
6
CONTINUOUS
10
6.5024937401574805
20
-4.1304131889763775
11
6.5045492913385825
21
-4.1339735039370078
0
LINE
8
BLACK
6
CONTINUOUS
10
6.5045492913385825
20
-4.1339735039370078
11
6.5056133070866142
21
-4.1379444881889764
0
LINE
8
BLACK
6
CONTINUOUS
10
6.5056133070866142
20
-4.1379444881889764
11
6.5056133070866142
21
-4.1420555118110238
0
LINE
8
BLACK
6
CONTINUOUS
10
6.5056133070866142
20
-4.1420555118110238
11
6.5045492913385825
21
-4.1460264960629925
0
LINE
8
BLACK
6
CONTINUOUS
10
6.5045492913385825
20
-4.1460264960629925
11
6.5024937401574805
21
-4.1495868110236218
0
LINE
8
BLACK
6
CONTINUOUS
10
6.5024937401574805
20
-4.1495868110236218
11
6.4995868110236215
21
-4.15249374015748
0
LINE
8
BLACK
6
CONTINUOUS
10
6.4995868110236215
20
-4.15249374015748
11
6.4960264960629921
21
-4.1545492913385829
0
LINE
8
BLACK
6
CONTINUOUS
10
6.4960264960629921
20
-4.1545492913385829
11
6.4920555118110235
21
-4.1556133070866137
0
LINE
8
BLACK
6
CONTINUOUS
10
6.4920555118110235
20
-4.1556133070866137
11
6.4879444881889761
21
-4.1556133070866137
0
LINE
8
BLACK
6
CONTINUOUS
10
6.4879444881889761
20
-4.1556133070866137
11
6.4839735039370074
21
-4.1545492913385829
0
LINE
8
BLACK
6
CONTINUOUS
10
6.4839735039370074
20
-4.1545492913385829
11
6.4804131889763781
21
-4.15249374015748
0
LINE
8
BLACK
6
CONTINUOUS
10
6.4804131889763781
20
-4.15249374015748
11
6.4775062598425199
21
-4.1495868110236218
0
LINE
8
BLACK
6
CONTINUOUS
10
6.4775062598425199
20
-4.1495868110236218
11
6.475450708661417
21
-4.1460264960629925
0
LINE
8
BLACK
6
CONTINUOUS
10
6.475450708661417
20
-4.1460264960629925
11
6.4743866929133853
21
-4.1420555118110238
0
LINE
8
BLACK
6
CONTINUOUS
10
6.4743866929133853
20
-4.1420555118110238
11
6.4743866929133853
21
-4.1379444881889764
0
LINE
8
BLACK
6
CONTINUOUS
10
6.4743866929133853
20
-4.1379444881889764
11
6.4744055905511813
21
-4.1378740157480314
0
LINE
8
BLACK
6
CONTINUOUS
10
6.4744055905511813
20
-4.1378740157480314
11
6.3134826377952757
21
-4.1378740157480314
0
LINE
8
BLACK
6
CONTINUOUS
10
6.3134826377952757
20
-4.1378740157480314
11
6.3124937401574801
21
-4.139586811023622
0
LINE
8
BLACK
6
CONTINUOUS
10
6.3124937401574801
20
-4.139586811023622
11
6.309586811023622
21
-4.1424937401574802
0
LINE
8
BLACK
6
CONTINUOUS
10
6.309586811023622
20
-4.1424937401574802
11
6.3060264960629917
21
-4.1445492913385822
0
LINE
8
BLACK
6
CONTINUOUS
10
6.3060264960629917
20
-4.1445492913385822
11
6.3020555118110231
21
-4.1456133070866139
0
LINE
8
BLACK
6
CONTINUOUS
10
6.3020555118110231
20
-4.1456133070866139
11
6.2979444881889766
21
-4.1456133070866139
0
LINE
8
BLACK
6
CONTINUOUS
10
6.2979444881889766
20
-4.1456133070866139
11
6.2939735039370079
21
-4.1445492913385822
0
LINE
8
BLACK
6
CONTINUOUS
10
6.2939735039370079
20
-4.1445492913385822
11
6.2904131889763777
21
-4.1424937401574802
0
LINE
8
BLACK
6
CONTINUOUS
10
6.2904131889763777
20
-4.1424937401574802
11
6.2875062598425195
21
-4.139586811023622
0
LINE
8
BLACK
6
CONTINUOUS
10
6.2875062598425195
20
-4.139586811023622
11
6.2854507086614175
21
-4.1360264960629918
0
LINE
8
BLACK
6
CONTINUOUS
10
6.2854507086614175
20
-4.1360264960629918
11
6.2843866929133858
21
-4.1320555118110232
0
LINE
8
BLACK
6
CONTINUOUS
10
6.2843866929133858
20
-4.1320555118110232
11
6.2843866929133858
21
-4.1279444881889766
0
LINE
8
BLACK
6
CONTINUOUS
10
6.2843866929133858
20
-4.1279444881889766
11
6.2854507086614175
21
-4.123973503937008
0
LINE
8
BLACK
6
CONTINUOUS
10
6.2854507086614175
20
-4.123973503937008
11
6.2875062598425195
21
-4.1204131889763778
0
LINE
8
BLACK
6
CONTINUOUS
10
6.2875062598425195
20
-4.1204131889763778
11
6.2904131889763777
21
-4.1175062598425196
0
LINE
8
BLACK
6
CONTINUOUS
10
6.2904131889763777
20
-4.1175062598425196
11
6.2939735039370079
21
-4.1154507086614176
0
LINE
8
BLACK
6
CONTINUOUS
10
6.2939735039370079
20
-4.1154507086614176
11
6.2979444881889766
21
-4.1143866929133859
0
LINE
8
BLACK
6
CONTINUOUS
10
6.2979444881889766
20
-4.1143866929133859
11
6.3020555118110231
21
-4.1143866929133859
0
LINE
8
BLACK
6
CONTINUOUS
10
6.3020555118110231
20
-4.1143866929133859
11
6.3060264960629917
21
-4.1154507086614176
0
LINE
8
BLACK
6
CONTINUOUS
10
6.7400000000000002
20
-4.0947244094488191
11
6.6799999999999997
21
-4.0947244094488191
0
LINE
8
BLACK
6
CONTINUOUS
10
6.6799999999999997
20
-4.0947244094488191
11
6.6799999999999997
21
-4.0347244094488186
0
LINE
8
BLACK
6
CONTINUOUS
10
6.6799999999999997
20
-4.0347244094488186
11
6.7400000000000002
21
-4.0347244094488186
0
LINE
8
BLACK
6
CONTINUOUS
10
6.7400000000000002
20
-4.0347244094488186
11
6.7400000000000002
21
-4.0947244094488191
0
LINE
8
BLACK
6
CONTINUOUS
10
4.768346456692913
20
-4.0977952755905509
11
4.6305511811023621
21
-4.0977952755905509
0
LINE
8
BLACK
6
CONTINUOUS
10
4.6305511811023621
20
-4.0977952755905509
11
4.6305511811023621
21
-3.96
0
LINE
8
BLACK
6
CONTINUOUS
10
4.6305511811023621
20
-3.96
11
4.768346456692913
21
-3.96
0
LINE
8
BLACK
6
CONTINUOUS
10
4.768346456692913
20
-3.96
11
4.768346456692913
21
-4.0977952755905509
0
LINE
8
BLACK
6
CONTINUOUS
10
4.9460264960629923
20
-3.9254507086614172
11
4.9495868110236216
21
-3.9275062598425197
0
LINE
8
BLACK
6
CONTINUOUS
10
4.9495868110236216
20
-3.9275062598425197
11
4.9524937401574798
21
-3.9304131889763778
0
LINE
8
BLACK
6
CONTINUOUS
10
4.9524937401574798
20
-3.9304131889763778
11
4.9545492913385827
21
-3.9339735039370076
0
LINE
8
BLACK
6
CONTINUOUS
10
4.9545492913385827
20
-3.9339735039370076
11
4.9556133070866144
21
-3.9379444881889762
0
LINE
8
BLACK
6
CONTINUOUS
10
4.9556133070866144
20
-3.9379444881889762
11
4.9556133070866144
21
-3.9420555118110236
0
LINE
8
BLACK
6
CONTINUOUS
10
4.9556133070866144
20
-3.9420555118110236
11
4.9545492913385827
21
-3.9460264960629918
0
LINE
8
BLACK
6
CONTINUOUS
10
4.9545492913385827
20
-3.9460264960629918
11
4.9524937401574798
21
-3.9495868110236221
0
LINE
8
BLACK
6
CONTINUOUS
10
4.9524937401574798
20
-3.9495868110236221
11
4.9518110236220467
21
-3.9502695275590551
0
LINE
8
BLACK
6
CONTINUOUS
10
4.9518110236220467
20
-3.9502695275590551
11
4.9518110236220467
21
-3.96
0
LINE
8
BLACK
6
CONTINUOUS
10
4.9518110236220467
20
-3.96
11
5.04
21
-3.96
0
LINE
8
BLACK
6
CONTINUOUS
10
5.04
20
-3.96
11
5.04
21
-4.0977952755905509
0
LINE
8
BLACK
6
CONTINUOUS
10
5.04
20
-4.0977952755905509
11
4.9022047244094491
21
-4.0977952755905509
0
LINE
8
BLACK
6
CONTINUOUS
10
4.9022047244094491
20
-4.0977952755905509
11
4.9022047244094491
21
-3.96
0
LINE
8
BLACK
6
CONTINUOUS
10
4.9022047244094491
20
-3.96
11
4.9281889763779523
21
-3.96
0
LINE
8
BLACK
6
CONTINUOUS
10
4.9281889763779523
20
-3.96
11
4.9281889763779523
21
-3.9502695275590551
0
LINE
8
BLACK
6
CONTINUOUS
10
4.9281889763779523
20
-3.9502695275590551
11
4.9275062598425192
21
-3.9495868110236221
0
LINE
8
BLACK
6
CONTINUOUS
10
4.9275062598425192
20
-3.9495868110236221
11
4.9254507086614172
21
-3.9460264960629918
0
LINE
8
BLACK
6
CONTINUOUS
10
4.9254507086614172
20
-3.9460264960629918
11
4.9243866929133855
21
-3.9420555118110236
0
LINE
8
BLACK
6
CONTINUOUS
10
4.9243866929133855
20
-3.9420555118110236
11
4.9243866929133855
21
-3.9379444881889762
0
LINE
8
BLACK
6
CONTINUOUS
10
4.9243866929133855
20
-3.9379444881889762
11
4.9254507086614172
21
-3.9339735039370076
0
LINE
8
BLACK
6
CONTINUOUS
10
4.9254507086614172
20
-3.9339735039370076
11
4.9275062598425192
21
-3.9304131889763778
0
LINE
8
BLACK
6
CONTINUOUS
10
4.9275062598425192
20
-3.9304131889763778
11
4.9304131889763783
21
-3.9275062598425197
0
LINE
8
BLACK
6
CONTINUOUS
10
4.9304131889763783
20
-3.9275062598425197
11
4.9339735039370076
21
-3.9254507086614172
0
LINE
8
BLACK
6
CONTINUOUS
10
4.9339735039370076
20
-3.9254507086614172
11
4.9379444881889762
21
-3.9243866929133859
0
LINE
8
BLACK
6
CONTINUOUS
10
4.9379444881889762
20
-3.9243866929133859
11
4.9420555118110236
21
-3.9243866929133859
0
LINE
8
BLACK
6
CONTINUOUS
10
4.9420555118110236
20
-3.9243866929133859
11
4.9460264960629923
21
-3.9254507086614172
0
LINE
8
BLACK
6
CONTINUOUS
10
6.8399999999999999
20
-4.0947244094488191
11
6.7800000000000002
21
-4.0947244094488191
0
LINE
8
BLACK
6
CONTINUOUS
10
6.7800000000000002
20
-4.0947244094488191
11
6.7800000000000002
21
-4.0347244094488186
0
LINE
8
BLACK
6
CONTINUOUS
10
6.7800000000000002
20
-4.0347244094488186
11
6.8399999999999999
21
-4.0347244094488186
0
LINE
8
BLACK
6
CONTINUOUS
10
6.8399999999999999
20
-4.0347244094488186
11
6.8399999999999999
21
-4.0947244094488191
0
LINE
8
BLACK
6
CONTINUOUS
10
6.8802212992125984
20
-3.8899410236220473
11
6.8820517322834647
21
-3.8920534645669291
0
LINE
8
BLACK
6
CONTINUOUS
10
6.8820517322834647
20
-3.8920534645669291
11
6.8825000000000003
21
-3.8941141732283464
0
LINE
8
BLACK
6
CONTINUOUS
10
6.8825000000000003
20
-3.8941141732283464
11
6.8825000000000003
21
-4.4353346456692915
0
LINE
8
BLACK
6
CONTINUOUS
10
6.8825000000000003
20
-4.4353346456692915
11
6.8817125196850393
21
-4.4380165748031493
0
LINE
8
BLACK
6
CONTINUOUS
10
6.8817125196850393
20
-4.4380165748031493
11
6.8796000787401574
21
-4.4398470078740155
0
LINE
8
BLACK
6
CONTINUOUS
10
6.8796000787401574
20
-4.4398470078740155
11
6.8775393700787397
21
-4.4402952755905511
0
LINE
8
BLACK
6
CONTINUOUS
10
6.8775393700787397
20
-4.4402952755905511
11
4.5646653543307085
21
-4.4402952755905511
0
LINE
8
BLACK
6
CONTINUOUS
10
4.5646653543307085
20
-4.4402952755905511
11
4.5619834251968499
21
-4.4395077952755901
0
LINE
8
BLACK
6
CONTINUOUS
10
4.5619834251968499
20
-4.4395077952755901
11
4.5601529921259845
21
-4.4373953543307083
0
LINE
8
BLACK
6
CONTINUOUS
10
4.5601529921259845
20
-4.4373953543307083
11
4.5597047244094489
21
-4.4353346456692915
0
LINE
8
BLACK
6
CONTINUOUS
10
4.5597047244094489
20
-4.4353346456692915
11
4.5597047244094489
21
-4.1672836220472442
0
LINE
8
BLACK
6
CONTINUOUS
10
4.5597047244094489
20
-4.1672836220472442
11
4.5597047244094489
21
-4.1272836220472442
0
LINE
8
BLACK
6
CONTINUOUS
10
4.5597047244094489
20
-4.1272836220472442
11
4.5597047244094489
21
-3.9582334251968505
0
LINE
8
BLACK
6
CONTINUOUS
10
4.5597047244094489
20
-3.9582334251968505
11
4.5597047244094489
21
-3.8941141732283464
0
LINE
8
BLACK
6
CONTINUOUS
10
4.5597047244094489
20
-3.8941141732283464
11
4.560492204724409
21
-3.8914322440944882
0
LINE
8
BLACK
6
CONTINUOUS
10
4.560492204724409
20
-3.8914322440944882
11
4.5626046456692908
21
-3.8896018110236219
0
LINE
8
BLACK
6
CONTINUOUS
10
4.5626046456692908
20
-3.8896018110236219
11
4.5646653543307085
21
-3.8891535433070867
0
LINE
8
BLACK
6
CONTINUOUS
10
4.5646653543307085
20
-3.8891535433070867
11
6.8775393700787397
21
-3.8891535433070867
0
LINE
8
BLACK
6
CONTINUOUS
10
6.8775393700787397
20
-3.8891535433070867
11
6.8802212992125984
21
-3.8899410236220473
0
LINE
8
BLACK
6
CONTINUOUS
10
6.6681890157480312
20
-4.3706299212598427
11
6.6681890157480312
21
-4.3964879527559058
0
LINE
8
BLACK
6
CONTINUOUS
10
6.6681890157480312
20
-4.3964879527559058
11
6.6683035039370075
21
-4.39747531496063
0
LINE
8
BLACK
6
CONTINUOUS
10
6.6683035039370075
20
-4.39747531496063
11
6.6683035826771651
21
-4.3974755118110238
0
LINE
8
BLACK
6
CONTINUOUS
10
6.6683035826771651
20
-4.3974755118110238
11
6.6700870866141733
21
-4.4015148425196848
0
LINE
8
BLACK
6
CONTINUOUS
10
6.6700870866141733
20
-4.4015148425196848
11
6.6732094488188975
21
-4.4046372047244091
0
LINE
8
BLACK
6
CONTINUOUS
10
6.6732094488188975
20
-4.4046372047244091
11
6.6732095275590551
21
-4.4046372440944879
0
LINE
8
BLACK
6
CONTINUOUS
10
6.6732095275590551
20
-4.4046372440944879
11
6.6772490551181098
21
-4.4064208661417323
0
LINE
8
BLACK
6
CONTINUOUS
10
6.6772490551181098
20
-4.4064208661417323
11
6.6772490157480311
21
-4.4064208661417323
0
LINE
8
BLACK
6
CONTINUOUS
10
6.6772490157480311
20
-4.4064208661417323
11
6.6782363385826766
21
-4.4065353937007874
0
LINE
8
BLACK
6
CONTINUOUS
10
6.6782363385826766
20
-4.4065353937007874
11
6.7040944881889759
21
-4.4065353937007874
0
LINE
8
BLACK
6
CONTINUOUS
10
6.7040944881889759
20
-4.4065353937007874
11
6.7040944881889759
21
-4.3947244094488189
0
LINE
8
BLACK
6
CONTINUOUS
10
6.7040944881889759
20
-4.3947244094488189
11
6.6799999999999997
21
-4.3947244094488189
0
LINE
8
BLACK
6
CONTINUOUS
10
6.6799999999999997
20
-4.3947244094488189
11
6.6799999999999997
21
-4.3706299212598427
0
LINE
8
BLACK
6
CONTINUOUS
10
6.6799999999999997
20
-4.3706299212598427
11
6.6681890157480312
21
-4.3706299212598427
0
LINE
8
BLACK
6
CONTINUOUS
10
6.7400000000000002
20
-4.3947244094488189
11
6.7159055118110231
21
-4.3947244094488189
0
LINE
8
BLACK
6
CONTINUOUS
10
6.7159055118110231
20
-4.3947244094488189
11
6.7159055118110231
21
-4.4065353937007874
0
LINE
8
BLACK
6
CONTINUOUS
10
6.7159055118110231
20
-4.4065353937007874
11
6.7417633464566924
21
-4.4065353937007874
0
LINE
8
BLACK
6
CONTINUOUS
10
6.7417633464566924
20
-4.4065353937007874
11
6.7417635433070862
21
-4.4065353543307086
0
LINE
8
BLACK
6
CONTINUOUS
10
6.7417635433070862
20
-4.4065353543307086
11
6.7427509055118104
21
-4.4064208661417323
0
LINE
8
BLACK
6
CONTINUOUS
10
6.7427509055118104
20
-4.4064208661417323
11
6.7427511023622042
21
-4.4064207874015748
0
LINE
8
BLACK
6
CONTINUOUS
10
6.7427511023622042
20
-4.4064207874015748
11
6.7467904330708661
21
-4.4046372834645666
0
LINE
8
BLACK
6
CONTINUOUS
10
6.7467904330708661
20
-4.4046372834645666
11
6.7499127952755904
21
-4.4015149212598423
0
LINE
8
BLACK
6
CONTINUOUS
10
6.7499127952755904
20
-4.4015149212598423
11
6.7499128346456692
21
-4.4015148425196848
0
LINE
8
BLACK
6
CONTINUOUS
10
6.7499128346456692
20
-4.4015148425196848
11
6.7516964566929136
21
-4.39747531496063
0
LINE
8
BLACK
6
CONTINUOUS
10
6.7516964566929136
20
-4.39747531496063
11
6.7518109842519687
21
-4.3964881102362208
0
LINE
8
BLACK
6
CONTINUOUS
10
6.7518109842519687
20
-4.3964881102362208
11
6.7518110236220474
21
-4.3964879921259845
0
LINE
8
BLACK
6
CONTINUOUS
10
6.7518110236220474
20
-4.3964879921259845
11
6.7518110236220474
21
-4.3706299212598427
0
LINE
8
BLACK
6
CONTINUOUS
10
6.7518110236220474
20
-4.3706299212598427
11
6.7400000000000002
21
-4.3706299212598427
0
LINE
8
BLACK
6
CONTINUOUS
10
6.7400000000000002
20
-4.3706299212598427
11
6.7400000000000002
21
-4.3947244094488189
0
LINE
8
BLACK
6
CONTINUOUS
10
6.7681890157480318
20
-4.3706299212598427
11
6.7681890157480318
21
-4.3964879527559058
0
LINE
8
BLACK
6
CONTINUOUS
10
6.7681890157480318
20
-4.3964879527559058
11
6.7683035039370081
21
-4.39747531496063
0
LINE
8
BLACK
6
CONTINUOUS
10
6.7683035039370081
20
-4.39747531496063
11
6.7683035826771656
21
-4.3974755118110238
0
LINE
8
BLACK
6
CONTINUOUS
10
6.7683035826771656
20
-4.3974755118110238
11
6.7700870866141729
21
-4.4015148425196848
0
LINE
8
BLACK
6
CONTINUOUS
10
6.7700870866141729
20
-4.4015148425196848
11
6.7732094488188972
21
-4.4046372047244091
0
LINE
8
BLACK
6
CONTINUOUS
10
6.7732094488188972
20
-4.4046372047244091
11
6.7732095275590547
21
-4.4046372440944879
0
LINE
8
BLACK
6
CONTINUOUS
10
6.7732095275590547
20
-4.4046372440944879
11
6.7772490551181104
21
-4.4064208661417323
0
LINE
8
BLACK
6
CONTINUOUS
10
6.7772490551181104
20
-4.4064208661417323
11
6.7772490157480316
21
-4.4064208661417323
0
LINE
8
BLACK
6
CONTINUOUS
10
6.7772490157480316
20
-4.4064208661417323
11
6.7782363385826772
21
-4.4065353937007874
0
LINE
8
BLACK
6
CONTINUOUS
10
6.7782363385826772
20
-4.4065353937007874
11
6.8040944881889764
21
-4.4065353937007874
0
LINE
8
BLACK
6
CONTINUOUS
10
6.8040944881889764
20
-4.4065353937007874
11
6.8040944881889764
21
-4.3947244094488189
0
LINE
8
BLACK
6
CONTINUOUS
10
6.8040944881889764
20
-4.3947244094488189
11
6.7800000000000002
21
-4.3947244094488189
0
LINE
8
BLACK
6
CONTINUOUS
10
6.7800000000000002
20
-4.3947244094488189
11
6.7800000000000002
21
-4.3706299212598427
0
LINE
8
BLACK
6
CONTINUOUS
10
6.7800000000000002
20
-4.3706299212598427
11
6.7681890157480318
21
-4.3706299212598427
0
LINE
8
BLACK
6
CONTINUOUS
10
6.8399999999999999
20
-4.3947244094488189
11
6.8159055118110237
21
-4.3947244094488189
0
LINE
8
BLACK
6
CONTINUOUS
10
6.8159055118110237
20
-4.3947244094488189
11
6.8159055118110237
21
-4.4065353937007874
0
LINE
8
BLACK
6
CONTINUOUS
10
6.8159055118110237
20
-4.4065353937007874
11
6.8417633464566929
21
-4.4065353937007874
0
LINE
8
BLACK
6
CONTINUOUS
10
6.8417633464566929
20
-4.4065353937007874
11
6.8417635433070867
21
-4.4065353543307086
0
LINE
8
BLACK
6
CONTINUOUS
10
6.8417635433070867
20
-4.4065353543307086
11
6.842750905511811
21
-4.4064208661417323
0
LINE
8
BLACK
6
CONTINUOUS
10
6.842750905511811
20
-4.4064208661417323
11
6.8427511023622047
21
-4.4064207874015748
0
LINE
8
BLACK
6
CONTINUOUS
10
6.8427511023622047
20
-4.4064207874015748
11
6.8467904330708658
21
-4.4046372834645666
0
LINE
8
BLACK
6
CONTINUOUS
10
6.8467904330708658
20
-4.4046372834645666
11
6.84991279527559
21
-4.4015149212598423
0
LINE
8
BLACK
6
CONTINUOUS
10
6.84991279527559
20
-4.4015149212598423
11
6.8499128346456688
21
-4.4015148425196848
0
LINE
8
BLACK
6
CONTINUOUS
10
6.8499128346456688
20
-4.4015148425196848
11
6.8516964566929133
21
-4.39747531496063
0
LINE
8
BLACK
6
CONTINUOUS
10
6.8516964566929133
20
-4.39747531496063
11
6.8518109842519683
21
-4.3964881102362208
0
LINE
8
BLACK
6
CONTINUOUS
10
6.8518109842519683
20
-4.3964881102362208
11
6.8518110236220471
21
-4.3964879921259845
0
LINE
8
BLACK
6
CONTINUOUS
10
6.8518110236220471
20
-4.3964879921259845
11
6.8518110236220471
21
-4.3706299212598427
0
LINE
8
BLACK
6
CONTINUOUS
10
6.8518110236220471
20
-4.3706299212598427
11
6.8399999999999999
21
-4.3706299212598427
0
LINE
8
BLACK
6
CONTINUOUS
10
6.8399999999999999
20
-4.3706299212598427
11
6.8399999999999999
21
-4.3947244094488189
0
LINE
8
BLACK
6
CONTINUOUS
10
4.58242125984252
20
-4.1727163385826769
11
4.5834811023622049
21
-4.1780444094488187
0
LINE
8
BLACK
6
CONTINUOUS
10
4.5834811023622049
20
-4.1780444094488187
11
4.5834811417322836
21
-4.178044527559055
0
LINE
8
BLACK
6
CONTINUOUS
10
4.5834811417322836
20
-4.178044527559055
11
4.5855601574803151
21
-4.1830637401574799
0
LINE
8
BLACK
6
CONTINUOUS
10
4.5855601574803151
20
-4.1830637401574799
11
4.5856749606299214
21
-4.1832785039370082
0
LINE
8
BLACK
6
CONTINUOUS
10
4.5856749606299214
20
-4.1832785039370082
11
4.5856168503937003
21
-4.1833095275590546
0
LINE
8
BLACK
6
CONTINUOUS
10
4.5856168503937003
20
-4.1833095275590546
11
4.5863574803149607
21
-4.1856736220472444
0
LINE
8
BLACK
6
CONTINUOUS
10
4.5863574803149607
20
-4.1856736220472444
11
4.5863582677165358
21
-4.1857628346456695
0
LINE
8
BLACK
6
CONTINUOUS
10
4.5863582677165358
20
-4.1857628346456695
11
4.5863582677165358
21
-4.2076853543307084
0
LINE
8
BLACK
6
CONTINUOUS
10
4.5863582677165358
20
-4.2076853543307084
11
4.586358228346457
21
-4.207686062992126
0
LINE
8
BLACK
6
CONTINUOUS
10
4.586358228346457
20
-4.207686062992126
11
4.586358228346457
21
-4.2079898818897634
0
LINE
8
BLACK
6
CONTINUOUS
10
4.586358228346457
20
-4.2079898818897634
11
4.586358228346457
21
-4.2142148425196853
0
LINE
8
BLACK
6
CONTINUOUS
10
4.586358228346457
20
-4.2142148425196853
11
4.5878609055118114
21
-4.2198228346456688
0
LINE
8
BLACK
6
CONTINUOUS
10
4.5878609055118114
20
-4.2198228346456688
11
4.587969409448819
21
-4.2202277559055119
0
LINE
8
BLACK
6
CONTINUOUS
10
4.587969409448819
20
-4.2202277559055119
11
4.5879694488188978
21
-4.2202277952755907
0
LINE
8
BLACK
6
CONTINUOUS
10
4.5879694488188978
20
-4.2202277952755907
11
4.5888333858267716
21
-4.2217241732283464
0
LINE
8
BLACK
6
CONTINUOUS
10
4.5888333858267716
20
-4.2217241732283464
11
4.5888333858267716
21
-4.2217242125984251
0
LINE
8
BLACK
6
CONTINUOUS
10
4.5888333858267716
20
-4.2217242125984251
11
4.5910817716535428
21
-4.2256185826771651
0
LINE
8
BLACK
6
CONTINUOUS
10
4.5910817716535428
20
-4.2256185826771651
11
4.5910820866141728
21
-4.2256189763779526
0
LINE
8
BLACK
6
CONTINUOUS
10
4.5910820866141728
20
-4.2256189763779526
11
4.5957661023622043
21
-4.230302992125984
0
LINE
8
BLACK
6
CONTINUOUS
10
4.5957661023622043
20
-4.230302992125984
11
4.5957666535433068
21
-4.2303034645669291
0
LINE
8
BLACK
6
CONTINUOUS
10
4.5957666535433068
20
-4.2303034645669291
11
4.617267519685039
21
-4.2518043307086613
0
LINE
8
BLACK
6
CONTINUOUS
10
4.617267519685039
20
-4.2518043307086613
11
4.6186071259842523
21
-4.2542575590551177
0
LINE
8
BLACK
6
CONTINUOUS
10
4.6186071259842523
20
-4.2542575590551177
11
4.6187204724409447
21
-4.2553120078740161
0
LINE
8
BLACK
6
CONTINUOUS
10
4.6187204724409447
20
-4.2553120078740161
11
4.6187204724409447
21
-4.3712149212598428
0
LINE
8
BLACK
6
CONTINUOUS
10
4.6187204724409447
20
-4.3712149212598428
11
4.6187205118110235
21
-4.3712151968503932
0
LINE
8
BLACK
6
CONTINUOUS
10
4.6187205118110235
20
-4.3712151968503932
11
4.6188351968503936
21
-4.3722043307086613
0
LINE
8
BLACK
6
CONTINUOUS
10
4.6188351968503936
20
-4.3722043307086613
11
4.6188352755905511
21
-4.3722044881889763
0
LINE
8
BLACK
6
CONTINUOUS
10
4.6188352755905511
20
-4.3722044881889763
11
4.6206217716535436
21
-4.376250590551181
0
LINE
8
BLACK
6
CONTINUOUS
10
4.6206217716535436
20
-4.376250590551181
11
4.6237492913385827
21
-4.3793781102362201
0
LINE
8
BLACK
6
CONTINUOUS
10
4.6237492913385827
20
-4.3793781102362201
11
4.6237493700787402
21
-4.3793781496062989
0
LINE
8
BLACK
6
CONTINUOUS
10
4.6237493700787402
20
-4.3793781496062989
11
4.623749409448819
21
-4.3793781889763777
0
LINE
8
BLACK
6
CONTINUOUS
10
4.623749409448819
20
-4.3793781889763777
11
4.6277956299212599
21
-4.3811647637795277
0
LINE
8
BLACK
6
CONTINUOUS
10
4.6277956299212599
20
-4.3811647637795277
11
4.6287848425196847
21
-4.3812795275590553
0
LINE
8
BLACK
6
CONTINUOUS
10
4.6287848425196847
20
-4.3812795275590553
11
4.7701127559055116
21
-4.3812794881889765
0
LINE
8
BLACK
6
CONTINUOUS
10
4.7701127559055116
20
-4.3812794881889765
11
4.7711020078740161
21
-4.3811647637795277
0
LINE
8
BLACK
6
CONTINUOUS
10
4.7711020078740161
20
-4.3811647637795277
11
4.775148228346457
21
-4.3793781889763777
0
LINE
8
BLACK
6
CONTINUOUS
10
4.775148228346457
20
-4.3793781889763777
11
4.7782758267716536
21
-4.376250590551181
0
LINE
8
BLACK
6
CONTINUOUS
10
4.7782758267716536
20
-4.376250590551181
11
4.7800624015748028
21
-4.3722043700787401
0
LINE
8
BLACK
6
CONTINUOUS
10
4.7800624015748028
20
-4.3722043700787401
11
4.7801771653543303
21
-4.3712151574803144
0
LINE
8
BLACK
6
CONTINUOUS
10
4.7801771653543303
20
-4.3712151574803144
11
4.7801771259842516
21
-4.2298872440944884
0
LINE
8
BLACK
6
CONTINUOUS
10
4.7801771259842516
20
-4.2298872440944884
11
4.7801770866141728
21
-4.2298869685039371
0
LINE
8
BLACK
6
CONTINUOUS
10
4.7801770866141728
20
-4.2298869685039371
11
4.7800624015748028
21
-4.2288979921259839
0
LINE
8
BLACK
6
CONTINUOUS
10
4.7800624015748028
20
-4.2288979921259839
11
4.7794437795275586
21
-4.2274969291338582
0
LINE
8
BLACK
6
CONTINUOUS
10
4.7794437795275586
20
-4.2274969291338582
11
4.7782758267716536
21
-4.2248517322834642
0
LINE
8
BLACK
6
CONTINUOUS
10
4.7782758267716536
20
-4.2248517322834642
11
4.7751483070866136
21
-4.2217242125984251
0
LINE
8
BLACK
6
CONTINUOUS
10
4.7751483070866136
20
-4.2217242125984251
11
4.775148228346457
21
-4.2217241732283464
0
LINE
8
BLACK
6
CONTINUOUS
10
4.775148228346457
20
-4.2217241732283464
11
4.7711019291338586
21
-4.2199375590551176
0
LINE
8
BLACK
6
CONTINUOUS
10
4.7711019291338586
20
-4.2199375590551176
11
4.7711019685039373
21
-4.2199375590551176
0
LINE
8
BLACK
6
CONTINUOUS
10
4.7711019685039373
20
-4.2199375590551176
11
4.7701129921259842
21
-4.2198228346456688
0
LINE
8
BLACK
6
CONTINUOUS
10
4.7701129921259842
20
-4.2198228346456688
11
4.7701127952755904
21
-4.2198228346456688
0
LINE
8
BLACK
6
CONTINUOUS
10
4.7701127952755904
20
-4.2198228346456688
11
4.6542096456692912
21
-4.2198228346456688
0
LINE
8
BLACK
6
CONTINUOUS
10
4.6542096456692912
20
-4.2198228346456688
11
4.6515277165354334
21
-4.2190353543307086
0
LINE
8
BLACK
6
CONTINUOUS
10
4.6515277165354334
20
-4.2190353543307086
11
4.6507019685039372
21
-4.2183698818897639
0
LINE
8
BLACK
6
CONTINUOUS
10
4.6507019685039372
20
-4.2183698818897639
11
4.6350946850393697
21
-4.2027625984251964
0
LINE
8
BLACK
6
CONTINUOUS
10
4.6350946850393697
20
-4.2027625984251964
11
4.6337550787401574
21
-4.2003093700787399
0
LINE
8
BLACK
6
CONTINUOUS
10
4.6337550787401574
20
-4.2003093700787399
11
4.6336417322834649
21
-4.1992549212598425
0
LINE
8
BLACK
6
CONTINUOUS
10
4.6336417322834649
20
-4.1992549212598425
11
4.6336417322834649
21
-4.1857628346456695
0
LINE
8
BLACK
6
CONTINUOUS
10
4.6336417322834649
20
-4.1857628346456695
11
4.6343649212598423
21
-4.1832998031496063
0
LINE
8
BLACK
6
CONTINUOUS
10
4.6343649212598423
20
-4.1832998031496063
11
4.6343250393700783
21
-4.1832785039370082
0
LINE
8
BLACK
6
CONTINUOUS
10
4.6343250393700783
20
-4.1832785039370082
11
4.634427440944882
21
-4.1830868503937007
0
LINE
8
BLACK
6
CONTINUOUS
10
4.634427440944882
20
-4.1830868503937007
11
4.634429212598425
21
-4.1830809055118108
0
LINE
8
BLACK
6
CONTINUOUS
10
4.634429212598425
20
-4.1830809055118108
11
4.6344370078740154
21
-4.1830689763779523
0
LINE
8
BLACK
6
CONTINUOUS
10
4.6344370078740154
20
-4.1830689763779523
11
4.6344398031496059
21
-4.1830637401574799
0
LINE
8
BLACK
6
CONTINUOUS
10
4.6344398031496059
20
-4.1830637401574799
11
4.6344398818897634
21
-4.1830635039370074
0
LINE
8
BLACK
6
CONTINUOUS
10
4.6344398818897634
20
-4.1830635039370074
11
4.6344399606299209
21
-4.1830634251968499
0
LINE
8
BLACK
6
CONTINUOUS
10
4.6344399606299209
20
-4.1830634251968499
11
4.6365188976377949
21
-4.1780444094488187
0
LINE
8
BLACK
6
CONTINUOUS
10
4.6365188976377949
20
-4.1780444094488187
11
4.6375787401574806
21
-4.1727162598425194
0
LINE
8
BLACK
6
CONTINUOUS
10
4.6375787401574806
20
-4.1727162598425194
11
4.6375787401574806
21
-4.1672837401574805
0
LINE
8
BLACK
6
CONTINUOUS
10
4.6375787401574806
20
-4.1672837401574805
11
4.6365188976377949
21
-4.1619555905511811
0
LINE
8
BLACK
6
CONTINUOUS
10
4.6365188976377949
20
-4.1619555905511811
11
4.6344399606299209
21
-4.1569365748031499
0
LINE
8
BLACK
6
CONTINUOUS
10
4.6344399606299209
20
-4.1569365748031499
11
4.631421811023622
21
-4.1524196062992127
0
LINE
8
BLACK
6
CONTINUOUS
10
4.631421811023622
20
-4.1524196062992127
11
4.6314216141732283
21
-4.1524193700787402
0
LINE
8
BLACK
6
CONTINUOUS
10
4.6314216141732283
20
-4.1524193700787402
11
4.6275805905511813
21
-4.1485783464566932
0
LINE
8
BLACK
6
CONTINUOUS
10
4.6275805905511813
20
-4.1485783464566932
11
4.6275803543307088
21
-4.1485781496062994
0
LINE
8
BLACK
6
CONTINUOUS
10
4.6275803543307088
20
-4.1485781496062994
11
4.6255543307086615
21
-4.1472244094488184
0
LINE
8
BLACK
6
CONTINUOUS
10
4.6255543307086615
20
-4.1472244094488184
11
4.6230634251968503
21
-4.1455600393700784
0
LINE
8
BLACK
6
CONTINUOUS
10
4.6230634251968503
20
-4.1455600393700784
11
4.619898464566929
21
-4.1442490551181104
0
LINE
8
BLACK
6
CONTINUOUS
10
4.619898464566929
20
-4.1442490551181104
11
4.6180445275590554
21
-4.1434811417322832
0
LINE
8
BLACK
6
CONTINUOUS
10
4.6180445275590554
20
-4.1434811417322832
11
4.6180444094488191
21
-4.1434811023622045
0
LINE
8
BLACK
6
CONTINUOUS
10
4.6180444094488191
20
-4.1434811023622045
11
4.6127163385826773
21
-4.1424212598425196
0
LINE
8
BLACK
6
CONTINUOUS
10
4.6127163385826773
20
-4.1424212598425196
11
4.6127162598425198
21
-4.1424212598425196
0
LINE
8
BLACK
6
CONTINUOUS
10
4.6127162598425198
20
-4.1424212598425196
11
4.60728374015748
21
-4.1424212598425196
0
LINE
8
BLACK
6
CONTINUOUS
10
4.60728374015748
20
-4.1424212598425196
11
4.6072836220472437
21
-4.1424212598425196
0
LINE
8
BLACK
6
CONTINUOUS
10
4.6072836220472437
20
-4.1424212598425196
11
4.6019555511811019
21
-4.1434811023622045
0
LINE
8
BLACK
6
CONTINUOUS
10
4.6019555511811019
20
-4.1434811023622045
11
4.6019554330708656
21
-4.1434811417322832
0
LINE
8
BLACK
6
CONTINUOUS
10
4.6019554330708656
20
-4.1434811417322832
11
4.5969365748031494
21
-4.1455600393700784
0
LINE
8
BLACK
6
CONTINUOUS
10
4.5969365748031494
20
-4.1455600393700784
11
4.5924196062992122
21
-4.1485781496062994
0
LINE
8
BLACK
6
CONTINUOUS
10
4.5924196062992122
20
-4.1485781496062994
11
4.5924193700787397
21
-4.1485783464566932
0
LINE
8
BLACK
6
CONTINUOUS
10
4.5924193700787397
20
-4.1485783464566932
11
4.5885783464566927
21
-4.1524193700787402
0
LINE
8
BLACK
6
CONTINUOUS
10
4.5885783464566927
20
-4.1524193700787402
11
4.588578149606299
21
-4.1524196062992127
0
LINE
8
BLACK
6
CONTINUOUS
10
4.588578149606299
20
-4.1524196062992127
11
4.5855600393700788
21
-4.1569365748031499
0
LINE
8
BLACK
6
CONTINUOUS
10
4.5855600393700788
20
-4.1569365748031499
11
4.5834811417322836
21
-4.1619554330708661
0
LINE
8
BLACK
6
CONTINUOUS
10
4.5834811417322836
20
-4.1619554330708661
11
4.5834811023622049
21
-4.1619555511811024
0
LINE
8
BLACK
6
CONTINUOUS
10
4.5834811023622049
20
-4.1619555511811024
11
4.58242125984252
21
-4.1672836220472442
0
LINE
8
BLACK
6
CONTINUOUS
10
4.58242125984252
20
-4.1672836220472442
11
4.58242125984252
21
-4.1727163385826769
0
LINE
8
BLACK
6
CONTINUOUS
10
4.8903740157480318
20
-4.3712149212598428
11
4.8903740551181105
21
-4.3712151968503932
0
LINE
8
BLACK
6
CONTINUOUS
10
4.8903740551181105
20
-4.3712151968503932
11
4.8904887401574806
21
-4.3722043307086613
0
LINE
8
BLACK
6
CONTINUOUS
10
4.8904887401574806
20
-4.3722043307086613
11
4.8904888188976381
21
-4.3722044881889763
0
LINE
8
BLACK
6
CONTINUOUS
10
4.8904888188976381
20
-4.3722044881889763
11
4.8922753149606297
21
-4.376250590551181
0
LINE
8
BLACK
6
CONTINUOUS
10
4.8922753149606297
20
-4.376250590551181
11
4.8954028346456688
21
-4.3793781102362201
0
LINE
8
BLACK
6
CONTINUOUS
10
4.8954028346456688
20
-4.3793781102362201
11
4.8954029133858263
21
-4.3793781496062989
0
LINE
8
BLACK
6
CONTINUOUS
10
4.8954029133858263
20
-4.3793781496062989
11
4.8954029527559051
21
-4.3793781889763777
0
LINE
8
BLACK
6
CONTINUOUS
10
4.8954029527559051
20
-4.3793781889763777
11
4.8994491732283461
21
-4.3811647637795277
0
LINE
8
BLACK
6
CONTINUOUS
10
4.8994491732283461
20
-4.3811647637795277
11
4.9004383858267717
21
-4.3812795275590553
0
LINE
8
BLACK
6
CONTINUOUS
10
4.9004383858267717
20
-4.3812795275590553
11
5.0417662992125987
21
-4.3812794881889765
0
LINE
8
BLACK
6
CONTINUOUS
10
5.0417662992125987
20
-4.3812794881889765
11
5.0427555511811022
21
-4.3811647637795277
0
LINE
8
BLACK
6
CONTINUOUS
10
5.0427555511811022
20
-4.3811647637795277
11
5.0468017716535432
21
-4.3793781889763777
0
LINE
8
BLACK
6
CONTINUOUS
10
5.0468017716535432
20
-4.3793781889763777
11
5.0499293700787398
21
-4.376250590551181
0
LINE
8
BLACK
6
CONTINUOUS
10
5.0499293700787398
20
-4.376250590551181
11
5.0517159448818898
21
-4.3722043700787401
0
LINE
8
BLACK
6
CONTINUOUS
10
5.0517159448818898
20
-4.3722043700787401
11
5.0518307086614174
21
-4.3712151574803144
0
LINE
8
BLACK
6
CONTINUOUS
10
5.0518307086614174
20
-4.3712151574803144
11
5.0518306692913386
21
-4.3329606692913387
0
LINE
8
BLACK
6
CONTINUOUS
10
5.0518306692913386
20
-4.3329606692913387
11
5.0518306692913386
21
-4.2974800787401577
0
LINE
8
BLACK
6
CONTINUOUS
10
5.0518306692913386
20
-4.2974800787401577
11
5.0518306692913386
21
-4.2329578346456689
0
LINE
8
BLACK
6
CONTINUOUS
10
5.0518306692913386
20
-4.2329578346456689
11
5.0518306692913386
21
-4.2328148031496058
0
LINE
8
BLACK
6
CONTINUOUS
10
5.0518306692913386
20
-4.2328148031496058
11
5.0518306692913386
21
-4.2298874015748034
0
LINE
8
BLACK
6
CONTINUOUS
10
5.0518306692913386
20
-4.2298874015748034
11
5.0518306692913386
21
-4.2298872440944884
0
LINE
8
BLACK
6
CONTINUOUS
10
5.0518306692913386
20
-4.2298872440944884
11
5.0517159448818898
21
-4.2288979921259839
0
LINE
8
BLACK
6
CONTINUOUS
10
5.0517159448818898
20
-4.2288979921259839
11
5.0510973228346456
21
-4.2274969291338582
0
LINE
8
BLACK
6
CONTINUOUS
10
5.0510973228346456
20
-4.2274969291338582
11
5.0499293700787398
21
-4.2248517322834642
0
LINE
8
BLACK
6
CONTINUOUS
10
5.0499293700787398
20
-4.2248517322834642
11
5.0468018503937007
21
-4.2217242125984251
0
LINE
8
BLACK
6
CONTINUOUS
10
5.0468018503937007
20
-4.2217242125984251
11
5.0468017716535432
21
-4.2217241732283464
0
LINE
8
BLACK
6
CONTINUOUS
10
5.0468017716535432
20
-4.2217241732283464
11
5.0427554724409447
21
-4.2199375590551176
0
LINE
8
BLACK
6
CONTINUOUS
10
5.0427554724409447
20
-4.2199375590551176
11
5.0427555118110234
21
-4.2199375590551176
0
LINE
8
BLACK
6
CONTINUOUS
10
5.0427555118110234
20
-4.2199375590551176
11
5.0417664566929137
21
-4.2198228346456688
0
LINE
8
BLACK
6
CONTINUOUS
10
5.0417664566929137
20
-4.2198228346456688
11
4.9004385826771655
21
-4.2198228346456688
0
LINE
8
BLACK
6
CONTINUOUS
10
4.9004385826771655
20
-4.2198228346456688
11
4.9004383070866142
21
-4.2198228740157475
0
LINE
8
BLACK
6
CONTINUOUS
10
4.9004383070866142
20
-4.2198228740157475
11
4.8994491732283461
21
-4.2199375590551176
0
LINE
8
BLACK
6
CONTINUOUS
10
4.8994491732283461
20
-4.2199375590551176
11
4.899449015748031
21
-4.2199376377952751
0
LINE
8
BLACK
6
CONTINUOUS
10
4.899449015748031
20
-4.2199376377952751
11
4.8954029133858263
21
-4.2217241338582676
0
LINE
8
BLACK
6
CONTINUOUS
10
4.8954029133858263
20
-4.2217241338582676
11
4.8922753937007872
21
-4.2248516535433067
0
LINE
8
BLACK
6
CONTINUOUS
10
4.8922753937007872
20
-4.2248516535433067
11
4.8922753543307085
21
-4.2248517322834642
0
LINE
8
BLACK
6
CONTINUOUS
10
4.8922753543307085
20
-4.2248517322834642
11
4.8904887401574806
21
-4.2288979921259839
0
LINE
8
BLACK
6
CONTINUOUS
10
4.8904887401574806
20
-4.2288979921259839
11
4.8903740157480318
21
-4.2298869685039371
0
LINE
8
BLACK
6
CONTINUOUS
10
4.8903740157480318
20
-4.2298869685039371
11
4.8903740157480318
21
-4.3712149212598428
0
LINE
8
BLACK
6
CONTINUOUS
10
6.8159055118110237
20
-4.3347244094488184
11
6.8399999999999999
21
-4.3347244094488184
0
LINE
8
BLACK
6
CONTINUOUS
10
6.8399999999999999
20
-4.3347244094488184
11
6.8399999999999999
21
-4.3588188976377955
0
LINE
8
BLACK
6
CONTINUOUS
10
6.8399999999999999
20
-4.3588188976377955
11
6.8518109842519683
21
-4.3588188976377955
0
LINE
8
BLACK
6
CONTINUOUS
10
6.8518109842519683
20
-4.3588188976377955
11
6.8518109842519683
21
-4.3329610629921262
0
LINE
8
BLACK
6
CONTINUOUS
10
6.8518109842519683
20
-4.3329610629921262
11
6.8518109448818896
21
-4.3329608267716537
0
LINE
8
BLACK
6
CONTINUOUS
10
6.8518109448818896
20
-4.3329608267716537
11
6.8516964566929133
21
-4.3319734645669294
0
LINE
8
BLACK
6
CONTINUOUS
10
6.8516964566929133
20
-4.3319734645669294
11
6.8516963779527558
21
-4.3319732677165357
0
LINE
8
BLACK
6
CONTINUOUS
10
6.8516963779527558
20
-4.3319732677165357
11
6.8499128740157476
21
-4.3279339370078738
0
LINE
8
BLACK
6
CONTINUOUS
10
6.8499128740157476
20
-4.3279339370078738
11
6.8467905118110233
21
-4.3248115748031495
0
LINE
8
BLACK
6
CONTINUOUS
10
6.8467905118110233
20
-4.3248115748031495
11
6.8467904330708658
21
-4.3248115354330707
0
LINE
8
BLACK
6
CONTINUOUS
10
6.8467904330708658
20
-4.3248115354330707
11
6.842750905511811
21
-4.3230279133858263
0
LINE
8
BLACK
6
CONTINUOUS
10
6.842750905511811
20
-4.3230279133858263
11
6.8427509448818897
21
-4.3230279133858263
0
LINE
8
BLACK
6
CONTINUOUS
10
6.8427509448818897
20
-4.3230279133858263
11
6.8417637007874017
21
-4.3229133858267712
0
LINE
8
BLACK
6
CONTINUOUS
10
6.8417637007874017
20
-4.3229133858267712
11
6.8159055118110237
21
-4.3229133858267712
0
LINE
8
BLACK
6
CONTINUOUS
10
6.8159055118110237
20
-4.3229133858267712
11
6.8159055118110237
21
-4.3347244094488184
0
LINE
8
BLACK
6
CONTINUOUS
10
6.7159055118110231
20
-4.3347244094488184
11
6.7400000000000002
21
-4.3347244094488184
0
LINE
8
BLACK
6
CONTINUOUS
10
6.7400000000000002
20
-4.3347244094488184
11
6.7400000000000002
21
-4.3588188976377955
0
LINE
8
BLACK
6
CONTINUOUS
10
6.7400000000000002
20
-4.3588188976377955
11
6.7518109842519687
21
-4.3588188976377955
0
LINE
8
BLACK
6
CONTINUOUS
10
6.7518109842519687
20
-4.3588188976377955
11
6.7518109842519687
21
-4.332961102362205
0
LINE
8
BLACK
6
CONTINUOUS
10
6.7518109842519687
20
-4.332961102362205
11
6.7518109448818899
21
-4.332960787401575
0
LINE
8
BLACK
6
CONTINUOUS
10
6.7518109448818899
20
-4.332960787401575
11
6.7518109448818899
21
-4.3329606692913387
0
LINE
8
BLACK
6
CONTINUOUS
10
6.7518109448818899
20
-4.3329606692913387
11
6.7516964566929136
21
-4.3319734645669294
0
LINE
8
BLACK
6
CONTINUOUS
10
6.7516964566929136
20
-4.3319734645669294
11
6.7516963779527561
21
-4.3319732677165357
0
LINE
8
BLACK
6
CONTINUOUS
10
6.7516963779527561
20
-4.3319732677165357
11
6.7499128740157479
21
-4.3279339370078738
0
LINE
8
BLACK
6
CONTINUOUS
10
6.7499128740157479
20
-4.3279339370078738
11
6.7467905118110236
21
-4.3248115748031495
0
LINE
8
BLACK
6
CONTINUOUS
10
6.7467905118110236
20
-4.3248115748031495
11
6.7467904330708661
21
-4.3248115354330707
0
LINE
8
BLACK
6
CONTINUOUS
10
6.7467904330708661
20
-4.3248115354330707
11
6.7427509055118104
21
-4.3230279133858263
0
LINE
8
BLACK
6
CONTINUOUS
10
6.7427509055118104
20
-4.3230279133858263
11
6.7427509448818892
21
-4.3230279133858263
0
LINE
8
BLACK
6
CONTINUOUS
10
6.7427509448818892
20
-4.3230279133858263
11
6.7417637007874012
21
-4.3229133858267712
0
LINE
8
BLACK
6
CONTINUOUS
10
6.7417637007874012
20
-4.3229133858267712
11
6.7159055118110231
21
-4.3229133858267712
0
LINE
8
BLACK
6
CONTINUOUS
10
6.7159055118110231
20
-4.3229133858267712
11
6.7159055118110231
21
-4.3347244094488184
0
LINE
8
BLACK
6
CONTINUOUS
10
6.6782364173228341
20
-4.32291342519685
11
6.6772490551181098
21
-4.3230279133858263
0
LINE
8
BLACK
6
CONTINUOUS
10
6.6772490551181098
20
-4.3230279133858263
11
6.6772488582677161
21
-4.3230279921259838
0
LINE
8
BLACK
6
CONTINUOUS
10
6.6772488582677161
20
-4.3230279921259838
11
6.6732095275590551
21
-4.324811496062992
0
LINE
8
BLACK
6
CONTINUOUS
10
6.6732095275590551
20
-4.324811496062992
11
6.6700871653543308
21
-4.3279338582677163
0
LINE
8
BLACK
6
CONTINUOUS
10
6.6700871653543308
20
-4.3279338582677163
11
6.670087125984252
21
-4.3279339370078738
0
LINE
8
BLACK
6
CONTINUOUS
10
6.670087125984252
20
-4.3279339370078738
11
6.6683035039370075
21
-4.3319734645669294
0
LINE
8
BLACK
6
CONTINUOUS
10
6.6683035039370075
20
-4.3319734645669294
11
6.6681889763779525
21
-4.3329606692913387
0
LINE
8
BLACK
6
CONTINUOUS
10
6.6681889763779525
20
-4.3329606692913387
11
6.6681889763779525
21
-4.3588188976377955
0
LINE
8
BLACK
6
CONTINUOUS
10
6.6681889763779525
20
-4.3588188976377955
11
6.6799999999999997
21
-4.3588188976377955
0
LINE
8
BLACK
6
CONTINUOUS
10
6.6799999999999997
20
-4.3588188976377955
11
6.6799999999999997
21
-4.3347244094488184
0
LINE
8
BLACK
6
CONTINUOUS
10
6.6799999999999997
20
-4.3347244094488184
11
6.7040944881889759
21
-4.3347244094488184
0
LINE
8
BLACK
6
CONTINUOUS
10
6.7040944881889759
20
-4.3347244094488184
11
6.7040944881889759
21
-4.3229133858267712
0
LINE
8
BLACK
6
CONTINUOUS
10
6.7040944881889759
20
-4.3229133858267712
11
6.6782366535433066
21
-4.3229133858267712
0
LINE
8
BLACK
6
CONTINUOUS
10
6.6782366535433066
20
-4.3229133858267712
11
6.6782364173228341
21
-4.32291342519685
0
LINE
8
BLACK
6
CONTINUOUS
10
6.6681692913385824
20
-4.2964905118110233
11
6.6681693307086611
21
-4.2964907874015745
0
LINE
8
BLACK
6
CONTINUOUS
10
6.6681693307086611
20
-4.2964907874015745
11
6.6682840157480312
21
-4.2974799212598427
0
LINE
8
BLACK
6
CONTINUOUS
10
6.6682840157480312
20
-4.2974799212598427
11
6.6682840944881887
21
-4.2974800787401577
0
LINE
8
BLACK
6
CONTINUOUS
10
6.6682840944881887
20
-4.2974800787401577
11
6.6700705905511812
21
-4.3015261811023624
0
LINE
8
BLACK
6
CONTINUOUS
10
6.6700705905511812
20
-4.3015261811023624
11
6.6731981102362203
21
-4.3046537007874015
0
LINE
8
BLACK
6
CONTINUOUS
10
6.6731981102362203
20
-4.3046537007874015
11
6.6731981889763778
21
-4.3046537401574803
0
LINE
8
BLACK
6
CONTINUOUS
10
6.6731981889763778
20
-4.3046537401574803
11
6.6731982283464566
21
-4.304653779527559
0
LINE
8
BLACK
6
CONTINUOUS
10
6.6731982283464566
20
-4.304653779527559
11
6.6772444488188976
21
-4.3064403543307082
0
LINE
8
BLACK
6
CONTINUOUS
10
6.6772444488188976
20
-4.3064403543307082
11
6.6782336614173223
21
-4.3065551181102357
0
LINE
8
BLACK
6
CONTINUOUS
10
6.6782336614173223
20
-4.3065551181102357
11
6.741766299212598
21
-4.306555078740157
0
LINE
8
BLACK
6
CONTINUOUS
10
6.741766299212598
20
-4.306555078740157
11
6.7427555511811024
21
-4.3064403543307082
0
LINE
8
BLACK
6
CONTINUOUS
10
6.7427555511811024
20
-4.3064403543307082
11
6.7468017716535433
21
-4.304653779527559
0
LINE
8
BLACK
6
CONTINUOUS
10
6.7468017716535433
20
-4.304653779527559
11
6.7499293700787399
21
-4.3015261811023624
0
LINE
8
BLACK
6
CONTINUOUS
10
6.7499293700787399
20
-4.3015261811023624
11
6.75171594488189
21
-4.2974799606299214
0
LINE
8
BLACK
6
CONTINUOUS
10
6.75171594488189
20
-4.2974799606299214
11
6.7518307086614175
21
-4.2964907480314958
0
LINE
8
BLACK
6
CONTINUOUS
10
6.7518307086614175
20
-4.2964907480314958
11
6.7518306692913388
21
-4.2329581102362202
0
LINE
8
BLACK
6
CONTINUOUS
10
6.7518306692913388
20
-4.2329581102362202
11
6.75183062992126
21
-4.2329578346456689
0
LINE
8
BLACK
6
CONTINUOUS
10
6.75183062992126
20
-4.2329578346456689
11
6.75171594488189
21
-4.2319688582677166
0
LINE
8
BLACK
6
CONTINUOUS
10
6.75171594488189
20
-4.2319688582677166
11
6.7499293700787399
21
-4.2279226377952757
0
LINE
8
BLACK
6
CONTINUOUS
10
6.7499293700787399
20
-4.2279226377952757
11
6.7499293700787399
21
-4.2279225984251969
0
LINE
8
BLACK
6
CONTINUOUS
10
6.7499293700787399
20
-4.2279225984251969
11
6.7468018503937008
21
-4.2247950787401578
0
LINE
8
BLACK
6
CONTINUOUS
10
6.7468018503937008
20
-4.2247950787401578
11
6.7468017716535433
21
-4.2247950393700791
0
LINE
8
BLACK
6
CONTINUOUS
10
6.7468017716535433
20
-4.2247950393700791
11
6.7427554724409449
21
-4.2230084251968503
0
LINE
8
BLACK
6
CONTINUOUS
10
6.7427554724409449
20
-4.2230084251968503
11
6.7427555118110236
21
-4.2230084251968503
0
LINE
8
BLACK
6
CONTINUOUS
10
6.7427555118110236
20
-4.2230084251968503
11
6.741766456692913
21
-4.2228937007874014
0
LINE
8
BLACK
6
CONTINUOUS
10
6.741766456692913
20
-4.2228937007874014
11
6.6782338582677161
21
-4.2228937007874014
0
LINE
8
BLACK
6
CONTINUOUS
10
6.6782338582677161
20
-4.2228937007874014
11
6.6782335826771648
21
-4.2228937401574802
0
LINE
8
BLACK
6
CONTINUOUS
10
6.6782335826771648
20
-4.2228937401574802
11
6.6772444488188976
21
-4.2230084251968503
0
LINE
8
BLACK
6
CONTINUOUS
10
6.6772444488188976
20
-4.2230084251968503
11
6.6772442913385825
21
-4.2230085039370078
0
LINE
8
BLACK
6
CONTINUOUS
10
6.6772442913385825
20
-4.2230085039370078
11
6.6731981889763778
21
-4.2247950000000003
0
LINE
8
BLACK
6
CONTINUOUS
10
6.6731981889763778
20
-4.2247950000000003
11
6.6700706692913387
21
-4.2279225196850394
0
LINE
8
BLACK
6
CONTINUOUS
10
6.6700706692913387
20
-4.2279225196850394
11
6.67007062992126
21
-4.2279225984251969
0
LINE
8
BLACK
6
CONTINUOUS
10
6.67007062992126
20
-4.2279225984251969
11
6.6682840157480312
21
-4.2319688582677166
0
LINE
8
BLACK
6
CONTINUOUS
10
6.6682840157480312
20
-4.2319688582677166
11
6.6681692913385824
21
-4.2329578346456689
0
LINE
8
BLACK
6
CONTINUOUS
10
6.6681692913385824
20
-4.2329578346456689
11
6.6681692913385824
21
-4.2964905118110233
0
LINE
8
BLACK
6
CONTINUOUS
10
6.7681692913385829
20
-4.2964905118110233
11
6.7681693307086617
21
-4.2964907874015745
0
LINE
8
BLACK
6
CONTINUOUS
10
6.7681693307086617
20
-4.2964907874015745
11
6.7682840157480317
21
-4.2974799212598427
0
LINE
8
BLACK
6
CONTINUOUS
10
6.7682840157480317
20
-4.2974799212598427
11
6.7682840944881892
21
-4.2974800787401577
0
LINE
8
BLACK
6
CONTINUOUS
10
6.7682840944881892
20
-4.2974800787401577
11
6.7700705905511809
21
-4.3015261811023624
0
LINE
8
BLACK
6
CONTINUOUS
10
6.7700705905511809
20
-4.3015261811023624
11
6.77319811023622
21
-4.3046537007874015
0
LINE
8
BLACK
6
CONTINUOUS
10
6.77319811023622
20
-4.3046537007874015
11
6.7731981889763775
21
-4.3046537401574803
0
LINE
8
BLACK
6
CONTINUOUS
10
6.7731981889763775
20
-4.3046537401574803
11
6.7731982283464562
21
-4.304653779527559
0
LINE
8
BLACK
6
CONTINUOUS
10
6.7731982283464562
20
-4.304653779527559
11
6.7772444488188972
21
-4.3064403543307082
0
LINE
8
BLACK
6
CONTINUOUS
10
6.7772444488188972
20
-4.3064403543307082
11
6.7782336614173229
21
-4.3065551181102357
0
LINE
8
BLACK
6
CONTINUOUS
10
6.7782336614173229
20
-4.3065551181102357
11
6.8417662992125985
21
-4.306555078740157
0
LINE
8
BLACK
6
CONTINUOUS
10
6.8417662992125985
20
-4.306555078740157
11
6.842755551181102
21
-4.3064403543307082
0
LINE
8
BLACK
6
CONTINUOUS
10
6.842755551181102
20
-4.3064403543307082
11
6.846801771653543
21
-4.304653779527559
0
LINE
8
BLACK
6
CONTINUOUS
10
6.846801771653543
20
-4.304653779527559
11
6.8499293700787396
21
-4.3015261811023624
0
LINE
8
BLACK
6
CONTINUOUS
10
6.8499293700787396
20
-4.3015261811023624
11
6.8517159448818896
21
-4.2974799606299214
0
LINE
8
BLACK
6
CONTINUOUS
10
6.8517159448818896
20
-4.2974799606299214
11
6.8518307086614172
21
-4.2964907480314958
0
LINE
8
BLACK
6
CONTINUOUS
10
6.8518307086614172
20
-4.2964907480314958
11
6.8518306692913384
21
-4.2329581102362202
0
LINE
8
BLACK
6
CONTINUOUS
10
6.8518306692913384
20
-4.2329581102362202
11
6.8517159448818896
21
-4.2319688582677166
0
LINE
8
BLACK
6
CONTINUOUS
10
6.8517159448818896
20
-4.2319688582677166
11
6.8499293700787396
21
-4.2279226377952757
0
LINE
8
BLACK
6
CONTINUOUS
10
6.8499293700787396
20
-4.2279226377952757
11
6.8499293700787396
21
-4.2279225984251969
0
LINE
8
BLACK
6
CONTINUOUS
10
6.8499293700787396
20
-4.2279225984251969
11
6.8468018503937005
21
-4.2247950787401578
0
LINE
8
BLACK
6
CONTINUOUS
10
6.8468018503937005
20
-4.2247950787401578
11
6.846801771653543
21
-4.2247950393700791
0
LINE
8
BLACK
6
CONTINUOUS
10
6.846801771653543
20
-4.2247950393700791
11
6.8427554724409445
21
-4.2230084251968503
0
LINE
8
BLACK
6
CONTINUOUS
10
6.8427554724409445
20
-4.2230084251968503
11
6.8427555118110233
21
-4.2230084251968503
0
LINE
8
BLACK
6
CONTINUOUS
10
6.8427555118110233
20
-4.2230084251968503
11
6.8417664566929135
21
-4.2228937007874014
0
LINE
8
BLACK
6
CONTINUOUS
10
6.8417664566929135
20
-4.2228937007874014
11
6.7782338582677166
21
-4.2228937007874014
0
LINE
8
BLACK
6
CONTINUOUS
10
6.7782338582677166
20
-4.2228937007874014
11
6.7782335826771654
21
-4.2228937401574802
0
LINE
8
BLACK
6
CONTINUOUS
10
6.7782335826771654
20
-4.2228937401574802
11
6.7772444488188972
21
-4.2230084251968503
0
LINE
8
BLACK
6
CONTINUOUS
10
6.7772444488188972
20
-4.2230084251968503
11
6.7772442913385822
21
-4.2230085039370078
0
LINE
8
BLACK
6
CONTINUOUS
10
6.7772442913385822
20
-4.2230085039370078
11
6.7731981889763775
21
-4.2247950000000003
0
LINE
8
BLACK
6
CONTINUOUS
10
6.7731981889763775
20
-4.2247950000000003
11
6.7700706692913384
21
-4.2279225196850394
0
LINE
8
BLACK
6
CONTINUOUS
10
6.7700706692913384
20
-4.2279225196850394
11
6.7700706299212596
21
-4.2279225984251969
0
LINE
8
BLACK
6
CONTINUOUS
10
6.7700706299212596
20
-4.2279225984251969
11
6.7682840157480317
21
-4.2319688582677166
0
LINE
8
BLACK
6
CONTINUOUS
10
6.7682840157480317
20
-4.2319688582677166
11
6.7681692913385829
21
-4.2329578346456689
0
LINE
8
BLACK
6
CONTINUOUS
10
6.7681692913385829
20
-4.2329578346456689
11
6.7681692913385829
21
-4.2964905118110233
0
LINE
8
BLACK
6
CONTINUOUS
10
6.6681890157480312
20
-4.1706299212598426
11
6.6681890157480312
21
-4.1964879527559056
0
LINE
8
BLACK
6
CONTINUOUS
10
6.6681890157480312
20
-4.1964879527559056
11
6.6683035039370075
21
-4.1974753149606299
0
LINE
8
BLACK
6
CONTINUOUS
10
6.6683035039370075
20
-4.1974753149606299
11
6.6683035826771651
21
-4.1974755118110236
0
LINE
8
BLACK
6
CONTINUOUS
10
6.6683035826771651
20
-4.1974755118110236
11
6.6700870866141733
21
-4.2015148425196847
0
LINE
8
BLACK
6
CONTINUOUS
10
6.6700870866141733
20
-4.2015148425196847
11
6.6732094488188975
21
-4.2046372047244089
0
LINE
8
BLACK
6
CONTINUOUS
10
6.6732094488188975
20
-4.2046372047244089
11
6.6732095275590551
21
-4.2046372440944877
0
LINE
8
BLACK
6
CONTINUOUS
10
6.6732095275590551
20
-4.2046372440944877
11
6.6772490551181098
21
-4.2064208661417322
0
LINE
8
BLACK
6
CONTINUOUS
10
6.6772490551181098
20
-4.2064208661417322
11
6.6772490157480311
21
-4.2064208661417322
0
LINE
8
BLACK
6
CONTINUOUS
10
6.6772490157480311
20
-4.2064208661417322
11
6.6782363385826766
21
-4.2065353937007872
0
LINE
8
BLACK
6
CONTINUOUS
10
6.6782363385826766
20
-4.2065353937007872
11
6.7040944881889759
21
-4.2065353937007872
0
LINE
8
BLACK
6
CONTINUOUS
10
6.7040944881889759
20
-4.2065353937007872
11
6.7040944881889759
21
-4.1947244094488187
0
LINE
8
BLACK
6
CONTINUOUS
10
6.7040944881889759
20
-4.1947244094488187
11
6.6799999999999997
21
-4.1947244094488187
0
LINE
8
BLACK
6
CONTINUOUS
10
6.6799999999999997
20
-4.1947244094488187
11
6.6799999999999997
21
-4.1706299212598426
0
LINE
8
BLACK
6
CONTINUOUS
10
6.6799999999999997
20
-4.1706299212598426
11
6.6681890157480312
21
-4.1706299212598426
0
LINE
8
BLACK
6
CONTINUOUS
10
6.7400000000000002
20
-4.1947244094488187
11
6.7159055118110231
21
-4.1947244094488187
0
LINE
8
BLACK
6
CONTINUOUS
10
6.7159055118110231
20
-4.1947244094488187
11
6.7159055118110231
21
-4.2065353937007872
0
LINE
8
BLACK
6
CONTINUOUS
10
6.7159055118110231
20
-4.2065353937007872
11
6.7417633464566924
21
-4.2065353937007872
0
LINE
8
BLACK
6
CONTINUOUS
10
6.7417633464566924
20
-4.2065353937007872
11
6.7417635433070862
21
-4.2065353543307085
0
LINE
8
BLACK
6
CONTINUOUS
10
6.7417635433070862
20
-4.2065353543307085
11
6.7427509055118104
21
-4.2064208661417322
0
LINE
8
BLACK
6
CONTINUOUS
10
6.7427509055118104
20
-4.2064208661417322
11
6.7427511023622042
21
-4.2064207874015747
0
LINE
8
BLACK
6
CONTINUOUS
10
6.7427511023622042
20
-4.2064207874015747
11
6.7467904330708661
21
-4.2046372834645664
0
LINE
8
BLACK
6
CONTINUOUS
10
6.7467904330708661
20
-4.2046372834645664
11
6.7499127952755904
21
-4.2015149212598422
0
LINE
8
BLACK
6
CONTINUOUS
10
6.7499127952755904
20
-4.2015149212598422
11
6.7499128346456692
21
-4.2015148425196847
0
LINE
8
BLACK
6
CONTINUOUS
10
6.7499128346456692
20
-4.2015148425196847
11
6.7516964566929136
21
-4.1974753149606299
0
LINE
8
BLACK
6
CONTINUOUS
10
6.7516964566929136
20
-4.1974753149606299
11
6.7518109842519687
21
-4.1964881102362206
0
LINE
8
BLACK
6
CONTINUOUS
10
6.7518109842519687
20
-4.1964881102362206
11
6.7518110236220474
21
-4.1964879921259843
0
LINE
8
BLACK
6
CONTINUOUS
10
6.7518110236220474
20
-4.1964879921259843
11
6.7518110236220474
21
-4.1706299212598426
0
LINE
8
BLACK
6
CONTINUOUS
10
6.7518110236220474
20
-4.1706299212598426
11
6.7400000000000002
21
-4.1706299212598426
0
LINE
8
BLACK
6
CONTINUOUS
10
6.7400000000000002
20
-4.1706299212598426
11
6.7400000000000002
21
-4.1947244094488187
0
LINE
8
BLACK
6
CONTINUOUS
10
6.7681890157480318
20
-4.1706299212598426
11
6.7681890157480318
21
-4.1964879527559056
0
LINE
8
BLACK
6
CONTINUOUS
10
6.7681890157480318
20
-4.1964879527559056
11
6.7683035039370081
21
-4.1974753149606299
0
LINE
8
BLACK
6
CONTINUOUS
10
6.7683035039370081
20
-4.1974753149606299
11
6.7683035826771656
21
-4.1974755118110236
0
LINE
8
BLACK
6
CONTINUOUS
10
6.7683035826771656
20
-4.1974755118110236
11
6.7700870866141729
21
-4.2015148425196847
0
LINE
8
BLACK
6
CONTINUOUS
10
6.7700870866141729
20
-4.2015148425196847
11
6.7732094488188972
21
-4.2046372047244089
0
LINE
8
BLACK
6
CONTINUOUS
10
6.7732094488188972
20
-4.2046372047244089
11
6.7732095275590547
21
-4.2046372440944877
0
LINE
8
BLACK
6
CONTINUOUS
10
6.7732095275590547
20
-4.2046372440944877
11
6.7772490551181104
21
-4.2064208661417322
0
LINE
8
BLACK
6
CONTINUOUS
10
6.7772490551181104
20
-4.2064208661417322
11
6.7772490157480316
21
-4.2064208661417322
0
LINE
8
BLACK
6
CONTINUOUS
10
6.7772490157480316
20
-4.2064208661417322
11
6.7782363385826772
21
-4.2065353937007872
0
LINE
8
BLACK
6
CONTINUOUS
10
6.7782363385826772
20
-4.2065353937007872
11
6.8040944881889764
21
-4.2065353937007872
0
LINE
8
BLACK
6
CONTINUOUS
10
6.8040944881889764
20
-4.2065353937007872
11
6.8040944881889764
21
-4.1947244094488187
0
LINE
8
BLACK
6
CONTINUOUS
10
6.8040944881889764
20
-4.1947244094488187
11
6.7800000000000002
21
-4.1947244094488187
0
LINE
8
BLACK
6
CONTINUOUS
10
6.7800000000000002
20
-4.1947244094488187
11
6.7800000000000002
21
-4.1706299212598426
0
LINE
8
BLACK
6
CONTINUOUS
10
6.7800000000000002
20
-4.1706299212598426
11
6.7681890157480318
21
-4.1706299212598426
0
LINE
8
BLACK
6
CONTINUOUS
10
6.8399999999999999
20
-4.1947244094488187
11
6.8159055118110237
21
-4.1947244094488187
0
LINE
8
BLACK
6
CONTINUOUS
10
6.8159055118110237
20
-4.1947244094488187
11
6.8159055118110237
21
-4.2065353937007872
0
LINE
8
BLACK
6
CONTINUOUS
10
6.8159055118110237
20
-4.2065353937007872
11
6.8417633464566929
21
-4.2065353937007872
0
LINE
8
BLACK
6
CONTINUOUS
10
6.8417633464566929
20
-4.2065353937007872
11
6.8417635433070867
21
-4.2065353543307085
0
LINE
8
BLACK
6
CONTINUOUS
10
6.8417635433070867
20
-4.2065353543307085
11
6.842750905511811
21
-4.2064208661417322
0
LINE
8
BLACK
6
CONTINUOUS
10
6.842750905511811
20
-4.2064208661417322
11
6.8427511023622047
21
-4.2064207874015747
0
LINE
8
BLACK
6
CONTINUOUS
10
6.8427511023622047
20
-4.2064207874015747
11
6.8467904330708658
21
-4.2046372834645664
0
LINE
8
BLACK
6
CONTINUOUS
10
6.8467904330708658
20
-4.2046372834645664
11
6.84991279527559
21
-4.2015149212598422
0
LINE
8
BLACK
6
CONTINUOUS
10
6.84991279527559
20
-4.2015149212598422
11
6.8499128346456688
21
-4.2015148425196847
0
LINE
8
BLACK
6
CONTINUOUS
10
6.8499128346456688
20
-4.2015148425196847
11
6.8516964566929133
21
-4.1974753149606299
0
LINE
8
BLACK
6
CONTINUOUS
10
6.8516964566929133
20
-4.1974753149606299
11
6.8518109842519683
21
-4.1964881102362206
0
LINE
8
BLACK
6
CONTINUOUS
10
6.8518109842519683
20
-4.1964881102362206
11
6.8518110236220471
21
-4.1964879921259843
0
LINE
8
BLACK
6
CONTINUOUS
10
6.8518110236220471
20
-4.1964879921259843
11
6.8518110236220471
21
-4.1706299212598426
0
LINE
8
BLACK
6
CONTINUOUS
10
6.8518110236220471
20
-4.1706299212598426
11
6.8399999999999999
21
-4.1706299212598426
0
LINE
8
BLACK
6
CONTINUOUS
10
6.8399999999999999
20
-4.1706299212598426
11
6.8399999999999999
21
-4.1947244094488187
0
LINE
8
BLACK
6
CONTINUOUS
10
6.2919555511811023
20
-4.1034811023622044
11
6.291955433070866
21
-4.1034811417322832
0
LINE
8
BLACK
6
CONTINUOUS
10
6.291955433070866
20
-4.1034811417322832
11
6.2869365748031498
21
-4.1055600393700784
0
LINE
8
BLACK
6
CONTINUOUS
10
6.2869365748031498
20
-4.1055600393700784
11
6.2824196062992126
21
-4.1085781496062994
0
LINE
8
BLACK
6
CONTINUOUS
10
6.2824196062992126
20
-4.1085781496062994
11
6.2824193700787401
21
-4.1085783464566932
0
LINE
8
BLACK
6
CONTINUOUS
10
6.2824193700787401
20
-4.1085783464566932
11
6.2785783464566931
21
-4.1124193700787401
0
LINE
8
BLACK
6
CONTINUOUS
10
6.2785783464566931
20
-4.1124193700787401
11
6.2785781496062993
21
-4.1124196062992127
0
LINE
8
BLACK
6
CONTINUOUS
10
6.2785781496062993
20
-4.1124196062992127
11
6.2755600393700783
21
-4.1169365748031499
0
LINE
8
BLACK
6
CONTINUOUS
10
6.2755600393700783
20
-4.1169365748031499
11
6.2734811417322831
21
-4.1219554330708661
0
LINE
8
BLACK
6
CONTINUOUS
10
6.2734811417322831
20
-4.1219554330708661
11
6.2734811023622044
21
-4.1219555511811024
0
LINE
8
BLACK
6
CONTINUOUS
10
6.2734811023622044
20
-4.1219555511811024
11
6.2724212598425195
21
-4.1272836220472442
0
LINE
8
BLACK
6
CONTINUOUS
10
6.2724212598425195
20
-4.1272836220472442
11
6.2724212598425195
21
-4.1327163385826768
0
LINE
8
BLACK
6
CONTINUOUS
10
6.2724212598425195
20
-4.1327163385826768
11
6.2724699606299215
21
-4.1329611023622048
0
LINE
8
BLACK
6
CONTINUOUS
10
6.2724699606299215
20
-4.1329611023622048
11
6.2734811023622044
21
-4.1380444094488187
0
LINE
8
BLACK
6
CONTINUOUS
10
6.2734811023622044
20
-4.1380444094488187
11
6.2755600393700783
21
-4.1430634251968499
0
LINE
8
BLACK
6
CONTINUOUS
10
6.2755600393700783
20
-4.1430634251968499
11
6.2772282283464564
21
-4.1455600393700784
0
LINE
8
BLACK
6
CONTINUOUS
10
6.2772282283464564
20
-4.1455600393700784
11
6.2785781496062993
21
-4.1475803543307084
0
LINE
8
BLACK
6
CONTINUOUS
10
6.2785781496062993
20
-4.1475803543307084
11
6.2785783464566931
21
-4.1475805905511809
0
LINE
8
BLACK
6
CONTINUOUS
10
6.2785783464566931
20
-4.1475805905511809
11
6.2824193700787401
21
-4.1514216141732279
0
LINE
8
BLACK
6
CONTINUOUS
10
6.2824193700787401
20
-4.1514216141732279
11
6.2824196062992126
21
-4.1514218110236216
0
LINE
8
BLACK
6
CONTINUOUS
10
6.2824196062992126
20
-4.1514218110236216
11
6.2869365748031498
21
-4.1544399606299214
0
LINE
8
BLACK
6
CONTINUOUS
10
6.2869365748031498
20
-4.1544399606299214
11
6.291955590551181
21
-4.1565188976377954
0
LINE
8
BLACK
6
CONTINUOUS
10
6.291955590551181
20
-4.1565188976377954
11
6.2972837401574804
21
-4.1575787401574802
0
LINE
8
BLACK
6
CONTINUOUS
10
6.2972837401574804
20
-4.1575787401574802
11
6.2972837795275591
21
-4.1575787401574802
0
LINE
8
BLACK
6
CONTINUOUS
10
6.2972837795275591
20
-4.1575787401574802
11
6.3027162204724405
21
-4.1575787401574802
0
LINE
8
BLACK
6
CONTINUOUS
10
6.3027162204724405
20
-4.1575787401574802
11
6.3027162598425193
21
-4.1575787401574802
0
LINE
8
BLACK
6
CONTINUOUS
10
6.3027162598425193
20
-4.1575787401574802
11
6.3080444094488186
21
-4.1565188976377954
0
LINE
8
BLACK
6
CONTINUOUS
10
6.3080444094488186
20
-4.1565188976377954
11
6.3130634251968498
21
-4.1544399606299214
0
LINE
8
BLACK
6
CONTINUOUS
10
6.3130634251968498
20
-4.1544399606299214
11
6.3175803937007871
21
-4.1514218110236216
0
LINE
8
BLACK
6
CONTINUOUS
10
6.3175803937007871
20
-4.1514218110236216
11
6.3175805905511808
21
-4.1514216141732279
0
LINE
8
BLACK
6
CONTINUOUS
10
6.3175805905511808
20
-4.1514216141732279
11
6.3178445669291339
21
-4.1511576771653544
0
LINE
8
BLACK
6
CONTINUOUS
10
6.3178445669291339
20
-4.1511576771653544
11
6.3202977952755903
21
-4.1498180708661421
0
LINE
8
BLACK
6
CONTINUOUS
10
6.3202977952755903
20
-4.1498180708661421
11
6.3213522440944878
21
-4.1497047244094487
0
LINE
8
BLACK
6
CONTINUOUS
10
6.3213522440944878
20
-4.1497047244094487
11
6.4608542125984254
21
-4.1497047244094487
0
LINE
8
BLACK
6
CONTINUOUS
10
6.4608542125984254
20
-4.1497047244094487
11
6.4635361417322832
21
-4.1504922047244097
0
LINE
8
BLACK
6
CONTINUOUS
10
6.4635361417322832
20
-4.1504922047244097
11
6.4653665748031495
21
-4.1526046456692915
0
LINE
8
BLACK
6
CONTINUOUS
10
6.4653665748031495
20
-4.1526046456692915
11
6.4654371653543308
21
-4.152766850393701
0
LINE
8
BLACK
6
CONTINUOUS
10
6.4654371653543308
20
-4.152766850393701
11
6.4655599212598425
21
-4.1530632283464568
0
LINE
8
BLACK
6
CONTINUOUS
10
6.4655599212598425
20
-4.1530632283464568
11
6.46556
21
-4.1530633858267718
0
LINE
8
BLACK
6
CONTINUOUS
10
6.46556
20
-4.1530633858267718
11
6.4685781496062988
21
-4.1575803543307082
0
LINE
8
BLACK
6
CONTINUOUS
10
6.4685781496062988
20
-4.1575803543307082
11
6.4685783464566926
21
-4.1575805905511807
0
LINE
8
BLACK
6
CONTINUOUS
10
6.4685783464566926
20
-4.1575805905511807
11
6.4724193700787396
21
-4.1614216141732285
0
LINE
8
BLACK
6
CONTINUOUS
10
6.4724193700787396
20
-4.1614216141732285
11
6.4724196062992121
21
-4.1614218110236223
0
LINE
8
BLACK
6
CONTINUOUS
10
6.4724196062992121
20
-4.1614218110236223
11
6.4769365748031493
21
-4.1644399606299212
0
LINE
8
BLACK
6
CONTINUOUS
10
6.4769365748031493
20
-4.1644399606299212
11
6.4819555905511805
21
-4.1665188976377951
0
LINE
8
BLACK
6
CONTINUOUS
10
6.4819555905511805
20
-4.1665188976377951
11
6.4872837401574799
21
-4.16757874015748
0
LINE
8
BLACK
6
CONTINUOUS
10
6.4872837401574799
20
-4.16757874015748
11
6.4872837795275586
21
-4.16757874015748
0
LINE
8
BLACK
6
CONTINUOUS
10
6.4872837795275586
20
-4.16757874015748
11
6.4927162204724409
21
-4.16757874015748
0
LINE
8
BLACK
6
CONTINUOUS
10
6.4927162204724409
20
-4.16757874015748
11
6.4927162598425197
21
-4.16757874015748
0
LINE
8
BLACK
6
CONTINUOUS
10
6.4927162598425197
20
-4.16757874015748
11
6.498044409448819
21
-4.1665188976377951
0
LINE
8
BLACK
6
CONTINUOUS
10
6.498044409448819
20
-4.1665188976377951
11
6.5030634251968502
21
-4.1644399606299212
0
LINE
8
BLACK
6
CONTINUOUS
10
6.5030634251968502
20
-4.1644399606299212
11
6.5075803937007874
21
-4.1614218110236223
0
LINE
8
BLACK
6
CONTINUOUS
10
6.5075803937007874
20
-4.1614218110236223
11
6.5114218110236219
21
-4.1575803937007869
0
LINE
8
BLACK
6
CONTINUOUS
10
6.5114218110236219
20
-4.1575803937007869
11
6.5144399606299208
21
-4.1530634251968506
0
LINE
8
BLACK
6
CONTINUOUS
10
6.5144399606299208
20
-4.1530634251968506
11
6.5165188976377948
21
-4.1480444094488185
0
LINE
8
BLACK
6
CONTINUOUS
10
6.5165188976377948
20
-4.1480444094488185
11
6.5175787401574805
21
-4.14271625984252
0
LINE
8
BLACK
6
CONTINUOUS
10
6.5175787401574805
20
-4.14271625984252
11
6.5175787401574805
21
-4.1372837401574802
0
LINE
8
BLACK
6
CONTINUOUS
10
6.5175787401574805
20
-4.1372837401574802
11
6.5167188188976377
21
-4.1329606692913385
0
LINE
8
BLACK
6
CONTINUOUS
10
6.5167188188976377
20
-4.1329606692913385
11
6.5165188976377948
21
-4.1319555905511809
0
LINE
8
BLACK
6
CONTINUOUS
10
6.5165188976377948
20
-4.1319555905511809
11
6.5144399606299208
21
-4.1269365748031497
0
LINE
8
BLACK
6
CONTINUOUS
10
6.5144399606299208
20
-4.1269365748031497
11
6.5114218110236219
21
-4.1224196062992124
0
LINE
8
BLACK
6
CONTINUOUS
10
6.5114218110236219
20
-4.1224196062992124
11
6.5114216141732282
21
-4.1224193700787399
0
LINE
8
BLACK
6
CONTINUOUS
10
6.5114216141732282
20
-4.1224193700787399
11
6.5075805905511812
21
-4.118578346456693
0
LINE
8
BLACK
6
CONTINUOUS
10
6.5075805905511812
20
-4.118578346456693
11
6.5075803543307087
21
-4.1185781496062992
0
LINE
8
BLACK
6
CONTINUOUS
10
6.5075803543307087
20
-4.1185781496062992
11
6.5051235433070866
21
-4.1169365748031499
0
LINE
8
BLACK
6
CONTINUOUS
10
6.5051235433070866
20
-4.1169365748031499
11
6.5030634251968502
21
-4.1155600393700791
0
LINE
8
BLACK
6
CONTINUOUS
10
6.5030634251968502
20
-4.1155600393700791
11
6.4998984645669289
21
-4.1142490551181101
0
LINE
8
BLACK
6
CONTINUOUS
10
6.4998984645669289
20
-4.1142490551181101
11
6.4980445275590553
21
-4.113481141732283
0
LINE
8
BLACK
6
CONTINUOUS
10
6.4980445275590553
20
-4.113481141732283
11
6.498044409448819
21
-4.1134811023622042
0
LINE
8
BLACK
6
CONTINUOUS
10
6.498044409448819
20
-4.1134811023622042
11
6.4927163385826772
21
-4.1124212598425194
0
LINE
8
BLACK
6
CONTINUOUS
10
6.4927163385826772
20
-4.1124212598425194
11
6.4927162598425197
21
-4.1124212598425194
0
LINE
8
BLACK
6
CONTINUOUS
10
6.4927162598425197
20
-4.1124212598425194
11
6.4902913779527553
21
-4.1124212598425194
0
LINE
8
BLACK
6
CONTINUOUS
10
6.4902913779527553
20
-4.1124212598425194
11
6.4878111417322835
21
-4.111756692913386
0
LINE
8
BLACK
6
CONTINUOUS
10
6.4878111417322835
20
-4.111756692913386
11
6.4876057480314957
21
-4.1116381102362203
0
LINE
8
BLACK
6
CONTINUOUS
10
6.4876057480314957
20
-4.1116381102362203
11
6.4876056692913382
21
-4.1116380708661415
0
LINE
8
BLACK
6
CONTINUOUS
10
6.4876056692913382
20
-4.1116380708661415
11
6.4876056299212594
21
-4.1116380708661415
0
LINE
8
BLACK
6
CONTINUOUS
10
6.4876056299212594
20
-4.1116380708661415
11
6.4862627165354327
21
-4.1112782283464568
0
LINE
8
BLACK
6
CONTINUOUS
10
6.4862627165354327
20
-4.1112782283464568
11
6.4825941732283461
21
-4.1102952755905511
0
LINE
8
BLACK
6
CONTINUOUS
10
6.4825941732283461
20
-4.1102952755905511
11
6.4825940944881886
21
-4.1102952755905511
0
LINE
8
BLACK
6
CONTINUOUS
10
6.4825940944881886
20
-4.1102952755905511
11
6.3213522440944878
21
-4.1102952755905511
0
LINE
8
BLACK
6
CONTINUOUS
10
6.3213522440944878
20
-4.1102952755905511
11
6.31867031496063
21
-4.1095077952755901
0
LINE
8
BLACK
6
CONTINUOUS
10
6.31867031496063
20
-4.1095077952755901
11
6.3178445669291339
21
-4.1088423228346453
0
LINE
8
BLACK
6
CONTINUOUS
10
6.3178445669291339
20
-4.1088423228346453
11
6.3175805905511808
21
-4.1085783464566932
0
LINE
8
BLACK
6
CONTINUOUS
10
6.3175805905511808
20
-4.1085783464566932
11
6.3175803543307083
21
-4.1085781496062994
0
LINE
8
BLACK
6
CONTINUOUS
10
6.3175803543307083
20
-4.1085781496062994
11
6.3160815354330708
21
-4.1075766535433074
0
LINE
8
BLACK
6
CONTINUOUS
10
6.3160815354330708
20
-4.1075766535433074
11
6.3130634251968498
21
-4.1055600393700784
0
LINE
8
BLACK
6
CONTINUOUS
10
6.3130634251968498
20
-4.1055600393700784
11
6.3098984645669294
21
-4.1042490551181103
0
LINE
8
BLACK
6
CONTINUOUS
10
6.3098984645669294
20
-4.1042490551181103
11
6.3080445275590549
21
-4.1034811417322832
0
LINE
8
BLACK
6
CONTINUOUS
10
6.3080445275590549
20
-4.1034811417322832
11
6.3080444094488186
21
-4.1034811023622044
0
LINE
8
BLACK
6
CONTINUOUS
10
6.3080444094488186
20
-4.1034811023622044
11
6.3027163385826768
21
-4.1024212598425196
0
LINE
8
BLACK
6
CONTINUOUS
10
6.3027163385826768
20
-4.1024212598425196
11
6.3027162598425193
21
-4.1024212598425196
0
LINE
8
BLACK
6
CONTINUOUS
10
6.3027162598425193
20
-4.1024212598425196
11
6.2972837401574804
21
-4.1024212598425196
0
LINE
8
BLACK
6
CONTINUOUS
10
6.2972837401574804
20
-4.1024212598425196
11
6.2972836220472441
21
-4.1024212598425196
0
LINE
8
BLACK
6
CONTINUOUS
10
6.2972836220472441
20
-4.1024212598425196
11
6.2919555511811023
21
-4.1034811023622044
0
LINE
8
BLACK
6
CONTINUOUS
10
6.8159055118110237
20
-4.1347244094488191
11
6.8399999999999999
21
-4.1347244094488191
0
LINE
8
BLACK
6
CONTINUOUS
10
6.8399999999999999
20
-4.1347244094488191
11
6.8399999999999999
21
-4.1588188976377953
0
LINE
8
BLACK
6
CONTINUOUS
10
6.8399999999999999
20
-4.1588188976377953
11
6.8518109842519683
21
-4.1588188976377953
0
LINE
8
BLACK
6
CONTINUOUS
10
6.8518109842519683
20
-4.1588188976377953
11
6.8518109842519683
21
-4.1329610629921261
0
LINE
8
BLACK
6
CONTINUOUS
10
6.8518109842519683
20
-4.1329610629921261
11
6.8518109448818896
21
-4.1329608267716536
0
LINE
8
BLACK
6
CONTINUOUS
10
6.8518109448818896
20
-4.1329608267716536
11
6.8516964566929133
21
-4.1319734645669293
0
LINE
8
BLACK
6
CONTINUOUS
10
6.8516964566929133
20
-4.1319734645669293
11
6.8516963779527558
21
-4.1319732677165355
0
LINE
8
BLACK
6
CONTINUOUS
10
6.8516963779527558
20
-4.1319732677165355
11
6.8499128740157476
21
-4.1279339370078736
0
LINE
8
BLACK
6
CONTINUOUS
10
6.8499128740157476
20
-4.1279339370078736
11
6.8467905118110233
21
-4.1248115748031493
0
LINE
8
BLACK
6
CONTINUOUS
10
6.8467905118110233
20
-4.1248115748031493
11
6.8467904330708658
21
-4.1248115354330706
0
LINE
8
BLACK
6
CONTINUOUS
10
6.8467904330708658
20
-4.1248115354330706
11
6.842750905511811
21
-4.123027913385827
0
LINE
8
BLACK
6
CONTINUOUS
10
6.842750905511811
20
-4.123027913385827
11
6.8427509448818897
21
-4.123027913385827
0
LINE
8
BLACK
6
CONTINUOUS
10
6.8427509448818897
20
-4.123027913385827
11
6.8417637007874017
21
-4.1229133858267719
0
LINE
8
BLACK
6
CONTINUOUS
10
6.8417637007874017
20
-4.1229133858267719
11
6.8159055118110237
21
-4.1229133858267719
0
LINE
8
BLACK
6
CONTINUOUS
10
6.8159055118110237
20
-4.1229133858267719
11
6.8159055118110237
21
-4.1347244094488191
0
LINE
8
BLACK
6
CONTINUOUS
10
6.7159055118110231
20
-4.1347244094488191
11
6.7400000000000002
21
-4.1347244094488191
0
LINE
8
BLACK
6
CONTINUOUS
10
6.7400000000000002
20
-4.1347244094488191
11
6.7400000000000002
21
-4.1588188976377953
0
LINE
8
BLACK
6
CONTINUOUS
10
6.7400000000000002
20
-4.1588188976377953
11
6.7518109842519687
21
-4.1588188976377953
0
LINE
8
BLACK
6
CONTINUOUS
10
6.7518109842519687
20
-4.1588188976377953
11
6.7518109842519687
21
-4.1329611023622048
0
LINE
8
BLACK
6
CONTINUOUS
10
6.7518109842519687
20
-4.1329611023622048
11
6.7518109448818899
21
-4.1329607874015748
0
LINE
8
BLACK
6
CONTINUOUS
10
6.7518109448818899
20
-4.1329607874015748
11
6.7518109448818899
21
-4.1329606692913385
0
LINE
8
BLACK
6
CONTINUOUS
10
6.7518109448818899
20
-4.1329606692913385
11
6.7516964566929136
21
-4.1319734645669293
0
LINE
8
BLACK
6
CONTINUOUS
10
6.7516964566929136
20
-4.1319734645669293
11
6.7516963779527561
21
-4.1319732677165355
0
LINE
8
BLACK
6
CONTINUOUS
10
6.7516963779527561
20
-4.1319732677165355
11
6.7499128740157479
21
-4.1279339370078736
0
LINE
8
BLACK
6
CONTINUOUS
10
6.7499128740157479
20
-4.1279339370078736
11
6.7467905118110236
21
-4.1248115748031493
0
LINE
8
BLACK
6
CONTINUOUS
10
6.7467905118110236
20
-4.1248115748031493
11
6.7467904330708661
21
-4.1248115354330706
0
LINE
8
BLACK
6
CONTINUOUS
10
6.7467904330708661
20
-4.1248115354330706
11
6.7427509055118104
21
-4.123027913385827
0
LINE
8
BLACK
6
CONTINUOUS
10
6.7427509055118104
20
-4.123027913385827
11
6.7427509448818892
21
-4.123027913385827
0
LINE
8
BLACK
6
CONTINUOUS
10
6.7427509448818892
20
-4.123027913385827
11
6.7417637007874012
21
-4.1229133858267719
0
LINE
8
BLACK
6
CONTINUOUS
10
6.7417637007874012
20
-4.1229133858267719
11
6.7159055118110231
21
-4.1229133858267719
0
LINE
8
BLACK
6
CONTINUOUS
10
6.7159055118110231
20
-4.1229133858267719
11
6.7159055118110231
21
-4.1347244094488191
0
LINE
8
BLACK
6
CONTINUOUS
10
6.6782335826771648
20
-4.02289374015748
11
6.6772444488188976
21
-4.0230084251968501
0
LINE
8
BLACK
6
CONTINUOUS
10
6.6772444488188976
20
-4.0230084251968501
11
6.6772442913385825
21
-4.0230085039370076
0
LINE
8
BLACK
6
CONTINUOUS
10
6.6772442913385825
20
-4.0230085039370076
11
6.6731981889763778
21
-4.0247950000000001
0
LINE
8
BLACK
6
CONTINUOUS
10
6.6731981889763778
20
-4.0247950000000001
11
6.6700706692913387
21
-4.0279225196850392
0
LINE
8
BLACK
6
CONTINUOUS
10
6.6700706692913387
20
-4.0279225196850392
11
6.67007062992126
21
-4.0279225984251967
0
LINE
8
BLACK
6
CONTINUOUS
10
6.67007062992126
20
-4.0279225984251967
11
6.6682840157480312
21
-4.0319688582677164
0
LINE
8
BLACK
6
CONTINUOUS
10
6.6682840157480312
20
-4.0319688582677164
11
6.6681692913385824
21
-4.0329578346456696
0
LINE
8
BLACK
6
CONTINUOUS
10
6.6681692913385824
20
-4.0329578346456696
11
6.6681692913385824
21
-4.096490511811024
0
LINE
8
BLACK
6
CONTINUOUS
10
6.6681692913385824
20
-4.096490511811024
11
6.6681693307086611
21
-4.0964907874015744
0
LINE
8
BLACK
6
CONTINUOUS
10
6.6681693307086611
20
-4.0964907874015744
11
6.6682840157480312
21
-4.0974799212598425
0
LINE
8
BLACK
6
CONTINUOUS
10
6.6682840157480312
20
-4.0974799212598425
11
6.6682840944881887
21
-4.0974800787401575
0
LINE
8
BLACK
6
CONTINUOUS
10
6.6682840944881887
20
-4.0974800787401575
11
6.6700705905511812
21
-4.1015261811023622
0
LINE
8
BLACK
6
CONTINUOUS
10
6.6700705905511812
20
-4.1015261811023622
11
6.6731981102362203
21
-4.1046537007874013
0
LINE
8
BLACK
6
CONTINUOUS
10
6.6731981102362203
20
-4.1046537007874013
11
6.6731981889763778
21
-4.1046537401574801
0
LINE
8
BLACK
6
CONTINUOUS
10
6.6731981889763778
20
-4.1046537401574801
11
6.6731982283464566
21
-4.1046537795275588
0
LINE
8
BLACK
6
CONTINUOUS
10
6.6731982283464566
20
-4.1046537795275588
11
6.6772444488188976
21
-4.1064403543307089
0
LINE
8
BLACK
6
CONTINUOUS
10
6.6772444488188976
20
-4.1064403543307089
11
6.6782336614173223
21
-4.1065551181102364
0
LINE
8
BLACK
6
CONTINUOUS
10
6.6782336614173223
20
-4.1065551181102364
11
6.741766299212598
21
-4.1065550787401577
0
LINE
8
BLACK
6
CONTINUOUS
10
6.741766299212598
20
-4.1065550787401577
11
6.7427555511811024
21
-4.1064403543307089
0
LINE
8
BLACK
6
CONTINUOUS
10
6.7427555511811024
20
-4.1064403543307089
11
6.7468017716535433
21
-4.1046537795275588
0
LINE
8
BLACK
6
CONTINUOUS
10
6.7468017716535433
20
-4.1046537795275588
11
6.7499293700787399
21
-4.1015261811023622
0
LINE
8
BLACK
6
CONTINUOUS
10
6.7499293700787399
20
-4.1015261811023622
11
6.75171594488189
21
-4.0974799606299213
0
LINE
8
BLACK
6
CONTINUOUS
10
6.75171594488189
20
-4.0974799606299213
11
6.7518307086614175
21
-4.0964907480314956
0
LINE
8
BLACK
6
CONTINUOUS
10
6.7518307086614175
20
-4.0964907480314956
11
6.7518306692913388
21
-4.03295811023622
0
LINE
8
BLACK
6
CONTINUOUS
10
6.7518306692913388
20
-4.03295811023622
11
6.75183062992126
21
-4.0329578346456696
0
LINE
8
BLACK
6
CONTINUOUS
10
6.75183062992126
20
-4.0329578346456696
11
6.75171594488189
21
-4.0319688582677164
0
LINE
8
BLACK
6
CONTINUOUS
10
6.75171594488189
20
-4.0319688582677164
11
6.7499293700787399
21
-4.0279226377952755
0
LINE
8
BLACK
6
CONTINUOUS
10
6.7499293700787399
20
-4.0279226377952755
11
6.7499293700787399
21
-4.0279225984251967
0
LINE
8
BLACK
6
CONTINUOUS
10
6.7499293700787399
20
-4.0279225984251967
11
6.7468018503937008
21
-4.0247950787401576
0
LINE
8
BLACK
6
CONTINUOUS
10
6.7468018503937008
20
-4.0247950787401576
11
6.7468017716535433
21
-4.0247950393700789
0
LINE
8
BLACK
6
CONTINUOUS
10
6.7468017716535433
20
-4.0247950393700789
11
6.7427554724409449
21
-4.0230084251968501
0
LINE
8
BLACK
6
CONTINUOUS
10
6.7427554724409449
20
-4.0230084251968501
11
6.7427555118110236
21
-4.0230084251968501
0
LINE
8
BLACK
6
CONTINUOUS
10
6.7427555118110236
20
-4.0230084251968501
11
6.741766456692913
21
-4.0228937007874013
0
LINE
8
BLACK
6
CONTINUOUS
10
6.741766456692913
20
-4.0228937007874013
11
6.6782338582677161
21
-4.0228937007874013
0
LINE
8
BLACK
6
CONTINUOUS
10
6.6782338582677161
20
-4.0228937007874013
11
6.6782335826771648
21
-4.02289374015748
0
LINE
8
BLACK
6
CONTINUOUS
10
4.6187204724409447
20
-4.0995613779527558
11
4.6187205118110235
21
-4.099561653543307
0
LINE
8
BLACK
6
CONTINUOUS
10
4.6187205118110235
20
-4.099561653543307
11
4.6188351968503936
21
-4.1005507874015743
0
LINE
8
BLACK
6
CONTINUOUS
10
4.6188351968503936
20
-4.1005507874015743
11
4.6188352755905511
21
-4.1005509448818893
0
LINE
8
BLACK
6
CONTINUOUS
10
4.6188352755905511
20
-4.1005509448818893
11
4.6206217716535436
21
-4.104597047244094
0
LINE
8
BLACK
6
CONTINUOUS
10
4.6206217716535436
20
-4.104597047244094
11
4.6237492913385827
21
-4.107724566929134
0
LINE
8
BLACK
6
CONTINUOUS
10
4.6237492913385827
20
-4.107724566929134
11
4.6237493700787402
21
-4.1077246062992128
0
LINE
8
BLACK
6
CONTINUOUS
10
4.6237493700787402
20
-4.1077246062992128
11
4.623749409448819
21
-4.1077246456692915
0
LINE
8
BLACK
6
CONTINUOUS
10
4.623749409448819
20
-4.1077246456692915
11
4.6277956299212599
21
-4.1095112204724407
0
LINE
8
BLACK
6
CONTINUOUS
10
4.6277956299212599
20
-4.1095112204724407
11
4.6287848425196847
21
-4.1096259842519682
0
LINE
8
BLACK
6
CONTINUOUS
10
4.6287848425196847
20
-4.1096259842519682
11
4.7701127559055116
21
-4.1096259448818895
0
LINE
8
BLACK
6
CONTINUOUS
10
4.7701127559055116
20
-4.1096259448818895
11
4.7711020078740161
21
-4.1095112204724407
0
LINE
8
BLACK
6
CONTINUOUS
10
4.7711020078740161
20
-4.1095112204724407
11
4.775148228346457
21
-4.1077246456692915
0
LINE
8
BLACK
6
CONTINUOUS
10
4.775148228346457
20
-4.1077246456692915
11
4.7782758267716536
21
-4.104597047244094
0
LINE
8
BLACK
6
CONTINUOUS
10
4.7782758267716536
20
-4.104597047244094
11
4.7800624015748028
21
-4.1005508267716531
0
LINE
8
BLACK
6
CONTINUOUS
10
4.7800624015748028
20
-4.1005508267716531
11
4.7801771653543303
21
-4.0995616141732283
0
LINE
8
BLACK
6
CONTINUOUS
10
4.7801771653543303
20
-4.0995616141732283
11
4.7801771259842516
21
-3.9582337007874013
0
LINE
8
BLACK
6
CONTINUOUS
10
4.7801771259842516
20
-3.9582337007874013
11
4.7801770866141728
21
-3.9582334251968505
0
LINE
8
BLACK
6
CONTINUOUS
10
4.7801770866141728
20
-3.9582334251968505
11
4.7800624015748028
21
-3.9572444488188974
0
LINE
8
BLACK
6
CONTINUOUS
10
4.7800624015748028
20
-3.9572444488188974
11
4.7782758267716536
21
-3.9531982283464564
0
LINE
8
BLACK
6
CONTINUOUS
10
4.7782758267716536
20
-3.9531982283464564
11
4.7782758267716536
21
-3.9531981889763776
0
LINE
8
BLACK
6
CONTINUOUS
10
4.7782758267716536
20
-3.9531981889763776
11
4.7751483070866136
21
-3.9500706692913385
0
LINE
8
BLACK
6
CONTINUOUS
10
4.7751483070866136
20
-3.9500706692913385
11
4.775148228346457
21
-3.9500706299212598
0
LINE
8
BLACK
6
CONTINUOUS
10
4.775148228346457
20
-3.9500706299212598
11
4.7711019291338586
21
-3.9482840157480315
0
LINE
8
BLACK
6
CONTINUOUS
10
4.7711019291338586
20
-3.9482840157480315
11
4.7711019685039373
21
-3.9482840157480315
0
LINE
8
BLACK
6
CONTINUOUS
10
4.7711019685039373
20
-3.9482840157480315
11
4.7701129133858267
21
-3.9481692913385826
0
LINE
8
BLACK
6
CONTINUOUS
10
4.7701129133858267
20
-3.9481692913385826
11
4.6287850393700785
21
-3.9481692913385826
0
LINE
8
BLACK
6
CONTINUOUS
10
4.6287850393700785
20
-3.9481692913385826
11
4.6287847637795272
21
-3.9481693307086614
0
LINE
8
BLACK
6
CONTINUOUS
10
4.6287847637795272
20
-3.9481693307086614
11
4.6277956299212599
21
-3.9482840157480315
0
LINE
8
BLACK
6
CONTINUOUS
10
4.6277956299212599
20
-3.9482840157480315
11
4.6277954724409449
21
-3.948284094488189
0
LINE
8
BLACK
6
CONTINUOUS
10
4.6277954724409449
20
-3.948284094488189
11
4.6237493700787402
21
-3.950070590551181
0
LINE
8
BLACK
6
CONTINUOUS
10
4.6237493700787402
20
-3.950070590551181
11
4.6206218503937011
21
-3.9531981102362206
0
LINE
8
BLACK
6
CONTINUOUS
10
4.6206218503937011
20
-3.9531981102362206
11
4.6206218110236223
21
-3.9531981889763776
0
LINE
8
BLACK
6
CONTINUOUS
10
4.6206218110236223
20
-3.9531981889763776
11
4.6188351968503936
21
-3.9572444488188974
0
LINE
8
BLACK
6
CONTINUOUS
10
4.6188351968503936
20
-3.9572444488188974
11
4.6187204724409447
21
-3.9582334251968505
0
LINE
8
BLACK
6
CONTINUOUS
10
4.6187204724409447
20
-3.9582334251968505
11
4.6187204724409447
21
-4.0995613779527558
0
LINE
8
BLACK
6
CONTINUOUS
10
4.8903740157480318
20
-4.0995613779527558
11
4.8903740551181105
21
-4.099561653543307
0
LINE
8
BLACK
6
CONTINUOUS
10
4.8903740551181105
20
-4.099561653543307
11
4.8904887401574806
21
-4.1005507874015743
0
LINE
8
BLACK
6
CONTINUOUS
10
4.8904887401574806
20
-4.1005507874015743
11
4.8904888188976381
21
-4.1005509448818893
0
LINE
8
BLACK
6
CONTINUOUS
10
4.8904888188976381
20
-4.1005509448818893
11
4.8922753149606297
21
-4.104597047244094
0
LINE
8
BLACK
6
CONTINUOUS
10
4.8922753149606297
20
-4.104597047244094
11
4.8954028346456688
21
-4.107724566929134
0
LINE
8
BLACK
6
CONTINUOUS
10
4.8954028346456688
20
-4.107724566929134
11
4.8954029133858263
21
-4.1077246062992128
0
LINE
8
BLACK
6
CONTINUOUS
10
4.8954029133858263
20
-4.1077246062992128
11
4.8954029527559051
21
-4.1077246456692915
0
LINE
8
BLACK
6
CONTINUOUS
10
4.8954029527559051
20
-4.1077246456692915
11
4.8994491732283461
21
-4.1095112204724407
0
LINE
8
BLACK
6
CONTINUOUS
10
4.8994491732283461
20
-4.1095112204724407
11
4.9004383858267717
21
-4.1096259842519682
0
LINE
8
BLACK
6
CONTINUOUS
10
4.9004383858267717
20
-4.1096259842519682
11
5.0417662992125987
21
-4.1096259448818895
0
LINE
8
BLACK
6
CONTINUOUS
10
5.0417662992125987
20
-4.1096259448818895
11
5.0427555511811022
21
-4.1095112204724407
0
LINE
8
BLACK
6
CONTINUOUS
10
5.0427555511811022
20
-4.1095112204724407
11
5.0468017716535432
21
-4.1077246456692915
0
LINE
8
BLACK
6
CONTINUOUS
10
5.0468017716535432
20
-4.1077246456692915
11
5.0499293700787398
21
-4.104597047244094
0
LINE
8
BLACK
6
CONTINUOUS
10
5.0499293700787398
20
-4.104597047244094
11
5.0517159448818898
21
-4.1005508267716531
0
LINE
8
BLACK
6
CONTINUOUS
10
5.0517159448818898
20
-4.1005508267716531
11
5.0518307086614174
21
-4.0995616141732283
0
LINE
8
BLACK
6
CONTINUOUS
10
5.0518307086614174
20
-4.0995616141732283
11
5.0518306692913386
21
-4.0329578346456696
0
LINE
8
BLACK
6
CONTINUOUS
10
5.0518306692913386
20
-4.0329578346456696
11
5.0518306692913386
21
-4.0279226377952755
0
LINE
8
BLACK
6
CONTINUOUS
10
5.0518306692913386
20
-4.0279226377952755
11
5.0518306692913386
21
-3.968575157480315
0
LINE
8
BLACK
6
CONTINUOUS
10
5.0518306692913386
20
-3.968575157480315
11
5.0518306692913386
21
-3.9582338582677163
0
LINE
8
BLACK
6
CONTINUOUS
10
5.0518306692913386
20
-3.9582338582677163
11
5.0518306692913386
21
-3.9582337007874013
0
LINE
8
BLACK
6
CONTINUOUS
10
5.0518306692913386
20
-3.9582337007874013
11
5.0517159448818898
21
-3.9572444488188974
0
LINE
8
BLACK
6
CONTINUOUS
10
5.0517159448818898
20
-3.9572444488188974
11
5.0499293700787398
21
-3.9531982283464564
0
LINE
8
BLACK
6
CONTINUOUS
10
5.0499293700787398
20
-3.9531982283464564
11
5.0499293700787398
21
-3.9531981889763776
0
LINE
8
BLACK
6
CONTINUOUS
10
5.0499293700787398
20
-3.9531981889763776
11
5.0468018503937007
21
-3.9500706692913385
0
LINE
8
BLACK
6
CONTINUOUS
10
5.0468018503937007
20
-3.9500706692913385
11
5.0468017716535432
21
-3.9500706299212598
0
LINE
8
BLACK
6
CONTINUOUS
10
5.0468017716535432
20
-3.9500706299212598
11
5.0427554724409447
21
-3.9482840157480315
0
LINE
8
BLACK
6
CONTINUOUS
10
5.0427554724409447
20
-3.9482840157480315
11
5.0427555118110234
21
-3.9482840157480315
0
LINE
8
BLACK
6
CONTINUOUS
10
5.0427555118110234
20
-3.9482840157480315
11
5.0417665354330712
21
-3.9481692913385826
0
LINE
8
BLACK
6
CONTINUOUS
10
5.0417665354330712
20
-3.9481692913385826
11
5.0417663385826774
21
-3.9481692913385826
0
LINE
8
BLACK
6
CONTINUOUS
10
5.0417663385826774
20
-3.9481692913385826
11
4.9725148818897633
21
-3.9481692913385826
0
LINE
8
BLACK
6
CONTINUOUS
10
4.9725148818897633
20
-3.9481692913385826
11
4.9698329527559055
21
-3.9473818110236221
0
LINE
8
BLACK
6
CONTINUOUS
10
4.9698329527559055
20
-3.9473818110236221
11
4.9680025196850393
21
-3.9452693700787402
0
LINE
8
BLACK
6
CONTINUOUS
10
4.9680025196850393
20
-3.9452693700787402
11
4.9676176771653546
21
-3.942959960629921
0
LINE
8
BLACK
6
CONTINUOUS
10
4.9676176771653546
20
-3.942959960629921
11
4.9675787401574798
21
-3.942959960629921
0
LINE
8
BLACK
6
CONTINUOUS
10
4.9675787401574798
20
-3.942959960629921
11
4.9675787401574798
21
-3.942726338582677
0
LINE
8
BLACK
6
CONTINUOUS
10
4.9675787401574798
20
-3.942726338582677
11
4.9675781102362206
21
-3.942722559055118
0
LINE
8
BLACK
6
CONTINUOUS
10
4.9675781102362206
20
-3.942722559055118
11
4.9675787401574798
21
-3.9427161417322836
0
LINE
8
BLACK
6
CONTINUOUS
10
4.9675787401574798
20
-3.9427161417322836
11
4.9675787401574798
21
-3.9372837795275588
0
LINE
8
BLACK
6
CONTINUOUS
10
4.9675787401574798
20
-3.9372837795275588
11
4.967578700787401
21
-3.9372836220472438
0
LINE
8
BLACK
6
CONTINUOUS
10
4.967578700787401
20
-3.9372836220472438
11
4.9668828740157478
21
-3.9337854330708661
0
LINE
8
BLACK
6
CONTINUOUS
10
4.9668828740157478
20
-3.9337854330708661
11
4.9667188976377954
21
-3.9329610629921259
0
LINE
8
BLACK
6
CONTINUOUS
10
4.9667188976377954
20
-3.9329610629921259
11
4.9667188188976379
21
-3.9329606692913384
0
LINE
8
BLACK
6
CONTINUOUS
10
4.9667188188976379
20
-3.9329606692913384
11
4.966518897637795
21
-3.9319555905511812
0
LINE
8
BLACK
6
CONTINUOUS
10
4.966518897637795
20
-3.9319555905511812
11
4.964439960629921
21
-3.9269365748031495
0
LINE
8
BLACK
6
CONTINUOUS
10
4.964439960629921
20
-3.9269365748031495
11
4.9614218110236221
21
-3.9224196062992127
0
LINE
8
BLACK
6
CONTINUOUS
10
4.9614218110236221
20
-3.9224196062992127
11
4.9614216141732284
21
-3.9224193700787402
0
LINE
8
BLACK
6
CONTINUOUS
10
4.9614216141732284
20
-3.9224193700787402
11
4.9575805905511814
21
-3.9185783464566928
0
LINE
8
BLACK
6
CONTINUOUS
10
4.9575805905511814
20
-3.9185783464566928
11
4.9575803543307089
21
-3.918578149606299
0
LINE
8
BLACK
6
CONTINUOUS
10
4.9575803543307089
20
-3.918578149606299
11
4.9560815354330705
21
-3.917576653543307
0
LINE
8
BLACK
6
CONTINUOUS
10
4.9560815354330705
20
-3.917576653543307
11
4.9530634251968504
21
-3.9155600393700785
0
LINE
8
BLACK
6
CONTINUOUS
10
4.9530634251968504
20
-3.9155600393700785
11
4.9498984645669291
21
-3.9142490551181099
0
LINE
8
BLACK
6
CONTINUOUS
10
4.9498984645669291
20
-3.9142490551181099
11
4.9480445275590554
21
-3.9134811417322832
0
LINE
8
BLACK
6
CONTINUOUS
10
4.9480445275590554
20
-3.9134811417322832
11
4.9480444094488192
21
-3.9134811023622045
0
LINE
8
BLACK
6
CONTINUOUS
10
4.9480444094488192
20
-3.9134811023622045
11
4.9427163385826773
21
-3.9124212598425196
0
LINE
8
BLACK
6
CONTINUOUS
10
4.9427163385826773
20
-3.9124212598425196
11
4.9427162598425198
21
-3.9124212598425196
0
LINE
8
BLACK
6
CONTINUOUS
10
4.9427162598425198
20
-3.9124212598425196
11
4.9372837401574801
21
-3.9124212598425196
0
LINE
8
BLACK
6
CONTINUOUS
10
4.9372837401574801
20
-3.9124212598425196
11
4.9372836220472438
21
-3.9124212598425196
0
LINE
8
BLACK
6
CONTINUOUS
10
4.9372836220472438
20
-3.9124212598425196
11
4.931955551181102
21
-3.9134811023622045
0
LINE
8
BLACK
6
CONTINUOUS
10
4.931955551181102
20
-3.9134811023622045
11
4.9319554330708657
21
-3.9134811417322832
0
LINE
8
BLACK
6
CONTINUOUS
10
4.9319554330708657
20
-3.9134811417322832
11
4.9269365748031495
21
-3.9155600393700785
0
LINE
8
BLACK
6
CONTINUOUS
10
4.9269365748031495
20
-3.9155600393700785
11
4.9224196062992123
21
-3.918578149606299
0
LINE
8
BLACK
6
CONTINUOUS
10
4.9224196062992123
20
-3.918578149606299
11
4.9224193700787398
21
-3.9185783464566928
0
LINE
8
BLACK
6
CONTINUOUS
10
4.9224193700787398
20
-3.9185783464566928
11
4.9185783464566928
21
-3.9224193700787402
0
LINE
8
BLACK
6
CONTINUOUS
10
4.9185783464566928
20
-3.9224193700787402
11
4.918578149606299
21
-3.9224196062992127
0
LINE
8
BLACK
6
CONTINUOUS
10
4.918578149606299
20
-3.9224196062992127
11
4.9155600393700789
21
-3.9269365748031495
0
LINE
8
BLACK
6
CONTINUOUS
10
4.9155600393700789
20
-3.9269365748031495
11
4.9134811417322837
21
-3.9319554330708661
0
LINE
8
BLACK
6
CONTINUOUS
10
4.9134811417322837
20
-3.9319554330708661
11
4.9134811023622049
21
-3.9319555511811024
0
LINE
8
BLACK
6
CONTINUOUS
10
4.9134811023622049
20
-3.9319555511811024
11
4.9124212598425192
21
-3.9372836220472438
0
LINE
8
BLACK
6
CONTINUOUS
10
4.9124212598425192
20
-3.9372836220472438
11
4.9124212598425192
21
-3.9427161417322836
0
LINE
8
BLACK
6
CONTINUOUS
10
4.9124212598425192
20
-3.9427161417322836
11
4.9124218897637792
21
-3.942722559055118
0
LINE
8
BLACK
6
CONTINUOUS
10
4.9124218897637792
20
-3.942722559055118
11
4.9124212598425192
21
-3.9427258661417324
0
LINE
8
BLACK
6
CONTINUOUS
10
4.9124212598425192
20
-3.9427258661417324
11
4.9124212598425192
21
-3.942959960629921
0
LINE
8
BLACK
6
CONTINUOUS
10
4.9124212598425192
20
-3.942959960629921
11
4.9123768503937004
21
-3.942959960629921
0
LINE
8
BLACK
6
CONTINUOUS
10
4.9123768503937004
20
-3.942959960629921
11
4.9119009842519681
21
-3.9454687401574802
0
LINE
8
BLACK
6
CONTINUOUS
10
4.9119009842519681
20
-3.9454687401574802
11
4.909978070866142
21
-3.9474973622047242
0
LINE
8
BLACK
6
CONTINUOUS
10
4.909978070866142
20
-3.9474973622047242
11
4.9074851574803144
21
-3.9481692913385826
0
LINE
8
BLACK
6
CONTINUOUS
10
4.9074851574803144
20
-3.9481692913385826
11
4.9004385433070867
21
-3.9481692913385826
0
LINE
8
BLACK
6
CONTINUOUS
10
4.9004385433070867
20
-3.9481692913385826
11
4.9004383070866142
21
-3.9481693307086614
0
LINE
8
BLACK
6
CONTINUOUS
10
4.9004383070866142
20
-3.9481693307086614
11
4.8994492125984248
21
-3.9482840157480315
0
LINE
8
BLACK
6
CONTINUOUS
10
4.8994492125984248
20
-3.9482840157480315
11
4.899449015748031
21
-3.948284094488189
0
LINE
8
BLACK
6
CONTINUOUS
10
4.899449015748031
20
-3.948284094488189
11
4.8954029133858263
21
-3.950070590551181
0
LINE
8
BLACK
6
CONTINUOUS
10
4.8954029133858263
20
-3.950070590551181
11
4.8922753937007872
21
-3.9531981102362206
0
LINE
8
BLACK
6
CONTINUOUS
10
4.8922753937007872
20
-3.9531981102362206
11
4.8922753543307085
21
-3.9531981889763776
0
LINE
8
BLACK
6
CONTINUOUS
10
4.8922753543307085
20
-3.9531981889763776
11
4.8904887401574806
21
-3.9572444488188974
0
LINE
8
BLACK
6
CONTINUOUS
10
4.8904887401574806
20
-3.9572444488188974
11
4.8903740157480318
21
-3.9582334251968505
0
LINE
8
BLACK
6
CONTINUOUS
10
4.8903740157480318
20
-3.9582334251968505
11
4.8903740157480318
21
-4.0995613779527558
0
LINE
8
BLACK
6
CONTINUOUS
10
6.7681692913385829
20
-4.096490511811024
11
6.7681693307086617
21
-4.0964907874015744
0
LINE
8
BLACK
6
CONTINUOUS
10
6.7681693307086617
20
-4.0964907874015744
11
6.7682840157480317
21
-4.0974799212598425
0
LINE
8
BLACK
6
CONTINUOUS
10
6.7682840157480317
20
-4.0974799212598425
11
6.7682840944881892
21
-4.0974800787401575
0
LINE
8
BLACK
6
CONTINUOUS
10
6.7682840944881892
20
-4.0974800787401575
11
6.7700705905511809
21
-4.1015261811023622
0
LINE
8
BLACK
6
CONTINUOUS
10
6.7700705905511809
20
-4.1015261811023622
11
6.77319811023622
21
-4.1046537007874013
0
LINE
8
BLACK
6
CONTINUOUS
10
6.77319811023622
20
-4.1046537007874013
11
6.7731981889763775
21
-4.1046537401574801
0
LINE
8
BLACK
6
CONTINUOUS
10
6.7731981889763775
20
-4.1046537401574801
11
6.7731982283464562
21
-4.1046537795275588
0
LINE
8
BLACK
6
CONTINUOUS
10
6.7731982283464562
20
-4.1046537795275588
11
6.7772444488188972
21
-4.1064403543307089
0
LINE
8
BLACK
6
CONTINUOUS
10
6.7772444488188972
20
-4.1064403543307089
11
6.7782336614173229
21
-4.1065551181102364
0
LINE
8
BLACK
6
CONTINUOUS
10
6.7782336614173229
20
-4.1065551181102364
11
6.8417662992125985
21
-4.1065550787401577
0
LINE
8
BLACK
6
CONTINUOUS
10
6.8417662992125985
20
-4.1065550787401577
11
6.842755551181102
21
-4.1064403543307089
0
LINE
8
BLACK
6
CONTINUOUS
10
6.842755551181102
20
-4.1064403543307089
11
6.846801771653543
21
-4.1046537795275588
0
LINE
8
BLACK
6
CONTINUOUS
10
6.846801771653543
20
-4.1046537795275588
11
6.8499293700787396
21
-4.1015261811023622
0
LINE
8
BLACK
6
CONTINUOUS
10
6.8499293700787396
20
-4.1015261811023622
11
6.8517159448818896
21
-4.0974799606299213
0
LINE
8
BLACK
6
CONTINUOUS
10
6.8517159448818896
20
-4.0974799606299213
11
6.8518307086614172
21
-4.0964907480314956
0
LINE
8
BLACK
6
CONTINUOUS
10
6.8518307086614172
20
-4.0964907480314956
11
6.8518306692913384
21
-4.03295811023622
0
LINE
8
BLACK
6
CONTINUOUS
10
6.8518306692913384
20
-4.03295811023622
11
6.8517159448818896
21
-4.0319688582677164
0
LINE
8
BLACK
6
CONTINUOUS
10
6.8517159448818896
20
-4.0319688582677164
11
6.8499293700787396
21
-4.0279226377952755
0
LINE
8
BLACK
6
CONTINUOUS
10
6.8499293700787396
20
-4.0279226377952755
11
6.8499293700787396
21
-4.0279225984251967
0
LINE
8
BLACK
6
CONTINUOUS
10
6.8499293700787396
20
-4.0279225984251967
11
6.8468018503937005
21
-4.0247950787401576
0
LINE
8
BLACK
6
CONTINUOUS
10
6.8468018503937005
20
-4.0247950787401576
11
6.846801771653543
21
-4.0247950393700789
0
LINE
8
BLACK
6
CONTINUOUS
10
6.846801771653543
20
-4.0247950393700789
11
6.8427554724409445
21
-4.0230084251968501
0
LINE
8
BLACK
6
CONTINUOUS
10
6.8427554724409445
20
-4.0230084251968501
11
6.8427555118110233
21
-4.0230084251968501
0
LINE
8
BLACK
6
CONTINUOUS
10
6.8427555118110233
20
-4.0230084251968501
11
6.8417664566929135
21
-4.0228937007874013
0
LINE
8
BLACK
6
CONTINUOUS
10
6.8417664566929135
20
-4.0228937007874013
11
6.7782338582677166
21
-4.0228937007874013
0
LINE
8
BLACK
6
CONTINUOUS
10
6.7782338582677166
20
-4.0228937007874013
11
6.7782335826771654
21
-4.02289374015748
0
LINE
8
BLACK
6
CONTINUOUS
10
6.7782335826771654
20
-4.02289374015748
11
6.7772444488188972
21
-4.0230084251968501
0
LINE
8
BLACK
6
CONTINUOUS
10
6.7772444488188972
20
-4.0230084251968501
11
6.7772442913385822
21
-4.0230085039370076
0
LINE
8
BLACK
6
CONTINUOUS
10
6.7772442913385822
20
-4.0230085039370076
11
6.7731981889763775
21
-4.0247950000000001
0
LINE
8
BLACK
6
CONTINUOUS
10
6.7731981889763775
20
-4.0247950000000001
11
6.7700706692913384
21
-4.0279225196850392
0
LINE
8
BLACK
6
CONTINUOUS
10
6.7700706692913384
20
-4.0279225196850392
11
6.7700706299212596
21
-4.0279225984251967
0
LINE
8
BLACK
6
CONTINUOUS
10
6.7700706299212596
20
-4.0279225984251967
11
6.7682840157480317
21
-4.0319688582677164
0
LINE
8
BLACK
6
CONTINUOUS
10
6.7682840157480317
20
-4.0319688582677164
11
6.7681692913385829
21
-4.0329578346456696
0
LINE
8
BLACK
6
CONTINUOUS
10
6.7681692913385829
20
-4.0329578346456696
11
6.7681692913385829
21
-4.096490511811024
0
LINE
8
BLACK
6
CONTINUOUS
10
6.6681890157480312
20
-3.9706299212598424
11
6.6681890157480312
21
-3.9964879527559054
0
LINE
8
BLACK
6
CONTINUOUS
10
6.6681890157480312
20
-3.9964879527559054
11
6.6683035039370075
21
-3.9974753149606297
0
LINE
8
BLACK
6
CONTINUOUS
10
6.6683035039370075
20
-3.9974753149606297
11
6.6683035826771651
21
-3.9974755118110235
0
LINE
8
BLACK
6
CONTINUOUS
10
6.6683035826771651
20
-3.9974755118110235
11
6.6700870866141733
21
-4.0015148425196854
0
LINE
8
BLACK
6
CONTINUOUS
10
6.6700870866141733
20
-4.0015148425196854
11
6.6732094488188975
21
-4.0046372047244096
0
LINE
8
BLACK
6
CONTINUOUS
10
6.6732094488188975
20
-4.0046372047244096
11
6.6732095275590551
21
-4.0046372440944884
0
LINE
8
BLACK
6
CONTINUOUS
10
6.6732095275590551
20
-4.0046372440944884
11
6.6772490551181098
21
-4.006420866141732
0
LINE
8
BLACK
6
CONTINUOUS
10
6.6772490551181098
20
-4.006420866141732
11
6.6772490157480311
21
-4.006420866141732
0
LINE
8
BLACK
6
CONTINUOUS
10
6.6772490157480311
20
-4.006420866141732
11
6.6782363385826766
21
-4.006535393700787
0
LINE
8
BLACK
6
CONTINUOUS
10
6.6782363385826766
20
-4.006535393700787
11
6.7040944881889759
21
-4.006535393700787
0
LINE
8
BLACK
6
CONTINUOUS
10
6.7040944881889759
20
-4.006535393700787
11
6.7040944881889759
21
-3.994724409448819
0
LINE
8
BLACK
6
CONTINUOUS
10
6.7040944881889759
20
-3.994724409448819
11
6.6799999999999997
21
-3.994724409448819
0
LINE
8
BLACK
6
CONTINUOUS
10
6.6799999999999997
20
-3.994724409448819
11
6.6799999999999997
21
-3.9706299212598424
0
LINE
8
BLACK
6
CONTINUOUS
10
6.6799999999999997
20
-3.9706299212598424
11
6.6681890157480312
21
-3.9706299212598424
0
LINE
8
BLACK
6
CONTINUOUS
10
6.7400000000000002
20
-3.994724409448819
11
6.7159055118110231
21
-3.994724409448819
0
LINE
8
BLACK
6
CONTINUOUS
10
6.7159055118110231
20
-3.994724409448819
11
6.7159055118110231
21
-4.006535393700787
0
LINE
8
BLACK
6
CONTINUOUS
10
6.7159055118110231
20
-4.006535393700787
11
6.7417633464566924
21
-4.006535393700787
0
LINE
8
BLACK
6
CONTINUOUS
10
6.7417633464566924
20
-4.006535393700787
11
6.7417635433070862
21
-4.0065353543307083
0
LINE
8
BLACK
6
CONTINUOUS
10
6.7417635433070862
20
-4.0065353543307083
11
6.7427509055118104
21
-4.006420866141732
0
LINE
8
BLACK
6
CONTINUOUS
10
6.7427509055118104
20
-4.006420866141732
11
6.7427511023622042
21
-4.0064207874015745
0
LINE
8
BLACK
6
CONTINUOUS
10
6.7427511023622042
20
-4.0064207874015745
11
6.7467904330708661
21
-4.0046372834645672
0
LINE
8
BLACK
6
CONTINUOUS
10
6.7467904330708661
20
-4.0046372834645672
11
6.7499127952755904
21
-4.0015149212598429
0
LINE
8
BLACK
6
CONTINUOUS
10
6.7499127952755904
20
-4.0015149212598429
11
6.7499128346456692
21
-4.0015148425196854
0
LINE
8
BLACK
6
CONTINUOUS
10
6.7499128346456692
20
-4.0015148425196854
11
6.7516964566929136
21
-3.9974753149606297
0
LINE
8
BLACK
6
CONTINUOUS
10
6.7516964566929136
20
-3.9974753149606297
11
6.7518109842519687
21
-3.9964881102362204
0
LINE
8
BLACK
6
CONTINUOUS
10
6.7518109842519687
20
-3.9964881102362204
11
6.7518110236220474
21
-3.9964879921259842
0
LINE
8
BLACK
6
CONTINUOUS
10
6.7518110236220474
20
-3.9964879921259842
11
6.7518110236220474
21
-3.9706299212598424
0
LINE
8
BLACK
6
CONTINUOUS
10
6.7518110236220474
20
-3.9706299212598424
11
6.7400000000000002
21
-3.9706299212598424
0
LINE
8
BLACK
6
CONTINUOUS
10
6.7400000000000002
20
-3.9706299212598424
11
6.7400000000000002
21
-3.994724409448819
0
LINE
8
BLACK
6
CONTINUOUS
10
6.7681890157480318
20
-3.9706299212598424
11
6.7681890157480318
21
-3.9964879527559054
0
LINE
8
BLACK
6
CONTINUOUS
10
6.7681890157480318
20
-3.9964879527559054
11
6.7683035039370081
21
-3.9974753149606297
0
LINE
8
BLACK
6
CONTINUOUS
10
6.7683035039370081
20
-3.9974753149606297
11
6.7683035826771656
21
-3.9974755118110235
0
LINE
8
BLACK
6
CONTINUOUS
10
6.7683035826771656
20
-3.9974755118110235
11
6.7700870866141729
21
-4.0015148425196854
0
LINE
8
BLACK
6
CONTINUOUS
10
6.7700870866141729
20
-4.0015148425196854
11
6.7732094488188972
21
-4.0046372047244096
0
LINE
8
BLACK
6
CONTINUOUS
10
6.7732094488188972
20
-4.0046372047244096
11
6.7732095275590547
21
-4.0046372440944884
0
LINE
8
BLACK
6
CONTINUOUS
10
6.7732095275590547
20
-4.0046372440944884
11
6.7772490551181104
21
-4.006420866141732
0
LINE
8
BLACK
6
CONTINUOUS
10
6.7772490551181104
20
-4.006420866141732
11
6.7772490157480316
21
-4.006420866141732
0
LINE
8
BLACK
6
CONTINUOUS
10
6.7772490157480316
20
-4.006420866141732
11
6.7782363385826772
21
-4.006535393700787
0
LINE
8
BLACK
6
CONTINUOUS
10
6.7782363385826772
20
-4.006535393700787
11
6.8040944881889764
21
-4.006535393700787
0
LINE
8
BLACK
6
CONTINUOUS
10
6.8040944881889764
20
-4.006535393700787
11
6.8040944881889764
21
-3.994724409448819
0
LINE
8
BLACK
6
CONTINUOUS
10
6.8040944881889764
20
-3.994724409448819
11
6.7800000000000002
21
-3.994724409448819
0
LINE
8
BLACK
6
CONTINUOUS
10
6.7800000000000002
20
-3.994724409448819
11
6.7800000000000002
21
-3.9706299212598424
0
LINE
8
BLACK
6
CONTINUOUS
10
6.7800000000000002
20
-3.9706299212598424
11
6.7681890157480318
21
-3.9706299212598424
0
LINE
8
BLACK
6
CONTINUOUS
10
6.8399999999999999
20
-3.994724409448819
11
6.8159055118110237
21
-3.994724409448819
0
LINE
8
BLACK
6
CONTINUOUS
10
6.8159055118110237
20
-3.994724409448819
11
6.8159055118110237
21
-4.006535393700787
0
LINE
8
BLACK
6
CONTINUOUS
10
6.8159055118110237
20
-4.006535393700787
11
6.8417633464566929
21
-4.006535393700787
0
LINE
8
BLACK
6
CONTINUOUS
10
6.8417633464566929
20
-4.006535393700787
11
6.8417635433070867
21
-4.0065353543307083
0
LINE
8
BLACK
6
CONTINUOUS
10
6.8417635433070867
20
-4.0065353543307083
11
6.842750905511811
21
-4.006420866141732
0
LINE
8
BLACK
6
CONTINUOUS
10
6.842750905511811
20
-4.006420866141732
11
6.8427511023622047
21
-4.0064207874015745
0
LINE
8
BLACK
6
CONTINUOUS
10
6.8427511023622047
20
-4.0064207874015745
11
6.8467904330708658
21
-4.0046372834645672
0
LINE
8
BLACK
6
CONTINUOUS
10
6.8467904330708658
20
-4.0046372834645672
11
6.84991279527559
21
-4.0015149212598429
0
LINE
8
BLACK
6
CONTINUOUS
10
6.84991279527559
20
-4.0015149212598429
11
6.8499128346456688
21
-4.0015148425196854
0
LINE
8
BLACK
6
CONTINUOUS
10
6.8499128346456688
20
-4.0015148425196854
11
6.8516964566929133
21
-3.9974753149606297
0
LINE
8
BLACK
6
CONTINUOUS
10
6.8516964566929133
20
-3.9974753149606297
11
6.8518109842519683
21
-3.9964881102362204
0
LINE
8
BLACK
6
CONTINUOUS
10
6.8518109842519683
20
-3.9964881102362204
11
6.8518110236220471
21
-3.9964879921259842
0
LINE
8
BLACK
6
CONTINUOUS
10
6.8518110236220471
20
-3.9964879921259842
11
6.8518110236220471
21
-3.9706299212598424
0
LINE
8
BLACK
6
CONTINUOUS
10
6.8518110236220471
20
-3.9706299212598424
11
6.8399999999999999
21
-3.9706299212598424
0
LINE
8
BLACK
6
CONTINUOUS
10
6.8399999999999999
20
-3.9706299212598424
11
6.8399999999999999
21
-3.994724409448819
0
LINE
8
BLACK
6
CONTINUOUS
10
6.8159055118110237
20
-3.934724409448819
11
6.8399999999999999
21
-3.934724409448819
0
LINE
8
BLACK
6
CONTINUOUS
10
6.8399999999999999
20
-3.934724409448819
11
6.8399999999999999
21
-3.9588188976377952
0
LINE
8
BLACK
6
CONTINUOUS
10
6.8399999999999999
20
-3.9588188976377952
11
6.8518109842519683
21
-3.9588188976377952
0
LINE
8
BLACK
6
CONTINUOUS
10
6.8518109842519683
20
-3.9588188976377952
11
6.8518109842519683
21
-3.9329610629921259
0
LINE
8
BLACK
6
CONTINUOUS
10
6.8518109842519683
20
-3.9329610629921259
11
6.8518109448818896
21
-3.9329608267716534
0
LINE
8
BLACK
6
CONTINUOUS
10
6.8518109448818896
20
-3.9329608267716534
11
6.8516964566929133
21
-3.9319734645669291
0
LINE
8
BLACK
6
CONTINUOUS
10
6.8516964566929133
20
-3.9319734645669291
11
6.8516963779527558
21
-3.9319732677165353
0
LINE
8
BLACK
6
CONTINUOUS
10
6.8516963779527558
20
-3.9319732677165353
11
6.8499128740157476
21
-3.9279339370078739
0
LINE
8
BLACK
6
CONTINUOUS
10
6.8499128740157476
20
-3.9279339370078739
11
6.8467905118110233
21
-3.9248115748031496
0
LINE
8
BLACK
6
CONTINUOUS
10
6.8467905118110233
20
-3.9248115748031496
11
6.8467904330708658
21
-3.9248115354330708
0
LINE
8
BLACK
6
CONTINUOUS
10
6.8467904330708658
20
-3.9248115354330708
11
6.842750905511811
21
-3.9230279133858268
0
LINE
8
BLACK
6
CONTINUOUS
10
6.842750905511811
20
-3.9230279133858268
11
6.8427509448818897
21
-3.9230279133858268
0
LINE
8
BLACK
6
CONTINUOUS
10
6.8427509448818897
20
-3.9230279133858268
11
6.8417637007874017
21
-3.9229133858267717
0
LINE
8
BLACK
6
CONTINUOUS
10
6.8417637007874017
20
-3.9229133858267717
11
6.8159055118110237
21
-3.9229133858267717
0
LINE
8
BLACK
6
CONTINUOUS
10
6.8159055118110237
20
-3.9229133858267717
11
6.8159055118110237
21
-3.934724409448819
0
LINE
8
BLACK
6
CONTINUOUS
10
6.7159055118110231
20
-3.934724409448819
11
6.7400000000000002
21
-3.934724409448819
0
LINE
8
BLACK
6
CONTINUOUS
10
6.7400000000000002
20
-3.934724409448819
11
6.7400000000000002
21
-3.9588188976377952
0
LINE
8
BLACK
6
CONTINUOUS
10
6.7400000000000002
20
-3.9588188976377952
11
6.7518109842519687
21
-3.9588188976377952
0
LINE
8
BLACK
6
CONTINUOUS
10
6.7518109842519687
20
-3.9588188976377952
11
6.7518109842519687
21
-3.9329611023622046
0
LINE
8
BLACK
6
CONTINUOUS
10
6.7518109842519687
20
-3.9329611023622046
11
6.7518109448818899
21
-3.9329607874015746
0
LINE
8
BLACK
6
CONTINUOUS
10
6.7518109448818899
20
-3.9329607874015746
11
6.7518109448818899
21
-3.9329606692913384
0
LINE
8
BLACK
6
CONTINUOUS
10
6.7518109448818899
20
-3.9329606692913384
11
6.7516964566929136
21
-3.9319734645669291
0
LINE
8
BLACK
6
CONTINUOUS
10
6.7516964566929136
20
-3.9319734645669291
11
6.7516963779527561
21
-3.9319732677165353
0
LINE
8
BLACK
6
CONTINUOUS
10
6.7516963779527561
20
-3.9319732677165353
11
6.7499128740157479
21
-3.9279339370078739
0
LINE
8
BLACK
6
CONTINUOUS
10
6.7499128740157479
20
-3.9279339370078739
11
6.7467905118110236
21
-3.9248115748031496
0
LINE
8
BLACK
6
CONTINUOUS
10
6.7467905118110236
20
-3.9248115748031496
11
6.7467904330708661
21
-3.9248115354330708
0
LINE
8
BLACK
6
CONTINUOUS
10
6.7467904330708661
20
-3.9248115354330708
11
6.7427509055118104
21
-3.9230279133858268
0
LINE
8
BLACK
6
CONTINUOUS
10
6.7427509055118104
20
-3.9230279133858268
11
6.7427509448818892
21
-3.9230279133858268
0
LINE
8
BLACK
6
CONTINUOUS
10
6.7427509448818892
20
-3.9230279133858268
11
6.7417637007874012
21
-3.9229133858267717
0
LINE
8
BLACK
6
CONTINUOUS
10
6.7417637007874012
20
-3.9229133858267717
11
6.7159055118110231
21
-3.9229133858267717
0
LINE
8
BLACK
6
CONTINUOUS
10
6.7159055118110231
20
-3.9229133858267717
11
6.7159055118110231
21
-3.934724409448819
0
LINE
8
BLACK
6
CONTINUOUS
10
6.6782364173228341
20
-3.9229134251968505
11
6.6772490551181098
21
-3.9230279133858268
0
LINE
8
BLACK
6
CONTINUOUS
10
6.6772490551181098
20
-3.9230279133858268
11
6.6772488582677161
21
-3.9230279921259843
0
LINE
8
BLACK
6
CONTINUOUS
10
6.6772488582677161
20
-3.9230279921259843
11
6.6732095275590551
21
-3.9248114960629921
0
LINE
8
BLACK
6
CONTINUOUS
10
6.6732095275590551
20
-3.9248114960629921
11
6.6700871653543308
21
-3.9279338582677163
0
LINE
8
BLACK
6
CONTINUOUS
10
6.6700871653543308
20
-3.9279338582677163
11
6.670087125984252
21
-3.9279339370078739
0
LINE
8
BLACK
6
CONTINUOUS
10
6.670087125984252
20
-3.9279339370078739
11
6.6683035039370075
21
-3.9319734645669291
0
LINE
8
BLACK
6
CONTINUOUS
10
6.6683035039370075
20
-3.9319734645669291
11
6.6681889763779525
21
-3.9329606692913384
0
LINE
8
BLACK
6
CONTINUOUS
10
6.6681889763779525
20
-3.9329606692913384
11
6.6681889763779525
21
-3.9588188976377952
0
LINE
8
BLACK
6
CONTINUOUS
10
6.6681889763779525
20
-3.9588188976377952
11
6.6799999999999997
21
-3.9588188976377952
0
LINE
8
BLACK
6
CONTINUOUS
10
6.6799999999999997
20
-3.9588188976377952
11
6.6799999999999997
21
-3.934724409448819
0
LINE
8
BLACK
6
CONTINUOUS
10
6.6799999999999997
20
-3.934724409448819
11
6.7040944881889759
21
-3.934724409448819
0
LINE
8
BLACK
6
CONTINUOUS
10
6.7040944881889759
20
-3.934724409448819
11
6.7040944881889759
21
-3.9229133858267717
0
LINE
8
BLACK
6
CONTINUOUS
10
6.7040944881889759
20
-3.9229133858267717
11
6.6782366535433066
21
-3.9229133858267717
0
LINE
8
BLACK
6
CONTINUOUS
10
6.6782366535433066
20
-3.9229133858267717
11
6.6782364173228341
21
-3.9229134251968505
0
LINE
8
BLACK
6
CONTINUOUS
10
6.768188976377953
20
-4.3588188976377955
11
6.7800000000000002
21
-4.3588188976377955
0
LINE
8
BLACK
6
CONTINUOUS
10
6.7800000000000002
20
-4.3588188976377955
11
6.7800000000000002
21
-4.3347244094488184
0
LINE
8
BLACK
6
CONTINUOUS
10
6.7800000000000002
20
-4.3347244094488184
11
6.8040944881889764
21
-4.3347244094488184
0
LINE
8
BLACK
6
CONTINUOUS
10
6.8040944881889764
20
-4.3347244094488184
11
6.8040944881889764
21
-4.3229133858267712
0
LINE
8
BLACK
6
CONTINUOUS
10
6.8040944881889764
20
-4.3229133858267712
11
6.7782366535433072
21
-4.3229133858267712
0
LINE
8
BLACK
6
CONTINUOUS
10
6.7782366535433072
20
-4.3229133858267712
11
6.7782364173228347
21
-4.32291342519685
0
LINE
8
BLACK
6
CONTINUOUS
10
6.7782364173228347
20
-4.32291342519685
11
6.7772490551181104
21
-4.3230279133858263
0
LINE
8
BLACK
6
CONTINUOUS
10
6.7772490551181104
20
-4.3230279133858263
11
6.7772488582677166
21
-4.3230279921259838
0
LINE
8
BLACK
6
CONTINUOUS
10
6.7772488582677166
20
-4.3230279921259838
11
6.7732095275590547
21
-4.324811496062992
0
LINE
8
BLACK
6
CONTINUOUS
10
6.7732095275590547
20
-4.324811496062992
11
6.7700871653543304
21
-4.3279338582677163
0
LINE
8
BLACK
6
CONTINUOUS
10
6.7700871653543304
20
-4.3279338582677163
11
6.7700871259842517
21
-4.3279339370078738
0
LINE
8
BLACK
6
CONTINUOUS
10
6.7700871259842517
20
-4.3279339370078738
11
6.7683035039370081
21
-4.3319734645669294
0
LINE
8
BLACK
6
CONTINUOUS
10
6.7683035039370081
20
-4.3319734645669294
11
6.768188976377953
21
-4.3329606692913387
0
LINE
8
BLACK
6
CONTINUOUS
10
6.768188976377953
20
-4.3329606692913387
11
6.768188976377953
21
-4.3588188976377955
0
LINE
8
BLACK
6
CONTINUOUS
10
6.6681889763779525
20
-4.1588188976377953
11
6.6799999999999997
21
-4.1588188976377953
0
LINE
8
BLACK
6
CONTINUOUS
10
6.6799999999999997
20
-4.1588188976377953
11
6.6799999999999997
21
-4.1347244094488191
0
LINE
8
BLACK
6
CONTINUOUS
10
6.6799999999999997
20
-4.1347244094488191
11
6.7040944881889759
21
-4.1347244094488191
0
LINE
8
BLACK
6
CONTINUOUS
10
6.7040944881889759
20
-4.1347244094488191
11
6.7040944881889759
21
-4.1229133858267719
0
LINE
8
BLACK
6
CONTINUOUS
10
6.7040944881889759
20
-4.1229133858267719
11
6.6782366535433066
21
-4.1229133858267719
0
LINE
8
BLACK
6
CONTINUOUS
10
6.6782366535433066
20
-4.1229133858267719
11
6.6782364173228341
21
-4.1229134251968507
0
LINE
8
BLACK
6
CONTINUOUS
10
6.6782364173228341
20
-4.1229134251968507
11
6.6772490551181098
21
-4.123027913385827
0
LINE
8
BLACK
6
CONTINUOUS
10
6.6772490551181098
20
-4.123027913385827
11
6.6772488582677161
21
-4.1230279921259845
0
LINE
8
BLACK
6
CONTINUOUS
10
6.6772488582677161
20
-4.1230279921259845
11
6.6732095275590551
21
-4.1248114960629918
0
LINE
8
BLACK
6
CONTINUOUS
10
6.6732095275590551
20
-4.1248114960629918
11
6.6700871653543308
21
-4.1279338582677161
0
LINE
8
BLACK
6
CONTINUOUS
10
6.6700871653543308
20
-4.1279338582677161
11
6.670087125984252
21
-4.1279339370078736
0
LINE
8
BLACK
6
CONTINUOUS
10
6.670087125984252
20
-4.1279339370078736
11
6.6683035039370075
21
-4.1319734645669293
0
LINE
8
BLACK
6
CONTINUOUS
10
6.6683035039370075
20
-4.1319734645669293
11
6.6681889763779525
21
-4.1329606692913385
0
LINE
8
BLACK
6
CONTINUOUS
10
6.6681889763779525
20
-4.1329606692913385
11
6.6681889763779525
21
-4.1588188976377953
0
LINE
8
BLACK
6
CONTINUOUS
10
6.768188976377953
20
-4.1588188976377953
11
6.7800000000000002
21
-4.1588188976377953
0
LINE
8
BLACK
6
CONTINUOUS
10
6.7800000000000002
20
-4.1588188976377953
11
6.7800000000000002
21
-4.1347244094488191
0
LINE
8
BLACK
6
CONTINUOUS
10
6.7800000000000002
20
-4.1347244094488191
11
6.8040944881889764
21
-4.1347244094488191
0
LINE
8
BLACK
6
CONTINUOUS
10
6.8040944881889764
20
-4.1347244094488191
11
6.8040944881889764
21
-4.1229133858267719
0
LINE
8
BLACK
6
CONTINUOUS
10
6.8040944881889764
20
-4.1229133858267719
11
6.7782366535433072
21
-4.1229133858267719
0
LINE
8
BLACK
6
CONTINUOUS
10
6.7782366535433072
20
-4.1229133858267719
11
6.7782364173228347
21
-4.1229134251968507
0
LINE
8
BLACK
6
CONTINUOUS
10
6.7782364173228347
20
-4.1229134251968507
11
6.7772490551181104
21
-4.123027913385827
0
LINE
8
BLACK
6
CONTINUOUS
10
6.7772490551181104
20
-4.123027913385827
11
6.7772488582677166
21
-4.1230279921259845
0
LINE
8
BLACK
6
CONTINUOUS
10
6.7772488582677166
20
-4.1230279921259845
11
6.7732095275590547
21
-4.1248114960629918
0
LINE
8
BLACK
6
CONTINUOUS
10
6.7732095275590547
20
-4.1248114960629918
11
6.7700871653543304
21
-4.1279338582677161
0
LINE
8
BLACK
6
CONTINUOUS
10
6.7700871653543304
20
-4.1279338582677161
11
6.7700871259842517
21
-4.1279339370078736
0
LINE
8
BLACK
6
CONTINUOUS
10
6.7700871259842517
20
-4.1279339370078736
11
6.7683035039370081
21
-4.1319734645669293
0
LINE
8
BLACK
6
CONTINUOUS
10
6.7683035039370081
20
-4.1319734645669293
11
6.768188976377953
21
-4.1329606692913385
0
LINE
8
BLACK
6
CONTINUOUS
10
6.768188976377953
20
-4.1329606692913385
11
6.768188976377953
21
-4.1588188976377953
0
LINE
8
BLACK
6
CONTINUOUS
10
6.768188976377953
20
-3.9588188976377952
11
6.7800000000000002
21
-3.9588188976377952
0
LINE
8
BLACK
6
CONTINUOUS
10
6.7800000000000002
20
-3.9588188976377952
11
6.7800000000000002
21
-3.934724409448819
0
LINE
8
BLACK
6
CONTINUOUS
10
6.7800000000000002
20
-3.934724409448819
11
6.8040944881889764
21
-3.934724409448819
0
LINE
8
BLACK
6
CONTINUOUS
10
6.8040944881889764
20
-3.934724409448819
11
6.8040944881889764
21
-3.9229133858267717
0
LINE
8
BLACK
6
CONTINUOUS
10
6.8040944881889764
20
-3.9229133858267717
11
6.7782366535433072
21
-3.9229133858267717
0
LINE
8
BLACK
6
CONTINUOUS
10
6.7782366535433072
20
-3.9229133858267717
11
6.7782364173228347
21
-3.9229134251968505
0
LINE
8
BLACK
6
CONTINUOUS
10
6.7782364173228347
20
-3.9229134251968505
11
6.7772490551181104
21
-3.9230279133858268
0
LINE
8
BLACK
6
CONTINUOUS
10
6.7772490551181104
20
-3.9230279133858268
11
6.7772488582677166
21
-3.9230279921259843
0
LINE
8
BLACK
6
CONTINUOUS
10
6.7772488582677166
20
-3.9230279921259843
11
6.7732095275590547
21
-3.9248114960629921
0
LINE
8
BLACK
6
CONTINUOUS
10
6.7732095275590547
20
-3.9248114960629921
11
6.7700871653543304
21
-3.9279338582677163
0
LINE
8
BLACK
6
CONTINUOUS
10
6.7700871653543304
20
-3.9279338582677163
11
6.7700871259842517
21
-3.9279339370078739
0
LINE
8
BLACK
6
CONTINUOUS
10
6.7700871259842517
20
-3.9279339370078739
11
6.7683035039370081
21
-3.9319734645669291
0
LINE
8
BLACK
6
CONTINUOUS
10
6.7683035039370081
20
-3.9319734645669291
11
6.768188976377953
21
-3.9329606692913384
0
LINE
8
BLACK
6
CONTINUOUS
10
6.768188976377953
20
-3.9329606692913384
11
6.768188976377953
21
-3.9588188976377952
0
CIRCLE
8
BLACK
10
6.71
20
-4.1647244094488185
40
0.0068897637795276
0
CIRCLE
8
BLACK
10
6.8099999999999996
20
-4.1647244094488185
40
0.0068897637795276
0
CIRCLE
8
BLACK
10
6.71
20
-3.9647244094488188
40
0.0068897637795276
0
CIRCLE
8
BLACK
10
6.8099999999999996
20
-3.9647244094488188
40
0.0068897637795276
0
CIRCLE
8
BLACK
10
6.71
20
-4.0647244094488189
40
0.0068897637795276
0
CIRCLE
8
BLACK
10
6.8099999999999996
20
-4.0647244094488189
40
0.0068897637795276
0
CIRCLE
8
BLACK
10
6.71
20
-4.264724409448819
40
0.0068897637795276
0
CIRCLE
8
BLACK
10
6.8099999999999996
20
-4.264724409448819
40
0.0068897637795276
0
CIRCLE
8
BLACK
10
6.71
20
-4.3647244094488187
40
0.0068897637795276
0
CIRCLE
8
BLACK
10
6.8099999999999996
20
-4.3647244094488187
40
0.0068897637795276
0
CIRCLE
8
BLACK
10
5.0999999999999996
20
-4.3600000000000003
40
0.0078740157480315
0
CIRCLE
8
BLACK
10
5.9799999999999995
20
-4.4199999999999999
40
0.0078740157480315
0
CIRCLE
8
BLACK
10
4.5899999999999999
20
-4.1100000000000003
40
0.0078740157480315
0
CIRCLE
8
BLACK
10
5.7299999999999995
20
-4.1299999999999999
40
0.0078740157480315
0
CIRCLE
8
BLACK
10
5.3999999999999995
20
-3.9299999999999997
40
0.0078740157480315
0
CIRCLE
8
BLACK
10
5.9699999999999998
20
-4.1299999999999999
40
0.0078740157480315
0
CIRCLE
8
BLACK
10
5.6699999999999999
20
-4.3300000000000001
40
0.0078740157480315
0
CIRCLE
8
BLACK
10
6.0999999999999996
20
-3.9299999999999997
40
0.0078740157480315
0
CIRCLE
8
BLACK
10
4.6799999999999997
20
-4.4100000000000001
40
0.0078740157480315
0
CIRCLE
8
BLACK
10
5.4900000000000002
20
-4.1299999999999999
40
0.0078740157480315
0
CIRCLE
8
BLACK
10
6.0700000000000003
20
-4.3300000000000001
40
0.0078740157480315
0
CIRCLE
8
BLACK
10
5.1699999999999999
20
-4.3600000000000003
40
0.0078740157480315
0
CIRCLE
8
BLACK
10
5.3499999999999996
20
-4.3499999999999996
40
0.0078740157480315
0
CIRCLE
8
BLACK
10
6.2400000000000002
20
-4.0099999999999998
40
0.0078740157480315
0
CIRCLE
8
BLACK
10
4.5800000000000001
20
-4.3300000000000001
40
0.0078740157480315
0
CIRCLE
8
BLACK
10
5.1100000000000003
20
-4.0800000000000001
40
0.0078740157480315
0
CIRCLE
8
BLACK
10
6.6399999999999997
20
-4.3099999999999996
40
0.0078740157480315
0
CIRCLE
8
BLACK
10
5.5499999999999998
20
-4.4199999999999999
40
0.0078740157480315
0
CIRCLE
8
BLACK
10
5.6699999999999999
20
-4.1299999999999999
40
0.0078740157480315
0
CIRCLE
8
BLACK
10
5.2299999999999995
20
-4.0800000000000001
40
0.0078740157480315
0
CIRCLE
8
BLACK
10
5.4199999999999999
20
-4.3200000000000003
40
0.0078740157480315
0
CIRCLE
8
BLACK
10
6.0700000000000003
20
-4.1399999999999997
40
0.0078740157480315
0
CIRCLE
8
BLACK
10
5.8499999999999996
20
-4.3300000000000001
40
0.0078740157480315
0
CIRCLE
8
BLACK
10
6.0300000000000002
20
-4.0999999999999996
40
0.0078740157480315
0
CIRCLE
8
BLACK
10
6.4399999999999995
20
-4.3099999999999996
40
0.0078740157480315
0
CIRCLE
8
BLACK
10
6.5300000000000002
20
-3.98
40
0.0078740157480315
0
CIRCLE
8
BLACK
10
6.1299999999999999
20
-4.1699999999999999
40
0.0078740157480315
0
CIRCLE
8
BLACK
10
6.4299999999999997
20
-4.4199999999999999
40
0.0078740157480315
0
CIRCLE
8
BLACK
10
6.1299999999999999
20
-4.0899999999999999
40
0.0078740157480315
0
CIRCLE
8
BLACK
10
4.5899999999999999
20
-3.9299999999999997
40
0.0078740157480315
0
CIRCLE
8
BLACK
10
5.29
20
-4.1299999999999999
40
0.0078740157480315
0
CIRCLE
8
BLACK
10
5.96
20
-4.3300000000000001
40
0.0078740157480315
0
CIRCLE
8
BLACK
10
6.3300000000000001
20
-4.4199999999999999
40
0.0078740157480315
0
CIRCLE
8
BLACK
10
5.4299999999999997
20
-4.1299999999999999
40
0.0078740157480315
0
CIRCLE
8
BLACK
10
5.1100000000000003
20
-4.1600000000000001
40
0.0078740157480315
0
CIRCLE
8
BLACK
10
6.21
20
-4.4199999999999999
40
0.0078740157480315
0
CIRCLE
8
BLACK
10
4.8300000000000001
20
-3.9299999999999997
40
0.0078740157480315
0
CIRCLE
8
BLACK
10
5.8499999999999996
20
-4.4199999999999999
40
0.0078740157480315
0
CIRCLE
8
BLACK
10
5.3499999999999996
20
-4.1200000000000001
40
0.0078740157480315
0
CIRCLE
8
BLACK
10
5.8499999999999996
20
-4.1299999999999999
40
0.0078740157480315
0
CIRCLE
8
BLACK
10
6.1799999999999997
20
-4.3300000000000001
40
0.0078740157480315
0
CIRCLE
8
BLACK
10
6.5800000000000001
20
-4.3200000000000003
40
0.0078740157480315
0
CIRCLE
8
BLACK
10
5.7599999999999998
20
-3.9399999999999999
40
0.0078740157480315
0
CIRCLE
8
BLACK
10
5.3099999999999996
20
-4.3200000000000003
40
0.0078740157480315
0
CIRCLE
8
BLACK
10
6.5099999999999998
20
-4.25
40
0.0078740157480315
0
CIRCLE
8
BLACK
10
5.2299999999999995
20
-4.1600000000000001
40
0.0078740157480315
0
CIRCLE
8
BLACK
10
6.25
20
-4.1699999999999999
40
0.0078740157480315
0
CIRCLE
8
BLACK
10
6.1200000000000001
20
-4.04
40
0.0078740157480315
0
CIRCLE
8
BLACK
10
5.9100000000000001
20
-4.1299999999999999
40
0.0078740157480315
0
CIRCLE
8
BLACK
10
5.5499999999999998
20
-4.3300000000000001
40
0.0078740157480315
0
CIRCLE
8
BLACK
10
5.7400000000000002
20
-4.3300000000000001
40
0.0078740157480315
0
CIRCLE
8
BLACK
10
6.2999999999999998
20
-4.3300000000000001
40
0.0078740157480315
0
CIRCLE
8
BLACK
10
4.6100000000000003
20
-4.4100000000000001
40
0.0078740157480315
0
CIRCLE
8
BLACK
10
5.79
20
-4.1299999999999999
40
0.0078740157480315
0
CIRCLE
8
BLACK
10
5.25
20
-4.3600000000000003
40
0.0078740157480315
0
CIRCLE
8
BLACK
10
5.5499999999999998
20
-4.1299999999999999
40
0.0078740157480315
0
CIRCLE
8
BLACK
10
6.0899999999999999
20
-4.4199999999999999
40
0.0078740157480315
0
CIRCLE
8
BLACK
10
6.6299999999999999
20
-4.21
40
0.0078740157480315
0
CIRCLE
8
BLACK
10
6.4900000000000002
20
-4.3999999999999995
40
0.0078740157480315
0
CIRCLE
8
BLACK
10
5.6099999999999994
20
-4.1299999999999999
40
0.0078740157480315
0
CIRCLE
8
BLACK
10
5.1699999999999999
20
-4.1600000000000001
40
0.0078740157480315
0
CIRCLE
8
BLACK
10
5.6799999999999997
20
-4.4199999999999999
40
0.0078740157480315
0
CIRCLE
8
BLACK
10
6.54
20
-4.3600000000000003
40
0.0078740157480315
0
CIRCLE
8
BLACK
10
5.1399999999999997
20
-3.9299999999999997
40
0.0078740157480315
0
CIRCLE
8
BLACK
10
4.9399999999999995
20
-3.9399999999999999
40
0.0078740157480315
0
CIRCLE
8
BLACK
10
6.4900000000000002
20
-4.1399999999999997
40
0.0078740157480315
0
CIRCLE
8
BLACK
10
6.2999999999999998
20
-4.1299999999999999
40
0.0078740157480315
0
CIRCLE
8
BLACK
10
4.6100000000000003
20
-4.1699999999999999
40
0.0078740157480315
  0
ENDSEC
  0
EOF
