  0
SECTION
  2
HEADER
  9
$ANGBASE
  50
0.0
  9
$ANGDIR
  70
1
  9
$MEASUREMENT
  70
0
  0
ENDSEC
  0
SECTION
  2
TABLES
  0
TABLE
  2
LTYPE
  70
4
  0
LTYPE
  5
40F
  2
CONTINUOUS
  70
0
  3
Solid line
  72
65
  73
0
  40
0.0
  0
LTYPE
  5
410
  2
DASHDOT
 70
0
  3
Dash Dot ____ _ ____ _
 72
65
 73
4
 40
2.0
 49
1.25
 49
-0.25
 49
0.25
 49
-0.25
  0
LTYPE
  5
411
  2
DASHED
 70
0
  3
Dashed __ __ __ __ __
 72
65
 73
2
 40
0.75
 49
0.5
 49
-0.25
  0
LTYPE
  5
43B
  2
DOTTED
 70
0
  3
Dotted .  .  .  .
 72
65
 73
2
 40
0.2
 49
0.0
 49
-0.2
  0
ENDTAB
  0
TABLE
  2
STYLE
  70
4
  0
STYLE
  2
KICAD
  70
0
  40
0
  41
1
  42
1
  50
0
  71
0
  3
isocp.shx
  0
STYLE
  2
KICADB
  70
0
  40
0
  41
1
  42
1
  50
0
  71
0
  3
isocp.shx
  0
STYLE
  2
KICADI
  70
0
  40
0
  41
1
  42
1
  50
15
  71
0
  3
isocp.shx
  0
STYLE
  2
KICADBI
  70
0
  40
0
  41
1
  42
1
  50
15
  71
0
  3
isocp.shx
  0
ENDTAB
  0
TABLE
  2
LAYER
  70
1
  0
LAYER
  2
BLACK
  70
0
  62
7
  6
CONTINUOUS
  0
ENDTAB
  0
ENDSEC
  0
SECTION
  2
ENTITIES
0
LINE
8
BLACK
6
CONTINUOUS
10
6.8605760629921262
20
-3.9118283858267717
11
6.8616404724409445
21
-3.9122692913385824
0
LINE
8
BLACK
6
CONTINUOUS
10
6.8616404724409445
20
-3.9122692913385824
11
6.862455118110236
21
-3.9130839370078738
0
LINE
8
BLACK
6
CONTINUOUS
10
6.862455118110236
20
-3.9130839370078738
11
6.8628960236220466
21
-3.9141483464566926
0
LINE
8
BLACK
6
CONTINUOUS
10
6.8628960236220466
20
-3.9141483464566926
11
6.8629527559055115
21
-3.9147244094488189
0
LINE
8
BLACK
6
CONTINUOUS
10
6.8629527559055115
20
-3.9147244094488189
11
6.8629527559055115
21
-4.014724409448819
0
LINE
8
BLACK
6
CONTINUOUS
10
6.8629527559055115
20
-4.014724409448819
11
6.8629527559055115
21
-4.1147244094488187
0
LINE
8
BLACK
6
CONTINUOUS
10
6.8629527559055115
20
-4.1147244094488187
11
6.8629527559055115
21
-4.2147244094488192
0
LINE
8
BLACK
6
CONTINUOUS
10
6.8629527559055115
20
-4.2147244094488192
11
6.8629527559055115
21
-4.3147244094488189
0
LINE
8
BLACK
6
CONTINUOUS
10
6.8629527559055115
20
-4.3147244094488189
11
6.8629527559055115
21
-4.4147244094488185
0
LINE
8
BLACK
6
CONTINUOUS
10
6.8629527559055115
20
-4.4147244094488185
11
6.8628960236220466
21
-4.4153004724409444
0
LINE
8
BLACK
6
CONTINUOUS
10
6.8628960236220466
20
-4.4153004724409444
11
6.862455118110236
21
-4.4163648818897636
0
LINE
8
BLACK
6
CONTINUOUS
10
6.862455118110236
20
-4.4163648818897636
11
6.8616404724409445
21
-4.4171795275590551
0
LINE
8
BLACK
6
CONTINUOUS
10
6.8616404724409445
20
-4.4171795275590551
11
6.8605760629921262
21
-4.4176204330708657
0
LINE
8
BLACK
6
CONTINUOUS
10
6.8605760629921262
20
-4.4176204330708657
11
6.8599999999999994
21
-4.4176771653543305
0
LINE
8
BLACK
6
CONTINUOUS
10
6.8599999999999994
20
-4.4176771653543305
11
6.6600000000000001
21
-4.4176771653543305
0
LINE
8
BLACK
6
CONTINUOUS
10
6.6600000000000001
20
-4.4176771653543305
11
6.6594239370078743
21
-4.4176204330708657
0
LINE
8
BLACK
6
CONTINUOUS
10
6.6594239370078743
20
-4.4176204330708657
11
6.658359527559055
21
-4.4171795275590551
0
LINE
8
BLACK
6
CONTINUOUS
10
6.658359527559055
20
-4.4171795275590551
11
6.6575448818897636
21
-4.4163648818897636
0
LINE
8
BLACK
6
CONTINUOUS
10
6.6575448818897636
20
-4.4163648818897636
11
6.6571039763779529
21
-4.4153004724409444
0
LINE
8
BLACK
6
CONTINUOUS
10
6.6571039763779529
20
-4.4153004724409444
11
6.6570472440944881
21
-4.4147244094488185
0
LINE
8
BLACK
6
CONTINUOUS
10
6.6570472440944881
20
-4.4147244094488185
11
6.6570472440944881
21
-4.3147244094488189
0
LINE
8
BLACK
6
CONTINUOUS
10
6.6570472440944881
20
-4.3147244094488189
11
6.6570472440944881
21
-4.2147244094488192
0
LINE
8
BLACK
6
CONTINUOUS
10
6.6570472440944881
20
-4.2147244094488192
11
6.6570472440944881
21
-4.1147244094488187
0
LINE
8
BLACK
6
CONTINUOUS
10
6.6570472440944881
20
-4.1147244094488187
11
6.6570472440944881
21
-4.014724409448819
0
LINE
8
BLACK
6
CONTINUOUS
10
6.6570472440944881
20
-4.014724409448819
11
6.6570472440944881
21
-3.9147244094488189
0
LINE
8
BLACK
6
CONTINUOUS
10
6.6570472440944881
20
-3.9147244094488189
11
6.6571039763779529
21
-3.9141483464566926
0
LINE
8
BLACK
6
CONTINUOUS
10
6.6571039763779529
20
-3.9141483464566926
11
6.6575448818897636
21
-3.9130839370078738
0
LINE
8
BLACK
6
CONTINUOUS
10
6.6575448818897636
20
-3.9130839370078738
11
6.658359527559055
21
-3.9122692913385824
0
LINE
8
BLACK
6
CONTINUOUS
10
6.658359527559055
20
-3.9122692913385824
11
6.6594239370078743
21
-3.9118283858267717
0
LINE
8
BLACK
6
CONTINUOUS
10
6.6594239370078743
20
-3.9118283858267717
11
6.6600000000000001
21
-3.9117716535433069
0
LINE
8
BLACK
6
CONTINUOUS
10
6.6600000000000001
20
-3.9117716535433069
11
6.8599999999999994
21
-3.9117716535433069
0
LINE
8
BLACK
6
CONTINUOUS
10
6.8599999999999994
20
-3.9117716535433069
11
6.8605760629921262
21
-3.9118283858267717
0
LINE
8
BLACK
6
CONTINUOUS
10
6.6629527559055113
20
-4.3176771653543309
11
6.6629527559055113
21
-4.4117716535433074
0
LINE
8
BLACK
6
CONTINUOUS
10
6.6629527559055113
20
-4.4117716535433074
11
6.8570472440944883
21
-4.4117716535433074
0
LINE
8
BLACK
6
CONTINUOUS
10
6.8570472440944883
20
-4.4117716535433074
11
6.8570472440944883
21
-4.3176771653543309
0
LINE
8
BLACK
6
CONTINUOUS
10
6.8570472440944883
20
-4.3176771653543309
11
6.6629527559055113
21
-4.3176771653543309
0
LINE
8
BLACK
6
CONTINUOUS
10
6.6629527559055113
20
-4.2176771653543303
11
6.6629527559055113
21
-4.3117716535433068
0
LINE
8
BLACK
6
CONTINUOUS
10
6.6629527559055113
20
-4.3117716535433068
11
6.8570472440944883
21
-4.3117716535433068
0
LINE
8
BLACK
6
CONTINUOUS
10
6.8570472440944883
20
-4.3117716535433068
11
6.8570472440944883
21
-4.2176771653543303
0
LINE
8
BLACK
6
CONTINUOUS
10
6.8570472440944883
20
-4.2176771653543303
11
6.6629527559055113
21
-4.2176771653543303
0
LINE
8
BLACK
6
CONTINUOUS
10
6.6629527559055113
20
-4.1176771653543307
11
6.6629527559055113
21
-4.2117716535433072
0
LINE
8
BLACK
6
CONTINUOUS
10
6.6629527559055113
20
-4.2117716535433072
11
6.8570472440944883
21
-4.2117716535433072
0
LINE
8
BLACK
6
CONTINUOUS
10
6.8570472440944883
20
-4.2117716535433072
11
6.8570472440944883
21
-4.1176771653543307
0
LINE
8
BLACK
6
CONTINUOUS
10
6.8570472440944883
20
-4.1176771653543307
11
6.6629527559055113
21
-4.1176771653543307
0
LINE
8
BLACK
6
CONTINUOUS
10
6.6629527559055113
20
-4.0176771653543311
11
6.6629527559055113
21
-4.1117716535433066
0
LINE
8
BLACK
6
CONTINUOUS
10
6.6629527559055113
20
-4.1117716535433066
11
6.8570472440944883
21
-4.1117716535433066
0
LINE
8
BLACK
6
CONTINUOUS
10
6.8570472440944883
20
-4.1117716535433066
11
6.8570472440944883
21
-4.0176771653543311
0
LINE
8
BLACK
6
CONTINUOUS
10
6.8570472440944883
20
-4.0176771653543311
11
6.6629527559055113
21
-4.0176771653543311
0
LINE
8
BLACK
6
CONTINUOUS
10
6.6629527559055113
20
-3.9176771653543305
11
6.6629527559055113
21
-4.011771653543307
0
LINE
8
BLACK
6
CONTINUOUS
10
6.6629527559055113
20
-4.011771653543307
11
6.8570472440944883
21
-4.011771653543307
0
LINE
8
BLACK
6
CONTINUOUS
10
6.8570472440944883
20
-4.011771653543307
11
6.8570472440944883
21
-3.9176771653543305
0
LINE
8
BLACK
6
CONTINUOUS
10
6.8570472440944883
20
-3.9176771653543305
11
6.6629527559055113
21
-3.9176771653543305
0
LINE
8
BLACK
6
CONTINUOUS
10
4.7309562992125986
20
-4.187888622047244
11
4.7351984645669294
21
-4.1903378346456694
0
LINE
8
BLACK
6
CONTINUOUS
10
4.7351984645669294
20
-4.1903378346456694
11
4.7386621653543308
21
-4.1938015354330709
0
LINE
8
BLACK
6
CONTINUOUS
10
4.7386621653543308
20
-4.1938015354330709
11
4.7411113779527554
21
-4.1980437007874016
0
LINE
8
BLACK
6
CONTINUOUS
10
4.7411113779527554
20
-4.1980437007874016
11
4.7423792125984248
21
-4.2027751968503937
0
LINE
8
BLACK
6
CONTINUOUS
10
4.7423792125984248
20
-4.2027751968503937
11
4.7423792125984248
21
-4.2076736220472437
0
LINE
8
BLACK
6
CONTINUOUS
10
4.7423792125984248
20
-4.2076736220472437
11
4.7411113779527554
21
-4.2124051181102358
0
LINE
8
BLACK
6
CONTINUOUS
10
4.7411113779527554
20
-4.2124051181102358
11
4.7386621653543308
21
-4.2166472834645665
0
LINE
8
BLACK
6
CONTINUOUS
10
4.7386621653543308
20
-4.2166472834645665
11
4.7351984645669294
21
-4.2201109842519688
0
LINE
8
BLACK
6
CONTINUOUS
10
4.7351984645669294
20
-4.2201109842519688
11
4.7309562992125986
21
-4.2225601968503934
0
LINE
8
BLACK
6
CONTINUOUS
10
4.7309562992125986
20
-4.2225601968503934
11
4.7262248031496066
21
-4.2238280314960628
0
LINE
8
BLACK
6
CONTINUOUS
10
4.7262248031496066
20
-4.2238280314960628
11
4.7213263779527557
21
-4.2238280314960628
0
LINE
8
BLACK
6
CONTINUOUS
10
4.7213263779527557
20
-4.2238280314960628
11
4.7165948818897636
21
-4.2225601968503934
0
LINE
8
BLACK
6
CONTINUOUS
10
4.7165948818897636
20
-4.2225601968503934
11
4.7123527165354329
21
-4.2201109842519688
0
LINE
8
BLACK
6
CONTINUOUS
10
4.7123527165354329
20
-4.2201109842519688
11
4.7088890157480314
21
-4.2166472834645665
0
LINE
8
BLACK
6
CONTINUOUS
10
4.7088890157480314
20
-4.2166472834645665
11
4.706439803149606
21
-4.2124051181102358
0
LINE
8
BLACK
6
CONTINUOUS
10
4.706439803149606
20
-4.2124051181102358
11
4.7051719685039366
21
-4.2076736220472437
0
LINE
8
BLACK
6
CONTINUOUS
10
4.7051719685039366
20
-4.2076736220472437
11
4.7051719685039366
21
-4.2035315354330711
0
LINE
8
BLACK
6
CONTINUOUS
10
4.7051719685039366
20
-4.2035315354330711
11
4.7051719685039366
21
-4.2027751968503937
0
LINE
8
BLACK
6
CONTINUOUS
10
4.7051719685039366
20
-4.2027751968503937
11
4.706439803149606
21
-4.1980437007874016
0
LINE
8
BLACK
6
CONTINUOUS
10
4.706439803149606
20
-4.1980437007874016
11
4.7088890157480314
21
-4.1938015354330709
0
LINE
8
BLACK
6
CONTINUOUS
10
4.7088890157480314
20
-4.1938015354330709
11
4.7123527165354329
21
-4.1903378346456694
0
LINE
8
BLACK
6
CONTINUOUS
10
4.7123527165354329
20
-4.1903378346456694
11
4.7165948818897636
21
-4.187888622047244
0
LINE
8
BLACK
6
CONTINUOUS
10
4.7165948818897636
20
-4.187888622047244
11
4.7213263779527557
21
-4.1866207874015746
0
LINE
8
BLACK
6
CONTINUOUS
10
4.7213263779527557
20
-4.1866207874015746
11
4.7262248031496066
21
-4.1866207874015746
0
LINE
8
BLACK
6
CONTINUOUS
10
4.7262248031496066
20
-4.1866207874015746
11
4.7309562992125986
21
-4.187888622047244
0
LINE
8
BLACK
6
CONTINUOUS
10
4.7109169685039367
20
-4.2069172834645672
11
4.7117932677165353
21
-4.2101876377952756
0
LINE
8
BLACK
6
CONTINUOUS
10
4.7117932677165353
20
-4.2101876377952756
11
4.7134861417322833
21
-4.2131197637795275
0
LINE
8
BLACK
6
CONTINUOUS
10
4.7134861417322833
20
-4.2131197637795275
11
4.7158802362204719
21
-4.2155138582677161
0
LINE
8
BLACK
6
CONTINUOUS
10
4.7158802362204719
20
-4.2155138582677161
11
4.7188123622047247
21
-4.2172067322834641
0
LINE
8
BLACK
6
CONTINUOUS
10
4.7188123622047247
20
-4.2172067322834641
11
4.7220827165354331
21
-4.2180830314960627
0
LINE
8
BLACK
6
CONTINUOUS
10
4.7220827165354331
20
-4.2180830314960627
11
4.7254684645669291
21
-4.2180830314960627
0
LINE
8
BLACK
6
CONTINUOUS
10
4.7254684645669291
20
-4.2180830314960627
11
4.7287388188976376
21
-4.2172067322834641
0
LINE
8
BLACK
6
CONTINUOUS
10
4.7287388188976376
20
-4.2172067322834641
11
4.7316709448818894
21
-4.2155138582677161
0
LINE
8
BLACK
6
CONTINUOUS
10
4.7316709448818894
20
-4.2155138582677161
11
4.7340650393700789
21
-4.2131197637795275
0
LINE
8
BLACK
6
CONTINUOUS
10
4.7340650393700789
20
-4.2131197637795275
11
4.735757913385827
21
-4.2101876377952756
0
LINE
8
BLACK
6
CONTINUOUS
10
4.735757913385827
20
-4.2101876377952756
11
4.7366342125984247
21
-4.2069172834645672
0
LINE
8
BLACK
6
CONTINUOUS
10
4.7366342125984247
20
-4.2069172834645672
11
4.7366342125984247
21
-4.2035315354330711
0
LINE
8
BLACK
6
CONTINUOUS
10
4.7366342125984247
20
-4.2035315354330711
11
4.735757913385827
21
-4.2002611811023618
0
LINE
8
BLACK
6
CONTINUOUS
10
4.735757913385827
20
-4.2002611811023618
11
4.7340650393700789
21
-4.1973290551181099
0
LINE
8
BLACK
6
CONTINUOUS
10
4.7340650393700789
20
-4.1973290551181099
11
4.7316709448818894
21
-4.1949349606299213
0
LINE
8
BLACK
6
CONTINUOUS
10
4.7316709448818894
20
-4.1949349606299213
11
4.7287388188976376
21
-4.1932420866141733
0
LINE
8
BLACK
6
CONTINUOUS
10
4.7287388188976376
20
-4.1932420866141733
11
4.7254684645669291
21
-4.1923657874015747
0
LINE
8
BLACK
6
CONTINUOUS
10
4.7254684645669291
20
-4.1923657874015747
11
4.7220827165354331
21
-4.1923657874015747
0
LINE
8
BLACK
6
CONTINUOUS
10
4.7220827165354331
20
-4.1923657874015747
11
4.7188123622047247
21
-4.1932420866141733
0
LINE
8
BLACK
6
CONTINUOUS
10
4.7188123622047247
20
-4.1932420866141733
11
4.7158802362204719
21
-4.1949349606299213
0
LINE
8
BLACK
6
CONTINUOUS
10
4.7158802362204719
20
-4.1949349606299213
11
4.7134861417322833
21
-4.1973290551181099
0
LINE
8
BLACK
6
CONTINUOUS
10
4.7134861417322833
20
-4.1973290551181099
11
4.7117932677165353
21
-4.2002611811023618
0
LINE
8
BLACK
6
CONTINUOUS
10
4.7117932677165353
20
-4.2002611811023618
11
4.7109169685039367
21
-4.2035315354330711
0
LINE
8
BLACK
6
CONTINUOUS
10
4.7109169685039367
20
-4.2035315354330711
11
4.7109169685039367
21
-4.2069172834645672
0
LINE
8
BLACK
6
CONTINUOUS
10
4.8056816141732286
20
-4.1341420866141734
11
4.8064962598425192
21
-4.1349567322834648
0
LINE
8
BLACK
6
CONTINUOUS
10
4.8064962598425192
20
-4.1349567322834648
11
4.8069371653543307
21
-4.1360211417322832
0
LINE
8
BLACK
6
CONTINUOUS
10
4.8069371653543307
20
-4.1360211417322832
11
4.8069938976377955
21
-4.1365972047244091
0
LINE
8
BLACK
6
CONTINUOUS
10
4.8069938976377955
20
-4.1365972047244091
11
4.8069938976377955
21
-4.1677711417322838
0
LINE
8
BLACK
6
CONTINUOUS
10
4.8069938976377955
20
-4.1677711417322838
11
4.8083426377952758
21
-4.1704686220472436
0
LINE
8
BLACK
6
CONTINUOUS
10
4.8083426377952758
20
-4.1704686220472436
11
4.8095397637795276
21
-4.171665787401575
0
LINE
8
BLACK
6
CONTINUOUS
10
4.8095397637795276
20
-4.171665787401575
11
4.8122372440944883
21
-4.1730145275590553
0
LINE
8
BLACK
6
CONTINUOUS
10
4.8122372440944883
20
-4.1730145275590553
11
4.8183422047244093
21
-4.1730145275590553
0
LINE
8
BLACK
6
CONTINUOUS
10
4.8183422047244093
20
-4.1730145275590553
11
4.8210396456692912
21
-4.171665787401575
0
LINE
8
BLACK
6
CONTINUOUS
10
4.8210396456692912
20
-4.171665787401575
11
4.822236771653543
21
-4.1704686220472436
0
LINE
8
BLACK
6
CONTINUOUS
10
4.822236771653543
20
-4.1704686220472436
11
4.8235855511811021
21
-4.1677711417322838
0
LINE
8
BLACK
6
CONTINUOUS
10
4.8235855511811021
20
-4.1677711417322838
11
4.8235855511811021
21
-4.1365972047244091
0
LINE
8
BLACK
6
CONTINUOUS
10
4.8235855511811021
20
-4.1365972047244091
11
4.8236422834645669
21
-4.1360211417322832
0
LINE
8
BLACK
6
CONTINUOUS
10
4.8236422834645669
20
-4.1360211417322832
11
4.8240831889763776
21
-4.1349567322834648
0
LINE
8
BLACK
6
CONTINUOUS
10
4.8240831889763776
20
-4.1349567322834648
11
4.824897834645669
21
-4.1341420866141734
0
LINE
8
BLACK
6
CONTINUOUS
10
4.824897834645669
20
-4.1341420866141734
11
4.8259622440944883
21
-4.1337011811023618
0
LINE
8
BLACK
6
CONTINUOUS
10
4.8259622440944883
20
-4.1337011811023618
11
4.82711437007874
21
-4.1337011811023618
0
LINE
8
BLACK
6
CONTINUOUS
10
4.82711437007874
20
-4.1337011811023618
11
4.8281787795275593
21
-4.1341420866141734
0
LINE
8
BLACK
6
CONTINUOUS
10
4.8281787795275593
20
-4.1341420866141734
11
4.8289934251968507
21
-4.1349567322834648
0
LINE
8
BLACK
6
CONTINUOUS
10
4.8289934251968507
20
-4.1349567322834648
11
4.8294343307086613
21
-4.1360211417322832
0
LINE
8
BLACK
6
CONTINUOUS
10
4.8294343307086613
20
-4.1360211417322832
11
4.8294910629921262
21
-4.1365972047244091
0
LINE
8
BLACK
6
CONTINUOUS
10
4.8294910629921262
20
-4.1365972047244091
11
4.8294910629921262
21
-4.1684681889763775
0
LINE
8
BLACK
6
CONTINUOUS
10
4.8294910629921262
20
-4.1684681889763775
11
4.8294343307086613
21
-4.1690442519685043
0
LINE
8
BLACK
6
CONTINUOUS
10
4.8294343307086613
20
-4.1690442519685043
11
4.8293937401574798
21
-4.1691422047244098
0
LINE
8
BLACK
6
CONTINUOUS
10
4.8293937401574798
20
-4.1691422047244098
11
4.8293862204724407
21
-4.1692481102362207
0
LINE
8
BLACK
6
CONTINUOUS
10
4.8293862204724407
20
-4.1692481102362207
11
4.8291793307086612
21
-4.169788700787401
0
LINE
8
BLACK
6
CONTINUOUS
10
4.8291793307086612
20
-4.169788700787401
11
4.8273045669291337
21
-4.1735382283464562
0
LINE
8
BLACK
6
CONTINUOUS
10
4.8273045669291337
20
-4.1735382283464562
11
4.8271485039370079
21
-4.1737861023622047
0
LINE
8
BLACK
6
CONTINUOUS
10
4.8271485039370079
20
-4.1737861023622047
11
4.8271187007874019
21
-4.173858149606299
0
LINE
8
BLACK
6
CONTINUOUS
10
4.8271187007874019
20
-4.173858149606299
11
4.8270521653543303
21
-4.1739391732283462
0
LINE
8
BLACK
6
CONTINUOUS
10
4.8270521653543303
20
-4.1739391732283462
11
4.8269962204724406
21
-4.17402811023622
0
LINE
8
BLACK
6
CONTINUOUS
10
4.8269962204724406
20
-4.17402811023622
11
4.826937204724409
21
-4.1740792519685037
0
LINE
8
BLACK
6
CONTINUOUS
10
4.826937204724409
20
-4.1740792519685037
11
4.8267514566929135
21
-4.1743056299212595
0
LINE
8
BLACK
6
CONTINUOUS
10
4.8267514566929135
20
-4.1743056299212595
11
4.8248767322834647
21
-4.1761803937007871
0
LINE
8
BLACK
6
CONTINUOUS
10
4.8248767322834647
20
-4.1761803937007871
11
4.8246503543307089
21
-4.1763661417322835
0
LINE
8
BLACK
6
CONTINUOUS
10
4.8246503543307089
20
-4.1763661417322835
11
4.8245991732283464
21
-4.1764251968503938
0
LINE
8
BLACK
6
CONTINUOUS
10
4.8245991732283464
20
-4.1764251968503938
11
4.8245101968503938
21
-4.1764811811023623
0
LINE
8
BLACK
6
CONTINUOUS
10
4.8245101968503938
20
-4.1764811811023623
11
4.8244292519685041
21
-4.1765476377952755
0
LINE
8
BLACK
6
CONTINUOUS
10
4.8244292519685041
20
-4.1765476377952755
11
4.8243572834645665
21
-4.1765774409448815
0
LINE
8
BLACK
6
CONTINUOUS
10
4.8243572834645665
20
-4.1765774409448815
11
4.8241092913385826
21
-4.1767335433070869
0
LINE
8
BLACK
6
CONTINUOUS
10
4.8241092913385826
20
-4.1767335433070869
11
4.8203597637795275
21
-4.1786083070866145
0
LINE
8
BLACK
6
CONTINUOUS
10
4.8203597637795275
20
-4.1786083070866145
11
4.8198191338582674
21
-4.1788151968503939
0
LINE
8
BLACK
6
CONTINUOUS
10
4.8198191338582674
20
-4.1788151968503939
11
4.8197133070866141
21
-4.1788226771653543
0
LINE
8
BLACK
6
CONTINUOUS
10
4.8197133070866141
20
-4.1788226771653543
11
4.8196153149606298
21
-4.1788633070866137
0
LINE
8
BLACK
6
CONTINUOUS
10
4.8196153149606298
20
-4.1788633070866137
11
4.8190392519685039
21
-4.1789200393700785
0
LINE
8
BLACK
6
CONTINUOUS
10
4.8190392519685039
20
-4.1789200393700785
11
4.8115401968503937
21
-4.1789200393700785
0
LINE
8
BLACK
6
CONTINUOUS
10
4.8115401968503937
20
-4.1789200393700785
11
4.8109641338582678
21
-4.1788633070866137
0
LINE
8
BLACK
6
CONTINUOUS
10
4.8109641338582678
20
-4.1788633070866137
11
4.8108661417322836
21
-4.178822716535433
0
LINE
8
BLACK
6
CONTINUOUS
10
4.8108661417322836
20
-4.178822716535433
11
4.8107602755905514
21
-4.1788151968503939
0
LINE
8
BLACK
6
CONTINUOUS
10
4.8107602755905514
20
-4.1788151968503939
11
4.8102196850393701
21
-4.1786083070866145
0
LINE
8
BLACK
6
CONTINUOUS
10
4.8102196850393701
20
-4.1786083070866145
11
4.806470157480315
21
-4.1767335433070869
0
LINE
8
BLACK
6
CONTINUOUS
10
4.806470157480315
20
-4.1767335433070869
11
4.8062221259842515
21
-4.1765774409448815
0
LINE
8
BLACK
6
CONTINUOUS
10
4.8062221259842515
20
-4.1765774409448815
11
4.8061501968503935
21
-4.1765476377952755
0
LINE
8
BLACK
6
CONTINUOUS
10
4.8061501968503935
20
-4.1765476377952755
11
4.806069212598425
21
-4.1764811811023623
0
LINE
8
BLACK
6
CONTINUOUS
10
4.806069212598425
20
-4.1764811811023623
11
4.8059802755905512
21
-4.1764251968503938
0
LINE
8
BLACK
6
CONTINUOUS
10
4.8059802755905512
20
-4.1764251968503938
11
4.80592905511811
21
-4.1763661417322835
0
LINE
8
BLACK
6
CONTINUOUS
10
4.80592905511811
20
-4.1763661417322835
11
4.8057027165354329
21
-4.1761803937007871
0
LINE
8
BLACK
6
CONTINUOUS
10
4.8057027165354329
20
-4.1761803937007871
11
4.8038279527559054
21
-4.1743055905511808
0
LINE
8
BLACK
6
CONTINUOUS
10
4.8038279527559054
20
-4.1743055905511808
11
4.8036422047244089
21
-4.1740792519685037
0
LINE
8
BLACK
6
CONTINUOUS
10
4.8036422047244089
20
-4.1740792519685037
11
4.803583228346457
21
-4.17402811023622
0
LINE
8
BLACK
6
CONTINUOUS
10
4.803583228346457
20
-4.17402811023622
11
4.8035272440944885
21
-4.1739391732283462
0
LINE
8
BLACK
6
CONTINUOUS
10
4.8035272440944885
20
-4.1739391732283462
11
4.8034607480314957
21
-4.173858149606299
0
LINE
8
BLACK
6
CONTINUOUS
10
4.8034607480314957
20
-4.173858149606299
11
4.803430905511811
21
-4.1737861023622047
0
LINE
8
BLACK
6
CONTINUOUS
10
4.803430905511811
20
-4.1737861023622047
11
4.8032748818897639
21
-4.1735382283464562
0
LINE
8
BLACK
6
CONTINUOUS
10
4.8032748818897639
20
-4.1735382283464562
11
4.8014001181102364
21
-4.169788700787401
0
LINE
8
BLACK
6
CONTINUOUS
10
4.8014001181102364
20
-4.169788700787401
11
4.8011932283464569
21
-4.1692480708661419
0
LINE
8
BLACK
6
CONTINUOUS
10
4.8011932283464569
20
-4.1692480708661419
11
4.8011857086614169
21
-4.1691422440944885
0
LINE
8
BLACK
6
CONTINUOUS
10
4.8011857086614169
20
-4.1691422440944885
11
4.8011451181102363
21
-4.1690442519685043
0
LINE
8
BLACK
6
CONTINUOUS
10
4.8011451181102363
20
-4.1690442519685043
11
4.8010883858267714
21
-4.1684681889763775
0
LINE
8
BLACK
6
CONTINUOUS
10
4.8010883858267714
20
-4.1684681889763775
11
4.8010883858267714
21
-4.1365972047244091
0
LINE
8
BLACK
6
CONTINUOUS
10
4.8010883858267714
20
-4.1365972047244091
11
4.8011451181102363
21
-4.1360211417322832
0
LINE
8
BLACK
6
CONTINUOUS
10
4.8011451181102363
20
-4.1360211417322832
11
4.8015860236220469
21
-4.1349567322834648
0
LINE
8
BLACK
6
CONTINUOUS
10
4.8015860236220469
20
-4.1349567322834648
11
4.8024006692913384
21
-4.1341420866141734
0
LINE
8
BLACK
6
CONTINUOUS
10
4.8024006692913384
20
-4.1341420866141734
11
4.8034650787401576
21
-4.1337011811023618
0
LINE
8
BLACK
6
CONTINUOUS
10
4.8034650787401576
20
-4.1337011811023618
11
4.8046172047244093
21
-4.1337011811023618
0
LINE
8
BLACK
6
CONTINUOUS
10
4.8046172047244093
20
-4.1337011811023618
11
4.8056816141732286
21
-4.1341420866141734
0
LINE
8
BLACK
6
CONTINUOUS
10
4.8549434645669294
20
-4.1337011811023618
11
4.8552358661417321
21
-4.1337011811023618
0
LINE
8
BLACK
6
CONTINUOUS
10
4.8552358661417321
20
-4.1337011811023618
11
4.8555031102362207
21
-4.1338118897637797
0
LINE
8
BLACK
6
CONTINUOUS
10
4.8555031102362207
20
-4.1338118897637797
11
4.855786929133858
21
-4.1338680314960632
0
LINE
8
BLACK
6
CONTINUOUS
10
4.855786929133858
20
-4.1338680314960632
11
4.8560301968503934
21
-4.1340301968503939
0
LINE
8
BLACK
6
CONTINUOUS
10
4.8560301968503934
20
-4.1340301968503939
11
4.8563002755905513
21
-4.1341420866141734
0
LINE
8
BLACK
6
CONTINUOUS
10
4.8563002755905513
20
-4.1341420866141734
11
4.856504724409449
21
-4.1343465354330711
0
LINE
8
BLACK
6
CONTINUOUS
10
4.856504724409449
20
-4.1343465354330711
11
4.8567455511811026
21
-4.1345070866141729
0
LINE
8
BLACK
6
CONTINUOUS
10
4.8567455511811026
20
-4.1345070866141729
11
4.8569082677165349
21
-4.134750078740157
0
LINE
8
BLACK
6
CONTINUOUS
10
4.8569082677165349
20
-4.134750078740157
11
4.8571149212598428
21
-4.1349567322834648
0
LINE
8
BLACK
6
CONTINUOUS
10
4.8571149212598428
20
-4.1349567322834648
11
4.857225590551181
21
-4.1352239370078738
0
LINE
8
BLACK
6
CONTINUOUS
10
4.857225590551181
20
-4.1352239370078738
11
4.8573866141732278
21
-4.1354643700787399
0
LINE
8
BLACK
6
CONTINUOUS
10
4.8573866141732278
20
-4.1354643700787399
11
4.8574439370078739
21
-4.1357510236220474
0
LINE
8
BLACK
6
CONTINUOUS
10
4.8574439370078739
20
-4.1357510236220474
11
4.8575558267716534
21
-4.1360211417322832
0
LINE
8
BLACK
6
CONTINUOUS
10
4.8575558267716534
20
-4.1360211417322832
11
4.8576119291338582
21
-4.1365910629921263
0
LINE
8
BLACK
6
CONTINUOUS
10
4.8576119291338582
20
-4.1365910629921263
11
4.8576125590551182
21
-4.1365940944881885
0
LINE
8
BLACK
6
CONTINUOUS
10
4.8576125590551182
20
-4.1365940944881885
11
4.8576123228346457
21
-4.1365951181102361
0
LINE
8
BLACK
6
CONTINUOUS
10
4.8576123228346457
20
-4.1365951181102361
11
4.8576125590551182
21
-4.1365972047244091
0
LINE
8
BLACK
6
CONTINUOUS
10
4.8576125590551182
20
-4.1365972047244091
11
4.8576125590551182
21
-4.1730145275590553
0
LINE
8
BLACK
6
CONTINUOUS
10
4.8576125590551182
20
-4.1730145275590553
11
4.8659083858267715
21
-4.1730145275590553
0
LINE
8
BLACK
6
CONTINUOUS
10
4.8659083858267715
20
-4.1730145275590553
11
4.8664844488188974
21
-4.1730712598425193
0
LINE
8
BLACK
6
CONTINUOUS
10
4.8664844488188974
20
-4.1730712598425193
11
4.8675488582677167
21
-4.1735121653543308
0
LINE
8
BLACK
6
CONTINUOUS
10
4.8675488582677167
20
-4.1735121653543308
11
4.8683635039370081
21
-4.1743268110236222
0
LINE
8
BLACK
6
CONTINUOUS
10
4.8683635039370081
20
-4.1743268110236222
11
4.8688044094488188
21
-4.1753912204724406
0
LINE
8
BLACK
6
CONTINUOUS
10
4.8688044094488188
20
-4.1753912204724406
11
4.8688044094488188
21
-4.1765433464566932
0
LINE
8
BLACK
6
CONTINUOUS
10
4.8688044094488188
20
-4.1765433464566932
11
4.8683635039370081
21
-4.1776077559055116
0
LINE
8
BLACK
6
CONTINUOUS
10
4.8683635039370081
20
-4.1776077559055116
11
4.8675488582677167
21
-4.178422401574803
0
LINE
8
BLACK
6
CONTINUOUS
10
4.8675488582677167
20
-4.178422401574803
11
4.8664844488188974
21
-4.1788633070866137
0
LINE
8
BLACK
6
CONTINUOUS
10
4.8664844488188974
20
-4.1788633070866137
11
4.8659083858267715
21
-4.1789200393700785
0
LINE
8
BLACK
6
CONTINUOUS
10
4.8659083858267715
20
-4.1789200393700785
11
4.8434112204724409
21
-4.1789200393700785
0
LINE
8
BLACK
6
CONTINUOUS
10
4.8434112204724409
20
-4.1789200393700785
11
4.842835157480315
21
-4.1788633070866137
0
LINE
8
BLACK
6
CONTINUOUS
10
4.842835157480315
20
-4.1788633070866137
11
4.8417707480314958
21
-4.178422401574803
0
LINE
8
BLACK
6
CONTINUOUS
10
4.8417707480314958
20
-4.178422401574803
11
4.8409561023622043
21
-4.1776077559055116
0
LINE
8
BLACK
6
CONTINUOUS
10
4.8409561023622043
20
-4.1776077559055116
11
4.8405151968503937
21
-4.1765433464566932
0
LINE
8
BLACK
6
CONTINUOUS
10
4.8405151968503937
20
-4.1765433464566932
11
4.8405151968503937
21
-4.1753912204724406
0
LINE
8
BLACK
6
CONTINUOUS
10
4.8405151968503937
20
-4.1753912204724406
11
4.8409561023622043
21
-4.1743268110236222
0
LINE
8
BLACK
6
CONTINUOUS
10
4.8409561023622043
20
-4.1743268110236222
11
4.8417707480314958
21
-4.1735121653543308
0
LINE
8
BLACK
6
CONTINUOUS
10
4.8417707480314958
20
-4.1735121653543308
11
4.842835157480315
21
-4.1730712598425193
0
LINE
8
BLACK
6
CONTINUOUS
10
4.842835157480315
20
-4.1730712598425193
11
4.8434112204724409
21
-4.1730145275590553
0
LINE
8
BLACK
6
CONTINUOUS
10
4.8434112204724409
20
-4.1730145275590553
11
4.8517070472440942
21
-4.1730145275590553
0
LINE
8
BLACK
6
CONTINUOUS
10
4.8517070472440942
20
-4.1730145275590553
11
4.8517070472440942
21
-4.1456005511811025
0
LINE
8
BLACK
6
CONTINUOUS
10
4.8517070472440942
20
-4.1456005511811025
11
4.8492486614173229
21
-4.1480589370078738
0
LINE
8
BLACK
6
CONTINUOUS
10
4.8492486614173229
20
-4.1480589370078738
11
4.8490222834645671
21
-4.1482446850393702
0
LINE
8
BLACK
6
CONTINUOUS
10
4.8490222834645671
20
-4.1482446850393702
11
4.8489711417322834
21
-4.1483037007874017
0
LINE
8
BLACK
6
CONTINUOUS
10
4.8489711417322834
20
-4.1483037007874017
11
4.8488821653543308
21
-4.1483596456692915
0
LINE
8
BLACK
6
CONTINUOUS
10
4.8488821653543308
20
-4.1483596456692915
11
4.8488012204724411
21
-4.1484261417322834
0
LINE
8
BLACK
6
CONTINUOUS
10
4.8488012204724411
20
-4.1484261417322834
11
4.8487292519685035
21
-4.1484559448818894
0
LINE
8
BLACK
6
CONTINUOUS
10
4.8487292519685035
20
-4.1484559448818894
11
4.8484812598425195
21
-4.1486120472440948
0
LINE
8
BLACK
6
CONTINUOUS
10
4.8484812598425195
20
-4.1486120472440948
11
4.8447317322834644
21
-4.1504868110236224
0
LINE
8
BLACK
6
CONTINUOUS
10
4.8447317322834644
20
-4.1504868110236224
11
4.8441911023622044
21
-4.1506937007874019
0
LINE
8
BLACK
6
CONTINUOUS
10
4.8441911023622044
20
-4.1506937007874019
11
4.8430418897637795
21
-4.1507753543307082
0
LINE
8
BLACK
6
CONTINUOUS
10
4.8430418897637795
20
-4.1507753543307082
11
4.8419489370078743
21
-4.1504110236220475
0
LINE
8
BLACK
6
CONTINUOUS
10
4.8419489370078743
20
-4.1504110236220475
11
4.8410785433070869
21
-4.1496561811023618
0
LINE
8
BLACK
6
CONTINUOUS
10
4.8410785433070869
20
-4.1496561811023618
11
4.8405633070866143
21
-4.1486256692913388
0
LINE
8
BLACK
6
CONTINUOUS
10
4.8405633070866143
20
-4.1486256692913388
11
4.8404816535433071
21
-4.147476456692913
0
LINE
8
BLACK
6
CONTINUOUS
10
4.8404816535433071
20
-4.147476456692913
11
4.8408459842519687
21
-4.1463835039370078
0
LINE
8
BLACK
6
CONTINUOUS
10
4.8408459842519687
20
-4.1463835039370078
11
4.8416008267716535
21
-4.1455131102362204
0
LINE
8
BLACK
6
CONTINUOUS
10
4.8416008267716535
20
-4.1455131102362204
11
4.8420907086614173
21
-4.1452047637795273
0
LINE
8
BLACK
6
CONTINUOUS
10
4.8420907086614173
20
-4.1452047637795273
11
4.8454116535433069
21
-4.1435442913385829
0
LINE
8
BLACK
6
CONTINUOUS
10
4.8454116535433069
20
-4.1435442913385829
11
4.8486155511811022
21
-4.1403403937007877
0
LINE
8
BLACK
6
CONTINUOUS
10
4.8486155511811022
20
-4.1403403937007877
11
4.8522029527559054
21
-4.1349592913385829
0
LINE
8
BLACK
6
CONTINUOUS
10
4.8522029527559054
20
-4.1349592913385829
11
4.852204291338583
21
-4.1349575984251965
0
LINE
8
BLACK
6
CONTINUOUS
10
4.852204291338583
20
-4.1349575984251965
11
4.8522046850393696
21
-4.1349567322834648
0
LINE
8
BLACK
6
CONTINUOUS
10
4.8522046850393696
20
-4.1349567322834648
11
4.852206692913386
21
-4.1349546850393697
0
LINE
8
BLACK
6
CONTINUOUS
10
4.852206692913386
20
-4.1349546850393697
11
4.8525697244094488
21
-4.1345114566929135
0
LINE
8
BLACK
6
CONTINUOUS
10
4.8525697244094488
20
-4.1345114566929135
11
4.8528125984251966
21
-4.1343487795275591
0
LINE
8
BLACK
6
CONTINUOUS
10
4.8528125984251966
20
-4.1343487795275591
11
4.8530193307086611
21
-4.1341420866141734
0
LINE
8
BLACK
6
CONTINUOUS
10
4.8530193307086611
20
-4.1341420866141734
11
4.8532866141732285
21
-4.1340313385826768
0
LINE
8
BLACK
6
CONTINUOUS
10
4.8532866141732285
20
-4.1340313385826768
11
4.8535270078740158
21
-4.1338703937007875
0
LINE
8
BLACK
6
CONTINUOUS
10
4.8535270078740158
20
-4.1338703937007875
11
4.8538136220472436
21
-4.1338130314960626
0
LINE
8
BLACK
6
CONTINUOUS
10
4.8538136220472436
20
-4.1338130314960626
11
4.8540837401574803
21
-4.1337011811023618
0
LINE
8
BLACK
6
CONTINUOUS
10
4.8540837401574803
20
-4.1337011811023618
11
4.8543730314960625
21
-4.1337011811023618
0
LINE
8
BLACK
6
CONTINUOUS
10
4.8543730314960625
20
-4.1337011811023618
11
4.8546566929133856
21
-4.1336444488188979
0
LINE
8
BLACK
6
CONTINUOUS
10
4.8546566929133856
20
-4.1336444488188979
11
4.8549434645669294
21
-4.1337011811023618
0
LINE
8
BLACK
6
CONTINUOUS
10
4.9736469291338583
20
-4.0240331102362203
11
4.9747113385826767
21
-4.024474015748031
0
LINE
8
BLACK
6
CONTINUOUS
10
4.9747113385826767
20
-4.024474015748031
11
4.9755259842519681
21
-4.0252886614173224
0
LINE
8
BLACK
6
CONTINUOUS
10
4.9755259842519681
20
-4.0252886614173224
11
4.9759668897637797
21
-4.0263530708661417
0
LINE
8
BLACK
6
CONTINUOUS
10
4.9759668897637797
20
-4.0263530708661417
11
4.9760236220472436
21
-4.0269291338582676
0
LINE
8
BLACK
6
CONTINUOUS
10
4.9760236220472436
20
-4.0269291338582676
11
4.9760236220472436
21
-4.3025196850393703
0
LINE
8
BLACK
6
CONTINUOUS
10
4.9760236220472436
20
-4.3025196850393703
11
4.9759668897637797
21
-4.3030957480314962
0
LINE
8
BLACK
6
CONTINUOUS
10
4.9759668897637797
20
-4.3030957480314962
11
4.9755259842519681
21
-4.3041601574803146
0
LINE
8
BLACK
6
CONTINUOUS
10
4.9755259842519681
20
-4.3041601574803146
11
4.9747113385826767
21
-4.304974803149606
0
LINE
8
BLACK
6
CONTINUOUS
10
4.9747113385826767
20
-4.304974803149606
11
4.9736469291338583
21
-4.3054157086614175
0
LINE
8
BLACK
6
CONTINUOUS
10
4.9736469291338583
20
-4.3054157086614175
11
4.9730708661417324
21
-4.3054724409448815
0
LINE
8
BLACK
6
CONTINUOUS
10
4.9730708661417324
20
-4.3054724409448815
11
4.6974803149606297
21
-4.3054724409448815
0
LINE
8
BLACK
6
CONTINUOUS
10
4.6974803149606297
20
-4.3054724409448815
11
4.6969042519685038
21
-4.3054157086614175
0
LINE
8
BLACK
6
CONTINUOUS
10
4.6969042519685038
20
-4.3054157086614175
11
4.6958398425196846
21
-4.304974803149606
0
LINE
8
BLACK
6
CONTINUOUS
10
4.6958398425196846
20
-4.304974803149606
11
4.695025196850394
21
-4.3041601574803146
0
LINE
8
BLACK
6
CONTINUOUS
10
4.695025196850394
20
-4.3041601574803146
11
4.6945842913385825
21
-4.3030957480314962
0
LINE
8
BLACK
6
CONTINUOUS
10
4.6945842913385825
20
-4.3030957480314962
11
4.6945275590551176
21
-4.3025196850393703
0
LINE
8
BLACK
6
CONTINUOUS
10
4.6945275590551176
20
-4.3025196850393703
11
4.6945275590551176
21
-4.0269291338582676
0
LINE
8
BLACK
6
CONTINUOUS
10
4.6945275590551176
20
-4.0269291338582676
11
4.6945842913385825
21
-4.0263530708661417
0
LINE
8
BLACK
6
CONTINUOUS
10
4.6945842913385825
20
-4.0263530708661417
11
4.695025196850394
21
-4.0252886614173224
0
LINE
8
BLACK
6
CONTINUOUS
10
4.695025196850394
20
-4.0252886614173224
11
4.6958398425196846
21
-4.024474015748031
0
LINE
8
BLACK
6
CONTINUOUS
10
4.6958398425196846
20
-4.024474015748031
11
4.6969042519685038
21
-4.0240331102362203
0
LINE
8
BLACK
6
CONTINUOUS
10
4.6969042519685038
20
-4.0240331102362203
11
4.6974803149606297
21
-4.0239763779527555
0
LINE
8
BLACK
6
CONTINUOUS
10
4.6974803149606297
20
-4.0239763779527555
11
4.9730708661417324
21
-4.0239763779527555
0
LINE
8
BLACK
6
CONTINUOUS
10
4.9730708661417324
20
-4.0239763779527555
11
4.9736469291338583
21
-4.0240331102362203
0
LINE
8
BLACK
6
CONTINUOUS
10
4.7004330708661417
20
-4.0298818897637796
11
4.7004330708661417
21
-4.2995669291338583
0
LINE
8
BLACK
6
CONTINUOUS
10
4.7004330708661417
20
-4.2995669291338583
11
4.9701181102362204
21
-4.2995669291338583
0
LINE
8
BLACK
6
CONTINUOUS
10
4.9701181102362204
20
-4.2995669291338583
11
4.9701181102362204
21
-4.0298818897637796
0
LINE
8
BLACK
6
CONTINUOUS
10
4.9701181102362204
20
-4.0298818897637796
11
4.7004330708661417
21
-4.0298818897637796
0
CIRCLE
8
BLACK
10
6.71
20
-4.1647244094488185
40
0.0068897637795276
0
CIRCLE
8
BLACK
10
6.8099999999999996
20
-4.1647244094488185
40
0.0068897637795276
0
CIRCLE
8
BLACK
10
6.71
20
-3.9647244094488188
40
0.0068897637795276
0
CIRCLE
8
BLACK
10
6.8099999999999996
20
-3.9647244094488188
40
0.0068897637795276
0
CIRCLE
8
BLACK
10
6.71
20
-4.0647244094488189
40
0.0068897637795276
0
CIRCLE
8
BLACK
10
6.8099999999999996
20
-4.0647244094488189
40
0.0068897637795276
0
CIRCLE
8
BLACK
10
6.71
20
-4.264724409448819
40
0.0068897637795276
0
CIRCLE
8
BLACK
10
6.8099999999999996
20
-4.264724409448819
40
0.0068897637795276
0
CIRCLE
8
BLACK
10
6.71
20
-4.3647244094488187
40
0.0068897637795276
0
CIRCLE
8
BLACK
10
6.8099999999999996
20
-4.3647244094488187
40
0.0068897637795276
  0
ENDSEC
  0
EOF
