  0
SECTION
  2
HEADER
  9
$ANGBASE
  50
0.0
  9
$ANGDIR
  70
1
  9
$MEASUREMENT
  70
0
  0
ENDSEC
  0
SECTION
  2
TABLES
  0
TABLE
  2
LTYPE
  70
4
  0
LTYPE
  5
40F
  2
CONTINUOUS
  70
0
  3
Solid line
  72
65
  73
0
  40
0.0
  0
LTYPE
  5
410
  2
DASHDOT
 70
0
  3
Dash Dot ____ _ ____ _
 72
65
 73
4
 40
2.0
 49
1.25
 49
-0.25
 49
0.25
 49
-0.25
  0
LTYPE
  5
411
  2
DASHED
 70
0
  3
Dashed __ __ __ __ __
 72
65
 73
2
 40
0.75
 49
0.5
 49
-0.25
  0
LTYPE
  5
43B
  2
DOTTED
 70
0
  3
Dotted .  .  .  .
 72
65
 73
2
 40
0.2
 49
0.0
 49
-0.2
  0
ENDTAB
  0
TABLE
  2
STYLE
  70
4
  0
STYLE
  2
KICAD
  70
0
  40
0
  41
1
  42
1
  50
0
  71
0
  3
isocp.shx
  0
STYLE
  2
KICADB
  70
0
  40
0
  41
1
  42
1
  50
0
  71
0
  3
isocp.shx
  0
STYLE
  2
KICADI
  70
0
  40
0
  41
1
  42
1
  50
15
  71
0
  3
isocp.shx
  0
STYLE
  2
KICADBI
  70
0
  40
0
  41
1
  42
1
  50
15
  71
0
  3
isocp.shx
  0
ENDTAB
  0
TABLE
  2
LAYER
  70
1
  0
LAYER
  2
BLACK
  70
0
  62
7
  6
CONTINUOUS
  0
ENDTAB
  0
ENDSEC
  0
SECTION
  2
ENTITIES
0
LINE
8
BLACK
6
CONTINUOUS
10
0.131483
20
0.0835028
11
0.134676
21
0.0813692
0
LINE
8
BLACK
6
CONTINUOUS
10
0.134676
20
0.0813692
11
0.13681
21
0.078176
0
LINE
8
BLACK
6
CONTINUOUS
10
0.13681
20
0.078176
11
0.137559
21
0.0744094
0
LINE
8
BLACK
6
CONTINUOUS
10
0.137559
20
0.0744094
11
0.137559
21
0.0537402
0
LINE
8
BLACK
6
CONTINUOUS
10
0.137559
20
0.0537402
11
0.13681
21
0.0499736
0
LINE
8
BLACK
6
CONTINUOUS
10
0.13681
20
0.0499736
11
0.134676
21
0.0467804
0
LINE
8
BLACK
6
CONTINUOUS
10
0.134676
20
0.0467804
11
0.131483
21
0.0446469
0
LINE
8
BLACK
6
CONTINUOUS
10
0.131483
20
0.0446469
11
0.127717
21
0.0438976
0
LINE
8
BLACK
6
CONTINUOUS
10
0.127717
20
0.0438976
11
0.0922835
21
0.0438976
0
LINE
8
BLACK
6
CONTINUOUS
10
0.0922835
20
0.0438976
11
0.0885169
21
0.0446469
0
LINE
8
BLACK
6
CONTINUOUS
10
0.0885169
20
0.0446469
11
0.0853237
21
0.0467804
0
LINE
8
BLACK
6
CONTINUOUS
10
0.0853237
20
0.0467804
11
0.0831902
21
0.0499736
0
LINE
8
BLACK
6
CONTINUOUS
10
0.0831902
20
0.0499736
11
0.0824409
21
0.0537402
0
LINE
8
BLACK
6
CONTINUOUS
10
0.0824409
20
0.0537402
11
0.0824409
21
0.0744094
0
LINE
8
BLACK
6
CONTINUOUS
10
0.0824409
20
0.0744094
11
0.0831902
21
0.078176
0
LINE
8
BLACK
6
CONTINUOUS
10
0.0831902
20
0.078176
11
0.0853237
21
0.0813692
0
LINE
8
BLACK
6
CONTINUOUS
10
0.0853237
20
0.0813692
11
0.0885169
21
0.0835028
0
LINE
8
BLACK
6
CONTINUOUS
10
0.0885169
20
0.0835028
11
0.0922835
21
0.084252
0
LINE
8
BLACK
6
CONTINUOUS
10
0.0922835
20
0.084252
11
0.127717
21
0.084252
0
LINE
8
BLACK
6
CONTINUOUS
10
0.127717
20
0.084252
11
0.131483
21
0.0835028
0
LINE
8
BLACK
6
CONTINUOUS
10
0.231483
20
0.0835028
11
0.234676
21
0.0813692
0
LINE
8
BLACK
6
CONTINUOUS
10
0.234676
20
0.0813692
11
0.23681
21
0.078176
0
LINE
8
BLACK
6
CONTINUOUS
10
0.23681
20
0.078176
11
0.237559
21
0.0744094
0
LINE
8
BLACK
6
CONTINUOUS
10
0.237559
20
0.0744094
11
0.237559
21
0.0537402
0
LINE
8
BLACK
6
CONTINUOUS
10
0.237559
20
0.0537402
11
0.23681
21
0.0499736
0
LINE
8
BLACK
6
CONTINUOUS
10
0.23681
20
0.0499736
11
0.234676
21
0.0467804
0
LINE
8
BLACK
6
CONTINUOUS
10
0.234676
20
0.0467804
11
0.231483
21
0.0446469
0
LINE
8
BLACK
6
CONTINUOUS
10
0.231483
20
0.0446469
11
0.227717
21
0.0438976
0
LINE
8
BLACK
6
CONTINUOUS
10
0.227717
20
0.0438976
11
0.192283
21
0.0438976
0
LINE
8
BLACK
6
CONTINUOUS
10
0.192283
20
0.0438976
11
0.188517
21
0.0446469
0
LINE
8
BLACK
6
CONTINUOUS
10
0.188517
20
0.0446469
11
0.185324
21
0.0467804
0
LINE
8
BLACK
6
CONTINUOUS
10
0.185324
20
0.0467804
11
0.18319
21
0.0499736
0
LINE
8
BLACK
6
CONTINUOUS
10
0.18319
20
0.0499736
11
0.182441
21
0.0537402
0
LINE
8
BLACK
6
CONTINUOUS
10
0.182441
20
0.0537402
11
0.182441
21
0.0744094
0
LINE
8
BLACK
6
CONTINUOUS
10
0.182441
20
0.0744094
11
0.18319
21
0.078176
0
LINE
8
BLACK
6
CONTINUOUS
10
0.18319
20
0.078176
11
0.185324
21
0.0813692
0
LINE
8
BLACK
6
CONTINUOUS
10
0.185324
20
0.0813692
11
0.188517
21
0.0835028
0
LINE
8
BLACK
6
CONTINUOUS
10
0.188517
20
0.0835028
11
0.192283
21
0.084252
0
LINE
8
BLACK
6
CONTINUOUS
10
0.192283
20
0.084252
11
0.227717
21
0.084252
0
LINE
8
BLACK
6
CONTINUOUS
10
0.227717
20
0.084252
11
0.231483
21
0.0835028
0
LINE
8
BLACK
6
CONTINUOUS
10
1.56318
20
0.105786
11
1.56637
21
0.103653
0
LINE
8
BLACK
6
CONTINUOUS
10
1.56637
20
0.103653
11
1.5685
21
0.100459
0
LINE
8
BLACK
6
CONTINUOUS
10
1.5685
20
0.100459
11
1.56925
21
0.0966929
0
LINE
8
BLACK
6
CONTINUOUS
10
1.56925
20
0.0966929
11
1.56925
21
0.0612598
0
LINE
8
BLACK
6
CONTINUOUS
10
1.56925
20
0.0612598
11
1.5685
21
0.0574933
0
LINE
8
BLACK
6
CONTINUOUS
10
1.5685
20
0.0574933
11
1.56637
21
0.0543001
0
LINE
8
BLACK
6
CONTINUOUS
10
1.56637
20
0.0543001
11
1.56318
21
0.0521665
0
LINE
8
BLACK
6
CONTINUOUS
10
1.56318
20
0.0521665
11
1.55941
21
0.0514173
0
LINE
8
BLACK
6
CONTINUOUS
10
1.55941
20
0.0514173
11
1.53874
21
0.0514173
0
LINE
8
BLACK
6
CONTINUOUS
10
1.53874
20
0.0514173
11
1.53497
21
0.0521665
0
LINE
8
BLACK
6
CONTINUOUS
10
1.53497
20
0.0521665
11
1.53178
21
0.0543001
0
LINE
8
BLACK
6
CONTINUOUS
10
1.53178
20
0.0543001
11
1.52965
21
0.0574933
0
LINE
8
BLACK
6
CONTINUOUS
10
1.52965
20
0.0574933
11
1.5289
21
0.0612598
0
LINE
8
BLACK
6
CONTINUOUS
10
1.5289
20
0.0612598
11
1.5289
21
0.0966929
0
LINE
8
BLACK
6
CONTINUOUS
10
1.5289
20
0.0966929
11
1.52965
21
0.100459
0
LINE
8
BLACK
6
CONTINUOUS
10
1.52965
20
0.100459
11
1.53178
21
0.103653
0
LINE
8
BLACK
6
CONTINUOUS
10
1.53178
20
0.103653
11
1.53497
21
0.105786
0
LINE
8
BLACK
6
CONTINUOUS
10
1.53497
20
0.105786
11
1.53874
21
0.106535
0
LINE
8
BLACK
6
CONTINUOUS
10
1.53874
20
0.106535
11
1.55941
21
0.106535
0
LINE
8
BLACK
6
CONTINUOUS
10
1.55941
20
0.106535
11
1.56318
21
0.105786
0
LINE
8
BLACK
6
CONTINUOUS
10
1.49133
20
0.105786
11
1.49452
21
0.103653
0
LINE
8
BLACK
6
CONTINUOUS
10
1.49452
20
0.103653
11
1.49665
21
0.100459
0
LINE
8
BLACK
6
CONTINUOUS
10
1.49665
20
0.100459
11
1.4974
21
0.0966929
0
LINE
8
BLACK
6
CONTINUOUS
10
1.4974
20
0.0966929
11
1.4974
21
0.0612598
0
LINE
8
BLACK
6
CONTINUOUS
10
1.4974
20
0.0612598
11
1.49665
21
0.0574933
0
LINE
8
BLACK
6
CONTINUOUS
10
1.49665
20
0.0574933
11
1.49452
21
0.0543001
0
LINE
8
BLACK
6
CONTINUOUS
10
1.49452
20
0.0543001
11
1.49133
21
0.0521665
0
LINE
8
BLACK
6
CONTINUOUS
10
1.49133
20
0.0521665
11
1.48756
21
0.0514173
0
LINE
8
BLACK
6
CONTINUOUS
10
1.48756
20
0.0514173
11
1.46689
21
0.0514173
0
LINE
8
BLACK
6
CONTINUOUS
10
1.46689
20
0.0514173
11
1.46312
21
0.0521665
0
LINE
8
BLACK
6
CONTINUOUS
10
1.46312
20
0.0521665
11
1.45993
21
0.0543001
0
LINE
8
BLACK
6
CONTINUOUS
10
1.45993
20
0.0543001
11
1.4578
21
0.0574933
0
LINE
8
BLACK
6
CONTINUOUS
10
1.4578
20
0.0574933
11
1.45705
21
0.0612598
0
LINE
8
BLACK
6
CONTINUOUS
10
1.45705
20
0.0612598
11
1.45705
21
0.0966929
0
LINE
8
BLACK
6
CONTINUOUS
10
1.45705
20
0.0966929
11
1.4578
21
0.100459
0
LINE
8
BLACK
6
CONTINUOUS
10
1.4578
20
0.100459
11
1.45993
21
0.103653
0
LINE
8
BLACK
6
CONTINUOUS
10
1.45993
20
0.103653
11
1.46312
21
0.105786
0
LINE
8
BLACK
6
CONTINUOUS
10
1.46312
20
0.105786
11
1.46689
21
0.106535
0
LINE
8
BLACK
6
CONTINUOUS
10
1.46689
20
0.106535
11
1.48756
21
0.106535
0
LINE
8
BLACK
6
CONTINUOUS
10
1.48756
20
0.106535
11
1.49133
21
0.105786
0
LINE
8
BLACK
6
CONTINUOUS
10
0.521483
20
0.0935028
11
0.524676
21
0.0913692
0
LINE
8
BLACK
6
CONTINUOUS
10
0.524676
20
0.0913692
11
0.52681
21
0.088176
0
LINE
8
BLACK
6
CONTINUOUS
10
0.52681
20
0.088176
11
0.527559
21
0.0844094
0
LINE
8
BLACK
6
CONTINUOUS
10
0.527559
20
0.0844094
11
0.527559
21
0.0637402
0
LINE
8
BLACK
6
CONTINUOUS
10
0.527559
20
0.0637402
11
0.52681
21
0.0599736
0
LINE
8
BLACK
6
CONTINUOUS
10
0.52681
20
0.0599736
11
0.524676
21
0.0567804
0
LINE
8
BLACK
6
CONTINUOUS
10
0.524676
20
0.0567804
11
0.521483
21
0.0546469
0
LINE
8
BLACK
6
CONTINUOUS
10
0.521483
20
0.0546469
11
0.517717
21
0.0538976
0
LINE
8
BLACK
6
CONTINUOUS
10
0.517717
20
0.0538976
11
0.482283
21
0.0538976
0
LINE
8
BLACK
6
CONTINUOUS
10
0.482283
20
0.0538976
11
0.478517
21
0.0546469
0
LINE
8
BLACK
6
CONTINUOUS
10
0.478517
20
0.0546469
11
0.475324
21
0.0567804
0
LINE
8
BLACK
6
CONTINUOUS
10
0.475324
20
0.0567804
11
0.47319
21
0.0599736
0
LINE
8
BLACK
6
CONTINUOUS
10
0.47319
20
0.0599736
11
0.472441
21
0.0637402
0
LINE
8
BLACK
6
CONTINUOUS
10
0.472441
20
0.0637402
11
0.472441
21
0.0844094
0
LINE
8
BLACK
6
CONTINUOUS
10
0.472441
20
0.0844094
11
0.47319
21
0.088176
0
LINE
8
BLACK
6
CONTINUOUS
10
0.47319
20
0.088176
11
0.475324
21
0.0913692
0
LINE
8
BLACK
6
CONTINUOUS
10
0.475324
20
0.0913692
11
0.478517
21
0.0935028
0
LINE
8
BLACK
6
CONTINUOUS
10
0.478517
20
0.0935028
11
0.482283
21
0.094252
0
LINE
8
BLACK
6
CONTINUOUS
10
0.482283
20
0.094252
11
0.517717
21
0.094252
0
LINE
8
BLACK
6
CONTINUOUS
10
0.517717
20
0.094252
11
0.521483
21
0.0935028
0
LINE
8
BLACK
6
CONTINUOUS
10
2.39
20
0.07
11
2.33
21
0.07
0
LINE
8
BLACK
6
CONTINUOUS
10
2.33
20
0.07
11
2.33
21
0.13
0
LINE
8
BLACK
6
CONTINUOUS
10
2.33
20
0.13
11
2.39
21
0.13
0
LINE
8
BLACK
6
CONTINUOUS
10
2.39
20
0.13
11
2.39
21
0.07
0
LINE
8
BLACK
6
CONTINUOUS
10
2.29
20
0.07
11
2.23
21
0.07
0
LINE
8
BLACK
6
CONTINUOUS
10
2.23
20
0.07
11
2.23
21
0.13
0
LINE
8
BLACK
6
CONTINUOUS
10
2.23
20
0.13
11
2.29
21
0.13
0
LINE
8
BLACK
6
CONTINUOUS
10
2.29
20
0.13
11
2.29
21
0.07
0
LINE
8
BLACK
6
CONTINUOUS
10
1.43719
20
0.121534
11
1.44038
21
0.119401
0
LINE
8
BLACK
6
CONTINUOUS
10
1.44038
20
0.119401
11
1.44252
21
0.116208
0
LINE
8
BLACK
6
CONTINUOUS
10
1.44252
20
0.116208
11
1.44327
21
0.112441
0
LINE
8
BLACK
6
CONTINUOUS
10
1.44327
20
0.112441
11
1.44327
21
0.0927559
0
LINE
8
BLACK
6
CONTINUOUS
10
1.44327
20
0.0927559
11
1.44252
21
0.0889893
0
LINE
8
BLACK
6
CONTINUOUS
10
1.44252
20
0.0889893
11
1.44038
21
0.0857962
0
LINE
8
BLACK
6
CONTINUOUS
10
1.44038
20
0.0857962
11
1.43719
21
0.0836626
0
LINE
8
BLACK
6
CONTINUOUS
10
1.43719
20
0.0836626
11
1.43343
21
0.0829134
0
LINE
8
BLACK
6
CONTINUOUS
10
1.43343
20
0.0829134
11
1.39602
21
0.0829134
0
LINE
8
BLACK
6
CONTINUOUS
10
1.39602
20
0.0829134
11
1.39226
21
0.0836626
0
LINE
8
BLACK
6
CONTINUOUS
10
1.39226
20
0.0836626
11
1.38906
21
0.0857962
0
LINE
8
BLACK
6
CONTINUOUS
10
1.38906
20
0.0857962
11
1.38693
21
0.0889893
0
LINE
8
BLACK
6
CONTINUOUS
10
1.38693
20
0.0889893
11
1.38618
21
0.0927559
0
LINE
8
BLACK
6
CONTINUOUS
10
1.38618
20
0.0927559
11
1.38618
21
0.112441
0
LINE
8
BLACK
6
CONTINUOUS
10
1.38618
20
0.112441
11
1.38693
21
0.116208
0
LINE
8
BLACK
6
CONTINUOUS
10
1.38693
20
0.116208
11
1.38906
21
0.119401
0
LINE
8
BLACK
6
CONTINUOUS
10
1.38906
20
0.119401
11
1.39226
21
0.121534
0
LINE
8
BLACK
6
CONTINUOUS
10
1.39226
20
0.121534
11
1.39602
21
0.122283
0
LINE
8
BLACK
6
CONTINUOUS
10
1.39602
20
0.122283
11
1.43343
21
0.122283
0
LINE
8
BLACK
6
CONTINUOUS
10
1.43343
20
0.122283
11
1.43719
21
0.121534
0
LINE
8
BLACK
6
CONTINUOUS
10
0.231483
20
0.155353
11
0.234676
21
0.15322
0
LINE
8
BLACK
6
CONTINUOUS
10
0.234676
20
0.15322
11
0.23681
21
0.150026
0
LINE
8
BLACK
6
CONTINUOUS
10
0.23681
20
0.150026
11
0.237559
21
0.14626
0
LINE
8
BLACK
6
CONTINUOUS
10
0.237559
20
0.14626
11
0.237559
21
0.125591
0
LINE
8
BLACK
6
CONTINUOUS
10
0.237559
20
0.125591
11
0.23681
21
0.121824
0
LINE
8
BLACK
6
CONTINUOUS
10
0.23681
20
0.121824
11
0.234676
21
0.118631
0
LINE
8
BLACK
6
CONTINUOUS
10
0.234676
20
0.118631
11
0.231483
21
0.116497
0
LINE
8
BLACK
6
CONTINUOUS
10
0.231483
20
0.116497
11
0.227717
21
0.115748
0
LINE
8
BLACK
6
CONTINUOUS
10
0.227717
20
0.115748
11
0.192283
21
0.115748
0
LINE
8
BLACK
6
CONTINUOUS
10
0.192283
20
0.115748
11
0.188517
21
0.116497
0
LINE
8
BLACK
6
CONTINUOUS
10
0.188517
20
0.116497
11
0.185324
21
0.118631
0
LINE
8
BLACK
6
CONTINUOUS
10
0.185324
20
0.118631
11
0.18319
21
0.121824
0
LINE
8
BLACK
6
CONTINUOUS
10
0.18319
20
0.121824
11
0.182441
21
0.125591
0
LINE
8
BLACK
6
CONTINUOUS
10
0.182441
20
0.125591
11
0.182441
21
0.14626
0
LINE
8
BLACK
6
CONTINUOUS
10
0.182441
20
0.14626
11
0.18319
21
0.150026
0
LINE
8
BLACK
6
CONTINUOUS
10
0.18319
20
0.150026
11
0.185324
21
0.15322
0
LINE
8
BLACK
6
CONTINUOUS
10
0.185324
20
0.15322
11
0.188517
21
0.155353
0
LINE
8
BLACK
6
CONTINUOUS
10
0.188517
20
0.155353
11
0.192283
21
0.156102
0
LINE
8
BLACK
6
CONTINUOUS
10
0.192283
20
0.156102
11
0.227717
21
0.156102
0
LINE
8
BLACK
6
CONTINUOUS
10
0.227717
20
0.156102
11
0.231483
21
0.155353
0
LINE
8
BLACK
6
CONTINUOUS
10
0.131483
20
0.155353
11
0.134676
21
0.15322
0
LINE
8
BLACK
6
CONTINUOUS
10
0.134676
20
0.15322
11
0.13681
21
0.150026
0
LINE
8
BLACK
6
CONTINUOUS
10
0.13681
20
0.150026
11
0.137559
21
0.14626
0
LINE
8
BLACK
6
CONTINUOUS
10
0.137559
20
0.14626
11
0.137559
21
0.125591
0
LINE
8
BLACK
6
CONTINUOUS
10
0.137559
20
0.125591
11
0.13681
21
0.121824
0
LINE
8
BLACK
6
CONTINUOUS
10
0.13681
20
0.121824
11
0.134676
21
0.118631
0
LINE
8
BLACK
6
CONTINUOUS
10
0.134676
20
0.118631
11
0.131483
21
0.116497
0
LINE
8
BLACK
6
CONTINUOUS
10
0.131483
20
0.116497
11
0.127717
21
0.115748
0
LINE
8
BLACK
6
CONTINUOUS
10
0.127717
20
0.115748
11
0.0922835
21
0.115748
0
LINE
8
BLACK
6
CONTINUOUS
10
0.0922835
20
0.115748
11
0.0885169
21
0.116497
0
LINE
8
BLACK
6
CONTINUOUS
10
0.0885169
20
0.116497
11
0.0853237
21
0.118631
0
LINE
8
BLACK
6
CONTINUOUS
10
0.0853237
20
0.118631
11
0.0831902
21
0.121824
0
LINE
8
BLACK
6
CONTINUOUS
10
0.0831902
20
0.121824
11
0.0824409
21
0.125591
0
LINE
8
BLACK
6
CONTINUOUS
10
0.0824409
20
0.125591
11
0.0824409
21
0.14626
0
LINE
8
BLACK
6
CONTINUOUS
10
0.0824409
20
0.14626
11
0.0831902
21
0.150026
0
LINE
8
BLACK
6
CONTINUOUS
10
0.0831902
20
0.150026
11
0.0853237
21
0.15322
0
LINE
8
BLACK
6
CONTINUOUS
10
0.0853237
20
0.15322
11
0.0885169
21
0.155353
0
LINE
8
BLACK
6
CONTINUOUS
10
0.0885169
20
0.155353
11
0.0922835
21
0.156102
0
LINE
8
BLACK
6
CONTINUOUS
10
0.0922835
20
0.156102
11
0.127717
21
0.156102
0
LINE
8
BLACK
6
CONTINUOUS
10
0.127717
20
0.156102
11
0.131483
21
0.155353
0
LINE
8
BLACK
6
CONTINUOUS
10
1.14192
20
0.158936
11
1.14511
21
0.156802
0
LINE
8
BLACK
6
CONTINUOUS
10
1.14511
20
0.156802
11
1.14724
21
0.153609
0
LINE
8
BLACK
6
CONTINUOUS
10
1.14724
20
0.153609
11
1.14799
21
0.149843
0
LINE
8
BLACK
6
CONTINUOUS
10
1.14799
20
0.149843
11
1.14799
21
0.130157
0
LINE
8
BLACK
6
CONTINUOUS
10
1.14799
20
0.130157
11
1.14724
21
0.126391
0
LINE
8
BLACK
6
CONTINUOUS
10
1.14724
20
0.126391
11
1.14511
21
0.123198
0
LINE
8
BLACK
6
CONTINUOUS
10
1.14511
20
0.123198
11
1.14192
21
0.121064
0
LINE
8
BLACK
6
CONTINUOUS
10
1.14192
20
0.121064
11
1.13815
21
0.120315
0
LINE
8
BLACK
6
CONTINUOUS
10
1.13815
20
0.120315
11
1.10075
21
0.120315
0
LINE
8
BLACK
6
CONTINUOUS
10
1.10075
20
0.120315
11
1.09698
21
0.121064
0
LINE
8
BLACK
6
CONTINUOUS
10
1.09698
20
0.121064
11
1.09379
21
0.123198
0
LINE
8
BLACK
6
CONTINUOUS
10
1.09379
20
0.123198
11
1.09165
21
0.126391
0
LINE
8
BLACK
6
CONTINUOUS
10
1.09165
20
0.126391
11
1.09091
21
0.130157
0
LINE
8
BLACK
6
CONTINUOUS
10
1.09091
20
0.130157
11
1.09091
21
0.149843
0
LINE
8
BLACK
6
CONTINUOUS
10
1.09091
20
0.149843
11
1.09165
21
0.153609
0
LINE
8
BLACK
6
CONTINUOUS
10
1.09165
20
0.153609
11
1.09379
21
0.156802
0
LINE
8
BLACK
6
CONTINUOUS
10
1.09379
20
0.156802
11
1.09698
21
0.158936
0
LINE
8
BLACK
6
CONTINUOUS
10
1.09698
20
0.158936
11
1.10075
21
0.159685
0
LINE
8
BLACK
6
CONTINUOUS
10
1.10075
20
0.159685
11
1.13815
21
0.159685
0
LINE
8
BLACK
6
CONTINUOUS
10
1.13815
20
0.159685
11
1.14192
21
0.158936
0
LINE
8
BLACK
6
CONTINUOUS
10
1.62814
20
0.158936
11
1.63133
21
0.156802
0
LINE
8
BLACK
6
CONTINUOUS
10
1.63133
20
0.156802
11
1.63346
21
0.153609
0
LINE
8
BLACK
6
CONTINUOUS
10
1.63346
20
0.153609
11
1.63421
21
0.149843
0
LINE
8
BLACK
6
CONTINUOUS
10
1.63421
20
0.149843
11
1.63421
21
0.130157
0
LINE
8
BLACK
6
CONTINUOUS
10
1.63421
20
0.130157
11
1.63346
21
0.126391
0
LINE
8
BLACK
6
CONTINUOUS
10
1.63346
20
0.126391
11
1.63133
21
0.123198
0
LINE
8
BLACK
6
CONTINUOUS
10
1.63133
20
0.123198
11
1.62814
21
0.121064
0
LINE
8
BLACK
6
CONTINUOUS
10
1.62814
20
0.121064
11
1.62437
21
0.120315
0
LINE
8
BLACK
6
CONTINUOUS
10
1.62437
20
0.120315
11
1.58697
21
0.120315
0
LINE
8
BLACK
6
CONTINUOUS
10
1.58697
20
0.120315
11
1.5832
21
0.121064
0
LINE
8
BLACK
6
CONTINUOUS
10
1.5832
20
0.121064
11
1.58001
21
0.123198
0
LINE
8
BLACK
6
CONTINUOUS
10
1.58001
20
0.123198
11
1.57788
21
0.126391
0
LINE
8
BLACK
6
CONTINUOUS
10
1.57788
20
0.126391
11
1.57713
21
0.130157
0
LINE
8
BLACK
6
CONTINUOUS
10
1.57713
20
0.130157
11
1.57713
21
0.149843
0
LINE
8
BLACK
6
CONTINUOUS
10
1.57713
20
0.149843
11
1.57788
21
0.153609
0
LINE
8
BLACK
6
CONTINUOUS
10
1.57788
20
0.153609
11
1.58001
21
0.156802
0
LINE
8
BLACK
6
CONTINUOUS
10
1.58001
20
0.156802
11
1.5832
21
0.158936
0
LINE
8
BLACK
6
CONTINUOUS
10
1.5832
20
0.158936
11
1.58697
21
0.159685
0
LINE
8
BLACK
6
CONTINUOUS
10
1.58697
20
0.159685
11
1.62437
21
0.159685
0
LINE
8
BLACK
6
CONTINUOUS
10
1.62437
20
0.159685
11
1.62814
21
0.158936
0
LINE
8
BLACK
6
CONTINUOUS
10
1.73247
20
0.158936
11
1.73566
21
0.156802
0
LINE
8
BLACK
6
CONTINUOUS
10
1.73566
20
0.156802
11
1.73779
21
0.153609
0
LINE
8
BLACK
6
CONTINUOUS
10
1.73779
20
0.153609
11
1.73854
21
0.149843
0
LINE
8
BLACK
6
CONTINUOUS
10
1.73854
20
0.149843
11
1.73854
21
0.130157
0
LINE
8
BLACK
6
CONTINUOUS
10
1.73854
20
0.130157
11
1.73779
21
0.126391
0
LINE
8
BLACK
6
CONTINUOUS
10
1.73779
20
0.126391
11
1.73566
21
0.123198
0
LINE
8
BLACK
6
CONTINUOUS
10
1.73566
20
0.123198
11
1.73247
21
0.121064
0
LINE
8
BLACK
6
CONTINUOUS
10
1.73247
20
0.121064
11
1.7287
21
0.120315
0
LINE
8
BLACK
6
CONTINUOUS
10
1.7287
20
0.120315
11
1.6913
21
0.120315
0
LINE
8
BLACK
6
CONTINUOUS
10
1.6913
20
0.120315
11
1.68753
21
0.121064
0
LINE
8
BLACK
6
CONTINUOUS
10
1.68753
20
0.121064
11
1.68434
21
0.123198
0
LINE
8
BLACK
6
CONTINUOUS
10
1.68434
20
0.123198
11
1.68221
21
0.126391
0
LINE
8
BLACK
6
CONTINUOUS
10
1.68221
20
0.126391
11
1.68146
21
0.130157
0
LINE
8
BLACK
6
CONTINUOUS
10
1.68146
20
0.130157
11
1.68146
21
0.149843
0
LINE
8
BLACK
6
CONTINUOUS
10
1.68146
20
0.149843
11
1.68221
21
0.153609
0
LINE
8
BLACK
6
CONTINUOUS
10
1.68221
20
0.153609
11
1.68434
21
0.156802
0
LINE
8
BLACK
6
CONTINUOUS
10
1.68434
20
0.156802
11
1.68753
21
0.158936
0
LINE
8
BLACK
6
CONTINUOUS
10
1.68753
20
0.158936
11
1.6913
21
0.159685
0
LINE
8
BLACK
6
CONTINUOUS
10
1.6913
20
0.159685
11
1.7287
21
0.159685
0
LINE
8
BLACK
6
CONTINUOUS
10
1.7287
20
0.159685
11
1.73247
21
0.158936
0
LINE
8
BLACK
6
CONTINUOUS
10
1.24034
20
0.158936
11
1.24353
21
0.156802
0
LINE
8
BLACK
6
CONTINUOUS
10
1.24353
20
0.156802
11
1.24567
21
0.153609
0
LINE
8
BLACK
6
CONTINUOUS
10
1.24567
20
0.153609
11
1.24642
21
0.149843
0
LINE
8
BLACK
6
CONTINUOUS
10
1.24642
20
0.149843
11
1.24642
21
0.130157
0
LINE
8
BLACK
6
CONTINUOUS
10
1.24642
20
0.130157
11
1.24567
21
0.126391
0
LINE
8
BLACK
6
CONTINUOUS
10
1.24567
20
0.126391
11
1.24353
21
0.123198
0
LINE
8
BLACK
6
CONTINUOUS
10
1.24353
20
0.123198
11
1.24034
21
0.121064
0
LINE
8
BLACK
6
CONTINUOUS
10
1.24034
20
0.121064
11
1.23657
21
0.120315
0
LINE
8
BLACK
6
CONTINUOUS
10
1.23657
20
0.120315
11
1.19917
21
0.120315
0
LINE
8
BLACK
6
CONTINUOUS
10
1.19917
20
0.120315
11
1.19541
21
0.121064
0
LINE
8
BLACK
6
CONTINUOUS
10
1.19541
20
0.121064
11
1.19221
21
0.123198
0
LINE
8
BLACK
6
CONTINUOUS
10
1.19221
20
0.123198
11
1.19008
21
0.126391
0
LINE
8
BLACK
6
CONTINUOUS
10
1.19008
20
0.126391
11
1.18933
21
0.130157
0
LINE
8
BLACK
6
CONTINUOUS
10
1.18933
20
0.130157
11
1.18933
21
0.149843
0
LINE
8
BLACK
6
CONTINUOUS
10
1.18933
20
0.149843
11
1.19008
21
0.153609
0
LINE
8
BLACK
6
CONTINUOUS
10
1.19008
20
0.153609
11
1.19221
21
0.156802
0
LINE
8
BLACK
6
CONTINUOUS
10
1.19221
20
0.156802
11
1.19541
21
0.158936
0
LINE
8
BLACK
6
CONTINUOUS
10
1.19541
20
0.158936
11
1.19917
21
0.159685
0
LINE
8
BLACK
6
CONTINUOUS
10
1.19917
20
0.159685
11
1.23657
21
0.159685
0
LINE
8
BLACK
6
CONTINUOUS
10
1.23657
20
0.159685
11
1.24034
21
0.158936
0
LINE
8
BLACK
6
CONTINUOUS
10
0.521483
20
0.165353
11
0.524676
21
0.16322
0
LINE
8
BLACK
6
CONTINUOUS
10
0.524676
20
0.16322
11
0.52681
21
0.160026
0
LINE
8
BLACK
6
CONTINUOUS
10
0.52681
20
0.160026
11
0.527559
21
0.15626
0
LINE
8
BLACK
6
CONTINUOUS
10
0.527559
20
0.15626
11
0.527559
21
0.135591
0
LINE
8
BLACK
6
CONTINUOUS
10
0.527559
20
0.135591
11
0.52681
21
0.131824
0
LINE
8
BLACK
6
CONTINUOUS
10
0.52681
20
0.131824
11
0.524676
21
0.128631
0
LINE
8
BLACK
6
CONTINUOUS
10
0.524676
20
0.128631
11
0.521483
21
0.126497
0
LINE
8
BLACK
6
CONTINUOUS
10
0.521483
20
0.126497
11
0.517717
21
0.125748
0
LINE
8
BLACK
6
CONTINUOUS
10
0.517717
20
0.125748
11
0.482283
21
0.125748
0
LINE
8
BLACK
6
CONTINUOUS
10
0.482283
20
0.125748
11
0.478517
21
0.126497
0
LINE
8
BLACK
6
CONTINUOUS
10
0.478517
20
0.126497
11
0.475324
21
0.128631
0
LINE
8
BLACK
6
CONTINUOUS
10
0.475324
20
0.128631
11
0.47319
21
0.131824
0
LINE
8
BLACK
6
CONTINUOUS
10
0.47319
20
0.131824
11
0.472441
21
0.135591
0
LINE
8
BLACK
6
CONTINUOUS
10
0.472441
20
0.135591
11
0.472441
21
0.15626
0
LINE
8
BLACK
6
CONTINUOUS
10
0.472441
20
0.15626
11
0.47319
21
0.160026
0
LINE
8
BLACK
6
CONTINUOUS
10
0.47319
20
0.160026
11
0.475324
21
0.16322
0
LINE
8
BLACK
6
CONTINUOUS
10
0.475324
20
0.16322
11
0.478517
21
0.165353
0
LINE
8
BLACK
6
CONTINUOUS
10
0.478517
20
0.165353
11
0.482283
21
0.166102
0
LINE
8
BLACK
6
CONTINUOUS
10
0.482283
20
0.166102
11
0.517717
21
0.166102
0
LINE
8
BLACK
6
CONTINUOUS
10
0.517717
20
0.166102
11
0.521483
21
0.165353
0
LINE
8
BLACK
6
CONTINUOUS
10
0.437221
20
0.15396
11
0.439136
21
0.15268
0
LINE
8
BLACK
6
CONTINUOUS
10
0.439136
20
0.15268
11
0.440417
21
0.150764
0
LINE
8
BLACK
6
CONTINUOUS
10
0.440417
20
0.150764
11
0.440866
21
0.148504
0
LINE
8
BLACK
6
CONTINUOUS
10
0.440866
20
0.148504
11
0.440866
21
0.136693
0
LINE
8
BLACK
6
CONTINUOUS
10
0.440866
20
0.136693
11
0.440417
21
0.134433
0
LINE
8
BLACK
6
CONTINUOUS
10
0.440417
20
0.134433
11
0.439136
21
0.132517
0
LINE
8
BLACK
6
CONTINUOUS
10
0.439136
20
0.132517
11
0.437221
21
0.131237
0
LINE
8
BLACK
6
CONTINUOUS
10
0.437221
20
0.131237
11
0.434961
21
0.130787
0
LINE
8
BLACK
6
CONTINUOUS
10
0.434961
20
0.130787
11
0.394606
21
0.130787
0
LINE
8
BLACK
6
CONTINUOUS
10
0.394606
20
0.130787
11
0.392346
21
0.131237
0
LINE
8
BLACK
6
CONTINUOUS
10
0.392346
20
0.131237
11
0.39043
21
0.132517
0
LINE
8
BLACK
6
CONTINUOUS
10
0.39043
20
0.132517
11
0.38915
21
0.134433
0
LINE
8
BLACK
6
CONTINUOUS
10
0.38915
20
0.134433
11
0.388701
21
0.136693
0
LINE
8
BLACK
6
CONTINUOUS
10
0.388701
20
0.136693
11
0.388701
21
0.148504
0
LINE
8
BLACK
6
CONTINUOUS
10
0.388701
20
0.148504
11
0.38915
21
0.150764
0
LINE
8
BLACK
6
CONTINUOUS
10
0.38915
20
0.150764
11
0.39043
21
0.15268
0
LINE
8
BLACK
6
CONTINUOUS
10
0.39043
20
0.15268
11
0.392346
21
0.15396
0
LINE
8
BLACK
6
CONTINUOUS
10
0.392346
20
0.15396
11
0.394606
21
0.154409
0
LINE
8
BLACK
6
CONTINUOUS
10
0.394606
20
0.154409
11
0.434961
21
0.154409
0
LINE
8
BLACK
6
CONTINUOUS
10
0.434961
20
0.154409
11
0.437221
21
0.15396
0
LINE
8
BLACK
6
CONTINUOUS
10
0.347654
20
0.15396
11
0.34957
21
0.15268
0
LINE
8
BLACK
6
CONTINUOUS
10
0.34957
20
0.15268
11
0.35085
21
0.150764
0
LINE
8
BLACK
6
CONTINUOUS
10
0.35085
20
0.150764
11
0.351299
21
0.148504
0
LINE
8
BLACK
6
CONTINUOUS
10
0.351299
20
0.148504
11
0.351299
21
0.136693
0
LINE
8
BLACK
6
CONTINUOUS
10
0.351299
20
0.136693
11
0.35085
21
0.134433
0
LINE
8
BLACK
6
CONTINUOUS
10
0.35085
20
0.134433
11
0.34957
21
0.132517
0
LINE
8
BLACK
6
CONTINUOUS
10
0.34957
20
0.132517
11
0.347654
21
0.131237
0
LINE
8
BLACK
6
CONTINUOUS
10
0.347654
20
0.131237
11
0.345394
21
0.130787
0
LINE
8
BLACK
6
CONTINUOUS
10
0.345394
20
0.130787
11
0.305039
21
0.130787
0
LINE
8
BLACK
6
CONTINUOUS
10
0.305039
20
0.130787
11
0.302779
21
0.131237
0
LINE
8
BLACK
6
CONTINUOUS
10
0.302779
20
0.131237
11
0.300864
21
0.132517
0
LINE
8
BLACK
6
CONTINUOUS
10
0.300864
20
0.132517
11
0.299583
21
0.134433
0
LINE
8
BLACK
6
CONTINUOUS
10
0.299583
20
0.134433
11
0.299134
21
0.136693
0
LINE
8
BLACK
6
CONTINUOUS
10
0.299134
20
0.136693
11
0.299134
21
0.148504
0
LINE
8
BLACK
6
CONTINUOUS
10
0.299134
20
0.148504
11
0.299583
21
0.150764
0
LINE
8
BLACK
6
CONTINUOUS
10
0.299583
20
0.150764
11
0.300864
21
0.15268
0
LINE
8
BLACK
6
CONTINUOUS
10
0.300864
20
0.15268
11
0.302779
21
0.15396
0
LINE
8
BLACK
6
CONTINUOUS
10
0.302779
20
0.15396
11
0.305039
21
0.154409
0
LINE
8
BLACK
6
CONTINUOUS
10
0.305039
20
0.154409
11
0.345394
21
0.154409
0
LINE
8
BLACK
6
CONTINUOUS
10
0.345394
20
0.154409
11
0.347654
21
0.15396
0
LINE
8
BLACK
6
CONTINUOUS
10
1.0348
20
0.138031
11
1.00724
21
0.138031
0
LINE
8
BLACK
6
CONTINUOUS
10
1.00724
20
0.138031
11
1.00724
21
0.161654
0
LINE
8
BLACK
6
CONTINUOUS
10
1.00724
20
0.161654
11
1.0348
21
0.161654
0
LINE
8
BLACK
6
CONTINUOUS
10
1.0348
20
0.161654
11
1.0348
21
0.138031
0
LINE
8
BLACK
6
CONTINUOUS
10
1.33877
20
0.196337
11
1.34196
21
0.194204
0
LINE
8
BLACK
6
CONTINUOUS
10
1.34196
20
0.194204
11
1.34409
21
0.191011
0
LINE
8
BLACK
6
CONTINUOUS
10
1.34409
20
0.191011
11
1.34484
21
0.187244
0
LINE
8
BLACK
6
CONTINUOUS
10
1.34484
20
0.187244
11
1.34484
21
0.167559
0
LINE
8
BLACK
6
CONTINUOUS
10
1.34484
20
0.167559
11
1.34409
21
0.163792
0
LINE
8
BLACK
6
CONTINUOUS
10
1.34409
20
0.163792
11
1.34196
21
0.160599
0
LINE
8
BLACK
6
CONTINUOUS
10
1.34196
20
0.160599
11
1.33877
21
0.158466
0
LINE
8
BLACK
6
CONTINUOUS
10
1.33877
20
0.158466
11
1.335
21
0.157717
0
LINE
8
BLACK
6
CONTINUOUS
10
1.335
20
0.157717
11
1.2976
21
0.157717
0
LINE
8
BLACK
6
CONTINUOUS
10
1.2976
20
0.157717
11
1.29383
21
0.158466
0
LINE
8
BLACK
6
CONTINUOUS
10
1.29383
20
0.158466
11
1.29064
21
0.160599
0
LINE
8
BLACK
6
CONTINUOUS
10
1.29064
20
0.160599
11
1.28851
21
0.163792
0
LINE
8
BLACK
6
CONTINUOUS
10
1.28851
20
0.163792
11
1.28776
21
0.167559
0
LINE
8
BLACK
6
CONTINUOUS
10
1.28776
20
0.167559
11
1.28776
21
0.187244
0
LINE
8
BLACK
6
CONTINUOUS
10
1.28776
20
0.187244
11
1.28851
21
0.191011
0
LINE
8
BLACK
6
CONTINUOUS
10
1.28851
20
0.191011
11
1.29064
21
0.194204
0
LINE
8
BLACK
6
CONTINUOUS
10
1.29064
20
0.194204
11
1.29383
21
0.196337
0
LINE
8
BLACK
6
CONTINUOUS
10
1.29383
20
0.196337
11
1.2976
21
0.197087
0
LINE
8
BLACK
6
CONTINUOUS
10
1.2976
20
0.197087
11
1.335
21
0.197087
0
LINE
8
BLACK
6
CONTINUOUS
10
1.335
20
0.197087
11
1.33877
21
0.196337
0
LINE
8
BLACK
6
CONTINUOUS
10
1.43719
20
0.196337
11
1.44038
21
0.194204
0
LINE
8
BLACK
6
CONTINUOUS
10
1.44038
20
0.194204
11
1.44252
21
0.191011
0
LINE
8
BLACK
6
CONTINUOUS
10
1.44252
20
0.191011
11
1.44327
21
0.187244
0
LINE
8
BLACK
6
CONTINUOUS
10
1.44327
20
0.187244
11
1.44327
21
0.167559
0
LINE
8
BLACK
6
CONTINUOUS
10
1.44327
20
0.167559
11
1.44252
21
0.163792
0
LINE
8
BLACK
6
CONTINUOUS
10
1.44252
20
0.163792
11
1.44038
21
0.160599
0
LINE
8
BLACK
6
CONTINUOUS
10
1.44038
20
0.160599
11
1.43719
21
0.158466
0
LINE
8
BLACK
6
CONTINUOUS
10
1.43719
20
0.158466
11
1.43343
21
0.157717
0
LINE
8
BLACK
6
CONTINUOUS
10
1.43343
20
0.157717
11
1.39602
21
0.157717
0
LINE
8
BLACK
6
CONTINUOUS
10
1.39602
20
0.157717
11
1.39226
21
0.158466
0
LINE
8
BLACK
6
CONTINUOUS
10
1.39226
20
0.158466
11
1.38906
21
0.160599
0
LINE
8
BLACK
6
CONTINUOUS
10
1.38906
20
0.160599
11
1.38693
21
0.163792
0
LINE
8
BLACK
6
CONTINUOUS
10
1.38693
20
0.163792
11
1.38618
21
0.167559
0
LINE
8
BLACK
6
CONTINUOUS
10
1.38618
20
0.167559
11
1.38618
21
0.187244
0
LINE
8
BLACK
6
CONTINUOUS
10
1.38618
20
0.187244
11
1.38693
21
0.191011
0
LINE
8
BLACK
6
CONTINUOUS
10
1.38693
20
0.191011
11
1.38906
21
0.194204
0
LINE
8
BLACK
6
CONTINUOUS
10
1.38906
20
0.194204
11
1.39226
21
0.196337
0
LINE
8
BLACK
6
CONTINUOUS
10
1.39226
20
0.196337
11
1.39602
21
0.197087
0
LINE
8
BLACK
6
CONTINUOUS
10
1.39602
20
0.197087
11
1.43343
21
0.197087
0
LINE
8
BLACK
6
CONTINUOUS
10
1.43343
20
0.197087
11
1.43719
21
0.196337
0
LINE
8
BLACK
6
CONTINUOUS
10
0.347654
20
0.191361
11
0.34957
21
0.190081
0
LINE
8
BLACK
6
CONTINUOUS
10
0.34957
20
0.190081
11
0.35085
21
0.188165
0
LINE
8
BLACK
6
CONTINUOUS
10
0.35085
20
0.188165
11
0.351299
21
0.185906
0
LINE
8
BLACK
6
CONTINUOUS
10
0.351299
20
0.185906
11
0.351299
21
0.174094
0
LINE
8
BLACK
6
CONTINUOUS
10
0.351299
20
0.174094
11
0.35085
21
0.171835
0
LINE
8
BLACK
6
CONTINUOUS
10
0.35085
20
0.171835
11
0.34957
21
0.169919
0
LINE
8
BLACK
6
CONTINUOUS
10
0.34957
20
0.169919
11
0.347654
21
0.168639
0
LINE
8
BLACK
6
CONTINUOUS
10
0.347654
20
0.168639
11
0.345394
21
0.168189
0
LINE
8
BLACK
6
CONTINUOUS
10
0.345394
20
0.168189
11
0.305039
21
0.168189
0
LINE
8
BLACK
6
CONTINUOUS
10
0.305039
20
0.168189
11
0.302779
21
0.168639
0
LINE
8
BLACK
6
CONTINUOUS
10
0.302779
20
0.168639
11
0.300864
21
0.169919
0
LINE
8
BLACK
6
CONTINUOUS
10
0.300864
20
0.169919
11
0.299583
21
0.171835
0
LINE
8
BLACK
6
CONTINUOUS
10
0.299583
20
0.171835
11
0.299134
21
0.174094
0
LINE
8
BLACK
6
CONTINUOUS
10
0.299134
20
0.174094
11
0.299134
21
0.185906
0
LINE
8
BLACK
6
CONTINUOUS
10
0.299134
20
0.185906
11
0.299583
21
0.188165
0
LINE
8
BLACK
6
CONTINUOUS
10
0.299583
20
0.188165
11
0.300864
21
0.190081
0
LINE
8
BLACK
6
CONTINUOUS
10
0.300864
20
0.190081
11
0.302779
21
0.191361
0
LINE
8
BLACK
6
CONTINUOUS
10
0.302779
20
0.191361
11
0.305039
21
0.191811
0
LINE
8
BLACK
6
CONTINUOUS
10
0.305039
20
0.191811
11
0.345394
21
0.191811
0
LINE
8
BLACK
6
CONTINUOUS
10
0.345394
20
0.191811
11
0.347654
21
0.191361
0
LINE
8
BLACK
6
CONTINUOUS
10
0.437221
20
0.191361
11
0.439136
21
0.190081
0
LINE
8
BLACK
6
CONTINUOUS
10
0.439136
20
0.190081
11
0.440417
21
0.188165
0
LINE
8
BLACK
6
CONTINUOUS
10
0.440417
20
0.188165
11
0.440866
21
0.185906
0
LINE
8
BLACK
6
CONTINUOUS
10
0.440866
20
0.185906
11
0.440866
21
0.174094
0
LINE
8
BLACK
6
CONTINUOUS
10
0.440866
20
0.174094
11
0.440417
21
0.171835
0
LINE
8
BLACK
6
CONTINUOUS
10
0.440417
20
0.171835
11
0.439136
21
0.169919
0
LINE
8
BLACK
6
CONTINUOUS
10
0.439136
20
0.169919
11
0.437221
21
0.168639
0
LINE
8
BLACK
6
CONTINUOUS
10
0.437221
20
0.168639
11
0.434961
21
0.168189
0
LINE
8
BLACK
6
CONTINUOUS
10
0.434961
20
0.168189
11
0.394606
21
0.168189
0
LINE
8
BLACK
6
CONTINUOUS
10
0.394606
20
0.168189
11
0.392346
21
0.168639
0
LINE
8
BLACK
6
CONTINUOUS
10
0.392346
20
0.168639
11
0.39043
21
0.169919
0
LINE
8
BLACK
6
CONTINUOUS
10
0.39043
20
0.169919
11
0.38915
21
0.171835
0
LINE
8
BLACK
6
CONTINUOUS
10
0.38915
20
0.171835
11
0.388701
21
0.174094
0
LINE
8
BLACK
6
CONTINUOUS
10
0.388701
20
0.174094
11
0.388701
21
0.185906
0
LINE
8
BLACK
6
CONTINUOUS
10
0.388701
20
0.185906
11
0.38915
21
0.188165
0
LINE
8
BLACK
6
CONTINUOUS
10
0.38915
20
0.188165
11
0.39043
21
0.190081
0
LINE
8
BLACK
6
CONTINUOUS
10
0.39043
20
0.190081
11
0.392346
21
0.191361
0
LINE
8
BLACK
6
CONTINUOUS
10
0.392346
20
0.191361
11
0.394606
21
0.191811
0
LINE
8
BLACK
6
CONTINUOUS
10
0.394606
20
0.191811
11
0.434961
21
0.191811
0
LINE
8
BLACK
6
CONTINUOUS
10
0.434961
20
0.191811
11
0.437221
21
0.191361
0
LINE
8
BLACK
6
CONTINUOUS
10
2.39
20
0.17
11
2.33
21
0.17
0
LINE
8
BLACK
6
CONTINUOUS
10
2.33
20
0.17
11
2.33
21
0.23
0
LINE
8
BLACK
6
CONTINUOUS
10
2.33
20
0.23
11
2.39
21
0.23
0
LINE
8
BLACK
6
CONTINUOUS
10
2.39
20
0.23
11
2.39
21
0.17
0
LINE
8
BLACK
6
CONTINUOUS
10
2.29
20
0.17
11
2.23
21
0.17
0
LINE
8
BLACK
6
CONTINUOUS
10
2.23
20
0.17
11
2.23
21
0.23
0
LINE
8
BLACK
6
CONTINUOUS
10
2.23
20
0.23
11
2.29
21
0.23
0
LINE
8
BLACK
6
CONTINUOUS
10
2.29
20
0.23
11
2.29
21
0.17
0
LINE
8
BLACK
6
CONTINUOUS
10
0.622251
20
0.24681
11
0.625444
21
0.244676
0
LINE
8
BLACK
6
CONTINUOUS
10
0.625444
20
0.244676
11
0.627578
21
0.241483
0
LINE
8
BLACK
6
CONTINUOUS
10
0.627578
20
0.241483
11
0.628327
21
0.237717
0
LINE
8
BLACK
6
CONTINUOUS
10
0.628327
20
0.237717
11
0.628327
21
0.202283
0
LINE
8
BLACK
6
CONTINUOUS
10
0.628327
20
0.202283
11
0.627578
21
0.198517
0
LINE
8
BLACK
6
CONTINUOUS
10
0.627578
20
0.198517
11
0.625444
21
0.195324
0
LINE
8
BLACK
6
CONTINUOUS
10
0.625444
20
0.195324
11
0.622251
21
0.19319
0
LINE
8
BLACK
6
CONTINUOUS
10
0.622251
20
0.19319
11
0.618484
21
0.192441
0
LINE
8
BLACK
6
CONTINUOUS
10
0.618484
20
0.192441
11
0.597815
21
0.192441
0
LINE
8
BLACK
6
CONTINUOUS
10
0.597815
20
0.192441
11
0.594048
21
0.19319
0
LINE
8
BLACK
6
CONTINUOUS
10
0.594048
20
0.19319
11
0.590855
21
0.195324
0
LINE
8
BLACK
6
CONTINUOUS
10
0.590855
20
0.195324
11
0.588722
21
0.198517
0
LINE
8
BLACK
6
CONTINUOUS
10
0.588722
20
0.198517
11
0.587972
21
0.202283
0
LINE
8
BLACK
6
CONTINUOUS
10
0.587972
20
0.202283
11
0.587972
21
0.237717
0
LINE
8
BLACK
6
CONTINUOUS
10
0.587972
20
0.237717
11
0.588722
21
0.241483
0
LINE
8
BLACK
6
CONTINUOUS
10
0.588722
20
0.241483
11
0.590855
21
0.244676
0
LINE
8
BLACK
6
CONTINUOUS
10
0.590855
20
0.244676
11
0.594048
21
0.24681
0
LINE
8
BLACK
6
CONTINUOUS
10
0.594048
20
0.24681
11
0.597815
21
0.247559
0
LINE
8
BLACK
6
CONTINUOUS
10
0.597815
20
0.247559
11
0.618484
21
0.247559
0
LINE
8
BLACK
6
CONTINUOUS
10
0.618484
20
0.247559
11
0.622251
21
0.24681
0
LINE
8
BLACK
6
CONTINUOUS
10
0.694101
20
0.24681
11
0.697294
21
0.244676
0
LINE
8
BLACK
6
CONTINUOUS
10
0.697294
20
0.244676
11
0.699428
21
0.241483
0
LINE
8
BLACK
6
CONTINUOUS
10
0.699428
20
0.241483
11
0.700177
21
0.237717
0
LINE
8
BLACK
6
CONTINUOUS
10
0.700177
20
0.237717
11
0.700177
21
0.202283
0
LINE
8
BLACK
6
CONTINUOUS
10
0.700177
20
0.202283
11
0.699428
21
0.198517
0
LINE
8
BLACK
6
CONTINUOUS
10
0.699428
20
0.198517
11
0.697294
21
0.195324
0
LINE
8
BLACK
6
CONTINUOUS
10
0.697294
20
0.195324
11
0.694101
21
0.19319
0
LINE
8
BLACK
6
CONTINUOUS
10
0.694101
20
0.19319
11
0.690335
21
0.192441
0
LINE
8
BLACK
6
CONTINUOUS
10
0.690335
20
0.192441
11
0.669665
21
0.192441
0
LINE
8
BLACK
6
CONTINUOUS
10
0.669665
20
0.192441
11
0.665899
21
0.19319
0
LINE
8
BLACK
6
CONTINUOUS
10
0.665899
20
0.19319
11
0.662706
21
0.195324
0
LINE
8
BLACK
6
CONTINUOUS
10
0.662706
20
0.195324
11
0.660572
21
0.198517
0
LINE
8
BLACK
6
CONTINUOUS
10
0.660572
20
0.198517
11
0.659823
21
0.202283
0
LINE
8
BLACK
6
CONTINUOUS
10
0.659823
20
0.202283
11
0.659823
21
0.237717
0
LINE
8
BLACK
6
CONTINUOUS
10
0.659823
20
0.237717
11
0.660572
21
0.241483
0
LINE
8
BLACK
6
CONTINUOUS
10
0.660572
20
0.241483
11
0.662706
21
0.244676
0
LINE
8
BLACK
6
CONTINUOUS
10
0.662706
20
0.244676
11
0.665899
21
0.24681
0
LINE
8
BLACK
6
CONTINUOUS
10
0.665899
20
0.24681
11
0.669665
21
0.247559
0
LINE
8
BLACK
6
CONTINUOUS
10
0.669665
20
0.247559
11
0.690335
21
0.247559
0
LINE
8
BLACK
6
CONTINUOUS
10
0.690335
20
0.247559
11
0.694101
21
0.24681
0
LINE
8
BLACK
6
CONTINUOUS
10
1.0348
20
0.19315
11
1.00724
21
0.19315
0
LINE
8
BLACK
6
CONTINUOUS
10
1.00724
20
0.19315
11
1.00724
21
0.216772
0
LINE
8
BLACK
6
CONTINUOUS
10
1.00724
20
0.216772
11
1.0348
21
0.216772
0
LINE
8
BLACK
6
CONTINUOUS
10
1.0348
20
0.216772
11
1.0348
21
0.19315
0
LINE
8
BLACK
6
CONTINUOUS
10
1.24034
20
0.233739
11
1.24353
21
0.231605
0
LINE
8
BLACK
6
CONTINUOUS
10
1.24353
20
0.231605
11
1.24567
21
0.228412
0
LINE
8
BLACK
6
CONTINUOUS
10
1.24567
20
0.228412
11
1.24642
21
0.224646
0
LINE
8
BLACK
6
CONTINUOUS
10
1.24642
20
0.224646
11
1.24642
21
0.204961
0
LINE
8
BLACK
6
CONTINUOUS
10
1.24642
20
0.204961
11
1.24567
21
0.201194
0
LINE
8
BLACK
6
CONTINUOUS
10
1.24567
20
0.201194
11
1.24353
21
0.198001
0
LINE
8
BLACK
6
CONTINUOUS
10
1.24353
20
0.198001
11
1.24034
21
0.195867
0
LINE
8
BLACK
6
CONTINUOUS
10
1.24034
20
0.195867
11
1.23657
21
0.195118
0
LINE
8
BLACK
6
CONTINUOUS
10
1.23657
20
0.195118
11
1.19917
21
0.195118
0
LINE
8
BLACK
6
CONTINUOUS
10
1.19917
20
0.195118
11
1.19541
21
0.195867
0
LINE
8
BLACK
6
CONTINUOUS
10
1.19541
20
0.195867
11
1.19221
21
0.198001
0
LINE
8
BLACK
6
CONTINUOUS
10
1.19221
20
0.198001
11
1.19008
21
0.201194
0
LINE
8
BLACK
6
CONTINUOUS
10
1.19008
20
0.201194
11
1.18933
21
0.204961
0
LINE
8
BLACK
6
CONTINUOUS
10
1.18933
20
0.204961
11
1.18933
21
0.224646
0
LINE
8
BLACK
6
CONTINUOUS
10
1.18933
20
0.224646
11
1.19008
21
0.228412
0
LINE
8
BLACK
6
CONTINUOUS
10
1.19008
20
0.228412
11
1.19221
21
0.231605
0
LINE
8
BLACK
6
CONTINUOUS
10
1.19221
20
0.231605
11
1.19541
21
0.233739
0
LINE
8
BLACK
6
CONTINUOUS
10
1.19541
20
0.233739
11
1.19917
21
0.234488
0
LINE
8
BLACK
6
CONTINUOUS
10
1.19917
20
0.234488
11
1.23657
21
0.234488
0
LINE
8
BLACK
6
CONTINUOUS
10
1.23657
20
0.234488
11
1.24034
21
0.233739
0
LINE
8
BLACK
6
CONTINUOUS
10
1.62814
20
0.233739
11
1.63133
21
0.231605
0
LINE
8
BLACK
6
CONTINUOUS
10
1.63133
20
0.231605
11
1.63346
21
0.228412
0
LINE
8
BLACK
6
CONTINUOUS
10
1.63346
20
0.228412
11
1.63421
21
0.224646
0
LINE
8
BLACK
6
CONTINUOUS
10
1.63421
20
0.224646
11
1.63421
21
0.204961
0
LINE
8
BLACK
6
CONTINUOUS
10
1.63421
20
0.204961
11
1.63346
21
0.201194
0
LINE
8
BLACK
6
CONTINUOUS
10
1.63346
20
0.201194
11
1.63133
21
0.198001
0
LINE
8
BLACK
6
CONTINUOUS
10
1.63133
20
0.198001
11
1.62814
21
0.195867
0
LINE
8
BLACK
6
CONTINUOUS
10
1.62814
20
0.195867
11
1.62437
21
0.195118
0
LINE
8
BLACK
6
CONTINUOUS
10
1.62437
20
0.195118
11
1.58697
21
0.195118
0
LINE
8
BLACK
6
CONTINUOUS
10
1.58697
20
0.195118
11
1.5832
21
0.195867
0
LINE
8
BLACK
6
CONTINUOUS
10
1.5832
20
0.195867
11
1.58001
21
0.198001
0
LINE
8
BLACK
6
CONTINUOUS
10
1.58001
20
0.198001
11
1.57788
21
0.201194
0
LINE
8
BLACK
6
CONTINUOUS
10
1.57788
20
0.201194
11
1.57713
21
0.204961
0
LINE
8
BLACK
6
CONTINUOUS
10
1.57713
20
0.204961
11
1.57713
21
0.224646
0
LINE
8
BLACK
6
CONTINUOUS
10
1.57713
20
0.224646
11
1.57788
21
0.228412
0
LINE
8
BLACK
6
CONTINUOUS
10
1.57788
20
0.228412
11
1.58001
21
0.231605
0
LINE
8
BLACK
6
CONTINUOUS
10
1.58001
20
0.231605
11
1.5832
21
0.233739
0
LINE
8
BLACK
6
CONTINUOUS
10
1.5832
20
0.233739
11
1.58697
21
0.234488
0
LINE
8
BLACK
6
CONTINUOUS
10
1.58697
20
0.234488
11
1.62437
21
0.234488
0
LINE
8
BLACK
6
CONTINUOUS
10
1.62437
20
0.234488
11
1.62814
21
0.233739
0
LINE
8
BLACK
6
CONTINUOUS
10
1.14192
20
0.233739
11
1.14511
21
0.231605
0
LINE
8
BLACK
6
CONTINUOUS
10
1.14511
20
0.231605
11
1.14724
21
0.228412
0
LINE
8
BLACK
6
CONTINUOUS
10
1.14724
20
0.228412
11
1.14799
21
0.224646
0
LINE
8
BLACK
6
CONTINUOUS
10
1.14799
20
0.224646
11
1.14799
21
0.204961
0
LINE
8
BLACK
6
CONTINUOUS
10
1.14799
20
0.204961
11
1.14724
21
0.201194
0
LINE
8
BLACK
6
CONTINUOUS
10
1.14724
20
0.201194
11
1.14511
21
0.198001
0
LINE
8
BLACK
6
CONTINUOUS
10
1.14511
20
0.198001
11
1.14192
21
0.195867
0
LINE
8
BLACK
6
CONTINUOUS
10
1.14192
20
0.195867
11
1.13815
21
0.195118
0
LINE
8
BLACK
6
CONTINUOUS
10
1.13815
20
0.195118
11
1.10075
21
0.195118
0
LINE
8
BLACK
6
CONTINUOUS
10
1.10075
20
0.195118
11
1.09698
21
0.195867
0
LINE
8
BLACK
6
CONTINUOUS
10
1.09698
20
0.195867
11
1.09379
21
0.198001
0
LINE
8
BLACK
6
CONTINUOUS
10
1.09379
20
0.198001
11
1.09165
21
0.201194
0
LINE
8
BLACK
6
CONTINUOUS
10
1.09165
20
0.201194
11
1.09091
21
0.204961
0
LINE
8
BLACK
6
CONTINUOUS
10
1.09091
20
0.204961
11
1.09091
21
0.224646
0
LINE
8
BLACK
6
CONTINUOUS
10
1.09091
20
0.224646
11
1.09165
21
0.228412
0
LINE
8
BLACK
6
CONTINUOUS
10
1.09165
20
0.228412
11
1.09379
21
0.231605
0
LINE
8
BLACK
6
CONTINUOUS
10
1.09379
20
0.231605
11
1.09698
21
0.233739
0
LINE
8
BLACK
6
CONTINUOUS
10
1.09698
20
0.233739
11
1.10075
21
0.234488
0
LINE
8
BLACK
6
CONTINUOUS
10
1.10075
20
0.234488
11
1.13815
21
0.234488
0
LINE
8
BLACK
6
CONTINUOUS
10
1.13815
20
0.234488
11
1.14192
21
0.233739
0
LINE
8
BLACK
6
CONTINUOUS
10
1.73247
20
0.233739
11
1.73566
21
0.231605
0
LINE
8
BLACK
6
CONTINUOUS
10
1.73566
20
0.231605
11
1.73779
21
0.228412
0
LINE
8
BLACK
6
CONTINUOUS
10
1.73779
20
0.228412
11
1.73854
21
0.224646
0
LINE
8
BLACK
6
CONTINUOUS
10
1.73854
20
0.224646
11
1.73854
21
0.204961
0
LINE
8
BLACK
6
CONTINUOUS
10
1.73854
20
0.204961
11
1.73779
21
0.201194
0
LINE
8
BLACK
6
CONTINUOUS
10
1.73779
20
0.201194
11
1.73566
21
0.198001
0
LINE
8
BLACK
6
CONTINUOUS
10
1.73566
20
0.198001
11
1.73247
21
0.195867
0
LINE
8
BLACK
6
CONTINUOUS
10
1.73247
20
0.195867
11
1.7287
21
0.195118
0
LINE
8
BLACK
6
CONTINUOUS
10
1.7287
20
0.195118
11
1.6913
21
0.195118
0
LINE
8
BLACK
6
CONTINUOUS
10
1.6913
20
0.195118
11
1.68753
21
0.195867
0
LINE
8
BLACK
6
CONTINUOUS
10
1.68753
20
0.195867
11
1.68434
21
0.198001
0
LINE
8
BLACK
6
CONTINUOUS
10
1.68434
20
0.198001
11
1.68221
21
0.201194
0
LINE
8
BLACK
6
CONTINUOUS
10
1.68221
20
0.201194
11
1.68146
21
0.204961
0
LINE
8
BLACK
6
CONTINUOUS
10
1.68146
20
0.204961
11
1.68146
21
0.224646
0
LINE
8
BLACK
6
CONTINUOUS
10
1.68146
20
0.224646
11
1.68221
21
0.228412
0
LINE
8
BLACK
6
CONTINUOUS
10
1.68221
20
0.228412
11
1.68434
21
0.231605
0
LINE
8
BLACK
6
CONTINUOUS
10
1.68434
20
0.231605
11
1.68753
21
0.233739
0
LINE
8
BLACK
6
CONTINUOUS
10
1.68753
20
0.233739
11
1.6913
21
0.234488
0
LINE
8
BLACK
6
CONTINUOUS
10
1.6913
20
0.234488
11
1.7287
21
0.234488
0
LINE
8
BLACK
6
CONTINUOUS
10
1.7287
20
0.234488
11
1.73247
21
0.233739
0
LINE
8
BLACK
6
CONTINUOUS
10
0.347654
20
0.228763
11
0.34957
21
0.227483
0
LINE
8
BLACK
6
CONTINUOUS
10
0.34957
20
0.227483
11
0.35085
21
0.225567
0
LINE
8
BLACK
6
CONTINUOUS
10
0.35085
20
0.225567
11
0.351299
21
0.223307
0
LINE
8
BLACK
6
CONTINUOUS
10
0.351299
20
0.223307
11
0.351299
21
0.211496
0
LINE
8
BLACK
6
CONTINUOUS
10
0.351299
20
0.211496
11
0.35085
21
0.209236
0
LINE
8
BLACK
6
CONTINUOUS
10
0.35085
20
0.209236
11
0.34957
21
0.20732
0
LINE
8
BLACK
6
CONTINUOUS
10
0.34957
20
0.20732
11
0.347654
21
0.20604
0
LINE
8
BLACK
6
CONTINUOUS
10
0.347654
20
0.20604
11
0.345394
21
0.205591
0
LINE
8
BLACK
6
CONTINUOUS
10
0.345394
20
0.205591
11
0.305039
21
0.205591
0
LINE
8
BLACK
6
CONTINUOUS
10
0.305039
20
0.205591
11
0.302779
21
0.20604
0
LINE
8
BLACK
6
CONTINUOUS
10
0.302779
20
0.20604
11
0.300864
21
0.20732
0
LINE
8
BLACK
6
CONTINUOUS
10
0.300864
20
0.20732
11
0.299583
21
0.209236
0
LINE
8
BLACK
6
CONTINUOUS
10
0.299583
20
0.209236
11
0.299134
21
0.211496
0
LINE
8
BLACK
6
CONTINUOUS
10
0.299134
20
0.211496
11
0.299134
21
0.223307
0
LINE
8
BLACK
6
CONTINUOUS
10
0.299134
20
0.223307
11
0.299583
21
0.225567
0
LINE
8
BLACK
6
CONTINUOUS
10
0.299583
20
0.225567
11
0.300864
21
0.227483
0
LINE
8
BLACK
6
CONTINUOUS
10
0.300864
20
0.227483
11
0.302779
21
0.228763
0
LINE
8
BLACK
6
CONTINUOUS
10
0.302779
20
0.228763
11
0.305039
21
0.229213
0
LINE
8
BLACK
6
CONTINUOUS
10
0.305039
20
0.229213
11
0.345394
21
0.229213
0
LINE
8
BLACK
6
CONTINUOUS
10
0.345394
20
0.229213
11
0.347654
21
0.228763
0
LINE
8
BLACK
6
CONTINUOUS
10
0.437221
20
0.228763
11
0.439136
21
0.227483
0
LINE
8
BLACK
6
CONTINUOUS
10
0.439136
20
0.227483
11
0.440417
21
0.225567
0
LINE
8
BLACK
6
CONTINUOUS
10
0.440417
20
0.225567
11
0.440866
21
0.223307
0
LINE
8
BLACK
6
CONTINUOUS
10
0.440866
20
0.223307
11
0.440866
21
0.211496
0
LINE
8
BLACK
6
CONTINUOUS
10
0.440866
20
0.211496
11
0.440417
21
0.209236
0
LINE
8
BLACK
6
CONTINUOUS
10
0.440417
20
0.209236
11
0.439136
21
0.20732
0
LINE
8
BLACK
6
CONTINUOUS
10
0.439136
20
0.20732
11
0.437221
21
0.20604
0
LINE
8
BLACK
6
CONTINUOUS
10
0.437221
20
0.20604
11
0.434961
21
0.205591
0
LINE
8
BLACK
6
CONTINUOUS
10
0.434961
20
0.205591
11
0.394606
21
0.205591
0
LINE
8
BLACK
6
CONTINUOUS
10
0.394606
20
0.205591
11
0.392346
21
0.20604
0
LINE
8
BLACK
6
CONTINUOUS
10
0.392346
20
0.20604
11
0.39043
21
0.20732
0
LINE
8
BLACK
6
CONTINUOUS
10
0.39043
20
0.20732
11
0.38915
21
0.209236
0
LINE
8
BLACK
6
CONTINUOUS
10
0.38915
20
0.209236
11
0.388701
21
0.211496
0
LINE
8
BLACK
6
CONTINUOUS
10
0.388701
20
0.211496
11
0.388701
21
0.223307
0
LINE
8
BLACK
6
CONTINUOUS
10
0.388701
20
0.223307
11
0.38915
21
0.225567
0
LINE
8
BLACK
6
CONTINUOUS
10
0.38915
20
0.225567
11
0.39043
21
0.227483
0
LINE
8
BLACK
6
CONTINUOUS
10
0.39043
20
0.227483
11
0.392346
21
0.228763
0
LINE
8
BLACK
6
CONTINUOUS
10
0.392346
20
0.228763
11
0.394606
21
0.229213
0
LINE
8
BLACK
6
CONTINUOUS
10
0.394606
20
0.229213
11
0.434961
21
0.229213
0
LINE
8
BLACK
6
CONTINUOUS
10
0.434961
20
0.229213
11
0.437221
21
0.228763
0
LINE
8
BLACK
6
CONTINUOUS
10
0.531483
20
0.249428
11
0.534676
21
0.247294
0
LINE
8
BLACK
6
CONTINUOUS
10
0.534676
20
0.247294
11
0.53681
21
0.244101
0
LINE
8
BLACK
6
CONTINUOUS
10
0.53681
20
0.244101
11
0.537559
21
0.240335
0
LINE
8
BLACK
6
CONTINUOUS
10
0.537559
20
0.240335
11
0.537559
21
0.219665
0
LINE
8
BLACK
6
CONTINUOUS
10
0.537559
20
0.219665
11
0.53681
21
0.215899
0
LINE
8
BLACK
6
CONTINUOUS
10
0.53681
20
0.215899
11
0.534676
21
0.212706
0
LINE
8
BLACK
6
CONTINUOUS
10
0.534676
20
0.212706
11
0.531483
21
0.210572
0
LINE
8
BLACK
6
CONTINUOUS
10
0.531483
20
0.210572
11
0.527717
21
0.209823
0
LINE
8
BLACK
6
CONTINUOUS
10
0.527717
20
0.209823
11
0.492283
21
0.209823
0
LINE
8
BLACK
6
CONTINUOUS
10
0.492283
20
0.209823
11
0.488517
21
0.210572
0
LINE
8
BLACK
6
CONTINUOUS
10
0.488517
20
0.210572
11
0.485324
21
0.212706
0
LINE
8
BLACK
6
CONTINUOUS
10
0.485324
20
0.212706
11
0.48319
21
0.215899
0
LINE
8
BLACK
6
CONTINUOUS
10
0.48319
20
0.215899
11
0.482441
21
0.219665
0
LINE
8
BLACK
6
CONTINUOUS
10
0.482441
20
0.219665
11
0.482441
21
0.240335
0
LINE
8
BLACK
6
CONTINUOUS
10
0.482441
20
0.240335
11
0.48319
21
0.244101
0
LINE
8
BLACK
6
CONTINUOUS
10
0.48319
20
0.244101
11
0.485324
21
0.247294
0
LINE
8
BLACK
6
CONTINUOUS
10
0.485324
20
0.247294
11
0.488517
21
0.249428
0
LINE
8
BLACK
6
CONTINUOUS
10
0.488517
20
0.249428
11
0.492283
21
0.250177
0
LINE
8
BLACK
6
CONTINUOUS
10
0.492283
20
0.250177
11
0.527717
21
0.250177
0
LINE
8
BLACK
6
CONTINUOUS
10
0.527717
20
0.250177
11
0.531483
21
0.249428
0
LINE
8
BLACK
6
CONTINUOUS
10
2.16148
20
0.253503
11
2.16468
21
0.251369
0
LINE
8
BLACK
6
CONTINUOUS
10
2.16468
20
0.251369
11
2.16681
21
0.248176
0
LINE
8
BLACK
6
CONTINUOUS
10
2.16681
20
0.248176
11
2.16756
21
0.244409
0
LINE
8
BLACK
6
CONTINUOUS
10
2.16756
20
0.244409
11
2.16756
21
0.22374
0
LINE
8
BLACK
6
CONTINUOUS
10
2.16756
20
0.22374
11
2.16681
21
0.219974
0
LINE
8
BLACK
6
CONTINUOUS
10
2.16681
20
0.219974
11
2.16468
21
0.21678
0
LINE
8
BLACK
6
CONTINUOUS
10
2.16468
20
0.21678
11
2.16148
21
0.214647
0
LINE
8
BLACK
6
CONTINUOUS
10
2.16148
20
0.214647
11
2.15772
21
0.213898
0
LINE
8
BLACK
6
CONTINUOUS
10
2.15772
20
0.213898
11
2.12228
21
0.213898
0
LINE
8
BLACK
6
CONTINUOUS
10
2.12228
20
0.213898
11
2.11852
21
0.214647
0
LINE
8
BLACK
6
CONTINUOUS
10
2.11852
20
0.214647
11
2.11532
21
0.21678
0
LINE
8
BLACK
6
CONTINUOUS
10
2.11532
20
0.21678
11
2.11319
21
0.219974
0
LINE
8
BLACK
6
CONTINUOUS
10
2.11319
20
0.219974
11
2.11244
21
0.22374
0
LINE
8
BLACK
6
CONTINUOUS
10
2.11244
20
0.22374
11
2.11244
21
0.244409
0
LINE
8
BLACK
6
CONTINUOUS
10
2.11244
20
0.244409
11
2.11319
21
0.248176
0
LINE
8
BLACK
6
CONTINUOUS
10
2.11319
20
0.248176
11
2.11532
21
0.251369
0
LINE
8
BLACK
6
CONTINUOUS
10
2.11532
20
0.251369
11
2.11852
21
0.253503
0
LINE
8
BLACK
6
CONTINUOUS
10
2.11852
20
0.253503
11
2.12228
21
0.254252
0
LINE
8
BLACK
6
CONTINUOUS
10
2.12228
20
0.254252
11
2.15772
21
0.254252
0
LINE
8
BLACK
6
CONTINUOUS
10
2.15772
20
0.254252
11
2.16148
21
0.253503
0
LINE
8
BLACK
6
CONTINUOUS
10
1.33877
20
0.271141
11
1.34196
21
0.269007
0
LINE
8
BLACK
6
CONTINUOUS
10
1.34196
20
0.269007
11
1.34409
21
0.265814
0
LINE
8
BLACK
6
CONTINUOUS
10
1.34409
20
0.265814
11
1.34484
21
0.262047
0
LINE
8
BLACK
6
CONTINUOUS
10
1.34484
20
0.262047
11
1.34484
21
0.242362
0
LINE
8
BLACK
6
CONTINUOUS
10
1.34484
20
0.242362
11
1.34409
21
0.238596
0
LINE
8
BLACK
6
CONTINUOUS
10
1.34409
20
0.238596
11
1.34196
21
0.235402
0
LINE
8
BLACK
6
CONTINUOUS
10
1.34196
20
0.235402
11
1.33877
21
0.233269
0
LINE
8
BLACK
6
CONTINUOUS
10
1.33877
20
0.233269
11
1.335
21
0.23252
0
LINE
8
BLACK
6
CONTINUOUS
10
1.335
20
0.23252
11
1.2976
21
0.23252
0
LINE
8
BLACK
6
CONTINUOUS
10
1.2976
20
0.23252
11
1.29383
21
0.233269
0
LINE
8
BLACK
6
CONTINUOUS
10
1.29383
20
0.233269
11
1.29064
21
0.235402
0
LINE
8
BLACK
6
CONTINUOUS
10
1.29064
20
0.235402
11
1.28851
21
0.238596
0
LINE
8
BLACK
6
CONTINUOUS
10
1.28851
20
0.238596
11
1.28776
21
0.242362
0
LINE
8
BLACK
6
CONTINUOUS
10
1.28776
20
0.242362
11
1.28776
21
0.262047
0
LINE
8
BLACK
6
CONTINUOUS
10
1.28776
20
0.262047
11
1.28851
21
0.265814
0
LINE
8
BLACK
6
CONTINUOUS
10
1.28851
20
0.265814
11
1.29064
21
0.269007
0
LINE
8
BLACK
6
CONTINUOUS
10
1.29064
20
0.269007
11
1.29383
21
0.271141
0
LINE
8
BLACK
6
CONTINUOUS
10
1.29383
20
0.271141
11
1.2976
21
0.27189
0
LINE
8
BLACK
6
CONTINUOUS
10
1.2976
20
0.27189
11
1.335
21
0.27189
0
LINE
8
BLACK
6
CONTINUOUS
10
1.335
20
0.27189
11
1.33877
21
0.271141
0
LINE
8
BLACK
6
CONTINUOUS
10
1.94621
20
0.307794
11
1.9494
21
0.305661
0
LINE
8
BLACK
6
CONTINUOUS
10
1.9494
20
0.305661
11
1.95153
21
0.302467
0
LINE
8
BLACK
6
CONTINUOUS
10
1.95153
20
0.302467
11
1.95228
21
0.298701
0
LINE
8
BLACK
6
CONTINUOUS
10
1.95228
20
0.298701
11
1.95228
21
0.261299
0
LINE
8
BLACK
6
CONTINUOUS
10
1.95228
20
0.261299
11
1.95153
21
0.257533
0
LINE
8
BLACK
6
CONTINUOUS
10
1.95153
20
0.257533
11
1.9494
21
0.254339
0
LINE
8
BLACK
6
CONTINUOUS
10
1.9494
20
0.254339
11
1.94621
21
0.252206
0
LINE
8
BLACK
6
CONTINUOUS
10
1.94621
20
0.252206
11
1.94244
21
0.251457
0
LINE
8
BLACK
6
CONTINUOUS
10
1.94244
20
0.251457
11
1.92276
21
0.251457
0
LINE
8
BLACK
6
CONTINUOUS
10
1.92276
20
0.251457
11
1.91899
21
0.252206
0
LINE
8
BLACK
6
CONTINUOUS
10
1.91899
20
0.252206
11
1.9158
21
0.254339
0
LINE
8
BLACK
6
CONTINUOUS
10
1.9158
20
0.254339
11
1.91366
21
0.257533
0
LINE
8
BLACK
6
CONTINUOUS
10
1.91366
20
0.257533
11
1.91291
21
0.261299
0
LINE
8
BLACK
6
CONTINUOUS
10
1.91291
20
0.261299
11
1.91291
21
0.298701
0
LINE
8
BLACK
6
CONTINUOUS
10
1.91291
20
0.298701
11
1.91366
21
0.302467
0
LINE
8
BLACK
6
CONTINUOUS
10
1.91366
20
0.302467
11
1.9158
21
0.305661
0
LINE
8
BLACK
6
CONTINUOUS
10
1.9158
20
0.305661
11
1.91899
21
0.307794
0
LINE
8
BLACK
6
CONTINUOUS
10
1.91899
20
0.307794
11
1.92276
21
0.308543
0
LINE
8
BLACK
6
CONTINUOUS
10
1.92276
20
0.308543
11
1.94244
21
0.308543
0
LINE
8
BLACK
6
CONTINUOUS
10
1.94244
20
0.308543
11
1.94621
21
0.307794
0
LINE
8
BLACK
6
CONTINUOUS
10
2.02101
20
0.307794
11
2.0242
21
0.305661
0
LINE
8
BLACK
6
CONTINUOUS
10
2.0242
20
0.305661
11
2.02634
21
0.302467
0
LINE
8
BLACK
6
CONTINUOUS
10
2.02634
20
0.302467
11
2.02709
21
0.298701
0
LINE
8
BLACK
6
CONTINUOUS
10
2.02709
20
0.298701
11
2.02709
21
0.261299
0
LINE
8
BLACK
6
CONTINUOUS
10
2.02709
20
0.261299
11
2.02634
21
0.257533
0
LINE
8
BLACK
6
CONTINUOUS
10
2.02634
20
0.257533
11
2.0242
21
0.254339
0
LINE
8
BLACK
6
CONTINUOUS
10
2.0242
20
0.254339
11
2.02101
21
0.252206
0
LINE
8
BLACK
6
CONTINUOUS
10
2.02101
20
0.252206
11
2.01724
21
0.251457
0
LINE
8
BLACK
6
CONTINUOUS
10
2.01724
20
0.251457
11
1.99756
21
0.251457
0
LINE
8
BLACK
6
CONTINUOUS
10
1.99756
20
0.251457
11
1.99379
21
0.252206
0
LINE
8
BLACK
6
CONTINUOUS
10
1.99379
20
0.252206
11
1.9906
21
0.254339
0
LINE
8
BLACK
6
CONTINUOUS
10
1.9906
20
0.254339
11
1.98847
21
0.257533
0
LINE
8
BLACK
6
CONTINUOUS
10
1.98847
20
0.257533
11
1.98772
21
0.261299
0
LINE
8
BLACK
6
CONTINUOUS
10
1.98772
20
0.261299
11
1.98772
21
0.298701
0
LINE
8
BLACK
6
CONTINUOUS
10
1.98772
20
0.298701
11
1.98847
21
0.302467
0
LINE
8
BLACK
6
CONTINUOUS
10
1.98847
20
0.302467
11
1.9906
21
0.305661
0
LINE
8
BLACK
6
CONTINUOUS
10
1.9906
20
0.305661
11
1.99379
21
0.307794
0
LINE
8
BLACK
6
CONTINUOUS
10
1.99379
20
0.307794
11
1.99756
21
0.308543
0
LINE
8
BLACK
6
CONTINUOUS
10
1.99756
20
0.308543
11
2.01724
21
0.308543
0
LINE
8
BLACK
6
CONTINUOUS
10
2.01724
20
0.308543
11
2.02101
21
0.307794
0
LINE
8
BLACK
6
CONTINUOUS
10
2.39
20
0.27
11
2.33
21
0.27
0
LINE
8
BLACK
6
CONTINUOUS
10
2.33
20
0.27
11
2.33
21
0.33
0
LINE
8
BLACK
6
CONTINUOUS
10
2.33
20
0.33
11
2.39
21
0.33
0
LINE
8
BLACK
6
CONTINUOUS
10
2.39
20
0.33
11
2.39
21
0.27
0
LINE
8
BLACK
6
CONTINUOUS
10
2.29
20
0.27
11
2.23
21
0.27
0
LINE
8
BLACK
6
CONTINUOUS
10
2.23
20
0.27
11
2.23
21
0.33
0
LINE
8
BLACK
6
CONTINUOUS
10
2.23
20
0.33
11
2.29
21
0.33
0
LINE
8
BLACK
6
CONTINUOUS
10
2.29
20
0.33
11
2.29
21
0.27
0
LINE
8
BLACK
6
CONTINUOUS
10
0.348176
20
0.32681
11
0.351369
21
0.324676
0
LINE
8
BLACK
6
CONTINUOUS
10
0.351369
20
0.324676
11
0.353503
21
0.321483
0
LINE
8
BLACK
6
CONTINUOUS
10
0.353503
20
0.321483
11
0.354252
21
0.317717
0
LINE
8
BLACK
6
CONTINUOUS
10
0.354252
20
0.317717
11
0.354252
21
0.282283
0
LINE
8
BLACK
6
CONTINUOUS
10
0.354252
20
0.282283
11
0.353503
21
0.278517
0
LINE
8
BLACK
6
CONTINUOUS
10
0.353503
20
0.278517
11
0.351369
21
0.275324
0
LINE
8
BLACK
6
CONTINUOUS
10
0.351369
20
0.275324
11
0.348176
21
0.27319
0
LINE
8
BLACK
6
CONTINUOUS
10
0.348176
20
0.27319
11
0.344409
21
0.272441
0
LINE
8
BLACK
6
CONTINUOUS
10
0.344409
20
0.272441
11
0.32374
21
0.272441
0
LINE
8
BLACK
6
CONTINUOUS
10
0.32374
20
0.272441
11
0.319974
21
0.27319
0
LINE
8
BLACK
6
CONTINUOUS
10
0.319974
20
0.27319
11
0.31678
21
0.275324
0
LINE
8
BLACK
6
CONTINUOUS
10
0.31678
20
0.275324
11
0.314647
21
0.278517
0
LINE
8
BLACK
6
CONTINUOUS
10
0.314647
20
0.278517
11
0.313898
21
0.282283
0
LINE
8
BLACK
6
CONTINUOUS
10
0.313898
20
0.282283
11
0.313898
21
0.317717
0
LINE
8
BLACK
6
CONTINUOUS
10
0.313898
20
0.317717
11
0.314647
21
0.321483
0
LINE
8
BLACK
6
CONTINUOUS
10
0.314647
20
0.321483
11
0.31678
21
0.324676
0
LINE
8
BLACK
6
CONTINUOUS
10
0.31678
20
0.324676
11
0.319974
21
0.32681
0
LINE
8
BLACK
6
CONTINUOUS
10
0.319974
20
0.32681
11
0.32374
21
0.327559
0
LINE
8
BLACK
6
CONTINUOUS
10
0.32374
20
0.327559
11
0.344409
21
0.327559
0
LINE
8
BLACK
6
CONTINUOUS
10
0.344409
20
0.327559
11
0.348176
21
0.32681
0
LINE
8
BLACK
6
CONTINUOUS
10
0.420026
20
0.32681
11
0.42322
21
0.324676
0
LINE
8
BLACK
6
CONTINUOUS
10
0.42322
20
0.324676
11
0.425353
21
0.321483
0
LINE
8
BLACK
6
CONTINUOUS
10
0.425353
20
0.321483
11
0.426102
21
0.317717
0
LINE
8
BLACK
6
CONTINUOUS
10
0.426102
20
0.317717
11
0.426102
21
0.282283
0
LINE
8
BLACK
6
CONTINUOUS
10
0.426102
20
0.282283
11
0.425353
21
0.278517
0
LINE
8
BLACK
6
CONTINUOUS
10
0.425353
20
0.278517
11
0.42322
21
0.275324
0
LINE
8
BLACK
6
CONTINUOUS
10
0.42322
20
0.275324
11
0.420026
21
0.27319
0
LINE
8
BLACK
6
CONTINUOUS
10
0.420026
20
0.27319
11
0.41626
21
0.272441
0
LINE
8
BLACK
6
CONTINUOUS
10
0.41626
20
0.272441
11
0.395591
21
0.272441
0
LINE
8
BLACK
6
CONTINUOUS
10
0.395591
20
0.272441
11
0.391824
21
0.27319
0
LINE
8
BLACK
6
CONTINUOUS
10
0.391824
20
0.27319
11
0.388631
21
0.275324
0
LINE
8
BLACK
6
CONTINUOUS
10
0.388631
20
0.275324
11
0.386497
21
0.278517
0
LINE
8
BLACK
6
CONTINUOUS
10
0.386497
20
0.278517
11
0.385748
21
0.282283
0
LINE
8
BLACK
6
CONTINUOUS
10
0.385748
20
0.282283
11
0.385748
21
0.317717
0
LINE
8
BLACK
6
CONTINUOUS
10
0.385748
20
0.317717
11
0.386497
21
0.321483
0
LINE
8
BLACK
6
CONTINUOUS
10
0.386497
20
0.321483
11
0.388631
21
0.324676
0
LINE
8
BLACK
6
CONTINUOUS
10
0.388631
20
0.324676
11
0.391824
21
0.32681
0
LINE
8
BLACK
6
CONTINUOUS
10
0.391824
20
0.32681
11
0.395591
21
0.327559
0
LINE
8
BLACK
6
CONTINUOUS
10
0.395591
20
0.327559
11
0.41626
21
0.327559
0
LINE
8
BLACK
6
CONTINUOUS
10
0.41626
20
0.327559
11
0.420026
21
0.32681
0
LINE
8
BLACK
6
CONTINUOUS
10
0.531483
20
0.321278
11
0.534676
21
0.319145
0
LINE
8
BLACK
6
CONTINUOUS
10
0.534676
20
0.319145
11
0.53681
21
0.315952
0
LINE
8
BLACK
6
CONTINUOUS
10
0.53681
20
0.315952
11
0.537559
21
0.312185
0
LINE
8
BLACK
6
CONTINUOUS
10
0.537559
20
0.312185
11
0.537559
21
0.291516
0
LINE
8
BLACK
6
CONTINUOUS
10
0.537559
20
0.291516
11
0.53681
21
0.287749
0
LINE
8
BLACK
6
CONTINUOUS
10
0.53681
20
0.287749
11
0.534676
21
0.284556
0
LINE
8
BLACK
6
CONTINUOUS
10
0.534676
20
0.284556
11
0.531483
21
0.282422
0
LINE
8
BLACK
6
CONTINUOUS
10
0.531483
20
0.282422
11
0.527717
21
0.281673
0
LINE
8
BLACK
6
CONTINUOUS
10
0.527717
20
0.281673
11
0.492283
21
0.281673
0
LINE
8
BLACK
6
CONTINUOUS
10
0.492283
20
0.281673
11
0.488517
21
0.282422
0
LINE
8
BLACK
6
CONTINUOUS
10
0.488517
20
0.282422
11
0.485324
21
0.284556
0
LINE
8
BLACK
6
CONTINUOUS
10
0.485324
20
0.284556
11
0.48319
21
0.287749
0
LINE
8
BLACK
6
CONTINUOUS
10
0.48319
20
0.287749
11
0.482441
21
0.291516
0
LINE
8
BLACK
6
CONTINUOUS
10
0.482441
20
0.291516
11
0.482441
21
0.312185
0
LINE
8
BLACK
6
CONTINUOUS
10
0.482441
20
0.312185
11
0.48319
21
0.315952
0
LINE
8
BLACK
6
CONTINUOUS
10
0.48319
20
0.315952
11
0.485324
21
0.319145
0
LINE
8
BLACK
6
CONTINUOUS
10
0.485324
20
0.319145
11
0.488517
21
0.321278
0
LINE
8
BLACK
6
CONTINUOUS
10
0.488517
20
0.321278
11
0.492283
21
0.322028
0
LINE
8
BLACK
6
CONTINUOUS
10
0.492283
20
0.322028
11
0.527717
21
0.322028
0
LINE
8
BLACK
6
CONTINUOUS
10
0.527717
20
0.322028
11
0.531483
21
0.321278
0
LINE
8
BLACK
6
CONTINUOUS
10
2.16148
20
0.325353
11
2.16468
21
0.32322
0
LINE
8
BLACK
6
CONTINUOUS
10
2.16468
20
0.32322
11
2.16681
21
0.320026
0
LINE
8
BLACK
6
CONTINUOUS
10
2.16681
20
0.320026
11
2.16756
21
0.31626
0
LINE
8
BLACK
6
CONTINUOUS
10
2.16756
20
0.31626
11
2.16756
21
0.295591
0
LINE
8
BLACK
6
CONTINUOUS
10
2.16756
20
0.295591
11
2.16681
21
0.291824
0
LINE
8
BLACK
6
CONTINUOUS
10
2.16681
20
0.291824
11
2.16468
21
0.288631
0
LINE
8
BLACK
6
CONTINUOUS
10
2.16468
20
0.288631
11
2.16148
21
0.286497
0
LINE
8
BLACK
6
CONTINUOUS
10
2.16148
20
0.286497
11
2.15772
21
0.285748
0
LINE
8
BLACK
6
CONTINUOUS
10
2.15772
20
0.285748
11
2.12228
21
0.285748
0
LINE
8
BLACK
6
CONTINUOUS
10
2.12228
20
0.285748
11
2.11852
21
0.286497
0
LINE
8
BLACK
6
CONTINUOUS
10
2.11852
20
0.286497
11
2.11532
21
0.288631
0
LINE
8
BLACK
6
CONTINUOUS
10
2.11532
20
0.288631
11
2.11319
21
0.291824
0
LINE
8
BLACK
6
CONTINUOUS
10
2.11319
20
0.291824
11
2.11244
21
0.295591
0
LINE
8
BLACK
6
CONTINUOUS
10
2.11244
20
0.295591
11
2.11244
21
0.31626
0
LINE
8
BLACK
6
CONTINUOUS
10
2.11244
20
0.31626
11
2.11319
21
0.320026
0
LINE
8
BLACK
6
CONTINUOUS
10
2.11319
20
0.320026
11
2.11532
21
0.32322
0
LINE
8
BLACK
6
CONTINUOUS
10
2.11532
20
0.32322
11
2.11852
21
0.325353
0
LINE
8
BLACK
6
CONTINUOUS
10
2.11852
20
0.325353
11
2.12228
21
0.326102
0
LINE
8
BLACK
6
CONTINUOUS
10
2.12228
20
0.326102
11
2.15772
21
0.326102
0
LINE
8
BLACK
6
CONTINUOUS
10
2.15772
20
0.326102
11
2.16148
21
0.325353
0
LINE
8
BLACK
6
CONTINUOUS
10
2.16148
20
0.393503
11
2.16468
21
0.391369
0
LINE
8
BLACK
6
CONTINUOUS
10
2.16468
20
0.391369
11
2.16681
21
0.388176
0
LINE
8
BLACK
6
CONTINUOUS
10
2.16681
20
0.388176
11
2.16756
21
0.384409
0
LINE
8
BLACK
6
CONTINUOUS
10
2.16756
20
0.384409
11
2.16756
21
0.36374
0
LINE
8
BLACK
6
CONTINUOUS
10
2.16756
20
0.36374
11
2.16681
21
0.359974
0
LINE
8
BLACK
6
CONTINUOUS
10
2.16681
20
0.359974
11
2.16468
21
0.35678
0
LINE
8
BLACK
6
CONTINUOUS
10
2.16468
20
0.35678
11
2.16148
21
0.354647
0
LINE
8
BLACK
6
CONTINUOUS
10
2.16148
20
0.354647
11
2.15772
21
0.353898
0
LINE
8
BLACK
6
CONTINUOUS
10
2.15772
20
0.353898
11
2.12228
21
0.353898
0
LINE
8
BLACK
6
CONTINUOUS
10
2.12228
20
0.353898
11
2.11852
21
0.354647
0
LINE
8
BLACK
6
CONTINUOUS
10
2.11852
20
0.354647
11
2.11532
21
0.35678
0
LINE
8
BLACK
6
CONTINUOUS
10
2.11532
20
0.35678
11
2.11319
21
0.359974
0
LINE
8
BLACK
6
CONTINUOUS
10
2.11319
20
0.359974
11
2.11244
21
0.36374
0
LINE
8
BLACK
6
CONTINUOUS
10
2.11244
20
0.36374
11
2.11244
21
0.384409
0
LINE
8
BLACK
6
CONTINUOUS
10
2.11244
20
0.384409
11
2.11319
21
0.388176
0
LINE
8
BLACK
6
CONTINUOUS
10
2.11319
20
0.388176
11
2.11532
21
0.391369
0
LINE
8
BLACK
6
CONTINUOUS
10
2.11532
20
0.391369
11
2.11852
21
0.393503
0
LINE
8
BLACK
6
CONTINUOUS
10
2.11852
20
0.393503
11
2.12228
21
0.394252
0
LINE
8
BLACK
6
CONTINUOUS
10
2.12228
20
0.394252
11
2.15772
21
0.394252
0
LINE
8
BLACK
6
CONTINUOUS
10
2.15772
20
0.394252
11
2.16148
21
0.393503
0
LINE
8
BLACK
6
CONTINUOUS
10
2.06386
20
0.359803
11
2.00244
21
0.359803
0
LINE
8
BLACK
6
CONTINUOUS
10
2.00244
20
0.359803
11
2.00244
21
0.385394
0
LINE
8
BLACK
6
CONTINUOUS
10
2.00244
20
0.385394
11
2.06386
21
0.385394
0
LINE
8
BLACK
6
CONTINUOUS
10
2.06386
20
0.385394
11
2.06386
21
0.359803
0
LINE
8
BLACK
6
CONTINUOUS
10
1.95756
20
0.359803
11
1.89614
21
0.359803
0
LINE
8
BLACK
6
CONTINUOUS
10
1.89614
20
0.359803
11
1.89614
21
0.385394
0
LINE
8
BLACK
6
CONTINUOUS
10
1.89614
20
0.385394
11
1.95756
21
0.385394
0
LINE
8
BLACK
6
CONTINUOUS
10
1.95756
20
0.385394
11
1.95756
21
0.359803
0
LINE
8
BLACK
6
CONTINUOUS
10
1.84609
20
0.418739
11
1.84928
21
0.416605
0
LINE
8
BLACK
6
CONTINUOUS
10
1.84928
20
0.416605
11
1.85142
21
0.413412
0
LINE
8
BLACK
6
CONTINUOUS
10
1.85142
20
0.413412
11
1.85217
21
0.409646
0
LINE
8
BLACK
6
CONTINUOUS
10
1.85217
20
0.409646
11
1.85217
21
0.373228
0
LINE
8
BLACK
6
CONTINUOUS
10
1.85217
20
0.373228
11
1.85142
21
0.369462
0
LINE
8
BLACK
6
CONTINUOUS
10
1.85142
20
0.369462
11
1.84928
21
0.366269
0
LINE
8
BLACK
6
CONTINUOUS
10
1.84928
20
0.366269
11
1.84609
21
0.364135
0
LINE
8
BLACK
6
CONTINUOUS
10
1.84609
20
0.364135
11
1.84232
21
0.363386
0
LINE
8
BLACK
6
CONTINUOUS
10
1.84232
20
0.363386
11
1.75768
21
0.363386
0
LINE
8
BLACK
6
CONTINUOUS
10
1.75768
20
0.363386
11
1.75391
21
0.364135
0
LINE
8
BLACK
6
CONTINUOUS
10
1.75391
20
0.364135
11
1.75072
21
0.366269
0
LINE
8
BLACK
6
CONTINUOUS
10
1.75072
20
0.366269
11
1.74858
21
0.369462
0
LINE
8
BLACK
6
CONTINUOUS
10
1.74858
20
0.369462
11
1.74783
21
0.373228
0
LINE
8
BLACK
6
CONTINUOUS
10
1.74783
20
0.373228
11
1.74783
21
0.409646
0
LINE
8
BLACK
6
CONTINUOUS
10
1.74783
20
0.409646
11
1.74858
21
0.413412
0
LINE
8
BLACK
6
CONTINUOUS
10
1.74858
20
0.413412
11
1.75072
21
0.416605
0
LINE
8
BLACK
6
CONTINUOUS
10
1.75072
20
0.416605
11
1.75391
21
0.418739
0
LINE
8
BLACK
6
CONTINUOUS
10
1.75391
20
0.418739
11
1.75768
21
0.419488
0
LINE
8
BLACK
6
CONTINUOUS
10
1.75768
20
0.419488
11
1.84232
21
0.419488
0
LINE
8
BLACK
6
CONTINUOUS
10
1.84232
20
0.419488
11
1.84609
21
0.418739
0
LINE
8
BLACK
6
CONTINUOUS
10
2.29
20
0.37
11
2.23
21
0.37
0
LINE
8
BLACK
6
CONTINUOUS
10
2.23
20
0.37
11
2.23
21
0.43
0
LINE
8
BLACK
6
CONTINUOUS
10
2.23
20
0.43
11
2.29
21
0.43
0
LINE
8
BLACK
6
CONTINUOUS
10
2.29
20
0.43
11
2.29
21
0.37
0
LINE
8
BLACK
6
CONTINUOUS
10
2.39
20
0.37
11
2.33
21
0.37
0
LINE
8
BLACK
6
CONTINUOUS
10
2.33
20
0.37
11
2.33
21
0.43
0
LINE
8
BLACK
6
CONTINUOUS
10
2.33
20
0.43
11
2.39
21
0.43
0
LINE
8
BLACK
6
CONTINUOUS
10
2.39
20
0.43
11
2.39
21
0.37
0
LINE
8
BLACK
6
CONTINUOUS
10
1.95756
20
0.397205
11
1.89614
21
0.397205
0
LINE
8
BLACK
6
CONTINUOUS
10
1.89614
20
0.397205
11
1.89614
21
0.422795
0
LINE
8
BLACK
6
CONTINUOUS
10
1.89614
20
0.422795
11
1.95756
21
0.422795
0
LINE
8
BLACK
6
CONTINUOUS
10
1.95756
20
0.422795
11
1.95756
21
0.397205
0
LINE
8
BLACK
6
CONTINUOUS
10
2.06386
20
0.397205
11
2.00244
21
0.397205
0
LINE
8
BLACK
6
CONTINUOUS
10
2.00244
20
0.397205
11
2.00244
21
0.422795
0
LINE
8
BLACK
6
CONTINUOUS
10
2.00244
20
0.422795
11
2.06386
21
0.422795
0
LINE
8
BLACK
6
CONTINUOUS
10
2.06386
20
0.422795
11
2.06386
21
0.397205
0
LINE
8
BLACK
6
CONTINUOUS
10
1.20818
20
0.46681
11
1.21137
21
0.464676
0
LINE
8
BLACK
6
CONTINUOUS
10
1.21137
20
0.464676
11
1.2135
21
0.461483
0
LINE
8
BLACK
6
CONTINUOUS
10
1.2135
20
0.461483
11
1.21425
21
0.457717
0
LINE
8
BLACK
6
CONTINUOUS
10
1.21425
20
0.457717
11
1.21425
21
0.422283
0
LINE
8
BLACK
6
CONTINUOUS
10
1.21425
20
0.422283
11
1.2135
21
0.418517
0
LINE
8
BLACK
6
CONTINUOUS
10
1.2135
20
0.418517
11
1.21137
21
0.415324
0
LINE
8
BLACK
6
CONTINUOUS
10
1.21137
20
0.415324
11
1.20818
21
0.41319
0
LINE
8
BLACK
6
CONTINUOUS
10
1.20818
20
0.41319
11
1.20441
21
0.412441
0
LINE
8
BLACK
6
CONTINUOUS
10
1.20441
20
0.412441
11
1.18374
21
0.412441
0
LINE
8
BLACK
6
CONTINUOUS
10
1.18374
20
0.412441
11
1.17997
21
0.41319
0
LINE
8
BLACK
6
CONTINUOUS
10
1.17997
20
0.41319
11
1.17678
21
0.415324
0
LINE
8
BLACK
6
CONTINUOUS
10
1.17678
20
0.415324
11
1.17465
21
0.418517
0
LINE
8
BLACK
6
CONTINUOUS
10
1.17465
20
0.418517
11
1.1739
21
0.422283
0
LINE
8
BLACK
6
CONTINUOUS
10
1.1739
20
0.422283
11
1.1739
21
0.457717
0
LINE
8
BLACK
6
CONTINUOUS
10
1.1739
20
0.457717
11
1.17465
21
0.461483
0
LINE
8
BLACK
6
CONTINUOUS
10
1.17465
20
0.461483
11
1.17678
21
0.464676
0
LINE
8
BLACK
6
CONTINUOUS
10
1.17678
20
0.464676
11
1.17997
21
0.46681
0
LINE
8
BLACK
6
CONTINUOUS
10
1.17997
20
0.46681
11
1.18374
21
0.467559
0
LINE
8
BLACK
6
CONTINUOUS
10
1.18374
20
0.467559
11
1.20441
21
0.467559
0
LINE
8
BLACK
6
CONTINUOUS
10
1.20441
20
0.467559
11
1.20818
21
0.46681
0
LINE
8
BLACK
6
CONTINUOUS
10
1.28003
20
0.46681
11
1.28322
21
0.464676
0
LINE
8
BLACK
6
CONTINUOUS
10
1.28322
20
0.464676
11
1.28535
21
0.461483
0
LINE
8
BLACK
6
CONTINUOUS
10
1.28535
20
0.461483
11
1.2861
21
0.457717
0
LINE
8
BLACK
6
CONTINUOUS
10
1.2861
20
0.457717
11
1.2861
21
0.422283
0
LINE
8
BLACK
6
CONTINUOUS
10
1.2861
20
0.422283
11
1.28535
21
0.418517
0
LINE
8
BLACK
6
CONTINUOUS
10
1.28535
20
0.418517
11
1.28322
21
0.415324
0
LINE
8
BLACK
6
CONTINUOUS
10
1.28322
20
0.415324
11
1.28003
21
0.41319
0
LINE
8
BLACK
6
CONTINUOUS
10
1.28003
20
0.41319
11
1.27626
21
0.412441
0
LINE
8
BLACK
6
CONTINUOUS
10
1.27626
20
0.412441
11
1.25559
21
0.412441
0
LINE
8
BLACK
6
CONTINUOUS
10
1.25559
20
0.412441
11
1.25182
21
0.41319
0
LINE
8
BLACK
6
CONTINUOUS
10
1.25182
20
0.41319
11
1.24863
21
0.415324
0
LINE
8
BLACK
6
CONTINUOUS
10
1.24863
20
0.415324
11
1.2465
21
0.418517
0
LINE
8
BLACK
6
CONTINUOUS
10
1.2465
20
0.418517
11
1.24575
21
0.422283
0
LINE
8
BLACK
6
CONTINUOUS
10
1.24575
20
0.422283
11
1.24575
21
0.457717
0
LINE
8
BLACK
6
CONTINUOUS
10
1.24575
20
0.457717
11
1.2465
21
0.461483
0
LINE
8
BLACK
6
CONTINUOUS
10
1.2465
20
0.461483
11
1.24863
21
0.464676
0
LINE
8
BLACK
6
CONTINUOUS
10
1.24863
20
0.464676
11
1.25182
21
0.46681
0
LINE
8
BLACK
6
CONTINUOUS
10
1.25182
20
0.46681
11
1.25559
21
0.467559
0
LINE
8
BLACK
6
CONTINUOUS
10
1.25559
20
0.467559
11
1.27626
21
0.467559
0
LINE
8
BLACK
6
CONTINUOUS
10
1.27626
20
0.467559
11
1.28003
21
0.46681
0
LINE
8
BLACK
6
CONTINUOUS
10
1.49247
20
0.451534
11
1.49566
21
0.449401
0
LINE
8
BLACK
6
CONTINUOUS
10
1.49566
20
0.449401
11
1.49779
21
0.446208
0
LINE
8
BLACK
6
CONTINUOUS
10
1.49779
20
0.446208
11
1.49854
21
0.442441
0
LINE
8
BLACK
6
CONTINUOUS
10
1.49854
20
0.442441
11
1.49854
21
0.422756
0
LINE
8
BLACK
6
CONTINUOUS
10
1.49854
20
0.422756
11
1.49779
21
0.418989
0
LINE
8
BLACK
6
CONTINUOUS
10
1.49779
20
0.418989
11
1.49566
21
0.415796
0
LINE
8
BLACK
6
CONTINUOUS
10
1.49566
20
0.415796
11
1.49247
21
0.413663
0
LINE
8
BLACK
6
CONTINUOUS
10
1.49247
20
0.413663
11
1.4887
21
0.412913
0
LINE
8
BLACK
6
CONTINUOUS
10
1.4887
20
0.412913
11
1.4513
21
0.412913
0
LINE
8
BLACK
6
CONTINUOUS
10
1.4513
20
0.412913
11
1.44753
21
0.413663
0
LINE
8
BLACK
6
CONTINUOUS
10
1.44753
20
0.413663
11
1.44434
21
0.415796
0
LINE
8
BLACK
6
CONTINUOUS
10
1.44434
20
0.415796
11
1.44221
21
0.418989
0
LINE
8
BLACK
6
CONTINUOUS
10
1.44221
20
0.418989
11
1.44146
21
0.422756
0
LINE
8
BLACK
6
CONTINUOUS
10
1.44146
20
0.422756
11
1.44146
21
0.442441
0
LINE
8
BLACK
6
CONTINUOUS
10
1.44146
20
0.442441
11
1.44221
21
0.446208
0
LINE
8
BLACK
6
CONTINUOUS
10
1.44221
20
0.446208
11
1.44434
21
0.449401
0
LINE
8
BLACK
6
CONTINUOUS
10
1.44434
20
0.449401
11
1.44753
21
0.451534
0
LINE
8
BLACK
6
CONTINUOUS
10
1.44753
20
0.451534
11
1.4513
21
0.452283
0
LINE
8
BLACK
6
CONTINUOUS
10
1.4513
20
0.452283
11
1.4887
21
0.452283
0
LINE
8
BLACK
6
CONTINUOUS
10
1.4887
20
0.452283
11
1.49247
21
0.451534
0
LINE
8
BLACK
6
CONTINUOUS
10
0.660026
20
0.47681
11
0.66322
21
0.474676
0
LINE
8
BLACK
6
CONTINUOUS
10
0.66322
20
0.474676
11
0.665353
21
0.471483
0
LINE
8
BLACK
6
CONTINUOUS
10
0.665353
20
0.471483
11
0.666102
21
0.467717
0
LINE
8
BLACK
6
CONTINUOUS
10
0.666102
20
0.467717
11
0.666102
21
0.432283
0
LINE
8
BLACK
6
CONTINUOUS
10
0.666102
20
0.432283
11
0.665353
21
0.428517
0
LINE
8
BLACK
6
CONTINUOUS
10
0.665353
20
0.428517
11
0.66322
21
0.425324
0
LINE
8
BLACK
6
CONTINUOUS
10
0.66322
20
0.425324
11
0.660026
21
0.42319
0
LINE
8
BLACK
6
CONTINUOUS
10
0.660026
20
0.42319
11
0.65626
21
0.422441
0
LINE
8
BLACK
6
CONTINUOUS
10
0.65626
20
0.422441
11
0.635591
21
0.422441
0
LINE
8
BLACK
6
CONTINUOUS
10
0.635591
20
0.422441
11
0.631824
21
0.42319
0
LINE
8
BLACK
6
CONTINUOUS
10
0.631824
20
0.42319
11
0.628631
21
0.425324
0
LINE
8
BLACK
6
CONTINUOUS
10
0.628631
20
0.425324
11
0.626497
21
0.428517
0
LINE
8
BLACK
6
CONTINUOUS
10
0.626497
20
0.428517
11
0.625748
21
0.432283
0
LINE
8
BLACK
6
CONTINUOUS
10
0.625748
20
0.432283
11
0.625748
21
0.467717
0
LINE
8
BLACK
6
CONTINUOUS
10
0.625748
20
0.467717
11
0.626497
21
0.471483
0
LINE
8
BLACK
6
CONTINUOUS
10
0.626497
20
0.471483
11
0.628631
21
0.474676
0
LINE
8
BLACK
6
CONTINUOUS
10
0.628631
20
0.474676
11
0.631824
21
0.47681
0
LINE
8
BLACK
6
CONTINUOUS
10
0.631824
20
0.47681
11
0.635591
21
0.477559
0
LINE
8
BLACK
6
CONTINUOUS
10
0.635591
20
0.477559
11
0.65626
21
0.477559
0
LINE
8
BLACK
6
CONTINUOUS
10
0.65626
20
0.477559
11
0.660026
21
0.47681
0
LINE
8
BLACK
6
CONTINUOUS
10
0.588176
20
0.47681
11
0.591369
21
0.474676
0
LINE
8
BLACK
6
CONTINUOUS
10
0.591369
20
0.474676
11
0.593503
21
0.471483
0
LINE
8
BLACK
6
CONTINUOUS
10
0.593503
20
0.471483
11
0.594252
21
0.467717
0
LINE
8
BLACK
6
CONTINUOUS
10
0.594252
20
0.467717
11
0.594252
21
0.432283
0
LINE
8
BLACK
6
CONTINUOUS
10
0.594252
20
0.432283
11
0.593503
21
0.428517
0
LINE
8
BLACK
6
CONTINUOUS
10
0.593503
20
0.428517
11
0.591369
21
0.425324
0
LINE
8
BLACK
6
CONTINUOUS
10
0.591369
20
0.425324
11
0.588176
21
0.42319
0
LINE
8
BLACK
6
CONTINUOUS
10
0.588176
20
0.42319
11
0.584409
21
0.422441
0
LINE
8
BLACK
6
CONTINUOUS
10
0.584409
20
0.422441
11
0.56374
21
0.422441
0
LINE
8
BLACK
6
CONTINUOUS
10
0.56374
20
0.422441
11
0.559974
21
0.42319
0
LINE
8
BLACK
6
CONTINUOUS
10
0.559974
20
0.42319
11
0.55678
21
0.425324
0
LINE
8
BLACK
6
CONTINUOUS
10
0.55678
20
0.425324
11
0.554647
21
0.428517
0
LINE
8
BLACK
6
CONTINUOUS
10
0.554647
20
0.428517
11
0.553898
21
0.432283
0
LINE
8
BLACK
6
CONTINUOUS
10
0.553898
20
0.432283
11
0.553898
21
0.467717
0
LINE
8
BLACK
6
CONTINUOUS
10
0.553898
20
0.467717
11
0.554647
21
0.471483
0
LINE
8
BLACK
6
CONTINUOUS
10
0.554647
20
0.471483
11
0.55678
21
0.474676
0
LINE
8
BLACK
6
CONTINUOUS
10
0.55678
20
0.474676
11
0.559974
21
0.47681
0
LINE
8
BLACK
6
CONTINUOUS
10
0.559974
20
0.47681
11
0.56374
21
0.477559
0
LINE
8
BLACK
6
CONTINUOUS
10
0.56374
20
0.477559
11
0.584409
21
0.477559
0
LINE
8
BLACK
6
CONTINUOUS
10
0.584409
20
0.477559
11
0.588176
21
0.47681
0
LINE
8
BLACK
6
CONTINUOUS
10
0.848176
20
0.47681
11
0.851369
21
0.474676
0
LINE
8
BLACK
6
CONTINUOUS
10
0.851369
20
0.474676
11
0.853503
21
0.471483
0
LINE
8
BLACK
6
CONTINUOUS
10
0.853503
20
0.471483
11
0.854252
21
0.467717
0
LINE
8
BLACK
6
CONTINUOUS
10
0.854252
20
0.467717
11
0.854252
21
0.432283
0
LINE
8
BLACK
6
CONTINUOUS
10
0.854252
20
0.432283
11
0.853503
21
0.428517
0
LINE
8
BLACK
6
CONTINUOUS
10
0.853503
20
0.428517
11
0.851369
21
0.425324
0
LINE
8
BLACK
6
CONTINUOUS
10
0.851369
20
0.425324
11
0.848176
21
0.42319
0
LINE
8
BLACK
6
CONTINUOUS
10
0.848176
20
0.42319
11
0.844409
21
0.422441
0
LINE
8
BLACK
6
CONTINUOUS
10
0.844409
20
0.422441
11
0.82374
21
0.422441
0
LINE
8
BLACK
6
CONTINUOUS
10
0.82374
20
0.422441
11
0.819974
21
0.42319
0
LINE
8
BLACK
6
CONTINUOUS
10
0.819974
20
0.42319
11
0.81678
21
0.425324
0
LINE
8
BLACK
6
CONTINUOUS
10
0.81678
20
0.425324
11
0.814647
21
0.428517
0
LINE
8
BLACK
6
CONTINUOUS
10
0.814647
20
0.428517
11
0.813898
21
0.432283
0
LINE
8
BLACK
6
CONTINUOUS
10
0.813898
20
0.432283
11
0.813898
21
0.467717
0
LINE
8
BLACK
6
CONTINUOUS
10
0.813898
20
0.467717
11
0.814647
21
0.471483
0
LINE
8
BLACK
6
CONTINUOUS
10
0.814647
20
0.471483
11
0.81678
21
0.474676
0
LINE
8
BLACK
6
CONTINUOUS
10
0.81678
20
0.474676
11
0.819974
21
0.47681
0
LINE
8
BLACK
6
CONTINUOUS
10
0.819974
20
0.47681
11
0.82374
21
0.477559
0
LINE
8
BLACK
6
CONTINUOUS
10
0.82374
20
0.477559
11
0.844409
21
0.477559
0
LINE
8
BLACK
6
CONTINUOUS
10
0.844409
20
0.477559
11
0.848176
21
0.47681
0
LINE
8
BLACK
6
CONTINUOUS
10
0.334101
20
0.47681
11
0.337294
21
0.474676
0
LINE
8
BLACK
6
CONTINUOUS
10
0.337294
20
0.474676
11
0.339428
21
0.471483
0
LINE
8
BLACK
6
CONTINUOUS
10
0.339428
20
0.471483
11
0.340177
21
0.467717
0
LINE
8
BLACK
6
CONTINUOUS
10
0.340177
20
0.467717
11
0.340177
21
0.432283
0
LINE
8
BLACK
6
CONTINUOUS
10
0.340177
20
0.432283
11
0.339428
21
0.428517
0
LINE
8
BLACK
6
CONTINUOUS
10
0.339428
20
0.428517
11
0.337294
21
0.425324
0
LINE
8
BLACK
6
CONTINUOUS
10
0.337294
20
0.425324
11
0.334101
21
0.42319
0
LINE
8
BLACK
6
CONTINUOUS
10
0.334101
20
0.42319
11
0.330335
21
0.422441
0
LINE
8
BLACK
6
CONTINUOUS
10
0.330335
20
0.422441
11
0.309665
21
0.422441
0
LINE
8
BLACK
6
CONTINUOUS
10
0.309665
20
0.422441
11
0.305899
21
0.42319
0
LINE
8
BLACK
6
CONTINUOUS
10
0.305899
20
0.42319
11
0.302706
21
0.425324
0
LINE
8
BLACK
6
CONTINUOUS
10
0.302706
20
0.425324
11
0.300572
21
0.428517
0
LINE
8
BLACK
6
CONTINUOUS
10
0.300572
20
0.428517
11
0.299823
21
0.432283
0
LINE
8
BLACK
6
CONTINUOUS
10
0.299823
20
0.432283
11
0.299823
21
0.467717
0
LINE
8
BLACK
6
CONTINUOUS
10
0.299823
20
0.467717
11
0.300572
21
0.471483
0
LINE
8
BLACK
6
CONTINUOUS
10
0.300572
20
0.471483
11
0.302706
21
0.474676
0
LINE
8
BLACK
6
CONTINUOUS
10
0.302706
20
0.474676
11
0.305899
21
0.47681
0
LINE
8
BLACK
6
CONTINUOUS
10
0.305899
20
0.47681
11
0.309665
21
0.477559
0
LINE
8
BLACK
6
CONTINUOUS
10
0.309665
20
0.477559
11
0.330335
21
0.477559
0
LINE
8
BLACK
6
CONTINUOUS
10
0.330335
20
0.477559
11
0.334101
21
0.47681
0
LINE
8
BLACK
6
CONTINUOUS
10
0.405952
20
0.47681
11
0.409145
21
0.474676
0
LINE
8
BLACK
6
CONTINUOUS
10
0.409145
20
0.474676
11
0.411278
21
0.471483
0
LINE
8
BLACK
6
CONTINUOUS
10
0.411278
20
0.471483
11
0.412028
21
0.467717
0
LINE
8
BLACK
6
CONTINUOUS
10
0.412028
20
0.467717
11
0.412028
21
0.432283
0
LINE
8
BLACK
6
CONTINUOUS
10
0.412028
20
0.432283
11
0.411278
21
0.428517
0
LINE
8
BLACK
6
CONTINUOUS
10
0.411278
20
0.428517
11
0.409145
21
0.425324
0
LINE
8
BLACK
6
CONTINUOUS
10
0.409145
20
0.425324
11
0.405952
21
0.42319
0
LINE
8
BLACK
6
CONTINUOUS
10
0.405952
20
0.42319
11
0.402185
21
0.422441
0
LINE
8
BLACK
6
CONTINUOUS
10
0.402185
20
0.422441
11
0.381516
21
0.422441
0
LINE
8
BLACK
6
CONTINUOUS
10
0.381516
20
0.422441
11
0.377749
21
0.42319
0
LINE
8
BLACK
6
CONTINUOUS
10
0.377749
20
0.42319
11
0.374556
21
0.425324
0
LINE
8
BLACK
6
CONTINUOUS
10
0.374556
20
0.425324
11
0.372422
21
0.428517
0
LINE
8
BLACK
6
CONTINUOUS
10
0.372422
20
0.428517
11
0.371673
21
0.432283
0
LINE
8
BLACK
6
CONTINUOUS
10
0.371673
20
0.432283
11
0.371673
21
0.467717
0
LINE
8
BLACK
6
CONTINUOUS
10
0.371673
20
0.467717
11
0.372422
21
0.471483
0
LINE
8
BLACK
6
CONTINUOUS
10
0.372422
20
0.471483
11
0.374556
21
0.474676
0
LINE
8
BLACK
6
CONTINUOUS
10
0.374556
20
0.474676
11
0.377749
21
0.47681
0
LINE
8
BLACK
6
CONTINUOUS
10
0.377749
20
0.47681
11
0.381516
21
0.477559
0
LINE
8
BLACK
6
CONTINUOUS
10
0.381516
20
0.477559
11
0.402185
21
0.477559
0
LINE
8
BLACK
6
CONTINUOUS
10
0.402185
20
0.477559
11
0.405952
21
0.47681
0
LINE
8
BLACK
6
CONTINUOUS
10
0.920026
20
0.47681
11
0.92322
21
0.474676
0
LINE
8
BLACK
6
CONTINUOUS
10
0.92322
20
0.474676
11
0.925353
21
0.471483
0
LINE
8
BLACK
6
CONTINUOUS
10
0.925353
20
0.471483
11
0.926102
21
0.467717
0
LINE
8
BLACK
6
CONTINUOUS
10
0.926102
20
0.467717
11
0.926102
21
0.432283
0
LINE
8
BLACK
6
CONTINUOUS
10
0.926102
20
0.432283
11
0.925353
21
0.428517
0
LINE
8
BLACK
6
CONTINUOUS
10
0.925353
20
0.428517
11
0.92322
21
0.425324
0
LINE
8
BLACK
6
CONTINUOUS
10
0.92322
20
0.425324
11
0.920026
21
0.42319
0
LINE
8
BLACK
6
CONTINUOUS
10
0.920026
20
0.42319
11
0.91626
21
0.422441
0
LINE
8
BLACK
6
CONTINUOUS
10
0.91626
20
0.422441
11
0.895591
21
0.422441
0
LINE
8
BLACK
6
CONTINUOUS
10
0.895591
20
0.422441
11
0.891824
21
0.42319
0
LINE
8
BLACK
6
CONTINUOUS
10
0.891824
20
0.42319
11
0.888631
21
0.425324
0
LINE
8
BLACK
6
CONTINUOUS
10
0.888631
20
0.425324
11
0.886497
21
0.428517
0
LINE
8
BLACK
6
CONTINUOUS
10
0.886497
20
0.428517
11
0.885748
21
0.432283
0
LINE
8
BLACK
6
CONTINUOUS
10
0.885748
20
0.432283
11
0.885748
21
0.467717
0
LINE
8
BLACK
6
CONTINUOUS
10
0.885748
20
0.467717
11
0.886497
21
0.471483
0
LINE
8
BLACK
6
CONTINUOUS
10
0.886497
20
0.471483
11
0.888631
21
0.474676
0
LINE
8
BLACK
6
CONTINUOUS
10
0.888631
20
0.474676
11
0.891824
21
0.47681
0
LINE
8
BLACK
6
CONTINUOUS
10
0.891824
20
0.47681
11
0.895591
21
0.477559
0
LINE
8
BLACK
6
CONTINUOUS
10
0.895591
20
0.477559
11
0.91626
21
0.477559
0
LINE
8
BLACK
6
CONTINUOUS
10
0.91626
20
0.477559
11
0.920026
21
0.47681
0
LINE
8
BLACK
6
CONTINUOUS
10
0.512467
20
0.461534
11
0.515661
21
0.459401
0
LINE
8
BLACK
6
CONTINUOUS
10
0.515661
20
0.459401
11
0.517794
21
0.456208
0
LINE
8
BLACK
6
CONTINUOUS
10
0.517794
20
0.456208
11
0.518543
21
0.452441
0
LINE
8
BLACK
6
CONTINUOUS
10
0.518543
20
0.452441
11
0.518543
21
0.432756
0
LINE
8
BLACK
6
CONTINUOUS
10
0.518543
20
0.432756
11
0.517794
21
0.428989
0
LINE
8
BLACK
6
CONTINUOUS
10
0.517794
20
0.428989
11
0.515661
21
0.425796
0
LINE
8
BLACK
6
CONTINUOUS
10
0.515661
20
0.425796
11
0.512467
21
0.423663
0
LINE
8
BLACK
6
CONTINUOUS
10
0.512467
20
0.423663
11
0.508701
21
0.422913
0
LINE
8
BLACK
6
CONTINUOUS
10
0.508701
20
0.422913
11
0.471299
21
0.422913
0
LINE
8
BLACK
6
CONTINUOUS
10
0.471299
20
0.422913
11
0.467533
21
0.423663
0
LINE
8
BLACK
6
CONTINUOUS
10
0.467533
20
0.423663
11
0.464339
21
0.425796
0
LINE
8
BLACK
6
CONTINUOUS
10
0.464339
20
0.425796
11
0.462206
21
0.428989
0
LINE
8
BLACK
6
CONTINUOUS
10
0.462206
20
0.428989
11
0.461457
21
0.432756
0
LINE
8
BLACK
6
CONTINUOUS
10
0.461457
20
0.432756
11
0.461457
21
0.452441
0
LINE
8
BLACK
6
CONTINUOUS
10
0.461457
20
0.452441
11
0.462206
21
0.456208
0
LINE
8
BLACK
6
CONTINUOUS
10
0.462206
20
0.456208
11
0.464339
21
0.459401
0
LINE
8
BLACK
6
CONTINUOUS
10
0.464339
20
0.459401
11
0.467533
21
0.461534
0
LINE
8
BLACK
6
CONTINUOUS
10
0.467533
20
0.461534
11
0.471299
21
0.462283
0
LINE
8
BLACK
6
CONTINUOUS
10
0.471299
20
0.462283
11
0.508701
21
0.462283
0
LINE
8
BLACK
6
CONTINUOUS
10
0.508701
20
0.462283
11
0.512467
21
0.461534
0
LINE
8
BLACK
6
CONTINUOUS
10
0.242467
20
0.461534
11
0.245661
21
0.459401
0
LINE
8
BLACK
6
CONTINUOUS
10
0.245661
20
0.459401
11
0.247794
21
0.456208
0
LINE
8
BLACK
6
CONTINUOUS
10
0.247794
20
0.456208
11
0.248543
21
0.452441
0
LINE
8
BLACK
6
CONTINUOUS
10
0.248543
20
0.452441
11
0.248543
21
0.432756
0
LINE
8
BLACK
6
CONTINUOUS
10
0.248543
20
0.432756
11
0.247794
21
0.428989
0
LINE
8
BLACK
6
CONTINUOUS
10
0.247794
20
0.428989
11
0.245661
21
0.425796
0
LINE
8
BLACK
6
CONTINUOUS
10
0.245661
20
0.425796
11
0.242467
21
0.423663
0
LINE
8
BLACK
6
CONTINUOUS
10
0.242467
20
0.423663
11
0.238701
21
0.422913
0
LINE
8
BLACK
6
CONTINUOUS
10
0.238701
20
0.422913
11
0.201299
21
0.422913
0
LINE
8
BLACK
6
CONTINUOUS
10
0.201299
20
0.422913
11
0.197533
21
0.423663
0
LINE
8
BLACK
6
CONTINUOUS
10
0.197533
20
0.423663
11
0.194339
21
0.425796
0
LINE
8
BLACK
6
CONTINUOUS
10
0.194339
20
0.425796
11
0.192206
21
0.428989
0
LINE
8
BLACK
6
CONTINUOUS
10
0.192206
20
0.428989
11
0.191457
21
0.432756
0
LINE
8
BLACK
6
CONTINUOUS
10
0.191457
20
0.432756
11
0.191457
21
0.452441
0
LINE
8
BLACK
6
CONTINUOUS
10
0.191457
20
0.452441
11
0.192206
21
0.456208
0
LINE
8
BLACK
6
CONTINUOUS
10
0.192206
20
0.456208
11
0.194339
21
0.459401
0
LINE
8
BLACK
6
CONTINUOUS
10
0.194339
20
0.459401
11
0.197533
21
0.461534
0
LINE
8
BLACK
6
CONTINUOUS
10
0.197533
20
0.461534
11
0.201299
21
0.462283
0
LINE
8
BLACK
6
CONTINUOUS
10
0.201299
20
0.462283
11
0.238701
21
0.462283
0
LINE
8
BLACK
6
CONTINUOUS
10
0.238701
20
0.462283
11
0.242467
21
0.461534
0
LINE
8
BLACK
6
CONTINUOUS
10
0.772467
20
0.461534
11
0.775661
21
0.459401
0
LINE
8
BLACK
6
CONTINUOUS
10
0.775661
20
0.459401
11
0.777794
21
0.456208
0
LINE
8
BLACK
6
CONTINUOUS
10
0.777794
20
0.456208
11
0.778543
21
0.452441
0
LINE
8
BLACK
6
CONTINUOUS
10
0.778543
20
0.452441
11
0.778543
21
0.432756
0
LINE
8
BLACK
6
CONTINUOUS
10
0.778543
20
0.432756
11
0.777794
21
0.428989
0
LINE
8
BLACK
6
CONTINUOUS
10
0.777794
20
0.428989
11
0.775661
21
0.425796
0
LINE
8
BLACK
6
CONTINUOUS
10
0.775661
20
0.425796
11
0.772467
21
0.423663
0
LINE
8
BLACK
6
CONTINUOUS
10
0.772467
20
0.423663
11
0.768701
21
0.422913
0
LINE
8
BLACK
6
CONTINUOUS
10
0.768701
20
0.422913
11
0.731299
21
0.422913
0
LINE
8
BLACK
6
CONTINUOUS
10
0.731299
20
0.422913
11
0.727533
21
0.423663
0
LINE
8
BLACK
6
CONTINUOUS
10
0.727533
20
0.423663
11
0.724339
21
0.425796
0
LINE
8
BLACK
6
CONTINUOUS
10
0.724339
20
0.425796
11
0.722206
21
0.428989
0
LINE
8
BLACK
6
CONTINUOUS
10
0.722206
20
0.428989
11
0.721457
21
0.432756
0
LINE
8
BLACK
6
CONTINUOUS
10
0.721457
20
0.432756
11
0.721457
21
0.452441
0
LINE
8
BLACK
6
CONTINUOUS
10
0.721457
20
0.452441
11
0.722206
21
0.456208
0
LINE
8
BLACK
6
CONTINUOUS
10
0.722206
20
0.456208
11
0.724339
21
0.459401
0
LINE
8
BLACK
6
CONTINUOUS
10
0.724339
20
0.459401
11
0.727533
21
0.461534
0
LINE
8
BLACK
6
CONTINUOUS
10
0.727533
20
0.461534
11
0.731299
21
0.462283
0
LINE
8
BLACK
6
CONTINUOUS
10
0.731299
20
0.462283
11
0.768701
21
0.462283
0
LINE
8
BLACK
6
CONTINUOUS
10
0.768701
20
0.462283
11
0.772467
21
0.461534
0
LINE
8
BLACK
6
CONTINUOUS
10
1.13247
20
0.461534
11
1.13566
21
0.459401
0
LINE
8
BLACK
6
CONTINUOUS
10
1.13566
20
0.459401
11
1.13779
21
0.456208
0
LINE
8
BLACK
6
CONTINUOUS
10
1.13779
20
0.456208
11
1.13854
21
0.452441
0
LINE
8
BLACK
6
CONTINUOUS
10
1.13854
20
0.452441
11
1.13854
21
0.432756
0
LINE
8
BLACK
6
CONTINUOUS
10
1.13854
20
0.432756
11
1.13779
21
0.428989
0
LINE
8
BLACK
6
CONTINUOUS
10
1.13779
20
0.428989
11
1.13566
21
0.425796
0
LINE
8
BLACK
6
CONTINUOUS
10
1.13566
20
0.425796
11
1.13247
21
0.423663
0
LINE
8
BLACK
6
CONTINUOUS
10
1.13247
20
0.423663
11
1.1287
21
0.422913
0
LINE
8
BLACK
6
CONTINUOUS
10
1.1287
20
0.422913
11
1.0913
21
0.422913
0
LINE
8
BLACK
6
CONTINUOUS
10
1.0913
20
0.422913
11
1.08753
21
0.423663
0
LINE
8
BLACK
6
CONTINUOUS
10
1.08753
20
0.423663
11
1.08434
21
0.425796
0
LINE
8
BLACK
6
CONTINUOUS
10
1.08434
20
0.425796
11
1.08221
21
0.428989
0
LINE
8
BLACK
6
CONTINUOUS
10
1.08221
20
0.428989
11
1.08146
21
0.432756
0
LINE
8
BLACK
6
CONTINUOUS
10
1.08146
20
0.432756
11
1.08146
21
0.452441
0
LINE
8
BLACK
6
CONTINUOUS
10
1.08146
20
0.452441
11
1.08221
21
0.456208
0
LINE
8
BLACK
6
CONTINUOUS
10
1.08221
20
0.456208
11
1.08434
21
0.459401
0
LINE
8
BLACK
6
CONTINUOUS
10
1.08434
20
0.459401
11
1.08753
21
0.461534
0
LINE
8
BLACK
6
CONTINUOUS
10
1.08753
20
0.461534
11
1.0913
21
0.462283
0
LINE
8
BLACK
6
CONTINUOUS
10
1.0913
20
0.462283
11
1.1287
21
0.462283
0
LINE
8
BLACK
6
CONTINUOUS
10
1.1287
20
0.462283
11
1.13247
21
0.461534
0
LINE
8
BLACK
6
CONTINUOUS
10
1.38247
20
0.461534
11
1.38566
21
0.459401
0
LINE
8
BLACK
6
CONTINUOUS
10
1.38566
20
0.459401
11
1.38779
21
0.456208
0
LINE
8
BLACK
6
CONTINUOUS
10
1.38779
20
0.456208
11
1.38854
21
0.452441
0
LINE
8
BLACK
6
CONTINUOUS
10
1.38854
20
0.452441
11
1.38854
21
0.432756
0
LINE
8
BLACK
6
CONTINUOUS
10
1.38854
20
0.432756
11
1.38779
21
0.428989
0
LINE
8
BLACK
6
CONTINUOUS
10
1.38779
20
0.428989
11
1.38566
21
0.425796
0
LINE
8
BLACK
6
CONTINUOUS
10
1.38566
20
0.425796
11
1.38247
21
0.423663
0
LINE
8
BLACK
6
CONTINUOUS
10
1.38247
20
0.423663
11
1.3787
21
0.422913
0
LINE
8
BLACK
6
CONTINUOUS
10
1.3787
20
0.422913
11
1.3413
21
0.422913
0
LINE
8
BLACK
6
CONTINUOUS
10
1.3413
20
0.422913
11
1.33753
21
0.423663
0
LINE
8
BLACK
6
CONTINUOUS
10
1.33753
20
0.423663
11
1.33434
21
0.425796
0
LINE
8
BLACK
6
CONTINUOUS
10
1.33434
20
0.425796
11
1.33221
21
0.428989
0
LINE
8
BLACK
6
CONTINUOUS
10
1.33221
20
0.428989
11
1.33146
21
0.432756
0
LINE
8
BLACK
6
CONTINUOUS
10
1.33146
20
0.432756
11
1.33146
21
0.452441
0
LINE
8
BLACK
6
CONTINUOUS
10
1.33146
20
0.452441
11
1.33221
21
0.456208
0
LINE
8
BLACK
6
CONTINUOUS
10
1.33221
20
0.456208
11
1.33434
21
0.459401
0
LINE
8
BLACK
6
CONTINUOUS
10
1.33434
20
0.459401
11
1.33753
21
0.461534
0
LINE
8
BLACK
6
CONTINUOUS
10
1.33753
20
0.461534
11
1.3413
21
0.462283
0
LINE
8
BLACK
6
CONTINUOUS
10
1.3413
20
0.462283
11
1.3787
21
0.462283
0
LINE
8
BLACK
6
CONTINUOUS
10
1.3787
20
0.462283
11
1.38247
21
0.461534
0
LINE
8
BLACK
6
CONTINUOUS
10
0.142467
20
0.461534
11
0.145661
21
0.459401
0
LINE
8
BLACK
6
CONTINUOUS
10
0.145661
20
0.459401
11
0.147794
21
0.456208
0
LINE
8
BLACK
6
CONTINUOUS
10
0.147794
20
0.456208
11
0.148543
21
0.452441
0
LINE
8
BLACK
6
CONTINUOUS
10
0.148543
20
0.452441
11
0.148543
21
0.432756
0
LINE
8
BLACK
6
CONTINUOUS
10
0.148543
20
0.432756
11
0.147794
21
0.428989
0
LINE
8
BLACK
6
CONTINUOUS
10
0.147794
20
0.428989
11
0.145661
21
0.425796
0
LINE
8
BLACK
6
CONTINUOUS
10
0.145661
20
0.425796
11
0.142467
21
0.423663
0
LINE
8
BLACK
6
CONTINUOUS
10
0.142467
20
0.423663
11
0.138701
21
0.422913
0
LINE
8
BLACK
6
CONTINUOUS
10
0.138701
20
0.422913
11
0.101299
21
0.422913
0
LINE
8
BLACK
6
CONTINUOUS
10
0.101299
20
0.422913
11
0.0975326
21
0.423663
0
LINE
8
BLACK
6
CONTINUOUS
10
0.0975326
20
0.423663
11
0.0943395
21
0.425796
0
LINE
8
BLACK
6
CONTINUOUS
10
0.0943395
20
0.425796
11
0.0922059
21
0.428989
0
LINE
8
BLACK
6
CONTINUOUS
10
0.0922059
20
0.428989
11
0.0914567
21
0.432756
0
LINE
8
BLACK
6
CONTINUOUS
10
0.0914567
20
0.432756
11
0.0914567
21
0.452441
0
LINE
8
BLACK
6
CONTINUOUS
10
0.0914567
20
0.452441
11
0.0922059
21
0.456208
0
LINE
8
BLACK
6
CONTINUOUS
10
0.0922059
20
0.456208
11
0.0943395
21
0.459401
0
LINE
8
BLACK
6
CONTINUOUS
10
0.0943395
20
0.459401
11
0.0975326
21
0.461534
0
LINE
8
BLACK
6
CONTINUOUS
10
0.0975326
20
0.461534
11
0.101299
21
0.462283
0
LINE
8
BLACK
6
CONTINUOUS
10
0.101299
20
0.462283
11
0.138701
21
0.462283
0
LINE
8
BLACK
6
CONTINUOUS
10
0.138701
20
0.462283
11
0.142467
21
0.461534
0
LINE
8
BLACK
6
CONTINUOUS
10
1.02247
20
0.461534
11
1.02566
21
0.459401
0
LINE
8
BLACK
6
CONTINUOUS
10
1.02566
20
0.459401
11
1.02779
21
0.456208
0
LINE
8
BLACK
6
CONTINUOUS
10
1.02779
20
0.456208
11
1.02854
21
0.452441
0
LINE
8
BLACK
6
CONTINUOUS
10
1.02854
20
0.452441
11
1.02854
21
0.432756
0
LINE
8
BLACK
6
CONTINUOUS
10
1.02854
20
0.432756
11
1.02779
21
0.428989
0
LINE
8
BLACK
6
CONTINUOUS
10
1.02779
20
0.428989
11
1.02566
21
0.425796
0
LINE
8
BLACK
6
CONTINUOUS
10
1.02566
20
0.425796
11
1.02247
21
0.423663
0
LINE
8
BLACK
6
CONTINUOUS
10
1.02247
20
0.423663
11
1.0187
21
0.422913
0
LINE
8
BLACK
6
CONTINUOUS
10
1.0187
20
0.422913
11
0.981299
21
0.422913
0
LINE
8
BLACK
6
CONTINUOUS
10
0.981299
20
0.422913
11
0.977533
21
0.423663
0
LINE
8
BLACK
6
CONTINUOUS
10
0.977533
20
0.423663
11
0.974339
21
0.425796
0
LINE
8
BLACK
6
CONTINUOUS
10
0.974339
20
0.425796
11
0.972206
21
0.428989
0
LINE
8
BLACK
6
CONTINUOUS
10
0.972206
20
0.428989
11
0.971457
21
0.432756
0
LINE
8
BLACK
6
CONTINUOUS
10
0.971457
20
0.432756
11
0.971457
21
0.452441
0
LINE
8
BLACK
6
CONTINUOUS
10
0.971457
20
0.452441
11
0.972206
21
0.456208
0
LINE
8
BLACK
6
CONTINUOUS
10
0.972206
20
0.456208
11
0.974339
21
0.459401
0
LINE
8
BLACK
6
CONTINUOUS
10
0.974339
20
0.459401
11
0.977533
21
0.461534
0
LINE
8
BLACK
6
CONTINUOUS
10
0.977533
20
0.461534
11
0.981299
21
0.462283
0
LINE
8
BLACK
6
CONTINUOUS
10
0.981299
20
0.462283
11
1.0187
21
0.462283
0
LINE
8
BLACK
6
CONTINUOUS
10
1.0187
20
0.462283
11
1.02247
21
0.461534
0
LINE
8
BLACK
6
CONTINUOUS
10
2.16148
20
0.465353
11
2.16468
21
0.46322
0
LINE
8
BLACK
6
CONTINUOUS
10
2.16468
20
0.46322
11
2.16681
21
0.460026
0
LINE
8
BLACK
6
CONTINUOUS
10
2.16681
20
0.460026
11
2.16756
21
0.45626
0
LINE
8
BLACK
6
CONTINUOUS
10
2.16756
20
0.45626
11
2.16756
21
0.435591
0
LINE
8
BLACK
6
CONTINUOUS
10
2.16756
20
0.435591
11
2.16681
21
0.431824
0
LINE
8
BLACK
6
CONTINUOUS
10
2.16681
20
0.431824
11
2.16468
21
0.428631
0
LINE
8
BLACK
6
CONTINUOUS
10
2.16468
20
0.428631
11
2.16148
21
0.426497
0
LINE
8
BLACK
6
CONTINUOUS
10
2.16148
20
0.426497
11
2.15772
21
0.425748
0
LINE
8
BLACK
6
CONTINUOUS
10
2.15772
20
0.425748
11
2.12228
21
0.425748
0
LINE
8
BLACK
6
CONTINUOUS
10
2.12228
20
0.425748
11
2.11852
21
0.426497
0
LINE
8
BLACK
6
CONTINUOUS
10
2.11852
20
0.426497
11
2.11532
21
0.428631
0
LINE
8
BLACK
6
CONTINUOUS
10
2.11532
20
0.428631
11
2.11319
21
0.431824
0
LINE
8
BLACK
6
CONTINUOUS
10
2.11319
20
0.431824
11
2.11244
21
0.435591
0
LINE
8
BLACK
6
CONTINUOUS
10
2.11244
20
0.435591
11
2.11244
21
0.45626
0
LINE
8
BLACK
6
CONTINUOUS
10
2.11244
20
0.45626
11
2.11319
21
0.460026
0
LINE
8
BLACK
6
CONTINUOUS
10
2.11319
20
0.460026
11
2.11532
21
0.46322
0
LINE
8
BLACK
6
CONTINUOUS
10
2.11532
20
0.46322
11
2.11852
21
0.465353
0
LINE
8
BLACK
6
CONTINUOUS
10
2.11852
20
0.465353
11
2.12228
21
0.466102
0
LINE
8
BLACK
6
CONTINUOUS
10
2.12228
20
0.466102
11
2.15772
21
0.466102
0
LINE
8
BLACK
6
CONTINUOUS
10
2.15772
20
0.466102
11
2.16148
21
0.465353
0
LINE
8
BLACK
6
CONTINUOUS
10
2.06386
20
0.434606
11
2.00244
21
0.434606
0
LINE
8
BLACK
6
CONTINUOUS
10
2.00244
20
0.434606
11
2.00244
21
0.460197
0
LINE
8
BLACK
6
CONTINUOUS
10
2.00244
20
0.460197
11
2.06386
21
0.460197
0
LINE
8
BLACK
6
CONTINUOUS
10
2.06386
20
0.460197
11
2.06386
21
0.434606
0
LINE
8
BLACK
6
CONTINUOUS
10
1.95756
20
0.434606
11
1.89614
21
0.434606
0
LINE
8
BLACK
6
CONTINUOUS
10
1.89614
20
0.434606
11
1.89614
21
0.460197
0
LINE
8
BLACK
6
CONTINUOUS
10
1.89614
20
0.460197
11
1.95756
21
0.460197
0
LINE
8
BLACK
6
CONTINUOUS
10
1.95756
20
0.460197
11
1.95756
21
0.434606
0
LINE
8
BLACK
6
CONTINUOUS
10
2.29
20
0.47
11
2.23
21
0.47
0
LINE
8
BLACK
6
CONTINUOUS
10
2.23
20
0.47
11
2.23
21
0.53
0
LINE
8
BLACK
6
CONTINUOUS
10
2.23
20
0.53
11
2.29
21
0.53
0
LINE
8
BLACK
6
CONTINUOUS
10
2.29
20
0.53
11
2.29
21
0.47
0
LINE
8
BLACK
6
CONTINUOUS
10
2.39
20
0.47
11
2.33
21
0.47
0
LINE
8
BLACK
6
CONTINUOUS
10
2.33
20
0.47
11
2.33
21
0.53
0
LINE
8
BLACK
6
CONTINUOUS
10
2.33
20
0.53
11
2.39
21
0.53
0
LINE
8
BLACK
6
CONTINUOUS
10
2.39
20
0.53
11
2.39
21
0.47
0
LINE
8
BLACK
6
CONTINUOUS
10
1.84609
20
0.535865
11
1.84928
21
0.533731
0
LINE
8
BLACK
6
CONTINUOUS
10
1.84928
20
0.533731
11
1.85142
21
0.530538
0
LINE
8
BLACK
6
CONTINUOUS
10
1.85142
20
0.530538
11
1.85217
21
0.526772
0
LINE
8
BLACK
6
CONTINUOUS
10
1.85217
20
0.526772
11
1.85217
21
0.490354
0
LINE
8
BLACK
6
CONTINUOUS
10
1.85217
20
0.490354
11
1.85142
21
0.486588
0
LINE
8
BLACK
6
CONTINUOUS
10
1.85142
20
0.486588
11
1.84928
21
0.483395
0
LINE
8
BLACK
6
CONTINUOUS
10
1.84928
20
0.483395
11
1.84609
21
0.481261
0
LINE
8
BLACK
6
CONTINUOUS
10
1.84609
20
0.481261
11
1.84232
21
0.480512
0
LINE
8
BLACK
6
CONTINUOUS
10
1.84232
20
0.480512
11
1.75768
21
0.480512
0
LINE
8
BLACK
6
CONTINUOUS
10
1.75768
20
0.480512
11
1.75391
21
0.481261
0
LINE
8
BLACK
6
CONTINUOUS
10
1.75391
20
0.481261
11
1.75072
21
0.483395
0
LINE
8
BLACK
6
CONTINUOUS
10
1.75072
20
0.483395
11
1.74858
21
0.486588
0
LINE
8
BLACK
6
CONTINUOUS
10
1.74858
20
0.486588
11
1.74783
21
0.490354
0
LINE
8
BLACK
6
CONTINUOUS
10
1.74783
20
0.490354
11
1.74783
21
0.526772
0
LINE
8
BLACK
6
CONTINUOUS
10
1.74783
20
0.526772
11
1.74858
21
0.530538
0
LINE
8
BLACK
6
CONTINUOUS
10
1.74858
20
0.530538
11
1.75072
21
0.533731
0
LINE
8
BLACK
6
CONTINUOUS
10
1.75072
20
0.533731
11
1.75391
21
0.535865
0
LINE
8
BLACK
6
CONTINUOUS
10
1.75391
20
0.535865
11
1.75768
21
0.536614
0
LINE
8
BLACK
6
CONTINUOUS
10
1.75768
20
0.536614
11
1.84232
21
0.536614
0
LINE
8
BLACK
6
CONTINUOUS
10
1.84232
20
0.536614
11
1.84609
21
0.535865
0
LINE
8
BLACK
6
CONTINUOUS
10
1.49247
20
0.526337
11
1.49566
21
0.524204
0
LINE
8
BLACK
6
CONTINUOUS
10
1.49566
20
0.524204
11
1.49779
21
0.521011
0
LINE
8
BLACK
6
CONTINUOUS
10
1.49779
20
0.521011
11
1.49854
21
0.517244
0
LINE
8
BLACK
6
CONTINUOUS
10
1.49854
20
0.517244
11
1.49854
21
0.497559
0
LINE
8
BLACK
6
CONTINUOUS
10
1.49854
20
0.497559
11
1.49779
21
0.493792
0
LINE
8
BLACK
6
CONTINUOUS
10
1.49779
20
0.493792
11
1.49566
21
0.490599
0
LINE
8
BLACK
6
CONTINUOUS
10
1.49566
20
0.490599
11
1.49247
21
0.488466
0
LINE
8
BLACK
6
CONTINUOUS
10
1.49247
20
0.488466
11
1.4887
21
0.487717
0
LINE
8
BLACK
6
CONTINUOUS
10
1.4887
20
0.487717
11
1.4513
21
0.487717
0
LINE
8
BLACK
6
CONTINUOUS
10
1.4513
20
0.487717
11
1.44753
21
0.488466
0
LINE
8
BLACK
6
CONTINUOUS
10
1.44753
20
0.488466
11
1.44434
21
0.490599
0
LINE
8
BLACK
6
CONTINUOUS
10
1.44434
20
0.490599
11
1.44221
21
0.493792
0
LINE
8
BLACK
6
CONTINUOUS
10
1.44221
20
0.493792
11
1.44146
21
0.497559
0
LINE
8
BLACK
6
CONTINUOUS
10
1.44146
20
0.497559
11
1.44146
21
0.517244
0
LINE
8
BLACK
6
CONTINUOUS
10
1.44146
20
0.517244
11
1.44221
21
0.521011
0
LINE
8
BLACK
6
CONTINUOUS
10
1.44221
20
0.521011
11
1.44434
21
0.524204
0
LINE
8
BLACK
6
CONTINUOUS
10
1.44434
20
0.524204
11
1.44753
21
0.526337
0
LINE
8
BLACK
6
CONTINUOUS
10
1.44753
20
0.526337
11
1.4513
21
0.527087
0
LINE
8
BLACK
6
CONTINUOUS
10
1.4513
20
0.527087
11
1.4887
21
0.527087
0
LINE
8
BLACK
6
CONTINUOUS
10
1.4887
20
0.527087
11
1.49247
21
0.526337
0
LINE
8
BLACK
6
CONTINUOUS
10
1.70937
20
0.49622
11
1.68575
21
0.49622
0
LINE
8
BLACK
6
CONTINUOUS
10
1.68575
20
0.49622
11
1.68575
21
0.52378
0
LINE
8
BLACK
6
CONTINUOUS
10
1.68575
20
0.52378
11
1.70937
21
0.52378
0
LINE
8
BLACK
6
CONTINUOUS
10
1.70937
20
0.52378
11
1.70937
21
0.49622
0
LINE
8
BLACK
6
CONTINUOUS
10
1.65425
20
0.49622
11
1.63063
21
0.49622
0
LINE
8
BLACK
6
CONTINUOUS
10
1.63063
20
0.49622
11
1.63063
21
0.52378
0
LINE
8
BLACK
6
CONTINUOUS
10
1.63063
20
0.52378
11
1.65425
21
0.52378
0
LINE
8
BLACK
6
CONTINUOUS
10
1.65425
20
0.52378
11
1.65425
21
0.49622
0
LINE
8
BLACK
6
CONTINUOUS
10
0.772467
20
0.536337
11
0.775661
21
0.534204
0
LINE
8
BLACK
6
CONTINUOUS
10
0.775661
20
0.534204
11
0.777794
21
0.531011
0
LINE
8
BLACK
6
CONTINUOUS
10
0.777794
20
0.531011
11
0.778543
21
0.527244
0
LINE
8
BLACK
6
CONTINUOUS
10
0.778543
20
0.527244
11
0.778543
21
0.507559
0
LINE
8
BLACK
6
CONTINUOUS
10
0.778543
20
0.507559
11
0.777794
21
0.503792
0
LINE
8
BLACK
6
CONTINUOUS
10
0.777794
20
0.503792
11
0.775661
21
0.500599
0
LINE
8
BLACK
6
CONTINUOUS
10
0.775661
20
0.500599
11
0.772467
21
0.498466
0
LINE
8
BLACK
6
CONTINUOUS
10
0.772467
20
0.498466
11
0.768701
21
0.497717
0
LINE
8
BLACK
6
CONTINUOUS
10
0.768701
20
0.497717
11
0.731299
21
0.497717
0
LINE
8
BLACK
6
CONTINUOUS
10
0.731299
20
0.497717
11
0.727533
21
0.498466
0
LINE
8
BLACK
6
CONTINUOUS
10
0.727533
20
0.498466
11
0.724339
21
0.500599
0
LINE
8
BLACK
6
CONTINUOUS
10
0.724339
20
0.500599
11
0.722206
21
0.503792
0
LINE
8
BLACK
6
CONTINUOUS
10
0.722206
20
0.503792
11
0.721457
21
0.507559
0
LINE
8
BLACK
6
CONTINUOUS
10
0.721457
20
0.507559
11
0.721457
21
0.527244
0
LINE
8
BLACK
6
CONTINUOUS
10
0.721457
20
0.527244
11
0.722206
21
0.531011
0
LINE
8
BLACK
6
CONTINUOUS
10
0.722206
20
0.531011
11
0.724339
21
0.534204
0
LINE
8
BLACK
6
CONTINUOUS
10
0.724339
20
0.534204
11
0.727533
21
0.536337
0
LINE
8
BLACK
6
CONTINUOUS
10
0.727533
20
0.536337
11
0.731299
21
0.537087
0
LINE
8
BLACK
6
CONTINUOUS
10
0.731299
20
0.537087
11
0.768701
21
0.537087
0
LINE
8
BLACK
6
CONTINUOUS
10
0.768701
20
0.537087
11
0.772467
21
0.536337
0
LINE
8
BLACK
6
CONTINUOUS
10
0.242467
20
0.536337
11
0.245661
21
0.534204
0
LINE
8
BLACK
6
CONTINUOUS
10
0.245661
20
0.534204
11
0.247794
21
0.531011
0
LINE
8
BLACK
6
CONTINUOUS
10
0.247794
20
0.531011
11
0.248543
21
0.527244
0
LINE
8
BLACK
6
CONTINUOUS
10
0.248543
20
0.527244
11
0.248543
21
0.507559
0
LINE
8
BLACK
6
CONTINUOUS
10
0.248543
20
0.507559
11
0.247794
21
0.503792
0
LINE
8
BLACK
6
CONTINUOUS
10
0.247794
20
0.503792
11
0.245661
21
0.500599
0
LINE
8
BLACK
6
CONTINUOUS
10
0.245661
20
0.500599
11
0.242467
21
0.498466
0
LINE
8
BLACK
6
CONTINUOUS
10
0.242467
20
0.498466
11
0.238701
21
0.497717
0
LINE
8
BLACK
6
CONTINUOUS
10
0.238701
20
0.497717
11
0.201299
21
0.497717
0
LINE
8
BLACK
6
CONTINUOUS
10
0.201299
20
0.497717
11
0.197533
21
0.498466
0
LINE
8
BLACK
6
CONTINUOUS
10
0.197533
20
0.498466
11
0.194339
21
0.500599
0
LINE
8
BLACK
6
CONTINUOUS
10
0.194339
20
0.500599
11
0.192206
21
0.503792
0
LINE
8
BLACK
6
CONTINUOUS
10
0.192206
20
0.503792
11
0.191457
21
0.507559
0
LINE
8
BLACK
6
CONTINUOUS
10
0.191457
20
0.507559
11
0.191457
21
0.527244
0
LINE
8
BLACK
6
CONTINUOUS
10
0.191457
20
0.527244
11
0.192206
21
0.531011
0
LINE
8
BLACK
6
CONTINUOUS
10
0.192206
20
0.531011
11
0.194339
21
0.534204
0
LINE
8
BLACK
6
CONTINUOUS
10
0.194339
20
0.534204
11
0.197533
21
0.536337
0
LINE
8
BLACK
6
CONTINUOUS
10
0.197533
20
0.536337
11
0.201299
21
0.537087
0
LINE
8
BLACK
6
CONTINUOUS
10
0.201299
20
0.537087
11
0.238701
21
0.537087
0
LINE
8
BLACK
6
CONTINUOUS
10
0.238701
20
0.537087
11
0.242467
21
0.536337
0
LINE
8
BLACK
6
CONTINUOUS
10
0.512467
20
0.536337
11
0.515661
21
0.534204
0
LINE
8
BLACK
6
CONTINUOUS
10
0.515661
20
0.534204
11
0.517794
21
0.531011
0
LINE
8
BLACK
6
CONTINUOUS
10
0.517794
20
0.531011
11
0.518543
21
0.527244
0
LINE
8
BLACK
6
CONTINUOUS
10
0.518543
20
0.527244
11
0.518543
21
0.507559
0
LINE
8
BLACK
6
CONTINUOUS
10
0.518543
20
0.507559
11
0.517794
21
0.503792
0
LINE
8
BLACK
6
CONTINUOUS
10
0.517794
20
0.503792
11
0.515661
21
0.500599
0
LINE
8
BLACK
6
CONTINUOUS
10
0.515661
20
0.500599
11
0.512467
21
0.498466
0
LINE
8
BLACK
6
CONTINUOUS
10
0.512467
20
0.498466
11
0.508701
21
0.497717
0
LINE
8
BLACK
6
CONTINUOUS
10
0.508701
20
0.497717
11
0.471299
21
0.497717
0
LINE
8
BLACK
6
CONTINUOUS
10
0.471299
20
0.497717
11
0.467533
21
0.498466
0
LINE
8
BLACK
6
CONTINUOUS
10
0.467533
20
0.498466
11
0.464339
21
0.500599
0
LINE
8
BLACK
6
CONTINUOUS
10
0.464339
20
0.500599
11
0.462206
21
0.503792
0
LINE
8
BLACK
6
CONTINUOUS
10
0.462206
20
0.503792
11
0.461457
21
0.507559
0
LINE
8
BLACK
6
CONTINUOUS
10
0.461457
20
0.507559
11
0.461457
21
0.527244
0
LINE
8
BLACK
6
CONTINUOUS
10
0.461457
20
0.527244
11
0.462206
21
0.531011
0
LINE
8
BLACK
6
CONTINUOUS
10
0.462206
20
0.531011
11
0.464339
21
0.534204
0
LINE
8
BLACK
6
CONTINUOUS
10
0.464339
20
0.534204
11
0.467533
21
0.536337
0
LINE
8
BLACK
6
CONTINUOUS
10
0.467533
20
0.536337
11
0.471299
21
0.537087
0
LINE
8
BLACK
6
CONTINUOUS
10
0.471299
20
0.537087
11
0.508701
21
0.537087
0
LINE
8
BLACK
6
CONTINUOUS
10
0.508701
20
0.537087
11
0.512467
21
0.536337
0
LINE
8
BLACK
6
CONTINUOUS
10
1.13247
20
0.536337
11
1.13566
21
0.534204
0
LINE
8
BLACK
6
CONTINUOUS
10
1.13566
20
0.534204
11
1.13779
21
0.531011
0
LINE
8
BLACK
6
CONTINUOUS
10
1.13779
20
0.531011
11
1.13854
21
0.527244
0
LINE
8
BLACK
6
CONTINUOUS
10
1.13854
20
0.527244
11
1.13854
21
0.507559
0
LINE
8
BLACK
6
CONTINUOUS
10
1.13854
20
0.507559
11
1.13779
21
0.503792
0
LINE
8
BLACK
6
CONTINUOUS
10
1.13779
20
0.503792
11
1.13566
21
0.500599
0
LINE
8
BLACK
6
CONTINUOUS
10
1.13566
20
0.500599
11
1.13247
21
0.498466
0
LINE
8
BLACK
6
CONTINUOUS
10
1.13247
20
0.498466
11
1.1287
21
0.497717
0
LINE
8
BLACK
6
CONTINUOUS
10
1.1287
20
0.497717
11
1.0913
21
0.497717
0
LINE
8
BLACK
6
CONTINUOUS
10
1.0913
20
0.497717
11
1.08753
21
0.498466
0
LINE
8
BLACK
6
CONTINUOUS
10
1.08753
20
0.498466
11
1.08434
21
0.500599
0
LINE
8
BLACK
6
CONTINUOUS
10
1.08434
20
0.500599
11
1.08221
21
0.503792
0
LINE
8
BLACK
6
CONTINUOUS
10
1.08221
20
0.503792
11
1.08146
21
0.507559
0
LINE
8
BLACK
6
CONTINUOUS
10
1.08146
20
0.507559
11
1.08146
21
0.527244
0
LINE
8
BLACK
6
CONTINUOUS
10
1.08146
20
0.527244
11
1.08221
21
0.531011
0
LINE
8
BLACK
6
CONTINUOUS
10
1.08221
20
0.531011
11
1.08434
21
0.534204
0
LINE
8
BLACK
6
CONTINUOUS
10
1.08434
20
0.534204
11
1.08753
21
0.536337
0
LINE
8
BLACK
6
CONTINUOUS
10
1.08753
20
0.536337
11
1.0913
21
0.537087
0
LINE
8
BLACK
6
CONTINUOUS
10
1.0913
20
0.537087
11
1.1287
21
0.537087
0
LINE
8
BLACK
6
CONTINUOUS
10
1.1287
20
0.537087
11
1.13247
21
0.536337
0
LINE
8
BLACK
6
CONTINUOUS
10
1.38247
20
0.536337
11
1.38566
21
0.534204
0
LINE
8
BLACK
6
CONTINUOUS
10
1.38566
20
0.534204
11
1.38779
21
0.531011
0
LINE
8
BLACK
6
CONTINUOUS
10
1.38779
20
0.531011
11
1.38854
21
0.527244
0
LINE
8
BLACK
6
CONTINUOUS
10
1.38854
20
0.527244
11
1.38854
21
0.507559
0
LINE
8
BLACK
6
CONTINUOUS
10
1.38854
20
0.507559
11
1.38779
21
0.503792
0
LINE
8
BLACK
6
CONTINUOUS
10
1.38779
20
0.503792
11
1.38566
21
0.500599
0
LINE
8
BLACK
6
CONTINUOUS
10
1.38566
20
0.500599
11
1.38247
21
0.498466
0
LINE
8
BLACK
6
CONTINUOUS
10
1.38247
20
0.498466
11
1.3787
21
0.497717
0
LINE
8
BLACK
6
CONTINUOUS
10
1.3787
20
0.497717
11
1.3413
21
0.497717
0
LINE
8
BLACK
6
CONTINUOUS
10
1.3413
20
0.497717
11
1.33753
21
0.498466
0
LINE
8
BLACK
6
CONTINUOUS
10
1.33753
20
0.498466
11
1.33434
21
0.500599
0
LINE
8
BLACK
6
CONTINUOUS
10
1.33434
20
0.500599
11
1.33221
21
0.503792
0
LINE
8
BLACK
6
CONTINUOUS
10
1.33221
20
0.503792
11
1.33146
21
0.507559
0
LINE
8
BLACK
6
CONTINUOUS
10
1.33146
20
0.507559
11
1.33146
21
0.527244
0
LINE
8
BLACK
6
CONTINUOUS
10
1.33146
20
0.527244
11
1.33221
21
0.531011
0
LINE
8
BLACK
6
CONTINUOUS
10
1.33221
20
0.531011
11
1.33434
21
0.534204
0
LINE
8
BLACK
6
CONTINUOUS
10
1.33434
20
0.534204
11
1.33753
21
0.536337
0
LINE
8
BLACK
6
CONTINUOUS
10
1.33753
20
0.536337
11
1.3413
21
0.537087
0
LINE
8
BLACK
6
CONTINUOUS
10
1.3413
20
0.537087
11
1.3787
21
0.537087
0
LINE
8
BLACK
6
CONTINUOUS
10
1.3787
20
0.537087
11
1.38247
21
0.536337
0
LINE
8
BLACK
6
CONTINUOUS
10
1.02247
20
0.536337
11
1.02566
21
0.534204
0
LINE
8
BLACK
6
CONTINUOUS
10
1.02566
20
0.534204
11
1.02779
21
0.531011
0
LINE
8
BLACK
6
CONTINUOUS
10
1.02779
20
0.531011
11
1.02854
21
0.527244
0
LINE
8
BLACK
6
CONTINUOUS
10
1.02854
20
0.527244
11
1.02854
21
0.507559
0
LINE
8
BLACK
6
CONTINUOUS
10
1.02854
20
0.507559
11
1.02779
21
0.503792
0
LINE
8
BLACK
6
CONTINUOUS
10
1.02779
20
0.503792
11
1.02566
21
0.500599
0
LINE
8
BLACK
6
CONTINUOUS
10
1.02566
20
0.500599
11
1.02247
21
0.498466
0
LINE
8
BLACK
6
CONTINUOUS
10
1.02247
20
0.498466
11
1.0187
21
0.497717
0
LINE
8
BLACK
6
CONTINUOUS
10
1.0187
20
0.497717
11
0.981299
21
0.497717
0
LINE
8
BLACK
6
CONTINUOUS
10
0.981299
20
0.497717
11
0.977533
21
0.498466
0
LINE
8
BLACK
6
CONTINUOUS
10
0.977533
20
0.498466
11
0.974339
21
0.500599
0
LINE
8
BLACK
6
CONTINUOUS
10
0.974339
20
0.500599
11
0.972206
21
0.503792
0
LINE
8
BLACK
6
CONTINUOUS
10
0.972206
20
0.503792
11
0.971457
21
0.507559
0
LINE
8
BLACK
6
CONTINUOUS
10
0.971457
20
0.507559
11
0.971457
21
0.527244
0
LINE
8
BLACK
6
CONTINUOUS
10
0.971457
20
0.527244
11
0.972206
21
0.531011
0
LINE
8
BLACK
6
CONTINUOUS
10
0.972206
20
0.531011
11
0.974339
21
0.534204
0
LINE
8
BLACK
6
CONTINUOUS
10
0.974339
20
0.534204
11
0.977533
21
0.536337
0
LINE
8
BLACK
6
CONTINUOUS
10
0.977533
20
0.536337
11
0.981299
21
0.537087
0
LINE
8
BLACK
6
CONTINUOUS
10
0.981299
20
0.537087
11
1.0187
21
0.537087
0
LINE
8
BLACK
6
CONTINUOUS
10
1.0187
20
0.537087
11
1.02247
21
0.536337
0
LINE
8
BLACK
6
CONTINUOUS
10
0.142467
20
0.536337
11
0.145661
21
0.534204
0
LINE
8
BLACK
6
CONTINUOUS
10
0.145661
20
0.534204
11
0.147794
21
0.531011
0
LINE
8
BLACK
6
CONTINUOUS
10
0.147794
20
0.531011
11
0.148543
21
0.527244
0
LINE
8
BLACK
6
CONTINUOUS
10
0.148543
20
0.527244
11
0.148543
21
0.507559
0
LINE
8
BLACK
6
CONTINUOUS
10
0.148543
20
0.507559
11
0.147794
21
0.503792
0
LINE
8
BLACK
6
CONTINUOUS
10
0.147794
20
0.503792
11
0.145661
21
0.500599
0
LINE
8
BLACK
6
CONTINUOUS
10
0.145661
20
0.500599
11
0.142467
21
0.498466
0
LINE
8
BLACK
6
CONTINUOUS
10
0.142467
20
0.498466
11
0.138701
21
0.497717
0
LINE
8
BLACK
6
CONTINUOUS
10
0.138701
20
0.497717
11
0.101299
21
0.497717
0
LINE
8
BLACK
6
CONTINUOUS
10
0.101299
20
0.497717
11
0.0975326
21
0.498466
0
LINE
8
BLACK
6
CONTINUOUS
10
0.0975326
20
0.498466
11
0.0943395
21
0.500599
0
LINE
8
BLACK
6
CONTINUOUS
10
0.0943395
20
0.500599
11
0.0922059
21
0.503792
0
LINE
8
BLACK
6
CONTINUOUS
10
0.0922059
20
0.503792
11
0.0914567
21
0.507559
0
LINE
8
BLACK
6
CONTINUOUS
10
0.0914567
20
0.507559
11
0.0914567
21
0.527244
0
LINE
8
BLACK
6
CONTINUOUS
10
0.0914567
20
0.527244
11
0.0922059
21
0.531011
0
LINE
8
BLACK
6
CONTINUOUS
10
0.0922059
20
0.531011
11
0.0943395
21
0.534204
0
LINE
8
BLACK
6
CONTINUOUS
10
0.0943395
20
0.534204
11
0.0975326
21
0.536337
0
LINE
8
BLACK
6
CONTINUOUS
10
0.0975326
20
0.536337
11
0.101299
21
0.537087
0
LINE
8
BLACK
6
CONTINUOUS
10
0.101299
20
0.537087
11
0.138701
21
0.537087
0
LINE
8
BLACK
6
CONTINUOUS
10
0.138701
20
0.537087
11
0.142467
21
0.536337
0
LINE
8
BLACK
6
CONTINUOUS
10
-0.089775
20
2.28315
11
-0.0762935
21
2.28137
0
LINE
8
BLACK
6
CONTINUOUS
10
-0.0762935
20
2.28137
11
-0.0631054
21
2.27806
0
LINE
8
BLACK
6
CONTINUOUS
10
-0.0631054
20
2.27806
11
-0.0503854
21
2.27325
0
LINE
8
BLACK
6
CONTINUOUS
10
-0.0503854
20
2.27325
11
-0.0383022
21
2.26702
0
LINE
8
BLACK
6
CONTINUOUS
10
-0.0383022
20
2.26702
11
-0.0270159
21
2.25943
0
LINE
8
BLACK
6
CONTINUOUS
10
-0.0270159
20
2.25943
11
-0.016676
21
2.2506
0
LINE
8
BLACK
6
CONTINUOUS
10
-0.016676
20
2.2506
11
-0.00741969
21
2.24064
0
LINE
8
BLACK
6
CONTINUOUS
10
-0.00741969
20
2.24064
11
0.000630394
21
2.22968
0
LINE
8
BLACK
6
CONTINUOUS
10
0.000630394
20
2.22968
11
0.00736752
21
2.21787
0
LINE
8
BLACK
6
CONTINUOUS
10
0.00736752
20
2.21787
11
0.0127024
21
2.20536
0
LINE
8
BLACK
6
CONTINUOUS
10
0.0127024
20
2.20536
11
0.0165644
21
2.19232
0
LINE
8
BLACK
6
CONTINUOUS
10
0.0165644
20
2.19232
11
0.0189023
21
2.17893
0
LINE
8
BLACK
6
CONTINUOUS
10
0.0189023
20
2.17893
11
0.019685
21
2.16535
0
LINE
8
BLACK
6
CONTINUOUS
10
0.019685
20
2.16535
11
0.019452
21
2.15794
0
LINE
8
BLACK
6
CONTINUOUS
10
0.019452
20
2.15794
11
0.0178184
21
2.14444
0
LINE
8
BLACK
6
CONTINUOUS
10
0.0178184
20
2.14444
11
0.014644
21
2.13122
0
LINE
8
BLACK
6
CONTINUOUS
10
0.014644
20
2.13122
11
0.00997102
21
2.11845
0
LINE
8
BLACK
6
CONTINUOUS
10
0.00997102
20
2.11845
11
0.00386126
21
2.1063
0
LINE
8
BLACK
6
CONTINUOUS
10
0.00386126
20
2.1063
11
-0.00360425
21
2.09493
0
LINE
8
BLACK
6
CONTINUOUS
10
-0.00360425
20
2.09493
11
-0.0123265
21
2.0845
0
LINE
8
BLACK
6
CONTINUOUS
10
-0.0123265
20
2.0845
11
-0.02219
21
2.07514
0
LINE
8
BLACK
6
CONTINUOUS
10
-0.02219
20
2.07514
11
-0.033064
21
2.06698
0
LINE
8
BLACK
6
CONTINUOUS
10
-0.033064
20
2.06698
11
-0.0448043
21
2.06012
0
LINE
8
BLACK
6
CONTINUOUS
10
-0.0448043
20
2.06012
11
-0.0572553
21
2.05465
0
LINE
8
BLACK
6
CONTINUOUS
10
-0.0572553
20
2.05465
11
-0.070252
21
2.05065
0
LINE
8
BLACK
6
CONTINUOUS
10
-0.070252
20
2.05065
11
-0.083622
21
2.04818
0
LINE
8
BLACK
6
CONTINUOUS
10
-0.083622
20
2.04818
11
-0.0971884
21
2.04725
0
LINE
8
BLACK
6
CONTINUOUS
10
-0.0971884
20
2.04725
11
-0.110771
21
2.04789
0
LINE
8
BLACK
6
CONTINUOUS
10
-0.110771
20
2.04789
11
-0.12419
21
2.05009
0
LINE
8
BLACK
6
CONTINUOUS
10
-0.12419
20
2.05009
11
-0.137268
21
2.05381
0
LINE
8
BLACK
6
CONTINUOUS
10
-0.137268
20
2.05381
11
-0.14983
21
2.05902
0
LINE
8
BLACK
6
CONTINUOUS
10
-0.14983
20
2.05902
11
-0.161712
21
2.06563
0
LINE
8
BLACK
6
CONTINUOUS
10
-0.161712
20
2.06563
11
-0.172754
21
2.07357
0
LINE
8
BLACK
6
CONTINUOUS
10
-0.172754
20
2.07357
11
-0.182812
21
2.08272
0
LINE
8
BLACK
6
CONTINUOUS
10
-0.182812
20
2.08272
11
-0.191751
21
2.09296
0
LINE
8
BLACK
6
CONTINUOUS
10
-0.191751
20
2.09296
11
-0.199452
21
2.10417
0
LINE
8
BLACK
6
CONTINUOUS
10
-0.199452
20
2.10417
11
-0.205815
21
2.11619
0
LINE
8
BLACK
6
CONTINUOUS
10
-0.205815
20
2.11619
11
-0.210755
21
2.12886
0
LINE
8
BLACK
6
CONTINUOUS
10
-0.210755
20
2.12886
11
-0.214205
21
2.14201
0
LINE
8
BLACK
6
CONTINUOUS
10
-0.214205
20
2.14201
11
-0.216121
21
2.15547
0
LINE
8
BLACK
6
CONTINUOUS
10
-0.216121
20
2.15547
11
-0.216477
21
2.16906
0
LINE
8
BLACK
6
CONTINUOUS
10
-0.216477
20
2.16906
11
-0.215268
21
2.18261
0
LINE
8
BLACK
6
CONTINUOUS
10
-0.215268
20
2.18261
11
-0.212511
21
2.19592
0
LINE
8
BLACK
6
CONTINUOUS
10
-0.212511
20
2.19592
11
-0.208241
21
2.20883
0
LINE
8
BLACK
6
CONTINUOUS
10
-0.208241
20
2.20883
11
-0.202516
21
2.22117
0
LINE
8
BLACK
6
CONTINUOUS
10
-0.202516
20
2.22117
11
-0.195411
21
2.23276
0
LINE
8
BLACK
6
CONTINUOUS
10
-0.195411
20
2.23276
11
-0.187021
21
2.24346
0
LINE
8
BLACK
6
CONTINUOUS
10
-0.187021
20
2.24346
11
-0.177456
21
2.25313
0
LINE
8
BLACK
6
CONTINUOUS
10
-0.177456
20
2.25313
11
-0.166844
21
2.26163
0
LINE
8
BLACK
6
CONTINUOUS
10
-0.166844
20
2.26163
11
-0.155325
21
2.26886
0
LINE
8
BLACK
6
CONTINUOUS
10
-0.155325
20
2.26886
11
-0.143052
21
2.27471
0
LINE
8
BLACK
6
CONTINUOUS
10
-0.143052
20
2.27471
11
-0.130187
21
2.27911
0
LINE
8
BLACK
6
CONTINUOUS
10
-0.130187
20
2.27911
11
-0.116902
21
2.28201
0
LINE
8
BLACK
6
CONTINUOUS
10
-0.116902
20
2.28201
11
-0.103371
21
2.28336
0
LINE
8
BLACK
6
CONTINUOUS
10
-0.103371
20
2.28336
11
-0.089775
21
2.28315
0
LINE
8
BLACK
6
CONTINUOUS
10
2.46928
20
2.48
11
2.48276
21
2.47822
0
LINE
8
BLACK
6
CONTINUOUS
10
2.48276
20
2.47822
11
2.49595
21
2.47491
0
LINE
8
BLACK
6
CONTINUOUS
10
2.49595
20
2.47491
11
2.50867
21
2.4701
0
LINE
8
BLACK
6
CONTINUOUS
10
2.50867
20
2.4701
11
2.52075
21
2.46387
0
LINE
8
BLACK
6
CONTINUOUS
10
2.52075
20
2.46387
11
2.53204
21
2.45628
0
LINE
8
BLACK
6
CONTINUOUS
10
2.53204
20
2.45628
11
2.54238
21
2.44745
0
LINE
8
BLACK
6
CONTINUOUS
10
2.54238
20
2.44745
11
2.55164
21
2.43749
0
LINE
8
BLACK
6
CONTINUOUS
10
2.55164
20
2.43749
11
2.55969
21
2.42653
0
LINE
8
BLACK
6
CONTINUOUS
10
2.55969
20
2.42653
11
2.56642
21
2.41472
0
LINE
8
BLACK
6
CONTINUOUS
10
2.56642
20
2.41472
11
2.57176
21
2.40221
0
LINE
8
BLACK
6
CONTINUOUS
10
2.57176
20
2.40221
11
2.57562
21
2.38918
0
LINE
8
BLACK
6
CONTINUOUS
10
2.57562
20
2.38918
11
2.57796
21
2.37578
0
LINE
8
BLACK
6
CONTINUOUS
10
2.57796
20
2.37578
11
2.57874
21
2.3622
0
LINE
8
BLACK
6
CONTINUOUS
10
2.57874
20
2.3622
11
2.57851
21
2.35479
0
LINE
8
BLACK
6
CONTINUOUS
10
2.57851
20
2.35479
11
2.57687
21
2.34129
0
LINE
8
BLACK
6
CONTINUOUS
10
2.57687
20
2.34129
11
2.5737
21
2.32807
0
LINE
8
BLACK
6
CONTINUOUS
10
2.5737
20
2.32807
11
2.56903
21
2.3153
0
LINE
8
BLACK
6
CONTINUOUS
10
2.56903
20
2.3153
11
2.56292
21
2.30315
0
LINE
8
BLACK
6
CONTINUOUS
10
2.56292
20
2.30315
11
2.55545
21
2.29178
0
LINE
8
BLACK
6
CONTINUOUS
10
2.55545
20
2.29178
11
2.54673
21
2.28135
0
LINE
8
BLACK
6
CONTINUOUS
10
2.54673
20
2.28135
11
2.53687
21
2.27199
0
LINE
8
BLACK
6
CONTINUOUS
10
2.53687
20
2.27199
11
2.52599
21
2.26383
0
LINE
8
BLACK
6
CONTINUOUS
10
2.52599
20
2.26383
11
2.51425
21
2.25697
0
LINE
8
BLACK
6
CONTINUOUS
10
2.51425
20
2.25697
11
2.5018
21
2.2515
0
LINE
8
BLACK
6
CONTINUOUS
10
2.5018
20
2.2515
11
2.4888
21
2.2475
0
LINE
8
BLACK
6
CONTINUOUS
10
2.4888
20
2.2475
11
2.47543
21
2.24503
0
LINE
8
BLACK
6
CONTINUOUS
10
2.47543
20
2.24503
11
2.46187
21
2.2441
0
LINE
8
BLACK
6
CONTINUOUS
10
2.46187
20
2.2441
11
2.44828
21
2.24474
0
LINE
8
BLACK
6
CONTINUOUS
10
2.44828
20
2.24474
11
2.43486
21
2.24694
0
LINE
8
BLACK
6
CONTINUOUS
10
2.43486
20
2.24694
11
2.42179
21
2.25066
0
LINE
8
BLACK
6
CONTINUOUS
10
2.42179
20
2.25066
11
2.40922
21
2.25587
0
LINE
8
BLACK
6
CONTINUOUS
10
2.40922
20
2.25587
11
2.39734
21
2.26248
0
LINE
8
BLACK
6
CONTINUOUS
10
2.39734
20
2.26248
11
2.3863
21
2.27042
0
LINE
8
BLACK
6
CONTINUOUS
10
2.3863
20
2.27042
11
2.37624
21
2.27957
0
LINE
8
BLACK
6
CONTINUOUS
10
2.37624
20
2.27957
11
2.3673
21
2.28981
0
LINE
8
BLACK
6
CONTINUOUS
10
2.3673
20
2.28981
11
2.3596
21
2.30102
0
LINE
8
BLACK
6
CONTINUOUS
10
2.3596
20
2.30102
11
2.35324
21
2.31304
0
LINE
8
BLACK
6
CONTINUOUS
10
2.35324
20
2.31304
11
2.3483
21
2.32571
0
LINE
8
BLACK
6
CONTINUOUS
10
2.3483
20
2.32571
11
2.34485
21
2.33886
0
LINE
8
BLACK
6
CONTINUOUS
10
2.34485
20
2.33886
11
2.34293
21
2.35232
0
LINE
8
BLACK
6
CONTINUOUS
10
2.34293
20
2.35232
11
2.34258
21
2.36591
0
LINE
8
BLACK
6
CONTINUOUS
10
2.34258
20
2.36591
11
2.34379
21
2.37946
0
LINE
8
BLACK
6
CONTINUOUS
10
2.34379
20
2.37946
11
2.34654
21
2.39277
0
LINE
8
BLACK
6
CONTINUOUS
10
2.34654
20
2.39277
11
2.35081
21
2.40568
0
LINE
8
BLACK
6
CONTINUOUS
10
2.35081
20
2.40568
11
2.35654
21
2.41802
0
LINE
8
BLACK
6
CONTINUOUS
10
2.35654
20
2.41802
11
2.36364
21
2.42961
0
LINE
8
BLACK
6
CONTINUOUS
10
2.36364
20
2.42961
11
2.37203
21
2.44031
0
LINE
8
BLACK
6
CONTINUOUS
10
2.37203
20
2.44031
11
2.3816
21
2.44998
0
LINE
8
BLACK
6
CONTINUOUS
10
2.3816
20
2.44998
11
2.39221
21
2.45848
0
LINE
8
BLACK
6
CONTINUOUS
10
2.39221
20
2.45848
11
2.40373
21
2.46571
0
LINE
8
BLACK
6
CONTINUOUS
10
2.40373
20
2.46571
11
2.416
21
2.47156
0
LINE
8
BLACK
6
CONTINUOUS
10
2.416
20
2.47156
11
2.42887
21
2.47596
0
LINE
8
BLACK
6
CONTINUOUS
10
2.42887
20
2.47596
11
2.44215
21
2.47886
0
LINE
8
BLACK
6
CONTINUOUS
10
2.44215
20
2.47886
11
2.45568
21
2.48021
0
LINE
8
BLACK
6
CONTINUOUS
10
2.45568
20
2.48021
11
2.46928
21
2.48
0
LINE
8
BLACK
6
CONTINUOUS
10
1.58345
20
2.67685
11
1.59693
21
2.67507
0
LINE
8
BLACK
6
CONTINUOUS
10
1.59693
20
2.67507
11
1.61012
21
2.67176
0
LINE
8
BLACK
6
CONTINUOUS
10
1.61012
20
2.67176
11
1.62284
21
2.66695
0
LINE
8
BLACK
6
CONTINUOUS
10
1.62284
20
2.66695
11
1.63493
21
2.66072
0
LINE
8
BLACK
6
CONTINUOUS
10
1.63493
20
2.66072
11
1.64621
21
2.65313
0
LINE
8
BLACK
6
CONTINUOUS
10
1.64621
20
2.65313
11
1.65655
21
2.6443
0
LINE
8
BLACK
6
CONTINUOUS
10
1.65655
20
2.6443
11
1.66581
21
2.63434
0
LINE
8
BLACK
6
CONTINUOUS
10
1.66581
20
2.63434
11
1.67386
21
2.62338
0
LINE
8
BLACK
6
CONTINUOUS
10
1.67386
20
2.62338
11
1.6806
21
2.61157
0
LINE
8
BLACK
6
CONTINUOUS
10
1.6806
20
2.61157
11
1.68593
21
2.59906
0
LINE
8
BLACK
6
CONTINUOUS
10
1.68593
20
2.59906
11
1.68979
21
2.58603
0
LINE
8
BLACK
6
CONTINUOUS
10
1.68979
20
2.58603
11
1.69213
21
2.57263
0
LINE
8
BLACK
6
CONTINUOUS
10
1.69213
20
2.57263
11
1.69291
21
2.55906
0
LINE
8
BLACK
6
CONTINUOUS
10
1.69291
20
2.55906
11
1.69268
21
2.55164
0
LINE
8
BLACK
6
CONTINUOUS
10
1.69268
20
2.55164
11
1.69105
21
2.53814
0
LINE
8
BLACK
6
CONTINUOUS
10
1.69105
20
2.53814
11
1.68787
21
2.52492
0
LINE
8
BLACK
6
CONTINUOUS
10
1.68787
20
2.52492
11
1.6832
21
2.51215
0
LINE
8
BLACK
6
CONTINUOUS
10
1.6832
20
2.51215
11
1.67709
21
2.5
0
LINE
8
BLACK
6
CONTINUOUS
10
1.67709
20
2.5
11
1.66962
21
2.48863
0
LINE
8
BLACK
6
CONTINUOUS
10
1.66962
20
2.48863
11
1.6609
21
2.4782
0
LINE
8
BLACK
6
CONTINUOUS
10
1.6609
20
2.4782
11
1.65104
21
2.46884
0
LINE
8
BLACK
6
CONTINUOUS
10
1.65104
20
2.46884
11
1.64016
21
2.46068
0
LINE
8
BLACK
6
CONTINUOUS
10
1.64016
20
2.46068
11
1.62842
21
2.45382
0
LINE
8
BLACK
6
CONTINUOUS
10
1.62842
20
2.45382
11
1.61597
21
2.44835
0
LINE
8
BLACK
6
CONTINUOUS
10
1.61597
20
2.44835
11
1.60298
21
2.44435
0
LINE
8
BLACK
6
CONTINUOUS
10
1.60298
20
2.44435
11
1.58961
21
2.44188
0
LINE
8
BLACK
6
CONTINUOUS
10
1.58961
20
2.44188
11
1.57604
21
2.44095
0
LINE
8
BLACK
6
CONTINUOUS
10
1.57604
20
2.44095
11
1.56246
21
2.44159
0
LINE
8
BLACK
6
CONTINUOUS
10
1.56246
20
2.44159
11
1.54904
21
2.44379
0
LINE
8
BLACK
6
CONTINUOUS
10
1.54904
20
2.44379
11
1.53596
21
2.44751
0
LINE
8
BLACK
6
CONTINUOUS
10
1.53596
20
2.44751
11
1.5234
21
2.45272
0
LINE
8
BLACK
6
CONTINUOUS
10
1.5234
20
2.45272
11
1.51152
21
2.45933
0
LINE
8
BLACK
6
CONTINUOUS
10
1.51152
20
2.45933
11
1.50047
21
2.46727
0
LINE
8
BLACK
6
CONTINUOUS
10
1.50047
20
2.46727
11
1.49042
21
2.47642
0
LINE
8
BLACK
6
CONTINUOUS
10
1.49042
20
2.47642
11
1.48148
21
2.48666
0
LINE
8
BLACK
6
CONTINUOUS
10
1.48148
20
2.48666
11
1.47378
21
2.49787
0
LINE
8
BLACK
6
CONTINUOUS
10
1.47378
20
2.49787
11
1.46741
21
2.50989
0
LINE
8
BLACK
6
CONTINUOUS
10
1.46741
20
2.50989
11
1.46247
21
2.52256
0
LINE
8
BLACK
6
CONTINUOUS
10
1.46247
20
2.52256
11
1.45902
21
2.53571
0
LINE
8
BLACK
6
CONTINUOUS
10
1.45902
20
2.53571
11
1.45711
21
2.54917
0
LINE
8
BLACK
6
CONTINUOUS
10
1.45711
20
2.54917
11
1.45675
21
2.56277
0
LINE
8
BLACK
6
CONTINUOUS
10
1.45675
20
2.56277
11
1.45796
21
2.57631
0
LINE
8
BLACK
6
CONTINUOUS
10
1.45796
20
2.57631
11
1.46072
21
2.58962
0
LINE
8
BLACK
6
CONTINUOUS
10
1.46072
20
2.58962
11
1.46499
21
2.60253
0
LINE
8
BLACK
6
CONTINUOUS
10
1.46499
20
2.60253
11
1.47071
21
2.61487
0
LINE
8
BLACK
6
CONTINUOUS
10
1.47071
20
2.61487
11
1.47782
21
2.62646
0
LINE
8
BLACK
6
CONTINUOUS
10
1.47782
20
2.62646
11
1.48621
21
2.63716
0
LINE
8
BLACK
6
CONTINUOUS
10
1.48621
20
2.63716
11
1.49577
21
2.64683
0
LINE
8
BLACK
6
CONTINUOUS
10
1.49577
20
2.64683
11
1.50638
21
2.65533
0
LINE
8
BLACK
6
CONTINUOUS
10
1.50638
20
2.65533
11
1.5179
21
2.66256
0
LINE
8
BLACK
6
CONTINUOUS
10
1.5179
20
2.66256
11
1.53018
21
2.66841
0
LINE
8
BLACK
6
CONTINUOUS
10
1.53018
20
2.66841
11
1.54304
21
2.67281
0
LINE
8
BLACK
6
CONTINUOUS
10
1.54304
20
2.67281
11
1.55633
21
2.67571
0
LINE
8
BLACK
6
CONTINUOUS
10
1.55633
20
2.67571
11
1.56986
21
2.67706
0
LINE
8
BLACK
6
CONTINUOUS
10
1.56986
20
2.67706
11
1.58345
21
2.67685
0
LINE
8
BLACK
6
CONTINUOUS
10
2.37085
20
2.77527
11
2.38434
21
2.7735
0
LINE
8
BLACK
6
CONTINUOUS
10
2.38434
20
2.7735
11
2.39752
21
2.77019
0
LINE
8
BLACK
6
CONTINUOUS
10
2.39752
20
2.77019
11
2.41024
21
2.76538
0
LINE
8
BLACK
6
CONTINUOUS
10
2.41024
20
2.76538
11
2.42233
21
2.75914
0
LINE
8
BLACK
6
CONTINUOUS
10
2.42233
20
2.75914
11
2.43361
21
2.75156
0
LINE
8
BLACK
6
CONTINUOUS
10
2.43361
20
2.75156
11
2.44395
21
2.74273
0
LINE
8
BLACK
6
CONTINUOUS
10
2.44395
20
2.74273
11
2.45321
21
2.73277
0
LINE
8
BLACK
6
CONTINUOUS
10
2.45321
20
2.73277
11
2.46126
21
2.72181
0
LINE
8
BLACK
6
CONTINUOUS
10
2.46126
20
2.72181
11
2.468
21
2.71
0
LINE
8
BLACK
6
CONTINUOUS
10
2.468
20
2.71
11
2.47333
21
2.69749
0
LINE
8
BLACK
6
CONTINUOUS
10
2.47333
20
2.69749
11
2.47719
21
2.68445
0
LINE
8
BLACK
6
CONTINUOUS
10
2.47719
20
2.68445
11
2.47953
21
2.67106
0
LINE
8
BLACK
6
CONTINUOUS
10
2.47953
20
2.67106
11
2.48031
21
2.65748
0
LINE
8
BLACK
6
CONTINUOUS
10
2.48031
20
2.65748
11
2.48008
21
2.65006
0
LINE
8
BLACK
6
CONTINUOUS
10
2.48008
20
2.65006
11
2.47845
21
2.63656
0
LINE
8
BLACK
6
CONTINUOUS
10
2.47845
20
2.63656
11
2.47527
21
2.62334
0
LINE
8
BLACK
6
CONTINUOUS
10
2.47527
20
2.62334
11
2.4706
21
2.61057
0
LINE
8
BLACK
6
CONTINUOUS
10
2.4706
20
2.61057
11
2.46449
21
2.59843
0
LINE
8
BLACK
6
CONTINUOUS
10
2.46449
20
2.59843
11
2.45703
21
2.58706
0
LINE
8
BLACK
6
CONTINUOUS
10
2.45703
20
2.58706
11
2.4483
21
2.57663
0
LINE
8
BLACK
6
CONTINUOUS
10
2.4483
20
2.57663
11
2.43844
21
2.56727
0
LINE
8
BLACK
6
CONTINUOUS
10
2.43844
20
2.56727
11
2.42757
21
2.5591
0
LINE
8
BLACK
6
CONTINUOUS
10
2.42757
20
2.5591
11
2.41583
21
2.55224
0
LINE
8
BLACK
6
CONTINUOUS
10
2.41583
20
2.55224
11
2.40337
21
2.54678
0
LINE
8
BLACK
6
CONTINUOUS
10
2.40337
20
2.54678
11
2.39038
21
2.54278
0
LINE
8
BLACK
6
CONTINUOUS
10
2.39038
20
2.54278
11
2.37701
21
2.5403
0
LINE
8
BLACK
6
CONTINUOUS
10
2.37701
20
2.5403
11
2.36344
21
2.53938
0
LINE
8
BLACK
6
CONTINUOUS
10
2.36344
20
2.53938
11
2.34986
21
2.54002
0
LINE
8
BLACK
6
CONTINUOUS
10
2.34986
20
2.54002
11
2.33644
21
2.54221
0
LINE
8
BLACK
6
CONTINUOUS
10
2.33644
20
2.54221
11
2.32336
21
2.54594
0
LINE
8
BLACK
6
CONTINUOUS
10
2.32336
20
2.54594
11
2.3108
21
2.55114
0
LINE
8
BLACK
6
CONTINUOUS
10
2.3108
20
2.55114
11
2.29892
21
2.55776
0
LINE
8
BLACK
6
CONTINUOUS
10
2.29892
20
2.55776
11
2.28788
21
2.56569
0
LINE
8
BLACK
6
CONTINUOUS
10
2.28788
20
2.56569
11
2.27782
21
2.57484
0
LINE
8
BLACK
6
CONTINUOUS
10
2.27782
20
2.57484
11
2.26888
21
2.58509
0
LINE
8
BLACK
6
CONTINUOUS
10
2.26888
20
2.58509
11
2.26118
21
2.5963
0
LINE
8
BLACK
6
CONTINUOUS
10
2.26118
20
2.5963
11
2.25481
21
2.60831
0
LINE
8
BLACK
6
CONTINUOUS
10
2.25481
20
2.60831
11
2.24988
21
2.62098
0
LINE
8
BLACK
6
CONTINUOUS
10
2.24988
20
2.62098
11
2.24642
21
2.63413
0
LINE
8
BLACK
6
CONTINUOUS
10
2.24642
20
2.63413
11
2.24451
21
2.6476
0
LINE
8
BLACK
6
CONTINUOUS
10
2.24451
20
2.6476
11
2.24415
21
2.66119
0
LINE
8
BLACK
6
CONTINUOUS
10
2.24415
20
2.66119
11
2.24536
21
2.67473
0
LINE
8
BLACK
6
CONTINUOUS
10
2.24536
20
2.67473
11
2.24812
21
2.68805
0
LINE
8
BLACK
6
CONTINUOUS
10
2.24812
20
2.68805
11
2.25239
21
2.70096
0
LINE
8
BLACK
6
CONTINUOUS
10
2.25239
20
2.70096
11
2.25811
21
2.71329
0
LINE
8
BLACK
6
CONTINUOUS
10
2.25811
20
2.71329
11
2.26522
21
2.72489
0
LINE
8
BLACK
6
CONTINUOUS
10
2.26522
20
2.72489
11
2.27361
21
2.73559
0
LINE
8
BLACK
6
CONTINUOUS
10
2.27361
20
2.73559
11
2.28317
21
2.74525
0
LINE
8
BLACK
6
CONTINUOUS
10
2.28317
20
2.74525
11
2.29379
21
2.75376
0
LINE
8
BLACK
6
CONTINUOUS
10
2.29379
20
2.75376
11
2.3053
21
2.76098
0
LINE
8
BLACK
6
CONTINUOUS
10
2.3053
20
2.76098
11
2.31758
21
2.76684
0
LINE
8
BLACK
6
CONTINUOUS
10
2.31758
20
2.76684
11
2.33044
21
2.77124
0
LINE
8
BLACK
6
CONTINUOUS
10
2.33044
20
2.77124
11
2.34373
21
2.77414
0
LINE
8
BLACK
6
CONTINUOUS
10
2.34373
20
2.77414
11
2.35726
21
2.77549
0
LINE
8
BLACK
6
CONTINUOUS
10
2.35726
20
2.77549
11
2.37085
21
2.77527
  0
ENDSEC
  0
EOF
