  0
SECTION
  2
HEADER
  9
$ANGBASE
  50
0.0
  9
$ANGDIR
  70
1
  9
$MEASUREMENT
  70
0
  0
ENDSEC
  0
SECTION
  2
TABLES
  0
TABLE
  2
LTYPE
  70
4
  0
LTYPE
  5
40F
  2
CONTINUOUS
  70
0
  3
Solid line
  72
65
  73
0
  40
0.0
  0
LTYPE
  5
410
  2
DASHDOT
 70
0
  3
Dash Dot ____ _ ____ _
 72
65
 73
4
 40
2.0
 49
1.25
 49
-0.25
 49
0.25
 49
-0.25
  0
LTYPE
  5
411
  2
DASHED
 70
0
  3
Dashed __ __ __ __ __
 72
65
 73
2
 40
0.75
 49
0.5
 49
-0.25
  0
LTYPE
  5
43B
  2
DOTTED
 70
0
  3
Dotted .  .  .  .
 72
65
 73
2
 40
0.2
 49
0.0
 49
-0.2
  0
ENDTAB
  0
TABLE
  2
STYLE
  70
4
  0
STYLE
  2
KICAD
  70
0
  40
0
  41
1
  42
1
  50
0
  71
0
  3
isocp.shx
  0
STYLE
  2
KICADB
  70
0
  40
0
  41
1
  42
1
  50
0
  71
0
  3
isocp.shx
  0
STYLE
  2
KICADI
  70
0
  40
0
  41
1
  42
1
  50
15
  71
0
  3
isocp.shx
  0
STYLE
  2
KICADBI
  70
0
  40
0
  41
1
  42
1
  50
15
  71
0
  3
isocp.shx
  0
ENDTAB
  0
TABLE
  2
LAYER
  70
1
  0
LAYER
  2
BLACK
  70
0
  62
7
  6
CONTINUOUS
  0
ENDTAB
  0
ENDSEC
  0
SECTION
  2
ENTITIES
0
LINE
8
BLACK
6
CONTINUOUS
10
0.291036
20
0.0918122
11
0.296007
21
0.0900667
0
LINE
8
BLACK
6
CONTINUOUS
10
0.296007
20
0.0900667
11
0.300244
21
0.0869369
0
LINE
8
BLACK
6
CONTINUOUS
10
0.300244
20
0.0869369
11
0.303374
21
0.0826995
0
LINE
8
BLACK
6
CONTINUOUS
10
0.303374
20
0.0826995
11
0.305119
21
0.0777292
0
LINE
8
BLACK
6
CONTINUOUS
10
0.305119
20
0.0777292
11
0.305433
21
0.0744094
0
LINE
8
BLACK
6
CONTINUOUS
10
0.305433
20
0.0744094
11
0.305433
21
0.0537402
0
LINE
8
BLACK
6
CONTINUOUS
10
0.305433
20
0.0537402
11
0.305119
21
0.0504204
0
LINE
8
BLACK
6
CONTINUOUS
10
0.305119
20
0.0504204
11
0.303374
21
0.0454501
0
LINE
8
BLACK
6
CONTINUOUS
10
0.303374
20
0.0454501
11
0.300244
21
0.0412127
0
LINE
8
BLACK
6
CONTINUOUS
10
0.300244
20
0.0412127
11
0.296007
21
0.0380829
0
LINE
8
BLACK
6
CONTINUOUS
10
0.296007
20
0.0380829
11
0.291036
21
0.0363374
0
LINE
8
BLACK
6
CONTINUOUS
10
0.291036
20
0.0363374
11
0.287717
21
0.0360236
0
LINE
8
BLACK
6
CONTINUOUS
10
0.287717
20
0.0360236
11
0.252283
21
0.0360236
0
LINE
8
BLACK
6
CONTINUOUS
10
0.252283
20
0.0360236
11
0.248964
21
0.0363374
0
LINE
8
BLACK
6
CONTINUOUS
10
0.248964
20
0.0363374
11
0.243993
21
0.0380829
0
LINE
8
BLACK
6
CONTINUOUS
10
0.243993
20
0.0380829
11
0.239756
21
0.0412127
0
LINE
8
BLACK
6
CONTINUOUS
10
0.239756
20
0.0412127
11
0.236626
21
0.0454501
0
LINE
8
BLACK
6
CONTINUOUS
10
0.236626
20
0.0454501
11
0.234881
21
0.0504204
0
LINE
8
BLACK
6
CONTINUOUS
10
0.234881
20
0.0504204
11
0.234567
21
0.0537402
0
LINE
8
BLACK
6
CONTINUOUS
10
0.234567
20
0.0537402
11
0.234567
21
0.0744094
0
LINE
8
BLACK
6
CONTINUOUS
10
0.234567
20
0.0744094
11
0.234881
21
0.0777292
0
LINE
8
BLACK
6
CONTINUOUS
10
0.234881
20
0.0777292
11
0.236626
21
0.0826995
0
LINE
8
BLACK
6
CONTINUOUS
10
0.236626
20
0.0826995
11
0.239756
21
0.0869369
0
LINE
8
BLACK
6
CONTINUOUS
10
0.239756
20
0.0869369
11
0.243993
21
0.0900667
0
LINE
8
BLACK
6
CONTINUOUS
10
0.243993
20
0.0900667
11
0.248964
21
0.0918122
0
LINE
8
BLACK
6
CONTINUOUS
10
0.248964
20
0.0918122
11
0.252283
21
0.092126
0
LINE
8
BLACK
6
CONTINUOUS
10
0.252283
20
0.092126
11
0.287717
21
0.092126
0
LINE
8
BLACK
6
CONTINUOUS
10
0.287717
20
0.092126
11
0.291036
21
0.0918122
0
LINE
8
BLACK
6
CONTINUOUS
10
2.20301
20
0.13255
11
2.20557
21
0.130843
0
LINE
8
BLACK
6
CONTINUOUS
10
2.20557
20
0.130843
11
2.20727
21
0.128289
0
LINE
8
BLACK
6
CONTINUOUS
10
2.20727
20
0.128289
11
2.20787
21
0.125276
0
LINE
8
BLACK
6
CONTINUOUS
10
2.20787
20
0.125276
11
2.20787
21
0.0652756
0
LINE
8
BLACK
6
CONTINUOUS
10
2.20787
20
0.0652756
11
2.20727
21
0.0622623
0
LINE
8
BLACK
6
CONTINUOUS
10
2.20727
20
0.0622623
11
2.20557
21
0.0597078
0
LINE
8
BLACK
6
CONTINUOUS
10
2.20557
20
0.0597078
11
2.20301
21
0.0580009
0
LINE
8
BLACK
6
CONTINUOUS
10
2.20301
20
0.0580009
11
2.2
21
0.0574016
0
LINE
8
BLACK
6
CONTINUOUS
10
2.2
20
0.0574016
11
2.14
21
0.0574016
0
LINE
8
BLACK
6
CONTINUOUS
10
2.14
20
0.0574016
11
2.13699
21
0.0580009
0
LINE
8
BLACK
6
CONTINUOUS
10
2.13699
20
0.0580009
11
2.13443
21
0.0597078
0
LINE
8
BLACK
6
CONTINUOUS
10
2.13443
20
0.0597078
11
2.13273
21
0.0622623
0
LINE
8
BLACK
6
CONTINUOUS
10
2.13273
20
0.0622623
11
2.13213
21
0.0652756
0
LINE
8
BLACK
6
CONTINUOUS
10
2.13213
20
0.0652756
11
2.13213
21
0.125276
0
LINE
8
BLACK
6
CONTINUOUS
10
2.13213
20
0.125276
11
2.13273
21
0.128289
0
LINE
8
BLACK
6
CONTINUOUS
10
2.13273
20
0.128289
11
2.13443
21
0.130843
0
LINE
8
BLACK
6
CONTINUOUS
10
2.13443
20
0.130843
11
2.13699
21
0.13255
0
LINE
8
BLACK
6
CONTINUOUS
10
2.13699
20
0.13255
11
2.14
21
0.13315
0
LINE
8
BLACK
6
CONTINUOUS
10
2.14
20
0.13315
11
2.2
21
0.13315
0
LINE
8
BLACK
6
CONTINUOUS
10
2.2
20
0.13315
11
2.20301
21
0.13255
0
LINE
8
BLACK
6
CONTINUOUS
10
2.30301
20
0.13255
11
2.30557
21
0.130843
0
LINE
8
BLACK
6
CONTINUOUS
10
2.30557
20
0.130843
11
2.30727
21
0.128289
0
LINE
8
BLACK
6
CONTINUOUS
10
2.30727
20
0.128289
11
2.30787
21
0.125276
0
LINE
8
BLACK
6
CONTINUOUS
10
2.30787
20
0.125276
11
2.30787
21
0.0652756
0
LINE
8
BLACK
6
CONTINUOUS
10
2.30787
20
0.0652756
11
2.30727
21
0.0622623
0
LINE
8
BLACK
6
CONTINUOUS
10
2.30727
20
0.0622623
11
2.30557
21
0.0597078
0
LINE
8
BLACK
6
CONTINUOUS
10
2.30557
20
0.0597078
11
2.30301
21
0.0580009
0
LINE
8
BLACK
6
CONTINUOUS
10
2.30301
20
0.0580009
11
2.3
21
0.0574016
0
LINE
8
BLACK
6
CONTINUOUS
10
2.3
20
0.0574016
11
2.24
21
0.0574016
0
LINE
8
BLACK
6
CONTINUOUS
10
2.24
20
0.0574016
11
2.23699
21
0.0580009
0
LINE
8
BLACK
6
CONTINUOUS
10
2.23699
20
0.0580009
11
2.23443
21
0.0597078
0
LINE
8
BLACK
6
CONTINUOUS
10
2.23443
20
0.0597078
11
2.23273
21
0.0622623
0
LINE
8
BLACK
6
CONTINUOUS
10
2.23273
20
0.0622623
11
2.23213
21
0.0652756
0
LINE
8
BLACK
6
CONTINUOUS
10
2.23213
20
0.0652756
11
2.23213
21
0.125276
0
LINE
8
BLACK
6
CONTINUOUS
10
2.23213
20
0.125276
11
2.23273
21
0.128289
0
LINE
8
BLACK
6
CONTINUOUS
10
2.23273
20
0.128289
11
2.23443
21
0.130843
0
LINE
8
BLACK
6
CONTINUOUS
10
2.23443
20
0.130843
11
2.23699
21
0.13255
0
LINE
8
BLACK
6
CONTINUOUS
10
2.23699
20
0.13255
11
2.24
21
0.13315
0
LINE
8
BLACK
6
CONTINUOUS
10
2.24
20
0.13315
11
2.3
21
0.13315
0
LINE
8
BLACK
6
CONTINUOUS
10
2.3
20
0.13315
11
2.30301
21
0.13255
0
LINE
8
BLACK
6
CONTINUOUS
10
0.291036
20
0.163663
11
0.296007
21
0.161917
0
LINE
8
BLACK
6
CONTINUOUS
10
0.296007
20
0.161917
11
0.300244
21
0.158787
0
LINE
8
BLACK
6
CONTINUOUS
10
0.300244
20
0.158787
11
0.303374
21
0.15455
0
LINE
8
BLACK
6
CONTINUOUS
10
0.303374
20
0.15455
11
0.305119
21
0.14958
0
LINE
8
BLACK
6
CONTINUOUS
10
0.305119
20
0.14958
11
0.305433
21
0.14626
0
LINE
8
BLACK
6
CONTINUOUS
10
0.305433
20
0.14626
11
0.305433
21
0.125591
0
LINE
8
BLACK
6
CONTINUOUS
10
0.305433
20
0.125591
11
0.305119
21
0.122271
0
LINE
8
BLACK
6
CONTINUOUS
10
0.305119
20
0.122271
11
0.303374
21
0.1173
0
LINE
8
BLACK
6
CONTINUOUS
10
0.303374
20
0.1173
11
0.300244
21
0.113063
0
LINE
8
BLACK
6
CONTINUOUS
10
0.300244
20
0.113063
11
0.296007
21
0.109933
0
LINE
8
BLACK
6
CONTINUOUS
10
0.296007
20
0.109933
11
0.291036
21
0.108188
0
LINE
8
BLACK
6
CONTINUOUS
10
0.291036
20
0.108188
11
0.287717
21
0.107874
0
LINE
8
BLACK
6
CONTINUOUS
10
0.287717
20
0.107874
11
0.252283
21
0.107874
0
LINE
8
BLACK
6
CONTINUOUS
10
0.252283
20
0.107874
11
0.248964
21
0.108188
0
LINE
8
BLACK
6
CONTINUOUS
10
0.248964
20
0.108188
11
0.243993
21
0.109933
0
LINE
8
BLACK
6
CONTINUOUS
10
0.243993
20
0.109933
11
0.239756
21
0.113063
0
LINE
8
BLACK
6
CONTINUOUS
10
0.239756
20
0.113063
11
0.236626
21
0.1173
0
LINE
8
BLACK
6
CONTINUOUS
10
0.236626
20
0.1173
11
0.234881
21
0.122271
0
LINE
8
BLACK
6
CONTINUOUS
10
0.234881
20
0.122271
11
0.234567
21
0.125591
0
LINE
8
BLACK
6
CONTINUOUS
10
0.234567
20
0.125591
11
0.234567
21
0.14626
0
LINE
8
BLACK
6
CONTINUOUS
10
0.234567
20
0.14626
11
0.234881
21
0.14958
0
LINE
8
BLACK
6
CONTINUOUS
10
0.234881
20
0.14958
11
0.236626
21
0.15455
0
LINE
8
BLACK
6
CONTINUOUS
10
0.236626
20
0.15455
11
0.239756
21
0.158787
0
LINE
8
BLACK
6
CONTINUOUS
10
0.239756
20
0.158787
11
0.243993
21
0.161917
0
LINE
8
BLACK
6
CONTINUOUS
10
0.243993
20
0.161917
11
0.248964
21
0.163663
0
LINE
8
BLACK
6
CONTINUOUS
10
0.248964
20
0.163663
11
0.252283
21
0.163976
0
LINE
8
BLACK
6
CONTINUOUS
10
0.252283
20
0.163976
11
0.287717
21
0.163976
0
LINE
8
BLACK
6
CONTINUOUS
10
0.287717
20
0.163976
11
0.291036
21
0.163663
0
LINE
8
BLACK
6
CONTINUOUS
10
0.722021
20
0.179844
11
0.726991
21
0.178098
0
LINE
8
BLACK
6
CONTINUOUS
10
0.726991
20
0.178098
11
0.731228
21
0.174968
0
LINE
8
BLACK
6
CONTINUOUS
10
0.731228
20
0.174968
11
0.734358
21
0.170731
0
LINE
8
BLACK
6
CONTINUOUS
10
0.734358
20
0.170731
11
0.736104
21
0.165761
0
LINE
8
BLACK
6
CONTINUOUS
10
0.736104
20
0.165761
11
0.736417
21
0.162441
0
LINE
8
BLACK
6
CONTINUOUS
10
0.736417
20
0.162441
11
0.736417
21
0.142756
0
LINE
8
BLACK
6
CONTINUOUS
10
0.736417
20
0.142756
11
0.736104
21
0.139436
0
LINE
8
BLACK
6
CONTINUOUS
10
0.736104
20
0.139436
11
0.734358
21
0.134466
0
LINE
8
BLACK
6
CONTINUOUS
10
0.734358
20
0.134466
11
0.731228
21
0.130228
0
LINE
8
BLACK
6
CONTINUOUS
10
0.731228
20
0.130228
11
0.726991
21
0.127099
0
LINE
8
BLACK
6
CONTINUOUS
10
0.726991
20
0.127099
11
0.722021
21
0.125353
0
LINE
8
BLACK
6
CONTINUOUS
10
0.722021
20
0.125353
11
0.718701
21
0.125039
0
LINE
8
BLACK
6
CONTINUOUS
10
0.718701
20
0.125039
11
0.681299
21
0.125039
0
LINE
8
BLACK
6
CONTINUOUS
10
0.681299
20
0.125039
11
0.677979
21
0.125353
0
LINE
8
BLACK
6
CONTINUOUS
10
0.677979
20
0.125353
11
0.673009
21
0.127099
0
LINE
8
BLACK
6
CONTINUOUS
10
0.673009
20
0.127099
11
0.668772
21
0.130228
0
LINE
8
BLACK
6
CONTINUOUS
10
0.668772
20
0.130228
11
0.665642
21
0.134466
0
LINE
8
BLACK
6
CONTINUOUS
10
0.665642
20
0.134466
11
0.663896
21
0.139436
0
LINE
8
BLACK
6
CONTINUOUS
10
0.663896
20
0.139436
11
0.663583
21
0.142756
0
LINE
8
BLACK
6
CONTINUOUS
10
0.663583
20
0.142756
11
0.663583
21
0.162441
0
LINE
8
BLACK
6
CONTINUOUS
10
0.663583
20
0.162441
11
0.663896
21
0.165761
0
LINE
8
BLACK
6
CONTINUOUS
10
0.663896
20
0.165761
11
0.665642
21
0.170731
0
LINE
8
BLACK
6
CONTINUOUS
10
0.665642
20
0.170731
11
0.668772
21
0.174968
0
LINE
8
BLACK
6
CONTINUOUS
10
0.668772
20
0.174968
11
0.673009
21
0.178098
0
LINE
8
BLACK
6
CONTINUOUS
10
0.673009
20
0.178098
11
0.677979
21
0.179844
0
LINE
8
BLACK
6
CONTINUOUS
10
0.677979
20
0.179844
11
0.681299
21
0.180157
0
LINE
8
BLACK
6
CONTINUOUS
10
0.681299
20
0.180157
11
0.718701
21
0.180157
0
LINE
8
BLACK
6
CONTINUOUS
10
0.718701
20
0.180157
11
0.722021
21
0.179844
0
LINE
8
BLACK
6
CONTINUOUS
10
0.621036
20
0.181812
11
0.626007
21
0.180067
0
LINE
8
BLACK
6
CONTINUOUS
10
0.626007
20
0.180067
11
0.630244
21
0.176937
0
LINE
8
BLACK
6
CONTINUOUS
10
0.630244
20
0.176937
11
0.633374
21
0.1727
0
LINE
8
BLACK
6
CONTINUOUS
10
0.633374
20
0.1727
11
0.635119
21
0.167729
0
LINE
8
BLACK
6
CONTINUOUS
10
0.635119
20
0.167729
11
0.635433
21
0.164409
0
LINE
8
BLACK
6
CONTINUOUS
10
0.635433
20
0.164409
11
0.635433
21
0.14374
0
LINE
8
BLACK
6
CONTINUOUS
10
0.635433
20
0.14374
11
0.635119
21
0.14042
0
LINE
8
BLACK
6
CONTINUOUS
10
0.635119
20
0.14042
11
0.633374
21
0.13545
0
LINE
8
BLACK
6
CONTINUOUS
10
0.633374
20
0.13545
11
0.630244
21
0.131213
0
LINE
8
BLACK
6
CONTINUOUS
10
0.630244
20
0.131213
11
0.626007
21
0.128083
0
LINE
8
BLACK
6
CONTINUOUS
10
0.626007
20
0.128083
11
0.621036
21
0.126337
0
LINE
8
BLACK
6
CONTINUOUS
10
0.621036
20
0.126337
11
0.617717
21
0.126024
0
LINE
8
BLACK
6
CONTINUOUS
10
0.617717
20
0.126024
11
0.582283
21
0.126024
0
LINE
8
BLACK
6
CONTINUOUS
10
0.582283
20
0.126024
11
0.578964
21
0.126337
0
LINE
8
BLACK
6
CONTINUOUS
10
0.578964
20
0.126337
11
0.573993
21
0.128083
0
LINE
8
BLACK
6
CONTINUOUS
10
0.573993
20
0.128083
11
0.569756
21
0.131213
0
LINE
8
BLACK
6
CONTINUOUS
10
0.569756
20
0.131213
11
0.566626
21
0.13545
0
LINE
8
BLACK
6
CONTINUOUS
10
0.566626
20
0.13545
11
0.564881
21
0.14042
0
LINE
8
BLACK
6
CONTINUOUS
10
0.564881
20
0.14042
11
0.564567
21
0.14374
0
LINE
8
BLACK
6
CONTINUOUS
10
0.564567
20
0.14374
11
0.564567
21
0.164409
0
LINE
8
BLACK
6
CONTINUOUS
10
0.564567
20
0.164409
11
0.564881
21
0.167729
0
LINE
8
BLACK
6
CONTINUOUS
10
0.564881
20
0.167729
11
0.566626
21
0.1727
0
LINE
8
BLACK
6
CONTINUOUS
10
0.566626
20
0.1727
11
0.569756
21
0.176937
0
LINE
8
BLACK
6
CONTINUOUS
10
0.569756
20
0.176937
11
0.573993
21
0.180067
0
LINE
8
BLACK
6
CONTINUOUS
10
0.573993
20
0.180067
11
0.578964
21
0.181812
0
LINE
8
BLACK
6
CONTINUOUS
10
0.578964
20
0.181812
11
0.582283
21
0.182126
0
LINE
8
BLACK
6
CONTINUOUS
10
0.582283
20
0.182126
11
0.617717
21
0.182126
0
LINE
8
BLACK
6
CONTINUOUS
10
0.617717
20
0.182126
11
0.621036
21
0.181812
0
LINE
8
BLACK
6
CONTINUOUS
10
0.508159
20
0.243176
11
0.512224
21
0.241189
0
LINE
8
BLACK
6
CONTINUOUS
10
0.512224
20
0.241189
11
0.515427
21
0.237992
0
LINE
8
BLACK
6
CONTINUOUS
10
0.515427
20
0.237992
11
0.517421
21
0.23393
0
LINE
8
BLACK
6
CONTINUOUS
10
0.517421
20
0.23393
11
0.518002
21
0.22997
0
LINE
8
BLACK
6
CONTINUOUS
10
0.518002
20
0.22997
11
0.518002
21
0.218159
0
LINE
8
BLACK
6
CONTINUOUS
10
0.518002
20
0.218159
11
0.517428
21
0.214223
0
LINE
8
BLACK
6
CONTINUOUS
10
0.517428
20
0.214223
11
0.515441
21
0.210158
0
LINE
8
BLACK
6
CONTINUOUS
10
0.515441
20
0.210158
11
0.512244
21
0.206955
0
LINE
8
BLACK
6
CONTINUOUS
10
0.512244
20
0.206955
11
0.509
21
0.205363
0
LINE
8
BLACK
6
CONTINUOUS
10
0.509
20
0.205363
11
0.512224
21
0.203787
0
LINE
8
BLACK
6
CONTINUOUS
10
0.512224
20
0.203787
11
0.515427
21
0.20059
0
LINE
8
BLACK
6
CONTINUOUS
10
0.515427
20
0.20059
11
0.517421
21
0.196529
0
LINE
8
BLACK
6
CONTINUOUS
10
0.517421
20
0.196529
11
0.518002
21
0.192569
0
LINE
8
BLACK
6
CONTINUOUS
10
0.518002
20
0.192569
11
0.518002
21
0.180758
0
LINE
8
BLACK
6
CONTINUOUS
10
0.518002
20
0.180758
11
0.517428
21
0.176821
0
LINE
8
BLACK
6
CONTINUOUS
10
0.517428
20
0.176821
11
0.515441
21
0.172756
0
LINE
8
BLACK
6
CONTINUOUS
10
0.515441
20
0.172756
11
0.512244
21
0.169554
0
LINE
8
BLACK
6
CONTINUOUS
10
0.512244
20
0.169554
11
0.509
21
0.167961
0
LINE
8
BLACK
6
CONTINUOUS
10
0.509
20
0.167961
11
0.512224
21
0.166385
0
LINE
8
BLACK
6
CONTINUOUS
10
0.512224
20
0.166385
11
0.515427
21
0.163189
0
LINE
8
BLACK
6
CONTINUOUS
10
0.515427
20
0.163189
11
0.517421
21
0.159127
0
LINE
8
BLACK
6
CONTINUOUS
10
0.517421
20
0.159127
11
0.518002
21
0.155167
0
LINE
8
BLACK
6
CONTINUOUS
10
0.518002
20
0.155167
11
0.518002
21
0.143356
0
LINE
8
BLACK
6
CONTINUOUS
10
0.518002
20
0.143356
11
0.517428
21
0.13942
0
LINE
8
BLACK
6
CONTINUOUS
10
0.517428
20
0.13942
11
0.515441
21
0.135354
0
LINE
8
BLACK
6
CONTINUOUS
10
0.515441
20
0.135354
11
0.512244
21
0.132152
0
LINE
8
BLACK
6
CONTINUOUS
10
0.512244
20
0.132152
11
0.508182
21
0.130158
0
LINE
8
BLACK
6
CONTINUOUS
10
0.508182
20
0.130158
11
0.504222
21
0.129577
0
LINE
8
BLACK
6
CONTINUOUS
10
0.504222
20
0.129577
11
0.463868
21
0.129577
0
LINE
8
BLACK
6
CONTINUOUS
10
0.463868
20
0.129577
11
0.459931
21
0.130151
0
LINE
8
BLACK
6
CONTINUOUS
10
0.459931
20
0.130151
11
0.455866
21
0.132138
0
LINE
8
BLACK
6
CONTINUOUS
10
0.455866
20
0.132138
11
0.452664
21
0.135335
0
LINE
8
BLACK
6
CONTINUOUS
10
0.452664
20
0.135335
11
0.45067
21
0.139397
0
LINE
8
BLACK
6
CONTINUOUS
10
0.45067
20
0.139397
11
0.450089
21
0.143356
0
LINE
8
BLACK
6
CONTINUOUS
10
0.450089
20
0.143356
11
0.450089
21
0.155167
0
LINE
8
BLACK
6
CONTINUOUS
10
0.450089
20
0.155167
11
0.450663
21
0.159104
0
LINE
8
BLACK
6
CONTINUOUS
10
0.450663
20
0.159104
11
0.45265
21
0.163169
0
LINE
8
BLACK
6
CONTINUOUS
10
0.45265
20
0.163169
11
0.455847
21
0.166371
0
LINE
8
BLACK
6
CONTINUOUS
10
0.455847
20
0.166371
11
0.45909
21
0.167964
0
LINE
8
BLACK
6
CONTINUOUS
10
0.45909
20
0.167964
11
0.455866
21
0.16954
0
LINE
8
BLACK
6
CONTINUOUS
10
0.455866
20
0.16954
11
0.452664
21
0.172736
0
LINE
8
BLACK
6
CONTINUOUS
10
0.452664
20
0.172736
11
0.45067
21
0.176798
0
LINE
8
BLACK
6
CONTINUOUS
10
0.45067
20
0.176798
11
0.450089
21
0.180758
0
LINE
8
BLACK
6
CONTINUOUS
10
0.450089
20
0.180758
11
0.450089
21
0.192569
0
LINE
8
BLACK
6
CONTINUOUS
10
0.450089
20
0.192569
11
0.450663
21
0.196506
0
LINE
8
BLACK
6
CONTINUOUS
10
0.450663
20
0.196506
11
0.45265
21
0.200571
0
LINE
8
BLACK
6
CONTINUOUS
10
0.45265
20
0.200571
11
0.455847
21
0.203773
0
LINE
8
BLACK
6
CONTINUOUS
10
0.455847
20
0.203773
11
0.45909
21
0.205365
0
LINE
8
BLACK
6
CONTINUOUS
10
0.45909
20
0.205365
11
0.455866
21
0.206941
0
LINE
8
BLACK
6
CONTINUOUS
10
0.455866
20
0.206941
11
0.452664
21
0.210138
0
LINE
8
BLACK
6
CONTINUOUS
10
0.452664
20
0.210138
11
0.45067
21
0.2142
0
LINE
8
BLACK
6
CONTINUOUS
10
0.45067
20
0.2142
11
0.450089
21
0.218159
0
LINE
8
BLACK
6
CONTINUOUS
10
0.450089
20
0.218159
11
0.450089
21
0.22997
0
LINE
8
BLACK
6
CONTINUOUS
10
0.450089
20
0.22997
11
0.450663
21
0.233907
0
LINE
8
BLACK
6
CONTINUOUS
10
0.450663
20
0.233907
11
0.45265
21
0.237972
0
LINE
8
BLACK
6
CONTINUOUS
10
0.45265
20
0.237972
11
0.455847
21
0.241175
0
LINE
8
BLACK
6
CONTINUOUS
10
0.455847
20
0.241175
11
0.459908
21
0.243169
0
LINE
8
BLACK
6
CONTINUOUS
10
0.459908
20
0.243169
11
0.463868
21
0.24375
0
LINE
8
BLACK
6
CONTINUOUS
10
0.463868
20
0.24375
11
0.504222
21
0.24375
0
LINE
8
BLACK
6
CONTINUOUS
10
0.504222
20
0.24375
11
0.508159
21
0.243176
0
LINE
8
BLACK
6
CONTINUOUS
10
0.418592
20
0.243176
11
0.422657
21
0.241189
0
LINE
8
BLACK
6
CONTINUOUS
10
0.422657
20
0.241189
11
0.42586
21
0.237992
0
LINE
8
BLACK
6
CONTINUOUS
10
0.42586
20
0.237992
11
0.427854
21
0.23393
0
LINE
8
BLACK
6
CONTINUOUS
10
0.427854
20
0.23393
11
0.428435
21
0.22997
0
LINE
8
BLACK
6
CONTINUOUS
10
0.428435
20
0.22997
11
0.428435
21
0.218159
0
LINE
8
BLACK
6
CONTINUOUS
10
0.428435
20
0.218159
11
0.427861
21
0.214223
0
LINE
8
BLACK
6
CONTINUOUS
10
0.427861
20
0.214223
11
0.425874
21
0.210158
0
LINE
8
BLACK
6
CONTINUOUS
10
0.425874
20
0.210158
11
0.422677
21
0.206955
0
LINE
8
BLACK
6
CONTINUOUS
10
0.422677
20
0.206955
11
0.419434
21
0.205363
0
LINE
8
BLACK
6
CONTINUOUS
10
0.419434
20
0.205363
11
0.422657
21
0.203787
0
LINE
8
BLACK
6
CONTINUOUS
10
0.422657
20
0.203787
11
0.42586
21
0.20059
0
LINE
8
BLACK
6
CONTINUOUS
10
0.42586
20
0.20059
11
0.427854
21
0.196529
0
LINE
8
BLACK
6
CONTINUOUS
10
0.427854
20
0.196529
11
0.428435
21
0.192569
0
LINE
8
BLACK
6
CONTINUOUS
10
0.428435
20
0.192569
11
0.428435
21
0.180758
0
LINE
8
BLACK
6
CONTINUOUS
10
0.428435
20
0.180758
11
0.427861
21
0.176821
0
LINE
8
BLACK
6
CONTINUOUS
10
0.427861
20
0.176821
11
0.425874
21
0.172756
0
LINE
8
BLACK
6
CONTINUOUS
10
0.425874
20
0.172756
11
0.422677
21
0.169554
0
LINE
8
BLACK
6
CONTINUOUS
10
0.422677
20
0.169554
11
0.419434
21
0.167961
0
LINE
8
BLACK
6
CONTINUOUS
10
0.419434
20
0.167961
11
0.422657
21
0.166385
0
LINE
8
BLACK
6
CONTINUOUS
10
0.422657
20
0.166385
11
0.42586
21
0.163189
0
LINE
8
BLACK
6
CONTINUOUS
10
0.42586
20
0.163189
11
0.427854
21
0.159127
0
LINE
8
BLACK
6
CONTINUOUS
10
0.427854
20
0.159127
11
0.428435
21
0.155167
0
LINE
8
BLACK
6
CONTINUOUS
10
0.428435
20
0.155167
11
0.428435
21
0.143356
0
LINE
8
BLACK
6
CONTINUOUS
10
0.428435
20
0.143356
11
0.427861
21
0.13942
0
LINE
8
BLACK
6
CONTINUOUS
10
0.427861
20
0.13942
11
0.425874
21
0.135354
0
LINE
8
BLACK
6
CONTINUOUS
10
0.425874
20
0.135354
11
0.422677
21
0.132152
0
LINE
8
BLACK
6
CONTINUOUS
10
0.422677
20
0.132152
11
0.418615
21
0.130158
0
LINE
8
BLACK
6
CONTINUOUS
10
0.418615
20
0.130158
11
0.414656
21
0.129577
0
LINE
8
BLACK
6
CONTINUOUS
10
0.414656
20
0.129577
11
0.374301
21
0.129577
0
LINE
8
BLACK
6
CONTINUOUS
10
0.374301
20
0.129577
11
0.370365
21
0.130151
0
LINE
8
BLACK
6
CONTINUOUS
10
0.370365
20
0.130151
11
0.366299
21
0.132138
0
LINE
8
BLACK
6
CONTINUOUS
10
0.366299
20
0.132138
11
0.363097
21
0.135335
0
LINE
8
BLACK
6
CONTINUOUS
10
0.363097
20
0.135335
11
0.361103
21
0.139397
0
LINE
8
BLACK
6
CONTINUOUS
10
0.361103
20
0.139397
11
0.360522
21
0.143356
0
LINE
8
BLACK
6
CONTINUOUS
10
0.360522
20
0.143356
11
0.360522
21
0.155167
0
LINE
8
BLACK
6
CONTINUOUS
10
0.360522
20
0.155167
11
0.361096
21
0.159104
0
LINE
8
BLACK
6
CONTINUOUS
10
0.361096
20
0.159104
11
0.363083
21
0.163169
0
LINE
8
BLACK
6
CONTINUOUS
10
0.363083
20
0.163169
11
0.36628
21
0.166371
0
LINE
8
BLACK
6
CONTINUOUS
10
0.36628
20
0.166371
11
0.369523
21
0.167964
0
LINE
8
BLACK
6
CONTINUOUS
10
0.369523
20
0.167964
11
0.366299
21
0.16954
0
LINE
8
BLACK
6
CONTINUOUS
10
0.366299
20
0.16954
11
0.363097
21
0.172736
0
LINE
8
BLACK
6
CONTINUOUS
10
0.363097
20
0.172736
11
0.361103
21
0.176798
0
LINE
8
BLACK
6
CONTINUOUS
10
0.361103
20
0.176798
11
0.360522
21
0.180758
0
LINE
8
BLACK
6
CONTINUOUS
10
0.360522
20
0.180758
11
0.360522
21
0.192569
0
LINE
8
BLACK
6
CONTINUOUS
10
0.360522
20
0.192569
11
0.361096
21
0.196506
0
LINE
8
BLACK
6
CONTINUOUS
10
0.361096
20
0.196506
11
0.363083
21
0.200571
0
LINE
8
BLACK
6
CONTINUOUS
10
0.363083
20
0.200571
11
0.36628
21
0.203773
0
LINE
8
BLACK
6
CONTINUOUS
10
0.36628
20
0.203773
11
0.369523
21
0.205365
0
LINE
8
BLACK
6
CONTINUOUS
10
0.369523
20
0.205365
11
0.366299
21
0.206941
0
LINE
8
BLACK
6
CONTINUOUS
10
0.366299
20
0.206941
11
0.363097
21
0.210138
0
LINE
8
BLACK
6
CONTINUOUS
10
0.363097
20
0.210138
11
0.361103
21
0.2142
0
LINE
8
BLACK
6
CONTINUOUS
10
0.361103
20
0.2142
11
0.360522
21
0.218159
0
LINE
8
BLACK
6
CONTINUOUS
10
0.360522
20
0.218159
11
0.360522
21
0.22997
0
LINE
8
BLACK
6
CONTINUOUS
10
0.360522
20
0.22997
11
0.361096
21
0.233907
0
LINE
8
BLACK
6
CONTINUOUS
10
0.361096
20
0.233907
11
0.363083
21
0.237972
0
LINE
8
BLACK
6
CONTINUOUS
10
0.363083
20
0.237972
11
0.36628
21
0.241175
0
LINE
8
BLACK
6
CONTINUOUS
10
0.36628
20
0.241175
11
0.370341
21
0.243169
0
LINE
8
BLACK
6
CONTINUOUS
10
0.370341
20
0.243169
11
0.374301
21
0.24375
0
LINE
8
BLACK
6
CONTINUOUS
10
0.374301
20
0.24375
11
0.414656
21
0.24375
0
LINE
8
BLACK
6
CONTINUOUS
10
0.414656
20
0.24375
11
0.418592
21
0.243176
0
LINE
8
BLACK
6
CONTINUOUS
10
0.200298
20
0.208476
11
0.205268
21
0.20673
0
LINE
8
BLACK
6
CONTINUOUS
10
0.205268
20
0.20673
11
0.209506
21
0.2036
0
LINE
8
BLACK
6
CONTINUOUS
10
0.209506
20
0.2036
11
0.212636
21
0.199363
0
LINE
8
BLACK
6
CONTINUOUS
10
0.212636
20
0.199363
11
0.214381
21
0.194393
0
LINE
8
BLACK
6
CONTINUOUS
10
0.214381
20
0.194393
11
0.214695
21
0.191073
0
LINE
8
BLACK
6
CONTINUOUS
10
0.214695
20
0.191073
11
0.214695
21
0.170404
0
LINE
8
BLACK
6
CONTINUOUS
10
0.214695
20
0.170404
11
0.214381
21
0.167084
0
LINE
8
BLACK
6
CONTINUOUS
10
0.214381
20
0.167084
11
0.212636
21
0.162113
0
LINE
8
BLACK
6
CONTINUOUS
10
0.212636
20
0.162113
11
0.209506
21
0.157876
0
LINE
8
BLACK
6
CONTINUOUS
10
0.209506
20
0.157876
11
0.205268
21
0.154746
0
LINE
8
BLACK
6
CONTINUOUS
10
0.205268
20
0.154746
11
0.200298
21
0.153001
0
LINE
8
BLACK
6
CONTINUOUS
10
0.200298
20
0.153001
11
0.196978
21
0.152687
0
LINE
8
BLACK
6
CONTINUOUS
10
0.196978
20
0.152687
11
0.161545
21
0.152687
0
LINE
8
BLACK
6
CONTINUOUS
10
0.161545
20
0.152687
11
0.158226
21
0.153001
0
LINE
8
BLACK
6
CONTINUOUS
10
0.158226
20
0.153001
11
0.153255
21
0.154746
0
LINE
8
BLACK
6
CONTINUOUS
10
0.153255
20
0.154746
11
0.149018
21
0.157876
0
LINE
8
BLACK
6
CONTINUOUS
10
0.149018
20
0.157876
11
0.145888
21
0.162113
0
LINE
8
BLACK
6
CONTINUOUS
10
0.145888
20
0.162113
11
0.144143
21
0.167084
0
LINE
8
BLACK
6
CONTINUOUS
10
0.144143
20
0.167084
11
0.143829
21
0.170404
0
LINE
8
BLACK
6
CONTINUOUS
10
0.143829
20
0.170404
11
0.143829
21
0.191073
0
LINE
8
BLACK
6
CONTINUOUS
10
0.143829
20
0.191073
11
0.144143
21
0.194393
0
LINE
8
BLACK
6
CONTINUOUS
10
0.144143
20
0.194393
11
0.145888
21
0.199363
0
LINE
8
BLACK
6
CONTINUOUS
10
0.145888
20
0.199363
11
0.149018
21
0.2036
0
LINE
8
BLACK
6
CONTINUOUS
10
0.149018
20
0.2036
11
0.153255
21
0.20673
0
LINE
8
BLACK
6
CONTINUOUS
10
0.153255
20
0.20673
11
0.158226
21
0.208476
0
LINE
8
BLACK
6
CONTINUOUS
10
0.158226
20
0.208476
11
0.161545
21
0.208789
0
LINE
8
BLACK
6
CONTINUOUS
10
0.161545
20
0.208789
11
0.196978
21
0.208789
0
LINE
8
BLACK
6
CONTINUOUS
10
0.196978
20
0.208789
11
0.200298
21
0.208476
0
LINE
8
BLACK
6
CONTINUOUS
10
0.110298
20
0.208476
11
0.115268
21
0.20673
0
LINE
8
BLACK
6
CONTINUOUS
10
0.115268
20
0.20673
11
0.119506
21
0.2036
0
LINE
8
BLACK
6
CONTINUOUS
10
0.119506
20
0.2036
11
0.122636
21
0.199363
0
LINE
8
BLACK
6
CONTINUOUS
10
0.122636
20
0.199363
11
0.124381
21
0.194393
0
LINE
8
BLACK
6
CONTINUOUS
10
0.124381
20
0.194393
11
0.124695
21
0.191073
0
LINE
8
BLACK
6
CONTINUOUS
10
0.124695
20
0.191073
11
0.124695
21
0.170404
0
LINE
8
BLACK
6
CONTINUOUS
10
0.124695
20
0.170404
11
0.124381
21
0.167084
0
LINE
8
BLACK
6
CONTINUOUS
10
0.124381
20
0.167084
11
0.122636
21
0.162113
0
LINE
8
BLACK
6
CONTINUOUS
10
0.122636
20
0.162113
11
0.119506
21
0.157876
0
LINE
8
BLACK
6
CONTINUOUS
10
0.119506
20
0.157876
11
0.115268
21
0.154746
0
LINE
8
BLACK
6
CONTINUOUS
10
0.115268
20
0.154746
11
0.110298
21
0.153001
0
LINE
8
BLACK
6
CONTINUOUS
10
0.110298
20
0.153001
11
0.106978
21
0.152687
0
LINE
8
BLACK
6
CONTINUOUS
10
0.106978
20
0.152687
11
0.0715453
21
0.152687
0
LINE
8
BLACK
6
CONTINUOUS
10
0.0715453
20
0.152687
11
0.0682255
21
0.153001
0
LINE
8
BLACK
6
CONTINUOUS
10
0.0682255
20
0.153001
11
0.0632552
21
0.154746
0
LINE
8
BLACK
6
CONTINUOUS
10
0.0632552
20
0.154746
11
0.0590178
21
0.157876
0
LINE
8
BLACK
6
CONTINUOUS
10
0.0590178
20
0.157876
11
0.055888
21
0.162113
0
LINE
8
BLACK
6
CONTINUOUS
10
0.055888
20
0.162113
11
0.0541426
21
0.167084
0
LINE
8
BLACK
6
CONTINUOUS
10
0.0541426
20
0.167084
11
0.0538287
21
0.170404
0
LINE
8
BLACK
6
CONTINUOUS
10
0.0538287
20
0.170404
11
0.0538287
21
0.191073
0
LINE
8
BLACK
6
CONTINUOUS
10
0.0538287
20
0.191073
11
0.0541426
21
0.194393
0
LINE
8
BLACK
6
CONTINUOUS
10
0.0541426
20
0.194393
11
0.055888
21
0.199363
0
LINE
8
BLACK
6
CONTINUOUS
10
0.055888
20
0.199363
11
0.0590178
21
0.2036
0
LINE
8
BLACK
6
CONTINUOUS
10
0.0590178
20
0.2036
11
0.0632552
21
0.20673
0
LINE
8
BLACK
6
CONTINUOUS
10
0.0632552
20
0.20673
11
0.0682255
21
0.208476
0
LINE
8
BLACK
6
CONTINUOUS
10
0.0682255
20
0.208476
11
0.0715453
21
0.208789
0
LINE
8
BLACK
6
CONTINUOUS
10
0.0715453
20
0.208789
11
0.106978
21
0.208789
0
LINE
8
BLACK
6
CONTINUOUS
10
0.106978
20
0.208789
11
0.110298
21
0.208476
0
LINE
8
BLACK
6
CONTINUOUS
10
1.43202
20
0.209844
11
1.43699
21
0.208098
0
LINE
8
BLACK
6
CONTINUOUS
10
1.43699
20
0.208098
11
1.44123
21
0.204968
0
LINE
8
BLACK
6
CONTINUOUS
10
1.44123
20
0.204968
11
1.44436
21
0.200731
0
LINE
8
BLACK
6
CONTINUOUS
10
1.44436
20
0.200731
11
1.4461
21
0.195761
0
LINE
8
BLACK
6
CONTINUOUS
10
1.4461
20
0.195761
11
1.44642
21
0.192441
0
LINE
8
BLACK
6
CONTINUOUS
10
1.44642
20
0.192441
11
1.44642
21
0.172756
0
LINE
8
BLACK
6
CONTINUOUS
10
1.44642
20
0.172756
11
1.4461
21
0.169436
0
LINE
8
BLACK
6
CONTINUOUS
10
1.4461
20
0.169436
11
1.44436
21
0.164466
0
LINE
8
BLACK
6
CONTINUOUS
10
1.44436
20
0.164466
11
1.44123
21
0.160228
0
LINE
8
BLACK
6
CONTINUOUS
10
1.44123
20
0.160228
11
1.43699
21
0.157099
0
LINE
8
BLACK
6
CONTINUOUS
10
1.43699
20
0.157099
11
1.43202
21
0.155353
0
LINE
8
BLACK
6
CONTINUOUS
10
1.43202
20
0.155353
11
1.4287
21
0.155039
0
LINE
8
BLACK
6
CONTINUOUS
10
1.4287
20
0.155039
11
1.3913
21
0.155039
0
LINE
8
BLACK
6
CONTINUOUS
10
1.3913
20
0.155039
11
1.38798
21
0.155353
0
LINE
8
BLACK
6
CONTINUOUS
10
1.38798
20
0.155353
11
1.38301
21
0.157099
0
LINE
8
BLACK
6
CONTINUOUS
10
1.38301
20
0.157099
11
1.37877
21
0.160228
0
LINE
8
BLACK
6
CONTINUOUS
10
1.37877
20
0.160228
11
1.37564
21
0.164466
0
LINE
8
BLACK
6
CONTINUOUS
10
1.37564
20
0.164466
11
1.3739
21
0.169436
0
LINE
8
BLACK
6
CONTINUOUS
10
1.3739
20
0.169436
11
1.37358
21
0.172756
0
LINE
8
BLACK
6
CONTINUOUS
10
1.37358
20
0.172756
11
1.37358
21
0.192441
0
LINE
8
BLACK
6
CONTINUOUS
10
1.37358
20
0.192441
11
1.3739
21
0.195761
0
LINE
8
BLACK
6
CONTINUOUS
10
1.3739
20
0.195761
11
1.37564
21
0.200731
0
LINE
8
BLACK
6
CONTINUOUS
10
1.37564
20
0.200731
11
1.37877
21
0.204968
0
LINE
8
BLACK
6
CONTINUOUS
10
1.37877
20
0.204968
11
1.38301
21
0.208098
0
LINE
8
BLACK
6
CONTINUOUS
10
1.38301
20
0.208098
11
1.38798
21
0.209844
0
LINE
8
BLACK
6
CONTINUOUS
10
1.38798
20
0.209844
11
1.3913
21
0.210157
0
LINE
8
BLACK
6
CONTINUOUS
10
1.3913
20
0.210157
11
1.4287
21
0.210157
0
LINE
8
BLACK
6
CONTINUOUS
10
1.4287
20
0.210157
11
1.43202
21
0.209844
0
LINE
8
BLACK
6
CONTINUOUS
10
1.79202
20
0.209844
11
1.79699
21
0.208098
0
LINE
8
BLACK
6
CONTINUOUS
10
1.79699
20
0.208098
11
1.80123
21
0.204968
0
LINE
8
BLACK
6
CONTINUOUS
10
1.80123
20
0.204968
11
1.80436
21
0.200731
0
LINE
8
BLACK
6
CONTINUOUS
10
1.80436
20
0.200731
11
1.8061
21
0.195761
0
LINE
8
BLACK
6
CONTINUOUS
10
1.8061
20
0.195761
11
1.80642
21
0.192441
0
LINE
8
BLACK
6
CONTINUOUS
10
1.80642
20
0.192441
11
1.80642
21
0.172756
0
LINE
8
BLACK
6
CONTINUOUS
10
1.80642
20
0.172756
11
1.8061
21
0.169436
0
LINE
8
BLACK
6
CONTINUOUS
10
1.8061
20
0.169436
11
1.80436
21
0.164466
0
LINE
8
BLACK
6
CONTINUOUS
10
1.80436
20
0.164466
11
1.80123
21
0.160228
0
LINE
8
BLACK
6
CONTINUOUS
10
1.80123
20
0.160228
11
1.79699
21
0.157099
0
LINE
8
BLACK
6
CONTINUOUS
10
1.79699
20
0.157099
11
1.79202
21
0.155353
0
LINE
8
BLACK
6
CONTINUOUS
10
1.79202
20
0.155353
11
1.7887
21
0.155039
0
LINE
8
BLACK
6
CONTINUOUS
10
1.7887
20
0.155039
11
1.7513
21
0.155039
0
LINE
8
BLACK
6
CONTINUOUS
10
1.7513
20
0.155039
11
1.74798
21
0.155353
0
LINE
8
BLACK
6
CONTINUOUS
10
1.74798
20
0.155353
11
1.74301
21
0.157099
0
LINE
8
BLACK
6
CONTINUOUS
10
1.74301
20
0.157099
11
1.73877
21
0.160228
0
LINE
8
BLACK
6
CONTINUOUS
10
1.73877
20
0.160228
11
1.73564
21
0.164466
0
LINE
8
BLACK
6
CONTINUOUS
10
1.73564
20
0.164466
11
1.7339
21
0.169436
0
LINE
8
BLACK
6
CONTINUOUS
10
1.7339
20
0.169436
11
1.73358
21
0.172756
0
LINE
8
BLACK
6
CONTINUOUS
10
1.73358
20
0.172756
11
1.73358
21
0.192441
0
LINE
8
BLACK
6
CONTINUOUS
10
1.73358
20
0.192441
11
1.7339
21
0.195761
0
LINE
8
BLACK
6
CONTINUOUS
10
1.7339
20
0.195761
11
1.73564
21
0.200731
0
LINE
8
BLACK
6
CONTINUOUS
10
1.73564
20
0.200731
11
1.73877
21
0.204968
0
LINE
8
BLACK
6
CONTINUOUS
10
1.73877
20
0.204968
11
1.74301
21
0.208098
0
LINE
8
BLACK
6
CONTINUOUS
10
1.74301
20
0.208098
11
1.74798
21
0.209844
0
LINE
8
BLACK
6
CONTINUOUS
10
1.74798
20
0.209844
11
1.7513
21
0.210157
0
LINE
8
BLACK
6
CONTINUOUS
10
1.7513
20
0.210157
11
1.7887
21
0.210157
0
LINE
8
BLACK
6
CONTINUOUS
10
1.7887
20
0.210157
11
1.79202
21
0.209844
0
LINE
8
BLACK
6
CONTINUOUS
10
1.55202
20
0.209844
11
1.55699
21
0.208098
0
LINE
8
BLACK
6
CONTINUOUS
10
1.55699
20
0.208098
11
1.56123
21
0.204968
0
LINE
8
BLACK
6
CONTINUOUS
10
1.56123
20
0.204968
11
1.56436
21
0.200731
0
LINE
8
BLACK
6
CONTINUOUS
10
1.56436
20
0.200731
11
1.5661
21
0.195761
0
LINE
8
BLACK
6
CONTINUOUS
10
1.5661
20
0.195761
11
1.56642
21
0.192441
0
LINE
8
BLACK
6
CONTINUOUS
10
1.56642
20
0.192441
11
1.56642
21
0.172756
0
LINE
8
BLACK
6
CONTINUOUS
10
1.56642
20
0.172756
11
1.5661
21
0.169436
0
LINE
8
BLACK
6
CONTINUOUS
10
1.5661
20
0.169436
11
1.56436
21
0.164466
0
LINE
8
BLACK
6
CONTINUOUS
10
1.56436
20
0.164466
11
1.56123
21
0.160228
0
LINE
8
BLACK
6
CONTINUOUS
10
1.56123
20
0.160228
11
1.55699
21
0.157099
0
LINE
8
BLACK
6
CONTINUOUS
10
1.55699
20
0.157099
11
1.55202
21
0.155353
0
LINE
8
BLACK
6
CONTINUOUS
10
1.55202
20
0.155353
11
1.5487
21
0.155039
0
LINE
8
BLACK
6
CONTINUOUS
10
1.5487
20
0.155039
11
1.5113
21
0.155039
0
LINE
8
BLACK
6
CONTINUOUS
10
1.5113
20
0.155039
11
1.50798
21
0.155353
0
LINE
8
BLACK
6
CONTINUOUS
10
1.50798
20
0.155353
11
1.50301
21
0.157099
0
LINE
8
BLACK
6
CONTINUOUS
10
1.50301
20
0.157099
11
1.49877
21
0.160228
0
LINE
8
BLACK
6
CONTINUOUS
10
1.49877
20
0.160228
11
1.49564
21
0.164466
0
LINE
8
BLACK
6
CONTINUOUS
10
1.49564
20
0.164466
11
1.4939
21
0.169436
0
LINE
8
BLACK
6
CONTINUOUS
10
1.4939
20
0.169436
11
1.49358
21
0.172756
0
LINE
8
BLACK
6
CONTINUOUS
10
1.49358
20
0.172756
11
1.49358
21
0.192441
0
LINE
8
BLACK
6
CONTINUOUS
10
1.49358
20
0.192441
11
1.4939
21
0.195761
0
LINE
8
BLACK
6
CONTINUOUS
10
1.4939
20
0.195761
11
1.49564
21
0.200731
0
LINE
8
BLACK
6
CONTINUOUS
10
1.49564
20
0.200731
11
1.49877
21
0.204968
0
LINE
8
BLACK
6
CONTINUOUS
10
1.49877
20
0.204968
11
1.50301
21
0.208098
0
LINE
8
BLACK
6
CONTINUOUS
10
1.50301
20
0.208098
11
1.50798
21
0.209844
0
LINE
8
BLACK
6
CONTINUOUS
10
1.50798
20
0.209844
11
1.5113
21
0.210157
0
LINE
8
BLACK
6
CONTINUOUS
10
1.5113
20
0.210157
11
1.5487
21
0.210157
0
LINE
8
BLACK
6
CONTINUOUS
10
1.5487
20
0.210157
11
1.55202
21
0.209844
0
LINE
8
BLACK
6
CONTINUOUS
10
1.67202
20
0.209844
11
1.67699
21
0.208098
0
LINE
8
BLACK
6
CONTINUOUS
10
1.67699
20
0.208098
11
1.68123
21
0.204968
0
LINE
8
BLACK
6
CONTINUOUS
10
1.68123
20
0.204968
11
1.68436
21
0.200731
0
LINE
8
BLACK
6
CONTINUOUS
10
1.68436
20
0.200731
11
1.6861
21
0.195761
0
LINE
8
BLACK
6
CONTINUOUS
10
1.6861
20
0.195761
11
1.68642
21
0.192441
0
LINE
8
BLACK
6
CONTINUOUS
10
1.68642
20
0.192441
11
1.68642
21
0.172756
0
LINE
8
BLACK
6
CONTINUOUS
10
1.68642
20
0.172756
11
1.6861
21
0.169436
0
LINE
8
BLACK
6
CONTINUOUS
10
1.6861
20
0.169436
11
1.68436
21
0.164466
0
LINE
8
BLACK
6
CONTINUOUS
10
1.68436
20
0.164466
11
1.68123
21
0.160228
0
LINE
8
BLACK
6
CONTINUOUS
10
1.68123
20
0.160228
11
1.67699
21
0.157099
0
LINE
8
BLACK
6
CONTINUOUS
10
1.67699
20
0.157099
11
1.67202
21
0.155353
0
LINE
8
BLACK
6
CONTINUOUS
10
1.67202
20
0.155353
11
1.6687
21
0.155039
0
LINE
8
BLACK
6
CONTINUOUS
10
1.6687
20
0.155039
11
1.6313
21
0.155039
0
LINE
8
BLACK
6
CONTINUOUS
10
1.6313
20
0.155039
11
1.62798
21
0.155353
0
LINE
8
BLACK
6
CONTINUOUS
10
1.62798
20
0.155353
11
1.62301
21
0.157099
0
LINE
8
BLACK
6
CONTINUOUS
10
1.62301
20
0.157099
11
1.61877
21
0.160228
0
LINE
8
BLACK
6
CONTINUOUS
10
1.61877
20
0.160228
11
1.61564
21
0.164466
0
LINE
8
BLACK
6
CONTINUOUS
10
1.61564
20
0.164466
11
1.6139
21
0.169436
0
LINE
8
BLACK
6
CONTINUOUS
10
1.6139
20
0.169436
11
1.61358
21
0.172756
0
LINE
8
BLACK
6
CONTINUOUS
10
1.61358
20
0.172756
11
1.61358
21
0.192441
0
LINE
8
BLACK
6
CONTINUOUS
10
1.61358
20
0.192441
11
1.6139
21
0.195761
0
LINE
8
BLACK
6
CONTINUOUS
10
1.6139
20
0.195761
11
1.61564
21
0.200731
0
LINE
8
BLACK
6
CONTINUOUS
10
1.61564
20
0.200731
11
1.61877
21
0.204968
0
LINE
8
BLACK
6
CONTINUOUS
10
1.61877
20
0.204968
11
1.62301
21
0.208098
0
LINE
8
BLACK
6
CONTINUOUS
10
1.62301
20
0.208098
11
1.62798
21
0.209844
0
LINE
8
BLACK
6
CONTINUOUS
10
1.62798
20
0.209844
11
1.6313
21
0.210157
0
LINE
8
BLACK
6
CONTINUOUS
10
1.6313
20
0.210157
11
1.6687
21
0.210157
0
LINE
8
BLACK
6
CONTINUOUS
10
1.6687
20
0.210157
11
1.67202
21
0.209844
0
LINE
8
BLACK
6
CONTINUOUS
10
2.30301
20
0.23255
11
2.30557
21
0.230843
0
LINE
8
BLACK
6
CONTINUOUS
10
2.30557
20
0.230843
11
2.30727
21
0.228289
0
LINE
8
BLACK
6
CONTINUOUS
10
2.30727
20
0.228289
11
2.30787
21
0.225276
0
LINE
8
BLACK
6
CONTINUOUS
10
2.30787
20
0.225276
11
2.30787
21
0.165276
0
LINE
8
BLACK
6
CONTINUOUS
10
2.30787
20
0.165276
11
2.30727
21
0.162262
0
LINE
8
BLACK
6
CONTINUOUS
10
2.30727
20
0.162262
11
2.30557
21
0.159708
0
LINE
8
BLACK
6
CONTINUOUS
10
2.30557
20
0.159708
11
2.30301
21
0.158001
0
LINE
8
BLACK
6
CONTINUOUS
10
2.30301
20
0.158001
11
2.3
21
0.157402
0
LINE
8
BLACK
6
CONTINUOUS
10
2.3
20
0.157402
11
2.24
21
0.157402
0
LINE
8
BLACK
6
CONTINUOUS
10
2.24
20
0.157402
11
2.23699
21
0.158001
0
LINE
8
BLACK
6
CONTINUOUS
10
2.23699
20
0.158001
11
2.23443
21
0.159708
0
LINE
8
BLACK
6
CONTINUOUS
10
2.23443
20
0.159708
11
2.23273
21
0.162262
0
LINE
8
BLACK
6
CONTINUOUS
10
2.23273
20
0.162262
11
2.23213
21
0.165276
0
LINE
8
BLACK
6
CONTINUOUS
10
2.23213
20
0.165276
11
2.23213
21
0.225276
0
LINE
8
BLACK
6
CONTINUOUS
10
2.23213
20
0.225276
11
2.23273
21
0.228289
0
LINE
8
BLACK
6
CONTINUOUS
10
2.23273
20
0.228289
11
2.23443
21
0.230843
0
LINE
8
BLACK
6
CONTINUOUS
10
2.23443
20
0.230843
11
2.23699
21
0.23255
0
LINE
8
BLACK
6
CONTINUOUS
10
2.23699
20
0.23255
11
2.24
21
0.23315
0
LINE
8
BLACK
6
CONTINUOUS
10
2.24
20
0.23315
11
2.3
21
0.23315
0
LINE
8
BLACK
6
CONTINUOUS
10
2.3
20
0.23315
11
2.30301
21
0.23255
0
LINE
8
BLACK
6
CONTINUOUS
10
2.20301
20
0.23255
11
2.20557
21
0.230843
0
LINE
8
BLACK
6
CONTINUOUS
10
2.20557
20
0.230843
11
2.20727
21
0.228289
0
LINE
8
BLACK
6
CONTINUOUS
10
2.20727
20
0.228289
11
2.20787
21
0.225276
0
LINE
8
BLACK
6
CONTINUOUS
10
2.20787
20
0.225276
11
2.20787
21
0.165276
0
LINE
8
BLACK
6
CONTINUOUS
10
2.20787
20
0.165276
11
2.20727
21
0.162262
0
LINE
8
BLACK
6
CONTINUOUS
10
2.20727
20
0.162262
11
2.20557
21
0.159708
0
LINE
8
BLACK
6
CONTINUOUS
10
2.20557
20
0.159708
11
2.20301
21
0.158001
0
LINE
8
BLACK
6
CONTINUOUS
10
2.20301
20
0.158001
11
2.2
21
0.157402
0
LINE
8
BLACK
6
CONTINUOUS
10
2.2
20
0.157402
11
2.14
21
0.157402
0
LINE
8
BLACK
6
CONTINUOUS
10
2.14
20
0.157402
11
2.13699
21
0.158001
0
LINE
8
BLACK
6
CONTINUOUS
10
2.13699
20
0.158001
11
2.13443
21
0.159708
0
LINE
8
BLACK
6
CONTINUOUS
10
2.13443
20
0.159708
11
2.13273
21
0.162262
0
LINE
8
BLACK
6
CONTINUOUS
10
2.13273
20
0.162262
11
2.13213
21
0.165276
0
LINE
8
BLACK
6
CONTINUOUS
10
2.13213
20
0.165276
11
2.13213
21
0.225276
0
LINE
8
BLACK
6
CONTINUOUS
10
2.13213
20
0.225276
11
2.13273
21
0.228289
0
LINE
8
BLACK
6
CONTINUOUS
10
2.13273
20
0.228289
11
2.13443
21
0.230843
0
LINE
8
BLACK
6
CONTINUOUS
10
2.13443
20
0.230843
11
2.13699
21
0.23255
0
LINE
8
BLACK
6
CONTINUOUS
10
2.13699
20
0.23255
11
2.14
21
0.23315
0
LINE
8
BLACK
6
CONTINUOUS
10
2.14
20
0.23315
11
2.2
21
0.23315
0
LINE
8
BLACK
6
CONTINUOUS
10
2.2
20
0.23315
11
2.20301
21
0.23255
0
LINE
8
BLACK
6
CONTINUOUS
10
0.832021
20
0.229844
11
0.836991
21
0.228098
0
LINE
8
BLACK
6
CONTINUOUS
10
0.836991
20
0.228098
11
0.841228
21
0.224968
0
LINE
8
BLACK
6
CONTINUOUS
10
0.841228
20
0.224968
11
0.844358
21
0.220731
0
LINE
8
BLACK
6
CONTINUOUS
10
0.844358
20
0.220731
11
0.846104
21
0.215761
0
LINE
8
BLACK
6
CONTINUOUS
10
0.846104
20
0.215761
11
0.846417
21
0.212441
0
LINE
8
BLACK
6
CONTINUOUS
10
0.846417
20
0.212441
11
0.846417
21
0.192756
0
LINE
8
BLACK
6
CONTINUOUS
10
0.846417
20
0.192756
11
0.846104
21
0.189436
0
LINE
8
BLACK
6
CONTINUOUS
10
0.846104
20
0.189436
11
0.844358
21
0.184466
0
LINE
8
BLACK
6
CONTINUOUS
10
0.844358
20
0.184466
11
0.841228
21
0.180228
0
LINE
8
BLACK
6
CONTINUOUS
10
0.841228
20
0.180228
11
0.836991
21
0.177099
0
LINE
8
BLACK
6
CONTINUOUS
10
0.836991
20
0.177099
11
0.832021
21
0.175353
0
LINE
8
BLACK
6
CONTINUOUS
10
0.832021
20
0.175353
11
0.828701
21
0.175039
0
LINE
8
BLACK
6
CONTINUOUS
10
0.828701
20
0.175039
11
0.791299
21
0.175039
0
LINE
8
BLACK
6
CONTINUOUS
10
0.791299
20
0.175039
11
0.787979
21
0.175353
0
LINE
8
BLACK
6
CONTINUOUS
10
0.787979
20
0.175353
11
0.783009
21
0.177099
0
LINE
8
BLACK
6
CONTINUOUS
10
0.783009
20
0.177099
11
0.778772
21
0.180228
0
LINE
8
BLACK
6
CONTINUOUS
10
0.778772
20
0.180228
11
0.775642
21
0.184466
0
LINE
8
BLACK
6
CONTINUOUS
10
0.775642
20
0.184466
11
0.773896
21
0.189436
0
LINE
8
BLACK
6
CONTINUOUS
10
0.773896
20
0.189436
11
0.773583
21
0.192756
0
LINE
8
BLACK
6
CONTINUOUS
10
0.773583
20
0.192756
11
0.773583
21
0.212441
0
LINE
8
BLACK
6
CONTINUOUS
10
0.773583
20
0.212441
11
0.773896
21
0.215761
0
LINE
8
BLACK
6
CONTINUOUS
10
0.773896
20
0.215761
11
0.775642
21
0.220731
0
LINE
8
BLACK
6
CONTINUOUS
10
0.775642
20
0.220731
11
0.778772
21
0.224968
0
LINE
8
BLACK
6
CONTINUOUS
10
0.778772
20
0.224968
11
0.783009
21
0.228098
0
LINE
8
BLACK
6
CONTINUOUS
10
0.783009
20
0.228098
11
0.787979
21
0.229844
0
LINE
8
BLACK
6
CONTINUOUS
10
0.787979
20
0.229844
11
0.791299
21
0.230157
0
LINE
8
BLACK
6
CONTINUOUS
10
0.791299
20
0.230157
11
0.828701
21
0.230157
0
LINE
8
BLACK
6
CONTINUOUS
10
0.828701
20
0.230157
11
0.832021
21
0.229844
0
LINE
8
BLACK
6
CONTINUOUS
10
0.311036
20
0.235887
11
0.316007
21
0.234142
0
LINE
8
BLACK
6
CONTINUOUS
10
0.316007
20
0.234142
11
0.320244
21
0.231012
0
LINE
8
BLACK
6
CONTINUOUS
10
0.320244
20
0.231012
11
0.323374
21
0.226774
0
LINE
8
BLACK
6
CONTINUOUS
10
0.323374
20
0.226774
11
0.325119
21
0.221804
0
LINE
8
BLACK
6
CONTINUOUS
10
0.325119
20
0.221804
11
0.325433
21
0.218484
0
LINE
8
BLACK
6
CONTINUOUS
10
0.325433
20
0.218484
11
0.325433
21
0.197815
0
LINE
8
BLACK
6
CONTINUOUS
10
0.325433
20
0.197815
11
0.325119
21
0.194495
0
LINE
8
BLACK
6
CONTINUOUS
10
0.325119
20
0.194495
11
0.323374
21
0.189525
0
LINE
8
BLACK
6
CONTINUOUS
10
0.323374
20
0.189525
11
0.320244
21
0.185287
0
LINE
8
BLACK
6
CONTINUOUS
10
0.320244
20
0.185287
11
0.316007
21
0.182158
0
LINE
8
BLACK
6
CONTINUOUS
10
0.316007
20
0.182158
11
0.311036
21
0.180412
0
LINE
8
BLACK
6
CONTINUOUS
10
0.311036
20
0.180412
11
0.307717
21
0.180098
0
LINE
8
BLACK
6
CONTINUOUS
10
0.307717
20
0.180098
11
0.272283
21
0.180098
0
LINE
8
BLACK
6
CONTINUOUS
10
0.272283
20
0.180098
11
0.268964
21
0.180412
0
LINE
8
BLACK
6
CONTINUOUS
10
0.268964
20
0.180412
11
0.263993
21
0.182158
0
LINE
8
BLACK
6
CONTINUOUS
10
0.263993
20
0.182158
11
0.259756
21
0.185287
0
LINE
8
BLACK
6
CONTINUOUS
10
0.259756
20
0.185287
11
0.256626
21
0.189525
0
LINE
8
BLACK
6
CONTINUOUS
10
0.256626
20
0.189525
11
0.254881
21
0.194495
0
LINE
8
BLACK
6
CONTINUOUS
10
0.254881
20
0.194495
11
0.254567
21
0.197815
0
LINE
8
BLACK
6
CONTINUOUS
10
0.254567
20
0.197815
11
0.254567
21
0.218484
0
LINE
8
BLACK
6
CONTINUOUS
10
0.254567
20
0.218484
11
0.254881
21
0.221804
0
LINE
8
BLACK
6
CONTINUOUS
10
0.254881
20
0.221804
11
0.256626
21
0.226774
0
LINE
8
BLACK
6
CONTINUOUS
10
0.256626
20
0.226774
11
0.259756
21
0.231012
0
LINE
8
BLACK
6
CONTINUOUS
10
0.259756
20
0.231012
11
0.263993
21
0.234142
0
LINE
8
BLACK
6
CONTINUOUS
10
0.263993
20
0.234142
11
0.268964
21
0.235887
0
LINE
8
BLACK
6
CONTINUOUS
10
0.268964
20
0.235887
11
0.272283
21
0.236201
0
LINE
8
BLACK
6
CONTINUOUS
10
0.272283
20
0.236201
11
0.307717
21
0.236201
0
LINE
8
BLACK
6
CONTINUOUS
10
0.307717
20
0.236201
11
0.311036
21
0.235887
0
LINE
8
BLACK
6
CONTINUOUS
10
1.91679
20
0.221527
11
1.91935
21
0.21982
0
LINE
8
BLACK
6
CONTINUOUS
10
1.91935
20
0.21982
11
1.92105
21
0.217265
0
LINE
8
BLACK
6
CONTINUOUS
10
1.92105
20
0.217265
11
1.92165
21
0.214252
0
LINE
8
BLACK
6
CONTINUOUS
10
1.92165
20
0.214252
11
1.92165
21
0.19063
0
LINE
8
BLACK
6
CONTINUOUS
10
1.92165
20
0.19063
11
1.92105
21
0.187617
0
LINE
8
BLACK
6
CONTINUOUS
10
1.92105
20
0.187617
11
1.91935
21
0.185062
0
LINE
8
BLACK
6
CONTINUOUS
10
1.91935
20
0.185062
11
1.91679
21
0.183355
0
LINE
8
BLACK
6
CONTINUOUS
10
1.91679
20
0.183355
11
1.91378
21
0.182756
0
LINE
8
BLACK
6
CONTINUOUS
10
1.91378
20
0.182756
11
1.88622
21
0.182756
0
LINE
8
BLACK
6
CONTINUOUS
10
1.88622
20
0.182756
11
1.88321
21
0.183355
0
LINE
8
BLACK
6
CONTINUOUS
10
1.88321
20
0.183355
11
1.88065
21
0.185062
0
LINE
8
BLACK
6
CONTINUOUS
10
1.88065
20
0.185062
11
1.87895
21
0.187617
0
LINE
8
BLACK
6
CONTINUOUS
10
1.87895
20
0.187617
11
1.87835
21
0.19063
0
LINE
8
BLACK
6
CONTINUOUS
10
1.87835
20
0.19063
11
1.87835
21
0.214252
0
LINE
8
BLACK
6
CONTINUOUS
10
1.87835
20
0.214252
11
1.87895
21
0.217265
0
LINE
8
BLACK
6
CONTINUOUS
10
1.87895
20
0.217265
11
1.88065
21
0.21982
0
LINE
8
BLACK
6
CONTINUOUS
10
1.88065
20
0.21982
11
1.88321
21
0.221527
0
LINE
8
BLACK
6
CONTINUOUS
10
1.88321
20
0.221527
11
1.88622
21
0.222126
0
LINE
8
BLACK
6
CONTINUOUS
10
1.88622
20
0.222126
11
1.91378
21
0.222126
0
LINE
8
BLACK
6
CONTINUOUS
10
1.91378
20
0.222126
11
1.91679
21
0.221527
0
LINE
8
BLACK
6
CONTINUOUS
10
0.621036
20
0.253663
11
0.626007
21
0.251917
0
LINE
8
BLACK
6
CONTINUOUS
10
0.626007
20
0.251917
11
0.630244
21
0.248787
0
LINE
8
BLACK
6
CONTINUOUS
10
0.630244
20
0.248787
11
0.633374
21
0.24455
0
LINE
8
BLACK
6
CONTINUOUS
10
0.633374
20
0.24455
11
0.635119
21
0.23958
0
LINE
8
BLACK
6
CONTINUOUS
10
0.635119
20
0.23958
11
0.635433
21
0.23626
0
LINE
8
BLACK
6
CONTINUOUS
10
0.635433
20
0.23626
11
0.635433
21
0.215591
0
LINE
8
BLACK
6
CONTINUOUS
10
0.635433
20
0.215591
11
0.635119
21
0.212271
0
LINE
8
BLACK
6
CONTINUOUS
10
0.635119
20
0.212271
11
0.633374
21
0.2073
0
LINE
8
BLACK
6
CONTINUOUS
10
0.633374
20
0.2073
11
0.630244
21
0.203063
0
LINE
8
BLACK
6
CONTINUOUS
10
0.630244
20
0.203063
11
0.626007
21
0.199933
0
LINE
8
BLACK
6
CONTINUOUS
10
0.626007
20
0.199933
11
0.621036
21
0.198188
0
LINE
8
BLACK
6
CONTINUOUS
10
0.621036
20
0.198188
11
0.617717
21
0.197874
0
LINE
8
BLACK
6
CONTINUOUS
10
0.617717
20
0.197874
11
0.582283
21
0.197874
0
LINE
8
BLACK
6
CONTINUOUS
10
0.582283
20
0.197874
11
0.578964
21
0.198188
0
LINE
8
BLACK
6
CONTINUOUS
10
0.578964
20
0.198188
11
0.573993
21
0.199933
0
LINE
8
BLACK
6
CONTINUOUS
10
0.573993
20
0.199933
11
0.569756
21
0.203063
0
LINE
8
BLACK
6
CONTINUOUS
10
0.569756
20
0.203063
11
0.566626
21
0.2073
0
LINE
8
BLACK
6
CONTINUOUS
10
0.566626
20
0.2073
11
0.564881
21
0.212271
0
LINE
8
BLACK
6
CONTINUOUS
10
0.564881
20
0.212271
11
0.564567
21
0.215591
0
LINE
8
BLACK
6
CONTINUOUS
10
0.564567
20
0.215591
11
0.564567
21
0.23626
0
LINE
8
BLACK
6
CONTINUOUS
10
0.564567
20
0.23626
11
0.564881
21
0.23958
0
LINE
8
BLACK
6
CONTINUOUS
10
0.564881
20
0.23958
11
0.566626
21
0.24455
0
LINE
8
BLACK
6
CONTINUOUS
10
0.566626
20
0.24455
11
0.569756
21
0.248787
0
LINE
8
BLACK
6
CONTINUOUS
10
0.569756
20
0.248787
11
0.573993
21
0.251917
0
LINE
8
BLACK
6
CONTINUOUS
10
0.573993
20
0.251917
11
0.578964
21
0.253663
0
LINE
8
BLACK
6
CONTINUOUS
10
0.578964
20
0.253663
11
0.582283
21
0.253976
0
LINE
8
BLACK
6
CONTINUOUS
10
0.582283
20
0.253976
11
0.617717
21
0.253976
0
LINE
8
BLACK
6
CONTINUOUS
10
0.617717
20
0.253976
11
0.621036
21
0.253663
0
LINE
8
BLACK
6
CONTINUOUS
10
0.722021
20
0.254647
11
0.726991
21
0.252901
0
LINE
8
BLACK
6
CONTINUOUS
10
0.726991
20
0.252901
11
0.731228
21
0.249772
0
LINE
8
BLACK
6
CONTINUOUS
10
0.731228
20
0.249772
11
0.734358
21
0.245534
0
LINE
8
BLACK
6
CONTINUOUS
10
0.734358
20
0.245534
11
0.736104
21
0.240564
0
LINE
8
BLACK
6
CONTINUOUS
10
0.736104
20
0.240564
11
0.736417
21
0.237244
0
LINE
8
BLACK
6
CONTINUOUS
10
0.736417
20
0.237244
11
0.736417
21
0.217559
0
LINE
8
BLACK
6
CONTINUOUS
10
0.736417
20
0.217559
11
0.736104
21
0.214239
0
LINE
8
BLACK
6
CONTINUOUS
10
0.736104
20
0.214239
11
0.734358
21
0.209269
0
LINE
8
BLACK
6
CONTINUOUS
10
0.734358
20
0.209269
11
0.731228
21
0.205032
0
LINE
8
BLACK
6
CONTINUOUS
10
0.731228
20
0.205032
11
0.726991
21
0.201902
0
LINE
8
BLACK
6
CONTINUOUS
10
0.726991
20
0.201902
11
0.722021
21
0.200156
0
LINE
8
BLACK
6
CONTINUOUS
10
0.722021
20
0.200156
11
0.718701
21
0.199843
0
LINE
8
BLACK
6
CONTINUOUS
10
0.718701
20
0.199843
11
0.681299
21
0.199843
0
LINE
8
BLACK
6
CONTINUOUS
10
0.681299
20
0.199843
11
0.677979
21
0.200156
0
LINE
8
BLACK
6
CONTINUOUS
10
0.677979
20
0.200156
11
0.673009
21
0.201902
0
LINE
8
BLACK
6
CONTINUOUS
10
0.673009
20
0.201902
11
0.668772
21
0.205032
0
LINE
8
BLACK
6
CONTINUOUS
10
0.668772
20
0.205032
11
0.665642
21
0.209269
0
LINE
8
BLACK
6
CONTINUOUS
10
0.665642
20
0.209269
11
0.663896
21
0.214239
0
LINE
8
BLACK
6
CONTINUOUS
10
0.663896
20
0.214239
11
0.663583
21
0.217559
0
LINE
8
BLACK
6
CONTINUOUS
10
0.663583
20
0.217559
11
0.663583
21
0.237244
0
LINE
8
BLACK
6
CONTINUOUS
10
0.663583
20
0.237244
11
0.663896
21
0.240564
0
LINE
8
BLACK
6
CONTINUOUS
10
0.663896
20
0.240564
11
0.665642
21
0.245534
0
LINE
8
BLACK
6
CONTINUOUS
10
0.665642
20
0.245534
11
0.668772
21
0.249772
0
LINE
8
BLACK
6
CONTINUOUS
10
0.668772
20
0.249772
11
0.673009
21
0.252901
0
LINE
8
BLACK
6
CONTINUOUS
10
0.673009
20
0.252901
11
0.677979
21
0.254647
0
LINE
8
BLACK
6
CONTINUOUS
10
0.677979
20
0.254647
11
0.681299
21
0.254961
0
LINE
8
BLACK
6
CONTINUOUS
10
0.681299
20
0.254961
11
0.718701
21
0.254961
0
LINE
8
BLACK
6
CONTINUOUS
10
0.718701
20
0.254961
11
0.722021
21
0.254647
0
LINE
8
BLACK
6
CONTINUOUS
10
1.23773
20
0.285119
11
1.2427
21
0.283374
0
LINE
8
BLACK
6
CONTINUOUS
10
1.2427
20
0.283374
11
1.24694
21
0.280244
0
LINE
8
BLACK
6
CONTINUOUS
10
1.24694
20
0.280244
11
1.25007
21
0.276007
0
LINE
8
BLACK
6
CONTINUOUS
10
1.25007
20
0.276007
11
1.25181
21
0.271036
0
LINE
8
BLACK
6
CONTINUOUS
10
1.25181
20
0.271036
11
1.25213
21
0.267717
0
LINE
8
BLACK
6
CONTINUOUS
10
1.25213
20
0.267717
11
1.25213
21
0.232283
0
LINE
8
BLACK
6
CONTINUOUS
10
1.25213
20
0.232283
11
1.25181
21
0.228964
0
LINE
8
BLACK
6
CONTINUOUS
10
1.25181
20
0.228964
11
1.25007
21
0.223993
0
LINE
8
BLACK
6
CONTINUOUS
10
1.25007
20
0.223993
11
1.24694
21
0.219756
0
LINE
8
BLACK
6
CONTINUOUS
10
1.24694
20
0.219756
11
1.2427
21
0.216626
0
LINE
8
BLACK
6
CONTINUOUS
10
1.2427
20
0.216626
11
1.23773
21
0.214881
0
LINE
8
BLACK
6
CONTINUOUS
10
1.23773
20
0.214881
11
1.23441
21
0.214567
0
LINE
8
BLACK
6
CONTINUOUS
10
1.23441
20
0.214567
11
1.21374
21
0.214567
0
LINE
8
BLACK
6
CONTINUOUS
10
1.21374
20
0.214567
11
1.21042
21
0.214881
0
LINE
8
BLACK
6
CONTINUOUS
10
1.21042
20
0.214881
11
1.20545
21
0.216626
0
LINE
8
BLACK
6
CONTINUOUS
10
1.20545
20
0.216626
11
1.20121
21
0.219756
0
LINE
8
BLACK
6
CONTINUOUS
10
1.20121
20
0.219756
11
1.19808
21
0.223993
0
LINE
8
BLACK
6
CONTINUOUS
10
1.19808
20
0.223993
11
1.19634
21
0.228964
0
LINE
8
BLACK
6
CONTINUOUS
10
1.19634
20
0.228964
11
1.19602
21
0.232283
0
LINE
8
BLACK
6
CONTINUOUS
10
1.19602
20
0.232283
11
1.19602
21
0.267717
0
LINE
8
BLACK
6
CONTINUOUS
10
1.19602
20
0.267717
11
1.19634
21
0.271036
0
LINE
8
BLACK
6
CONTINUOUS
10
1.19634
20
0.271036
11
1.19808
21
0.276007
0
LINE
8
BLACK
6
CONTINUOUS
10
1.19808
20
0.276007
11
1.20121
21
0.280244
0
LINE
8
BLACK
6
CONTINUOUS
10
1.20121
20
0.280244
11
1.20545
21
0.283374
0
LINE
8
BLACK
6
CONTINUOUS
10
1.20545
20
0.283374
11
1.21042
21
0.285119
0
LINE
8
BLACK
6
CONTINUOUS
10
1.21042
20
0.285119
11
1.21374
21
0.285433
0
LINE
8
BLACK
6
CONTINUOUS
10
1.21374
20
0.285433
11
1.23441
21
0.285433
0
LINE
8
BLACK
6
CONTINUOUS
10
1.23441
20
0.285433
11
1.23773
21
0.285119
0
LINE
8
BLACK
6
CONTINUOUS
10
1.30958
20
0.285119
11
1.31455
21
0.283374
0
LINE
8
BLACK
6
CONTINUOUS
10
1.31455
20
0.283374
11
1.31879
21
0.280244
0
LINE
8
BLACK
6
CONTINUOUS
10
1.31879
20
0.280244
11
1.32192
21
0.276007
0
LINE
8
BLACK
6
CONTINUOUS
10
1.32192
20
0.276007
11
1.32366
21
0.271036
0
LINE
8
BLACK
6
CONTINUOUS
10
1.32366
20
0.271036
11
1.32398
21
0.267717
0
LINE
8
BLACK
6
CONTINUOUS
10
1.32398
20
0.267717
11
1.32398
21
0.232283
0
LINE
8
BLACK
6
CONTINUOUS
10
1.32398
20
0.232283
11
1.32366
21
0.228964
0
LINE
8
BLACK
6
CONTINUOUS
10
1.32366
20
0.228964
11
1.32192
21
0.223993
0
LINE
8
BLACK
6
CONTINUOUS
10
1.32192
20
0.223993
11
1.31879
21
0.219756
0
LINE
8
BLACK
6
CONTINUOUS
10
1.31879
20
0.219756
11
1.31455
21
0.216626
0
LINE
8
BLACK
6
CONTINUOUS
10
1.31455
20
0.216626
11
1.30958
21
0.214881
0
LINE
8
BLACK
6
CONTINUOUS
10
1.30958
20
0.214881
11
1.30626
21
0.214567
0
LINE
8
BLACK
6
CONTINUOUS
10
1.30626
20
0.214567
11
1.28559
21
0.214567
0
LINE
8
BLACK
6
CONTINUOUS
10
1.28559
20
0.214567
11
1.28227
21
0.214881
0
LINE
8
BLACK
6
CONTINUOUS
10
1.28227
20
0.214881
11
1.2773
21
0.216626
0
LINE
8
BLACK
6
CONTINUOUS
10
1.2773
20
0.216626
11
1.27306
21
0.219756
0
LINE
8
BLACK
6
CONTINUOUS
10
1.27306
20
0.219756
11
1.26993
21
0.223993
0
LINE
8
BLACK
6
CONTINUOUS
10
1.26993
20
0.223993
11
1.26819
21
0.228964
0
LINE
8
BLACK
6
CONTINUOUS
10
1.26819
20
0.228964
11
1.26787
21
0.232283
0
LINE
8
BLACK
6
CONTINUOUS
10
1.26787
20
0.232283
11
1.26787
21
0.267717
0
LINE
8
BLACK
6
CONTINUOUS
10
1.26787
20
0.267717
11
1.26819
21
0.271036
0
LINE
8
BLACK
6
CONTINUOUS
10
1.26819
20
0.271036
11
1.26993
21
0.276007
0
LINE
8
BLACK
6
CONTINUOUS
10
1.26993
20
0.276007
11
1.27306
21
0.280244
0
LINE
8
BLACK
6
CONTINUOUS
10
1.27306
20
0.280244
11
1.2773
21
0.283374
0
LINE
8
BLACK
6
CONTINUOUS
10
1.2773
20
0.283374
11
1.28227
21
0.285119
0
LINE
8
BLACK
6
CONTINUOUS
10
1.28227
20
0.285119
11
1.28559
21
0.285433
0
LINE
8
BLACK
6
CONTINUOUS
10
1.28559
20
0.285433
11
1.30626
21
0.285433
0
LINE
8
BLACK
6
CONTINUOUS
10
1.30626
20
0.285433
11
1.30958
21
0.285119
0
LINE
8
BLACK
6
CONTINUOUS
10
0.110298
20
0.280326
11
0.115268
21
0.278581
0
LINE
8
BLACK
6
CONTINUOUS
10
0.115268
20
0.278581
11
0.119506
21
0.275451
0
LINE
8
BLACK
6
CONTINUOUS
10
0.119506
20
0.275451
11
0.122636
21
0.271213
0
LINE
8
BLACK
6
CONTINUOUS
10
0.122636
20
0.271213
11
0.124381
21
0.266243
0
LINE
8
BLACK
6
CONTINUOUS
10
0.124381
20
0.266243
11
0.124695
21
0.262923
0
LINE
8
BLACK
6
CONTINUOUS
10
0.124695
20
0.262923
11
0.124695
21
0.242254
0
LINE
8
BLACK
6
CONTINUOUS
10
0.124695
20
0.242254
11
0.124381
21
0.238934
0
LINE
8
BLACK
6
CONTINUOUS
10
0.124381
20
0.238934
11
0.122636
21
0.233964
0
LINE
8
BLACK
6
CONTINUOUS
10
0.122636
20
0.233964
11
0.119506
21
0.229726
0
LINE
8
BLACK
6
CONTINUOUS
10
0.119506
20
0.229726
11
0.115268
21
0.226597
0
LINE
8
BLACK
6
CONTINUOUS
10
0.115268
20
0.226597
11
0.110298
21
0.224851
0
LINE
8
BLACK
6
CONTINUOUS
10
0.110298
20
0.224851
11
0.106978
21
0.224537
0
LINE
8
BLACK
6
CONTINUOUS
10
0.106978
20
0.224537
11
0.0715453
21
0.224537
0
LINE
8
BLACK
6
CONTINUOUS
10
0.0715453
20
0.224537
11
0.0682255
21
0.224851
0
LINE
8
BLACK
6
CONTINUOUS
10
0.0682255
20
0.224851
11
0.0632552
21
0.226597
0
LINE
8
BLACK
6
CONTINUOUS
10
0.0632552
20
0.226597
11
0.0590178
21
0.229726
0
LINE
8
BLACK
6
CONTINUOUS
10
0.0590178
20
0.229726
11
0.055888
21
0.233964
0
LINE
8
BLACK
6
CONTINUOUS
10
0.055888
20
0.233964
11
0.0541426
21
0.238934
0
LINE
8
BLACK
6
CONTINUOUS
10
0.0541426
20
0.238934
11
0.0538287
21
0.242254
0
LINE
8
BLACK
6
CONTINUOUS
10
0.0538287
20
0.242254
11
0.0538287
21
0.262923
0
LINE
8
BLACK
6
CONTINUOUS
10
0.0538287
20
0.262923
11
0.0541426
21
0.266243
0
LINE
8
BLACK
6
CONTINUOUS
10
0.0541426
20
0.266243
11
0.055888
21
0.271213
0
LINE
8
BLACK
6
CONTINUOUS
10
0.055888
20
0.271213
11
0.0590178
21
0.275451
0
LINE
8
BLACK
6
CONTINUOUS
10
0.0590178
20
0.275451
11
0.0632552
21
0.278581
0
LINE
8
BLACK
6
CONTINUOUS
10
0.0632552
20
0.278581
11
0.0682255
21
0.280326
0
LINE
8
BLACK
6
CONTINUOUS
10
0.0682255
20
0.280326
11
0.0715453
21
0.28064
0
LINE
8
BLACK
6
CONTINUOUS
10
0.0715453
20
0.28064
11
0.106978
21
0.28064
0
LINE
8
BLACK
6
CONTINUOUS
10
0.106978
20
0.28064
11
0.110298
21
0.280326
0
LINE
8
BLACK
6
CONTINUOUS
10
0.200298
20
0.280326
11
0.205268
21
0.278581
0
LINE
8
BLACK
6
CONTINUOUS
10
0.205268
20
0.278581
11
0.209506
21
0.275451
0
LINE
8
BLACK
6
CONTINUOUS
10
0.209506
20
0.275451
11
0.212636
21
0.271213
0
LINE
8
BLACK
6
CONTINUOUS
10
0.212636
20
0.271213
11
0.214381
21
0.266243
0
LINE
8
BLACK
6
CONTINUOUS
10
0.214381
20
0.266243
11
0.214695
21
0.262923
0
LINE
8
BLACK
6
CONTINUOUS
10
0.214695
20
0.262923
11
0.214695
21
0.242254
0
LINE
8
BLACK
6
CONTINUOUS
10
0.214695
20
0.242254
11
0.214381
21
0.238934
0
LINE
8
BLACK
6
CONTINUOUS
10
0.214381
20
0.238934
11
0.212636
21
0.233964
0
LINE
8
BLACK
6
CONTINUOUS
10
0.212636
20
0.233964
11
0.209506
21
0.229726
0
LINE
8
BLACK
6
CONTINUOUS
10
0.209506
20
0.229726
11
0.205268
21
0.226597
0
LINE
8
BLACK
6
CONTINUOUS
10
0.205268
20
0.226597
11
0.200298
21
0.224851
0
LINE
8
BLACK
6
CONTINUOUS
10
0.200298
20
0.224851
11
0.196978
21
0.224537
0
LINE
8
BLACK
6
CONTINUOUS
10
0.196978
20
0.224537
11
0.161545
21
0.224537
0
LINE
8
BLACK
6
CONTINUOUS
10
0.161545
20
0.224537
11
0.158226
21
0.224851
0
LINE
8
BLACK
6
CONTINUOUS
10
0.158226
20
0.224851
11
0.153255
21
0.226597
0
LINE
8
BLACK
6
CONTINUOUS
10
0.153255
20
0.226597
11
0.149018
21
0.229726
0
LINE
8
BLACK
6
CONTINUOUS
10
0.149018
20
0.229726
11
0.145888
21
0.233964
0
LINE
8
BLACK
6
CONTINUOUS
10
0.145888
20
0.233964
11
0.144143
21
0.238934
0
LINE
8
BLACK
6
CONTINUOUS
10
0.144143
20
0.238934
11
0.143829
21
0.242254
0
LINE
8
BLACK
6
CONTINUOUS
10
0.143829
20
0.242254
11
0.143829
21
0.262923
0
LINE
8
BLACK
6
CONTINUOUS
10
0.143829
20
0.262923
11
0.144143
21
0.266243
0
LINE
8
BLACK
6
CONTINUOUS
10
0.144143
20
0.266243
11
0.145888
21
0.271213
0
LINE
8
BLACK
6
CONTINUOUS
10
0.145888
20
0.271213
11
0.149018
21
0.275451
0
LINE
8
BLACK
6
CONTINUOUS
10
0.149018
20
0.275451
11
0.153255
21
0.278581
0
LINE
8
BLACK
6
CONTINUOUS
10
0.153255
20
0.278581
11
0.158226
21
0.280326
0
LINE
8
BLACK
6
CONTINUOUS
10
0.158226
20
0.280326
11
0.161545
21
0.28064
0
LINE
8
BLACK
6
CONTINUOUS
10
0.161545
20
0.28064
11
0.196978
21
0.28064
0
LINE
8
BLACK
6
CONTINUOUS
10
0.196978
20
0.28064
11
0.200298
21
0.280326
0
LINE
8
BLACK
6
CONTINUOUS
10
1.67202
20
0.284647
11
1.67699
21
0.282901
0
LINE
8
BLACK
6
CONTINUOUS
10
1.67699
20
0.282901
11
1.68123
21
0.279772
0
LINE
8
BLACK
6
CONTINUOUS
10
1.68123
20
0.279772
11
1.68436
21
0.275534
0
LINE
8
BLACK
6
CONTINUOUS
10
1.68436
20
0.275534
11
1.6861
21
0.270564
0
LINE
8
BLACK
6
CONTINUOUS
10
1.6861
20
0.270564
11
1.68642
21
0.267244
0
LINE
8
BLACK
6
CONTINUOUS
10
1.68642
20
0.267244
11
1.68642
21
0.247559
0
LINE
8
BLACK
6
CONTINUOUS
10
1.68642
20
0.247559
11
1.6861
21
0.244239
0
LINE
8
BLACK
6
CONTINUOUS
10
1.6861
20
0.244239
11
1.68436
21
0.239269
0
LINE
8
BLACK
6
CONTINUOUS
10
1.68436
20
0.239269
11
1.68123
21
0.235032
0
LINE
8
BLACK
6
CONTINUOUS
10
1.68123
20
0.235032
11
1.67699
21
0.231902
0
LINE
8
BLACK
6
CONTINUOUS
10
1.67699
20
0.231902
11
1.67202
21
0.230156
0
LINE
8
BLACK
6
CONTINUOUS
10
1.67202
20
0.230156
11
1.6687
21
0.229843
0
LINE
8
BLACK
6
CONTINUOUS
10
1.6687
20
0.229843
11
1.6313
21
0.229843
0
LINE
8
BLACK
6
CONTINUOUS
10
1.6313
20
0.229843
11
1.62798
21
0.230156
0
LINE
8
BLACK
6
CONTINUOUS
10
1.62798
20
0.230156
11
1.62301
21
0.231902
0
LINE
8
BLACK
6
CONTINUOUS
10
1.62301
20
0.231902
11
1.61877
21
0.235032
0
LINE
8
BLACK
6
CONTINUOUS
10
1.61877
20
0.235032
11
1.61564
21
0.239269
0
LINE
8
BLACK
6
CONTINUOUS
10
1.61564
20
0.239269
11
1.6139
21
0.244239
0
LINE
8
BLACK
6
CONTINUOUS
10
1.6139
20
0.244239
11
1.61358
21
0.247559
0
LINE
8
BLACK
6
CONTINUOUS
10
1.61358
20
0.247559
11
1.61358
21
0.267244
0
LINE
8
BLACK
6
CONTINUOUS
10
1.61358
20
0.267244
11
1.6139
21
0.270564
0
LINE
8
BLACK
6
CONTINUOUS
10
1.6139
20
0.270564
11
1.61564
21
0.275534
0
LINE
8
BLACK
6
CONTINUOUS
10
1.61564
20
0.275534
11
1.61877
21
0.279772
0
LINE
8
BLACK
6
CONTINUOUS
10
1.61877
20
0.279772
11
1.62301
21
0.282901
0
LINE
8
BLACK
6
CONTINUOUS
10
1.62301
20
0.282901
11
1.62798
21
0.284647
0
LINE
8
BLACK
6
CONTINUOUS
10
1.62798
20
0.284647
11
1.6313
21
0.284961
0
LINE
8
BLACK
6
CONTINUOUS
10
1.6313
20
0.284961
11
1.6687
21
0.284961
0
LINE
8
BLACK
6
CONTINUOUS
10
1.6687
20
0.284961
11
1.67202
21
0.284647
0
LINE
8
BLACK
6
CONTINUOUS
10
1.55202
20
0.284647
11
1.55699
21
0.282901
0
LINE
8
BLACK
6
CONTINUOUS
10
1.55699
20
0.282901
11
1.56123
21
0.279772
0
LINE
8
BLACK
6
CONTINUOUS
10
1.56123
20
0.279772
11
1.56436
21
0.275534
0
LINE
8
BLACK
6
CONTINUOUS
10
1.56436
20
0.275534
11
1.5661
21
0.270564
0
LINE
8
BLACK
6
CONTINUOUS
10
1.5661
20
0.270564
11
1.56642
21
0.267244
0
LINE
8
BLACK
6
CONTINUOUS
10
1.56642
20
0.267244
11
1.56642
21
0.247559
0
LINE
8
BLACK
6
CONTINUOUS
10
1.56642
20
0.247559
11
1.5661
21
0.244239
0
LINE
8
BLACK
6
CONTINUOUS
10
1.5661
20
0.244239
11
1.56436
21
0.239269
0
LINE
8
BLACK
6
CONTINUOUS
10
1.56436
20
0.239269
11
1.56123
21
0.235032
0
LINE
8
BLACK
6
CONTINUOUS
10
1.56123
20
0.235032
11
1.55699
21
0.231902
0
LINE
8
BLACK
6
CONTINUOUS
10
1.55699
20
0.231902
11
1.55202
21
0.230156
0
LINE
8
BLACK
6
CONTINUOUS
10
1.55202
20
0.230156
11
1.5487
21
0.229843
0
LINE
8
BLACK
6
CONTINUOUS
10
1.5487
20
0.229843
11
1.5113
21
0.229843
0
LINE
8
BLACK
6
CONTINUOUS
10
1.5113
20
0.229843
11
1.50798
21
0.230156
0
LINE
8
BLACK
6
CONTINUOUS
10
1.50798
20
0.230156
11
1.50301
21
0.231902
0
LINE
8
BLACK
6
CONTINUOUS
10
1.50301
20
0.231902
11
1.49877
21
0.235032
0
LINE
8
BLACK
6
CONTINUOUS
10
1.49877
20
0.235032
11
1.49564
21
0.239269
0
LINE
8
BLACK
6
CONTINUOUS
10
1.49564
20
0.239269
11
1.4939
21
0.244239
0
LINE
8
BLACK
6
CONTINUOUS
10
1.4939
20
0.244239
11
1.49358
21
0.247559
0
LINE
8
BLACK
6
CONTINUOUS
10
1.49358
20
0.247559
11
1.49358
21
0.267244
0
LINE
8
BLACK
6
CONTINUOUS
10
1.49358
20
0.267244
11
1.4939
21
0.270564
0
LINE
8
BLACK
6
CONTINUOUS
10
1.4939
20
0.270564
11
1.49564
21
0.275534
0
LINE
8
BLACK
6
CONTINUOUS
10
1.49564
20
0.275534
11
1.49877
21
0.279772
0
LINE
8
BLACK
6
CONTINUOUS
10
1.49877
20
0.279772
11
1.50301
21
0.282901
0
LINE
8
BLACK
6
CONTINUOUS
10
1.50301
20
0.282901
11
1.50798
21
0.284647
0
LINE
8
BLACK
6
CONTINUOUS
10
1.50798
20
0.284647
11
1.5113
21
0.284961
0
LINE
8
BLACK
6
CONTINUOUS
10
1.5113
20
0.284961
11
1.5487
21
0.284961
0
LINE
8
BLACK
6
CONTINUOUS
10
1.5487
20
0.284961
11
1.55202
21
0.284647
0
LINE
8
BLACK
6
CONTINUOUS
10
1.79202
20
0.284647
11
1.79699
21
0.282901
0
LINE
8
BLACK
6
CONTINUOUS
10
1.79699
20
0.282901
11
1.80123
21
0.279772
0
LINE
8
BLACK
6
CONTINUOUS
10
1.80123
20
0.279772
11
1.80436
21
0.275534
0
LINE
8
BLACK
6
CONTINUOUS
10
1.80436
20
0.275534
11
1.8061
21
0.270564
0
LINE
8
BLACK
6
CONTINUOUS
10
1.8061
20
0.270564
11
1.80642
21
0.267244
0
LINE
8
BLACK
6
CONTINUOUS
10
1.80642
20
0.267244
11
1.80642
21
0.247559
0
LINE
8
BLACK
6
CONTINUOUS
10
1.80642
20
0.247559
11
1.8061
21
0.244239
0
LINE
8
BLACK
6
CONTINUOUS
10
1.8061
20
0.244239
11
1.80436
21
0.239269
0
LINE
8
BLACK
6
CONTINUOUS
10
1.80436
20
0.239269
11
1.80123
21
0.235032
0
LINE
8
BLACK
6
CONTINUOUS
10
1.80123
20
0.235032
11
1.79699
21
0.231902
0
LINE
8
BLACK
6
CONTINUOUS
10
1.79699
20
0.231902
11
1.79202
21
0.230156
0
LINE
8
BLACK
6
CONTINUOUS
10
1.79202
20
0.230156
11
1.7887
21
0.229843
0
LINE
8
BLACK
6
CONTINUOUS
10
1.7887
20
0.229843
11
1.7513
21
0.229843
0
LINE
8
BLACK
6
CONTINUOUS
10
1.7513
20
0.229843
11
1.74798
21
0.230156
0
LINE
8
BLACK
6
CONTINUOUS
10
1.74798
20
0.230156
11
1.74301
21
0.231902
0
LINE
8
BLACK
6
CONTINUOUS
10
1.74301
20
0.231902
11
1.73877
21
0.235032
0
LINE
8
BLACK
6
CONTINUOUS
10
1.73877
20
0.235032
11
1.73564
21
0.239269
0
LINE
8
BLACK
6
CONTINUOUS
10
1.73564
20
0.239269
11
1.7339
21
0.244239
0
LINE
8
BLACK
6
CONTINUOUS
10
1.7339
20
0.244239
11
1.73358
21
0.247559
0
LINE
8
BLACK
6
CONTINUOUS
10
1.73358
20
0.247559
11
1.73358
21
0.267244
0
LINE
8
BLACK
6
CONTINUOUS
10
1.73358
20
0.267244
11
1.7339
21
0.270564
0
LINE
8
BLACK
6
CONTINUOUS
10
1.7339
20
0.270564
11
1.73564
21
0.275534
0
LINE
8
BLACK
6
CONTINUOUS
10
1.73564
20
0.275534
11
1.73877
21
0.279772
0
LINE
8
BLACK
6
CONTINUOUS
10
1.73877
20
0.279772
11
1.74301
21
0.282901
0
LINE
8
BLACK
6
CONTINUOUS
10
1.74301
20
0.282901
11
1.74798
21
0.284647
0
LINE
8
BLACK
6
CONTINUOUS
10
1.74798
20
0.284647
11
1.7513
21
0.284961
0
LINE
8
BLACK
6
CONTINUOUS
10
1.7513
20
0.284961
11
1.7887
21
0.284961
0
LINE
8
BLACK
6
CONTINUOUS
10
1.7887
20
0.284961
11
1.79202
21
0.284647
0
LINE
8
BLACK
6
CONTINUOUS
10
1.43202
20
0.284647
11
1.43699
21
0.282901
0
LINE
8
BLACK
6
CONTINUOUS
10
1.43699
20
0.282901
11
1.44123
21
0.279772
0
LINE
8
BLACK
6
CONTINUOUS
10
1.44123
20
0.279772
11
1.44436
21
0.275534
0
LINE
8
BLACK
6
CONTINUOUS
10
1.44436
20
0.275534
11
1.4461
21
0.270564
0
LINE
8
BLACK
6
CONTINUOUS
10
1.4461
20
0.270564
11
1.44642
21
0.267244
0
LINE
8
BLACK
6
CONTINUOUS
10
1.44642
20
0.267244
11
1.44642
21
0.247559
0
LINE
8
BLACK
6
CONTINUOUS
10
1.44642
20
0.247559
11
1.4461
21
0.244239
0
LINE
8
BLACK
6
CONTINUOUS
10
1.4461
20
0.244239
11
1.44436
21
0.239269
0
LINE
8
BLACK
6
CONTINUOUS
10
1.44436
20
0.239269
11
1.44123
21
0.235032
0
LINE
8
BLACK
6
CONTINUOUS
10
1.44123
20
0.235032
11
1.43699
21
0.231902
0
LINE
8
BLACK
6
CONTINUOUS
10
1.43699
20
0.231902
11
1.43202
21
0.230156
0
LINE
8
BLACK
6
CONTINUOUS
10
1.43202
20
0.230156
11
1.4287
21
0.229843
0
LINE
8
BLACK
6
CONTINUOUS
10
1.4287
20
0.229843
11
1.3913
21
0.229843
0
LINE
8
BLACK
6
CONTINUOUS
10
1.3913
20
0.229843
11
1.38798
21
0.230156
0
LINE
8
BLACK
6
CONTINUOUS
10
1.38798
20
0.230156
11
1.38301
21
0.231902
0
LINE
8
BLACK
6
CONTINUOUS
10
1.38301
20
0.231902
11
1.37877
21
0.235032
0
LINE
8
BLACK
6
CONTINUOUS
10
1.37877
20
0.235032
11
1.37564
21
0.239269
0
LINE
8
BLACK
6
CONTINUOUS
10
1.37564
20
0.239269
11
1.3739
21
0.244239
0
LINE
8
BLACK
6
CONTINUOUS
10
1.3739
20
0.244239
11
1.37358
21
0.247559
0
LINE
8
BLACK
6
CONTINUOUS
10
1.37358
20
0.247559
11
1.37358
21
0.267244
0
LINE
8
BLACK
6
CONTINUOUS
10
1.37358
20
0.267244
11
1.3739
21
0.270564
0
LINE
8
BLACK
6
CONTINUOUS
10
1.3739
20
0.270564
11
1.37564
21
0.275534
0
LINE
8
BLACK
6
CONTINUOUS
10
1.37564
20
0.275534
11
1.37877
21
0.279772
0
LINE
8
BLACK
6
CONTINUOUS
10
1.37877
20
0.279772
11
1.38301
21
0.282901
0
LINE
8
BLACK
6
CONTINUOUS
10
1.38301
20
0.282901
11
1.38798
21
0.284647
0
LINE
8
BLACK
6
CONTINUOUS
10
1.38798
20
0.284647
11
1.3913
21
0.284961
0
LINE
8
BLACK
6
CONTINUOUS
10
1.3913
20
0.284961
11
1.4287
21
0.284961
0
LINE
8
BLACK
6
CONTINUOUS
10
1.4287
20
0.284961
11
1.43202
21
0.284647
0
LINE
8
BLACK
6
CONTINUOUS
10
1.91679
20
0.276645
11
1.91935
21
0.274938
0
LINE
8
BLACK
6
CONTINUOUS
10
1.91935
20
0.274938
11
1.92105
21
0.272383
0
LINE
8
BLACK
6
CONTINUOUS
10
1.92105
20
0.272383
11
1.92165
21
0.26937
0
LINE
8
BLACK
6
CONTINUOUS
10
1.92165
20
0.26937
11
1.92165
21
0.245748
0
LINE
8
BLACK
6
CONTINUOUS
10
1.92165
20
0.245748
11
1.92105
21
0.242735
0
LINE
8
BLACK
6
CONTINUOUS
10
1.92105
20
0.242735
11
1.91935
21
0.24018
0
LINE
8
BLACK
6
CONTINUOUS
10
1.91935
20
0.24018
11
1.91679
21
0.238473
0
LINE
8
BLACK
6
CONTINUOUS
10
1.91679
20
0.238473
11
1.91378
21
0.237874
0
LINE
8
BLACK
6
CONTINUOUS
10
1.91378
20
0.237874
11
1.88622
21
0.237874
0
LINE
8
BLACK
6
CONTINUOUS
10
1.88622
20
0.237874
11
1.88321
21
0.238473
0
LINE
8
BLACK
6
CONTINUOUS
10
1.88321
20
0.238473
11
1.88065
21
0.24018
0
LINE
8
BLACK
6
CONTINUOUS
10
1.88065
20
0.24018
11
1.87895
21
0.242735
0
LINE
8
BLACK
6
CONTINUOUS
10
1.87895
20
0.242735
11
1.87835
21
0.245748
0
LINE
8
BLACK
6
CONTINUOUS
10
1.87835
20
0.245748
11
1.87835
21
0.26937
0
LINE
8
BLACK
6
CONTINUOUS
10
1.87835
20
0.26937
11
1.87895
21
0.272383
0
LINE
8
BLACK
6
CONTINUOUS
10
1.87895
20
0.272383
11
1.88065
21
0.274938
0
LINE
8
BLACK
6
CONTINUOUS
10
1.88065
20
0.274938
11
1.88321
21
0.276645
0
LINE
8
BLACK
6
CONTINUOUS
10
1.88321
20
0.276645
11
1.88622
21
0.277244
0
LINE
8
BLACK
6
CONTINUOUS
10
1.88622
20
0.277244
11
1.91378
21
0.277244
0
LINE
8
BLACK
6
CONTINUOUS
10
1.91378
20
0.277244
11
1.91679
21
0.276645
0
LINE
8
BLACK
6
CONTINUOUS
10
0.832021
20
0.304647
11
0.836991
21
0.302901
0
LINE
8
BLACK
6
CONTINUOUS
10
0.836991
20
0.302901
11
0.841228
21
0.299772
0
LINE
8
BLACK
6
CONTINUOUS
10
0.841228
20
0.299772
11
0.844358
21
0.295534
0
LINE
8
BLACK
6
CONTINUOUS
10
0.844358
20
0.295534
11
0.846104
21
0.290564
0
LINE
8
BLACK
6
CONTINUOUS
10
0.846104
20
0.290564
11
0.846417
21
0.287244
0
LINE
8
BLACK
6
CONTINUOUS
10
0.846417
20
0.287244
11
0.846417
21
0.267559
0
LINE
8
BLACK
6
CONTINUOUS
10
0.846417
20
0.267559
11
0.846104
21
0.264239
0
LINE
8
BLACK
6
CONTINUOUS
10
0.846104
20
0.264239
11
0.844358
21
0.259269
0
LINE
8
BLACK
6
CONTINUOUS
10
0.844358
20
0.259269
11
0.841228
21
0.255032
0
LINE
8
BLACK
6
CONTINUOUS
10
0.841228
20
0.255032
11
0.836991
21
0.251902
0
LINE
8
BLACK
6
CONTINUOUS
10
0.836991
20
0.251902
11
0.832021
21
0.250156
0
LINE
8
BLACK
6
CONTINUOUS
10
0.832021
20
0.250156
11
0.828701
21
0.249843
0
LINE
8
BLACK
6
CONTINUOUS
10
0.828701
20
0.249843
11
0.791299
21
0.249843
0
LINE
8
BLACK
6
CONTINUOUS
10
0.791299
20
0.249843
11
0.787979
21
0.250156
0
LINE
8
BLACK
6
CONTINUOUS
10
0.787979
20
0.250156
11
0.783009
21
0.251902
0
LINE
8
BLACK
6
CONTINUOUS
10
0.783009
20
0.251902
11
0.778772
21
0.255032
0
LINE
8
BLACK
6
CONTINUOUS
10
0.778772
20
0.255032
11
0.775642
21
0.259269
0
LINE
8
BLACK
6
CONTINUOUS
10
0.775642
20
0.259269
11
0.773896
21
0.264239
0
LINE
8
BLACK
6
CONTINUOUS
10
0.773896
20
0.264239
11
0.773583
21
0.267559
0
LINE
8
BLACK
6
CONTINUOUS
10
0.773583
20
0.267559
11
0.773583
21
0.287244
0
LINE
8
BLACK
6
CONTINUOUS
10
0.773583
20
0.287244
11
0.773896
21
0.290564
0
LINE
8
BLACK
6
CONTINUOUS
10
0.773896
20
0.290564
11
0.775642
21
0.295534
0
LINE
8
BLACK
6
CONTINUOUS
10
0.775642
20
0.295534
11
0.778772
21
0.299772
0
LINE
8
BLACK
6
CONTINUOUS
10
0.778772
20
0.299772
11
0.783009
21
0.302901
0
LINE
8
BLACK
6
CONTINUOUS
10
0.783009
20
0.302901
11
0.787979
21
0.304647
0
LINE
8
BLACK
6
CONTINUOUS
10
0.787979
20
0.304647
11
0.791299
21
0.304961
0
LINE
8
BLACK
6
CONTINUOUS
10
0.791299
20
0.304961
11
0.828701
21
0.304961
0
LINE
8
BLACK
6
CONTINUOUS
10
0.828701
20
0.304961
11
0.832021
21
0.304647
0
LINE
8
BLACK
6
CONTINUOUS
10
0.311036
20
0.307737
11
0.316007
21
0.305992
0
LINE
8
BLACK
6
CONTINUOUS
10
0.316007
20
0.305992
11
0.320244
21
0.302862
0
LINE
8
BLACK
6
CONTINUOUS
10
0.320244
20
0.302862
11
0.323374
21
0.298625
0
LINE
8
BLACK
6
CONTINUOUS
10
0.323374
20
0.298625
11
0.325119
21
0.293654
0
LINE
8
BLACK
6
CONTINUOUS
10
0.325119
20
0.293654
11
0.325433
21
0.290335
0
LINE
8
BLACK
6
CONTINUOUS
10
0.325433
20
0.290335
11
0.325433
21
0.269665
0
LINE
8
BLACK
6
CONTINUOUS
10
0.325433
20
0.269665
11
0.325119
21
0.266346
0
LINE
8
BLACK
6
CONTINUOUS
10
0.325119
20
0.266346
11
0.323374
21
0.261375
0
LINE
8
BLACK
6
CONTINUOUS
10
0.323374
20
0.261375
11
0.320244
21
0.257138
0
LINE
8
BLACK
6
CONTINUOUS
10
0.320244
20
0.257138
11
0.316007
21
0.254008
0
LINE
8
BLACK
6
CONTINUOUS
10
0.316007
20
0.254008
11
0.311036
21
0.252263
0
LINE
8
BLACK
6
CONTINUOUS
10
0.311036
20
0.252263
11
0.307717
21
0.251949
0
LINE
8
BLACK
6
CONTINUOUS
10
0.307717
20
0.251949
11
0.272283
21
0.251949
0
LINE
8
BLACK
6
CONTINUOUS
10
0.272283
20
0.251949
11
0.268964
21
0.252263
0
LINE
8
BLACK
6
CONTINUOUS
10
0.268964
20
0.252263
11
0.263993
21
0.254008
0
LINE
8
BLACK
6
CONTINUOUS
10
0.263993
20
0.254008
11
0.259756
21
0.257138
0
LINE
8
BLACK
6
CONTINUOUS
10
0.259756
20
0.257138
11
0.256626
21
0.261375
0
LINE
8
BLACK
6
CONTINUOUS
10
0.256626
20
0.261375
11
0.254881
21
0.266346
0
LINE
8
BLACK
6
CONTINUOUS
10
0.254881
20
0.266346
11
0.254567
21
0.269665
0
LINE
8
BLACK
6
CONTINUOUS
10
0.254567
20
0.269665
11
0.254567
21
0.290335
0
LINE
8
BLACK
6
CONTINUOUS
10
0.254567
20
0.290335
11
0.254881
21
0.293654
0
LINE
8
BLACK
6
CONTINUOUS
10
0.254881
20
0.293654
11
0.256626
21
0.298625
0
LINE
8
BLACK
6
CONTINUOUS
10
0.256626
20
0.298625
11
0.259756
21
0.302862
0
LINE
8
BLACK
6
CONTINUOUS
10
0.259756
20
0.302862
11
0.263993
21
0.305992
0
LINE
8
BLACK
6
CONTINUOUS
10
0.263993
20
0.305992
11
0.268964
21
0.307737
0
LINE
8
BLACK
6
CONTINUOUS
10
0.268964
20
0.307737
11
0.272283
21
0.308051
0
LINE
8
BLACK
6
CONTINUOUS
10
0.272283
20
0.308051
11
0.307717
21
0.308051
0
LINE
8
BLACK
6
CONTINUOUS
10
0.307717
20
0.308051
11
0.311036
21
0.307737
0
LINE
8
BLACK
6
CONTINUOUS
10
2.30301
20
0.33255
11
2.30557
21
0.330843
0
LINE
8
BLACK
6
CONTINUOUS
10
2.30557
20
0.330843
11
2.30727
21
0.328289
0
LINE
8
BLACK
6
CONTINUOUS
10
2.30727
20
0.328289
11
2.30787
21
0.325276
0
LINE
8
BLACK
6
CONTINUOUS
10
2.30787
20
0.325276
11
2.30787
21
0.265276
0
LINE
8
BLACK
6
CONTINUOUS
10
2.30787
20
0.265276
11
2.30727
21
0.262262
0
LINE
8
BLACK
6
CONTINUOUS
10
2.30727
20
0.262262
11
2.30557
21
0.259708
0
LINE
8
BLACK
6
CONTINUOUS
10
2.30557
20
0.259708
11
2.30301
21
0.258001
0
LINE
8
BLACK
6
CONTINUOUS
10
2.30301
20
0.258001
11
2.3
21
0.257402
0
LINE
8
BLACK
6
CONTINUOUS
10
2.3
20
0.257402
11
2.24
21
0.257402
0
LINE
8
BLACK
6
CONTINUOUS
10
2.24
20
0.257402
11
2.23699
21
0.258001
0
LINE
8
BLACK
6
CONTINUOUS
10
2.23699
20
0.258001
11
2.23443
21
0.259708
0
LINE
8
BLACK
6
CONTINUOUS
10
2.23443
20
0.259708
11
2.23273
21
0.262262
0
LINE
8
BLACK
6
CONTINUOUS
10
2.23273
20
0.262262
11
2.23213
21
0.265276
0
LINE
8
BLACK
6
CONTINUOUS
10
2.23213
20
0.265276
11
2.23213
21
0.325276
0
LINE
8
BLACK
6
CONTINUOUS
10
2.23213
20
0.325276
11
2.23273
21
0.328289
0
LINE
8
BLACK
6
CONTINUOUS
10
2.23273
20
0.328289
11
2.23443
21
0.330843
0
LINE
8
BLACK
6
CONTINUOUS
10
2.23443
20
0.330843
11
2.23699
21
0.33255
0
LINE
8
BLACK
6
CONTINUOUS
10
2.23699
20
0.33255
11
2.24
21
0.33315
0
LINE
8
BLACK
6
CONTINUOUS
10
2.24
20
0.33315
11
2.3
21
0.33315
0
LINE
8
BLACK
6
CONTINUOUS
10
2.3
20
0.33315
11
2.30301
21
0.33255
0
LINE
8
BLACK
6
CONTINUOUS
10
2.20301
20
0.33255
11
2.20557
21
0.330843
0
LINE
8
BLACK
6
CONTINUOUS
10
2.20557
20
0.330843
11
2.20727
21
0.328289
0
LINE
8
BLACK
6
CONTINUOUS
10
2.20727
20
0.328289
11
2.20787
21
0.325276
0
LINE
8
BLACK
6
CONTINUOUS
10
2.20787
20
0.325276
11
2.20787
21
0.265276
0
LINE
8
BLACK
6
CONTINUOUS
10
2.20787
20
0.265276
11
2.20727
21
0.262262
0
LINE
8
BLACK
6
CONTINUOUS
10
2.20727
20
0.262262
11
2.20557
21
0.259708
0
LINE
8
BLACK
6
CONTINUOUS
10
2.20557
20
0.259708
11
2.20301
21
0.258001
0
LINE
8
BLACK
6
CONTINUOUS
10
2.20301
20
0.258001
11
2.2
21
0.257402
0
LINE
8
BLACK
6
CONTINUOUS
10
2.2
20
0.257402
11
2.14
21
0.257402
0
LINE
8
BLACK
6
CONTINUOUS
10
2.14
20
0.257402
11
2.13699
21
0.258001
0
LINE
8
BLACK
6
CONTINUOUS
10
2.13699
20
0.258001
11
2.13443
21
0.259708
0
LINE
8
BLACK
6
CONTINUOUS
10
2.13443
20
0.259708
11
2.13273
21
0.262262
0
LINE
8
BLACK
6
CONTINUOUS
10
2.13273
20
0.262262
11
2.13213
21
0.265276
0
LINE
8
BLACK
6
CONTINUOUS
10
2.13213
20
0.265276
11
2.13213
21
0.325276
0
LINE
8
BLACK
6
CONTINUOUS
10
2.13213
20
0.325276
11
2.13273
21
0.328289
0
LINE
8
BLACK
6
CONTINUOUS
10
2.13273
20
0.328289
11
2.13443
21
0.330843
0
LINE
8
BLACK
6
CONTINUOUS
10
2.13443
20
0.330843
11
2.13699
21
0.33255
0
LINE
8
BLACK
6
CONTINUOUS
10
2.13699
20
0.33255
11
2.14
21
0.33315
0
LINE
8
BLACK
6
CONTINUOUS
10
2.14
20
0.33315
11
2.2
21
0.33315
0
LINE
8
BLACK
6
CONTINUOUS
10
2.2
20
0.33315
11
2.20301
21
0.33255
0
LINE
8
BLACK
6
CONTINUOUS
10
0.436991
20
0.341783
11
0.441961
21
0.340037
0
LINE
8
BLACK
6
CONTINUOUS
10
0.441961
20
0.340037
11
0.446199
21
0.336907
0
LINE
8
BLACK
6
CONTINUOUS
10
0.446199
20
0.336907
11
0.449329
21
0.33267
0
LINE
8
BLACK
6
CONTINUOUS
10
0.449329
20
0.33267
11
0.451074
21
0.3277
0
LINE
8
BLACK
6
CONTINUOUS
10
0.451074
20
0.3277
11
0.451388
21
0.32438
0
LINE
8
BLACK
6
CONTINUOUS
10
0.451388
20
0.32438
11
0.451388
21
0.288947
0
LINE
8
BLACK
6
CONTINUOUS
10
0.451388
20
0.288947
11
0.451074
21
0.285627
0
LINE
8
BLACK
6
CONTINUOUS
10
0.451074
20
0.285627
11
0.449329
21
0.280657
0
LINE
8
BLACK
6
CONTINUOUS
10
0.449329
20
0.280657
11
0.446199
21
0.276419
0
LINE
8
BLACK
6
CONTINUOUS
10
0.446199
20
0.276419
11
0.441961
21
0.27329
0
LINE
8
BLACK
6
CONTINUOUS
10
0.441961
20
0.27329
11
0.436991
21
0.271544
0
LINE
8
BLACK
6
CONTINUOUS
10
0.436991
20
0.271544
11
0.433671
21
0.27123
0
LINE
8
BLACK
6
CONTINUOUS
10
0.433671
20
0.27123
11
0.413002
21
0.27123
0
LINE
8
BLACK
6
CONTINUOUS
10
0.413002
20
0.27123
11
0.409682
21
0.271544
0
LINE
8
BLACK
6
CONTINUOUS
10
0.409682
20
0.271544
11
0.404712
21
0.27329
0
LINE
8
BLACK
6
CONTINUOUS
10
0.404712
20
0.27329
11
0.400474
21
0.276419
0
LINE
8
BLACK
6
CONTINUOUS
10
0.400474
20
0.276419
11
0.397345
21
0.280657
0
LINE
8
BLACK
6
CONTINUOUS
10
0.397345
20
0.280657
11
0.395599
21
0.285627
0
LINE
8
BLACK
6
CONTINUOUS
10
0.395599
20
0.285627
11
0.395285
21
0.288947
0
LINE
8
BLACK
6
CONTINUOUS
10
0.395285
20
0.288947
11
0.395285
21
0.32438
0
LINE
8
BLACK
6
CONTINUOUS
10
0.395285
20
0.32438
11
0.395599
21
0.3277
0
LINE
8
BLACK
6
CONTINUOUS
10
0.395599
20
0.3277
11
0.397345
21
0.33267
0
LINE
8
BLACK
6
CONTINUOUS
10
0.397345
20
0.33267
11
0.400474
21
0.336907
0
LINE
8
BLACK
6
CONTINUOUS
10
0.400474
20
0.336907
11
0.404712
21
0.340037
0
LINE
8
BLACK
6
CONTINUOUS
10
0.404712
20
0.340037
11
0.409682
21
0.341783
0
LINE
8
BLACK
6
CONTINUOUS
10
0.409682
20
0.341783
11
0.413002
21
0.342096
0
LINE
8
BLACK
6
CONTINUOUS
10
0.413002
20
0.342096
11
0.433671
21
0.342096
0
LINE
8
BLACK
6
CONTINUOUS
10
0.433671
20
0.342096
11
0.436991
21
0.341783
0
LINE
8
BLACK
6
CONTINUOUS
10
0.508841
20
0.341783
11
0.513812
21
0.340037
0
LINE
8
BLACK
6
CONTINUOUS
10
0.513812
20
0.340037
11
0.518049
21
0.336907
0
LINE
8
BLACK
6
CONTINUOUS
10
0.518049
20
0.336907
11
0.521179
21
0.33267
0
LINE
8
BLACK
6
CONTINUOUS
10
0.521179
20
0.33267
11
0.522924
21
0.3277
0
LINE
8
BLACK
6
CONTINUOUS
10
0.522924
20
0.3277
11
0.523238
21
0.32438
0
LINE
8
BLACK
6
CONTINUOUS
10
0.523238
20
0.32438
11
0.523238
21
0.288947
0
LINE
8
BLACK
6
CONTINUOUS
10
0.523238
20
0.288947
11
0.522924
21
0.285627
0
LINE
8
BLACK
6
CONTINUOUS
10
0.522924
20
0.285627
11
0.521179
21
0.280657
0
LINE
8
BLACK
6
CONTINUOUS
10
0.521179
20
0.280657
11
0.518049
21
0.276419
0
LINE
8
BLACK
6
CONTINUOUS
10
0.518049
20
0.276419
11
0.513812
21
0.27329
0
LINE
8
BLACK
6
CONTINUOUS
10
0.513812
20
0.27329
11
0.508841
21
0.271544
0
LINE
8
BLACK
6
CONTINUOUS
10
0.508841
20
0.271544
11
0.505522
21
0.27123
0
LINE
8
BLACK
6
CONTINUOUS
10
0.505522
20
0.27123
11
0.484852
21
0.27123
0
LINE
8
BLACK
6
CONTINUOUS
10
0.484852
20
0.27123
11
0.481533
21
0.271544
0
LINE
8
BLACK
6
CONTINUOUS
10
0.481533
20
0.271544
11
0.476562
21
0.27329
0
LINE
8
BLACK
6
CONTINUOUS
10
0.476562
20
0.27329
11
0.472325
21
0.276419
0
LINE
8
BLACK
6
CONTINUOUS
10
0.472325
20
0.276419
11
0.469195
21
0.280657
0
LINE
8
BLACK
6
CONTINUOUS
10
0.469195
20
0.280657
11
0.46745
21
0.285627
0
LINE
8
BLACK
6
CONTINUOUS
10
0.46745
20
0.285627
11
0.467136
21
0.288947
0
LINE
8
BLACK
6
CONTINUOUS
10
0.467136
20
0.288947
11
0.467136
21
0.32438
0
LINE
8
BLACK
6
CONTINUOUS
10
0.467136
20
0.32438
11
0.46745
21
0.3277
0
LINE
8
BLACK
6
CONTINUOUS
10
0.46745
20
0.3277
11
0.469195
21
0.33267
0
LINE
8
BLACK
6
CONTINUOUS
10
0.469195
20
0.33267
11
0.472325
21
0.336907
0
LINE
8
BLACK
6
CONTINUOUS
10
0.472325
20
0.336907
11
0.476562
21
0.340037
0
LINE
8
BLACK
6
CONTINUOUS
10
0.476562
20
0.340037
11
0.481533
21
0.341783
0
LINE
8
BLACK
6
CONTINUOUS
10
0.481533
20
0.341783
11
0.484852
21
0.342096
0
LINE
8
BLACK
6
CONTINUOUS
10
0.484852
20
0.342096
11
0.505522
21
0.342096
0
LINE
8
BLACK
6
CONTINUOUS
10
0.505522
20
0.342096
11
0.508841
21
0.341783
0
LINE
8
BLACK
6
CONTINUOUS
10
1.91056
20
0.386104
11
1.91553
21
0.384358
0
LINE
8
BLACK
6
CONTINUOUS
10
1.91553
20
0.384358
11
1.91977
21
0.381228
0
LINE
8
BLACK
6
CONTINUOUS
10
1.91977
20
0.381228
11
1.9229
21
0.376991
0
LINE
8
BLACK
6
CONTINUOUS
10
1.9229
20
0.376991
11
1.92465
21
0.372021
0
LINE
8
BLACK
6
CONTINUOUS
10
1.92465
20
0.372021
11
1.92496
21
0.368701
0
LINE
8
BLACK
6
CONTINUOUS
10
1.92496
20
0.368701
11
1.92496
21
0.331299
0
LINE
8
BLACK
6
CONTINUOUS
10
1.92496
20
0.331299
11
1.92465
21
0.327979
0
LINE
8
BLACK
6
CONTINUOUS
10
1.92465
20
0.327979
11
1.9229
21
0.323009
0
LINE
8
BLACK
6
CONTINUOUS
10
1.9229
20
0.323009
11
1.91977
21
0.318772
0
LINE
8
BLACK
6
CONTINUOUS
10
1.91977
20
0.318772
11
1.91553
21
0.315642
0
LINE
8
BLACK
6
CONTINUOUS
10
1.91553
20
0.315642
11
1.91056
21
0.313896
0
LINE
8
BLACK
6
CONTINUOUS
10
1.91056
20
0.313896
11
1.90724
21
0.313583
0
LINE
8
BLACK
6
CONTINUOUS
10
1.90724
20
0.313583
11
1.88756
21
0.313583
0
LINE
8
BLACK
6
CONTINUOUS
10
1.88756
20
0.313583
11
1.88424
21
0.313896
0
LINE
8
BLACK
6
CONTINUOUS
10
1.88424
20
0.313896
11
1.87927
21
0.315642
0
LINE
8
BLACK
6
CONTINUOUS
10
1.87927
20
0.315642
11
1.87503
21
0.318772
0
LINE
8
BLACK
6
CONTINUOUS
10
1.87503
20
0.318772
11
1.8719
21
0.323009
0
LINE
8
BLACK
6
CONTINUOUS
10
1.8719
20
0.323009
11
1.87016
21
0.327979
0
LINE
8
BLACK
6
CONTINUOUS
10
1.87016
20
0.327979
11
1.86984
21
0.331299
0
LINE
8
BLACK
6
CONTINUOUS
10
1.86984
20
0.331299
11
1.86984
21
0.368701
0
LINE
8
BLACK
6
CONTINUOUS
10
1.86984
20
0.368701
11
1.87016
21
0.372021
0
LINE
8
BLACK
6
CONTINUOUS
10
1.87016
20
0.372021
11
1.8719
21
0.376991
0
LINE
8
BLACK
6
CONTINUOUS
10
1.8719
20
0.376991
11
1.87503
21
0.381228
0
LINE
8
BLACK
6
CONTINUOUS
10
1.87503
20
0.381228
11
1.87927
21
0.384358
0
LINE
8
BLACK
6
CONTINUOUS
10
1.87927
20
0.384358
11
1.88424
21
0.386104
0
LINE
8
BLACK
6
CONTINUOUS
10
1.88424
20
0.386104
11
1.88756
21
0.386417
0
LINE
8
BLACK
6
CONTINUOUS
10
1.88756
20
0.386417
11
1.90724
21
0.386417
0
LINE
8
BLACK
6
CONTINUOUS
10
1.90724
20
0.386417
11
1.91056
21
0.386104
0
LINE
8
BLACK
6
CONTINUOUS
10
1.83576
20
0.386104
11
1.84073
21
0.384358
0
LINE
8
BLACK
6
CONTINUOUS
10
1.84073
20
0.384358
11
1.84497
21
0.381228
0
LINE
8
BLACK
6
CONTINUOUS
10
1.84497
20
0.381228
11
1.8481
21
0.376991
0
LINE
8
BLACK
6
CONTINUOUS
10
1.8481
20
0.376991
11
1.84984
21
0.372021
0
LINE
8
BLACK
6
CONTINUOUS
10
1.84984
20
0.372021
11
1.85016
21
0.368701
0
LINE
8
BLACK
6
CONTINUOUS
10
1.85016
20
0.368701
11
1.85016
21
0.331299
0
LINE
8
BLACK
6
CONTINUOUS
10
1.85016
20
0.331299
11
1.84984
21
0.327979
0
LINE
8
BLACK
6
CONTINUOUS
10
1.84984
20
0.327979
11
1.8481
21
0.323009
0
LINE
8
BLACK
6
CONTINUOUS
10
1.8481
20
0.323009
11
1.84497
21
0.318772
0
LINE
8
BLACK
6
CONTINUOUS
10
1.84497
20
0.318772
11
1.84073
21
0.315642
0
LINE
8
BLACK
6
CONTINUOUS
10
1.84073
20
0.315642
11
1.83576
21
0.313896
0
LINE
8
BLACK
6
CONTINUOUS
10
1.83576
20
0.313896
11
1.83244
21
0.313583
0
LINE
8
BLACK
6
CONTINUOUS
10
1.83244
20
0.313583
11
1.81276
21
0.313583
0
LINE
8
BLACK
6
CONTINUOUS
10
1.81276
20
0.313583
11
1.80944
21
0.313896
0
LINE
8
BLACK
6
CONTINUOUS
10
1.80944
20
0.313896
11
1.80447
21
0.315642
0
LINE
8
BLACK
6
CONTINUOUS
10
1.80447
20
0.315642
11
1.80023
21
0.318772
0
LINE
8
BLACK
6
CONTINUOUS
10
1.80023
20
0.318772
11
1.7971
21
0.323009
0
LINE
8
BLACK
6
CONTINUOUS
10
1.7971
20
0.323009
11
1.79535
21
0.327979
0
LINE
8
BLACK
6
CONTINUOUS
10
1.79535
20
0.327979
11
1.79504
21
0.331299
0
LINE
8
BLACK
6
CONTINUOUS
10
1.79504
20
0.331299
11
1.79504
21
0.368701
0
LINE
8
BLACK
6
CONTINUOUS
10
1.79504
20
0.368701
11
1.79535
21
0.372021
0
LINE
8
BLACK
6
CONTINUOUS
10
1.79535
20
0.372021
11
1.7971
21
0.376991
0
LINE
8
BLACK
6
CONTINUOUS
10
1.7971
20
0.376991
11
1.80023
21
0.381228
0
LINE
8
BLACK
6
CONTINUOUS
10
1.80023
20
0.381228
11
1.80447
21
0.384358
0
LINE
8
BLACK
6
CONTINUOUS
10
1.80447
20
0.384358
11
1.80944
21
0.386104
0
LINE
8
BLACK
6
CONTINUOUS
10
1.80944
20
0.386104
11
1.81276
21
0.386417
0
LINE
8
BLACK
6
CONTINUOUS
10
1.81276
20
0.386417
11
1.83244
21
0.386417
0
LINE
8
BLACK
6
CONTINUOUS
10
1.83244
20
0.386417
11
1.83576
21
0.386104
0
LINE
8
BLACK
6
CONTINUOUS
10
1.98773
20
0.395119
11
1.9927
21
0.393374
0
LINE
8
BLACK
6
CONTINUOUS
10
1.9927
20
0.393374
11
1.99694
21
0.390244
0
LINE
8
BLACK
6
CONTINUOUS
10
1.99694
20
0.390244
11
2.00007
21
0.386007
0
LINE
8
BLACK
6
CONTINUOUS
10
2.00007
20
0.386007
11
2.00181
21
0.381036
0
LINE
8
BLACK
6
CONTINUOUS
10
2.00181
20
0.381036
11
2.00213
21
0.377717
0
LINE
8
BLACK
6
CONTINUOUS
10
2.00213
20
0.377717
11
2.00213
21
0.342283
0
LINE
8
BLACK
6
CONTINUOUS
10
2.00213
20
0.342283
11
2.00181
21
0.338964
0
LINE
8
BLACK
6
CONTINUOUS
10
2.00181
20
0.338964
11
2.00007
21
0.333993
0
LINE
8
BLACK
6
CONTINUOUS
10
2.00007
20
0.333993
11
1.99694
21
0.329756
0
LINE
8
BLACK
6
CONTINUOUS
10
1.99694
20
0.329756
11
1.9927
21
0.326626
0
LINE
8
BLACK
6
CONTINUOUS
10
1.9927
20
0.326626
11
1.98773
21
0.324881
0
LINE
8
BLACK
6
CONTINUOUS
10
1.98773
20
0.324881
11
1.98441
21
0.324567
0
LINE
8
BLACK
6
CONTINUOUS
10
1.98441
20
0.324567
11
1.96374
21
0.324567
0
LINE
8
BLACK
6
CONTINUOUS
10
1.96374
20
0.324567
11
1.96042
21
0.324881
0
LINE
8
BLACK
6
CONTINUOUS
10
1.96042
20
0.324881
11
1.95545
21
0.326626
0
LINE
8
BLACK
6
CONTINUOUS
10
1.95545
20
0.326626
11
1.95121
21
0.329756
0
LINE
8
BLACK
6
CONTINUOUS
10
1.95121
20
0.329756
11
1.94808
21
0.333993
0
LINE
8
BLACK
6
CONTINUOUS
10
1.94808
20
0.333993
11
1.94634
21
0.338964
0
LINE
8
BLACK
6
CONTINUOUS
10
1.94634
20
0.338964
11
1.94602
21
0.342283
0
LINE
8
BLACK
6
CONTINUOUS
10
1.94602
20
0.342283
11
1.94602
21
0.377717
0
LINE
8
BLACK
6
CONTINUOUS
10
1.94602
20
0.377717
11
1.94634
21
0.381036
0
LINE
8
BLACK
6
CONTINUOUS
10
1.94634
20
0.381036
11
1.94808
21
0.386007
0
LINE
8
BLACK
6
CONTINUOUS
10
1.94808
20
0.386007
11
1.95121
21
0.390244
0
LINE
8
BLACK
6
CONTINUOUS
10
1.95121
20
0.390244
11
1.95545
21
0.393374
0
LINE
8
BLACK
6
CONTINUOUS
10
1.95545
20
0.393374
11
1.96042
21
0.395119
0
LINE
8
BLACK
6
CONTINUOUS
10
1.96042
20
0.395119
11
1.96374
21
0.395433
0
LINE
8
BLACK
6
CONTINUOUS
10
1.96374
20
0.395433
11
1.98441
21
0.395433
0
LINE
8
BLACK
6
CONTINUOUS
10
1.98441
20
0.395433
11
1.98773
21
0.395119
0
LINE
8
BLACK
6
CONTINUOUS
10
2.05958
20
0.395119
11
2.06455
21
0.393374
0
LINE
8
BLACK
6
CONTINUOUS
10
2.06455
20
0.393374
11
2.06879
21
0.390244
0
LINE
8
BLACK
6
CONTINUOUS
10
2.06879
20
0.390244
11
2.07192
21
0.386007
0
LINE
8
BLACK
6
CONTINUOUS
10
2.07192
20
0.386007
11
2.07366
21
0.381036
0
LINE
8
BLACK
6
CONTINUOUS
10
2.07366
20
0.381036
11
2.07398
21
0.377717
0
LINE
8
BLACK
6
CONTINUOUS
10
2.07398
20
0.377717
11
2.07398
21
0.342283
0
LINE
8
BLACK
6
CONTINUOUS
10
2.07398
20
0.342283
11
2.07366
21
0.338964
0
LINE
8
BLACK
6
CONTINUOUS
10
2.07366
20
0.338964
11
2.07192
21
0.333993
0
LINE
8
BLACK
6
CONTINUOUS
10
2.07192
20
0.333993
11
2.06879
21
0.329756
0
LINE
8
BLACK
6
CONTINUOUS
10
2.06879
20
0.329756
11
2.06455
21
0.326626
0
LINE
8
BLACK
6
CONTINUOUS
10
2.06455
20
0.326626
11
2.05958
21
0.324881
0
LINE
8
BLACK
6
CONTINUOUS
10
2.05958
20
0.324881
11
2.05626
21
0.324567
0
LINE
8
BLACK
6
CONTINUOUS
10
2.05626
20
0.324567
11
2.03559
21
0.324567
0
LINE
8
BLACK
6
CONTINUOUS
10
2.03559
20
0.324567
11
2.03227
21
0.324881
0
LINE
8
BLACK
6
CONTINUOUS
10
2.03227
20
0.324881
11
2.0273
21
0.326626
0
LINE
8
BLACK
6
CONTINUOUS
10
2.0273
20
0.326626
11
2.02306
21
0.329756
0
LINE
8
BLACK
6
CONTINUOUS
10
2.02306
20
0.329756
11
2.01993
21
0.333993
0
LINE
8
BLACK
6
CONTINUOUS
10
2.01993
20
0.333993
11
2.01819
21
0.338964
0
LINE
8
BLACK
6
CONTINUOUS
10
2.01819
20
0.338964
11
2.01787
21
0.342283
0
LINE
8
BLACK
6
CONTINUOUS
10
2.01787
20
0.342283
11
2.01787
21
0.377717
0
LINE
8
BLACK
6
CONTINUOUS
10
2.01787
20
0.377717
11
2.01819
21
0.381036
0
LINE
8
BLACK
6
CONTINUOUS
10
2.01819
20
0.381036
11
2.01993
21
0.386007
0
LINE
8
BLACK
6
CONTINUOUS
10
2.01993
20
0.386007
11
2.02306
21
0.390244
0
LINE
8
BLACK
6
CONTINUOUS
10
2.02306
20
0.390244
11
2.0273
21
0.393374
0
LINE
8
BLACK
6
CONTINUOUS
10
2.0273
20
0.393374
11
2.03227
21
0.395119
0
LINE
8
BLACK
6
CONTINUOUS
10
2.03227
20
0.395119
11
2.03559
21
0.395433
0
LINE
8
BLACK
6
CONTINUOUS
10
2.03559
20
0.395433
11
2.05626
21
0.395433
0
LINE
8
BLACK
6
CONTINUOUS
10
2.05626
20
0.395433
11
2.05958
21
0.395119
0
LINE
8
BLACK
6
CONTINUOUS
10
1.74564
20
0.427048
11
1.75061
21
0.425303
0
LINE
8
BLACK
6
CONTINUOUS
10
1.75061
20
0.425303
11
1.75485
21
0.422173
0
LINE
8
BLACK
6
CONTINUOUS
10
1.75485
20
0.422173
11
1.75798
21
0.417936
0
LINE
8
BLACK
6
CONTINUOUS
10
1.75798
20
0.417936
11
1.75973
21
0.412965
0
LINE
8
BLACK
6
CONTINUOUS
10
1.75973
20
0.412965
11
1.76004
21
0.409646
0
LINE
8
BLACK
6
CONTINUOUS
10
1.76004
20
0.409646
11
1.76004
21
0.373228
0
LINE
8
BLACK
6
CONTINUOUS
10
1.76004
20
0.373228
11
1.75973
21
0.369909
0
LINE
8
BLACK
6
CONTINUOUS
10
1.75973
20
0.369909
11
1.75798
21
0.364938
0
LINE
8
BLACK
6
CONTINUOUS
10
1.75798
20
0.364938
11
1.75485
21
0.360701
0
LINE
8
BLACK
6
CONTINUOUS
10
1.75485
20
0.360701
11
1.75061
21
0.357571
0
LINE
8
BLACK
6
CONTINUOUS
10
1.75061
20
0.357571
11
1.74564
21
0.355826
0
LINE
8
BLACK
6
CONTINUOUS
10
1.74564
20
0.355826
11
1.74232
21
0.355512
0
LINE
8
BLACK
6
CONTINUOUS
10
1.74232
20
0.355512
11
1.65768
21
0.355512
0
LINE
8
BLACK
6
CONTINUOUS
10
1.65768
20
0.355512
11
1.65436
21
0.355826
0
LINE
8
BLACK
6
CONTINUOUS
10
1.65436
20
0.355826
11
1.64939
21
0.357571
0
LINE
8
BLACK
6
CONTINUOUS
10
1.64939
20
0.357571
11
1.64515
21
0.360701
0
LINE
8
BLACK
6
CONTINUOUS
10
1.64515
20
0.360701
11
1.64202
21
0.364938
0
LINE
8
BLACK
6
CONTINUOUS
10
1.64202
20
0.364938
11
1.64027
21
0.369909
0
LINE
8
BLACK
6
CONTINUOUS
10
1.64027
20
0.369909
11
1.63996
21
0.373228
0
LINE
8
BLACK
6
CONTINUOUS
10
1.63996
20
0.373228
11
1.63996
21
0.409646
0
LINE
8
BLACK
6
CONTINUOUS
10
1.63996
20
0.409646
11
1.64027
21
0.412965
0
LINE
8
BLACK
6
CONTINUOUS
10
1.64027
20
0.412965
11
1.64202
21
0.417936
0
LINE
8
BLACK
6
CONTINUOUS
10
1.64202
20
0.417936
11
1.64515
21
0.422173
0
LINE
8
BLACK
6
CONTINUOUS
10
1.64515
20
0.422173
11
1.64939
21
0.425303
0
LINE
8
BLACK
6
CONTINUOUS
10
1.64939
20
0.425303
11
1.65436
21
0.427048
0
LINE
8
BLACK
6
CONTINUOUS
10
1.65436
20
0.427048
11
1.65768
21
0.427362
0
LINE
8
BLACK
6
CONTINUOUS
10
1.65768
20
0.427362
11
1.74232
21
0.427362
0
LINE
8
BLACK
6
CONTINUOUS
10
1.74232
20
0.427362
11
1.74564
21
0.427048
0
LINE
8
BLACK
6
CONTINUOUS
10
2.20301
20
0.43255
11
2.20557
21
0.430843
0
LINE
8
BLACK
6
CONTINUOUS
10
2.20557
20
0.430843
11
2.20727
21
0.428289
0
LINE
8
BLACK
6
CONTINUOUS
10
2.20727
20
0.428289
11
2.20787
21
0.425276
0
LINE
8
BLACK
6
CONTINUOUS
10
2.20787
20
0.425276
11
2.20787
21
0.365276
0
LINE
8
BLACK
6
CONTINUOUS
10
2.20787
20
0.365276
11
2.20727
21
0.362262
0
LINE
8
BLACK
6
CONTINUOUS
10
2.20727
20
0.362262
11
2.20557
21
0.359708
0
LINE
8
BLACK
6
CONTINUOUS
10
2.20557
20
0.359708
11
2.20301
21
0.358001
0
LINE
8
BLACK
6
CONTINUOUS
10
2.20301
20
0.358001
11
2.2
21
0.357402
0
LINE
8
BLACK
6
CONTINUOUS
10
2.2
20
0.357402
11
2.14
21
0.357402
0
LINE
8
BLACK
6
CONTINUOUS
10
2.14
20
0.357402
11
2.13699
21
0.358001
0
LINE
8
BLACK
6
CONTINUOUS
10
2.13699
20
0.358001
11
2.13443
21
0.359708
0
LINE
8
BLACK
6
CONTINUOUS
10
2.13443
20
0.359708
11
2.13273
21
0.362262
0
LINE
8
BLACK
6
CONTINUOUS
10
2.13273
20
0.362262
11
2.13213
21
0.365276
0
LINE
8
BLACK
6
CONTINUOUS
10
2.13213
20
0.365276
11
2.13213
21
0.425276
0
LINE
8
BLACK
6
CONTINUOUS
10
2.13213
20
0.425276
11
2.13273
21
0.428289
0
LINE
8
BLACK
6
CONTINUOUS
10
2.13273
20
0.428289
11
2.13443
21
0.430843
0
LINE
8
BLACK
6
CONTINUOUS
10
2.13443
20
0.430843
11
2.13699
21
0.43255
0
LINE
8
BLACK
6
CONTINUOUS
10
2.13699
20
0.43255
11
2.14
21
0.43315
0
LINE
8
BLACK
6
CONTINUOUS
10
2.14
20
0.43315
11
2.2
21
0.43315
0
LINE
8
BLACK
6
CONTINUOUS
10
2.2
20
0.43315
11
2.20301
21
0.43255
0
LINE
8
BLACK
6
CONTINUOUS
10
2.30301
20
0.43255
11
2.30557
21
0.430843
0
LINE
8
BLACK
6
CONTINUOUS
10
2.30557
20
0.430843
11
2.30727
21
0.428289
0
LINE
8
BLACK
6
CONTINUOUS
10
2.30727
20
0.428289
11
2.30787
21
0.425276
0
LINE
8
BLACK
6
CONTINUOUS
10
2.30787
20
0.425276
11
2.30787
21
0.365276
0
LINE
8
BLACK
6
CONTINUOUS
10
2.30787
20
0.365276
11
2.30727
21
0.362262
0
LINE
8
BLACK
6
CONTINUOUS
10
2.30727
20
0.362262
11
2.30557
21
0.359708
0
LINE
8
BLACK
6
CONTINUOUS
10
2.30557
20
0.359708
11
2.30301
21
0.358001
0
LINE
8
BLACK
6
CONTINUOUS
10
2.30301
20
0.358001
11
2.3
21
0.357402
0
LINE
8
BLACK
6
CONTINUOUS
10
2.3
20
0.357402
11
2.24
21
0.357402
0
LINE
8
BLACK
6
CONTINUOUS
10
2.24
20
0.357402
11
2.23699
21
0.358001
0
LINE
8
BLACK
6
CONTINUOUS
10
2.23699
20
0.358001
11
2.23443
21
0.359708
0
LINE
8
BLACK
6
CONTINUOUS
10
2.23443
20
0.359708
11
2.23273
21
0.362262
0
LINE
8
BLACK
6
CONTINUOUS
10
2.23273
20
0.362262
11
2.23213
21
0.365276
0
LINE
8
BLACK
6
CONTINUOUS
10
2.23213
20
0.365276
11
2.23213
21
0.425276
0
LINE
8
BLACK
6
CONTINUOUS
10
2.23213
20
0.425276
11
2.23273
21
0.428289
0
LINE
8
BLACK
6
CONTINUOUS
10
2.23273
20
0.428289
11
2.23443
21
0.430843
0
LINE
8
BLACK
6
CONTINUOUS
10
2.23443
20
0.430843
11
2.23699
21
0.43255
0
LINE
8
BLACK
6
CONTINUOUS
10
2.23699
20
0.43255
11
2.24
21
0.43315
0
LINE
8
BLACK
6
CONTINUOUS
10
2.24
20
0.43315
11
2.3
21
0.43315
0
LINE
8
BLACK
6
CONTINUOUS
10
2.3
20
0.43315
11
2.30301
21
0.43255
0
LINE
8
BLACK
6
CONTINUOUS
10
0.90958
20
0.485119
11
0.91455
21
0.483374
0
LINE
8
BLACK
6
CONTINUOUS
10
0.91455
20
0.483374
11
0.918787
21
0.480244
0
LINE
8
BLACK
6
CONTINUOUS
10
0.918787
20
0.480244
11
0.921917
21
0.476007
0
LINE
8
BLACK
6
CONTINUOUS
10
0.921917
20
0.476007
11
0.923663
21
0.471036
0
LINE
8
BLACK
6
CONTINUOUS
10
0.923663
20
0.471036
11
0.923976
21
0.467717
0
LINE
8
BLACK
6
CONTINUOUS
10
0.923976
20
0.467717
11
0.923976
21
0.432283
0
LINE
8
BLACK
6
CONTINUOUS
10
0.923976
20
0.432283
11
0.923663
21
0.428964
0
LINE
8
BLACK
6
CONTINUOUS
10
0.923663
20
0.428964
11
0.921917
21
0.423993
0
LINE
8
BLACK
6
CONTINUOUS
10
0.921917
20
0.423993
11
0.918787
21
0.419756
0
LINE
8
BLACK
6
CONTINUOUS
10
0.918787
20
0.419756
11
0.91455
21
0.416626
0
LINE
8
BLACK
6
CONTINUOUS
10
0.91455
20
0.416626
11
0.90958
21
0.414881
0
LINE
8
BLACK
6
CONTINUOUS
10
0.90958
20
0.414881
11
0.90626
21
0.414567
0
LINE
8
BLACK
6
CONTINUOUS
10
0.90626
20
0.414567
11
0.885591
21
0.414567
0
LINE
8
BLACK
6
CONTINUOUS
10
0.885591
20
0.414567
11
0.882271
21
0.414881
0
LINE
8
BLACK
6
CONTINUOUS
10
0.882271
20
0.414881
11
0.8773
21
0.416626
0
LINE
8
BLACK
6
CONTINUOUS
10
0.8773
20
0.416626
11
0.873063
21
0.419756
0
LINE
8
BLACK
6
CONTINUOUS
10
0.873063
20
0.419756
11
0.869933
21
0.423993
0
LINE
8
BLACK
6
CONTINUOUS
10
0.869933
20
0.423993
11
0.868188
21
0.428964
0
LINE
8
BLACK
6
CONTINUOUS
10
0.868188
20
0.428964
11
0.867874
21
0.432283
0
LINE
8
BLACK
6
CONTINUOUS
10
0.867874
20
0.432283
11
0.867874
21
0.467717
0
LINE
8
BLACK
6
CONTINUOUS
10
0.867874
20
0.467717
11
0.868188
21
0.471036
0
LINE
8
BLACK
6
CONTINUOUS
10
0.868188
20
0.471036
11
0.869933
21
0.476007
0
LINE
8
BLACK
6
CONTINUOUS
10
0.869933
20
0.476007
11
0.873063
21
0.480244
0
LINE
8
BLACK
6
CONTINUOUS
10
0.873063
20
0.480244
11
0.8773
21
0.483374
0
LINE
8
BLACK
6
CONTINUOUS
10
0.8773
20
0.483374
11
0.882271
21
0.485119
0
LINE
8
BLACK
6
CONTINUOUS
10
0.882271
20
0.485119
11
0.885591
21
0.485433
0
LINE
8
BLACK
6
CONTINUOUS
10
0.885591
20
0.485433
11
0.90626
21
0.485433
0
LINE
8
BLACK
6
CONTINUOUS
10
0.90626
20
0.485433
11
0.90958
21
0.485119
0
LINE
8
BLACK
6
CONTINUOUS
10
0.837729
20
0.485119
11
0.8427
21
0.483374
0
LINE
8
BLACK
6
CONTINUOUS
10
0.8427
20
0.483374
11
0.846937
21
0.480244
0
LINE
8
BLACK
6
CONTINUOUS
10
0.846937
20
0.480244
11
0.850067
21
0.476007
0
LINE
8
BLACK
6
CONTINUOUS
10
0.850067
20
0.476007
11
0.851812
21
0.471036
0
LINE
8
BLACK
6
CONTINUOUS
10
0.851812
20
0.471036
11
0.852126
21
0.467717
0
LINE
8
BLACK
6
CONTINUOUS
10
0.852126
20
0.467717
11
0.852126
21
0.432283
0
LINE
8
BLACK
6
CONTINUOUS
10
0.852126
20
0.432283
11
0.851812
21
0.428964
0
LINE
8
BLACK
6
CONTINUOUS
10
0.851812
20
0.428964
11
0.850067
21
0.423993
0
LINE
8
BLACK
6
CONTINUOUS
10
0.850067
20
0.423993
11
0.846937
21
0.419756
0
LINE
8
BLACK
6
CONTINUOUS
10
0.846937
20
0.419756
11
0.8427
21
0.416626
0
LINE
8
BLACK
6
CONTINUOUS
10
0.8427
20
0.416626
11
0.837729
21
0.414881
0
LINE
8
BLACK
6
CONTINUOUS
10
0.837729
20
0.414881
11
0.834409
21
0.414567
0
LINE
8
BLACK
6
CONTINUOUS
10
0.834409
20
0.414567
11
0.81374
21
0.414567
0
LINE
8
BLACK
6
CONTINUOUS
10
0.81374
20
0.414567
11
0.81042
21
0.414881
0
LINE
8
BLACK
6
CONTINUOUS
10
0.81042
20
0.414881
11
0.80545
21
0.416626
0
LINE
8
BLACK
6
CONTINUOUS
10
0.80545
20
0.416626
11
0.801213
21
0.419756
0
LINE
8
BLACK
6
CONTINUOUS
10
0.801213
20
0.419756
11
0.798083
21
0.423993
0
LINE
8
BLACK
6
CONTINUOUS
10
0.798083
20
0.423993
11
0.796337
21
0.428964
0
LINE
8
BLACK
6
CONTINUOUS
10
0.796337
20
0.428964
11
0.796024
21
0.432283
0
LINE
8
BLACK
6
CONTINUOUS
10
0.796024
20
0.432283
11
0.796024
21
0.467717
0
LINE
8
BLACK
6
CONTINUOUS
10
0.796024
20
0.467717
11
0.796337
21
0.471036
0
LINE
8
BLACK
6
CONTINUOUS
10
0.796337
20
0.471036
11
0.798083
21
0.476007
0
LINE
8
BLACK
6
CONTINUOUS
10
0.798083
20
0.476007
11
0.801213
21
0.480244
0
LINE
8
BLACK
6
CONTINUOUS
10
0.801213
20
0.480244
11
0.80545
21
0.483374
0
LINE
8
BLACK
6
CONTINUOUS
10
0.80545
20
0.483374
11
0.81042
21
0.485119
0
LINE
8
BLACK
6
CONTINUOUS
10
0.81042
20
0.485119
11
0.81374
21
0.485433
0
LINE
8
BLACK
6
CONTINUOUS
10
0.81374
20
0.485433
11
0.834409
21
0.485433
0
LINE
8
BLACK
6
CONTINUOUS
10
0.834409
20
0.485433
11
0.837729
21
0.485119
0
LINE
8
BLACK
6
CONTINUOUS
10
1.26958
20
0.485119
11
1.27455
21
0.483374
0
LINE
8
BLACK
6
CONTINUOUS
10
1.27455
20
0.483374
11
1.27879
21
0.480244
0
LINE
8
BLACK
6
CONTINUOUS
10
1.27879
20
0.480244
11
1.28192
21
0.476007
0
LINE
8
BLACK
6
CONTINUOUS
10
1.28192
20
0.476007
11
1.28366
21
0.471036
0
LINE
8
BLACK
6
CONTINUOUS
10
1.28366
20
0.471036
11
1.28398
21
0.467717
0
LINE
8
BLACK
6
CONTINUOUS
10
1.28398
20
0.467717
11
1.28398
21
0.432283
0
LINE
8
BLACK
6
CONTINUOUS
10
1.28398
20
0.432283
11
1.28366
21
0.428964
0
LINE
8
BLACK
6
CONTINUOUS
10
1.28366
20
0.428964
11
1.28192
21
0.423993
0
LINE
8
BLACK
6
CONTINUOUS
10
1.28192
20
0.423993
11
1.27879
21
0.419756
0
LINE
8
BLACK
6
CONTINUOUS
10
1.27879
20
0.419756
11
1.27455
21
0.416626
0
LINE
8
BLACK
6
CONTINUOUS
10
1.27455
20
0.416626
11
1.26958
21
0.414881
0
LINE
8
BLACK
6
CONTINUOUS
10
1.26958
20
0.414881
11
1.26626
21
0.414567
0
LINE
8
BLACK
6
CONTINUOUS
10
1.26626
20
0.414567
11
1.24559
21
0.414567
0
LINE
8
BLACK
6
CONTINUOUS
10
1.24559
20
0.414567
11
1.24227
21
0.414881
0
LINE
8
BLACK
6
CONTINUOUS
10
1.24227
20
0.414881
11
1.2373
21
0.416626
0
LINE
8
BLACK
6
CONTINUOUS
10
1.2373
20
0.416626
11
1.23306
21
0.419756
0
LINE
8
BLACK
6
CONTINUOUS
10
1.23306
20
0.419756
11
1.22993
21
0.423993
0
LINE
8
BLACK
6
CONTINUOUS
10
1.22993
20
0.423993
11
1.22819
21
0.428964
0
LINE
8
BLACK
6
CONTINUOUS
10
1.22819
20
0.428964
11
1.22787
21
0.432283
0
LINE
8
BLACK
6
CONTINUOUS
10
1.22787
20
0.432283
11
1.22787
21
0.467717
0
LINE
8
BLACK
6
CONTINUOUS
10
1.22787
20
0.467717
11
1.22819
21
0.471036
0
LINE
8
BLACK
6
CONTINUOUS
10
1.22819
20
0.471036
11
1.22993
21
0.476007
0
LINE
8
BLACK
6
CONTINUOUS
10
1.22993
20
0.476007
11
1.23306
21
0.480244
0
LINE
8
BLACK
6
CONTINUOUS
10
1.23306
20
0.480244
11
1.2373
21
0.483374
0
LINE
8
BLACK
6
CONTINUOUS
10
1.2373
20
0.483374
11
1.24227
21
0.485119
0
LINE
8
BLACK
6
CONTINUOUS
10
1.24227
20
0.485119
11
1.24559
21
0.485433
0
LINE
8
BLACK
6
CONTINUOUS
10
1.24559
20
0.485433
11
1.26626
21
0.485433
0
LINE
8
BLACK
6
CONTINUOUS
10
1.26626
20
0.485433
11
1.26958
21
0.485119
0
LINE
8
BLACK
6
CONTINUOUS
10
1.19773
20
0.485119
11
1.2027
21
0.483374
0
LINE
8
BLACK
6
CONTINUOUS
10
1.2027
20
0.483374
11
1.20694
21
0.480244
0
LINE
8
BLACK
6
CONTINUOUS
10
1.20694
20
0.480244
11
1.21007
21
0.476007
0
LINE
8
BLACK
6
CONTINUOUS
10
1.21007
20
0.476007
11
1.21181
21
0.471036
0
LINE
8
BLACK
6
CONTINUOUS
10
1.21181
20
0.471036
11
1.21213
21
0.467717
0
LINE
8
BLACK
6
CONTINUOUS
10
1.21213
20
0.467717
11
1.21213
21
0.432283
0
LINE
8
BLACK
6
CONTINUOUS
10
1.21213
20
0.432283
11
1.21181
21
0.428964
0
LINE
8
BLACK
6
CONTINUOUS
10
1.21181
20
0.428964
11
1.21007
21
0.423993
0
LINE
8
BLACK
6
CONTINUOUS
10
1.21007
20
0.423993
11
1.20694
21
0.419756
0
LINE
8
BLACK
6
CONTINUOUS
10
1.20694
20
0.419756
11
1.2027
21
0.416626
0
LINE
8
BLACK
6
CONTINUOUS
10
1.2027
20
0.416626
11
1.19773
21
0.414881
0
LINE
8
BLACK
6
CONTINUOUS
10
1.19773
20
0.414881
11
1.19441
21
0.414567
0
LINE
8
BLACK
6
CONTINUOUS
10
1.19441
20
0.414567
11
1.17374
21
0.414567
0
LINE
8
BLACK
6
CONTINUOUS
10
1.17374
20
0.414567
11
1.17042
21
0.414881
0
LINE
8
BLACK
6
CONTINUOUS
10
1.17042
20
0.414881
11
1.16545
21
0.416626
0
LINE
8
BLACK
6
CONTINUOUS
10
1.16545
20
0.416626
11
1.16121
21
0.419756
0
LINE
8
BLACK
6
CONTINUOUS
10
1.16121
20
0.419756
11
1.15808
21
0.423993
0
LINE
8
BLACK
6
CONTINUOUS
10
1.15808
20
0.423993
11
1.15634
21
0.428964
0
LINE
8
BLACK
6
CONTINUOUS
10
1.15634
20
0.428964
11
1.15602
21
0.432283
0
LINE
8
BLACK
6
CONTINUOUS
10
1.15602
20
0.432283
11
1.15602
21
0.467717
0
LINE
8
BLACK
6
CONTINUOUS
10
1.15602
20
0.467717
11
1.15634
21
0.471036
0
LINE
8
BLACK
6
CONTINUOUS
10
1.15634
20
0.471036
11
1.15808
21
0.476007
0
LINE
8
BLACK
6
CONTINUOUS
10
1.15808
20
0.476007
11
1.16121
21
0.480244
0
LINE
8
BLACK
6
CONTINUOUS
10
1.16121
20
0.480244
11
1.16545
21
0.483374
0
LINE
8
BLACK
6
CONTINUOUS
10
1.16545
20
0.483374
11
1.17042
21
0.485119
0
LINE
8
BLACK
6
CONTINUOUS
10
1.17042
20
0.485119
11
1.17374
21
0.485433
0
LINE
8
BLACK
6
CONTINUOUS
10
1.17374
20
0.485433
11
1.19441
21
0.485433
0
LINE
8
BLACK
6
CONTINUOUS
10
1.19441
20
0.485433
11
1.19773
21
0.485119
0
LINE
8
BLACK
6
CONTINUOUS
10
0.405505
20
0.485119
11
0.410475
21
0.483374
0
LINE
8
BLACK
6
CONTINUOUS
10
0.410475
20
0.483374
11
0.414713
21
0.480244
0
LINE
8
BLACK
6
CONTINUOUS
10
0.414713
20
0.480244
11
0.417842
21
0.476007
0
LINE
8
BLACK
6
CONTINUOUS
10
0.417842
20
0.476007
11
0.419588
21
0.471036
0
LINE
8
BLACK
6
CONTINUOUS
10
0.419588
20
0.471036
11
0.419902
21
0.467717
0
LINE
8
BLACK
6
CONTINUOUS
10
0.419902
20
0.467717
11
0.419902
21
0.432283
0
LINE
8
BLACK
6
CONTINUOUS
10
0.419902
20
0.432283
11
0.419588
21
0.428964
0
LINE
8
BLACK
6
CONTINUOUS
10
0.419588
20
0.428964
11
0.417842
21
0.423993
0
LINE
8
BLACK
6
CONTINUOUS
10
0.417842
20
0.423993
11
0.414713
21
0.419756
0
LINE
8
BLACK
6
CONTINUOUS
10
0.414713
20
0.419756
11
0.410475
21
0.416626
0
LINE
8
BLACK
6
CONTINUOUS
10
0.410475
20
0.416626
11
0.405505
21
0.414881
0
LINE
8
BLACK
6
CONTINUOUS
10
0.405505
20
0.414881
11
0.402185
21
0.414567
0
LINE
8
BLACK
6
CONTINUOUS
10
0.402185
20
0.414567
11
0.381516
21
0.414567
0
LINE
8
BLACK
6
CONTINUOUS
10
0.381516
20
0.414567
11
0.378196
21
0.414881
0
LINE
8
BLACK
6
CONTINUOUS
10
0.378196
20
0.414881
11
0.373226
21
0.416626
0
LINE
8
BLACK
6
CONTINUOUS
10
0.373226
20
0.416626
11
0.368988
21
0.419756
0
LINE
8
BLACK
6
CONTINUOUS
10
0.368988
20
0.419756
11
0.365858
21
0.423993
0
LINE
8
BLACK
6
CONTINUOUS
10
0.365858
20
0.423993
11
0.364113
21
0.428964
0
LINE
8
BLACK
6
CONTINUOUS
10
0.364113
20
0.428964
11
0.363799
21
0.432283
0
LINE
8
BLACK
6
CONTINUOUS
10
0.363799
20
0.432283
11
0.363799
21
0.467717
0
LINE
8
BLACK
6
CONTINUOUS
10
0.363799
20
0.467717
11
0.364113
21
0.471036
0
LINE
8
BLACK
6
CONTINUOUS
10
0.364113
20
0.471036
11
0.365858
21
0.476007
0
LINE
8
BLACK
6
CONTINUOUS
10
0.365858
20
0.476007
11
0.368988
21
0.480244
0
LINE
8
BLACK
6
CONTINUOUS
10
0.368988
20
0.480244
11
0.373226
21
0.483374
0
LINE
8
BLACK
6
CONTINUOUS
10
0.373226
20
0.483374
11
0.378196
21
0.485119
0
LINE
8
BLACK
6
CONTINUOUS
10
0.378196
20
0.485119
11
0.381516
21
0.485433
0
LINE
8
BLACK
6
CONTINUOUS
10
0.381516
20
0.485433
11
0.402185
21
0.485433
0
LINE
8
BLACK
6
CONTINUOUS
10
0.402185
20
0.485433
11
0.405505
21
0.485119
0
LINE
8
BLACK
6
CONTINUOUS
10
0.333654
20
0.485119
11
0.338625
21
0.483374
0
LINE
8
BLACK
6
CONTINUOUS
10
0.338625
20
0.483374
11
0.342862
21
0.480244
0
LINE
8
BLACK
6
CONTINUOUS
10
0.342862
20
0.480244
11
0.345992
21
0.476007
0
LINE
8
BLACK
6
CONTINUOUS
10
0.345992
20
0.476007
11
0.347737
21
0.471036
0
LINE
8
BLACK
6
CONTINUOUS
10
0.347737
20
0.471036
11
0.348051
21
0.467717
0
LINE
8
BLACK
6
CONTINUOUS
10
0.348051
20
0.467717
11
0.348051
21
0.432283
0
LINE
8
BLACK
6
CONTINUOUS
10
0.348051
20
0.432283
11
0.347737
21
0.428964
0
LINE
8
BLACK
6
CONTINUOUS
10
0.347737
20
0.428964
11
0.345992
21
0.423993
0
LINE
8
BLACK
6
CONTINUOUS
10
0.345992
20
0.423993
11
0.342862
21
0.419756
0
LINE
8
BLACK
6
CONTINUOUS
10
0.342862
20
0.419756
11
0.338625
21
0.416626
0
LINE
8
BLACK
6
CONTINUOUS
10
0.338625
20
0.416626
11
0.333654
21
0.414881
0
LINE
8
BLACK
6
CONTINUOUS
10
0.333654
20
0.414881
11
0.330335
21
0.414567
0
LINE
8
BLACK
6
CONTINUOUS
10
0.330335
20
0.414567
11
0.309665
21
0.414567
0
LINE
8
BLACK
6
CONTINUOUS
10
0.309665
20
0.414567
11
0.306346
21
0.414881
0
LINE
8
BLACK
6
CONTINUOUS
10
0.306346
20
0.414881
11
0.301375
21
0.416626
0
LINE
8
BLACK
6
CONTINUOUS
10
0.301375
20
0.416626
11
0.297138
21
0.419756
0
LINE
8
BLACK
6
CONTINUOUS
10
0.297138
20
0.419756
11
0.294008
21
0.423993
0
LINE
8
BLACK
6
CONTINUOUS
10
0.294008
20
0.423993
11
0.292263
21
0.428964
0
LINE
8
BLACK
6
CONTINUOUS
10
0.292263
20
0.428964
11
0.291949
21
0.432283
0
LINE
8
BLACK
6
CONTINUOUS
10
0.291949
20
0.432283
11
0.291949
21
0.467717
0
LINE
8
BLACK
6
CONTINUOUS
10
0.291949
20
0.467717
11
0.292263
21
0.471036
0
LINE
8
BLACK
6
CONTINUOUS
10
0.292263
20
0.471036
11
0.294008
21
0.476007
0
LINE
8
BLACK
6
CONTINUOUS
10
0.294008
20
0.476007
11
0.297138
21
0.480244
0
LINE
8
BLACK
6
CONTINUOUS
10
0.297138
20
0.480244
11
0.301375
21
0.483374
0
LINE
8
BLACK
6
CONTINUOUS
10
0.301375
20
0.483374
11
0.306346
21
0.485119
0
LINE
8
BLACK
6
CONTINUOUS
10
0.306346
20
0.485119
11
0.309665
21
0.485433
0
LINE
8
BLACK
6
CONTINUOUS
10
0.309665
20
0.485433
11
0.330335
21
0.485433
0
LINE
8
BLACK
6
CONTINUOUS
10
0.330335
20
0.485433
11
0.333654
21
0.485119
0
LINE
8
BLACK
6
CONTINUOUS
10
0.65958
20
0.485119
11
0.66455
21
0.483374
0
LINE
8
BLACK
6
CONTINUOUS
10
0.66455
20
0.483374
11
0.668787
21
0.480244
0
LINE
8
BLACK
6
CONTINUOUS
10
0.668787
20
0.480244
11
0.671917
21
0.476007
0
LINE
8
BLACK
6
CONTINUOUS
10
0.671917
20
0.476007
11
0.673663
21
0.471036
0
LINE
8
BLACK
6
CONTINUOUS
10
0.673663
20
0.471036
11
0.673976
21
0.467717
0
LINE
8
BLACK
6
CONTINUOUS
10
0.673976
20
0.467717
11
0.673976
21
0.432283
0
LINE
8
BLACK
6
CONTINUOUS
10
0.673976
20
0.432283
11
0.673663
21
0.428964
0
LINE
8
BLACK
6
CONTINUOUS
10
0.673663
20
0.428964
11
0.671917
21
0.423993
0
LINE
8
BLACK
6
CONTINUOUS
10
0.671917
20
0.423993
11
0.668787
21
0.419756
0
LINE
8
BLACK
6
CONTINUOUS
10
0.668787
20
0.419756
11
0.66455
21
0.416626
0
LINE
8
BLACK
6
CONTINUOUS
10
0.66455
20
0.416626
11
0.65958
21
0.414881
0
LINE
8
BLACK
6
CONTINUOUS
10
0.65958
20
0.414881
11
0.65626
21
0.414567
0
LINE
8
BLACK
6
CONTINUOUS
10
0.65626
20
0.414567
11
0.635591
21
0.414567
0
LINE
8
BLACK
6
CONTINUOUS
10
0.635591
20
0.414567
11
0.632271
21
0.414881
0
LINE
8
BLACK
6
CONTINUOUS
10
0.632271
20
0.414881
11
0.6273
21
0.416626
0
LINE
8
BLACK
6
CONTINUOUS
10
0.6273
20
0.416626
11
0.623063
21
0.419756
0
LINE
8
BLACK
6
CONTINUOUS
10
0.623063
20
0.419756
11
0.619933
21
0.423993
0
LINE
8
BLACK
6
CONTINUOUS
10
0.619933
20
0.423993
11
0.618188
21
0.428964
0
LINE
8
BLACK
6
CONTINUOUS
10
0.618188
20
0.428964
11
0.617874
21
0.432283
0
LINE
8
BLACK
6
CONTINUOUS
10
0.617874
20
0.432283
11
0.617874
21
0.467717
0
LINE
8
BLACK
6
CONTINUOUS
10
0.617874
20
0.467717
11
0.618188
21
0.471036
0
LINE
8
BLACK
6
CONTINUOUS
10
0.618188
20
0.471036
11
0.619933
21
0.476007
0
LINE
8
BLACK
6
CONTINUOUS
10
0.619933
20
0.476007
11
0.623063
21
0.480244
0
LINE
8
BLACK
6
CONTINUOUS
10
0.623063
20
0.480244
11
0.6273
21
0.483374
0
LINE
8
BLACK
6
CONTINUOUS
10
0.6273
20
0.483374
11
0.632271
21
0.485119
0
LINE
8
BLACK
6
CONTINUOUS
10
0.632271
20
0.485119
11
0.635591
21
0.485433
0
LINE
8
BLACK
6
CONTINUOUS
10
0.635591
20
0.485433
11
0.65626
21
0.485433
0
LINE
8
BLACK
6
CONTINUOUS
10
0.65626
20
0.485433
11
0.65958
21
0.485119
0
LINE
8
BLACK
6
CONTINUOUS
10
0.587729
20
0.485119
11
0.5927
21
0.483374
0
LINE
8
BLACK
6
CONTINUOUS
10
0.5927
20
0.483374
11
0.596937
21
0.480244
0
LINE
8
BLACK
6
CONTINUOUS
10
0.596937
20
0.480244
11
0.600067
21
0.476007
0
LINE
8
BLACK
6
CONTINUOUS
10
0.600067
20
0.476007
11
0.601812
21
0.471036
0
LINE
8
BLACK
6
CONTINUOUS
10
0.601812
20
0.471036
11
0.602126
21
0.467717
0
LINE
8
BLACK
6
CONTINUOUS
10
0.602126
20
0.467717
11
0.602126
21
0.432283
0
LINE
8
BLACK
6
CONTINUOUS
10
0.602126
20
0.432283
11
0.601812
21
0.428964
0
LINE
8
BLACK
6
CONTINUOUS
10
0.601812
20
0.428964
11
0.600067
21
0.423993
0
LINE
8
BLACK
6
CONTINUOUS
10
0.600067
20
0.423993
11
0.596937
21
0.419756
0
LINE
8
BLACK
6
CONTINUOUS
10
0.596937
20
0.419756
11
0.5927
21
0.416626
0
LINE
8
BLACK
6
CONTINUOUS
10
0.5927
20
0.416626
11
0.587729
21
0.414881
0
LINE
8
BLACK
6
CONTINUOUS
10
0.587729
20
0.414881
11
0.584409
21
0.414567
0
LINE
8
BLACK
6
CONTINUOUS
10
0.584409
20
0.414567
11
0.56374
21
0.414567
0
LINE
8
BLACK
6
CONTINUOUS
10
0.56374
20
0.414567
11
0.56042
21
0.414881
0
LINE
8
BLACK
6
CONTINUOUS
10
0.56042
20
0.414881
11
0.55545
21
0.416626
0
LINE
8
BLACK
6
CONTINUOUS
10
0.55545
20
0.416626
11
0.551213
21
0.419756
0
LINE
8
BLACK
6
CONTINUOUS
10
0.551213
20
0.419756
11
0.548083
21
0.423993
0
LINE
8
BLACK
6
CONTINUOUS
10
0.548083
20
0.423993
11
0.546337
21
0.428964
0
LINE
8
BLACK
6
CONTINUOUS
10
0.546337
20
0.428964
11
0.546024
21
0.432283
0
LINE
8
BLACK
6
CONTINUOUS
10
0.546024
20
0.432283
11
0.546024
21
0.467717
0
LINE
8
BLACK
6
CONTINUOUS
10
0.546024
20
0.467717
11
0.546337
21
0.471036
0
LINE
8
BLACK
6
CONTINUOUS
10
0.546337
20
0.471036
11
0.548083
21
0.476007
0
LINE
8
BLACK
6
CONTINUOUS
10
0.548083
20
0.476007
11
0.551213
21
0.480244
0
LINE
8
BLACK
6
CONTINUOUS
10
0.551213
20
0.480244
11
0.55545
21
0.483374
0
LINE
8
BLACK
6
CONTINUOUS
10
0.55545
20
0.483374
11
0.56042
21
0.485119
0
LINE
8
BLACK
6
CONTINUOUS
10
0.56042
20
0.485119
11
0.56374
21
0.485433
0
LINE
8
BLACK
6
CONTINUOUS
10
0.56374
20
0.485433
11
0.584409
21
0.485433
0
LINE
8
BLACK
6
CONTINUOUS
10
0.584409
20
0.485433
11
0.587729
21
0.485119
0
LINE
8
BLACK
6
CONTINUOUS
10
1.46202
20
0.469844
11
1.46699
21
0.468098
0
LINE
8
BLACK
6
CONTINUOUS
10
1.46699
20
0.468098
11
1.47123
21
0.464968
0
LINE
8
BLACK
6
CONTINUOUS
10
1.47123
20
0.464968
11
1.47436
21
0.460731
0
LINE
8
BLACK
6
CONTINUOUS
10
1.47436
20
0.460731
11
1.4761
21
0.455761
0
LINE
8
BLACK
6
CONTINUOUS
10
1.4761
20
0.455761
11
1.47642
21
0.452441
0
LINE
8
BLACK
6
CONTINUOUS
10
1.47642
20
0.452441
11
1.47642
21
0.432756
0
LINE
8
BLACK
6
CONTINUOUS
10
1.47642
20
0.432756
11
1.4761
21
0.429436
0
LINE
8
BLACK
6
CONTINUOUS
10
1.4761
20
0.429436
11
1.47436
21
0.424466
0
LINE
8
BLACK
6
CONTINUOUS
10
1.47436
20
0.424466
11
1.47123
21
0.420228
0
LINE
8
BLACK
6
CONTINUOUS
10
1.47123
20
0.420228
11
1.46699
21
0.417099
0
LINE
8
BLACK
6
CONTINUOUS
10
1.46699
20
0.417099
11
1.46202
21
0.415353
0
LINE
8
BLACK
6
CONTINUOUS
10
1.46202
20
0.415353
11
1.4587
21
0.415039
0
LINE
8
BLACK
6
CONTINUOUS
10
1.4587
20
0.415039
11
1.4213
21
0.415039
0
LINE
8
BLACK
6
CONTINUOUS
10
1.4213
20
0.415039
11
1.41798
21
0.415353
0
LINE
8
BLACK
6
CONTINUOUS
10
1.41798
20
0.415353
11
1.41301
21
0.417099
0
LINE
8
BLACK
6
CONTINUOUS
10
1.41301
20
0.417099
11
1.40877
21
0.420228
0
LINE
8
BLACK
6
CONTINUOUS
10
1.40877
20
0.420228
11
1.40564
21
0.424466
0
LINE
8
BLACK
6
CONTINUOUS
10
1.40564
20
0.424466
11
1.4039
21
0.429436
0
LINE
8
BLACK
6
CONTINUOUS
10
1.4039
20
0.429436
11
1.40358
21
0.432756
0
LINE
8
BLACK
6
CONTINUOUS
10
1.40358
20
0.432756
11
1.40358
21
0.452441
0
LINE
8
BLACK
6
CONTINUOUS
10
1.40358
20
0.452441
11
1.4039
21
0.455761
0
LINE
8
BLACK
6
CONTINUOUS
10
1.4039
20
0.455761
11
1.40564
21
0.460731
0
LINE
8
BLACK
6
CONTINUOUS
10
1.40564
20
0.460731
11
1.40877
21
0.464968
0
LINE
8
BLACK
6
CONTINUOUS
10
1.40877
20
0.464968
11
1.41301
21
0.468098
0
LINE
8
BLACK
6
CONTINUOUS
10
1.41301
20
0.468098
11
1.41798
21
0.469844
0
LINE
8
BLACK
6
CONTINUOUS
10
1.41798
20
0.469844
11
1.4213
21
0.470157
0
LINE
8
BLACK
6
CONTINUOUS
10
1.4213
20
0.470157
11
1.4587
21
0.470157
0
LINE
8
BLACK
6
CONTINUOUS
10
1.4587
20
0.470157
11
1.46202
21
0.469844
0
LINE
8
BLACK
6
CONTINUOUS
10
0.502021
20
0.469844
11
0.506991
21
0.468098
0
LINE
8
BLACK
6
CONTINUOUS
10
0.506991
20
0.468098
11
0.511228
21
0.464968
0
LINE
8
BLACK
6
CONTINUOUS
10
0.511228
20
0.464968
11
0.514358
21
0.460731
0
LINE
8
BLACK
6
CONTINUOUS
10
0.514358
20
0.460731
11
0.516104
21
0.455761
0
LINE
8
BLACK
6
CONTINUOUS
10
0.516104
20
0.455761
11
0.516417
21
0.452441
0
LINE
8
BLACK
6
CONTINUOUS
10
0.516417
20
0.452441
11
0.516417
21
0.432756
0
LINE
8
BLACK
6
CONTINUOUS
10
0.516417
20
0.432756
11
0.516104
21
0.429436
0
LINE
8
BLACK
6
CONTINUOUS
10
0.516104
20
0.429436
11
0.514358
21
0.424466
0
LINE
8
BLACK
6
CONTINUOUS
10
0.514358
20
0.424466
11
0.511228
21
0.420228
0
LINE
8
BLACK
6
CONTINUOUS
10
0.511228
20
0.420228
11
0.506991
21
0.417099
0
LINE
8
BLACK
6
CONTINUOUS
10
0.506991
20
0.417099
11
0.502021
21
0.415353
0
LINE
8
BLACK
6
CONTINUOUS
10
0.502021
20
0.415353
11
0.498701
21
0.415039
0
LINE
8
BLACK
6
CONTINUOUS
10
0.498701
20
0.415039
11
0.461299
21
0.415039
0
LINE
8
BLACK
6
CONTINUOUS
10
0.461299
20
0.415039
11
0.457979
21
0.415353
0
LINE
8
BLACK
6
CONTINUOUS
10
0.457979
20
0.415353
11
0.453009
21
0.417099
0
LINE
8
BLACK
6
CONTINUOUS
10
0.453009
20
0.417099
11
0.448772
21
0.420228
0
LINE
8
BLACK
6
CONTINUOUS
10
0.448772
20
0.420228
11
0.445642
21
0.424466
0
LINE
8
BLACK
6
CONTINUOUS
10
0.445642
20
0.424466
11
0.443896
21
0.429436
0
LINE
8
BLACK
6
CONTINUOUS
10
0.443896
20
0.429436
11
0.443583
21
0.432756
0
LINE
8
BLACK
6
CONTINUOUS
10
0.443583
20
0.432756
11
0.443583
21
0.452441
0
LINE
8
BLACK
6
CONTINUOUS
10
0.443583
20
0.452441
11
0.443896
21
0.455761
0
LINE
8
BLACK
6
CONTINUOUS
10
0.443896
20
0.455761
11
0.445642
21
0.460731
0
LINE
8
BLACK
6
CONTINUOUS
10
0.445642
20
0.460731
11
0.448772
21
0.464968
0
LINE
8
BLACK
6
CONTINUOUS
10
0.448772
20
0.464968
11
0.453009
21
0.468098
0
LINE
8
BLACK
6
CONTINUOUS
10
0.453009
20
0.468098
11
0.457979
21
0.469844
0
LINE
8
BLACK
6
CONTINUOUS
10
0.457979
20
0.469844
11
0.461299
21
0.470157
0
LINE
8
BLACK
6
CONTINUOUS
10
0.461299
20
0.470157
11
0.498701
21
0.470157
0
LINE
8
BLACK
6
CONTINUOUS
10
0.498701
20
0.470157
11
0.502021
21
0.469844
0
LINE
8
BLACK
6
CONTINUOUS
10
0.242021
20
0.469844
11
0.246991
21
0.468098
0
LINE
8
BLACK
6
CONTINUOUS
10
0.246991
20
0.468098
11
0.251228
21
0.464968
0
LINE
8
BLACK
6
CONTINUOUS
10
0.251228
20
0.464968
11
0.254358
21
0.460731
0
LINE
8
BLACK
6
CONTINUOUS
10
0.254358
20
0.460731
11
0.256104
21
0.455761
0
LINE
8
BLACK
6
CONTINUOUS
10
0.256104
20
0.455761
11
0.256417
21
0.452441
0
LINE
8
BLACK
6
CONTINUOUS
10
0.256417
20
0.452441
11
0.256417
21
0.432756
0
LINE
8
BLACK
6
CONTINUOUS
10
0.256417
20
0.432756
11
0.256104
21
0.429436
0
LINE
8
BLACK
6
CONTINUOUS
10
0.256104
20
0.429436
11
0.254358
21
0.424466
0
LINE
8
BLACK
6
CONTINUOUS
10
0.254358
20
0.424466
11
0.251228
21
0.420228
0
LINE
8
BLACK
6
CONTINUOUS
10
0.251228
20
0.420228
11
0.246991
21
0.417099
0
LINE
8
BLACK
6
CONTINUOUS
10
0.246991
20
0.417099
11
0.242021
21
0.415353
0
LINE
8
BLACK
6
CONTINUOUS
10
0.242021
20
0.415353
11
0.238701
21
0.415039
0
LINE
8
BLACK
6
CONTINUOUS
10
0.238701
20
0.415039
11
0.201299
21
0.415039
0
LINE
8
BLACK
6
CONTINUOUS
10
0.201299
20
0.415039
11
0.197979
21
0.415353
0
LINE
8
BLACK
6
CONTINUOUS
10
0.197979
20
0.415353
11
0.193009
21
0.417099
0
LINE
8
BLACK
6
CONTINUOUS
10
0.193009
20
0.417099
11
0.188772
21
0.420228
0
LINE
8
BLACK
6
CONTINUOUS
10
0.188772
20
0.420228
11
0.185642
21
0.424466
0
LINE
8
BLACK
6
CONTINUOUS
10
0.185642
20
0.424466
11
0.183896
21
0.429436
0
LINE
8
BLACK
6
CONTINUOUS
10
0.183896
20
0.429436
11
0.183583
21
0.432756
0
LINE
8
BLACK
6
CONTINUOUS
10
0.183583
20
0.432756
11
0.183583
21
0.452441
0
LINE
8
BLACK
6
CONTINUOUS
10
0.183583
20
0.452441
11
0.183896
21
0.455761
0
LINE
8
BLACK
6
CONTINUOUS
10
0.183896
20
0.455761
11
0.185642
21
0.460731
0
LINE
8
BLACK
6
CONTINUOUS
10
0.185642
20
0.460731
11
0.188772
21
0.464968
0
LINE
8
BLACK
6
CONTINUOUS
10
0.188772
20
0.464968
11
0.193009
21
0.468098
0
LINE
8
BLACK
6
CONTINUOUS
10
0.193009
20
0.468098
11
0.197979
21
0.469844
0
LINE
8
BLACK
6
CONTINUOUS
10
0.197979
20
0.469844
11
0.201299
21
0.470157
0
LINE
8
BLACK
6
CONTINUOUS
10
0.201299
20
0.470157
11
0.238701
21
0.470157
0
LINE
8
BLACK
6
CONTINUOUS
10
0.238701
20
0.470157
11
0.242021
21
0.469844
0
LINE
8
BLACK
6
CONTINUOUS
10
0.752021
20
0.469844
11
0.756991
21
0.468098
0
LINE
8
BLACK
6
CONTINUOUS
10
0.756991
20
0.468098
11
0.761228
21
0.464968
0
LINE
8
BLACK
6
CONTINUOUS
10
0.761228
20
0.464968
11
0.764358
21
0.460731
0
LINE
8
BLACK
6
CONTINUOUS
10
0.764358
20
0.460731
11
0.766104
21
0.455761
0
LINE
8
BLACK
6
CONTINUOUS
10
0.766104
20
0.455761
11
0.766417
21
0.452441
0
LINE
8
BLACK
6
CONTINUOUS
10
0.766417
20
0.452441
11
0.766417
21
0.432756
0
LINE
8
BLACK
6
CONTINUOUS
10
0.766417
20
0.432756
11
0.766104
21
0.429436
0
LINE
8
BLACK
6
CONTINUOUS
10
0.766104
20
0.429436
11
0.764358
21
0.424466
0
LINE
8
BLACK
6
CONTINUOUS
10
0.764358
20
0.424466
11
0.761228
21
0.420228
0
LINE
8
BLACK
6
CONTINUOUS
10
0.761228
20
0.420228
11
0.756991
21
0.417099
0
LINE
8
BLACK
6
CONTINUOUS
10
0.756991
20
0.417099
11
0.752021
21
0.415353
0
LINE
8
BLACK
6
CONTINUOUS
10
0.752021
20
0.415353
11
0.748701
21
0.415039
0
LINE
8
BLACK
6
CONTINUOUS
10
0.748701
20
0.415039
11
0.711299
21
0.415039
0
LINE
8
BLACK
6
CONTINUOUS
10
0.711299
20
0.415039
11
0.707979
21
0.415353
0
LINE
8
BLACK
6
CONTINUOUS
10
0.707979
20
0.415353
11
0.703009
21
0.417099
0
LINE
8
BLACK
6
CONTINUOUS
10
0.703009
20
0.417099
11
0.698772
21
0.420228
0
LINE
8
BLACK
6
CONTINUOUS
10
0.698772
20
0.420228
11
0.695642
21
0.424466
0
LINE
8
BLACK
6
CONTINUOUS
10
0.695642
20
0.424466
11
0.693896
21
0.429436
0
LINE
8
BLACK
6
CONTINUOUS
10
0.693896
20
0.429436
11
0.693583
21
0.432756
0
LINE
8
BLACK
6
CONTINUOUS
10
0.693583
20
0.432756
11
0.693583
21
0.452441
0
LINE
8
BLACK
6
CONTINUOUS
10
0.693583
20
0.452441
11
0.693896
21
0.455761
0
LINE
8
BLACK
6
CONTINUOUS
10
0.693896
20
0.455761
11
0.695642
21
0.460731
0
LINE
8
BLACK
6
CONTINUOUS
10
0.695642
20
0.460731
11
0.698772
21
0.464968
0
LINE
8
BLACK
6
CONTINUOUS
10
0.698772
20
0.464968
11
0.703009
21
0.468098
0
LINE
8
BLACK
6
CONTINUOUS
10
0.703009
20
0.468098
11
0.707979
21
0.469844
0
LINE
8
BLACK
6
CONTINUOUS
10
0.707979
20
0.469844
11
0.711299
21
0.470157
0
LINE
8
BLACK
6
CONTINUOUS
10
0.711299
20
0.470157
11
0.748701
21
0.470157
0
LINE
8
BLACK
6
CONTINUOUS
10
0.748701
20
0.470157
11
0.752021
21
0.469844
0
LINE
8
BLACK
6
CONTINUOUS
10
1.12202
20
0.469844
11
1.12699
21
0.468098
0
LINE
8
BLACK
6
CONTINUOUS
10
1.12699
20
0.468098
11
1.13123
21
0.464968
0
LINE
8
BLACK
6
CONTINUOUS
10
1.13123
20
0.464968
11
1.13436
21
0.460731
0
LINE
8
BLACK
6
CONTINUOUS
10
1.13436
20
0.460731
11
1.1361
21
0.455761
0
LINE
8
BLACK
6
CONTINUOUS
10
1.1361
20
0.455761
11
1.13642
21
0.452441
0
LINE
8
BLACK
6
CONTINUOUS
10
1.13642
20
0.452441
11
1.13642
21
0.432756
0
LINE
8
BLACK
6
CONTINUOUS
10
1.13642
20
0.432756
11
1.1361
21
0.429436
0
LINE
8
BLACK
6
CONTINUOUS
10
1.1361
20
0.429436
11
1.13436
21
0.424466
0
LINE
8
BLACK
6
CONTINUOUS
10
1.13436
20
0.424466
11
1.13123
21
0.420228
0
LINE
8
BLACK
6
CONTINUOUS
10
1.13123
20
0.420228
11
1.12699
21
0.417099
0
LINE
8
BLACK
6
CONTINUOUS
10
1.12699
20
0.417099
11
1.12202
21
0.415353
0
LINE
8
BLACK
6
CONTINUOUS
10
1.12202
20
0.415353
11
1.1187
21
0.415039
0
LINE
8
BLACK
6
CONTINUOUS
10
1.1187
20
0.415039
11
1.0813
21
0.415039
0
LINE
8
BLACK
6
CONTINUOUS
10
1.0813
20
0.415039
11
1.07798
21
0.415353
0
LINE
8
BLACK
6
CONTINUOUS
10
1.07798
20
0.415353
11
1.07301
21
0.417099
0
LINE
8
BLACK
6
CONTINUOUS
10
1.07301
20
0.417099
11
1.06877
21
0.420228
0
LINE
8
BLACK
6
CONTINUOUS
10
1.06877
20
0.420228
11
1.06564
21
0.424466
0
LINE
8
BLACK
6
CONTINUOUS
10
1.06564
20
0.424466
11
1.0639
21
0.429436
0
LINE
8
BLACK
6
CONTINUOUS
10
1.0639
20
0.429436
11
1.06358
21
0.432756
0
LINE
8
BLACK
6
CONTINUOUS
10
1.06358
20
0.432756
11
1.06358
21
0.452441
0
LINE
8
BLACK
6
CONTINUOUS
10
1.06358
20
0.452441
11
1.0639
21
0.455761
0
LINE
8
BLACK
6
CONTINUOUS
10
1.0639
20
0.455761
11
1.06564
21
0.460731
0
LINE
8
BLACK
6
CONTINUOUS
10
1.06564
20
0.460731
11
1.06877
21
0.464968
0
LINE
8
BLACK
6
CONTINUOUS
10
1.06877
20
0.464968
11
1.07301
21
0.468098
0
LINE
8
BLACK
6
CONTINUOUS
10
1.07301
20
0.468098
11
1.07798
21
0.469844
0
LINE
8
BLACK
6
CONTINUOUS
10
1.07798
20
0.469844
11
1.0813
21
0.470157
0
LINE
8
BLACK
6
CONTINUOUS
10
1.0813
20
0.470157
11
1.1187
21
0.470157
0
LINE
8
BLACK
6
CONTINUOUS
10
1.1187
20
0.470157
11
1.12202
21
0.469844
0
LINE
8
BLACK
6
CONTINUOUS
10
0.142021
20
0.469844
11
0.146991
21
0.468098
0
LINE
8
BLACK
6
CONTINUOUS
10
0.146991
20
0.468098
11
0.151228
21
0.464968
0
LINE
8
BLACK
6
CONTINUOUS
10
0.151228
20
0.464968
11
0.154358
21
0.460731
0
LINE
8
BLACK
6
CONTINUOUS
10
0.154358
20
0.460731
11
0.156104
21
0.455761
0
LINE
8
BLACK
6
CONTINUOUS
10
0.156104
20
0.455761
11
0.156417
21
0.452441
0
LINE
8
BLACK
6
CONTINUOUS
10
0.156417
20
0.452441
11
0.156417
21
0.432756
0
LINE
8
BLACK
6
CONTINUOUS
10
0.156417
20
0.432756
11
0.156104
21
0.429436
0
LINE
8
BLACK
6
CONTINUOUS
10
0.156104
20
0.429436
11
0.154358
21
0.424466
0
LINE
8
BLACK
6
CONTINUOUS
10
0.154358
20
0.424466
11
0.151228
21
0.420228
0
LINE
8
BLACK
6
CONTINUOUS
10
0.151228
20
0.420228
11
0.146991
21
0.417099
0
LINE
8
BLACK
6
CONTINUOUS
10
0.146991
20
0.417099
11
0.142021
21
0.415353
0
LINE
8
BLACK
6
CONTINUOUS
10
0.142021
20
0.415353
11
0.138701
21
0.415039
0
LINE
8
BLACK
6
CONTINUOUS
10
0.138701
20
0.415039
11
0.101299
21
0.415039
0
LINE
8
BLACK
6
CONTINUOUS
10
0.101299
20
0.415039
11
0.0979794
21
0.415353
0
LINE
8
BLACK
6
CONTINUOUS
10
0.0979794
20
0.415353
11
0.0930091
21
0.417099
0
LINE
8
BLACK
6
CONTINUOUS
10
0.0930091
20
0.417099
11
0.0887717
21
0.420228
0
LINE
8
BLACK
6
CONTINUOUS
10
0.0887717
20
0.420228
11
0.0856419
21
0.424466
0
LINE
8
BLACK
6
CONTINUOUS
10
0.0856419
20
0.424466
11
0.0838965
21
0.429436
0
LINE
8
BLACK
6
CONTINUOUS
10
0.0838965
20
0.429436
11
0.0835827
21
0.432756
0
LINE
8
BLACK
6
CONTINUOUS
10
0.0835827
20
0.432756
11
0.0835827
21
0.452441
0
LINE
8
BLACK
6
CONTINUOUS
10
0.0835827
20
0.452441
11
0.0838965
21
0.455761
0
LINE
8
BLACK
6
CONTINUOUS
10
0.0838965
20
0.455761
11
0.0856419
21
0.460731
0
LINE
8
BLACK
6
CONTINUOUS
10
0.0856419
20
0.460731
11
0.0887717
21
0.464968
0
LINE
8
BLACK
6
CONTINUOUS
10
0.0887717
20
0.464968
11
0.0930091
21
0.468098
0
LINE
8
BLACK
6
CONTINUOUS
10
0.0930091
20
0.468098
11
0.0979794
21
0.469844
0
LINE
8
BLACK
6
CONTINUOUS
10
0.0979794
20
0.469844
11
0.101299
21
0.470157
0
LINE
8
BLACK
6
CONTINUOUS
10
0.101299
20
0.470157
11
0.138701
21
0.470157
0
LINE
8
BLACK
6
CONTINUOUS
10
0.138701
20
0.470157
11
0.142021
21
0.469844
0
LINE
8
BLACK
6
CONTINUOUS
10
1.36202
20
0.469844
11
1.36699
21
0.468098
0
LINE
8
BLACK
6
CONTINUOUS
10
1.36699
20
0.468098
11
1.37123
21
0.464968
0
LINE
8
BLACK
6
CONTINUOUS
10
1.37123
20
0.464968
11
1.37436
21
0.460731
0
LINE
8
BLACK
6
CONTINUOUS
10
1.37436
20
0.460731
11
1.3761
21
0.455761
0
LINE
8
BLACK
6
CONTINUOUS
10
1.3761
20
0.455761
11
1.37642
21
0.452441
0
LINE
8
BLACK
6
CONTINUOUS
10
1.37642
20
0.452441
11
1.37642
21
0.432756
0
LINE
8
BLACK
6
CONTINUOUS
10
1.37642
20
0.432756
11
1.3761
21
0.429436
0
LINE
8
BLACK
6
CONTINUOUS
10
1.3761
20
0.429436
11
1.37436
21
0.424466
0
LINE
8
BLACK
6
CONTINUOUS
10
1.37436
20
0.424466
11
1.37123
21
0.420228
0
LINE
8
BLACK
6
CONTINUOUS
10
1.37123
20
0.420228
11
1.36699
21
0.417099
0
LINE
8
BLACK
6
CONTINUOUS
10
1.36699
20
0.417099
11
1.36202
21
0.415353
0
LINE
8
BLACK
6
CONTINUOUS
10
1.36202
20
0.415353
11
1.3587
21
0.415039
0
LINE
8
BLACK
6
CONTINUOUS
10
1.3587
20
0.415039
11
1.3213
21
0.415039
0
LINE
8
BLACK
6
CONTINUOUS
10
1.3213
20
0.415039
11
1.31798
21
0.415353
0
LINE
8
BLACK
6
CONTINUOUS
10
1.31798
20
0.415353
11
1.31301
21
0.417099
0
LINE
8
BLACK
6
CONTINUOUS
10
1.31301
20
0.417099
11
1.30877
21
0.420228
0
LINE
8
BLACK
6
CONTINUOUS
10
1.30877
20
0.420228
11
1.30564
21
0.424466
0
LINE
8
BLACK
6
CONTINUOUS
10
1.30564
20
0.424466
11
1.3039
21
0.429436
0
LINE
8
BLACK
6
CONTINUOUS
10
1.3039
20
0.429436
11
1.30358
21
0.432756
0
LINE
8
BLACK
6
CONTINUOUS
10
1.30358
20
0.432756
11
1.30358
21
0.452441
0
LINE
8
BLACK
6
CONTINUOUS
10
1.30358
20
0.452441
11
1.3039
21
0.455761
0
LINE
8
BLACK
6
CONTINUOUS
10
1.3039
20
0.455761
11
1.30564
21
0.460731
0
LINE
8
BLACK
6
CONTINUOUS
10
1.30564
20
0.460731
11
1.30877
21
0.464968
0
LINE
8
BLACK
6
CONTINUOUS
10
1.30877
20
0.464968
11
1.31301
21
0.468098
0
LINE
8
BLACK
6
CONTINUOUS
10
1.31301
20
0.468098
11
1.31798
21
0.469844
0
LINE
8
BLACK
6
CONTINUOUS
10
1.31798
20
0.469844
11
1.3213
21
0.470157
0
LINE
8
BLACK
6
CONTINUOUS
10
1.3213
20
0.470157
11
1.3587
21
0.470157
0
LINE
8
BLACK
6
CONTINUOUS
10
1.3587
20
0.470157
11
1.36202
21
0.469844
0
LINE
8
BLACK
6
CONTINUOUS
10
1.01202
20
0.469844
11
1.01699
21
0.468098
0
LINE
8
BLACK
6
CONTINUOUS
10
1.01699
20
0.468098
11
1.02123
21
0.464968
0
LINE
8
BLACK
6
CONTINUOUS
10
1.02123
20
0.464968
11
1.02436
21
0.460731
0
LINE
8
BLACK
6
CONTINUOUS
10
1.02436
20
0.460731
11
1.0261
21
0.455761
0
LINE
8
BLACK
6
CONTINUOUS
10
1.0261
20
0.455761
11
1.02642
21
0.452441
0
LINE
8
BLACK
6
CONTINUOUS
10
1.02642
20
0.452441
11
1.02642
21
0.432756
0
LINE
8
BLACK
6
CONTINUOUS
10
1.02642
20
0.432756
11
1.0261
21
0.429436
0
LINE
8
BLACK
6
CONTINUOUS
10
1.0261
20
0.429436
11
1.02436
21
0.424466
0
LINE
8
BLACK
6
CONTINUOUS
10
1.02436
20
0.424466
11
1.02123
21
0.420228
0
LINE
8
BLACK
6
CONTINUOUS
10
1.02123
20
0.420228
11
1.01699
21
0.417099
0
LINE
8
BLACK
6
CONTINUOUS
10
1.01699
20
0.417099
11
1.01202
21
0.415353
0
LINE
8
BLACK
6
CONTINUOUS
10
1.01202
20
0.415353
11
1.0087
21
0.415039
0
LINE
8
BLACK
6
CONTINUOUS
10
1.0087
20
0.415039
11
0.971299
21
0.415039
0
LINE
8
BLACK
6
CONTINUOUS
10
0.971299
20
0.415039
11
0.967979
21
0.415353
0
LINE
8
BLACK
6
CONTINUOUS
10
0.967979
20
0.415353
11
0.963009
21
0.417099
0
LINE
8
BLACK
6
CONTINUOUS
10
0.963009
20
0.417099
11
0.958772
21
0.420228
0
LINE
8
BLACK
6
CONTINUOUS
10
0.958772
20
0.420228
11
0.955642
21
0.424466
0
LINE
8
BLACK
6
CONTINUOUS
10
0.955642
20
0.424466
11
0.953896
21
0.429436
0
LINE
8
BLACK
6
CONTINUOUS
10
0.953896
20
0.429436
11
0.953583
21
0.432756
0
LINE
8
BLACK
6
CONTINUOUS
10
0.953583
20
0.432756
11
0.953583
21
0.452441
0
LINE
8
BLACK
6
CONTINUOUS
10
0.953583
20
0.452441
11
0.953896
21
0.455761
0
LINE
8
BLACK
6
CONTINUOUS
10
0.953896
20
0.455761
11
0.955642
21
0.460731
0
LINE
8
BLACK
6
CONTINUOUS
10
0.955642
20
0.460731
11
0.958772
21
0.464968
0
LINE
8
BLACK
6
CONTINUOUS
10
0.958772
20
0.464968
11
0.963009
21
0.468098
0
LINE
8
BLACK
6
CONTINUOUS
10
0.963009
20
0.468098
11
0.967979
21
0.469844
0
LINE
8
BLACK
6
CONTINUOUS
10
0.967979
20
0.469844
11
0.971299
21
0.470157
0
LINE
8
BLACK
6
CONTINUOUS
10
0.971299
20
0.470157
11
1.0087
21
0.470157
0
LINE
8
BLACK
6
CONTINUOUS
10
1.0087
20
0.470157
11
1.01202
21
0.469844
0
LINE
8
BLACK
6
CONTINUOUS
10
2.07104
20
0.471812
11
2.07601
21
0.470067
0
LINE
8
BLACK
6
CONTINUOUS
10
2.07601
20
0.470067
11
2.08024
21
0.466937
0
LINE
8
BLACK
6
CONTINUOUS
10
2.08024
20
0.466937
11
2.08337
21
0.4627
0
LINE
8
BLACK
6
CONTINUOUS
10
2.08337
20
0.4627
11
2.08512
21
0.457729
0
LINE
8
BLACK
6
CONTINUOUS
10
2.08512
20
0.457729
11
2.08543
21
0.454409
0
LINE
8
BLACK
6
CONTINUOUS
10
2.08543
20
0.454409
11
2.08543
21
0.43374
0
LINE
8
BLACK
6
CONTINUOUS
10
2.08543
20
0.43374
11
2.08512
21
0.43042
0
LINE
8
BLACK
6
CONTINUOUS
10
2.08512
20
0.43042
11
2.08337
21
0.42545
0
LINE
8
BLACK
6
CONTINUOUS
10
2.08337
20
0.42545
11
2.08024
21
0.421213
0
LINE
8
BLACK
6
CONTINUOUS
10
2.08024
20
0.421213
11
2.07601
21
0.418083
0
LINE
8
BLACK
6
CONTINUOUS
10
2.07601
20
0.418083
11
2.07104
21
0.416337
0
LINE
8
BLACK
6
CONTINUOUS
10
2.07104
20
0.416337
11
2.06772
21
0.416024
0
LINE
8
BLACK
6
CONTINUOUS
10
2.06772
20
0.416024
11
2.03228
21
0.416024
0
LINE
8
BLACK
6
CONTINUOUS
10
2.03228
20
0.416024
11
2.02896
21
0.416337
0
LINE
8
BLACK
6
CONTINUOUS
10
2.02896
20
0.416337
11
2.02399
21
0.418083
0
LINE
8
BLACK
6
CONTINUOUS
10
2.02399
20
0.418083
11
2.01976
21
0.421213
0
LINE
8
BLACK
6
CONTINUOUS
10
2.01976
20
0.421213
11
2.01663
21
0.42545
0
LINE
8
BLACK
6
CONTINUOUS
10
2.01663
20
0.42545
11
2.01488
21
0.43042
0
LINE
8
BLACK
6
CONTINUOUS
10
2.01488
20
0.43042
11
2.01457
21
0.43374
0
LINE
8
BLACK
6
CONTINUOUS
10
2.01457
20
0.43374
11
2.01457
21
0.454409
0
LINE
8
BLACK
6
CONTINUOUS
10
2.01457
20
0.454409
11
2.01488
21
0.457729
0
LINE
8
BLACK
6
CONTINUOUS
10
2.01488
20
0.457729
11
2.01663
21
0.4627
0
LINE
8
BLACK
6
CONTINUOUS
10
2.01663
20
0.4627
11
2.01976
21
0.466937
0
LINE
8
BLACK
6
CONTINUOUS
10
2.01976
20
0.466937
11
2.02399
21
0.470067
0
LINE
8
BLACK
6
CONTINUOUS
10
2.02399
20
0.470067
11
2.02896
21
0.471812
0
LINE
8
BLACK
6
CONTINUOUS
10
2.02896
20
0.471812
11
2.03228
21
0.472126
0
LINE
8
BLACK
6
CONTINUOUS
10
2.03228
20
0.472126
11
2.06772
21
0.472126
0
LINE
8
BLACK
6
CONTINUOUS
10
2.06772
20
0.472126
11
2.07104
21
0.471812
0
LINE
8
BLACK
6
CONTINUOUS
10
1.96687
20
0.537471
11
1.96943
21
0.535765
0
LINE
8
BLACK
6
CONTINUOUS
10
1.96943
20
0.535765
11
1.97113
21
0.53321
0
LINE
8
BLACK
6
CONTINUOUS
10
1.97113
20
0.53321
11
1.97173
21
0.530197
0
LINE
8
BLACK
6
CONTINUOUS
10
1.97173
20
0.530197
11
1.97173
21
0.504606
0
LINE
8
BLACK
6
CONTINUOUS
10
1.97173
20
0.504606
11
1.97113
21
0.501593
0
LINE
8
BLACK
6
CONTINUOUS
10
1.97113
20
0.501593
11
1.96943
21
0.499039
0
LINE
8
BLACK
6
CONTINUOUS
10
1.96943
20
0.499039
11
1.96892
21
0.498701
0
LINE
8
BLACK
6
CONTINUOUS
10
1.96892
20
0.498701
11
1.96943
21
0.498363
0
LINE
8
BLACK
6
CONTINUOUS
10
1.96943
20
0.498363
11
1.97113
21
0.495809
0
LINE
8
BLACK
6
CONTINUOUS
10
1.97113
20
0.495809
11
1.97173
21
0.492795
0
LINE
8
BLACK
6
CONTINUOUS
10
1.97173
20
0.492795
11
1.97173
21
0.467205
0
LINE
8
BLACK
6
CONTINUOUS
10
1.97173
20
0.467205
11
1.97113
21
0.464191
0
LINE
8
BLACK
6
CONTINUOUS
10
1.97113
20
0.464191
11
1.96943
21
0.461637
0
LINE
8
BLACK
6
CONTINUOUS
10
1.96943
20
0.461637
11
1.96892
21
0.461299
0
LINE
8
BLACK
6
CONTINUOUS
10
1.96892
20
0.461299
11
1.96943
21
0.460961
0
LINE
8
BLACK
6
CONTINUOUS
10
1.96943
20
0.460961
11
1.97113
21
0.458407
0
LINE
8
BLACK
6
CONTINUOUS
10
1.97113
20
0.458407
11
1.97173
21
0.455394
0
LINE
8
BLACK
6
CONTINUOUS
10
1.97173
20
0.455394
11
1.97173
21
0.429803
0
LINE
8
BLACK
6
CONTINUOUS
10
1.97173
20
0.429803
11
1.97113
21
0.42679
0
LINE
8
BLACK
6
CONTINUOUS
10
1.97113
20
0.42679
11
1.96943
21
0.424235
0
LINE
8
BLACK
6
CONTINUOUS
10
1.96943
20
0.424235
11
1.96687
21
0.422529
0
LINE
8
BLACK
6
CONTINUOUS
10
1.96687
20
0.422529
11
1.96386
21
0.421929
0
LINE
8
BLACK
6
CONTINUOUS
10
1.96386
20
0.421929
11
1.90244
21
0.421929
0
LINE
8
BLACK
6
CONTINUOUS
10
1.90244
20
0.421929
11
1.89943
21
0.422529
0
LINE
8
BLACK
6
CONTINUOUS
10
1.89943
20
0.422529
11
1.89687
21
0.424235
0
LINE
8
BLACK
6
CONTINUOUS
10
1.89687
20
0.424235
11
1.89517
21
0.42679
0
LINE
8
BLACK
6
CONTINUOUS
10
1.89517
20
0.42679
11
1.89457
21
0.429803
0
LINE
8
BLACK
6
CONTINUOUS
10
1.89457
20
0.429803
11
1.89457
21
0.455394
0
LINE
8
BLACK
6
CONTINUOUS
10
1.89457
20
0.455394
11
1.89517
21
0.458407
0
LINE
8
BLACK
6
CONTINUOUS
10
1.89517
20
0.458407
11
1.89687
21
0.460961
0
LINE
8
BLACK
6
CONTINUOUS
10
1.89687
20
0.460961
11
1.89738
21
0.461299
0
LINE
8
BLACK
6
CONTINUOUS
10
1.89738
20
0.461299
11
1.89687
21
0.461637
0
LINE
8
BLACK
6
CONTINUOUS
10
1.89687
20
0.461637
11
1.89517
21
0.464191
0
LINE
8
BLACK
6
CONTINUOUS
10
1.89517
20
0.464191
11
1.89457
21
0.467205
0
LINE
8
BLACK
6
CONTINUOUS
10
1.89457
20
0.467205
11
1.89457
21
0.492795
0
LINE
8
BLACK
6
CONTINUOUS
10
1.89457
20
0.492795
11
1.89517
21
0.495809
0
LINE
8
BLACK
6
CONTINUOUS
10
1.89517
20
0.495809
11
1.89687
21
0.498363
0
LINE
8
BLACK
6
CONTINUOUS
10
1.89687
20
0.498363
11
1.89738
21
0.498701
0
LINE
8
BLACK
6
CONTINUOUS
10
1.89738
20
0.498701
11
1.89687
21
0.499039
0
LINE
8
BLACK
6
CONTINUOUS
10
1.89687
20
0.499039
11
1.89517
21
0.501593
0
LINE
8
BLACK
6
CONTINUOUS
10
1.89517
20
0.501593
11
1.89457
21
0.504606
0
LINE
8
BLACK
6
CONTINUOUS
10
1.89457
20
0.504606
11
1.89457
21
0.530197
0
LINE
8
BLACK
6
CONTINUOUS
10
1.89457
20
0.530197
11
1.89517
21
0.53321
0
LINE
8
BLACK
6
CONTINUOUS
10
1.89517
20
0.53321
11
1.89687
21
0.535765
0
LINE
8
BLACK
6
CONTINUOUS
10
1.89687
20
0.535765
11
1.89943
21
0.537471
0
LINE
8
BLACK
6
CONTINUOUS
10
1.89943
20
0.537471
11
1.90244
21
0.538071
0
LINE
8
BLACK
6
CONTINUOUS
10
1.90244
20
0.538071
11
1.96386
21
0.538071
0
LINE
8
BLACK
6
CONTINUOUS
10
1.96386
20
0.538071
11
1.96687
21
0.537471
0
LINE
8
BLACK
6
CONTINUOUS
10
1.86057
20
0.537471
11
1.86313
21
0.535765
0
LINE
8
BLACK
6
CONTINUOUS
10
1.86313
20
0.535765
11
1.86483
21
0.53321
0
LINE
8
BLACK
6
CONTINUOUS
10
1.86483
20
0.53321
11
1.86543
21
0.530197
0
LINE
8
BLACK
6
CONTINUOUS
10
1.86543
20
0.530197
11
1.86543
21
0.504606
0
LINE
8
BLACK
6
CONTINUOUS
10
1.86543
20
0.504606
11
1.86483
21
0.501593
0
LINE
8
BLACK
6
CONTINUOUS
10
1.86483
20
0.501593
11
1.86313
21
0.499039
0
LINE
8
BLACK
6
CONTINUOUS
10
1.86313
20
0.499039
11
1.86262
21
0.498701
0
LINE
8
BLACK
6
CONTINUOUS
10
1.86262
20
0.498701
11
1.86313
21
0.498363
0
LINE
8
BLACK
6
CONTINUOUS
10
1.86313
20
0.498363
11
1.86483
21
0.495809
0
LINE
8
BLACK
6
CONTINUOUS
10
1.86483
20
0.495809
11
1.86543
21
0.492795
0
LINE
8
BLACK
6
CONTINUOUS
10
1.86543
20
0.492795
11
1.86543
21
0.467205
0
LINE
8
BLACK
6
CONTINUOUS
10
1.86543
20
0.467205
11
1.86483
21
0.464191
0
LINE
8
BLACK
6
CONTINUOUS
10
1.86483
20
0.464191
11
1.86313
21
0.461637
0
LINE
8
BLACK
6
CONTINUOUS
10
1.86313
20
0.461637
11
1.86262
21
0.461299
0
LINE
8
BLACK
6
CONTINUOUS
10
1.86262
20
0.461299
11
1.86313
21
0.460961
0
LINE
8
BLACK
6
CONTINUOUS
10
1.86313
20
0.460961
11
1.86483
21
0.458407
0
LINE
8
BLACK
6
CONTINUOUS
10
1.86483
20
0.458407
11
1.86543
21
0.455394
0
LINE
8
BLACK
6
CONTINUOUS
10
1.86543
20
0.455394
11
1.86543
21
0.429803
0
LINE
8
BLACK
6
CONTINUOUS
10
1.86543
20
0.429803
11
1.86483
21
0.42679
0
LINE
8
BLACK
6
CONTINUOUS
10
1.86483
20
0.42679
11
1.86313
21
0.424235
0
LINE
8
BLACK
6
CONTINUOUS
10
1.86313
20
0.424235
11
1.86057
21
0.422529
0
LINE
8
BLACK
6
CONTINUOUS
10
1.86057
20
0.422529
11
1.85756
21
0.421929
0
LINE
8
BLACK
6
CONTINUOUS
10
1.85756
20
0.421929
11
1.79614
21
0.421929
0
LINE
8
BLACK
6
CONTINUOUS
10
1.79614
20
0.421929
11
1.79313
21
0.422529
0
LINE
8
BLACK
6
CONTINUOUS
10
1.79313
20
0.422529
11
1.79057
21
0.424235
0
LINE
8
BLACK
6
CONTINUOUS
10
1.79057
20
0.424235
11
1.78887
21
0.42679
0
LINE
8
BLACK
6
CONTINUOUS
10
1.78887
20
0.42679
11
1.78827
21
0.429803
0
LINE
8
BLACK
6
CONTINUOUS
10
1.78827
20
0.429803
11
1.78827
21
0.455394
0
LINE
8
BLACK
6
CONTINUOUS
10
1.78827
20
0.455394
11
1.78887
21
0.458407
0
LINE
8
BLACK
6
CONTINUOUS
10
1.78887
20
0.458407
11
1.79057
21
0.460961
0
LINE
8
BLACK
6
CONTINUOUS
10
1.79057
20
0.460961
11
1.79108
21
0.461299
0
LINE
8
BLACK
6
CONTINUOUS
10
1.79108
20
0.461299
11
1.79057
21
0.461637
0
LINE
8
BLACK
6
CONTINUOUS
10
1.79057
20
0.461637
11
1.78887
21
0.464191
0
LINE
8
BLACK
6
CONTINUOUS
10
1.78887
20
0.464191
11
1.78827
21
0.467205
0
LINE
8
BLACK
6
CONTINUOUS
10
1.78827
20
0.467205
11
1.78827
21
0.492795
0
LINE
8
BLACK
6
CONTINUOUS
10
1.78827
20
0.492795
11
1.78887
21
0.495809
0
LINE
8
BLACK
6
CONTINUOUS
10
1.78887
20
0.495809
11
1.79057
21
0.498363
0
LINE
8
BLACK
6
CONTINUOUS
10
1.79057
20
0.498363
11
1.79108
21
0.498701
0
LINE
8
BLACK
6
CONTINUOUS
10
1.79108
20
0.498701
11
1.79057
21
0.499039
0
LINE
8
BLACK
6
CONTINUOUS
10
1.79057
20
0.499039
11
1.78887
21
0.501593
0
LINE
8
BLACK
6
CONTINUOUS
10
1.78887
20
0.501593
11
1.78827
21
0.504606
0
LINE
8
BLACK
6
CONTINUOUS
10
1.78827
20
0.504606
11
1.78827
21
0.530197
0
LINE
8
BLACK
6
CONTINUOUS
10
1.78827
20
0.530197
11
1.78887
21
0.53321
0
LINE
8
BLACK
6
CONTINUOUS
10
1.78887
20
0.53321
11
1.79057
21
0.535765
0
LINE
8
BLACK
6
CONTINUOUS
10
1.79057
20
0.535765
11
1.79313
21
0.537471
0
LINE
8
BLACK
6
CONTINUOUS
10
1.79313
20
0.537471
11
1.79614
21
0.538071
0
LINE
8
BLACK
6
CONTINUOUS
10
1.79614
20
0.538071
11
1.85756
21
0.538071
0
LINE
8
BLACK
6
CONTINUOUS
10
1.85756
20
0.538071
11
1.86057
21
0.537471
0
LINE
8
BLACK
6
CONTINUOUS
10
1.60238
20
0.491054
11
1.60494
21
0.489347
0
LINE
8
BLACK
6
CONTINUOUS
10
1.60494
20
0.489347
11
1.60664
21
0.486793
0
LINE
8
BLACK
6
CONTINUOUS
10
1.60664
20
0.486793
11
1.60724
21
0.48378
0
LINE
8
BLACK
6
CONTINUOUS
10
1.60724
20
0.48378
11
1.60724
21
0.45622
0
LINE
8
BLACK
6
CONTINUOUS
10
1.60724
20
0.45622
11
1.60664
21
0.453207
0
LINE
8
BLACK
6
CONTINUOUS
10
1.60664
20
0.453207
11
1.60494
21
0.450653
0
LINE
8
BLACK
6
CONTINUOUS
10
1.60494
20
0.450653
11
1.60238
21
0.448946
0
LINE
8
BLACK
6
CONTINUOUS
10
1.60238
20
0.448946
11
1.59937
21
0.448346
0
LINE
8
BLACK
6
CONTINUOUS
10
1.59937
20
0.448346
11
1.57575
21
0.448346
0
LINE
8
BLACK
6
CONTINUOUS
10
1.57575
20
0.448346
11
1.57273
21
0.448946
0
LINE
8
BLACK
6
CONTINUOUS
10
1.57273
20
0.448946
11
1.57018
21
0.450653
0
LINE
8
BLACK
6
CONTINUOUS
10
1.57018
20
0.450653
11
1.56847
21
0.453207
0
LINE
8
BLACK
6
CONTINUOUS
10
1.56847
20
0.453207
11
1.56787
21
0.45622
0
LINE
8
BLACK
6
CONTINUOUS
10
1.56787
20
0.45622
11
1.56787
21
0.48378
0
LINE
8
BLACK
6
CONTINUOUS
10
1.56787
20
0.48378
11
1.56847
21
0.486793
0
LINE
8
BLACK
6
CONTINUOUS
10
1.56847
20
0.486793
11
1.57018
21
0.489347
0
LINE
8
BLACK
6
CONTINUOUS
10
1.57018
20
0.489347
11
1.57273
21
0.491054
0
LINE
8
BLACK
6
CONTINUOUS
10
1.57273
20
0.491054
11
1.57575
21
0.491654
0
LINE
8
BLACK
6
CONTINUOUS
10
1.57575
20
0.491654
11
1.59937
21
0.491654
0
LINE
8
BLACK
6
CONTINUOUS
10
1.59937
20
0.491654
11
1.60238
21
0.491054
0
LINE
8
BLACK
6
CONTINUOUS
10
1.54727
20
0.491054
11
1.54982
21
0.489347
0
LINE
8
BLACK
6
CONTINUOUS
10
1.54982
20
0.489347
11
1.55153
21
0.486793
0
LINE
8
BLACK
6
CONTINUOUS
10
1.55153
20
0.486793
11
1.55213
21
0.48378
0
LINE
8
BLACK
6
CONTINUOUS
10
1.55213
20
0.48378
11
1.55213
21
0.45622
0
LINE
8
BLACK
6
CONTINUOUS
10
1.55213
20
0.45622
11
1.55153
21
0.453207
0
LINE
8
BLACK
6
CONTINUOUS
10
1.55153
20
0.453207
11
1.54982
21
0.450653
0
LINE
8
BLACK
6
CONTINUOUS
10
1.54982
20
0.450653
11
1.54727
21
0.448946
0
LINE
8
BLACK
6
CONTINUOUS
10
1.54727
20
0.448946
11
1.54425
21
0.448346
0
LINE
8
BLACK
6
CONTINUOUS
10
1.54425
20
0.448346
11
1.52063
21
0.448346
0
LINE
8
BLACK
6
CONTINUOUS
10
1.52063
20
0.448346
11
1.51762
21
0.448946
0
LINE
8
BLACK
6
CONTINUOUS
10
1.51762
20
0.448946
11
1.51506
21
0.450653
0
LINE
8
BLACK
6
CONTINUOUS
10
1.51506
20
0.450653
11
1.51336
21
0.453207
0
LINE
8
BLACK
6
CONTINUOUS
10
1.51336
20
0.453207
11
1.51276
21
0.45622
0
LINE
8
BLACK
6
CONTINUOUS
10
1.51276
20
0.45622
11
1.51276
21
0.48378
0
LINE
8
BLACK
6
CONTINUOUS
10
1.51276
20
0.48378
11
1.51336
21
0.486793
0
LINE
8
BLACK
6
CONTINUOUS
10
1.51336
20
0.486793
11
1.51506
21
0.489347
0
LINE
8
BLACK
6
CONTINUOUS
10
1.51506
20
0.489347
11
1.51762
21
0.491054
0
LINE
8
BLACK
6
CONTINUOUS
10
1.51762
20
0.491054
11
1.52063
21
0.491654
0
LINE
8
BLACK
6
CONTINUOUS
10
1.52063
20
0.491654
11
1.54425
21
0.491654
0
LINE
8
BLACK
6
CONTINUOUS
10
1.54425
20
0.491654
11
1.54727
21
0.491054
0
LINE
8
BLACK
6
CONTINUOUS
10
2.20301
20
0.53255
11
2.20557
21
0.530843
0
LINE
8
BLACK
6
CONTINUOUS
10
2.20557
20
0.530843
11
2.20727
21
0.528289
0
LINE
8
BLACK
6
CONTINUOUS
10
2.20727
20
0.528289
11
2.20787
21
0.525276
0
LINE
8
BLACK
6
CONTINUOUS
10
2.20787
20
0.525276
11
2.20787
21
0.465276
0
LINE
8
BLACK
6
CONTINUOUS
10
2.20787
20
0.465276
11
2.20727
21
0.462262
0
LINE
8
BLACK
6
CONTINUOUS
10
2.20727
20
0.462262
11
2.20557
21
0.459708
0
LINE
8
BLACK
6
CONTINUOUS
10
2.20557
20
0.459708
11
2.20301
21
0.458001
0
LINE
8
BLACK
6
CONTINUOUS
10
2.20301
20
0.458001
11
2.2
21
0.457402
0
LINE
8
BLACK
6
CONTINUOUS
10
2.2
20
0.457402
11
2.14
21
0.457402
0
LINE
8
BLACK
6
CONTINUOUS
10
2.14
20
0.457402
11
2.13699
21
0.458001
0
LINE
8
BLACK
6
CONTINUOUS
10
2.13699
20
0.458001
11
2.13443
21
0.459708
0
LINE
8
BLACK
6
CONTINUOUS
10
2.13443
20
0.459708
11
2.13273
21
0.462262
0
LINE
8
BLACK
6
CONTINUOUS
10
2.13273
20
0.462262
11
2.13213
21
0.465276
0
LINE
8
BLACK
6
CONTINUOUS
10
2.13213
20
0.465276
11
2.13213
21
0.525276
0
LINE
8
BLACK
6
CONTINUOUS
10
2.13213
20
0.525276
11
2.13273
21
0.528289
0
LINE
8
BLACK
6
CONTINUOUS
10
2.13273
20
0.528289
11
2.13443
21
0.530843
0
LINE
8
BLACK
6
CONTINUOUS
10
2.13443
20
0.530843
11
2.13699
21
0.53255
0
LINE
8
BLACK
6
CONTINUOUS
10
2.13699
20
0.53255
11
2.14
21
0.53315
0
LINE
8
BLACK
6
CONTINUOUS
10
2.14
20
0.53315
11
2.2
21
0.53315
0
LINE
8
BLACK
6
CONTINUOUS
10
2.2
20
0.53315
11
2.20301
21
0.53255
0
LINE
8
BLACK
6
CONTINUOUS
10
2.30301
20
0.53255
11
2.30557
21
0.530843
0
LINE
8
BLACK
6
CONTINUOUS
10
2.30557
20
0.530843
11
2.30727
21
0.528289
0
LINE
8
BLACK
6
CONTINUOUS
10
2.30727
20
0.528289
11
2.30787
21
0.525276
0
LINE
8
BLACK
6
CONTINUOUS
10
2.30787
20
0.525276
11
2.30787
21
0.465276
0
LINE
8
BLACK
6
CONTINUOUS
10
2.30787
20
0.465276
11
2.30727
21
0.462262
0
LINE
8
BLACK
6
CONTINUOUS
10
2.30727
20
0.462262
11
2.30557
21
0.459708
0
LINE
8
BLACK
6
CONTINUOUS
10
2.30557
20
0.459708
11
2.30301
21
0.458001
0
LINE
8
BLACK
6
CONTINUOUS
10
2.30301
20
0.458001
11
2.3
21
0.457402
0
LINE
8
BLACK
6
CONTINUOUS
10
2.3
20
0.457402
11
2.24
21
0.457402
0
LINE
8
BLACK
6
CONTINUOUS
10
2.24
20
0.457402
11
2.23699
21
0.458001
0
LINE
8
BLACK
6
CONTINUOUS
10
2.23699
20
0.458001
11
2.23443
21
0.459708
0
LINE
8
BLACK
6
CONTINUOUS
10
2.23443
20
0.459708
11
2.23273
21
0.462262
0
LINE
8
BLACK
6
CONTINUOUS
10
2.23273
20
0.462262
11
2.23213
21
0.465276
0
LINE
8
BLACK
6
CONTINUOUS
10
2.23213
20
0.465276
11
2.23213
21
0.525276
0
LINE
8
BLACK
6
CONTINUOUS
10
2.23213
20
0.525276
11
2.23273
21
0.528289
0
LINE
8
BLACK
6
CONTINUOUS
10
2.23273
20
0.528289
11
2.23443
21
0.530843
0
LINE
8
BLACK
6
CONTINUOUS
10
2.23443
20
0.530843
11
2.23699
21
0.53255
0
LINE
8
BLACK
6
CONTINUOUS
10
2.23699
20
0.53255
11
2.24
21
0.53315
0
LINE
8
BLACK
6
CONTINUOUS
10
2.24
20
0.53315
11
2.3
21
0.53315
0
LINE
8
BLACK
6
CONTINUOUS
10
2.3
20
0.53315
11
2.30301
21
0.53255
0
LINE
8
BLACK
6
CONTINUOUS
10
1.74564
20
0.544174
11
1.75061
21
0.542429
0
LINE
8
BLACK
6
CONTINUOUS
10
1.75061
20
0.542429
11
1.75485
21
0.539299
0
LINE
8
BLACK
6
CONTINUOUS
10
1.75485
20
0.539299
11
1.75798
21
0.535062
0
LINE
8
BLACK
6
CONTINUOUS
10
1.75798
20
0.535062
11
1.75973
21
0.530091
0
LINE
8
BLACK
6
CONTINUOUS
10
1.75973
20
0.530091
11
1.76004
21
0.526772
0
LINE
8
BLACK
6
CONTINUOUS
10
1.76004
20
0.526772
11
1.76004
21
0.490354
0
LINE
8
BLACK
6
CONTINUOUS
10
1.76004
20
0.490354
11
1.75973
21
0.487035
0
LINE
8
BLACK
6
CONTINUOUS
10
1.75973
20
0.487035
11
1.75798
21
0.482064
0
LINE
8
BLACK
6
CONTINUOUS
10
1.75798
20
0.482064
11
1.75485
21
0.477827
0
LINE
8
BLACK
6
CONTINUOUS
10
1.75485
20
0.477827
11
1.75061
21
0.474697
0
LINE
8
BLACK
6
CONTINUOUS
10
1.75061
20
0.474697
11
1.74564
21
0.472952
0
LINE
8
BLACK
6
CONTINUOUS
10
1.74564
20
0.472952
11
1.74232
21
0.472638
0
LINE
8
BLACK
6
CONTINUOUS
10
1.74232
20
0.472638
11
1.65768
21
0.472638
0
LINE
8
BLACK
6
CONTINUOUS
10
1.65768
20
0.472638
11
1.65436
21
0.472952
0
LINE
8
BLACK
6
CONTINUOUS
10
1.65436
20
0.472952
11
1.64939
21
0.474697
0
LINE
8
BLACK
6
CONTINUOUS
10
1.64939
20
0.474697
11
1.64515
21
0.477827
0
LINE
8
BLACK
6
CONTINUOUS
10
1.64515
20
0.477827
11
1.64202
21
0.482064
0
LINE
8
BLACK
6
CONTINUOUS
10
1.64202
20
0.482064
11
1.64027
21
0.487035
0
LINE
8
BLACK
6
CONTINUOUS
10
1.64027
20
0.487035
11
1.63996
21
0.490354
0
LINE
8
BLACK
6
CONTINUOUS
10
1.63996
20
0.490354
11
1.63996
21
0.526772
0
LINE
8
BLACK
6
CONTINUOUS
10
1.63996
20
0.526772
11
1.64027
21
0.530091
0
LINE
8
BLACK
6
CONTINUOUS
10
1.64027
20
0.530091
11
1.64202
21
0.535062
0
LINE
8
BLACK
6
CONTINUOUS
10
1.64202
20
0.535062
11
1.64515
21
0.539299
0
LINE
8
BLACK
6
CONTINUOUS
10
1.64515
20
0.539299
11
1.64939
21
0.542429
0
LINE
8
BLACK
6
CONTINUOUS
10
1.64939
20
0.542429
11
1.65436
21
0.544174
0
LINE
8
BLACK
6
CONTINUOUS
10
1.65436
20
0.544174
11
1.65768
21
0.544488
0
LINE
8
BLACK
6
CONTINUOUS
10
1.65768
20
0.544488
11
1.74232
21
0.544488
0
LINE
8
BLACK
6
CONTINUOUS
10
1.74232
20
0.544488
11
1.74564
21
0.544174
0
LINE
8
BLACK
6
CONTINUOUS
10
2.07104
20
0.543663
11
2.07601
21
0.541917
0
LINE
8
BLACK
6
CONTINUOUS
10
2.07601
20
0.541917
11
2.08024
21
0.538787
0
LINE
8
BLACK
6
CONTINUOUS
10
2.08024
20
0.538787
11
2.08337
21
0.53455
0
LINE
8
BLACK
6
CONTINUOUS
10
2.08337
20
0.53455
11
2.08512
21
0.52958
0
LINE
8
BLACK
6
CONTINUOUS
10
2.08512
20
0.52958
11
2.08543
21
0.52626
0
LINE
8
BLACK
6
CONTINUOUS
10
2.08543
20
0.52626
11
2.08543
21
0.505591
0
LINE
8
BLACK
6
CONTINUOUS
10
2.08543
20
0.505591
11
2.08512
21
0.502271
0
LINE
8
BLACK
6
CONTINUOUS
10
2.08512
20
0.502271
11
2.08337
21
0.4973
0
LINE
8
BLACK
6
CONTINUOUS
10
2.08337
20
0.4973
11
2.08024
21
0.493063
0
LINE
8
BLACK
6
CONTINUOUS
10
2.08024
20
0.493063
11
2.07601
21
0.489933
0
LINE
8
BLACK
6
CONTINUOUS
10
2.07601
20
0.489933
11
2.07104
21
0.488188
0
LINE
8
BLACK
6
CONTINUOUS
10
2.07104
20
0.488188
11
2.06772
21
0.487874
0
LINE
8
BLACK
6
CONTINUOUS
10
2.06772
20
0.487874
11
2.03228
21
0.487874
0
LINE
8
BLACK
6
CONTINUOUS
10
2.03228
20
0.487874
11
2.02896
21
0.488188
0
LINE
8
BLACK
6
CONTINUOUS
10
2.02896
20
0.488188
11
2.02399
21
0.489933
0
LINE
8
BLACK
6
CONTINUOUS
10
2.02399
20
0.489933
11
2.01976
21
0.493063
0
LINE
8
BLACK
6
CONTINUOUS
10
2.01976
20
0.493063
11
2.01663
21
0.4973
0
LINE
8
BLACK
6
CONTINUOUS
10
2.01663
20
0.4973
11
2.01488
21
0.502271
0
LINE
8
BLACK
6
CONTINUOUS
10
2.01488
20
0.502271
11
2.01457
21
0.505591
0
LINE
8
BLACK
6
CONTINUOUS
10
2.01457
20
0.505591
11
2.01457
21
0.52626
0
LINE
8
BLACK
6
CONTINUOUS
10
2.01457
20
0.52626
11
2.01488
21
0.52958
0
LINE
8
BLACK
6
CONTINUOUS
10
2.01488
20
0.52958
11
2.01663
21
0.53455
0
LINE
8
BLACK
6
CONTINUOUS
10
2.01663
20
0.53455
11
2.01976
21
0.538787
0
LINE
8
BLACK
6
CONTINUOUS
10
2.01976
20
0.538787
11
2.02399
21
0.541917
0
LINE
8
BLACK
6
CONTINUOUS
10
2.02399
20
0.541917
11
2.02896
21
0.543663
0
LINE
8
BLACK
6
CONTINUOUS
10
2.02896
20
0.543663
11
2.03228
21
0.543976
0
LINE
8
BLACK
6
CONTINUOUS
10
2.03228
20
0.543976
11
2.06772
21
0.543976
0
LINE
8
BLACK
6
CONTINUOUS
10
2.06772
20
0.543976
11
2.07104
21
0.543663
0
LINE
8
BLACK
6
CONTINUOUS
10
0.502021
20
0.544647
11
0.506991
21
0.542901
0
LINE
8
BLACK
6
CONTINUOUS
10
0.506991
20
0.542901
11
0.511228
21
0.539772
0
LINE
8
BLACK
6
CONTINUOUS
10
0.511228
20
0.539772
11
0.514358
21
0.535534
0
LINE
8
BLACK
6
CONTINUOUS
10
0.514358
20
0.535534
11
0.516104
21
0.530564
0
LINE
8
BLACK
6
CONTINUOUS
10
0.516104
20
0.530564
11
0.516417
21
0.527244
0
LINE
8
BLACK
6
CONTINUOUS
10
0.516417
20
0.527244
11
0.516417
21
0.507559
0
LINE
8
BLACK
6
CONTINUOUS
10
0.516417
20
0.507559
11
0.516104
21
0.504239
0
LINE
8
BLACK
6
CONTINUOUS
10
0.516104
20
0.504239
11
0.514358
21
0.499269
0
LINE
8
BLACK
6
CONTINUOUS
10
0.514358
20
0.499269
11
0.511228
21
0.495032
0
LINE
8
BLACK
6
CONTINUOUS
10
0.511228
20
0.495032
11
0.506991
21
0.491902
0
LINE
8
BLACK
6
CONTINUOUS
10
0.506991
20
0.491902
11
0.502021
21
0.490156
0
LINE
8
BLACK
6
CONTINUOUS
10
0.502021
20
0.490156
11
0.498701
21
0.489843
0
LINE
8
BLACK
6
CONTINUOUS
10
0.498701
20
0.489843
11
0.461299
21
0.489843
0
LINE
8
BLACK
6
CONTINUOUS
10
0.461299
20
0.489843
11
0.457979
21
0.490156
0
LINE
8
BLACK
6
CONTINUOUS
10
0.457979
20
0.490156
11
0.453009
21
0.491902
0
LINE
8
BLACK
6
CONTINUOUS
10
0.453009
20
0.491902
11
0.448772
21
0.495032
0
LINE
8
BLACK
6
CONTINUOUS
10
0.448772
20
0.495032
11
0.445642
21
0.499269
0
LINE
8
BLACK
6
CONTINUOUS
10
0.445642
20
0.499269
11
0.443896
21
0.504239
0
LINE
8
BLACK
6
CONTINUOUS
10
0.443896
20
0.504239
11
0.443583
21
0.507559
0
LINE
8
BLACK
6
CONTINUOUS
10
0.443583
20
0.507559
11
0.443583
21
0.527244
0
LINE
8
BLACK
6
CONTINUOUS
10
0.443583
20
0.527244
11
0.443896
21
0.530564
0
LINE
8
BLACK
6
CONTINUOUS
10
0.443896
20
0.530564
11
0.445642
21
0.535534
0
LINE
8
BLACK
6
CONTINUOUS
10
0.445642
20
0.535534
11
0.448772
21
0.539772
0
LINE
8
BLACK
6
CONTINUOUS
10
0.448772
20
0.539772
11
0.453009
21
0.542901
0
LINE
8
BLACK
6
CONTINUOUS
10
0.453009
20
0.542901
11
0.457979
21
0.544647
0
LINE
8
BLACK
6
CONTINUOUS
10
0.457979
20
0.544647
11
0.461299
21
0.544961
0
LINE
8
BLACK
6
CONTINUOUS
10
0.461299
20
0.544961
11
0.498701
21
0.544961
0
LINE
8
BLACK
6
CONTINUOUS
10
0.498701
20
0.544961
11
0.502021
21
0.544647
0
LINE
8
BLACK
6
CONTINUOUS
10
1.01202
20
0.544647
11
1.01699
21
0.542901
0
LINE
8
BLACK
6
CONTINUOUS
10
1.01699
20
0.542901
11
1.02123
21
0.539772
0
LINE
8
BLACK
6
CONTINUOUS
10
1.02123
20
0.539772
11
1.02436
21
0.535534
0
LINE
8
BLACK
6
CONTINUOUS
10
1.02436
20
0.535534
11
1.0261
21
0.530564
0
LINE
8
BLACK
6
CONTINUOUS
10
1.0261
20
0.530564
11
1.02642
21
0.527244
0
LINE
8
BLACK
6
CONTINUOUS
10
1.02642
20
0.527244
11
1.02642
21
0.507559
0
LINE
8
BLACK
6
CONTINUOUS
10
1.02642
20
0.507559
11
1.0261
21
0.504239
0
LINE
8
BLACK
6
CONTINUOUS
10
1.0261
20
0.504239
11
1.02436
21
0.499269
0
LINE
8
BLACK
6
CONTINUOUS
10
1.02436
20
0.499269
11
1.02123
21
0.495032
0
LINE
8
BLACK
6
CONTINUOUS
10
1.02123
20
0.495032
11
1.01699
21
0.491902
0
LINE
8
BLACK
6
CONTINUOUS
10
1.01699
20
0.491902
11
1.01202
21
0.490156
0
LINE
8
BLACK
6
CONTINUOUS
10
1.01202
20
0.490156
11
1.0087
21
0.489843
0
LINE
8
BLACK
6
CONTINUOUS
10
1.0087
20
0.489843
11
0.971299
21
0.489843
0
LINE
8
BLACK
6
CONTINUOUS
10
0.971299
20
0.489843
11
0.967979
21
0.490156
0
LINE
8
BLACK
6
CONTINUOUS
10
0.967979
20
0.490156
11
0.963009
21
0.491902
0
LINE
8
BLACK
6
CONTINUOUS
10
0.963009
20
0.491902
11
0.958772
21
0.495032
0
LINE
8
BLACK
6
CONTINUOUS
10
0.958772
20
0.495032
11
0.955642
21
0.499269
0
LINE
8
BLACK
6
CONTINUOUS
10
0.955642
20
0.499269
11
0.953896
21
0.504239
0
LINE
8
BLACK
6
CONTINUOUS
10
0.953896
20
0.504239
11
0.953583
21
0.507559
0
LINE
8
BLACK
6
CONTINUOUS
10
0.953583
20
0.507559
11
0.953583
21
0.527244
0
LINE
8
BLACK
6
CONTINUOUS
10
0.953583
20
0.527244
11
0.953896
21
0.530564
0
LINE
8
BLACK
6
CONTINUOUS
10
0.953896
20
0.530564
11
0.955642
21
0.535534
0
LINE
8
BLACK
6
CONTINUOUS
10
0.955642
20
0.535534
11
0.958772
21
0.539772
0
LINE
8
BLACK
6
CONTINUOUS
10
0.958772
20
0.539772
11
0.963009
21
0.542901
0
LINE
8
BLACK
6
CONTINUOUS
10
0.963009
20
0.542901
11
0.967979
21
0.544647
0
LINE
8
BLACK
6
CONTINUOUS
10
0.967979
20
0.544647
11
0.971299
21
0.544961
0
LINE
8
BLACK
6
CONTINUOUS
10
0.971299
20
0.544961
11
1.0087
21
0.544961
0
LINE
8
BLACK
6
CONTINUOUS
10
1.0087
20
0.544961
11
1.01202
21
0.544647
0
LINE
8
BLACK
6
CONTINUOUS
10
1.36202
20
0.544647
11
1.36699
21
0.542901
0
LINE
8
BLACK
6
CONTINUOUS
10
1.36699
20
0.542901
11
1.37123
21
0.539772
0
LINE
8
BLACK
6
CONTINUOUS
10
1.37123
20
0.539772
11
1.37436
21
0.535534
0
LINE
8
BLACK
6
CONTINUOUS
10
1.37436
20
0.535534
11
1.3761
21
0.530564
0
LINE
8
BLACK
6
CONTINUOUS
10
1.3761
20
0.530564
11
1.37642
21
0.527244
0
LINE
8
BLACK
6
CONTINUOUS
10
1.37642
20
0.527244
11
1.37642
21
0.507559
0
LINE
8
BLACK
6
CONTINUOUS
10
1.37642
20
0.507559
11
1.3761
21
0.504239
0
LINE
8
BLACK
6
CONTINUOUS
10
1.3761
20
0.504239
11
1.37436
21
0.499269
0
LINE
8
BLACK
6
CONTINUOUS
10
1.37436
20
0.499269
11
1.37123
21
0.495032
0
LINE
8
BLACK
6
CONTINUOUS
10
1.37123
20
0.495032
11
1.36699
21
0.491902
0
LINE
8
BLACK
6
CONTINUOUS
10
1.36699
20
0.491902
11
1.36202
21
0.490156
0
LINE
8
BLACK
6
CONTINUOUS
10
1.36202
20
0.490156
11
1.3587
21
0.489843
0
LINE
8
BLACK
6
CONTINUOUS
10
1.3587
20
0.489843
11
1.3213
21
0.489843
0
LINE
8
BLACK
6
CONTINUOUS
10
1.3213
20
0.489843
11
1.31798
21
0.490156
0
LINE
8
BLACK
6
CONTINUOUS
10
1.31798
20
0.490156
11
1.31301
21
0.491902
0
LINE
8
BLACK
6
CONTINUOUS
10
1.31301
20
0.491902
11
1.30877
21
0.495032
0
LINE
8
BLACK
6
CONTINUOUS
10
1.30877
20
0.495032
11
1.30564
21
0.499269
0
LINE
8
BLACK
6
CONTINUOUS
10
1.30564
20
0.499269
11
1.3039
21
0.504239
0
LINE
8
BLACK
6
CONTINUOUS
10
1.3039
20
0.504239
11
1.30358
21
0.507559
0
LINE
8
BLACK
6
CONTINUOUS
10
1.30358
20
0.507559
11
1.30358
21
0.527244
0
LINE
8
BLACK
6
CONTINUOUS
10
1.30358
20
0.527244
11
1.3039
21
0.530564
0
LINE
8
BLACK
6
CONTINUOUS
10
1.3039
20
0.530564
11
1.30564
21
0.535534
0
LINE
8
BLACK
6
CONTINUOUS
10
1.30564
20
0.535534
11
1.30877
21
0.539772
0
LINE
8
BLACK
6
CONTINUOUS
10
1.30877
20
0.539772
11
1.31301
21
0.542901
0
LINE
8
BLACK
6
CONTINUOUS
10
1.31301
20
0.542901
11
1.31798
21
0.544647
0
LINE
8
BLACK
6
CONTINUOUS
10
1.31798
20
0.544647
11
1.3213
21
0.544961
0
LINE
8
BLACK
6
CONTINUOUS
10
1.3213
20
0.544961
11
1.3587
21
0.544961
0
LINE
8
BLACK
6
CONTINUOUS
10
1.3587
20
0.544961
11
1.36202
21
0.544647
0
LINE
8
BLACK
6
CONTINUOUS
10
1.46202
20
0.544647
11
1.46699
21
0.542901
0
LINE
8
BLACK
6
CONTINUOUS
10
1.46699
20
0.542901
11
1.47123
21
0.539772
0
LINE
8
BLACK
6
CONTINUOUS
10
1.47123
20
0.539772
11
1.47436
21
0.535534
0
LINE
8
BLACK
6
CONTINUOUS
10
1.47436
20
0.535534
11
1.4761
21
0.530564
0
LINE
8
BLACK
6
CONTINUOUS
10
1.4761
20
0.530564
11
1.47642
21
0.527244
0
LINE
8
BLACK
6
CONTINUOUS
10
1.47642
20
0.527244
11
1.47642
21
0.507559
0
LINE
8
BLACK
6
CONTINUOUS
10
1.47642
20
0.507559
11
1.4761
21
0.504239
0
LINE
8
BLACK
6
CONTINUOUS
10
1.4761
20
0.504239
11
1.47436
21
0.499269
0
LINE
8
BLACK
6
CONTINUOUS
10
1.47436
20
0.499269
11
1.47123
21
0.495032
0
LINE
8
BLACK
6
CONTINUOUS
10
1.47123
20
0.495032
11
1.46699
21
0.491902
0
LINE
8
BLACK
6
CONTINUOUS
10
1.46699
20
0.491902
11
1.46202
21
0.490156
0
LINE
8
BLACK
6
CONTINUOUS
10
1.46202
20
0.490156
11
1.4587
21
0.489843
0
LINE
8
BLACK
6
CONTINUOUS
10
1.4587
20
0.489843
11
1.4213
21
0.489843
0
LINE
8
BLACK
6
CONTINUOUS
10
1.4213
20
0.489843
11
1.41798
21
0.490156
0
LINE
8
BLACK
6
CONTINUOUS
10
1.41798
20
0.490156
11
1.41301
21
0.491902
0
LINE
8
BLACK
6
CONTINUOUS
10
1.41301
20
0.491902
11
1.40877
21
0.495032
0
LINE
8
BLACK
6
CONTINUOUS
10
1.40877
20
0.495032
11
1.40564
21
0.499269
0
LINE
8
BLACK
6
CONTINUOUS
10
1.40564
20
0.499269
11
1.4039
21
0.504239
0
LINE
8
BLACK
6
CONTINUOUS
10
1.4039
20
0.504239
11
1.40358
21
0.507559
0
LINE
8
BLACK
6
CONTINUOUS
10
1.40358
20
0.507559
11
1.40358
21
0.527244
0
LINE
8
BLACK
6
CONTINUOUS
10
1.40358
20
0.527244
11
1.4039
21
0.530564
0
LINE
8
BLACK
6
CONTINUOUS
10
1.4039
20
0.530564
11
1.40564
21
0.535534
0
LINE
8
BLACK
6
CONTINUOUS
10
1.40564
20
0.535534
11
1.40877
21
0.539772
0
LINE
8
BLACK
6
CONTINUOUS
10
1.40877
20
0.539772
11
1.41301
21
0.542901
0
LINE
8
BLACK
6
CONTINUOUS
10
1.41301
20
0.542901
11
1.41798
21
0.544647
0
LINE
8
BLACK
6
CONTINUOUS
10
1.41798
20
0.544647
11
1.4213
21
0.544961
0
LINE
8
BLACK
6
CONTINUOUS
10
1.4213
20
0.544961
11
1.4587
21
0.544961
0
LINE
8
BLACK
6
CONTINUOUS
10
1.4587
20
0.544961
11
1.46202
21
0.544647
0
LINE
8
BLACK
6
CONTINUOUS
10
0.142021
20
0.544647
11
0.146991
21
0.542901
0
LINE
8
BLACK
6
CONTINUOUS
10
0.146991
20
0.542901
11
0.151228
21
0.539772
0
LINE
8
BLACK
6
CONTINUOUS
10
0.151228
20
0.539772
11
0.154358
21
0.535534
0
LINE
8
BLACK
6
CONTINUOUS
10
0.154358
20
0.535534
11
0.156104
21
0.530564
0
LINE
8
BLACK
6
CONTINUOUS
10
0.156104
20
0.530564
11
0.156417
21
0.527244
0
LINE
8
BLACK
6
CONTINUOUS
10
0.156417
20
0.527244
11
0.156417
21
0.507559
0
LINE
8
BLACK
6
CONTINUOUS
10
0.156417
20
0.507559
11
0.156104
21
0.504239
0
LINE
8
BLACK
6
CONTINUOUS
10
0.156104
20
0.504239
11
0.154358
21
0.499269
0
LINE
8
BLACK
6
CONTINUOUS
10
0.154358
20
0.499269
11
0.151228
21
0.495032
0
LINE
8
BLACK
6
CONTINUOUS
10
0.151228
20
0.495032
11
0.146991
21
0.491902
0
LINE
8
BLACK
6
CONTINUOUS
10
0.146991
20
0.491902
11
0.142021
21
0.490156
0
LINE
8
BLACK
6
CONTINUOUS
10
0.142021
20
0.490156
11
0.138701
21
0.489843
0
LINE
8
BLACK
6
CONTINUOUS
10
0.138701
20
0.489843
11
0.101299
21
0.489843
0
LINE
8
BLACK
6
CONTINUOUS
10
0.101299
20
0.489843
11
0.0979794
21
0.490156
0
LINE
8
BLACK
6
CONTINUOUS
10
0.0979794
20
0.490156
11
0.0930091
21
0.491902
0
LINE
8
BLACK
6
CONTINUOUS
10
0.0930091
20
0.491902
11
0.0887717
21
0.495032
0
LINE
8
BLACK
6
CONTINUOUS
10
0.0887717
20
0.495032
11
0.0856419
21
0.499269
0
LINE
8
BLACK
6
CONTINUOUS
10
0.0856419
20
0.499269
11
0.0838965
21
0.504239
0
LINE
8
BLACK
6
CONTINUOUS
10
0.0838965
20
0.504239
11
0.0835827
21
0.507559
0
LINE
8
BLACK
6
CONTINUOUS
10
0.0835827
20
0.507559
11
0.0835827
21
0.527244
0
LINE
8
BLACK
6
CONTINUOUS
10
0.0835827
20
0.527244
11
0.0838965
21
0.530564
0
LINE
8
BLACK
6
CONTINUOUS
10
0.0838965
20
0.530564
11
0.0856419
21
0.535534
0
LINE
8
BLACK
6
CONTINUOUS
10
0.0856419
20
0.535534
11
0.0887717
21
0.539772
0
LINE
8
BLACK
6
CONTINUOUS
10
0.0887717
20
0.539772
11
0.0930091
21
0.542901
0
LINE
8
BLACK
6
CONTINUOUS
10
0.0930091
20
0.542901
11
0.0979794
21
0.544647
0
LINE
8
BLACK
6
CONTINUOUS
10
0.0979794
20
0.544647
11
0.101299
21
0.544961
0
LINE
8
BLACK
6
CONTINUOUS
10
0.101299
20
0.544961
11
0.138701
21
0.544961
0
LINE
8
BLACK
6
CONTINUOUS
10
0.138701
20
0.544961
11
0.142021
21
0.544647
0
LINE
8
BLACK
6
CONTINUOUS
10
0.242021
20
0.544647
11
0.246991
21
0.542901
0
LINE
8
BLACK
6
CONTINUOUS
10
0.246991
20
0.542901
11
0.251228
21
0.539772
0
LINE
8
BLACK
6
CONTINUOUS
10
0.251228
20
0.539772
11
0.254358
21
0.535534
0
LINE
8
BLACK
6
CONTINUOUS
10
0.254358
20
0.535534
11
0.256104
21
0.530564
0
LINE
8
BLACK
6
CONTINUOUS
10
0.256104
20
0.530564
11
0.256417
21
0.527244
0
LINE
8
BLACK
6
CONTINUOUS
10
0.256417
20
0.527244
11
0.256417
21
0.507559
0
LINE
8
BLACK
6
CONTINUOUS
10
0.256417
20
0.507559
11
0.256104
21
0.504239
0
LINE
8
BLACK
6
CONTINUOUS
10
0.256104
20
0.504239
11
0.254358
21
0.499269
0
LINE
8
BLACK
6
CONTINUOUS
10
0.254358
20
0.499269
11
0.251228
21
0.495032
0
LINE
8
BLACK
6
CONTINUOUS
10
0.251228
20
0.495032
11
0.246991
21
0.491902
0
LINE
8
BLACK
6
CONTINUOUS
10
0.246991
20
0.491902
11
0.242021
21
0.490156
0
LINE
8
BLACK
6
CONTINUOUS
10
0.242021
20
0.490156
11
0.238701
21
0.489843
0
LINE
8
BLACK
6
CONTINUOUS
10
0.238701
20
0.489843
11
0.201299
21
0.489843
0
LINE
8
BLACK
6
CONTINUOUS
10
0.201299
20
0.489843
11
0.197979
21
0.490156
0
LINE
8
BLACK
6
CONTINUOUS
10
0.197979
20
0.490156
11
0.193009
21
0.491902
0
LINE
8
BLACK
6
CONTINUOUS
10
0.193009
20
0.491902
11
0.188772
21
0.495032
0
LINE
8
BLACK
6
CONTINUOUS
10
0.188772
20
0.495032
11
0.185642
21
0.499269
0
LINE
8
BLACK
6
CONTINUOUS
10
0.185642
20
0.499269
11
0.183896
21
0.504239
0
LINE
8
BLACK
6
CONTINUOUS
10
0.183896
20
0.504239
11
0.183583
21
0.507559
0
LINE
8
BLACK
6
CONTINUOUS
10
0.183583
20
0.507559
11
0.183583
21
0.527244
0
LINE
8
BLACK
6
CONTINUOUS
10
0.183583
20
0.527244
11
0.183896
21
0.530564
0
LINE
8
BLACK
6
CONTINUOUS
10
0.183896
20
0.530564
11
0.185642
21
0.535534
0
LINE
8
BLACK
6
CONTINUOUS
10
0.185642
20
0.535534
11
0.188772
21
0.539772
0
LINE
8
BLACK
6
CONTINUOUS
10
0.188772
20
0.539772
11
0.193009
21
0.542901
0
LINE
8
BLACK
6
CONTINUOUS
10
0.193009
20
0.542901
11
0.197979
21
0.544647
0
LINE
8
BLACK
6
CONTINUOUS
10
0.197979
20
0.544647
11
0.201299
21
0.544961
0
LINE
8
BLACK
6
CONTINUOUS
10
0.201299
20
0.544961
11
0.238701
21
0.544961
0
LINE
8
BLACK
6
CONTINUOUS
10
0.238701
20
0.544961
11
0.242021
21
0.544647
0
LINE
8
BLACK
6
CONTINUOUS
10
1.12202
20
0.544647
11
1.12699
21
0.542901
0
LINE
8
BLACK
6
CONTINUOUS
10
1.12699
20
0.542901
11
1.13123
21
0.539772
0
LINE
8
BLACK
6
CONTINUOUS
10
1.13123
20
0.539772
11
1.13436
21
0.535534
0
LINE
8
BLACK
6
CONTINUOUS
10
1.13436
20
0.535534
11
1.1361
21
0.530564
0
LINE
8
BLACK
6
CONTINUOUS
10
1.1361
20
0.530564
11
1.13642
21
0.527244
0
LINE
8
BLACK
6
CONTINUOUS
10
1.13642
20
0.527244
11
1.13642
21
0.507559
0
LINE
8
BLACK
6
CONTINUOUS
10
1.13642
20
0.507559
11
1.1361
21
0.504239
0
LINE
8
BLACK
6
CONTINUOUS
10
1.1361
20
0.504239
11
1.13436
21
0.499269
0
LINE
8
BLACK
6
CONTINUOUS
10
1.13436
20
0.499269
11
1.13123
21
0.495032
0
LINE
8
BLACK
6
CONTINUOUS
10
1.13123
20
0.495032
11
1.12699
21
0.491902
0
LINE
8
BLACK
6
CONTINUOUS
10
1.12699
20
0.491902
11
1.12202
21
0.490156
0
LINE
8
BLACK
6
CONTINUOUS
10
1.12202
20
0.490156
11
1.1187
21
0.489843
0
LINE
8
BLACK
6
CONTINUOUS
10
1.1187
20
0.489843
11
1.0813
21
0.489843
0
LINE
8
BLACK
6
CONTINUOUS
10
1.0813
20
0.489843
11
1.07798
21
0.490156
0
LINE
8
BLACK
6
CONTINUOUS
10
1.07798
20
0.490156
11
1.07301
21
0.491902
0
LINE
8
BLACK
6
CONTINUOUS
10
1.07301
20
0.491902
11
1.06877
21
0.495032
0
LINE
8
BLACK
6
CONTINUOUS
10
1.06877
20
0.495032
11
1.06564
21
0.499269
0
LINE
8
BLACK
6
CONTINUOUS
10
1.06564
20
0.499269
11
1.0639
21
0.504239
0
LINE
8
BLACK
6
CONTINUOUS
10
1.0639
20
0.504239
11
1.06358
21
0.507559
0
LINE
8
BLACK
6
CONTINUOUS
10
1.06358
20
0.507559
11
1.06358
21
0.527244
0
LINE
8
BLACK
6
CONTINUOUS
10
1.06358
20
0.527244
11
1.0639
21
0.530564
0
LINE
8
BLACK
6
CONTINUOUS
10
1.0639
20
0.530564
11
1.06564
21
0.535534
0
LINE
8
BLACK
6
CONTINUOUS
10
1.06564
20
0.535534
11
1.06877
21
0.539772
0
LINE
8
BLACK
6
CONTINUOUS
10
1.06877
20
0.539772
11
1.07301
21
0.542901
0
LINE
8
BLACK
6
CONTINUOUS
10
1.07301
20
0.542901
11
1.07798
21
0.544647
0
LINE
8
BLACK
6
CONTINUOUS
10
1.07798
20
0.544647
11
1.0813
21
0.544961
0
LINE
8
BLACK
6
CONTINUOUS
10
1.0813
20
0.544961
11
1.1187
21
0.544961
0
LINE
8
BLACK
6
CONTINUOUS
10
1.1187
20
0.544961
11
1.12202
21
0.544647
0
LINE
8
BLACK
6
CONTINUOUS
10
0.752021
20
0.544647
11
0.756991
21
0.542901
0
LINE
8
BLACK
6
CONTINUOUS
10
0.756991
20
0.542901
11
0.761228
21
0.539772
0
LINE
8
BLACK
6
CONTINUOUS
10
0.761228
20
0.539772
11
0.764358
21
0.535534
0
LINE
8
BLACK
6
CONTINUOUS
10
0.764358
20
0.535534
11
0.766104
21
0.530564
0
LINE
8
BLACK
6
CONTINUOUS
10
0.766104
20
0.530564
11
0.766417
21
0.527244
0
LINE
8
BLACK
6
CONTINUOUS
10
0.766417
20
0.527244
11
0.766417
21
0.507559
0
LINE
8
BLACK
6
CONTINUOUS
10
0.766417
20
0.507559
11
0.766104
21
0.504239
0
LINE
8
BLACK
6
CONTINUOUS
10
0.766104
20
0.504239
11
0.764358
21
0.499269
0
LINE
8
BLACK
6
CONTINUOUS
10
0.764358
20
0.499269
11
0.761228
21
0.495032
0
LINE
8
BLACK
6
CONTINUOUS
10
0.761228
20
0.495032
11
0.756991
21
0.491902
0
LINE
8
BLACK
6
CONTINUOUS
10
0.756991
20
0.491902
11
0.752021
21
0.490156
0
LINE
8
BLACK
6
CONTINUOUS
10
0.752021
20
0.490156
11
0.748701
21
0.489843
0
LINE
8
BLACK
6
CONTINUOUS
10
0.748701
20
0.489843
11
0.711299
21
0.489843
0
LINE
8
BLACK
6
CONTINUOUS
10
0.711299
20
0.489843
11
0.707979
21
0.490156
0
LINE
8
BLACK
6
CONTINUOUS
10
0.707979
20
0.490156
11
0.703009
21
0.491902
0
LINE
8
BLACK
6
CONTINUOUS
10
0.703009
20
0.491902
11
0.698772
21
0.495032
0
LINE
8
BLACK
6
CONTINUOUS
10
0.698772
20
0.495032
11
0.695642
21
0.499269
0
LINE
8
BLACK
6
CONTINUOUS
10
0.695642
20
0.499269
11
0.693896
21
0.504239
0
LINE
8
BLACK
6
CONTINUOUS
10
0.693896
20
0.504239
11
0.693583
21
0.507559
0
LINE
8
BLACK
6
CONTINUOUS
10
0.693583
20
0.507559
11
0.693583
21
0.527244
0
LINE
8
BLACK
6
CONTINUOUS
10
0.693583
20
0.527244
11
0.693896
21
0.530564
0
LINE
8
BLACK
6
CONTINUOUS
10
0.693896
20
0.530564
11
0.695642
21
0.535534
0
LINE
8
BLACK
6
CONTINUOUS
10
0.695642
20
0.535534
11
0.698772
21
0.539772
0
LINE
8
BLACK
6
CONTINUOUS
10
0.698772
20
0.539772
11
0.703009
21
0.542901
0
LINE
8
BLACK
6
CONTINUOUS
10
0.703009
20
0.542901
11
0.707979
21
0.544647
0
LINE
8
BLACK
6
CONTINUOUS
10
0.707979
20
0.544647
11
0.711299
21
0.544961
0
LINE
8
BLACK
6
CONTINUOUS
10
0.711299
20
0.544961
11
0.748701
21
0.544961
0
LINE
8
BLACK
6
CONTINUOUS
10
0.748701
20
0.544961
11
0.752021
21
0.544647
  0
ENDSEC
  0
EOF
