  0
SECTION
  2
HEADER
  9
$ANGBASE
  50
0.0
  9
$ANGDIR
  70
1
  9
$MEASUREMENT
  70
0
  0
ENDSEC
  0
SECTION
  2
TABLES
  0
TABLE
  2
LTYPE
  70
4
  0
LTYPE
  5
40F
  2
CONTINUOUS
  70
0
  3
Solid line
  72
65
  73
0
  40
0.0
  0
LTYPE
  5
410
  2
DASHDOT
 70
0
  3
Dash Dot ____ _ ____ _
 72
65
 73
4
 40
2.0
 49
1.25
 49
-0.25
 49
0.25
 49
-0.25
  0
LTYPE
  5
411
  2
DASHED
 70
0
  3
Dashed __ __ __ __ __
 72
65
 73
2
 40
0.75
 49
0.5
 49
-0.25
  0
LTYPE
  5
43B
  2
DOTTED
 70
0
  3
Dotted .  .  .  .
 72
65
 73
2
 40
0.2
 49
0.0
 49
-0.2
  0
ENDTAB
  0
TABLE
  2
STYLE
  70
4
  0
STYLE
  2
KICAD
  70
0
  40
0
  41
1
  42
1
  50
0
  71
0
  3
isocp.shx
  0
STYLE
  2
KICADB
  70
0
  40
0
  41
1
  42
1
  50
0
  71
0
  3
isocp.shx
  0
STYLE
  2
KICADI
  70
0
  40
0
  41
1
  42
1
  50
15
  71
0
  3
isocp.shx
  0
STYLE
  2
KICADBI
  70
0
  40
0
  41
1
  42
1
  50
15
  71
0
  3
isocp.shx
  0
ENDTAB
  0
TABLE
  2
LAYER
  70
1
  0
LAYER
  2
BLACK
  70
0
  62
7
  6
CONTINUOUS
  0
ENDTAB
  0
ENDSEC
  0
SECTION
  2
ENTITIES
0
LINE
8
BLACK
6
CONTINUOUS
10
0.0357875
20
1.56772
11
0.0378999
21
1.56955
0
LINE
8
BLACK
6
CONTINUOUS
10
0.0378999
20
1.56955
11
0.0399606
21
1.57
0
LINE
8
BLACK
6
CONTINUOUS
10
0.0399606
20
1.57
11
1.17004
21
1.57
0
LINE
8
BLACK
6
CONTINUOUS
10
1.17004
20
1.57
11
1.17272
21
1.56921
0
LINE
8
BLACK
6
CONTINUOUS
10
1.17272
20
1.56921
11
1.17455
21
1.5671
0
LINE
8
BLACK
6
CONTINUOUS
10
1.17455
20
1.5671
11
1.175
21
1.56504
0
LINE
8
BLACK
6
CONTINUOUS
10
1.175
20
1.56504
11
1.175
21
0.0349606
0
LINE
8
BLACK
6
CONTINUOUS
10
1.175
20
0.0349606
11
1.17421
21
0.0322787
0
LINE
8
BLACK
6
CONTINUOUS
10
1.17421
20
0.0322787
11
1.1721
21
0.0304483
0
LINE
8
BLACK
6
CONTINUOUS
10
1.1721
20
0.0304483
11
1.17004
21
0.03
0
LINE
8
BLACK
6
CONTINUOUS
10
1.17004
20
0.03
11
0.0399606
21
0.03
0
LINE
8
BLACK
6
CONTINUOUS
10
0.0399606
20
0.03
11
0.0372787
21
0.0307875
0
LINE
8
BLACK
6
CONTINUOUS
10
0.0372787
20
0.0307875
11
0.0354483
21
0.0328999
0
LINE
8
BLACK
6
CONTINUOUS
10
0.0354483
20
0.0328999
11
0.035
21
0.0349606
0
LINE
8
BLACK
6
CONTINUOUS
10
0.035
20
0.0349606
11
0.035
21
1.56504
0
LINE
8
BLACK
6
CONTINUOUS
10
0.035
20
1.56504
11
0.0357875
21
1.56772
0
LINE
8
BLACK
6
CONTINUOUS
10
1.125
20
0.33
11
1.125
21
0.31
0
LINE
8
BLACK
6
CONTINUOUS
10
1.125
20
0.31
11
1.14448
21
0.31
0
LINE
8
BLACK
6
CONTINUOUS
10
1.14448
20
0.31
11
1.14508
21
0.310176
0
LINE
8
BLACK
6
CONTINUOUS
10
1.14508
20
0.310176
11
1.14513
21
0.310231
0
LINE
8
BLACK
6
CONTINUOUS
10
1.14513
20
0.310231
11
1.1452
21
0.310533
0
LINE
8
BLACK
6
CONTINUOUS
10
1.1452
20
0.310533
11
1.1452
21
0.329911
0
LINE
8
BLACK
6
CONTINUOUS
10
1.1452
20
0.329911
11
1.14519
21
0.330089
0
LINE
8
BLACK
6
CONTINUOUS
10
1.14519
20
0.330089
11
1.14501
21
0.332609
0
LINE
8
BLACK
6
CONTINUOUS
10
1.14501
20
0.332609
11
1.14492
21
0.33313
0
LINE
8
BLACK
6
CONTINUOUS
10
1.14492
20
0.33313
11
1.14347
21
0.33805
0
LINE
8
BLACK
6
CONTINUOUS
10
1.14347
20
0.33805
11
1.14318
21
0.338689
0
LINE
8
BLACK
6
CONTINUOUS
10
1.14318
20
0.338689
11
1.14046
21
0.342928
0
LINE
8
BLACK
6
CONTINUOUS
10
1.14046
20
0.342928
11
1.14
21
0.343459
0
LINE
8
BLACK
6
CONTINUOUS
10
1.14
20
0.343459
11
1.13619
21
0.346758
0
LINE
8
BLACK
6
CONTINUOUS
10
1.13619
20
0.346758
11
1.1356
21
0.347138
0
LINE
8
BLACK
6
CONTINUOUS
10
1.1356
20
0.347138
11
1.13101
21
0.349231
0
LINE
8
BLACK
6
CONTINUOUS
10
1.13101
20
0.349231
11
1.13034
21
0.349429
0
LINE
8
BLACK
6
CONTINUOUS
10
1.13034
20
0.349429
11
1.12518
21
0.350172
0
LINE
8
BLACK
6
CONTINUOUS
10
1.12518
20
0.350172
11
1.12482
21
0.350197
0
LINE
8
BLACK
6
CONTINUOUS
10
1.12482
20
0.350197
11
1.10571
21
0.350197
0
LINE
8
BLACK
6
CONTINUOUS
10
1.10571
20
0.350197
11
1.10511
21
0.350021
0
LINE
8
BLACK
6
CONTINUOUS
10
1.10511
20
0.350021
11
1.10507
21
0.349966
0
LINE
8
BLACK
6
CONTINUOUS
10
1.10507
20
0.349966
11
1.105
21
0.349663
0
LINE
8
BLACK
6
CONTINUOUS
10
1.105
20
0.349663
11
1.105
21
0.33
0
LINE
8
BLACK
6
CONTINUOUS
10
1.105
20
0.33
11
1.125
21
0.33
0
LINE
8
BLACK
6
CONTINUOUS
10
0.944809
20
0.0699114
11
0.94499
21
0.067391
0
LINE
8
BLACK
6
CONTINUOUS
10
0.94499
20
0.067391
11
0.945084
21
0.0668704
0
LINE
8
BLACK
6
CONTINUOUS
10
0.945084
20
0.0668704
11
0.946528
21
0.0619505
0
LINE
8
BLACK
6
CONTINUOUS
10
0.946528
20
0.0619505
11
0.94682
21
0.0613113
0
LINE
8
BLACK
6
CONTINUOUS
10
0.94682
20
0.0613113
11
0.949544
21
0.0570724
0
LINE
8
BLACK
6
CONTINUOUS
10
0.949544
20
0.0570724
11
0.950004
21
0.0565415
0
LINE
8
BLACK
6
CONTINUOUS
10
0.950004
20
0.0565415
11
0.953813
21
0.0532417
0
LINE
8
BLACK
6
CONTINUOUS
10
0.953813
20
0.0532417
11
0.954403
21
0.0528619
0
LINE
8
BLACK
6
CONTINUOUS
10
0.954403
20
0.0528619
11
0.958987
21
0.0507686
0
LINE
8
BLACK
6
CONTINUOUS
10
0.958987
20
0.0507686
11
0.959661
21
0.0505708
0
LINE
8
BLACK
6
CONTINUOUS
10
0.959661
20
0.0505708
11
0.964825
21
0.0498283
0
LINE
8
BLACK
6
CONTINUOUS
10
0.964825
20
0.0498283
11
0.965177
21
0.0498031
0
LINE
8
BLACK
6
CONTINUOUS
10
0.965177
20
0.0498031
11
0.984287
21
0.0498031
0
LINE
8
BLACK
6
CONTINUOUS
10
0.984287
20
0.0498031
11
0.984887
21
0.0499793
0
LINE
8
BLACK
6
CONTINUOUS
10
0.984887
20
0.0499793
11
0.984934
21
0.0500341
0
LINE
8
BLACK
6
CONTINUOUS
10
0.984934
20
0.0500341
11
0.985
21
0.0503365
0
LINE
8
BLACK
6
CONTINUOUS
10
0.985
20
0.0503365
11
0.985
21
0.07
0
LINE
8
BLACK
6
CONTINUOUS
10
0.985
20
0.07
11
0.965
21
0.07
0
LINE
8
BLACK
6
CONTINUOUS
10
0.965
20
0.07
11
0.965
21
0.09
0
LINE
8
BLACK
6
CONTINUOUS
10
0.965
20
0.09
11
0.945516
21
0.09
0
LINE
8
BLACK
6
CONTINUOUS
10
0.945516
20
0.09
11
0.944916
21
0.0898238
0
LINE
8
BLACK
6
CONTINUOUS
10
0.944916
20
0.0898238
11
0.944869
21
0.0897691
0
LINE
8
BLACK
6
CONTINUOUS
10
0.944869
20
0.0897691
11
0.944803
21
0.0894666
0
LINE
8
BLACK
6
CONTINUOUS
10
0.944803
20
0.0894666
11
0.944803
21
0.0700889
0
LINE
8
BLACK
6
CONTINUOUS
10
0.944803
20
0.0700889
11
0.944809
21
0.0699114
0
LINE
8
BLACK
6
CONTINUOUS
10
1.025
20
0.09
11
1.025
21
0.07
0
LINE
8
BLACK
6
CONTINUOUS
10
1.025
20
0.07
11
1.005
21
0.07
0
LINE
8
BLACK
6
CONTINUOUS
10
1.005
20
0.07
11
1.005
21
0.0505163
0
LINE
8
BLACK
6
CONTINUOUS
10
1.005
20
0.0505163
11
1.00518
21
0.0499164
0
LINE
8
BLACK
6
CONTINUOUS
10
1.00518
20
0.0499164
11
1.00523
21
0.0498689
0
LINE
8
BLACK
6
CONTINUOUS
10
1.00523
20
0.0498689
11
1.00553
21
0.0498031
0
LINE
8
BLACK
6
CONTINUOUS
10
1.00553
20
0.0498031
11
1.02491
21
0.0498031
0
LINE
8
BLACK
6
CONTINUOUS
10
1.02491
20
0.0498031
11
1.02509
21
0.0498095
0
LINE
8
BLACK
6
CONTINUOUS
10
1.02509
20
0.0498095
11
1.02761
21
0.0499898
0
LINE
8
BLACK
6
CONTINUOUS
10
1.02761
20
0.0499898
11
1.02813
21
0.0500837
0
LINE
8
BLACK
6
CONTINUOUS
10
1.02813
20
0.0500837
11
1.03305
21
0.0515283
0
LINE
8
BLACK
6
CONTINUOUS
10
1.03305
20
0.0515283
11
1.03369
21
0.0518202
0
LINE
8
BLACK
6
CONTINUOUS
10
1.03369
20
0.0518202
11
1.03793
21
0.0545443
0
LINE
8
BLACK
6
CONTINUOUS
10
1.03793
20
0.0545443
11
1.03846
21
0.0550044
0
LINE
8
BLACK
6
CONTINUOUS
10
1.03846
20
0.0550044
11
1.04125
21
0.0582226
0
LINE
8
BLACK
6
CONTINUOUS
10
1.04125
20
0.0582226
11
1.0436
21
0.0597338
0
LINE
8
BLACK
6
CONTINUOUS
10
1.0436
20
0.0597338
11
1.04639
21
0.0597338
0
LINE
8
BLACK
6
CONTINUOUS
10
1.04639
20
0.0597338
11
1.04875
21
0.0582227
0
LINE
8
BLACK
6
CONTINUOUS
10
1.04875
20
0.0582227
11
1.04917
21
0.057656
0
LINE
8
BLACK
6
CONTINUOUS
10
1.04917
20
0.057656
11
1.04954
21
0.0570724
0
LINE
8
BLACK
6
CONTINUOUS
10
1.04954
20
0.0570724
11
1.05
21
0.0565415
0
LINE
8
BLACK
6
CONTINUOUS
10
1.05
20
0.0565415
11
1.05381
21
0.0532417
0
LINE
8
BLACK
6
CONTINUOUS
10
1.05381
20
0.0532417
11
1.0544
21
0.0528619
0
LINE
8
BLACK
6
CONTINUOUS
10
1.0544
20
0.0528619
11
1.05899
21
0.0507686
0
LINE
8
BLACK
6
CONTINUOUS
10
1.05899
20
0.0507686
11
1.05966
21
0.0505708
0
LINE
8
BLACK
6
CONTINUOUS
10
1.05966
20
0.0505708
11
1.06482
21
0.0498283
0
LINE
8
BLACK
6
CONTINUOUS
10
1.06482
20
0.0498283
11
1.06518
21
0.0498031
0
LINE
8
BLACK
6
CONTINUOUS
10
1.06518
20
0.0498031
11
1.08429
21
0.0498031
0
LINE
8
BLACK
6
CONTINUOUS
10
1.08429
20
0.0498031
11
1.08489
21
0.0499793
0
LINE
8
BLACK
6
CONTINUOUS
10
1.08489
20
0.0499793
11
1.08493
21
0.0500341
0
LINE
8
BLACK
6
CONTINUOUS
10
1.08493
20
0.0500341
11
1.085
21
0.0503365
0
LINE
8
BLACK
6
CONTINUOUS
10
1.085
20
0.0503365
11
1.085
21
0.07
0
LINE
8
BLACK
6
CONTINUOUS
10
1.085
20
0.07
11
1.065
21
0.07
0
LINE
8
BLACK
6
CONTINUOUS
10
1.065
20
0.07
11
1.065
21
0.09
0
LINE
8
BLACK
6
CONTINUOUS
10
1.065
20
0.09
11
1.025
21
0.09
0
LINE
8
BLACK
6
CONTINUOUS
10
1.125
20
0.09
11
1.125
21
0.07
0
LINE
8
BLACK
6
CONTINUOUS
10
1.125
20
0.07
11
1.105
21
0.07
0
LINE
8
BLACK
6
CONTINUOUS
10
1.105
20
0.07
11
1.105
21
0.0505163
0
LINE
8
BLACK
6
CONTINUOUS
10
1.105
20
0.0505163
11
1.10518
21
0.0499164
0
LINE
8
BLACK
6
CONTINUOUS
10
1.10518
20
0.0499164
11
1.10523
21
0.0498689
0
LINE
8
BLACK
6
CONTINUOUS
10
1.10523
20
0.0498689
11
1.10553
21
0.0498031
0
LINE
8
BLACK
6
CONTINUOUS
10
1.10553
20
0.0498031
11
1.12491
21
0.0498031
0
LINE
8
BLACK
6
CONTINUOUS
10
1.12491
20
0.0498031
11
1.12509
21
0.0498095
0
LINE
8
BLACK
6
CONTINUOUS
10
1.12509
20
0.0498095
11
1.12761
21
0.0499898
0
LINE
8
BLACK
6
CONTINUOUS
10
1.12761
20
0.0499898
11
1.12813
21
0.0500837
0
LINE
8
BLACK
6
CONTINUOUS
10
1.12813
20
0.0500837
11
1.13305
21
0.0515283
0
LINE
8
BLACK
6
CONTINUOUS
10
1.13305
20
0.0515283
11
1.13369
21
0.0518202
0
LINE
8
BLACK
6
CONTINUOUS
10
1.13369
20
0.0518202
11
1.13793
21
0.0545443
0
LINE
8
BLACK
6
CONTINUOUS
10
1.13793
20
0.0545443
11
1.13846
21
0.0550044
0
LINE
8
BLACK
6
CONTINUOUS
10
1.13846
20
0.0550044
11
1.14176
21
0.0588126
0
LINE
8
BLACK
6
CONTINUOUS
10
1.14176
20
0.0588126
11
1.14214
21
0.0594035
0
LINE
8
BLACK
6
CONTINUOUS
10
1.14214
20
0.0594035
11
1.14423
21
0.0639872
0
LINE
8
BLACK
6
CONTINUOUS
10
1.14423
20
0.0639872
11
1.14443
21
0.0646609
0
LINE
8
BLACK
6
CONTINUOUS
10
1.14443
20
0.0646609
11
1.14517
21
0.069825
0
LINE
8
BLACK
6
CONTINUOUS
10
1.14517
20
0.069825
11
1.1452
21
0.070177
0
LINE
8
BLACK
6
CONTINUOUS
10
1.1452
20
0.070177
11
1.1452
21
0.0892868
0
LINE
8
BLACK
6
CONTINUOUS
10
1.1452
20
0.0892868
11
1.14502
21
0.0898868
0
LINE
8
BLACK
6
CONTINUOUS
10
1.14502
20
0.0898868
11
1.14497
21
0.0899342
0
LINE
8
BLACK
6
CONTINUOUS
10
1.14497
20
0.0899342
11
1.14466
21
0.09
0
LINE
8
BLACK
6
CONTINUOUS
10
1.14466
20
0.09
11
1.125
21
0.09
0
LINE
8
BLACK
6
CONTINUOUS
10
0.944989
20
0.167123
11
0.94661
21
0.161602
0
LINE
8
BLACK
6
CONTINUOUS
10
0.94661
20
0.161602
11
0.946802
21
0.161303
0
LINE
8
BLACK
6
CONTINUOUS
10
0.946802
20
0.161303
11
0.94953
21
0.157059
0
LINE
8
BLACK
6
CONTINUOUS
10
0.94953
20
0.157059
11
0.94953
21
0.157059
0
LINE
8
BLACK
6
CONTINUOUS
10
0.94953
20
0.157059
11
0.949721
21
0.156761
0
LINE
8
BLACK
6
CONTINUOUS
10
0.949721
20
0.156761
11
0.949989
21
0.156529
0
LINE
8
BLACK
6
CONTINUOUS
10
0.949989
20
0.156529
11
0.953206
21
0.153742
0
LINE
8
BLACK
6
CONTINUOUS
10
0.953206
20
0.153742
11
0.954717
21
0.15139
0
LINE
8
BLACK
6
CONTINUOUS
10
0.954717
20
0.15139
11
0.954717
21
0.148595
0
LINE
8
BLACK
6
CONTINUOUS
10
0.954717
20
0.148595
11
0.953206
21
0.146244
0
LINE
8
BLACK
6
CONTINUOUS
10
0.953206
20
0.146244
11
0.952639
21
0.14582
0
LINE
8
BLACK
6
CONTINUOUS
10
0.952639
20
0.14582
11
0.952072
21
0.145456
0
LINE
8
BLACK
6
CONTINUOUS
10
0.952072
20
0.145456
11
0.951541
21
0.144996
0
LINE
8
BLACK
6
CONTINUOUS
10
0.951541
20
0.144996
11
0.948242
21
0.141187
0
LINE
8
BLACK
6
CONTINUOUS
10
0.948242
20
0.141187
11
0.947862
21
0.140597
0
LINE
8
BLACK
6
CONTINUOUS
10
0.947862
20
0.140597
11
0.945769
21
0.136013
0
LINE
8
BLACK
6
CONTINUOUS
10
0.945769
20
0.136013
11
0.945571
21
0.135339
0
LINE
8
BLACK
6
CONTINUOUS
10
0.945571
20
0.135339
11
0.944828
21
0.130175
0
LINE
8
BLACK
6
CONTINUOUS
10
0.944828
20
0.130175
11
0.944803
21
0.129823
0
LINE
8
BLACK
6
CONTINUOUS
10
0.944803
20
0.129823
11
0.944803
21
0.110713
0
LINE
8
BLACK
6
CONTINUOUS
10
0.944803
20
0.110713
11
0.944979
21
0.110113
0
LINE
8
BLACK
6
CONTINUOUS
10
0.944979
20
0.110113
11
0.945034
21
0.110066
0
LINE
8
BLACK
6
CONTINUOUS
10
0.945034
20
0.110066
11
0.945337
21
0.11
0
LINE
8
BLACK
6
CONTINUOUS
10
0.945337
20
0.11
11
0.965
21
0.11
0
LINE
8
BLACK
6
CONTINUOUS
10
0.965
20
0.11
11
0.965
21
0.13
0
LINE
8
BLACK
6
CONTINUOUS
10
0.965
20
0.13
11
1.025
21
0.13
0
LINE
8
BLACK
6
CONTINUOUS
10
1.025
20
0.13
11
1.025
21
0.11
0
LINE
8
BLACK
6
CONTINUOUS
10
1.025
20
0.11
11
1.065
21
0.11
0
LINE
8
BLACK
6
CONTINUOUS
10
1.065
20
0.11
11
1.065
21
0.13
0
LINE
8
BLACK
6
CONTINUOUS
10
1.065
20
0.13
11
1.125
21
0.13
0
LINE
8
BLACK
6
CONTINUOUS
10
1.125
20
0.13
11
1.125
21
0.11
0
LINE
8
BLACK
6
CONTINUOUS
10
1.125
20
0.11
11
1.14448
21
0.11
0
LINE
8
BLACK
6
CONTINUOUS
10
1.14448
20
0.11
11
1.14508
21
0.110176
0
LINE
8
BLACK
6
CONTINUOUS
10
1.14508
20
0.110176
11
1.14513
21
0.110231
0
LINE
8
BLACK
6
CONTINUOUS
10
1.14513
20
0.110231
11
1.1452
21
0.110533
0
LINE
8
BLACK
6
CONTINUOUS
10
1.1452
20
0.110533
11
1.1452
21
0.129911
0
LINE
8
BLACK
6
CONTINUOUS
10
1.1452
20
0.129911
11
1.14519
21
0.130089
0
LINE
8
BLACK
6
CONTINUOUS
10
1.14519
20
0.130089
11
1.14501
21
0.132609
0
LINE
8
BLACK
6
CONTINUOUS
10
1.14501
20
0.132609
11
1.14492
21
0.13313
0
LINE
8
BLACK
6
CONTINUOUS
10
1.14492
20
0.13313
11
1.14347
21
0.13805
0
LINE
8
BLACK
6
CONTINUOUS
10
1.14347
20
0.13805
11
1.14318
21
0.138689
0
LINE
8
BLACK
6
CONTINUOUS
10
1.14318
20
0.138689
11
1.14046
21
0.142928
0
LINE
8
BLACK
6
CONTINUOUS
10
1.14046
20
0.142928
11
1.14
21
0.143459
0
LINE
8
BLACK
6
CONTINUOUS
10
1.14
20
0.143459
11
1.13679
21
0.146234
0
LINE
8
BLACK
6
CONTINUOUS
10
1.13679
20
0.146234
11
1.13528
21
0.148585
0
LINE
8
BLACK
6
CONTINUOUS
10
1.13528
20
0.148585
11
1.13528
21
0.15138
0
LINE
8
BLACK
6
CONTINUOUS
10
1.13528
20
0.15138
11
1.13679
21
0.153732
0
LINE
8
BLACK
6
CONTINUOUS
10
1.13679
20
0.153732
11
1.13736
21
0.154156
0
LINE
8
BLACK
6
CONTINUOUS
10
1.13736
20
0.154156
11
1.13794
21
0.15453
0
LINE
8
BLACK
6
CONTINUOUS
10
1.13794
20
0.15453
11
1.13794
21
0.15453
0
LINE
8
BLACK
6
CONTINUOUS
10
1.13794
20
0.15453
11
1.13824
21
0.154721
0
LINE
8
BLACK
6
CONTINUOUS
10
1.13824
20
0.154721
11
1.13981
21
0.156529
0
LINE
8
BLACK
6
CONTINUOUS
10
1.13981
20
0.156529
11
1.14177
21
0.158802
0
LINE
8
BLACK
6
CONTINUOUS
10
1.14177
20
0.158802
11
1.14177
21
0.158802
0
LINE
8
BLACK
6
CONTINUOUS
10
1.14177
20
0.158802
11
1.14201
21
0.15907
0
LINE
8
BLACK
6
CONTINUOUS
10
1.14201
20
0.15907
11
1.1444
21
0.164304
0
LINE
8
BLACK
6
CONTINUOUS
10
1.1444
20
0.164304
11
1.14484
21
0.167388
0
LINE
8
BLACK
6
CONTINUOUS
10
1.14484
20
0.167388
11
1.14519
21
0.169825
0
LINE
8
BLACK
6
CONTINUOUS
10
1.14519
20
0.169825
11
1.14519
21
0.169825
0
LINE
8
BLACK
6
CONTINUOUS
10
1.14519
20
0.169825
11
1.14522
21
0.17
0
LINE
8
BLACK
6
CONTINUOUS
10
1.14522
20
0.17
11
1.14522
21
0.23
0
LINE
8
BLACK
6
CONTINUOUS
10
1.14522
20
0.23
11
1.14501
21
0.232877
0
LINE
8
BLACK
6
CONTINUOUS
10
1.14501
20
0.232877
11
1.14339
21
0.238398
0
LINE
8
BLACK
6
CONTINUOUS
10
1.14339
20
0.238398
11
1.14159
21
0.241198
0
LINE
8
BLACK
6
CONTINUOUS
10
1.14159
20
0.241198
11
1.14047
21
0.242941
0
LINE
8
BLACK
6
CONTINUOUS
10
1.14047
20
0.242941
11
1.14047
21
0.242941
0
LINE
8
BLACK
6
CONTINUOUS
10
1.14047
20
0.242941
11
1.14028
21
0.243239
0
LINE
8
BLACK
6
CONTINUOUS
10
1.14028
20
0.243239
11
1.14001
21
0.243471
0
LINE
8
BLACK
6
CONTINUOUS
10
1.14001
20
0.243471
11
1.13679
21
0.246258
0
LINE
8
BLACK
6
CONTINUOUS
10
1.13679
20
0.246258
11
1.13528
21
0.24861
0
LINE
8
BLACK
6
CONTINUOUS
10
1.13528
20
0.24861
11
1.13528
21
0.251405
0
LINE
8
BLACK
6
CONTINUOUS
10
1.13528
20
0.251405
11
1.13679
21
0.253756
0
LINE
8
BLACK
6
CONTINUOUS
10
1.13679
20
0.253756
11
1.13736
21
0.25418
0
LINE
8
BLACK
6
CONTINUOUS
10
1.13736
20
0.25418
11
1.13793
21
0.254544
0
LINE
8
BLACK
6
CONTINUOUS
10
1.13793
20
0.254544
11
1.13846
21
0.255004
0
LINE
8
BLACK
6
CONTINUOUS
10
1.13846
20
0.255004
11
1.14176
21
0.258813
0
LINE
8
BLACK
6
CONTINUOUS
10
1.14176
20
0.258813
11
1.14214
21
0.259403
0
LINE
8
BLACK
6
CONTINUOUS
10
1.14214
20
0.259403
11
1.14423
21
0.263987
0
LINE
8
BLACK
6
CONTINUOUS
10
1.14423
20
0.263987
11
1.14443
21
0.264661
0
LINE
8
BLACK
6
CONTINUOUS
10
1.14443
20
0.264661
11
1.14517
21
0.269825
0
LINE
8
BLACK
6
CONTINUOUS
10
1.14517
20
0.269825
11
1.1452
21
0.270177
0
LINE
8
BLACK
6
CONTINUOUS
10
1.1452
20
0.270177
11
1.1452
21
0.289287
0
LINE
8
BLACK
6
CONTINUOUS
10
1.1452
20
0.289287
11
1.14502
21
0.289887
0
LINE
8
BLACK
6
CONTINUOUS
10
1.14502
20
0.289887
11
1.14497
21
0.289934
0
LINE
8
BLACK
6
CONTINUOUS
10
1.14497
20
0.289934
11
1.14466
21
0.29
0
LINE
8
BLACK
6
CONTINUOUS
10
1.14466
20
0.29
11
1.125
21
0.29
0
LINE
8
BLACK
6
CONTINUOUS
10
1.125
20
0.29
11
1.125
21
0.27
0
LINE
8
BLACK
6
CONTINUOUS
10
1.125
20
0.27
11
1.065
21
0.27
0
LINE
8
BLACK
6
CONTINUOUS
10
1.065
20
0.27
11
1.065
21
0.29
0
LINE
8
BLACK
6
CONTINUOUS
10
1.065
20
0.29
11
1.025
21
0.29
0
LINE
8
BLACK
6
CONTINUOUS
10
1.025
20
0.29
11
1.025
21
0.27
0
LINE
8
BLACK
6
CONTINUOUS
10
1.025
20
0.27
11
0.965
21
0.27
0
LINE
8
BLACK
6
CONTINUOUS
10
0.965
20
0.27
11
0.965
21
0.29
0
LINE
8
BLACK
6
CONTINUOUS
10
0.965
20
0.29
11
0.945516
21
0.29
0
LINE
8
BLACK
6
CONTINUOUS
10
0.945516
20
0.29
11
0.944916
21
0.289824
0
LINE
8
BLACK
6
CONTINUOUS
10
0.944916
20
0.289824
11
0.944869
21
0.289769
0
LINE
8
BLACK
6
CONTINUOUS
10
0.944869
20
0.289769
11
0.944803
21
0.289467
0
LINE
8
BLACK
6
CONTINUOUS
10
0.944803
20
0.289467
11
0.944803
21
0.270089
0
LINE
8
BLACK
6
CONTINUOUS
10
0.944803
20
0.270089
11
0.944809
21
0.269911
0
LINE
8
BLACK
6
CONTINUOUS
10
0.944809
20
0.269911
11
0.94499
21
0.267391
0
LINE
8
BLACK
6
CONTINUOUS
10
0.94499
20
0.267391
11
0.945084
21
0.26687
0
LINE
8
BLACK
6
CONTINUOUS
10
0.945084
20
0.26687
11
0.946528
21
0.26195
0
LINE
8
BLACK
6
CONTINUOUS
10
0.946528
20
0.26195
11
0.94682
21
0.261311
0
LINE
8
BLACK
6
CONTINUOUS
10
0.94682
20
0.261311
11
0.949544
21
0.257072
0
LINE
8
BLACK
6
CONTINUOUS
10
0.949544
20
0.257072
11
0.950004
21
0.256541
0
LINE
8
BLACK
6
CONTINUOUS
10
0.950004
20
0.256541
11
0.953207
21
0.253766
0
LINE
8
BLACK
6
CONTINUOUS
10
0.953207
20
0.253766
11
0.954719
21
0.251415
0
LINE
8
BLACK
6
CONTINUOUS
10
0.954719
20
0.251415
11
0.954719
21
0.24862
0
LINE
8
BLACK
6
CONTINUOUS
10
0.954719
20
0.24862
11
0.953207
21
0.246268
0
LINE
8
BLACK
6
CONTINUOUS
10
0.953207
20
0.246268
11
0.952641
21
0.245844
0
LINE
8
BLACK
6
CONTINUOUS
10
0.952641
20
0.245844
11
0.952059
21
0.24547
0
LINE
8
BLACK
6
CONTINUOUS
10
0.952059
20
0.24547
11
0.952059
21
0.24547
0
LINE
8
BLACK
6
CONTINUOUS
10
0.952059
20
0.24547
11
0.951761
21
0.245279
0
LINE
8
BLACK
6
CONTINUOUS
10
0.951761
20
0.245279
11
0.951529
21
0.245011
0
LINE
8
BLACK
6
CONTINUOUS
10
0.951529
20
0.245011
11
0.948225
21
0.241198
0
LINE
8
BLACK
6
CONTINUOUS
10
0.948225
20
0.241198
11
0.948225
21
0.241198
0
LINE
8
BLACK
6
CONTINUOUS
10
0.948225
20
0.241198
11
0.947993
21
0.24093
0
LINE
8
BLACK
6
CONTINUOUS
10
0.947993
20
0.24093
11
0.945602
21
0.235696
0
LINE
8
BLACK
6
CONTINUOUS
10
0.945602
20
0.235696
11
0.945552
21
0.235345
0
LINE
8
BLACK
6
CONTINUOUS
10
0.945552
20
0.235345
11
0.945552
21
0.235345
0
LINE
8
BLACK
6
CONTINUOUS
10
0.945552
20
0.235345
11
0.944809
21
0.230175
0
LINE
8
BLACK
6
CONTINUOUS
10
0.944809
20
0.230175
11
0.944809
21
0.230175
0
LINE
8
BLACK
6
CONTINUOUS
10
0.944809
20
0.230175
11
0.944783
21
0.23
0
LINE
8
BLACK
6
CONTINUOUS
10
0.944783
20
0.23
11
0.944783
21
0.17
0
LINE
8
BLACK
6
CONTINUOUS
10
0.944783
20
0.17
11
0.944989
21
0.167123
0
LINE
8
BLACK
6
CONTINUOUS
10
1.125
20
0.61
11
1.125
21
0.59
0
LINE
8
BLACK
6
CONTINUOUS
10
1.125
20
0.59
11
1.105
21
0.59
0
LINE
8
BLACK
6
CONTINUOUS
10
1.105
20
0.59
11
1.105
21
0.570516
0
LINE
8
BLACK
6
CONTINUOUS
10
1.105
20
0.570516
11
1.10518
21
0.569916
0
LINE
8
BLACK
6
CONTINUOUS
10
1.10518
20
0.569916
11
1.10523
21
0.569869
0
LINE
8
BLACK
6
CONTINUOUS
10
1.10523
20
0.569869
11
1.10553
21
0.569803
0
LINE
8
BLACK
6
CONTINUOUS
10
1.10553
20
0.569803
11
1.12491
21
0.569803
0
LINE
8
BLACK
6
CONTINUOUS
10
1.12491
20
0.569803
11
1.12509
21
0.569809
0
LINE
8
BLACK
6
CONTINUOUS
10
1.12509
20
0.569809
11
1.12761
21
0.56999
0
LINE
8
BLACK
6
CONTINUOUS
10
1.12761
20
0.56999
11
1.12813
21
0.570084
0
LINE
8
BLACK
6
CONTINUOUS
10
1.12813
20
0.570084
11
1.13305
21
0.571528
0
LINE
8
BLACK
6
CONTINUOUS
10
1.13305
20
0.571528
11
1.13369
21
0.57182
0
LINE
8
BLACK
6
CONTINUOUS
10
1.13369
20
0.57182
11
1.13793
21
0.574544
0
LINE
8
BLACK
6
CONTINUOUS
10
1.13793
20
0.574544
11
1.13846
21
0.575004
0
LINE
8
BLACK
6
CONTINUOUS
10
1.13846
20
0.575004
11
1.14176
21
0.578813
0
LINE
8
BLACK
6
CONTINUOUS
10
1.14176
20
0.578813
11
1.14214
21
0.579403
0
LINE
8
BLACK
6
CONTINUOUS
10
1.14214
20
0.579403
11
1.14423
21
0.583987
0
LINE
8
BLACK
6
CONTINUOUS
10
1.14423
20
0.583987
11
1.14443
21
0.584661
0
LINE
8
BLACK
6
CONTINUOUS
10
1.14443
20
0.584661
11
1.14517
21
0.589825
0
LINE
8
BLACK
6
CONTINUOUS
10
1.14517
20
0.589825
11
1.1452
21
0.590177
0
LINE
8
BLACK
6
CONTINUOUS
10
1.1452
20
0.590177
11
1.1452
21
0.609287
0
LINE
8
BLACK
6
CONTINUOUS
10
1.1452
20
0.609287
11
1.14502
21
0.609887
0
LINE
8
BLACK
6
CONTINUOUS
10
1.14502
20
0.609887
11
1.14497
21
0.609934
0
LINE
8
BLACK
6
CONTINUOUS
10
1.14497
20
0.609934
11
1.14466
21
0.61
0
LINE
8
BLACK
6
CONTINUOUS
10
1.14466
20
0.61
11
1.125
21
0.61
0
LINE
8
BLACK
6
CONTINUOUS
10
1.025
20
0.61
11
1.025
21
0.59
0
LINE
8
BLACK
6
CONTINUOUS
10
1.025
20
0.59
11
1.005
21
0.59
0
LINE
8
BLACK
6
CONTINUOUS
10
1.005
20
0.59
11
1.005
21
0.570516
0
LINE
8
BLACK
6
CONTINUOUS
10
1.005
20
0.570516
11
1.00518
21
0.569916
0
LINE
8
BLACK
6
CONTINUOUS
10
1.00518
20
0.569916
11
1.00523
21
0.569869
0
LINE
8
BLACK
6
CONTINUOUS
10
1.00523
20
0.569869
11
1.00553
21
0.569803
0
LINE
8
BLACK
6
CONTINUOUS
10
1.00553
20
0.569803
11
1.02491
21
0.569803
0
LINE
8
BLACK
6
CONTINUOUS
10
1.02491
20
0.569803
11
1.02509
21
0.569809
0
LINE
8
BLACK
6
CONTINUOUS
10
1.02509
20
0.569809
11
1.02761
21
0.56999
0
LINE
8
BLACK
6
CONTINUOUS
10
1.02761
20
0.56999
11
1.02813
21
0.570084
0
LINE
8
BLACK
6
CONTINUOUS
10
1.02813
20
0.570084
11
1.03305
21
0.571528
0
LINE
8
BLACK
6
CONTINUOUS
10
1.03305
20
0.571528
11
1.03369
21
0.57182
0
LINE
8
BLACK
6
CONTINUOUS
10
1.03369
20
0.57182
11
1.03793
21
0.574544
0
LINE
8
BLACK
6
CONTINUOUS
10
1.03793
20
0.574544
11
1.03846
21
0.575004
0
LINE
8
BLACK
6
CONTINUOUS
10
1.03846
20
0.575004
11
1.04125
21
0.578223
0
LINE
8
BLACK
6
CONTINUOUS
10
1.04125
20
0.578223
11
1.0436
21
0.579734
0
LINE
8
BLACK
6
CONTINUOUS
10
1.0436
20
0.579734
11
1.04639
21
0.579734
0
LINE
8
BLACK
6
CONTINUOUS
10
1.04639
20
0.579734
11
1.04875
21
0.578223
0
LINE
8
BLACK
6
CONTINUOUS
10
1.04875
20
0.578223
11
1.04917
21
0.577656
0
LINE
8
BLACK
6
CONTINUOUS
10
1.04917
20
0.577656
11
1.04954
21
0.577072
0
LINE
8
BLACK
6
CONTINUOUS
10
1.04954
20
0.577072
11
1.05
21
0.576541
0
LINE
8
BLACK
6
CONTINUOUS
10
1.05
20
0.576541
11
1.05381
21
0.573242
0
LINE
8
BLACK
6
CONTINUOUS
10
1.05381
20
0.573242
11
1.0544
21
0.572862
0
LINE
8
BLACK
6
CONTINUOUS
10
1.0544
20
0.572862
11
1.05899
21
0.570769
0
LINE
8
BLACK
6
CONTINUOUS
10
1.05899
20
0.570769
11
1.05966
21
0.570571
0
LINE
8
BLACK
6
CONTINUOUS
10
1.05966
20
0.570571
11
1.06482
21
0.569828
0
LINE
8
BLACK
6
CONTINUOUS
10
1.06482
20
0.569828
11
1.06518
21
0.569803
0
LINE
8
BLACK
6
CONTINUOUS
10
1.06518
20
0.569803
11
1.08429
21
0.569803
0
LINE
8
BLACK
6
CONTINUOUS
10
1.08429
20
0.569803
11
1.08489
21
0.569979
0
LINE
8
BLACK
6
CONTINUOUS
10
1.08489
20
0.569979
11
1.08493
21
0.570034
0
LINE
8
BLACK
6
CONTINUOUS
10
1.08493
20
0.570034
11
1.085
21
0.570337
0
LINE
8
BLACK
6
CONTINUOUS
10
1.085
20
0.570337
11
1.085
21
0.59
0
LINE
8
BLACK
6
CONTINUOUS
10
1.085
20
0.59
11
1.065
21
0.59
0
LINE
8
BLACK
6
CONTINUOUS
10
1.065
20
0.59
11
1.065
21
0.61
0
LINE
8
BLACK
6
CONTINUOUS
10
1.065
20
0.61
11
1.025
21
0.61
0
LINE
8
BLACK
6
CONTINUOUS
10
1.125
20
1.29
11
1.125
21
1.27
0
LINE
8
BLACK
6
CONTINUOUS
10
1.125
20
1.27
11
1.105
21
1.27
0
LINE
8
BLACK
6
CONTINUOUS
10
1.105
20
1.27
11
1.105
21
1.25052
0
LINE
8
BLACK
6
CONTINUOUS
10
1.105
20
1.25052
11
1.10518
21
1.24992
0
LINE
8
BLACK
6
CONTINUOUS
10
1.10518
20
1.24992
11
1.10523
21
1.24987
0
LINE
8
BLACK
6
CONTINUOUS
10
1.10523
20
1.24987
11
1.10553
21
1.2498
0
LINE
8
BLACK
6
CONTINUOUS
10
1.10553
20
1.2498
11
1.12491
21
1.2498
0
LINE
8
BLACK
6
CONTINUOUS
10
1.12491
20
1.2498
11
1.12509
21
1.24981
0
LINE
8
BLACK
6
CONTINUOUS
10
1.12509
20
1.24981
11
1.12761
21
1.24999
0
LINE
8
BLACK
6
CONTINUOUS
10
1.12761
20
1.24999
11
1.12813
21
1.25008
0
LINE
8
BLACK
6
CONTINUOUS
10
1.12813
20
1.25008
11
1.13305
21
1.25153
0
LINE
8
BLACK
6
CONTINUOUS
10
1.13305
20
1.25153
11
1.13369
21
1.25182
0
LINE
8
BLACK
6
CONTINUOUS
10
1.13369
20
1.25182
11
1.13793
21
1.25454
0
LINE
8
BLACK
6
CONTINUOUS
10
1.13793
20
1.25454
11
1.13846
21
1.255
0
LINE
8
BLACK
6
CONTINUOUS
10
1.13846
20
1.255
11
1.14176
21
1.25881
0
LINE
8
BLACK
6
CONTINUOUS
10
1.14176
20
1.25881
11
1.14214
21
1.2594
0
LINE
8
BLACK
6
CONTINUOUS
10
1.14214
20
1.2594
11
1.14423
21
1.26399
0
LINE
8
BLACK
6
CONTINUOUS
10
1.14423
20
1.26399
11
1.14443
21
1.26466
0
LINE
8
BLACK
6
CONTINUOUS
10
1.14443
20
1.26466
11
1.14517
21
1.26982
0
LINE
8
BLACK
6
CONTINUOUS
10
1.14517
20
1.26982
11
1.1452
21
1.27018
0
LINE
8
BLACK
6
CONTINUOUS
10
1.1452
20
1.27018
11
1.1452
21
1.28929
0
LINE
8
BLACK
6
CONTINUOUS
10
1.1452
20
1.28929
11
1.14502
21
1.28989
0
LINE
8
BLACK
6
CONTINUOUS
10
1.14502
20
1.28989
11
1.14497
21
1.28993
0
LINE
8
BLACK
6
CONTINUOUS
10
1.14497
20
1.28993
11
1.14466
21
1.29
0
LINE
8
BLACK
6
CONTINUOUS
10
1.14466
20
1.29
11
1.125
21
1.29
0
LINE
8
BLACK
6
CONTINUOUS
10
1.025
20
1.29
11
1.025
21
1.27
0
LINE
8
BLACK
6
CONTINUOUS
10
1.025
20
1.27
11
1.005
21
1.27
0
LINE
8
BLACK
6
CONTINUOUS
10
1.005
20
1.27
11
1.005
21
1.25052
0
LINE
8
BLACK
6
CONTINUOUS
10
1.005
20
1.25052
11
1.00518
21
1.24992
0
LINE
8
BLACK
6
CONTINUOUS
10
1.00518
20
1.24992
11
1.00523
21
1.24987
0
LINE
8
BLACK
6
CONTINUOUS
10
1.00523
20
1.24987
11
1.00553
21
1.2498
0
LINE
8
BLACK
6
CONTINUOUS
10
1.00553
20
1.2498
11
1.02491
21
1.2498
0
LINE
8
BLACK
6
CONTINUOUS
10
1.02491
20
1.2498
11
1.02509
21
1.24981
0
LINE
8
BLACK
6
CONTINUOUS
10
1.02509
20
1.24981
11
1.02761
21
1.24999
0
LINE
8
BLACK
6
CONTINUOUS
10
1.02761
20
1.24999
11
1.02813
21
1.25008
0
LINE
8
BLACK
6
CONTINUOUS
10
1.02813
20
1.25008
11
1.03305
21
1.25153
0
LINE
8
BLACK
6
CONTINUOUS
10
1.03305
20
1.25153
11
1.03369
21
1.25182
0
LINE
8
BLACK
6
CONTINUOUS
10
1.03369
20
1.25182
11
1.03793
21
1.25454
0
LINE
8
BLACK
6
CONTINUOUS
10
1.03793
20
1.25454
11
1.03846
21
1.255
0
LINE
8
BLACK
6
CONTINUOUS
10
1.03846
20
1.255
11
1.04125
21
1.25822
0
LINE
8
BLACK
6
CONTINUOUS
10
1.04125
20
1.25822
11
1.0436
21
1.25973
0
LINE
8
BLACK
6
CONTINUOUS
10
1.0436
20
1.25973
11
1.04639
21
1.25973
0
LINE
8
BLACK
6
CONTINUOUS
10
1.04639
20
1.25973
11
1.04875
21
1.25822
0
LINE
8
BLACK
6
CONTINUOUS
10
1.04875
20
1.25822
11
1.04917
21
1.25766
0
LINE
8
BLACK
6
CONTINUOUS
10
1.04917
20
1.25766
11
1.04954
21
1.25707
0
LINE
8
BLACK
6
CONTINUOUS
10
1.04954
20
1.25707
11
1.05
21
1.25654
0
LINE
8
BLACK
6
CONTINUOUS
10
1.05
20
1.25654
11
1.05381
21
1.25324
0
LINE
8
BLACK
6
CONTINUOUS
10
1.05381
20
1.25324
11
1.0544
21
1.25286
0
LINE
8
BLACK
6
CONTINUOUS
10
1.0544
20
1.25286
11
1.05899
21
1.25077
0
LINE
8
BLACK
6
CONTINUOUS
10
1.05899
20
1.25077
11
1.05966
21
1.25057
0
LINE
8
BLACK
6
CONTINUOUS
10
1.05966
20
1.25057
11
1.06482
21
1.24983
0
LINE
8
BLACK
6
CONTINUOUS
10
1.06482
20
1.24983
11
1.06518
21
1.2498
0
LINE
8
BLACK
6
CONTINUOUS
10
1.06518
20
1.2498
11
1.08429
21
1.2498
0
LINE
8
BLACK
6
CONTINUOUS
10
1.08429
20
1.2498
11
1.08489
21
1.24998
0
LINE
8
BLACK
6
CONTINUOUS
10
1.08489
20
1.24998
11
1.08493
21
1.25003
0
LINE
8
BLACK
6
CONTINUOUS
10
1.08493
20
1.25003
11
1.085
21
1.25034
0
LINE
8
BLACK
6
CONTINUOUS
10
1.085
20
1.25034
11
1.085
21
1.27
0
LINE
8
BLACK
6
CONTINUOUS
10
1.085
20
1.27
11
1.065
21
1.27
0
LINE
8
BLACK
6
CONTINUOUS
10
1.065
20
1.27
11
1.065
21
1.29
0
LINE
8
BLACK
6
CONTINUOUS
10
1.065
20
1.29
11
1.025
21
1.29
0
LINE
8
BLACK
6
CONTINUOUS
10
0.944809
20
1.26991
11
0.94499
21
1.26739
0
LINE
8
BLACK
6
CONTINUOUS
10
0.94499
20
1.26739
11
0.945084
21
1.26687
0
LINE
8
BLACK
6
CONTINUOUS
10
0.945084
20
1.26687
11
0.946528
21
1.26195
0
LINE
8
BLACK
6
CONTINUOUS
10
0.946528
20
1.26195
11
0.94682
21
1.26131
0
LINE
8
BLACK
6
CONTINUOUS
10
0.94682
20
1.26131
11
0.949544
21
1.25707
0
LINE
8
BLACK
6
CONTINUOUS
10
0.949544
20
1.25707
11
0.950004
21
1.25654
0
LINE
8
BLACK
6
CONTINUOUS
10
0.950004
20
1.25654
11
0.953813
21
1.25324
0
LINE
8
BLACK
6
CONTINUOUS
10
0.953813
20
1.25324
11
0.954403
21
1.25286
0
LINE
8
BLACK
6
CONTINUOUS
10
0.954403
20
1.25286
11
0.958987
21
1.25077
0
LINE
8
BLACK
6
CONTINUOUS
10
0.958987
20
1.25077
11
0.959661
21
1.25057
0
LINE
8
BLACK
6
CONTINUOUS
10
0.959661
20
1.25057
11
0.964825
21
1.24983
0
LINE
8
BLACK
6
CONTINUOUS
10
0.964825
20
1.24983
11
0.965177
21
1.2498
0
LINE
8
BLACK
6
CONTINUOUS
10
0.965177
20
1.2498
11
0.984287
21
1.2498
0
LINE
8
BLACK
6
CONTINUOUS
10
0.984287
20
1.2498
11
0.984887
21
1.24998
0
LINE
8
BLACK
6
CONTINUOUS
10
0.984887
20
1.24998
11
0.984934
21
1.25003
0
LINE
8
BLACK
6
CONTINUOUS
10
0.984934
20
1.25003
11
0.985
21
1.25034
0
LINE
8
BLACK
6
CONTINUOUS
10
0.985
20
1.25034
11
0.985
21
1.27
0
LINE
8
BLACK
6
CONTINUOUS
10
0.985
20
1.27
11
0.965
21
1.27
0
LINE
8
BLACK
6
CONTINUOUS
10
0.965
20
1.27
11
0.965
21
1.29
0
LINE
8
BLACK
6
CONTINUOUS
10
0.965
20
1.29
11
0.945516
21
1.29
0
LINE
8
BLACK
6
CONTINUOUS
10
0.945516
20
1.29
11
0.944916
21
1.28982
0
LINE
8
BLACK
6
CONTINUOUS
10
0.944916
20
1.28982
11
0.944869
21
1.28977
0
LINE
8
BLACK
6
CONTINUOUS
10
0.944869
20
1.28977
11
0.944803
21
1.28947
0
LINE
8
BLACK
6
CONTINUOUS
10
0.944803
20
1.28947
11
0.944803
21
1.27009
0
LINE
8
BLACK
6
CONTINUOUS
10
0.944803
20
1.27009
11
0.944809
21
1.26991
0
LINE
8
BLACK
6
CONTINUOUS
10
0.944989
20
1.36712
11
0.94661
21
1.3616
0
LINE
8
BLACK
6
CONTINUOUS
10
0.94661
20
1.3616
11
0.946802
21
1.3613
0
LINE
8
BLACK
6
CONTINUOUS
10
0.946802
20
1.3613
11
0.94953
21
1.35706
0
LINE
8
BLACK
6
CONTINUOUS
10
0.94953
20
1.35706
11
0.94953
21
1.35706
0
LINE
8
BLACK
6
CONTINUOUS
10
0.94953
20
1.35706
11
0.949721
21
1.35676
0
LINE
8
BLACK
6
CONTINUOUS
10
0.949721
20
1.35676
11
0.949989
21
1.35653
0
LINE
8
BLACK
6
CONTINUOUS
10
0.949989
20
1.35653
11
0.953206
21
1.35374
0
LINE
8
BLACK
6
CONTINUOUS
10
0.953206
20
1.35374
11
0.954717
21
1.35139
0
LINE
8
BLACK
6
CONTINUOUS
10
0.954717
20
1.35139
11
0.954717
21
1.3486
0
LINE
8
BLACK
6
CONTINUOUS
10
0.954717
20
1.3486
11
0.953206
21
1.34624
0
LINE
8
BLACK
6
CONTINUOUS
10
0.953206
20
1.34624
11
0.952639
21
1.34582
0
LINE
8
BLACK
6
CONTINUOUS
10
0.952639
20
1.34582
11
0.952072
21
1.34546
0
LINE
8
BLACK
6
CONTINUOUS
10
0.952072
20
1.34546
11
0.951541
21
1.345
0
LINE
8
BLACK
6
CONTINUOUS
10
0.951541
20
1.345
11
0.948242
21
1.34119
0
LINE
8
BLACK
6
CONTINUOUS
10
0.948242
20
1.34119
11
0.947862
21
1.3406
0
LINE
8
BLACK
6
CONTINUOUS
10
0.947862
20
1.3406
11
0.945769
21
1.33601
0
LINE
8
BLACK
6
CONTINUOUS
10
0.945769
20
1.33601
11
0.945571
21
1.33534
0
LINE
8
BLACK
6
CONTINUOUS
10
0.945571
20
1.33534
11
0.944828
21
1.33018
0
LINE
8
BLACK
6
CONTINUOUS
10
0.944828
20
1.33018
11
0.944803
21
1.32982
0
LINE
8
BLACK
6
CONTINUOUS
10
0.944803
20
1.32982
11
0.944803
21
1.31071
0
LINE
8
BLACK
6
CONTINUOUS
10
0.944803
20
1.31071
11
0.944979
21
1.31011
0
LINE
8
BLACK
6
CONTINUOUS
10
0.944979
20
1.31011
11
0.945034
21
1.31007
0
LINE
8
BLACK
6
CONTINUOUS
10
0.945034
20
1.31007
11
0.945337
21
1.31
0
LINE
8
BLACK
6
CONTINUOUS
10
0.945337
20
1.31
11
0.965
21
1.31
0
LINE
8
BLACK
6
CONTINUOUS
10
0.965
20
1.31
11
0.965
21
1.33
0
LINE
8
BLACK
6
CONTINUOUS
10
0.965
20
1.33
11
1.025
21
1.33
0
LINE
8
BLACK
6
CONTINUOUS
10
1.025
20
1.33
11
1.025
21
1.31
0
LINE
8
BLACK
6
CONTINUOUS
10
1.025
20
1.31
11
1.065
21
1.31
0
LINE
8
BLACK
6
CONTINUOUS
10
1.065
20
1.31
11
1.065
21
1.33
0
LINE
8
BLACK
6
CONTINUOUS
10
1.065
20
1.33
11
1.125
21
1.33
0
LINE
8
BLACK
6
CONTINUOUS
10
1.125
20
1.33
11
1.125
21
1.31
0
LINE
8
BLACK
6
CONTINUOUS
10
1.125
20
1.31
11
1.14448
21
1.31
0
LINE
8
BLACK
6
CONTINUOUS
10
1.14448
20
1.31
11
1.14508
21
1.31018
0
LINE
8
BLACK
6
CONTINUOUS
10
1.14508
20
1.31018
11
1.14513
21
1.31023
0
LINE
8
BLACK
6
CONTINUOUS
10
1.14513
20
1.31023
11
1.1452
21
1.31053
0
LINE
8
BLACK
6
CONTINUOUS
10
1.1452
20
1.31053
11
1.1452
21
1.32991
0
LINE
8
BLACK
6
CONTINUOUS
10
1.1452
20
1.32991
11
1.14519
21
1.33009
0
LINE
8
BLACK
6
CONTINUOUS
10
1.14519
20
1.33009
11
1.14501
21
1.33261
0
LINE
8
BLACK
6
CONTINUOUS
10
1.14501
20
1.33261
11
1.14492
21
1.33313
0
LINE
8
BLACK
6
CONTINUOUS
10
1.14492
20
1.33313
11
1.14347
21
1.33805
0
LINE
8
BLACK
6
CONTINUOUS
10
1.14347
20
1.33805
11
1.14318
21
1.33869
0
LINE
8
BLACK
6
CONTINUOUS
10
1.14318
20
1.33869
11
1.14046
21
1.34293
0
LINE
8
BLACK
6
CONTINUOUS
10
1.14046
20
1.34293
11
1.14
21
1.34346
0
LINE
8
BLACK
6
CONTINUOUS
10
1.14
20
1.34346
11
1.13679
21
1.34623
0
LINE
8
BLACK
6
CONTINUOUS
10
1.13679
20
1.34623
11
1.13528
21
1.34859
0
LINE
8
BLACK
6
CONTINUOUS
10
1.13528
20
1.34859
11
1.13528
21
1.35138
0
LINE
8
BLACK
6
CONTINUOUS
10
1.13528
20
1.35138
11
1.13679
21
1.35373
0
LINE
8
BLACK
6
CONTINUOUS
10
1.13679
20
1.35373
11
1.13736
21
1.35416
0
LINE
8
BLACK
6
CONTINUOUS
10
1.13736
20
1.35416
11
1.13794
21
1.35453
0
LINE
8
BLACK
6
CONTINUOUS
10
1.13794
20
1.35453
11
1.13794
21
1.35453
0
LINE
8
BLACK
6
CONTINUOUS
10
1.13794
20
1.35453
11
1.13824
21
1.35472
0
LINE
8
BLACK
6
CONTINUOUS
10
1.13824
20
1.35472
11
1.13981
21
1.35653
0
LINE
8
BLACK
6
CONTINUOUS
10
1.13981
20
1.35653
11
1.14177
21
1.3588
0
LINE
8
BLACK
6
CONTINUOUS
10
1.14177
20
1.3588
11
1.14177
21
1.3588
0
LINE
8
BLACK
6
CONTINUOUS
10
1.14177
20
1.3588
11
1.14201
21
1.35907
0
LINE
8
BLACK
6
CONTINUOUS
10
1.14201
20
1.35907
11
1.1444
21
1.3643
0
LINE
8
BLACK
6
CONTINUOUS
10
1.1444
20
1.3643
11
1.14484
21
1.36739
0
LINE
8
BLACK
6
CONTINUOUS
10
1.14484
20
1.36739
11
1.14519
21
1.36982
0
LINE
8
BLACK
6
CONTINUOUS
10
1.14519
20
1.36982
11
1.14519
21
1.36983
0
LINE
8
BLACK
6
CONTINUOUS
10
1.14519
20
1.36983
11
1.14522
21
1.37
0
LINE
8
BLACK
6
CONTINUOUS
10
1.14522
20
1.37
11
1.14522
21
1.43
0
LINE
8
BLACK
6
CONTINUOUS
10
1.14522
20
1.43
11
1.14501
21
1.43288
0
LINE
8
BLACK
6
CONTINUOUS
10
1.14501
20
1.43288
11
1.14339
21
1.4384
0
LINE
8
BLACK
6
CONTINUOUS
10
1.14339
20
1.4384
11
1.14159
21
1.4412
0
LINE
8
BLACK
6
CONTINUOUS
10
1.14159
20
1.4412
11
1.14047
21
1.44294
0
LINE
8
BLACK
6
CONTINUOUS
10
1.14047
20
1.44294
11
1.14047
21
1.44294
0
LINE
8
BLACK
6
CONTINUOUS
10
1.14047
20
1.44294
11
1.14028
21
1.44324
0
LINE
8
BLACK
6
CONTINUOUS
10
1.14028
20
1.44324
11
1.14001
21
1.44347
0
LINE
8
BLACK
6
CONTINUOUS
10
1.14001
20
1.44347
11
1.13679
21
1.44626
0
LINE
8
BLACK
6
CONTINUOUS
10
1.13679
20
1.44626
11
1.13528
21
1.44861
0
LINE
8
BLACK
6
CONTINUOUS
10
1.13528
20
1.44861
11
1.13528
21
1.4514
0
LINE
8
BLACK
6
CONTINUOUS
10
1.13528
20
1.4514
11
1.13679
21
1.45376
0
LINE
8
BLACK
6
CONTINUOUS
10
1.13679
20
1.45376
11
1.13736
21
1.45418
0
LINE
8
BLACK
6
CONTINUOUS
10
1.13736
20
1.45418
11
1.13793
21
1.45454
0
LINE
8
BLACK
6
CONTINUOUS
10
1.13793
20
1.45454
11
1.13846
21
1.455
0
LINE
8
BLACK
6
CONTINUOUS
10
1.13846
20
1.455
11
1.14176
21
1.45881
0
LINE
8
BLACK
6
CONTINUOUS
10
1.14176
20
1.45881
11
1.14214
21
1.4594
0
LINE
8
BLACK
6
CONTINUOUS
10
1.14214
20
1.4594
11
1.14423
21
1.46399
0
LINE
8
BLACK
6
CONTINUOUS
10
1.14423
20
1.46399
11
1.14443
21
1.46466
0
LINE
8
BLACK
6
CONTINUOUS
10
1.14443
20
1.46466
11
1.14517
21
1.46982
0
LINE
8
BLACK
6
CONTINUOUS
10
1.14517
20
1.46982
11
1.1452
21
1.47018
0
LINE
8
BLACK
6
CONTINUOUS
10
1.1452
20
1.47018
11
1.1452
21
1.48929
0
LINE
8
BLACK
6
CONTINUOUS
10
1.1452
20
1.48929
11
1.14502
21
1.48989
0
LINE
8
BLACK
6
CONTINUOUS
10
1.14502
20
1.48989
11
1.14497
21
1.48993
0
LINE
8
BLACK
6
CONTINUOUS
10
1.14497
20
1.48993
11
1.14466
21
1.49
0
LINE
8
BLACK
6
CONTINUOUS
10
1.14466
20
1.49
11
1.125
21
1.49
0
LINE
8
BLACK
6
CONTINUOUS
10
1.125
20
1.49
11
1.125
21
1.47
0
LINE
8
BLACK
6
CONTINUOUS
10
1.125
20
1.47
11
1.065
21
1.47
0
LINE
8
BLACK
6
CONTINUOUS
10
1.065
20
1.47
11
1.065
21
1.49
0
LINE
8
BLACK
6
CONTINUOUS
10
1.065
20
1.49
11
1.025
21
1.49
0
LINE
8
BLACK
6
CONTINUOUS
10
1.025
20
1.49
11
1.025
21
1.47
0
LINE
8
BLACK
6
CONTINUOUS
10
1.025
20
1.47
11
0.965
21
1.47
0
LINE
8
BLACK
6
CONTINUOUS
10
0.965
20
1.47
11
0.965
21
1.49
0
LINE
8
BLACK
6
CONTINUOUS
10
0.965
20
1.49
11
0.945516
21
1.49
0
LINE
8
BLACK
6
CONTINUOUS
10
0.945516
20
1.49
11
0.944916
21
1.48982
0
LINE
8
BLACK
6
CONTINUOUS
10
0.944916
20
1.48982
11
0.944869
21
1.48977
0
LINE
8
BLACK
6
CONTINUOUS
10
0.944869
20
1.48977
11
0.944803
21
1.48947
0
LINE
8
BLACK
6
CONTINUOUS
10
0.944803
20
1.48947
11
0.944803
21
1.47009
0
LINE
8
BLACK
6
CONTINUOUS
10
0.944803
20
1.47009
11
0.944809
21
1.46991
0
LINE
8
BLACK
6
CONTINUOUS
10
0.944809
20
1.46991
11
0.94499
21
1.46739
0
LINE
8
BLACK
6
CONTINUOUS
10
0.94499
20
1.46739
11
0.945084
21
1.46687
0
LINE
8
BLACK
6
CONTINUOUS
10
0.945084
20
1.46687
11
0.946528
21
1.46195
0
LINE
8
BLACK
6
CONTINUOUS
10
0.946528
20
1.46195
11
0.94682
21
1.46131
0
LINE
8
BLACK
6
CONTINUOUS
10
0.94682
20
1.46131
11
0.949544
21
1.45707
0
LINE
8
BLACK
6
CONTINUOUS
10
0.949544
20
1.45707
11
0.950004
21
1.45654
0
LINE
8
BLACK
6
CONTINUOUS
10
0.950004
20
1.45654
11
0.953207
21
1.45377
0
LINE
8
BLACK
6
CONTINUOUS
10
0.953207
20
1.45377
11
0.954719
21
1.45141
0
LINE
8
BLACK
6
CONTINUOUS
10
0.954719
20
1.45141
11
0.954719
21
1.44862
0
LINE
8
BLACK
6
CONTINUOUS
10
0.954719
20
1.44862
11
0.953207
21
1.44627
0
LINE
8
BLACK
6
CONTINUOUS
10
0.953207
20
1.44627
11
0.952641
21
1.44584
0
LINE
8
BLACK
6
CONTINUOUS
10
0.952641
20
1.44584
11
0.952059
21
1.44547
0
LINE
8
BLACK
6
CONTINUOUS
10
0.952059
20
1.44547
11
0.952059
21
1.44547
0
LINE
8
BLACK
6
CONTINUOUS
10
0.952059
20
1.44547
11
0.951761
21
1.44528
0
LINE
8
BLACK
6
CONTINUOUS
10
0.951761
20
1.44528
11
0.951529
21
1.44501
0
LINE
8
BLACK
6
CONTINUOUS
10
0.951529
20
1.44501
11
0.948225
21
1.4412
0
LINE
8
BLACK
6
CONTINUOUS
10
0.948225
20
1.4412
11
0.948225
21
1.4412
0
LINE
8
BLACK
6
CONTINUOUS
10
0.948225
20
1.4412
11
0.947993
21
1.44093
0
LINE
8
BLACK
6
CONTINUOUS
10
0.947993
20
1.44093
11
0.945602
21
1.4357
0
LINE
8
BLACK
6
CONTINUOUS
10
0.945602
20
1.4357
11
0.945552
21
1.43534
0
LINE
8
BLACK
6
CONTINUOUS
10
0.945552
20
1.43534
11
0.945552
21
1.43534
0
LINE
8
BLACK
6
CONTINUOUS
10
0.945552
20
1.43534
11
0.944809
21
1.43018
0
LINE
8
BLACK
6
CONTINUOUS
10
0.944809
20
1.43018
11
0.944809
21
1.43017
0
LINE
8
BLACK
6
CONTINUOUS
10
0.944809
20
1.43017
11
0.944783
21
1.43
0
LINE
8
BLACK
6
CONTINUOUS
10
0.944783
20
1.43
11
0.944783
21
1.37
0
LINE
8
BLACK
6
CONTINUOUS
10
0.944783
20
1.37
11
0.944989
21
1.36712
0
LINE
8
BLACK
6
CONTINUOUS
10
0.944809
20
0.589911
11
0.94499
21
0.587391
0
LINE
8
BLACK
6
CONTINUOUS
10
0.94499
20
0.587391
11
0.945084
21
0.58687
0
LINE
8
BLACK
6
CONTINUOUS
10
0.945084
20
0.58687
11
0.946528
21
0.58195
0
LINE
8
BLACK
6
CONTINUOUS
10
0.946528
20
0.58195
11
0.94682
21
0.581311
0
LINE
8
BLACK
6
CONTINUOUS
10
0.94682
20
0.581311
11
0.949544
21
0.577072
0
LINE
8
BLACK
6
CONTINUOUS
10
0.949544
20
0.577072
11
0.950004
21
0.576541
0
LINE
8
BLACK
6
CONTINUOUS
10
0.950004
20
0.576541
11
0.953813
21
0.573242
0
LINE
8
BLACK
6
CONTINUOUS
10
0.953813
20
0.573242
11
0.954403
21
0.572862
0
LINE
8
BLACK
6
CONTINUOUS
10
0.954403
20
0.572862
11
0.958987
21
0.570769
0
LINE
8
BLACK
6
CONTINUOUS
10
0.958987
20
0.570769
11
0.959661
21
0.570571
0
LINE
8
BLACK
6
CONTINUOUS
10
0.959661
20
0.570571
11
0.964825
21
0.569828
0
LINE
8
BLACK
6
CONTINUOUS
10
0.964825
20
0.569828
11
0.965177
21
0.569803
0
LINE
8
BLACK
6
CONTINUOUS
10
0.965177
20
0.569803
11
0.984287
21
0.569803
0
LINE
8
BLACK
6
CONTINUOUS
10
0.984287
20
0.569803
11
0.984887
21
0.569979
0
LINE
8
BLACK
6
CONTINUOUS
10
0.984887
20
0.569979
11
0.984934
21
0.570034
0
LINE
8
BLACK
6
CONTINUOUS
10
0.984934
20
0.570034
11
0.985
21
0.570337
0
LINE
8
BLACK
6
CONTINUOUS
10
0.985
20
0.570337
11
0.985
21
0.59
0
LINE
8
BLACK
6
CONTINUOUS
10
0.985
20
0.59
11
0.965
21
0.59
0
LINE
8
BLACK
6
CONTINUOUS
10
0.965
20
0.59
11
0.965
21
0.61
0
LINE
8
BLACK
6
CONTINUOUS
10
0.965
20
0.61
11
0.945516
21
0.61
0
LINE
8
BLACK
6
CONTINUOUS
10
0.945516
20
0.61
11
0.944916
21
0.609824
0
LINE
8
BLACK
6
CONTINUOUS
10
0.944916
20
0.609824
11
0.944869
21
0.609769
0
LINE
8
BLACK
6
CONTINUOUS
10
0.944869
20
0.609769
11
0.944803
21
0.609467
0
LINE
8
BLACK
6
CONTINUOUS
10
0.944803
20
0.609467
11
0.944803
21
0.590089
0
LINE
8
BLACK
6
CONTINUOUS
10
0.944803
20
0.590089
11
0.944809
21
0.589911
0
LINE
8
BLACK
6
CONTINUOUS
10
1.08477
20
0.350131
11
1.08447
21
0.350197
0
LINE
8
BLACK
6
CONTINUOUS
10
1.08447
20
0.350197
11
1.06509
21
0.350197
0
LINE
8
BLACK
6
CONTINUOUS
10
1.06509
20
0.350197
11
1.06491
21
0.350191
0
LINE
8
BLACK
6
CONTINUOUS
10
1.06491
20
0.350191
11
1.06239
21
0.35001
0
LINE
8
BLACK
6
CONTINUOUS
10
1.06239
20
0.35001
11
1.06187
21
0.349916
0
LINE
8
BLACK
6
CONTINUOUS
10
1.06187
20
0.349916
11
1.05695
21
0.348472
0
LINE
8
BLACK
6
CONTINUOUS
10
1.05695
20
0.348472
11
1.05631
21
0.34818
0
LINE
8
BLACK
6
CONTINUOUS
10
1.05631
20
0.34818
11
1.05207
21
0.345456
0
LINE
8
BLACK
6
CONTINUOUS
10
1.05207
20
0.345456
11
1.05154
21
0.344996
0
LINE
8
BLACK
6
CONTINUOUS
10
1.05154
20
0.344996
11
1.04875
21
0.341777
0
LINE
8
BLACK
6
CONTINUOUS
10
1.04875
20
0.341777
11
1.0464
21
0.340266
0
LINE
8
BLACK
6
CONTINUOUS
10
1.0464
20
0.340266
11
1.04361
21
0.340266
0
LINE
8
BLACK
6
CONTINUOUS
10
1.04361
20
0.340266
11
1.04125
21
0.341777
0
LINE
8
BLACK
6
CONTINUOUS
10
1.04125
20
0.341777
11
1.04083
21
0.342344
0
LINE
8
BLACK
6
CONTINUOUS
10
1.04083
20
0.342344
11
1.04046
21
0.342928
0
LINE
8
BLACK
6
CONTINUOUS
10
1.04046
20
0.342928
11
1.04
21
0.343459
0
LINE
8
BLACK
6
CONTINUOUS
10
1.04
20
0.343459
11
1.03619
21
0.346758
0
LINE
8
BLACK
6
CONTINUOUS
10
1.03619
20
0.346758
11
1.0356
21
0.347138
0
LINE
8
BLACK
6
CONTINUOUS
10
1.0356
20
0.347138
11
1.03101
21
0.349231
0
LINE
8
BLACK
6
CONTINUOUS
10
1.03101
20
0.349231
11
1.03034
21
0.349429
0
LINE
8
BLACK
6
CONTINUOUS
10
1.03034
20
0.349429
11
1.02518
21
0.350172
0
LINE
8
BLACK
6
CONTINUOUS
10
1.02518
20
0.350172
11
1.02482
21
0.350197
0
LINE
8
BLACK
6
CONTINUOUS
10
1.02482
20
0.350197
11
1.00571
21
0.350197
0
LINE
8
BLACK
6
CONTINUOUS
10
1.00571
20
0.350197
11
1.00511
21
0.350021
0
LINE
8
BLACK
6
CONTINUOUS
10
1.00511
20
0.350021
11
1.00507
21
0.349966
0
LINE
8
BLACK
6
CONTINUOUS
10
1.00507
20
0.349966
11
1.005
21
0.349663
0
LINE
8
BLACK
6
CONTINUOUS
10
1.005
20
0.349663
11
1.005
21
0.33
0
LINE
8
BLACK
6
CONTINUOUS
10
1.005
20
0.33
11
1.025
21
0.33
0
LINE
8
BLACK
6
CONTINUOUS
10
1.025
20
0.33
11
1.025
21
0.31
0
LINE
8
BLACK
6
CONTINUOUS
10
1.025
20
0.31
11
1.065
21
0.31
0
LINE
8
BLACK
6
CONTINUOUS
10
1.065
20
0.31
11
1.065
21
0.33
0
LINE
8
BLACK
6
CONTINUOUS
10
1.065
20
0.33
11
1.085
21
0.33
0
LINE
8
BLACK
6
CONTINUOUS
10
1.085
20
0.33
11
1.085
21
0.349484
0
LINE
8
BLACK
6
CONTINUOUS
10
1.085
20
0.349484
11
1.08495
21
0.349663
0
LINE
8
BLACK
6
CONTINUOUS
10
1.08495
20
0.349663
11
1.08482
21
0.350084
0
LINE
8
BLACK
6
CONTINUOUS
10
1.08482
20
0.350084
11
1.08477
21
0.350131
0
LINE
8
BLACK
6
CONTINUOUS
10
0.944979
20
0.310113
11
0.945034
21
0.310066
0
LINE
8
BLACK
6
CONTINUOUS
10
0.945034
20
0.310066
11
0.945337
21
0.31
0
LINE
8
BLACK
6
CONTINUOUS
10
0.945337
20
0.31
11
0.965
21
0.31
0
LINE
8
BLACK
6
CONTINUOUS
10
0.965
20
0.31
11
0.965
21
0.33
0
LINE
8
BLACK
6
CONTINUOUS
10
0.965
20
0.33
11
0.985
21
0.33
0
LINE
8
BLACK
6
CONTINUOUS
10
0.985
20
0.33
11
0.985
21
0.349484
0
LINE
8
BLACK
6
CONTINUOUS
10
0.985
20
0.349484
11
0.984947
21
0.349663
0
LINE
8
BLACK
6
CONTINUOUS
10
0.984947
20
0.349663
11
0.984824
21
0.350084
0
LINE
8
BLACK
6
CONTINUOUS
10
0.984824
20
0.350084
11
0.984769
21
0.350131
0
LINE
8
BLACK
6
CONTINUOUS
10
0.984769
20
0.350131
11
0.984467
21
0.350197
0
LINE
8
BLACK
6
CONTINUOUS
10
0.984467
20
0.350197
11
0.965089
21
0.350197
0
LINE
8
BLACK
6
CONTINUOUS
10
0.965089
20
0.350197
11
0.964911
21
0.350191
0
LINE
8
BLACK
6
CONTINUOUS
10
0.964911
20
0.350191
11
0.962391
21
0.35001
0
LINE
8
BLACK
6
CONTINUOUS
10
0.962391
20
0.35001
11
0.96187
21
0.349916
0
LINE
8
BLACK
6
CONTINUOUS
10
0.96187
20
0.349916
11
0.95695
21
0.348472
0
LINE
8
BLACK
6
CONTINUOUS
10
0.95695
20
0.348472
11
0.956311
21
0.34818
0
LINE
8
BLACK
6
CONTINUOUS
10
0.956311
20
0.34818
11
0.952072
21
0.345456
0
LINE
8
BLACK
6
CONTINUOUS
10
0.952072
20
0.345456
11
0.951541
21
0.344996
0
LINE
8
BLACK
6
CONTINUOUS
10
0.951541
20
0.344996
11
0.948242
21
0.341187
0
LINE
8
BLACK
6
CONTINUOUS
10
0.948242
20
0.341187
11
0.947862
21
0.340597
0
LINE
8
BLACK
6
CONTINUOUS
10
0.947862
20
0.340597
11
0.945769
21
0.336013
0
LINE
8
BLACK
6
CONTINUOUS
10
0.945769
20
0.336013
11
0.945571
21
0.335339
0
LINE
8
BLACK
6
CONTINUOUS
10
0.945571
20
0.335339
11
0.944828
21
0.330175
0
LINE
8
BLACK
6
CONTINUOUS
10
0.944828
20
0.330175
11
0.944803
21
0.329823
0
LINE
8
BLACK
6
CONTINUOUS
10
0.944803
20
0.329823
11
0.944803
21
0.310713
0
LINE
8
BLACK
6
CONTINUOUS
10
0.944803
20
0.310713
11
0.944979
21
0.310113
0
LINE
8
BLACK
6
CONTINUOUS
10
0.180265
20
0.592398
11
0.181886
21
0.586877
0
LINE
8
BLACK
6
CONTINUOUS
10
0.181886
20
0.586877
11
0.182078
21
0.586579
0
LINE
8
BLACK
6
CONTINUOUS
10
0.182078
20
0.586579
11
0.184805
21
0.582335
0
LINE
8
BLACK
6
CONTINUOUS
10
0.184805
20
0.582335
11
0.184805
21
0.582335
0
LINE
8
BLACK
6
CONTINUOUS
10
0.184805
20
0.582335
11
0.184997
21
0.582037
0
LINE
8
BLACK
6
CONTINUOUS
10
0.184997
20
0.582037
11
0.185265
21
0.581804
0
LINE
8
BLACK
6
CONTINUOUS
10
0.185265
20
0.581804
11
0.189078
21
0.578501
0
LINE
8
BLACK
6
CONTINUOUS
10
0.189078
20
0.578501
11
0.189078
21
0.578501
0
LINE
8
BLACK
6
CONTINUOUS
10
0.189078
20
0.578501
11
0.189346
21
0.578268
0
LINE
8
BLACK
6
CONTINUOUS
10
0.189346
20
0.578268
11
0.19458
21
0.575878
0
LINE
8
BLACK
6
CONTINUOUS
10
0.19458
20
0.575878
11
0.194931
21
0.575827
0
LINE
8
BLACK
6
CONTINUOUS
10
0.194931
20
0.575827
11
0.194931
21
0.575827
0
LINE
8
BLACK
6
CONTINUOUS
10
0.194931
20
0.575827
11
0.2001
21
0.575084
0
LINE
8
BLACK
6
CONTINUOUS
10
0.2001
20
0.575084
11
0.200101
21
0.575084
0
LINE
8
BLACK
6
CONTINUOUS
10
0.200101
20
0.575084
11
0.200276
21
0.575059
0
LINE
8
BLACK
6
CONTINUOUS
10
0.200276
20
0.575059
11
0.338071
21
0.575059
0
LINE
8
BLACK
6
CONTINUOUS
10
0.338071
20
0.575059
11
0.340948
21
0.575265
0
LINE
8
BLACK
6
CONTINUOUS
10
0.340948
20
0.575265
11
0.345296
21
0.576541
0
LINE
8
BLACK
6
CONTINUOUS
10
0.345296
20
0.576541
11
0.346129
21
0.576786
0
LINE
8
BLACK
6
CONTINUOUS
10
0.346129
20
0.576786
11
0.346129
21
0.576786
0
LINE
8
BLACK
6
CONTINUOUS
10
0.346129
20
0.576786
11
0.346469
21
0.576886
0
LINE
8
BLACK
6
CONTINUOUS
10
0.346469
20
0.576886
11
0.348391
21
0.578121
0
LINE
8
BLACK
6
CONTINUOUS
10
0.348391
20
0.578121
11
0.351011
21
0.579805
0
LINE
8
BLACK
6
CONTINUOUS
10
0.351011
20
0.579805
11
0.351012
21
0.579805
0
LINE
8
BLACK
6
CONTINUOUS
10
0.351012
20
0.579805
11
0.35131
21
0.579997
0
LINE
8
BLACK
6
CONTINUOUS
10
0.35131
20
0.579997
11
0.3523
21
0.581139
0
LINE
8
BLACK
6
CONTINUOUS
10
0.3523
20
0.581139
11
0.354846
21
0.584078
0
LINE
8
BLACK
6
CONTINUOUS
10
0.354846
20
0.584078
11
0.354846
21
0.584078
0
LINE
8
BLACK
6
CONTINUOUS
10
0.354846
20
0.584078
11
0.355078
21
0.584346
0
LINE
8
BLACK
6
CONTINUOUS
10
0.355078
20
0.584346
11
0.357469
21
0.58958
0
LINE
8
BLACK
6
CONTINUOUS
10
0.357469
20
0.58958
11
0.358133
21
0.594204
0
LINE
8
BLACK
6
CONTINUOUS
10
0.358133
20
0.594204
11
0.358262
21
0.5951
0
LINE
8
BLACK
6
CONTINUOUS
10
0.358262
20
0.5951
11
0.358262
21
0.595101
0
LINE
8
BLACK
6
CONTINUOUS
10
0.358262
20
0.595101
11
0.358287
21
0.595276
0
LINE
8
BLACK
6
CONTINUOUS
10
0.358287
20
0.595276
11
0.358287
21
0.733071
0
LINE
8
BLACK
6
CONTINUOUS
10
0.358287
20
0.733071
11
0.358082
21
0.735948
0
LINE
8
BLACK
6
CONTINUOUS
10
0.358082
20
0.735948
11
0.357159
21
0.739089
0
LINE
8
BLACK
6
CONTINUOUS
10
0.357159
20
0.739089
11
0.35656
21
0.741129
0
LINE
8
BLACK
6
CONTINUOUS
10
0.35656
20
0.741129
11
0.35656
21
0.741129
0
LINE
8
BLACK
6
CONTINUOUS
10
0.35656
20
0.741129
11
0.35646
21
0.741469
0
LINE
8
BLACK
6
CONTINUOUS
10
0.35646
20
0.741469
11
0.355438
21
0.74306
0
LINE
8
BLACK
6
CONTINUOUS
10
0.355438
20
0.74306
11
0.353541
21
0.746011
0
LINE
8
BLACK
6
CONTINUOUS
10
0.353541
20
0.746011
11
0.353541
21
0.746012
0
LINE
8
BLACK
6
CONTINUOUS
10
0.353541
20
0.746012
11
0.353349
21
0.74631
0
LINE
8
BLACK
6
CONTINUOUS
10
0.353349
20
0.74631
11
0.352069
21
0.74742
0
LINE
8
BLACK
6
CONTINUOUS
10
0.352069
20
0.74742
11
0.349269
21
0.749846
0
LINE
8
BLACK
6
CONTINUOUS
10
0.349269
20
0.749846
11
0.349269
21
0.749846
0
LINE
8
BLACK
6
CONTINUOUS
10
0.349269
20
0.749846
11
0.349001
21
0.750078
0
LINE
8
BLACK
6
CONTINUOUS
10
0.349001
20
0.750078
11
0.345731
21
0.751571
0
LINE
8
BLACK
6
CONTINUOUS
10
0.345731
20
0.751571
11
0.344089
21
0.752321
0
LINE
8
BLACK
6
CONTINUOUS
10
0.344089
20
0.752321
11
0.344089
21
0.752321
0
LINE
8
BLACK
6
CONTINUOUS
10
0.344089
20
0.752321
11
0.343767
21
0.752469
0
LINE
8
BLACK
6
CONTINUOUS
10
0.343767
20
0.752469
11
0.343416
21
0.752519
0
LINE
8
BLACK
6
CONTINUOUS
10
0.343416
20
0.752519
11
0.343416
21
0.752519
0
LINE
8
BLACK
6
CONTINUOUS
10
0.343416
20
0.752519
11
0.338246
21
0.753262
0
LINE
8
BLACK
6
CONTINUOUS
10
0.338246
20
0.753262
11
0.338246
21
0.753262
0
LINE
8
BLACK
6
CONTINUOUS
10
0.338246
20
0.753262
11
0.338071
21
0.753287
0
LINE
8
BLACK
6
CONTINUOUS
10
0.338071
20
0.753287
11
0.200276
21
0.753287
0
LINE
8
BLACK
6
CONTINUOUS
10
0.200276
20
0.753287
11
0.197398
21
0.753082
0
LINE
8
BLACK
6
CONTINUOUS
10
0.197398
20
0.753082
11
0.19531
21
0.752469
0
LINE
8
BLACK
6
CONTINUOUS
10
0.19531
20
0.752469
11
0.192218
21
0.75156
0
LINE
8
BLACK
6
CONTINUOUS
10
0.192218
20
0.75156
11
0.192218
21
0.75156
0
LINE
8
BLACK
6
CONTINUOUS
10
0.192218
20
0.75156
11
0.191877
21
0.75146
0
LINE
8
BLACK
6
CONTINUOUS
10
0.191877
20
0.75146
11
0.191579
21
0.751269
0
LINE
8
BLACK
6
CONTINUOUS
10
0.191579
20
0.751269
11
0.187335
21
0.748541
0
LINE
8
BLACK
6
CONTINUOUS
10
0.187335
20
0.748541
11
0.187335
21
0.748541
0
LINE
8
BLACK
6
CONTINUOUS
10
0.187335
20
0.748541
11
0.187037
21
0.748349
0
LINE
8
BLACK
6
CONTINUOUS
10
0.187037
20
0.748349
11
0.186804
21
0.748081
0
LINE
8
BLACK
6
CONTINUOUS
10
0.186804
20
0.748081
11
0.183501
21
0.744269
0
LINE
8
BLACK
6
CONTINUOUS
10
0.183501
20
0.744269
11
0.183501
21
0.744269
0
LINE
8
BLACK
6
CONTINUOUS
10
0.183501
20
0.744269
11
0.183268
21
0.744001
0
LINE
8
BLACK
6
CONTINUOUS
10
0.183268
20
0.744001
11
0.183121
21
0.743678
0
LINE
8
BLACK
6
CONTINUOUS
10
0.183121
20
0.743678
11
0.181906
21
0.741018
0
LINE
8
BLACK
6
CONTINUOUS
10
0.181906
20
0.741018
11
0.180878
21
0.738767
0
LINE
8
BLACK
6
CONTINUOUS
10
0.180878
20
0.738767
11
0.180827
21
0.738416
0
LINE
8
BLACK
6
CONTINUOUS
10
0.180827
20
0.738416
11
0.180827
21
0.738416
0
LINE
8
BLACK
6
CONTINUOUS
10
0.180827
20
0.738416
11
0.180084
21
0.733246
0
LINE
8
BLACK
6
CONTINUOUS
10
0.180084
20
0.733246
11
0.180084
21
0.733246
0
LINE
8
BLACK
6
CONTINUOUS
10
0.180084
20
0.733246
11
0.180059
21
0.733071
0
LINE
8
BLACK
6
CONTINUOUS
10
0.180059
20
0.733071
11
0.180059
21
0.595276
0
LINE
8
BLACK
6
CONTINUOUS
10
0.180059
20
0.595276
11
0.180265
21
0.592398
0
LINE
8
BLACK
6
CONTINUOUS
10
0.87837
20
0.690024
11
0.879424
21
0.690138
0
LINE
8
BLACK
6
CONTINUOUS
10
0.879424
20
0.690138
11
0.940391
21
0.690138
0
LINE
8
BLACK
6
CONTINUOUS
10
0.940391
20
0.690138
11
0.943072
21
0.68935
0
LINE
8
BLACK
6
CONTINUOUS
10
0.943072
20
0.68935
11
0.944903
21
0.687238
0
LINE
8
BLACK
6
CONTINUOUS
10
0.944903
20
0.687238
11
0.94515
21
0.686575
0
LINE
8
BLACK
6
CONTINUOUS
10
0.94515
20
0.686575
11
0.94661
21
0.681602
0
LINE
8
BLACK
6
CONTINUOUS
10
0.94661
20
0.681602
11
0.946802
21
0.681303
0
LINE
8
BLACK
6
CONTINUOUS
10
0.946802
20
0.681303
11
0.94953
21
0.677059
0
LINE
8
BLACK
6
CONTINUOUS
10
0.94953
20
0.677059
11
0.94953
21
0.677059
0
LINE
8
BLACK
6
CONTINUOUS
10
0.94953
20
0.677059
11
0.949721
21
0.676761
0
LINE
8
BLACK
6
CONTINUOUS
10
0.949721
20
0.676761
11
0.949989
21
0.676529
0
LINE
8
BLACK
6
CONTINUOUS
10
0.949989
20
0.676529
11
0.953206
21
0.673742
0
LINE
8
BLACK
6
CONTINUOUS
10
0.953206
20
0.673742
11
0.954717
21
0.67139
0
LINE
8
BLACK
6
CONTINUOUS
10
0.954717
20
0.67139
11
0.954717
21
0.668595
0
LINE
8
BLACK
6
CONTINUOUS
10
0.954717
20
0.668595
11
0.953206
21
0.666244
0
LINE
8
BLACK
6
CONTINUOUS
10
0.953206
20
0.666244
11
0.952639
21
0.66582
0
LINE
8
BLACK
6
CONTINUOUS
10
0.952639
20
0.66582
11
0.952072
21
0.665456
0
LINE
8
BLACK
6
CONTINUOUS
10
0.952072
20
0.665456
11
0.951541
21
0.664996
0
LINE
8
BLACK
6
CONTINUOUS
10
0.951541
20
0.664996
11
0.948242
21
0.661187
0
LINE
8
BLACK
6
CONTINUOUS
10
0.948242
20
0.661187
11
0.947862
21
0.660597
0
LINE
8
BLACK
6
CONTINUOUS
10
0.947862
20
0.660597
11
0.945769
21
0.656013
0
LINE
8
BLACK
6
CONTINUOUS
10
0.945769
20
0.656013
11
0.945571
21
0.655339
0
LINE
8
BLACK
6
CONTINUOUS
10
0.945571
20
0.655339
11
0.944828
21
0.650175
0
LINE
8
BLACK
6
CONTINUOUS
10
0.944828
20
0.650175
11
0.944803
21
0.649823
0
LINE
8
BLACK
6
CONTINUOUS
10
0.944803
20
0.649823
11
0.944803
21
0.630713
0
LINE
8
BLACK
6
CONTINUOUS
10
0.944803
20
0.630713
11
0.944979
21
0.630113
0
LINE
8
BLACK
6
CONTINUOUS
10
0.944979
20
0.630113
11
0.945034
21
0.630066
0
LINE
8
BLACK
6
CONTINUOUS
10
0.945034
20
0.630066
11
0.945337
21
0.63
0
LINE
8
BLACK
6
CONTINUOUS
10
0.945337
20
0.63
11
0.965
21
0.63
0
LINE
8
BLACK
6
CONTINUOUS
10
0.965
20
0.63
11
0.965
21
0.65
0
LINE
8
BLACK
6
CONTINUOUS
10
0.965
20
0.65
11
1.025
21
0.65
0
LINE
8
BLACK
6
CONTINUOUS
10
1.025
20
0.65
11
1.025
21
0.63
0
LINE
8
BLACK
6
CONTINUOUS
10
1.025
20
0.63
11
1.065
21
0.63
0
LINE
8
BLACK
6
CONTINUOUS
10
1.065
20
0.63
11
1.065
21
0.65
0
LINE
8
BLACK
6
CONTINUOUS
10
1.065
20
0.65
11
1.125
21
0.65
0
LINE
8
BLACK
6
CONTINUOUS
10
1.125
20
0.65
11
1.125
21
0.63
0
LINE
8
BLACK
6
CONTINUOUS
10
1.125
20
0.63
11
1.14448
21
0.63
0
LINE
8
BLACK
6
CONTINUOUS
10
1.14448
20
0.63
11
1.14508
21
0.630176
0
LINE
8
BLACK
6
CONTINUOUS
10
1.14508
20
0.630176
11
1.14513
21
0.630231
0
LINE
8
BLACK
6
CONTINUOUS
10
1.14513
20
0.630231
11
1.1452
21
0.630533
0
LINE
8
BLACK
6
CONTINUOUS
10
1.1452
20
0.630533
11
1.1452
21
0.649911
0
LINE
8
BLACK
6
CONTINUOUS
10
1.1452
20
0.649911
11
1.14519
21
0.650089
0
LINE
8
BLACK
6
CONTINUOUS
10
1.14519
20
0.650089
11
1.14501
21
0.652609
0
LINE
8
BLACK
6
CONTINUOUS
10
1.14501
20
0.652609
11
1.14492
21
0.65313
0
LINE
8
BLACK
6
CONTINUOUS
10
1.14492
20
0.65313
11
1.14347
21
0.65805
0
LINE
8
BLACK
6
CONTINUOUS
10
1.14347
20
0.65805
11
1.14318
21
0.658689
0
LINE
8
BLACK
6
CONTINUOUS
10
1.14318
20
0.658689
11
1.14046
21
0.662928
0
LINE
8
BLACK
6
CONTINUOUS
10
1.14046
20
0.662928
11
1.14
21
0.663459
0
LINE
8
BLACK
6
CONTINUOUS
10
1.14
20
0.663459
11
1.13679
21
0.666234
0
LINE
8
BLACK
6
CONTINUOUS
10
1.13679
20
0.666234
11
1.13528
21
0.668585
0
LINE
8
BLACK
6
CONTINUOUS
10
1.13528
20
0.668585
11
1.13528
21
0.67138
0
LINE
8
BLACK
6
CONTINUOUS
10
1.13528
20
0.67138
11
1.13679
21
0.673732
0
LINE
8
BLACK
6
CONTINUOUS
10
1.13679
20
0.673732
11
1.13736
21
0.674156
0
LINE
8
BLACK
6
CONTINUOUS
10
1.13736
20
0.674156
11
1.13794
21
0.67453
0
LINE
8
BLACK
6
CONTINUOUS
10
1.13794
20
0.67453
11
1.13794
21
0.67453
0
LINE
8
BLACK
6
CONTINUOUS
10
1.13794
20
0.67453
11
1.13824
21
0.674721
0
LINE
8
BLACK
6
CONTINUOUS
10
1.13824
20
0.674721
11
1.13981
21
0.676529
0
LINE
8
BLACK
6
CONTINUOUS
10
1.13981
20
0.676529
11
1.14177
21
0.678802
0
LINE
8
BLACK
6
CONTINUOUS
10
1.14177
20
0.678802
11
1.14177
21
0.678802
0
LINE
8
BLACK
6
CONTINUOUS
10
1.14177
20
0.678802
11
1.14201
21
0.67907
0
LINE
8
BLACK
6
CONTINUOUS
10
1.14201
20
0.67907
11
1.1444
21
0.684304
0
LINE
8
BLACK
6
CONTINUOUS
10
1.1444
20
0.684304
11
1.14482
21
0.687238
0
LINE
8
BLACK
6
CONTINUOUS
10
1.14482
20
0.687238
11
1.14519
21
0.689825
0
LINE
8
BLACK
6
CONTINUOUS
10
1.14519
20
0.689825
11
1.14519
21
0.689825
0
LINE
8
BLACK
6
CONTINUOUS
10
1.14519
20
0.689825
11
1.14522
21
0.69
0
LINE
8
BLACK
6
CONTINUOUS
10
1.14522
20
0.69
11
1.14522
21
0.75
0
LINE
8
BLACK
6
CONTINUOUS
10
1.14522
20
0.75
11
1.14501
21
0.752877
0
LINE
8
BLACK
6
CONTINUOUS
10
1.14501
20
0.752877
11
1.14339
21
0.758398
0
LINE
8
BLACK
6
CONTINUOUS
10
1.14339
20
0.758398
11
1.14159
21
0.761198
0
LINE
8
BLACK
6
CONTINUOUS
10
1.14159
20
0.761198
11
1.14047
21
0.762941
0
LINE
8
BLACK
6
CONTINUOUS
10
1.14047
20
0.762941
11
1.14047
21
0.762941
0
LINE
8
BLACK
6
CONTINUOUS
10
1.14047
20
0.762941
11
1.14028
21
0.763239
0
LINE
8
BLACK
6
CONTINUOUS
10
1.14028
20
0.763239
11
1.13681
21
0.766245
0
LINE
8
BLACK
6
CONTINUOUS
10
1.13681
20
0.766245
11
1.1353
21
0.768596
0
LINE
8
BLACK
6
CONTINUOUS
10
1.1353
20
0.768596
11
1.1353
21
0.771391
0
LINE
8
BLACK
6
CONTINUOUS
10
1.1353
20
0.771391
11
1.13681
21
0.773743
0
LINE
8
BLACK
6
CONTINUOUS
10
1.13681
20
0.773743
11
1.13738
21
0.774167
0
LINE
8
BLACK
6
CONTINUOUS
10
1.13738
20
0.774167
11
1.13824
21
0.774721
0
LINE
8
BLACK
6
CONTINUOUS
10
1.13824
20
0.774721
11
1.13981
21
0.776529
0
LINE
8
BLACK
6
CONTINUOUS
10
1.13981
20
0.776529
11
1.14177
21
0.778802
0
LINE
8
BLACK
6
CONTINUOUS
10
1.14177
20
0.778802
11
1.14177
21
0.778802
0
LINE
8
BLACK
6
CONTINUOUS
10
1.14177
20
0.778802
11
1.14201
21
0.77907
0
LINE
8
BLACK
6
CONTINUOUS
10
1.14201
20
0.77907
11
1.1444
21
0.784304
0
LINE
8
BLACK
6
CONTINUOUS
10
1.1444
20
0.784304
11
1.14484
21
0.787388
0
LINE
8
BLACK
6
CONTINUOUS
10
1.14484
20
0.787388
11
1.14519
21
0.789825
0
LINE
8
BLACK
6
CONTINUOUS
10
1.14519
20
0.789825
11
1.14519
21
0.789825
0
LINE
8
BLACK
6
CONTINUOUS
10
1.14519
20
0.789825
11
1.14522
21
0.79
0
LINE
8
BLACK
6
CONTINUOUS
10
1.14522
20
0.79
11
1.14522
21
0.85
0
LINE
8
BLACK
6
CONTINUOUS
10
1.14522
20
0.85
11
1.14501
21
0.852877
0
LINE
8
BLACK
6
CONTINUOUS
10
1.14501
20
0.852877
11
1.14339
21
0.858398
0
LINE
8
BLACK
6
CONTINUOUS
10
1.14339
20
0.858398
11
1.14134
21
0.861584
0
LINE
8
BLACK
6
CONTINUOUS
10
1.14134
20
0.861584
11
1.14047
21
0.862941
0
LINE
8
BLACK
6
CONTINUOUS
10
1.14047
20
0.862941
11
1.14047
21
0.862941
0
LINE
8
BLACK
6
CONTINUOUS
10
1.14047
20
0.862941
11
1.14028
21
0.863239
0
LINE
8
BLACK
6
CONTINUOUS
10
1.14028
20
0.863239
11
1.13681
21
0.866245
0
LINE
8
BLACK
6
CONTINUOUS
10
1.13681
20
0.866245
11
1.1353
21
0.868596
0
LINE
8
BLACK
6
CONTINUOUS
10
1.1353
20
0.868596
11
1.1353
21
0.871391
0
LINE
8
BLACK
6
CONTINUOUS
10
1.1353
20
0.871391
11
1.13681
21
0.873743
0
LINE
8
BLACK
6
CONTINUOUS
10
1.13681
20
0.873743
11
1.13738
21
0.874167
0
LINE
8
BLACK
6
CONTINUOUS
10
1.13738
20
0.874167
11
1.13824
21
0.874721
0
LINE
8
BLACK
6
CONTINUOUS
10
1.13824
20
0.874721
11
1.13981
21
0.876529
0
LINE
8
BLACK
6
CONTINUOUS
10
1.13981
20
0.876529
11
1.14177
21
0.878802
0
LINE
8
BLACK
6
CONTINUOUS
10
1.14177
20
0.878802
11
1.14177
21
0.878802
0
LINE
8
BLACK
6
CONTINUOUS
10
1.14177
20
0.878802
11
1.14201
21
0.87907
0
LINE
8
BLACK
6
CONTINUOUS
10
1.14201
20
0.87907
11
1.1444
21
0.884304
0
LINE
8
BLACK
6
CONTINUOUS
10
1.1444
20
0.884304
11
1.14482
21
0.887238
0
LINE
8
BLACK
6
CONTINUOUS
10
1.14482
20
0.887238
11
1.14519
21
0.889825
0
LINE
8
BLACK
6
CONTINUOUS
10
1.14519
20
0.889825
11
1.14519
21
0.889825
0
LINE
8
BLACK
6
CONTINUOUS
10
1.14519
20
0.889825
11
1.14522
21
0.89
0
LINE
8
BLACK
6
CONTINUOUS
10
1.14522
20
0.89
11
1.14522
21
0.95
0
LINE
8
BLACK
6
CONTINUOUS
10
1.14522
20
0.95
11
1.14501
21
0.952877
0
LINE
8
BLACK
6
CONTINUOUS
10
1.14501
20
0.952877
11
1.14339
21
0.958398
0
LINE
8
BLACK
6
CONTINUOUS
10
1.14339
20
0.958398
11
1.14159
21
0.961198
0
LINE
8
BLACK
6
CONTINUOUS
10
1.14159
20
0.961198
11
1.14047
21
0.962941
0
LINE
8
BLACK
6
CONTINUOUS
10
1.14047
20
0.962941
11
1.14047
21
0.962941
0
LINE
8
BLACK
6
CONTINUOUS
10
1.14047
20
0.962941
11
1.14028
21
0.963239
0
LINE
8
BLACK
6
CONTINUOUS
10
1.14028
20
0.963239
11
1.14001
21
0.963471
0
LINE
8
BLACK
6
CONTINUOUS
10
1.14001
20
0.963471
11
1.1362
21
0.966775
0
LINE
8
BLACK
6
CONTINUOUS
10
1.1362
20
0.966775
11
1.1362
21
0.966775
0
LINE
8
BLACK
6
CONTINUOUS
10
1.1362
20
0.966775
11
1.13593
21
0.967007
0
LINE
8
BLACK
6
CONTINUOUS
10
1.13593
20
0.967007
11
1.1307
21
0.969398
0
LINE
8
BLACK
6
CONTINUOUS
10
1.1307
20
0.969398
11
1.13034
21
0.969448
0
LINE
8
BLACK
6
CONTINUOUS
10
1.13034
20
0.969448
11
1.13034
21
0.969448
0
LINE
8
BLACK
6
CONTINUOUS
10
1.13034
20
0.969448
11
1.12518
21
0.970191
0
LINE
8
BLACK
6
CONTINUOUS
10
1.12518
20
0.970191
11
1.12517
21
0.970191
0
LINE
8
BLACK
6
CONTINUOUS
10
1.12517
20
0.970191
11
1.125
21
0.970217
0
LINE
8
BLACK
6
CONTINUOUS
10
1.125
20
0.970217
11
1.065
21
0.970217
0
LINE
8
BLACK
6
CONTINUOUS
10
1.065
20
0.970217
11
1.06212
21
0.970011
0
LINE
8
BLACK
6
CONTINUOUS
10
1.06212
20
0.970011
11
1.06003
21
0.969398
0
LINE
8
BLACK
6
CONTINUOUS
10
1.06003
20
0.969398
11
1.05694
21
0.96849
0
LINE
8
BLACK
6
CONTINUOUS
10
1.05694
20
0.96849
11
1.05694
21
0.96849
0
LINE
8
BLACK
6
CONTINUOUS
10
1.05694
20
0.96849
11
1.0566
21
0.96839
0
LINE
8
BLACK
6
CONTINUOUS
10
1.0566
20
0.96839
11
1.0563
21
0.968198
0
LINE
8
BLACK
6
CONTINUOUS
10
1.0563
20
0.968198
11
1.05206
21
0.96547
0
LINE
8
BLACK
6
CONTINUOUS
10
1.05206
20
0.96547
11
1.05206
21
0.96547
0
LINE
8
BLACK
6
CONTINUOUS
10
1.05206
20
0.96547
11
1.05176
21
0.965279
0
LINE
8
BLACK
6
CONTINUOUS
10
1.05176
20
0.965279
11
1.04974
21
0.962941
0
LINE
8
BLACK
6
CONTINUOUS
10
1.04974
20
0.962941
11
1.04876
21
0.96181
0
LINE
8
BLACK
6
CONTINUOUS
10
1.04876
20
0.96181
11
1.0464
21
0.960299
0
LINE
8
BLACK
6
CONTINUOUS
10
1.0464
20
0.960299
11
1.04361
21
0.960299
0
LINE
8
BLACK
6
CONTINUOUS
10
1.04361
20
0.960299
11
1.04126
21
0.96181
0
LINE
8
BLACK
6
CONTINUOUS
10
1.04126
20
0.96181
11
1.04083
21
0.962376
0
LINE
8
BLACK
6
CONTINUOUS
10
1.04083
20
0.962376
11
1.04047
21
0.962941
0
LINE
8
BLACK
6
CONTINUOUS
10
1.04047
20
0.962941
11
1.04028
21
0.963239
0
LINE
8
BLACK
6
CONTINUOUS
10
1.04028
20
0.963239
11
1.04001
21
0.963471
0
LINE
8
BLACK
6
CONTINUOUS
10
1.04001
20
0.963471
11
1.0362
21
0.966775
0
LINE
8
BLACK
6
CONTINUOUS
10
1.0362
20
0.966775
11
1.0362
21
0.966775
0
LINE
8
BLACK
6
CONTINUOUS
10
1.0362
20
0.966775
11
1.03593
21
0.967007
0
LINE
8
BLACK
6
CONTINUOUS
10
1.03593
20
0.967007
11
1.0307
21
0.969398
0
LINE
8
BLACK
6
CONTINUOUS
10
1.0307
20
0.969398
11
1.03034
21
0.969448
0
LINE
8
BLACK
6
CONTINUOUS
10
1.03034
20
0.969448
11
1.03034
21
0.969448
0
LINE
8
BLACK
6
CONTINUOUS
10
1.03034
20
0.969448
11
1.02518
21
0.970191
0
LINE
8
BLACK
6
CONTINUOUS
10
1.02518
20
0.970191
11
1.02517
21
0.970191
0
LINE
8
BLACK
6
CONTINUOUS
10
1.02517
20
0.970191
11
1.025
21
0.970217
0
LINE
8
BLACK
6
CONTINUOUS
10
1.025
20
0.970217
11
0.965
21
0.970217
0
LINE
8
BLACK
6
CONTINUOUS
10
0.965
20
0.970217
11
0.962123
21
0.970011
0
LINE
8
BLACK
6
CONTINUOUS
10
0.962123
20
0.970011
11
0.960035
21
0.969398
0
LINE
8
BLACK
6
CONTINUOUS
10
0.960035
20
0.969398
11
0.956942
21
0.96849
0
LINE
8
BLACK
6
CONTINUOUS
10
0.956942
20
0.96849
11
0.956942
21
0.96849
0
LINE
8
BLACK
6
CONTINUOUS
10
0.956942
20
0.96849
11
0.956602
21
0.96839
0
LINE
8
BLACK
6
CONTINUOUS
10
0.956602
20
0.96839
11
0.956303
21
0.968198
0
LINE
8
BLACK
6
CONTINUOUS
10
0.956303
20
0.968198
11
0.952059
21
0.96547
0
LINE
8
BLACK
6
CONTINUOUS
10
0.952059
20
0.96547
11
0.952059
21
0.96547
0
LINE
8
BLACK
6
CONTINUOUS
10
0.952059
20
0.96547
11
0.951761
21
0.965279
0
LINE
8
BLACK
6
CONTINUOUS
10
0.951761
20
0.965279
11
0.951529
21
0.965011
0
LINE
8
BLACK
6
CONTINUOUS
10
0.951529
20
0.965011
11
0.948225
21
0.961198
0
LINE
8
BLACK
6
CONTINUOUS
10
0.948225
20
0.961198
11
0.948225
21
0.961198
0
LINE
8
BLACK
6
CONTINUOUS
10
0.948225
20
0.961198
11
0.947993
21
0.96093
0
LINE
8
BLACK
6
CONTINUOUS
10
0.947993
20
0.96093
11
0.945602
21
0.955696
0
LINE
8
BLACK
6
CONTINUOUS
10
0.945602
20
0.955696
11
0.945552
21
0.955345
0
LINE
8
BLACK
6
CONTINUOUS
10
0.945552
20
0.955345
11
0.945552
21
0.955344
0
LINE
8
BLACK
6
CONTINUOUS
10
0.945552
20
0.955344
11
0.945375
21
0.954117
0
LINE
8
BLACK
6
CONTINUOUS
10
0.945375
20
0.954117
11
0.944214
21
0.951574
0
LINE
8
BLACK
6
CONTINUOUS
10
0.944214
20
0.951574
11
0.941863
21
0.950063
0
LINE
8
BLACK
6
CONTINUOUS
10
0.941863
20
0.950063
11
0.940465
21
0.949862
0
LINE
8
BLACK
6
CONTINUOUS
10
0.940465
20
0.949862
11
0.907598
21
0.949862
0
LINE
8
BLACK
6
CONTINUOUS
10
0.907598
20
0.949862
11
0.906852
21
0.949919
0
LINE
8
BLACK
6
CONTINUOUS
10
0.906852
20
0.949919
11
0.906334
21
0.949997
0
LINE
8
BLACK
6
CONTINUOUS
10
0.906334
20
0.949997
11
0.906334
21
0.949997
0
LINE
8
BLACK
6
CONTINUOUS
10
0.906334
20
0.949997
11
0.906049
21
0.950041
0
LINE
8
BLACK
6
CONTINUOUS
10
0.906049
20
0.950041
11
0.905762
21
0.950017
0
LINE
8
BLACK
6
CONTINUOUS
10
0.905762
20
0.950017
11
0.905762
21
0.950017
0
LINE
8
BLACK
6
CONTINUOUS
10
0.905762
20
0.950017
11
0.904055
21
0.949879
0
LINE
8
BLACK
6
CONTINUOUS
10
0.904055
20
0.949879
11
0.903653
21
0.949862
0
LINE
8
BLACK
6
CONTINUOUS
10
0.903653
20
0.949862
11
0.903312
21
0.949862
0
LINE
8
BLACK
6
CONTINUOUS
10
0.903312
20
0.949862
11
0.903169
21
0.949846
0
LINE
8
BLACK
6
CONTINUOUS
10
0.903169
20
0.949846
11
0.903168
21
0.949846
0
LINE
8
BLACK
6
CONTINUOUS
10
0.903168
20
0.949846
11
0.902777
21
0.9498
0
LINE
8
BLACK
6
CONTINUOUS
10
0.902777
20
0.9498
11
0.902145
21
0.949726
0
LINE
8
BLACK
6
CONTINUOUS
10
0.902145
20
0.949726
11
0.901975
21
0.949709
0
LINE
8
BLACK
6
CONTINUOUS
10
0.901975
20
0.949709
11
0.900827
21
0.949616
0
LINE
8
BLACK
6
CONTINUOUS
10
0.900827
20
0.949616
11
0.899397
21
0.9495
0
LINE
8
BLACK
6
CONTINUOUS
10
0.899397
20
0.9495
11
0.899397
21
0.9495
0
LINE
8
BLACK
6
CONTINUOUS
10
0.899397
20
0.9495
11
0.89911
21
0.949476
0
LINE
8
BLACK
6
CONTINUOUS
10
0.89911
20
0.949476
11
0.898836
21
0.949388
0
LINE
8
BLACK
6
CONTINUOUS
10
0.898836
20
0.949388
11
0.898602
21
0.949341
0
LINE
8
BLACK
6
CONTINUOUS
10
0.898602
20
0.949341
11
0.898371
21
0.949286
0
LINE
8
BLACK
6
CONTINUOUS
10
0.898371
20
0.949286
11
0.898085
21
0.949253
0
LINE
8
BLACK
6
CONTINUOUS
10
0.898085
20
0.949253
11
0.895383
21
0.948272
0
LINE
8
BLACK
6
CONTINUOUS
10
0.895383
20
0.948272
11
0.895221
21
0.948217
0
LINE
8
BLACK
6
CONTINUOUS
10
0.895221
20
0.948217
11
0.89464
21
0.948028
0
LINE
8
BLACK
6
CONTINUOUS
10
0.89464
20
0.948028
11
0.892761
21
0.94742
0
LINE
8
BLACK
6
CONTINUOUS
10
0.892761
20
0.94742
11
0.892761
21
0.94742
0
LINE
8
BLACK
6
CONTINUOUS
10
0.892761
20
0.94742
11
0.892487
21
0.947331
0
LINE
8
BLACK
6
CONTINUOUS
10
0.892487
20
0.947331
11
0.892241
21
0.947181
0
LINE
8
BLACK
6
CONTINUOUS
10
0.892241
20
0.947181
11
0.892025
21
0.947083
0
LINE
8
BLACK
6
CONTINUOUS
10
0.892025
20
0.947083
11
0.891812
21
0.946976
0
LINE
8
BLACK
6
CONTINUOUS
10
0.891812
20
0.946976
11
0.891541
21
0.946877
0
LINE
8
BLACK
6
CONTINUOUS
10
0.891541
20
0.946877
11
0.8913
21
0.946719
0
LINE
8
BLACK
6
CONTINUOUS
10
0.8913
20
0.946719
11
0.8913
21
0.946719
0
LINE
8
BLACK
6
CONTINUOUS
10
0.8913
20
0.946719
11
0.889137
21
0.945302
0
LINE
8
BLACK
6
CONTINUOUS
10
0.889137
20
0.945302
11
0.888991
21
0.945209
0
LINE
8
BLACK
6
CONTINUOUS
10
0.888991
20
0.945209
11
0.886535
21
0.943719
0
LINE
8
BLACK
6
CONTINUOUS
10
0.886535
20
0.943719
11
0.88637
21
0.943573
0
LINE
8
BLACK
6
CONTINUOUS
10
0.88637
20
0.943573
11
0.886169
21
0.943396
0
LINE
8
BLACK
6
CONTINUOUS
10
0.886169
20
0.943396
11
0.886067
21
0.943308
0
LINE
8
BLACK
6
CONTINUOUS
10
0.886067
20
0.943308
11
0.885959
21
0.943218
0
LINE
8
BLACK
6
CONTINUOUS
10
0.885959
20
0.943218
11
0.885719
21
0.94306
0
LINE
8
BLACK
6
CONTINUOUS
10
0.885719
20
0.94306
11
0.885521
21
0.942851
0
LINE
8
BLACK
6
CONTINUOUS
10
0.885521
20
0.942851
11
0.883784
21
0.941018
0
LINE
8
BLACK
6
CONTINUOUS
10
0.883784
20
0.941018
11
0.883691
21
0.940922
0
LINE
8
BLACK
6
CONTINUOUS
10
0.883691
20
0.940922
11
0.809832
21
0.867063
0
LINE
8
BLACK
6
CONTINUOUS
10
0.809832
20
0.867063
11
0.807378
21
0.865724
0
LINE
8
BLACK
6
CONTINUOUS
10
0.807378
20
0.865724
11
0.806324
21
0.86561
0
LINE
8
BLACK
6
CONTINUOUS
10
0.806324
20
0.86561
11
0.651019
21
0.86561
0
LINE
8
BLACK
6
CONTINUOUS
10
0.651019
20
0.86561
11
0.649866
21
0.865023
0
LINE
8
BLACK
6
CONTINUOUS
10
0.649866
20
0.865023
11
0.645
21
0.864252
0
LINE
8
BLACK
6
CONTINUOUS
10
0.645
20
0.864252
11
0.640134
21
0.865023
0
LINE
8
BLACK
6
CONTINUOUS
10
0.640134
20
0.865023
11
0.638981
21
0.86561
0
LINE
8
BLACK
6
CONTINUOUS
10
0.638981
20
0.86561
11
0.634902
21
0.86561
0
LINE
8
BLACK
6
CONTINUOUS
10
0.634902
20
0.86561
11
0.63222
21
0.866398
0
LINE
8
BLACK
6
CONTINUOUS
10
0.63222
20
0.866398
11
0.630389
21
0.86851
0
LINE
8
BLACK
6
CONTINUOUS
10
0.630389
20
0.86851
11
0.629941
21
0.870571
0
LINE
8
BLACK
6
CONTINUOUS
10
0.629941
20
0.870571
11
0.629941
21
0.87565
0
LINE
8
BLACK
6
CONTINUOUS
10
0.629941
20
0.87565
11
0.629252
21
0.88
0
LINE
8
BLACK
6
CONTINUOUS
10
0.629252
20
0.88
11
0.629941
21
0.88435
0
LINE
8
BLACK
6
CONTINUOUS
10
0.629941
20
0.88435
11
0.629941
21
0.91565
0
LINE
8
BLACK
6
CONTINUOUS
10
0.629941
20
0.91565
11
0.629252
21
0.92
0
LINE
8
BLACK
6
CONTINUOUS
10
0.629252
20
0.92
11
0.629941
21
0.92435
0
LINE
8
BLACK
6
CONTINUOUS
10
0.629941
20
0.92435
11
0.629941
21
0.948062
0
LINE
8
BLACK
6
CONTINUOUS
10
0.629941
20
0.948062
11
0.62726
21
0.950744
0
LINE
8
BLACK
6
CONTINUOUS
10
0.62726
20
0.950744
11
0.625023
21
0.955134
0
LINE
8
BLACK
6
CONTINUOUS
10
0.625023
20
0.955134
11
0.624252
21
0.96
0
LINE
8
BLACK
6
CONTINUOUS
10
0.624252
20
0.96
11
0.625023
21
0.964866
0
LINE
8
BLACK
6
CONTINUOUS
10
0.625023
20
0.964866
11
0.62726
21
0.969256
0
LINE
8
BLACK
6
CONTINUOUS
10
0.62726
20
0.969256
11
0.629941
21
0.971938
0
LINE
8
BLACK
6
CONTINUOUS
10
0.629941
20
0.971938
11
0.629941
21
1.00472
0
LINE
8
BLACK
6
CONTINUOUS
10
0.629941
20
1.00472
11
0.629735
21
1.0076
0
LINE
8
BLACK
6
CONTINUOUS
10
0.629735
20
1.0076
11
0.628114
21
1.01312
0
LINE
8
BLACK
6
CONTINUOUS
10
0.628114
20
1.01312
11
0.626315
21
1.01592
0
LINE
8
BLACK
6
CONTINUOUS
10
0.626315
20
1.01592
11
0.625195
21
1.01767
0
LINE
8
BLACK
6
CONTINUOUS
10
0.625195
20
1.01767
11
0.625195
21
1.01767
0
LINE
8
BLACK
6
CONTINUOUS
10
0.625195
20
1.01767
11
0.625003
21
1.01796
0
LINE
8
BLACK
6
CONTINUOUS
10
0.625003
20
1.01796
11
0.624735
21
1.0182
0
LINE
8
BLACK
6
CONTINUOUS
10
0.624735
20
1.0182
11
0.620922
21
1.0215
0
LINE
8
BLACK
6
CONTINUOUS
10
0.620922
20
1.0215
11
0.620922
21
1.0215
0
LINE
8
BLACK
6
CONTINUOUS
10
0.620922
20
1.0215
11
0.620654
21
1.02173
0
LINE
8
BLACK
6
CONTINUOUS
10
0.620654
20
1.02173
11
0.61542
21
1.02412
0
LINE
8
BLACK
6
CONTINUOUS
10
0.61542
20
1.02412
11
0.615069
21
1.02417
0
LINE
8
BLACK
6
CONTINUOUS
10
0.615069
20
1.02417
11
0.615069
21
1.02417
0
LINE
8
BLACK
6
CONTINUOUS
10
0.615069
20
1.02417
11
0.6099
21
1.02492
0
LINE
8
BLACK
6
CONTINUOUS
10
0.6099
20
1.02492
11
0.609899
21
1.02492
0
LINE
8
BLACK
6
CONTINUOUS
10
0.609899
20
1.02492
11
0.609724
21
1.02494
0
LINE
8
BLACK
6
CONTINUOUS
10
0.609724
20
1.02494
11
0.579879
21
1.02494
0
LINE
8
BLACK
6
CONTINUOUS
10
0.579879
20
1.02494
11
0.57774
21
1.02074
0
LINE
8
BLACK
6
CONTINUOUS
10
0.57774
20
1.02074
11
0.574256
21
1.01726
0
LINE
8
BLACK
6
CONTINUOUS
10
0.574256
20
1.01726
11
0.569866
21
1.01502
0
LINE
8
BLACK
6
CONTINUOUS
10
0.569866
20
1.01502
11
0.565
21
1.01425
0
LINE
8
BLACK
6
CONTINUOUS
10
0.565
20
1.01425
11
0.560134
21
1.01502
0
LINE
8
BLACK
6
CONTINUOUS
10
0.560134
20
1.01502
11
0.555744
21
1.01726
0
LINE
8
BLACK
6
CONTINUOUS
10
0.555744
20
1.01726
11
0.55226
21
1.02074
0
LINE
8
BLACK
6
CONTINUOUS
10
0.55226
20
1.02074
11
0.550121
21
1.02494
0
LINE
8
BLACK
6
CONTINUOUS
10
0.550121
20
1.02494
11
0.471929
21
1.02494
0
LINE
8
BLACK
6
CONTINUOUS
10
0.471929
20
1.02494
11
0.469052
21
1.02474
0
LINE
8
BLACK
6
CONTINUOUS
10
0.469052
20
1.02474
11
0.466964
21
1.02412
0
LINE
8
BLACK
6
CONTINUOUS
10
0.466964
20
1.02412
11
0.463871
21
1.02321
0
LINE
8
BLACK
6
CONTINUOUS
10
0.463871
20
1.02321
11
0.463871
21
1.02321
0
LINE
8
BLACK
6
CONTINUOUS
10
0.463871
20
1.02321
11
0.463531
21
1.02311
0
LINE
8
BLACK
6
CONTINUOUS
10
0.463531
20
1.02311
11
0.463232
21
1.02292
0
LINE
8
BLACK
6
CONTINUOUS
10
0.463232
20
1.02292
11
0.458989
21
1.02019
0
LINE
8
BLACK
6
CONTINUOUS
10
0.458989
20
1.02019
11
0.458988
21
1.02019
0
LINE
8
BLACK
6
CONTINUOUS
10
0.458988
20
1.02019
11
0.45869
21
1.02
0
LINE
8
BLACK
6
CONTINUOUS
10
0.45869
20
1.02
11
0.458458
21
1.01973
0
LINE
8
BLACK
6
CONTINUOUS
10
0.458458
20
1.01973
11
0.455154
21
1.01592
0
LINE
8
BLACK
6
CONTINUOUS
10
0.455154
20
1.01592
11
0.455154
21
1.01592
0
LINE
8
BLACK
6
CONTINUOUS
10
0.455154
20
1.01592
11
0.454922
21
1.01565
0
LINE
8
BLACK
6
CONTINUOUS
10
0.454922
20
1.01565
11
0.452531
21
1.01042
0
LINE
8
BLACK
6
CONTINUOUS
10
0.452531
20
1.01042
11
0.452481
21
1.01007
0
LINE
8
BLACK
6
CONTINUOUS
10
0.452481
20
1.01007
11
0.452481
21
1.01007
0
LINE
8
BLACK
6
CONTINUOUS
10
0.452481
20
1.01007
11
0.451738
21
1.0049
0
LINE
8
BLACK
6
CONTINUOUS
10
0.451738
20
1.0049
11
0.451738
21
1.0049
0
LINE
8
BLACK
6
CONTINUOUS
10
0.451738
20
1.0049
11
0.451713
21
1.00472
0
LINE
8
BLACK
6
CONTINUOUS
10
0.451713
20
1.00472
11
0.451713
21
0.866929
0
LINE
8
BLACK
6
CONTINUOUS
10
0.451713
20
0.866929
11
0.451918
21
0.864052
0
LINE
8
BLACK
6
CONTINUOUS
10
0.451918
20
0.864052
11
0.45354
21
0.858531
0
LINE
8
BLACK
6
CONTINUOUS
10
0.45354
20
0.858531
11
0.453731
21
0.858232
0
LINE
8
BLACK
6
CONTINUOUS
10
0.453731
20
0.858232
11
0.456459
21
0.853989
0
LINE
8
BLACK
6
CONTINUOUS
10
0.456459
20
0.853989
11
0.456459
21
0.853988
0
LINE
8
BLACK
6
CONTINUOUS
10
0.456459
20
0.853988
11
0.456651
21
0.85369
0
LINE
8
BLACK
6
CONTINUOUS
10
0.456651
20
0.85369
11
0.456919
21
0.853458
0
LINE
8
BLACK
6
CONTINUOUS
10
0.456919
20
0.853458
11
0.460731
21
0.850154
0
LINE
8
BLACK
6
CONTINUOUS
10
0.460731
20
0.850154
11
0.460731
21
0.850154
0
LINE
8
BLACK
6
CONTINUOUS
10
0.460731
20
0.850154
11
0.460999
21
0.849922
0
LINE
8
BLACK
6
CONTINUOUS
10
0.460999
20
0.849922
11
0.466233
21
0.847531
0
LINE
8
BLACK
6
CONTINUOUS
10
0.466233
20
0.847531
11
0.466584
21
0.847481
0
LINE
8
BLACK
6
CONTINUOUS
10
0.466584
20
0.847481
11
0.466584
21
0.847481
0
LINE
8
BLACK
6
CONTINUOUS
10
0.466584
20
0.847481
11
0.471754
21
0.846738
0
LINE
8
BLACK
6
CONTINUOUS
10
0.471754
20
0.846738
11
0.471754
21
0.846738
0
LINE
8
BLACK
6
CONTINUOUS
10
0.471754
20
0.846738
11
0.471929
21
0.846713
0
LINE
8
BLACK
6
CONTINUOUS
10
0.471929
20
0.846713
11
0.55053
21
0.846713
0
LINE
8
BLACK
6
CONTINUOUS
10
0.55053
20
0.846713
11
0.553212
21
0.845925
0
LINE
8
BLACK
6
CONTINUOUS
10
0.553212
20
0.845925
11
0.555042
21
0.843813
0
LINE
8
BLACK
6
CONTINUOUS
10
0.555042
20
0.843813
11
0.55544
21
0.841046
0
LINE
8
BLACK
6
CONTINUOUS
10
0.55544
20
0.841046
11
0.554826
21
0.839272
0
LINE
8
BLACK
6
CONTINUOUS
10
0.554826
20
0.839272
11
0.552145
21
0.834628
0
LINE
8
BLACK
6
CONTINUOUS
10
0.552145
20
0.834628
11
0.549821
21
0.827477
0
LINE
8
BLACK
6
CONTINUOUS
10
0.549821
20
0.827477
11
0.549035
21
0.82
0
LINE
8
BLACK
6
CONTINUOUS
10
0.549035
20
0.82
11
0.549063
21
0.819742
0
LINE
8
BLACK
6
CONTINUOUS
10
0.549063
20
0.819742
11
0.549584
21
0.814777
0
LINE
8
BLACK
6
CONTINUOUS
10
0.549584
20
0.814777
11
0.549821
21
0.812523
0
LINE
8
BLACK
6
CONTINUOUS
10
0.549821
20
0.812523
11
0.549902
21
0.812275
0
LINE
8
BLACK
6
CONTINUOUS
10
0.549902
20
0.812275
11
0.549902
21
0.812275
0
LINE
8
BLACK
6
CONTINUOUS
10
0.549902
20
0.812275
11
0.550466
21
0.810539
0
LINE
8
BLACK
6
CONTINUOUS
10
0.550466
20
0.810539
11
0.552145
21
0.805372
0
LINE
8
BLACK
6
CONTINUOUS
10
0.552145
20
0.805372
11
0.555904
21
0.798861
0
LINE
8
BLACK
6
CONTINUOUS
10
0.555904
20
0.798861
11
0.560935
21
0.793273
0
LINE
8
BLACK
6
CONTINUOUS
10
0.560935
20
0.793273
11
0.561145
21
0.79312
0
LINE
8
BLACK
6
CONTINUOUS
10
0.561145
20
0.79312
11
0.561145
21
0.79312
0
LINE
8
BLACK
6
CONTINUOUS
10
0.561145
20
0.79312
11
0.565681
21
0.789825
0
LINE
8
BLACK
6
CONTINUOUS
10
0.565681
20
0.789825
11
0.567018
21
0.788854
0
LINE
8
BLACK
6
CONTINUOUS
10
0.567018
20
0.788854
11
0.567255
21
0.788748
0
LINE
8
BLACK
6
CONTINUOUS
10
0.567255
20
0.788748
11
0.567255
21
0.788748
0
LINE
8
BLACK
6
CONTINUOUS
10
0.567255
20
0.788748
11
0.573649
21
0.785901
0
LINE
8
BLACK
6
CONTINUOUS
10
0.573649
20
0.785901
11
0.573886
21
0.785796
0
LINE
8
BLACK
6
CONTINUOUS
10
0.573886
20
0.785796
11
0.577564
21
0.785014
0
LINE
8
BLACK
6
CONTINUOUS
10
0.577564
20
0.785014
11
0.580986
21
0.784286
0
LINE
8
BLACK
6
CONTINUOUS
10
0.580986
20
0.784286
11
0.580987
21
0.784286
0
LINE
8
BLACK
6
CONTINUOUS
10
0.580987
20
0.784286
11
0.581241
21
0.784232
0
LINE
8
BLACK
6
CONTINUOUS
10
0.581241
20
0.784232
11
0.588759
21
0.784232
0
LINE
8
BLACK
6
CONTINUOUS
10
0.588759
20
0.784232
11
0.589013
21
0.784286
0
LINE
8
BLACK
6
CONTINUOUS
10
0.589013
20
0.784286
11
0.589014
21
0.784286
0
LINE
8
BLACK
6
CONTINUOUS
10
0.589014
20
0.784286
11
0.592436
21
0.785014
0
LINE
8
BLACK
6
CONTINUOUS
10
0.592436
20
0.785014
11
0.596114
21
0.785796
0
LINE
8
BLACK
6
CONTINUOUS
10
0.596114
20
0.785796
11
0.596351
21
0.785901
0
LINE
8
BLACK
6
CONTINUOUS
10
0.596351
20
0.785901
11
0.602745
21
0.788748
0
LINE
8
BLACK
6
CONTINUOUS
10
0.602745
20
0.788748
11
0.602745
21
0.788748
0
LINE
8
BLACK
6
CONTINUOUS
10
0.602745
20
0.788748
11
0.602982
21
0.788854
0
LINE
8
BLACK
6
CONTINUOUS
10
0.602982
20
0.788854
11
0.604319
21
0.789825
0
LINE
8
BLACK
6
CONTINUOUS
10
0.604319
20
0.789825
11
0.608855
21
0.79312
0
LINE
8
BLACK
6
CONTINUOUS
10
0.608855
20
0.79312
11
0.608855
21
0.79312
0
LINE
8
BLACK
6
CONTINUOUS
10
0.608855
20
0.79312
11
0.609065
21
0.793273
0
LINE
8
BLACK
6
CONTINUOUS
10
0.609065
20
0.793273
11
0.614096
21
0.798861
0
LINE
8
BLACK
6
CONTINUOUS
10
0.614096
20
0.798861
11
0.61672
21
0.803405
0
LINE
8
BLACK
6
CONTINUOUS
10
0.61672
20
0.803405
11
0.618743
21
0.805334
0
LINE
8
BLACK
6
CONTINUOUS
10
0.618743
20
0.805334
11
0.621016
21
0.805886
0
LINE
8
BLACK
6
CONTINUOUS
10
0.621016
20
0.805886
11
0.656678
21
0.805886
0
LINE
8
BLACK
6
CONTINUOUS
10
0.656678
20
0.805886
11
0.65936
21
0.805098
0
LINE
8
BLACK
6
CONTINUOUS
10
0.65936
20
0.805098
11
0.661191
21
0.802986
0
LINE
8
BLACK
6
CONTINUOUS
10
0.661191
20
0.802986
11
0.661588
21
0.800219
0
LINE
8
BLACK
6
CONTINUOUS
10
0.661588
20
0.800219
11
0.660427
21
0.797677
0
LINE
8
BLACK
6
CONTINUOUS
10
0.660427
20
0.797677
11
0.660186
21
0.797417
0
LINE
8
BLACK
6
CONTINUOUS
10
0.660186
20
0.797417
11
0.625721
21
0.762953
0
LINE
8
BLACK
6
CONTINUOUS
10
0.625721
20
0.762953
11
0.625154
21
0.762465
0
LINE
8
BLACK
6
CONTINUOUS
10
0.625154
20
0.762465
11
0.6245
21
0.761984
0
LINE
8
BLACK
6
CONTINUOUS
10
0.6245
20
0.761984
11
0.623604
21
0.76093
0
LINE
8
BLACK
6
CONTINUOUS
10
0.623604
20
0.76093
11
0.623204
21
0.760459
0
LINE
8
BLACK
6
CONTINUOUS
10
0.623204
20
0.760459
11
0.622931
21
0.760163
0
LINE
8
BLACK
6
CONTINUOUS
10
0.622931
20
0.760163
11
0.62269
21
0.759922
0
LINE
8
BLACK
6
CONTINUOUS
10
0.62269
20
0.759922
11
0.622601
21
0.759809
0
LINE
8
BLACK
6
CONTINUOUS
10
0.622601
20
0.759809
11
0.622601
21
0.759808
0
LINE
8
BLACK
6
CONTINUOUS
10
0.622601
20
0.759808
11
0.621963
21
0.759002
0
LINE
8
BLACK
6
CONTINUOUS
10
0.621963
20
0.759002
11
0.621853
21
0.758868
0
LINE
8
BLACK
6
CONTINUOUS
10
0.621853
20
0.758868
11
0.620179
21
0.756898
0
LINE
8
BLACK
6
CONTINUOUS
10
0.620179
20
0.756898
11
0.619992
21
0.756678
0
LINE
8
BLACK
6
CONTINUOUS
10
0.619992
20
0.756678
11
0.619861
21
0.756421
0
LINE
8
BLACK
6
CONTINUOUS
10
0.619861
20
0.756421
11
0.619729
21
0.756224
0
LINE
8
BLACK
6
CONTINUOUS
10
0.619729
20
0.756224
11
0.619604
21
0.756021
0
LINE
8
BLACK
6
CONTINUOUS
10
0.619604
20
0.756021
11
0.619425
21
0.755795
0
LINE
8
BLACK
6
CONTINUOUS
10
0.619425
20
0.755795
11
0.619303
21
0.755534
0
LINE
8
BLACK
6
CONTINUOUS
10
0.619303
20
0.755534
11
0.619274
21
0.755472
0
LINE
8
BLACK
6
CONTINUOUS
10
0.619274
20
0.755472
11
0.619243
21
0.755436
0
LINE
8
BLACK
6
CONTINUOUS
10
0.619243
20
0.755436
11
0.619152
21
0.755289
0
LINE
8
BLACK
6
CONTINUOUS
10
0.619152
20
0.755289
11
0.619127
21
0.755305
0
LINE
8
BLACK
6
CONTINUOUS
10
0.619127
20
0.755305
11
0.617425
21
0.753375
0
LINE
8
BLACK
6
CONTINUOUS
10
0.617425
20
0.753375
11
0.614736
21
0.752612
0
LINE
8
BLACK
6
CONTINUOUS
10
0.614736
20
0.752612
11
0.614074
21
0.752662
0
LINE
8
BLACK
6
CONTINUOUS
10
0.614074
20
0.752662
11
0.6099
21
0.753262
0
LINE
8
BLACK
6
CONTINUOUS
10
0.6099
20
0.753262
11
0.609899
21
0.753262
0
LINE
8
BLACK
6
CONTINUOUS
10
0.609899
20
0.753262
11
0.609724
21
0.753287
0
LINE
8
BLACK
6
CONTINUOUS
10
0.609724
20
0.753287
11
0.579228
21
0.753287
0
LINE
8
BLACK
6
CONTINUOUS
10
0.579228
20
0.753287
11
0.57721
21
0.753716
0
LINE
8
BLACK
6
CONTINUOUS
10
0.57721
20
0.753716
11
0.576351
21
0.754099
0
LINE
8
BLACK
6
CONTINUOUS
10
0.576351
20
0.754099
11
0.576351
21
0.754099
0
LINE
8
BLACK
6
CONTINUOUS
10
0.576351
20
0.754099
11
0.576114
21
0.754204
0
LINE
8
BLACK
6
CONTINUOUS
10
0.576114
20
0.754204
11
0.572436
21
0.754986
0
LINE
8
BLACK
6
CONTINUOUS
10
0.572436
20
0.754986
11
0.569014
21
0.755714
0
LINE
8
BLACK
6
CONTINUOUS
10
0.569014
20
0.755714
11
0.569013
21
0.755714
0
LINE
8
BLACK
6
CONTINUOUS
10
0.569013
20
0.755714
11
0.568759
21
0.755768
0
LINE
8
BLACK
6
CONTINUOUS
10
0.568759
20
0.755768
11
0.561241
21
0.755768
0
LINE
8
BLACK
6
CONTINUOUS
10
0.561241
20
0.755768
11
0.560987
21
0.755714
0
LINE
8
BLACK
6
CONTINUOUS
10
0.560987
20
0.755714
11
0.560986
21
0.755714
0
LINE
8
BLACK
6
CONTINUOUS
10
0.560986
20
0.755714
11
0.557564
21
0.754986
0
LINE
8
BLACK
6
CONTINUOUS
10
0.557564
20
0.754986
11
0.553886
21
0.754204
0
LINE
8
BLACK
6
CONTINUOUS
10
0.553886
20
0.754204
11
0.553649
21
0.754099
0
LINE
8
BLACK
6
CONTINUOUS
10
0.553649
20
0.754099
11
0.553649
21
0.754099
0
LINE
8
BLACK
6
CONTINUOUS
10
0.553649
20
0.754099
11
0.55279
21
0.753716
0
LINE
8
BLACK
6
CONTINUOUS
10
0.55279
20
0.753716
11
0.550772
21
0.753287
0
LINE
8
BLACK
6
CONTINUOUS
10
0.550772
20
0.753287
11
0.471929
21
0.753287
0
LINE
8
BLACK
6
CONTINUOUS
10
0.471929
20
0.753287
11
0.469052
21
0.753082
0
LINE
8
BLACK
6
CONTINUOUS
10
0.469052
20
0.753082
11
0.466964
21
0.752469
0
LINE
8
BLACK
6
CONTINUOUS
10
0.466964
20
0.752469
11
0.463871
21
0.75156
0
LINE
8
BLACK
6
CONTINUOUS
10
0.463871
20
0.75156
11
0.463871
21
0.75156
0
LINE
8
BLACK
6
CONTINUOUS
10
0.463871
20
0.75156
11
0.463531
21
0.75146
0
LINE
8
BLACK
6
CONTINUOUS
10
0.463531
20
0.75146
11
0.463232
21
0.751269
0
LINE
8
BLACK
6
CONTINUOUS
10
0.463232
20
0.751269
11
0.458989
21
0.748541
0
LINE
8
BLACK
6
CONTINUOUS
10
0.458989
20
0.748541
11
0.458988
21
0.748541
0
LINE
8
BLACK
6
CONTINUOUS
10
0.458988
20
0.748541
11
0.45869
21
0.748349
0
LINE
8
BLACK
6
CONTINUOUS
10
0.45869
20
0.748349
11
0.458458
21
0.748081
0
LINE
8
BLACK
6
CONTINUOUS
10
0.458458
20
0.748081
11
0.455154
21
0.744269
0
LINE
8
BLACK
6
CONTINUOUS
10
0.455154
20
0.744269
11
0.455154
21
0.744269
0
LINE
8
BLACK
6
CONTINUOUS
10
0.455154
20
0.744269
11
0.454922
21
0.744001
0
LINE
8
BLACK
6
CONTINUOUS
10
0.454922
20
0.744001
11
0.454774
21
0.743678
0
LINE
8
BLACK
6
CONTINUOUS
10
0.454774
20
0.743678
11
0.45356
21
0.741018
0
LINE
8
BLACK
6
CONTINUOUS
10
0.45356
20
0.741018
11
0.452531
21
0.738767
0
LINE
8
BLACK
6
CONTINUOUS
10
0.452531
20
0.738767
11
0.452481
21
0.738416
0
LINE
8
BLACK
6
CONTINUOUS
10
0.452481
20
0.738416
11
0.452481
21
0.738416
0
LINE
8
BLACK
6
CONTINUOUS
10
0.452481
20
0.738416
11
0.451738
21
0.733246
0
LINE
8
BLACK
6
CONTINUOUS
10
0.451738
20
0.733246
11
0.451738
21
0.733246
0
LINE
8
BLACK
6
CONTINUOUS
10
0.451738
20
0.733246
11
0.451713
21
0.733071
0
LINE
8
BLACK
6
CONTINUOUS
10
0.451713
20
0.733071
11
0.451713
21
0.595276
0
LINE
8
BLACK
6
CONTINUOUS
10
0.451713
20
0.595276
11
0.451918
21
0.592398
0
LINE
8
BLACK
6
CONTINUOUS
10
0.451918
20
0.592398
11
0.45354
21
0.586877
0
LINE
8
BLACK
6
CONTINUOUS
10
0.45354
20
0.586877
11
0.453731
21
0.586579
0
LINE
8
BLACK
6
CONTINUOUS
10
0.453731
20
0.586579
11
0.456459
21
0.582335
0
LINE
8
BLACK
6
CONTINUOUS
10
0.456459
20
0.582335
11
0.456459
21
0.582335
0
LINE
8
BLACK
6
CONTINUOUS
10
0.456459
20
0.582335
11
0.456651
21
0.582037
0
LINE
8
BLACK
6
CONTINUOUS
10
0.456651
20
0.582037
11
0.456919
21
0.581804
0
LINE
8
BLACK
6
CONTINUOUS
10
0.456919
20
0.581804
11
0.460731
21
0.578501
0
LINE
8
BLACK
6
CONTINUOUS
10
0.460731
20
0.578501
11
0.460731
21
0.578501
0
LINE
8
BLACK
6
CONTINUOUS
10
0.460731
20
0.578501
11
0.460999
21
0.578268
0
LINE
8
BLACK
6
CONTINUOUS
10
0.460999
20
0.578268
11
0.466233
21
0.575878
0
LINE
8
BLACK
6
CONTINUOUS
10
0.466233
20
0.575878
11
0.466584
21
0.575827
0
LINE
8
BLACK
6
CONTINUOUS
10
0.466584
20
0.575827
11
0.466584
21
0.575827
0
LINE
8
BLACK
6
CONTINUOUS
10
0.466584
20
0.575827
11
0.471754
21
0.575084
0
LINE
8
BLACK
6
CONTINUOUS
10
0.471754
20
0.575084
11
0.471754
21
0.575084
0
LINE
8
BLACK
6
CONTINUOUS
10
0.471754
20
0.575084
11
0.471929
21
0.575059
0
LINE
8
BLACK
6
CONTINUOUS
10
0.471929
20
0.575059
11
0.609724
21
0.575059
0
LINE
8
BLACK
6
CONTINUOUS
10
0.609724
20
0.575059
11
0.612602
21
0.575265
0
LINE
8
BLACK
6
CONTINUOUS
10
0.612602
20
0.575265
11
0.616949
21
0.576541
0
LINE
8
BLACK
6
CONTINUOUS
10
0.616949
20
0.576541
11
0.617782
21
0.576786
0
LINE
8
BLACK
6
CONTINUOUS
10
0.617782
20
0.576786
11
0.617782
21
0.576786
0
LINE
8
BLACK
6
CONTINUOUS
10
0.617782
20
0.576786
11
0.618123
21
0.576886
0
LINE
8
BLACK
6
CONTINUOUS
10
0.618123
20
0.576886
11
0.620044
21
0.578121
0
LINE
8
BLACK
6
CONTINUOUS
10
0.620044
20
0.578121
11
0.622665
21
0.579805
0
LINE
8
BLACK
6
CONTINUOUS
10
0.622665
20
0.579805
11
0.622665
21
0.579805
0
LINE
8
BLACK
6
CONTINUOUS
10
0.622665
20
0.579805
11
0.622963
21
0.579997
0
LINE
8
BLACK
6
CONTINUOUS
10
0.622963
20
0.579997
11
0.623953
21
0.581139
0
LINE
8
BLACK
6
CONTINUOUS
10
0.623953
20
0.581139
11
0.626499
21
0.584078
0
LINE
8
BLACK
6
CONTINUOUS
10
0.626499
20
0.584078
11
0.626499
21
0.584078
0
LINE
8
BLACK
6
CONTINUOUS
10
0.626499
20
0.584078
11
0.626732
21
0.584346
0
LINE
8
BLACK
6
CONTINUOUS
10
0.626732
20
0.584346
11
0.629122
21
0.58958
0
LINE
8
BLACK
6
CONTINUOUS
10
0.629122
20
0.58958
11
0.629787
21
0.594204
0
LINE
8
BLACK
6
CONTINUOUS
10
0.629787
20
0.594204
11
0.629916
21
0.5951
0
LINE
8
BLACK
6
CONTINUOUS
10
0.629916
20
0.5951
11
0.629916
21
0.595101
0
LINE
8
BLACK
6
CONTINUOUS
10
0.629916
20
0.595101
11
0.629941
21
0.595276
0
LINE
8
BLACK
6
CONTINUOUS
10
0.629941
20
0.595276
11
0.629941
21
0.600508
0
LINE
8
BLACK
6
CONTINUOUS
10
0.629941
20
0.600508
11
0.630728
21
0.60319
0
LINE
8
BLACK
6
CONTINUOUS
10
0.630728
20
0.60319
11
0.632841
21
0.605021
0
LINE
8
BLACK
6
CONTINUOUS
10
0.632841
20
0.605021
11
0.635608
21
0.605419
0
LINE
8
BLACK
6
CONTINUOUS
10
0.635608
20
0.605419
11
0.635933
21
0.605361
0
LINE
8
BLACK
6
CONTINUOUS
10
0.635933
20
0.605361
11
0.640986
21
0.604286
0
LINE
8
BLACK
6
CONTINUOUS
10
0.640986
20
0.604286
11
0.640987
21
0.604286
0
LINE
8
BLACK
6
CONTINUOUS
10
0.640987
20
0.604286
11
0.641241
21
0.604232
0
LINE
8
BLACK
6
CONTINUOUS
10
0.641241
20
0.604232
11
0.648759
21
0.604232
0
LINE
8
BLACK
6
CONTINUOUS
10
0.648759
20
0.604232
11
0.649013
21
0.604286
0
LINE
8
BLACK
6
CONTINUOUS
10
0.649013
20
0.604286
11
0.649014
21
0.604286
0
LINE
8
BLACK
6
CONTINUOUS
10
0.649014
20
0.604286
11
0.652468
21
0.605021
0
LINE
8
BLACK
6
CONTINUOUS
10
0.652468
20
0.605021
11
0.656114
21
0.605796
0
LINE
8
BLACK
6
CONTINUOUS
10
0.656114
20
0.605796
11
0.660059
21
0.607552
0
LINE
8
BLACK
6
CONTINUOUS
10
0.660059
20
0.607552
11
0.662745
21
0.608748
0
LINE
8
BLACK
6
CONTINUOUS
10
0.662745
20
0.608748
11
0.662745
21
0.608748
0
LINE
8
BLACK
6
CONTINUOUS
10
0.662745
20
0.608748
11
0.662982
21
0.608854
0
LINE
8
BLACK
6
CONTINUOUS
10
0.662982
20
0.608854
11
0.664404
21
0.609887
0
LINE
8
BLACK
6
CONTINUOUS
10
0.664404
20
0.609887
11
0.668855
21
0.61312
0
LINE
8
BLACK
6
CONTINUOUS
10
0.668855
20
0.61312
11
0.668855
21
0.61312
0
LINE
8
BLACK
6
CONTINUOUS
10
0.668855
20
0.61312
11
0.669065
21
0.613273
0
LINE
8
BLACK
6
CONTINUOUS
10
0.669065
20
0.613273
11
0.674096
21
0.618861
0
LINE
8
BLACK
6
CONTINUOUS
10
0.674096
20
0.618861
11
0.677855
21
0.625372
0
LINE
8
BLACK
6
CONTINUOUS
10
0.677855
20
0.625372
11
0.678394
21
0.627031
0
LINE
8
BLACK
6
CONTINUOUS
10
0.678394
20
0.627031
11
0.675744
21
0.628382
0
LINE
8
BLACK
6
CONTINUOUS
10
0.675744
20
0.628382
11
0.67226
21
0.631866
0
LINE
8
BLACK
6
CONTINUOUS
10
0.67226
20
0.631866
11
0.670023
21
0.636256
0
LINE
8
BLACK
6
CONTINUOUS
10
0.670023
20
0.636256
11
0.669252
21
0.641122
0
LINE
8
BLACK
6
CONTINUOUS
10
0.669252
20
0.641122
11
0.670023
21
0.645989
0
LINE
8
BLACK
6
CONTINUOUS
10
0.670023
20
0.645989
11
0.67226
21
0.650379
0
LINE
8
BLACK
6
CONTINUOUS
10
0.67226
20
0.650379
11
0.675744
21
0.653863
0
LINE
8
BLACK
6
CONTINUOUS
10
0.675744
20
0.653863
11
0.677717
21
0.654868
0
LINE
8
BLACK
6
CONTINUOUS
10
0.677717
20
0.654868
11
0.675527
21
0.658661
0
LINE
8
BLACK
6
CONTINUOUS
10
0.675527
20
0.658661
11
0.674862
21
0.661141
0
LINE
8
BLACK
6
CONTINUOUS
10
0.674862
20
0.661141
11
0.674862
21
0.725576
0
LINE
8
BLACK
6
CONTINUOUS
10
0.674862
20
0.725576
11
0.67565
21
0.728258
0
LINE
8
BLACK
6
CONTINUOUS
10
0.67565
20
0.728258
11
0.676315
21
0.729084
0
LINE
8
BLACK
6
CONTINUOUS
10
0.676315
20
0.729084
11
0.711155
21
0.763923
0
LINE
8
BLACK
6
CONTINUOUS
10
0.711155
20
0.763923
11
0.713631
21
0.765268
0
LINE
8
BLACK
6
CONTINUOUS
10
0.713631
20
0.765268
11
0.716114
21
0.765796
0
LINE
8
BLACK
6
CONTINUOUS
10
0.716114
20
0.765796
11
0.71715
21
0.766257
0
LINE
8
BLACK
6
CONTINUOUS
10
0.71715
20
0.766257
11
0.722745
21
0.768748
0
LINE
8
BLACK
6
CONTINUOUS
10
0.722745
20
0.768748
11
0.722745
21
0.768748
0
LINE
8
BLACK
6
CONTINUOUS
10
0.722745
20
0.768748
11
0.722982
21
0.768854
0
LINE
8
BLACK
6
CONTINUOUS
10
0.722982
20
0.768854
11
0.723193
21
0.769007
0
LINE
8
BLACK
6
CONTINUOUS
10
0.723193
20
0.769007
11
0.728855
21
0.77312
0
LINE
8
BLACK
6
CONTINUOUS
10
0.728855
20
0.77312
11
0.728855
21
0.77312
0
LINE
8
BLACK
6
CONTINUOUS
10
0.728855
20
0.77312
11
0.729065
21
0.773273
0
LINE
8
BLACK
6
CONTINUOUS
10
0.729065
20
0.773273
11
0.731996
21
0.776529
0
LINE
8
BLACK
6
CONTINUOUS
10
0.731996
20
0.776529
11
0.733922
21
0.778667
0
LINE
8
BLACK
6
CONTINUOUS
10
0.733922
20
0.778667
11
0.733922
21
0.778667
0
LINE
8
BLACK
6
CONTINUOUS
10
0.733922
20
0.778667
11
0.734096
21
0.778861
0
LINE
8
BLACK
6
CONTINUOUS
10
0.734096
20
0.778861
11
0.737197
21
0.784232
0
LINE
8
BLACK
6
CONTINUOUS
10
0.737197
20
0.784232
11
0.737725
21
0.785147
0
LINE
8
BLACK
6
CONTINUOUS
10
0.737725
20
0.785147
11
0.737725
21
0.785147
0
LINE
8
BLACK
6
CONTINUOUS
10
0.737725
20
0.785147
11
0.737855
21
0.785372
0
LINE
8
BLACK
6
CONTINUOUS
10
0.737855
20
0.785372
11
0.73933
21
0.789911
0
LINE
8
BLACK
6
CONTINUOUS
10
0.73933
20
0.789911
11
0.740098
21
0.792275
0
LINE
8
BLACK
6
CONTINUOUS
10
0.740098
20
0.792275
11
0.740098
21
0.792275
0
LINE
8
BLACK
6
CONTINUOUS
10
0.740098
20
0.792275
11
0.740179
21
0.792523
0
LINE
8
BLACK
6
CONTINUOUS
10
0.740179
20
0.792523
11
0.740965
21
0.8
0
LINE
8
BLACK
6
CONTINUOUS
10
0.740965
20
0.8
11
0.740922
21
0.800406
0
LINE
8
BLACK
6
CONTINUOUS
10
0.740922
20
0.800406
11
0.740937
21
0.800491
0
LINE
8
BLACK
6
CONTINUOUS
10
0.740937
20
0.800491
11
0.740937
21
0.800519
0
LINE
8
BLACK
6
CONTINUOUS
10
0.740937
20
0.800519
11
0.740942
21
0.800519
0
LINE
8
BLACK
6
CONTINUOUS
10
0.740942
20
0.800519
11
0.741425
21
0.803156
0
LINE
8
BLACK
6
CONTINUOUS
10
0.741425
20
0.803156
11
0.743334
21
0.805197
0
LINE
8
BLACK
6
CONTINUOUS
10
0.743334
20
0.805197
11
0.745855
21
0.805886
0
LINE
8
BLACK
6
CONTINUOUS
10
0.745855
20
0.805886
11
0.81815
21
0.805886
0
LINE
8
BLACK
6
CONTINUOUS
10
0.81815
20
0.805886
11
0.818896
21
0.805829
0
LINE
8
BLACK
6
CONTINUOUS
10
0.818896
20
0.805829
11
0.819414
21
0.805751
0
LINE
8
BLACK
6
CONTINUOUS
10
0.819414
20
0.805751
11
0.819414
21
0.805751
0
LINE
8
BLACK
6
CONTINUOUS
10
0.819414
20
0.805751
11
0.819699
21
0.805707
0
LINE
8
BLACK
6
CONTINUOUS
10
0.819699
20
0.805707
11
0.819986
21
0.805731
0
LINE
8
BLACK
6
CONTINUOUS
10
0.819986
20
0.805731
11
0.819986
21
0.805731
0
LINE
8
BLACK
6
CONTINUOUS
10
0.819986
20
0.805731
11
0.821693
21
0.805869
0
LINE
8
BLACK
6
CONTINUOUS
10
0.821693
20
0.805869
11
0.822095
21
0.805886
0
LINE
8
BLACK
6
CONTINUOUS
10
0.822095
20
0.805886
11
0.822436
21
0.805886
0
LINE
8
BLACK
6
CONTINUOUS
10
0.822436
20
0.805886
11
0.822579
21
0.805902
0
LINE
8
BLACK
6
CONTINUOUS
10
0.822579
20
0.805902
11
0.82258
21
0.805902
0
LINE
8
BLACK
6
CONTINUOUS
10
0.82258
20
0.805902
11
0.823602
21
0.806022
0
LINE
8
BLACK
6
CONTINUOUS
10
0.823602
20
0.806022
11
0.823774
21
0.806039
0
LINE
8
BLACK
6
CONTINUOUS
10
0.823774
20
0.806039
11
0.82412
21
0.806067
0
LINE
8
BLACK
6
CONTINUOUS
10
0.82412
20
0.806067
11
0.826638
21
0.806272
0
LINE
8
BLACK
6
CONTINUOUS
10
0.826638
20
0.806272
11
0.826912
21
0.80636
0
LINE
8
BLACK
6
CONTINUOUS
10
0.826912
20
0.80636
11
0.827144
21
0.806407
0
LINE
8
BLACK
6
CONTINUOUS
10
0.827144
20
0.806407
11
0.827377
21
0.806462
0
LINE
8
BLACK
6
CONTINUOUS
10
0.827377
20
0.806462
11
0.827663
21
0.806495
0
LINE
8
BLACK
6
CONTINUOUS
10
0.827663
20
0.806495
11
0.830365
21
0.807476
0
LINE
8
BLACK
6
CONTINUOUS
10
0.830365
20
0.807476
11
0.830527
21
0.807532
0
LINE
8
BLACK
6
CONTINUOUS
10
0.830527
20
0.807532
11
0.832987
21
0.808328
0
LINE
8
BLACK
6
CONTINUOUS
10
0.832987
20
0.808328
11
0.832987
21
0.808328
0
LINE
8
BLACK
6
CONTINUOUS
10
0.832987
20
0.808328
11
0.833261
21
0.808417
0
LINE
8
BLACK
6
CONTINUOUS
10
0.833261
20
0.808417
11
0.833507
21
0.808567
0
LINE
8
BLACK
6
CONTINUOUS
10
0.833507
20
0.808567
11
0.833723
21
0.808665
0
LINE
8
BLACK
6
CONTINUOUS
10
0.833723
20
0.808665
11
0.833936
21
0.808772
0
LINE
8
BLACK
6
CONTINUOUS
10
0.833936
20
0.808772
11
0.834207
21
0.808871
0
LINE
8
BLACK
6
CONTINUOUS
10
0.834207
20
0.808871
11
0.836611
21
0.810447
0
LINE
8
BLACK
6
CONTINUOUS
10
0.836611
20
0.810447
11
0.836756
21
0.810538
0
LINE
8
BLACK
6
CONTINUOUS
10
0.836756
20
0.810538
11
0.83771
21
0.811117
0
LINE
8
BLACK
6
CONTINUOUS
10
0.83771
20
0.811117
11
0.839024
21
0.811914
0
LINE
8
BLACK
6
CONTINUOUS
10
0.839024
20
0.811914
11
0.839024
21
0.811914
0
LINE
8
BLACK
6
CONTINUOUS
10
0.839024
20
0.811914
11
0.839213
21
0.812029
0
LINE
8
BLACK
6
CONTINUOUS
10
0.839213
20
0.812029
11
0.839579
21
0.812352
0
LINE
8
BLACK
6
CONTINUOUS
10
0.839579
20
0.812352
11
0.839681
21
0.81244
0
LINE
8
BLACK
6
CONTINUOUS
10
0.839681
20
0.81244
11
0.839788
21
0.81253
0
LINE
8
BLACK
6
CONTINUOUS
10
0.839788
20
0.81253
11
0.840029
21
0.812688
0
LINE
8
BLACK
6
CONTINUOUS
10
0.840029
20
0.812688
11
0.841964
21
0.81473
0
LINE
8
BLACK
6
CONTINUOUS
10
0.841964
20
0.81473
11
0.842057
21
0.814826
0
LINE
8
BLACK
6
CONTINUOUS
10
0.842057
20
0.814826
11
0.915916
21
0.888685
0
LINE
8
BLACK
6
CONTINUOUS
10
0.915916
20
0.888685
11
0.91837
21
0.890024
0
LINE
8
BLACK
6
CONTINUOUS
10
0.91837
20
0.890024
11
0.919424
21
0.890138
0
LINE
8
BLACK
6
CONTINUOUS
10
0.919424
20
0.890138
11
0.940391
21
0.890138
0
LINE
8
BLACK
6
CONTINUOUS
10
0.940391
20
0.890138
11
0.943072
21
0.88935
0
LINE
8
BLACK
6
CONTINUOUS
10
0.943072
20
0.88935
11
0.944903
21
0.887238
0
LINE
8
BLACK
6
CONTINUOUS
10
0.944903
20
0.887238
11
0.94515
21
0.886575
0
LINE
8
BLACK
6
CONTINUOUS
10
0.94515
20
0.886575
11
0.94661
21
0.881602
0
LINE
8
BLACK
6
CONTINUOUS
10
0.94661
20
0.881602
11
0.946802
21
0.881303
0
LINE
8
BLACK
6
CONTINUOUS
10
0.946802
20
0.881303
11
0.94953
21
0.877059
0
LINE
8
BLACK
6
CONTINUOUS
10
0.94953
20
0.877059
11
0.94953
21
0.877059
0
LINE
8
BLACK
6
CONTINUOUS
10
0.94953
20
0.877059
11
0.949721
21
0.876761
0
LINE
8
BLACK
6
CONTINUOUS
10
0.949721
20
0.876761
11
0.952715
21
0.874167
0
LINE
8
BLACK
6
CONTINUOUS
10
0.952715
20
0.874167
11
0.95319
21
0.873755
0
LINE
8
BLACK
6
CONTINUOUS
10
0.95319
20
0.873755
11
0.954701
21
0.871404
0
LINE
8
BLACK
6
CONTINUOUS
10
0.954701
20
0.871404
11
0.954701
21
0.868609
0
LINE
8
BLACK
6
CONTINUOUS
10
0.954701
20
0.868609
11
0.95319
21
0.866257
0
LINE
8
BLACK
6
CONTINUOUS
10
0.95319
20
0.866257
11
0.952624
21
0.865833
0
LINE
8
BLACK
6
CONTINUOUS
10
0.952624
20
0.865833
11
0.951761
21
0.865279
0
LINE
8
BLACK
6
CONTINUOUS
10
0.951761
20
0.865279
11
0.951529
21
0.865011
0
LINE
8
BLACK
6
CONTINUOUS
10
0.951529
20
0.865011
11
0.948225
21
0.861198
0
LINE
8
BLACK
6
CONTINUOUS
10
0.948225
20
0.861198
11
0.948225
21
0.861198
0
LINE
8
BLACK
6
CONTINUOUS
10
0.948225
20
0.861198
11
0.947993
21
0.86093
0
LINE
8
BLACK
6
CONTINUOUS
10
0.947993
20
0.86093
11
0.945602
21
0.855696
0
LINE
8
BLACK
6
CONTINUOUS
10
0.945602
20
0.855696
11
0.945552
21
0.855345
0
LINE
8
BLACK
6
CONTINUOUS
10
0.945552
20
0.855345
11
0.945552
21
0.855345
0
LINE
8
BLACK
6
CONTINUOUS
10
0.945552
20
0.855345
11
0.944809
21
0.850175
0
LINE
8
BLACK
6
CONTINUOUS
10
0.944809
20
0.850175
11
0.944809
21
0.850175
0
LINE
8
BLACK
6
CONTINUOUS
10
0.944809
20
0.850175
11
0.944783
21
0.85
0
LINE
8
BLACK
6
CONTINUOUS
10
0.944783
20
0.85
11
0.944783
21
0.79
0
LINE
8
BLACK
6
CONTINUOUS
10
0.944783
20
0.79
11
0.944989
21
0.787123
0
LINE
8
BLACK
6
CONTINUOUS
10
0.944989
20
0.787123
11
0.94661
21
0.781602
0
LINE
8
BLACK
6
CONTINUOUS
10
0.94661
20
0.781602
11
0.946802
21
0.781303
0
LINE
8
BLACK
6
CONTINUOUS
10
0.946802
20
0.781303
11
0.94953
21
0.777059
0
LINE
8
BLACK
6
CONTINUOUS
10
0.94953
20
0.777059
11
0.94953
21
0.777059
0
LINE
8
BLACK
6
CONTINUOUS
10
0.94953
20
0.777059
11
0.949721
21
0.776761
0
LINE
8
BLACK
6
CONTINUOUS
10
0.949721
20
0.776761
11
0.952715
21
0.774167
0
LINE
8
BLACK
6
CONTINUOUS
10
0.952715
20
0.774167
11
0.95319
21
0.773755
0
LINE
8
BLACK
6
CONTINUOUS
10
0.95319
20
0.773755
11
0.954701
21
0.771404
0
LINE
8
BLACK
6
CONTINUOUS
10
0.954701
20
0.771404
11
0.954701
21
0.768609
0
LINE
8
BLACK
6
CONTINUOUS
10
0.954701
20
0.768609
11
0.95319
21
0.766257
0
LINE
8
BLACK
6
CONTINUOUS
10
0.95319
20
0.766257
11
0.952624
21
0.765833
0
LINE
8
BLACK
6
CONTINUOUS
10
0.952624
20
0.765833
11
0.951761
21
0.765279
0
LINE
8
BLACK
6
CONTINUOUS
10
0.951761
20
0.765279
11
0.951529
21
0.765011
0
LINE
8
BLACK
6
CONTINUOUS
10
0.951529
20
0.765011
11
0.948225
21
0.761198
0
LINE
8
BLACK
6
CONTINUOUS
10
0.948225
20
0.761198
11
0.948225
21
0.761198
0
LINE
8
BLACK
6
CONTINUOUS
10
0.948225
20
0.761198
11
0.947993
21
0.76093
0
LINE
8
BLACK
6
CONTINUOUS
10
0.947993
20
0.76093
11
0.945602
21
0.755696
0
LINE
8
BLACK
6
CONTINUOUS
10
0.945602
20
0.755696
11
0.945552
21
0.755345
0
LINE
8
BLACK
6
CONTINUOUS
10
0.945552
20
0.755345
11
0.945552
21
0.755344
0
LINE
8
BLACK
6
CONTINUOUS
10
0.945552
20
0.755344
11
0.945375
21
0.754117
0
LINE
8
BLACK
6
CONTINUOUS
10
0.945375
20
0.754117
11
0.944214
21
0.751574
0
LINE
8
BLACK
6
CONTINUOUS
10
0.944214
20
0.751574
11
0.941863
21
0.750063
0
LINE
8
BLACK
6
CONTINUOUS
10
0.941863
20
0.750063
11
0.940465
21
0.749862
0
LINE
8
BLACK
6
CONTINUOUS
10
0.940465
20
0.749862
11
0.867598
21
0.749862
0
LINE
8
BLACK
6
CONTINUOUS
10
0.867598
20
0.749862
11
0.866852
21
0.749919
0
LINE
8
BLACK
6
CONTINUOUS
10
0.866852
20
0.749919
11
0.866334
21
0.749997
0
LINE
8
BLACK
6
CONTINUOUS
10
0.866334
20
0.749997
11
0.866334
21
0.749997
0
LINE
8
BLACK
6
CONTINUOUS
10
0.866334
20
0.749997
11
0.866049
21
0.750041
0
LINE
8
BLACK
6
CONTINUOUS
10
0.866049
20
0.750041
11
0.865762
21
0.750017
0
LINE
8
BLACK
6
CONTINUOUS
10
0.865762
20
0.750017
11
0.865762
21
0.750017
0
LINE
8
BLACK
6
CONTINUOUS
10
0.865762
20
0.750017
11
0.864055
21
0.749879
0
LINE
8
BLACK
6
CONTINUOUS
10
0.864055
20
0.749879
11
0.863653
21
0.749862
0
LINE
8
BLACK
6
CONTINUOUS
10
0.863653
20
0.749862
11
0.863312
21
0.749862
0
LINE
8
BLACK
6
CONTINUOUS
10
0.863312
20
0.749862
11
0.863169
21
0.749846
0
LINE
8
BLACK
6
CONTINUOUS
10
0.863169
20
0.749846
11
0.863168
21
0.749846
0
LINE
8
BLACK
6
CONTINUOUS
10
0.863168
20
0.749846
11
0.862146
21
0.749726
0
LINE
8
BLACK
6
CONTINUOUS
10
0.862146
20
0.749726
11
0.861974
21
0.749709
0
LINE
8
BLACK
6
CONTINUOUS
10
0.861974
20
0.749709
11
0.861628
21
0.749681
0
LINE
8
BLACK
6
CONTINUOUS
10
0.861628
20
0.749681
11
0.85911
21
0.749476
0
LINE
8
BLACK
6
CONTINUOUS
10
0.85911
20
0.749476
11
0.858836
21
0.749388
0
LINE
8
BLACK
6
CONTINUOUS
10
0.858836
20
0.749388
11
0.858604
21
0.749341
0
LINE
8
BLACK
6
CONTINUOUS
10
0.858604
20
0.749341
11
0.858371
21
0.749286
0
LINE
8
BLACK
6
CONTINUOUS
10
0.858371
20
0.749286
11
0.858085
21
0.749253
0
LINE
8
BLACK
6
CONTINUOUS
10
0.858085
20
0.749253
11
0.855383
21
0.748272
0
LINE
8
BLACK
6
CONTINUOUS
10
0.855383
20
0.748272
11
0.855221
21
0.748216
0
LINE
8
BLACK
6
CONTINUOUS
10
0.855221
20
0.748216
11
0.852761
21
0.74742
0
LINE
8
BLACK
6
CONTINUOUS
10
0.852761
20
0.74742
11
0.852761
21
0.74742
0
LINE
8
BLACK
6
CONTINUOUS
10
0.852761
20
0.74742
11
0.852487
21
0.747331
0
LINE
8
BLACK
6
CONTINUOUS
10
0.852487
20
0.747331
11
0.852241
21
0.747181
0
LINE
8
BLACK
6
CONTINUOUS
10
0.852241
20
0.747181
11
0.852025
21
0.747083
0
LINE
8
BLACK
6
CONTINUOUS
10
0.852025
20
0.747083
11
0.851812
21
0.746976
0
LINE
8
BLACK
6
CONTINUOUS
10
0.851812
20
0.746976
11
0.851541
21
0.746877
0
LINE
8
BLACK
6
CONTINUOUS
10
0.851541
20
0.746877
11
0.849137
21
0.745301
0
LINE
8
BLACK
6
CONTINUOUS
10
0.849137
20
0.745301
11
0.848992
21
0.74521
0
LINE
8
BLACK
6
CONTINUOUS
10
0.848992
20
0.74521
11
0.848038
21
0.744631
0
LINE
8
BLACK
6
CONTINUOUS
10
0.848038
20
0.744631
11
0.846724
21
0.743834
0
LINE
8
BLACK
6
CONTINUOUS
10
0.846724
20
0.743834
11
0.846724
21
0.743834
0
LINE
8
BLACK
6
CONTINUOUS
10
0.846724
20
0.743834
11
0.846535
21
0.743719
0
LINE
8
BLACK
6
CONTINUOUS
10
0.846535
20
0.743719
11
0.84637
21
0.743573
0
LINE
8
BLACK
6
CONTINUOUS
10
0.84637
20
0.743573
11
0.846169
21
0.743396
0
LINE
8
BLACK
6
CONTINUOUS
10
0.846169
20
0.743396
11
0.846067
21
0.743308
0
LINE
8
BLACK
6
CONTINUOUS
10
0.846067
20
0.743308
11
0.84596
21
0.743218
0
LINE
8
BLACK
6
CONTINUOUS
10
0.84596
20
0.743218
11
0.845719
21
0.74306
0
LINE
8
BLACK
6
CONTINUOUS
10
0.845719
20
0.74306
11
0.84552
21
0.742851
0
LINE
8
BLACK
6
CONTINUOUS
10
0.84552
20
0.742851
11
0.843784
21
0.741018
0
LINE
8
BLACK
6
CONTINUOUS
10
0.843784
20
0.741018
11
0.843691
21
0.740922
0
LINE
8
BLACK
6
CONTINUOUS
10
0.843691
20
0.740922
11
0.698845
21
0.596077
0
LINE
8
BLACK
6
CONTINUOUS
10
0.698845
20
0.596077
11
0.696369
21
0.594732
0
LINE
8
BLACK
6
CONTINUOUS
10
0.696369
20
0.594732
11
0.693886
21
0.594204
0
LINE
8
BLACK
6
CONTINUOUS
10
0.693886
20
0.594204
11
0.693649
21
0.594099
0
LINE
8
BLACK
6
CONTINUOUS
10
0.693649
20
0.594099
11
0.693649
21
0.594099
0
LINE
8
BLACK
6
CONTINUOUS
10
0.693649
20
0.594099
11
0.687255
21
0.591252
0
LINE
8
BLACK
6
CONTINUOUS
10
0.687255
20
0.591252
11
0.687255
21
0.591252
0
LINE
8
BLACK
6
CONTINUOUS
10
0.687255
20
0.591252
11
0.687018
21
0.591146
0
LINE
8
BLACK
6
CONTINUOUS
10
0.687018
20
0.591146
11
0.686807
21
0.590993
0
LINE
8
BLACK
6
CONTINUOUS
10
0.686807
20
0.590993
11
0.686807
21
0.590993
0
LINE
8
BLACK
6
CONTINUOUS
10
0.686807
20
0.590993
11
0.681145
21
0.58688
0
LINE
8
BLACK
6
CONTINUOUS
10
0.681145
20
0.58688
11
0.681145
21
0.58688
0
LINE
8
BLACK
6
CONTINUOUS
10
0.681145
20
0.58688
11
0.680935
21
0.586727
0
LINE
8
BLACK
6
CONTINUOUS
10
0.680935
20
0.586727
11
0.680761
21
0.586534
0
LINE
8
BLACK
6
CONTINUOUS
10
0.680761
20
0.586534
11
0.680761
21
0.586534
0
LINE
8
BLACK
6
CONTINUOUS
10
0.680761
20
0.586534
11
0.676981
21
0.582335
0
LINE
8
BLACK
6
CONTINUOUS
10
0.676981
20
0.582335
11
0.675904
21
0.581139
0
LINE
8
BLACK
6
CONTINUOUS
10
0.675904
20
0.581139
11
0.673893
21
0.577656
0
LINE
8
BLACK
6
CONTINUOUS
10
0.673893
20
0.577656
11
0.672397
21
0.575065
0
LINE
8
BLACK
6
CONTINUOUS
10
0.672397
20
0.575065
11
0.672145
21
0.574628
0
LINE
8
BLACK
6
CONTINUOUS
10
0.672145
20
0.574628
11
0.672064
21
0.574381
0
LINE
8
BLACK
6
CONTINUOUS
10
0.672064
20
0.574381
11
0.670585
21
0.569828
0
LINE
8
BLACK
6
CONTINUOUS
10
0.670585
20
0.569828
11
0.669821
21
0.567477
0
LINE
8
BLACK
6
CONTINUOUS
10
0.669821
20
0.567477
11
0.669035
21
0.56
0
LINE
8
BLACK
6
CONTINUOUS
10
0.669035
20
0.56
11
0.669821
21
0.552523
0
LINE
8
BLACK
6
CONTINUOUS
10
0.669821
20
0.552523
11
0.672145
21
0.545372
0
LINE
8
BLACK
6
CONTINUOUS
10
0.672145
20
0.545372
11
0.675904
21
0.538861
0
LINE
8
BLACK
6
CONTINUOUS
10
0.675904
20
0.538861
11
0.680935
21
0.533273
0
LINE
8
BLACK
6
CONTINUOUS
10
0.680935
20
0.533273
11
0.681145
21
0.53312
0
LINE
8
BLACK
6
CONTINUOUS
10
0.681145
20
0.53312
11
0.681145
21
0.53312
0
LINE
8
BLACK
6
CONTINUOUS
10
0.681145
20
0.53312
11
0.686807
21
0.529007
0
LINE
8
BLACK
6
CONTINUOUS
10
0.686807
20
0.529007
11
0.687018
21
0.528854
0
LINE
8
BLACK
6
CONTINUOUS
10
0.687018
20
0.528854
11
0.687255
21
0.528748
0
LINE
8
BLACK
6
CONTINUOUS
10
0.687255
20
0.528748
11
0.687255
21
0.528748
0
LINE
8
BLACK
6
CONTINUOUS
10
0.687255
20
0.528748
11
0.693649
21
0.525901
0
LINE
8
BLACK
6
CONTINUOUS
10
0.693649
20
0.525901
11
0.693886
21
0.525796
0
LINE
8
BLACK
6
CONTINUOUS
10
0.693886
20
0.525796
11
0.697564
21
0.525014
0
LINE
8
BLACK
6
CONTINUOUS
10
0.697564
20
0.525014
11
0.700986
21
0.524286
0
LINE
8
BLACK
6
CONTINUOUS
10
0.700986
20
0.524286
11
0.700987
21
0.524286
0
LINE
8
BLACK
6
CONTINUOUS
10
0.700987
20
0.524286
11
0.701241
21
0.524232
0
LINE
8
BLACK
6
CONTINUOUS
10
0.701241
20
0.524232
11
0.708759
21
0.524232
0
LINE
8
BLACK
6
CONTINUOUS
10
0.708759
20
0.524232
11
0.709013
21
0.524286
0
LINE
8
BLACK
6
CONTINUOUS
10
0.709013
20
0.524286
11
0.709014
21
0.524286
0
LINE
8
BLACK
6
CONTINUOUS
10
0.709014
20
0.524286
11
0.712436
21
0.525014
0
LINE
8
BLACK
6
CONTINUOUS
10
0.712436
20
0.525014
11
0.716114
21
0.525796
0
LINE
8
BLACK
6
CONTINUOUS
10
0.716114
20
0.525796
11
0.716351
21
0.525901
0
LINE
8
BLACK
6
CONTINUOUS
10
0.716351
20
0.525901
11
0.722745
21
0.528748
0
LINE
8
BLACK
6
CONTINUOUS
10
0.722745
20
0.528748
11
0.722745
21
0.528748
0
LINE
8
BLACK
6
CONTINUOUS
10
0.722745
20
0.528748
11
0.722982
21
0.528854
0
LINE
8
BLACK
6
CONTINUOUS
10
0.722982
20
0.528854
11
0.723193
21
0.529007
0
LINE
8
BLACK
6
CONTINUOUS
10
0.723193
20
0.529007
11
0.728855
21
0.53312
0
LINE
8
BLACK
6
CONTINUOUS
10
0.728855
20
0.53312
11
0.728855
21
0.53312
0
LINE
8
BLACK
6
CONTINUOUS
10
0.728855
20
0.53312
11
0.729065
21
0.533273
0
LINE
8
BLACK
6
CONTINUOUS
10
0.729065
20
0.533273
11
0.734096
21
0.538861
0
LINE
8
BLACK
6
CONTINUOUS
10
0.734096
20
0.538861
11
0.737855
21
0.545372
0
LINE
8
BLACK
6
CONTINUOUS
10
0.737855
20
0.545372
11
0.740015
21
0.552019
0
LINE
8
BLACK
6
CONTINUOUS
10
0.740015
20
0.552019
11
0.741225
21
0.553994
0
LINE
8
BLACK
6
CONTINUOUS
10
0.741225
20
0.553994
11
0.875916
21
0.688685
0
LINE
8
BLACK
6
CONTINUOUS
10
0.875916
20
0.688685
11
0.87837
21
0.690024
0
LINE
8
BLACK
6
CONTINUOUS
10
1.125
20
1.53
11
1.125
21
1.51
0
LINE
8
BLACK
6
CONTINUOUS
10
1.125
20
1.51
11
1.14448
21
1.51
0
LINE
8
BLACK
6
CONTINUOUS
10
1.14448
20
1.51
11
1.14508
21
1.51018
0
LINE
8
BLACK
6
CONTINUOUS
10
1.14508
20
1.51018
11
1.14513
21
1.51023
0
LINE
8
BLACK
6
CONTINUOUS
10
1.14513
20
1.51023
11
1.1452
21
1.51053
0
LINE
8
BLACK
6
CONTINUOUS
10
1.1452
20
1.51053
11
1.1452
21
1.52991
0
LINE
8
BLACK
6
CONTINUOUS
10
1.1452
20
1.52991
11
1.14519
21
1.53009
0
LINE
8
BLACK
6
CONTINUOUS
10
1.14519
20
1.53009
11
1.14501
21
1.53261
0
LINE
8
BLACK
6
CONTINUOUS
10
1.14501
20
1.53261
11
1.14492
21
1.53313
0
LINE
8
BLACK
6
CONTINUOUS
10
1.14492
20
1.53313
11
1.14347
21
1.53805
0
LINE
8
BLACK
6
CONTINUOUS
10
1.14347
20
1.53805
11
1.14318
21
1.53869
0
LINE
8
BLACK
6
CONTINUOUS
10
1.14318
20
1.53869
11
1.14046
21
1.54293
0
LINE
8
BLACK
6
CONTINUOUS
10
1.14046
20
1.54293
11
1.14
21
1.54346
0
LINE
8
BLACK
6
CONTINUOUS
10
1.14
20
1.54346
11
1.13619
21
1.54676
0
LINE
8
BLACK
6
CONTINUOUS
10
1.13619
20
1.54676
11
1.1356
21
1.54714
0
LINE
8
BLACK
6
CONTINUOUS
10
1.1356
20
1.54714
11
1.13101
21
1.54923
0
LINE
8
BLACK
6
CONTINUOUS
10
1.13101
20
1.54923
11
1.13034
21
1.54943
0
LINE
8
BLACK
6
CONTINUOUS
10
1.13034
20
1.54943
11
1.12518
21
1.55017
0
LINE
8
BLACK
6
CONTINUOUS
10
1.12518
20
1.55017
11
1.12482
21
1.5502
0
LINE
8
BLACK
6
CONTINUOUS
10
1.12482
20
1.5502
11
1.10571
21
1.5502
0
LINE
8
BLACK
6
CONTINUOUS
10
1.10571
20
1.5502
11
1.10511
21
1.55002
0
LINE
8
BLACK
6
CONTINUOUS
10
1.10511
20
1.55002
11
1.10507
21
1.54997
0
LINE
8
BLACK
6
CONTINUOUS
10
1.10507
20
1.54997
11
1.105
21
1.54966
0
LINE
8
BLACK
6
CONTINUOUS
10
1.105
20
1.54966
11
1.105
21
1.53
0
LINE
8
BLACK
6
CONTINUOUS
10
1.105
20
1.53
11
1.125
21
1.53
0
LINE
8
BLACK
6
CONTINUOUS
10
0.180265
20
0.864052
11
0.181886
21
0.858531
0
LINE
8
BLACK
6
CONTINUOUS
10
0.181886
20
0.858531
11
0.182078
21
0.858232
0
LINE
8
BLACK
6
CONTINUOUS
10
0.182078
20
0.858232
11
0.184805
21
0.853989
0
LINE
8
BLACK
6
CONTINUOUS
10
0.184805
20
0.853989
11
0.184805
21
0.853988
0
LINE
8
BLACK
6
CONTINUOUS
10
0.184805
20
0.853988
11
0.184997
21
0.85369
0
LINE
8
BLACK
6
CONTINUOUS
10
0.184997
20
0.85369
11
0.185265
21
0.853458
0
LINE
8
BLACK
6
CONTINUOUS
10
0.185265
20
0.853458
11
0.189078
21
0.850154
0
LINE
8
BLACK
6
CONTINUOUS
10
0.189078
20
0.850154
11
0.189078
21
0.850154
0
LINE
8
BLACK
6
CONTINUOUS
10
0.189078
20
0.850154
11
0.189346
21
0.849922
0
LINE
8
BLACK
6
CONTINUOUS
10
0.189346
20
0.849922
11
0.19458
21
0.847531
0
LINE
8
BLACK
6
CONTINUOUS
10
0.19458
20
0.847531
11
0.194931
21
0.847481
0
LINE
8
BLACK
6
CONTINUOUS
10
0.194931
20
0.847481
11
0.194931
21
0.847481
0
LINE
8
BLACK
6
CONTINUOUS
10
0.194931
20
0.847481
11
0.2001
21
0.846738
0
LINE
8
BLACK
6
CONTINUOUS
10
0.2001
20
0.846738
11
0.200101
21
0.846738
0
LINE
8
BLACK
6
CONTINUOUS
10
0.200101
20
0.846738
11
0.200276
21
0.846713
0
LINE
8
BLACK
6
CONTINUOUS
10
0.200276
20
0.846713
11
0.338071
21
0.846713
0
LINE
8
BLACK
6
CONTINUOUS
10
0.338071
20
0.846713
11
0.340948
21
0.846918
0
LINE
8
BLACK
6
CONTINUOUS
10
0.340948
20
0.846918
11
0.344022
21
0.847821
0
LINE
8
BLACK
6
CONTINUOUS
10
0.344022
20
0.847821
11
0.346129
21
0.84844
0
LINE
8
BLACK
6
CONTINUOUS
10
0.346129
20
0.84844
11
0.346129
21
0.84844
0
LINE
8
BLACK
6
CONTINUOUS
10
0.346129
20
0.84844
11
0.346469
21
0.84854
0
LINE
8
BLACK
6
CONTINUOUS
10
0.346469
20
0.84854
11
0.348982
21
0.850154
0
LINE
8
BLACK
6
CONTINUOUS
10
0.348982
20
0.850154
11
0.351011
21
0.851459
0
LINE
8
BLACK
6
CONTINUOUS
10
0.351011
20
0.851459
11
0.351012
21
0.851459
0
LINE
8
BLACK
6
CONTINUOUS
10
0.351012
20
0.851459
11
0.35131
21
0.851651
0
LINE
8
BLACK
6
CONTINUOUS
10
0.35131
20
0.851651
11
0.352876
21
0.853458
0
LINE
8
BLACK
6
CONTINUOUS
10
0.352876
20
0.853458
11
0.354846
21
0.855731
0
LINE
8
BLACK
6
CONTINUOUS
10
0.354846
20
0.855731
11
0.354846
21
0.855731
0
LINE
8
BLACK
6
CONTINUOUS
10
0.354846
20
0.855731
11
0.355078
21
0.855999
0
LINE
8
BLACK
6
CONTINUOUS
10
0.355078
20
0.855999
11
0.357469
21
0.861233
0
LINE
8
BLACK
6
CONTINUOUS
10
0.357469
20
0.861233
11
0.357519
21
0.861584
0
LINE
8
BLACK
6
CONTINUOUS
10
0.357519
20
0.861584
11
0.358262
21
0.866754
0
LINE
8
BLACK
6
CONTINUOUS
10
0.358262
20
0.866754
11
0.358262
21
0.866754
0
LINE
8
BLACK
6
CONTINUOUS
10
0.358262
20
0.866754
11
0.358287
21
0.866929
0
LINE
8
BLACK
6
CONTINUOUS
10
0.358287
20
0.866929
11
0.358287
21
1.00472
0
LINE
8
BLACK
6
CONTINUOUS
10
0.358287
20
1.00472
11
0.358082
21
1.0076
0
LINE
8
BLACK
6
CONTINUOUS
10
0.358082
20
1.0076
11
0.35646
21
1.01312
0
LINE
8
BLACK
6
CONTINUOUS
10
0.35646
20
1.01312
11
0.354661
21
1.01592
0
LINE
8
BLACK
6
CONTINUOUS
10
0.354661
20
1.01592
11
0.353541
21
1.01767
0
LINE
8
BLACK
6
CONTINUOUS
10
0.353541
20
1.01767
11
0.353541
21
1.01767
0
LINE
8
BLACK
6
CONTINUOUS
10
0.353541
20
1.01767
11
0.353349
21
1.01796
0
LINE
8
BLACK
6
CONTINUOUS
10
0.353349
20
1.01796
11
0.353081
21
1.0182
0
LINE
8
BLACK
6
CONTINUOUS
10
0.353081
20
1.0182
11
0.349269
21
1.0215
0
LINE
8
BLACK
6
CONTINUOUS
10
0.349269
20
1.0215
11
0.349269
21
1.0215
0
LINE
8
BLACK
6
CONTINUOUS
10
0.349269
20
1.0215
11
0.349001
21
1.02173
0
LINE
8
BLACK
6
CONTINUOUS
10
0.349001
20
1.02173
11
0.343767
21
1.02412
0
LINE
8
BLACK
6
CONTINUOUS
10
0.343767
20
1.02412
11
0.343416
21
1.02417
0
LINE
8
BLACK
6
CONTINUOUS
10
0.343416
20
1.02417
11
0.343416
21
1.02417
0
LINE
8
BLACK
6
CONTINUOUS
10
0.343416
20
1.02417
11
0.338246
21
1.02492
0
LINE
8
BLACK
6
CONTINUOUS
10
0.338246
20
1.02492
11
0.338246
21
1.02492
0
LINE
8
BLACK
6
CONTINUOUS
10
0.338246
20
1.02492
11
0.338071
21
1.02494
0
LINE
8
BLACK
6
CONTINUOUS
10
0.338071
20
1.02494
11
0.200276
21
1.02494
0
LINE
8
BLACK
6
CONTINUOUS
10
0.200276
20
1.02494
11
0.197398
21
1.02474
0
LINE
8
BLACK
6
CONTINUOUS
10
0.197398
20
1.02474
11
0.19531
21
1.02412
0
LINE
8
BLACK
6
CONTINUOUS
10
0.19531
20
1.02412
11
0.192218
21
1.02321
0
LINE
8
BLACK
6
CONTINUOUS
10
0.192218
20
1.02321
11
0.192218
21
1.02321
0
LINE
8
BLACK
6
CONTINUOUS
10
0.192218
20
1.02321
11
0.191877
21
1.02311
0
LINE
8
BLACK
6
CONTINUOUS
10
0.191877
20
1.02311
11
0.191579
21
1.02292
0
LINE
8
BLACK
6
CONTINUOUS
10
0.191579
20
1.02292
11
0.187335
21
1.02019
0
LINE
8
BLACK
6
CONTINUOUS
10
0.187335
20
1.02019
11
0.187335
21
1.02019
0
LINE
8
BLACK
6
CONTINUOUS
10
0.187335
20
1.02019
11
0.187037
21
1.02
0
LINE
8
BLACK
6
CONTINUOUS
10
0.187037
20
1.02
11
0.186804
21
1.01973
0
LINE
8
BLACK
6
CONTINUOUS
10
0.186804
20
1.01973
11
0.183501
21
1.01592
0
LINE
8
BLACK
6
CONTINUOUS
10
0.183501
20
1.01592
11
0.183501
21
1.01592
0
LINE
8
BLACK
6
CONTINUOUS
10
0.183501
20
1.01592
11
0.183268
21
1.01565
0
LINE
8
BLACK
6
CONTINUOUS
10
0.183268
20
1.01565
11
0.180878
21
1.01042
0
LINE
8
BLACK
6
CONTINUOUS
10
0.180878
20
1.01042
11
0.180827
21
1.01007
0
LINE
8
BLACK
6
CONTINUOUS
10
0.180827
20
1.01007
11
0.180827
21
1.01007
0
LINE
8
BLACK
6
CONTINUOUS
10
0.180827
20
1.01007
11
0.180084
21
1.0049
0
LINE
8
BLACK
6
CONTINUOUS
10
0.180084
20
1.0049
11
0.180084
21
1.0049
0
LINE
8
BLACK
6
CONTINUOUS
10
0.180084
20
1.0049
11
0.180059
21
1.00472
0
LINE
8
BLACK
6
CONTINUOUS
10
0.180059
20
1.00472
11
0.180059
21
0.866929
0
LINE
8
BLACK
6
CONTINUOUS
10
0.180059
20
0.866929
11
0.180265
21
0.864052
0
LINE
8
BLACK
6
CONTINUOUS
10
1.08477
20
1.55013
11
1.08447
21
1.5502
0
LINE
8
BLACK
6
CONTINUOUS
10
1.08447
20
1.5502
11
1.06509
21
1.5502
0
LINE
8
BLACK
6
CONTINUOUS
10
1.06509
20
1.5502
11
1.06491
21
1.55019
0
LINE
8
BLACK
6
CONTINUOUS
10
1.06491
20
1.55019
11
1.06239
21
1.55001
0
LINE
8
BLACK
6
CONTINUOUS
10
1.06239
20
1.55001
11
1.06187
21
1.54992
0
LINE
8
BLACK
6
CONTINUOUS
10
1.06187
20
1.54992
11
1.05695
21
1.54847
0
LINE
8
BLACK
6
CONTINUOUS
10
1.05695
20
1.54847
11
1.05631
21
1.54818
0
LINE
8
BLACK
6
CONTINUOUS
10
1.05631
20
1.54818
11
1.05207
21
1.54546
0
LINE
8
BLACK
6
CONTINUOUS
10
1.05207
20
1.54546
11
1.05154
21
1.545
0
LINE
8
BLACK
6
CONTINUOUS
10
1.05154
20
1.545
11
1.04875
21
1.54178
0
LINE
8
BLACK
6
CONTINUOUS
10
1.04875
20
1.54178
11
1.0464
21
1.54027
0
LINE
8
BLACK
6
CONTINUOUS
10
1.0464
20
1.54027
11
1.04361
21
1.54027
0
LINE
8
BLACK
6
CONTINUOUS
10
1.04361
20
1.54027
11
1.04125
21
1.54178
0
LINE
8
BLACK
6
CONTINUOUS
10
1.04125
20
1.54178
11
1.04083
21
1.54234
0
LINE
8
BLACK
6
CONTINUOUS
10
1.04083
20
1.54234
11
1.04046
21
1.54293
0
LINE
8
BLACK
6
CONTINUOUS
10
1.04046
20
1.54293
11
1.04
21
1.54346
0
LINE
8
BLACK
6
CONTINUOUS
10
1.04
20
1.54346
11
1.03619
21
1.54676
0
LINE
8
BLACK
6
CONTINUOUS
10
1.03619
20
1.54676
11
1.0356
21
1.54714
0
LINE
8
BLACK
6
CONTINUOUS
10
1.0356
20
1.54714
11
1.03101
21
1.54923
0
LINE
8
BLACK
6
CONTINUOUS
10
1.03101
20
1.54923
11
1.03034
21
1.54943
0
LINE
8
BLACK
6
CONTINUOUS
10
1.03034
20
1.54943
11
1.02518
21
1.55017
0
LINE
8
BLACK
6
CONTINUOUS
10
1.02518
20
1.55017
11
1.02482
21
1.5502
0
LINE
8
BLACK
6
CONTINUOUS
10
1.02482
20
1.5502
11
1.00571
21
1.5502
0
LINE
8
BLACK
6
CONTINUOUS
10
1.00571
20
1.5502
11
1.00511
21
1.55002
0
LINE
8
BLACK
6
CONTINUOUS
10
1.00511
20
1.55002
11
1.00507
21
1.54997
0
LINE
8
BLACK
6
CONTINUOUS
10
1.00507
20
1.54997
11
1.005
21
1.54966
0
LINE
8
BLACK
6
CONTINUOUS
10
1.005
20
1.54966
11
1.005
21
1.53
0
LINE
8
BLACK
6
CONTINUOUS
10
1.005
20
1.53
11
1.025
21
1.53
0
LINE
8
BLACK
6
CONTINUOUS
10
1.025
20
1.53
11
1.025
21
1.51
0
LINE
8
BLACK
6
CONTINUOUS
10
1.025
20
1.51
11
1.065
21
1.51
0
LINE
8
BLACK
6
CONTINUOUS
10
1.065
20
1.51
11
1.065
21
1.53
0
LINE
8
BLACK
6
CONTINUOUS
10
1.065
20
1.53
11
1.085
21
1.53
0
LINE
8
BLACK
6
CONTINUOUS
10
1.085
20
1.53
11
1.085
21
1.54948
0
LINE
8
BLACK
6
CONTINUOUS
10
1.085
20
1.54948
11
1.08495
21
1.54966
0
LINE
8
BLACK
6
CONTINUOUS
10
1.08495
20
1.54966
11
1.08482
21
1.55008
0
LINE
8
BLACK
6
CONTINUOUS
10
1.08482
20
1.55008
11
1.08477
21
1.55013
0
LINE
8
BLACK
6
CONTINUOUS
10
0.944979
20
1.51011
11
0.945034
21
1.51007
0
LINE
8
BLACK
6
CONTINUOUS
10
0.945034
20
1.51007
11
0.945337
21
1.51
0
LINE
8
BLACK
6
CONTINUOUS
10
0.945337
20
1.51
11
0.965
21
1.51
0
LINE
8
BLACK
6
CONTINUOUS
10
0.965
20
1.51
11
0.965
21
1.53
0
LINE
8
BLACK
6
CONTINUOUS
10
0.965
20
1.53
11
0.985
21
1.53
0
LINE
8
BLACK
6
CONTINUOUS
10
0.985
20
1.53
11
0.985
21
1.54948
0
LINE
8
BLACK
6
CONTINUOUS
10
0.985
20
1.54948
11
0.984947
21
1.54966
0
LINE
8
BLACK
6
CONTINUOUS
10
0.984947
20
1.54966
11
0.984824
21
1.55008
0
LINE
8
BLACK
6
CONTINUOUS
10
0.984824
20
1.55008
11
0.984769
21
1.55013
0
LINE
8
BLACK
6
CONTINUOUS
10
0.984769
20
1.55013
11
0.984467
21
1.5502
0
LINE
8
BLACK
6
CONTINUOUS
10
0.984467
20
1.5502
11
0.965089
21
1.5502
0
LINE
8
BLACK
6
CONTINUOUS
10
0.965089
20
1.5502
11
0.964911
21
1.55019
0
LINE
8
BLACK
6
CONTINUOUS
10
0.964911
20
1.55019
11
0.962391
21
1.55001
0
LINE
8
BLACK
6
CONTINUOUS
10
0.962391
20
1.55001
11
0.96187
21
1.54992
0
LINE
8
BLACK
6
CONTINUOUS
10
0.96187
20
1.54992
11
0.95695
21
1.54847
0
LINE
8
BLACK
6
CONTINUOUS
10
0.95695
20
1.54847
11
0.956311
21
1.54818
0
LINE
8
BLACK
6
CONTINUOUS
10
0.956311
20
1.54818
11
0.952072
21
1.54546
0
LINE
8
BLACK
6
CONTINUOUS
10
0.952072
20
1.54546
11
0.951541
21
1.545
0
LINE
8
BLACK
6
CONTINUOUS
10
0.951541
20
1.545
11
0.948242
21
1.54119
0
LINE
8
BLACK
6
CONTINUOUS
10
0.948242
20
1.54119
11
0.947862
21
1.5406
0
LINE
8
BLACK
6
CONTINUOUS
10
0.947862
20
1.5406
11
0.945769
21
1.53601
0
LINE
8
BLACK
6
CONTINUOUS
10
0.945769
20
1.53601
11
0.945571
21
1.53534
0
LINE
8
BLACK
6
CONTINUOUS
10
0.945571
20
1.53534
11
0.944828
21
1.53018
0
LINE
8
BLACK
6
CONTINUOUS
10
0.944828
20
1.53018
11
0.944803
21
1.52982
0
LINE
8
BLACK
6
CONTINUOUS
10
0.944803
20
1.52982
11
0.944803
21
1.51071
0
LINE
8
BLACK
6
CONTINUOUS
10
0.944803
20
1.51071
11
0.944979
21
1.51011
0
LINE
8
BLACK
6
CONTINUOUS
10
1.025
20
0.729843
11
1.065
21
0.729843
0
LINE
8
BLACK
6
CONTINUOUS
10
1.065
20
0.729843
11
1.065
21
0.75
0
LINE
8
BLACK
6
CONTINUOUS
10
1.065
20
0.75
11
1.125
21
0.75
0
LINE
8
BLACK
6
CONTINUOUS
10
1.125
20
0.75
11
1.125
21
0.69
0
LINE
8
BLACK
6
CONTINUOUS
10
1.125
20
0.69
11
1.065
21
0.69
0
LINE
8
BLACK
6
CONTINUOUS
10
1.065
20
0.69
11
1.065
21
0.710157
0
LINE
8
BLACK
6
CONTINUOUS
10
1.065
20
0.710157
11
1.025
21
0.710157
0
LINE
8
BLACK
6
CONTINUOUS
10
1.025
20
0.710157
11
1.025
21
0.69
0
LINE
8
BLACK
6
CONTINUOUS
10
1.025
20
0.69
11
0.965
21
0.69
0
LINE
8
BLACK
6
CONTINUOUS
10
0.965
20
0.69
11
0.965
21
0.710157
0
LINE
8
BLACK
6
CONTINUOUS
10
0.965
20
0.710157
11
0.869077
21
0.710157
0
LINE
8
BLACK
6
CONTINUOUS
10
0.869077
20
0.710157
11
0.720498
21
0.561579
0
LINE
8
BLACK
6
CONTINUOUS
10
0.720498
20
0.561579
11
0.720748
21
0.56
0
LINE
8
BLACK
6
CONTINUOUS
10
0.720748
20
0.56
11
0.719977
21
0.555134
0
LINE
8
BLACK
6
CONTINUOUS
10
0.719977
20
0.555134
11
0.71774
21
0.550744
0
LINE
8
BLACK
6
CONTINUOUS
10
0.71774
20
0.550744
11
0.714256
21
0.54726
0
LINE
8
BLACK
6
CONTINUOUS
10
0.714256
20
0.54726
11
0.709866
21
0.545023
0
LINE
8
BLACK
6
CONTINUOUS
10
0.709866
20
0.545023
11
0.705
21
0.544252
0
LINE
8
BLACK
6
CONTINUOUS
10
0.705
20
0.544252
11
0.700134
21
0.545023
0
LINE
8
BLACK
6
CONTINUOUS
10
0.700134
20
0.545023
11
0.695744
21
0.54726
0
LINE
8
BLACK
6
CONTINUOUS
10
0.695744
20
0.54726
11
0.69226
21
0.550744
0
LINE
8
BLACK
6
CONTINUOUS
10
0.69226
20
0.550744
11
0.690023
21
0.555134
0
LINE
8
BLACK
6
CONTINUOUS
10
0.690023
20
0.555134
11
0.689252
21
0.56
0
LINE
8
BLACK
6
CONTINUOUS
10
0.689252
20
0.56
11
0.690023
21
0.564866
0
LINE
8
BLACK
6
CONTINUOUS
10
0.690023
20
0.564866
11
0.69226
21
0.569256
0
LINE
8
BLACK
6
CONTINUOUS
10
0.69226
20
0.569256
11
0.695744
21
0.57274
0
LINE
8
BLACK
6
CONTINUOUS
10
0.695744
20
0.57274
11
0.700134
21
0.574977
0
LINE
8
BLACK
6
CONTINUOUS
10
0.700134
20
0.574977
11
0.705
21
0.575748
0
LINE
8
BLACK
6
CONTINUOUS
10
0.705
20
0.575748
11
0.706579
21
0.575498
0
LINE
8
BLACK
6
CONTINUOUS
10
0.706579
20
0.575498
11
0.85804
21
0.72696
0
LINE
8
BLACK
6
CONTINUOUS
10
0.85804
20
0.72696
11
0.861233
21
0.729093
0
LINE
8
BLACK
6
CONTINUOUS
10
0.861233
20
0.729093
11
0.865
21
0.729843
0
LINE
8
BLACK
6
CONTINUOUS
10
0.865
20
0.729843
11
0.965
21
0.729843
0
LINE
8
BLACK
6
CONTINUOUS
10
0.965
20
0.729843
11
0.965
21
0.75
0
LINE
8
BLACK
6
CONTINUOUS
10
0.965
20
0.75
11
1.025
21
0.75
0
LINE
8
BLACK
6
CONTINUOUS
10
1.025
20
0.75
11
1.025
21
0.729843
0
LINE
8
BLACK
6
CONTINUOUS
10
0.338071
20
0.595276
11
0.200276
21
0.595276
0
LINE
8
BLACK
6
CONTINUOUS
10
0.200276
20
0.595276
11
0.200276
21
0.733071
0
LINE
8
BLACK
6
CONTINUOUS
10
0.200276
20
0.733071
11
0.338071
21
0.733071
0
LINE
8
BLACK
6
CONTINUOUS
10
0.338071
20
0.733071
11
0.338071
21
0.595276
0
LINE
8
BLACK
6
CONTINUOUS
10
0.569866
20
0.734977
11
0.573608
21
0.733071
0
LINE
8
BLACK
6
CONTINUOUS
10
0.573608
20
0.733071
11
0.609724
21
0.733071
0
LINE
8
BLACK
6
CONTINUOUS
10
0.609724
20
0.733071
11
0.609724
21
0.595276
0
LINE
8
BLACK
6
CONTINUOUS
10
0.609724
20
0.595276
11
0.471929
21
0.595276
0
LINE
8
BLACK
6
CONTINUOUS
10
0.471929
20
0.595276
11
0.471929
21
0.733071
0
LINE
8
BLACK
6
CONTINUOUS
10
0.471929
20
0.733071
11
0.556392
21
0.733071
0
LINE
8
BLACK
6
CONTINUOUS
10
0.556392
20
0.733071
11
0.560134
21
0.734977
0
LINE
8
BLACK
6
CONTINUOUS
10
0.560134
20
0.734977
11
0.565
21
0.735748
0
LINE
8
BLACK
6
CONTINUOUS
10
0.565
20
0.735748
11
0.569866
21
0.734977
0
LINE
8
BLACK
6
CONTINUOUS
10
0.709866
20
0.814977
11
0.714256
21
0.81274
0
LINE
8
BLACK
6
CONTINUOUS
10
0.714256
20
0.81274
11
0.71774
21
0.809256
0
LINE
8
BLACK
6
CONTINUOUS
10
0.71774
20
0.809256
11
0.719977
21
0.804866
0
LINE
8
BLACK
6
CONTINUOUS
10
0.719977
20
0.804866
11
0.720748
21
0.8
0
LINE
8
BLACK
6
CONTINUOUS
10
0.720748
20
0.8
11
0.719977
21
0.795134
0
LINE
8
BLACK
6
CONTINUOUS
10
0.719977
20
0.795134
11
0.71774
21
0.790744
0
LINE
8
BLACK
6
CONTINUOUS
10
0.71774
20
0.790744
11
0.714256
21
0.78726
0
LINE
8
BLACK
6
CONTINUOUS
10
0.714256
20
0.78726
11
0.709866
21
0.785023
0
LINE
8
BLACK
6
CONTINUOUS
10
0.709866
20
0.785023
11
0.705
21
0.784252
0
LINE
8
BLACK
6
CONTINUOUS
10
0.705
20
0.784252
11
0.703421
21
0.784502
0
LINE
8
BLACK
6
CONTINUOUS
10
0.703421
20
0.784502
11
0.654843
21
0.735923
0
LINE
8
BLACK
6
CONTINUOUS
10
0.654843
20
0.735923
11
0.654843
21
0.652154
0
LINE
8
BLACK
6
CONTINUOUS
10
0.654843
20
0.652154
11
0.65774
21
0.649256
0
LINE
8
BLACK
6
CONTINUOUS
10
0.65774
20
0.649256
11
0.659977
21
0.644866
0
LINE
8
BLACK
6
CONTINUOUS
10
0.659977
20
0.644866
11
0.660748
21
0.64
0
LINE
8
BLACK
6
CONTINUOUS
10
0.660748
20
0.64
11
0.659977
21
0.635134
0
LINE
8
BLACK
6
CONTINUOUS
10
0.659977
20
0.635134
11
0.65774
21
0.630744
0
LINE
8
BLACK
6
CONTINUOUS
10
0.65774
20
0.630744
11
0.654256
21
0.62726
0
LINE
8
BLACK
6
CONTINUOUS
10
0.654256
20
0.62726
11
0.649866
21
0.625023
0
LINE
8
BLACK
6
CONTINUOUS
10
0.649866
20
0.625023
11
0.645
21
0.624252
0
LINE
8
BLACK
6
CONTINUOUS
10
0.645
20
0.624252
11
0.640134
21
0.625023
0
LINE
8
BLACK
6
CONTINUOUS
10
0.640134
20
0.625023
11
0.635744
21
0.62726
0
LINE
8
BLACK
6
CONTINUOUS
10
0.635744
20
0.62726
11
0.63226
21
0.630744
0
LINE
8
BLACK
6
CONTINUOUS
10
0.63226
20
0.630744
11
0.630023
21
0.635134
0
LINE
8
BLACK
6
CONTINUOUS
10
0.630023
20
0.635134
11
0.629252
21
0.64
0
LINE
8
BLACK
6
CONTINUOUS
10
0.629252
20
0.64
11
0.630023
21
0.644866
0
LINE
8
BLACK
6
CONTINUOUS
10
0.630023
20
0.644866
11
0.63226
21
0.649256
0
LINE
8
BLACK
6
CONTINUOUS
10
0.63226
20
0.649256
11
0.635157
21
0.652154
0
LINE
8
BLACK
6
CONTINUOUS
10
0.635157
20
0.652154
11
0.635157
21
0.74
0
LINE
8
BLACK
6
CONTINUOUS
10
0.635157
20
0.74
11
0.635907
21
0.743767
0
LINE
8
BLACK
6
CONTINUOUS
10
0.635907
20
0.743767
11
0.63804
21
0.74696
0
LINE
8
BLACK
6
CONTINUOUS
10
0.63804
20
0.74696
11
0.689502
21
0.798421
0
LINE
8
BLACK
6
CONTINUOUS
10
0.689502
20
0.798421
11
0.689252
21
0.8
0
LINE
8
BLACK
6
CONTINUOUS
10
0.689252
20
0.8
11
0.690023
21
0.804866
0
LINE
8
BLACK
6
CONTINUOUS
10
0.690023
20
0.804866
11
0.69226
21
0.809256
0
LINE
8
BLACK
6
CONTINUOUS
10
0.69226
20
0.809256
11
0.695744
21
0.81274
0
LINE
8
BLACK
6
CONTINUOUS
10
0.695744
20
0.81274
11
0.700134
21
0.814977
0
LINE
8
BLACK
6
CONTINUOUS
10
0.700134
20
0.814977
11
0.705
21
0.815748
0
LINE
8
BLACK
6
CONTINUOUS
10
0.705
20
0.815748
11
0.709866
21
0.814977
0
LINE
8
BLACK
6
CONTINUOUS
10
1.025
20
0.79
11
0.965
21
0.79
0
LINE
8
BLACK
6
CONTINUOUS
10
0.965
20
0.79
11
0.965
21
0.85
0
LINE
8
BLACK
6
CONTINUOUS
10
0.965
20
0.85
11
1.025
21
0.85
0
LINE
8
BLACK
6
CONTINUOUS
10
1.025
20
0.85
11
1.025
21
0.79
0
LINE
8
BLACK
6
CONTINUOUS
10
1.125
20
0.79
11
1.065
21
0.79
0
LINE
8
BLACK
6
CONTINUOUS
10
1.065
20
0.79
11
1.065
21
0.85
0
LINE
8
BLACK
6
CONTINUOUS
10
1.065
20
0.85
11
1.125
21
0.85
0
LINE
8
BLACK
6
CONTINUOUS
10
1.125
20
0.85
11
1.125
21
0.79
0
LINE
8
BLACK
6
CONTINUOUS
10
0.600498
20
0.821579
11
0.600748
21
0.82
0
LINE
8
BLACK
6
CONTINUOUS
10
0.600748
20
0.82
11
0.599977
21
0.815134
0
LINE
8
BLACK
6
CONTINUOUS
10
0.599977
20
0.815134
11
0.59774
21
0.810744
0
LINE
8
BLACK
6
CONTINUOUS
10
0.59774
20
0.810744
11
0.594256
21
0.80726
0
LINE
8
BLACK
6
CONTINUOUS
10
0.594256
20
0.80726
11
0.589866
21
0.805023
0
LINE
8
BLACK
6
CONTINUOUS
10
0.589866
20
0.805023
11
0.585
21
0.804252
0
LINE
8
BLACK
6
CONTINUOUS
10
0.585
20
0.804252
11
0.580134
21
0.805023
0
LINE
8
BLACK
6
CONTINUOUS
10
0.580134
20
0.805023
11
0.575744
21
0.80726
0
LINE
8
BLACK
6
CONTINUOUS
10
0.575744
20
0.80726
11
0.57226
21
0.810744
0
LINE
8
BLACK
6
CONTINUOUS
10
0.57226
20
0.810744
11
0.570023
21
0.815134
0
LINE
8
BLACK
6
CONTINUOUS
10
0.570023
20
0.815134
11
0.569252
21
0.82
0
LINE
8
BLACK
6
CONTINUOUS
10
0.569252
20
0.82
11
0.570023
21
0.824866
0
LINE
8
BLACK
6
CONTINUOUS
10
0.570023
20
0.824866
11
0.57226
21
0.829256
0
LINE
8
BLACK
6
CONTINUOUS
10
0.57226
20
0.829256
11
0.575744
21
0.83274
0
LINE
8
BLACK
6
CONTINUOUS
10
0.575744
20
0.83274
11
0.580134
21
0.834977
0
LINE
8
BLACK
6
CONTINUOUS
10
0.580134
20
0.834977
11
0.585
21
0.835748
0
LINE
8
BLACK
6
CONTINUOUS
10
0.585
20
0.835748
11
0.586579
21
0.835498
0
LINE
8
BLACK
6
CONTINUOUS
10
0.586579
20
0.835498
11
0.593788
21
0.842708
0
LINE
8
BLACK
6
CONTINUOUS
10
0.593788
20
0.842708
11
0.596981
21
0.844841
0
LINE
8
BLACK
6
CONTINUOUS
10
0.596981
20
0.844841
11
0.600748
21
0.845591
0
LINE
8
BLACK
6
CONTINUOUS
10
0.600748
20
0.845591
11
0.816671
21
0.845591
0
LINE
8
BLACK
6
CONTINUOUS
10
0.816671
20
0.845591
11
0.89804
21
0.92696
0
LINE
8
BLACK
6
CONTINUOUS
10
0.89804
20
0.92696
11
0.89804
21
0.92696
0
LINE
8
BLACK
6
CONTINUOUS
10
0.89804
20
0.92696
11
0.901233
21
0.929093
0
LINE
8
BLACK
6
CONTINUOUS
10
0.901233
20
0.929093
11
0.905
21
0.929843
0
LINE
8
BLACK
6
CONTINUOUS
10
0.905
20
0.929843
11
0.965
21
0.929843
0
LINE
8
BLACK
6
CONTINUOUS
10
0.965
20
0.929843
11
0.965
21
0.95
0
LINE
8
BLACK
6
CONTINUOUS
10
0.965
20
0.95
11
1.025
21
0.95
0
LINE
8
BLACK
6
CONTINUOUS
10
1.025
20
0.95
11
1.025
21
0.89
0
LINE
8
BLACK
6
CONTINUOUS
10
1.025
20
0.89
11
0.965
21
0.89
0
LINE
8
BLACK
6
CONTINUOUS
10
0.965
20
0.89
11
0.965
21
0.910157
0
LINE
8
BLACK
6
CONTINUOUS
10
0.965
20
0.910157
11
0.909077
21
0.910157
0
LINE
8
BLACK
6
CONTINUOUS
10
0.909077
20
0.910157
11
0.827708
21
0.828788
0
LINE
8
BLACK
6
CONTINUOUS
10
0.827708
20
0.828788
11
0.824515
21
0.826655
0
LINE
8
BLACK
6
CONTINUOUS
10
0.824515
20
0.826655
11
0.820748
21
0.825905
0
LINE
8
BLACK
6
CONTINUOUS
10
0.820748
20
0.825905
11
0.604825
21
0.825905
0
LINE
8
BLACK
6
CONTINUOUS
10
0.604825
20
0.825905
11
0.600498
21
0.821579
0
LINE
8
BLACK
6
CONTINUOUS
10
0.338071
20
0.866929
11
0.200276
21
0.866929
0
LINE
8
BLACK
6
CONTINUOUS
10
0.200276
20
0.866929
11
0.200276
21
1.00472
0
LINE
8
BLACK
6
CONTINUOUS
10
0.200276
20
1.00472
11
0.338071
21
1.00472
0
LINE
8
BLACK
6
CONTINUOUS
10
0.338071
20
1.00472
11
0.338071
21
0.866929
0
LINE
8
BLACK
6
CONTINUOUS
10
0.609724
20
0.866929
11
0.471929
21
0.866929
0
LINE
8
BLACK
6
CONTINUOUS
10
0.471929
20
0.866929
11
0.471929
21
1.00472
0
LINE
8
BLACK
6
CONTINUOUS
10
0.471929
20
1.00472
11
0.609724
21
1.00472
0
LINE
8
BLACK
6
CONTINUOUS
10
0.609724
20
1.00472
11
0.609724
21
0.866929
0
LINE
8
BLACK
6
CONTINUOUS
10
1.125
20
0.89
11
1.065
21
0.89
0
LINE
8
BLACK
6
CONTINUOUS
10
1.065
20
0.89
11
1.065
21
0.95
0
LINE
8
BLACK
6
CONTINUOUS
10
1.065
20
0.95
11
1.125
21
0.95
0
LINE
8
BLACK
6
CONTINUOUS
10
1.125
20
0.95
11
1.125
21
0.89
0
LINE
8
BLACK
6
CONTINUOUS
10
1.125
20
0.17
11
1.065
21
0.17
0
LINE
8
BLACK
6
CONTINUOUS
10
1.065
20
0.17
11
1.065
21
0.23
0
LINE
8
BLACK
6
CONTINUOUS
10
1.065
20
0.23
11
1.125
21
0.23
0
LINE
8
BLACK
6
CONTINUOUS
10
1.125
20
0.23
11
1.125
21
0.17
0
LINE
8
BLACK
6
CONTINUOUS
10
1.025
20
0.17
11
0.965
21
0.17
0
LINE
8
BLACK
6
CONTINUOUS
10
0.965
20
0.17
11
0.965
21
0.23
0
LINE
8
BLACK
6
CONTINUOUS
10
0.965
20
0.23
11
1.025
21
0.23
0
LINE
8
BLACK
6
CONTINUOUS
10
1.025
20
0.23
11
1.025
21
0.17
0
LINE
8
BLACK
6
CONTINUOUS
10
1.025
20
1.37
11
0.965
21
1.37
0
LINE
8
BLACK
6
CONTINUOUS
10
0.965
20
1.37
11
0.965
21
1.43
0
LINE
8
BLACK
6
CONTINUOUS
10
0.965
20
1.43
11
1.025
21
1.43
0
LINE
8
BLACK
6
CONTINUOUS
10
1.025
20
1.43
11
1.025
21
1.37
0
LINE
8
BLACK
6
CONTINUOUS
10
1.125
20
1.37
11
1.065
21
1.37
0
LINE
8
BLACK
6
CONTINUOUS
10
1.065
20
1.37
11
1.065
21
1.43
0
LINE
8
BLACK
6
CONTINUOUS
10
1.065
20
1.43
11
1.125
21
1.43
0
LINE
8
BLACK
6
CONTINUOUS
10
1.125
20
1.43
11
1.125
21
1.37
0
CIRCLE
8
BLACK
10
0.24
20
1.05
40
0.00787402
0
CIRCLE
8
BLACK
10
0.285
20
1.12
40
0.00787402
0
CIRCLE
8
BLACK
10
0.505
20
0.46
40
0.00787402
0
CIRCLE
8
BLACK
10
0.64
20
0.96
40
0.00787402
0
CIRCLE
8
BLACK
10
0.365
20
1.3
40
0.00787402
0
CIRCLE
8
BLACK
10
0.405
20
0.4
40
0.00787402
0
CIRCLE
8
BLACK
10
0.475
20
1.1
40
0.00787402
0
CIRCLE
8
BLACK
10
0.425
20
1.3
40
0.00787402
0
CIRCLE
8
BLACK
10
0.345
20
0.52
40
0.00787402
0
CIRCLE
8
BLACK
10
0.825
20
1.5
40
0.00787402
0
CIRCLE
8
BLACK
10
1.105
20
1.02
40
0.00787402
0
CIRCLE
8
BLACK
10
0.905
20
0.64
40
0.00787402
0
CIRCLE
8
BLACK
10
0.725
20
0.92
40
0.00787402
0
CIRCLE
8
BLACK
10
0.285
20
1.22
40
0.00787402
0
CIRCLE
8
BLACK
10
0.565
20
1.03
40
0.00787402
0
CIRCLE
8
BLACK
10
0.405
20
0.52
40
0.00787402
0
CIRCLE
8
BLACK
10
1.025
20
0.52
40
0.00787402
0
CIRCLE
8
BLACK
10
0.45
20
1.14
40
0.00787402
0
CIRCLE
8
BLACK
10
1.085
20
0.52
40
0.00787402
0
CIRCLE
8
BLACK
10
0.645
20
0.92
40
0.00787402
0
CIRCLE
8
BLACK
10
0.685
20
0.641122
40
0.00787402
0
CIRCLE
8
BLACK
10
1.025
20
1.02
40
0.00787402
0
CIRCLE
8
BLACK
10
0.905
20
0.52
40
0.00787402
0
CIRCLE
8
BLACK
10
0.285
20
1.16
40
0.00787402
0
CIRCLE
8
BLACK
10
0.905
20
0.58
40
0.00787402
0
CIRCLE
8
BLACK
10
0.805
20
0.78
40
0.00787402
0
CIRCLE
8
BLACK
10
1.105
20
1.08
40
0.00787402
0
CIRCLE
8
BLACK
10
0.965
20
0.52
40
0.00787402
0
CIRCLE
8
BLACK
10
0.645
20
0.88
40
0.00787402
0
CIRCLE
8
BLACK
10
0.285
20
0.4
40
0.00787402
0
CIRCLE
8
BLACK
10
0.225
20
0.4
40
0.00787402
0
CIRCLE
8
BLACK
10
0.24
20
1.095
40
0.00787402
0
CIRCLE
8
BLACK
10
0.345
20
0.4
40
0.00787402
0
CIRCLE
8
BLACK
10
0.905
20
1.5
40
0.00787402
0
CIRCLE
8
BLACK
10
0.49
20
1.14
40
0.00787402
0
CIRCLE
8
BLACK
10
1.025
20
1.08
40
0.00787402
0
CIRCLE
8
BLACK
10
0.465
20
0.4
40
0.00787402
0
CIRCLE
8
BLACK
10
0.525
20
0.4
40
0.00787402
0
CIRCLE
8
BLACK
10
0.285
20
1.08
40
0.00787402
0
CIRCLE
8
BLACK
10
1.105
20
1.16
40
0.00787402
0
CIRCLE
8
BLACK
10
1.105
20
1.22
40
0.00787402
0
CIRCLE
8
BLACK
10
1.025
20
1.22
40
0.00787402
0
CIRCLE
8
BLACK
10
0.765
20
1.42
40
0.00787402
0
CIRCLE
8
BLACK
10
0.285
20
1.045
40
0.00787402
0
CIRCLE
8
BLACK
10
0.765
20
1.36
40
0.00787402
0
CIRCLE
8
BLACK
10
0.765
20
1.28
40
0.00787402
0
CIRCLE
8
BLACK
10
1.025
20
1.16
40
0.00787402
0
CIRCLE
8
BLACK
10
0.785
20
0.92
40
0.00787402
0
CIRCLE
8
BLACK
10
0.765
20
1.5
40
0.00787402
0
CIRCLE
8
BLACK
10
0.505
20
0.98
40
0.00787402
0
CIRCLE
8
BLACK
10
0.585
20
0.82
40
0.00787402
0
CIRCLE
8
BLACK
10
0.305
20
0.62
40
0.00787402
0
CIRCLE
8
BLACK
10
0.705
20
0.56
40
0.00787402
0
CIRCLE
8
BLACK
10
0.565
20
0.72
40
0.00787402
0
CIRCLE
8
BLACK
10
0.705
20
0.8
40
0.00787402
0
CIRCLE
8
BLACK
10
0.645
20
0.64
40
0.00787402
  0
ENDSEC
  0
EOF
