  0
SECTION
  2
HEADER
  9
$ANGBASE
  50
0.0
  9
$ANGDIR
  70
1
  9
$MEASUREMENT
  70
0
  0
ENDSEC
  0
SECTION
  2
TABLES
  0
TABLE
  2
LTYPE
  70
4
  0
LTYPE
  5
40F
  2
CONTINUOUS
  70
0
  3
Solid line
  72
65
  73
0
  40
0.0
  0
LTYPE
  5
410
  2
DASHDOT
 70
0
  3
Dash Dot ____ _ ____ _
 72
65
 73
4
 40
2.0
 49
1.25
 49
-0.25
 49
0.25
 49
-0.25
  0
LTYPE
  5
411
  2
DASHED
 70
0
  3
Dashed __ __ __ __ __
 72
65
 73
2
 40
0.75
 49
0.5
 49
-0.25
  0
LTYPE
  5
43B
  2
DOTTED
 70
0
  3
Dotted .  .  .  .
 72
65
 73
2
 40
0.2
 49
0.0
 49
-0.2
  0
ENDTAB
  0
TABLE
  2
STYLE
  70
4
  0
STYLE
  2
KICAD
  70
0
  40
0
  41
1
  42
1
  50
0
  71
0
  3
isocp.shx
  0
STYLE
  2
KICADB
  70
0
  40
0
  41
1
  42
1
  50
0
  71
0
  3
isocp.shx
  0
STYLE
  2
KICADI
  70
0
  40
0
  41
1
  42
1
  50
15
  71
0
  3
isocp.shx
  0
STYLE
  2
KICADBI
  70
0
  40
0
  41
1
  42
1
  50
15
  71
0
  3
isocp.shx
  0
ENDTAB
  0
TABLE
  2
LAYER
  70
1
  0
LAYER
  2
BLACK
  70
0
  62
7
  6
CONTINUOUS
  0
ENDTAB
  0
ENDSEC
  0
SECTION
  2
ENTITIES
0
LINE
8
BLACK
6
CONTINUOUS
10
4.8314831102362206
20
-4.3764972440944883
11
4.8346762598425199
21
-4.3786308267716532
0
LINE
8
BLACK
6
CONTINUOUS
10
4.8346762598425199
20
-4.3786308267716532
11
4.8368098425196848
21
-4.3818239763779525
0
LINE
8
BLACK
6
CONTINUOUS
10
4.8368098425196848
20
-4.3818239763779525
11
4.8375590551181098
21
-4.3855905511811022
0
LINE
8
BLACK
6
CONTINUOUS
10
4.8375590551181098
20
-4.3855905511811022
11
4.8375590551181098
21
-4.4062598425196846
0
LINE
8
BLACK
6
CONTINUOUS
10
4.8375590551181098
20
-4.4062598425196846
11
4.8368098425196848
21
-4.4100264173228343
0
LINE
8
BLACK
6
CONTINUOUS
10
4.8368098425196848
20
-4.4100264173228343
11
4.8346762598425199
21
-4.4132195669291336
0
LINE
8
BLACK
6
CONTINUOUS
10
4.8346762598425199
20
-4.4132195669291336
11
4.8314831102362206
21
-4.4153531496062994
0
LINE
8
BLACK
6
CONTINUOUS
10
4.8314831102362206
20
-4.4153531496062994
11
4.8277165354330709
21
-4.4161023622047244
0
LINE
8
BLACK
6
CONTINUOUS
10
4.8277165354330709
20
-4.4161023622047244
11
4.7922834645669292
21
-4.4161023622047244
0
LINE
8
BLACK
6
CONTINUOUS
10
4.7922834645669292
20
-4.4161023622047244
11
4.7885168897637795
21
-4.4153531496062994
0
LINE
8
BLACK
6
CONTINUOUS
10
4.7885168897637795
20
-4.4153531496062994
11
4.7853237401574802
21
-4.4132195669291336
0
LINE
8
BLACK
6
CONTINUOUS
10
4.7853237401574802
20
-4.4132195669291336
11
4.7831901574803153
21
-4.4100264173228343
0
LINE
8
BLACK
6
CONTINUOUS
10
4.7831901574803153
20
-4.4100264173228343
11
4.7824409448818894
21
-4.4062598425196846
0
LINE
8
BLACK
6
CONTINUOUS
10
4.7824409448818894
20
-4.4062598425196846
11
4.7824409448818894
21
-4.3855905511811022
0
LINE
8
BLACK
6
CONTINUOUS
10
4.7824409448818894
20
-4.3855905511811022
11
4.7831901574803153
21
-4.3818239763779525
0
LINE
8
BLACK
6
CONTINUOUS
10
4.7831901574803153
20
-4.3818239763779525
11
4.7853237401574802
21
-4.3786308267716532
0
LINE
8
BLACK
6
CONTINUOUS
10
4.7853237401574802
20
-4.3786308267716532
11
4.7885168897637795
21
-4.3764972440944883
0
LINE
8
BLACK
6
CONTINUOUS
10
4.7885168897637795
20
-4.3764972440944883
11
4.7922834645669292
21
-4.3757480314960633
0
LINE
8
BLACK
6
CONTINUOUS
10
4.7922834645669292
20
-4.3757480314960633
11
4.8277165354330709
21
-4.3757480314960633
0
LINE
8
BLACK
6
CONTINUOUS
10
4.8277165354330709
20
-4.3757480314960633
11
4.8314831102362206
21
-4.3764972440944883
0
LINE
8
BLACK
6
CONTINUOUS
10
4.8314831102362206
20
-4.3046468503937003
11
4.8346762598425199
21
-4.3067804330708661
0
LINE
8
BLACK
6
CONTINUOUS
10
4.8346762598425199
20
-4.3067804330708661
11
4.8368098425196848
21
-4.3099735826771655
0
LINE
8
BLACK
6
CONTINUOUS
10
4.8368098425196848
20
-4.3099735826771655
11
4.8375590551181098
21
-4.3137401574803151
0
LINE
8
BLACK
6
CONTINUOUS
10
4.8375590551181098
20
-4.3137401574803151
11
4.8375590551181098
21
-4.3344094488188976
0
LINE
8
BLACK
6
CONTINUOUS
10
4.8375590551181098
20
-4.3344094488188976
11
4.8368098425196848
21
-4.3381760236220472
0
LINE
8
BLACK
6
CONTINUOUS
10
4.8368098425196848
20
-4.3381760236220472
11
4.8346762598425199
21
-4.3413691732283466
0
LINE
8
BLACK
6
CONTINUOUS
10
4.8346762598425199
20
-4.3413691732283466
11
4.8314831102362206
21
-4.3435027559055115
0
LINE
8
BLACK
6
CONTINUOUS
10
4.8314831102362206
20
-4.3435027559055115
11
4.8277165354330709
21
-4.3442519685039365
0
LINE
8
BLACK
6
CONTINUOUS
10
4.8277165354330709
20
-4.3442519685039365
11
4.7922834645669292
21
-4.3442519685039365
0
LINE
8
BLACK
6
CONTINUOUS
10
4.7922834645669292
20
-4.3442519685039365
11
4.7885168897637795
21
-4.3435027559055115
0
LINE
8
BLACK
6
CONTINUOUS
10
4.7885168897637795
20
-4.3435027559055115
11
4.7853237401574802
21
-4.3413691732283466
0
LINE
8
BLACK
6
CONTINUOUS
10
4.7853237401574802
20
-4.3413691732283466
11
4.7831901574803153
21
-4.3381760236220472
0
LINE
8
BLACK
6
CONTINUOUS
10
4.7831901574803153
20
-4.3381760236220472
11
4.7824409448818894
21
-4.3344094488188976
0
LINE
8
BLACK
6
CONTINUOUS
10
4.7824409448818894
20
-4.3344094488188976
11
4.7824409448818894
21
-4.3137401574803151
0
LINE
8
BLACK
6
CONTINUOUS
10
4.7824409448818894
20
-4.3137401574803151
11
4.7831901574803153
21
-4.3099735826771655
0
LINE
8
BLACK
6
CONTINUOUS
10
4.7831901574803153
20
-4.3099735826771655
11
4.7853237401574802
21
-4.3067804330708661
0
LINE
8
BLACK
6
CONTINUOUS
10
4.7853237401574802
20
-4.3067804330708661
11
4.7885168897637795
21
-4.3046468503937003
0
LINE
8
BLACK
6
CONTINUOUS
10
4.7885168897637795
20
-4.3046468503937003
11
4.7922834645669292
21
-4.3038976377952753
0
LINE
8
BLACK
6
CONTINUOUS
10
4.7922834645669292
20
-4.3038976377952753
11
4.8277165354330709
21
-4.3038976377952753
0
LINE
8
BLACK
6
CONTINUOUS
10
4.8277165354330709
20
-4.3038976377952753
11
4.8314831102362206
21
-4.3046468503937003
0
LINE
8
BLACK
6
CONTINUOUS
10
5.262467362204724
20
-4.2884657480314958
11
5.2656605118110233
21
-4.2905993307086616
0
LINE
8
BLACK
6
CONTINUOUS
10
5.2656605118110233
20
-4.2905993307086616
11
5.2677940944881891
21
-4.293792480314961
0
LINE
8
BLACK
6
CONTINUOUS
10
5.2677940944881891
20
-4.293792480314961
11
5.2685433070866141
21
-4.2975590551181098
0
LINE
8
BLACK
6
CONTINUOUS
10
5.2685433070866141
20
-4.2975590551181098
11
5.2685433070866141
21
-4.3172440944881885
0
LINE
8
BLACK
6
CONTINUOUS
10
5.2685433070866141
20
-4.3172440944881885
11
5.2677940944881891
21
-4.3210106692913381
0
LINE
8
BLACK
6
CONTINUOUS
10
5.2677940944881891
20
-4.3210106692913381
11
5.2656605118110233
21
-4.3242038188976375
0
LINE
8
BLACK
6
CONTINUOUS
10
5.2656605118110233
20
-4.3242038188976375
11
5.262467362204724
21
-4.3263374015748033
0
LINE
8
BLACK
6
CONTINUOUS
10
5.262467362204724
20
-4.3263374015748033
11
5.2587007874015743
21
-4.3270866141732283
0
LINE
8
BLACK
6
CONTINUOUS
10
5.2587007874015743
20
-4.3270866141732283
11
5.2212992125984252
21
-4.3270866141732283
0
LINE
8
BLACK
6
CONTINUOUS
10
5.2212992125984252
20
-4.3270866141732283
11
5.2175326377952755
21
-4.3263374015748033
0
LINE
8
BLACK
6
CONTINUOUS
10
5.2175326377952755
20
-4.3263374015748033
11
5.2143394881889762
21
-4.3242038188976375
0
LINE
8
BLACK
6
CONTINUOUS
10
5.2143394881889762
20
-4.3242038188976375
11
5.2122059055118113
21
-4.3210106692913381
0
LINE
8
BLACK
6
CONTINUOUS
10
5.2122059055118113
20
-4.3210106692913381
11
5.2114566929133854
21
-4.3172440944881885
0
LINE
8
BLACK
6
CONTINUOUS
10
5.2114566929133854
20
-4.3172440944881885
11
5.2114566929133854
21
-4.2975590551181098
0
LINE
8
BLACK
6
CONTINUOUS
10
5.2114566929133854
20
-4.2975590551181098
11
5.2122059055118113
21
-4.293792480314961
0
LINE
8
BLACK
6
CONTINUOUS
10
5.2122059055118113
20
-4.293792480314961
11
5.2143394881889762
21
-4.2905993307086616
0
LINE
8
BLACK
6
CONTINUOUS
10
5.2143394881889762
20
-4.2905993307086616
11
5.2175326377952755
21
-4.2884657480314958
0
LINE
8
BLACK
6
CONTINUOUS
10
5.2175326377952755
20
-4.2884657480314958
11
5.2212992125984252
21
-4.2877165354330709
0
LINE
8
BLACK
6
CONTINUOUS
10
5.2212992125984252
20
-4.2877165354330709
11
5.2587007874015743
21
-4.2877165354330709
0
LINE
8
BLACK
6
CONTINUOUS
10
5.2587007874015743
20
-4.2877165354330709
11
5.262467362204724
21
-4.2884657480314958
0
LINE
8
BLACK
6
CONTINUOUS
10
5.1614831102362206
20
-4.2864972440944884
11
5.16467625984252
21
-4.2886308267716533
0
LINE
8
BLACK
6
CONTINUOUS
10
5.16467625984252
20
-4.2886308267716533
11
5.1668098425196849
21
-4.2918239763779527
0
LINE
8
BLACK
6
CONTINUOUS
10
5.1668098425196849
20
-4.2918239763779527
11
5.1675590551181099
21
-4.2955905511811023
0
LINE
8
BLACK
6
CONTINUOUS
10
5.1675590551181099
20
-4.2955905511811023
11
5.1675590551181099
21
-4.3162598425196848
0
LINE
8
BLACK
6
CONTINUOUS
10
5.1675590551181099
20
-4.3162598425196848
11
5.1668098425196849
21
-4.3200264173228344
0
LINE
8
BLACK
6
CONTINUOUS
10
5.1668098425196849
20
-4.3200264173228344
11
5.16467625984252
21
-4.3232195669291338
0
LINE
8
BLACK
6
CONTINUOUS
10
5.16467625984252
20
-4.3232195669291338
11
5.1614831102362206
21
-4.3253531496062987
0
LINE
8
BLACK
6
CONTINUOUS
10
5.1614831102362206
20
-4.3253531496062987
11
5.157716535433071
21
-4.3261023622047245
0
LINE
8
BLACK
6
CONTINUOUS
10
5.157716535433071
20
-4.3261023622047245
11
5.1222834645669293
21
-4.3261023622047245
0
LINE
8
BLACK
6
CONTINUOUS
10
5.1222834645669293
20
-4.3261023622047245
11
5.1185168897637796
21
-4.3253531496062987
0
LINE
8
BLACK
6
CONTINUOUS
10
5.1185168897637796
20
-4.3253531496062987
11
5.1153237401574803
21
-4.3232195669291338
0
LINE
8
BLACK
6
CONTINUOUS
10
5.1153237401574803
20
-4.3232195669291338
11
5.1131901574803145
21
-4.3200264173228344
0
LINE
8
BLACK
6
CONTINUOUS
10
5.1131901574803145
20
-4.3200264173228344
11
5.1124409448818895
21
-4.3162598425196848
0
LINE
8
BLACK
6
CONTINUOUS
10
5.1124409448818895
20
-4.3162598425196848
11
5.1124409448818895
21
-4.2955905511811023
0
LINE
8
BLACK
6
CONTINUOUS
10
5.1124409448818895
20
-4.2955905511811023
11
5.1131901574803145
21
-4.2918239763779527
0
LINE
8
BLACK
6
CONTINUOUS
10
5.1131901574803145
20
-4.2918239763779527
11
5.1153237401574803
21
-4.2886308267716533
0
LINE
8
BLACK
6
CONTINUOUS
10
5.1153237401574803
20
-4.2886308267716533
11
5.1185168897637796
21
-4.2864972440944884
0
LINE
8
BLACK
6
CONTINUOUS
10
5.1185168897637796
20
-4.2864972440944884
11
5.1222834645669293
21
-4.2857480314960625
0
LINE
8
BLACK
6
CONTINUOUS
10
5.1222834645669293
20
-4.2857480314960625
11
5.157716535433071
21
-4.2857480314960625
0
LINE
8
BLACK
6
CONTINUOUS
10
5.157716535433071
20
-4.2857480314960625
11
5.1614831102362206
21
-4.2864972440944884
0
LINE
8
BLACK
6
CONTINUOUS
10
4.9569154724409445
20
-4.2993766929133859
11
4.9588313385826774
21
-4.3006568503937004
0
LINE
8
BLACK
6
CONTINUOUS
10
4.9588313385826774
20
-4.3006568503937004
11
4.960111496062992
21
-4.3025727165354333
0
LINE
8
BLACK
6
CONTINUOUS
10
4.960111496062992
20
-4.3025727165354333
11
4.9605610236220468
21
-4.3048326771653542
0
LINE
8
BLACK
6
CONTINUOUS
10
4.9605610236220468
20
-4.3048326771653542
11
4.9605610236220468
21
-4.3166437007874014
0
LINE
8
BLACK
6
CONTINUOUS
10
4.9605610236220468
20
-4.3166437007874014
11
4.960111496062992
21
-4.3189036614173224
0
LINE
8
BLACK
6
CONTINUOUS
10
4.960111496062992
20
-4.3189036614173224
11
4.9588313385826774
21
-4.3208195275590553
0
LINE
8
BLACK
6
CONTINUOUS
10
4.9588313385826774
20
-4.3208195275590553
11
4.9569154724409445
21
-4.3220996850393698
0
LINE
8
BLACK
6
CONTINUOUS
10
4.9569154724409445
20
-4.3220996850393698
11
4.9546555118110236
21
-4.3225492125984255
0
LINE
8
BLACK
6
CONTINUOUS
10
4.9546555118110236
20
-4.3225492125984255
11
4.9143011811023625
21
-4.3225492125984255
0
LINE
8
BLACK
6
CONTINUOUS
10
4.9143011811023625
20
-4.3225492125984255
11
4.9120412204724406
21
-4.3220996850393698
0
LINE
8
BLACK
6
CONTINUOUS
10
4.9120412204724406
20
-4.3220996850393698
11
4.9101253543307086
21
-4.3208195275590553
0
LINE
8
BLACK
6
CONTINUOUS
10
4.9101253543307086
20
-4.3208195275590553
11
4.9088451968503932
21
-4.3189036614173224
0
LINE
8
BLACK
6
CONTINUOUS
10
4.9088451968503932
20
-4.3189036614173224
11
4.9083956692913384
21
-4.3166437007874014
0
LINE
8
BLACK
6
CONTINUOUS
10
4.9083956692913384
20
-4.3166437007874014
11
4.9083956692913384
21
-4.3048326771653542
0
LINE
8
BLACK
6
CONTINUOUS
10
4.9083956692913384
20
-4.3048326771653542
11
4.9088451968503932
21
-4.3025727165354333
0
LINE
8
BLACK
6
CONTINUOUS
10
4.9088451968503932
20
-4.3025727165354333
11
4.9101253543307086
21
-4.3006568503937004
0
LINE
8
BLACK
6
CONTINUOUS
10
4.9101253543307086
20
-4.3006568503937004
11
4.9120412204724406
21
-4.2993766929133859
0
LINE
8
BLACK
6
CONTINUOUS
10
4.9120412204724406
20
-4.2993766929133859
11
4.9143011811023625
21
-4.2989271653543302
0
LINE
8
BLACK
6
CONTINUOUS
10
4.9143011811023625
20
-4.2989271653543302
11
4.9546555118110236
21
-4.2989271653543302
0
LINE
8
BLACK
6
CONTINUOUS
10
4.9546555118110236
20
-4.2989271653543302
11
4.9569154724409445
21
-4.2993766929133859
0
LINE
8
BLACK
6
CONTINUOUS
10
5.0464824015748029
20
-4.2993766929133859
11
5.0483982677165349
21
-4.3006568503937004
0
LINE
8
BLACK
6
CONTINUOUS
10
5.0483982677165349
20
-4.3006568503937004
11
5.0496784251968503
21
-4.3025727165354333
0
LINE
8
BLACK
6
CONTINUOUS
10
5.0496784251968503
20
-4.3025727165354333
11
5.0501279527559051
21
-4.3048326771653542
0
LINE
8
BLACK
6
CONTINUOUS
10
5.0501279527559051
20
-4.3048326771653542
11
5.0501279527559051
21
-4.3166437007874014
0
LINE
8
BLACK
6
CONTINUOUS
10
5.0501279527559051
20
-4.3166437007874014
11
5.0496784251968503
21
-4.3189036614173224
0
LINE
8
BLACK
6
CONTINUOUS
10
5.0496784251968503
20
-4.3189036614173224
11
5.0483982677165349
21
-4.3208195275590553
0
LINE
8
BLACK
6
CONTINUOUS
10
5.0483982677165349
20
-4.3208195275590553
11
5.0464824015748029
21
-4.3220996850393698
0
LINE
8
BLACK
6
CONTINUOUS
10
5.0464824015748029
20
-4.3220996850393698
11
5.0442224409448819
21
-4.3225492125984255
0
LINE
8
BLACK
6
CONTINUOUS
10
5.0442224409448819
20
-4.3225492125984255
11
5.0038681102362208
21
-4.3225492125984255
0
LINE
8
BLACK
6
CONTINUOUS
10
5.0038681102362208
20
-4.3225492125984255
11
5.001608149606299
21
-4.3220996850393698
0
LINE
8
BLACK
6
CONTINUOUS
10
5.001608149606299
20
-4.3220996850393698
11
4.999692283464567
21
-4.3208195275590553
0
LINE
8
BLACK
6
CONTINUOUS
10
4.999692283464567
20
-4.3208195275590553
11
4.9984121259842516
21
-4.3189036614173224
0
LINE
8
BLACK
6
CONTINUOUS
10
4.9984121259842516
20
-4.3189036614173224
11
4.9979625984251967
21
-4.3166437007874014
0
LINE
8
BLACK
6
CONTINUOUS
10
4.9979625984251967
20
-4.3166437007874014
11
4.9979625984251967
21
-4.3048326771653542
0
LINE
8
BLACK
6
CONTINUOUS
10
4.9979625984251967
20
-4.3048326771653542
11
4.9984121259842516
21
-4.3025727165354333
0
LINE
8
BLACK
6
CONTINUOUS
10
4.9984121259842516
20
-4.3025727165354333
11
4.999692283464567
21
-4.3006568503937004
0
LINE
8
BLACK
6
CONTINUOUS
10
4.999692283464567
20
-4.3006568503937004
11
5.001608149606299
21
-4.2993766929133859
0
LINE
8
BLACK
6
CONTINUOUS
10
5.001608149606299
20
-4.2993766929133859
11
5.0038681102362208
21
-4.2989271653543302
0
LINE
8
BLACK
6
CONTINUOUS
10
5.0038681102362208
20
-4.2989271653543302
11
5.0442224409448819
21
-4.2989271653543302
0
LINE
8
BLACK
6
CONTINUOUS
10
5.0442224409448819
20
-4.2989271653543302
11
5.0464824015748029
21
-4.2993766929133859
0
LINE
8
BLACK
6
CONTINUOUS
10
4.7417291732283466
20
-4.2618023622047243
11
4.744922322834646
21
-4.2639359448818901
0
LINE
8
BLACK
6
CONTINUOUS
10
4.744922322834646
20
-4.2639359448818901
11
4.7470559055118109
21
-4.2671290944881886
0
LINE
8
BLACK
6
CONTINUOUS
10
4.7470559055118109
20
-4.2671290944881886
11
4.7478051181102359
21
-4.2708956692913382
0
LINE
8
BLACK
6
CONTINUOUS
10
4.7478051181102359
20
-4.2708956692913382
11
4.7478051181102359
21
-4.2905807086614169
0
LINE
8
BLACK
6
CONTINUOUS
10
4.7478051181102359
20
-4.2905807086614169
11
4.7470559055118109
21
-4.2943472834645666
0
LINE
8
BLACK
6
CONTINUOUS
10
4.7470559055118109
20
-4.2943472834645666
11
4.744922322834646
21
-4.297540433070866
0
LINE
8
BLACK
6
CONTINUOUS
10
4.744922322834646
20
-4.297540433070866
11
4.7417291732283466
21
-4.2996740157480318
0
LINE
8
BLACK
6
CONTINUOUS
10
4.7417291732283466
20
-4.2996740157480318
11
4.737962598425197
21
-4.3004232283464567
0
LINE
8
BLACK
6
CONTINUOUS
10
4.737962598425197
20
-4.3004232283464567
11
4.700561023622047
21
-4.3004232283464567
0
LINE
8
BLACK
6
CONTINUOUS
10
4.700561023622047
20
-4.3004232283464567
11
4.6967944488188973
21
-4.2996740157480318
0
LINE
8
BLACK
6
CONTINUOUS
10
4.6967944488188973
20
-4.2996740157480318
11
4.6936012992125979
21
-4.297540433070866
0
LINE
8
BLACK
6
CONTINUOUS
10
4.6936012992125979
20
-4.297540433070866
11
4.691467716535433
21
-4.2943472834645666
0
LINE
8
BLACK
6
CONTINUOUS
10
4.691467716535433
20
-4.2943472834645666
11
4.6907185039370081
21
-4.2905807086614169
0
LINE
8
BLACK
6
CONTINUOUS
10
4.6907185039370081
20
-4.2905807086614169
11
4.6907185039370081
21
-4.2708956692913382
0
LINE
8
BLACK
6
CONTINUOUS
10
4.6907185039370081
20
-4.2708956692913382
11
4.691467716535433
21
-4.2671290944881886
0
LINE
8
BLACK
6
CONTINUOUS
10
4.691467716535433
20
-4.2671290944881886
11
4.6936012992125979
21
-4.2639359448818901
0
LINE
8
BLACK
6
CONTINUOUS
10
4.6936012992125979
20
-4.2639359448818901
11
4.6967944488188973
21
-4.2618023622047243
0
LINE
8
BLACK
6
CONTINUOUS
10
4.6967944488188973
20
-4.2618023622047243
11
4.700561023622047
21
-4.2610531496062993
0
LINE
8
BLACK
6
CONTINUOUS
10
4.700561023622047
20
-4.2610531496062993
11
4.737962598425197
21
-4.2610531496062993
0
LINE
8
BLACK
6
CONTINUOUS
10
4.737962598425197
20
-4.2610531496062993
11
4.7417291732283466
21
-4.2618023622047243
0
LINE
8
BLACK
6
CONTINUOUS
10
4.6507449212598422
20
-4.2598338582677169
11
4.6539380708661415
21
-4.2619674409448818
0
LINE
8
BLACK
6
CONTINUOUS
10
4.6539380708661415
20
-4.2619674409448818
11
4.6560716535433073
21
-4.2651605905511811
0
LINE
8
BLACK
6
CONTINUOUS
10
4.6560716535433073
20
-4.2651605905511811
11
4.6568208661417323
21
-4.2689271653543308
0
LINE
8
BLACK
6
CONTINUOUS
10
4.6568208661417323
20
-4.2689271653543308
11
4.6568208661417323
21
-4.2895964566929132
0
LINE
8
BLACK
6
CONTINUOUS
10
4.6568208661417323
20
-4.2895964566929132
11
4.6560716535433073
21
-4.2933630314960629
0
LINE
8
BLACK
6
CONTINUOUS
10
4.6560716535433073
20
-4.2933630314960629
11
4.6539380708661415
21
-4.2965561811023623
0
LINE
8
BLACK
6
CONTINUOUS
10
4.6539380708661415
20
-4.2965561811023623
11
4.6507449212598422
21
-4.2986897637795272
0
LINE
8
BLACK
6
CONTINUOUS
10
4.6507449212598422
20
-4.2986897637795272
11
4.6469783464566925
21
-4.299438976377953
0
LINE
8
BLACK
6
CONTINUOUS
10
4.6469783464566925
20
-4.299438976377953
11
4.6115452755905508
21
-4.299438976377953
0
LINE
8
BLACK
6
CONTINUOUS
10
4.6115452755905508
20
-4.299438976377953
11
4.6077787007874011
21
-4.2986897637795272
0
LINE
8
BLACK
6
CONTINUOUS
10
4.6077787007874011
20
-4.2986897637795272
11
4.6045855511811027
21
-4.2965561811023623
0
LINE
8
BLACK
6
CONTINUOUS
10
4.6045855511811027
20
-4.2965561811023623
11
4.6024519685039369
21
-4.2933630314960629
0
LINE
8
BLACK
6
CONTINUOUS
10
4.6024519685039369
20
-4.2933630314960629
11
4.6017027559055119
21
-4.2895964566929132
0
LINE
8
BLACK
6
CONTINUOUS
10
4.6017027559055119
20
-4.2895964566929132
11
4.6017027559055119
21
-4.2689271653543308
0
LINE
8
BLACK
6
CONTINUOUS
10
4.6017027559055119
20
-4.2689271653543308
11
4.6024519685039369
21
-4.2651605905511811
0
LINE
8
BLACK
6
CONTINUOUS
10
4.6024519685039369
20
-4.2651605905511811
11
4.6045855511811027
21
-4.2619674409448818
0
LINE
8
BLACK
6
CONTINUOUS
10
4.6045855511811027
20
-4.2619674409448818
11
4.6077787007874011
21
-4.2598338582677169
0
LINE
8
BLACK
6
CONTINUOUS
10
4.6077787007874011
20
-4.2598338582677169
11
4.6115452755905508
21
-4.259084645669291
0
LINE
8
BLACK
6
CONTINUOUS
10
4.6115452755905508
20
-4.259084645669291
11
4.6469783464566925
21
-4.259084645669291
0
LINE
8
BLACK
6
CONTINUOUS
10
4.6469783464566925
20
-4.259084645669291
11
4.6507449212598422
21
-4.2598338582677169
0
LINE
8
BLACK
6
CONTINUOUS
10
5.972467362204724
20
-4.2584657480314956
11
5.9756605118110233
21
-4.2605993307086614
0
LINE
8
BLACK
6
CONTINUOUS
10
5.9756605118110233
20
-4.2605993307086614
11
5.9777940944881891
21
-4.2637924803149607
0
LINE
8
BLACK
6
CONTINUOUS
10
5.9777940944881891
20
-4.2637924803149607
11
5.9785433070866141
21
-4.2675590551181104
0
LINE
8
BLACK
6
CONTINUOUS
10
5.9785433070866141
20
-4.2675590551181104
11
5.9785433070866141
21
-4.2872440944881891
0
LINE
8
BLACK
6
CONTINUOUS
10
5.9785433070866141
20
-4.2872440944881891
11
5.9777940944881891
21
-4.2910106692913388
0
LINE
8
BLACK
6
CONTINUOUS
10
5.9777940944881891
20
-4.2910106692913388
11
5.9756605118110233
21
-4.2942038188976381
0
LINE
8
BLACK
6
CONTINUOUS
10
5.9756605118110233
20
-4.2942038188976381
11
5.972467362204724
21
-4.296337401574803
0
LINE
8
BLACK
6
CONTINUOUS
10
5.972467362204724
20
-4.296337401574803
11
5.9687007874015743
21
-4.297086614173228
0
LINE
8
BLACK
6
CONTINUOUS
10
5.9687007874015743
20
-4.297086614173228
11
5.9312992125984252
21
-4.297086614173228
0
LINE
8
BLACK
6
CONTINUOUS
10
5.9312992125984252
20
-4.297086614173228
11
5.9275326377952755
21
-4.296337401574803
0
LINE
8
BLACK
6
CONTINUOUS
10
5.9275326377952755
20
-4.296337401574803
11
5.9243394881889762
21
-4.2942038188976381
0
LINE
8
BLACK
6
CONTINUOUS
10
5.9243394881889762
20
-4.2942038188976381
11
5.9222059055118113
21
-4.2910106692913388
0
LINE
8
BLACK
6
CONTINUOUS
10
5.9222059055118113
20
-4.2910106692913388
11
5.9214566929133854
21
-4.2872440944881891
0
LINE
8
BLACK
6
CONTINUOUS
10
5.9214566929133854
20
-4.2872440944881891
11
5.9214566929133854
21
-4.2675590551181104
0
LINE
8
BLACK
6
CONTINUOUS
10
5.9214566929133854
20
-4.2675590551181104
11
5.9222059055118113
21
-4.2637924803149607
0
LINE
8
BLACK
6
CONTINUOUS
10
5.9222059055118113
20
-4.2637924803149607
11
5.9243394881889762
21
-4.2605993307086614
0
LINE
8
BLACK
6
CONTINUOUS
10
5.9243394881889762
20
-4.2605993307086614
11
5.9275326377952755
21
-4.2584657480314956
0
LINE
8
BLACK
6
CONTINUOUS
10
5.9275326377952755
20
-4.2584657480314956
11
5.9312992125984252
21
-4.2577165354330706
0
LINE
8
BLACK
6
CONTINUOUS
10
5.9312992125984252
20
-4.2577165354330706
11
5.9687007874015743
21
-4.2577165354330706
0
LINE
8
BLACK
6
CONTINUOUS
10
5.9687007874015743
20
-4.2577165354330706
11
5.972467362204724
21
-4.2584657480314956
0
LINE
8
BLACK
6
CONTINUOUS
10
6.0924673622047241
20
-4.2584657480314956
11
6.0956605118110234
21
-4.2605993307086614
0
LINE
8
BLACK
6
CONTINUOUS
10
6.0956605118110234
20
-4.2605993307086614
11
6.0977940944881892
21
-4.2637924803149607
0
LINE
8
BLACK
6
CONTINUOUS
10
6.0977940944881892
20
-4.2637924803149607
11
6.0985433070866142
21
-4.2675590551181104
0
LINE
8
BLACK
6
CONTINUOUS
10
6.0985433070866142
20
-4.2675590551181104
11
6.0985433070866142
21
-4.2872440944881891
0
LINE
8
BLACK
6
CONTINUOUS
10
6.0985433070866142
20
-4.2872440944881891
11
6.0977940944881892
21
-4.2910106692913388
0
LINE
8
BLACK
6
CONTINUOUS
10
6.0977940944881892
20
-4.2910106692913388
11
6.0956605118110234
21
-4.2942038188976381
0
LINE
8
BLACK
6
CONTINUOUS
10
6.0956605118110234
20
-4.2942038188976381
11
6.0924673622047241
21
-4.296337401574803
0
LINE
8
BLACK
6
CONTINUOUS
10
6.0924673622047241
20
-4.296337401574803
11
6.0887007874015744
21
-4.297086614173228
0
LINE
8
BLACK
6
CONTINUOUS
10
6.0887007874015744
20
-4.297086614173228
11
6.0512992125984253
21
-4.297086614173228
0
LINE
8
BLACK
6
CONTINUOUS
10
6.0512992125984253
20
-4.297086614173228
11
6.0475326377952756
21
-4.296337401574803
0
LINE
8
BLACK
6
CONTINUOUS
10
6.0475326377952756
20
-4.296337401574803
11
6.0443394881889763
21
-4.2942038188976381
0
LINE
8
BLACK
6
CONTINUOUS
10
6.0443394881889763
20
-4.2942038188976381
11
6.0422059055118105
21
-4.2910106692913388
0
LINE
8
BLACK
6
CONTINUOUS
10
6.0422059055118105
20
-4.2910106692913388
11
6.0414566929133855
21
-4.2872440944881891
0
LINE
8
BLACK
6
CONTINUOUS
10
6.0414566929133855
20
-4.2872440944881891
11
6.0414566929133855
21
-4.2675590551181104
0
LINE
8
BLACK
6
CONTINUOUS
10
6.0414566929133855
20
-4.2675590551181104
11
6.0422059055118105
21
-4.2637924803149607
0
LINE
8
BLACK
6
CONTINUOUS
10
6.0422059055118105
20
-4.2637924803149607
11
6.0443394881889763
21
-4.2605993307086614
0
LINE
8
BLACK
6
CONTINUOUS
10
6.0443394881889763
20
-4.2605993307086614
11
6.0475326377952756
21
-4.2584657480314956
0
LINE
8
BLACK
6
CONTINUOUS
10
6.0475326377952756
20
-4.2584657480314956
11
6.0512992125984253
21
-4.2577165354330706
0
LINE
8
BLACK
6
CONTINUOUS
10
6.0512992125984253
20
-4.2577165354330706
11
6.0887007874015744
21
-4.2577165354330706
0
LINE
8
BLACK
6
CONTINUOUS
10
6.0887007874015744
20
-4.2577165354330706
11
6.0924673622047241
21
-4.2584657480314956
0
LINE
8
BLACK
6
CONTINUOUS
10
6.2124673622047242
20
-4.2584657480314956
11
6.2156605118110235
21
-4.2605993307086614
0
LINE
8
BLACK
6
CONTINUOUS
10
6.2156605118110235
20
-4.2605993307086614
11
6.2177940944881884
21
-4.2637924803149607
0
LINE
8
BLACK
6
CONTINUOUS
10
6.2177940944881884
20
-4.2637924803149607
11
6.2185433070866143
21
-4.2675590551181104
0
LINE
8
BLACK
6
CONTINUOUS
10
6.2185433070866143
20
-4.2675590551181104
11
6.2185433070866143
21
-4.2872440944881891
0
LINE
8
BLACK
6
CONTINUOUS
10
6.2185433070866143
20
-4.2872440944881891
11
6.2177940944881884
21
-4.2910106692913388
0
LINE
8
BLACK
6
CONTINUOUS
10
6.2177940944881884
20
-4.2910106692913388
11
6.2156605118110235
21
-4.2942038188976381
0
LINE
8
BLACK
6
CONTINUOUS
10
6.2156605118110235
20
-4.2942038188976381
11
6.2124673622047242
21
-4.296337401574803
0
LINE
8
BLACK
6
CONTINUOUS
10
6.2124673622047242
20
-4.296337401574803
11
6.2087007874015745
21
-4.297086614173228
0
LINE
8
BLACK
6
CONTINUOUS
10
6.2087007874015745
20
-4.297086614173228
11
6.1712992125984254
21
-4.297086614173228
0
LINE
8
BLACK
6
CONTINUOUS
10
6.1712992125984254
20
-4.297086614173228
11
6.1675326377952757
21
-4.296337401574803
0
LINE
8
BLACK
6
CONTINUOUS
10
6.1675326377952757
20
-4.296337401574803
11
6.1643394881889764
21
-4.2942038188976381
0
LINE
8
BLACK
6
CONTINUOUS
10
6.1643394881889764
20
-4.2942038188976381
11
6.1622059055118106
21
-4.2910106692913388
0
LINE
8
BLACK
6
CONTINUOUS
10
6.1622059055118106
20
-4.2910106692913388
11
6.1614566929133856
21
-4.2872440944881891
0
LINE
8
BLACK
6
CONTINUOUS
10
6.1614566929133856
20
-4.2872440944881891
11
6.1614566929133856
21
-4.2675590551181104
0
LINE
8
BLACK
6
CONTINUOUS
10
6.1614566929133856
20
-4.2675590551181104
11
6.1622059055118106
21
-4.2637924803149607
0
LINE
8
BLACK
6
CONTINUOUS
10
6.1622059055118106
20
-4.2637924803149607
11
6.1643394881889764
21
-4.2605993307086614
0
LINE
8
BLACK
6
CONTINUOUS
10
6.1643394881889764
20
-4.2605993307086614
11
6.1675326377952757
21
-4.2584657480314956
0
LINE
8
BLACK
6
CONTINUOUS
10
6.1675326377952757
20
-4.2584657480314956
11
6.1712992125984254
21
-4.2577165354330706
0
LINE
8
BLACK
6
CONTINUOUS
10
6.1712992125984254
20
-4.2577165354330706
11
6.2087007874015745
21
-4.2577165354330706
0
LINE
8
BLACK
6
CONTINUOUS
10
6.2087007874015745
20
-4.2577165354330706
11
6.2124673622047242
21
-4.2584657480314956
0
LINE
8
BLACK
6
CONTINUOUS
10
6.3324673622047243
20
-4.2584657480314956
11
6.3356605118110236
21
-4.2605993307086614
0
LINE
8
BLACK
6
CONTINUOUS
10
6.3356605118110236
20
-4.2605993307086614
11
6.3377940944881885
21
-4.2637924803149607
0
LINE
8
BLACK
6
CONTINUOUS
10
6.3377940944881885
20
-4.2637924803149607
11
6.3385433070866144
21
-4.2675590551181104
0
LINE
8
BLACK
6
CONTINUOUS
10
6.3385433070866144
20
-4.2675590551181104
11
6.3385433070866144
21
-4.2872440944881891
0
LINE
8
BLACK
6
CONTINUOUS
10
6.3385433070866144
20
-4.2872440944881891
11
6.3377940944881885
21
-4.2910106692913388
0
LINE
8
BLACK
6
CONTINUOUS
10
6.3377940944881885
20
-4.2910106692913388
11
6.3356605118110236
21
-4.2942038188976381
0
LINE
8
BLACK
6
CONTINUOUS
10
6.3356605118110236
20
-4.2942038188976381
11
6.3324673622047243
21
-4.296337401574803
0
LINE
8
BLACK
6
CONTINUOUS
10
6.3324673622047243
20
-4.296337401574803
11
6.3287007874015746
21
-4.297086614173228
0
LINE
8
BLACK
6
CONTINUOUS
10
6.3287007874015746
20
-4.297086614173228
11
6.2912992125984246
21
-4.297086614173228
0
LINE
8
BLACK
6
CONTINUOUS
10
6.2912992125984246
20
-4.297086614173228
11
6.2875326377952758
21
-4.296337401574803
0
LINE
8
BLACK
6
CONTINUOUS
10
6.2875326377952758
20
-4.296337401574803
11
6.2843394881889765
21
-4.2942038188976381
0
LINE
8
BLACK
6
CONTINUOUS
10
6.2843394881889765
20
-4.2942038188976381
11
6.2822059055118107
21
-4.2910106692913388
0
LINE
8
BLACK
6
CONTINUOUS
10
6.2822059055118107
20
-4.2910106692913388
11
6.2814566929133857
21
-4.2872440944881891
0
LINE
8
BLACK
6
CONTINUOUS
10
6.2814566929133857
20
-4.2872440944881891
11
6.2814566929133857
21
-4.2675590551181104
0
LINE
8
BLACK
6
CONTINUOUS
10
6.2814566929133857
20
-4.2675590551181104
11
6.2822059055118107
21
-4.2637924803149607
0
LINE
8
BLACK
6
CONTINUOUS
10
6.2822059055118107
20
-4.2637924803149607
11
6.2843394881889765
21
-4.2605993307086614
0
LINE
8
BLACK
6
CONTINUOUS
10
6.2843394881889765
20
-4.2605993307086614
11
6.2875326377952758
21
-4.2584657480314956
0
LINE
8
BLACK
6
CONTINUOUS
10
6.2875326377952758
20
-4.2584657480314956
11
6.2912992125984246
21
-4.2577165354330706
0
LINE
8
BLACK
6
CONTINUOUS
10
6.2912992125984246
20
-4.2577165354330706
11
6.3287007874015746
21
-4.2577165354330706
0
LINE
8
BLACK
6
CONTINUOUS
10
6.3287007874015746
20
-4.2577165354330706
11
6.3324673622047243
21
-4.2584657480314956
0
LINE
8
BLACK
6
CONTINUOUS
10
4.9569154724409445
20
-4.2619751181102359
11
4.9588313385826774
21
-4.2632552755905513
0
LINE
8
BLACK
6
CONTINUOUS
10
4.9588313385826774
20
-4.2632552755905513
11
4.960111496062992
21
-4.2651711417322833
0
LINE
8
BLACK
6
CONTINUOUS
10
4.960111496062992
20
-4.2651711417322833
11
4.9605610236220468
21
-4.2674311023622042
0
LINE
8
BLACK
6
CONTINUOUS
10
4.9605610236220468
20
-4.2674311023622042
11
4.9605610236220468
21
-4.2792421259842515
0
LINE
8
BLACK
6
CONTINUOUS
10
4.9605610236220468
20
-4.2792421259842515
11
4.960111496062992
21
-4.2815020866141733
0
LINE
8
BLACK
6
CONTINUOUS
10
4.960111496062992
20
-4.2815020866141733
11
4.9588313385826774
21
-4.2834179527559053
0
LINE
8
BLACK
6
CONTINUOUS
10
4.9588313385826774
20
-4.2834179527559053
11
4.9569154724409445
21
-4.2846981102362207
0
LINE
8
BLACK
6
CONTINUOUS
10
4.9569154724409445
20
-4.2846981102362207
11
4.9546555118110236
21
-4.2851476377952755
0
LINE
8
BLACK
6
CONTINUOUS
10
4.9546555118110236
20
-4.2851476377952755
11
4.9143011811023625
21
-4.2851476377952755
0
LINE
8
BLACK
6
CONTINUOUS
10
4.9143011811023625
20
-4.2851476377952755
11
4.9120412204724406
21
-4.2846981102362207
0
LINE
8
BLACK
6
CONTINUOUS
10
4.9120412204724406
20
-4.2846981102362207
11
4.9101253543307086
21
-4.2834179527559053
0
LINE
8
BLACK
6
CONTINUOUS
10
4.9101253543307086
20
-4.2834179527559053
11
4.9088451968503932
21
-4.2815020866141733
0
LINE
8
BLACK
6
CONTINUOUS
10
4.9088451968503932
20
-4.2815020866141733
11
4.9083956692913384
21
-4.2792421259842515
0
LINE
8
BLACK
6
CONTINUOUS
10
4.9083956692913384
20
-4.2792421259842515
11
4.9083956692913384
21
-4.2674311023622042
0
LINE
8
BLACK
6
CONTINUOUS
10
4.9083956692913384
20
-4.2674311023622042
11
4.9088451968503932
21
-4.2651711417322833
0
LINE
8
BLACK
6
CONTINUOUS
10
4.9088451968503932
20
-4.2651711417322833
11
4.9101253543307086
21
-4.2632552755905513
0
LINE
8
BLACK
6
CONTINUOUS
10
4.9101253543307086
20
-4.2632552755905513
11
4.9120412204724406
21
-4.2619751181102359
0
LINE
8
BLACK
6
CONTINUOUS
10
4.9120412204724406
20
-4.2619751181102359
11
4.9143011811023625
21
-4.2615255905511811
0
LINE
8
BLACK
6
CONTINUOUS
10
4.9143011811023625
20
-4.2615255905511811
11
4.9546555118110236
21
-4.2615255905511811
0
LINE
8
BLACK
6
CONTINUOUS
10
4.9546555118110236
20
-4.2615255905511811
11
4.9569154724409445
21
-4.2619751181102359
0
LINE
8
BLACK
6
CONTINUOUS
10
5.0464824015748029
20
-4.2619751181102359
11
5.0483982677165349
21
-4.2632552755905513
0
LINE
8
BLACK
6
CONTINUOUS
10
5.0483982677165349
20
-4.2632552755905513
11
5.0496784251968503
21
-4.2651711417322833
0
LINE
8
BLACK
6
CONTINUOUS
10
5.0496784251968503
20
-4.2651711417322833
11
5.0501279527559051
21
-4.2674311023622042
0
LINE
8
BLACK
6
CONTINUOUS
10
5.0501279527559051
20
-4.2674311023622042
11
5.0501279527559051
21
-4.2792421259842515
0
LINE
8
BLACK
6
CONTINUOUS
10
5.0501279527559051
20
-4.2792421259842515
11
5.0496784251968503
21
-4.2815020866141733
0
LINE
8
BLACK
6
CONTINUOUS
10
5.0496784251968503
20
-4.2815020866141733
11
5.0483982677165349
21
-4.2834179527559053
0
LINE
8
BLACK
6
CONTINUOUS
10
5.0483982677165349
20
-4.2834179527559053
11
5.0464824015748029
21
-4.2846981102362207
0
LINE
8
BLACK
6
CONTINUOUS
10
5.0464824015748029
20
-4.2846981102362207
11
5.0442224409448819
21
-4.2851476377952755
0
LINE
8
BLACK
6
CONTINUOUS
10
5.0442224409448819
20
-4.2851476377952755
11
5.0038681102362208
21
-4.2851476377952755
0
LINE
8
BLACK
6
CONTINUOUS
10
5.0038681102362208
20
-4.2851476377952755
11
5.001608149606299
21
-4.2846981102362207
0
LINE
8
BLACK
6
CONTINUOUS
10
5.001608149606299
20
-4.2846981102362207
11
4.999692283464567
21
-4.2834179527559053
0
LINE
8
BLACK
6
CONTINUOUS
10
4.999692283464567
20
-4.2834179527559053
11
4.9984121259842516
21
-4.2815020866141733
0
LINE
8
BLACK
6
CONTINUOUS
10
4.9984121259842516
20
-4.2815020866141733
11
4.9979625984251967
21
-4.2792421259842515
0
LINE
8
BLACK
6
CONTINUOUS
10
4.9979625984251967
20
-4.2792421259842515
11
4.9979625984251967
21
-4.2674311023622042
0
LINE
8
BLACK
6
CONTINUOUS
10
4.9979625984251967
20
-4.2674311023622042
11
4.9984121259842516
21
-4.2651711417322833
0
LINE
8
BLACK
6
CONTINUOUS
10
4.9984121259842516
20
-4.2651711417322833
11
4.999692283464567
21
-4.2632552755905513
0
LINE
8
BLACK
6
CONTINUOUS
10
4.999692283464567
20
-4.2632552755905513
11
5.001608149606299
21
-4.2619751181102359
0
LINE
8
BLACK
6
CONTINUOUS
10
5.001608149606299
20
-4.2619751181102359
11
5.0038681102362208
21
-4.2615255905511811
0
LINE
8
BLACK
6
CONTINUOUS
10
5.0038681102362208
20
-4.2615255905511811
11
5.0442224409448819
21
-4.2615255905511811
0
LINE
8
BLACK
6
CONTINUOUS
10
5.0442224409448819
20
-4.2615255905511811
11
5.0464824015748029
21
-4.2619751181102359
0
LINE
8
BLACK
6
CONTINUOUS
10
5.3724673622047243
20
-4.238465748031496
11
5.3756605118110237
21
-4.2405993307086609
0
LINE
8
BLACK
6
CONTINUOUS
10
5.3756605118110237
20
-4.2405993307086609
11
5.3777940944881886
21
-4.2437924803149603
0
LINE
8
BLACK
6
CONTINUOUS
10
5.3777940944881886
20
-4.2437924803149603
11
5.3785433070866144
21
-4.2475590551181099
0
LINE
8
BLACK
6
CONTINUOUS
10
5.3785433070866144
20
-4.2475590551181099
11
5.3785433070866144
21
-4.2672440944881886
0
LINE
8
BLACK
6
CONTINUOUS
10
5.3785433070866144
20
-4.2672440944881886
11
5.3777940944881886
21
-4.2710106692913383
0
LINE
8
BLACK
6
CONTINUOUS
10
5.3777940944881886
20
-4.2710106692913383
11
5.3756605118110237
21
-4.2742038188976377
0
LINE
8
BLACK
6
CONTINUOUS
10
5.3756605118110237
20
-4.2742038188976377
11
5.3724673622047243
21
-4.2763374015748035
0
LINE
8
BLACK
6
CONTINUOUS
10
5.3724673622047243
20
-4.2763374015748035
11
5.3687007874015746
21
-4.2770866141732284
0
LINE
8
BLACK
6
CONTINUOUS
10
5.3687007874015746
20
-4.2770866141732284
11
5.3312992125984247
21
-4.2770866141732284
0
LINE
8
BLACK
6
CONTINUOUS
10
5.3312992125984247
20
-4.2770866141732284
11
5.3275326377952759
21
-4.2763374015748035
0
LINE
8
BLACK
6
CONTINUOUS
10
5.3275326377952759
20
-4.2763374015748035
11
5.3243394881889765
21
-4.2742038188976377
0
LINE
8
BLACK
6
CONTINUOUS
10
5.3243394881889765
20
-4.2742038188976377
11
5.3222059055118107
21
-4.2710106692913383
0
LINE
8
BLACK
6
CONTINUOUS
10
5.3222059055118107
20
-4.2710106692913383
11
5.3214566929133857
21
-4.2672440944881886
0
LINE
8
BLACK
6
CONTINUOUS
10
5.3214566929133857
20
-4.2672440944881886
11
5.3214566929133857
21
-4.2475590551181099
0
LINE
8
BLACK
6
CONTINUOUS
10
5.3214566929133857
20
-4.2475590551181099
11
5.3222059055118107
21
-4.2437924803149603
0
LINE
8
BLACK
6
CONTINUOUS
10
5.3222059055118107
20
-4.2437924803149603
11
5.3243394881889765
21
-4.2405993307086609
0
LINE
8
BLACK
6
CONTINUOUS
10
5.3243394881889765
20
-4.2405993307086609
11
5.3275326377952759
21
-4.238465748031496
0
LINE
8
BLACK
6
CONTINUOUS
10
5.3275326377952759
20
-4.238465748031496
11
5.3312992125984247
21
-4.237716535433071
0
LINE
8
BLACK
6
CONTINUOUS
10
5.3312992125984247
20
-4.237716535433071
11
5.3687007874015746
21
-4.237716535433071
0
LINE
8
BLACK
6
CONTINUOUS
10
5.3687007874015746
20
-4.237716535433071
11
5.3724673622047243
21
-4.238465748031496
0
LINE
8
BLACK
6
CONTINUOUS
10
4.8514831102362201
20
-4.2324224409448821
11
4.8546762598425195
21
-4.234556023622047
0
LINE
8
BLACK
6
CONTINUOUS
10
4.8546762598425195
20
-4.234556023622047
11
4.8568098425196853
21
-4.2377491732283463
0
LINE
8
BLACK
6
CONTINUOUS
10
4.8568098425196853
20
-4.2377491732283463
11
4.8575590551181103
21
-4.241515748031496
0
LINE
8
BLACK
6
CONTINUOUS
10
4.8575590551181103
20
-4.241515748031496
11
4.8575590551181103
21
-4.2621850393700784
0
LINE
8
BLACK
6
CONTINUOUS
10
4.8575590551181103
20
-4.2621850393700784
11
4.8568098425196853
21
-4.2659516141732281
0
LINE
8
BLACK
6
CONTINUOUS
10
4.8568098425196853
20
-4.2659516141732281
11
4.8546762598425195
21
-4.2691447637795275
0
LINE
8
BLACK
6
CONTINUOUS
10
4.8546762598425195
20
-4.2691447637795275
11
4.8514831102362201
21
-4.2712783464566932
0
LINE
8
BLACK
6
CONTINUOUS
10
4.8514831102362201
20
-4.2712783464566932
11
4.8477165354330705
21
-4.2720275590551182
0
LINE
8
BLACK
6
CONTINUOUS
10
4.8477165354330705
20
-4.2720275590551182
11
4.8122834645669288
21
-4.2720275590551182
0
LINE
8
BLACK
6
CONTINUOUS
10
4.8122834645669288
20
-4.2720275590551182
11
4.8085168897637791
21
-4.2712783464566932
0
LINE
8
BLACK
6
CONTINUOUS
10
4.8085168897637791
20
-4.2712783464566932
11
4.8053237401574798
21
-4.2691447637795275
0
LINE
8
BLACK
6
CONTINUOUS
10
4.8053237401574798
20
-4.2691447637795275
11
4.8031901574803149
21
-4.2659516141732281
0
LINE
8
BLACK
6
CONTINUOUS
10
4.8031901574803149
20
-4.2659516141732281
11
4.8024409448818899
21
-4.2621850393700784
0
LINE
8
BLACK
6
CONTINUOUS
10
4.8024409448818899
20
-4.2621850393700784
11
4.8024409448818899
21
-4.241515748031496
0
LINE
8
BLACK
6
CONTINUOUS
10
4.8024409448818899
20
-4.241515748031496
11
4.8031901574803149
21
-4.2377491732283463
0
LINE
8
BLACK
6
CONTINUOUS
10
4.8031901574803149
20
-4.2377491732283463
11
4.8053237401574798
21
-4.234556023622047
0
LINE
8
BLACK
6
CONTINUOUS
10
4.8053237401574798
20
-4.234556023622047
11
4.8085168897637791
21
-4.2324224409448821
0
LINE
8
BLACK
6
CONTINUOUS
10
4.8085168897637791
20
-4.2324224409448821
11
4.8122834645669288
21
-4.2316732283464562
0
LINE
8
BLACK
6
CONTINUOUS
10
4.8122834645669288
20
-4.2316732283464562
11
4.8477165354330705
21
-4.2316732283464562
0
LINE
8
BLACK
6
CONTINUOUS
10
4.8477165354330705
20
-4.2316732283464562
11
4.8514831102362201
21
-4.2324224409448821
0
LINE
8
BLACK
6
CONTINUOUS
10
6.453779527559055
20
-4.2693700787401569
11
6.4262204724409449
21
-4.2693700787401569
0
LINE
8
BLACK
6
CONTINUOUS
10
6.4262204724409449
20
-4.2693700787401569
11
6.4262204724409449
21
-4.2457480314960625
0
LINE
8
BLACK
6
CONTINUOUS
10
6.4262204724409449
20
-4.2457480314960625
11
6.453779527559055
21
-4.2457480314960625
0
LINE
8
BLACK
6
CONTINUOUS
10
6.453779527559055
20
-4.2457480314960625
11
6.453779527559055
21
-4.2693700787401569
0
LINE
8
BLACK
6
CONTINUOUS
10
5.1614831102362206
20
-4.2146468503937005
11
5.16467625984252
21
-4.2167804330708663
0
LINE
8
BLACK
6
CONTINUOUS
10
5.16467625984252
20
-4.2167804330708663
11
5.1668098425196849
21
-4.2199735826771656
0
LINE
8
BLACK
6
CONTINUOUS
10
5.1668098425196849
20
-4.2199735826771656
11
5.1675590551181099
21
-4.2237401574803153
0
LINE
8
BLACK
6
CONTINUOUS
10
5.1675590551181099
20
-4.2237401574803153
11
5.1675590551181099
21
-4.2444094488188977
0
LINE
8
BLACK
6
CONTINUOUS
10
5.1675590551181099
20
-4.2444094488188977
11
5.1668098425196849
21
-4.2481760236220474
0
LINE
8
BLACK
6
CONTINUOUS
10
5.1668098425196849
20
-4.2481760236220474
11
5.16467625984252
21
-4.2513691732283467
0
LINE
8
BLACK
6
CONTINUOUS
10
5.16467625984252
20
-4.2513691732283467
11
5.1614831102362206
21
-4.2535027559055116
0
LINE
8
BLACK
6
CONTINUOUS
10
5.1614831102362206
20
-4.2535027559055116
11
5.157716535433071
21
-4.2542519685039366
0
LINE
8
BLACK
6
CONTINUOUS
10
5.157716535433071
20
-4.2542519685039366
11
5.1222834645669293
21
-4.2542519685039366
0
LINE
8
BLACK
6
CONTINUOUS
10
5.1222834645669293
20
-4.2542519685039366
11
5.1185168897637796
21
-4.2535027559055116
0
LINE
8
BLACK
6
CONTINUOUS
10
5.1185168897637796
20
-4.2535027559055116
11
5.1153237401574803
21
-4.2513691732283467
0
LINE
8
BLACK
6
CONTINUOUS
10
5.1153237401574803
20
-4.2513691732283467
11
5.1131901574803145
21
-4.2481760236220474
0
LINE
8
BLACK
6
CONTINUOUS
10
5.1131901574803145
20
-4.2481760236220474
11
5.1124409448818895
21
-4.2444094488188977
0
LINE
8
BLACK
6
CONTINUOUS
10
5.1124409448818895
20
-4.2444094488188977
11
5.1124409448818895
21
-4.2237401574803153
0
LINE
8
BLACK
6
CONTINUOUS
10
5.1124409448818895
20
-4.2237401574803153
11
5.1131901574803145
21
-4.2199735826771656
0
LINE
8
BLACK
6
CONTINUOUS
10
5.1131901574803145
20
-4.2199735826771656
11
5.1153237401574803
21
-4.2167804330708663
0
LINE
8
BLACK
6
CONTINUOUS
10
5.1153237401574803
20
-4.2167804330708663
11
5.1185168897637796
21
-4.2146468503937005
0
LINE
8
BLACK
6
CONTINUOUS
10
5.1185168897637796
20
-4.2146468503937005
11
5.1222834645669293
21
-4.2138976377952755
0
LINE
8
BLACK
6
CONTINUOUS
10
5.1222834645669293
20
-4.2138976377952755
11
5.157716535433071
21
-4.2138976377952755
0
LINE
8
BLACK
6
CONTINUOUS
10
5.157716535433071
20
-4.2138976377952755
11
5.1614831102362206
21
-4.2146468503937005
0
LINE
8
BLACK
6
CONTINUOUS
10
5.262467362204724
20
-4.2136625984251967
11
5.2656605118110233
21
-4.2157961811023625
0
LINE
8
BLACK
6
CONTINUOUS
10
5.2656605118110233
20
-4.2157961811023625
11
5.2677940944881891
21
-4.218989330708661
0
LINE
8
BLACK
6
CONTINUOUS
10
5.2677940944881891
20
-4.218989330708661
11
5.2685433070866141
21
-4.2227559055118107
0
LINE
8
BLACK
6
CONTINUOUS
10
5.2685433070866141
20
-4.2227559055118107
11
5.2685433070866141
21
-4.2424409448818894
0
LINE
8
BLACK
6
CONTINUOUS
10
5.2685433070866141
20
-4.2424409448818894
11
5.2677940944881891
21
-4.2462075196850391
0
LINE
8
BLACK
6
CONTINUOUS
10
5.2677940944881891
20
-4.2462075196850391
11
5.2656605118110233
21
-4.2494006692913384
0
LINE
8
BLACK
6
CONTINUOUS
10
5.2656605118110233
20
-4.2494006692913384
11
5.262467362204724
21
-4.2515342519685042
0
LINE
8
BLACK
6
CONTINUOUS
10
5.262467362204724
20
-4.2515342519685042
11
5.2587007874015743
21
-4.2522834645669292
0
LINE
8
BLACK
6
CONTINUOUS
10
5.2587007874015743
20
-4.2522834645669292
11
5.2212992125984252
21
-4.2522834645669292
0
LINE
8
BLACK
6
CONTINUOUS
10
5.2212992125984252
20
-4.2522834645669292
11
5.2175326377952755
21
-4.2515342519685042
0
LINE
8
BLACK
6
CONTINUOUS
10
5.2175326377952755
20
-4.2515342519685042
11
5.2143394881889762
21
-4.2494006692913384
0
LINE
8
BLACK
6
CONTINUOUS
10
5.2143394881889762
20
-4.2494006692913384
11
5.2122059055118113
21
-4.2462075196850391
0
LINE
8
BLACK
6
CONTINUOUS
10
5.2122059055118113
20
-4.2462075196850391
11
5.2114566929133854
21
-4.2424409448818894
0
LINE
8
BLACK
6
CONTINUOUS
10
5.2114566929133854
20
-4.2424409448818894
11
5.2114566929133854
21
-4.2227559055118107
0
LINE
8
BLACK
6
CONTINUOUS
10
5.2114566929133854
20
-4.2227559055118107
11
5.2122059055118113
21
-4.218989330708661
0
LINE
8
BLACK
6
CONTINUOUS
10
5.2122059055118113
20
-4.218989330708661
11
5.2143394881889762
21
-4.2157961811023625
0
LINE
8
BLACK
6
CONTINUOUS
10
5.2143394881889762
20
-4.2157961811023625
11
5.2175326377952755
21
-4.2136625984251967
0
LINE
8
BLACK
6
CONTINUOUS
10
5.2175326377952755
20
-4.2136625984251967
11
5.2212992125984252
21
-4.2129133858267718
0
LINE
8
BLACK
6
CONTINUOUS
10
5.2212992125984252
20
-4.2129133858267718
11
5.2587007874015743
21
-4.2129133858267718
0
LINE
8
BLACK
6
CONTINUOUS
10
5.2587007874015743
20
-4.2129133858267718
11
5.262467362204724
21
-4.2136625984251967
0
LINE
8
BLACK
6
CONTINUOUS
10
4.9569154724409445
20
-4.2245735433070868
11
4.9588313385826774
21
-4.2258537007874013
0
LINE
8
BLACK
6
CONTINUOUS
10
4.9588313385826774
20
-4.2258537007874013
11
4.960111496062992
21
-4.2277695669291342
0
LINE
8
BLACK
6
CONTINUOUS
10
4.960111496062992
20
-4.2277695669291342
11
4.9605610236220468
21
-4.2300295275590551
0
LINE
8
BLACK
6
CONTINUOUS
10
4.9605610236220468
20
-4.2300295275590551
11
4.9605610236220468
21
-4.2418405511811024
0
LINE
8
BLACK
6
CONTINUOUS
10
4.9605610236220468
20
-4.2418405511811024
11
4.960111496062992
21
-4.2441005118110233
0
LINE
8
BLACK
6
CONTINUOUS
10
4.960111496062992
20
-4.2441005118110233
11
4.9588313385826774
21
-4.2460163779527562
0
LINE
8
BLACK
6
CONTINUOUS
10
4.9588313385826774
20
-4.2460163779527562
11
4.9569154724409445
21
-4.2472965354330707
0
LINE
8
BLACK
6
CONTINUOUS
10
4.9569154724409445
20
-4.2472965354330707
11
4.9546555118110236
21
-4.2477460629921255
0
LINE
8
BLACK
6
CONTINUOUS
10
4.9546555118110236
20
-4.2477460629921255
11
4.9143011811023625
21
-4.2477460629921255
0
LINE
8
BLACK
6
CONTINUOUS
10
4.9143011811023625
20
-4.2477460629921255
11
4.9120412204724406
21
-4.2472965354330707
0
LINE
8
BLACK
6
CONTINUOUS
10
4.9120412204724406
20
-4.2472965354330707
11
4.9101253543307086
21
-4.2460163779527562
0
LINE
8
BLACK
6
CONTINUOUS
10
4.9101253543307086
20
-4.2460163779527562
11
4.9088451968503932
21
-4.2441005118110233
0
LINE
8
BLACK
6
CONTINUOUS
10
4.9088451968503932
20
-4.2441005118110233
11
4.9083956692913384
21
-4.2418405511811024
0
LINE
8
BLACK
6
CONTINUOUS
10
4.9083956692913384
20
-4.2418405511811024
11
4.9083956692913384
21
-4.2300295275590551
0
LINE
8
BLACK
6
CONTINUOUS
10
4.9083956692913384
20
-4.2300295275590551
11
4.9088451968503932
21
-4.2277695669291342
0
LINE
8
BLACK
6
CONTINUOUS
10
4.9088451968503932
20
-4.2277695669291342
11
4.9101253543307086
21
-4.2258537007874013
0
LINE
8
BLACK
6
CONTINUOUS
10
4.9101253543307086
20
-4.2258537007874013
11
4.9120412204724406
21
-4.2245735433070868
0
LINE
8
BLACK
6
CONTINUOUS
10
4.9120412204724406
20
-4.2245735433070868
11
4.9143011811023625
21
-4.2241240157480311
0
LINE
8
BLACK
6
CONTINUOUS
10
4.9143011811023625
20
-4.2241240157480311
11
4.9546555118110236
21
-4.2241240157480311
0
LINE
8
BLACK
6
CONTINUOUS
10
4.9546555118110236
20
-4.2241240157480311
11
4.9569154724409445
21
-4.2245735433070868
0
LINE
8
BLACK
6
CONTINUOUS
10
5.0464824015748029
20
-4.2245735433070868
11
5.0483982677165349
21
-4.2258537007874013
0
LINE
8
BLACK
6
CONTINUOUS
10
5.0483982677165349
20
-4.2258537007874013
11
5.0496784251968503
21
-4.2277695669291342
0
LINE
8
BLACK
6
CONTINUOUS
10
5.0496784251968503
20
-4.2277695669291342
11
5.0501279527559051
21
-4.2300295275590551
0
LINE
8
BLACK
6
CONTINUOUS
10
5.0501279527559051
20
-4.2300295275590551
11
5.0501279527559051
21
-4.2418405511811024
0
LINE
8
BLACK
6
CONTINUOUS
10
5.0501279527559051
20
-4.2418405511811024
11
5.0496784251968503
21
-4.2441005118110233
0
LINE
8
BLACK
6
CONTINUOUS
10
5.0496784251968503
20
-4.2441005118110233
11
5.0483982677165349
21
-4.2460163779527562
0
LINE
8
BLACK
6
CONTINUOUS
10
5.0483982677165349
20
-4.2460163779527562
11
5.0464824015748029
21
-4.2472965354330707
0
LINE
8
BLACK
6
CONTINUOUS
10
5.0464824015748029
20
-4.2472965354330707
11
5.0442224409448819
21
-4.2477460629921255
0
LINE
8
BLACK
6
CONTINUOUS
10
5.0442224409448819
20
-4.2477460629921255
11
5.0038681102362208
21
-4.2477460629921255
0
LINE
8
BLACK
6
CONTINUOUS
10
5.0038681102362208
20
-4.2477460629921255
11
5.001608149606299
21
-4.2472965354330707
0
LINE
8
BLACK
6
CONTINUOUS
10
5.001608149606299
20
-4.2472965354330707
11
4.999692283464567
21
-4.2460163779527562
0
LINE
8
BLACK
6
CONTINUOUS
10
4.999692283464567
20
-4.2460163779527562
11
4.9984121259842516
21
-4.2441005118110233
0
LINE
8
BLACK
6
CONTINUOUS
10
4.9984121259842516
20
-4.2441005118110233
11
4.9979625984251967
21
-4.2418405511811024
0
LINE
8
BLACK
6
CONTINUOUS
10
4.9979625984251967
20
-4.2418405511811024
11
4.9979625984251967
21
-4.2300295275590551
0
LINE
8
BLACK
6
CONTINUOUS
10
4.9979625984251967
20
-4.2300295275590551
11
4.9984121259842516
21
-4.2277695669291342
0
LINE
8
BLACK
6
CONTINUOUS
10
4.9984121259842516
20
-4.2277695669291342
11
4.999692283464567
21
-4.2258537007874013
0
LINE
8
BLACK
6
CONTINUOUS
10
4.999692283464567
20
-4.2258537007874013
11
5.001608149606299
21
-4.2245735433070868
0
LINE
8
BLACK
6
CONTINUOUS
10
5.001608149606299
20
-4.2245735433070868
11
5.0038681102362208
21
-4.2241240157480311
0
LINE
8
BLACK
6
CONTINUOUS
10
5.0038681102362208
20
-4.2241240157480311
11
5.0442224409448819
21
-4.2241240157480311
0
LINE
8
BLACK
6
CONTINUOUS
10
5.0442224409448819
20
-4.2241240157480311
11
5.0464824015748029
21
-4.2245735433070868
0
LINE
8
BLACK
6
CONTINUOUS
10
5.7781760236220467
20
-4.1831901574803148
11
5.7813691732283461
21
-4.1853237401574805
0
LINE
8
BLACK
6
CONTINUOUS
10
5.7813691732283461
20
-4.1853237401574805
11
5.7835027559055119
21
-4.188516889763779
0
LINE
8
BLACK
6
CONTINUOUS
10
5.7835027559055119
20
-4.188516889763779
11
5.7842519685039369
21
-4.1922834645669287
0
LINE
8
BLACK
6
CONTINUOUS
10
5.7842519685039369
20
-4.1922834645669287
11
5.7842519685039369
21
-4.2277165354330704
0
LINE
8
BLACK
6
CONTINUOUS
10
5.7842519685039369
20
-4.2277165354330704
11
5.7835027559055119
21
-4.23148311023622
0
LINE
8
BLACK
6
CONTINUOUS
10
5.7835027559055119
20
-4.23148311023622
11
5.7813691732283461
21
-4.2346762598425194
0
LINE
8
BLACK
6
CONTINUOUS
10
5.7813691732283461
20
-4.2346762598425194
11
5.7781760236220467
21
-4.2368098425196852
0
LINE
8
BLACK
6
CONTINUOUS
10
5.7781760236220467
20
-4.2368098425196852
11
5.7744094488188979
21
-4.2375590551181102
0
LINE
8
BLACK
6
CONTINUOUS
10
5.7744094488188979
20
-4.2375590551181102
11
5.7537401574803146
21
-4.2375590551181102
0
LINE
8
BLACK
6
CONTINUOUS
10
5.7537401574803146
20
-4.2375590551181102
11
5.749973582677165
21
-4.2368098425196852
0
LINE
8
BLACK
6
CONTINUOUS
10
5.749973582677165
20
-4.2368098425196852
11
5.7467804330708656
21
-4.2346762598425194
0
LINE
8
BLACK
6
CONTINUOUS
10
5.7467804330708656
20
-4.2346762598425194
11
5.7446468503937007
21
-4.23148311023622
0
LINE
8
BLACK
6
CONTINUOUS
10
5.7446468503937007
20
-4.23148311023622
11
5.7438976377952757
21
-4.2277165354330704
0
LINE
8
BLACK
6
CONTINUOUS
10
5.7438976377952757
20
-4.2277165354330704
11
5.7438976377952757
21
-4.1922834645669287
0
LINE
8
BLACK
6
CONTINUOUS
10
5.7438976377952757
20
-4.1922834645669287
11
5.7446468503937007
21
-4.188516889763779
0
LINE
8
BLACK
6
CONTINUOUS
10
5.7446468503937007
20
-4.188516889763779
11
5.7467804330708656
21
-4.1853237401574805
0
LINE
8
BLACK
6
CONTINUOUS
10
5.7467804330708656
20
-4.1853237401574805
11
5.749973582677165
21
-4.1831901574803148
0
LINE
8
BLACK
6
CONTINUOUS
10
5.749973582677165
20
-4.1831901574803148
11
5.7537401574803146
21
-4.1824409448818898
0
LINE
8
BLACK
6
CONTINUOUS
10
5.7537401574803146
20
-4.1824409448818898
11
5.7744094488188979
21
-4.1824409448818898
0
LINE
8
BLACK
6
CONTINUOUS
10
5.7744094488188979
20
-4.1824409448818898
11
5.7781760236220467
21
-4.1831901574803148
0
LINE
8
BLACK
6
CONTINUOUS
10
5.8500264173228347
20
-4.1831901574803148
11
5.853219566929134
21
-4.1853237401574805
0
LINE
8
BLACK
6
CONTINUOUS
10
5.853219566929134
20
-4.1853237401574805
11
5.8553531496062989
21
-4.188516889763779
0
LINE
8
BLACK
6
CONTINUOUS
10
5.8553531496062989
20
-4.188516889763779
11
5.8561023622047239
21
-4.1922834645669287
0
LINE
8
BLACK
6
CONTINUOUS
10
5.8561023622047239
20
-4.1922834645669287
11
5.8561023622047239
21
-4.2277165354330704
0
LINE
8
BLACK
6
CONTINUOUS
10
5.8561023622047239
20
-4.2277165354330704
11
5.8553531496062989
21
-4.23148311023622
0
LINE
8
BLACK
6
CONTINUOUS
10
5.8553531496062989
20
-4.23148311023622
11
5.853219566929134
21
-4.2346762598425194
0
LINE
8
BLACK
6
CONTINUOUS
10
5.853219566929134
20
-4.2346762598425194
11
5.8500264173228347
21
-4.2368098425196852
0
LINE
8
BLACK
6
CONTINUOUS
10
5.8500264173228347
20
-4.2368098425196852
11
5.846259842519685
21
-4.2375590551181102
0
LINE
8
BLACK
6
CONTINUOUS
10
5.846259842519685
20
-4.2375590551181102
11
5.8255905511811026
21
-4.2375590551181102
0
LINE
8
BLACK
6
CONTINUOUS
10
5.8255905511811026
20
-4.2375590551181102
11
5.8218239763779529
21
-4.2368098425196852
0
LINE
8
BLACK
6
CONTINUOUS
10
5.8218239763779529
20
-4.2368098425196852
11
5.8186308267716536
21
-4.2346762598425194
0
LINE
8
BLACK
6
CONTINUOUS
10
5.8186308267716536
20
-4.2346762598425194
11
5.8164972440944878
21
-4.23148311023622
0
LINE
8
BLACK
6
CONTINUOUS
10
5.8164972440944878
20
-4.23148311023622
11
5.8157480314960628
21
-4.2277165354330704
0
LINE
8
BLACK
6
CONTINUOUS
10
5.8157480314960628
20
-4.2277165354330704
11
5.8157480314960628
21
-4.1922834645669287
0
LINE
8
BLACK
6
CONTINUOUS
10
5.8157480314960628
20
-4.1922834645669287
11
5.8164972440944878
21
-4.188516889763779
0
LINE
8
BLACK
6
CONTINUOUS
10
5.8164972440944878
20
-4.188516889763779
11
5.8186308267716536
21
-4.1853237401574805
0
LINE
8
BLACK
6
CONTINUOUS
10
5.8186308267716536
20
-4.1853237401574805
11
5.8218239763779529
21
-4.1831901574803148
0
LINE
8
BLACK
6
CONTINUOUS
10
5.8218239763779529
20
-4.1831901574803148
11
5.8255905511811026
21
-4.1824409448818898
0
LINE
8
BLACK
6
CONTINUOUS
10
5.8255905511811026
20
-4.1824409448818898
11
5.846259842519685
21
-4.1824409448818898
0
LINE
8
BLACK
6
CONTINUOUS
10
5.846259842519685
20
-4.1824409448818898
11
5.8500264173228347
21
-4.1831901574803148
0
LINE
8
BLACK
6
CONTINUOUS
10
4.6507449212598422
20
-4.1879834645669289
11
4.6539380708661415
21
-4.1901170472440947
0
LINE
8
BLACK
6
CONTINUOUS
10
4.6539380708661415
20
-4.1901170472440947
11
4.6560716535433073
21
-4.1933101968503932
0
LINE
8
BLACK
6
CONTINUOUS
10
4.6560716535433073
20
-4.1933101968503932
11
4.6568208661417323
21
-4.1970767716535429
0
LINE
8
BLACK
6
CONTINUOUS
10
4.6568208661417323
20
-4.1970767716535429
11
4.6568208661417323
21
-4.2177460629921262
0
LINE
8
BLACK
6
CONTINUOUS
10
4.6568208661417323
20
-4.2177460629921262
11
4.6560716535433073
21
-4.2215126377952759
0
LINE
8
BLACK
6
CONTINUOUS
10
4.6560716535433073
20
-4.2215126377952759
11
4.6539380708661415
21
-4.2247057874015743
0
LINE
8
BLACK
6
CONTINUOUS
10
4.6539380708661415
20
-4.2247057874015743
11
4.6507449212598422
21
-4.2268393700787401
0
LINE
8
BLACK
6
CONTINUOUS
10
4.6507449212598422
20
-4.2268393700787401
11
4.6469783464566925
21
-4.2275885826771651
0
LINE
8
BLACK
6
CONTINUOUS
10
4.6469783464566925
20
-4.2275885826771651
11
4.6115452755905508
21
-4.2275885826771651
0
LINE
8
BLACK
6
CONTINUOUS
10
4.6115452755905508
20
-4.2275885826771651
11
4.6077787007874011
21
-4.2268393700787401
0
LINE
8
BLACK
6
CONTINUOUS
10
4.6077787007874011
20
-4.2268393700787401
11
4.6045855511811027
21
-4.2247057874015743
0
LINE
8
BLACK
6
CONTINUOUS
10
4.6045855511811027
20
-4.2247057874015743
11
4.6024519685039369
21
-4.2215126377952759
0
LINE
8
BLACK
6
CONTINUOUS
10
4.6024519685039369
20
-4.2215126377952759
11
4.6017027559055119
21
-4.2177460629921262
0
LINE
8
BLACK
6
CONTINUOUS
10
4.6017027559055119
20
-4.2177460629921262
11
4.6017027559055119
21
-4.1970767716535429
0
LINE
8
BLACK
6
CONTINUOUS
10
4.6017027559055119
20
-4.1970767716535429
11
4.6024519685039369
21
-4.1933101968503932
0
LINE
8
BLACK
6
CONTINUOUS
10
4.6024519685039369
20
-4.1933101968503932
11
4.6045855511811027
21
-4.1901170472440947
0
LINE
8
BLACK
6
CONTINUOUS
10
4.6045855511811027
20
-4.1901170472440947
11
4.6077787007874011
21
-4.1879834645669289
0
LINE
8
BLACK
6
CONTINUOUS
10
4.6077787007874011
20
-4.1879834645669289
11
4.6115452755905508
21
-4.187234251968504
0
LINE
8
BLACK
6
CONTINUOUS
10
4.6115452755905508
20
-4.187234251968504
11
4.6469783464566925
21
-4.187234251968504
0
LINE
8
BLACK
6
CONTINUOUS
10
4.6469783464566925
20
-4.187234251968504
11
4.6507449212598422
21
-4.1879834645669289
0
LINE
8
BLACK
6
CONTINUOUS
10
4.7417291732283466
20
-4.1869992125984252
11
4.744922322834646
21
-4.1891327952755901
0
LINE
8
BLACK
6
CONTINUOUS
10
4.744922322834646
20
-4.1891327952755901
11
4.7470559055118109
21
-4.1923259448818895
0
LINE
8
BLACK
6
CONTINUOUS
10
4.7470559055118109
20
-4.1923259448818895
11
4.7478051181102359
21
-4.1960925196850392
0
LINE
8
BLACK
6
CONTINUOUS
10
4.7478051181102359
20
-4.1960925196850392
11
4.7478051181102359
21
-4.2157775590551179
0
LINE
8
BLACK
6
CONTINUOUS
10
4.7478051181102359
20
-4.2157775590551179
11
4.7470559055118109
21
-4.2195441338582675
0
LINE
8
BLACK
6
CONTINUOUS
10
4.7470559055118109
20
-4.2195441338582675
11
4.744922322834646
21
-4.2227372834645669
0
LINE
8
BLACK
6
CONTINUOUS
10
4.744922322834646
20
-4.2227372834645669
11
4.7417291732283466
21
-4.2248708661417318
0
LINE
8
BLACK
6
CONTINUOUS
10
4.7417291732283466
20
-4.2248708661417318
11
4.737962598425197
21
-4.2256200787401577
0
LINE
8
BLACK
6
CONTINUOUS
10
4.737962598425197
20
-4.2256200787401577
11
4.700561023622047
21
-4.2256200787401577
0
LINE
8
BLACK
6
CONTINUOUS
10
4.700561023622047
20
-4.2256200787401577
11
4.6967944488188973
21
-4.2248708661417318
0
LINE
8
BLACK
6
CONTINUOUS
10
4.6967944488188973
20
-4.2248708661417318
11
4.6936012992125979
21
-4.2227372834645669
0
LINE
8
BLACK
6
CONTINUOUS
10
4.6936012992125979
20
-4.2227372834645669
11
4.691467716535433
21
-4.2195441338582675
0
LINE
8
BLACK
6
CONTINUOUS
10
4.691467716535433
20
-4.2195441338582675
11
4.6907185039370081
21
-4.2157775590551179
0
LINE
8
BLACK
6
CONTINUOUS
10
4.6907185039370081
20
-4.2157775590551179
11
4.6907185039370081
21
-4.1960925196850392
0
LINE
8
BLACK
6
CONTINUOUS
10
4.6907185039370081
20
-4.1960925196850392
11
4.691467716535433
21
-4.1923259448818895
0
LINE
8
BLACK
6
CONTINUOUS
10
4.691467716535433
20
-4.1923259448818895
11
4.6936012992125979
21
-4.1891327952755901
0
LINE
8
BLACK
6
CONTINUOUS
10
4.6936012992125979
20
-4.1891327952755901
11
4.6967944488188973
21
-4.1869992125984252
0
LINE
8
BLACK
6
CONTINUOUS
10
4.6967944488188973
20
-4.1869992125984252
11
4.700561023622047
21
-4.1862500000000002
0
LINE
8
BLACK
6
CONTINUOUS
10
4.700561023622047
20
-4.1862500000000002
11
4.737962598425197
21
-4.1862500000000002
0
LINE
8
BLACK
6
CONTINUOUS
10
4.737962598425197
20
-4.1862500000000002
11
4.7417291732283466
21
-4.1869992125984252
0
LINE
8
BLACK
6
CONTINUOUS
10
5.972467362204724
20
-4.1836625984251965
11
5.9756605118110233
21
-4.1857961811023623
0
LINE
8
BLACK
6
CONTINUOUS
10
5.9756605118110233
20
-4.1857961811023623
11
5.9777940944881891
21
-4.1889893307086616
0
LINE
8
BLACK
6
CONTINUOUS
10
5.9777940944881891
20
-4.1889893307086616
11
5.9785433070866141
21
-4.1927559055118113
0
LINE
8
BLACK
6
CONTINUOUS
10
5.9785433070866141
20
-4.1927559055118113
11
5.9785433070866141
21
-4.21244094488189
0
LINE
8
BLACK
6
CONTINUOUS
10
5.9785433070866141
20
-4.21244094488189
11
5.9777940944881891
21
-4.2162075196850397
0
LINE
8
BLACK
6
CONTINUOUS
10
5.9777940944881891
20
-4.2162075196850397
11
5.9756605118110233
21
-4.2194006692913382
0
LINE
8
BLACK
6
CONTINUOUS
10
5.9756605118110233
20
-4.2194006692913382
11
5.972467362204724
21
-4.221534251968504
0
LINE
8
BLACK
6
CONTINUOUS
10
5.972467362204724
20
-4.221534251968504
11
5.9687007874015743
21
-4.2222834645669289
0
LINE
8
BLACK
6
CONTINUOUS
10
5.9687007874015743
20
-4.2222834645669289
11
5.9312992125984252
21
-4.2222834645669289
0
LINE
8
BLACK
6
CONTINUOUS
10
5.9312992125984252
20
-4.2222834645669289
11
5.9275326377952755
21
-4.221534251968504
0
LINE
8
BLACK
6
CONTINUOUS
10
5.9275326377952755
20
-4.221534251968504
11
5.9243394881889762
21
-4.2194006692913382
0
LINE
8
BLACK
6
CONTINUOUS
10
5.9243394881889762
20
-4.2194006692913382
11
5.9222059055118113
21
-4.2162075196850397
0
LINE
8
BLACK
6
CONTINUOUS
10
5.9222059055118113
20
-4.2162075196850397
11
5.9214566929133854
21
-4.21244094488189
0
LINE
8
BLACK
6
CONTINUOUS
10
5.9214566929133854
20
-4.21244094488189
11
5.9214566929133854
21
-4.1927559055118113
0
LINE
8
BLACK
6
CONTINUOUS
10
5.9214566929133854
20
-4.1927559055118113
11
5.9222059055118113
21
-4.1889893307086616
0
LINE
8
BLACK
6
CONTINUOUS
10
5.9222059055118113
20
-4.1889893307086616
11
5.9243394881889762
21
-4.1857961811023623
0
LINE
8
BLACK
6
CONTINUOUS
10
5.9243394881889762
20
-4.1857961811023623
11
5.9275326377952755
21
-4.1836625984251965
0
LINE
8
BLACK
6
CONTINUOUS
10
5.9275326377952755
20
-4.1836625984251965
11
5.9312992125984252
21
-4.1829133858267715
0
LINE
8
BLACK
6
CONTINUOUS
10
5.9312992125984252
20
-4.1829133858267715
11
5.9687007874015743
21
-4.1829133858267715
0
LINE
8
BLACK
6
CONTINUOUS
10
5.9687007874015743
20
-4.1829133858267715
11
5.972467362204724
21
-4.1836625984251965
0
LINE
8
BLACK
6
CONTINUOUS
10
6.0924673622047241
20
-4.1836625984251965
11
6.0956605118110234
21
-4.1857961811023623
0
LINE
8
BLACK
6
CONTINUOUS
10
6.0956605118110234
20
-4.1857961811023623
11
6.0977940944881892
21
-4.1889893307086616
0
LINE
8
BLACK
6
CONTINUOUS
10
6.0977940944881892
20
-4.1889893307086616
11
6.0985433070866142
21
-4.1927559055118113
0
LINE
8
BLACK
6
CONTINUOUS
10
6.0985433070866142
20
-4.1927559055118113
11
6.0985433070866142
21
-4.21244094488189
0
LINE
8
BLACK
6
CONTINUOUS
10
6.0985433070866142
20
-4.21244094488189
11
6.0977940944881892
21
-4.2162075196850397
0
LINE
8
BLACK
6
CONTINUOUS
10
6.0977940944881892
20
-4.2162075196850397
11
6.0956605118110234
21
-4.2194006692913382
0
LINE
8
BLACK
6
CONTINUOUS
10
6.0956605118110234
20
-4.2194006692913382
11
6.0924673622047241
21
-4.221534251968504
0
LINE
8
BLACK
6
CONTINUOUS
10
6.0924673622047241
20
-4.221534251968504
11
6.0887007874015744
21
-4.2222834645669289
0
LINE
8
BLACK
6
CONTINUOUS
10
6.0887007874015744
20
-4.2222834645669289
11
6.0512992125984253
21
-4.2222834645669289
0
LINE
8
BLACK
6
CONTINUOUS
10
6.0512992125984253
20
-4.2222834645669289
11
6.0475326377952756
21
-4.221534251968504
0
LINE
8
BLACK
6
CONTINUOUS
10
6.0475326377952756
20
-4.221534251968504
11
6.0443394881889763
21
-4.2194006692913382
0
LINE
8
BLACK
6
CONTINUOUS
10
6.0443394881889763
20
-4.2194006692913382
11
6.0422059055118105
21
-4.2162075196850397
0
LINE
8
BLACK
6
CONTINUOUS
10
6.0422059055118105
20
-4.2162075196850397
11
6.0414566929133855
21
-4.21244094488189
0
LINE
8
BLACK
6
CONTINUOUS
10
6.0414566929133855
20
-4.21244094488189
11
6.0414566929133855
21
-4.1927559055118113
0
LINE
8
BLACK
6
CONTINUOUS
10
6.0414566929133855
20
-4.1927559055118113
11
6.0422059055118105
21
-4.1889893307086616
0
LINE
8
BLACK
6
CONTINUOUS
10
6.0422059055118105
20
-4.1889893307086616
11
6.0443394881889763
21
-4.1857961811023623
0
LINE
8
BLACK
6
CONTINUOUS
10
6.0443394881889763
20
-4.1857961811023623
11
6.0475326377952756
21
-4.1836625984251965
0
LINE
8
BLACK
6
CONTINUOUS
10
6.0475326377952756
20
-4.1836625984251965
11
6.0512992125984253
21
-4.1829133858267715
0
LINE
8
BLACK
6
CONTINUOUS
10
6.0512992125984253
20
-4.1829133858267715
11
6.0887007874015744
21
-4.1829133858267715
0
LINE
8
BLACK
6
CONTINUOUS
10
6.0887007874015744
20
-4.1829133858267715
11
6.0924673622047241
21
-4.1836625984251965
0
LINE
8
BLACK
6
CONTINUOUS
10
6.2124673622047242
20
-4.1836625984251965
11
6.2156605118110235
21
-4.1857961811023623
0
LINE
8
BLACK
6
CONTINUOUS
10
6.2156605118110235
20
-4.1857961811023623
11
6.2177940944881884
21
-4.1889893307086616
0
LINE
8
BLACK
6
CONTINUOUS
10
6.2177940944881884
20
-4.1889893307086616
11
6.2185433070866143
21
-4.1927559055118113
0
LINE
8
BLACK
6
CONTINUOUS
10
6.2185433070866143
20
-4.1927559055118113
11
6.2185433070866143
21
-4.21244094488189
0
LINE
8
BLACK
6
CONTINUOUS
10
6.2185433070866143
20
-4.21244094488189
11
6.2177940944881884
21
-4.2162075196850397
0
LINE
8
BLACK
6
CONTINUOUS
10
6.2177940944881884
20
-4.2162075196850397
11
6.2156605118110235
21
-4.2194006692913382
0
LINE
8
BLACK
6
CONTINUOUS
10
6.2156605118110235
20
-4.2194006692913382
11
6.2124673622047242
21
-4.221534251968504
0
LINE
8
BLACK
6
CONTINUOUS
10
6.2124673622047242
20
-4.221534251968504
11
6.2087007874015745
21
-4.2222834645669289
0
LINE
8
BLACK
6
CONTINUOUS
10
6.2087007874015745
20
-4.2222834645669289
11
6.1712992125984254
21
-4.2222834645669289
0
LINE
8
BLACK
6
CONTINUOUS
10
6.1712992125984254
20
-4.2222834645669289
11
6.1675326377952757
21
-4.221534251968504
0
LINE
8
BLACK
6
CONTINUOUS
10
6.1675326377952757
20
-4.221534251968504
11
6.1643394881889764
21
-4.2194006692913382
0
LINE
8
BLACK
6
CONTINUOUS
10
6.1643394881889764
20
-4.2194006692913382
11
6.1622059055118106
21
-4.2162075196850397
0
LINE
8
BLACK
6
CONTINUOUS
10
6.1622059055118106
20
-4.2162075196850397
11
6.1614566929133856
21
-4.21244094488189
0
LINE
8
BLACK
6
CONTINUOUS
10
6.1614566929133856
20
-4.21244094488189
11
6.1614566929133856
21
-4.1927559055118113
0
LINE
8
BLACK
6
CONTINUOUS
10
6.1614566929133856
20
-4.1927559055118113
11
6.1622059055118106
21
-4.1889893307086616
0
LINE
8
BLACK
6
CONTINUOUS
10
6.1622059055118106
20
-4.1889893307086616
11
6.1643394881889764
21
-4.1857961811023623
0
LINE
8
BLACK
6
CONTINUOUS
10
6.1643394881889764
20
-4.1857961811023623
11
6.1675326377952757
21
-4.1836625984251965
0
LINE
8
BLACK
6
CONTINUOUS
10
6.1675326377952757
20
-4.1836625984251965
11
6.1712992125984254
21
-4.1829133858267715
0
LINE
8
BLACK
6
CONTINUOUS
10
6.1712992125984254
20
-4.1829133858267715
11
6.2087007874015745
21
-4.1829133858267715
0
LINE
8
BLACK
6
CONTINUOUS
10
6.2087007874015745
20
-4.1829133858267715
11
6.2124673622047242
21
-4.1836625984251965
0
LINE
8
BLACK
6
CONTINUOUS
10
6.3324673622047243
20
-4.1836625984251965
11
6.3356605118110236
21
-4.1857961811023623
0
LINE
8
BLACK
6
CONTINUOUS
10
6.3356605118110236
20
-4.1857961811023623
11
6.3377940944881885
21
-4.1889893307086616
0
LINE
8
BLACK
6
CONTINUOUS
10
6.3377940944881885
20
-4.1889893307086616
11
6.3385433070866144
21
-4.1927559055118113
0
LINE
8
BLACK
6
CONTINUOUS
10
6.3385433070866144
20
-4.1927559055118113
11
6.3385433070866144
21
-4.21244094488189
0
LINE
8
BLACK
6
CONTINUOUS
10
6.3385433070866144
20
-4.21244094488189
11
6.3377940944881885
21
-4.2162075196850397
0
LINE
8
BLACK
6
CONTINUOUS
10
6.3377940944881885
20
-4.2162075196850397
11
6.3356605118110236
21
-4.2194006692913382
0
LINE
8
BLACK
6
CONTINUOUS
10
6.3356605118110236
20
-4.2194006692913382
11
6.3324673622047243
21
-4.221534251968504
0
LINE
8
BLACK
6
CONTINUOUS
10
6.3324673622047243
20
-4.221534251968504
11
6.3287007874015746
21
-4.2222834645669289
0
LINE
8
BLACK
6
CONTINUOUS
10
6.3287007874015746
20
-4.2222834645669289
11
6.2912992125984246
21
-4.2222834645669289
0
LINE
8
BLACK
6
CONTINUOUS
10
6.2912992125984246
20
-4.2222834645669289
11
6.2875326377952758
21
-4.221534251968504
0
LINE
8
BLACK
6
CONTINUOUS
10
6.2875326377952758
20
-4.221534251968504
11
6.2843394881889765
21
-4.2194006692913382
0
LINE
8
BLACK
6
CONTINUOUS
10
6.2843394881889765
20
-4.2194006692913382
11
6.2822059055118107
21
-4.2162075196850397
0
LINE
8
BLACK
6
CONTINUOUS
10
6.2822059055118107
20
-4.2162075196850397
11
6.2814566929133857
21
-4.21244094488189
0
LINE
8
BLACK
6
CONTINUOUS
10
6.2814566929133857
20
-4.21244094488189
11
6.2814566929133857
21
-4.1927559055118113
0
LINE
8
BLACK
6
CONTINUOUS
10
6.2814566929133857
20
-4.1927559055118113
11
6.2822059055118107
21
-4.1889893307086616
0
LINE
8
BLACK
6
CONTINUOUS
10
6.2822059055118107
20
-4.1889893307086616
11
6.2843394881889765
21
-4.1857961811023623
0
LINE
8
BLACK
6
CONTINUOUS
10
6.2843394881889765
20
-4.1857961811023623
11
6.2875326377952758
21
-4.1836625984251965
0
LINE
8
BLACK
6
CONTINUOUS
10
6.2875326377952758
20
-4.1836625984251965
11
6.2912992125984246
21
-4.1829133858267715
0
LINE
8
BLACK
6
CONTINUOUS
10
6.2912992125984246
20
-4.1829133858267715
11
6.3287007874015746
21
-4.1829133858267715
0
LINE
8
BLACK
6
CONTINUOUS
10
6.3287007874015746
20
-4.1829133858267715
11
6.3324673622047243
21
-4.1836625984251965
0
LINE
8
BLACK
6
CONTINUOUS
10
6.453779527559055
20
-4.2142519685039366
11
6.4262204724409449
21
-4.2142519685039366
0
LINE
8
BLACK
6
CONTINUOUS
10
6.4262204724409449
20
-4.2142519685039366
11
6.4262204724409449
21
-4.1906299212598421
0
LINE
8
BLACK
6
CONTINUOUS
10
6.4262204724409449
20
-4.1906299212598421
11
6.453779527559055
21
-4.1906299212598421
0
LINE
8
BLACK
6
CONTINUOUS
10
6.453779527559055
20
-4.1906299212598421
11
6.453779527559055
21
-4.2142519685039366
0
LINE
8
BLACK
6
CONTINUOUS
10
5.3724673622047243
20
-4.1636625984251969
11
5.3756605118110237
21
-4.1657961811023618
0
LINE
8
BLACK
6
CONTINUOUS
10
5.3756605118110237
20
-4.1657961811023618
11
5.3777940944881886
21
-4.1689893307086612
0
LINE
8
BLACK
6
CONTINUOUS
10
5.3777940944881886
20
-4.1689893307086612
11
5.3785433070866144
21
-4.1727559055118109
0
LINE
8
BLACK
6
CONTINUOUS
10
5.3785433070866144
20
-4.1727559055118109
11
5.3785433070866144
21
-4.1924409448818896
0
LINE
8
BLACK
6
CONTINUOUS
10
5.3785433070866144
20
-4.1924409448818896
11
5.3777940944881886
21
-4.1962075196850392
0
LINE
8
BLACK
6
CONTINUOUS
10
5.3777940944881886
20
-4.1962075196850392
11
5.3756605118110237
21
-4.1994006692913386
0
LINE
8
BLACK
6
CONTINUOUS
10
5.3756605118110237
20
-4.1994006692913386
11
5.3724673622047243
21
-4.2015342519685035
0
LINE
8
BLACK
6
CONTINUOUS
10
5.3724673622047243
20
-4.2015342519685035
11
5.3687007874015746
21
-4.2022834645669294
0
LINE
8
BLACK
6
CONTINUOUS
10
5.3687007874015746
20
-4.2022834645669294
11
5.3312992125984247
21
-4.2022834645669294
0
LINE
8
BLACK
6
CONTINUOUS
10
5.3312992125984247
20
-4.2022834645669294
11
5.3275326377952759
21
-4.2015342519685035
0
LINE
8
BLACK
6
CONTINUOUS
10
5.3275326377952759
20
-4.2015342519685035
11
5.3243394881889765
21
-4.1994006692913386
0
LINE
8
BLACK
6
CONTINUOUS
10
5.3243394881889765
20
-4.1994006692913386
11
5.3222059055118107
21
-4.1962075196850392
0
LINE
8
BLACK
6
CONTINUOUS
10
5.3222059055118107
20
-4.1962075196850392
11
5.3214566929133857
21
-4.1924409448818896
0
LINE
8
BLACK
6
CONTINUOUS
10
5.3214566929133857
20
-4.1924409448818896
11
5.3214566929133857
21
-4.1727559055118109
0
LINE
8
BLACK
6
CONTINUOUS
10
5.3214566929133857
20
-4.1727559055118109
11
5.3222059055118107
21
-4.1689893307086612
0
LINE
8
BLACK
6
CONTINUOUS
10
5.3222059055118107
20
-4.1689893307086612
11
5.3243394881889765
21
-4.1657961811023618
0
LINE
8
BLACK
6
CONTINUOUS
10
5.3243394881889765
20
-4.1657961811023618
11
5.3275326377952759
21
-4.1636625984251969
0
LINE
8
BLACK
6
CONTINUOUS
10
5.3275326377952759
20
-4.1636625984251969
11
5.3312992125984247
21
-4.162913385826772
0
LINE
8
BLACK
6
CONTINUOUS
10
5.3312992125984247
20
-4.162913385826772
11
5.3687007874015746
21
-4.162913385826772
0
LINE
8
BLACK
6
CONTINUOUS
10
5.3687007874015746
20
-4.162913385826772
11
5.3724673622047243
21
-4.1636625984251969
0
LINE
8
BLACK
6
CONTINUOUS
10
4.8514831102362201
20
-4.1605720472440941
11
4.8546762598425195
21
-4.1627056299212599
0
LINE
8
BLACK
6
CONTINUOUS
10
4.8546762598425195
20
-4.1627056299212599
11
4.8568098425196853
21
-4.1658987795275593
0
LINE
8
BLACK
6
CONTINUOUS
10
4.8568098425196853
20
-4.1658987795275593
11
4.8575590551181103
21
-4.169665354330709
0
LINE
8
BLACK
6
CONTINUOUS
10
4.8575590551181103
20
-4.169665354330709
11
4.8575590551181103
21
-4.1903346456692914
0
LINE
8
BLACK
6
CONTINUOUS
10
4.8575590551181103
20
-4.1903346456692914
11
4.8568098425196853
21
-4.194101220472441
0
LINE
8
BLACK
6
CONTINUOUS
10
4.8568098425196853
20
-4.194101220472441
11
4.8546762598425195
21
-4.1972943700787404
0
LINE
8
BLACK
6
CONTINUOUS
10
4.8546762598425195
20
-4.1972943700787404
11
4.8514831102362201
21
-4.1994279527559053
0
LINE
8
BLACK
6
CONTINUOUS
10
4.8514831102362201
20
-4.1994279527559053
11
4.8477165354330705
21
-4.2001771653543303
0
LINE
8
BLACK
6
CONTINUOUS
10
4.8477165354330705
20
-4.2001771653543303
11
4.8122834645669288
21
-4.2001771653543303
0
LINE
8
BLACK
6
CONTINUOUS
10
4.8122834645669288
20
-4.2001771653543303
11
4.8085168897637791
21
-4.1994279527559053
0
LINE
8
BLACK
6
CONTINUOUS
10
4.8085168897637791
20
-4.1994279527559053
11
4.8053237401574798
21
-4.1972943700787404
0
LINE
8
BLACK
6
CONTINUOUS
10
4.8053237401574798
20
-4.1972943700787404
11
4.8031901574803149
21
-4.194101220472441
0
LINE
8
BLACK
6
CONTINUOUS
10
4.8031901574803149
20
-4.194101220472441
11
4.8024409448818899
21
-4.1903346456692914
0
LINE
8
BLACK
6
CONTINUOUS
10
4.8024409448818899
20
-4.1903346456692914
11
4.8024409448818899
21
-4.169665354330709
0
LINE
8
BLACK
6
CONTINUOUS
10
4.8024409448818899
20
-4.169665354330709
11
4.8031901574803149
21
-4.1658987795275593
0
LINE
8
BLACK
6
CONTINUOUS
10
4.8031901574803149
20
-4.1658987795275593
11
4.8053237401574798
21
-4.1627056299212599
0
LINE
8
BLACK
6
CONTINUOUS
10
4.8053237401574798
20
-4.1627056299212599
11
4.8085168897637791
21
-4.1605720472440941
0
LINE
8
BLACK
6
CONTINUOUS
10
4.8085168897637791
20
-4.1605720472440941
11
4.8122834645669288
21
-4.1598228346456692
0
LINE
8
BLACK
6
CONTINUOUS
10
4.8122834645669288
20
-4.1598228346456692
11
4.8477165354330705
21
-4.1598228346456692
0
LINE
8
BLACK
6
CONTINUOUS
10
4.8477165354330705
20
-4.1598228346456692
11
4.8514831102362201
21
-4.1605720472440941
0
LINE
8
BLACK
6
CONTINUOUS
10
4.9774378346456691
20
-4.126526771653543
11
4.9806309842519685
21
-4.1286603543307088
0
LINE
8
BLACK
6
CONTINUOUS
10
4.9806309842519685
20
-4.1286603543307088
11
4.9827645669291334
21
-4.1318535039370081
0
LINE
8
BLACK
6
CONTINUOUS
10
4.9827645669291334
20
-4.1318535039370081
11
4.9835137795275593
21
-4.1356200787401578
0
LINE
8
BLACK
6
CONTINUOUS
10
4.9835137795275593
20
-4.1356200787401578
11
4.9835137795275593
21
-4.1710531496062995
0
LINE
8
BLACK
6
CONTINUOUS
10
4.9835137795275593
20
-4.1710531496062995
11
4.9827645669291334
21
-4.1748197244094492
0
LINE
8
BLACK
6
CONTINUOUS
10
4.9827645669291334
20
-4.1748197244094492
11
4.9806309842519685
21
-4.1780128740157476
0
LINE
8
BLACK
6
CONTINUOUS
10
4.9806309842519685
20
-4.1780128740157476
11
4.9774378346456691
21
-4.1801464566929134
0
LINE
8
BLACK
6
CONTINUOUS
10
4.9774378346456691
20
-4.1801464566929134
11
4.9736712598425195
21
-4.1808956692913384
0
LINE
8
BLACK
6
CONTINUOUS
10
4.9736712598425195
20
-4.1808956692913384
11
4.953001968503937
21
-4.1808956692913384
0
LINE
8
BLACK
6
CONTINUOUS
10
4.953001968503937
20
-4.1808956692913384
11
4.9492353937007874
21
-4.1801464566929134
0
LINE
8
BLACK
6
CONTINUOUS
10
4.9492353937007874
20
-4.1801464566929134
11
4.946042244094488
21
-4.1780128740157476
0
LINE
8
BLACK
6
CONTINUOUS
10
4.946042244094488
20
-4.1780128740157476
11
4.9439086614173231
21
-4.1748197244094492
0
LINE
8
BLACK
6
CONTINUOUS
10
4.9439086614173231
20
-4.1748197244094492
11
4.9431594488188972
21
-4.1710531496062995
0
LINE
8
BLACK
6
CONTINUOUS
10
4.9431594488188972
20
-4.1710531496062995
11
4.9431594488188972
21
-4.1356200787401578
0
LINE
8
BLACK
6
CONTINUOUS
10
4.9431594488188972
20
-4.1356200787401578
11
4.9439086614173231
21
-4.1318535039370081
0
LINE
8
BLACK
6
CONTINUOUS
10
4.9439086614173231
20
-4.1318535039370081
11
4.946042244094488
21
-4.1286603543307088
0
LINE
8
BLACK
6
CONTINUOUS
10
4.946042244094488
20
-4.1286603543307088
11
4.9492353937007874
21
-4.126526771653543
0
LINE
8
BLACK
6
CONTINUOUS
10
4.9492353937007874
20
-4.126526771653543
11
4.953001968503937
21
-4.125777559055118
0
LINE
8
BLACK
6
CONTINUOUS
10
4.953001968503937
20
-4.125777559055118
11
4.9736712598425195
21
-4.125777559055118
0
LINE
8
BLACK
6
CONTINUOUS
10
4.9736712598425195
20
-4.125777559055118
11
4.9774378346456691
21
-4.126526771653543
0
LINE
8
BLACK
6
CONTINUOUS
10
5.0492882283464562
20
-4.126526771653543
11
5.0524813779527555
21
-4.1286603543307088
0
LINE
8
BLACK
6
CONTINUOUS
10
5.0524813779527555
20
-4.1286603543307088
11
5.0546149606299213
21
-4.1318535039370081
0
LINE
8
BLACK
6
CONTINUOUS
10
5.0546149606299213
20
-4.1318535039370081
11
5.0553641732283463
21
-4.1356200787401578
0
LINE
8
BLACK
6
CONTINUOUS
10
5.0553641732283463
20
-4.1356200787401578
11
5.0553641732283463
21
-4.1710531496062995
0
LINE
8
BLACK
6
CONTINUOUS
10
5.0553641732283463
20
-4.1710531496062995
11
5.0546149606299213
21
-4.1748197244094492
0
LINE
8
BLACK
6
CONTINUOUS
10
5.0546149606299213
20
-4.1748197244094492
11
5.0524813779527555
21
-4.1780128740157476
0
LINE
8
BLACK
6
CONTINUOUS
10
5.0524813779527555
20
-4.1780128740157476
11
5.0492882283464562
21
-4.1801464566929134
0
LINE
8
BLACK
6
CONTINUOUS
10
5.0492882283464562
20
-4.1801464566929134
11
5.0455216535433074
21
-4.1808956692913384
0
LINE
8
BLACK
6
CONTINUOUS
10
5.0455216535433074
20
-4.1808956692913384
11
5.0248523622047241
21
-4.1808956692913384
0
LINE
8
BLACK
6
CONTINUOUS
10
5.0248523622047241
20
-4.1808956692913384
11
5.0210857874015744
21
-4.1801464566929134
0
LINE
8
BLACK
6
CONTINUOUS
10
5.0210857874015744
20
-4.1801464566929134
11
5.0178926377952751
21
-4.1780128740157476
0
LINE
8
BLACK
6
CONTINUOUS
10
5.0178926377952751
20
-4.1780128740157476
11
5.0157590551181102
21
-4.1748197244094492
0
LINE
8
BLACK
6
CONTINUOUS
10
5.0157590551181102
20
-4.1748197244094492
11
5.0150098425196852
21
-4.1710531496062995
0
LINE
8
BLACK
6
CONTINUOUS
10
5.0150098425196852
20
-4.1710531496062995
11
5.0150098425196852
21
-4.1356200787401578
0
LINE
8
BLACK
6
CONTINUOUS
10
5.0150098425196852
20
-4.1356200787401578
11
5.0157590551181102
21
-4.1318535039370081
0
LINE
8
BLACK
6
CONTINUOUS
10
5.0157590551181102
20
-4.1318535039370081
11
5.0178926377952751
21
-4.1286603543307088
0
LINE
8
BLACK
6
CONTINUOUS
10
5.0178926377952751
20
-4.1286603543307088
11
5.0210857874015744
21
-4.126526771653543
0
LINE
8
BLACK
6
CONTINUOUS
10
5.0210857874015744
20
-4.126526771653543
11
5.0248523622047241
21
-4.125777559055118
0
LINE
8
BLACK
6
CONTINUOUS
10
5.0248523622047241
20
-4.125777559055118
11
5.0455216535433074
21
-4.125777559055118
0
LINE
8
BLACK
6
CONTINUOUS
10
5.0455216535433074
20
-4.125777559055118
11
5.0492882283464562
21
-4.126526771653543
0
LINE
8
BLACK
6
CONTINUOUS
10
6.376207519685039
20
-4.0822059055118105
11
6.3794006692913383
21
-4.0843394881889763
0
LINE
8
BLACK
6
CONTINUOUS
10
6.3794006692913383
20
-4.0843394881889763
11
6.3815342519685041
21
-4.0875326377952756
0
LINE
8
BLACK
6
CONTINUOUS
10
6.3815342519685041
20
-4.0875326377952756
11
6.3822834645669291
21
-4.0912992125984253
0
LINE
8
BLACK
6
CONTINUOUS
10
6.3822834645669291
20
-4.0912992125984253
11
6.3822834645669291
21
-4.1287007874015744
0
LINE
8
BLACK
6
CONTINUOUS
10
6.3822834645669291
20
-4.1287007874015744
11
6.3815342519685041
21
-4.1324673622047241
0
LINE
8
BLACK
6
CONTINUOUS
10
6.3815342519685041
20
-4.1324673622047241
11
6.3794006692913383
21
-4.1356605118110235
0
LINE
8
BLACK
6
CONTINUOUS
10
6.3794006692913383
20
-4.1356605118110235
11
6.376207519685039
21
-4.1377940944881892
0
LINE
8
BLACK
6
CONTINUOUS
10
6.376207519685039
20
-4.1377940944881892
11
6.3724409448818893
21
-4.1385433070866142
0
LINE
8
BLACK
6
CONTINUOUS
10
6.3724409448818893
20
-4.1385433070866142
11
6.3527559055118106
21
-4.1385433070866142
0
LINE
8
BLACK
6
CONTINUOUS
10
6.3527559055118106
20
-4.1385433070866142
11
6.3489893307086609
21
-4.1377940944881892
0
LINE
8
BLACK
6
CONTINUOUS
10
6.3489893307086609
20
-4.1377940944881892
11
6.3457961811023624
21
-4.1356605118110235
0
LINE
8
BLACK
6
CONTINUOUS
10
6.3457961811023624
20
-4.1356605118110235
11
6.3436625984251966
21
-4.1324673622047241
0
LINE
8
BLACK
6
CONTINUOUS
10
6.3436625984251966
20
-4.1324673622047241
11
6.3429133858267717
21
-4.1287007874015744
0
LINE
8
BLACK
6
CONTINUOUS
10
6.3429133858267717
20
-4.1287007874015744
11
6.3429133858267717
21
-4.0912992125984253
0
LINE
8
BLACK
6
CONTINUOUS
10
6.3429133858267717
20
-4.0912992125984253
11
6.3436625984251966
21
-4.0875326377952756
0
LINE
8
BLACK
6
CONTINUOUS
10
6.3436625984251966
20
-4.0875326377952756
11
6.3457961811023624
21
-4.0843394881889763
0
LINE
8
BLACK
6
CONTINUOUS
10
6.3457961811023624
20
-4.0843394881889763
11
6.3489893307086609
21
-4.0822059055118105
0
LINE
8
BLACK
6
CONTINUOUS
10
6.3489893307086609
20
-4.0822059055118105
11
6.3527559055118106
21
-4.0814566929133855
0
LINE
8
BLACK
6
CONTINUOUS
10
6.3527559055118106
20
-4.0814566929133855
11
6.3724409448818893
21
-4.0814566929133855
0
LINE
8
BLACK
6
CONTINUOUS
10
6.3724409448818893
20
-4.0814566929133855
11
6.376207519685039
21
-4.0822059055118105
0
LINE
8
BLACK
6
CONTINUOUS
10
6.451010669291338
20
-4.0822059055118105
11
6.4542038188976374
21
-4.0843394881889763
0
LINE
8
BLACK
6
CONTINUOUS
10
6.4542038188976374
20
-4.0843394881889763
11
6.4563374015748032
21
-4.0875326377952756
0
LINE
8
BLACK
6
CONTINUOUS
10
6.4563374015748032
20
-4.0875326377952756
11
6.4570866141732282
21
-4.0912992125984253
0
LINE
8
BLACK
6
CONTINUOUS
10
6.4570866141732282
20
-4.0912992125984253
11
6.4570866141732282
21
-4.1287007874015744
0
LINE
8
BLACK
6
CONTINUOUS
10
6.4570866141732282
20
-4.1287007874015744
11
6.4563374015748032
21
-4.1324673622047241
0
LINE
8
BLACK
6
CONTINUOUS
10
6.4563374015748032
20
-4.1324673622047241
11
6.4542038188976374
21
-4.1356605118110235
0
LINE
8
BLACK
6
CONTINUOUS
10
6.4542038188976374
20
-4.1356605118110235
11
6.451010669291338
21
-4.1377940944881892
0
LINE
8
BLACK
6
CONTINUOUS
10
6.451010669291338
20
-4.1377940944881892
11
6.4472440944881892
21
-4.1385433070866142
0
LINE
8
BLACK
6
CONTINUOUS
10
6.4472440944881892
20
-4.1385433070866142
11
6.4275590551181097
21
-4.1385433070866142
0
LINE
8
BLACK
6
CONTINUOUS
10
6.4275590551181097
20
-4.1385433070866142
11
6.4237924803149609
21
-4.1377940944881892
0
LINE
8
BLACK
6
CONTINUOUS
10
6.4237924803149609
20
-4.1377940944881892
11
6.4205993307086615
21
-4.1356605118110235
0
LINE
8
BLACK
6
CONTINUOUS
10
6.4205993307086615
20
-4.1356605118110235
11
6.4184657480314957
21
-4.1324673622047241
0
LINE
8
BLACK
6
CONTINUOUS
10
6.4184657480314957
20
-4.1324673622047241
11
6.4177165354330707
21
-4.1287007874015744
0
LINE
8
BLACK
6
CONTINUOUS
10
6.4177165354330707
20
-4.1287007874015744
11
6.4177165354330707
21
-4.0912992125984253
0
LINE
8
BLACK
6
CONTINUOUS
10
6.4177165354330707
20
-4.0912992125984253
11
6.4184657480314957
21
-4.0875326377952756
0
LINE
8
BLACK
6
CONTINUOUS
10
6.4184657480314957
20
-4.0875326377952756
11
6.4205993307086615
21
-4.0843394881889763
0
LINE
8
BLACK
6
CONTINUOUS
10
6.4205993307086615
20
-4.0843394881889763
11
6.4237924803149609
21
-4.0822059055118105
0
LINE
8
BLACK
6
CONTINUOUS
10
6.4237924803149609
20
-4.0822059055118105
11
6.4275590551181097
21
-4.0814566929133855
0
LINE
8
BLACK
6
CONTINUOUS
10
6.4275590551181097
20
-4.0814566929133855
11
6.4472440944881892
21
-4.0814566929133855
0
LINE
8
BLACK
6
CONTINUOUS
10
6.4472440944881892
20
-4.0814566929133855
11
6.451010669291338
21
-4.0822059055118105
0
LINE
8
BLACK
6
CONTINUOUS
10
6.5281760236220467
20
-4.0731901574803144
11
6.5313691732283461
21
-4.0753237401574802
0
LINE
8
BLACK
6
CONTINUOUS
10
6.5313691732283461
20
-4.0753237401574802
11
6.5335027559055119
21
-4.0785168897637796
0
LINE
8
BLACK
6
CONTINUOUS
10
6.5335027559055119
20
-4.0785168897637796
11
6.5342519685039369
21
-4.0822834645669293
0
LINE
8
BLACK
6
CONTINUOUS
10
6.5342519685039369
20
-4.0822834645669293
11
6.5342519685039369
21
-4.1177165354330709
0
LINE
8
BLACK
6
CONTINUOUS
10
6.5342519685039369
20
-4.1177165354330709
11
6.5335027559055119
21
-4.1214831102362206
0
LINE
8
BLACK
6
CONTINUOUS
10
6.5335027559055119
20
-4.1214831102362206
11
6.5313691732283461
21
-4.12467625984252
0
LINE
8
BLACK
6
CONTINUOUS
10
6.5313691732283461
20
-4.12467625984252
11
6.5281760236220467
21
-4.1268098425196849
0
LINE
8
BLACK
6
CONTINUOUS
10
6.5281760236220467
20
-4.1268098425196849
11
6.5244094488188971
21
-4.1275590551181098
0
LINE
8
BLACK
6
CONTINUOUS
10
6.5244094488188971
20
-4.1275590551181098
11
6.5037401574803146
21
-4.1275590551181098
0
LINE
8
BLACK
6
CONTINUOUS
10
6.5037401574803146
20
-4.1275590551181098
11
6.499973582677165
21
-4.1268098425196849
0
LINE
8
BLACK
6
CONTINUOUS
10
6.499973582677165
20
-4.1268098425196849
11
6.4967804330708656
21
-4.12467625984252
0
LINE
8
BLACK
6
CONTINUOUS
10
6.4967804330708656
20
-4.12467625984252
11
6.4946468503937007
21
-4.1214831102362206
0
LINE
8
BLACK
6
CONTINUOUS
10
6.4946468503937007
20
-4.1214831102362206
11
6.4938976377952757
21
-4.1177165354330709
0
LINE
8
BLACK
6
CONTINUOUS
10
6.4938976377952757
20
-4.1177165354330709
11
6.4938976377952757
21
-4.0822834645669293
0
LINE
8
BLACK
6
CONTINUOUS
10
6.4938976377952757
20
-4.0822834645669293
11
6.4946468503937007
21
-4.0785168897637796
0
LINE
8
BLACK
6
CONTINUOUS
10
6.4946468503937007
20
-4.0785168897637796
11
6.4967804330708656
21
-4.0753237401574802
0
LINE
8
BLACK
6
CONTINUOUS
10
6.4967804330708656
20
-4.0753237401574802
11
6.499973582677165
21
-4.0731901574803144
0
LINE
8
BLACK
6
CONTINUOUS
10
6.499973582677165
20
-4.0731901574803144
11
6.5037401574803146
21
-4.0724409448818895
0
LINE
8
BLACK
6
CONTINUOUS
10
6.5037401574803146
20
-4.0724409448818895
11
6.5244094488188971
21
-4.0724409448818895
0
LINE
8
BLACK
6
CONTINUOUS
10
6.5244094488188971
20
-4.0724409448818895
11
6.5281760236220467
21
-4.0731901574803144
0
LINE
8
BLACK
6
CONTINUOUS
10
6.6000264173228347
20
-4.0731901574803144
11
6.603219566929134
21
-4.0753237401574802
0
LINE
8
BLACK
6
CONTINUOUS
10
6.603219566929134
20
-4.0753237401574802
11
6.6053531496062989
21
-4.0785168897637796
0
LINE
8
BLACK
6
CONTINUOUS
10
6.6053531496062989
20
-4.0785168897637796
11
6.6061023622047239
21
-4.0822834645669293
0
LINE
8
BLACK
6
CONTINUOUS
10
6.6061023622047239
20
-4.0822834645669293
11
6.6061023622047239
21
-4.1177165354330709
0
LINE
8
BLACK
6
CONTINUOUS
10
6.6061023622047239
20
-4.1177165354330709
11
6.6053531496062989
21
-4.1214831102362206
0
LINE
8
BLACK
6
CONTINUOUS
10
6.6053531496062989
20
-4.1214831102362206
11
6.603219566929134
21
-4.12467625984252
0
LINE
8
BLACK
6
CONTINUOUS
10
6.603219566929134
20
-4.12467625984252
11
6.6000264173228347
21
-4.1268098425196849
0
LINE
8
BLACK
6
CONTINUOUS
10
6.6000264173228347
20
-4.1268098425196849
11
6.596259842519685
21
-4.1275590551181098
0
LINE
8
BLACK
6
CONTINUOUS
10
6.596259842519685
20
-4.1275590551181098
11
6.5755905511811026
21
-4.1275590551181098
0
LINE
8
BLACK
6
CONTINUOUS
10
6.5755905511811026
20
-4.1275590551181098
11
6.5718239763779529
21
-4.1268098425196849
0
LINE
8
BLACK
6
CONTINUOUS
10
6.5718239763779529
20
-4.1268098425196849
11
6.5686308267716536
21
-4.12467625984252
0
LINE
8
BLACK
6
CONTINUOUS
10
6.5686308267716536
20
-4.12467625984252
11
6.5664972440944878
21
-4.1214831102362206
0
LINE
8
BLACK
6
CONTINUOUS
10
6.5664972440944878
20
-4.1214831102362206
11
6.5657480314960628
21
-4.1177165354330709
0
LINE
8
BLACK
6
CONTINUOUS
10
6.5657480314960628
20
-4.1177165354330709
11
6.5657480314960628
21
-4.0822834645669293
0
LINE
8
BLACK
6
CONTINUOUS
10
6.5657480314960628
20
-4.0822834645669293
11
6.5664972440944878
21
-4.0785168897637796
0
LINE
8
BLACK
6
CONTINUOUS
10
6.5664972440944878
20
-4.0785168897637796
11
6.5686308267716536
21
-4.0753237401574802
0
LINE
8
BLACK
6
CONTINUOUS
10
6.5686308267716536
20
-4.0753237401574802
11
6.5718239763779529
21
-4.0731901574803144
0
LINE
8
BLACK
6
CONTINUOUS
10
6.5718239763779529
20
-4.0731901574803144
11
6.5755905511811026
21
-4.0724409448818895
0
LINE
8
BLACK
6
CONTINUOUS
10
6.5755905511811026
20
-4.0724409448818895
11
6.596259842519685
21
-4.0724409448818895
0
LINE
8
BLACK
6
CONTINUOUS
10
6.596259842519685
20
-4.0724409448818895
11
6.6000264173228347
21
-4.0731901574803144
0
LINE
8
BLACK
6
CONTINUOUS
10
6.2860893700787397
20
-4.041261023622047
11
6.289282519685039
21
-4.0433946456692915
0
LINE
8
BLACK
6
CONTINUOUS
10
6.289282519685039
20
-4.0433946456692915
11
6.2914161417322836
21
-4.0465877952755909
0
LINE
8
BLACK
6
CONTINUOUS
10
6.2914161417322836
20
-4.0465877952755909
11
6.2921653149606298
21
-4.0503544094488184
0
LINE
8
BLACK
6
CONTINUOUS
10
6.2921653149606298
20
-4.0503544094488184
11
6.2921653543307086
21
-4.0867716141732284
0
LINE
8
BLACK
6
CONTINUOUS
10
6.2921653543307086
20
-4.0867716141732284
11
6.2914161417322836
21
-4.0905381889763781
0
LINE
8
BLACK
6
CONTINUOUS
10
6.2914161417322836
20
-4.0905381889763781
11
6.289282519685039
21
-4.0937313385826775
0
LINE
8
BLACK
6
CONTINUOUS
10
6.289282519685039
20
-4.0937313385826775
11
6.2860893700787397
21
-4.0958649606299211
0
LINE
8
BLACK
6
CONTINUOUS
10
6.2860893700787397
20
-4.0958649606299211
11
6.2823227559055113
21
-4.0966141338582673
0
LINE
8
BLACK
6
CONTINUOUS
10
6.2823227559055113
20
-4.0966141338582673
11
6.1976772047244095
21
-4.0966141732283461
0
LINE
8
BLACK
6
CONTINUOUS
10
6.1976772047244095
20
-4.0966141732283461
11
6.1939106299212598
21
-4.0958649606299211
0
LINE
8
BLACK
6
CONTINUOUS
10
6.1939106299212598
20
-4.0958649606299211
11
6.1907174803149605
21
-4.0937313385826775
0
LINE
8
BLACK
6
CONTINUOUS
10
6.1907174803149605
20
-4.0937313385826775
11
6.188583858267716
21
-4.0905381889763781
0
LINE
8
BLACK
6
CONTINUOUS
10
6.188583858267716
20
-4.0905381889763781
11
6.1878346850393697
21
-4.0867715748031497
0
LINE
8
BLACK
6
CONTINUOUS
10
6.1878346850393697
20
-4.0867715748031497
11
6.187834645669291
21
-4.0503543700787397
0
LINE
8
BLACK
6
CONTINUOUS
10
6.187834645669291
20
-4.0503543700787397
11
6.188583858267716
21
-4.0465877952755909
0
LINE
8
BLACK
6
CONTINUOUS
10
6.188583858267716
20
-4.0465877952755909
11
6.1907174803149605
21
-4.0433946456692915
0
LINE
8
BLACK
6
CONTINUOUS
10
6.1907174803149605
20
-4.0433946456692915
11
6.1939106299212598
21
-4.041261023622047
0
LINE
8
BLACK
6
CONTINUOUS
10
6.1939106299212598
20
-4.041261023622047
11
6.1976772440944883
21
-4.0405118503937008
0
LINE
8
BLACK
6
CONTINUOUS
10
6.1976772440944883
20
-4.0405118503937008
11
6.28232279527559
21
-4.040511811023622
0
LINE
8
BLACK
6
CONTINUOUS
10
6.28232279527559
20
-4.040511811023622
11
6.2860893700787397
21
-4.041261023622047
0
LINE
8
BLACK
6
CONTINUOUS
10
4.8741012204724408
20
-3.983190157480315
11
4.8772943700787401
21
-3.9853237401574804
0
LINE
8
BLACK
6
CONTINUOUS
10
4.8772943700787401
20
-3.9853237401574804
11
4.879427952755905
21
-3.9885168897637793
0
LINE
8
BLACK
6
CONTINUOUS
10
4.879427952755905
20
-3.9885168897637793
11
4.8801771653543309
21
-3.992283464566929
0
LINE
8
BLACK
6
CONTINUOUS
10
4.8801771653543309
20
-3.992283464566929
11
4.8801771653543309
21
-4.0277165354330711
0
LINE
8
BLACK
6
CONTINUOUS
10
4.8801771653543309
20
-4.0277165354330711
11
4.879427952755905
21
-4.0314831102362207
0
LINE
8
BLACK
6
CONTINUOUS
10
4.879427952755905
20
-4.0314831102362207
11
4.8772943700787401
21
-4.0346762598425192
0
LINE
8
BLACK
6
CONTINUOUS
10
4.8772943700787401
20
-4.0346762598425192
11
4.8741012204724408
21
-4.036809842519685
0
LINE
8
BLACK
6
CONTINUOUS
10
4.8741012204724408
20
-4.036809842519685
11
4.8703346456692911
21
-4.03755905511811
0
LINE
8
BLACK
6
CONTINUOUS
10
4.8703346456692911
20
-4.03755905511811
11
4.8496653543307087
21
-4.03755905511811
0
LINE
8
BLACK
6
CONTINUOUS
10
4.8496653543307087
20
-4.03755905511811
11
4.845898779527559
21
-4.036809842519685
0
LINE
8
BLACK
6
CONTINUOUS
10
4.845898779527559
20
-4.036809842519685
11
4.8427056299212596
21
-4.0346762598425192
0
LINE
8
BLACK
6
CONTINUOUS
10
4.8427056299212596
20
-4.0346762598425192
11
4.8405720472440947
21
-4.0314831102362207
0
LINE
8
BLACK
6
CONTINUOUS
10
4.8405720472440947
20
-4.0314831102362207
11
4.8398228346456689
21
-4.0277165354330711
0
LINE
8
BLACK
6
CONTINUOUS
10
4.8398228346456689
20
-4.0277165354330711
11
4.8398228346456689
21
-3.992283464566929
0
LINE
8
BLACK
6
CONTINUOUS
10
4.8398228346456689
20
-3.992283464566929
11
4.8405720472440947
21
-3.9885168897637793
0
LINE
8
BLACK
6
CONTINUOUS
10
4.8405720472440947
20
-3.9885168897637793
11
4.8427056299212596
21
-3.9853237401574804
0
LINE
8
BLACK
6
CONTINUOUS
10
4.8427056299212596
20
-3.9853237401574804
11
4.845898779527559
21
-3.983190157480315
0
LINE
8
BLACK
6
CONTINUOUS
10
4.845898779527559
20
-3.983190157480315
11
4.8496653543307087
21
-3.9824409448818896
0
LINE
8
BLACK
6
CONTINUOUS
10
4.8496653543307087
20
-3.9824409448818896
11
4.8703346456692911
21
-3.9824409448818896
0
LINE
8
BLACK
6
CONTINUOUS
10
4.8703346456692911
20
-3.9824409448818896
11
4.8741012204724408
21
-3.983190157480315
0
LINE
8
BLACK
6
CONTINUOUS
10
4.9459516141732278
20
-3.983190157480315
11
4.9491447637795272
21
-3.9853237401574804
0
LINE
8
BLACK
6
CONTINUOUS
10
4.9491447637795272
20
-3.9853237401574804
11
4.951278346456693
21
-3.9885168897637793
0
LINE
8
BLACK
6
CONTINUOUS
10
4.951278346456693
20
-3.9885168897637793
11
4.9520275590551179
21
-3.992283464566929
0
LINE
8
BLACK
6
CONTINUOUS
10
4.9520275590551179
20
-3.992283464566929
11
4.9520275590551179
21
-4.0277165354330711
0
LINE
8
BLACK
6
CONTINUOUS
10
4.9520275590551179
20
-4.0277165354330711
11
4.951278346456693
21
-4.0314831102362207
0
LINE
8
BLACK
6
CONTINUOUS
10
4.951278346456693
20
-4.0314831102362207
11
4.9491447637795272
21
-4.0346762598425192
0
LINE
8
BLACK
6
CONTINUOUS
10
4.9491447637795272
20
-4.0346762598425192
11
4.9459516141732278
21
-4.036809842519685
0
LINE
8
BLACK
6
CONTINUOUS
10
4.9459516141732278
20
-4.036809842519685
11
4.942185039370079
21
-4.03755905511811
0
LINE
8
BLACK
6
CONTINUOUS
10
4.942185039370079
20
-4.03755905511811
11
4.9215157480314957
21
-4.03755905511811
0
LINE
8
BLACK
6
CONTINUOUS
10
4.9215157480314957
20
-4.03755905511811
11
4.917749173228346
21
-4.036809842519685
0
LINE
8
BLACK
6
CONTINUOUS
10
4.917749173228346
20
-4.036809842519685
11
4.9145560236220476
21
-4.0346762598425192
0
LINE
8
BLACK
6
CONTINUOUS
10
4.9145560236220476
20
-4.0346762598425192
11
4.9124224409448818
21
-4.0314831102362207
0
LINE
8
BLACK
6
CONTINUOUS
10
4.9124224409448818
20
-4.0314831102362207
11
4.9116732283464568
21
-4.0277165354330711
0
LINE
8
BLACK
6
CONTINUOUS
10
4.9116732283464568
20
-4.0277165354330711
11
4.9116732283464568
21
-3.992283464566929
0
LINE
8
BLACK
6
CONTINUOUS
10
4.9116732283464568
20
-3.992283464566929
11
4.9124224409448818
21
-3.9885168897637793
0
LINE
8
BLACK
6
CONTINUOUS
10
4.9124224409448818
20
-3.9885168897637793
11
4.9145560236220476
21
-3.9853237401574804
0
LINE
8
BLACK
6
CONTINUOUS
10
4.9145560236220476
20
-3.9853237401574804
11
4.917749173228346
21
-3.983190157480315
0
LINE
8
BLACK
6
CONTINUOUS
10
4.917749173228346
20
-3.983190157480315
11
4.9215157480314957
21
-3.9824409448818896
0
LINE
8
BLACK
6
CONTINUOUS
10
4.9215157480314957
20
-3.9824409448818896
11
4.942185039370079
21
-3.9824409448818896
0
LINE
8
BLACK
6
CONTINUOUS
10
4.942185039370079
20
-3.9824409448818896
11
4.9459516141732278
21
-3.983190157480315
0
LINE
8
BLACK
6
CONTINUOUS
10
5.1281760236220473
20
-3.983190157480315
11
5.1313691732283466
21
-3.9853237401574804
0
LINE
8
BLACK
6
CONTINUOUS
10
5.1313691732283466
20
-3.9853237401574804
11
5.1335027559055115
21
-3.9885168897637793
0
LINE
8
BLACK
6
CONTINUOUS
10
5.1335027559055115
20
-3.9885168897637793
11
5.1342519685039365
21
-3.992283464566929
0
LINE
8
BLACK
6
CONTINUOUS
10
5.1342519685039365
20
-3.992283464566929
11
5.1342519685039365
21
-4.0277165354330711
0
LINE
8
BLACK
6
CONTINUOUS
10
5.1342519685039365
20
-4.0277165354330711
11
5.1335027559055115
21
-4.0314831102362207
0
LINE
8
BLACK
6
CONTINUOUS
10
5.1335027559055115
20
-4.0314831102362207
11
5.1313691732283466
21
-4.0346762598425192
0
LINE
8
BLACK
6
CONTINUOUS
10
5.1313691732283466
20
-4.0346762598425192
11
5.1281760236220473
21
-4.036809842519685
0
LINE
8
BLACK
6
CONTINUOUS
10
5.1281760236220473
20
-4.036809842519685
11
5.1244094488188976
21
-4.03755905511811
0
LINE
8
BLACK
6
CONTINUOUS
10
5.1244094488188976
20
-4.03755905511811
11
5.1037401574803152
21
-4.03755905511811
0
LINE
8
BLACK
6
CONTINUOUS
10
5.1037401574803152
20
-4.03755905511811
11
5.0999735826771655
21
-4.036809842519685
0
LINE
8
BLACK
6
CONTINUOUS
10
5.0999735826771655
20
-4.036809842519685
11
5.0967804330708661
21
-4.0346762598425192
0
LINE
8
BLACK
6
CONTINUOUS
10
5.0967804330708661
20
-4.0346762598425192
11
5.0946468503937004
21
-4.0314831102362207
0
LINE
8
BLACK
6
CONTINUOUS
10
5.0946468503937004
20
-4.0314831102362207
11
5.0938976377952754
21
-4.0277165354330711
0
LINE
8
BLACK
6
CONTINUOUS
10
5.0938976377952754
20
-4.0277165354330711
11
5.0938976377952754
21
-3.992283464566929
0
LINE
8
BLACK
6
CONTINUOUS
10
5.0938976377952754
20
-3.992283464566929
11
5.0946468503937004
21
-3.9885168897637793
0
LINE
8
BLACK
6
CONTINUOUS
10
5.0946468503937004
20
-3.9885168897637793
11
5.0967804330708661
21
-3.9853237401574804
0
LINE
8
BLACK
6
CONTINUOUS
10
5.0967804330708661
20
-3.9853237401574804
11
5.0999735826771655
21
-3.983190157480315
0
LINE
8
BLACK
6
CONTINUOUS
10
5.0999735826771655
20
-3.983190157480315
11
5.1037401574803152
21
-3.9824409448818896
0
LINE
8
BLACK
6
CONTINUOUS
10
5.1037401574803152
20
-3.9824409448818896
11
5.1244094488188976
21
-3.9824409448818896
0
LINE
8
BLACK
6
CONTINUOUS
10
5.1244094488188976
20
-3.9824409448818896
11
5.1281760236220473
21
-3.983190157480315
0
LINE
8
BLACK
6
CONTINUOUS
10
5.2000264173228343
20
-3.983190157480315
11
5.2032195669291337
21
-3.9853237401574804
0
LINE
8
BLACK
6
CONTINUOUS
10
5.2032195669291337
20
-3.9853237401574804
11
5.2053531496062995
21
-3.9885168897637793
0
LINE
8
BLACK
6
CONTINUOUS
10
5.2053531496062995
20
-3.9885168897637793
11
5.2061023622047244
21
-3.992283464566929
0
LINE
8
BLACK
6
CONTINUOUS
10
5.2061023622047244
20
-3.992283464566929
11
5.2061023622047244
21
-4.0277165354330711
0
LINE
8
BLACK
6
CONTINUOUS
10
5.2061023622047244
20
-4.0277165354330711
11
5.2053531496062995
21
-4.0314831102362207
0
LINE
8
BLACK
6
CONTINUOUS
10
5.2053531496062995
20
-4.0314831102362207
11
5.2032195669291337
21
-4.0346762598425192
0
LINE
8
BLACK
6
CONTINUOUS
10
5.2032195669291337
20
-4.0346762598425192
11
5.2000264173228343
21
-4.036809842519685
0
LINE
8
BLACK
6
CONTINUOUS
10
5.2000264173228343
20
-4.036809842519685
11
5.1962598425196846
21
-4.03755905511811
0
LINE
8
BLACK
6
CONTINUOUS
10
5.1962598425196846
20
-4.03755905511811
11
5.1755905511811022
21
-4.03755905511811
0
LINE
8
BLACK
6
CONTINUOUS
10
5.1755905511811022
20
-4.03755905511811
11
5.1718239763779525
21
-4.036809842519685
0
LINE
8
BLACK
6
CONTINUOUS
10
5.1718239763779525
20
-4.036809842519685
11
5.1686308267716532
21
-4.0346762598425192
0
LINE
8
BLACK
6
CONTINUOUS
10
5.1686308267716532
20
-4.0346762598425192
11
5.1664972440944883
21
-4.0314831102362207
0
LINE
8
BLACK
6
CONTINUOUS
10
5.1664972440944883
20
-4.0314831102362207
11
5.1657480314960624
21
-4.0277165354330711
0
LINE
8
BLACK
6
CONTINUOUS
10
5.1657480314960624
20
-4.0277165354330711
11
5.1657480314960624
21
-3.992283464566929
0
LINE
8
BLACK
6
CONTINUOUS
10
5.1657480314960624
20
-3.992283464566929
11
5.1664972440944883
21
-3.9885168897637793
0
LINE
8
BLACK
6
CONTINUOUS
10
5.1664972440944883
20
-3.9885168897637793
11
5.1686308267716532
21
-3.9853237401574804
0
LINE
8
BLACK
6
CONTINUOUS
10
5.1686308267716532
20
-3.9853237401574804
11
5.1718239763779525
21
-3.983190157480315
0
LINE
8
BLACK
6
CONTINUOUS
10
5.1718239763779525
20
-3.983190157480315
11
5.1755905511811022
21
-3.9824409448818896
0
LINE
8
BLACK
6
CONTINUOUS
10
5.1755905511811022
20
-3.9824409448818896
11
5.1962598425196846
21
-3.9824409448818896
0
LINE
8
BLACK
6
CONTINUOUS
10
5.1962598425196846
20
-3.9824409448818896
11
5.2000264173228343
21
-3.983190157480315
0
LINE
8
BLACK
6
CONTINUOUS
10
5.3781760236220473
20
-3.983190157480315
11
5.3813691732283466
21
-3.9853237401574804
0
LINE
8
BLACK
6
CONTINUOUS
10
5.3813691732283466
20
-3.9853237401574804
11
5.3835027559055115
21
-3.9885168897637793
0
LINE
8
BLACK
6
CONTINUOUS
10
5.3835027559055115
20
-3.9885168897637793
11
5.3842519685039365
21
-3.992283464566929
0
LINE
8
BLACK
6
CONTINUOUS
10
5.3842519685039365
20
-3.992283464566929
11
5.3842519685039365
21
-4.0277165354330711
0
LINE
8
BLACK
6
CONTINUOUS
10
5.3842519685039365
20
-4.0277165354330711
11
5.3835027559055115
21
-4.0314831102362207
0
LINE
8
BLACK
6
CONTINUOUS
10
5.3835027559055115
20
-4.0314831102362207
11
5.3813691732283466
21
-4.0346762598425192
0
LINE
8
BLACK
6
CONTINUOUS
10
5.3813691732283466
20
-4.0346762598425192
11
5.3781760236220473
21
-4.036809842519685
0
LINE
8
BLACK
6
CONTINUOUS
10
5.3781760236220473
20
-4.036809842519685
11
5.3744094488188976
21
-4.03755905511811
0
LINE
8
BLACK
6
CONTINUOUS
10
5.3744094488188976
20
-4.03755905511811
11
5.3537401574803152
21
-4.03755905511811
0
LINE
8
BLACK
6
CONTINUOUS
10
5.3537401574803152
20
-4.03755905511811
11
5.3499735826771655
21
-4.036809842519685
0
LINE
8
BLACK
6
CONTINUOUS
10
5.3499735826771655
20
-4.036809842519685
11
5.3467804330708661
21
-4.0346762598425192
0
LINE
8
BLACK
6
CONTINUOUS
10
5.3467804330708661
20
-4.0346762598425192
11
5.3446468503937004
21
-4.0314831102362207
0
LINE
8
BLACK
6
CONTINUOUS
10
5.3446468503937004
20
-4.0314831102362207
11
5.3438976377952754
21
-4.0277165354330711
0
LINE
8
BLACK
6
CONTINUOUS
10
5.3438976377952754
20
-4.0277165354330711
11
5.3438976377952754
21
-3.992283464566929
0
LINE
8
BLACK
6
CONTINUOUS
10
5.3438976377952754
20
-3.992283464566929
11
5.3446468503937004
21
-3.9885168897637793
0
LINE
8
BLACK
6
CONTINUOUS
10
5.3446468503937004
20
-3.9885168897637793
11
5.3467804330708661
21
-3.9853237401574804
0
LINE
8
BLACK
6
CONTINUOUS
10
5.3467804330708661
20
-3.9853237401574804
11
5.3499735826771655
21
-3.983190157480315
0
LINE
8
BLACK
6
CONTINUOUS
10
5.3499735826771655
20
-3.983190157480315
11
5.3537401574803152
21
-3.9824409448818896
0
LINE
8
BLACK
6
CONTINUOUS
10
5.3537401574803152
20
-3.9824409448818896
11
5.3744094488188976
21
-3.9824409448818896
0
LINE
8
BLACK
6
CONTINUOUS
10
5.3744094488188976
20
-3.9824409448818896
11
5.3781760236220473
21
-3.983190157480315
0
LINE
8
BLACK
6
CONTINUOUS
10
5.4500264173228343
20
-3.983190157480315
11
5.4532195669291337
21
-3.9853237401574804
0
LINE
8
BLACK
6
CONTINUOUS
10
5.4532195669291337
20
-3.9853237401574804
11
5.4553531496062995
21
-3.9885168897637793
0
LINE
8
BLACK
6
CONTINUOUS
10
5.4553531496062995
20
-3.9885168897637793
11
5.4561023622047244
21
-3.992283464566929
0
LINE
8
BLACK
6
CONTINUOUS
10
5.4561023622047244
20
-3.992283464566929
11
5.4561023622047244
21
-4.0277165354330711
0
LINE
8
BLACK
6
CONTINUOUS
10
5.4561023622047244
20
-4.0277165354330711
11
5.4553531496062995
21
-4.0314831102362207
0
LINE
8
BLACK
6
CONTINUOUS
10
5.4553531496062995
20
-4.0314831102362207
11
5.4532195669291337
21
-4.0346762598425192
0
LINE
8
BLACK
6
CONTINUOUS
10
5.4532195669291337
20
-4.0346762598425192
11
5.4500264173228343
21
-4.036809842519685
0
LINE
8
BLACK
6
CONTINUOUS
10
5.4500264173228343
20
-4.036809842519685
11
5.4462598425196846
21
-4.03755905511811
0
LINE
8
BLACK
6
CONTINUOUS
10
5.4462598425196846
20
-4.03755905511811
11
5.4255905511811022
21
-4.03755905511811
0
LINE
8
BLACK
6
CONTINUOUS
10
5.4255905511811022
20
-4.03755905511811
11
5.4218239763779525
21
-4.036809842519685
0
LINE
8
BLACK
6
CONTINUOUS
10
5.4218239763779525
20
-4.036809842519685
11
5.4186308267716532
21
-4.0346762598425192
0
LINE
8
BLACK
6
CONTINUOUS
10
5.4186308267716532
20
-4.0346762598425192
11
5.4164972440944883
21
-4.0314831102362207
0
LINE
8
BLACK
6
CONTINUOUS
10
5.4164972440944883
20
-4.0314831102362207
11
5.4157480314960624
21
-4.0277165354330711
0
LINE
8
BLACK
6
CONTINUOUS
10
5.4157480314960624
20
-4.0277165354330711
11
5.4157480314960624
21
-3.992283464566929
0
LINE
8
BLACK
6
CONTINUOUS
10
5.4157480314960624
20
-3.992283464566929
11
5.4164972440944883
21
-3.9885168897637793
0
LINE
8
BLACK
6
CONTINUOUS
10
5.4164972440944883
20
-3.9885168897637793
11
5.4186308267716532
21
-3.9853237401574804
0
LINE
8
BLACK
6
CONTINUOUS
10
5.4186308267716532
20
-3.9853237401574804
11
5.4218239763779525
21
-3.983190157480315
0
LINE
8
BLACK
6
CONTINUOUS
10
5.4218239763779525
20
-3.983190157480315
11
5.4255905511811022
21
-3.9824409448818896
0
LINE
8
BLACK
6
CONTINUOUS
10
5.4255905511811022
20
-3.9824409448818896
11
5.4462598425196846
21
-3.9824409448818896
0
LINE
8
BLACK
6
CONTINUOUS
10
5.4462598425196846
20
-3.9824409448818896
11
5.4500264173228343
21
-3.983190157480315
0
LINE
8
BLACK
6
CONTINUOUS
10
5.7381760236220467
20
-3.983190157480315
11
5.7413691732283461
21
-3.9853237401574804
0
LINE
8
BLACK
6
CONTINUOUS
10
5.7413691732283461
20
-3.9853237401574804
11
5.7435027559055118
21
-3.9885168897637793
0
LINE
8
BLACK
6
CONTINUOUS
10
5.7435027559055118
20
-3.9885168897637793
11
5.7442519685039368
21
-3.992283464566929
0
LINE
8
BLACK
6
CONTINUOUS
10
5.7442519685039368
20
-3.992283464566929
11
5.7442519685039368
21
-4.0277165354330711
0
LINE
8
BLACK
6
CONTINUOUS
10
5.7442519685039368
20
-4.0277165354330711
11
5.7435027559055118
21
-4.0314831102362207
0
LINE
8
BLACK
6
CONTINUOUS
10
5.7435027559055118
20
-4.0314831102362207
11
5.7413691732283461
21
-4.0346762598425192
0
LINE
8
BLACK
6
CONTINUOUS
10
5.7413691732283461
20
-4.0346762598425192
11
5.7381760236220467
21
-4.036809842519685
0
LINE
8
BLACK
6
CONTINUOUS
10
5.7381760236220467
20
-4.036809842519685
11
5.7344094488188979
21
-4.03755905511811
0
LINE
8
BLACK
6
CONTINUOUS
10
5.7344094488188979
20
-4.03755905511811
11
5.7137401574803146
21
-4.03755905511811
0
LINE
8
BLACK
6
CONTINUOUS
10
5.7137401574803146
20
-4.03755905511811
11
5.7099735826771649
21
-4.036809842519685
0
LINE
8
BLACK
6
CONTINUOUS
10
5.7099735826771649
20
-4.036809842519685
11
5.7067804330708656
21
-4.0346762598425192
0
LINE
8
BLACK
6
CONTINUOUS
10
5.7067804330708656
20
-4.0346762598425192
11
5.7046468503937007
21
-4.0314831102362207
0
LINE
8
BLACK
6
CONTINUOUS
10
5.7046468503937007
20
-4.0314831102362207
11
5.7038976377952757
21
-4.0277165354330711
0
LINE
8
BLACK
6
CONTINUOUS
10
5.7038976377952757
20
-4.0277165354330711
11
5.7038976377952757
21
-3.992283464566929
0
LINE
8
BLACK
6
CONTINUOUS
10
5.7038976377952757
20
-3.992283464566929
11
5.7046468503937007
21
-3.9885168897637793
0
LINE
8
BLACK
6
CONTINUOUS
10
5.7046468503937007
20
-3.9885168897637793
11
5.7067804330708656
21
-3.9853237401574804
0
LINE
8
BLACK
6
CONTINUOUS
10
5.7067804330708656
20
-3.9853237401574804
11
5.7099735826771649
21
-3.983190157480315
0
LINE
8
BLACK
6
CONTINUOUS
10
5.7099735826771649
20
-3.983190157480315
11
5.7137401574803146
21
-3.9824409448818896
0
LINE
8
BLACK
6
CONTINUOUS
10
5.7137401574803146
20
-3.9824409448818896
11
5.7344094488188979
21
-3.9824409448818896
0
LINE
8
BLACK
6
CONTINUOUS
10
5.7344094488188979
20
-3.9824409448818896
11
5.7381760236220467
21
-3.983190157480315
0
LINE
8
BLACK
6
CONTINUOUS
10
5.8100264173228346
20
-3.983190157480315
11
5.813219566929134
21
-3.9853237401574804
0
LINE
8
BLACK
6
CONTINUOUS
10
5.813219566929134
20
-3.9853237401574804
11
5.8153531496062989
21
-3.9885168897637793
0
LINE
8
BLACK
6
CONTINUOUS
10
5.8153531496062989
20
-3.9885168897637793
11
5.8161023622047239
21
-3.992283464566929
0
LINE
8
BLACK
6
CONTINUOUS
10
5.8161023622047239
20
-3.992283464566929
11
5.8161023622047239
21
-4.0277165354330711
0
LINE
8
BLACK
6
CONTINUOUS
10
5.8161023622047239
20
-4.0277165354330711
11
5.8153531496062989
21
-4.0314831102362207
0
LINE
8
BLACK
6
CONTINUOUS
10
5.8153531496062989
20
-4.0314831102362207
11
5.813219566929134
21
-4.0346762598425192
0
LINE
8
BLACK
6
CONTINUOUS
10
5.813219566929134
20
-4.0346762598425192
11
5.8100264173228346
21
-4.036809842519685
0
LINE
8
BLACK
6
CONTINUOUS
10
5.8100264173228346
20
-4.036809842519685
11
5.806259842519685
21
-4.03755905511811
0
LINE
8
BLACK
6
CONTINUOUS
10
5.806259842519685
20
-4.03755905511811
11
5.7855905511811025
21
-4.03755905511811
0
LINE
8
BLACK
6
CONTINUOUS
10
5.7855905511811025
20
-4.03755905511811
11
5.7818239763779529
21
-4.036809842519685
0
LINE
8
BLACK
6
CONTINUOUS
10
5.7818239763779529
20
-4.036809842519685
11
5.7786308267716535
21
-4.0346762598425192
0
LINE
8
BLACK
6
CONTINUOUS
10
5.7786308267716535
20
-4.0346762598425192
11
5.7764972440944877
21
-4.0314831102362207
0
LINE
8
BLACK
6
CONTINUOUS
10
5.7764972440944877
20
-4.0314831102362207
11
5.7757480314960628
21
-4.0277165354330711
0
LINE
8
BLACK
6
CONTINUOUS
10
5.7757480314960628
20
-4.0277165354330711
11
5.7757480314960628
21
-3.992283464566929
0
LINE
8
BLACK
6
CONTINUOUS
10
5.7757480314960628
20
-3.992283464566929
11
5.7764972440944877
21
-3.9885168897637793
0
LINE
8
BLACK
6
CONTINUOUS
10
5.7764972440944877
20
-3.9885168897637793
11
5.7786308267716535
21
-3.9853237401574804
0
LINE
8
BLACK
6
CONTINUOUS
10
5.7786308267716535
20
-3.9853237401574804
11
5.7818239763779529
21
-3.983190157480315
0
LINE
8
BLACK
6
CONTINUOUS
10
5.7818239763779529
20
-3.983190157480315
11
5.7855905511811025
21
-3.9824409448818896
0
LINE
8
BLACK
6
CONTINUOUS
10
5.7855905511811025
20
-3.9824409448818896
11
5.806259842519685
21
-3.9824409448818896
0
LINE
8
BLACK
6
CONTINUOUS
10
5.806259842519685
20
-3.9824409448818896
11
5.8100264173228346
21
-3.983190157480315
0
LINE
8
BLACK
6
CONTINUOUS
10
4.6824673622047239
20
-3.9984657480314958
11
4.6856605118110233
21
-4.0005993307086616
0
LINE
8
BLACK
6
CONTINUOUS
10
4.6856605118110233
20
-4.0005993307086616
11
4.6877940944881891
21
-4.0037924803149609
0
LINE
8
BLACK
6
CONTINUOUS
10
4.6877940944881891
20
-4.0037924803149609
11
4.688543307086614
21
-4.0075590551181097
0
LINE
8
BLACK
6
CONTINUOUS
10
4.688543307086614
20
-4.0075590551181097
11
4.688543307086614
21
-4.0272440944881893
0
LINE
8
BLACK
6
CONTINUOUS
10
4.688543307086614
20
-4.0272440944881893
11
4.6877940944881891
21
-4.0310106692913381
0
LINE
8
BLACK
6
CONTINUOUS
10
4.6877940944881891
20
-4.0310106692913381
11
4.6856605118110233
21
-4.0342038188976375
0
LINE
8
BLACK
6
CONTINUOUS
10
4.6856605118110233
20
-4.0342038188976375
11
4.6824673622047239
21
-4.0363374015748033
0
LINE
8
BLACK
6
CONTINUOUS
10
4.6824673622047239
20
-4.0363374015748033
11
4.6787007874015751
21
-4.0370866141732282
0
LINE
8
BLACK
6
CONTINUOUS
10
4.6787007874015751
20
-4.0370866141732282
11
4.6412992125984252
21
-4.0370866141732282
0
LINE
8
BLACK
6
CONTINUOUS
10
4.6412992125984252
20
-4.0370866141732282
11
4.6375326377952755
21
-4.0363374015748033
0
LINE
8
BLACK
6
CONTINUOUS
10
4.6375326377952755
20
-4.0363374015748033
11
4.6343394881889761
21
-4.0342038188976375
0
LINE
8
BLACK
6
CONTINUOUS
10
4.6343394881889761
20
-4.0342038188976375
11
4.6322059055118112
21
-4.0310106692913381
0
LINE
8
BLACK
6
CONTINUOUS
10
4.6322059055118112
20
-4.0310106692913381
11
4.6314566929133854
21
-4.0272440944881893
0
LINE
8
BLACK
6
CONTINUOUS
10
4.6314566929133854
20
-4.0272440944881893
11
4.6314566929133854
21
-4.0075590551181097
0
LINE
8
BLACK
6
CONTINUOUS
10
4.6314566929133854
20
-4.0075590551181097
11
4.6322059055118112
21
-4.0037924803149609
0
LINE
8
BLACK
6
CONTINUOUS
10
4.6322059055118112
20
-4.0037924803149609
11
4.6343394881889761
21
-4.0005993307086616
0
LINE
8
BLACK
6
CONTINUOUS
10
4.6343394881889761
20
-4.0005993307086616
11
4.6375326377952755
21
-3.9984657480314958
0
LINE
8
BLACK
6
CONTINUOUS
10
4.6375326377952755
20
-3.9984657480314958
11
4.6412992125984252
21
-3.9977165354330708
0
LINE
8
BLACK
6
CONTINUOUS
10
4.6412992125984252
20
-3.9977165354330708
11
4.6787007874015751
21
-3.9977165354330708
0
LINE
8
BLACK
6
CONTINUOUS
10
4.6787007874015751
20
-3.9977165354330708
11
4.6824673622047239
21
-3.9984657480314958
0
LINE
8
BLACK
6
CONTINUOUS
10
4.7824673622047245
20
-3.9984657480314958
11
4.7856605118110238
21
-4.0005993307086616
0
LINE
8
BLACK
6
CONTINUOUS
10
4.7856605118110238
20
-4.0005993307086616
11
4.7877940944881887
21
-4.0037924803149609
0
LINE
8
BLACK
6
CONTINUOUS
10
4.7877940944881887
20
-4.0037924803149609
11
4.7885433070866137
21
-4.0075590551181097
0
LINE
8
BLACK
6
CONTINUOUS
10
4.7885433070866137
20
-4.0075590551181097
11
4.7885433070866137
21
-4.0272440944881893
0
LINE
8
BLACK
6
CONTINUOUS
10
4.7885433070866137
20
-4.0272440944881893
11
4.7877940944881887
21
-4.0310106692913381
0
LINE
8
BLACK
6
CONTINUOUS
10
4.7877940944881887
20
-4.0310106692913381
11
4.7856605118110238
21
-4.0342038188976375
0
LINE
8
BLACK
6
CONTINUOUS
10
4.7856605118110238
20
-4.0342038188976375
11
4.7824673622047245
21
-4.0363374015748033
0
LINE
8
BLACK
6
CONTINUOUS
10
4.7824673622047245
20
-4.0363374015748033
11
4.7787007874015748
21
-4.0370866141732282
0
LINE
8
BLACK
6
CONTINUOUS
10
4.7787007874015748
20
-4.0370866141732282
11
4.7412992125984248
21
-4.0370866141732282
0
LINE
8
BLACK
6
CONTINUOUS
10
4.7412992125984248
20
-4.0370866141732282
11
4.7375326377952751
21
-4.0363374015748033
0
LINE
8
BLACK
6
CONTINUOUS
10
4.7375326377952751
20
-4.0363374015748033
11
4.7343394881889767
21
-4.0342038188976375
0
LINE
8
BLACK
6
CONTINUOUS
10
4.7343394881889767
20
-4.0342038188976375
11
4.7322059055118109
21
-4.0310106692913381
0
LINE
8
BLACK
6
CONTINUOUS
10
4.7322059055118109
20
-4.0310106692913381
11
4.7314566929133859
21
-4.0272440944881893
0
LINE
8
BLACK
6
CONTINUOUS
10
4.7314566929133859
20
-4.0272440944881893
11
4.7314566929133859
21
-4.0075590551181097
0
LINE
8
BLACK
6
CONTINUOUS
10
4.7314566929133859
20
-4.0075590551181097
11
4.7322059055118109
21
-4.0037924803149609
0
LINE
8
BLACK
6
CONTINUOUS
10
4.7322059055118109
20
-4.0037924803149609
11
4.7343394881889767
21
-4.0005993307086616
0
LINE
8
BLACK
6
CONTINUOUS
10
4.7343394881889767
20
-4.0005993307086616
11
4.7375326377952751
21
-3.9984657480314958
0
LINE
8
BLACK
6
CONTINUOUS
10
4.7375326377952751
20
-3.9984657480314958
11
4.7412992125984248
21
-3.9977165354330708
0
LINE
8
BLACK
6
CONTINUOUS
10
4.7412992125984248
20
-3.9977165354330708
11
4.7787007874015748
21
-3.9977165354330708
0
LINE
8
BLACK
6
CONTINUOUS
10
4.7787007874015748
20
-3.9977165354330708
11
4.7824673622047245
21
-3.9984657480314958
0
LINE
8
BLACK
6
CONTINUOUS
10
5.0424673622047242
20
-3.9984657480314958
11
5.0456605118110236
21
-4.0005993307086616
0
LINE
8
BLACK
6
CONTINUOUS
10
5.0456605118110236
20
-4.0005993307086616
11
5.0477940944881885
21
-4.0037924803149609
0
LINE
8
BLACK
6
CONTINUOUS
10
5.0477940944881885
20
-4.0037924803149609
11
5.0485433070866144
21
-4.0075590551181097
0
LINE
8
BLACK
6
CONTINUOUS
10
5.0485433070866144
20
-4.0075590551181097
11
5.0485433070866144
21
-4.0272440944881893
0
LINE
8
BLACK
6
CONTINUOUS
10
5.0485433070866144
20
-4.0272440944881893
11
5.0477940944881885
21
-4.0310106692913381
0
LINE
8
BLACK
6
CONTINUOUS
10
5.0477940944881885
20
-4.0310106692913381
11
5.0456605118110236
21
-4.0342038188976375
0
LINE
8
BLACK
6
CONTINUOUS
10
5.0456605118110236
20
-4.0342038188976375
11
5.0424673622047242
21
-4.0363374015748033
0
LINE
8
BLACK
6
CONTINUOUS
10
5.0424673622047242
20
-4.0363374015748033
11
5.0387007874015746
21
-4.0370866141732282
0
LINE
8
BLACK
6
CONTINUOUS
10
5.0387007874015746
20
-4.0370866141732282
11
5.0012992125984255
21
-4.0370866141732282
0
LINE
8
BLACK
6
CONTINUOUS
10
5.0012992125984255
20
-4.0370866141732282
11
4.9975326377952758
21
-4.0363374015748033
0
LINE
8
BLACK
6
CONTINUOUS
10
4.9975326377952758
20
-4.0363374015748033
11
4.9943394881889764
21
-4.0342038188976375
0
LINE
8
BLACK
6
CONTINUOUS
10
4.9943394881889764
20
-4.0342038188976375
11
4.9922059055118106
21
-4.0310106692913381
0
LINE
8
BLACK
6
CONTINUOUS
10
4.9922059055118106
20
-4.0310106692913381
11
4.9914566929133857
21
-4.0272440944881893
0
LINE
8
BLACK
6
CONTINUOUS
10
4.9914566929133857
20
-4.0272440944881893
11
4.9914566929133857
21
-4.0075590551181097
0
LINE
8
BLACK
6
CONTINUOUS
10
4.9914566929133857
20
-4.0075590551181097
11
4.9922059055118106
21
-4.0037924803149609
0
LINE
8
BLACK
6
CONTINUOUS
10
4.9922059055118106
20
-4.0037924803149609
11
4.9943394881889764
21
-4.0005993307086616
0
LINE
8
BLACK
6
CONTINUOUS
10
4.9943394881889764
20
-4.0005993307086616
11
4.9975326377952758
21
-3.9984657480314958
0
LINE
8
BLACK
6
CONTINUOUS
10
4.9975326377952758
20
-3.9984657480314958
11
5.0012992125984255
21
-3.9977165354330708
0
LINE
8
BLACK
6
CONTINUOUS
10
5.0012992125984255
20
-3.9977165354330708
11
5.0387007874015746
21
-3.9977165354330708
0
LINE
8
BLACK
6
CONTINUOUS
10
5.0387007874015746
20
-3.9977165354330708
11
5.0424673622047242
21
-3.9984657480314958
0
LINE
8
BLACK
6
CONTINUOUS
10
5.2924673622047242
20
-3.9984657480314958
11
5.2956605118110236
21
-4.0005993307086616
0
LINE
8
BLACK
6
CONTINUOUS
10
5.2956605118110236
20
-4.0005993307086616
11
5.2977940944881885
21
-4.0037924803149609
0
LINE
8
BLACK
6
CONTINUOUS
10
5.2977940944881885
20
-4.0037924803149609
11
5.2985433070866144
21
-4.0075590551181097
0
LINE
8
BLACK
6
CONTINUOUS
10
5.2985433070866144
20
-4.0075590551181097
11
5.2985433070866144
21
-4.0272440944881893
0
LINE
8
BLACK
6
CONTINUOUS
10
5.2985433070866144
20
-4.0272440944881893
11
5.2977940944881885
21
-4.0310106692913381
0
LINE
8
BLACK
6
CONTINUOUS
10
5.2977940944881885
20
-4.0310106692913381
11
5.2956605118110236
21
-4.0342038188976375
0
LINE
8
BLACK
6
CONTINUOUS
10
5.2956605118110236
20
-4.0342038188976375
11
5.2924673622047242
21
-4.0363374015748033
0
LINE
8
BLACK
6
CONTINUOUS
10
5.2924673622047242
20
-4.0363374015748033
11
5.2887007874015746
21
-4.0370866141732282
0
LINE
8
BLACK
6
CONTINUOUS
10
5.2887007874015746
20
-4.0370866141732282
11
5.2512992125984255
21
-4.0370866141732282
0
LINE
8
BLACK
6
CONTINUOUS
10
5.2512992125984255
20
-4.0370866141732282
11
5.2475326377952758
21
-4.0363374015748033
0
LINE
8
BLACK
6
CONTINUOUS
10
5.2475326377952758
20
-4.0363374015748033
11
5.2443394881889764
21
-4.0342038188976375
0
LINE
8
BLACK
6
CONTINUOUS
10
5.2443394881889764
20
-4.0342038188976375
11
5.2422059055118106
21
-4.0310106692913381
0
LINE
8
BLACK
6
CONTINUOUS
10
5.2422059055118106
20
-4.0310106692913381
11
5.2414566929133857
21
-4.0272440944881893
0
LINE
8
BLACK
6
CONTINUOUS
10
5.2414566929133857
20
-4.0272440944881893
11
5.2414566929133857
21
-4.0075590551181097
0
LINE
8
BLACK
6
CONTINUOUS
10
5.2414566929133857
20
-4.0075590551181097
11
5.2422059055118106
21
-4.0037924803149609
0
LINE
8
BLACK
6
CONTINUOUS
10
5.2422059055118106
20
-4.0037924803149609
11
5.2443394881889764
21
-4.0005993307086616
0
LINE
8
BLACK
6
CONTINUOUS
10
5.2443394881889764
20
-4.0005993307086616
11
5.2475326377952758
21
-3.9984657480314958
0
LINE
8
BLACK
6
CONTINUOUS
10
5.2475326377952758
20
-3.9984657480314958
11
5.2512992125984255
21
-3.9977165354330708
0
LINE
8
BLACK
6
CONTINUOUS
10
5.2512992125984255
20
-3.9977165354330708
11
5.2887007874015746
21
-3.9977165354330708
0
LINE
8
BLACK
6
CONTINUOUS
10
5.2887007874015746
20
-3.9977165354330708
11
5.2924673622047242
21
-3.9984657480314958
0
LINE
8
BLACK
6
CONTINUOUS
10
5.552467362204724
20
-3.9984657480314958
11
5.5556605118110234
21
-4.0005993307086616
0
LINE
8
BLACK
6
CONTINUOUS
10
5.5556605118110234
20
-4.0005993307086616
11
5.5577940944881892
21
-4.0037924803149609
0
LINE
8
BLACK
6
CONTINUOUS
10
5.5577940944881892
20
-4.0037924803149609
11
5.5585433070866141
21
-4.0075590551181097
0
LINE
8
BLACK
6
CONTINUOUS
10
5.5585433070866141
20
-4.0075590551181097
11
5.5585433070866141
21
-4.0272440944881893
0
LINE
8
BLACK
6
CONTINUOUS
10
5.5585433070866141
20
-4.0272440944881893
11
5.5577940944881892
21
-4.0310106692913381
0
LINE
8
BLACK
6
CONTINUOUS
10
5.5577940944881892
20
-4.0310106692913381
11
5.5556605118110234
21
-4.0342038188976375
0
LINE
8
BLACK
6
CONTINUOUS
10
5.5556605118110234
20
-4.0342038188976375
11
5.552467362204724
21
-4.0363374015748033
0
LINE
8
BLACK
6
CONTINUOUS
10
5.552467362204724
20
-4.0363374015748033
11
5.5487007874015744
21
-4.0370866141732282
0
LINE
8
BLACK
6
CONTINUOUS
10
5.5487007874015744
20
-4.0370866141732282
11
5.5112992125984253
21
-4.0370866141732282
0
LINE
8
BLACK
6
CONTINUOUS
10
5.5112992125984253
20
-4.0370866141732282
11
5.5075326377952756
21
-4.0363374015748033
0
LINE
8
BLACK
6
CONTINUOUS
10
5.5075326377952756
20
-4.0363374015748033
11
5.5043394881889762
21
-4.0342038188976375
0
LINE
8
BLACK
6
CONTINUOUS
10
5.5043394881889762
20
-4.0342038188976375
11
5.5022059055118113
21
-4.0310106692913381
0
LINE
8
BLACK
6
CONTINUOUS
10
5.5022059055118113
20
-4.0310106692913381
11
5.5014566929133855
21
-4.0272440944881893
0
LINE
8
BLACK
6
CONTINUOUS
10
5.5014566929133855
20
-4.0272440944881893
11
5.5014566929133855
21
-4.0075590551181097
0
LINE
8
BLACK
6
CONTINUOUS
10
5.5014566929133855
20
-4.0075590551181097
11
5.5022059055118113
21
-4.0037924803149609
0
LINE
8
BLACK
6
CONTINUOUS
10
5.5022059055118113
20
-4.0037924803149609
11
5.5043394881889762
21
-4.0005993307086616
0
LINE
8
BLACK
6
CONTINUOUS
10
5.5043394881889762
20
-4.0005993307086616
11
5.5075326377952756
21
-3.9984657480314958
0
LINE
8
BLACK
6
CONTINUOUS
10
5.5075326377952756
20
-3.9984657480314958
11
5.5112992125984253
21
-3.9977165354330708
0
LINE
8
BLACK
6
CONTINUOUS
10
5.5112992125984253
20
-3.9977165354330708
11
5.5487007874015744
21
-3.9977165354330708
0
LINE
8
BLACK
6
CONTINUOUS
10
5.5487007874015744
20
-3.9977165354330708
11
5.552467362204724
21
-3.9984657480314958
0
LINE
8
BLACK
6
CONTINUOUS
10
5.6624673622047244
20
-3.9984657480314958
11
5.6656605118110237
21
-4.0005993307086616
0
LINE
8
BLACK
6
CONTINUOUS
10
5.6656605118110237
20
-4.0005993307086616
11
5.6677940944881886
21
-4.0037924803149609
0
LINE
8
BLACK
6
CONTINUOUS
10
5.6677940944881886
20
-4.0037924803149609
11
5.6685433070866145
21
-4.0075590551181097
0
LINE
8
BLACK
6
CONTINUOUS
10
5.6685433070866145
20
-4.0075590551181097
11
5.6685433070866145
21
-4.0272440944881893
0
LINE
8
BLACK
6
CONTINUOUS
10
5.6685433070866145
20
-4.0272440944881893
11
5.6677940944881886
21
-4.0310106692913381
0
LINE
8
BLACK
6
CONTINUOUS
10
5.6677940944881886
20
-4.0310106692913381
11
5.6656605118110237
21
-4.0342038188976375
0
LINE
8
BLACK
6
CONTINUOUS
10
5.6656605118110237
20
-4.0342038188976375
11
5.6624673622047244
21
-4.0363374015748033
0
LINE
8
BLACK
6
CONTINUOUS
10
5.6624673622047244
20
-4.0363374015748033
11
5.6587007874015747
21
-4.0370866141732282
0
LINE
8
BLACK
6
CONTINUOUS
10
5.6587007874015747
20
-4.0370866141732282
11
5.6212992125984247
21
-4.0370866141732282
0
LINE
8
BLACK
6
CONTINUOUS
10
5.6212992125984247
20
-4.0370866141732282
11
5.6175326377952759
21
-4.0363374015748033
0
LINE
8
BLACK
6
CONTINUOUS
10
5.6175326377952759
20
-4.0363374015748033
11
5.6143394881889765
21
-4.0342038188976375
0
LINE
8
BLACK
6
CONTINUOUS
10
5.6143394881889765
20
-4.0342038188976375
11
5.6122059055118108
21
-4.0310106692913381
0
LINE
8
BLACK
6
CONTINUOUS
10
5.6122059055118108
20
-4.0310106692913381
11
5.6114566929133858
21
-4.0272440944881893
0
LINE
8
BLACK
6
CONTINUOUS
10
5.6114566929133858
20
-4.0272440944881893
11
5.6114566929133858
21
-4.0075590551181097
0
LINE
8
BLACK
6
CONTINUOUS
10
5.6114566929133858
20
-4.0075590551181097
11
5.6122059055118108
21
-4.0037924803149609
0
LINE
8
BLACK
6
CONTINUOUS
10
5.6122059055118108
20
-4.0037924803149609
11
5.6143394881889765
21
-4.0005993307086616
0
LINE
8
BLACK
6
CONTINUOUS
10
5.6143394881889765
20
-4.0005993307086616
11
5.6175326377952759
21
-3.9984657480314958
0
LINE
8
BLACK
6
CONTINUOUS
10
5.6175326377952759
20
-3.9984657480314958
11
5.6212992125984247
21
-3.9977165354330708
0
LINE
8
BLACK
6
CONTINUOUS
10
5.6212992125984247
20
-3.9977165354330708
11
5.6587007874015747
21
-3.9977165354330708
0
LINE
8
BLACK
6
CONTINUOUS
10
5.6587007874015747
20
-3.9977165354330708
11
5.6624673622047244
21
-3.9984657480314958
0
LINE
8
BLACK
6
CONTINUOUS
10
5.9024673622047246
20
-3.9984657480314958
11
5.9056605118110239
21
-4.0005993307086616
0
LINE
8
BLACK
6
CONTINUOUS
10
5.9056605118110239
20
-4.0005993307086616
11
5.9077940944881888
21
-4.0037924803149609
0
LINE
8
BLACK
6
CONTINUOUS
10
5.9077940944881888
20
-4.0037924803149609
11
5.9085433070866138
21
-4.0075590551181097
0
LINE
8
BLACK
6
CONTINUOUS
10
5.9085433070866138
20
-4.0075590551181097
11
5.9085433070866138
21
-4.0272440944881893
0
LINE
8
BLACK
6
CONTINUOUS
10
5.9085433070866138
20
-4.0272440944881893
11
5.9077940944881888
21
-4.0310106692913381
0
LINE
8
BLACK
6
CONTINUOUS
10
5.9077940944881888
20
-4.0310106692913381
11
5.9056605118110239
21
-4.0342038188976375
0
LINE
8
BLACK
6
CONTINUOUS
10
5.9056605118110239
20
-4.0342038188976375
11
5.9024673622047246
21
-4.0363374015748033
0
LINE
8
BLACK
6
CONTINUOUS
10
5.9024673622047246
20
-4.0363374015748033
11
5.8987007874015749
21
-4.0370866141732282
0
LINE
8
BLACK
6
CONTINUOUS
10
5.8987007874015749
20
-4.0370866141732282
11
5.8612992125984249
21
-4.0370866141732282
0
LINE
8
BLACK
6
CONTINUOUS
10
5.8612992125984249
20
-4.0370866141732282
11
5.8575326377952752
21
-4.0363374015748033
0
LINE
8
BLACK
6
CONTINUOUS
10
5.8575326377952752
20
-4.0363374015748033
11
5.8543394881889759
21
-4.0342038188976375
0
LINE
8
BLACK
6
CONTINUOUS
10
5.8543394881889759
20
-4.0342038188976375
11
5.852205905511811
21
-4.0310106692913381
0
LINE
8
BLACK
6
CONTINUOUS
10
5.852205905511811
20
-4.0310106692913381
11
5.851456692913386
21
-4.0272440944881893
0
LINE
8
BLACK
6
CONTINUOUS
10
5.851456692913386
20
-4.0272440944881893
11
5.851456692913386
21
-4.0075590551181097
0
LINE
8
BLACK
6
CONTINUOUS
10
5.851456692913386
20
-4.0075590551181097
11
5.852205905511811
21
-4.0037924803149609
0
LINE
8
BLACK
6
CONTINUOUS
10
5.852205905511811
20
-4.0037924803149609
11
5.8543394881889759
21
-4.0005993307086616
0
LINE
8
BLACK
6
CONTINUOUS
10
5.8543394881889759
20
-4.0005993307086616
11
5.8575326377952752
21
-3.9984657480314958
0
LINE
8
BLACK
6
CONTINUOUS
10
5.8575326377952752
20
-3.9984657480314958
11
5.8612992125984249
21
-3.9977165354330708
0
LINE
8
BLACK
6
CONTINUOUS
10
5.8612992125984249
20
-3.9977165354330708
11
5.8987007874015749
21
-3.9977165354330708
0
LINE
8
BLACK
6
CONTINUOUS
10
5.8987007874015749
20
-3.9977165354330708
11
5.9024673622047246
21
-3.9984657480314958
0
LINE
8
BLACK
6
CONTINUOUS
10
6.0024673622047242
20
-3.9984657480314958
11
6.0056605118110236
21
-4.0005993307086616
0
LINE
8
BLACK
6
CONTINUOUS
10
6.0056605118110236
20
-4.0005993307086616
11
6.0077940944881885
21
-4.0037924803149609
0
LINE
8
BLACK
6
CONTINUOUS
10
6.0077940944881885
20
-4.0037924803149609
11
6.0085433070866143
21
-4.0075590551181097
0
LINE
8
BLACK
6
CONTINUOUS
10
6.0085433070866143
20
-4.0075590551181097
11
6.0085433070866143
21
-4.0272440944881893
0
LINE
8
BLACK
6
CONTINUOUS
10
6.0085433070866143
20
-4.0272440944881893
11
6.0077940944881885
21
-4.0310106692913381
0
LINE
8
BLACK
6
CONTINUOUS
10
6.0077940944881885
20
-4.0310106692913381
11
6.0056605118110236
21
-4.0342038188976375
0
LINE
8
BLACK
6
CONTINUOUS
10
6.0056605118110236
20
-4.0342038188976375
11
6.0024673622047242
21
-4.0363374015748033
0
LINE
8
BLACK
6
CONTINUOUS
10
6.0024673622047242
20
-4.0363374015748033
11
5.9987007874015745
21
-4.0370866141732282
0
LINE
8
BLACK
6
CONTINUOUS
10
5.9987007874015745
20
-4.0370866141732282
11
5.9612992125984254
21
-4.0370866141732282
0
LINE
8
BLACK
6
CONTINUOUS
10
5.9612992125984254
20
-4.0370866141732282
11
5.9575326377952758
21
-4.0363374015748033
0
LINE
8
BLACK
6
CONTINUOUS
10
5.9575326377952758
20
-4.0363374015748033
11
5.9543394881889764
21
-4.0342038188976375
0
LINE
8
BLACK
6
CONTINUOUS
10
5.9543394881889764
20
-4.0342038188976375
11
5.9522059055118106
21
-4.0310106692913381
0
LINE
8
BLACK
6
CONTINUOUS
10
5.9522059055118106
20
-4.0310106692913381
11
5.9514566929133856
21
-4.0272440944881893
0
LINE
8
BLACK
6
CONTINUOUS
10
5.9514566929133856
20
-4.0272440944881893
11
5.9514566929133856
21
-4.0075590551181097
0
LINE
8
BLACK
6
CONTINUOUS
10
5.9514566929133856
20
-4.0075590551181097
11
5.9522059055118106
21
-4.0037924803149609
0
LINE
8
BLACK
6
CONTINUOUS
10
5.9522059055118106
20
-4.0037924803149609
11
5.9543394881889764
21
-4.0005993307086616
0
LINE
8
BLACK
6
CONTINUOUS
10
5.9543394881889764
20
-4.0005993307086616
11
5.9575326377952758
21
-3.9984657480314958
0
LINE
8
BLACK
6
CONTINUOUS
10
5.9575326377952758
20
-3.9984657480314958
11
5.9612992125984254
21
-3.9977165354330708
0
LINE
8
BLACK
6
CONTINUOUS
10
5.9612992125984254
20
-3.9977165354330708
11
5.9987007874015745
21
-3.9977165354330708
0
LINE
8
BLACK
6
CONTINUOUS
10
5.9987007874015745
20
-3.9977165354330708
11
6.0024673622047242
21
-3.9984657480314958
0
LINE
8
BLACK
6
CONTINUOUS
10
6.6114831102362199
20
-3.9964972440944879
11
6.6146762598425193
21
-3.9986308267716533
0
LINE
8
BLACK
6
CONTINUOUS
10
6.6146762598425193
20
-3.9986308267716533
11
6.6168098425196851
21
-4.0018239763779526
0
LINE
8
BLACK
6
CONTINUOUS
10
6.6168098425196851
20
-4.0018239763779526
11
6.61755905511811
21
-4.0055905511811023
0
LINE
8
BLACK
6
CONTINUOUS
10
6.61755905511811
20
-4.0055905511811023
11
6.61755905511811
21
-4.0262598425196847
0
LINE
8
BLACK
6
CONTINUOUS
10
6.61755905511811
20
-4.0262598425196847
11
6.6168098425196851
21
-4.0300264173228344
0
LINE
8
BLACK
6
CONTINUOUS
10
6.6168098425196851
20
-4.0300264173228344
11
6.6146762598425193
21
-4.0332195669291337
0
LINE
8
BLACK
6
CONTINUOUS
10
6.6146762598425193
20
-4.0332195669291337
11
6.6114831102362199
21
-4.0353531496062995
0
LINE
8
BLACK
6
CONTINUOUS
10
6.6114831102362199
20
-4.0353531496062995
11
6.6077165354330711
21
-4.0361023622047245
0
LINE
8
BLACK
6
CONTINUOUS
10
6.6077165354330711
20
-4.0361023622047245
11
6.5722834645669286
21
-4.0361023622047245
0
LINE
8
BLACK
6
CONTINUOUS
10
6.5722834645669286
20
-4.0361023622047245
11
6.5685168897637798
21
-4.0353531496062995
0
LINE
8
BLACK
6
CONTINUOUS
10
6.5685168897637798
20
-4.0353531496062995
11
6.5653237401574804
21
-4.0332195669291337
0
LINE
8
BLACK
6
CONTINUOUS
10
6.5653237401574804
20
-4.0332195669291337
11
6.5631901574803146
21
-4.0300264173228344
0
LINE
8
BLACK
6
CONTINUOUS
10
6.5631901574803146
20
-4.0300264173228344
11
6.5624409448818897
21
-4.0262598425196847
0
LINE
8
BLACK
6
CONTINUOUS
10
6.5624409448818897
20
-4.0262598425196847
11
6.5624409448818897
21
-4.0055905511811023
0
LINE
8
BLACK
6
CONTINUOUS
10
6.5624409448818897
20
-4.0055905511811023
11
6.5631901574803146
21
-4.0018239763779526
0
LINE
8
BLACK
6
CONTINUOUS
10
6.5631901574803146
20
-4.0018239763779526
11
6.5653237401574804
21
-3.9986308267716533
0
LINE
8
BLACK
6
CONTINUOUS
10
6.5653237401574804
20
-3.9986308267716533
11
6.5685168897637798
21
-3.9964972440944879
0
LINE
8
BLACK
6
CONTINUOUS
10
6.5685168897637798
20
-3.9964972440944879
11
6.5722834645669286
21
-3.9957480314960629
0
LINE
8
BLACK
6
CONTINUOUS
10
6.5722834645669286
20
-3.9957480314960629
11
6.6077165354330711
21
-3.9957480314960629
0
LINE
8
BLACK
6
CONTINUOUS
10
6.6077165354330711
20
-3.9957480314960629
11
6.6114831102362199
21
-3.9964972440944879
0
LINE
8
BLACK
6
CONTINUOUS
10
6.3975590551181103
20
-4.0301968503937005
11
6.3361417322834646
21
-4.0301968503937005
0
LINE
8
BLACK
6
CONTINUOUS
10
6.3361417322834646
20
-4.0301968503937005
11
6.3361417322834646
21
-4.0046062992125986
0
LINE
8
BLACK
6
CONTINUOUS
10
6.3361417322834646
20
-4.0046062992125986
11
6.3975590551181103
21
-4.0046062992125986
0
LINE
8
BLACK
6
CONTINUOUS
10
6.3975590551181103
20
-4.0046062992125986
11
6.3975590551181103
21
-4.0301968503937005
0
LINE
8
BLACK
6
CONTINUOUS
10
6.5038582677165353
20
-4.0301968503937005
11
6.4424409448818896
21
-4.0301968503937005
0
LINE
8
BLACK
6
CONTINUOUS
10
6.4424409448818896
20
-4.0301968503937005
11
6.4424409448818896
21
-4.0046062992125986
0
LINE
8
BLACK
6
CONTINUOUS
10
6.4424409448818896
20
-4.0046062992125986
11
6.5038582677165353
21
-4.0046062992125986
0
LINE
8
BLACK
6
CONTINUOUS
10
6.5038582677165353
20
-4.0046062992125986
11
6.5038582677165353
21
-4.0301968503937005
0
LINE
8
BLACK
6
CONTINUOUS
10
6.0842519685039367
20
-4.0037795275590549
11
6.0606299212598422
21
-4.0037795275590549
0
LINE
8
BLACK
6
CONTINUOUS
10
6.0606299212598422
20
-4.0037795275590549
11
6.0606299212598422
21
-3.9762204724409447
0
LINE
8
BLACK
6
CONTINUOUS
10
6.0606299212598422
20
-3.9762204724409447
11
6.0842519685039367
21
-3.9762204724409447
0
LINE
8
BLACK
6
CONTINUOUS
10
6.0842519685039367
20
-3.9762204724409447
11
6.0842519685039367
21
-4.0037795275590549
0
LINE
8
BLACK
6
CONTINUOUS
10
6.1393700787401571
20
-4.0037795275590549
11
6.1157480314960626
21
-4.0037795275590549
0
LINE
8
BLACK
6
CONTINUOUS
10
6.1157480314960626
20
-4.0037795275590549
11
6.1157480314960626
21
-3.9762204724409447
0
LINE
8
BLACK
6
CONTINUOUS
10
6.1157480314960626
20
-3.9762204724409447
11
6.1393700787401571
21
-3.9762204724409447
0
LINE
8
BLACK
6
CONTINUOUS
10
6.1393700787401571
20
-3.9762204724409447
11
6.1393700787401571
21
-4.0037795275590549
0
LINE
8
BLACK
6
CONTINUOUS
10
6.3975590551181103
20
-3.9927952755905509
11
6.3361417322834646
21
-3.9927952755905509
0
LINE
8
BLACK
6
CONTINUOUS
10
6.3361417322834646
20
-3.9927952755905509
11
6.3361417322834646
21
-3.9672047244094486
0
LINE
8
BLACK
6
CONTINUOUS
10
6.3361417322834646
20
-3.9672047244094486
11
6.3975590551181103
21
-3.9672047244094486
0
LINE
8
BLACK
6
CONTINUOUS
10
6.3975590551181103
20
-3.9672047244094486
11
6.3975590551181103
21
-3.9927952755905509
0
LINE
8
BLACK
6
CONTINUOUS
10
6.5038582677165353
20
-3.9927952755905509
11
6.4424409448818896
21
-3.9927952755905509
0
LINE
8
BLACK
6
CONTINUOUS
10
6.4424409448818896
20
-3.9927952755905509
11
6.4424409448818896
21
-3.9672047244094486
0
LINE
8
BLACK
6
CONTINUOUS
10
6.4424409448818896
20
-3.9672047244094486
11
6.5038582677165353
21
-3.9672047244094486
0
LINE
8
BLACK
6
CONTINUOUS
10
6.5038582677165353
20
-3.9672047244094486
11
6.5038582677165353
21
-3.9927952755905509
0
LINE
8
BLACK
6
CONTINUOUS
10
6.2860893700787397
20
-3.9241350393700785
11
6.289282519685039
21
-3.9262686614173226
0
LINE
8
BLACK
6
CONTINUOUS
10
6.289282519685039
20
-3.9262686614173226
11
6.2914161417322836
21
-3.9294618110236219
0
LINE
8
BLACK
6
CONTINUOUS
10
6.2914161417322836
20
-3.9294618110236219
11
6.2921653149606298
21
-3.9332284251968503
0
LINE
8
BLACK
6
CONTINUOUS
10
6.2921653149606298
20
-3.9332284251968503
11
6.2921653543307086
21
-3.9696456299212599
0
LINE
8
BLACK
6
CONTINUOUS
10
6.2921653543307086
20
-3.9696456299212599
11
6.2914161417322836
21
-3.9734122047244091
0
LINE
8
BLACK
6
CONTINUOUS
10
6.2914161417322836
20
-3.9734122047244091
11
6.289282519685039
21
-3.9766053543307085
0
LINE
8
BLACK
6
CONTINUOUS
10
6.289282519685039
20
-3.9766053543307085
11
6.2860893700787397
21
-3.9787389763779526
0
LINE
8
BLACK
6
CONTINUOUS
10
6.2860893700787397
20
-3.9787389763779526
11
6.2823227559055113
21
-3.9794881496062993
0
LINE
8
BLACK
6
CONTINUOUS
10
6.2823227559055113
20
-3.9794881496062993
11
6.1976772047244095
21
-3.979488188976378
0
LINE
8
BLACK
6
CONTINUOUS
10
6.1976772047244095
20
-3.979488188976378
11
6.1939106299212598
21
-3.9787389763779526
0
LINE
8
BLACK
6
CONTINUOUS
10
6.1939106299212598
20
-3.9787389763779526
11
6.1907174803149605
21
-3.9766053543307085
0
LINE
8
BLACK
6
CONTINUOUS
10
6.1907174803149605
20
-3.9766053543307085
11
6.188583858267716
21
-3.9734122047244091
0
LINE
8
BLACK
6
CONTINUOUS
10
6.188583858267716
20
-3.9734122047244091
11
6.1878346850393697
21
-3.9696455905511812
0
LINE
8
BLACK
6
CONTINUOUS
10
6.1878346850393697
20
-3.9696455905511812
11
6.187834645669291
21
-3.9332283858267716
0
LINE
8
BLACK
6
CONTINUOUS
10
6.187834645669291
20
-3.9332283858267716
11
6.188583858267716
21
-3.9294618110236219
0
LINE
8
BLACK
6
CONTINUOUS
10
6.188583858267716
20
-3.9294618110236219
11
6.1907174803149605
21
-3.9262686614173226
0
LINE
8
BLACK
6
CONTINUOUS
10
6.1907174803149605
20
-3.9262686614173226
11
6.1939106299212598
21
-3.9241350393700785
0
LINE
8
BLACK
6
CONTINUOUS
10
6.1939106299212598
20
-3.9241350393700785
11
6.1976772440944883
21
-3.9233858661417322
0
LINE
8
BLACK
6
CONTINUOUS
10
6.1976772440944883
20
-3.9233858661417322
11
6.28232279527559
21
-3.9233858267716535
0
LINE
8
BLACK
6
CONTINUOUS
10
6.28232279527559
20
-3.9233858267716535
11
6.2860893700787397
21
-3.9241350393700785
0
LINE
8
BLACK
6
CONTINUOUS
10
6.6114831102362199
20
-3.9246468503937009
11
6.6146762598425193
21
-3.9267804330708662
0
LINE
8
BLACK
6
CONTINUOUS
10
6.6146762598425193
20
-3.9267804330708662
11
6.6168098425196851
21
-3.9299735826771651
0
LINE
8
BLACK
6
CONTINUOUS
10
6.6168098425196851
20
-3.9299735826771651
11
6.61755905511811
21
-3.9337401574803148
0
LINE
8
BLACK
6
CONTINUOUS
10
6.61755905511811
20
-3.9337401574803148
11
6.61755905511811
21
-3.9544094488188977
0
LINE
8
BLACK
6
CONTINUOUS
10
6.61755905511811
20
-3.9544094488188977
11
6.6168098425196851
21
-3.9581760236220473
0
LINE
8
BLACK
6
CONTINUOUS
10
6.6168098425196851
20
-3.9581760236220473
11
6.6146762598425193
21
-3.9613691732283463
0
LINE
8
BLACK
6
CONTINUOUS
10
6.6146762598425193
20
-3.9613691732283463
11
6.6114831102362199
21
-3.9635027559055116
0
LINE
8
BLACK
6
CONTINUOUS
10
6.6114831102362199
20
-3.9635027559055116
11
6.6077165354330711
21
-3.964251968503937
0
LINE
8
BLACK
6
CONTINUOUS
10
6.6077165354330711
20
-3.964251968503937
11
6.5722834645669286
21
-3.964251968503937
0
LINE
8
BLACK
6
CONTINUOUS
10
6.5722834645669286
20
-3.964251968503937
11
6.5685168897637798
21
-3.9635027559055116
0
LINE
8
BLACK
6
CONTINUOUS
10
6.5685168897637798
20
-3.9635027559055116
11
6.5653237401574804
21
-3.9613691732283463
0
LINE
8
BLACK
6
CONTINUOUS
10
6.5653237401574804
20
-3.9613691732283463
11
6.5631901574803146
21
-3.9581760236220473
0
LINE
8
BLACK
6
CONTINUOUS
10
6.5631901574803146
20
-3.9581760236220473
11
6.5624409448818897
21
-3.9544094488188977
0
LINE
8
BLACK
6
CONTINUOUS
10
6.5624409448818897
20
-3.9544094488188977
11
6.5624409448818897
21
-3.9337401574803148
0
LINE
8
BLACK
6
CONTINUOUS
10
6.5624409448818897
20
-3.9337401574803148
11
6.5631901574803146
21
-3.9299735826771651
0
LINE
8
BLACK
6
CONTINUOUS
10
6.5631901574803146
20
-3.9299735826771651
11
6.5653237401574804
21
-3.9267804330708662
0
LINE
8
BLACK
6
CONTINUOUS
10
6.5653237401574804
20
-3.9267804330708662
11
6.5685168897637798
21
-3.9246468503937009
0
LINE
8
BLACK
6
CONTINUOUS
10
6.5685168897637798
20
-3.9246468503937009
11
6.5722834645669286
21
-3.9238976377952755
0
LINE
8
BLACK
6
CONTINUOUS
10
6.5722834645669286
20
-3.9238976377952755
11
6.6077165354330711
21
-3.9238976377952755
0
LINE
8
BLACK
6
CONTINUOUS
10
6.6077165354330711
20
-3.9238976377952755
11
6.6114831102362199
21
-3.9246468503937009
0
LINE
8
BLACK
6
CONTINUOUS
10
4.6824673622047239
20
-3.9236625984251967
11
4.6856605118110233
21
-3.9257961811023621
0
LINE
8
BLACK
6
CONTINUOUS
10
4.6856605118110233
20
-3.9257961811023621
11
4.6877940944881891
21
-3.9289893307086614
0
LINE
8
BLACK
6
CONTINUOUS
10
4.6877940944881891
20
-3.9289893307086614
11
4.688543307086614
21
-3.9327559055118111
0
LINE
8
BLACK
6
CONTINUOUS
10
4.688543307086614
20
-3.9327559055118111
11
4.688543307086614
21
-3.9524409448818898
0
LINE
8
BLACK
6
CONTINUOUS
10
4.688543307086614
20
-3.9524409448818898
11
4.6877940944881891
21
-3.9562075196850395
0
LINE
8
BLACK
6
CONTINUOUS
10
4.6877940944881891
20
-3.9562075196850395
11
4.6856605118110233
21
-3.9594006692913384
0
LINE
8
BLACK
6
CONTINUOUS
10
4.6856605118110233
20
-3.9594006692913384
11
4.6824673622047239
21
-3.9615342519685037
0
LINE
8
BLACK
6
CONTINUOUS
10
4.6824673622047239
20
-3.9615342519685037
11
4.6787007874015751
21
-3.9622834645669291
0
LINE
8
BLACK
6
CONTINUOUS
10
4.6787007874015751
20
-3.9622834645669291
11
4.6412992125984252
21
-3.9622834645669291
0
LINE
8
BLACK
6
CONTINUOUS
10
4.6412992125984252
20
-3.9622834645669291
11
4.6375326377952755
21
-3.9615342519685037
0
LINE
8
BLACK
6
CONTINUOUS
10
4.6375326377952755
20
-3.9615342519685037
11
4.6343394881889761
21
-3.9594006692913384
0
LINE
8
BLACK
6
CONTINUOUS
10
4.6343394881889761
20
-3.9594006692913384
11
4.6322059055118112
21
-3.9562075196850395
0
LINE
8
BLACK
6
CONTINUOUS
10
4.6322059055118112
20
-3.9562075196850395
11
4.6314566929133854
21
-3.9524409448818898
0
LINE
8
BLACK
6
CONTINUOUS
10
4.6314566929133854
20
-3.9524409448818898
11
4.6314566929133854
21
-3.9327559055118111
0
LINE
8
BLACK
6
CONTINUOUS
10
4.6314566929133854
20
-3.9327559055118111
11
4.6322059055118112
21
-3.9289893307086614
0
LINE
8
BLACK
6
CONTINUOUS
10
4.6322059055118112
20
-3.9289893307086614
11
4.6343394881889761
21
-3.9257961811023621
0
LINE
8
BLACK
6
CONTINUOUS
10
4.6343394881889761
20
-3.9257961811023621
11
4.6375326377952755
21
-3.9236625984251967
0
LINE
8
BLACK
6
CONTINUOUS
10
4.6375326377952755
20
-3.9236625984251967
11
4.6412992125984252
21
-3.9229133858267717
0
LINE
8
BLACK
6
CONTINUOUS
10
4.6412992125984252
20
-3.9229133858267717
11
4.6787007874015751
21
-3.9229133858267717
0
LINE
8
BLACK
6
CONTINUOUS
10
4.6787007874015751
20
-3.9229133858267717
11
4.6824673622047239
21
-3.9236625984251967
0
LINE
8
BLACK
6
CONTINUOUS
10
4.7824673622047245
20
-3.9236625984251967
11
4.7856605118110238
21
-3.9257961811023621
0
LINE
8
BLACK
6
CONTINUOUS
10
4.7856605118110238
20
-3.9257961811023621
11
4.7877940944881887
21
-3.9289893307086614
0
LINE
8
BLACK
6
CONTINUOUS
10
4.7877940944881887
20
-3.9289893307086614
11
4.7885433070866137
21
-3.9327559055118111
0
LINE
8
BLACK
6
CONTINUOUS
10
4.7885433070866137
20
-3.9327559055118111
11
4.7885433070866137
21
-3.9524409448818898
0
LINE
8
BLACK
6
CONTINUOUS
10
4.7885433070866137
20
-3.9524409448818898
11
4.7877940944881887
21
-3.9562075196850395
0
LINE
8
BLACK
6
CONTINUOUS
10
4.7877940944881887
20
-3.9562075196850395
11
4.7856605118110238
21
-3.9594006692913384
0
LINE
8
BLACK
6
CONTINUOUS
10
4.7856605118110238
20
-3.9594006692913384
11
4.7824673622047245
21
-3.9615342519685037
0
LINE
8
BLACK
6
CONTINUOUS
10
4.7824673622047245
20
-3.9615342519685037
11
4.7787007874015748
21
-3.9622834645669291
0
LINE
8
BLACK
6
CONTINUOUS
10
4.7787007874015748
20
-3.9622834645669291
11
4.7412992125984248
21
-3.9622834645669291
0
LINE
8
BLACK
6
CONTINUOUS
10
4.7412992125984248
20
-3.9622834645669291
11
4.7375326377952751
21
-3.9615342519685037
0
LINE
8
BLACK
6
CONTINUOUS
10
4.7375326377952751
20
-3.9615342519685037
11
4.7343394881889767
21
-3.9594006692913384
0
LINE
8
BLACK
6
CONTINUOUS
10
4.7343394881889767
20
-3.9594006692913384
11
4.7322059055118109
21
-3.9562075196850395
0
LINE
8
BLACK
6
CONTINUOUS
10
4.7322059055118109
20
-3.9562075196850395
11
4.7314566929133859
21
-3.9524409448818898
0
LINE
8
BLACK
6
CONTINUOUS
10
4.7314566929133859
20
-3.9524409448818898
11
4.7314566929133859
21
-3.9327559055118111
0
LINE
8
BLACK
6
CONTINUOUS
10
4.7314566929133859
20
-3.9327559055118111
11
4.7322059055118109
21
-3.9289893307086614
0
LINE
8
BLACK
6
CONTINUOUS
10
4.7322059055118109
20
-3.9289893307086614
11
4.7343394881889767
21
-3.9257961811023621
0
LINE
8
BLACK
6
CONTINUOUS
10
4.7343394881889767
20
-3.9257961811023621
11
4.7375326377952751
21
-3.9236625984251967
0
LINE
8
BLACK
6
CONTINUOUS
10
4.7375326377952751
20
-3.9236625984251967
11
4.7412992125984248
21
-3.9229133858267717
0
LINE
8
BLACK
6
CONTINUOUS
10
4.7412992125984248
20
-3.9229133858267717
11
4.7787007874015748
21
-3.9229133858267717
0
LINE
8
BLACK
6
CONTINUOUS
10
4.7787007874015748
20
-3.9229133858267717
11
4.7824673622047245
21
-3.9236625984251967
0
LINE
8
BLACK
6
CONTINUOUS
10
5.0424673622047242
20
-3.9236625984251967
11
5.0456605118110236
21
-3.9257961811023621
0
LINE
8
BLACK
6
CONTINUOUS
10
5.0456605118110236
20
-3.9257961811023621
11
5.0477940944881885
21
-3.9289893307086614
0
LINE
8
BLACK
6
CONTINUOUS
10
5.0477940944881885
20
-3.9289893307086614
11
5.0485433070866144
21
-3.9327559055118111
0
LINE
8
BLACK
6
CONTINUOUS
10
5.0485433070866144
20
-3.9327559055118111
11
5.0485433070866144
21
-3.9524409448818898
0
LINE
8
BLACK
6
CONTINUOUS
10
5.0485433070866144
20
-3.9524409448818898
11
5.0477940944881885
21
-3.9562075196850395
0
LINE
8
BLACK
6
CONTINUOUS
10
5.0477940944881885
20
-3.9562075196850395
11
5.0456605118110236
21
-3.9594006692913384
0
LINE
8
BLACK
6
CONTINUOUS
10
5.0456605118110236
20
-3.9594006692913384
11
5.0424673622047242
21
-3.9615342519685037
0
LINE
8
BLACK
6
CONTINUOUS
10
5.0424673622047242
20
-3.9615342519685037
11
5.0387007874015746
21
-3.9622834645669291
0
LINE
8
BLACK
6
CONTINUOUS
10
5.0387007874015746
20
-3.9622834645669291
11
5.0012992125984255
21
-3.9622834645669291
0
LINE
8
BLACK
6
CONTINUOUS
10
5.0012992125984255
20
-3.9622834645669291
11
4.9975326377952758
21
-3.9615342519685037
0
LINE
8
BLACK
6
CONTINUOUS
10
4.9975326377952758
20
-3.9615342519685037
11
4.9943394881889764
21
-3.9594006692913384
0
LINE
8
BLACK
6
CONTINUOUS
10
4.9943394881889764
20
-3.9594006692913384
11
4.9922059055118106
21
-3.9562075196850395
0
LINE
8
BLACK
6
CONTINUOUS
10
4.9922059055118106
20
-3.9562075196850395
11
4.9914566929133857
21
-3.9524409448818898
0
LINE
8
BLACK
6
CONTINUOUS
10
4.9914566929133857
20
-3.9524409448818898
11
4.9914566929133857
21
-3.9327559055118111
0
LINE
8
BLACK
6
CONTINUOUS
10
4.9914566929133857
20
-3.9327559055118111
11
4.9922059055118106
21
-3.9289893307086614
0
LINE
8
BLACK
6
CONTINUOUS
10
4.9922059055118106
20
-3.9289893307086614
11
4.9943394881889764
21
-3.9257961811023621
0
LINE
8
BLACK
6
CONTINUOUS
10
4.9943394881889764
20
-3.9257961811023621
11
4.9975326377952758
21
-3.9236625984251967
0
LINE
8
BLACK
6
CONTINUOUS
10
4.9975326377952758
20
-3.9236625984251967
11
5.0012992125984255
21
-3.9229133858267717
0
LINE
8
BLACK
6
CONTINUOUS
10
5.0012992125984255
20
-3.9229133858267717
11
5.0387007874015746
21
-3.9229133858267717
0
LINE
8
BLACK
6
CONTINUOUS
10
5.0387007874015746
20
-3.9229133858267717
11
5.0424673622047242
21
-3.9236625984251967
0
LINE
8
BLACK
6
CONTINUOUS
10
5.2924673622047242
20
-3.9236625984251967
11
5.2956605118110236
21
-3.9257961811023621
0
LINE
8
BLACK
6
CONTINUOUS
10
5.2956605118110236
20
-3.9257961811023621
11
5.2977940944881885
21
-3.9289893307086614
0
LINE
8
BLACK
6
CONTINUOUS
10
5.2977940944881885
20
-3.9289893307086614
11
5.2985433070866144
21
-3.9327559055118111
0
LINE
8
BLACK
6
CONTINUOUS
10
5.2985433070866144
20
-3.9327559055118111
11
5.2985433070866144
21
-3.9524409448818898
0
LINE
8
BLACK
6
CONTINUOUS
10
5.2985433070866144
20
-3.9524409448818898
11
5.2977940944881885
21
-3.9562075196850395
0
LINE
8
BLACK
6
CONTINUOUS
10
5.2977940944881885
20
-3.9562075196850395
11
5.2956605118110236
21
-3.9594006692913384
0
LINE
8
BLACK
6
CONTINUOUS
10
5.2956605118110236
20
-3.9594006692913384
11
5.2924673622047242
21
-3.9615342519685037
0
LINE
8
BLACK
6
CONTINUOUS
10
5.2924673622047242
20
-3.9615342519685037
11
5.2887007874015746
21
-3.9622834645669291
0
LINE
8
BLACK
6
CONTINUOUS
10
5.2887007874015746
20
-3.9622834645669291
11
5.2512992125984255
21
-3.9622834645669291
0
LINE
8
BLACK
6
CONTINUOUS
10
5.2512992125984255
20
-3.9622834645669291
11
5.2475326377952758
21
-3.9615342519685037
0
LINE
8
BLACK
6
CONTINUOUS
10
5.2475326377952758
20
-3.9615342519685037
11
5.2443394881889764
21
-3.9594006692913384
0
LINE
8
BLACK
6
CONTINUOUS
10
5.2443394881889764
20
-3.9594006692913384
11
5.2422059055118106
21
-3.9562075196850395
0
LINE
8
BLACK
6
CONTINUOUS
10
5.2422059055118106
20
-3.9562075196850395
11
5.2414566929133857
21
-3.9524409448818898
0
LINE
8
BLACK
6
CONTINUOUS
10
5.2414566929133857
20
-3.9524409448818898
11
5.2414566929133857
21
-3.9327559055118111
0
LINE
8
BLACK
6
CONTINUOUS
10
5.2414566929133857
20
-3.9327559055118111
11
5.2422059055118106
21
-3.9289893307086614
0
LINE
8
BLACK
6
CONTINUOUS
10
5.2422059055118106
20
-3.9289893307086614
11
5.2443394881889764
21
-3.9257961811023621
0
LINE
8
BLACK
6
CONTINUOUS
10
5.2443394881889764
20
-3.9257961811023621
11
5.2475326377952758
21
-3.9236625984251967
0
LINE
8
BLACK
6
CONTINUOUS
10
5.2475326377952758
20
-3.9236625984251967
11
5.2512992125984255
21
-3.9229133858267717
0
LINE
8
BLACK
6
CONTINUOUS
10
5.2512992125984255
20
-3.9229133858267717
11
5.2887007874015746
21
-3.9229133858267717
0
LINE
8
BLACK
6
CONTINUOUS
10
5.2887007874015746
20
-3.9229133858267717
11
5.2924673622047242
21
-3.9236625984251967
0
LINE
8
BLACK
6
CONTINUOUS
10
5.552467362204724
20
-3.9236625984251967
11
5.5556605118110234
21
-3.9257961811023621
0
LINE
8
BLACK
6
CONTINUOUS
10
5.5556605118110234
20
-3.9257961811023621
11
5.5577940944881892
21
-3.9289893307086614
0
LINE
8
BLACK
6
CONTINUOUS
10
5.5577940944881892
20
-3.9289893307086614
11
5.5585433070866141
21
-3.9327559055118111
0
LINE
8
BLACK
6
CONTINUOUS
10
5.5585433070866141
20
-3.9327559055118111
11
5.5585433070866141
21
-3.9524409448818898
0
LINE
8
BLACK
6
CONTINUOUS
10
5.5585433070866141
20
-3.9524409448818898
11
5.5577940944881892
21
-3.9562075196850395
0
LINE
8
BLACK
6
CONTINUOUS
10
5.5577940944881892
20
-3.9562075196850395
11
5.5556605118110234
21
-3.9594006692913384
0
LINE
8
BLACK
6
CONTINUOUS
10
5.5556605118110234
20
-3.9594006692913384
11
5.552467362204724
21
-3.9615342519685037
0
LINE
8
BLACK
6
CONTINUOUS
10
5.552467362204724
20
-3.9615342519685037
11
5.5487007874015744
21
-3.9622834645669291
0
LINE
8
BLACK
6
CONTINUOUS
10
5.5487007874015744
20
-3.9622834645669291
11
5.5112992125984253
21
-3.9622834645669291
0
LINE
8
BLACK
6
CONTINUOUS
10
5.5112992125984253
20
-3.9622834645669291
11
5.5075326377952756
21
-3.9615342519685037
0
LINE
8
BLACK
6
CONTINUOUS
10
5.5075326377952756
20
-3.9615342519685037
11
5.5043394881889762
21
-3.9594006692913384
0
LINE
8
BLACK
6
CONTINUOUS
10
5.5043394881889762
20
-3.9594006692913384
11
5.5022059055118113
21
-3.9562075196850395
0
LINE
8
BLACK
6
CONTINUOUS
10
5.5022059055118113
20
-3.9562075196850395
11
5.5014566929133855
21
-3.9524409448818898
0
LINE
8
BLACK
6
CONTINUOUS
10
5.5014566929133855
20
-3.9524409448818898
11
5.5014566929133855
21
-3.9327559055118111
0
LINE
8
BLACK
6
CONTINUOUS
10
5.5014566929133855
20
-3.9327559055118111
11
5.5022059055118113
21
-3.9289893307086614
0
LINE
8
BLACK
6
CONTINUOUS
10
5.5022059055118113
20
-3.9289893307086614
11
5.5043394881889762
21
-3.9257961811023621
0
LINE
8
BLACK
6
CONTINUOUS
10
5.5043394881889762
20
-3.9257961811023621
11
5.5075326377952756
21
-3.9236625984251967
0
LINE
8
BLACK
6
CONTINUOUS
10
5.5075326377952756
20
-3.9236625984251967
11
5.5112992125984253
21
-3.9229133858267717
0
LINE
8
BLACK
6
CONTINUOUS
10
5.5112992125984253
20
-3.9229133858267717
11
5.5487007874015744
21
-3.9229133858267717
0
LINE
8
BLACK
6
CONTINUOUS
10
5.5487007874015744
20
-3.9229133858267717
11
5.552467362204724
21
-3.9236625984251967
0
LINE
8
BLACK
6
CONTINUOUS
10
5.6624673622047244
20
-3.9236625984251967
11
5.6656605118110237
21
-3.9257961811023621
0
LINE
8
BLACK
6
CONTINUOUS
10
5.6656605118110237
20
-3.9257961811023621
11
5.6677940944881886
21
-3.9289893307086614
0
LINE
8
BLACK
6
CONTINUOUS
10
5.6677940944881886
20
-3.9289893307086614
11
5.6685433070866145
21
-3.9327559055118111
0
LINE
8
BLACK
6
CONTINUOUS
10
5.6685433070866145
20
-3.9327559055118111
11
5.6685433070866145
21
-3.9524409448818898
0
LINE
8
BLACK
6
CONTINUOUS
10
5.6685433070866145
20
-3.9524409448818898
11
5.6677940944881886
21
-3.9562075196850395
0
LINE
8
BLACK
6
CONTINUOUS
10
5.6677940944881886
20
-3.9562075196850395
11
5.6656605118110237
21
-3.9594006692913384
0
LINE
8
BLACK
6
CONTINUOUS
10
5.6656605118110237
20
-3.9594006692913384
11
5.6624673622047244
21
-3.9615342519685037
0
LINE
8
BLACK
6
CONTINUOUS
10
5.6624673622047244
20
-3.9615342519685037
11
5.6587007874015747
21
-3.9622834645669291
0
LINE
8
BLACK
6
CONTINUOUS
10
5.6587007874015747
20
-3.9622834645669291
11
5.6212992125984247
21
-3.9622834645669291
0
LINE
8
BLACK
6
CONTINUOUS
10
5.6212992125984247
20
-3.9622834645669291
11
5.6175326377952759
21
-3.9615342519685037
0
LINE
8
BLACK
6
CONTINUOUS
10
5.6175326377952759
20
-3.9615342519685037
11
5.6143394881889765
21
-3.9594006692913384
0
LINE
8
BLACK
6
CONTINUOUS
10
5.6143394881889765
20
-3.9594006692913384
11
5.6122059055118108
21
-3.9562075196850395
0
LINE
8
BLACK
6
CONTINUOUS
10
5.6122059055118108
20
-3.9562075196850395
11
5.6114566929133858
21
-3.9524409448818898
0
LINE
8
BLACK
6
CONTINUOUS
10
5.6114566929133858
20
-3.9524409448818898
11
5.6114566929133858
21
-3.9327559055118111
0
LINE
8
BLACK
6
CONTINUOUS
10
5.6114566929133858
20
-3.9327559055118111
11
5.6122059055118108
21
-3.9289893307086614
0
LINE
8
BLACK
6
CONTINUOUS
10
5.6122059055118108
20
-3.9289893307086614
11
5.6143394881889765
21
-3.9257961811023621
0
LINE
8
BLACK
6
CONTINUOUS
10
5.6143394881889765
20
-3.9257961811023621
11
5.6175326377952759
21
-3.9236625984251967
0
LINE
8
BLACK
6
CONTINUOUS
10
5.6175326377952759
20
-3.9236625984251967
11
5.6212992125984247
21
-3.9229133858267717
0
LINE
8
BLACK
6
CONTINUOUS
10
5.6212992125984247
20
-3.9229133858267717
11
5.6587007874015747
21
-3.9229133858267717
0
LINE
8
BLACK
6
CONTINUOUS
10
5.6587007874015747
20
-3.9229133858267717
11
5.6624673622047244
21
-3.9236625984251967
0
LINE
8
BLACK
6
CONTINUOUS
10
5.9024673622047246
20
-3.9236625984251967
11
5.9056605118110239
21
-3.9257961811023621
0
LINE
8
BLACK
6
CONTINUOUS
10
5.9056605118110239
20
-3.9257961811023621
11
5.9077940944881888
21
-3.9289893307086614
0
LINE
8
BLACK
6
CONTINUOUS
10
5.9077940944881888
20
-3.9289893307086614
11
5.9085433070866138
21
-3.9327559055118111
0
LINE
8
BLACK
6
CONTINUOUS
10
5.9085433070866138
20
-3.9327559055118111
11
5.9085433070866138
21
-3.9524409448818898
0
LINE
8
BLACK
6
CONTINUOUS
10
5.9085433070866138
20
-3.9524409448818898
11
5.9077940944881888
21
-3.9562075196850395
0
LINE
8
BLACK
6
CONTINUOUS
10
5.9077940944881888
20
-3.9562075196850395
11
5.9056605118110239
21
-3.9594006692913384
0
LINE
8
BLACK
6
CONTINUOUS
10
5.9056605118110239
20
-3.9594006692913384
11
5.9024673622047246
21
-3.9615342519685037
0
LINE
8
BLACK
6
CONTINUOUS
10
5.9024673622047246
20
-3.9615342519685037
11
5.8987007874015749
21
-3.9622834645669291
0
LINE
8
BLACK
6
CONTINUOUS
10
5.8987007874015749
20
-3.9622834645669291
11
5.8612992125984249
21
-3.9622834645669291
0
LINE
8
BLACK
6
CONTINUOUS
10
5.8612992125984249
20
-3.9622834645669291
11
5.8575326377952752
21
-3.9615342519685037
0
LINE
8
BLACK
6
CONTINUOUS
10
5.8575326377952752
20
-3.9615342519685037
11
5.8543394881889759
21
-3.9594006692913384
0
LINE
8
BLACK
6
CONTINUOUS
10
5.8543394881889759
20
-3.9594006692913384
11
5.852205905511811
21
-3.9562075196850395
0
LINE
8
BLACK
6
CONTINUOUS
10
5.852205905511811
20
-3.9562075196850395
11
5.851456692913386
21
-3.9524409448818898
0
LINE
8
BLACK
6
CONTINUOUS
10
5.851456692913386
20
-3.9524409448818898
11
5.851456692913386
21
-3.9327559055118111
0
LINE
8
BLACK
6
CONTINUOUS
10
5.851456692913386
20
-3.9327559055118111
11
5.852205905511811
21
-3.9289893307086614
0
LINE
8
BLACK
6
CONTINUOUS
10
5.852205905511811
20
-3.9289893307086614
11
5.8543394881889759
21
-3.9257961811023621
0
LINE
8
BLACK
6
CONTINUOUS
10
5.8543394881889759
20
-3.9257961811023621
11
5.8575326377952752
21
-3.9236625984251967
0
LINE
8
BLACK
6
CONTINUOUS
10
5.8575326377952752
20
-3.9236625984251967
11
5.8612992125984249
21
-3.9229133858267717
0
LINE
8
BLACK
6
CONTINUOUS
10
5.8612992125984249
20
-3.9229133858267717
11
5.8987007874015749
21
-3.9229133858267717
0
LINE
8
BLACK
6
CONTINUOUS
10
5.8987007874015749
20
-3.9229133858267717
11
5.9024673622047246
21
-3.9236625984251967
0
LINE
8
BLACK
6
CONTINUOUS
10
6.0024673622047242
20
-3.9236625984251967
11
6.0056605118110236
21
-3.9257961811023621
0
LINE
8
BLACK
6
CONTINUOUS
10
6.0056605118110236
20
-3.9257961811023621
11
6.0077940944881885
21
-3.9289893307086614
0
LINE
8
BLACK
6
CONTINUOUS
10
6.0077940944881885
20
-3.9289893307086614
11
6.0085433070866143
21
-3.9327559055118111
0
LINE
8
BLACK
6
CONTINUOUS
10
6.0085433070866143
20
-3.9327559055118111
11
6.0085433070866143
21
-3.9524409448818898
0
LINE
8
BLACK
6
CONTINUOUS
10
6.0085433070866143
20
-3.9524409448818898
11
6.0077940944881885
21
-3.9562075196850395
0
LINE
8
BLACK
6
CONTINUOUS
10
6.0077940944881885
20
-3.9562075196850395
11
6.0056605118110236
21
-3.9594006692913384
0
LINE
8
BLACK
6
CONTINUOUS
10
6.0056605118110236
20
-3.9594006692913384
11
6.0024673622047242
21
-3.9615342519685037
0
LINE
8
BLACK
6
CONTINUOUS
10
6.0024673622047242
20
-3.9615342519685037
11
5.9987007874015745
21
-3.9622834645669291
0
LINE
8
BLACK
6
CONTINUOUS
10
5.9987007874015745
20
-3.9622834645669291
11
5.9612992125984254
21
-3.9622834645669291
0
LINE
8
BLACK
6
CONTINUOUS
10
5.9612992125984254
20
-3.9622834645669291
11
5.9575326377952758
21
-3.9615342519685037
0
LINE
8
BLACK
6
CONTINUOUS
10
5.9575326377952758
20
-3.9615342519685037
11
5.9543394881889764
21
-3.9594006692913384
0
LINE
8
BLACK
6
CONTINUOUS
10
5.9543394881889764
20
-3.9594006692913384
11
5.9522059055118106
21
-3.9562075196850395
0
LINE
8
BLACK
6
CONTINUOUS
10
5.9522059055118106
20
-3.9562075196850395
11
5.9514566929133856
21
-3.9524409448818898
0
LINE
8
BLACK
6
CONTINUOUS
10
5.9514566929133856
20
-3.9524409448818898
11
5.9514566929133856
21
-3.9327559055118111
0
LINE
8
BLACK
6
CONTINUOUS
10
5.9514566929133856
20
-3.9327559055118111
11
5.9522059055118106
21
-3.9289893307086614
0
LINE
8
BLACK
6
CONTINUOUS
10
5.9522059055118106
20
-3.9289893307086614
11
5.9543394881889764
21
-3.9257961811023621
0
LINE
8
BLACK
6
CONTINUOUS
10
5.9543394881889764
20
-3.9257961811023621
11
5.9575326377952758
21
-3.9236625984251967
0
LINE
8
BLACK
6
CONTINUOUS
10
5.9575326377952758
20
-3.9236625984251967
11
5.9612992125984254
21
-3.9229133858267717
0
LINE
8
BLACK
6
CONTINUOUS
10
5.9612992125984254
20
-3.9229133858267717
11
5.9987007874015745
21
-3.9229133858267717
0
LINE
8
BLACK
6
CONTINUOUS
10
5.9987007874015745
20
-3.9229133858267717
11
6.0024673622047242
21
-3.9236625984251967
0
LINE
8
BLACK
6
CONTINUOUS
10
6.3975590551181103
20
-3.9553937007874014
11
6.3361417322834646
21
-3.9553937007874014
0
LINE
8
BLACK
6
CONTINUOUS
10
6.3361417322834646
20
-3.9553937007874014
11
6.3361417322834646
21
-3.9298031496062991
0
LINE
8
BLACK
6
CONTINUOUS
10
6.3361417322834646
20
-3.9298031496062991
11
6.3975590551181103
21
-3.9298031496062991
0
LINE
8
BLACK
6
CONTINUOUS
10
6.3975590551181103
20
-3.9298031496062991
11
6.3975590551181103
21
-3.9553937007874014
0
LINE
8
BLACK
6
CONTINUOUS
10
6.5038582677165353
20
-3.9553937007874014
11
6.4424409448818896
21
-3.9553937007874014
0
LINE
8
BLACK
6
CONTINUOUS
10
6.4424409448818896
20
-3.9553937007874014
11
6.4424409448818896
21
-3.9298031496062991
0
LINE
8
BLACK
6
CONTINUOUS
10
6.4424409448818896
20
-3.9298031496062991
11
6.5038582677165353
21
-3.9298031496062991
0
LINE
8
BLACK
6
CONTINUOUS
10
6.5038582677165353
20
-3.9298031496062991
11
6.5038582677165353
21
-3.9553937007874014
  0
ENDSEC
  0
EOF
