  0
SECTION
  2
HEADER
  9
$ANGBASE
  50
0.0
  9
$ANGDIR
  70
1
  9
$MEASUREMENT
  70
0
  0
ENDSEC
  0
SECTION
  2
TABLES
  0
TABLE
  2
LTYPE
  70
4
  0
LTYPE
  5
40F
  2
CONTINUOUS
  70
0
  3
Solid line
  72
65
  73
0
  40
0.0
  0
LTYPE
  5
410
  2
DASHDOT
 70
0
  3
Dash Dot ____ _ ____ _
 72
65
 73
4
 40
2.0
 49
1.25
 49
-0.25
 49
0.25
 49
-0.25
  0
LTYPE
  5
411
  2
DASHED
 70
0
  3
Dashed __ __ __ __ __
 72
65
 73
2
 40
0.75
 49
0.5
 49
-0.25
  0
LTYPE
  5
43B
  2
DOTTED
 70
0
  3
Dotted .  .  .  .
 72
65
 73
2
 40
0.2
 49
0.0
 49
-0.2
  0
ENDTAB
  0
TABLE
  2
STYLE
  70
4
  0
STYLE
  2
KICAD
  70
0
  40
0
  41
1
  42
1
  50
0
  71
0
  3
isocp.shx
  0
STYLE
  2
KICADB
  70
0
  40
0
  41
1
  42
1
  50
0
  71
0
  3
isocp.shx
  0
STYLE
  2
KICADI
  70
0
  40
0
  41
1
  42
1
  50
15
  71
0
  3
isocp.shx
  0
STYLE
  2
KICADBI
  70
0
  40
0
  41
1
  42
1
  50
15
  71
0
  3
isocp.shx
  0
ENDTAB
  0
TABLE
  2
LAYER
  70
1
  0
LAYER
  2
BLACK
  70
0
  62
7
  6
CONTINUOUS
  0
ENDTAB
  0
ENDSEC
  0
SECTION
  2
ENTITIES
0
LINE
8
BLACK
6
CONTINUOUS
10
4.8477782283464563
20
-4.2929489370078739
11
4.848310905511811
21
-4.2934816141732286
0
LINE
8
BLACK
6
CONTINUOUS
10
4.848310905511811
20
-4.2934816141732286
11
4.8483858267716533
21
-4.2938582677165353
0
LINE
8
BLACK
6
CONTINUOUS
10
4.8483858267716533
20
-4.2938582677165353
11
4.8483858267716533
21
-4.4261417322834644
0
LINE
8
BLACK
6
CONTINUOUS
10
4.8483858267716533
20
-4.4261417322834644
11
4.848310905511811
21
-4.4265183858267712
0
LINE
8
BLACK
6
CONTINUOUS
10
4.848310905511811
20
-4.4265183858267712
11
4.8477782283464563
21
-4.4270510629921258
0
LINE
8
BLACK
6
CONTINUOUS
10
4.8477782283464563
20
-4.4270510629921258
11
4.8474015748031496
21
-4.4271259842519681
0
LINE
8
BLACK
6
CONTINUOUS
10
4.8474015748031496
20
-4.4271259842519681
11
4.7725984251968505
21
-4.4271259842519681
0
LINE
8
BLACK
6
CONTINUOUS
10
4.7725984251968505
20
-4.4271259842519681
11
4.7722217716535429
21
-4.4270510629921258
0
LINE
8
BLACK
6
CONTINUOUS
10
4.7722217716535429
20
-4.4270510629921258
11
4.7716890944881891
21
-4.4265183858267712
0
LINE
8
BLACK
6
CONTINUOUS
10
4.7716890944881891
20
-4.4265183858267712
11
4.7716141732283459
21
-4.4261417322834644
0
LINE
8
BLACK
6
CONTINUOUS
10
4.7716141732283459
20
-4.4261417322834644
11
4.7716141732283459
21
-4.2938582677165353
0
LINE
8
BLACK
6
CONTINUOUS
10
4.7716141732283459
20
-4.2938582677165353
11
4.7716890944881891
21
-4.2934816141732286
0
LINE
8
BLACK
6
CONTINUOUS
10
4.7716890944881891
20
-4.2934816141732286
11
4.7722217716535429
21
-4.2929489370078739
0
LINE
8
BLACK
6
CONTINUOUS
10
4.7722217716535429
20
-4.2929489370078739
11
4.7725984251968505
21
-4.2928740157480316
0
LINE
8
BLACK
6
CONTINUOUS
10
4.7725984251968505
20
-4.2928740157480316
11
4.8474015748031496
21
-4.2928740157480316
0
LINE
8
BLACK
6
CONTINUOUS
10
4.8474015748031496
20
-4.2928740157480316
11
4.8477782283464563
21
-4.2929489370078739
0
LINE
8
BLACK
6
CONTINUOUS
10
4.7735826771653542
20
-4.2948425196850391
11
4.7735826771653542
21
-4.4251574803149607
0
LINE
8
BLACK
6
CONTINUOUS
10
4.7735826771653542
20
-4.4251574803149607
11
4.8464173228346459
21
-4.4251574803149607
0
LINE
8
BLACK
6
CONTINUOUS
10
4.8464173228346459
20
-4.4251574803149607
11
4.8464173228346459
21
-4.2948425196850391
0
LINE
8
BLACK
6
CONTINUOUS
10
4.8464173228346459
20
-4.2948425196850391
11
4.7735826771653542
21
-4.2948425196850391
0
LINE
8
BLACK
6
CONTINUOUS
10
5.0603471259842516
20
-4.2054981496062993
11
5.0608798031496063
21
-4.2060308267716531
0
LINE
8
BLACK
6
CONTINUOUS
10
5.0608798031496063
20
-4.2060308267716531
11
5.0609547244094486
21
-4.2064074803149607
0
LINE
8
BLACK
6
CONTINUOUS
10
5.0609547244094486
20
-4.2064074803149607
11
5.0609547244094486
21
-4.3402657480314959
0
LINE
8
BLACK
6
CONTINUOUS
10
5.0609547244094486
20
-4.3402657480314959
11
5.0608798031496063
21
-4.3406424015748026
0
LINE
8
BLACK
6
CONTINUOUS
10
5.0608798031496063
20
-4.3406424015748026
11
5.0603471259842516
21
-4.3411750787401573
0
LINE
8
BLACK
6
CONTINUOUS
10
5.0603471259842516
20
-4.3411750787401573
11
5.0599704724409449
21
-4.3412499999999996
0
LINE
8
BLACK
6
CONTINUOUS
10
5.0599704724409449
20
-4.3412499999999996
11
4.8985531496062995
21
-4.3412499999999996
0
LINE
8
BLACK
6
CONTINUOUS
10
4.8985531496062995
20
-4.3412499999999996
11
4.8981764960629919
21
-4.3411750787401573
0
LINE
8
BLACK
6
CONTINUOUS
10
4.8981764960629919
20
-4.3411750787401573
11
4.8976438188976381
21
-4.3406424015748026
0
LINE
8
BLACK
6
CONTINUOUS
10
4.8976438188976381
20
-4.3406424015748026
11
4.8975688976377949
21
-4.3402657480314959
0
LINE
8
BLACK
6
CONTINUOUS
10
4.8975688976377949
20
-4.3402657480314959
11
4.8975688976377949
21
-4.2064074803149607
0
LINE
8
BLACK
6
CONTINUOUS
10
4.8975688976377949
20
-4.2064074803149607
11
4.8976438188976381
21
-4.2060308267716531
0
LINE
8
BLACK
6
CONTINUOUS
10
4.8976438188976381
20
-4.2060308267716531
11
4.8981764960629919
21
-4.2054981496062993
0
LINE
8
BLACK
6
CONTINUOUS
10
4.8981764960629919
20
-4.2054981496062993
11
4.8985531496062995
21
-4.205423228346457
0
LINE
8
BLACK
6
CONTINUOUS
10
4.8985531496062995
20
-4.205423228346457
11
5.0599704724409449
21
-4.205423228346457
0
LINE
8
BLACK
6
CONTINUOUS
10
5.0599704724409449
20
-4.205423228346457
11
5.0603471259842516
21
-4.2054981496062993
0
LINE
8
BLACK
6
CONTINUOUS
10
4.8995374015748032
20
-4.2073917322834644
11
4.8995374015748032
21
-4.3392814960629922
0
LINE
8
BLACK
6
CONTINUOUS
10
4.8995374015748032
20
-4.3392814960629922
11
5.0589862204724412
21
-4.3392814960629922
0
LINE
8
BLACK
6
CONTINUOUS
10
5.0589862204724412
20
-4.3392814960629922
11
5.0589862204724412
21
-4.2073917322834644
0
LINE
8
BLACK
6
CONTINUOUS
10
5.0589862204724412
20
-4.2073917322834644
11
4.8995374015748032
21
-4.2073917322834644
0
LINE
8
BLACK
6
CONTINUOUS
10
5.2789593307086609
20
-4.2021615354330706
11
5.2794920078740155
21
-4.2026942125984252
0
LINE
8
BLACK
6
CONTINUOUS
10
5.2794920078740155
20
-4.2026942125984252
11
5.2795669291338578
21
-4.203070866141732
0
LINE
8
BLACK
6
CONTINUOUS
10
5.2795669291338578
20
-4.203070866141732
11
5.2795669291338578
21
-4.3369291338582681
0
LINE
8
BLACK
6
CONTINUOUS
10
5.2795669291338578
20
-4.3369291338582681
11
5.2794920078740155
21
-4.3373057874015748
0
LINE
8
BLACK
6
CONTINUOUS
10
5.2794920078740155
20
-4.3373057874015748
11
5.2789593307086609
21
-4.3378384645669295
0
LINE
8
BLACK
6
CONTINUOUS
10
5.2789593307086609
20
-4.3378384645669295
11
5.2785826771653541
21
-4.3379133858267718
0
LINE
8
BLACK
6
CONTINUOUS
10
5.2785826771653541
20
-4.3379133858267718
11
5.2014173228346454
21
-4.3379133858267718
0
LINE
8
BLACK
6
CONTINUOUS
10
5.2014173228346454
20
-4.3379133858267718
11
5.2010406692913387
21
-4.3378384645669295
0
LINE
8
BLACK
6
CONTINUOUS
10
5.2010406692913387
20
-4.3378384645669295
11
5.200507992125984
21
-4.3373057874015748
0
LINE
8
BLACK
6
CONTINUOUS
10
5.200507992125984
20
-4.3373057874015748
11
5.2004330708661417
21
-4.3369291338582681
0
LINE
8
BLACK
6
CONTINUOUS
10
5.2004330708661417
20
-4.3369291338582681
11
5.2004330708661417
21
-4.203070866141732
0
LINE
8
BLACK
6
CONTINUOUS
10
5.2004330708661417
20
-4.203070866141732
11
5.200507992125984
21
-4.2026942125984252
0
LINE
8
BLACK
6
CONTINUOUS
10
5.200507992125984
20
-4.2026942125984252
11
5.2010406692913387
21
-4.2021615354330706
0
LINE
8
BLACK
6
CONTINUOUS
10
5.2010406692913387
20
-4.2021615354330706
11
5.2014173228346454
21
-4.2020866141732283
0
LINE
8
BLACK
6
CONTINUOUS
10
5.2014173228346454
20
-4.2020866141732283
11
5.2785826771653541
21
-4.2020866141732283
0
LINE
8
BLACK
6
CONTINUOUS
10
5.2785826771653541
20
-4.2020866141732283
11
5.2789593307086609
21
-4.2021615354330706
0
LINE
8
BLACK
6
CONTINUOUS
10
5.2024015748031491
20
-4.2040551181102357
11
5.2024015748031491
21
-4.3359448818897635
0
LINE
8
BLACK
6
CONTINUOUS
10
5.2024015748031491
20
-4.3359448818897635
11
5.2775984251968504
21
-4.3359448818897635
0
LINE
8
BLACK
6
CONTINUOUS
10
5.2775984251968504
20
-4.3359448818897635
11
5.2775984251968504
21
-4.2040551181102357
0
LINE
8
BLACK
6
CONTINUOUS
10
5.2775984251968504
20
-4.2040551181102357
11
5.2024015748031491
21
-4.2040551181102357
0
LINE
8
BLACK
6
CONTINUOUS
10
5.1777782283464564
20
-4.2029489370078741
11
5.1783109055118111
21
-4.2034816141732279
0
LINE
8
BLACK
6
CONTINUOUS
10
5.1783109055118111
20
-4.2034816141732279
11
5.1783858267716534
21
-4.2038582677165355
0
LINE
8
BLACK
6
CONTINUOUS
10
5.1783858267716534
20
-4.2038582677165355
11
5.1783858267716534
21
-4.3361417322834646
0
LINE
8
BLACK
6
CONTINUOUS
10
5.1783858267716534
20
-4.3361417322834646
11
5.1783109055118111
21
-4.3365183858267713
0
LINE
8
BLACK
6
CONTINUOUS
10
5.1783109055118111
20
-4.3365183858267713
11
5.1777782283464564
21
-4.3370510629921259
0
LINE
8
BLACK
6
CONTINUOUS
10
5.1777782283464564
20
-4.3370510629921259
11
5.1774015748031497
21
-4.3371259842519683
0
LINE
8
BLACK
6
CONTINUOUS
10
5.1774015748031497
20
-4.3371259842519683
11
5.1025984251968506
21
-4.3371259842519683
0
LINE
8
BLACK
6
CONTINUOUS
10
5.1025984251968506
20
-4.3371259842519683
11
5.102221771653543
21
-4.3370510629921259
0
LINE
8
BLACK
6
CONTINUOUS
10
5.102221771653543
20
-4.3370510629921259
11
5.1016890944881892
21
-4.3365183858267713
0
LINE
8
BLACK
6
CONTINUOUS
10
5.1016890944881892
20
-4.3365183858267713
11
5.101614173228346
21
-4.3361417322834646
0
LINE
8
BLACK
6
CONTINUOUS
10
5.101614173228346
20
-4.3361417322834646
11
5.101614173228346
21
-4.2038582677165355
0
LINE
8
BLACK
6
CONTINUOUS
10
5.101614173228346
20
-4.2038582677165355
11
5.1016890944881892
21
-4.2034816141732279
0
LINE
8
BLACK
6
CONTINUOUS
10
5.1016890944881892
20
-4.2034816141732279
11
5.102221771653543
21
-4.2029489370078741
0
LINE
8
BLACK
6
CONTINUOUS
10
5.102221771653543
20
-4.2029489370078741
11
5.1025984251968506
21
-4.2028740157480318
0
LINE
8
BLACK
6
CONTINUOUS
10
5.1025984251968506
20
-4.2028740157480318
11
5.1774015748031497
21
-4.2028740157480318
0
LINE
8
BLACK
6
CONTINUOUS
10
5.1774015748031497
20
-4.2028740157480318
11
5.1777782283464564
21
-4.2029489370078741
0
LINE
8
BLACK
6
CONTINUOUS
10
5.1035826771653543
20
-4.2048425196850392
11
5.1035826771653543
21
-4.3351574803149608
0
LINE
8
BLACK
6
CONTINUOUS
10
5.1035826771653543
20
-4.3351574803149608
11
5.176417322834646
21
-4.3351574803149608
0
LINE
8
BLACK
6
CONTINUOUS
10
5.176417322834646
20
-4.3351574803149608
11
5.176417322834646
21
-4.2048425196850392
0
LINE
8
BLACK
6
CONTINUOUS
10
5.176417322834646
20
-4.2048425196850392
11
5.1035826771653543
21
-4.2048425196850392
0
LINE
8
BLACK
6
CONTINUOUS
10
4.7582211417322835
20
-4.1754981496062991
11
4.7587538188976373
21
-4.1760308267716537
0
LINE
8
BLACK
6
CONTINUOUS
10
4.7587538188976373
20
-4.1760308267716537
11
4.7588287401574805
21
-4.1764074803149605
0
LINE
8
BLACK
6
CONTINUOUS
10
4.7588287401574805
20
-4.1764074803149605
11
4.7588287401574805
21
-4.3102657480314956
0
LINE
8
BLACK
6
CONTINUOUS
10
4.7588287401574805
20
-4.3102657480314956
11
4.7587538188976373
21
-4.3106424015748033
0
LINE
8
BLACK
6
CONTINUOUS
10
4.7587538188976373
20
-4.3106424015748033
11
4.7582211417322835
21
-4.311175078740157
0
LINE
8
BLACK
6
CONTINUOUS
10
4.7582211417322835
20
-4.311175078740157
11
4.7578444881889759
21
-4.3112500000000002
0
LINE
8
BLACK
6
CONTINUOUS
10
4.7578444881889759
20
-4.3112500000000002
11
4.6806791338582672
21
-4.3112500000000002
0
LINE
8
BLACK
6
CONTINUOUS
10
4.6806791338582672
20
-4.3112500000000002
11
4.6803024803149604
21
-4.311175078740157
0
LINE
8
BLACK
6
CONTINUOUS
10
4.6803024803149604
20
-4.311175078740157
11
4.6797698031496058
21
-4.3106424015748033
0
LINE
8
BLACK
6
CONTINUOUS
10
4.6797698031496058
20
-4.3106424015748033
11
4.6796948818897635
21
-4.3102657480314956
0
LINE
8
BLACK
6
CONTINUOUS
10
4.6796948818897635
20
-4.3102657480314956
11
4.6796948818897635
21
-4.1764074803149605
0
LINE
8
BLACK
6
CONTINUOUS
10
4.6796948818897635
20
-4.1764074803149605
11
4.6797698031496058
21
-4.1760308267716537
0
LINE
8
BLACK
6
CONTINUOUS
10
4.6797698031496058
20
-4.1760308267716537
11
4.6803024803149604
21
-4.1754981496062991
0
LINE
8
BLACK
6
CONTINUOUS
10
4.6803024803149604
20
-4.1754981496062991
11
4.6806791338582672
21
-4.1754232283464567
0
LINE
8
BLACK
6
CONTINUOUS
10
4.6806791338582672
20
-4.1754232283464567
11
4.7578444881889759
21
-4.1754232283464567
0
LINE
8
BLACK
6
CONTINUOUS
10
4.7578444881889759
20
-4.1754232283464567
11
4.7582211417322835
21
-4.1754981496062991
0
LINE
8
BLACK
6
CONTINUOUS
10
4.6816633858267718
20
-4.1773917322834642
11
4.6816633858267718
21
-4.3092814960629919
0
LINE
8
BLACK
6
CONTINUOUS
10
4.6816633858267718
20
-4.3092814960629919
11
4.7568602362204722
21
-4.3092814960629919
0
LINE
8
BLACK
6
CONTINUOUS
10
4.7568602362204722
20
-4.3092814960629919
11
4.7568602362204722
21
-4.1773917322834642
0
LINE
8
BLACK
6
CONTINUOUS
10
4.7568602362204722
20
-4.1773917322834642
11
4.6816633858267718
21
-4.1773917322834642
0
LINE
8
BLACK
6
CONTINUOUS
10
4.6670400393700788
20
-4.1762855511811026
11
4.6675727165354326
21
-4.1768182283464563
0
LINE
8
BLACK
6
CONTINUOUS
10
4.6675727165354326
20
-4.1768182283464563
11
4.6676476377952758
21
-4.177194881889764
0
LINE
8
BLACK
6
CONTINUOUS
10
4.6676476377952758
20
-4.177194881889764
11
4.6676476377952758
21
-4.309478346456693
0
LINE
8
BLACK
6
CONTINUOUS
10
4.6676476377952758
20
-4.309478346456693
11
4.6675727165354326
21
-4.3098549999999998
0
LINE
8
BLACK
6
CONTINUOUS
10
4.6675727165354326
20
-4.3098549999999998
11
4.6670400393700788
21
-4.3103876771653544
0
LINE
8
BLACK
6
CONTINUOUS
10
4.6670400393700788
20
-4.3103876771653544
11
4.6666633858267712
21
-4.3104625984251967
0
LINE
8
BLACK
6
CONTINUOUS
10
4.6666633858267712
20
-4.3104625984251967
11
4.5918602362204721
21
-4.3104625984251967
0
LINE
8
BLACK
6
CONTINUOUS
10
4.5918602362204721
20
-4.3104625984251967
11
4.5914835826771654
21
-4.3103876771653544
0
LINE
8
BLACK
6
CONTINUOUS
10
4.5914835826771654
20
-4.3103876771653544
11
4.5909509055118107
21
-4.3098549999999998
0
LINE
8
BLACK
6
CONTINUOUS
10
4.5909509055118107
20
-4.3098549999999998
11
4.5908759842519684
21
-4.309478346456693
0
LINE
8
BLACK
6
CONTINUOUS
10
4.5908759842519684
20
-4.309478346456693
11
4.5908759842519684
21
-4.177194881889764
0
LINE
8
BLACK
6
CONTINUOUS
10
4.5908759842519684
20
-4.177194881889764
11
4.5909509055118107
21
-4.1768182283464563
0
LINE
8
BLACK
6
CONTINUOUS
10
4.5909509055118107
20
-4.1768182283464563
11
4.5914835826771654
21
-4.1762855511811026
0
LINE
8
BLACK
6
CONTINUOUS
10
4.5914835826771654
20
-4.1762855511811026
11
4.5918602362204721
21
-4.1762106299212594
0
LINE
8
BLACK
6
CONTINUOUS
10
4.5918602362204721
20
-4.1762106299212594
11
4.6666633858267712
21
-4.1762106299212594
0
LINE
8
BLACK
6
CONTINUOUS
10
4.6666633858267712
20
-4.1762106299212594
11
4.6670400393700788
21
-4.1762855511811026
0
LINE
8
BLACK
6
CONTINUOUS
10
4.5928444881889758
20
-4.1781791338582677
11
4.5928444881889758
21
-4.3084940944881893
0
LINE
8
BLACK
6
CONTINUOUS
10
4.5928444881889758
20
-4.3084940944881893
11
4.6656791338582675
21
-4.3084940944881893
0
LINE
8
BLACK
6
CONTINUOUS
10
4.6656791338582675
20
-4.3084940944881893
11
4.6656791338582675
21
-4.1781791338582677
0
LINE
8
BLACK
6
CONTINUOUS
10
4.6656791338582675
20
-4.1781791338582677
11
4.5928444881889758
21
-4.1781791338582677
0
LINE
8
BLACK
6
CONTINUOUS
10
5.9889593307086617
20
-4.1721615354330703
11
5.9894920078740155
21
-4.172694212598425
0
LINE
8
BLACK
6
CONTINUOUS
10
5.9894920078740155
20
-4.172694212598425
11
5.9895669291338578
21
-4.1730708661417326
0
LINE
8
BLACK
6
CONTINUOUS
10
5.9895669291338578
20
-4.1730708661417326
11
5.9895669291338578
21
-4.3069291338582678
0
LINE
8
BLACK
6
CONTINUOUS
10
5.9895669291338578
20
-4.3069291338582678
11
5.9894920078740155
21
-4.3073057874015745
0
LINE
8
BLACK
6
CONTINUOUS
10
5.9894920078740155
20
-4.3073057874015745
11
5.9889593307086617
21
-4.3078384645669292
0
LINE
8
BLACK
6
CONTINUOUS
10
5.9889593307086617
20
-4.3078384645669292
11
5.9885826771653541
21
-4.3079133858267715
0
LINE
8
BLACK
6
CONTINUOUS
10
5.9885826771653541
20
-4.3079133858267715
11
5.9114173228346454
21
-4.3079133858267715
0
LINE
8
BLACK
6
CONTINUOUS
10
5.9114173228346454
20
-4.3079133858267715
11
5.9110406692913386
21
-4.3078384645669292
0
LINE
8
BLACK
6
CONTINUOUS
10
5.9110406692913386
20
-4.3078384645669292
11
5.910507992125984
21
-4.3073057874015745
0
LINE
8
BLACK
6
CONTINUOUS
10
5.910507992125984
20
-4.3073057874015745
11
5.9104330708661417
21
-4.3069291338582678
0
LINE
8
BLACK
6
CONTINUOUS
10
5.9104330708661417
20
-4.3069291338582678
11
5.9104330708661417
21
-4.1730708661417326
0
LINE
8
BLACK
6
CONTINUOUS
10
5.9104330708661417
20
-4.1730708661417326
11
5.910507992125984
21
-4.172694212598425
0
LINE
8
BLACK
6
CONTINUOUS
10
5.910507992125984
20
-4.172694212598425
11
5.9110406692913386
21
-4.1721615354330703
0
LINE
8
BLACK
6
CONTINUOUS
10
5.9110406692913386
20
-4.1721615354330703
11
5.9114173228346454
21
-4.172086614173228
0
LINE
8
BLACK
6
CONTINUOUS
10
5.9114173228346454
20
-4.172086614173228
11
5.9885826771653541
21
-4.172086614173228
0
LINE
8
BLACK
6
CONTINUOUS
10
5.9885826771653541
20
-4.172086614173228
11
5.9889593307086617
21
-4.1721615354330703
0
LINE
8
BLACK
6
CONTINUOUS
10
5.9124015748031491
20
-4.1740551181102363
11
5.9124015748031491
21
-4.3059448818897641
0
LINE
8
BLACK
6
CONTINUOUS
10
5.9124015748031491
20
-4.3059448818897641
11
5.9875984251968504
21
-4.3059448818897641
0
LINE
8
BLACK
6
CONTINUOUS
10
5.9875984251968504
20
-4.3059448818897641
11
5.9875984251968504
21
-4.1740551181102363
0
LINE
8
BLACK
6
CONTINUOUS
10
5.9875984251968504
20
-4.1740551181102363
11
5.9124015748031491
21
-4.1740551181102363
0
LINE
8
BLACK
6
CONTINUOUS
10
6.1089593307086609
20
-4.1721615354330703
11
6.1094920078740156
21
-4.172694212598425
0
LINE
8
BLACK
6
CONTINUOUS
10
6.1094920078740156
20
-4.172694212598425
11
6.1095669291338579
21
-4.1730708661417326
0
LINE
8
BLACK
6
CONTINUOUS
10
6.1095669291338579
20
-4.1730708661417326
11
6.1095669291338579
21
-4.3069291338582678
0
LINE
8
BLACK
6
CONTINUOUS
10
6.1095669291338579
20
-4.3069291338582678
11
6.1094920078740156
21
-4.3073057874015745
0
LINE
8
BLACK
6
CONTINUOUS
10
6.1094920078740156
20
-4.3073057874015745
11
6.1089593307086609
21
-4.3078384645669292
0
LINE
8
BLACK
6
CONTINUOUS
10
6.1089593307086609
20
-4.3078384645669292
11
6.1085826771653542
21
-4.3079133858267715
0
LINE
8
BLACK
6
CONTINUOUS
10
6.1085826771653542
20
-4.3079133858267715
11
6.0314173228346455
21
-4.3079133858267715
0
LINE
8
BLACK
6
CONTINUOUS
10
6.0314173228346455
20
-4.3079133858267715
11
6.0310406692913388
21
-4.3078384645669292
0
LINE
8
BLACK
6
CONTINUOUS
10
6.0310406692913388
20
-4.3078384645669292
11
6.0305079921259841
21
-4.3073057874015745
0
LINE
8
BLACK
6
CONTINUOUS
10
6.0305079921259841
20
-4.3073057874015745
11
6.0304330708661418
21
-4.3069291338582678
0
LINE
8
BLACK
6
CONTINUOUS
10
6.0304330708661418
20
-4.3069291338582678
11
6.0304330708661418
21
-4.1730708661417326
0
LINE
8
BLACK
6
CONTINUOUS
10
6.0304330708661418
20
-4.1730708661417326
11
6.0305079921259841
21
-4.172694212598425
0
LINE
8
BLACK
6
CONTINUOUS
10
6.0305079921259841
20
-4.172694212598425
11
6.0310406692913388
21
-4.1721615354330703
0
LINE
8
BLACK
6
CONTINUOUS
10
6.0310406692913388
20
-4.1721615354330703
11
6.0314173228346455
21
-4.172086614173228
0
LINE
8
BLACK
6
CONTINUOUS
10
6.0314173228346455
20
-4.172086614173228
11
6.1085826771653542
21
-4.172086614173228
0
LINE
8
BLACK
6
CONTINUOUS
10
6.1085826771653542
20
-4.172086614173228
11
6.1089593307086609
21
-4.1721615354330703
0
LINE
8
BLACK
6
CONTINUOUS
10
6.0324015748031492
20
-4.1740551181102363
11
6.0324015748031492
21
-4.3059448818897641
0
LINE
8
BLACK
6
CONTINUOUS
10
6.0324015748031492
20
-4.3059448818897641
11
6.1075984251968505
21
-4.3059448818897641
0
LINE
8
BLACK
6
CONTINUOUS
10
6.1075984251968505
20
-4.3059448818897641
11
6.1075984251968505
21
-4.1740551181102363
0
LINE
8
BLACK
6
CONTINUOUS
10
6.1075984251968505
20
-4.1740551181102363
11
6.0324015748031492
21
-4.1740551181102363
0
LINE
8
BLACK
6
CONTINUOUS
10
6.228959330708661
20
-4.1721615354330703
11
6.2294920078740157
21
-4.172694212598425
0
LINE
8
BLACK
6
CONTINUOUS
10
6.2294920078740157
20
-4.172694212598425
11
6.229566929133858
21
-4.1730708661417326
0
LINE
8
BLACK
6
CONTINUOUS
10
6.229566929133858
20
-4.1730708661417326
11
6.229566929133858
21
-4.3069291338582678
0
LINE
8
BLACK
6
CONTINUOUS
10
6.229566929133858
20
-4.3069291338582678
11
6.2294920078740157
21
-4.3073057874015745
0
LINE
8
BLACK
6
CONTINUOUS
10
6.2294920078740157
20
-4.3073057874015745
11
6.228959330708661
21
-4.3078384645669292
0
LINE
8
BLACK
6
CONTINUOUS
10
6.228959330708661
20
-4.3078384645669292
11
6.2285826771653543
21
-4.3079133858267715
0
LINE
8
BLACK
6
CONTINUOUS
10
6.2285826771653543
20
-4.3079133858267715
11
6.1514173228346456
21
-4.3079133858267715
0
LINE
8
BLACK
6
CONTINUOUS
10
6.1514173228346456
20
-4.3079133858267715
11
6.1510406692913389
21
-4.3078384645669292
0
LINE
8
BLACK
6
CONTINUOUS
10
6.1510406692913389
20
-4.3078384645669292
11
6.1505079921259842
21
-4.3073057874015745
0
LINE
8
BLACK
6
CONTINUOUS
10
6.1505079921259842
20
-4.3073057874015745
11
6.1504330708661419
21
-4.3069291338582678
0
LINE
8
BLACK
6
CONTINUOUS
10
6.1504330708661419
20
-4.3069291338582678
11
6.1504330708661419
21
-4.1730708661417326
0
LINE
8
BLACK
6
CONTINUOUS
10
6.1504330708661419
20
-4.1730708661417326
11
6.1505079921259842
21
-4.172694212598425
0
LINE
8
BLACK
6
CONTINUOUS
10
6.1505079921259842
20
-4.172694212598425
11
6.1510406692913389
21
-4.1721615354330703
0
LINE
8
BLACK
6
CONTINUOUS
10
6.1510406692913389
20
-4.1721615354330703
11
6.1514173228346456
21
-4.172086614173228
0
LINE
8
BLACK
6
CONTINUOUS
10
6.1514173228346456
20
-4.172086614173228
11
6.2285826771653543
21
-4.172086614173228
0
LINE
8
BLACK
6
CONTINUOUS
10
6.2285826771653543
20
-4.172086614173228
11
6.228959330708661
21
-4.1721615354330703
0
LINE
8
BLACK
6
CONTINUOUS
10
6.1524015748031493
20
-4.1740551181102363
11
6.1524015748031493
21
-4.3059448818897641
0
LINE
8
BLACK
6
CONTINUOUS
10
6.1524015748031493
20
-4.3059448818897641
11
6.2275984251968506
21
-4.3059448818897641
0
LINE
8
BLACK
6
CONTINUOUS
10
6.2275984251968506
20
-4.3059448818897641
11
6.2275984251968506
21
-4.1740551181102363
0
LINE
8
BLACK
6
CONTINUOUS
10
6.2275984251968506
20
-4.1740551181102363
11
6.1524015748031493
21
-4.1740551181102363
0
LINE
8
BLACK
6
CONTINUOUS
10
6.3489593307086611
20
-4.1721615354330703
11
6.3494920078740158
21
-4.172694212598425
0
LINE
8
BLACK
6
CONTINUOUS
10
6.3494920078740158
20
-4.172694212598425
11
6.3495669291338581
21
-4.1730708661417326
0
LINE
8
BLACK
6
CONTINUOUS
10
6.3495669291338581
20
-4.1730708661417326
11
6.3495669291338581
21
-4.3069291338582678
0
LINE
8
BLACK
6
CONTINUOUS
10
6.3495669291338581
20
-4.3069291338582678
11
6.3494920078740158
21
-4.3073057874015745
0
LINE
8
BLACK
6
CONTINUOUS
10
6.3494920078740158
20
-4.3073057874015745
11
6.3489593307086611
21
-4.3078384645669292
0
LINE
8
BLACK
6
CONTINUOUS
10
6.3489593307086611
20
-4.3078384645669292
11
6.3485826771653544
21
-4.3079133858267715
0
LINE
8
BLACK
6
CONTINUOUS
10
6.3485826771653544
20
-4.3079133858267715
11
6.2714173228346457
21
-4.3079133858267715
0
LINE
8
BLACK
6
CONTINUOUS
10
6.2714173228346457
20
-4.3079133858267715
11
6.2710406692913381
21
-4.3078384645669292
0
LINE
8
BLACK
6
CONTINUOUS
10
6.2710406692913381
20
-4.3078384645669292
11
6.2705079921259843
21
-4.3073057874015745
0
LINE
8
BLACK
6
CONTINUOUS
10
6.2705079921259843
20
-4.3073057874015745
11
6.270433070866142
21
-4.3069291338582678
0
LINE
8
BLACK
6
CONTINUOUS
10
6.270433070866142
20
-4.3069291338582678
11
6.270433070866142
21
-4.1730708661417326
0
LINE
8
BLACK
6
CONTINUOUS
10
6.270433070866142
20
-4.1730708661417326
11
6.2705079921259843
21
-4.172694212598425
0
LINE
8
BLACK
6
CONTINUOUS
10
6.2705079921259843
20
-4.172694212598425
11
6.2710406692913381
21
-4.1721615354330703
0
LINE
8
BLACK
6
CONTINUOUS
10
6.2710406692913381
20
-4.1721615354330703
11
6.2714173228346457
21
-4.172086614173228
0
LINE
8
BLACK
6
CONTINUOUS
10
6.2714173228346457
20
-4.172086614173228
11
6.3485826771653544
21
-4.172086614173228
0
LINE
8
BLACK
6
CONTINUOUS
10
6.3485826771653544
20
-4.172086614173228
11
6.3489593307086611
21
-4.1721615354330703
0
LINE
8
BLACK
6
CONTINUOUS
10
6.2724015748031494
20
-4.1740551181102363
11
6.2724015748031494
21
-4.3059448818897641
0
LINE
8
BLACK
6
CONTINUOUS
10
6.2724015748031494
20
-4.3059448818897641
11
6.3475984251968507
21
-4.3059448818897641
0
LINE
8
BLACK
6
CONTINUOUS
10
6.3475984251968507
20
-4.3059448818897641
11
6.3475984251968507
21
-4.1740551181102363
0
LINE
8
BLACK
6
CONTINUOUS
10
6.3475984251968507
20
-4.1740551181102363
11
6.2724015748031494
21
-4.1740551181102363
0
LINE
8
BLACK
6
CONTINUOUS
10
5.3889593307086612
20
-4.1521615354330708
11
5.3894920078740158
21
-4.1526942125984254
0
LINE
8
BLACK
6
CONTINUOUS
10
5.3894920078740158
20
-4.1526942125984254
11
5.3895669291338582
21
-4.1530708661417322
0
LINE
8
BLACK
6
CONTINUOUS
10
5.3895669291338582
20
-4.1530708661417322
11
5.3895669291338582
21
-4.2869291338582673
0
LINE
8
BLACK
6
CONTINUOUS
10
5.3895669291338582
20
-4.2869291338582673
11
5.3894920078740158
21
-4.287305787401575
0
LINE
8
BLACK
6
CONTINUOUS
10
5.3894920078740158
20
-4.287305787401575
11
5.3889593307086612
21
-4.2878384645669287
0
LINE
8
BLACK
6
CONTINUOUS
10
5.3889593307086612
20
-4.2878384645669287
11
5.3885826771653544
21
-4.287913385826772
0
LINE
8
BLACK
6
CONTINUOUS
10
5.3885826771653544
20
-4.287913385826772
11
5.3114173228346457
21
-4.287913385826772
0
LINE
8
BLACK
6
CONTINUOUS
10
5.3114173228346457
20
-4.287913385826772
11
5.3110406692913381
21
-4.2878384645669287
0
LINE
8
BLACK
6
CONTINUOUS
10
5.3110406692913381
20
-4.2878384645669287
11
5.3105079921259843
21
-4.287305787401575
0
LINE
8
BLACK
6
CONTINUOUS
10
5.3105079921259843
20
-4.287305787401575
11
5.310433070866142
21
-4.2869291338582673
0
LINE
8
BLACK
6
CONTINUOUS
10
5.310433070866142
20
-4.2869291338582673
11
5.310433070866142
21
-4.1530708661417322
0
LINE
8
BLACK
6
CONTINUOUS
10
5.310433070866142
20
-4.1530708661417322
11
5.3105079921259843
21
-4.1526942125984254
0
LINE
8
BLACK
6
CONTINUOUS
10
5.3105079921259843
20
-4.1526942125984254
11
5.3110406692913381
21
-4.1521615354330708
0
LINE
8
BLACK
6
CONTINUOUS
10
5.3110406692913381
20
-4.1521615354330708
11
5.3114173228346457
21
-4.1520866141732284
0
LINE
8
BLACK
6
CONTINUOUS
10
5.3114173228346457
20
-4.1520866141732284
11
5.3885826771653544
21
-4.1520866141732284
0
LINE
8
BLACK
6
CONTINUOUS
10
5.3885826771653544
20
-4.1520866141732284
11
5.3889593307086612
21
-4.1521615354330708
0
LINE
8
BLACK
6
CONTINUOUS
10
5.3124015748031495
20
-4.1540551181102359
11
5.3124015748031495
21
-4.2859448818897636
0
LINE
8
BLACK
6
CONTINUOUS
10
5.3124015748031495
20
-4.2859448818897636
11
5.3875984251968498
21
-4.2859448818897636
0
LINE
8
BLACK
6
CONTINUOUS
10
5.3875984251968498
20
-4.2859448818897636
11
5.3875984251968498
21
-4.1540551181102359
0
LINE
8
BLACK
6
CONTINUOUS
10
5.3875984251968498
20
-4.1540551181102359
11
5.3124015748031495
21
-4.1540551181102359
0
LINE
8
BLACK
6
CONTINUOUS
10
4.8677782283464568
20
-4.1488741338582678
11
4.8683109055118106
21
-4.1494068110236215
0
LINE
8
BLACK
6
CONTINUOUS
10
4.8683109055118106
20
-4.1494068110236215
11
4.8683858267716538
21
-4.1497834645669291
0
LINE
8
BLACK
6
CONTINUOUS
10
4.8683858267716538
20
-4.1497834645669291
11
4.8683858267716538
21
-4.2820669291338582
0
LINE
8
BLACK
6
CONTINUOUS
10
4.8683858267716538
20
-4.2820669291338582
11
4.8683109055118106
21
-4.282443582677165
0
LINE
8
BLACK
6
CONTINUOUS
10
4.8683109055118106
20
-4.282443582677165
11
4.8677782283464568
21
-4.2829762598425196
0
LINE
8
BLACK
6
CONTINUOUS
10
4.8677782283464568
20
-4.2829762598425196
11
4.8674015748031492
21
-4.2830511811023619
0
LINE
8
BLACK
6
CONTINUOUS
10
4.8674015748031492
20
-4.2830511811023619
11
4.7925984251968501
21
-4.2830511811023619
0
LINE
8
BLACK
6
CONTINUOUS
10
4.7925984251968501
20
-4.2830511811023619
11
4.7922217716535433
21
-4.2829762598425196
0
LINE
8
BLACK
6
CONTINUOUS
10
4.7922217716535433
20
-4.2829762598425196
11
4.7916890944881887
21
-4.282443582677165
0
LINE
8
BLACK
6
CONTINUOUS
10
4.7916890944881887
20
-4.282443582677165
11
4.7916141732283464
21
-4.2820669291338582
0
LINE
8
BLACK
6
CONTINUOUS
10
4.7916141732283464
20
-4.2820669291338582
11
4.7916141732283464
21
-4.1497834645669291
0
LINE
8
BLACK
6
CONTINUOUS
10
4.7916141732283464
20
-4.1497834645669291
11
4.7916890944881887
21
-4.1494068110236215
0
LINE
8
BLACK
6
CONTINUOUS
10
4.7916890944881887
20
-4.1494068110236215
11
4.7922217716535433
21
-4.1488741338582678
0
LINE
8
BLACK
6
CONTINUOUS
10
4.7922217716535433
20
-4.1488741338582678
11
4.7925984251968501
21
-4.1487992125984254
0
LINE
8
BLACK
6
CONTINUOUS
10
4.7925984251968501
20
-4.1487992125984254
11
4.8674015748031492
21
-4.1487992125984254
0
LINE
8
BLACK
6
CONTINUOUS
10
4.8674015748031492
20
-4.1487992125984254
11
4.8677782283464568
21
-4.1488741338582678
0
LINE
8
BLACK
6
CONTINUOUS
10
4.7935826771653538
20
-4.1507677165354329
11
4.7935826771653538
21
-4.2810826771653545
0
LINE
8
BLACK
6
CONTINUOUS
10
4.7935826771653538
20
-4.2810826771653545
11
4.8664173228346455
21
-4.2810826771653545
0
LINE
8
BLACK
6
CONTINUOUS
10
4.8664173228346455
20
-4.2810826771653545
11
4.8664173228346455
21
-4.1507677165354329
0
LINE
8
BLACK
6
CONTINUOUS
10
4.8664173228346455
20
-4.1507677165354329
11
4.7935826771653538
21
-4.1507677165354329
0
LINE
8
BLACK
6
CONTINUOUS
10
6.4679357086614173
20
-4.1798780708661418
11
6.4684683858267711
21
-4.1804107480314956
0
LINE
8
BLACK
6
CONTINUOUS
10
6.4684683858267711
20
-4.1804107480314956
11
6.4685433070866143
21
-4.1807874015748032
0
LINE
8
BLACK
6
CONTINUOUS
10
6.4685433070866143
20
-4.1807874015748032
11
6.4685433070866143
21
-4.2792125984251967
0
LINE
8
BLACK
6
CONTINUOUS
10
6.4685433070866143
20
-4.2792125984251967
11
6.4684683858267711
21
-4.2795892519685035
0
LINE
8
BLACK
6
CONTINUOUS
10
6.4684683858267711
20
-4.2795892519685035
11
6.4679357086614173
21
-4.2801219291338581
0
LINE
8
BLACK
6
CONTINUOUS
10
6.4679357086614173
20
-4.2801219291338581
11
6.4675590551181097
21
-4.2801968503937005
0
LINE
8
BLACK
6
CONTINUOUS
10
6.4675590551181097
20
-4.2801968503937005
11
6.4124409448818893
21
-4.2801968503937005
0
LINE
8
BLACK
6
CONTINUOUS
10
6.4124409448818893
20
-4.2801968503937005
11
6.4120642913385826
21
-4.2801219291338581
0
LINE
8
BLACK
6
CONTINUOUS
10
6.4120642913385826
20
-4.2801219291338581
11
6.4115316141732279
21
-4.2795892519685035
0
LINE
8
BLACK
6
CONTINUOUS
10
6.4115316141732279
20
-4.2795892519685035
11
6.4114566929133856
21
-4.2792125984251967
0
LINE
8
BLACK
6
CONTINUOUS
10
6.4114566929133856
20
-4.2792125984251967
11
6.4114566929133856
21
-4.1807874015748032
0
LINE
8
BLACK
6
CONTINUOUS
10
6.4114566929133856
20
-4.1807874015748032
11
6.4115316141732279
21
-4.1804107480314956
0
LINE
8
BLACK
6
CONTINUOUS
10
6.4115316141732279
20
-4.1804107480314956
11
6.4120642913385826
21
-4.1798780708661418
0
LINE
8
BLACK
6
CONTINUOUS
10
6.4120642913385826
20
-4.1798780708661418
11
6.4124409448818893
21
-4.1798031496062995
0
LINE
8
BLACK
6
CONTINUOUS
10
6.4124409448818893
20
-4.1798031496062995
11
6.4675590551181097
21
-4.1798031496062995
0
LINE
8
BLACK
6
CONTINUOUS
10
6.4675590551181097
20
-4.1798031496062995
11
6.4679357086614173
21
-4.1798780708661418
0
LINE
8
BLACK
6
CONTINUOUS
10
6.4134251968503939
20
-4.1817716535433069
11
6.4134251968503939
21
-4.278228346456693
0
LINE
8
BLACK
6
CONTINUOUS
10
6.4134251968503939
20
-4.278228346456693
11
6.466574803149606
21
-4.278228346456693
0
LINE
8
BLACK
6
CONTINUOUS
10
6.466574803149606
20
-4.278228346456693
11
6.466574803149606
21
-4.1817716535433069
0
LINE
8
BLACK
6
CONTINUOUS
10
6.466574803149606
20
-4.1817716535433069
11
6.4134251968503939
21
-4.1817716535433069
0
LINE
8
BLACK
6
CONTINUOUS
10
5.8665183858267715
20
-4.1716890944881886
11
5.8670510629921262
21
-4.1722217716535432
0
LINE
8
BLACK
6
CONTINUOUS
10
5.8670510629921262
20
-4.1722217716535432
11
5.8671259842519685
21
-4.17259842519685
0
LINE
8
BLACK
6
CONTINUOUS
10
5.8671259842519685
20
-4.17259842519685
11
5.8671259842519685
21
-4.2474015748031499
0
LINE
8
BLACK
6
CONTINUOUS
10
5.8671259842519685
20
-4.2474015748031499
11
5.8670510629921262
21
-4.2477782283464567
0
LINE
8
BLACK
6
CONTINUOUS
10
5.8670510629921262
20
-4.2477782283464567
11
5.8665183858267715
21
-4.2483109055118113
0
LINE
8
BLACK
6
CONTINUOUS
10
5.8665183858267715
20
-4.2483109055118113
11
5.8661417322834648
21
-4.2483858267716537
0
LINE
8
BLACK
6
CONTINUOUS
10
5.8661417322834648
20
-4.2483858267716537
11
5.7338582677165357
21
-4.2483858267716537
0
LINE
8
BLACK
6
CONTINUOUS
10
5.7338582677165357
20
-4.2483858267716537
11
5.7334816141732281
21
-4.2483109055118113
0
LINE
8
BLACK
6
CONTINUOUS
10
5.7334816141732281
20
-4.2483109055118113
11
5.7329489370078734
21
-4.2477782283464567
0
LINE
8
BLACK
6
CONTINUOUS
10
5.7329489370078734
20
-4.2477782283464567
11
5.7328740157480311
21
-4.2474015748031499
0
LINE
8
BLACK
6
CONTINUOUS
10
5.7328740157480311
20
-4.2474015748031499
11
5.7328740157480311
21
-4.17259842519685
0
LINE
8
BLACK
6
CONTINUOUS
10
5.7328740157480311
20
-4.17259842519685
11
5.7329489370078734
21
-4.1722217716535432
0
LINE
8
BLACK
6
CONTINUOUS
10
5.7329489370078734
20
-4.1722217716535432
11
5.7334816141732281
21
-4.1716890944881886
0
LINE
8
BLACK
6
CONTINUOUS
10
5.7334816141732281
20
-4.1716890944881886
11
5.7338582677165357
21
-4.1716141732283463
0
LINE
8
BLACK
6
CONTINUOUS
10
5.7338582677165357
20
-4.1716141732283463
11
5.8661417322834648
21
-4.1716141732283463
0
LINE
8
BLACK
6
CONTINUOUS
10
5.8661417322834648
20
-4.1716141732283463
11
5.8665183858267715
21
-4.1716890944881886
0
LINE
8
BLACK
6
CONTINUOUS
10
5.7348425196850394
20
-4.1735826771653546
11
5.7348425196850394
21
-4.2464173228346453
0
LINE
8
BLACK
6
CONTINUOUS
10
5.7348425196850394
20
-4.2464173228346453
11
5.8651574803149602
21
-4.2464173228346453
0
LINE
8
BLACK
6
CONTINUOUS
10
5.8651574803149602
20
-4.2464173228346453
11
5.8651574803149602
21
-4.1735826771653546
0
LINE
8
BLACK
6
CONTINUOUS
10
5.8651574803149602
20
-4.1735826771653546
11
5.7348425196850394
21
-4.1735826771653546
0
LINE
8
BLACK
6
CONTINUOUS
10
5.0657801968503939
20
-4.1150257086614168
11
5.0663128740157477
21
-4.1155583858267715
0
LINE
8
BLACK
6
CONTINUOUS
10
5.0663128740157477
20
-4.1155583858267715
11
5.06638779527559
21
-4.1159350393700782
0
LINE
8
BLACK
6
CONTINUOUS
10
5.06638779527559
20
-4.1159350393700782
11
5.06638779527559
21
-4.1907381889763782
0
LINE
8
BLACK
6
CONTINUOUS
10
5.06638779527559
20
-4.1907381889763782
11
5.0663128740157477
21
-4.1911148425196849
0
LINE
8
BLACK
6
CONTINUOUS
10
5.0663128740157477
20
-4.1911148425196849
11
5.0657801968503939
21
-4.1916475196850396
0
LINE
8
BLACK
6
CONTINUOUS
10
5.0657801968503939
20
-4.1916475196850396
11
5.0654035433070863
21
-4.1917224409448819
0
LINE
8
BLACK
6
CONTINUOUS
10
5.0654035433070863
20
-4.1917224409448819
11
4.9331200787401572
21
-4.1917224409448819
0
LINE
8
BLACK
6
CONTINUOUS
10
4.9331200787401572
20
-4.1917224409448819
11
4.9327434251968505
21
-4.1916475196850396
0
LINE
8
BLACK
6
CONTINUOUS
10
4.9327434251968505
20
-4.1916475196850396
11
4.9322107480314958
21
-4.1911148425196849
0
LINE
8
BLACK
6
CONTINUOUS
10
4.9322107480314958
20
-4.1911148425196849
11
4.9321358267716535
21
-4.1907381889763782
0
LINE
8
BLACK
6
CONTINUOUS
10
4.9321358267716535
20
-4.1907381889763782
11
4.9321358267716535
21
-4.1159350393700782
0
LINE
8
BLACK
6
CONTINUOUS
10
4.9321358267716535
20
-4.1159350393700782
11
4.9322107480314958
21
-4.1155583858267715
0
LINE
8
BLACK
6
CONTINUOUS
10
4.9322107480314958
20
-4.1155583858267715
11
4.9327434251968505
21
-4.1150257086614168
0
LINE
8
BLACK
6
CONTINUOUS
10
4.9327434251968505
20
-4.1150257086614168
11
4.9331200787401572
21
-4.1149507874015745
0
LINE
8
BLACK
6
CONTINUOUS
10
4.9331200787401572
20
-4.1149507874015745
11
5.0654035433070863
21
-4.1149507874015745
0
LINE
8
BLACK
6
CONTINUOUS
10
5.0654035433070863
20
-4.1149507874015745
11
5.0657801968503939
21
-4.1150257086614168
0
LINE
8
BLACK
6
CONTINUOUS
10
4.9341043307086609
20
-4.1169192913385828
11
4.9341043307086609
21
-4.1897539370078736
0
LINE
8
BLACK
6
CONTINUOUS
10
4.9341043307086609
20
-4.1897539370078736
11
5.0644192913385826
21
-4.1897539370078736
0
LINE
8
BLACK
6
CONTINUOUS
10
5.0644192913385826
20
-4.1897539370078736
11
5.0644192913385826
21
-4.1169192913385828
0
LINE
8
BLACK
6
CONTINUOUS
10
5.0644192913385826
20
-4.1169192913385828
11
4.9341043307086609
21
-4.1169192913385828
0
LINE
8
BLACK
6
CONTINUOUS
10
6.4673057874015747
20
-4.0705079921259841
11
6.4678384645669293
21
-4.0710406692913388
0
LINE
8
BLACK
6
CONTINUOUS
10
6.4678384645669293
20
-4.0710406692913388
11
6.4679133858267717
21
-4.0714173228346455
0
LINE
8
BLACK
6
CONTINUOUS
10
6.4679133858267717
20
-4.0714173228346455
11
6.4679133858267717
21
-4.1485826771653542
0
LINE
8
BLACK
6
CONTINUOUS
10
6.4679133858267717
20
-4.1485826771653542
11
6.4678384645669293
21
-4.148959330708661
0
LINE
8
BLACK
6
CONTINUOUS
10
6.4678384645669293
20
-4.148959330708661
11
6.4673057874015747
21
-4.1494920078740156
0
LINE
8
BLACK
6
CONTINUOUS
10
6.4673057874015747
20
-4.1494920078740156
11
6.466929133858268
21
-4.1495669291338579
0
LINE
8
BLACK
6
CONTINUOUS
10
6.466929133858268
20
-4.1495669291338579
11
6.3330708661417319
21
-4.1495669291338579
0
LINE
8
BLACK
6
CONTINUOUS
10
6.3330708661417319
20
-4.1495669291338579
11
6.3326942125984251
21
-4.1494920078740156
0
LINE
8
BLACK
6
CONTINUOUS
10
6.3326942125984251
20
-4.1494920078740156
11
6.3321615354330705
21
-4.148959330708661
0
LINE
8
BLACK
6
CONTINUOUS
10
6.3321615354330705
20
-4.148959330708661
11
6.3320866141732282
21
-4.1485826771653542
0
LINE
8
BLACK
6
CONTINUOUS
10
6.3320866141732282
20
-4.1485826771653542
11
6.3320866141732282
21
-4.0714173228346455
0
LINE
8
BLACK
6
CONTINUOUS
10
6.3320866141732282
20
-4.0714173228346455
11
6.3321615354330705
21
-4.0710406692913388
0
LINE
8
BLACK
6
CONTINUOUS
10
6.3321615354330705
20
-4.0710406692913388
11
6.3326942125984251
21
-4.0705079921259841
0
LINE
8
BLACK
6
CONTINUOUS
10
6.3326942125984251
20
-4.0705079921259841
11
6.3330708661417319
21
-4.0704330708661418
0
LINE
8
BLACK
6
CONTINUOUS
10
6.3330708661417319
20
-4.0704330708661418
11
6.466929133858268
21
-4.0704330708661418
0
LINE
8
BLACK
6
CONTINUOUS
10
6.466929133858268
20
-4.0704330708661418
11
6.4673057874015747
21
-4.0705079921259841
0
LINE
8
BLACK
6
CONTINUOUS
10
6.3340551181102365
20
-4.0724015748031492
11
6.3340551181102365
21
-4.1475984251968505
0
LINE
8
BLACK
6
CONTINUOUS
10
6.3340551181102365
20
-4.1475984251968505
11
6.4659448818897634
21
-4.1475984251968505
0
LINE
8
BLACK
6
CONTINUOUS
10
6.4659448818897634
20
-4.1475984251968505
11
6.4659448818897634
21
-4.0724015748031492
0
LINE
8
BLACK
6
CONTINUOUS
10
6.4659448818897634
20
-4.0724015748031492
11
6.3340551181102365
21
-4.0724015748031492
0
LINE
8
BLACK
6
CONTINUOUS
10
6.6165183858267715
20
-4.0616890944881892
11
6.6170510629921262
21
-4.0622217716535429
0
LINE
8
BLACK
6
CONTINUOUS
10
6.6170510629921262
20
-4.0622217716535429
11
6.6171259842519685
21
-4.0625984251968505
0
LINE
8
BLACK
6
CONTINUOUS
10
6.6171259842519685
20
-4.0625984251968505
11
6.6171259842519685
21
-4.1374015748031496
0
LINE
8
BLACK
6
CONTINUOUS
10
6.6171259842519685
20
-4.1374015748031496
11
6.6170510629921262
21
-4.1377782283464564
0
LINE
8
BLACK
6
CONTINUOUS
10
6.6170510629921262
20
-4.1377782283464564
11
6.6165183858267715
21
-4.138310905511811
0
LINE
8
BLACK
6
CONTINUOUS
10
6.6165183858267715
20
-4.138310905511811
11
6.6161417322834648
21
-4.1383858267716533
0
LINE
8
BLACK
6
CONTINUOUS
10
6.6161417322834648
20
-4.1383858267716533
11
6.4838582677165357
21
-4.1383858267716533
0
LINE
8
BLACK
6
CONTINUOUS
10
6.4838582677165357
20
-4.1383858267716533
11
6.4834816141732281
21
-4.138310905511811
0
LINE
8
BLACK
6
CONTINUOUS
10
6.4834816141732281
20
-4.138310905511811
11
6.4829489370078734
21
-4.1377782283464564
0
LINE
8
BLACK
6
CONTINUOUS
10
6.4829489370078734
20
-4.1377782283464564
11
6.4828740157480311
21
-4.1374015748031496
0
LINE
8
BLACK
6
CONTINUOUS
10
6.4828740157480311
20
-4.1374015748031496
11
6.4828740157480311
21
-4.0625984251968505
0
LINE
8
BLACK
6
CONTINUOUS
10
6.4828740157480311
20
-4.0625984251968505
11
6.4829489370078734
21
-4.0622217716535429
0
LINE
8
BLACK
6
CONTINUOUS
10
6.4829489370078734
20
-4.0622217716535429
11
6.4834816141732281
21
-4.0616890944881892
0
LINE
8
BLACK
6
CONTINUOUS
10
6.4834816141732281
20
-4.0616890944881892
11
6.4838582677165357
21
-4.0616141732283459
0
LINE
8
BLACK
6
CONTINUOUS
10
6.4838582677165357
20
-4.0616141732283459
11
6.6161417322834648
21
-4.0616141732283459
0
LINE
8
BLACK
6
CONTINUOUS
10
6.6161417322834648
20
-4.0616141732283459
11
6.6165183858267715
21
-4.0616890944881892
0
LINE
8
BLACK
6
CONTINUOUS
10
6.4848425196850394
20
-4.0635826771653543
11
6.4848425196850394
21
-4.1364173228346459
0
LINE
8
BLACK
6
CONTINUOUS
10
6.4848425196850394
20
-4.1364173228346459
11
6.6151574803149602
21
-4.1364173228346459
0
LINE
8
BLACK
6
CONTINUOUS
10
6.6151574803149602
20
-4.1364173228346459
11
6.6151574803149602
21
-4.0635826771653543
0
LINE
8
BLACK
6
CONTINUOUS
10
6.6151574803149602
20
-4.0635826771653543
11
6.4848425196850394
21
-4.0635826771653543
0
LINE
8
BLACK
6
CONTINUOUS
10
6.3025813779527562
20
-3.9126339763779527
11
6.30311405511811
21
-3.9131666535433069
0
LINE
8
BLACK
6
CONTINUOUS
10
6.30311405511811
20
-3.9131666535433069
11
6.3031889763779523
21
-3.9135433070866141
0
LINE
8
BLACK
6
CONTINUOUS
10
6.3031889763779523
20
-3.9135433070866141
11
6.3031889763779523
21
-4.1064566929133859
0
LINE
8
BLACK
6
CONTINUOUS
10
6.3031889763779523
20
-4.1064566929133859
11
6.30311405511811
21
-4.1068333464566926
0
LINE
8
BLACK
6
CONTINUOUS
10
6.30311405511811
20
-4.1068333464566926
11
6.3025813779527562
21
-4.1073660236220473
0
LINE
8
BLACK
6
CONTINUOUS
10
6.3025813779527562
20
-4.1073660236220473
11
6.3022047244094486
21
-4.1074409448818896
0
LINE
8
BLACK
6
CONTINUOUS
10
6.3022047244094486
20
-4.1074409448818896
11
6.177795275590551
21
-4.1074409448818896
0
LINE
8
BLACK
6
CONTINUOUS
10
6.177795275590551
20
-4.1074409448818896
11
6.1774186220472442
21
-4.1073660236220473
0
LINE
8
BLACK
6
CONTINUOUS
10
6.1774186220472442
20
-4.1073660236220473
11
6.1768859448818896
21
-4.1068333464566926
0
LINE
8
BLACK
6
CONTINUOUS
10
6.1768859448818896
20
-4.1068333464566926
11
6.1768110236220473
21
-4.1064566929133859
0
LINE
8
BLACK
6
CONTINUOUS
10
6.1768110236220473
20
-4.1064566929133859
11
6.1768110236220473
21
-3.9135433070866141
0
LINE
8
BLACK
6
CONTINUOUS
10
6.1768110236220473
20
-3.9135433070866141
11
6.1768859448818896
21
-3.9131666535433069
0
LINE
8
BLACK
6
CONTINUOUS
10
6.1768859448818896
20
-3.9131666535433069
11
6.1774186220472442
21
-3.9126339763779527
0
LINE
8
BLACK
6
CONTINUOUS
10
6.1774186220472442
20
-3.9126339763779527
11
6.177795275590551
21
-3.91255905511811
0
LINE
8
BLACK
6
CONTINUOUS
10
6.177795275590551
20
-3.91255905511811
11
6.3022047244094486
21
-3.91255905511811
0
LINE
8
BLACK
6
CONTINUOUS
10
6.3022047244094486
20
-3.91255905511811
11
6.3025813779527562
21
-3.9126339763779527
0
LINE
8
BLACK
6
CONTINUOUS
10
6.1787795275590547
20
-3.9145275590551178
11
6.1787795275590547
21
-4.1054724409448822
0
LINE
8
BLACK
6
CONTINUOUS
10
6.1787795275590547
20
-4.1054724409448822
11
6.3012204724409449
21
-4.1054724409448822
0
LINE
8
BLACK
6
CONTINUOUS
10
6.3012204724409449
20
-4.1054724409448822
11
6.3012204724409449
21
-3.9145275590551178
0
LINE
8
BLACK
6
CONTINUOUS
10
6.3012204724409449
20
-3.9145275590551178
11
6.1787795275590547
21
-3.9145275590551178
0
LINE
8
BLACK
6
CONTINUOUS
10
6.5148648425196845
20
-3.9082245275590553
11
6.5153975196850391
21
-3.9087572047244095
0
LINE
8
BLACK
6
CONTINUOUS
10
6.5153975196850391
20
-3.9087572047244095
11
6.5154724409448814
21
-3.9091338582677166
0
LINE
8
BLACK
6
CONTINUOUS
10
6.5154724409448814
20
-3.9091338582677166
11
6.5154724409448814
21
-4.0508661417322838
0
LINE
8
BLACK
6
CONTINUOUS
10
6.5154724409448814
20
-4.0508661417322838
11
6.5153975196850391
21
-4.0512427952755905
0
LINE
8
BLACK
6
CONTINUOUS
10
6.5153975196850391
20
-4.0512427952755905
11
6.5148648425196845
21
-4.0517754724409452
0
LINE
8
BLACK
6
CONTINUOUS
10
6.5148648425196845
20
-4.0517754724409452
11
6.5144881889763777
21
-4.0518503937007875
0
LINE
8
BLACK
6
CONTINUOUS
10
6.5144881889763777
20
-4.0518503937007875
11
6.3255118110236221
21
-4.0518503937007875
0
LINE
8
BLACK
6
CONTINUOUS
10
6.3255118110236221
20
-4.0518503937007875
11
6.3251351574803145
21
-4.0517754724409452
0
LINE
8
BLACK
6
CONTINUOUS
10
6.3251351574803145
20
-4.0517754724409452
11
6.3246024803149608
21
-4.0512427952755905
0
LINE
8
BLACK
6
CONTINUOUS
10
6.3246024803149608
20
-4.0512427952755905
11
6.3245275590551175
21
-4.0508661417322838
0
LINE
8
BLACK
6
CONTINUOUS
10
6.3245275590551175
20
-4.0508661417322838
11
6.3245275590551175
21
-3.9091338582677166
0
LINE
8
BLACK
6
CONTINUOUS
10
6.3245275590551175
20
-3.9091338582677166
11
6.3246024803149608
21
-3.9087572047244095
0
LINE
8
BLACK
6
CONTINUOUS
10
6.3246024803149608
20
-3.9087572047244095
11
6.3251351574803145
21
-3.9082245275590553
0
LINE
8
BLACK
6
CONTINUOUS
10
6.3251351574803145
20
-3.9082245275590553
11
6.3255118110236221
21
-3.9081496062992125
0
LINE
8
BLACK
6
CONTINUOUS
10
6.3255118110236221
20
-3.9081496062992125
11
6.5144881889763777
21
-3.9081496062992125
0
LINE
8
BLACK
6
CONTINUOUS
10
6.5144881889763777
20
-3.9081496062992125
11
6.5148648425196845
21
-3.9082245275590553
0
LINE
8
BLACK
6
CONTINUOUS
10
6.3264960629921259
20
-3.9101181102362204
11
6.3264960629921259
21
-4.0498818897637792
0
LINE
8
BLACK
6
CONTINUOUS
10
6.3264960629921259
20
-4.0498818897637792
11
6.513503937007874
21
-4.0498818897637792
0
LINE
8
BLACK
6
CONTINUOUS
10
6.513503937007874
20
-4.0498818897637792
11
6.513503937007874
21
-3.9101181102362204
0
LINE
8
BLACK
6
CONTINUOUS
10
6.513503937007874
20
-3.9101181102362204
11
6.3264960629921259
21
-3.9101181102362204
0
LINE
8
BLACK
6
CONTINUOUS
10
4.9624435826771656
20
-3.9716890944881889
11
4.9629762598425193
21
-3.9722217716535431
0
LINE
8
BLACK
6
CONTINUOUS
10
4.9629762598425193
20
-3.9722217716535431
11
4.9630511811023617
21
-3.9725984251968502
0
LINE
8
BLACK
6
CONTINUOUS
10
4.9630511811023617
20
-3.9725984251968502
11
4.9630511811023617
21
-4.0474015748031498
0
LINE
8
BLACK
6
CONTINUOUS
10
4.9630511811023617
20
-4.0474015748031498
11
4.9629762598425193
21
-4.0477782283464565
0
LINE
8
BLACK
6
CONTINUOUS
10
4.9629762598425193
20
-4.0477782283464565
11
4.9624435826771656
21
-4.0483109055118112
0
LINE
8
BLACK
6
CONTINUOUS
10
4.9624435826771656
20
-4.0483109055118112
11
4.9620669291338579
21
-4.0483858267716535
0
LINE
8
BLACK
6
CONTINUOUS
10
4.9620669291338579
20
-4.0483858267716535
11
4.8297834645669289
21
-4.0483858267716535
0
LINE
8
BLACK
6
CONTINUOUS
10
4.8297834645669289
20
-4.0483858267716535
11
4.8294068110236221
21
-4.0483109055118112
0
LINE
8
BLACK
6
CONTINUOUS
10
4.8294068110236221
20
-4.0483109055118112
11
4.8288741338582675
21
-4.0477782283464565
0
LINE
8
BLACK
6
CONTINUOUS
10
4.8288741338582675
20
-4.0477782283464565
11
4.8287992125984252
21
-4.0474015748031498
0
LINE
8
BLACK
6
CONTINUOUS
10
4.8287992125984252
20
-4.0474015748031498
11
4.8287992125984252
21
-3.9725984251968502
0
LINE
8
BLACK
6
CONTINUOUS
10
4.8287992125984252
20
-3.9725984251968502
11
4.8288741338582675
21
-3.9722217716535431
0
LINE
8
BLACK
6
CONTINUOUS
10
4.8288741338582675
20
-3.9722217716535431
11
4.8294068110236221
21
-3.9716890944881889
0
LINE
8
BLACK
6
CONTINUOUS
10
4.8294068110236221
20
-3.9716890944881889
11
4.8297834645669289
21
-3.9716141732283465
0
LINE
8
BLACK
6
CONTINUOUS
10
4.8297834645669289
20
-3.9716141732283465
11
4.9620669291338579
21
-3.9716141732283465
0
LINE
8
BLACK
6
CONTINUOUS
10
4.9620669291338579
20
-3.9716141732283465
11
4.9624435826771656
21
-3.9716890944881889
0
LINE
8
BLACK
6
CONTINUOUS
10
4.8307677165354326
20
-3.9735826771653544
11
4.8307677165354326
21
-4.0464173228346452
0
LINE
8
BLACK
6
CONTINUOUS
10
4.8307677165354326
20
-4.0464173228346452
11
4.9610826771653542
21
-4.0464173228346452
0
LINE
8
BLACK
6
CONTINUOUS
10
4.9610826771653542
20
-4.0464173228346452
11
4.9610826771653542
21
-3.9735826771653544
0
LINE
8
BLACK
6
CONTINUOUS
10
4.9610826771653542
20
-3.9735826771653544
11
4.8307677165354326
21
-3.9735826771653544
0
LINE
8
BLACK
6
CONTINUOUS
10
5.2165183858267712
20
-3.9716890944881889
11
5.2170510629921258
21
-3.9722217716535431
0
LINE
8
BLACK
6
CONTINUOUS
10
5.2170510629921258
20
-3.9722217716535431
11
5.2171259842519682
21
-3.9725984251968502
0
LINE
8
BLACK
6
CONTINUOUS
10
5.2171259842519682
20
-3.9725984251968502
11
5.2171259842519682
21
-4.0474015748031498
0
LINE
8
BLACK
6
CONTINUOUS
10
5.2171259842519682
20
-4.0474015748031498
11
5.2170510629921258
21
-4.0477782283464565
0
LINE
8
BLACK
6
CONTINUOUS
10
5.2170510629921258
20
-4.0477782283464565
11
5.2165183858267712
21
-4.0483109055118112
0
LINE
8
BLACK
6
CONTINUOUS
10
5.2165183858267712
20
-4.0483109055118112
11
5.2161417322834644
21
-4.0483858267716535
0
LINE
8
BLACK
6
CONTINUOUS
10
5.2161417322834644
20
-4.0483858267716535
11
5.0838582677165354
21
-4.0483858267716535
0
LINE
8
BLACK
6
CONTINUOUS
10
5.0838582677165354
20
-4.0483858267716535
11
5.0834816141732286
21
-4.0483109055118112
0
LINE
8
BLACK
6
CONTINUOUS
10
5.0834816141732286
20
-4.0483109055118112
11
5.082948937007874
21
-4.0477782283464565
0
LINE
8
BLACK
6
CONTINUOUS
10
5.082948937007874
20
-4.0477782283464565
11
5.0828740157480317
21
-4.0474015748031498
0
LINE
8
BLACK
6
CONTINUOUS
10
5.0828740157480317
20
-4.0474015748031498
11
5.0828740157480317
21
-3.9725984251968502
0
LINE
8
BLACK
6
CONTINUOUS
10
5.0828740157480317
20
-3.9725984251968502
11
5.082948937007874
21
-3.9722217716535431
0
LINE
8
BLACK
6
CONTINUOUS
10
5.082948937007874
20
-3.9722217716535431
11
5.0834816141732286
21
-3.9716890944881889
0
LINE
8
BLACK
6
CONTINUOUS
10
5.0834816141732286
20
-3.9716890944881889
11
5.0838582677165354
21
-3.9716141732283465
0
LINE
8
BLACK
6
CONTINUOUS
10
5.0838582677165354
20
-3.9716141732283465
11
5.2161417322834644
21
-3.9716141732283465
0
LINE
8
BLACK
6
CONTINUOUS
10
5.2161417322834644
20
-3.9716141732283465
11
5.2165183858267712
21
-3.9716890944881889
0
LINE
8
BLACK
6
CONTINUOUS
10
5.0848425196850391
20
-3.9735826771653544
11
5.0848425196850391
21
-4.0464173228346452
0
LINE
8
BLACK
6
CONTINUOUS
10
5.0848425196850391
20
-4.0464173228346452
11
5.2151574803149607
21
-4.0464173228346452
0
LINE
8
BLACK
6
CONTINUOUS
10
5.2151574803149607
20
-4.0464173228346452
11
5.2151574803149607
21
-3.9735826771653544
0
LINE
8
BLACK
6
CONTINUOUS
10
5.2151574803149607
20
-3.9735826771653544
11
5.0848425196850391
21
-3.9735826771653544
0
LINE
8
BLACK
6
CONTINUOUS
10
5.4665183858267712
20
-3.9716890944881889
11
5.4670510629921258
21
-3.9722217716535431
0
LINE
8
BLACK
6
CONTINUOUS
10
5.4670510629921258
20
-3.9722217716535431
11
5.4671259842519682
21
-3.9725984251968502
0
LINE
8
BLACK
6
CONTINUOUS
10
5.4671259842519682
20
-3.9725984251968502
11
5.4671259842519682
21
-4.0474015748031498
0
LINE
8
BLACK
6
CONTINUOUS
10
5.4671259842519682
20
-4.0474015748031498
11
5.4670510629921258
21
-4.0477782283464565
0
LINE
8
BLACK
6
CONTINUOUS
10
5.4670510629921258
20
-4.0477782283464565
11
5.4665183858267712
21
-4.0483109055118112
0
LINE
8
BLACK
6
CONTINUOUS
10
5.4665183858267712
20
-4.0483109055118112
11
5.4661417322834644
21
-4.0483858267716535
0
LINE
8
BLACK
6
CONTINUOUS
10
5.4661417322834644
20
-4.0483858267716535
11
5.3338582677165354
21
-4.0483858267716535
0
LINE
8
BLACK
6
CONTINUOUS
10
5.3338582677165354
20
-4.0483858267716535
11
5.3334816141732286
21
-4.0483109055118112
0
LINE
8
BLACK
6
CONTINUOUS
10
5.3334816141732286
20
-4.0483109055118112
11
5.332948937007874
21
-4.0477782283464565
0
LINE
8
BLACK
6
CONTINUOUS
10
5.332948937007874
20
-4.0477782283464565
11
5.3328740157480317
21
-4.0474015748031498
0
LINE
8
BLACK
6
CONTINUOUS
10
5.3328740157480317
20
-4.0474015748031498
11
5.3328740157480317
21
-3.9725984251968502
0
LINE
8
BLACK
6
CONTINUOUS
10
5.3328740157480317
20
-3.9725984251968502
11
5.332948937007874
21
-3.9722217716535431
0
LINE
8
BLACK
6
CONTINUOUS
10
5.332948937007874
20
-3.9722217716535431
11
5.3334816141732286
21
-3.9716890944881889
0
LINE
8
BLACK
6
CONTINUOUS
10
5.3334816141732286
20
-3.9716890944881889
11
5.3338582677165354
21
-3.9716141732283465
0
LINE
8
BLACK
6
CONTINUOUS
10
5.3338582677165354
20
-3.9716141732283465
11
5.4661417322834644
21
-3.9716141732283465
0
LINE
8
BLACK
6
CONTINUOUS
10
5.4661417322834644
20
-3.9716141732283465
11
5.4665183858267712
21
-3.9716890944881889
0
LINE
8
BLACK
6
CONTINUOUS
10
5.3348425196850391
20
-3.9735826771653544
11
5.3348425196850391
21
-4.0464173228346452
0
LINE
8
BLACK
6
CONTINUOUS
10
5.3348425196850391
20
-4.0464173228346452
11
5.4651574803149607
21
-4.0464173228346452
0
LINE
8
BLACK
6
CONTINUOUS
10
5.4651574803149607
20
-4.0464173228346452
11
5.4651574803149607
21
-3.9735826771653544
0
LINE
8
BLACK
6
CONTINUOUS
10
5.4651574803149607
20
-3.9735826771653544
11
5.3348425196850391
21
-3.9735826771653544
0
LINE
8
BLACK
6
CONTINUOUS
10
5.8265183858267715
20
-3.9716890944881889
11
5.8270510629921262
21
-3.9722217716535431
0
LINE
8
BLACK
6
CONTINUOUS
10
5.8270510629921262
20
-3.9722217716535431
11
5.8271259842519685
21
-3.9725984251968502
0
LINE
8
BLACK
6
CONTINUOUS
10
5.8271259842519685
20
-3.9725984251968502
11
5.8271259842519685
21
-4.0474015748031498
0
LINE
8
BLACK
6
CONTINUOUS
10
5.8271259842519685
20
-4.0474015748031498
11
5.8270510629921262
21
-4.0477782283464565
0
LINE
8
BLACK
6
CONTINUOUS
10
5.8270510629921262
20
-4.0477782283464565
11
5.8265183858267715
21
-4.0483109055118112
0
LINE
8
BLACK
6
CONTINUOUS
10
5.8265183858267715
20
-4.0483109055118112
11
5.8261417322834648
21
-4.0483858267716535
0
LINE
8
BLACK
6
CONTINUOUS
10
5.8261417322834648
20
-4.0483858267716535
11
5.6938582677165357
21
-4.0483858267716535
0
LINE
8
BLACK
6
CONTINUOUS
10
5.6938582677165357
20
-4.0483858267716535
11
5.6934816141732281
21
-4.0483109055118112
0
LINE
8
BLACK
6
CONTINUOUS
10
5.6934816141732281
20
-4.0483109055118112
11
5.6929489370078743
21
-4.0477782283464565
0
LINE
8
BLACK
6
CONTINUOUS
10
5.6929489370078743
20
-4.0477782283464565
11
5.6928740157480311
21
-4.0474015748031498
0
LINE
8
BLACK
6
CONTINUOUS
10
5.6928740157480311
20
-4.0474015748031498
11
5.6928740157480311
21
-3.9725984251968502
0
LINE
8
BLACK
6
CONTINUOUS
10
5.6928740157480311
20
-3.9725984251968502
11
5.6929489370078743
21
-3.9722217716535431
0
LINE
8
BLACK
6
CONTINUOUS
10
5.6929489370078743
20
-3.9722217716535431
11
5.6934816141732281
21
-3.9716890944881889
0
LINE
8
BLACK
6
CONTINUOUS
10
5.6934816141732281
20
-3.9716890944881889
11
5.6938582677165357
21
-3.9716141732283465
0
LINE
8
BLACK
6
CONTINUOUS
10
5.6938582677165357
20
-3.9716141732283465
11
5.8261417322834648
21
-3.9716141732283465
0
LINE
8
BLACK
6
CONTINUOUS
10
5.8261417322834648
20
-3.9716141732283465
11
5.8265183858267715
21
-3.9716890944881889
0
LINE
8
BLACK
6
CONTINUOUS
10
5.6948425196850394
20
-3.9735826771653544
11
5.6948425196850394
21
-4.0464173228346452
0
LINE
8
BLACK
6
CONTINUOUS
10
5.6948425196850394
20
-4.0464173228346452
11
5.8251574803149602
21
-4.0464173228346452
0
LINE
8
BLACK
6
CONTINUOUS
10
5.8251574803149602
20
-4.0464173228346452
11
5.8251574803149602
21
-3.9735826771653544
0
LINE
8
BLACK
6
CONTINUOUS
10
5.8251574803149602
20
-3.9735826771653544
11
5.6948425196850394
21
-3.9735826771653544
0
LINE
8
BLACK
6
CONTINUOUS
10
4.6989593307086617
20
-3.912161535433071
11
4.6994920078740154
21
-3.9126942125984252
0
LINE
8
BLACK
6
CONTINUOUS
10
4.6994920078740154
20
-3.9126942125984252
11
4.6995669291338578
21
-3.9130708661417324
0
LINE
8
BLACK
6
CONTINUOUS
10
4.6995669291338578
20
-3.9130708661417324
11
4.6995669291338578
21
-4.046929133858268
0
LINE
8
BLACK
6
CONTINUOUS
10
4.6995669291338578
20
-4.046929133858268
11
4.6994920078740154
21
-4.0473057874015748
0
LINE
8
BLACK
6
CONTINUOUS
10
4.6994920078740154
20
-4.0473057874015748
11
4.6989593307086617
21
-4.0478384645669294
0
LINE
8
BLACK
6
CONTINUOUS
10
4.6989593307086617
20
-4.0478384645669294
11
4.698582677165354
21
-4.0479133858267717
0
LINE
8
BLACK
6
CONTINUOUS
10
4.698582677165354
20
-4.0479133858267717
11
4.6214173228346453
21
-4.0479133858267717
0
LINE
8
BLACK
6
CONTINUOUS
10
4.6214173228346453
20
-4.0479133858267717
11
4.6210406692913386
21
-4.0478384645669294
0
LINE
8
BLACK
6
CONTINUOUS
10
4.6210406692913386
20
-4.0478384645669294
11
4.620507992125984
21
-4.0473057874015748
0
LINE
8
BLACK
6
CONTINUOUS
10
4.620507992125984
20
-4.0473057874015748
11
4.6204330708661416
21
-4.046929133858268
0
LINE
8
BLACK
6
CONTINUOUS
10
4.6204330708661416
20
-4.046929133858268
11
4.6204330708661416
21
-3.9130708661417324
0
LINE
8
BLACK
6
CONTINUOUS
10
4.6204330708661416
20
-3.9130708661417324
11
4.620507992125984
21
-3.9126942125984252
0
LINE
8
BLACK
6
CONTINUOUS
10
4.620507992125984
20
-3.9126942125984252
11
4.6210406692913386
21
-3.912161535433071
0
LINE
8
BLACK
6
CONTINUOUS
10
4.6210406692913386
20
-3.912161535433071
11
4.6214173228346453
21
-3.9120866141732282
0
LINE
8
BLACK
6
CONTINUOUS
10
4.6214173228346453
20
-3.9120866141732282
11
4.698582677165354
21
-3.9120866141732282
0
LINE
8
BLACK
6
CONTINUOUS
10
4.698582677165354
20
-3.9120866141732282
11
4.6989593307086617
21
-3.912161535433071
0
LINE
8
BLACK
6
CONTINUOUS
10
4.6224015748031491
20
-3.9140551181102361
11
4.6224015748031491
21
-4.0459448818897634
0
LINE
8
BLACK
6
CONTINUOUS
10
4.6224015748031491
20
-4.0459448818897634
11
4.6975984251968503
21
-4.0459448818897634
0
LINE
8
BLACK
6
CONTINUOUS
10
4.6975984251968503
20
-4.0459448818897634
11
4.6975984251968503
21
-3.9140551181102361
0
LINE
8
BLACK
6
CONTINUOUS
10
4.6975984251968503
20
-3.9140551181102361
11
4.6224015748031491
21
-3.9140551181102361
0
LINE
8
BLACK
6
CONTINUOUS
10
4.7989593307086613
20
-3.912161535433071
11
4.799492007874016
21
-3.9126942125984252
0
LINE
8
BLACK
6
CONTINUOUS
10
4.799492007874016
20
-3.9126942125984252
11
4.7995669291338583
21
-3.9130708661417324
0
LINE
8
BLACK
6
CONTINUOUS
10
4.7995669291338583
20
-3.9130708661417324
11
4.7995669291338583
21
-4.046929133858268
0
LINE
8
BLACK
6
CONTINUOUS
10
4.7995669291338583
20
-4.046929133858268
11
4.799492007874016
21
-4.0473057874015748
0
LINE
8
BLACK
6
CONTINUOUS
10
4.799492007874016
20
-4.0473057874015748
11
4.7989593307086613
21
-4.0478384645669294
0
LINE
8
BLACK
6
CONTINUOUS
10
4.7989593307086613
20
-4.0478384645669294
11
4.7985826771653546
21
-4.0479133858267717
0
LINE
8
BLACK
6
CONTINUOUS
10
4.7985826771653546
20
-4.0479133858267717
11
4.7214173228346459
21
-4.0479133858267717
0
LINE
8
BLACK
6
CONTINUOUS
10
4.7214173228346459
20
-4.0479133858267717
11
4.7210406692913383
21
-4.0478384645669294
0
LINE
8
BLACK
6
CONTINUOUS
10
4.7210406692913383
20
-4.0478384645669294
11
4.7205079921259845
21
-4.0473057874015748
0
LINE
8
BLACK
6
CONTINUOUS
10
4.7205079921259845
20
-4.0473057874015748
11
4.7204330708661413
21
-4.046929133858268
0
LINE
8
BLACK
6
CONTINUOUS
10
4.7204330708661413
20
-4.046929133858268
11
4.7204330708661413
21
-3.9130708661417324
0
LINE
8
BLACK
6
CONTINUOUS
10
4.7204330708661413
20
-3.9130708661417324
11
4.7205079921259845
21
-3.9126942125984252
0
LINE
8
BLACK
6
CONTINUOUS
10
4.7205079921259845
20
-3.9126942125984252
11
4.7210406692913383
21
-3.912161535433071
0
LINE
8
BLACK
6
CONTINUOUS
10
4.7210406692913383
20
-3.912161535433071
11
4.7214173228346459
21
-3.9120866141732282
0
LINE
8
BLACK
6
CONTINUOUS
10
4.7214173228346459
20
-3.9120866141732282
11
4.7985826771653546
21
-3.9120866141732282
0
LINE
8
BLACK
6
CONTINUOUS
10
4.7985826771653546
20
-3.9120866141732282
11
4.7989593307086613
21
-3.912161535433071
0
LINE
8
BLACK
6
CONTINUOUS
10
4.7224015748031496
20
-3.9140551181102361
11
4.7224015748031496
21
-4.0459448818897634
0
LINE
8
BLACK
6
CONTINUOUS
10
4.7224015748031496
20
-4.0459448818897634
11
4.79759842519685
21
-4.0459448818897634
0
LINE
8
BLACK
6
CONTINUOUS
10
4.79759842519685
20
-4.0459448818897634
11
4.79759842519685
21
-3.9140551181102361
0
LINE
8
BLACK
6
CONTINUOUS
10
4.79759842519685
20
-3.9140551181102361
11
4.7224015748031496
21
-3.9140551181102361
0
LINE
8
BLACK
6
CONTINUOUS
10
5.0589593307086611
20
-3.912161535433071
11
5.0594920078740158
21
-3.9126942125984252
0
LINE
8
BLACK
6
CONTINUOUS
10
5.0594920078740158
20
-3.9126942125984252
11
5.0595669291338581
21
-3.9130708661417324
0
LINE
8
BLACK
6
CONTINUOUS
10
5.0595669291338581
20
-3.9130708661417324
11
5.0595669291338581
21
-4.046929133858268
0
LINE
8
BLACK
6
CONTINUOUS
10
5.0595669291338581
20
-4.046929133858268
11
5.0594920078740158
21
-4.0473057874015748
0
LINE
8
BLACK
6
CONTINUOUS
10
5.0594920078740158
20
-4.0473057874015748
11
5.0589593307086611
21
-4.0478384645669294
0
LINE
8
BLACK
6
CONTINUOUS
10
5.0589593307086611
20
-4.0478384645669294
11
5.0585826771653544
21
-4.0479133858267717
0
LINE
8
BLACK
6
CONTINUOUS
10
5.0585826771653544
20
-4.0479133858267717
11
4.9814173228346457
21
-4.0479133858267717
0
LINE
8
BLACK
6
CONTINUOUS
10
4.9814173228346457
20
-4.0479133858267717
11
4.981040669291338
21
-4.0478384645669294
0
LINE
8
BLACK
6
CONTINUOUS
10
4.981040669291338
20
-4.0478384645669294
11
4.9805079921259843
21
-4.0473057874015748
0
LINE
8
BLACK
6
CONTINUOUS
10
4.9805079921259843
20
-4.0473057874015748
11
4.980433070866142
21
-4.046929133858268
0
LINE
8
BLACK
6
CONTINUOUS
10
4.980433070866142
20
-4.046929133858268
11
4.980433070866142
21
-3.9130708661417324
0
LINE
8
BLACK
6
CONTINUOUS
10
4.980433070866142
20
-3.9130708661417324
11
4.9805079921259843
21
-3.9126942125984252
0
LINE
8
BLACK
6
CONTINUOUS
10
4.9805079921259843
20
-3.9126942125984252
11
4.981040669291338
21
-3.912161535433071
0
LINE
8
BLACK
6
CONTINUOUS
10
4.981040669291338
20
-3.912161535433071
11
4.9814173228346457
21
-3.9120866141732282
0
LINE
8
BLACK
6
CONTINUOUS
10
4.9814173228346457
20
-3.9120866141732282
11
5.0585826771653544
21
-3.9120866141732282
0
LINE
8
BLACK
6
CONTINUOUS
10
5.0585826771653544
20
-3.9120866141732282
11
5.0589593307086611
21
-3.912161535433071
0
LINE
8
BLACK
6
CONTINUOUS
10
4.9824015748031494
20
-3.9140551181102361
11
4.9824015748031494
21
-4.0459448818897634
0
LINE
8
BLACK
6
CONTINUOUS
10
4.9824015748031494
20
-4.0459448818897634
11
5.0575984251968507
21
-4.0459448818897634
0
LINE
8
BLACK
6
CONTINUOUS
10
5.0575984251968507
20
-4.0459448818897634
11
5.0575984251968507
21
-3.9140551181102361
0
LINE
8
BLACK
6
CONTINUOUS
10
5.0575984251968507
20
-3.9140551181102361
11
4.9824015748031494
21
-3.9140551181102361
0
LINE
8
BLACK
6
CONTINUOUS
10
5.3089593307086611
20
-3.912161535433071
11
5.3094920078740158
21
-3.9126942125984252
0
LINE
8
BLACK
6
CONTINUOUS
10
5.3094920078740158
20
-3.9126942125984252
11
5.3095669291338581
21
-3.9130708661417324
0
LINE
8
BLACK
6
CONTINUOUS
10
5.3095669291338581
20
-3.9130708661417324
11
5.3095669291338581
21
-4.046929133858268
0
LINE
8
BLACK
6
CONTINUOUS
10
5.3095669291338581
20
-4.046929133858268
11
5.3094920078740158
21
-4.0473057874015748
0
LINE
8
BLACK
6
CONTINUOUS
10
5.3094920078740158
20
-4.0473057874015748
11
5.3089593307086611
21
-4.0478384645669294
0
LINE
8
BLACK
6
CONTINUOUS
10
5.3089593307086611
20
-4.0478384645669294
11
5.3085826771653544
21
-4.0479133858267717
0
LINE
8
BLACK
6
CONTINUOUS
10
5.3085826771653544
20
-4.0479133858267717
11
5.2314173228346457
21
-4.0479133858267717
0
LINE
8
BLACK
6
CONTINUOUS
10
5.2314173228346457
20
-4.0479133858267717
11
5.231040669291338
21
-4.0478384645669294
0
LINE
8
BLACK
6
CONTINUOUS
10
5.231040669291338
20
-4.0478384645669294
11
5.2305079921259843
21
-4.0473057874015748
0
LINE
8
BLACK
6
CONTINUOUS
10
5.2305079921259843
20
-4.0473057874015748
11
5.230433070866142
21
-4.046929133858268
0
LINE
8
BLACK
6
CONTINUOUS
10
5.230433070866142
20
-4.046929133858268
11
5.230433070866142
21
-3.9130708661417324
0
LINE
8
BLACK
6
CONTINUOUS
10
5.230433070866142
20
-3.9130708661417324
11
5.2305079921259843
21
-3.9126942125984252
0
LINE
8
BLACK
6
CONTINUOUS
10
5.2305079921259843
20
-3.9126942125984252
11
5.231040669291338
21
-3.912161535433071
0
LINE
8
BLACK
6
CONTINUOUS
10
5.231040669291338
20
-3.912161535433071
11
5.2314173228346457
21
-3.9120866141732282
0
LINE
8
BLACK
6
CONTINUOUS
10
5.2314173228346457
20
-3.9120866141732282
11
5.3085826771653544
21
-3.9120866141732282
0
LINE
8
BLACK
6
CONTINUOUS
10
5.3085826771653544
20
-3.9120866141732282
11
5.3089593307086611
21
-3.912161535433071
0
LINE
8
BLACK
6
CONTINUOUS
10
5.2324015748031494
20
-3.9140551181102361
11
5.2324015748031494
21
-4.0459448818897634
0
LINE
8
BLACK
6
CONTINUOUS
10
5.2324015748031494
20
-4.0459448818897634
11
5.3075984251968507
21
-4.0459448818897634
0
LINE
8
BLACK
6
CONTINUOUS
10
5.3075984251968507
20
-4.0459448818897634
11
5.3075984251968507
21
-3.9140551181102361
0
LINE
8
BLACK
6
CONTINUOUS
10
5.3075984251968507
20
-3.9140551181102361
11
5.2324015748031494
21
-3.9140551181102361
0
LINE
8
BLACK
6
CONTINUOUS
10
5.5689593307086609
20
-3.912161535433071
11
5.5694920078740155
21
-3.9126942125984252
0
LINE
8
BLACK
6
CONTINUOUS
10
5.5694920078740155
20
-3.9126942125984252
11
5.5695669291338579
21
-3.9130708661417324
0
LINE
8
BLACK
6
CONTINUOUS
10
5.5695669291338579
20
-3.9130708661417324
11
5.5695669291338579
21
-4.046929133858268
0
LINE
8
BLACK
6
CONTINUOUS
10
5.5695669291338579
20
-4.046929133858268
11
5.5694920078740155
21
-4.0473057874015748
0
LINE
8
BLACK
6
CONTINUOUS
10
5.5694920078740155
20
-4.0473057874015748
11
5.5689593307086609
21
-4.0478384645669294
0
LINE
8
BLACK
6
CONTINUOUS
10
5.5689593307086609
20
-4.0478384645669294
11
5.5685826771653542
21
-4.0479133858267717
0
LINE
8
BLACK
6
CONTINUOUS
10
5.5685826771653542
20
-4.0479133858267717
11
5.4914173228346455
21
-4.0479133858267717
0
LINE
8
BLACK
6
CONTINUOUS
10
5.4914173228346455
20
-4.0479133858267717
11
5.4910406692913387
21
-4.0478384645669294
0
LINE
8
BLACK
6
CONTINUOUS
10
5.4910406692913387
20
-4.0478384645669294
11
5.4905079921259841
21
-4.0473057874015748
0
LINE
8
BLACK
6
CONTINUOUS
10
5.4905079921259841
20
-4.0473057874015748
11
5.4904330708661417
21
-4.046929133858268
0
LINE
8
BLACK
6
CONTINUOUS
10
5.4904330708661417
20
-4.046929133858268
11
5.4904330708661417
21
-3.9130708661417324
0
LINE
8
BLACK
6
CONTINUOUS
10
5.4904330708661417
20
-3.9130708661417324
11
5.4905079921259841
21
-3.9126942125984252
0
LINE
8
BLACK
6
CONTINUOUS
10
5.4905079921259841
20
-3.9126942125984252
11
5.4910406692913387
21
-3.912161535433071
0
LINE
8
BLACK
6
CONTINUOUS
10
5.4910406692913387
20
-3.912161535433071
11
5.4914173228346455
21
-3.9120866141732282
0
LINE
8
BLACK
6
CONTINUOUS
10
5.4914173228346455
20
-3.9120866141732282
11
5.5685826771653542
21
-3.9120866141732282
0
LINE
8
BLACK
6
CONTINUOUS
10
5.5685826771653542
20
-3.9120866141732282
11
5.5689593307086609
21
-3.912161535433071
0
LINE
8
BLACK
6
CONTINUOUS
10
5.4924015748031492
20
-3.9140551181102361
11
5.4924015748031492
21
-4.0459448818897634
0
LINE
8
BLACK
6
CONTINUOUS
10
5.4924015748031492
20
-4.0459448818897634
11
5.5675984251968504
21
-4.0459448818897634
0
LINE
8
BLACK
6
CONTINUOUS
10
5.5675984251968504
20
-4.0459448818897634
11
5.5675984251968504
21
-3.9140551181102361
0
LINE
8
BLACK
6
CONTINUOUS
10
5.5675984251968504
20
-3.9140551181102361
11
5.4924015748031492
21
-3.9140551181102361
0
LINE
8
BLACK
6
CONTINUOUS
10
5.6789593307086612
20
-3.912161535433071
11
5.6794920078740159
21
-3.9126942125984252
0
LINE
8
BLACK
6
CONTINUOUS
10
5.6794920078740159
20
-3.9126942125984252
11
5.6795669291338582
21
-3.9130708661417324
0
LINE
8
BLACK
6
CONTINUOUS
10
5.6795669291338582
20
-3.9130708661417324
11
5.6795669291338582
21
-4.046929133858268
0
LINE
8
BLACK
6
CONTINUOUS
10
5.6795669291338582
20
-4.046929133858268
11
5.6794920078740159
21
-4.0473057874015748
0
LINE
8
BLACK
6
CONTINUOUS
10
5.6794920078740159
20
-4.0473057874015748
11
5.6789593307086612
21
-4.0478384645669294
0
LINE
8
BLACK
6
CONTINUOUS
10
5.6789593307086612
20
-4.0478384645669294
11
5.6785826771653545
21
-4.0479133858267717
0
LINE
8
BLACK
6
CONTINUOUS
10
5.6785826771653545
20
-4.0479133858267717
11
5.6014173228346458
21
-4.0479133858267717
0
LINE
8
BLACK
6
CONTINUOUS
10
5.6014173228346458
20
-4.0479133858267717
11
5.6010406692913381
21
-4.0478384645669294
0
LINE
8
BLACK
6
CONTINUOUS
10
5.6010406692913381
20
-4.0478384645669294
11
5.6005079921259844
21
-4.0473057874015748
0
LINE
8
BLACK
6
CONTINUOUS
10
5.6005079921259844
20
-4.0473057874015748
11
5.6004330708661412
21
-4.046929133858268
0
LINE
8
BLACK
6
CONTINUOUS
10
5.6004330708661412
20
-4.046929133858268
11
5.6004330708661412
21
-3.9130708661417324
0
LINE
8
BLACK
6
CONTINUOUS
10
5.6004330708661412
20
-3.9130708661417324
11
5.6005079921259844
21
-3.9126942125984252
0
LINE
8
BLACK
6
CONTINUOUS
10
5.6005079921259844
20
-3.9126942125984252
11
5.6010406692913381
21
-3.912161535433071
0
LINE
8
BLACK
6
CONTINUOUS
10
5.6010406692913381
20
-3.912161535433071
11
5.6014173228346458
21
-3.9120866141732282
0
LINE
8
BLACK
6
CONTINUOUS
10
5.6014173228346458
20
-3.9120866141732282
11
5.6785826771653545
21
-3.9120866141732282
0
LINE
8
BLACK
6
CONTINUOUS
10
5.6785826771653545
20
-3.9120866141732282
11
5.6789593307086612
21
-3.912161535433071
0
LINE
8
BLACK
6
CONTINUOUS
10
5.6024015748031495
20
-3.9140551181102361
11
5.6024015748031495
21
-4.0459448818897634
0
LINE
8
BLACK
6
CONTINUOUS
10
5.6024015748031495
20
-4.0459448818897634
11
5.6775984251968499
21
-4.0459448818897634
0
LINE
8
BLACK
6
CONTINUOUS
10
5.6775984251968499
20
-4.0459448818897634
11
5.6775984251968499
21
-3.9140551181102361
0
LINE
8
BLACK
6
CONTINUOUS
10
5.6775984251968499
20
-3.9140551181102361
11
5.6024015748031495
21
-3.9140551181102361
0
LINE
8
BLACK
6
CONTINUOUS
10
5.9189593307086614
20
-3.912161535433071
11
5.9194920078740152
21
-3.9126942125984252
0
LINE
8
BLACK
6
CONTINUOUS
10
5.9194920078740152
20
-3.9126942125984252
11
5.9195669291338584
21
-3.9130708661417324
0
LINE
8
BLACK
6
CONTINUOUS
10
5.9195669291338584
20
-3.9130708661417324
11
5.9195669291338584
21
-4.046929133858268
0
LINE
8
BLACK
6
CONTINUOUS
10
5.9195669291338584
20
-4.046929133858268
11
5.9194920078740152
21
-4.0473057874015748
0
LINE
8
BLACK
6
CONTINUOUS
10
5.9194920078740152
20
-4.0473057874015748
11
5.9189593307086614
21
-4.0478384645669294
0
LINE
8
BLACK
6
CONTINUOUS
10
5.9189593307086614
20
-4.0478384645669294
11
5.9185826771653538
21
-4.0479133858267717
0
LINE
8
BLACK
6
CONTINUOUS
10
5.9185826771653538
20
-4.0479133858267717
11
5.8414173228346451
21
-4.0479133858267717
0
LINE
8
BLACK
6
CONTINUOUS
10
5.8414173228346451
20
-4.0479133858267717
11
5.8410406692913384
21
-4.0478384645669294
0
LINE
8
BLACK
6
CONTINUOUS
10
5.8410406692913384
20
-4.0478384645669294
11
5.8405079921259837
21
-4.0473057874015748
0
LINE
8
BLACK
6
CONTINUOUS
10
5.8405079921259837
20
-4.0473057874015748
11
5.8404330708661414
21
-4.046929133858268
0
LINE
8
BLACK
6
CONTINUOUS
10
5.8404330708661414
20
-4.046929133858268
11
5.8404330708661414
21
-3.9130708661417324
0
LINE
8
BLACK
6
CONTINUOUS
10
5.8404330708661414
20
-3.9130708661417324
11
5.8405079921259837
21
-3.9126942125984252
0
LINE
8
BLACK
6
CONTINUOUS
10
5.8405079921259837
20
-3.9126942125984252
11
5.8410406692913384
21
-3.912161535433071
0
LINE
8
BLACK
6
CONTINUOUS
10
5.8410406692913384
20
-3.912161535433071
11
5.8414173228346451
21
-3.9120866141732282
0
LINE
8
BLACK
6
CONTINUOUS
10
5.8414173228346451
20
-3.9120866141732282
11
5.9185826771653538
21
-3.9120866141732282
0
LINE
8
BLACK
6
CONTINUOUS
10
5.9185826771653538
20
-3.9120866141732282
11
5.9189593307086614
21
-3.912161535433071
0
LINE
8
BLACK
6
CONTINUOUS
10
5.8424015748031497
20
-3.9140551181102361
11
5.8424015748031497
21
-4.0459448818897634
0
LINE
8
BLACK
6
CONTINUOUS
10
5.8424015748031497
20
-4.0459448818897634
11
5.9175984251968501
21
-4.0459448818897634
0
LINE
8
BLACK
6
CONTINUOUS
10
5.9175984251968501
20
-4.0459448818897634
11
5.9175984251968501
21
-3.9140551181102361
0
LINE
8
BLACK
6
CONTINUOUS
10
5.9175984251968501
20
-3.9140551181102361
11
5.8424015748031497
21
-3.9140551181102361
0
LINE
8
BLACK
6
CONTINUOUS
10
6.0189593307086611
20
-3.912161535433071
11
6.0194920078740157
21
-3.9126942125984252
0
LINE
8
BLACK
6
CONTINUOUS
10
6.0194920078740157
20
-3.9126942125984252
11
6.019566929133858
21
-3.9130708661417324
0
LINE
8
BLACK
6
CONTINUOUS
10
6.019566929133858
20
-3.9130708661417324
11
6.019566929133858
21
-4.046929133858268
0
LINE
8
BLACK
6
CONTINUOUS
10
6.019566929133858
20
-4.046929133858268
11
6.0194920078740157
21
-4.0473057874015748
0
LINE
8
BLACK
6
CONTINUOUS
10
6.0194920078740157
20
-4.0473057874015748
11
6.0189593307086611
21
-4.0478384645669294
0
LINE
8
BLACK
6
CONTINUOUS
10
6.0189593307086611
20
-4.0478384645669294
11
6.0185826771653543
21
-4.0479133858267717
0
LINE
8
BLACK
6
CONTINUOUS
10
6.0185826771653543
20
-4.0479133858267717
11
5.9414173228346456
21
-4.0479133858267717
0
LINE
8
BLACK
6
CONTINUOUS
10
5.9414173228346456
20
-4.0479133858267717
11
5.941040669291338
21
-4.0478384645669294
0
LINE
8
BLACK
6
CONTINUOUS
10
5.941040669291338
20
-4.0478384645669294
11
5.9405079921259842
21
-4.0473057874015748
0
LINE
8
BLACK
6
CONTINUOUS
10
5.9405079921259842
20
-4.0473057874015748
11
5.9404330708661419
21
-4.046929133858268
0
LINE
8
BLACK
6
CONTINUOUS
10
5.9404330708661419
20
-4.046929133858268
11
5.9404330708661419
21
-3.9130708661417324
0
LINE
8
BLACK
6
CONTINUOUS
10
5.9404330708661419
20
-3.9130708661417324
11
5.9405079921259842
21
-3.9126942125984252
0
LINE
8
BLACK
6
CONTINUOUS
10
5.9405079921259842
20
-3.9126942125984252
11
5.941040669291338
21
-3.912161535433071
0
LINE
8
BLACK
6
CONTINUOUS
10
5.941040669291338
20
-3.912161535433071
11
5.9414173228346456
21
-3.9120866141732282
0
LINE
8
BLACK
6
CONTINUOUS
10
5.9414173228346456
20
-3.9120866141732282
11
6.0185826771653543
21
-3.9120866141732282
0
LINE
8
BLACK
6
CONTINUOUS
10
6.0185826771653543
20
-3.9120866141732282
11
6.0189593307086611
21
-3.912161535433071
0
LINE
8
BLACK
6
CONTINUOUS
10
5.9424015748031493
20
-3.9140551181102361
11
5.9424015748031493
21
-4.0459448818897634
0
LINE
8
BLACK
6
CONTINUOUS
10
5.9424015748031493
20
-4.0459448818897634
11
6.0175984251968506
21
-4.0459448818897634
0
LINE
8
BLACK
6
CONTINUOUS
10
6.0175984251968506
20
-4.0459448818897634
11
6.0175984251968506
21
-3.9140551181102361
0
LINE
8
BLACK
6
CONTINUOUS
10
6.0175984251968506
20
-3.9140551181102361
11
5.9424015748031493
21
-3.9140551181102361
0
LINE
8
BLACK
6
CONTINUOUS
10
6.6277782283464566
20
-3.9129489370078741
11
6.6283109055118112
21
-3.9134816141732283
0
LINE
8
BLACK
6
CONTINUOUS
10
6.6283109055118112
20
-3.9134816141732283
11
6.6283858267716536
21
-3.9138582677165354
0
LINE
8
BLACK
6
CONTINUOUS
10
6.6283858267716536
20
-3.9138582677165354
11
6.6283858267716536
21
-4.0461417322834645
0
LINE
8
BLACK
6
CONTINUOUS
10
6.6283858267716536
20
-4.0461417322834645
11
6.6283109055118112
21
-4.0465183858267713
0
LINE
8
BLACK
6
CONTINUOUS
10
6.6283109055118112
20
-4.0465183858267713
11
6.6277782283464566
21
-4.0470510629921259
0
LINE
8
BLACK
6
CONTINUOUS
10
6.6277782283464566
20
-4.0470510629921259
11
6.6274015748031498
21
-4.0471259842519682
0
LINE
8
BLACK
6
CONTINUOUS
10
6.6274015748031498
20
-4.0471259842519682
11
6.5525984251968499
21
-4.0471259842519682
0
LINE
8
BLACK
6
CONTINUOUS
10
6.5525984251968499
20
-4.0471259842519682
11
6.5522217716535431
21
-4.0470510629921259
0
LINE
8
BLACK
6
CONTINUOUS
10
6.5522217716535431
20
-4.0470510629921259
11
6.5516890944881885
21
-4.0465183858267713
0
LINE
8
BLACK
6
CONTINUOUS
10
6.5516890944881885
20
-4.0465183858267713
11
6.5516141732283462
21
-4.0461417322834645
0
LINE
8
BLACK
6
CONTINUOUS
10
6.5516141732283462
20
-4.0461417322834645
11
6.5516141732283462
21
-3.9138582677165354
0
LINE
8
BLACK
6
CONTINUOUS
10
6.5516141732283462
20
-3.9138582677165354
11
6.5516890944881885
21
-3.9134816141732283
0
LINE
8
BLACK
6
CONTINUOUS
10
6.5516890944881885
20
-3.9134816141732283
11
6.5522217716535431
21
-3.9129489370078741
0
LINE
8
BLACK
6
CONTINUOUS
10
6.5522217716535431
20
-3.9129489370078741
11
6.5525984251968499
21
-3.9128740157480313
0
LINE
8
BLACK
6
CONTINUOUS
10
6.5525984251968499
20
-3.9128740157480313
11
6.6274015748031498
21
-3.9128740157480313
0
LINE
8
BLACK
6
CONTINUOUS
10
6.6274015748031498
20
-3.9128740157480313
11
6.6277782283464566
21
-3.9129489370078741
0
LINE
8
BLACK
6
CONTINUOUS
10
6.5535826771653545
20
-3.9148425196850392
11
6.5535826771653545
21
-4.0451574803149608
0
LINE
8
BLACK
6
CONTINUOUS
10
6.5535826771653545
20
-4.0451574803149608
11
6.6264173228346452
21
-4.0451574803149608
0
LINE
8
BLACK
6
CONTINUOUS
10
6.6264173228346452
20
-4.0451574803149608
11
6.6264173228346452
21
-3.9148425196850392
0
LINE
8
BLACK
6
CONTINUOUS
10
6.6264173228346452
20
-3.9148425196850392
11
6.5535826771653545
21
-3.9148425196850392
0
LINE
8
BLACK
6
CONTINUOUS
10
6.1495892519685036
20
-3.9615316141732282
11
6.1501219291338582
21
-3.9620642913385824
0
LINE
8
BLACK
6
CONTINUOUS
10
6.1501219291338582
20
-3.9620642913385824
11
6.1501968503937006
21
-3.9624409448818896
0
LINE
8
BLACK
6
CONTINUOUS
10
6.1501968503937006
20
-3.9624409448818896
11
6.1501968503937006
21
-4.0175590551181104
0
LINE
8
BLACK
6
CONTINUOUS
10
6.1501968503937006
20
-4.0175590551181104
11
6.1501219291338582
21
-4.0179357086614171
0
LINE
8
BLACK
6
CONTINUOUS
10
6.1501219291338582
20
-4.0179357086614171
11
6.1495892519685036
21
-4.0184683858267718
0
LINE
8
BLACK
6
CONTINUOUS
10
6.1495892519685036
20
-4.0184683858267718
11
6.1492125984251969
21
-4.0185433070866141
0
LINE
8
BLACK
6
CONTINUOUS
10
6.1492125984251969
20
-4.0185433070866141
11
6.0507874015748033
21
-4.0185433070866141
0
LINE
8
BLACK
6
CONTINUOUS
10
6.0507874015748033
20
-4.0185433070866141
11
6.0504107480314957
21
-4.0184683858267718
0
LINE
8
BLACK
6
CONTINUOUS
10
6.0504107480314957
20
-4.0184683858267718
11
6.0498780708661419
21
-4.0179357086614171
0
LINE
8
BLACK
6
CONTINUOUS
10
6.0498780708661419
20
-4.0179357086614171
11
6.0498031496062987
21
-4.0175590551181104
0
LINE
8
BLACK
6
CONTINUOUS
10
6.0498031496062987
20
-4.0175590551181104
11
6.0498031496062987
21
-3.9624409448818896
0
LINE
8
BLACK
6
CONTINUOUS
10
6.0498031496062987
20
-3.9624409448818896
11
6.0498780708661419
21
-3.9620642913385824
0
LINE
8
BLACK
6
CONTINUOUS
10
6.0498780708661419
20
-3.9620642913385824
11
6.0504107480314957
21
-3.9615316141732282
0
LINE
8
BLACK
6
CONTINUOUS
10
6.0504107480314957
20
-3.9615316141732282
11
6.0507874015748033
21
-3.9614566929133859
0
LINE
8
BLACK
6
CONTINUOUS
10
6.0507874015748033
20
-3.9614566929133859
11
6.1492125984251969
21
-3.9614566929133859
0
LINE
8
BLACK
6
CONTINUOUS
10
6.1492125984251969
20
-3.9614566929133859
11
6.1495892519685036
21
-3.9615316141732282
0
LINE
8
BLACK
6
CONTINUOUS
10
6.051771653543307
20
-3.9634251968503937
11
6.051771653543307
21
-4.0165748031496058
0
LINE
8
BLACK
6
CONTINUOUS
10
6.051771653543307
20
-4.0165748031496058
11
6.1482283464566931
21
-4.0165748031496058
0
LINE
8
BLACK
6
CONTINUOUS
10
6.1482283464566931
20
-4.0165748031496058
11
6.1482283464566931
21
-3.9634251968503937
0
LINE
8
BLACK
6
CONTINUOUS
10
6.1482283464566931
20
-3.9634251968503937
11
6.051771653543307
21
-3.9634251968503937
0
CIRCLE
8
BLACK
10
6.71
20
-4.1647244094488185
40
0.0068897637795276
0
CIRCLE
8
BLACK
10
6.8099999999999996
20
-4.1647244094488185
40
0.0068897637795276
0
CIRCLE
8
BLACK
10
6.71
20
-3.9647244094488188
40
0.0068897637795276
0
CIRCLE
8
BLACK
10
6.8099999999999996
20
-3.9647244094488188
40
0.0068897637795276
0
CIRCLE
8
BLACK
10
6.71
20
-4.0647244094488189
40
0.0068897637795276
0
CIRCLE
8
BLACK
10
6.8099999999999996
20
-4.0647244094488189
40
0.0068897637795276
0
CIRCLE
8
BLACK
10
6.71
20
-4.264724409448819
40
0.0068897637795276
0
CIRCLE
8
BLACK
10
6.8099999999999996
20
-4.264724409448819
40
0.0068897637795276
0
CIRCLE
8
BLACK
10
6.71
20
-4.3647244094488187
40
0.0068897637795276
0
CIRCLE
8
BLACK
10
6.8099999999999996
20
-4.3647244094488187
40
0.0068897637795276
  0
ENDSEC
  0
EOF
