  0
SECTION
  2
HEADER
  9
$ANGBASE
  50
0.0
  9
$ANGDIR
  70
1
  9
$MEASUREMENT
  70
0
  0
ENDSEC
  0
SECTION
  2
TABLES
  0
TABLE
  2
LTYPE
  70
4
  0
LTYPE
  5
40F
  2
CONTINUOUS
  70
0
  3
Solid line
  72
65
  73
0
  40
0.0
  0
LTYPE
  5
410
  2
DASHDOT
 70
0
  3
Dash Dot ____ _ ____ _
 72
65
 73
4
 40
2.0
 49
1.25
 49
-0.25
 49
0.25
 49
-0.25
  0
LTYPE
  5
411
  2
DASHED
 70
0
  3
Dashed __ __ __ __ __
 72
65
 73
2
 40
0.75
 49
0.5
 49
-0.25
  0
LTYPE
  5
43B
  2
DOTTED
 70
0
  3
Dotted .  .  .  .
 72
65
 73
2
 40
0.2
 49
0.0
 49
-0.2
  0
ENDTAB
  0
TABLE
  2
STYLE
  70
4
  0
STYLE
  2
KICAD
  70
0
  40
0
  41
1
  42
1
  50
0
  71
0
  3
isocp.shx
  0
STYLE
  2
KICADB
  70
0
  40
0
  41
1
  42
1
  50
0
  71
0
  3
isocp.shx
  0
STYLE
  2
KICADI
  70
0
  40
0
  41
1
  42
1
  50
15
  71
0
  3
isocp.shx
  0
STYLE
  2
KICADBI
  70
0
  40
0
  41
1
  42
1
  50
15
  71
0
  3
isocp.shx
  0
ENDTAB
  0
TABLE
  2
LAYER
  70
1
  0
LAYER
  2
BLACK
  70
0
  62
7
  6
CONTINUOUS
  0
ENDTAB
  0
ENDSEC
  0
SECTION
  2
ENTITIES
0
LINE
8
BLACK
6
CONTINUOUS
10
0.880433
20
0.0520472
11
0.809567
21
0.0520472
0
LINE
8
BLACK
6
CONTINUOUS
10
0.809567
20
0.0520472
11
0.809567
21
0.150472
0
LINE
8
BLACK
6
CONTINUOUS
10
0.809567
20
0.150472
11
0.880433
21
0.150472
0
LINE
8
BLACK
6
CONTINUOUS
10
0.880433
20
0.150472
11
0.880433
21
0.0520472
0
LINE
8
BLACK
6
CONTINUOUS
10
0.880433
20
0.209528
11
0.809567
21
0.209528
0
LINE
8
BLACK
6
CONTINUOUS
10
0.809567
20
0.209528
11
0.809567
21
0.307953
0
LINE
8
BLACK
6
CONTINUOUS
10
0.809567
20
0.307953
11
0.880433
21
0.307953
0
LINE
8
BLACK
6
CONTINUOUS
10
0.880433
20
0.307953
11
0.880433
21
0.209528
0
LINE
8
BLACK
6
CONTINUOUS
10
0.7725
20
0.3625
11
0.7175
21
0.3625
0
LINE
8
BLACK
6
CONTINUOUS
10
0.7175
20
0.3625
11
0.7175
21
0.3975
0
LINE
8
BLACK
6
CONTINUOUS
10
0.7175
20
0.3975
11
0.7725
21
0.3975
0
LINE
8
BLACK
6
CONTINUOUS
10
0.7725
20
0.3975
11
0.7725
21
0.3625
0
LINE
8
BLACK
6
CONTINUOUS
10
0.6825
20
0.37
11
0.6475
21
0.37
0
LINE
8
BLACK
6
CONTINUOUS
10
0.6475
20
0.37
11
0.6475
21
0.425
0
LINE
8
BLACK
6
CONTINUOUS
10
0.6475
20
0.425
11
0.6825
21
0.425
0
LINE
8
BLACK
6
CONTINUOUS
10
0.6825
20
0.425
11
0.6825
21
0.37
0
LINE
8
BLACK
6
CONTINUOUS
10
0.6075
20
0.37
11
0.5725
21
0.37
0
LINE
8
BLACK
6
CONTINUOUS
10
0.5725
20
0.37
11
0.5725
21
0.425
0
LINE
8
BLACK
6
CONTINUOUS
10
0.5725
20
0.425
11
0.6075
21
0.425
0
LINE
8
BLACK
6
CONTINUOUS
10
0.6075
20
0.425
11
0.6075
21
0.37
0
LINE
8
BLACK
6
CONTINUOUS
10
1.1346
20
0.3708
11
1.0342
21
0.3708
0
LINE
8
BLACK
6
CONTINUOUS
10
1.0342
20
0.3708
11
1.0342
21
0.4692
0
LINE
8
BLACK
6
CONTINUOUS
10
1.0342
20
0.4692
11
1.1346
21
0.4692
0
LINE
8
BLACK
6
CONTINUOUS
10
1.1346
20
0.4692
11
1.1346
21
0.3708
0
LINE
8
BLACK
6
CONTINUOUS
10
0.9358
20
0.3708
11
0.8354
21
0.3708
0
LINE
8
BLACK
6
CONTINUOUS
10
0.8354
20
0.3708
11
0.8354
21
0.4692
0
LINE
8
BLACK
6
CONTINUOUS
10
0.8354
20
0.4692
11
0.9358
21
0.4692
0
LINE
8
BLACK
6
CONTINUOUS
10
0.9358
20
0.4692
11
0.9358
21
0.3708
0
LINE
8
BLACK
6
CONTINUOUS
10
0.7725
20
0.4375
11
0.7175
21
0.4375
0
LINE
8
BLACK
6
CONTINUOUS
10
0.7175
20
0.4375
11
0.7175
21
0.4725
0
LINE
8
BLACK
6
CONTINUOUS
10
0.7175
20
0.4725
11
0.7725
21
0.4725
0
LINE
8
BLACK
6
CONTINUOUS
10
0.7725
20
0.4725
11
0.7725
21
0.4375
0
LINE
8
BLACK
6
CONTINUOUS
10
0.2925
20
0.4875
11
0.2375
21
0.4875
0
LINE
8
BLACK
6
CONTINUOUS
10
0.2375
20
0.4875
11
0.2375
21
0.5225
0
LINE
8
BLACK
6
CONTINUOUS
10
0.2375
20
0.5225
11
0.2925
21
0.5225
0
LINE
8
BLACK
6
CONTINUOUS
10
0.2925
20
0.5225
11
0.2925
21
0.4875
0
LINE
8
BLACK
6
CONTINUOUS
10
0.7675
20
0.4925
11
0.7325
21
0.4925
0
LINE
8
BLACK
6
CONTINUOUS
10
0.7325
20
0.4925
11
0.7325
21
0.5475
0
LINE
8
BLACK
6
CONTINUOUS
10
0.7325
20
0.5475
11
0.7675
21
0.5475
0
LINE
8
BLACK
6
CONTINUOUS
10
0.7675
20
0.5475
11
0.7675
21
0.4925
0
LINE
8
BLACK
6
CONTINUOUS
10
0.8425
20
0.4925
11
0.8075
21
0.4925
0
LINE
8
BLACK
6
CONTINUOUS
10
0.8075
20
0.4925
11
0.8075
21
0.5475
0
LINE
8
BLACK
6
CONTINUOUS
10
0.8075
20
0.5475
11
0.8425
21
0.5475
0
LINE
8
BLACK
6
CONTINUOUS
10
0.8425
20
0.5475
11
0.8425
21
0.4925
0
LINE
8
BLACK
6
CONTINUOUS
10
0.5325
20
0.5075
11
0.4775
21
0.5075
0
LINE
8
BLACK
6
CONTINUOUS
10
0.4775
20
0.5075
11
0.4775
21
0.5425
0
LINE
8
BLACK
6
CONTINUOUS
10
0.4775
20
0.5425
11
0.5325
21
0.5425
0
LINE
8
BLACK
6
CONTINUOUS
10
0.5325
20
0.5425
11
0.5325
21
0.5075
0
LINE
8
BLACK
6
CONTINUOUS
10
0.6925
20
0.5075
11
0.6375
21
0.5075
0
LINE
8
BLACK
6
CONTINUOUS
10
0.6375
20
0.5075
11
0.6375
21
0.5425
0
LINE
8
BLACK
6
CONTINUOUS
10
0.6375
20
0.5425
11
0.6925
21
0.5425
0
LINE
8
BLACK
6
CONTINUOUS
10
0.6925
20
0.5425
11
0.6925
21
0.5075
0
LINE
8
BLACK
6
CONTINUOUS
10
0.6125
20
0.5075
11
0.5575
21
0.5075
0
LINE
8
BLACK
6
CONTINUOUS
10
0.5575
20
0.5075
11
0.5575
21
0.5425
0
LINE
8
BLACK
6
CONTINUOUS
10
0.5575
20
0.5425
11
0.6125
21
0.5425
0
LINE
8
BLACK
6
CONTINUOUS
10
0.6125
20
0.5425
11
0.6125
21
0.5075
0
LINE
8
BLACK
6
CONTINUOUS
10
0.2925
20
0.5625
11
0.2375
21
0.5625
0
LINE
8
BLACK
6
CONTINUOUS
10
0.2375
20
0.5625
11
0.2375
21
0.5975
0
LINE
8
BLACK
6
CONTINUOUS
10
0.2375
20
0.5975
11
0.2925
21
0.5975
0
LINE
8
BLACK
6
CONTINUOUS
10
0.2925
20
0.5975
11
0.2925
21
0.5625
0
LINE
8
BLACK
6
CONTINUOUS
10
0.3675
20
0.5725
11
0.3325
21
0.5725
0
LINE
8
BLACK
6
CONTINUOUS
10
0.3325
20
0.5725
11
0.3325
21
0.6275
0
LINE
8
BLACK
6
CONTINUOUS
10
0.3325
20
0.6275
11
0.3675
21
0.6275
0
LINE
8
BLACK
6
CONTINUOUS
10
0.3675
20
0.6275
11
0.3675
21
0.5725
0
LINE
8
BLACK
6
CONTINUOUS
10
0.4425
20
0.5725
11
0.4075
21
0.5725
0
LINE
8
BLACK
6
CONTINUOUS
10
0.4075
20
0.5725
11
0.4075
21
0.6275
0
LINE
8
BLACK
6
CONTINUOUS
10
0.4075
20
0.6275
11
0.4425
21
0.6275
0
LINE
8
BLACK
6
CONTINUOUS
10
0.4425
20
0.6275
11
0.4425
21
0.5725
0
LINE
8
BLACK
6
CONTINUOUS
10
0.8425
20
0.5725
11
0.8075
21
0.5725
0
LINE
8
BLACK
6
CONTINUOUS
10
0.8075
20
0.5725
11
0.8075
21
0.6275
0
LINE
8
BLACK
6
CONTINUOUS
10
0.8075
20
0.6275
11
0.8425
21
0.6275
0
LINE
8
BLACK
6
CONTINUOUS
10
0.8425
20
0.6275
11
0.8425
21
0.5725
0
LINE
8
BLACK
6
CONTINUOUS
10
0.7675
20
0.5725
11
0.7325
21
0.5725
0
LINE
8
BLACK
6
CONTINUOUS
10
0.7325
20
0.5725
11
0.7325
21
0.6275
0
LINE
8
BLACK
6
CONTINUOUS
10
0.7325
20
0.6275
11
0.7675
21
0.6275
0
LINE
8
BLACK
6
CONTINUOUS
10
0.7675
20
0.6275
11
0.7675
21
0.5725
0
LINE
8
BLACK
6
CONTINUOUS
10
0.6925
20
0.5825
11
0.6375
21
0.5825
0
LINE
8
BLACK
6
CONTINUOUS
10
0.6375
20
0.5825
11
0.6375
21
0.6175
0
LINE
8
BLACK
6
CONTINUOUS
10
0.6375
20
0.6175
11
0.6925
21
0.6175
0
LINE
8
BLACK
6
CONTINUOUS
10
0.6925
20
0.6175
11
0.6925
21
0.5825
0
LINE
8
BLACK
6
CONTINUOUS
10
0.6125
20
0.5825
11
0.5575
21
0.5825
0
LINE
8
BLACK
6
CONTINUOUS
10
0.5575
20
0.5825
11
0.5575
21
0.6175
0
LINE
8
BLACK
6
CONTINUOUS
10
0.5575
20
0.6175
11
0.6125
21
0.6175
0
LINE
8
BLACK
6
CONTINUOUS
10
0.6125
20
0.6175
11
0.6125
21
0.5825
0
LINE
8
BLACK
6
CONTINUOUS
10
0.5325
20
0.5825
11
0.4775
21
0.5825
0
LINE
8
BLACK
6
CONTINUOUS
10
0.4775
20
0.5825
11
0.4775
21
0.6175
0
LINE
8
BLACK
6
CONTINUOUS
10
0.4775
20
0.6175
11
0.5325
21
0.6175
0
LINE
8
BLACK
6
CONTINUOUS
10
0.5325
20
0.6175
11
0.5325
21
0.5825
0
LINE
8
BLACK
6
CONTINUOUS
10
0.665866
20
0.669803
11
0.624134
21
0.669803
0
LINE
8
BLACK
6
CONTINUOUS
10
0.624134
20
0.669803
11
0.624134
21
0.695394
0
LINE
8
BLACK
6
CONTINUOUS
10
0.624134
20
0.695394
11
0.665866
21
0.695394
0
LINE
8
BLACK
6
CONTINUOUS
10
0.665866
20
0.695394
11
0.665866
21
0.669803
0
LINE
8
BLACK
6
CONTINUOUS
10
0.75248
20
0.669803
11
0.710748
21
0.669803
0
LINE
8
BLACK
6
CONTINUOUS
10
0.710748
20
0.669803
11
0.710748
21
0.695394
0
LINE
8
BLACK
6
CONTINUOUS
10
0.710748
20
0.695394
11
0.75248
21
0.695394
0
LINE
8
BLACK
6
CONTINUOUS
10
0.75248
20
0.695394
11
0.75248
21
0.669803
0
LINE
8
BLACK
6
CONTINUOUS
10
0.8225
20
0.6925
11
0.7875
21
0.6925
0
LINE
8
BLACK
6
CONTINUOUS
10
0.7875
20
0.6925
11
0.7875
21
0.7475
0
LINE
8
BLACK
6
CONTINUOUS
10
0.7875
20
0.7475
11
0.8225
21
0.7475
0
LINE
8
BLACK
6
CONTINUOUS
10
0.8225
20
0.7475
11
0.8225
21
0.6925
0
LINE
8
BLACK
6
CONTINUOUS
10
0.8975
20
0.6925
11
0.8625
21
0.6925
0
LINE
8
BLACK
6
CONTINUOUS
10
0.8625
20
0.6925
11
0.8625
21
0.7475
0
LINE
8
BLACK
6
CONTINUOUS
10
0.8625
20
0.7475
11
0.8975
21
0.7475
0
LINE
8
BLACK
6
CONTINUOUS
10
0.8975
20
0.7475
11
0.8975
21
0.6925
0
LINE
8
BLACK
6
CONTINUOUS
10
0.75248
20
0.707205
11
0.710748
21
0.707205
0
LINE
8
BLACK
6
CONTINUOUS
10
0.710748
20
0.707205
11
0.710748
21
0.732795
0
LINE
8
BLACK
6
CONTINUOUS
10
0.710748
20
0.732795
11
0.75248
21
0.732795
0
LINE
8
BLACK
6
CONTINUOUS
10
0.75248
20
0.732795
11
0.75248
21
0.707205
0
LINE
8
BLACK
6
CONTINUOUS
10
0.665866
20
0.707205
11
0.624134
21
0.707205
0
LINE
8
BLACK
6
CONTINUOUS
10
0.624134
20
0.707205
11
0.624134
21
0.732795
0
LINE
8
BLACK
6
CONTINUOUS
10
0.624134
20
0.732795
11
0.665866
21
0.732795
0
LINE
8
BLACK
6
CONTINUOUS
10
0.665866
20
0.732795
11
0.665866
21
0.707205
0
LINE
8
BLACK
6
CONTINUOUS
10
0.5525
20
0.7275
11
0.4975
21
0.7275
0
LINE
8
BLACK
6
CONTINUOUS
10
0.4975
20
0.7275
11
0.4975
21
0.7625
0
LINE
8
BLACK
6
CONTINUOUS
10
0.4975
20
0.7625
11
0.5525
21
0.7625
0
LINE
8
BLACK
6
CONTINUOUS
10
0.5525
20
0.7625
11
0.5525
21
0.7275
0
LINE
8
BLACK
6
CONTINUOUS
10
0.665866
20
0.744606
11
0.624134
21
0.744606
0
LINE
8
BLACK
6
CONTINUOUS
10
0.624134
20
0.744606
11
0.624134
21
0.770197
0
LINE
8
BLACK
6
CONTINUOUS
10
0.624134
20
0.770197
11
0.665866
21
0.770197
0
LINE
8
BLACK
6
CONTINUOUS
10
0.665866
20
0.770197
11
0.665866
21
0.744606
0
LINE
8
BLACK
6
CONTINUOUS
10
0.75248
20
0.744606
11
0.710748
21
0.744606
0
LINE
8
BLACK
6
CONTINUOUS
10
0.710748
20
0.744606
11
0.710748
21
0.770197
0
LINE
8
BLACK
6
CONTINUOUS
10
0.710748
20
0.770197
11
0.75248
21
0.770197
0
LINE
8
BLACK
6
CONTINUOUS
10
0.75248
20
0.770197
11
0.75248
21
0.744606
0
LINE
8
BLACK
6
CONTINUOUS
10
0.5525
20
0.8025
11
0.4975
21
0.8025
0
LINE
8
BLACK
6
CONTINUOUS
10
0.4975
20
0.8025
11
0.4975
21
0.8375
0
LINE
8
BLACK
6
CONTINUOUS
10
0.4975
20
0.8375
11
0.5525
21
0.8375
0
LINE
8
BLACK
6
CONTINUOUS
10
0.5525
20
0.8375
11
0.5525
21
0.8025
0
LINE
8
BLACK
6
CONTINUOUS
10
0.7975
20
0.8125
11
0.7625
21
0.8125
0
LINE
8
BLACK
6
CONTINUOUS
10
0.7625
20
0.8125
11
0.7625
21
0.8675
0
LINE
8
BLACK
6
CONTINUOUS
10
0.7625
20
0.8675
11
0.7975
21
0.8675
0
LINE
8
BLACK
6
CONTINUOUS
10
0.7975
20
0.8675
11
0.7975
21
0.8125
0
LINE
8
BLACK
6
CONTINUOUS
10
0.7225
20
0.8125
11
0.6875
21
0.8125
0
LINE
8
BLACK
6
CONTINUOUS
10
0.6875
20
0.8125
11
0.6875
21
0.8675
0
LINE
8
BLACK
6
CONTINUOUS
10
0.6875
20
0.8675
11
0.7225
21
0.8675
0
LINE
8
BLACK
6
CONTINUOUS
10
0.7225
20
0.8675
11
0.7225
21
0.8125
0
LINE
8
BLACK
6
CONTINUOUS
10
0.8925
20
0.8225
11
0.8375
21
0.8225
0
LINE
8
BLACK
6
CONTINUOUS
10
0.8375
20
0.8225
11
0.8375
21
0.8575
0
LINE
8
BLACK
6
CONTINUOUS
10
0.8375
20
0.8575
11
0.8925
21
0.8575
0
LINE
8
BLACK
6
CONTINUOUS
10
0.8925
20
0.8575
11
0.8925
21
0.8225
0
LINE
8
BLACK
6
CONTINUOUS
10
0.8925
20
0.8975
11
0.8375
21
0.8975
0
LINE
8
BLACK
6
CONTINUOUS
10
0.8375
20
0.8975
11
0.8375
21
0.9325
0
LINE
8
BLACK
6
CONTINUOUS
10
0.8375
20
0.9325
11
0.8925
21
0.9325
0
LINE
8
BLACK
6
CONTINUOUS
10
0.8925
20
0.9325
11
0.8925
21
0.8975
0
LINE
8
BLACK
6
CONTINUOUS
10
0.4025
20
0.9525
11
0.3675
21
0.9525
0
LINE
8
BLACK
6
CONTINUOUS
10
0.3675
20
0.9525
11
0.3675
21
1.0075
0
LINE
8
BLACK
6
CONTINUOUS
10
0.3675
20
1.0075
11
0.4025
21
1.0075
0
LINE
8
BLACK
6
CONTINUOUS
10
0.4025
20
1.0075
11
0.4025
21
0.9525
0
LINE
8
BLACK
6
CONTINUOUS
10
0.4775
20
0.9525
11
0.4425
21
0.9525
0
LINE
8
BLACK
6
CONTINUOUS
10
0.4425
20
0.9525
11
0.4425
21
1.0075
0
LINE
8
BLACK
6
CONTINUOUS
10
0.4425
20
1.0075
11
0.4775
21
1.0075
0
LINE
8
BLACK
6
CONTINUOUS
10
0.4775
20
1.0075
11
0.4775
21
0.9525
0
LINE
8
BLACK
6
CONTINUOUS
10
0.834528
20
0.960945
11
0.775472
21
0.960945
0
LINE
8
BLACK
6
CONTINUOUS
10
0.775472
20
0.960945
11
0.775472
21
1.07906
0
LINE
8
BLACK
6
CONTINUOUS
10
0.775472
20
1.07906
11
0.834528
21
1.07906
0
LINE
8
BLACK
6
CONTINUOUS
10
0.834528
20
1.07906
11
0.834528
21
0.960945
0
LINE
8
BLACK
6
CONTINUOUS
10
0.747733
20
1.05468
11
0.750931
21
1.05255
0
LINE
8
BLACK
6
CONTINUOUS
10
0.750931
20
1.05255
11
0.753068
21
1.04935
0
LINE
8
BLACK
6
CONTINUOUS
10
0.753068
20
1.04935
11
0.753819
21
1.04557
0
LINE
8
BLACK
6
CONTINUOUS
10
0.753819
20
1.04557
11
0.753819
21
0.994426
0
LINE
8
BLACK
6
CONTINUOUS
10
0.753819
20
0.994426
11
0.753068
21
0.990653
0
LINE
8
BLACK
6
CONTINUOUS
10
0.753068
20
0.990653
11
0.750931
21
0.987455
0
LINE
8
BLACK
6
CONTINUOUS
10
0.750931
20
0.987455
11
0.747733
21
0.985317
0
LINE
8
BLACK
6
CONTINUOUS
10
0.747733
20
0.985317
11
0.74396
21
0.984567
0
LINE
8
BLACK
6
CONTINUOUS
10
0.74396
20
0.984567
11
0.70167
21
0.984567
0
LINE
8
BLACK
6
CONTINUOUS
10
0.70167
20
0.984567
11
0.697897
21
0.985317
0
LINE
8
BLACK
6
CONTINUOUS
10
0.697897
20
0.985317
11
0.694699
21
0.987455
0
LINE
8
BLACK
6
CONTINUOUS
10
0.694699
20
0.987455
11
0.692561
21
0.990653
0
LINE
8
BLACK
6
CONTINUOUS
10
0.692561
20
0.990653
11
0.691811
21
0.994426
0
LINE
8
BLACK
6
CONTINUOUS
10
0.691811
20
0.994426
11
0.691811
21
1.04557
0
LINE
8
BLACK
6
CONTINUOUS
10
0.691811
20
1.04557
11
0.692561
21
1.04935
0
LINE
8
BLACK
6
CONTINUOUS
10
0.692561
20
1.04935
11
0.694699
21
1.05255
0
LINE
8
BLACK
6
CONTINUOUS
10
0.694699
20
1.05255
11
0.697897
21
1.05468
0
LINE
8
BLACK
6
CONTINUOUS
10
0.697897
20
1.05468
11
0.70167
21
1.05543
0
LINE
8
BLACK
6
CONTINUOUS
10
0.70167
20
1.05543
11
0.74396
21
1.05543
0
LINE
8
BLACK
6
CONTINUOUS
10
0.74396
20
1.05543
11
0.747733
21
1.05468
0
LINE
8
BLACK
6
CONTINUOUS
10
0.912113
20
1.05468
11
0.915306
21
1.05255
0
LINE
8
BLACK
6
CONTINUOUS
10
0.915306
20
1.05255
11
0.91744
21
1.04936
0
LINE
8
BLACK
6
CONTINUOUS
10
0.91744
20
1.04936
11
0.918189
21
1.04559
0
LINE
8
BLACK
6
CONTINUOUS
10
0.918189
20
1.04559
11
0.918189
21
0.994409
0
LINE
8
BLACK
6
CONTINUOUS
10
0.918189
20
0.994409
11
0.91744
21
0.990643
0
LINE
8
BLACK
6
CONTINUOUS
10
0.91744
20
0.990643
11
0.915306
21
0.98745
0
LINE
8
BLACK
6
CONTINUOUS
10
0.915306
20
0.98745
11
0.912113
21
0.985316
0
LINE
8
BLACK
6
CONTINUOUS
10
0.912113
20
0.985316
11
0.908346
21
0.984567
0
LINE
8
BLACK
6
CONTINUOUS
10
0.908346
20
0.984567
11
0.866024
21
0.984567
0
LINE
8
BLACK
6
CONTINUOUS
10
0.866024
20
0.984567
11
0.862257
21
0.985316
0
LINE
8
BLACK
6
CONTINUOUS
10
0.862257
20
0.985316
11
0.859064
21
0.98745
0
LINE
8
BLACK
6
CONTINUOUS
10
0.859064
20
0.98745
11
0.85693
21
0.990643
0
LINE
8
BLACK
6
CONTINUOUS
10
0.85693
20
0.990643
11
0.856181
21
0.994409
0
LINE
8
BLACK
6
CONTINUOUS
10
0.856181
20
0.994409
11
0.856181
21
1.04559
0
LINE
8
BLACK
6
CONTINUOUS
10
0.856181
20
1.04559
11
0.85693
21
1.04936
0
LINE
8
BLACK
6
CONTINUOUS
10
0.85693
20
1.04936
11
0.859064
21
1.05255
0
LINE
8
BLACK
6
CONTINUOUS
10
0.859064
20
1.05255
11
0.862257
21
1.05468
0
LINE
8
BLACK
6
CONTINUOUS
10
0.862257
20
1.05468
11
0.866024
21
1.05543
0
LINE
8
BLACK
6
CONTINUOUS
10
0.866024
20
1.05543
11
0.908346
21
1.05543
0
LINE
8
BLACK
6
CONTINUOUS
10
0.908346
20
1.05543
11
0.912113
21
1.05468
0
LINE
8
BLACK
6
CONTINUOUS
10
0.3625
20
1.0525
11
0.3275
21
1.0525
0
LINE
8
BLACK
6
CONTINUOUS
10
0.3275
20
1.0525
11
0.3275
21
1.1075
0
LINE
8
BLACK
6
CONTINUOUS
10
0.3275
20
1.1075
11
0.3625
21
1.1075
0
LINE
8
BLACK
6
CONTINUOUS
10
0.3625
20
1.1075
11
0.3625
21
1.0525
0
LINE
8
BLACK
6
CONTINUOUS
10
0.4375
20
1.0525
11
0.4025
21
1.0525
0
LINE
8
BLACK
6
CONTINUOUS
10
0.4025
20
1.0525
11
0.4025
21
1.1075
0
LINE
8
BLACK
6
CONTINUOUS
10
0.4025
20
1.1075
11
0.4375
21
1.1075
0
LINE
8
BLACK
6
CONTINUOUS
10
0.4375
20
1.1075
11
0.4375
21
1.0525
0
LINE
8
BLACK
6
CONTINUOUS
10
0.62
20
1.0525
11
0.585
21
1.0525
0
LINE
8
BLACK
6
CONTINUOUS
10
0.585
20
1.0525
11
0.585
21
1.1075
0
LINE
8
BLACK
6
CONTINUOUS
10
0.585
20
1.1075
11
0.62
21
1.1075
0
LINE
8
BLACK
6
CONTINUOUS
10
0.62
20
1.1075
11
0.62
21
1.0525
0
LINE
8
BLACK
6
CONTINUOUS
10
0.545
20
1.0525
11
0.51
21
1.0525
0
LINE
8
BLACK
6
CONTINUOUS
10
0.51
20
1.0525
11
0.51
21
1.1075
0
LINE
8
BLACK
6
CONTINUOUS
10
0.51
20
1.1075
11
0.545
21
1.1075
0
LINE
8
BLACK
6
CONTINUOUS
10
0.545
20
1.1075
11
0.545
21
1.0525
0
LINE
8
BLACK
6
CONTINUOUS
10
0.7552
20
1.1314
11
0.6548
21
1.1314
0
LINE
8
BLACK
6
CONTINUOUS
10
0.6548
20
1.1314
11
0.6548
21
1.2298
0
LINE
8
BLACK
6
CONTINUOUS
10
0.6548
20
1.2298
11
0.7552
21
1.2298
0
LINE
8
BLACK
6
CONTINUOUS
10
0.7552
20
1.2298
11
0.7552
21
1.1314
0
LINE
8
BLACK
6
CONTINUOUS
10
0.954
20
1.1314
11
0.8536
21
1.1314
0
LINE
8
BLACK
6
CONTINUOUS
10
0.8536
20
1.1314
11
0.8536
21
1.2298
0
LINE
8
BLACK
6
CONTINUOUS
10
0.8536
20
1.2298
11
0.954
21
1.2298
0
LINE
8
BLACK
6
CONTINUOUS
10
0.954
20
1.2298
11
0.954
21
1.1314
0
LINE
8
BLACK
6
CONTINUOUS
10
0.4625
20
1.1725
11
0.4275
21
1.1725
0
LINE
8
BLACK
6
CONTINUOUS
10
0.4275
20
1.1725
11
0.4275
21
1.2275
0
LINE
8
BLACK
6
CONTINUOUS
10
0.4275
20
1.2275
11
0.4625
21
1.2275
0
LINE
8
BLACK
6
CONTINUOUS
10
0.4625
20
1.2275
11
0.4625
21
1.1725
0
LINE
8
BLACK
6
CONTINUOUS
10
0.3875
20
1.1725
11
0.3525
21
1.1725
0
LINE
8
BLACK
6
CONTINUOUS
10
0.3525
20
1.1725
11
0.3525
21
1.2275
0
LINE
8
BLACK
6
CONTINUOUS
10
0.3525
20
1.2275
11
0.3875
21
1.2275
0
LINE
8
BLACK
6
CONTINUOUS
10
0.3875
20
1.2275
11
0.3875
21
1.1725
0
LINE
8
BLACK
6
CONTINUOUS
10
0.5475
20
1.1725
11
0.5125
21
1.1725
0
LINE
8
BLACK
6
CONTINUOUS
10
0.5125
20
1.1725
11
0.5125
21
1.2275
0
LINE
8
BLACK
6
CONTINUOUS
10
0.5125
20
1.2275
11
0.5475
21
1.2275
0
LINE
8
BLACK
6
CONTINUOUS
10
0.5475
20
1.2275
11
0.5475
21
1.1725
0
LINE
8
BLACK
6
CONTINUOUS
10
0.6225
20
1.1725
11
0.5875
21
1.1725
0
LINE
8
BLACK
6
CONTINUOUS
10
0.5875
20
1.1725
11
0.5875
21
1.2275
0
LINE
8
BLACK
6
CONTINUOUS
10
0.5875
20
1.2275
11
0.6225
21
1.2275
0
LINE
8
BLACK
6
CONTINUOUS
10
0.6225
20
1.2275
11
0.6225
21
1.1725
0
LINE
8
BLACK
6
CONTINUOUS
10
0.8925
20
1.3075
11
0.8375
21
1.3075
0
LINE
8
BLACK
6
CONTINUOUS
10
0.8375
20
1.3075
11
0.8375
21
1.3425
0
LINE
8
BLACK
6
CONTINUOUS
10
0.8375
20
1.3425
11
0.8925
21
1.3425
0
LINE
8
BLACK
6
CONTINUOUS
10
0.8925
20
1.3425
11
0.8925
21
1.3075
0
LINE
8
BLACK
6
CONTINUOUS
10
0.8925
20
1.3825
11
0.8375
21
1.3825
0
LINE
8
BLACK
6
CONTINUOUS
10
0.8375
20
1.3825
11
0.8375
21
1.4175
0
LINE
8
BLACK
6
CONTINUOUS
10
0.8375
20
1.4175
11
0.8925
21
1.4175
0
LINE
8
BLACK
6
CONTINUOUS
10
0.8925
20
1.4175
11
0.8925
21
1.3825
  0
ENDSEC
  0
EOF
