  0
SECTION
  2
HEADER
  9
$ANGBASE
  50
0.0
  9
$ANGDIR
  70
1
  9
$MEASUREMENT
  70
0
  0
ENDSEC
  0
SECTION
  2
TABLES
  0
TABLE
  2
LTYPE
  70
4
  0
LTYPE
  5
40F
  2
CONTINUOUS
  70
0
  3
Solid line
  72
65
  73
0
  40
0.0
  0
LTYPE
  5
410
  2
DASHDOT
 70
0
  3
Dash Dot ____ _ ____ _
 72
65
 73
4
 40
2.0
 49
1.25
 49
-0.25
 49
0.25
 49
-0.25
  0
LTYPE
  5
411
  2
DASHED
 70
0
  3
Dashed __ __ __ __ __
 72
65
 73
2
 40
0.75
 49
0.5
 49
-0.25
  0
LTYPE
  5
43B
  2
DOTTED
 70
0
  3
Dotted .  .  .  .
 72
65
 73
2
 40
0.2
 49
0.0
 49
-0.2
  0
ENDTAB
  0
TABLE
  2
STYLE
  70
4
  0
STYLE
  2
KICAD
  70
0
  40
0
  41
1
  42
1
  50
0
  71
0
  3
isocp.shx
  0
STYLE
  2
KICADB
  70
0
  40
0
  41
1
  42
1
  50
0
  71
0
  3
isocp.shx
  0
STYLE
  2
KICADI
  70
0
  40
0
  41
1
  42
1
  50
15
  71
0
  3
isocp.shx
  0
STYLE
  2
KICADBI
  70
0
  40
0
  41
1
  42
1
  50
15
  71
0
  3
isocp.shx
  0
ENDTAB
  0
TABLE
  2
LAYER
  70
1
  0
LAYER
  2
BLACK
  70
0
  62
7
  6
CONTINUOUS
  0
ENDTAB
  0
ENDSEC
  0
SECTION
  2
ENTITIES
0
LINE
8
BLACK
6
CONTINUOUS
10
0.21365
20
0.317793
11
0.227132
21
0.316018
0
LINE
8
BLACK
6
CONTINUOUS
10
0.227132
20
0.316018
11
0.24032
21
0.312706
0
LINE
8
BLACK
6
CONTINUOUS
10
0.24032
20
0.312706
11
0.25304
21
0.307899
0
LINE
8
BLACK
6
CONTINUOUS
10
0.25304
20
0.307899
11
0.265123
21
0.301662
0
LINE
8
BLACK
6
CONTINUOUS
10
0.265123
20
0.301662
11
0.276409
21
0.294078
0
LINE
8
BLACK
6
CONTINUOUS
10
0.276409
20
0.294078
11
0.286749
21
0.285247
0
LINE
8
BLACK
6
CONTINUOUS
10
0.286749
20
0.285247
11
0.296006
21
0.275286
0
LINE
8
BLACK
6
CONTINUOUS
10
0.296006
20
0.275286
11
0.304056
21
0.264327
0
LINE
8
BLACK
6
CONTINUOUS
10
0.304056
20
0.264327
11
0.310793
21
0.252516
0
LINE
8
BLACK
6
CONTINUOUS
10
0.310793
20
0.252516
11
0.316128
21
0.240008
0
LINE
8
BLACK
6
CONTINUOUS
10
0.316128
20
0.240008
11
0.31999
21
0.226971
0
LINE
8
BLACK
6
CONTINUOUS
10
0.31999
20
0.226971
11
0.322327
21
0.213575
0
LINE
8
BLACK
6
CONTINUOUS
10
0.322327
20
0.213575
11
0.32311
21
0.2
0
LINE
8
BLACK
6
CONTINUOUS
10
0.32311
20
0.2
11
0.322877
21
0.192584
0
LINE
8
BLACK
6
CONTINUOUS
10
0.322877
20
0.192584
11
0.321244
21
0.179084
0
LINE
8
BLACK
6
CONTINUOUS
10
0.321244
20
0.179084
11
0.318069
21
0.165862
0
LINE
8
BLACK
6
CONTINUOUS
10
0.318069
20
0.165862
11
0.313396
21
0.153093
0
LINE
8
BLACK
6
CONTINUOUS
10
0.313396
20
0.153093
11
0.307286
21
0.140945
0
LINE
8
BLACK
6
CONTINUOUS
10
0.307286
20
0.140945
11
0.299821
21
0.12958
0
LINE
8
BLACK
6
CONTINUOUS
10
0.299821
20
0.12958
11
0.291099
21
0.119148
0
LINE
8
BLACK
6
CONTINUOUS
10
0.291099
20
0.119148
11
0.281235
21
0.109788
0
LINE
8
BLACK
6
CONTINUOUS
10
0.281235
20
0.109788
11
0.270361
21
0.101623
0
LINE
8
BLACK
6
CONTINUOUS
10
0.270361
20
0.101623
11
0.258621
21
0.094763
0
LINE
8
BLACK
6
CONTINUOUS
10
0.258621
20
0.094763
11
0.24617
21
0.0892974
0
LINE
8
BLACK
6
CONTINUOUS
10
0.24617
20
0.0892974
11
0.233173
21
0.0852991
0
LINE
8
BLACK
6
CONTINUOUS
10
0.233173
20
0.0852991
11
0.219803
21
0.0828211
0
LINE
8
BLACK
6
CONTINUOUS
10
0.219803
20
0.0828211
11
0.206237
21
0.0818962
0
LINE
8
BLACK
6
CONTINUOUS
10
0.206237
20
0.0818962
11
0.192654
21
0.0825368
0
LINE
8
BLACK
6
CONTINUOUS
10
0.192654
20
0.0825368
11
0.179235
21
0.0847343
0
LINE
8
BLACK
6
CONTINUOUS
10
0.179235
20
0.0847343
11
0.166157
21
0.0884595
0
LINE
8
BLACK
6
CONTINUOUS
10
0.166157
20
0.0884595
11
0.153595
21
0.0936631
0
LINE
8
BLACK
6
CONTINUOUS
10
0.153595
20
0.0936631
11
0.141713
21
0.100276
0
LINE
8
BLACK
6
CONTINUOUS
10
0.141713
20
0.100276
11
0.130671
21
0.108211
0
LINE
8
BLACK
6
CONTINUOUS
10
0.130671
20
0.108211
11
0.120613
21
0.117363
0
LINE
8
BLACK
6
CONTINUOUS
10
0.120613
20
0.117363
11
0.111675
21
0.127609
0
LINE
8
BLACK
6
CONTINUOUS
10
0.111675
20
0.127609
11
0.103973
21
0.138816
0
LINE
8
BLACK
6
CONTINUOUS
10
0.103973
20
0.138816
11
0.0976099
21
0.150833
0
LINE
8
BLACK
6
CONTINUOUS
10
0.0976099
20
0.150833
11
0.0926705
21
0.163502
0
LINE
8
BLACK
6
CONTINUOUS
10
0.0926705
20
0.163502
11
0.0892199
21
0.176655
0
LINE
8
BLACK
6
CONTINUOUS
10
0.0892199
20
0.176655
11
0.087304
21
0.190117
0
LINE
8
BLACK
6
CONTINUOUS
10
0.087304
20
0.190117
11
0.086948
21
0.20371
0
LINE
8
BLACK
6
CONTINUOUS
10
0.086948
20
0.20371
11
0.0881568
21
0.217254
0
LINE
8
BLACK
6
CONTINUOUS
10
0.0881568
20
0.217254
11
0.0909143
21
0.230569
0
LINE
8
BLACK
6
CONTINUOUS
10
0.0909143
20
0.230569
11
0.0951839
21
0.243479
0
LINE
8
BLACK
6
CONTINUOUS
10
0.0951839
20
0.243479
11
0.100909
21
0.255813
0
LINE
8
BLACK
6
CONTINUOUS
10
0.100909
20
0.255813
11
0.108014
21
0.267407
0
LINE
8
BLACK
6
CONTINUOUS
10
0.108014
20
0.267407
11
0.116404
21
0.278108
0
LINE
8
BLACK
6
CONTINUOUS
10
0.116404
20
0.278108
11
0.125969
21
0.287773
0
LINE
8
BLACK
6
CONTINUOUS
10
0.125969
20
0.287773
11
0.136581
21
0.296275
0
LINE
8
BLACK
6
CONTINUOUS
10
0.136581
20
0.296275
11
0.1481
21
0.303501
0
LINE
8
BLACK
6
CONTINUOUS
10
0.1481
20
0.303501
11
0.160373
21
0.309355
0
LINE
8
BLACK
6
CONTINUOUS
10
0.160373
20
0.309355
11
0.173238
21
0.313759
0
LINE
8
BLACK
6
CONTINUOUS
10
0.173238
20
0.313759
11
0.186524
21
0.316656
0
LINE
8
BLACK
6
CONTINUOUS
10
0.186524
20
0.316656
11
0.200054
21
0.318007
0
LINE
8
BLACK
6
CONTINUOUS
10
0.200054
20
0.318007
11
0.21365
21
0.317793
0
LINE
8
BLACK
6
CONTINUOUS
10
0.61365
20
0.317793
11
0.627132
21
0.316018
0
LINE
8
BLACK
6
CONTINUOUS
10
0.627132
20
0.316018
11
0.64032
21
0.312706
0
LINE
8
BLACK
6
CONTINUOUS
10
0.64032
20
0.312706
11
0.65304
21
0.307899
0
LINE
8
BLACK
6
CONTINUOUS
10
0.65304
20
0.307899
11
0.665123
21
0.301662
0
LINE
8
BLACK
6
CONTINUOUS
10
0.665123
20
0.301662
11
0.676409
21
0.294078
0
LINE
8
BLACK
6
CONTINUOUS
10
0.676409
20
0.294078
11
0.686749
21
0.285247
0
LINE
8
BLACK
6
CONTINUOUS
10
0.686749
20
0.285247
11
0.696006
21
0.275286
0
LINE
8
BLACK
6
CONTINUOUS
10
0.696006
20
0.275286
11
0.704056
21
0.264327
0
LINE
8
BLACK
6
CONTINUOUS
10
0.704056
20
0.264327
11
0.710793
21
0.252516
0
LINE
8
BLACK
6
CONTINUOUS
10
0.710793
20
0.252516
11
0.716128
21
0.240008
0
LINE
8
BLACK
6
CONTINUOUS
10
0.716128
20
0.240008
11
0.71999
21
0.226971
0
LINE
8
BLACK
6
CONTINUOUS
10
0.71999
20
0.226971
11
0.722327
21
0.213575
0
LINE
8
BLACK
6
CONTINUOUS
10
0.722327
20
0.213575
11
0.72311
21
0.2
0
LINE
8
BLACK
6
CONTINUOUS
10
0.72311
20
0.2
11
0.722877
21
0.192584
0
LINE
8
BLACK
6
CONTINUOUS
10
0.722877
20
0.192584
11
0.721244
21
0.179084
0
LINE
8
BLACK
6
CONTINUOUS
10
0.721244
20
0.179084
11
0.718069
21
0.165862
0
LINE
8
BLACK
6
CONTINUOUS
10
0.718069
20
0.165862
11
0.713396
21
0.153093
0
LINE
8
BLACK
6
CONTINUOUS
10
0.713396
20
0.153093
11
0.707286
21
0.140945
0
LINE
8
BLACK
6
CONTINUOUS
10
0.707286
20
0.140945
11
0.699821
21
0.12958
0
LINE
8
BLACK
6
CONTINUOUS
10
0.699821
20
0.12958
11
0.691099
21
0.119148
0
LINE
8
BLACK
6
CONTINUOUS
10
0.691099
20
0.119148
11
0.681235
21
0.109788
0
LINE
8
BLACK
6
CONTINUOUS
10
0.681235
20
0.109788
11
0.670361
21
0.101623
0
LINE
8
BLACK
6
CONTINUOUS
10
0.670361
20
0.101623
11
0.658621
21
0.094763
0
LINE
8
BLACK
6
CONTINUOUS
10
0.658621
20
0.094763
11
0.64617
21
0.0892974
0
LINE
8
BLACK
6
CONTINUOUS
10
0.64617
20
0.0892974
11
0.633173
21
0.0852991
0
LINE
8
BLACK
6
CONTINUOUS
10
0.633173
20
0.0852991
11
0.619803
21
0.0828211
0
LINE
8
BLACK
6
CONTINUOUS
10
0.619803
20
0.0828211
11
0.606237
21
0.0818962
0
LINE
8
BLACK
6
CONTINUOUS
10
0.606237
20
0.0818962
11
0.592654
21
0.0825368
0
LINE
8
BLACK
6
CONTINUOUS
10
0.592654
20
0.0825368
11
0.579235
21
0.0847343
0
LINE
8
BLACK
6
CONTINUOUS
10
0.579235
20
0.0847343
11
0.566157
21
0.0884595
0
LINE
8
BLACK
6
CONTINUOUS
10
0.566157
20
0.0884595
11
0.553595
21
0.0936631
0
LINE
8
BLACK
6
CONTINUOUS
10
0.553595
20
0.0936631
11
0.541713
21
0.100276
0
LINE
8
BLACK
6
CONTINUOUS
10
0.541713
20
0.100276
11
0.530671
21
0.108211
0
LINE
8
BLACK
6
CONTINUOUS
10
0.530671
20
0.108211
11
0.520613
21
0.117363
0
LINE
8
BLACK
6
CONTINUOUS
10
0.520613
20
0.117363
11
0.511675
21
0.127609
0
LINE
8
BLACK
6
CONTINUOUS
10
0.511675
20
0.127609
11
0.503973
21
0.138816
0
LINE
8
BLACK
6
CONTINUOUS
10
0.503973
20
0.138816
11
0.49761
21
0.150833
0
LINE
8
BLACK
6
CONTINUOUS
10
0.49761
20
0.150833
11
0.49267
21
0.163502
0
LINE
8
BLACK
6
CONTINUOUS
10
0.49267
20
0.163502
11
0.48922
21
0.176655
0
LINE
8
BLACK
6
CONTINUOUS
10
0.48922
20
0.176655
11
0.487304
21
0.190117
0
LINE
8
BLACK
6
CONTINUOUS
10
0.487304
20
0.190117
11
0.486948
21
0.20371
0
LINE
8
BLACK
6
CONTINUOUS
10
0.486948
20
0.20371
11
0.488157
21
0.217254
0
LINE
8
BLACK
6
CONTINUOUS
10
0.488157
20
0.217254
11
0.490914
21
0.230569
0
LINE
8
BLACK
6
CONTINUOUS
10
0.490914
20
0.230569
11
0.495184
21
0.243479
0
LINE
8
BLACK
6
CONTINUOUS
10
0.495184
20
0.243479
11
0.500909
21
0.255813
0
LINE
8
BLACK
6
CONTINUOUS
10
0.500909
20
0.255813
11
0.508014
21
0.267407
0
LINE
8
BLACK
6
CONTINUOUS
10
0.508014
20
0.267407
11
0.516404
21
0.278108
0
LINE
8
BLACK
6
CONTINUOUS
10
0.516404
20
0.278108
11
0.525969
21
0.287773
0
LINE
8
BLACK
6
CONTINUOUS
10
0.525969
20
0.287773
11
0.536581
21
0.296275
0
LINE
8
BLACK
6
CONTINUOUS
10
0.536581
20
0.296275
11
0.5481
21
0.303501
0
LINE
8
BLACK
6
CONTINUOUS
10
0.5481
20
0.303501
11
0.560373
21
0.309355
0
LINE
8
BLACK
6
CONTINUOUS
10
0.560373
20
0.309355
11
0.573238
21
0.313759
0
LINE
8
BLACK
6
CONTINUOUS
10
0.573238
20
0.313759
11
0.586524
21
0.316656
0
LINE
8
BLACK
6
CONTINUOUS
10
0.586524
20
0.316656
11
0.600054
21
0.318007
0
LINE
8
BLACK
6
CONTINUOUS
10
0.600054
20
0.318007
11
0.61365
21
0.317793
0
LINE
8
BLACK
6
CONTINUOUS
10
0.21365
20
1.51779
11
0.227132
21
1.51602
0
LINE
8
BLACK
6
CONTINUOUS
10
0.227132
20
1.51602
11
0.24032
21
1.51271
0
LINE
8
BLACK
6
CONTINUOUS
10
0.24032
20
1.51271
11
0.25304
21
1.5079
0
LINE
8
BLACK
6
CONTINUOUS
10
0.25304
20
1.5079
11
0.265123
21
1.50166
0
LINE
8
BLACK
6
CONTINUOUS
10
0.265123
20
1.50166
11
0.276409
21
1.49408
0
LINE
8
BLACK
6
CONTINUOUS
10
0.276409
20
1.49408
11
0.286749
21
1.48525
0
LINE
8
BLACK
6
CONTINUOUS
10
0.286749
20
1.48525
11
0.296006
21
1.47529
0
LINE
8
BLACK
6
CONTINUOUS
10
0.296006
20
1.47529
11
0.304056
21
1.46433
0
LINE
8
BLACK
6
CONTINUOUS
10
0.304056
20
1.46433
11
0.310793
21
1.45252
0
LINE
8
BLACK
6
CONTINUOUS
10
0.310793
20
1.45252
11
0.316128
21
1.44001
0
LINE
8
BLACK
6
CONTINUOUS
10
0.316128
20
1.44001
11
0.31999
21
1.42697
0
LINE
8
BLACK
6
CONTINUOUS
10
0.31999
20
1.42697
11
0.322327
21
1.41358
0
LINE
8
BLACK
6
CONTINUOUS
10
0.322327
20
1.41358
11
0.32311
21
1.4
0
LINE
8
BLACK
6
CONTINUOUS
10
0.32311
20
1.4
11
0.322877
21
1.39258
0
LINE
8
BLACK
6
CONTINUOUS
10
0.322877
20
1.39258
11
0.321244
21
1.37908
0
LINE
8
BLACK
6
CONTINUOUS
10
0.321244
20
1.37908
11
0.318069
21
1.36586
0
LINE
8
BLACK
6
CONTINUOUS
10
0.318069
20
1.36586
11
0.313396
21
1.35309
0
LINE
8
BLACK
6
CONTINUOUS
10
0.313396
20
1.35309
11
0.307286
21
1.34094
0
LINE
8
BLACK
6
CONTINUOUS
10
0.307286
20
1.34094
11
0.299821
21
1.32958
0
LINE
8
BLACK
6
CONTINUOUS
10
0.299821
20
1.32958
11
0.291099
21
1.31915
0
LINE
8
BLACK
6
CONTINUOUS
10
0.291099
20
1.31915
11
0.281235
21
1.30979
0
LINE
8
BLACK
6
CONTINUOUS
10
0.281235
20
1.30979
11
0.270361
21
1.30162
0
LINE
8
BLACK
6
CONTINUOUS
10
0.270361
20
1.30162
11
0.258621
21
1.29476
0
LINE
8
BLACK
6
CONTINUOUS
10
0.258621
20
1.29476
11
0.24617
21
1.2893
0
LINE
8
BLACK
6
CONTINUOUS
10
0.24617
20
1.2893
11
0.233173
21
1.2853
0
LINE
8
BLACK
6
CONTINUOUS
10
0.233173
20
1.2853
11
0.219803
21
1.28282
0
LINE
8
BLACK
6
CONTINUOUS
10
0.219803
20
1.28282
11
0.206237
21
1.2819
0
LINE
8
BLACK
6
CONTINUOUS
10
0.206237
20
1.2819
11
0.192654
21
1.28254
0
LINE
8
BLACK
6
CONTINUOUS
10
0.192654
20
1.28254
11
0.179235
21
1.28473
0
LINE
8
BLACK
6
CONTINUOUS
10
0.179235
20
1.28473
11
0.166157
21
1.28846
0
LINE
8
BLACK
6
CONTINUOUS
10
0.166157
20
1.28846
11
0.153595
21
1.29366
0
LINE
8
BLACK
6
CONTINUOUS
10
0.153595
20
1.29366
11
0.141713
21
1.30028
0
LINE
8
BLACK
6
CONTINUOUS
10
0.141713
20
1.30028
11
0.130671
21
1.30821
0
LINE
8
BLACK
6
CONTINUOUS
10
0.130671
20
1.30821
11
0.120613
21
1.31736
0
LINE
8
BLACK
6
CONTINUOUS
10
0.120613
20
1.31736
11
0.111675
21
1.32761
0
LINE
8
BLACK
6
CONTINUOUS
10
0.111675
20
1.32761
11
0.103973
21
1.33882
0
LINE
8
BLACK
6
CONTINUOUS
10
0.103973
20
1.33882
11
0.0976099
21
1.35083
0
LINE
8
BLACK
6
CONTINUOUS
10
0.0976099
20
1.35083
11
0.0926705
21
1.3635
0
LINE
8
BLACK
6
CONTINUOUS
10
0.0926705
20
1.3635
11
0.0892199
21
1.37665
0
LINE
8
BLACK
6
CONTINUOUS
10
0.0892199
20
1.37665
11
0.087304
21
1.39012
0
LINE
8
BLACK
6
CONTINUOUS
10
0.087304
20
1.39012
11
0.086948
21
1.40371
0
LINE
8
BLACK
6
CONTINUOUS
10
0.086948
20
1.40371
11
0.0881568
21
1.41725
0
LINE
8
BLACK
6
CONTINUOUS
10
0.0881568
20
1.41725
11
0.0909143
21
1.43057
0
LINE
8
BLACK
6
CONTINUOUS
10
0.0909143
20
1.43057
11
0.0951839
21
1.44348
0
LINE
8
BLACK
6
CONTINUOUS
10
0.0951839
20
1.44348
11
0.100909
21
1.45581
0
LINE
8
BLACK
6
CONTINUOUS
10
0.100909
20
1.45581
11
0.108014
21
1.46741
0
LINE
8
BLACK
6
CONTINUOUS
10
0.108014
20
1.46741
11
0.116404
21
1.47811
0
LINE
8
BLACK
6
CONTINUOUS
10
0.116404
20
1.47811
11
0.125969
21
1.48777
0
LINE
8
BLACK
6
CONTINUOUS
10
0.125969
20
1.48777
11
0.136581
21
1.49627
0
LINE
8
BLACK
6
CONTINUOUS
10
0.136581
20
1.49627
11
0.1481
21
1.5035
0
LINE
8
BLACK
6
CONTINUOUS
10
0.1481
20
1.5035
11
0.160373
21
1.50935
0
LINE
8
BLACK
6
CONTINUOUS
10
0.160373
20
1.50935
11
0.173238
21
1.51376
0
LINE
8
BLACK
6
CONTINUOUS
10
0.173238
20
1.51376
11
0.186524
21
1.51666
0
LINE
8
BLACK
6
CONTINUOUS
10
0.186524
20
1.51666
11
0.200054
21
1.51801
0
LINE
8
BLACK
6
CONTINUOUS
10
0.200054
20
1.51801
11
0.21365
21
1.51779
0
LINE
8
BLACK
6
CONTINUOUS
10
0.61365
20
1.51779
11
0.627132
21
1.51602
0
LINE
8
BLACK
6
CONTINUOUS
10
0.627132
20
1.51602
11
0.64032
21
1.51271
0
LINE
8
BLACK
6
CONTINUOUS
10
0.64032
20
1.51271
11
0.65304
21
1.5079
0
LINE
8
BLACK
6
CONTINUOUS
10
0.65304
20
1.5079
11
0.665123
21
1.50166
0
LINE
8
BLACK
6
CONTINUOUS
10
0.665123
20
1.50166
11
0.676409
21
1.49408
0
LINE
8
BLACK
6
CONTINUOUS
10
0.676409
20
1.49408
11
0.686749
21
1.48525
0
LINE
8
BLACK
6
CONTINUOUS
10
0.686749
20
1.48525
11
0.696006
21
1.47529
0
LINE
8
BLACK
6
CONTINUOUS
10
0.696006
20
1.47529
11
0.704056
21
1.46433
0
LINE
8
BLACK
6
CONTINUOUS
10
0.704056
20
1.46433
11
0.710793
21
1.45252
0
LINE
8
BLACK
6
CONTINUOUS
10
0.710793
20
1.45252
11
0.716128
21
1.44001
0
LINE
8
BLACK
6
CONTINUOUS
10
0.716128
20
1.44001
11
0.71999
21
1.42697
0
LINE
8
BLACK
6
CONTINUOUS
10
0.71999
20
1.42697
11
0.722327
21
1.41358
0
LINE
8
BLACK
6
CONTINUOUS
10
0.722327
20
1.41358
11
0.72311
21
1.4
0
LINE
8
BLACK
6
CONTINUOUS
10
0.72311
20
1.4
11
0.722877
21
1.39258
0
LINE
8
BLACK
6
CONTINUOUS
10
0.722877
20
1.39258
11
0.721244
21
1.37908
0
LINE
8
BLACK
6
CONTINUOUS
10
0.721244
20
1.37908
11
0.718069
21
1.36586
0
LINE
8
BLACK
6
CONTINUOUS
10
0.718069
20
1.36586
11
0.713396
21
1.35309
0
LINE
8
BLACK
6
CONTINUOUS
10
0.713396
20
1.35309
11
0.707286
21
1.34094
0
LINE
8
BLACK
6
CONTINUOUS
10
0.707286
20
1.34094
11
0.699821
21
1.32958
0
LINE
8
BLACK
6
CONTINUOUS
10
0.699821
20
1.32958
11
0.691099
21
1.31915
0
LINE
8
BLACK
6
CONTINUOUS
10
0.691099
20
1.31915
11
0.681235
21
1.30979
0
LINE
8
BLACK
6
CONTINUOUS
10
0.681235
20
1.30979
11
0.670361
21
1.30162
0
LINE
8
BLACK
6
CONTINUOUS
10
0.670361
20
1.30162
11
0.658621
21
1.29476
0
LINE
8
BLACK
6
CONTINUOUS
10
0.658621
20
1.29476
11
0.64617
21
1.2893
0
LINE
8
BLACK
6
CONTINUOUS
10
0.64617
20
1.2893
11
0.633173
21
1.2853
0
LINE
8
BLACK
6
CONTINUOUS
10
0.633173
20
1.2853
11
0.619803
21
1.28282
0
LINE
8
BLACK
6
CONTINUOUS
10
0.619803
20
1.28282
11
0.606237
21
1.2819
0
LINE
8
BLACK
6
CONTINUOUS
10
0.606237
20
1.2819
11
0.592654
21
1.28254
0
LINE
8
BLACK
6
CONTINUOUS
10
0.592654
20
1.28254
11
0.579235
21
1.28473
0
LINE
8
BLACK
6
CONTINUOUS
10
0.579235
20
1.28473
11
0.566157
21
1.28846
0
LINE
8
BLACK
6
CONTINUOUS
10
0.566157
20
1.28846
11
0.553595
21
1.29366
0
LINE
8
BLACK
6
CONTINUOUS
10
0.553595
20
1.29366
11
0.541713
21
1.30028
0
LINE
8
BLACK
6
CONTINUOUS
10
0.541713
20
1.30028
11
0.530671
21
1.30821
0
LINE
8
BLACK
6
CONTINUOUS
10
0.530671
20
1.30821
11
0.520613
21
1.31736
0
LINE
8
BLACK
6
CONTINUOUS
10
0.520613
20
1.31736
11
0.511675
21
1.32761
0
LINE
8
BLACK
6
CONTINUOUS
10
0.511675
20
1.32761
11
0.503973
21
1.33882
0
LINE
8
BLACK
6
CONTINUOUS
10
0.503973
20
1.33882
11
0.49761
21
1.35083
0
LINE
8
BLACK
6
CONTINUOUS
10
0.49761
20
1.35083
11
0.49267
21
1.3635
0
LINE
8
BLACK
6
CONTINUOUS
10
0.49267
20
1.3635
11
0.48922
21
1.37665
0
LINE
8
BLACK
6
CONTINUOUS
10
0.48922
20
1.37665
11
0.487304
21
1.39012
0
LINE
8
BLACK
6
CONTINUOUS
10
0.487304
20
1.39012
11
0.486948
21
1.40371
0
LINE
8
BLACK
6
CONTINUOUS
10
0.486948
20
1.40371
11
0.488157
21
1.41725
0
LINE
8
BLACK
6
CONTINUOUS
10
0.488157
20
1.41725
11
0.490914
21
1.43057
0
LINE
8
BLACK
6
CONTINUOUS
10
0.490914
20
1.43057
11
0.495184
21
1.44348
0
LINE
8
BLACK
6
CONTINUOUS
10
0.495184
20
1.44348
11
0.500909
21
1.45581
0
LINE
8
BLACK
6
CONTINUOUS
10
0.500909
20
1.45581
11
0.508014
21
1.46741
0
LINE
8
BLACK
6
CONTINUOUS
10
0.508014
20
1.46741
11
0.516404
21
1.47811
0
LINE
8
BLACK
6
CONTINUOUS
10
0.516404
20
1.47811
11
0.525969
21
1.48777
0
LINE
8
BLACK
6
CONTINUOUS
10
0.525969
20
1.48777
11
0.536581
21
1.49627
0
LINE
8
BLACK
6
CONTINUOUS
10
0.536581
20
1.49627
11
0.5481
21
1.5035
0
LINE
8
BLACK
6
CONTINUOUS
10
0.5481
20
1.5035
11
0.560373
21
1.50935
0
LINE
8
BLACK
6
CONTINUOUS
10
0.560373
20
1.50935
11
0.573238
21
1.51376
0
LINE
8
BLACK
6
CONTINUOUS
10
0.573238
20
1.51376
11
0.586524
21
1.51666
0
LINE
8
BLACK
6
CONTINUOUS
10
0.586524
20
1.51666
11
0.600054
21
1.51801
0
LINE
8
BLACK
6
CONTINUOUS
10
0.600054
20
1.51801
11
0.61365
21
1.51779
  0
ENDSEC
  0
EOF
