  0
SECTION
  2
HEADER
  9
$ANGBASE
  50
0.0
  9
$ANGDIR
  70
1
  9
$MEASUREMENT
  70
0
  0
ENDSEC
  0
SECTION
  2
TABLES
  0
TABLE
  2
LTYPE
  70
4
  0
LTYPE
  5
40F
  2
CONTINUOUS
  70
0
  3
Solid line
  72
65
  73
0
  40
0.0
  0
LTYPE
  5
410
  2
DASHDOT
 70
0
  3
Dash Dot ____ _ ____ _
 72
65
 73
4
 40
2.0
 49
1.25
 49
-0.25
 49
0.25
 49
-0.25
  0
LTYPE
  5
411
  2
DASHED
 70
0
  3
Dashed __ __ __ __ __
 72
65
 73
2
 40
0.75
 49
0.5
 49
-0.25
  0
LTYPE
  5
43B
  2
DOTTED
 70
0
  3
Dotted .  .  .  .
 72
65
 73
2
 40
0.2
 49
0.0
 49
-0.2
  0
ENDTAB
  0
TABLE
  2
STYLE
  70
4
  0
STYLE
  2
KICAD
  70
0
  40
0
  41
1
  42
1
  50
0
  71
0
  3
isocp.shx
  0
STYLE
  2
KICADB
  70
0
  40
0
  41
1
  42
1
  50
0
  71
0
  3
isocp.shx
  0
STYLE
  2
KICADI
  70
0
  40
0
  41
1
  42
1
  50
15
  71
0
  3
isocp.shx
  0
STYLE
  2
KICADBI
  70
0
  40
0
  41
1
  42
1
  50
15
  71
0
  3
isocp.shx
  0
ENDTAB
  0
TABLE
  2
LAYER
  70
1
  0
LAYER
  2
BLACK
  70
0
  62
7
  6
CONTINUOUS
  0
ENDTAB
  0
ENDSEC
  0
SECTION
  2
ENTITIES
0
LINE
8
BLACK
6
CONTINUOUS
10
0.0204922
20
0.568568
11
0.0226046
21
0.570398
0
LINE
8
BLACK
6
CONTINUOUS
10
0.0226046
20
0.570398
11
0.0246654
21
0.570846
0
LINE
8
BLACK
6
CONTINUOUS
10
0.0246654
20
0.570846
11
2.33754
21
0.570846
0
LINE
8
BLACK
6
CONTINUOUS
10
2.33754
20
0.570846
11
2.34022
21
0.570059
0
LINE
8
BLACK
6
CONTINUOUS
10
2.34022
20
0.570059
11
2.34205
21
0.567947
0
LINE
8
BLACK
6
CONTINUOUS
10
2.34205
20
0.567947
11
2.3425
21
0.565886
0
LINE
8
BLACK
6
CONTINUOUS
10
2.3425
20
0.565886
11
2.3425
21
0.0246654
0
LINE
8
BLACK
6
CONTINUOUS
10
2.3425
20
0.0246654
11
2.34171
21
0.0219834
0
LINE
8
BLACK
6
CONTINUOUS
10
2.34171
20
0.0219834
11
2.3396
21
0.020153
0
LINE
8
BLACK
6
CONTINUOUS
10
2.3396
20
0.020153
11
2.33754
21
0.0197047
0
LINE
8
BLACK
6
CONTINUOUS
10
2.33754
20
0.0197047
11
0.0246654
21
0.0197047
0
LINE
8
BLACK
6
CONTINUOUS
10
0.0246654
20
0.0197047
11
0.0219834
21
0.0204922
0
LINE
8
BLACK
6
CONTINUOUS
10
0.0219834
20
0.0204922
11
0.020153
21
0.0226046
0
LINE
8
BLACK
6
CONTINUOUS
10
0.020153
20
0.0226046
11
0.0197047
21
0.0246654
0
LINE
8
BLACK
6
CONTINUOUS
10
0.0197047
20
0.0246654
11
0.0197047
21
0.565886
0
LINE
8
BLACK
6
CONTINUOUS
10
0.0197047
20
0.565886
11
0.0204922
21
0.568568
0
LINE
8
BLACK
6
CONTINUOUS
10
0.511708
20
0.231136
11
0.511477
21
0.231656
0
LINE
8
BLACK
6
CONTINUOUS
10
0.511477
20
0.231656
11
0.510105
21
0.234745
0
LINE
8
BLACK
6
CONTINUOUS
10
0.510105
20
0.234745
11
0.509919
21
0.235164
0
LINE
8
BLACK
6
CONTINUOUS
10
0.509919
20
0.235164
11
0.5068
21
0.238277
0
LINE
8
BLACK
6
CONTINUOUS
10
0.5068
20
0.238277
11
0.506381
21
0.238462
0
LINE
8
BLACK
6
CONTINUOUS
10
0.506381
20
0.238462
11
0.506381
21
0.238462
0
LINE
8
BLACK
6
CONTINUOUS
10
0.506381
20
0.238462
11
0.504037
21
0.239499
0
LINE
8
BLACK
6
CONTINUOUS
10
0.504037
20
0.239499
11
0.502769
21
0.240059
0
LINE
8
BLACK
6
CONTINUOUS
10
0.502769
20
0.240059
11
0.501758
21
0.240177
0
LINE
8
BLACK
6
CONTINUOUS
10
0.501758
20
0.240177
11
0.360447
21
0.240177
0
LINE
8
BLACK
6
CONTINUOUS
10
0.360447
20
0.240177
11
0.360301
21
0.24016
0
LINE
8
BLACK
6
CONTINUOUS
10
0.360301
20
0.24016
11
0.360301
21
0.24016
0
LINE
8
BLACK
6
CONTINUOUS
10
0.360301
20
0.24016
11
0.36001
21
0.240125
0
LINE
8
BLACK
6
CONTINUOUS
10
0.36001
20
0.240125
11
0.359416
21
0.240054
0
LINE
8
BLACK
6
CONTINUOUS
10
0.359416
20
0.240054
11
0.355388
21
0.238265
0
LINE
8
BLACK
6
CONTINUOUS
10
0.355388
20
0.238265
11
0.355064
21
0.237941
0
LINE
8
BLACK
6
CONTINUOUS
10
0.355064
20
0.237941
11
0.355064
21
0.237941
0
LINE
8
BLACK
6
CONTINUOUS
10
0.355064
20
0.237941
11
0.354152
21
0.237028
0
LINE
8
BLACK
6
CONTINUOUS
10
0.354152
20
0.237028
11
0.352274
21
0.235146
0
LINE
8
BLACK
6
CONTINUOUS
10
0.352274
20
0.235146
11
0.350492
21
0.231115
0
LINE
8
BLACK
6
CONTINUOUS
10
0.350492
20
0.231115
11
0.350374
21
0.230104
0
LINE
8
BLACK
6
CONTINUOUS
10
0.350374
20
0.230104
11
0.350374
21
0.0887935
0
LINE
8
BLACK
6
CONTINUOUS
10
0.350374
20
0.0887935
11
0.350497
21
0.087762
0
LINE
8
BLACK
6
CONTINUOUS
10
0.350497
20
0.087762
11
0.352286
21
0.0837341
0
LINE
8
BLACK
6
CONTINUOUS
10
0.352286
20
0.0837341
11
0.355405
21
0.0806204
0
LINE
8
BLACK
6
CONTINUOUS
10
0.355405
20
0.0806204
11
0.355824
21
0.0804353
0
LINE
8
BLACK
6
CONTINUOUS
10
0.355824
20
0.0804353
11
0.355824
21
0.0804352
0
LINE
8
BLACK
6
CONTINUOUS
10
0.355824
20
0.0804352
11
0.358168
21
0.079399
0
LINE
8
BLACK
6
CONTINUOUS
10
0.358168
20
0.079399
11
0.359436
21
0.0788383
0
LINE
8
BLACK
6
CONTINUOUS
10
0.359436
20
0.0788383
11
0.360447
21
0.0787205
0
LINE
8
BLACK
6
CONTINUOUS
10
0.360447
20
0.0787205
11
0.501758
21
0.0787205
0
LINE
8
BLACK
6
CONTINUOUS
10
0.501758
20
0.0787205
11
0.501904
21
0.0787378
0
LINE
8
BLACK
6
CONTINUOUS
10
0.501904
20
0.0787378
11
0.501904
21
0.0787378
0
LINE
8
BLACK
6
CONTINUOUS
10
0.501904
20
0.0787378
11
0.502195
21
0.0787725
0
LINE
8
BLACK
6
CONTINUOUS
10
0.502195
20
0.0787725
11
0.502789
21
0.0788432
0
LINE
8
BLACK
6
CONTINUOUS
10
0.502789
20
0.0788432
11
0.506817
21
0.0806323
0
LINE
8
BLACK
6
CONTINUOUS
10
0.506817
20
0.0806323
11
0.509931
21
0.0837515
0
LINE
8
BLACK
6
CONTINUOUS
10
0.509931
20
0.0837515
11
0.511713
21
0.0877824
0
LINE
8
BLACK
6
CONTINUOUS
10
0.511713
20
0.0877824
11
0.511831
21
0.0887935
0
LINE
8
BLACK
6
CONTINUOUS
10
0.511831
20
0.0887935
11
0.511831
21
0.230104
0
LINE
8
BLACK
6
CONTINUOUS
10
0.511831
20
0.230104
11
0.511708
21
0.231136
0
LINE
8
BLACK
6
CONTINUOUS
10
2.27614
20
0.0535304
11
2.27644
21
0.0534646
0
LINE
8
BLACK
6
CONTINUOUS
10
2.27644
20
0.0534646
11
2.30161
21
0.0534646
0
LINE
8
BLACK
6
CONTINUOUS
10
2.30161
20
0.0534646
11
2.3019
21
0.053482
0
LINE
8
BLACK
6
CONTINUOUS
10
2.3019
20
0.053482
11
2.30241
21
0.0535431
0
LINE
8
BLACK
6
CONTINUOUS
10
2.30241
20
0.0535431
11
2.30312
21
0.0537383
0
LINE
8
BLACK
6
CONTINUOUS
10
2.30312
20
0.0537383
11
2.30639
21
0.0551872
0
LINE
8
BLACK
6
CONTINUOUS
10
2.30639
20
0.0551872
11
2.30713
21
0.0556974
0
LINE
8
BLACK
6
CONTINUOUS
10
2.30713
20
0.0556974
11
2.30959
21
0.0581631
0
LINE
8
BLACK
6
CONTINUOUS
10
2.30959
20
0.0581631
11
2.3101
21
0.058906
0
LINE
8
BLACK
6
CONTINUOUS
10
2.3101
20
0.058906
11
2.31154
21
0.0621703
0
LINE
8
BLACK
6
CONTINUOUS
10
2.31154
20
0.0621703
11
2.31174
21
0.062882
0
LINE
8
BLACK
6
CONTINUOUS
10
2.31174
20
0.062882
11
2.31179
21
0.0633774
0
LINE
8
BLACK
6
CONTINUOUS
10
2.31179
20
0.0633774
11
2.31181
21
0.0636649
0
LINE
8
BLACK
6
CONTINUOUS
10
2.31181
20
0.0636649
11
2.31181
21
0.0886569
0
LINE
8
BLACK
6
CONTINUOUS
10
2.31181
20
0.0886569
11
2.31163
21
0.0892569
0
LINE
8
BLACK
6
CONTINUOUS
10
2.31163
20
0.0892569
11
2.31158
21
0.0893043
0
LINE
8
BLACK
6
CONTINUOUS
10
2.31158
20
0.0893043
11
2.31128
21
0.0893701
0
LINE
8
BLACK
6
CONTINUOUS
10
2.31128
20
0.0893701
11
2.3
21
0.0893701
0
LINE
8
BLACK
6
CONTINUOUS
10
2.3
20
0.0893701
11
2.3
21
0.0652756
0
LINE
8
BLACK
6
CONTINUOUS
10
2.3
20
0.0652756
11
2.27591
21
0.0652756
0
LINE
8
BLACK
6
CONTINUOUS
10
2.27591
20
0.0652756
11
2.27591
21
0.0541778
0
LINE
8
BLACK
6
CONTINUOUS
10
2.27591
20
0.0541778
11
2.27608
21
0.0535778
0
LINE
8
BLACK
6
CONTINUOUS
10
2.27608
20
0.0535778
11
2.27614
21
0.0535304
0
LINE
8
BLACK
6
CONTINUOUS
10
2.12842
20
0.101247
11
2.12872
21
0.101181
0
LINE
8
BLACK
6
CONTINUOUS
10
2.12872
20
0.101181
11
2.14
21
0.101181
0
LINE
8
BLACK
6
CONTINUOUS
10
2.14
20
0.101181
11
2.14
21
0.125276
0
LINE
8
BLACK
6
CONTINUOUS
10
2.14
20
0.125276
11
2.16409
21
0.125276
0
LINE
8
BLACK
6
CONTINUOUS
10
2.16409
20
0.125276
11
2.16409
21
0.136373
0
LINE
8
BLACK
6
CONTINUOUS
10
2.16409
20
0.136373
11
2.16392
21
0.136973
0
LINE
8
BLACK
6
CONTINUOUS
10
2.16392
20
0.136973
11
2.16386
21
0.137021
0
LINE
8
BLACK
6
CONTINUOUS
10
2.16386
20
0.137021
11
2.16356
21
0.137087
0
LINE
8
BLACK
6
CONTINUOUS
10
2.16356
20
0.137087
11
2.13839
21
0.137087
0
LINE
8
BLACK
6
CONTINUOUS
10
2.13839
20
0.137087
11
2.1381
21
0.137069
0
LINE
8
BLACK
6
CONTINUOUS
10
2.1381
20
0.137069
11
2.13759
21
0.137008
0
LINE
8
BLACK
6
CONTINUOUS
10
2.13759
20
0.137008
11
2.13688
21
0.136813
0
LINE
8
BLACK
6
CONTINUOUS
10
2.13688
20
0.136813
11
2.13361
21
0.135364
0
LINE
8
BLACK
6
CONTINUOUS
10
2.13361
20
0.135364
11
2.13287
21
0.134854
0
LINE
8
BLACK
6
CONTINUOUS
10
2.13287
20
0.134854
11
2.13041
21
0.132388
0
LINE
8
BLACK
6
CONTINUOUS
10
2.13041
20
0.132388
11
2.1299
21
0.131645
0
LINE
8
BLACK
6
CONTINUOUS
10
2.1299
20
0.131645
11
2.12846
21
0.128381
0
LINE
8
BLACK
6
CONTINUOUS
10
2.12846
20
0.128381
11
2.12826
21
0.127669
0
LINE
8
BLACK
6
CONTINUOUS
10
2.12826
20
0.127669
11
2.12821
21
0.127174
0
LINE
8
BLACK
6
CONTINUOUS
10
2.12821
20
0.127174
11
2.12819
21
0.126886
0
LINE
8
BLACK
6
CONTINUOUS
10
2.12819
20
0.126886
11
2.12819
21
0.101894
0
LINE
8
BLACK
6
CONTINUOUS
10
2.12819
20
0.101894
11
2.12837
21
0.101294
0
LINE
8
BLACK
6
CONTINUOUS
10
2.12837
20
0.101294
11
2.12842
21
0.101247
0
LINE
8
BLACK
6
CONTINUOUS
10
2.22842
20
0.101247
11
2.22872
21
0.101181
0
LINE
8
BLACK
6
CONTINUOUS
10
2.22872
20
0.101181
11
2.24
21
0.101181
0
LINE
8
BLACK
6
CONTINUOUS
10
2.24
20
0.101181
11
2.24
21
0.125276
0
LINE
8
BLACK
6
CONTINUOUS
10
2.24
20
0.125276
11
2.26409
21
0.125276
0
LINE
8
BLACK
6
CONTINUOUS
10
2.26409
20
0.125276
11
2.26409
21
0.136373
0
LINE
8
BLACK
6
CONTINUOUS
10
2.26409
20
0.136373
11
2.26392
21
0.136973
0
LINE
8
BLACK
6
CONTINUOUS
10
2.26392
20
0.136973
11
2.26386
21
0.137021
0
LINE
8
BLACK
6
CONTINUOUS
10
2.26386
20
0.137021
11
2.26356
21
0.137087
0
LINE
8
BLACK
6
CONTINUOUS
10
2.26356
20
0.137087
11
2.23839
21
0.137087
0
LINE
8
BLACK
6
CONTINUOUS
10
2.23839
20
0.137087
11
2.2381
21
0.137069
0
LINE
8
BLACK
6
CONTINUOUS
10
2.2381
20
0.137069
11
2.23759
21
0.137008
0
LINE
8
BLACK
6
CONTINUOUS
10
2.23759
20
0.137008
11
2.23688
21
0.136813
0
LINE
8
BLACK
6
CONTINUOUS
10
2.23688
20
0.136813
11
2.23361
21
0.135364
0
LINE
8
BLACK
6
CONTINUOUS
10
2.23361
20
0.135364
11
2.23287
21
0.134854
0
LINE
8
BLACK
6
CONTINUOUS
10
2.23287
20
0.134854
11
2.23041
21
0.132388
0
LINE
8
BLACK
6
CONTINUOUS
10
2.23041
20
0.132388
11
2.2299
21
0.131645
0
LINE
8
BLACK
6
CONTINUOUS
10
2.2299
20
0.131645
11
2.22846
21
0.128381
0
LINE
8
BLACK
6
CONTINUOUS
10
2.22846
20
0.128381
11
2.22826
21
0.127669
0
LINE
8
BLACK
6
CONTINUOUS
10
2.22826
20
0.127669
11
2.22821
21
0.127174
0
LINE
8
BLACK
6
CONTINUOUS
10
2.22821
20
0.127174
11
2.22819
21
0.126886
0
LINE
8
BLACK
6
CONTINUOUS
10
2.22819
20
0.126886
11
2.22819
21
0.101894
0
LINE
8
BLACK
6
CONTINUOUS
10
2.22819
20
0.101894
11
2.22837
21
0.101294
0
LINE
8
BLACK
6
CONTINUOUS
10
2.22837
20
0.101294
11
2.22842
21
0.101247
0
LINE
8
BLACK
6
CONTINUOUS
10
2.27662
20
0.137087
11
2.27602
21
0.13691
0
LINE
8
BLACK
6
CONTINUOUS
10
2.27602
20
0.13691
11
2.27597
21
0.136856
0
LINE
8
BLACK
6
CONTINUOUS
10
2.27597
20
0.136856
11
2.27591
21
0.136553
0
LINE
8
BLACK
6
CONTINUOUS
10
2.27591
20
0.136553
11
2.27591
21
0.125276
0
LINE
8
BLACK
6
CONTINUOUS
10
2.27591
20
0.125276
11
2.3
21
0.125276
0
LINE
8
BLACK
6
CONTINUOUS
10
2.3
20
0.125276
11
2.3
21
0.101181
0
LINE
8
BLACK
6
CONTINUOUS
10
2.3
20
0.101181
11
2.3111
21
0.101181
0
LINE
8
BLACK
6
CONTINUOUS
10
2.3111
20
0.101181
11
2.3117
21
0.101357
0
LINE
8
BLACK
6
CONTINUOUS
10
2.3117
20
0.101357
11
2.31175
21
0.101412
0
LINE
8
BLACK
6
CONTINUOUS
10
2.31175
20
0.101412
11
2.31181
21
0.101714
0
LINE
8
BLACK
6
CONTINUOUS
10
2.31181
20
0.101714
11
2.31181
21
0.126883
0
LINE
8
BLACK
6
CONTINUOUS
10
2.31181
20
0.126883
11
2.31179
21
0.127177
0
LINE
8
BLACK
6
CONTINUOUS
10
2.31179
20
0.127177
11
2.31173
21
0.12769
0
LINE
8
BLACK
6
CONTINUOUS
10
2.31173
20
0.12769
11
2.31154
21
0.128401
0
LINE
8
BLACK
6
CONTINUOUS
10
2.31154
20
0.128401
11
2.31009
21
0.131663
0
LINE
8
BLACK
6
CONTINUOUS
10
2.31009
20
0.131663
11
2.30958
21
0.132405
0
LINE
8
BLACK
6
CONTINUOUS
10
2.30958
20
0.132405
11
2.30711
21
0.134866
0
LINE
8
BLACK
6
CONTINUOUS
10
2.30711
20
0.134866
11
2.30637
21
0.135375
0
LINE
8
BLACK
6
CONTINUOUS
10
2.30637
20
0.135375
11
2.30311
21
0.136818
0
LINE
8
BLACK
6
CONTINUOUS
10
2.30311
20
0.136818
11
2.30239
21
0.137012
0
LINE
8
BLACK
6
CONTINUOUS
10
2.30239
20
0.137012
11
2.3019
21
0.13707
0
LINE
8
BLACK
6
CONTINUOUS
10
2.3019
20
0.13707
11
2.30161
21
0.137087
0
LINE
8
BLACK
6
CONTINUOUS
10
2.30161
20
0.137087
11
2.27662
21
0.137087
0
LINE
8
BLACK
6
CONTINUOUS
10
2.23008
20
0.158459
11
2.2332
21
0.155345
0
LINE
8
BLACK
6
CONTINUOUS
10
2.2332
20
0.155345
11
2.23362
21
0.15516
0
LINE
8
BLACK
6
CONTINUOUS
10
2.23362
20
0.15516
11
2.23362
21
0.15516
0
LINE
8
BLACK
6
CONTINUOUS
10
2.23362
20
0.15516
11
2.23596
21
0.154123
0
LINE
8
BLACK
6
CONTINUOUS
10
2.23596
20
0.154123
11
2.23723
21
0.153563
0
LINE
8
BLACK
6
CONTINUOUS
10
2.23723
20
0.153563
11
2.23824
21
0.153445
0
LINE
8
BLACK
6
CONTINUOUS
10
2.23824
20
0.153445
11
2.30176
21
0.153445
0
LINE
8
BLACK
6
CONTINUOUS
10
2.30176
20
0.153445
11
2.3019
21
0.153462
0
LINE
8
BLACK
6
CONTINUOUS
10
2.3019
20
0.153462
11
2.3019
21
0.153462
0
LINE
8
BLACK
6
CONTINUOUS
10
2.3019
20
0.153462
11
2.30219
21
0.153497
0
LINE
8
BLACK
6
CONTINUOUS
10
2.30219
20
0.153497
11
2.30279
21
0.153568
0
LINE
8
BLACK
6
CONTINUOUS
10
2.30279
20
0.153568
11
2.30682
21
0.155357
0
LINE
8
BLACK
6
CONTINUOUS
10
2.30682
20
0.155357
11
2.30993
21
0.158476
0
LINE
8
BLACK
6
CONTINUOUS
10
2.30993
20
0.158476
11
2.31171
21
0.162507
0
LINE
8
BLACK
6
CONTINUOUS
10
2.31171
20
0.162507
11
2.31183
21
0.163518
0
LINE
8
BLACK
6
CONTINUOUS
10
2.31183
20
0.163518
11
2.31183
21
0.227033
0
LINE
8
BLACK
6
CONTINUOUS
10
2.31183
20
0.227033
11
2.31171
21
0.228065
0
LINE
8
BLACK
6
CONTINUOUS
10
2.31171
20
0.228065
11
2.31087
21
0.22996
0
LINE
8
BLACK
6
CONTINUOUS
10
2.31087
20
0.22996
11
2.3101
21
0.231674
0
LINE
8
BLACK
6
CONTINUOUS
10
2.3101
20
0.231674
11
2.30992
21
0.232093
0
LINE
8
BLACK
6
CONTINUOUS
10
2.30992
20
0.232093
11
2.3068
21
0.235206
0
LINE
8
BLACK
6
CONTINUOUS
10
2.3068
20
0.235206
11
2.30638
21
0.235391
0
LINE
8
BLACK
6
CONTINUOUS
10
2.30638
20
0.235391
11
2.30638
21
0.235392
0
LINE
8
BLACK
6
CONTINUOUS
10
2.30638
20
0.235392
11
2.30404
21
0.236428
0
LINE
8
BLACK
6
CONTINUOUS
10
2.30404
20
0.236428
11
2.30277
21
0.236988
0
LINE
8
BLACK
6
CONTINUOUS
10
2.30277
20
0.236988
11
2.30176
21
0.237106
0
LINE
8
BLACK
6
CONTINUOUS
10
2.30176
20
0.237106
11
2.23824
21
0.237106
0
LINE
8
BLACK
6
CONTINUOUS
10
2.23824
20
0.237106
11
2.2381
21
0.237089
0
LINE
8
BLACK
6
CONTINUOUS
10
2.2381
20
0.237089
11
2.2381
21
0.237089
0
LINE
8
BLACK
6
CONTINUOUS
10
2.2381
20
0.237089
11
2.23781
21
0.237054
0
LINE
8
BLACK
6
CONTINUOUS
10
2.23781
20
0.237054
11
2.23721
21
0.236984
0
LINE
8
BLACK
6
CONTINUOUS
10
2.23721
20
0.236984
11
2.23687
21
0.236832
0
LINE
8
BLACK
6
CONTINUOUS
10
2.23687
20
0.236832
11
2.23687
21
0.236832
0
LINE
8
BLACK
6
CONTINUOUS
10
2.23687
20
0.236832
11
2.23384
21
0.235487
0
LINE
8
BLACK
6
CONTINUOUS
10
2.23384
20
0.235487
11
2.23318
21
0.235194
0
LINE
8
BLACK
6
CONTINUOUS
10
2.23318
20
0.235194
11
2.23286
21
0.23487
0
LINE
8
BLACK
6
CONTINUOUS
10
2.23286
20
0.23487
11
2.23286
21
0.23487
0
LINE
8
BLACK
6
CONTINUOUS
10
2.23286
20
0.23487
11
2.23162
21
0.233629
0
LINE
8
BLACK
6
CONTINUOUS
10
2.23162
20
0.233629
11
2.23007
21
0.232075
0
LINE
8
BLACK
6
CONTINUOUS
10
2.23007
20
0.232075
11
2.22988
21
0.231657
0
LINE
8
BLACK
6
CONTINUOUS
10
2.22988
20
0.231657
11
2.22988
21
0.231656
0
LINE
8
BLACK
6
CONTINUOUS
10
2.22988
20
0.231656
11
2.22953
21
0.230854
0
LINE
8
BLACK
6
CONTINUOUS
10
2.22953
20
0.230854
11
2.22829
21
0.228044
0
LINE
8
BLACK
6
CONTINUOUS
10
2.22829
20
0.228044
11
2.22817
21
0.227033
0
LINE
8
BLACK
6
CONTINUOUS
10
2.22817
20
0.227033
11
2.22817
21
0.163518
0
LINE
8
BLACK
6
CONTINUOUS
10
2.22817
20
0.163518
11
2.22829
21
0.162486
0
LINE
8
BLACK
6
CONTINUOUS
10
2.22829
20
0.162486
11
2.23008
21
0.158459
0
LINE
8
BLACK
6
CONTINUOUS
10
2.27614
20
0.25353
11
2.27644
21
0.253465
0
LINE
8
BLACK
6
CONTINUOUS
10
2.27644
20
0.253465
11
2.30161
21
0.253465
0
LINE
8
BLACK
6
CONTINUOUS
10
2.30161
20
0.253465
11
2.3019
21
0.253482
0
LINE
8
BLACK
6
CONTINUOUS
10
2.3019
20
0.253482
11
2.30241
21
0.253543
0
LINE
8
BLACK
6
CONTINUOUS
10
2.30241
20
0.253543
11
2.30312
21
0.253738
0
LINE
8
BLACK
6
CONTINUOUS
10
2.30312
20
0.253738
11
2.30639
21
0.255187
0
LINE
8
BLACK
6
CONTINUOUS
10
2.30639
20
0.255187
11
2.30713
21
0.255697
0
LINE
8
BLACK
6
CONTINUOUS
10
2.30713
20
0.255697
11
2.30959
21
0.258163
0
LINE
8
BLACK
6
CONTINUOUS
10
2.30959
20
0.258163
11
2.3101
21
0.258906
0
LINE
8
BLACK
6
CONTINUOUS
10
2.3101
20
0.258906
11
2.31154
21
0.26217
0
LINE
8
BLACK
6
CONTINUOUS
10
2.31154
20
0.26217
11
2.31174
21
0.262882
0
LINE
8
BLACK
6
CONTINUOUS
10
2.31174
20
0.262882
11
2.31179
21
0.263377
0
LINE
8
BLACK
6
CONTINUOUS
10
2.31179
20
0.263377
11
2.31181
21
0.263665
0
LINE
8
BLACK
6
CONTINUOUS
10
2.31181
20
0.263665
11
2.31181
21
0.288657
0
LINE
8
BLACK
6
CONTINUOUS
10
2.31181
20
0.288657
11
2.31163
21
0.289257
0
LINE
8
BLACK
6
CONTINUOUS
10
2.31163
20
0.289257
11
2.31158
21
0.289304
0
LINE
8
BLACK
6
CONTINUOUS
10
2.31158
20
0.289304
11
2.31128
21
0.28937
0
LINE
8
BLACK
6
CONTINUOUS
10
2.31128
20
0.28937
11
2.3
21
0.28937
0
LINE
8
BLACK
6
CONTINUOUS
10
2.3
20
0.28937
11
2.3
21
0.265276
0
LINE
8
BLACK
6
CONTINUOUS
10
2.3
20
0.265276
11
2.27591
21
0.265276
0
LINE
8
BLACK
6
CONTINUOUS
10
2.27591
20
0.265276
11
2.27591
21
0.254178
0
LINE
8
BLACK
6
CONTINUOUS
10
2.27591
20
0.254178
11
2.27608
21
0.253578
0
LINE
8
BLACK
6
CONTINUOUS
10
2.27608
20
0.253578
11
2.27614
21
0.25353
0
LINE
8
BLACK
6
CONTINUOUS
10
2.12842
20
0.301247
11
2.12872
21
0.301181
0
LINE
8
BLACK
6
CONTINUOUS
10
2.12872
20
0.301181
11
2.14
21
0.301181
0
LINE
8
BLACK
6
CONTINUOUS
10
2.14
20
0.301181
11
2.14
21
0.325276
0
LINE
8
BLACK
6
CONTINUOUS
10
2.14
20
0.325276
11
2.16409
21
0.325276
0
LINE
8
BLACK
6
CONTINUOUS
10
2.16409
20
0.325276
11
2.16409
21
0.336373
0
LINE
8
BLACK
6
CONTINUOUS
10
2.16409
20
0.336373
11
2.16392
21
0.336973
0
LINE
8
BLACK
6
CONTINUOUS
10
2.16392
20
0.336973
11
2.16386
21
0.337021
0
LINE
8
BLACK
6
CONTINUOUS
10
2.16386
20
0.337021
11
2.16356
21
0.337087
0
LINE
8
BLACK
6
CONTINUOUS
10
2.16356
20
0.337087
11
2.13839
21
0.337087
0
LINE
8
BLACK
6
CONTINUOUS
10
2.13839
20
0.337087
11
2.1381
21
0.337069
0
LINE
8
BLACK
6
CONTINUOUS
10
2.1381
20
0.337069
11
2.13759
21
0.337008
0
LINE
8
BLACK
6
CONTINUOUS
10
2.13759
20
0.337008
11
2.13688
21
0.336813
0
LINE
8
BLACK
6
CONTINUOUS
10
2.13688
20
0.336813
11
2.13361
21
0.335364
0
LINE
8
BLACK
6
CONTINUOUS
10
2.13361
20
0.335364
11
2.13287
21
0.334854
0
LINE
8
BLACK
6
CONTINUOUS
10
2.13287
20
0.334854
11
2.13041
21
0.332388
0
LINE
8
BLACK
6
CONTINUOUS
10
2.13041
20
0.332388
11
2.1299
21
0.331645
0
LINE
8
BLACK
6
CONTINUOUS
10
2.1299
20
0.331645
11
2.12846
21
0.328381
0
LINE
8
BLACK
6
CONTINUOUS
10
2.12846
20
0.328381
11
2.12826
21
0.327669
0
LINE
8
BLACK
6
CONTINUOUS
10
2.12826
20
0.327669
11
2.12821
21
0.327174
0
LINE
8
BLACK
6
CONTINUOUS
10
2.12821
20
0.327174
11
2.12819
21
0.326886
0
LINE
8
BLACK
6
CONTINUOUS
10
2.12819
20
0.326886
11
2.12819
21
0.301894
0
LINE
8
BLACK
6
CONTINUOUS
10
2.12819
20
0.301894
11
2.12837
21
0.301294
0
LINE
8
BLACK
6
CONTINUOUS
10
2.12837
20
0.301294
11
2.12842
21
0.301247
0
LINE
8
BLACK
6
CONTINUOUS
10
2.22842
20
0.301247
11
2.22872
21
0.301181
0
LINE
8
BLACK
6
CONTINUOUS
10
2.22872
20
0.301181
11
2.24
21
0.301181
0
LINE
8
BLACK
6
CONTINUOUS
10
2.24
20
0.301181
11
2.24
21
0.325276
0
LINE
8
BLACK
6
CONTINUOUS
10
2.24
20
0.325276
11
2.26409
21
0.325276
0
LINE
8
BLACK
6
CONTINUOUS
10
2.26409
20
0.325276
11
2.26409
21
0.336373
0
LINE
8
BLACK
6
CONTINUOUS
10
2.26409
20
0.336373
11
2.26392
21
0.336973
0
LINE
8
BLACK
6
CONTINUOUS
10
2.26392
20
0.336973
11
2.26386
21
0.337021
0
LINE
8
BLACK
6
CONTINUOUS
10
2.26386
20
0.337021
11
2.26356
21
0.337087
0
LINE
8
BLACK
6
CONTINUOUS
10
2.26356
20
0.337087
11
2.23839
21
0.337087
0
LINE
8
BLACK
6
CONTINUOUS
10
2.23839
20
0.337087
11
2.2381
21
0.337069
0
LINE
8
BLACK
6
CONTINUOUS
10
2.2381
20
0.337069
11
2.23759
21
0.337008
0
LINE
8
BLACK
6
CONTINUOUS
10
2.23759
20
0.337008
11
2.23688
21
0.336813
0
LINE
8
BLACK
6
CONTINUOUS
10
2.23688
20
0.336813
11
2.23361
21
0.335364
0
LINE
8
BLACK
6
CONTINUOUS
10
2.23361
20
0.335364
11
2.23287
21
0.334854
0
LINE
8
BLACK
6
CONTINUOUS
10
2.23287
20
0.334854
11
2.23041
21
0.332388
0
LINE
8
BLACK
6
CONTINUOUS
10
2.23041
20
0.332388
11
2.2299
21
0.331645
0
LINE
8
BLACK
6
CONTINUOUS
10
2.2299
20
0.331645
11
2.22846
21
0.328381
0
LINE
8
BLACK
6
CONTINUOUS
10
2.22846
20
0.328381
11
2.22826
21
0.327669
0
LINE
8
BLACK
6
CONTINUOUS
10
2.22826
20
0.327669
11
2.22821
21
0.327174
0
LINE
8
BLACK
6
CONTINUOUS
10
2.22821
20
0.327174
11
2.22819
21
0.326886
0
LINE
8
BLACK
6
CONTINUOUS
10
2.22819
20
0.326886
11
2.22819
21
0.301894
0
LINE
8
BLACK
6
CONTINUOUS
10
2.22819
20
0.301894
11
2.22837
21
0.301294
0
LINE
8
BLACK
6
CONTINUOUS
10
2.22837
20
0.301294
11
2.22842
21
0.301247
0
LINE
8
BLACK
6
CONTINUOUS
10
2.27662
20
0.337087
11
2.27602
21
0.33691
0
LINE
8
BLACK
6
CONTINUOUS
10
2.27602
20
0.33691
11
2.27597
21
0.336856
0
LINE
8
BLACK
6
CONTINUOUS
10
2.27597
20
0.336856
11
2.27591
21
0.336553
0
LINE
8
BLACK
6
CONTINUOUS
10
2.27591
20
0.336553
11
2.27591
21
0.325276
0
LINE
8
BLACK
6
CONTINUOUS
10
2.27591
20
0.325276
11
2.3
21
0.325276
0
LINE
8
BLACK
6
CONTINUOUS
10
2.3
20
0.325276
11
2.3
21
0.301181
0
LINE
8
BLACK
6
CONTINUOUS
10
2.3
20
0.301181
11
2.3111
21
0.301181
0
LINE
8
BLACK
6
CONTINUOUS
10
2.3111
20
0.301181
11
2.3117
21
0.301357
0
LINE
8
BLACK
6
CONTINUOUS
10
2.3117
20
0.301357
11
2.31175
21
0.301412
0
LINE
8
BLACK
6
CONTINUOUS
10
2.31175
20
0.301412
11
2.31181
21
0.301714
0
LINE
8
BLACK
6
CONTINUOUS
10
2.31181
20
0.301714
11
2.31181
21
0.326883
0
LINE
8
BLACK
6
CONTINUOUS
10
2.31181
20
0.326883
11
2.31179
21
0.327177
0
LINE
8
BLACK
6
CONTINUOUS
10
2.31179
20
0.327177
11
2.31173
21
0.32769
0
LINE
8
BLACK
6
CONTINUOUS
10
2.31173
20
0.32769
11
2.31154
21
0.328401
0
LINE
8
BLACK
6
CONTINUOUS
10
2.31154
20
0.328401
11
2.31009
21
0.331663
0
LINE
8
BLACK
6
CONTINUOUS
10
2.31009
20
0.331663
11
2.30958
21
0.332405
0
LINE
8
BLACK
6
CONTINUOUS
10
2.30958
20
0.332405
11
2.30711
21
0.334866
0
LINE
8
BLACK
6
CONTINUOUS
10
2.30711
20
0.334866
11
2.30637
21
0.335375
0
LINE
8
BLACK
6
CONTINUOUS
10
2.30637
20
0.335375
11
2.30311
21
0.336818
0
LINE
8
BLACK
6
CONTINUOUS
10
2.30311
20
0.336818
11
2.30239
21
0.337012
0
LINE
8
BLACK
6
CONTINUOUS
10
2.30239
20
0.337012
11
2.3019
21
0.33707
0
LINE
8
BLACK
6
CONTINUOUS
10
2.3019
20
0.33707
11
2.30161
21
0.337087
0
LINE
8
BLACK
6
CONTINUOUS
10
2.30161
20
0.337087
11
2.27662
21
0.337087
0
LINE
8
BLACK
6
CONTINUOUS
10
2.12842
20
0.501247
11
2.12872
21
0.501181
0
LINE
8
BLACK
6
CONTINUOUS
10
2.12872
20
0.501181
11
2.14
21
0.501181
0
LINE
8
BLACK
6
CONTINUOUS
10
2.14
20
0.501181
11
2.14
21
0.525276
0
LINE
8
BLACK
6
CONTINUOUS
10
2.14
20
0.525276
11
2.16409
21
0.525276
0
LINE
8
BLACK
6
CONTINUOUS
10
2.16409
20
0.525276
11
2.16409
21
0.536373
0
LINE
8
BLACK
6
CONTINUOUS
10
2.16409
20
0.536373
11
2.16392
21
0.536973
0
LINE
8
BLACK
6
CONTINUOUS
10
2.16392
20
0.536973
11
2.16386
21
0.537021
0
LINE
8
BLACK
6
CONTINUOUS
10
2.16386
20
0.537021
11
2.16356
21
0.537087
0
LINE
8
BLACK
6
CONTINUOUS
10
2.16356
20
0.537087
11
2.13839
21
0.537087
0
LINE
8
BLACK
6
CONTINUOUS
10
2.13839
20
0.537087
11
2.1381
21
0.537069
0
LINE
8
BLACK
6
CONTINUOUS
10
2.1381
20
0.537069
11
2.13759
21
0.537008
0
LINE
8
BLACK
6
CONTINUOUS
10
2.13759
20
0.537008
11
2.13688
21
0.536813
0
LINE
8
BLACK
6
CONTINUOUS
10
2.13688
20
0.536813
11
2.13361
21
0.535364
0
LINE
8
BLACK
6
CONTINUOUS
10
2.13361
20
0.535364
11
2.13287
21
0.534854
0
LINE
8
BLACK
6
CONTINUOUS
10
2.13287
20
0.534854
11
2.13041
21
0.532388
0
LINE
8
BLACK
6
CONTINUOUS
10
2.13041
20
0.532388
11
2.1299
21
0.531645
0
LINE
8
BLACK
6
CONTINUOUS
10
2.1299
20
0.531645
11
2.12846
21
0.528381
0
LINE
8
BLACK
6
CONTINUOUS
10
2.12846
20
0.528381
11
2.12826
21
0.527669
0
LINE
8
BLACK
6
CONTINUOUS
10
2.12826
20
0.527669
11
2.12821
21
0.527174
0
LINE
8
BLACK
6
CONTINUOUS
10
2.12821
20
0.527174
11
2.12819
21
0.526886
0
LINE
8
BLACK
6
CONTINUOUS
10
2.12819
20
0.526886
11
2.12819
21
0.501894
0
LINE
8
BLACK
6
CONTINUOUS
10
2.12819
20
0.501894
11
2.12837
21
0.501294
0
LINE
8
BLACK
6
CONTINUOUS
10
2.12837
20
0.501294
11
2.12842
21
0.501247
0
LINE
8
BLACK
6
CONTINUOUS
10
2.22844
20
0.362146
11
2.22844
21
0.362146
0
LINE
8
BLACK
6
CONTINUOUS
10
2.22844
20
0.362146
11
2.22981
21
0.359075
0
LINE
8
BLACK
6
CONTINUOUS
10
2.22981
20
0.359075
11
2.23008
21
0.358459
0
LINE
8
BLACK
6
CONTINUOUS
10
2.23008
20
0.358459
11
2.23041
21
0.358135
0
LINE
8
BLACK
6
CONTINUOUS
10
2.23041
20
0.358135
11
2.23041
21
0.358135
0
LINE
8
BLACK
6
CONTINUOUS
10
2.23041
20
0.358135
11
2.23098
21
0.357562
0
LINE
8
BLACK
6
CONTINUOUS
10
2.23098
20
0.357562
11
2.2332
21
0.355345
0
LINE
8
BLACK
6
CONTINUOUS
10
2.2332
20
0.355345
11
2.23362
21
0.35516
0
LINE
8
BLACK
6
CONTINUOUS
10
2.23362
20
0.35516
11
2.23362
21
0.35516
0
LINE
8
BLACK
6
CONTINUOUS
10
2.23362
20
0.35516
11
2.23596
21
0.354123
0
LINE
8
BLACK
6
CONTINUOUS
10
2.23596
20
0.354123
11
2.23723
21
0.353563
0
LINE
8
BLACK
6
CONTINUOUS
10
2.23723
20
0.353563
11
2.23824
21
0.353445
0
LINE
8
BLACK
6
CONTINUOUS
10
2.23824
20
0.353445
11
2.30176
21
0.353445
0
LINE
8
BLACK
6
CONTINUOUS
10
2.30176
20
0.353445
11
2.3019
21
0.353462
0
LINE
8
BLACK
6
CONTINUOUS
10
2.3019
20
0.353462
11
2.3019
21
0.353462
0
LINE
8
BLACK
6
CONTINUOUS
10
2.3019
20
0.353462
11
2.30219
21
0.353497
0
LINE
8
BLACK
6
CONTINUOUS
10
2.30219
20
0.353497
11
2.30279
21
0.353568
0
LINE
8
BLACK
6
CONTINUOUS
10
2.30279
20
0.353568
11
2.30682
21
0.355357
0
LINE
8
BLACK
6
CONTINUOUS
10
2.30682
20
0.355357
11
2.30728
21
0.355824
0
LINE
8
BLACK
6
CONTINUOUS
10
2.30728
20
0.355824
11
2.30838
21
0.356923
0
LINE
8
BLACK
6
CONTINUOUS
10
2.30838
20
0.356923
11
2.30993
21
0.358476
0
LINE
8
BLACK
6
CONTINUOUS
10
2.30993
20
0.358476
11
2.3102
21
0.359075
0
LINE
8
BLACK
6
CONTINUOUS
10
2.3102
20
0.359075
11
2.31156
21
0.362166
0
LINE
8
BLACK
6
CONTINUOUS
10
2.31156
20
0.362166
11
2.31171
21
0.362507
0
LINE
8
BLACK
6
CONTINUOUS
10
2.31171
20
0.362507
11
2.31183
21
0.363518
0
LINE
8
BLACK
6
CONTINUOUS
10
2.31183
20
0.363518
11
2.31183
21
0.427033
0
LINE
8
BLACK
6
CONTINUOUS
10
2.31183
20
0.427033
11
2.31171
21
0.428065
0
LINE
8
BLACK
6
CONTINUOUS
10
2.31171
20
0.428065
11
2.30992
21
0.432093
0
LINE
8
BLACK
6
CONTINUOUS
10
2.30992
20
0.432093
11
2.3068
21
0.435206
0
LINE
8
BLACK
6
CONTINUOUS
10
2.3068
20
0.435206
11
2.30638
21
0.435391
0
LINE
8
BLACK
6
CONTINUOUS
10
2.30638
20
0.435391
11
2.30638
21
0.435392
0
LINE
8
BLACK
6
CONTINUOUS
10
2.30638
20
0.435392
11
2.30404
21
0.436428
0
LINE
8
BLACK
6
CONTINUOUS
10
2.30404
20
0.436428
11
2.30277
21
0.436988
0
LINE
8
BLACK
6
CONTINUOUS
10
2.30277
20
0.436988
11
2.30176
21
0.437106
0
LINE
8
BLACK
6
CONTINUOUS
10
2.30176
20
0.437106
11
2.23824
21
0.437106
0
LINE
8
BLACK
6
CONTINUOUS
10
2.23824
20
0.437106
11
2.2381
21
0.437089
0
LINE
8
BLACK
6
CONTINUOUS
10
2.2381
20
0.437089
11
2.2381
21
0.437089
0
LINE
8
BLACK
6
CONTINUOUS
10
2.2381
20
0.437089
11
2.23781
21
0.437054
0
LINE
8
BLACK
6
CONTINUOUS
10
2.23781
20
0.437054
11
2.23721
21
0.436984
0
LINE
8
BLACK
6
CONTINUOUS
10
2.23721
20
0.436984
11
2.23318
21
0.435194
0
LINE
8
BLACK
6
CONTINUOUS
10
2.23318
20
0.435194
11
2.23007
21
0.432075
0
LINE
8
BLACK
6
CONTINUOUS
10
2.23007
20
0.432075
11
2.22829
21
0.428044
0
LINE
8
BLACK
6
CONTINUOUS
10
2.22829
20
0.428044
11
2.22817
21
0.427033
0
LINE
8
BLACK
6
CONTINUOUS
10
2.22817
20
0.427033
11
2.22817
21
0.363518
0
LINE
8
BLACK
6
CONTINUOUS
10
2.22817
20
0.363518
11
2.22829
21
0.362486
0
LINE
8
BLACK
6
CONTINUOUS
10
2.22829
20
0.362486
11
2.22844
21
0.362146
0
LINE
8
BLACK
6
CONTINUOUS
10
2.27614
20
0.45353
11
2.27644
21
0.453465
0
LINE
8
BLACK
6
CONTINUOUS
10
2.27644
20
0.453465
11
2.30161
21
0.453465
0
LINE
8
BLACK
6
CONTINUOUS
10
2.30161
20
0.453465
11
2.3019
21
0.453482
0
LINE
8
BLACK
6
CONTINUOUS
10
2.3019
20
0.453482
11
2.30241
21
0.453543
0
LINE
8
BLACK
6
CONTINUOUS
10
2.30241
20
0.453543
11
2.30312
21
0.453738
0
LINE
8
BLACK
6
CONTINUOUS
10
2.30312
20
0.453738
11
2.30639
21
0.455187
0
LINE
8
BLACK
6
CONTINUOUS
10
2.30639
20
0.455187
11
2.30713
21
0.455697
0
LINE
8
BLACK
6
CONTINUOUS
10
2.30713
20
0.455697
11
2.30959
21
0.458163
0
LINE
8
BLACK
6
CONTINUOUS
10
2.30959
20
0.458163
11
2.3101
21
0.458906
0
LINE
8
BLACK
6
CONTINUOUS
10
2.3101
20
0.458906
11
2.31154
21
0.46217
0
LINE
8
BLACK
6
CONTINUOUS
10
2.31154
20
0.46217
11
2.31174
21
0.462882
0
LINE
8
BLACK
6
CONTINUOUS
10
2.31174
20
0.462882
11
2.31179
21
0.463377
0
LINE
8
BLACK
6
CONTINUOUS
10
2.31179
20
0.463377
11
2.31181
21
0.463665
0
LINE
8
BLACK
6
CONTINUOUS
10
2.31181
20
0.463665
11
2.31181
21
0.488657
0
LINE
8
BLACK
6
CONTINUOUS
10
2.31181
20
0.488657
11
2.31163
21
0.489257
0
LINE
8
BLACK
6
CONTINUOUS
10
2.31163
20
0.489257
11
2.31158
21
0.489304
0
LINE
8
BLACK
6
CONTINUOUS
10
2.31158
20
0.489304
11
2.31128
21
0.48937
0
LINE
8
BLACK
6
CONTINUOUS
10
2.31128
20
0.48937
11
2.3
21
0.48937
0
LINE
8
BLACK
6
CONTINUOUS
10
2.3
20
0.48937
11
2.3
21
0.465276
0
LINE
8
BLACK
6
CONTINUOUS
10
2.3
20
0.465276
11
2.27591
21
0.465276
0
LINE
8
BLACK
6
CONTINUOUS
10
2.27591
20
0.465276
11
2.27591
21
0.454178
0
LINE
8
BLACK
6
CONTINUOUS
10
2.27591
20
0.454178
11
2.27608
21
0.453578
0
LINE
8
BLACK
6
CONTINUOUS
10
2.27608
20
0.453578
11
2.27614
21
0.45353
0
LINE
8
BLACK
6
CONTINUOUS
10
2.22842
20
0.501247
11
2.22872
21
0.501181
0
LINE
8
BLACK
6
CONTINUOUS
10
2.22872
20
0.501181
11
2.24
21
0.501181
0
LINE
8
BLACK
6
CONTINUOUS
10
2.24
20
0.501181
11
2.24
21
0.525276
0
LINE
8
BLACK
6
CONTINUOUS
10
2.24
20
0.525276
11
2.26409
21
0.525276
0
LINE
8
BLACK
6
CONTINUOUS
10
2.26409
20
0.525276
11
2.26409
21
0.536373
0
LINE
8
BLACK
6
CONTINUOUS
10
2.26409
20
0.536373
11
2.26392
21
0.536973
0
LINE
8
BLACK
6
CONTINUOUS
10
2.26392
20
0.536973
11
2.26386
21
0.537021
0
LINE
8
BLACK
6
CONTINUOUS
10
2.26386
20
0.537021
11
2.26356
21
0.537087
0
LINE
8
BLACK
6
CONTINUOUS
10
2.26356
20
0.537087
11
2.23839
21
0.537087
0
LINE
8
BLACK
6
CONTINUOUS
10
2.23839
20
0.537087
11
2.2381
21
0.537069
0
LINE
8
BLACK
6
CONTINUOUS
10
2.2381
20
0.537069
11
2.23759
21
0.537008
0
LINE
8
BLACK
6
CONTINUOUS
10
2.23759
20
0.537008
11
2.23688
21
0.536813
0
LINE
8
BLACK
6
CONTINUOUS
10
2.23688
20
0.536813
11
2.23361
21
0.535364
0
LINE
8
BLACK
6
CONTINUOUS
10
2.23361
20
0.535364
11
2.23287
21
0.534854
0
LINE
8
BLACK
6
CONTINUOUS
10
2.23287
20
0.534854
11
2.23041
21
0.532388
0
LINE
8
BLACK
6
CONTINUOUS
10
2.23041
20
0.532388
11
2.2299
21
0.531645
0
LINE
8
BLACK
6
CONTINUOUS
10
2.2299
20
0.531645
11
2.22846
21
0.528381
0
LINE
8
BLACK
6
CONTINUOUS
10
2.22846
20
0.528381
11
2.22826
21
0.527669
0
LINE
8
BLACK
6
CONTINUOUS
10
2.22826
20
0.527669
11
2.22821
21
0.527174
0
LINE
8
BLACK
6
CONTINUOUS
10
2.22821
20
0.527174
11
2.22819
21
0.526886
0
LINE
8
BLACK
6
CONTINUOUS
10
2.22819
20
0.526886
11
2.22819
21
0.501894
0
LINE
8
BLACK
6
CONTINUOUS
10
2.22819
20
0.501894
11
2.22837
21
0.501294
0
LINE
8
BLACK
6
CONTINUOUS
10
2.22837
20
0.501294
11
2.22842
21
0.501247
0
LINE
8
BLACK
6
CONTINUOUS
10
2.27662
20
0.537087
11
2.27602
21
0.53691
0
LINE
8
BLACK
6
CONTINUOUS
10
2.27602
20
0.53691
11
2.27597
21
0.536856
0
LINE
8
BLACK
6
CONTINUOUS
10
2.27597
20
0.536856
11
2.27591
21
0.536553
0
LINE
8
BLACK
6
CONTINUOUS
10
2.27591
20
0.536553
11
2.27591
21
0.525276
0
LINE
8
BLACK
6
CONTINUOUS
10
2.27591
20
0.525276
11
2.3
21
0.525276
0
LINE
8
BLACK
6
CONTINUOUS
10
2.3
20
0.525276
11
2.3
21
0.501181
0
LINE
8
BLACK
6
CONTINUOUS
10
2.3
20
0.501181
11
2.3111
21
0.501181
0
LINE
8
BLACK
6
CONTINUOUS
10
2.3111
20
0.501181
11
2.3117
21
0.501357
0
LINE
8
BLACK
6
CONTINUOUS
10
2.3117
20
0.501357
11
2.31175
21
0.501412
0
LINE
8
BLACK
6
CONTINUOUS
10
2.31175
20
0.501412
11
2.31181
21
0.501714
0
LINE
8
BLACK
6
CONTINUOUS
10
2.31181
20
0.501714
11
2.31181
21
0.526883
0
LINE
8
BLACK
6
CONTINUOUS
10
2.31181
20
0.526883
11
2.31179
21
0.527177
0
LINE
8
BLACK
6
CONTINUOUS
10
2.31179
20
0.527177
11
2.31173
21
0.52769
0
LINE
8
BLACK
6
CONTINUOUS
10
2.31173
20
0.52769
11
2.31154
21
0.528401
0
LINE
8
BLACK
6
CONTINUOUS
10
2.31154
20
0.528401
11
2.31009
21
0.531663
0
LINE
8
BLACK
6
CONTINUOUS
10
2.31009
20
0.531663
11
2.30958
21
0.532405
0
LINE
8
BLACK
6
CONTINUOUS
10
2.30958
20
0.532405
11
2.30711
21
0.534866
0
LINE
8
BLACK
6
CONTINUOUS
10
2.30711
20
0.534866
11
2.30637
21
0.535375
0
LINE
8
BLACK
6
CONTINUOUS
10
2.30637
20
0.535375
11
2.30311
21
0.536818
0
LINE
8
BLACK
6
CONTINUOUS
10
2.30311
20
0.536818
11
2.30239
21
0.537012
0
LINE
8
BLACK
6
CONTINUOUS
10
2.30239
20
0.537012
11
2.3019
21
0.53707
0
LINE
8
BLACK
6
CONTINUOUS
10
2.3019
20
0.53707
11
2.30161
21
0.537087
0
LINE
8
BLACK
6
CONTINUOUS
10
2.30161
20
0.537087
11
2.27662
21
0.537087
0
LINE
8
BLACK
6
CONTINUOUS
10
2.12827
20
0.0628608
11
2.12846
21
0.0621506
0
LINE
8
BLACK
6
CONTINUOUS
10
2.12846
20
0.0621506
11
2.12991
21
0.0588885
0
LINE
8
BLACK
6
CONTINUOUS
10
2.12991
20
0.0588885
11
2.13042
21
0.0581463
0
LINE
8
BLACK
6
CONTINUOUS
10
2.13042
20
0.0581463
11
2.13289
21
0.0556849
0
LINE
8
BLACK
6
CONTINUOUS
10
2.13289
20
0.0556849
11
2.13363
21
0.0551762
0
LINE
8
BLACK
6
CONTINUOUS
10
2.13363
20
0.0551762
11
2.13689
21
0.0537331
0
LINE
8
BLACK
6
CONTINUOUS
10
2.13689
20
0.0537331
11
2.13761
21
0.0535391
0
LINE
8
BLACK
6
CONTINUOUS
10
2.13761
20
0.0535391
11
2.1381
21
0.0534813
0
LINE
8
BLACK
6
CONTINUOUS
10
2.1381
20
0.0534813
11
2.13839
21
0.0534646
0
LINE
8
BLACK
6
CONTINUOUS
10
2.13839
20
0.0534646
11
2.16338
21
0.0534646
0
LINE
8
BLACK
6
CONTINUOUS
10
2.16338
20
0.0534646
11
2.16398
21
0.0536407
0
LINE
8
BLACK
6
CONTINUOUS
10
2.16398
20
0.0536407
11
2.16403
21
0.0536955
0
LINE
8
BLACK
6
CONTINUOUS
10
2.16403
20
0.0536955
11
2.16409
21
0.053998
0
LINE
8
BLACK
6
CONTINUOUS
10
2.16409
20
0.053998
11
2.16409
21
0.0652756
0
LINE
8
BLACK
6
CONTINUOUS
10
2.16409
20
0.0652756
11
2.14
21
0.0652756
0
LINE
8
BLACK
6
CONTINUOUS
10
2.14
20
0.0652756
11
2.14
21
0.0893701
0
LINE
8
BLACK
6
CONTINUOUS
10
2.14
20
0.0893701
11
2.1289
21
0.0893701
0
LINE
8
BLACK
6
CONTINUOUS
10
2.1289
20
0.0893701
11
2.1283
21
0.0891939
0
LINE
8
BLACK
6
CONTINUOUS
10
2.1283
20
0.0891939
11
2.12825
21
0.0891392
0
LINE
8
BLACK
6
CONTINUOUS
10
2.12825
20
0.0891392
11
2.12819
21
0.0888367
0
LINE
8
BLACK
6
CONTINUOUS
10
2.12819
20
0.0888367
11
2.12819
21
0.0636677
0
LINE
8
BLACK
6
CONTINUOUS
10
2.12819
20
0.0636677
11
2.12821
21
0.0633746
0
LINE
8
BLACK
6
CONTINUOUS
10
2.12821
20
0.0633746
11
2.12827
21
0.0628608
0
LINE
8
BLACK
6
CONTINUOUS
10
2.24
20
0.0652756
11
2.24
21
0.0893701
0
LINE
8
BLACK
6
CONTINUOUS
10
2.24
20
0.0893701
11
2.2289
21
0.0893701
0
LINE
8
BLACK
6
CONTINUOUS
10
2.2289
20
0.0893701
11
2.2283
21
0.0891939
0
LINE
8
BLACK
6
CONTINUOUS
10
2.2283
20
0.0891939
11
2.22825
21
0.0891392
0
LINE
8
BLACK
6
CONTINUOUS
10
2.22825
20
0.0891392
11
2.22819
21
0.0888367
0
LINE
8
BLACK
6
CONTINUOUS
10
2.22819
20
0.0888367
11
2.22819
21
0.0636677
0
LINE
8
BLACK
6
CONTINUOUS
10
2.22819
20
0.0636677
11
2.22821
21
0.0633746
0
LINE
8
BLACK
6
CONTINUOUS
10
2.22821
20
0.0633746
11
2.22827
21
0.0628608
0
LINE
8
BLACK
6
CONTINUOUS
10
2.22827
20
0.0628608
11
2.22846
21
0.0621506
0
LINE
8
BLACK
6
CONTINUOUS
10
2.22846
20
0.0621506
11
2.22991
21
0.0588885
0
LINE
8
BLACK
6
CONTINUOUS
10
2.22991
20
0.0588885
11
2.23042
21
0.0581463
0
LINE
8
BLACK
6
CONTINUOUS
10
2.23042
20
0.0581463
11
2.23289
21
0.0556849
0
LINE
8
BLACK
6
CONTINUOUS
10
2.23289
20
0.0556849
11
2.23363
21
0.0551762
0
LINE
8
BLACK
6
CONTINUOUS
10
2.23363
20
0.0551762
11
2.23689
21
0.0537331
0
LINE
8
BLACK
6
CONTINUOUS
10
2.23689
20
0.0537331
11
2.23761
21
0.0535391
0
LINE
8
BLACK
6
CONTINUOUS
10
2.23761
20
0.0535391
11
2.2381
21
0.0534813
0
LINE
8
BLACK
6
CONTINUOUS
10
2.2381
20
0.0534813
11
2.23839
21
0.0534646
0
LINE
8
BLACK
6
CONTINUOUS
10
2.23839
20
0.0534646
11
2.26338
21
0.0534646
0
LINE
8
BLACK
6
CONTINUOUS
10
2.26338
20
0.0534646
11
2.26398
21
0.0536407
0
LINE
8
BLACK
6
CONTINUOUS
10
2.26398
20
0.0536407
11
2.26403
21
0.0536955
0
LINE
8
BLACK
6
CONTINUOUS
10
2.26403
20
0.0536955
11
2.26409
21
0.053998
0
LINE
8
BLACK
6
CONTINUOUS
10
2.26409
20
0.053998
11
2.26409
21
0.0652756
0
LINE
8
BLACK
6
CONTINUOUS
10
2.26409
20
0.0652756
11
2.24
21
0.0652756
0
LINE
8
BLACK
6
CONTINUOUS
10
2.17614
20
0.0535304
11
2.17644
21
0.0534646
0
LINE
8
BLACK
6
CONTINUOUS
10
2.17644
20
0.0534646
11
2.20161
21
0.0534646
0
LINE
8
BLACK
6
CONTINUOUS
10
2.20161
20
0.0534646
11
2.2019
21
0.053482
0
LINE
8
BLACK
6
CONTINUOUS
10
2.2019
20
0.053482
11
2.20241
21
0.0535431
0
LINE
8
BLACK
6
CONTINUOUS
10
2.20241
20
0.0535431
11
2.20312
21
0.0537383
0
LINE
8
BLACK
6
CONTINUOUS
10
2.20312
20
0.0537383
11
2.20639
21
0.0551872
0
LINE
8
BLACK
6
CONTINUOUS
10
2.20639
20
0.0551872
11
2.20713
21
0.0556974
0
LINE
8
BLACK
6
CONTINUOUS
10
2.20713
20
0.0556974
11
2.20959
21
0.0581631
0
LINE
8
BLACK
6
CONTINUOUS
10
2.20959
20
0.0581631
11
2.2101
21
0.058906
0
LINE
8
BLACK
6
CONTINUOUS
10
2.2101
20
0.058906
11
2.21154
21
0.0621703
0
LINE
8
BLACK
6
CONTINUOUS
10
2.21154
20
0.0621703
11
2.21174
21
0.062882
0
LINE
8
BLACK
6
CONTINUOUS
10
2.21174
20
0.062882
11
2.21179
21
0.0633774
0
LINE
8
BLACK
6
CONTINUOUS
10
2.21179
20
0.0633774
11
2.21181
21
0.0636649
0
LINE
8
BLACK
6
CONTINUOUS
10
2.21181
20
0.0636649
11
2.21181
21
0.0886569
0
LINE
8
BLACK
6
CONTINUOUS
10
2.21181
20
0.0886569
11
2.21163
21
0.0892569
0
LINE
8
BLACK
6
CONTINUOUS
10
2.21163
20
0.0892569
11
2.21158
21
0.0893043
0
LINE
8
BLACK
6
CONTINUOUS
10
2.21158
20
0.0893043
11
2.21128
21
0.0893701
0
LINE
8
BLACK
6
CONTINUOUS
10
2.21128
20
0.0893701
11
2.2
21
0.0893701
0
LINE
8
BLACK
6
CONTINUOUS
10
2.2
20
0.0893701
11
2.2
21
0.0652756
0
LINE
8
BLACK
6
CONTINUOUS
10
2.2
20
0.0652756
11
2.17591
21
0.0652756
0
LINE
8
BLACK
6
CONTINUOUS
10
2.17591
20
0.0652756
11
2.17591
21
0.0541778
0
LINE
8
BLACK
6
CONTINUOUS
10
2.17591
20
0.0541778
11
2.17608
21
0.0535778
0
LINE
8
BLACK
6
CONTINUOUS
10
2.17608
20
0.0535778
11
2.17614
21
0.0535304
0
LINE
8
BLACK
6
CONTINUOUS
10
0.240054
20
0.231136
11
0.239823
21
0.231656
0
LINE
8
BLACK
6
CONTINUOUS
10
0.239823
20
0.231656
11
0.238451
21
0.234745
0
LINE
8
BLACK
6
CONTINUOUS
10
0.238451
20
0.234745
11
0.238265
21
0.235164
0
LINE
8
BLACK
6
CONTINUOUS
10
0.238265
20
0.235164
11
0.235146
21
0.238277
0
LINE
8
BLACK
6
CONTINUOUS
10
0.235146
20
0.238277
11
0.234727
21
0.238462
0
LINE
8
BLACK
6
CONTINUOUS
10
0.234727
20
0.238462
11
0.234727
21
0.238462
0
LINE
8
BLACK
6
CONTINUOUS
10
0.234727
20
0.238462
11
0.232383
21
0.239499
0
LINE
8
BLACK
6
CONTINUOUS
10
0.232383
20
0.239499
11
0.231115
21
0.240059
0
LINE
8
BLACK
6
CONTINUOUS
10
0.231115
20
0.240059
11
0.230104
21
0.240177
0
LINE
8
BLACK
6
CONTINUOUS
10
0.230104
20
0.240177
11
0.11421
21
0.240177
0
LINE
8
BLACK
6
CONTINUOUS
10
0.11421
20
0.240177
11
0.111528
21
0.240965
0
LINE
8
BLACK
6
CONTINUOUS
10
0.111528
20
0.240965
11
0.110702
21
0.24163
0
LINE
8
BLACK
6
CONTINUOUS
10
0.110702
20
0.24163
11
0.0950947
21
0.257237
0
LINE
8
BLACK
6
CONTINUOUS
10
0.0950947
20
0.257237
11
0.0937551
21
0.259691
0
LINE
8
BLACK
6
CONTINUOUS
10
0.0937551
20
0.259691
11
0.0936417
21
0.260745
0
LINE
8
BLACK
6
CONTINUOUS
10
0.0936417
20
0.260745
11
0.0936417
21
0.274138
0
LINE
8
BLACK
6
CONTINUOUS
10
0.0936417
20
0.274138
11
0.0942408
21
0.276471
0
LINE
8
BLACK
6
CONTINUOUS
10
0.0942408
20
0.276471
11
0.0943449
21
0.276616
0
LINE
8
BLACK
6
CONTINUOUS
10
0.0943449
20
0.276616
11
0.0945552
21
0.277139
0
LINE
8
BLACK
6
CONTINUOUS
10
0.0945552
20
0.277139
11
0.0967231
21
0.282532
0
LINE
8
BLACK
6
CONTINUOUS
10
0.0967231
20
0.282532
11
0.0967231
21
0.282532
0
LINE
8
BLACK
6
CONTINUOUS
10
0.0967231
20
0.282532
11
0.0968347
21
0.28281
0
LINE
8
BLACK
6
CONTINUOUS
10
0.0968347
20
0.28281
11
0.0976924
21
0.288837
0
LINE
8
BLACK
6
CONTINUOUS
10
0.0976924
20
0.288837
11
0.0977523
21
0.289257
0
LINE
8
BLACK
6
CONTINUOUS
10
0.0977523
20
0.289257
11
0.0977523
21
0.289258
0
LINE
8
BLACK
6
CONTINUOUS
10
0.0977523
20
0.289258
11
0.0977752
21
0.289418
0
LINE
8
BLACK
6
CONTINUOUS
10
0.0977752
20
0.289418
11
0.0977813
21
0.29
0
LINE
8
BLACK
6
CONTINUOUS
10
0.0977813
20
0.29
11
0.0977102
21
0.290587
0
LINE
8
BLACK
6
CONTINUOUS
10
0.0977102
20
0.290587
11
0.0974863
21
0.292438
0
LINE
8
BLACK
6
CONTINUOUS
10
0.0974863
20
0.292438
11
0.0969794
21
0.296627
0
LINE
8
BLACK
6
CONTINUOUS
10
0.0969794
20
0.296627
11
0.0946199
21
0.302871
0
LINE
8
BLACK
6
CONTINUOUS
10
0.0946199
20
0.302871
11
0.0939852
21
0.303794
0
LINE
8
BLACK
6
CONTINUOUS
10
0.0939852
20
0.303794
11
0.0910084
21
0.308126
0
LINE
8
BLACK
6
CONTINUOUS
10
0.0910084
20
0.308126
11
0.0910084
21
0.308126
0
LINE
8
BLACK
6
CONTINUOUS
10
0.0910084
20
0.308126
11
0.0908391
21
0.308372
0
LINE
8
BLACK
6
CONTINUOUS
10
0.0908391
20
0.308372
11
0.0895644
21
0.309508
0
LINE
8
BLACK
6
CONTINUOUS
10
0.0895644
20
0.309508
11
0.0860784
21
0.312614
0
LINE
8
BLACK
6
CONTINUOUS
10
0.0860784
20
0.312614
11
0.0860783
21
0.312614
0
LINE
8
BLACK
6
CONTINUOUS
10
0.0860783
20
0.312614
11
0.0858552
21
0.312813
0
LINE
8
BLACK
6
CONTINUOUS
10
0.0858552
20
0.312813
11
0.0799559
21
0.315936
0
LINE
8
BLACK
6
CONTINUOUS
10
0.0799559
20
0.315936
11
0.0734819
21
0.317562
0
LINE
8
BLACK
6
CONTINUOUS
10
0.0734819
20
0.317562
11
0.0731828
21
0.317564
0
LINE
8
BLACK
6
CONTINUOUS
10
0.0731828
20
0.317564
11
0.0731827
21
0.317564
0
LINE
8
BLACK
6
CONTINUOUS
10
0.0731827
20
0.317564
11
0.0701444
21
0.31758
0
LINE
8
BLACK
6
CONTINUOUS
10
0.0701444
20
0.31758
11
0.0668069
21
0.317597
0
LINE
8
BLACK
6
CONTINUOUS
10
0.0668069
20
0.317597
11
0.0665161
21
0.317527
0
LINE
8
BLACK
6
CONTINUOUS
10
0.0665161
20
0.317527
11
0.0665159
21
0.317527
0
LINE
8
BLACK
6
CONTINUOUS
10
0.0665159
20
0.317527
11
0.0608725
21
0.316172
0
LINE
8
BLACK
6
CONTINUOUS
10
0.0608725
20
0.316172
11
0.0603162
21
0.316039
0
LINE
8
BLACK
6
CONTINUOUS
10
0.0603162
20
0.316039
11
0.0600507
21
0.315902
0
LINE
8
BLACK
6
CONTINUOUS
10
0.0600507
20
0.315902
11
0.0600506
21
0.315902
0
LINE
8
BLACK
6
CONTINUOUS
10
0.0600506
20
0.315902
11
0.059846
21
0.315796
0
LINE
8
BLACK
6
CONTINUOUS
10
0.059846
20
0.315796
11
0.0543846
21
0.312977
0
LINE
8
BLACK
6
CONTINUOUS
10
0.0543846
20
0.312977
11
0.0541593
21
0.312781
0
LINE
8
BLACK
6
CONTINUOUS
10
0.0541593
20
0.312781
11
0.0541593
21
0.312781
0
LINE
8
BLACK
6
CONTINUOUS
10
0.0541593
20
0.312781
11
0.0513413
21
0.310323
0
LINE
8
BLACK
6
CONTINUOUS
10
0.0513413
20
0.310323
11
0.0493545
21
0.308589
0
LINE
8
BLACK
6
CONTINUOUS
10
0.0493545
20
0.308589
11
0.0483356
21
0.30714
0
LINE
8
BLACK
6
CONTINUOUS
10
0.0483356
20
0.30714
11
0.0460315
21
0.303861
0
LINE
8
BLACK
6
CONTINUOUS
10
0.0460315
20
0.303861
11
0.0455163
21
0.303128
0
LINE
8
BLACK
6
CONTINUOUS
10
0.0455163
20
0.303128
11
0.0430915
21
0.296909
0
LINE
8
BLACK
6
CONTINUOUS
10
0.0430915
20
0.296909
11
0.0430524
21
0.296612
0
LINE
8
BLACK
6
CONTINUOUS
10
0.0430524
20
0.296612
11
0.0430524
21
0.296612
0
LINE
8
BLACK
6
CONTINUOUS
10
0.0430524
20
0.296612
11
0.0425029
21
0.292438
0
LINE
8
BLACK
6
CONTINUOUS
10
0.0425029
20
0.292438
11
0.0422202
21
0.290291
0
LINE
8
BLACK
6
CONTINUOUS
10
0.0422202
20
0.290291
11
0.0429527
21
0.283656
0
LINE
8
BLACK
6
CONTINUOUS
10
0.0429527
20
0.283656
11
0.0452467
21
0.277388
0
LINE
8
BLACK
6
CONTINUOUS
10
0.0452467
20
0.277388
11
0.045515
21
0.276988
0
LINE
8
BLACK
6
CONTINUOUS
10
0.045515
20
0.276988
11
0.0463583
21
0.274221
0
LINE
8
BLACK
6
CONTINUOUS
10
0.0463583
20
0.274221
11
0.0463583
21
0.250772
0
LINE
8
BLACK
6
CONTINUOUS
10
0.0463583
20
0.250772
11
0.0463158
21
0.250125
0
LINE
8
BLACK
6
CONTINUOUS
10
0.0463158
20
0.250125
11
0.0461543
21
0.248898
0
LINE
8
BLACK
6
CONTINUOUS
10
0.0461543
20
0.248898
11
0.0463583
21
0.247348
0
LINE
8
BLACK
6
CONTINUOUS
10
0.0463583
20
0.247348
11
0.0469668
21
0.242726
0
LINE
8
BLACK
6
CONTINUOUS
10
0.0469668
20
0.242726
11
0.049349
21
0.236975
0
LINE
8
BLACK
6
CONTINUOUS
10
0.049349
20
0.236975
11
0.0531385
21
0.232036
0
LINE
8
BLACK
6
CONTINUOUS
10
0.0531385
20
0.232036
11
0.0533962
21
0.231838
0
LINE
8
BLACK
6
CONTINUOUS
10
0.0533962
20
0.231838
11
0.0541209
21
0.231282
0
LINE
8
BLACK
6
CONTINUOUS
10
0.0541209
20
0.231282
11
0.0546087
21
0.230854
0
LINE
8
BLACK
6
CONTINUOUS
10
0.0546087
20
0.230854
11
0.0772675
21
0.208196
0
LINE
8
BLACK
6
CONTINUOUS
10
0.0772675
20
0.208196
11
0.0786071
21
0.205742
0
LINE
8
BLACK
6
CONTINUOUS
10
0.0786071
20
0.205742
11
0.0787205
21
0.204688
0
LINE
8
BLACK
6
CONTINUOUS
10
0.0787205
20
0.204688
11
0.0787205
21
0.0887935
0
LINE
8
BLACK
6
CONTINUOUS
10
0.0787205
20
0.0887935
11
0.0788432
21
0.087762
0
LINE
8
BLACK
6
CONTINUOUS
10
0.0788432
20
0.087762
11
0.0806323
21
0.0837341
0
LINE
8
BLACK
6
CONTINUOUS
10
0.0806323
20
0.0837341
11
0.0837515
21
0.0806204
0
LINE
8
BLACK
6
CONTINUOUS
10
0.0837515
20
0.0806204
11
0.0841702
21
0.0804353
0
LINE
8
BLACK
6
CONTINUOUS
10
0.0841702
20
0.0804353
11
0.0841703
21
0.0804352
0
LINE
8
BLACK
6
CONTINUOUS
10
0.0841703
20
0.0804352
11
0.0865143
21
0.079399
0
LINE
8
BLACK
6
CONTINUOUS
10
0.0865143
20
0.079399
11
0.0877824
21
0.0788383
0
LINE
8
BLACK
6
CONTINUOUS
10
0.0877824
20
0.0788383
11
0.0887935
21
0.0787205
0
LINE
8
BLACK
6
CONTINUOUS
10
0.0887935
20
0.0787205
11
0.230104
21
0.0787205
0
LINE
8
BLACK
6
CONTINUOUS
10
0.230104
20
0.0787205
11
0.23025
21
0.0787378
0
LINE
8
BLACK
6
CONTINUOUS
10
0.23025
20
0.0787378
11
0.23025
21
0.0787378
0
LINE
8
BLACK
6
CONTINUOUS
10
0.23025
20
0.0787378
11
0.230541
21
0.0787725
0
LINE
8
BLACK
6
CONTINUOUS
10
0.230541
20
0.0787725
11
0.231136
21
0.0788432
0
LINE
8
BLACK
6
CONTINUOUS
10
0.231136
20
0.0788432
11
0.235164
21
0.0806323
0
LINE
8
BLACK
6
CONTINUOUS
10
0.235164
20
0.0806323
11
0.238277
21
0.0837515
0
LINE
8
BLACK
6
CONTINUOUS
10
0.238277
20
0.0837515
11
0.240059
21
0.0877824
0
LINE
8
BLACK
6
CONTINUOUS
10
0.240059
20
0.0877824
11
0.240177
21
0.0887935
0
LINE
8
BLACK
6
CONTINUOUS
10
0.240177
20
0.0887935
11
0.240177
21
0.230104
0
LINE
8
BLACK
6
CONTINUOUS
10
0.240177
20
0.230104
11
0.240054
21
0.231136
0
LINE
8
BLACK
6
CONTINUOUS
10
2.21179
20
0.127177
11
2.21173
21
0.12769
0
LINE
8
BLACK
6
CONTINUOUS
10
2.21173
20
0.12769
11
2.21154
21
0.128401
0
LINE
8
BLACK
6
CONTINUOUS
10
2.21154
20
0.128401
11
2.21009
21
0.131663
0
LINE
8
BLACK
6
CONTINUOUS
10
2.21009
20
0.131663
11
2.20958
21
0.132405
0
LINE
8
BLACK
6
CONTINUOUS
10
2.20958
20
0.132405
11
2.20711
21
0.134866
0
LINE
8
BLACK
6
CONTINUOUS
10
2.20711
20
0.134866
11
2.20637
21
0.135375
0
LINE
8
BLACK
6
CONTINUOUS
10
2.20637
20
0.135375
11
2.20311
21
0.136818
0
LINE
8
BLACK
6
CONTINUOUS
10
2.20311
20
0.136818
11
2.20239
21
0.137012
0
LINE
8
BLACK
6
CONTINUOUS
10
2.20239
20
0.137012
11
2.2019
21
0.13707
0
LINE
8
BLACK
6
CONTINUOUS
10
2.2019
20
0.13707
11
2.20161
21
0.137087
0
LINE
8
BLACK
6
CONTINUOUS
10
2.20161
20
0.137087
11
2.17662
21
0.137087
0
LINE
8
BLACK
6
CONTINUOUS
10
2.17662
20
0.137087
11
2.17602
21
0.13691
0
LINE
8
BLACK
6
CONTINUOUS
10
2.17602
20
0.13691
11
2.17597
21
0.136856
0
LINE
8
BLACK
6
CONTINUOUS
10
2.17597
20
0.136856
11
2.17591
21
0.136553
0
LINE
8
BLACK
6
CONTINUOUS
10
2.17591
20
0.136553
11
2.17591
21
0.125276
0
LINE
8
BLACK
6
CONTINUOUS
10
2.17591
20
0.125276
11
2.2
21
0.125276
0
LINE
8
BLACK
6
CONTINUOUS
10
2.2
20
0.125276
11
2.2
21
0.101181
0
LINE
8
BLACK
6
CONTINUOUS
10
2.2
20
0.101181
11
2.2111
21
0.101181
0
LINE
8
BLACK
6
CONTINUOUS
10
2.2111
20
0.101181
11
2.2117
21
0.101357
0
LINE
8
BLACK
6
CONTINUOUS
10
2.2117
20
0.101357
11
2.21175
21
0.101412
0
LINE
8
BLACK
6
CONTINUOUS
10
2.21175
20
0.101412
11
2.21181
21
0.101714
0
LINE
8
BLACK
6
CONTINUOUS
10
2.21181
20
0.101714
11
2.21181
21
0.126883
0
LINE
8
BLACK
6
CONTINUOUS
10
2.21181
20
0.126883
11
2.21179
21
0.127177
0
LINE
8
BLACK
6
CONTINUOUS
10
2.13008
20
0.158459
11
2.1332
21
0.155345
0
LINE
8
BLACK
6
CONTINUOUS
10
2.1332
20
0.155345
11
2.13362
21
0.15516
0
LINE
8
BLACK
6
CONTINUOUS
10
2.13362
20
0.15516
11
2.13362
21
0.15516
0
LINE
8
BLACK
6
CONTINUOUS
10
2.13362
20
0.15516
11
2.13596
21
0.154123
0
LINE
8
BLACK
6
CONTINUOUS
10
2.13596
20
0.154123
11
2.13723
21
0.153563
0
LINE
8
BLACK
6
CONTINUOUS
10
2.13723
20
0.153563
11
2.13824
21
0.153445
0
LINE
8
BLACK
6
CONTINUOUS
10
2.13824
20
0.153445
11
2.20176
21
0.153445
0
LINE
8
BLACK
6
CONTINUOUS
10
2.20176
20
0.153445
11
2.2019
21
0.153462
0
LINE
8
BLACK
6
CONTINUOUS
10
2.2019
20
0.153462
11
2.2019
21
0.153462
0
LINE
8
BLACK
6
CONTINUOUS
10
2.2019
20
0.153462
11
2.20219
21
0.153497
0
LINE
8
BLACK
6
CONTINUOUS
10
2.20219
20
0.153497
11
2.20279
21
0.153568
0
LINE
8
BLACK
6
CONTINUOUS
10
2.20279
20
0.153568
11
2.20682
21
0.155357
0
LINE
8
BLACK
6
CONTINUOUS
10
2.20682
20
0.155357
11
2.20993
21
0.158476
0
LINE
8
BLACK
6
CONTINUOUS
10
2.20993
20
0.158476
11
2.21171
21
0.162507
0
LINE
8
BLACK
6
CONTINUOUS
10
2.21171
20
0.162507
11
2.21183
21
0.163518
0
LINE
8
BLACK
6
CONTINUOUS
10
2.21183
20
0.163518
11
2.21183
21
0.227033
0
LINE
8
BLACK
6
CONTINUOUS
10
2.21183
20
0.227033
11
2.21171
21
0.228065
0
LINE
8
BLACK
6
CONTINUOUS
10
2.21171
20
0.228065
11
2.21087
21
0.22996
0
LINE
8
BLACK
6
CONTINUOUS
10
2.21087
20
0.22996
11
2.2101
21
0.231674
0
LINE
8
BLACK
6
CONTINUOUS
10
2.2101
20
0.231674
11
2.20992
21
0.232093
0
LINE
8
BLACK
6
CONTINUOUS
10
2.20992
20
0.232093
11
2.2068
21
0.235206
0
LINE
8
BLACK
6
CONTINUOUS
10
2.2068
20
0.235206
11
2.20638
21
0.235391
0
LINE
8
BLACK
6
CONTINUOUS
10
2.20638
20
0.235391
11
2.20638
21
0.235392
0
LINE
8
BLACK
6
CONTINUOUS
10
2.20638
20
0.235392
11
2.20404
21
0.236428
0
LINE
8
BLACK
6
CONTINUOUS
10
2.20404
20
0.236428
11
2.20277
21
0.236988
0
LINE
8
BLACK
6
CONTINUOUS
10
2.20277
20
0.236988
11
2.20176
21
0.237106
0
LINE
8
BLACK
6
CONTINUOUS
10
2.20176
20
0.237106
11
2.13824
21
0.237106
0
LINE
8
BLACK
6
CONTINUOUS
10
2.13824
20
0.237106
11
2.1381
21
0.237089
0
LINE
8
BLACK
6
CONTINUOUS
10
2.1381
20
0.237089
11
2.1381
21
0.237089
0
LINE
8
BLACK
6
CONTINUOUS
10
2.1381
20
0.237089
11
2.13781
21
0.237054
0
LINE
8
BLACK
6
CONTINUOUS
10
2.13781
20
0.237054
11
2.13721
21
0.236984
0
LINE
8
BLACK
6
CONTINUOUS
10
2.13721
20
0.236984
11
2.13687
21
0.236832
0
LINE
8
BLACK
6
CONTINUOUS
10
2.13687
20
0.236832
11
2.13687
21
0.236832
0
LINE
8
BLACK
6
CONTINUOUS
10
2.13687
20
0.236832
11
2.13384
21
0.235487
0
LINE
8
BLACK
6
CONTINUOUS
10
2.13384
20
0.235487
11
2.13318
21
0.235194
0
LINE
8
BLACK
6
CONTINUOUS
10
2.13318
20
0.235194
11
2.13286
21
0.23487
0
LINE
8
BLACK
6
CONTINUOUS
10
2.13286
20
0.23487
11
2.13286
21
0.23487
0
LINE
8
BLACK
6
CONTINUOUS
10
2.13286
20
0.23487
11
2.13162
21
0.233629
0
LINE
8
BLACK
6
CONTINUOUS
10
2.13162
20
0.233629
11
2.13007
21
0.232075
0
LINE
8
BLACK
6
CONTINUOUS
10
2.13007
20
0.232075
11
2.12988
21
0.231657
0
LINE
8
BLACK
6
CONTINUOUS
10
2.12988
20
0.231657
11
2.12988
21
0.231656
0
LINE
8
BLACK
6
CONTINUOUS
10
2.12988
20
0.231656
11
2.12953
21
0.230854
0
LINE
8
BLACK
6
CONTINUOUS
10
2.12953
20
0.230854
11
2.12829
21
0.228044
0
LINE
8
BLACK
6
CONTINUOUS
10
2.12829
20
0.228044
11
2.12817
21
0.227033
0
LINE
8
BLACK
6
CONTINUOUS
10
2.12817
20
0.227033
11
2.12817
21
0.163518
0
LINE
8
BLACK
6
CONTINUOUS
10
2.12817
20
0.163518
11
2.12829
21
0.162486
0
LINE
8
BLACK
6
CONTINUOUS
10
2.12829
20
0.162486
11
2.13008
21
0.158459
0
LINE
8
BLACK
6
CONTINUOUS
10
2.24
20
0.265276
11
2.24
21
0.28937
0
LINE
8
BLACK
6
CONTINUOUS
10
2.24
20
0.28937
11
2.2289
21
0.28937
0
LINE
8
BLACK
6
CONTINUOUS
10
2.2289
20
0.28937
11
2.2283
21
0.289194
0
LINE
8
BLACK
6
CONTINUOUS
10
2.2283
20
0.289194
11
2.22825
21
0.289139
0
LINE
8
BLACK
6
CONTINUOUS
10
2.22825
20
0.289139
11
2.22819
21
0.288837
0
LINE
8
BLACK
6
CONTINUOUS
10
2.22819
20
0.288837
11
2.22819
21
0.263668
0
LINE
8
BLACK
6
CONTINUOUS
10
2.22819
20
0.263668
11
2.22821
21
0.263375
0
LINE
8
BLACK
6
CONTINUOUS
10
2.22821
20
0.263375
11
2.22827
21
0.262861
0
LINE
8
BLACK
6
CONTINUOUS
10
2.22827
20
0.262861
11
2.22846
21
0.262151
0
LINE
8
BLACK
6
CONTINUOUS
10
2.22846
20
0.262151
11
2.22991
21
0.258889
0
LINE
8
BLACK
6
CONTINUOUS
10
2.22991
20
0.258889
11
2.23042
21
0.258146
0
LINE
8
BLACK
6
CONTINUOUS
10
2.23042
20
0.258146
11
2.23289
21
0.255685
0
LINE
8
BLACK
6
CONTINUOUS
10
2.23289
20
0.255685
11
2.23363
21
0.255176
0
LINE
8
BLACK
6
CONTINUOUS
10
2.23363
20
0.255176
11
2.23689
21
0.253733
0
LINE
8
BLACK
6
CONTINUOUS
10
2.23689
20
0.253733
11
2.23761
21
0.253539
0
LINE
8
BLACK
6
CONTINUOUS
10
2.23761
20
0.253539
11
2.2381
21
0.253481
0
LINE
8
BLACK
6
CONTINUOUS
10
2.2381
20
0.253481
11
2.23839
21
0.253465
0
LINE
8
BLACK
6
CONTINUOUS
10
2.23839
20
0.253465
11
2.26338
21
0.253465
0
LINE
8
BLACK
6
CONTINUOUS
10
2.26338
20
0.253465
11
2.26398
21
0.253641
0
LINE
8
BLACK
6
CONTINUOUS
10
2.26398
20
0.253641
11
2.26403
21
0.253695
0
LINE
8
BLACK
6
CONTINUOUS
10
2.26403
20
0.253695
11
2.26409
21
0.253998
0
LINE
8
BLACK
6
CONTINUOUS
10
2.26409
20
0.253998
11
2.26409
21
0.265276
0
LINE
8
BLACK
6
CONTINUOUS
10
2.26409
20
0.265276
11
2.24
21
0.265276
0
LINE
8
BLACK
6
CONTINUOUS
10
2.12827
20
0.262861
11
2.12846
21
0.262151
0
LINE
8
BLACK
6
CONTINUOUS
10
2.12846
20
0.262151
11
2.12991
21
0.258889
0
LINE
8
BLACK
6
CONTINUOUS
10
2.12991
20
0.258889
11
2.13042
21
0.258146
0
LINE
8
BLACK
6
CONTINUOUS
10
2.13042
20
0.258146
11
2.13289
21
0.255685
0
LINE
8
BLACK
6
CONTINUOUS
10
2.13289
20
0.255685
11
2.13363
21
0.255176
0
LINE
8
BLACK
6
CONTINUOUS
10
2.13363
20
0.255176
11
2.13689
21
0.253733
0
LINE
8
BLACK
6
CONTINUOUS
10
2.13689
20
0.253733
11
2.13761
21
0.253539
0
LINE
8
BLACK
6
CONTINUOUS
10
2.13761
20
0.253539
11
2.1381
21
0.253481
0
LINE
8
BLACK
6
CONTINUOUS
10
2.1381
20
0.253481
11
2.13839
21
0.253465
0
LINE
8
BLACK
6
CONTINUOUS
10
2.13839
20
0.253465
11
2.16338
21
0.253465
0
LINE
8
BLACK
6
CONTINUOUS
10
2.16338
20
0.253465
11
2.16398
21
0.253641
0
LINE
8
BLACK
6
CONTINUOUS
10
2.16398
20
0.253641
11
2.16403
21
0.253695
0
LINE
8
BLACK
6
CONTINUOUS
10
2.16403
20
0.253695
11
2.16409
21
0.253998
0
LINE
8
BLACK
6
CONTINUOUS
10
2.16409
20
0.253998
11
2.16409
21
0.265276
0
LINE
8
BLACK
6
CONTINUOUS
10
2.16409
20
0.265276
11
2.14
21
0.265276
0
LINE
8
BLACK
6
CONTINUOUS
10
2.14
20
0.265276
11
2.14
21
0.28937
0
LINE
8
BLACK
6
CONTINUOUS
10
2.14
20
0.28937
11
2.1289
21
0.28937
0
LINE
8
BLACK
6
CONTINUOUS
10
2.1289
20
0.28937
11
2.1283
21
0.289194
0
LINE
8
BLACK
6
CONTINUOUS
10
2.1283
20
0.289194
11
2.12825
21
0.289139
0
LINE
8
BLACK
6
CONTINUOUS
10
2.12825
20
0.289139
11
2.12819
21
0.288837
0
LINE
8
BLACK
6
CONTINUOUS
10
2.12819
20
0.288837
11
2.12819
21
0.263668
0
LINE
8
BLACK
6
CONTINUOUS
10
2.12819
20
0.263668
11
2.12821
21
0.263375
0
LINE
8
BLACK
6
CONTINUOUS
10
2.12821
20
0.263375
11
2.12827
21
0.262861
0
LINE
8
BLACK
6
CONTINUOUS
10
2.17614
20
0.25353
11
2.17644
21
0.253465
0
LINE
8
BLACK
6
CONTINUOUS
10
2.17644
20
0.253465
11
2.20161
21
0.253465
0
LINE
8
BLACK
6
CONTINUOUS
10
2.20161
20
0.253465
11
2.2019
21
0.253482
0
LINE
8
BLACK
6
CONTINUOUS
10
2.2019
20
0.253482
11
2.20241
21
0.253543
0
LINE
8
BLACK
6
CONTINUOUS
10
2.20241
20
0.253543
11
2.20312
21
0.253738
0
LINE
8
BLACK
6
CONTINUOUS
10
2.20312
20
0.253738
11
2.20639
21
0.255187
0
LINE
8
BLACK
6
CONTINUOUS
10
2.20639
20
0.255187
11
2.20713
21
0.255697
0
LINE
8
BLACK
6
CONTINUOUS
10
2.20713
20
0.255697
11
2.20959
21
0.258163
0
LINE
8
BLACK
6
CONTINUOUS
10
2.20959
20
0.258163
11
2.2101
21
0.258906
0
LINE
8
BLACK
6
CONTINUOUS
10
2.2101
20
0.258906
11
2.21154
21
0.26217
0
LINE
8
BLACK
6
CONTINUOUS
10
2.21154
20
0.26217
11
2.21174
21
0.262882
0
LINE
8
BLACK
6
CONTINUOUS
10
2.21174
20
0.262882
11
2.21179
21
0.263377
0
LINE
8
BLACK
6
CONTINUOUS
10
2.21179
20
0.263377
11
2.21181
21
0.263665
0
LINE
8
BLACK
6
CONTINUOUS
10
2.21181
20
0.263665
11
2.21181
21
0.288657
0
LINE
8
BLACK
6
CONTINUOUS
10
2.21181
20
0.288657
11
2.21163
21
0.289257
0
LINE
8
BLACK
6
CONTINUOUS
10
2.21163
20
0.289257
11
2.21158
21
0.289304
0
LINE
8
BLACK
6
CONTINUOUS
10
2.21158
20
0.289304
11
2.21128
21
0.28937
0
LINE
8
BLACK
6
CONTINUOUS
10
2.21128
20
0.28937
11
2.2
21
0.28937
0
LINE
8
BLACK
6
CONTINUOUS
10
2.2
20
0.28937
11
2.2
21
0.265276
0
LINE
8
BLACK
6
CONTINUOUS
10
2.2
20
0.265276
11
2.17591
21
0.265276
0
LINE
8
BLACK
6
CONTINUOUS
10
2.17591
20
0.265276
11
2.17591
21
0.254178
0
LINE
8
BLACK
6
CONTINUOUS
10
2.17591
20
0.254178
11
2.17608
21
0.253578
0
LINE
8
BLACK
6
CONTINUOUS
10
2.17608
20
0.253578
11
2.17614
21
0.25353
0
LINE
8
BLACK
6
CONTINUOUS
10
2.21179
20
0.327177
11
2.21173
21
0.32769
0
LINE
8
BLACK
6
CONTINUOUS
10
2.21173
20
0.32769
11
2.21154
21
0.328401
0
LINE
8
BLACK
6
CONTINUOUS
10
2.21154
20
0.328401
11
2.21009
21
0.331663
0
LINE
8
BLACK
6
CONTINUOUS
10
2.21009
20
0.331663
11
2.20958
21
0.332405
0
LINE
8
BLACK
6
CONTINUOUS
10
2.20958
20
0.332405
11
2.20711
21
0.334866
0
LINE
8
BLACK
6
CONTINUOUS
10
2.20711
20
0.334866
11
2.20637
21
0.335375
0
LINE
8
BLACK
6
CONTINUOUS
10
2.20637
20
0.335375
11
2.20311
21
0.336818
0
LINE
8
BLACK
6
CONTINUOUS
10
2.20311
20
0.336818
11
2.20239
21
0.337012
0
LINE
8
BLACK
6
CONTINUOUS
10
2.20239
20
0.337012
11
2.2019
21
0.33707
0
LINE
8
BLACK
6
CONTINUOUS
10
2.2019
20
0.33707
11
2.20161
21
0.337087
0
LINE
8
BLACK
6
CONTINUOUS
10
2.20161
20
0.337087
11
2.17662
21
0.337087
0
LINE
8
BLACK
6
CONTINUOUS
10
2.17662
20
0.337087
11
2.17602
21
0.33691
0
LINE
8
BLACK
6
CONTINUOUS
10
2.17602
20
0.33691
11
2.17597
21
0.336856
0
LINE
8
BLACK
6
CONTINUOUS
10
2.17597
20
0.336856
11
2.17591
21
0.336553
0
LINE
8
BLACK
6
CONTINUOUS
10
2.17591
20
0.336553
11
2.17591
21
0.325276
0
LINE
8
BLACK
6
CONTINUOUS
10
2.17591
20
0.325276
11
2.2
21
0.325276
0
LINE
8
BLACK
6
CONTINUOUS
10
2.2
20
0.325276
11
2.2
21
0.301181
0
LINE
8
BLACK
6
CONTINUOUS
10
2.2
20
0.301181
11
2.2111
21
0.301181
0
LINE
8
BLACK
6
CONTINUOUS
10
2.2111
20
0.301181
11
2.2117
21
0.301357
0
LINE
8
BLACK
6
CONTINUOUS
10
2.2117
20
0.301357
11
2.21175
21
0.301412
0
LINE
8
BLACK
6
CONTINUOUS
10
2.21175
20
0.301412
11
2.21181
21
0.301714
0
LINE
8
BLACK
6
CONTINUOUS
10
2.21181
20
0.301714
11
2.21181
21
0.326883
0
LINE
8
BLACK
6
CONTINUOUS
10
2.21181
20
0.326883
11
2.21179
21
0.327177
0
LINE
8
BLACK
6
CONTINUOUS
10
1.73306
20
0.323375
11
1.73456
21
0.319257
0
LINE
8
BLACK
6
CONTINUOUS
10
1.73456
20
0.319257
11
1.73525
21
0.317388
0
LINE
8
BLACK
6
CONTINUOUS
10
1.73525
20
0.317388
11
1.73897
21
0.311847
0
LINE
8
BLACK
6
CONTINUOUS
10
1.73897
20
0.311847
11
1.73919
21
0.311646
0
LINE
8
BLACK
6
CONTINUOUS
10
1.73919
20
0.311646
11
1.73919
21
0.311646
0
LINE
8
BLACK
6
CONTINUOUS
10
1.73919
20
0.311646
11
1.74369
21
0.307556
0
LINE
8
BLACK
6
CONTINUOUS
10
1.74369
20
0.307556
11
1.74369
21
0.307556
0
LINE
8
BLACK
6
CONTINUOUS
10
1.74369
20
0.307556
11
1.74391
21
0.307355
0
LINE
8
BLACK
6
CONTINUOUS
10
1.74391
20
0.307355
11
1.74417
21
0.307212
0
LINE
8
BLACK
6
CONTINUOUS
10
1.74417
20
0.307212
11
1.74417
21
0.307212
0
LINE
8
BLACK
6
CONTINUOUS
10
1.74417
20
0.307212
11
1.74951
21
0.304312
0
LINE
8
BLACK
6
CONTINUOUS
10
1.74951
20
0.304312
11
1.74951
21
0.304312
0
LINE
8
BLACK
6
CONTINUOUS
10
1.74951
20
0.304312
11
1.74977
21
0.30417
0
LINE
8
BLACK
6
CONTINUOUS
10
1.74977
20
0.30417
11
1.75006
21
0.304094
0
LINE
8
BLACK
6
CONTINUOUS
10
1.75006
20
0.304094
11
1.75594
21
0.302552
0
LINE
8
BLACK
6
CONTINUOUS
10
1.75594
20
0.302552
11
1.75594
21
0.302552
0
LINE
8
BLACK
6
CONTINUOUS
10
1.75594
20
0.302552
11
1.75623
21
0.302476
0
LINE
8
BLACK
6
CONTINUOUS
10
1.75623
20
0.302476
11
1.75963
21
0.302422
0
LINE
8
BLACK
6
CONTINUOUS
10
1.75963
20
0.302422
11
1.7626
21
0.302376
0
LINE
8
BLACK
6
CONTINUOUS
10
1.7626
20
0.302376
11
1.7626
21
0.302376
0
LINE
8
BLACK
6
CONTINUOUS
10
1.7626
20
0.302376
11
1.7629
21
0.302371
0
LINE
8
BLACK
6
CONTINUOUS
10
1.7629
20
0.302371
11
1.7632
21
0.302438
0
LINE
8
BLACK
6
CONTINUOUS
10
1.7632
20
0.302438
11
1.7632
21
0.302438
0
LINE
8
BLACK
6
CONTINUOUS
10
1.7632
20
0.302438
11
1.76728
21
0.303373
0
LINE
8
BLACK
6
CONTINUOUS
10
1.76728
20
0.303373
11
1.76941
21
0.303861
0
LINE
8
BLACK
6
CONTINUOUS
10
1.76941
20
0.303861
11
1.77537
21
0.30686
0
LINE
8
BLACK
6
CONTINUOUS
10
1.77537
20
0.30686
11
1.7756
21
0.307054
0
LINE
8
BLACK
6
CONTINUOUS
10
1.7756
20
0.307054
11
1.7756
21
0.307054
0
LINE
8
BLACK
6
CONTINUOUS
10
1.7756
20
0.307054
11
1.77723
21
0.308444
0
LINE
8
BLACK
6
CONTINUOUS
10
1.77723
20
0.308444
11
1.778
21
0.309107
0
LINE
8
BLACK
6
CONTINUOUS
10
1.778
20
0.309107
11
1.78055
21
0.31025
0
LINE
8
BLACK
6
CONTINUOUS
10
1.78055
20
0.31025
11
1.78123
21
0.310295
0
LINE
8
BLACK
6
CONTINUOUS
10
1.78123
20
0.310295
11
1.92077
21
0.310295
0
LINE
8
BLACK
6
CONTINUOUS
10
1.92077
20
0.310295
11
1.92345
21
0.309508
0
LINE
8
BLACK
6
CONTINUOUS
10
1.92345
20
0.309508
11
1.92517
21
0.307608
0
LINE
8
BLACK
6
CONTINUOUS
10
1.92517
20
0.307608
11
1.92525
21
0.307388
0
LINE
8
BLACK
6
CONTINUOUS
10
1.92525
20
0.307388
11
1.92541
21
0.30714
0
LINE
8
BLACK
6
CONTINUOUS
10
1.92541
20
0.30714
11
1.92541
21
0.30714
0
LINE
8
BLACK
6
CONTINUOUS
10
1.92541
20
0.30714
11
1.92593
21
0.306374
0
LINE
8
BLACK
6
CONTINUOUS
10
1.92593
20
0.306374
11
1.92897
21
0.301847
0
LINE
8
BLACK
6
CONTINUOUS
10
1.92897
20
0.301847
11
1.92919
21
0.301646
0
LINE
8
BLACK
6
CONTINUOUS
10
1.92919
20
0.301646
11
1.92919
21
0.301646
0
LINE
8
BLACK
6
CONTINUOUS
10
1.92919
20
0.301646
11
1.93369
21
0.297556
0
LINE
8
BLACK
6
CONTINUOUS
10
1.93369
20
0.297556
11
1.93369
21
0.297556
0
LINE
8
BLACK
6
CONTINUOUS
10
1.93369
20
0.297556
11
1.93391
21
0.297355
0
LINE
8
BLACK
6
CONTINUOUS
10
1.93391
20
0.297355
11
1.93417
21
0.297212
0
LINE
8
BLACK
6
CONTINUOUS
10
1.93417
20
0.297212
11
1.93417
21
0.297212
0
LINE
8
BLACK
6
CONTINUOUS
10
1.93417
20
0.297212
11
1.93951
21
0.294312
0
LINE
8
BLACK
6
CONTINUOUS
10
1.93951
20
0.294312
11
1.93951
21
0.294312
0
LINE
8
BLACK
6
CONTINUOUS
10
1.93951
20
0.294312
11
1.93977
21
0.29417
0
LINE
8
BLACK
6
CONTINUOUS
10
1.93977
20
0.29417
11
1.94006
21
0.294094
0
LINE
8
BLACK
6
CONTINUOUS
10
1.94006
20
0.294094
11
1.94594
21
0.292552
0
LINE
8
BLACK
6
CONTINUOUS
10
1.94594
20
0.292552
11
1.94594
21
0.292552
0
LINE
8
BLACK
6
CONTINUOUS
10
1.94594
20
0.292552
11
1.94623
21
0.292476
0
LINE
8
BLACK
6
CONTINUOUS
10
1.94623
20
0.292476
11
1.94963
21
0.292422
0
LINE
8
BLACK
6
CONTINUOUS
10
1.94963
20
0.292422
11
1.9526
21
0.292376
0
LINE
8
BLACK
6
CONTINUOUS
10
1.9526
20
0.292376
11
1.9526
21
0.292376
0
LINE
8
BLACK
6
CONTINUOUS
10
1.9526
20
0.292376
11
1.9529
21
0.292371
0
LINE
8
BLACK
6
CONTINUOUS
10
1.9529
20
0.292371
11
1.9532
21
0.292438
0
LINE
8
BLACK
6
CONTINUOUS
10
1.9532
20
0.292438
11
1.9532
21
0.292438
0
LINE
8
BLACK
6
CONTINUOUS
10
1.9532
20
0.292438
11
1.95557
21
0.292982
0
LINE
8
BLACK
6
CONTINUOUS
10
1.95557
20
0.292982
11
1.95941
21
0.293861
0
LINE
8
BLACK
6
CONTINUOUS
10
1.95941
20
0.293861
11
1.96537
21
0.29686
0
LINE
8
BLACK
6
CONTINUOUS
10
1.96537
20
0.29686
11
1.97045
21
0.301196
0
LINE
8
BLACK
6
CONTINUOUS
10
1.97045
20
0.301196
11
1.97095
21
0.301894
0
LINE
8
BLACK
6
CONTINUOUS
10
1.97095
20
0.301894
11
1.97434
21
0.306616
0
LINE
8
BLACK
6
CONTINUOUS
10
1.97434
20
0.306616
11
1.97504
21
0.308345
0
LINE
8
BLACK
6
CONTINUOUS
10
1.97504
20
0.308345
11
1.97672
21
0.312532
0
LINE
8
BLACK
6
CONTINUOUS
10
1.97672
20
0.312532
11
1.97672
21
0.312532
0
LINE
8
BLACK
6
CONTINUOUS
10
1.97672
20
0.312532
11
1.97683
21
0.31281
0
LINE
8
BLACK
6
CONTINUOUS
10
1.97683
20
0.31281
11
1.97778
21
0.319418
0
LINE
8
BLACK
6
CONTINUOUS
10
1.97778
20
0.319418
11
1.97778
21
0.32
0
LINE
8
BLACK
6
CONTINUOUS
10
1.97778
20
0.32
11
1.97698
21
0.326627
0
LINE
8
BLACK
6
CONTINUOUS
10
1.97698
20
0.326627
11
1.97462
21
0.332871
0
LINE
8
BLACK
6
CONTINUOUS
10
1.97462
20
0.332871
11
1.97191
21
0.336818
0
LINE
8
BLACK
6
CONTINUOUS
10
1.97191
20
0.336818
11
1.97101
21
0.338126
0
LINE
8
BLACK
6
CONTINUOUS
10
1.97101
20
0.338126
11
1.97101
21
0.338126
0
LINE
8
BLACK
6
CONTINUOUS
10
1.97101
20
0.338126
11
1.97084
21
0.338372
0
LINE
8
BLACK
6
CONTINUOUS
10
1.97084
20
0.338372
11
1.97062
21
0.338571
0
LINE
8
BLACK
6
CONTINUOUS
10
1.97062
20
0.338571
11
1.96608
21
0.342614
0
LINE
8
BLACK
6
CONTINUOUS
10
1.96608
20
0.342614
11
1.96608
21
0.342614
0
LINE
8
BLACK
6
CONTINUOUS
10
1.96608
20
0.342614
11
1.96586
21
0.342813
0
LINE
8
BLACK
6
CONTINUOUS
10
1.96586
20
0.342813
11
1.95996
21
0.345936
0
LINE
8
BLACK
6
CONTINUOUS
10
1.95996
20
0.345936
11
1.95348
21
0.347562
0
LINE
8
BLACK
6
CONTINUOUS
10
1.95348
20
0.347562
11
1.95318
21
0.347564
0
LINE
8
BLACK
6
CONTINUOUS
10
1.95318
20
0.347564
11
1.95318
21
0.347564
0
LINE
8
BLACK
6
CONTINUOUS
10
1.95318
20
0.347564
11
1.95158
21
0.347572
0
LINE
8
BLACK
6
CONTINUOUS
10
1.95158
20
0.347572
11
1.95012
21
0.34758
0
LINE
8
BLACK
6
CONTINUOUS
10
1.95012
20
0.34758
11
1.9484
21
0.347895
0
LINE
8
BLACK
6
CONTINUOUS
10
1.9484
20
0.347895
11
1.94784
21
0.348105
0
LINE
8
BLACK
6
CONTINUOUS
10
1.94784
20
0.348105
11
1.94748
21
0.348259
0
LINE
8
BLACK
6
CONTINUOUS
10
1.94748
20
0.348259
11
1.94614
21
0.348887
0
LINE
8
BLACK
6
CONTINUOUS
10
1.94614
20
0.348887
11
1.94614
21
0.348887
0
LINE
8
BLACK
6
CONTINUOUS
10
1.94614
20
0.348887
11
1.94582
21
0.349038
0
LINE
8
BLACK
6
CONTINUOUS
10
1.94582
20
0.349038
11
1.94547
21
0.349092
0
LINE
8
BLACK
6
CONTINUOUS
10
1.94547
20
0.349092
11
1.94533
21
0.349135
0
LINE
8
BLACK
6
CONTINUOUS
10
1.94533
20
0.349135
11
1.94475
21
0.349287
0
LINE
8
BLACK
6
CONTINUOUS
10
1.94475
20
0.349287
11
1.94461
21
0.349319
0
LINE
8
BLACK
6
CONTINUOUS
10
1.94461
20
0.349319
11
1.94427
21
0.349443
0
LINE
8
BLACK
6
CONTINUOUS
10
1.94427
20
0.349443
11
1.94245
21
0.349579
0
LINE
8
BLACK
6
CONTINUOUS
10
1.94245
20
0.349579
11
1.94205
21
0.349624
0
LINE
8
BLACK
6
CONTINUOUS
10
1.94205
20
0.349624
11
1.94154
21
0.349705
0
LINE
8
BLACK
6
CONTINUOUS
10
1.94154
20
0.349705
11
1.94094
21
0.349705
0
LINE
8
BLACK
6
CONTINUOUS
10
1.94094
20
0.349705
11
1.94057
21
0.349718
0
LINE
8
BLACK
6
CONTINUOUS
10
1.94057
20
0.349718
11
1.93996
21
0.349763
0
LINE
8
BLACK
6
CONTINUOUS
10
1.93996
20
0.349763
11
1.93865
21
0.349861
0
LINE
8
BLACK
6
CONTINUOUS
10
1.93865
20
0.349861
11
1.9383
21
0.349788
0
LINE
8
BLACK
6
CONTINUOUS
10
1.9383
20
0.349788
11
1.93795
21
0.349763
0
LINE
8
BLACK
6
CONTINUOUS
10
1.93795
20
0.349763
11
1.93795
21
0.349764
0
LINE
8
BLACK
6
CONTINUOUS
10
1.93795
20
0.349764
11
1.93739
21
0.349705
0
LINE
8
BLACK
6
CONTINUOUS
10
1.93739
20
0.349705
11
1.78123
21
0.349705
0
LINE
8
BLACK
6
CONTINUOUS
10
1.78123
20
0.349705
11
1.77855
21
0.350492
0
LINE
8
BLACK
6
CONTINUOUS
10
1.77855
20
0.350492
11
1.77793
21
0.350961
0
LINE
8
BLACK
6
CONTINUOUS
10
1.77793
20
0.350961
11
1.77586
21
0.352813
0
LINE
8
BLACK
6
CONTINUOUS
10
1.77586
20
0.352813
11
1.76996
21
0.355936
0
LINE
8
BLACK
6
CONTINUOUS
10
1.76996
20
0.355936
11
1.76348
21
0.357562
0
LINE
8
BLACK
6
CONTINUOUS
10
1.76348
20
0.357562
11
1.76318
21
0.357564
0
LINE
8
BLACK
6
CONTINUOUS
10
1.76318
20
0.357564
11
1.76318
21
0.357564
0
LINE
8
BLACK
6
CONTINUOUS
10
1.76318
20
0.357564
11
1.76014
21
0.35758
0
LINE
8
BLACK
6
CONTINUOUS
10
1.76014
20
0.35758
11
1.75681
21
0.357597
0
LINE
8
BLACK
6
CONTINUOUS
10
1.75681
20
0.357597
11
1.75652
21
0.357527
0
LINE
8
BLACK
6
CONTINUOUS
10
1.75652
20
0.357527
11
1.75652
21
0.357527
0
LINE
8
BLACK
6
CONTINUOUS
10
1.75652
20
0.357527
11
1.75087
21
0.356172
0
LINE
8
BLACK
6
CONTINUOUS
10
1.75087
20
0.356172
11
1.75032
21
0.356039
0
LINE
8
BLACK
6
CONTINUOUS
10
1.75032
20
0.356039
11
1.75005
21
0.355902
0
LINE
8
BLACK
6
CONTINUOUS
10
1.75005
20
0.355902
11
1.75005
21
0.355902
0
LINE
8
BLACK
6
CONTINUOUS
10
1.75005
20
0.355902
11
1.74532
21
0.353462
0
LINE
8
BLACK
6
CONTINUOUS
10
1.74532
20
0.353462
11
1.74438
21
0.352977
0
LINE
8
BLACK
6
CONTINUOUS
10
1.74438
20
0.352977
11
1.74416
21
0.352781
0
LINE
8
BLACK
6
CONTINUOUS
10
1.74416
20
0.352781
11
1.74416
21
0.352781
0
LINE
8
BLACK
6
CONTINUOUS
10
1.74416
20
0.352781
11
1.74337
21
0.352089
0
LINE
8
BLACK
6
CONTINUOUS
10
1.74337
20
0.352089
11
1.73935
21
0.348589
0
LINE
8
BLACK
6
CONTINUOUS
10
1.73935
20
0.348589
11
1.73887
21
0.347895
0
LINE
8
BLACK
6
CONTINUOUS
10
1.73887
20
0.347895
11
1.73749
21
0.345936
0
LINE
8
BLACK
6
CONTINUOUS
10
1.73749
20
0.345936
11
1.73552
21
0.343128
0
LINE
8
BLACK
6
CONTINUOUS
10
1.73552
20
0.343128
11
1.73309
21
0.336909
0
LINE
8
BLACK
6
CONTINUOUS
10
1.73309
20
0.336909
11
1.73305
21
0.336612
0
LINE
8
BLACK
6
CONTINUOUS
10
1.73305
20
0.336612
11
1.73305
21
0.336612
0
LINE
8
BLACK
6
CONTINUOUS
10
1.73305
20
0.336612
11
1.7324
21
0.331645
0
LINE
8
BLACK
6
CONTINUOUS
10
1.7324
20
0.331645
11
1.73222
21
0.330291
0
LINE
8
BLACK
6
CONTINUOUS
10
1.73222
20
0.330291
11
1.73295
21
0.323656
0
LINE
8
BLACK
6
CONTINUOUS
10
1.73295
20
0.323656
11
1.73306
21
0.323375
0
LINE
8
BLACK
6
CONTINUOUS
10
0.0789943
20
0.359075
11
0.0789943
21
0.359075
0
LINE
8
BLACK
6
CONTINUOUS
10
0.0789943
20
0.359075
11
0.0796988
21
0.357489
0
LINE
8
BLACK
6
CONTINUOUS
10
0.0796988
20
0.357489
11
0.0806323
21
0.355388
0
LINE
8
BLACK
6
CONTINUOUS
10
0.0806323
20
0.355388
11
0.0837515
21
0.352274
0
LINE
8
BLACK
6
CONTINUOUS
10
0.0837515
20
0.352274
11
0.0841702
21
0.352089
0
LINE
8
BLACK
6
CONTINUOUS
10
0.0841702
20
0.352089
11
0.0841703
21
0.352089
0
LINE
8
BLACK
6
CONTINUOUS
10
0.0841703
20
0.352089
11
0.0865143
21
0.351053
0
LINE
8
BLACK
6
CONTINUOUS
10
0.0865143
20
0.351053
11
0.0877824
21
0.350492
0
LINE
8
BLACK
6
CONTINUOUS
10
0.0877824
20
0.350492
11
0.0887935
21
0.350374
0
LINE
8
BLACK
6
CONTINUOUS
10
0.0887935
20
0.350374
11
0.230104
21
0.350374
0
LINE
8
BLACK
6
CONTINUOUS
10
0.230104
20
0.350374
11
0.23025
21
0.350391
0
LINE
8
BLACK
6
CONTINUOUS
10
0.23025
20
0.350391
11
0.23025
21
0.350391
0
LINE
8
BLACK
6
CONTINUOUS
10
0.23025
20
0.350391
11
0.230541
21
0.350426
0
LINE
8
BLACK
6
CONTINUOUS
10
0.230541
20
0.350426
11
0.231136
21
0.350497
0
LINE
8
BLACK
6
CONTINUOUS
10
0.231136
20
0.350497
11
0.232182
21
0.350962
0
LINE
8
BLACK
6
CONTINUOUS
10
0.232182
20
0.350962
11
0.234745
21
0.3521
0
LINE
8
BLACK
6
CONTINUOUS
10
0.234745
20
0.3521
11
0.235164
21
0.352286
0
LINE
8
BLACK
6
CONTINUOUS
10
0.235164
20
0.352286
11
0.235491
21
0.352614
0
LINE
8
BLACK
6
CONTINUOUS
10
0.235491
20
0.352614
11
0.237954
21
0.355081
0
LINE
8
BLACK
6
CONTINUOUS
10
0.237954
20
0.355081
11
0.238277
21
0.355405
0
LINE
8
BLACK
6
CONTINUOUS
10
0.238277
20
0.355405
11
0.238557
21
0.356039
0
LINE
8
BLACK
6
CONTINUOUS
10
0.238557
20
0.356039
11
0.239908
21
0.359095
0
LINE
8
BLACK
6
CONTINUOUS
10
0.239908
20
0.359095
11
0.240059
21
0.359436
0
LINE
8
BLACK
6
CONTINUOUS
10
0.240059
20
0.359436
11
0.240177
21
0.360447
0
LINE
8
BLACK
6
CONTINUOUS
10
0.240177
20
0.360447
11
0.240177
21
0.501758
0
LINE
8
BLACK
6
CONTINUOUS
10
0.240177
20
0.501758
11
0.240054
21
0.502789
0
LINE
8
BLACK
6
CONTINUOUS
10
0.240054
20
0.502789
11
0.238265
21
0.506817
0
LINE
8
BLACK
6
CONTINUOUS
10
0.238265
20
0.506817
11
0.235146
21
0.509931
0
LINE
8
BLACK
6
CONTINUOUS
10
0.235146
20
0.509931
11
0.234727
21
0.510116
0
LINE
8
BLACK
6
CONTINUOUS
10
0.234727
20
0.510116
11
0.234727
21
0.510116
0
LINE
8
BLACK
6
CONTINUOUS
10
0.234727
20
0.510116
11
0.232383
21
0.511152
0
LINE
8
BLACK
6
CONTINUOUS
10
0.232383
20
0.511152
11
0.231115
21
0.511713
0
LINE
8
BLACK
6
CONTINUOUS
10
0.231115
20
0.511713
11
0.230104
21
0.511831
0
LINE
8
BLACK
6
CONTINUOUS
10
0.230104
20
0.511831
11
0.0887935
21
0.511831
0
LINE
8
BLACK
6
CONTINUOUS
10
0.0887935
20
0.511831
11
0.0886476
21
0.511813
0
LINE
8
BLACK
6
CONTINUOUS
10
0.0886476
20
0.511813
11
0.0886475
21
0.511813
0
LINE
8
BLACK
6
CONTINUOUS
10
0.0886475
20
0.511813
11
0.0883565
21
0.511779
0
LINE
8
BLACK
6
CONTINUOUS
10
0.0883565
20
0.511779
11
0.087762
21
0.511708
0
LINE
8
BLACK
6
CONTINUOUS
10
0.087762
20
0.511708
11
0.0837341
21
0.509919
0
LINE
8
BLACK
6
CONTINUOUS
10
0.0837341
20
0.509919
11
0.0806204
21
0.5068
0
LINE
8
BLACK
6
CONTINUOUS
10
0.0806204
20
0.5068
11
0.0788383
21
0.502769
0
LINE
8
BLACK
6
CONTINUOUS
10
0.0788383
20
0.502769
11
0.0787205
21
0.501758
0
LINE
8
BLACK
6
CONTINUOUS
10
0.0787205
20
0.501758
11
0.0787205
21
0.360447
0
LINE
8
BLACK
6
CONTINUOUS
10
0.0787205
20
0.360447
11
0.0788432
21
0.359416
0
LINE
8
BLACK
6
CONTINUOUS
10
0.0788432
20
0.359416
11
0.0789943
21
0.359075
0
LINE
8
BLACK
6
CONTINUOUS
10
2.12844
20
0.362146
11
2.12844
21
0.362146
0
LINE
8
BLACK
6
CONTINUOUS
10
2.12844
20
0.362146
11
2.12981
21
0.359075
0
LINE
8
BLACK
6
CONTINUOUS
10
2.12981
20
0.359075
11
2.13008
21
0.358459
0
LINE
8
BLACK
6
CONTINUOUS
10
2.13008
20
0.358459
11
2.13041
21
0.358135
0
LINE
8
BLACK
6
CONTINUOUS
10
2.13041
20
0.358135
11
2.13041
21
0.358135
0
LINE
8
BLACK
6
CONTINUOUS
10
2.13041
20
0.358135
11
2.13098
21
0.357562
0
LINE
8
BLACK
6
CONTINUOUS
10
2.13098
20
0.357562
11
2.1332
21
0.355345
0
LINE
8
BLACK
6
CONTINUOUS
10
2.1332
20
0.355345
11
2.13362
21
0.35516
0
LINE
8
BLACK
6
CONTINUOUS
10
2.13362
20
0.35516
11
2.13362
21
0.35516
0
LINE
8
BLACK
6
CONTINUOUS
10
2.13362
20
0.35516
11
2.13596
21
0.354123
0
LINE
8
BLACK
6
CONTINUOUS
10
2.13596
20
0.354123
11
2.13723
21
0.353563
0
LINE
8
BLACK
6
CONTINUOUS
10
2.13723
20
0.353563
11
2.13824
21
0.353445
0
LINE
8
BLACK
6
CONTINUOUS
10
2.13824
20
0.353445
11
2.20176
21
0.353445
0
LINE
8
BLACK
6
CONTINUOUS
10
2.20176
20
0.353445
11
2.2019
21
0.353462
0
LINE
8
BLACK
6
CONTINUOUS
10
2.2019
20
0.353462
11
2.2019
21
0.353462
0
LINE
8
BLACK
6
CONTINUOUS
10
2.2019
20
0.353462
11
2.20219
21
0.353497
0
LINE
8
BLACK
6
CONTINUOUS
10
2.20219
20
0.353497
11
2.20279
21
0.353568
0
LINE
8
BLACK
6
CONTINUOUS
10
2.20279
20
0.353568
11
2.20682
21
0.355357
0
LINE
8
BLACK
6
CONTINUOUS
10
2.20682
20
0.355357
11
2.20728
21
0.355824
0
LINE
8
BLACK
6
CONTINUOUS
10
2.20728
20
0.355824
11
2.20838
21
0.356923
0
LINE
8
BLACK
6
CONTINUOUS
10
2.20838
20
0.356923
11
2.20993
21
0.358476
0
LINE
8
BLACK
6
CONTINUOUS
10
2.20993
20
0.358476
11
2.2102
21
0.359075
0
LINE
8
BLACK
6
CONTINUOUS
10
2.2102
20
0.359075
11
2.21156
21
0.362166
0
LINE
8
BLACK
6
CONTINUOUS
10
2.21156
20
0.362166
11
2.21171
21
0.362507
0
LINE
8
BLACK
6
CONTINUOUS
10
2.21171
20
0.362507
11
2.21183
21
0.363518
0
LINE
8
BLACK
6
CONTINUOUS
10
2.21183
20
0.363518
11
2.21183
21
0.427033
0
LINE
8
BLACK
6
CONTINUOUS
10
2.21183
20
0.427033
11
2.21171
21
0.428065
0
LINE
8
BLACK
6
CONTINUOUS
10
2.21171
20
0.428065
11
2.20992
21
0.432093
0
LINE
8
BLACK
6
CONTINUOUS
10
2.20992
20
0.432093
11
2.2068
21
0.435206
0
LINE
8
BLACK
6
CONTINUOUS
10
2.2068
20
0.435206
11
2.20638
21
0.435391
0
LINE
8
BLACK
6
CONTINUOUS
10
2.20638
20
0.435391
11
2.20638
21
0.435392
0
LINE
8
BLACK
6
CONTINUOUS
10
2.20638
20
0.435392
11
2.20404
21
0.436428
0
LINE
8
BLACK
6
CONTINUOUS
10
2.20404
20
0.436428
11
2.20277
21
0.436988
0
LINE
8
BLACK
6
CONTINUOUS
10
2.20277
20
0.436988
11
2.20176
21
0.437106
0
LINE
8
BLACK
6
CONTINUOUS
10
2.20176
20
0.437106
11
2.13824
21
0.437106
0
LINE
8
BLACK
6
CONTINUOUS
10
2.13824
20
0.437106
11
2.1381
21
0.437089
0
LINE
8
BLACK
6
CONTINUOUS
10
2.1381
20
0.437089
11
2.1381
21
0.437089
0
LINE
8
BLACK
6
CONTINUOUS
10
2.1381
20
0.437089
11
2.13781
21
0.437054
0
LINE
8
BLACK
6
CONTINUOUS
10
2.13781
20
0.437054
11
2.13721
21
0.436984
0
LINE
8
BLACK
6
CONTINUOUS
10
2.13721
20
0.436984
11
2.13318
21
0.435194
0
LINE
8
BLACK
6
CONTINUOUS
10
2.13318
20
0.435194
11
2.13007
21
0.432075
0
LINE
8
BLACK
6
CONTINUOUS
10
2.13007
20
0.432075
11
2.12829
21
0.428044
0
LINE
8
BLACK
6
CONTINUOUS
10
2.12829
20
0.428044
11
2.12817
21
0.427033
0
LINE
8
BLACK
6
CONTINUOUS
10
2.12817
20
0.427033
11
2.12817
21
0.363518
0
LINE
8
BLACK
6
CONTINUOUS
10
2.12817
20
0.363518
11
2.12829
21
0.362486
0
LINE
8
BLACK
6
CONTINUOUS
10
2.12829
20
0.362486
11
2.12844
21
0.362146
0
LINE
8
BLACK
6
CONTINUOUS
10
2.24
20
0.465276
11
2.24
21
0.48937
0
LINE
8
BLACK
6
CONTINUOUS
10
2.24
20
0.48937
11
2.2289
21
0.48937
0
LINE
8
BLACK
6
CONTINUOUS
10
2.2289
20
0.48937
11
2.2283
21
0.489194
0
LINE
8
BLACK
6
CONTINUOUS
10
2.2283
20
0.489194
11
2.22825
21
0.489139
0
LINE
8
BLACK
6
CONTINUOUS
10
2.22825
20
0.489139
11
2.22819
21
0.488837
0
LINE
8
BLACK
6
CONTINUOUS
10
2.22819
20
0.488837
11
2.22819
21
0.463668
0
LINE
8
BLACK
6
CONTINUOUS
10
2.22819
20
0.463668
11
2.22821
21
0.463375
0
LINE
8
BLACK
6
CONTINUOUS
10
2.22821
20
0.463375
11
2.22827
21
0.462861
0
LINE
8
BLACK
6
CONTINUOUS
10
2.22827
20
0.462861
11
2.22846
21
0.462151
0
LINE
8
BLACK
6
CONTINUOUS
10
2.22846
20
0.462151
11
2.22991
21
0.458889
0
LINE
8
BLACK
6
CONTINUOUS
10
2.22991
20
0.458889
11
2.23042
21
0.458146
0
LINE
8
BLACK
6
CONTINUOUS
10
2.23042
20
0.458146
11
2.23289
21
0.455685
0
LINE
8
BLACK
6
CONTINUOUS
10
2.23289
20
0.455685
11
2.23363
21
0.455176
0
LINE
8
BLACK
6
CONTINUOUS
10
2.23363
20
0.455176
11
2.23689
21
0.453733
0
LINE
8
BLACK
6
CONTINUOUS
10
2.23689
20
0.453733
11
2.23761
21
0.453539
0
LINE
8
BLACK
6
CONTINUOUS
10
2.23761
20
0.453539
11
2.2381
21
0.453481
0
LINE
8
BLACK
6
CONTINUOUS
10
2.2381
20
0.453481
11
2.23839
21
0.453465
0
LINE
8
BLACK
6
CONTINUOUS
10
2.23839
20
0.453465
11
2.26338
21
0.453465
0
LINE
8
BLACK
6
CONTINUOUS
10
2.26338
20
0.453465
11
2.26398
21
0.453641
0
LINE
8
BLACK
6
CONTINUOUS
10
2.26398
20
0.453641
11
2.26403
21
0.453695
0
LINE
8
BLACK
6
CONTINUOUS
10
2.26403
20
0.453695
11
2.26409
21
0.453998
0
LINE
8
BLACK
6
CONTINUOUS
10
2.26409
20
0.453998
11
2.26409
21
0.465276
0
LINE
8
BLACK
6
CONTINUOUS
10
2.26409
20
0.465276
11
2.24
21
0.465276
0
LINE
8
BLACK
6
CONTINUOUS
10
2.12827
20
0.462861
11
2.12846
21
0.462151
0
LINE
8
BLACK
6
CONTINUOUS
10
2.12846
20
0.462151
11
2.12991
21
0.458889
0
LINE
8
BLACK
6
CONTINUOUS
10
2.12991
20
0.458889
11
2.13042
21
0.458146
0
LINE
8
BLACK
6
CONTINUOUS
10
2.13042
20
0.458146
11
2.13289
21
0.455685
0
LINE
8
BLACK
6
CONTINUOUS
10
2.13289
20
0.455685
11
2.13363
21
0.455176
0
LINE
8
BLACK
6
CONTINUOUS
10
2.13363
20
0.455176
11
2.13689
21
0.453733
0
LINE
8
BLACK
6
CONTINUOUS
10
2.13689
20
0.453733
11
2.13761
21
0.453539
0
LINE
8
BLACK
6
CONTINUOUS
10
2.13761
20
0.453539
11
2.1381
21
0.453481
0
LINE
8
BLACK
6
CONTINUOUS
10
2.1381
20
0.453481
11
2.13839
21
0.453465
0
LINE
8
BLACK
6
CONTINUOUS
10
2.13839
20
0.453465
11
2.16338
21
0.453465
0
LINE
8
BLACK
6
CONTINUOUS
10
2.16338
20
0.453465
11
2.16398
21
0.453641
0
LINE
8
BLACK
6
CONTINUOUS
10
2.16398
20
0.453641
11
2.16403
21
0.453695
0
LINE
8
BLACK
6
CONTINUOUS
10
2.16403
20
0.453695
11
2.16409
21
0.453998
0
LINE
8
BLACK
6
CONTINUOUS
10
2.16409
20
0.453998
11
2.16409
21
0.465276
0
LINE
8
BLACK
6
CONTINUOUS
10
2.16409
20
0.465276
11
2.14
21
0.465276
0
LINE
8
BLACK
6
CONTINUOUS
10
2.14
20
0.465276
11
2.14
21
0.48937
0
LINE
8
BLACK
6
CONTINUOUS
10
2.14
20
0.48937
11
2.1289
21
0.48937
0
LINE
8
BLACK
6
CONTINUOUS
10
2.1289
20
0.48937
11
2.1283
21
0.489194
0
LINE
8
BLACK
6
CONTINUOUS
10
2.1283
20
0.489194
11
2.12825
21
0.489139
0
LINE
8
BLACK
6
CONTINUOUS
10
2.12825
20
0.489139
11
2.12819
21
0.488837
0
LINE
8
BLACK
6
CONTINUOUS
10
2.12819
20
0.488837
11
2.12819
21
0.463668
0
LINE
8
BLACK
6
CONTINUOUS
10
2.12819
20
0.463668
11
2.12821
21
0.463375
0
LINE
8
BLACK
6
CONTINUOUS
10
2.12821
20
0.463375
11
2.12827
21
0.462861
0
LINE
8
BLACK
6
CONTINUOUS
10
2.17614
20
0.45353
11
2.17644
21
0.453465
0
LINE
8
BLACK
6
CONTINUOUS
10
2.17644
20
0.453465
11
2.20161
21
0.453465
0
LINE
8
BLACK
6
CONTINUOUS
10
2.20161
20
0.453465
11
2.2019
21
0.453482
0
LINE
8
BLACK
6
CONTINUOUS
10
2.2019
20
0.453482
11
2.20241
21
0.453543
0
LINE
8
BLACK
6
CONTINUOUS
10
2.20241
20
0.453543
11
2.20312
21
0.453738
0
LINE
8
BLACK
6
CONTINUOUS
10
2.20312
20
0.453738
11
2.20639
21
0.455187
0
LINE
8
BLACK
6
CONTINUOUS
10
2.20639
20
0.455187
11
2.20713
21
0.455697
0
LINE
8
BLACK
6
CONTINUOUS
10
2.20713
20
0.455697
11
2.20959
21
0.458163
0
LINE
8
BLACK
6
CONTINUOUS
10
2.20959
20
0.458163
11
2.2101
21
0.458906
0
LINE
8
BLACK
6
CONTINUOUS
10
2.2101
20
0.458906
11
2.21154
21
0.46217
0
LINE
8
BLACK
6
CONTINUOUS
10
2.21154
20
0.46217
11
2.21174
21
0.462882
0
LINE
8
BLACK
6
CONTINUOUS
10
2.21174
20
0.462882
11
2.21179
21
0.463377
0
LINE
8
BLACK
6
CONTINUOUS
10
2.21179
20
0.463377
11
2.21181
21
0.463665
0
LINE
8
BLACK
6
CONTINUOUS
10
2.21181
20
0.463665
11
2.21181
21
0.488657
0
LINE
8
BLACK
6
CONTINUOUS
10
2.21181
20
0.488657
11
2.21163
21
0.489257
0
LINE
8
BLACK
6
CONTINUOUS
10
2.21163
20
0.489257
11
2.21158
21
0.489304
0
LINE
8
BLACK
6
CONTINUOUS
10
2.21158
20
0.489304
11
2.21128
21
0.48937
0
LINE
8
BLACK
6
CONTINUOUS
10
2.21128
20
0.48937
11
2.2
21
0.48937
0
LINE
8
BLACK
6
CONTINUOUS
10
2.2
20
0.48937
11
2.2
21
0.465276
0
LINE
8
BLACK
6
CONTINUOUS
10
2.2
20
0.465276
11
2.17591
21
0.465276
0
LINE
8
BLACK
6
CONTINUOUS
10
2.17591
20
0.465276
11
2.17591
21
0.454178
0
LINE
8
BLACK
6
CONTINUOUS
10
2.17591
20
0.454178
11
2.17608
21
0.453578
0
LINE
8
BLACK
6
CONTINUOUS
10
2.17608
20
0.453578
11
2.17614
21
0.45353
0
LINE
8
BLACK
6
CONTINUOUS
10
2.21179
20
0.527177
11
2.21173
21
0.52769
0
LINE
8
BLACK
6
CONTINUOUS
10
2.21173
20
0.52769
11
2.21154
21
0.528401
0
LINE
8
BLACK
6
CONTINUOUS
10
2.21154
20
0.528401
11
2.21009
21
0.531663
0
LINE
8
BLACK
6
CONTINUOUS
10
2.21009
20
0.531663
11
2.20958
21
0.532405
0
LINE
8
BLACK
6
CONTINUOUS
10
2.20958
20
0.532405
11
2.20711
21
0.534866
0
LINE
8
BLACK
6
CONTINUOUS
10
2.20711
20
0.534866
11
2.20637
21
0.535375
0
LINE
8
BLACK
6
CONTINUOUS
10
2.20637
20
0.535375
11
2.20311
21
0.536818
0
LINE
8
BLACK
6
CONTINUOUS
10
2.20311
20
0.536818
11
2.20239
21
0.537012
0
LINE
8
BLACK
6
CONTINUOUS
10
2.20239
20
0.537012
11
2.2019
21
0.53707
0
LINE
8
BLACK
6
CONTINUOUS
10
2.2019
20
0.53707
11
2.20161
21
0.537087
0
LINE
8
BLACK
6
CONTINUOUS
10
2.20161
20
0.537087
11
2.17662
21
0.537087
0
LINE
8
BLACK
6
CONTINUOUS
10
2.17662
20
0.537087
11
2.17602
21
0.53691
0
LINE
8
BLACK
6
CONTINUOUS
10
2.17602
20
0.53691
11
2.17597
21
0.536856
0
LINE
8
BLACK
6
CONTINUOUS
10
2.17597
20
0.536856
11
2.17591
21
0.536553
0
LINE
8
BLACK
6
CONTINUOUS
10
2.17591
20
0.536553
11
2.17591
21
0.525276
0
LINE
8
BLACK
6
CONTINUOUS
10
2.17591
20
0.525276
11
2.2
21
0.525276
0
LINE
8
BLACK
6
CONTINUOUS
10
2.2
20
0.525276
11
2.2
21
0.501181
0
LINE
8
BLACK
6
CONTINUOUS
10
2.2
20
0.501181
11
2.2111
21
0.501181
0
LINE
8
BLACK
6
CONTINUOUS
10
2.2111
20
0.501181
11
2.2117
21
0.501357
0
LINE
8
BLACK
6
CONTINUOUS
10
2.2117
20
0.501357
11
2.21175
21
0.501412
0
LINE
8
BLACK
6
CONTINUOUS
10
2.21175
20
0.501412
11
2.21181
21
0.501714
0
LINE
8
BLACK
6
CONTINUOUS
10
2.21181
20
0.501714
11
2.21181
21
0.526883
0
LINE
8
BLACK
6
CONTINUOUS
10
2.21181
20
0.526883
11
2.21179
21
0.527177
0
LINE
8
BLACK
6
CONTINUOUS
10
0.350648
20
0.359075
11
0.350648
21
0.359075
0
LINE
8
BLACK
6
CONTINUOUS
10
0.350648
20
0.359075
11
0.351352
21
0.357489
0
LINE
8
BLACK
6
CONTINUOUS
10
0.351352
20
0.357489
11
0.352286
21
0.355388
0
LINE
8
BLACK
6
CONTINUOUS
10
0.352286
20
0.355388
11
0.355405
21
0.352274
0
LINE
8
BLACK
6
CONTINUOUS
10
0.355405
20
0.352274
11
0.355824
21
0.352089
0
LINE
8
BLACK
6
CONTINUOUS
10
0.355824
20
0.352089
11
0.355824
21
0.352089
0
LINE
8
BLACK
6
CONTINUOUS
10
0.355824
20
0.352089
11
0.358168
21
0.351053
0
LINE
8
BLACK
6
CONTINUOUS
10
0.358168
20
0.351053
11
0.359436
21
0.350492
0
LINE
8
BLACK
6
CONTINUOUS
10
0.359436
20
0.350492
11
0.360447
21
0.350374
0
LINE
8
BLACK
6
CONTINUOUS
10
0.360447
20
0.350374
11
0.501758
21
0.350374
0
LINE
8
BLACK
6
CONTINUOUS
10
0.501758
20
0.350374
11
0.501904
21
0.350391
0
LINE
8
BLACK
6
CONTINUOUS
10
0.501904
20
0.350391
11
0.501904
21
0.350391
0
LINE
8
BLACK
6
CONTINUOUS
10
0.501904
20
0.350391
11
0.502195
21
0.350426
0
LINE
8
BLACK
6
CONTINUOUS
10
0.502195
20
0.350426
11
0.502789
21
0.350497
0
LINE
8
BLACK
6
CONTINUOUS
10
0.502789
20
0.350497
11
0.503836
21
0.350962
0
LINE
8
BLACK
6
CONTINUOUS
10
0.503836
20
0.350962
11
0.506398
21
0.3521
0
LINE
8
BLACK
6
CONTINUOUS
10
0.506398
20
0.3521
11
0.506817
21
0.352286
0
LINE
8
BLACK
6
CONTINUOUS
10
0.506817
20
0.352286
11
0.507144
21
0.352614
0
LINE
8
BLACK
6
CONTINUOUS
10
0.507144
20
0.352614
11
0.509607
21
0.355081
0
LINE
8
BLACK
6
CONTINUOUS
10
0.509607
20
0.355081
11
0.509931
21
0.355405
0
LINE
8
BLACK
6
CONTINUOUS
10
0.509931
20
0.355405
11
0.510211
21
0.356039
0
LINE
8
BLACK
6
CONTINUOUS
10
0.510211
20
0.356039
11
0.511562
21
0.359095
0
LINE
8
BLACK
6
CONTINUOUS
10
0.511562
20
0.359095
11
0.511713
21
0.359436
0
LINE
8
BLACK
6
CONTINUOUS
10
0.511713
20
0.359436
11
0.511831
21
0.360447
0
LINE
8
BLACK
6
CONTINUOUS
10
0.511831
20
0.360447
11
0.511831
21
0.501758
0
LINE
8
BLACK
6
CONTINUOUS
10
0.511831
20
0.501758
11
0.511814
21
0.501894
0
LINE
8
BLACK
6
CONTINUOUS
10
0.511814
20
0.501894
11
0.511708
21
0.502789
0
LINE
8
BLACK
6
CONTINUOUS
10
0.511708
20
0.502789
11
0.509919
21
0.506817
0
LINE
8
BLACK
6
CONTINUOUS
10
0.509919
20
0.506817
11
0.5068
21
0.509931
0
LINE
8
BLACK
6
CONTINUOUS
10
0.5068
20
0.509931
11
0.506381
21
0.510116
0
LINE
8
BLACK
6
CONTINUOUS
10
0.506381
20
0.510116
11
0.506381
21
0.510116
0
LINE
8
BLACK
6
CONTINUOUS
10
0.506381
20
0.510116
11
0.504037
21
0.511152
0
LINE
8
BLACK
6
CONTINUOUS
10
0.504037
20
0.511152
11
0.502769
21
0.511713
0
LINE
8
BLACK
6
CONTINUOUS
10
0.502769
20
0.511713
11
0.501758
21
0.511831
0
LINE
8
BLACK
6
CONTINUOUS
10
0.501758
20
0.511831
11
0.432412
21
0.511831
0
LINE
8
BLACK
6
CONTINUOUS
10
0.432412
20
0.511831
11
0.42973
21
0.512618
0
LINE
8
BLACK
6
CONTINUOUS
10
0.42973
20
0.512618
11
0.4279
21
0.514731
0
LINE
8
BLACK
6
CONTINUOUS
10
0.4279
20
0.514731
11
0.427501
21
0.51749
0
LINE
8
BLACK
6
CONTINUOUS
10
0.427501
20
0.51749
11
0.427752
21
0.519257
0
LINE
8
BLACK
6
CONTINUOUS
10
0.427752
20
0.519257
11
0.427752
21
0.519258
0
LINE
8
BLACK
6
CONTINUOUS
10
0.427752
20
0.519258
11
0.427775
21
0.519418
0
LINE
8
BLACK
6
CONTINUOUS
10
0.427775
20
0.519418
11
0.427781
21
0.52
0
LINE
8
BLACK
6
CONTINUOUS
10
0.427781
20
0.52
11
0.42771
21
0.520587
0
LINE
8
BLACK
6
CONTINUOUS
10
0.42771
20
0.520587
11
0.427015
21
0.52633
0
LINE
8
BLACK
6
CONTINUOUS
10
0.427015
20
0.52633
11
0.426979
21
0.526627
0
LINE
8
BLACK
6
CONTINUOUS
10
0.426979
20
0.526627
11
0.42462
21
0.532871
0
LINE
8
BLACK
6
CONTINUOUS
10
0.42462
20
0.532871
11
0.421907
21
0.536818
0
LINE
8
BLACK
6
CONTINUOUS
10
0.421907
20
0.536818
11
0.421008
21
0.538126
0
LINE
8
BLACK
6
CONTINUOUS
10
0.421008
20
0.538126
11
0.421008
21
0.538126
0
LINE
8
BLACK
6
CONTINUOUS
10
0.421008
20
0.538126
11
0.420839
21
0.538372
0
LINE
8
BLACK
6
CONTINUOUS
10
0.420839
20
0.538372
11
0.420375
21
0.538786
0
LINE
8
BLACK
6
CONTINUOUS
10
0.420375
20
0.538786
11
0.416078
21
0.542614
0
LINE
8
BLACK
6
CONTINUOUS
10
0.416078
20
0.542614
11
0.416078
21
0.542614
0
LINE
8
BLACK
6
CONTINUOUS
10
0.416078
20
0.542614
11
0.415855
21
0.542813
0
LINE
8
BLACK
6
CONTINUOUS
10
0.415855
20
0.542813
11
0.409956
21
0.545936
0
LINE
8
BLACK
6
CONTINUOUS
10
0.409956
20
0.545936
11
0.403482
21
0.547562
0
LINE
8
BLACK
6
CONTINUOUS
10
0.403482
20
0.547562
11
0.403183
21
0.547564
0
LINE
8
BLACK
6
CONTINUOUS
10
0.403183
20
0.547564
11
0.403183
21
0.547564
0
LINE
8
BLACK
6
CONTINUOUS
10
0.403183
20
0.547564
11
0.400144
21
0.54758
0
LINE
8
BLACK
6
CONTINUOUS
10
0.400144
20
0.54758
11
0.396807
21
0.547597
0
LINE
8
BLACK
6
CONTINUOUS
10
0.396807
20
0.547597
11
0.396516
21
0.547527
0
LINE
8
BLACK
6
CONTINUOUS
10
0.396516
20
0.547527
11
0.396516
21
0.547527
0
LINE
8
BLACK
6
CONTINUOUS
10
0.396516
20
0.547527
11
0.390873
21
0.546172
0
LINE
8
BLACK
6
CONTINUOUS
10
0.390873
20
0.546172
11
0.390316
21
0.546039
0
LINE
8
BLACK
6
CONTINUOUS
10
0.390316
20
0.546039
11
0.390051
21
0.545902
0
LINE
8
BLACK
6
CONTINUOUS
10
0.390051
20
0.545902
11
0.390051
21
0.545902
0
LINE
8
BLACK
6
CONTINUOUS
10
0.390051
20
0.545902
11
0.389846
21
0.545796
0
LINE
8
BLACK
6
CONTINUOUS
10
0.389846
20
0.545796
11
0.384385
21
0.542977
0
LINE
8
BLACK
6
CONTINUOUS
10
0.384385
20
0.542977
11
0.379354
21
0.538589
0
LINE
8
BLACK
6
CONTINUOUS
10
0.379354
20
0.538589
11
0.375516
21
0.533128
0
LINE
8
BLACK
6
CONTINUOUS
10
0.375516
20
0.533128
11
0.373091
21
0.526909
0
LINE
8
BLACK
6
CONTINUOUS
10
0.373091
20
0.526909
11
0.37222
21
0.520291
0
LINE
8
BLACK
6
CONTINUOUS
10
0.37222
20
0.520291
11
0.372334
21
0.519257
0
LINE
8
BLACK
6
CONTINUOUS
10
0.372334
20
0.519257
11
0.372546
21
0.517336
0
LINE
8
BLACK
6
CONTINUOUS
10
0.372546
20
0.517336
11
0.372058
21
0.514584
0
LINE
8
BLACK
6
CONTINUOUS
10
0.372058
20
0.514584
11
0.370159
21
0.512532
0
LINE
8
BLACK
6
CONTINUOUS
10
0.370159
20
0.512532
11
0.367616
21
0.511831
0
LINE
8
BLACK
6
CONTINUOUS
10
0.367616
20
0.511831
11
0.360447
21
0.511831
0
LINE
8
BLACK
6
CONTINUOUS
10
0.360447
20
0.511831
11
0.360301
21
0.511813
0
LINE
8
BLACK
6
CONTINUOUS
10
0.360301
20
0.511813
11
0.360301
21
0.511813
0
LINE
8
BLACK
6
CONTINUOUS
10
0.360301
20
0.511813
11
0.36001
21
0.511779
0
LINE
8
BLACK
6
CONTINUOUS
10
0.36001
20
0.511779
11
0.359416
21
0.511708
0
LINE
8
BLACK
6
CONTINUOUS
10
0.359416
20
0.511708
11
0.355388
21
0.509919
0
LINE
8
BLACK
6
CONTINUOUS
10
0.355388
20
0.509919
11
0.352274
21
0.5068
0
LINE
8
BLACK
6
CONTINUOUS
10
0.352274
20
0.5068
11
0.350492
21
0.502769
0
LINE
8
BLACK
6
CONTINUOUS
10
0.350492
20
0.502769
11
0.350374
21
0.501758
0
LINE
8
BLACK
6
CONTINUOUS
10
0.350374
20
0.501758
11
0.350374
21
0.360447
0
LINE
8
BLACK
6
CONTINUOUS
10
0.350374
20
0.360447
11
0.350497
21
0.359416
0
LINE
8
BLACK
6
CONTINUOUS
10
0.350497
20
0.359416
11
0.350648
21
0.359075
0
LINE
8
BLACK
6
CONTINUOUS
10
0.5
20
0.0905512
11
0.362205
21
0.0905512
0
LINE
8
BLACK
6
CONTINUOUS
10
0.362205
20
0.0905512
11
0.362205
21
0.228346
0
LINE
8
BLACK
6
CONTINUOUS
10
0.362205
20
0.228346
11
0.5
21
0.228346
0
LINE
8
BLACK
6
CONTINUOUS
10
0.5
20
0.228346
11
0.5
21
0.0905512
0
LINE
8
BLACK
6
CONTINUOUS
10
0.0748664
20
0.304977
11
0.0792565
21
0.30274
0
LINE
8
BLACK
6
CONTINUOUS
10
0.0792565
20
0.30274
11
0.0827404
21
0.299256
0
LINE
8
BLACK
6
CONTINUOUS
10
0.0827404
20
0.299256
11
0.0849773
21
0.294866
0
LINE
8
BLACK
6
CONTINUOUS
10
0.0849773
20
0.294866
11
0.085748
21
0.29
0
LINE
8
BLACK
6
CONTINUOUS
10
0.085748
20
0.29
11
0.0849773
21
0.285134
0
LINE
8
BLACK
6
CONTINUOUS
10
0.0849773
20
0.285134
11
0.0827404
21
0.280744
0
LINE
8
BLACK
6
CONTINUOUS
10
0.0827404
20
0.280744
11
0.081811
21
0.279814
0
LINE
8
BLACK
6
CONTINUOUS
10
0.081811
20
0.279814
11
0.081811
21
0.25379
0
LINE
8
BLACK
6
CONTINUOUS
10
0.081811
20
0.25379
11
0.107254
21
0.228346
0
LINE
8
BLACK
6
CONTINUOUS
10
0.107254
20
0.228346
11
0.228346
21
0.228346
0
LINE
8
BLACK
6
CONTINUOUS
10
0.228346
20
0.228346
11
0.228346
21
0.0905512
0
LINE
8
BLACK
6
CONTINUOUS
10
0.228346
20
0.0905512
11
0.0905512
21
0.0905512
0
LINE
8
BLACK
6
CONTINUOUS
10
0.0905512
20
0.0905512
11
0.0905512
21
0.211643
0
LINE
8
BLACK
6
CONTINUOUS
10
0.0905512
20
0.211643
11
0.0616483
21
0.240546
0
LINE
8
BLACK
6
CONTINUOUS
10
0.0616483
20
0.240546
11
0.061396
21
0.240853
0
LINE
8
BLACK
6
CONTINUOUS
10
0.061396
20
0.240853
11
0.0612504
21
0.240964
0
LINE
8
BLACK
6
CONTINUOUS
10
0.0612504
20
0.240964
11
0.0610859
21
0.241231
0
LINE
8
BLACK
6
CONTINUOUS
10
0.0610859
20
0.241231
11
0.0601852
21
0.242327
0
LINE
8
BLACK
6
CONTINUOUS
10
0.0601852
20
0.242327
11
0.0596681
21
0.243531
0
LINE
8
BLACK
6
CONTINUOUS
10
0.0596681
20
0.243531
11
0.0589809
21
0.244646
0
LINE
8
BLACK
6
CONTINUOUS
10
0.0589809
20
0.244646
11
0.0588215
21
0.245501
0
LINE
8
BLACK
6
CONTINUOUS
10
0.0588215
20
0.245501
11
0.0584779
21
0.246301
0
LINE
8
BLACK
6
CONTINUOUS
10
0.0584779
20
0.246301
11
0.0584288
21
0.24761
0
LINE
8
BLACK
6
CONTINUOUS
10
0.0584288
20
0.24761
11
0.058189
21
0.248898
0
LINE
8
BLACK
6
CONTINUOUS
10
0.058189
20
0.248898
11
0.058189
21
0.279814
0
LINE
8
BLACK
6
CONTINUOUS
10
0.058189
20
0.279814
11
0.0572596
21
0.280744
0
LINE
8
BLACK
6
CONTINUOUS
10
0.0572596
20
0.280744
11
0.0550227
21
0.285134
0
LINE
8
BLACK
6
CONTINUOUS
10
0.0550227
20
0.285134
11
0.054252
21
0.29
0
LINE
8
BLACK
6
CONTINUOUS
10
0.054252
20
0.29
11
0.0550227
21
0.294866
0
LINE
8
BLACK
6
CONTINUOUS
10
0.0550227
20
0.294866
11
0.0572596
21
0.299256
0
LINE
8
BLACK
6
CONTINUOUS
10
0.0572596
20
0.299256
11
0.0607435
21
0.30274
0
LINE
8
BLACK
6
CONTINUOUS
10
0.0607435
20
0.30274
11
0.0651336
21
0.304977
0
LINE
8
BLACK
6
CONTINUOUS
10
0.0651336
20
0.304977
11
0.07
21
0.305748
0
LINE
8
BLACK
6
CONTINUOUS
10
0.07
20
0.305748
11
0.0748664
21
0.304977
0
LINE
8
BLACK
6
CONTINUOUS
10
2.3
20
0.165276
11
2.24
21
0.165276
0
LINE
8
BLACK
6
CONTINUOUS
10
2.24
20
0.165276
11
2.24
21
0.225276
0
LINE
8
BLACK
6
CONTINUOUS
10
2.24
20
0.225276
11
2.3
21
0.225276
0
LINE
8
BLACK
6
CONTINUOUS
10
2.3
20
0.225276
11
2.3
21
0.165276
0
LINE
8
BLACK
6
CONTINUOUS
10
2.3
20
0.365276
11
2.24
21
0.365276
0
LINE
8
BLACK
6
CONTINUOUS
10
2.24
20
0.365276
11
2.24
21
0.425276
0
LINE
8
BLACK
6
CONTINUOUS
10
2.24
20
0.425276
11
2.3
21
0.425276
0
LINE
8
BLACK
6
CONTINUOUS
10
2.3
20
0.425276
11
2.3
21
0.365276
0
LINE
8
BLACK
6
CONTINUOUS
10
2.2
20
0.165276
11
2.14
21
0.165276
0
LINE
8
BLACK
6
CONTINUOUS
10
2.14
20
0.165276
11
2.14
21
0.225276
0
LINE
8
BLACK
6
CONTINUOUS
10
2.14
20
0.225276
11
2.2
21
0.225276
0
LINE
8
BLACK
6
CONTINUOUS
10
2.2
20
0.225276
11
2.2
21
0.165276
0
LINE
8
BLACK
6
CONTINUOUS
10
1.76487
20
0.344977
11
1.76926
21
0.34274
0
LINE
8
BLACK
6
CONTINUOUS
10
1.76926
20
0.34274
11
1.77274
21
0.339256
0
LINE
8
BLACK
6
CONTINUOUS
10
1.77274
20
0.339256
11
1.77344
21
0.337874
0
LINE
8
BLACK
6
CONTINUOUS
10
1.77344
20
0.337874
11
1.94001
21
0.337874
0
LINE
8
BLACK
6
CONTINUOUS
10
1.94001
20
0.337874
11
1.9413
21
0.337579
0
LINE
8
BLACK
6
CONTINUOUS
10
1.9413
20
0.337579
11
1.9426
21
0.337431
0
LINE
8
BLACK
6
CONTINUOUS
10
1.9426
20
0.337431
11
1.94299
21
0.337191
0
LINE
8
BLACK
6
CONTINUOUS
10
1.94299
20
0.337191
11
1.94343
21
0.337089
0
LINE
8
BLACK
6
CONTINUOUS
10
1.94343
20
0.337089
11
1.94445
21
0.336268
0
LINE
8
BLACK
6
CONTINUOUS
10
1.94445
20
0.336268
11
1.94557
21
0.335568
0
LINE
8
BLACK
6
CONTINUOUS
10
1.94557
20
0.335568
11
1.94602
21
0.335117
0
LINE
8
BLACK
6
CONTINUOUS
10
1.94602
20
0.335117
11
1.95
21
0.335748
0
LINE
8
BLACK
6
CONTINUOUS
10
1.95
20
0.335748
11
1.95487
21
0.334977
0
LINE
8
BLACK
6
CONTINUOUS
10
1.95487
20
0.334977
11
1.95926
21
0.33274
0
LINE
8
BLACK
6
CONTINUOUS
10
1.95926
20
0.33274
11
1.96274
21
0.329256
0
LINE
8
BLACK
6
CONTINUOUS
10
1.96274
20
0.329256
11
1.96498
21
0.324866
0
LINE
8
BLACK
6
CONTINUOUS
10
1.96498
20
0.324866
11
1.96575
21
0.32
0
LINE
8
BLACK
6
CONTINUOUS
10
1.96575
20
0.32
11
1.96498
21
0.315134
0
LINE
8
BLACK
6
CONTINUOUS
10
1.96498
20
0.315134
11
1.96274
21
0.310744
0
LINE
8
BLACK
6
CONTINUOUS
10
1.96274
20
0.310744
11
1.95926
21
0.30726
0
LINE
8
BLACK
6
CONTINUOUS
10
1.95926
20
0.30726
11
1.95487
21
0.305023
0
LINE
8
BLACK
6
CONTINUOUS
10
1.95487
20
0.305023
11
1.95
21
0.304252
0
LINE
8
BLACK
6
CONTINUOUS
10
1.95
20
0.304252
11
1.94513
21
0.305023
0
LINE
8
BLACK
6
CONTINUOUS
10
1.94513
20
0.305023
11
1.94074
21
0.30726
0
LINE
8
BLACK
6
CONTINUOUS
10
1.94074
20
0.30726
11
1.93726
21
0.310744
0
LINE
8
BLACK
6
CONTINUOUS
10
1.93726
20
0.310744
11
1.93502
21
0.315134
0
LINE
8
BLACK
6
CONTINUOUS
10
1.93502
20
0.315134
11
1.93425
21
0.32
0
LINE
8
BLACK
6
CONTINUOUS
10
1.93425
20
0.32
11
1.93459
21
0.322126
0
LINE
8
BLACK
6
CONTINUOUS
10
1.93459
20
0.322126
11
1.77344
21
0.322126
0
LINE
8
BLACK
6
CONTINUOUS
10
1.77344
20
0.322126
11
1.77274
21
0.320744
0
LINE
8
BLACK
6
CONTINUOUS
10
1.77274
20
0.320744
11
1.76926
21
0.31726
0
LINE
8
BLACK
6
CONTINUOUS
10
1.76926
20
0.31726
11
1.76487
21
0.315023
0
LINE
8
BLACK
6
CONTINUOUS
10
1.76487
20
0.315023
11
1.76
21
0.314252
0
LINE
8
BLACK
6
CONTINUOUS
10
1.76
20
0.314252
11
1.75513
21
0.315023
0
LINE
8
BLACK
6
CONTINUOUS
10
1.75513
20
0.315023
11
1.75074
21
0.31726
0
LINE
8
BLACK
6
CONTINUOUS
10
1.75074
20
0.31726
11
1.74726
21
0.320744
0
LINE
8
BLACK
6
CONTINUOUS
10
1.74726
20
0.320744
11
1.74502
21
0.325134
0
LINE
8
BLACK
6
CONTINUOUS
10
1.74502
20
0.325134
11
1.74425
21
0.33
0
LINE
8
BLACK
6
CONTINUOUS
10
1.74425
20
0.33
11
1.74502
21
0.334866
0
LINE
8
BLACK
6
CONTINUOUS
10
1.74502
20
0.334866
11
1.74726
21
0.339256
0
LINE
8
BLACK
6
CONTINUOUS
10
1.74726
20
0.339256
11
1.75074
21
0.34274
0
LINE
8
BLACK
6
CONTINUOUS
10
1.75074
20
0.34274
11
1.75513
21
0.344977
0
LINE
8
BLACK
6
CONTINUOUS
10
1.75513
20
0.344977
11
1.76
21
0.345748
0
LINE
8
BLACK
6
CONTINUOUS
10
1.76
20
0.345748
11
1.76487
21
0.344977
0
LINE
8
BLACK
6
CONTINUOUS
10
0.228346
20
0.362205
11
0.0905512
21
0.362205
0
LINE
8
BLACK
6
CONTINUOUS
10
0.0905512
20
0.362205
11
0.0905512
21
0.5
0
LINE
8
BLACK
6
CONTINUOUS
10
0.0905512
20
0.5
11
0.228346
21
0.5
0
LINE
8
BLACK
6
CONTINUOUS
10
0.228346
20
0.5
11
0.228346
21
0.362205
0
LINE
8
BLACK
6
CONTINUOUS
10
2.2
20
0.365276
11
2.14
21
0.365276
0
LINE
8
BLACK
6
CONTINUOUS
10
2.14
20
0.365276
11
2.14
21
0.425276
0
LINE
8
BLACK
6
CONTINUOUS
10
2.14
20
0.425276
11
2.2
21
0.425276
0
LINE
8
BLACK
6
CONTINUOUS
10
2.2
20
0.425276
11
2.2
21
0.365276
0
LINE
8
BLACK
6
CONTINUOUS
10
0.404866
20
0.534977
11
0.409256
21
0.53274
0
LINE
8
BLACK
6
CONTINUOUS
10
0.409256
20
0.53274
11
0.41274
21
0.529256
0
LINE
8
BLACK
6
CONTINUOUS
10
0.41274
20
0.529256
11
0.414977
21
0.524866
0
LINE
8
BLACK
6
CONTINUOUS
10
0.414977
20
0.524866
11
0.415748
21
0.52
0
LINE
8
BLACK
6
CONTINUOUS
10
0.415748
20
0.52
11
0.414977
21
0.515134
0
LINE
8
BLACK
6
CONTINUOUS
10
0.414977
20
0.515134
11
0.41274
21
0.510744
0
LINE
8
BLACK
6
CONTINUOUS
10
0.41274
20
0.510744
11
0.411811
21
0.509814
0
LINE
8
BLACK
6
CONTINUOUS
10
0.411811
20
0.509814
11
0.411811
21
0.5
0
LINE
8
BLACK
6
CONTINUOUS
10
0.411811
20
0.5
11
0.5
21
0.5
0
LINE
8
BLACK
6
CONTINUOUS
10
0.5
20
0.5
11
0.5
21
0.362205
0
LINE
8
BLACK
6
CONTINUOUS
10
0.5
20
0.362205
11
0.362205
21
0.362205
0
LINE
8
BLACK
6
CONTINUOUS
10
0.362205
20
0.362205
11
0.362205
21
0.5
0
LINE
8
BLACK
6
CONTINUOUS
10
0.362205
20
0.5
11
0.388189
21
0.5
0
LINE
8
BLACK
6
CONTINUOUS
10
0.388189
20
0.5
11
0.388189
21
0.509814
0
LINE
8
BLACK
6
CONTINUOUS
10
0.388189
20
0.509814
11
0.38726
21
0.510744
0
LINE
8
BLACK
6
CONTINUOUS
10
0.38726
20
0.510744
11
0.385023
21
0.515134
0
LINE
8
BLACK
6
CONTINUOUS
10
0.385023
20
0.515134
11
0.384252
21
0.52
0
LINE
8
BLACK
6
CONTINUOUS
10
0.384252
20
0.52
11
0.385023
21
0.524866
0
LINE
8
BLACK
6
CONTINUOUS
10
0.385023
20
0.524866
11
0.38726
21
0.529256
0
LINE
8
BLACK
6
CONTINUOUS
10
0.38726
20
0.529256
11
0.390744
21
0.53274
0
LINE
8
BLACK
6
CONTINUOUS
10
0.390744
20
0.53274
11
0.395134
21
0.534977
0
LINE
8
BLACK
6
CONTINUOUS
10
0.395134
20
0.534977
11
0.4
21
0.535748
0
LINE
8
BLACK
6
CONTINUOUS
10
0.4
20
0.535748
11
0.404866
21
0.534977
0
CIRCLE
8
BLACK
10
0.56
20
0.1
40
0.00787402
0
CIRCLE
8
BLACK
10
1.44
20
0.04
40
0.00787402
0
CIRCLE
8
BLACK
10
0.05
20
0.35
40
0.00787402
0
CIRCLE
8
BLACK
10
1.19
20
0.33
40
0.00787402
0
CIRCLE
8
BLACK
10
0.86
20
0.53
40
0.00787402
0
CIRCLE
8
BLACK
10
1.43
20
0.33
40
0.00787402
0
CIRCLE
8
BLACK
10
1.13
20
0.13
40
0.00787402
0
CIRCLE
8
BLACK
10
1.56
20
0.53
40
0.00787402
0
CIRCLE
8
BLACK
10
0.14
20
0.05
40
0.00787402
0
CIRCLE
8
BLACK
10
0.95
20
0.33
40
0.00787402
0
CIRCLE
8
BLACK
10
1.53
20
0.13
40
0.00787402
0
CIRCLE
8
BLACK
10
0.63
20
0.1
40
0.00787402
0
CIRCLE
8
BLACK
10
0.81
20
0.11
40
0.00787402
0
CIRCLE
8
BLACK
10
1.7
20
0.45
40
0.00787402
0
CIRCLE
8
BLACK
10
0.04
20
0.13
40
0.00787402
0
CIRCLE
8
BLACK
10
0.57
20
0.38
40
0.00787402
0
CIRCLE
8
BLACK
10
2.1
20
0.15
40
0.00787402
0
CIRCLE
8
BLACK
10
1.01
20
0.04
40
0.00787402
0
CIRCLE
8
BLACK
10
1.13
20
0.33
40
0.00787402
0
CIRCLE
8
BLACK
10
0.69
20
0.38
40
0.00787402
0
CIRCLE
8
BLACK
10
0.88
20
0.14
40
0.00787402
0
CIRCLE
8
BLACK
10
1.53
20
0.32
40
0.00787402
0
CIRCLE
8
BLACK
10
1.31
20
0.13
40
0.00787402
0
CIRCLE
8
BLACK
10
1.49
20
0.36
40
0.00787402
0
CIRCLE
8
BLACK
10
1.9
20
0.15
40
0.00787402
0
CIRCLE
8
BLACK
10
1.99
20
0.48
40
0.00787402
0
CIRCLE
8
BLACK
10
1.59
20
0.29
40
0.00787402
0
CIRCLE
8
BLACK
10
1.89
20
0.04
40
0.00787402
0
CIRCLE
8
BLACK
10
1.59
20
0.37
40
0.00787402
0
CIRCLE
8
BLACK
10
0.05
20
0.53
40
0.00787402
0
CIRCLE
8
BLACK
10
0.75
20
0.33
40
0.00787402
0
CIRCLE
8
BLACK
10
1.42
20
0.13
40
0.00787402
0
CIRCLE
8
BLACK
10
1.79
20
0.04
40
0.00787402
0
CIRCLE
8
BLACK
10
0.89
20
0.33
40
0.00787402
0
CIRCLE
8
BLACK
10
0.57
20
0.3
40
0.00787402
0
CIRCLE
8
BLACK
10
1.67
20
0.04
40
0.00787402
0
CIRCLE
8
BLACK
10
0.29
20
0.53
40
0.00787402
0
CIRCLE
8
BLACK
10
1.31
20
0.04
40
0.00787402
0
CIRCLE
8
BLACK
10
0.81
20
0.34
40
0.00787402
0
CIRCLE
8
BLACK
10
1.31
20
0.33
40
0.00787402
0
CIRCLE
8
BLACK
10
1.64
20
0.13
40
0.00787402
0
CIRCLE
8
BLACK
10
2.04
20
0.14
40
0.00787402
0
CIRCLE
8
BLACK
10
1.22
20
0.52
40
0.00787402
0
CIRCLE
8
BLACK
10
0.77
20
0.14
40
0.00787402
0
CIRCLE
8
BLACK
10
1.97
20
0.21
40
0.00787402
0
CIRCLE
8
BLACK
10
0.69
20
0.3
40
0.00787402
0
CIRCLE
8
BLACK
10
1.71
20
0.29
40
0.00787402
0
CIRCLE
8
BLACK
10
1.58
20
0.42
40
0.00787402
0
CIRCLE
8
BLACK
10
1.37
20
0.33
40
0.00787402
0
CIRCLE
8
BLACK
10
1.01
20
0.13
40
0.00787402
0
CIRCLE
8
BLACK
10
1.2
20
0.13
40
0.00787402
0
CIRCLE
8
BLACK
10
1.76
20
0.13
40
0.00787402
0
CIRCLE
8
BLACK
10
0.07
20
0.05
40
0.00787402
0
CIRCLE
8
BLACK
10
1.25
20
0.33
40
0.00787402
0
CIRCLE
8
BLACK
10
0.71
20
0.1
40
0.00787402
0
CIRCLE
8
BLACK
10
1.01
20
0.33
40
0.00787402
0
CIRCLE
8
BLACK
10
1.55
20
0.04
40
0.00787402
0
CIRCLE
8
BLACK
10
2.09
20
0.25
40
0.00787402
0
CIRCLE
8
BLACK
10
1.95
20
0.06
40
0.00787402
0
CIRCLE
8
BLACK
10
1.07
20
0.33
40
0.00787402
0
CIRCLE
8
BLACK
10
0.63
20
0.3
40
0.00787402
0
CIRCLE
8
BLACK
10
1.14
20
0.04
40
0.00787402
0
CIRCLE
8
BLACK
10
2
20
0.1
40
0.00787402
0
CIRCLE
8
BLACK
10
0.6
20
0.53
40
0.00787402
0
CIRCLE
8
BLACK
10
1.95
20
0.32
40
0.00787402
0
CIRCLE
8
BLACK
10
1.76
20
0.33
40
0.00787402
0
CIRCLE
8
BLACK
10
0.4
20
0.52
40
0.00787402
0
CIRCLE
8
BLACK
10
0.07
20
0.29
40
0.00787402
  0
ENDSEC
  0
EOF
