  0
SECTION
  2
HEADER
  9
$ANGBASE
  50
0.0
  9
$ANGDIR
  70
1
  9
$MEASUREMENT
  70
0
  0
ENDSEC
  0
SECTION
  2
TABLES
  0
TABLE
  2
LTYPE
  70
4
  0
LTYPE
  5
40F
  2
CONTINUOUS
  70
0
  3
Solid line
  72
65
  73
0
  40
0.0
  0
LTYPE
  5
410
  2
DASHDOT
 70
0
  3
Dash Dot ____ _ ____ _
 72
65
 73
4
 40
2.0
 49
1.25
 49
-0.25
 49
0.25
 49
-0.25
  0
LTYPE
  5
411
  2
DASHED
 70
0
  3
Dashed __ __ __ __ __
 72
65
 73
2
 40
0.75
 49
0.5
 49
-0.25
  0
LTYPE
  5
43B
  2
DOTTED
 70
0
  3
Dotted .  .  .  .
 72
65
 73
2
 40
0.2
 49
0.0
 49
-0.2
  0
ENDTAB
  0
TABLE
  2
STYLE
  70
4
  0
STYLE
  2
KICAD
  70
0
  40
0
  41
1
  42
1
  50
0
  71
0
  3
isocp.shx
  0
STYLE
  2
KICADB
  70
0
  40
0
  41
1
  42
1
  50
0
  71
0
  3
isocp.shx
  0
STYLE
  2
KICADI
  70
0
  40
0
  41
1
  42
1
  50
15
  71
0
  3
isocp.shx
  0
STYLE
  2
KICADBI
  70
0
  40
0
  41
1
  42
1
  50
15
  71
0
  3
isocp.shx
  0
ENDTAB
  0
TABLE
  2
LAYER
  70
1
  0
LAYER
  2
BLACK
  70
0
  62
7
  6
CONTINUOUS
  0
ENDTAB
  0
ENDSEC
  0
SECTION
  2
ENTITIES
0
LINE
8
BLACK
6
CONTINUOUS
10
6.7430132677165355
20
-4.3274497637795273
11
6.7455677559055118
21
-4.3291566535433068
0
LINE
8
BLACK
6
CONTINUOUS
10
6.7455677559055118
20
-4.3291566535433068
11
6.7472746456692914
21
-4.3317111417322831
0
LINE
8
BLACK
6
CONTINUOUS
10
6.7472746456692914
20
-4.3317111417322831
11
6.7478740157480317
21
-4.3347244094488184
0
LINE
8
BLACK
6
CONTINUOUS
10
6.7478740157480317
20
-4.3347244094488184
11
6.7478740157480317
21
-4.3947244094488189
0
LINE
8
BLACK
6
CONTINUOUS
10
6.7478740157480317
20
-4.3947244094488189
11
6.7472746456692914
21
-4.3977376771653542
0
LINE
8
BLACK
6
CONTINUOUS
10
6.7472746456692914
20
-4.3977376771653542
11
6.7455677559055118
21
-4.4002921653543305
0
LINE
8
BLACK
6
CONTINUOUS
10
6.7455677559055118
20
-4.4002921653543305
11
6.7430132677165355
21
-4.4019990551181101
0
LINE
8
BLACK
6
CONTINUOUS
10
6.7430132677165355
20
-4.4019990551181101
11
6.7400000000000002
21
-4.4025984251968504
0
LINE
8
BLACK
6
CONTINUOUS
10
6.7400000000000002
20
-4.4025984251968504
11
6.6799999999999997
21
-4.4025984251968504
0
LINE
8
BLACK
6
CONTINUOUS
10
6.6799999999999997
20
-4.4025984251968504
11
6.6769867322834644
21
-4.4019990551181101
0
LINE
8
BLACK
6
CONTINUOUS
10
6.6769867322834644
20
-4.4019990551181101
11
6.6744322440944881
21
-4.4002921653543305
0
LINE
8
BLACK
6
CONTINUOUS
10
6.6744322440944881
20
-4.4002921653543305
11
6.6727253543307086
21
-4.3977376771653542
0
LINE
8
BLACK
6
CONTINUOUS
10
6.6727253543307086
20
-4.3977376771653542
11
6.6721259842519682
21
-4.3947244094488189
0
LINE
8
BLACK
6
CONTINUOUS
10
6.6721259842519682
20
-4.3947244094488189
11
6.6721259842519682
21
-4.3347244094488184
0
LINE
8
BLACK
6
CONTINUOUS
10
6.6721259842519682
20
-4.3347244094488184
11
6.6727253543307086
21
-4.3317111417322831
0
LINE
8
BLACK
6
CONTINUOUS
10
6.6727253543307086
20
-4.3317111417322831
11
6.6744322440944881
21
-4.3291566535433068
0
LINE
8
BLACK
6
CONTINUOUS
10
6.6744322440944881
20
-4.3291566535433068
11
6.6769867322834644
21
-4.3274497637795273
0
LINE
8
BLACK
6
CONTINUOUS
10
6.6769867322834644
20
-4.3274497637795273
11
6.6799999999999997
21
-4.3268503937007869
0
LINE
8
BLACK
6
CONTINUOUS
10
6.6799999999999997
20
-4.3268503937007869
11
6.7400000000000002
21
-4.3268503937007869
0
LINE
8
BLACK
6
CONTINUOUS
10
6.7400000000000002
20
-4.3268503937007869
11
6.7430132677165355
21
-4.3274497637795273
0
LINE
8
BLACK
6
CONTINUOUS
10
6.8430132677165352
20
-4.3274497637795273
11
6.8455677559055115
21
-4.3291566535433068
0
LINE
8
BLACK
6
CONTINUOUS
10
6.8455677559055115
20
-4.3291566535433068
11
6.847274645669291
21
-4.3317111417322831
0
LINE
8
BLACK
6
CONTINUOUS
10
6.847274645669291
20
-4.3317111417322831
11
6.8478740157480313
21
-4.3347244094488184
0
LINE
8
BLACK
6
CONTINUOUS
10
6.8478740157480313
20
-4.3347244094488184
11
6.8478740157480313
21
-4.3947244094488189
0
LINE
8
BLACK
6
CONTINUOUS
10
6.8478740157480313
20
-4.3947244094488189
11
6.847274645669291
21
-4.3977376771653542
0
LINE
8
BLACK
6
CONTINUOUS
10
6.847274645669291
20
-4.3977376771653542
11
6.8455677559055115
21
-4.4002921653543305
0
LINE
8
BLACK
6
CONTINUOUS
10
6.8455677559055115
20
-4.4002921653543305
11
6.8430132677165352
21
-4.4019990551181101
0
LINE
8
BLACK
6
CONTINUOUS
10
6.8430132677165352
20
-4.4019990551181101
11
6.8399999999999999
21
-4.4025984251968504
0
LINE
8
BLACK
6
CONTINUOUS
10
6.8399999999999999
20
-4.4025984251968504
11
6.7800000000000002
21
-4.4025984251968504
0
LINE
8
BLACK
6
CONTINUOUS
10
6.7800000000000002
20
-4.4025984251968504
11
6.776986732283464
21
-4.4019990551181101
0
LINE
8
BLACK
6
CONTINUOUS
10
6.776986732283464
20
-4.4019990551181101
11
6.7744322440944877
21
-4.4002921653543305
0
LINE
8
BLACK
6
CONTINUOUS
10
6.7744322440944877
20
-4.4002921653543305
11
6.7727253543307082
21
-4.3977376771653542
0
LINE
8
BLACK
6
CONTINUOUS
10
6.7727253543307082
20
-4.3977376771653542
11
6.7721259842519688
21
-4.3947244094488189
0
LINE
8
BLACK
6
CONTINUOUS
10
6.7721259842519688
20
-4.3947244094488189
11
6.7721259842519688
21
-4.3347244094488184
0
LINE
8
BLACK
6
CONTINUOUS
10
6.7721259842519688
20
-4.3347244094488184
11
6.7727253543307082
21
-4.3317111417322831
0
LINE
8
BLACK
6
CONTINUOUS
10
6.7727253543307082
20
-4.3317111417322831
11
6.7744322440944877
21
-4.3291566535433068
0
LINE
8
BLACK
6
CONTINUOUS
10
6.7744322440944877
20
-4.3291566535433068
11
6.776986732283464
21
-4.3274497637795273
0
LINE
8
BLACK
6
CONTINUOUS
10
6.776986732283464
20
-4.3274497637795273
11
6.7800000000000002
21
-4.3268503937007869
0
LINE
8
BLACK
6
CONTINUOUS
10
6.7800000000000002
20
-4.3268503937007869
11
6.8399999999999999
21
-4.3268503937007869
0
LINE
8
BLACK
6
CONTINUOUS
10
6.8399999999999999
20
-4.3268503937007869
11
6.8430132677165352
21
-4.3274497637795273
0
LINE
8
BLACK
6
CONTINUOUS
10
4.7713597244094483
20
-4.2243788976377949
11
4.7739142125984255
21
-4.2260857874015745
0
LINE
8
BLACK
6
CONTINUOUS
10
4.7739142125984255
20
-4.2260857874015745
11
4.7756211023622051
21
-4.2286402755905508
0
LINE
8
BLACK
6
CONTINUOUS
10
4.7756211023622051
20
-4.2286402755905508
11
4.7762204724409445
21
-4.2316535433070861
0
LINE
8
BLACK
6
CONTINUOUS
10
4.7762204724409445
20
-4.2316535433070861
11
4.7762204724409445
21
-4.3694488188976379
0
LINE
8
BLACK
6
CONTINUOUS
10
4.7762204724409445
20
-4.3694488188976379
11
4.7756211023622051
21
-4.3724620866141732
0
LINE
8
BLACK
6
CONTINUOUS
10
4.7756211023622051
20
-4.3724620866141732
11
4.7739142125984255
21
-4.3750165748031495
0
LINE
8
BLACK
6
CONTINUOUS
10
4.7739142125984255
20
-4.3750165748031495
11
4.7713597244094483
21
-4.3767234645669291
0
LINE
8
BLACK
6
CONTINUOUS
10
4.7713597244094483
20
-4.3767234645669291
11
4.768346456692913
21
-4.3773228346456694
0
LINE
8
BLACK
6
CONTINUOUS
10
4.768346456692913
20
-4.3773228346456694
11
4.6305511811023621
21
-4.3773228346456694
0
LINE
8
BLACK
6
CONTINUOUS
10
4.6305511811023621
20
-4.3773228346456694
11
4.6275379133858268
21
-4.3767234645669291
0
LINE
8
BLACK
6
CONTINUOUS
10
4.6275379133858268
20
-4.3767234645669291
11
4.6249834251968505
21
-4.3750165748031495
0
LINE
8
BLACK
6
CONTINUOUS
10
4.6249834251968505
20
-4.3750165748031495
11
4.6232765354330709
21
-4.3724620866141732
0
LINE
8
BLACK
6
CONTINUOUS
10
4.6232765354330709
20
-4.3724620866141732
11
4.6226771653543306
21
-4.3694488188976379
0
LINE
8
BLACK
6
CONTINUOUS
10
4.6226771653543306
20
-4.3694488188976379
11
4.6226771653543306
21
-4.2316535433070861
0
LINE
8
BLACK
6
CONTINUOUS
10
4.6226771653543306
20
-4.2316535433070861
11
4.6232765354330709
21
-4.2286402755905508
0
LINE
8
BLACK
6
CONTINUOUS
10
4.6232765354330709
20
-4.2286402755905508
11
4.6249834251968505
21
-4.2260857874015745
0
LINE
8
BLACK
6
CONTINUOUS
10
4.6249834251968505
20
-4.2260857874015745
11
4.6275379133858268
21
-4.2243788976377949
0
LINE
8
BLACK
6
CONTINUOUS
10
4.6275379133858268
20
-4.2243788976377949
11
4.6305511811023621
21
-4.2237795275590546
0
LINE
8
BLACK
6
CONTINUOUS
10
4.6305511811023621
20
-4.2237795275590546
11
4.768346456692913
21
-4.2237795275590546
0
LINE
8
BLACK
6
CONTINUOUS
10
4.768346456692913
20
-4.2237795275590546
11
4.7713597244094483
21
-4.2243788976377949
0
LINE
8
BLACK
6
CONTINUOUS
10
5.0430132677165354
20
-4.2243788976377949
11
5.0455677559055117
21
-4.2260857874015745
0
LINE
8
BLACK
6
CONTINUOUS
10
5.0455677559055117
20
-4.2260857874015745
11
5.0472746456692912
21
-4.2286402755905508
0
LINE
8
BLACK
6
CONTINUOUS
10
5.0472746456692912
20
-4.2286402755905508
11
5.0478740157480315
21
-4.2316535433070861
0
LINE
8
BLACK
6
CONTINUOUS
10
5.0478740157480315
20
-4.2316535433070861
11
5.0478740157480315
21
-4.3694488188976379
0
LINE
8
BLACK
6
CONTINUOUS
10
5.0478740157480315
20
-4.3694488188976379
11
5.0472746456692912
21
-4.3724620866141732
0
LINE
8
BLACK
6
CONTINUOUS
10
5.0472746456692912
20
-4.3724620866141732
11
5.0455677559055117
21
-4.3750165748031495
0
LINE
8
BLACK
6
CONTINUOUS
10
5.0455677559055117
20
-4.3750165748031495
11
5.0430132677165354
21
-4.3767234645669291
0
LINE
8
BLACK
6
CONTINUOUS
10
5.0430132677165354
20
-4.3767234645669291
11
5.04
21
-4.3773228346456694
0
LINE
8
BLACK
6
CONTINUOUS
10
5.04
20
-4.3773228346456694
11
4.9022047244094491
21
-4.3773228346456694
0
LINE
8
BLACK
6
CONTINUOUS
10
4.9022047244094491
20
-4.3773228346456694
11
4.8991914566929129
21
-4.3767234645669291
0
LINE
8
BLACK
6
CONTINUOUS
10
4.8991914566929129
20
-4.3767234645669291
11
4.8966369685039366
21
-4.3750165748031495
0
LINE
8
BLACK
6
CONTINUOUS
10
4.8966369685039366
20
-4.3750165748031495
11
4.8949300787401571
21
-4.3724620866141732
0
LINE
8
BLACK
6
CONTINUOUS
10
4.8949300787401571
20
-4.3724620866141732
11
4.8943307086614176
21
-4.3694488188976379
0
LINE
8
BLACK
6
CONTINUOUS
10
4.8943307086614176
20
-4.3694488188976379
11
4.8943307086614176
21
-4.2316535433070861
0
LINE
8
BLACK
6
CONTINUOUS
10
4.8943307086614176
20
-4.2316535433070861
11
4.8949300787401571
21
-4.2286402755905508
0
LINE
8
BLACK
6
CONTINUOUS
10
4.8949300787401571
20
-4.2286402755905508
11
4.8966369685039366
21
-4.2260857874015745
0
LINE
8
BLACK
6
CONTINUOUS
10
4.8966369685039366
20
-4.2260857874015745
11
4.8991914566929129
21
-4.2243788976377949
0
LINE
8
BLACK
6
CONTINUOUS
10
4.8991914566929129
20
-4.2243788976377949
11
4.9022047244094491
21
-4.2237795275590546
0
LINE
8
BLACK
6
CONTINUOUS
10
4.9022047244094491
20
-4.2237795275590546
11
5.04
21
-4.2237795275590546
0
LINE
8
BLACK
6
CONTINUOUS
10
5.04
20
-4.2237795275590546
11
5.0430132677165354
21
-4.2243788976377949
0
LINE
8
BLACK
6
CONTINUOUS
10
6.7430132677165355
20
-4.2274497637795276
11
6.7455677559055118
21
-4.2291566535433072
0
LINE
8
BLACK
6
CONTINUOUS
10
6.7455677559055118
20
-4.2291566535433072
11
6.7472746456692914
21
-4.2317111417322835
0
LINE
8
BLACK
6
CONTINUOUS
10
6.7472746456692914
20
-4.2317111417322835
11
6.7478740157480317
21
-4.2347244094488188
0
LINE
8
BLACK
6
CONTINUOUS
10
6.7478740157480317
20
-4.2347244094488188
11
6.7478740157480317
21
-4.2947244094488184
0
LINE
8
BLACK
6
CONTINUOUS
10
6.7478740157480317
20
-4.2947244094488184
11
6.7472746456692914
21
-4.2977376771653546
0
LINE
8
BLACK
6
CONTINUOUS
10
6.7472746456692914
20
-4.2977376771653546
11
6.7455677559055118
21
-4.3002921653543309
0
LINE
8
BLACK
6
CONTINUOUS
10
6.7455677559055118
20
-4.3002921653543309
11
6.7430132677165355
21
-4.3019990551181104
0
LINE
8
BLACK
6
CONTINUOUS
10
6.7430132677165355
20
-4.3019990551181104
11
6.7400000000000002
21
-4.3025984251968499
0
LINE
8
BLACK
6
CONTINUOUS
10
6.7400000000000002
20
-4.3025984251968499
11
6.6799999999999997
21
-4.3025984251968499
0
LINE
8
BLACK
6
CONTINUOUS
10
6.6799999999999997
20
-4.3025984251968499
11
6.6769867322834644
21
-4.3019990551181104
0
LINE
8
BLACK
6
CONTINUOUS
10
6.6769867322834644
20
-4.3019990551181104
11
6.6744322440944881
21
-4.3002921653543309
0
LINE
8
BLACK
6
CONTINUOUS
10
6.6744322440944881
20
-4.3002921653543309
11
6.6727253543307086
21
-4.2977376771653546
0
LINE
8
BLACK
6
CONTINUOUS
10
6.6727253543307086
20
-4.2977376771653546
11
6.6721259842519682
21
-4.2947244094488184
0
LINE
8
BLACK
6
CONTINUOUS
10
6.6721259842519682
20
-4.2947244094488184
11
6.6721259842519682
21
-4.2347244094488188
0
LINE
8
BLACK
6
CONTINUOUS
10
6.6721259842519682
20
-4.2347244094488188
11
6.6727253543307086
21
-4.2317111417322835
0
LINE
8
BLACK
6
CONTINUOUS
10
6.6727253543307086
20
-4.2317111417322835
11
6.6744322440944881
21
-4.2291566535433072
0
LINE
8
BLACK
6
CONTINUOUS
10
6.6744322440944881
20
-4.2291566535433072
11
6.6769867322834644
21
-4.2274497637795276
0
LINE
8
BLACK
6
CONTINUOUS
10
6.6769867322834644
20
-4.2274497637795276
11
6.6799999999999997
21
-4.2268503937007873
0
LINE
8
BLACK
6
CONTINUOUS
10
6.6799999999999997
20
-4.2268503937007873
11
6.7400000000000002
21
-4.2268503937007873
0
LINE
8
BLACK
6
CONTINUOUS
10
6.7400000000000002
20
-4.2268503937007873
11
6.7430132677165355
21
-4.2274497637795276
0
LINE
8
BLACK
6
CONTINUOUS
10
6.8430132677165352
20
-4.2274497637795276
11
6.8455677559055115
21
-4.2291566535433072
0
LINE
8
BLACK
6
CONTINUOUS
10
6.8455677559055115
20
-4.2291566535433072
11
6.847274645669291
21
-4.2317111417322835
0
LINE
8
BLACK
6
CONTINUOUS
10
6.847274645669291
20
-4.2317111417322835
11
6.8478740157480313
21
-4.2347244094488188
0
LINE
8
BLACK
6
CONTINUOUS
10
6.8478740157480313
20
-4.2347244094488188
11
6.8478740157480313
21
-4.2947244094488184
0
LINE
8
BLACK
6
CONTINUOUS
10
6.8478740157480313
20
-4.2947244094488184
11
6.847274645669291
21
-4.2977376771653546
0
LINE
8
BLACK
6
CONTINUOUS
10
6.847274645669291
20
-4.2977376771653546
11
6.8455677559055115
21
-4.3002921653543309
0
LINE
8
BLACK
6
CONTINUOUS
10
6.8455677559055115
20
-4.3002921653543309
11
6.8430132677165352
21
-4.3019990551181104
0
LINE
8
BLACK
6
CONTINUOUS
10
6.8430132677165352
20
-4.3019990551181104
11
6.8399999999999999
21
-4.3025984251968499
0
LINE
8
BLACK
6
CONTINUOUS
10
6.8399999999999999
20
-4.3025984251968499
11
6.7800000000000002
21
-4.3025984251968499
0
LINE
8
BLACK
6
CONTINUOUS
10
6.7800000000000002
20
-4.3025984251968499
11
6.776986732283464
21
-4.3019990551181104
0
LINE
8
BLACK
6
CONTINUOUS
10
6.776986732283464
20
-4.3019990551181104
11
6.7744322440944877
21
-4.3002921653543309
0
LINE
8
BLACK
6
CONTINUOUS
10
6.7744322440944877
20
-4.3002921653543309
11
6.7727253543307082
21
-4.2977376771653546
0
LINE
8
BLACK
6
CONTINUOUS
10
6.7727253543307082
20
-4.2977376771653546
11
6.7721259842519688
21
-4.2947244094488184
0
LINE
8
BLACK
6
CONTINUOUS
10
6.7721259842519688
20
-4.2947244094488184
11
6.7721259842519688
21
-4.2347244094488188
0
LINE
8
BLACK
6
CONTINUOUS
10
6.7721259842519688
20
-4.2347244094488188
11
6.7727253543307082
21
-4.2317111417322835
0
LINE
8
BLACK
6
CONTINUOUS
10
6.7727253543307082
20
-4.2317111417322835
11
6.7744322440944877
21
-4.2291566535433072
0
LINE
8
BLACK
6
CONTINUOUS
10
6.7744322440944877
20
-4.2291566535433072
11
6.776986732283464
21
-4.2274497637795276
0
LINE
8
BLACK
6
CONTINUOUS
10
6.776986732283464
20
-4.2274497637795276
11
6.7800000000000002
21
-4.2268503937007873
0
LINE
8
BLACK
6
CONTINUOUS
10
6.7800000000000002
20
-4.2268503937007873
11
6.8399999999999999
21
-4.2268503937007873
0
LINE
8
BLACK
6
CONTINUOUS
10
6.8399999999999999
20
-4.2268503937007873
11
6.8430132677165352
21
-4.2274497637795276
0
LINE
8
BLACK
6
CONTINUOUS
10
6.7430132677165355
20
-4.1274497637795271
11
6.7455677559055118
21
-4.1291566535433066
0
LINE
8
BLACK
6
CONTINUOUS
10
6.7455677559055118
20
-4.1291566535433066
11
6.7472746456692914
21
-4.1317111417322829
0
LINE
8
BLACK
6
CONTINUOUS
10
6.7472746456692914
20
-4.1317111417322829
11
6.7478740157480317
21
-4.1347244094488191
0
LINE
8
BLACK
6
CONTINUOUS
10
6.7478740157480317
20
-4.1347244094488191
11
6.7478740157480317
21
-4.1947244094488187
0
LINE
8
BLACK
6
CONTINUOUS
10
6.7478740157480317
20
-4.1947244094488187
11
6.7472746456692914
21
-4.1977376771653541
0
LINE
8
BLACK
6
CONTINUOUS
10
6.7472746456692914
20
-4.1977376771653541
11
6.7455677559055118
21
-4.2002921653543304
0
LINE
8
BLACK
6
CONTINUOUS
10
6.7455677559055118
20
-4.2002921653543304
11
6.7430132677165355
21
-4.2019990551181099
0
LINE
8
BLACK
6
CONTINUOUS
10
6.7430132677165355
20
-4.2019990551181099
11
6.7400000000000002
21
-4.2025984251968502
0
LINE
8
BLACK
6
CONTINUOUS
10
6.7400000000000002
20
-4.2025984251968502
11
6.6799999999999997
21
-4.2025984251968502
0
LINE
8
BLACK
6
CONTINUOUS
10
6.6799999999999997
20
-4.2025984251968502
11
6.6769867322834644
21
-4.2019990551181099
0
LINE
8
BLACK
6
CONTINUOUS
10
6.6769867322834644
20
-4.2019990551181099
11
6.6744322440944881
21
-4.2002921653543304
0
LINE
8
BLACK
6
CONTINUOUS
10
6.6744322440944881
20
-4.2002921653543304
11
6.6727253543307086
21
-4.1977376771653541
0
LINE
8
BLACK
6
CONTINUOUS
10
6.6727253543307086
20
-4.1977376771653541
11
6.6721259842519682
21
-4.1947244094488187
0
LINE
8
BLACK
6
CONTINUOUS
10
6.6721259842519682
20
-4.1947244094488187
11
6.6721259842519682
21
-4.1347244094488191
0
LINE
8
BLACK
6
CONTINUOUS
10
6.6721259842519682
20
-4.1347244094488191
11
6.6727253543307086
21
-4.1317111417322829
0
LINE
8
BLACK
6
CONTINUOUS
10
6.6727253543307086
20
-4.1317111417322829
11
6.6744322440944881
21
-4.1291566535433066
0
LINE
8
BLACK
6
CONTINUOUS
10
6.6744322440944881
20
-4.1291566535433066
11
6.6769867322834644
21
-4.1274497637795271
0
LINE
8
BLACK
6
CONTINUOUS
10
6.6769867322834644
20
-4.1274497637795271
11
6.6799999999999997
21
-4.1268503937007877
0
LINE
8
BLACK
6
CONTINUOUS
10
6.6799999999999997
20
-4.1268503937007877
11
6.7400000000000002
21
-4.1268503937007877
0
LINE
8
BLACK
6
CONTINUOUS
10
6.7400000000000002
20
-4.1268503937007877
11
6.7430132677165355
21
-4.1274497637795271
0
LINE
8
BLACK
6
CONTINUOUS
10
6.8430132677165352
20
-4.1274497637795271
11
6.8455677559055115
21
-4.1291566535433066
0
LINE
8
BLACK
6
CONTINUOUS
10
6.8455677559055115
20
-4.1291566535433066
11
6.847274645669291
21
-4.1317111417322829
0
LINE
8
BLACK
6
CONTINUOUS
10
6.847274645669291
20
-4.1317111417322829
11
6.8478740157480313
21
-4.1347244094488191
0
LINE
8
BLACK
6
CONTINUOUS
10
6.8478740157480313
20
-4.1347244094488191
11
6.8478740157480313
21
-4.1947244094488187
0
LINE
8
BLACK
6
CONTINUOUS
10
6.8478740157480313
20
-4.1947244094488187
11
6.847274645669291
21
-4.1977376771653541
0
LINE
8
BLACK
6
CONTINUOUS
10
6.847274645669291
20
-4.1977376771653541
11
6.8455677559055115
21
-4.2002921653543304
0
LINE
8
BLACK
6
CONTINUOUS
10
6.8455677559055115
20
-4.2002921653543304
11
6.8430132677165352
21
-4.2019990551181099
0
LINE
8
BLACK
6
CONTINUOUS
10
6.8430132677165352
20
-4.2019990551181099
11
6.8399999999999999
21
-4.2025984251968502
0
LINE
8
BLACK
6
CONTINUOUS
10
6.8399999999999999
20
-4.2025984251968502
11
6.7800000000000002
21
-4.2025984251968502
0
LINE
8
BLACK
6
CONTINUOUS
10
6.7800000000000002
20
-4.2025984251968502
11
6.776986732283464
21
-4.2019990551181099
0
LINE
8
BLACK
6
CONTINUOUS
10
6.776986732283464
20
-4.2019990551181099
11
6.7744322440944877
21
-4.2002921653543304
0
LINE
8
BLACK
6
CONTINUOUS
10
6.7744322440944877
20
-4.2002921653543304
11
6.7727253543307082
21
-4.1977376771653541
0
LINE
8
BLACK
6
CONTINUOUS
10
6.7727253543307082
20
-4.1977376771653541
11
6.7721259842519688
21
-4.1947244094488187
0
LINE
8
BLACK
6
CONTINUOUS
10
6.7721259842519688
20
-4.1947244094488187
11
6.7721259842519688
21
-4.1347244094488191
0
LINE
8
BLACK
6
CONTINUOUS
10
6.7721259842519688
20
-4.1347244094488191
11
6.7727253543307082
21
-4.1317111417322829
0
LINE
8
BLACK
6
CONTINUOUS
10
6.7727253543307082
20
-4.1317111417322829
11
6.7744322440944877
21
-4.1291566535433066
0
LINE
8
BLACK
6
CONTINUOUS
10
6.7744322440944877
20
-4.1291566535433066
11
6.776986732283464
21
-4.1274497637795271
0
LINE
8
BLACK
6
CONTINUOUS
10
6.776986732283464
20
-4.1274497637795271
11
6.7800000000000002
21
-4.1268503937007877
0
LINE
8
BLACK
6
CONTINUOUS
10
6.7800000000000002
20
-4.1268503937007877
11
6.8399999999999999
21
-4.1268503937007877
0
LINE
8
BLACK
6
CONTINUOUS
10
6.8399999999999999
20
-4.1268503937007877
11
6.8430132677165352
21
-4.1274497637795271
0
LINE
8
BLACK
6
CONTINUOUS
10
4.7713597244094483
20
-3.9527253543307084
11
4.7739142125984255
21
-3.9544322440944879
0
LINE
8
BLACK
6
CONTINUOUS
10
4.7739142125984255
20
-3.9544322440944879
11
4.7756211023622051
21
-3.9569867322834646
0
LINE
8
BLACK
6
CONTINUOUS
10
4.7756211023622051
20
-3.9569867322834646
11
4.7762204724409445
21
-3.96
0
LINE
8
BLACK
6
CONTINUOUS
10
4.7762204724409445
20
-3.96
11
4.7762204724409445
21
-4.0977952755905509
0
LINE
8
BLACK
6
CONTINUOUS
10
4.7762204724409445
20
-4.0977952755905509
11
4.7756211023622051
21
-4.1008085433070862
0
LINE
8
BLACK
6
CONTINUOUS
10
4.7756211023622051
20
-4.1008085433070862
11
4.7739142125984255
21
-4.1033630314960625
0
LINE
8
BLACK
6
CONTINUOUS
10
4.7739142125984255
20
-4.1033630314960625
11
4.7713597244094483
21
-4.105069921259842
0
LINE
8
BLACK
6
CONTINUOUS
10
4.7713597244094483
20
-4.105069921259842
11
4.768346456692913
21
-4.1056692913385824
0
LINE
8
BLACK
6
CONTINUOUS
10
4.768346456692913
20
-4.1056692913385824
11
4.6305511811023621
21
-4.1056692913385824
0
LINE
8
BLACK
6
CONTINUOUS
10
4.6305511811023621
20
-4.1056692913385824
11
4.6275379133858268
21
-4.105069921259842
0
LINE
8
BLACK
6
CONTINUOUS
10
4.6275379133858268
20
-4.105069921259842
11
4.6249834251968505
21
-4.1033630314960625
0
LINE
8
BLACK
6
CONTINUOUS
10
4.6249834251968505
20
-4.1033630314960625
11
4.6232765354330709
21
-4.1008085433070862
0
LINE
8
BLACK
6
CONTINUOUS
10
4.6232765354330709
20
-4.1008085433070862
11
4.6226771653543306
21
-4.0977952755905509
0
LINE
8
BLACK
6
CONTINUOUS
10
4.6226771653543306
20
-4.0977952755905509
11
4.6226771653543306
21
-3.96
0
LINE
8
BLACK
6
CONTINUOUS
10
4.6226771653543306
20
-3.96
11
4.6232765354330709
21
-3.9569867322834646
0
LINE
8
BLACK
6
CONTINUOUS
10
4.6232765354330709
20
-3.9569867322834646
11
4.6249834251968505
21
-3.9544322440944879
0
LINE
8
BLACK
6
CONTINUOUS
10
4.6249834251968505
20
-3.9544322440944879
11
4.6275379133858268
21
-3.9527253543307084
0
LINE
8
BLACK
6
CONTINUOUS
10
4.6275379133858268
20
-3.9527253543307084
11
4.6305511811023621
21
-3.9521259842519685
0
LINE
8
BLACK
6
CONTINUOUS
10
4.6305511811023621
20
-3.9521259842519685
11
4.768346456692913
21
-3.9521259842519685
0
LINE
8
BLACK
6
CONTINUOUS
10
4.768346456692913
20
-3.9521259842519685
11
4.7713597244094483
21
-3.9527253543307084
0
LINE
8
BLACK
6
CONTINUOUS
10
5.0430132677165354
20
-3.9527253543307084
11
5.0455677559055117
21
-3.9544322440944879
0
LINE
8
BLACK
6
CONTINUOUS
10
5.0455677559055117
20
-3.9544322440944879
11
5.0472746456692912
21
-3.9569867322834646
0
LINE
8
BLACK
6
CONTINUOUS
10
5.0472746456692912
20
-3.9569867322834646
11
5.0478740157480315
21
-3.96
0
LINE
8
BLACK
6
CONTINUOUS
10
5.0478740157480315
20
-3.96
11
5.0478740157480315
21
-4.0977952755905509
0
LINE
8
BLACK
6
CONTINUOUS
10
5.0478740157480315
20
-4.0977952755905509
11
5.0472746456692912
21
-4.1008085433070862
0
LINE
8
BLACK
6
CONTINUOUS
10
5.0472746456692912
20
-4.1008085433070862
11
5.0455677559055117
21
-4.1033630314960625
0
LINE
8
BLACK
6
CONTINUOUS
10
5.0455677559055117
20
-4.1033630314960625
11
5.0430132677165354
21
-4.105069921259842
0
LINE
8
BLACK
6
CONTINUOUS
10
5.0430132677165354
20
-4.105069921259842
11
5.04
21
-4.1056692913385824
0
LINE
8
BLACK
6
CONTINUOUS
10
5.04
20
-4.1056692913385824
11
4.9022047244094491
21
-4.1056692913385824
0
LINE
8
BLACK
6
CONTINUOUS
10
4.9022047244094491
20
-4.1056692913385824
11
4.8991914566929129
21
-4.105069921259842
0
LINE
8
BLACK
6
CONTINUOUS
10
4.8991914566929129
20
-4.105069921259842
11
4.8966369685039366
21
-4.1033630314960625
0
LINE
8
BLACK
6
CONTINUOUS
10
4.8966369685039366
20
-4.1033630314960625
11
4.8949300787401571
21
-4.1008085433070862
0
LINE
8
BLACK
6
CONTINUOUS
10
4.8949300787401571
20
-4.1008085433070862
11
4.8943307086614176
21
-4.0977952755905509
0
LINE
8
BLACK
6
CONTINUOUS
10
4.8943307086614176
20
-4.0977952755905509
11
4.8943307086614176
21
-3.96
0
LINE
8
BLACK
6
CONTINUOUS
10
4.8943307086614176
20
-3.96
11
4.8949300787401571
21
-3.9569867322834646
0
LINE
8
BLACK
6
CONTINUOUS
10
4.8949300787401571
20
-3.9569867322834646
11
4.8966369685039366
21
-3.9544322440944879
0
LINE
8
BLACK
6
CONTINUOUS
10
4.8966369685039366
20
-3.9544322440944879
11
4.8991914566929129
21
-3.9527253543307084
0
LINE
8
BLACK
6
CONTINUOUS
10
4.8991914566929129
20
-3.9527253543307084
11
4.9022047244094491
21
-3.9521259842519685
0
LINE
8
BLACK
6
CONTINUOUS
10
4.9022047244094491
20
-3.9521259842519685
11
5.04
21
-3.9521259842519685
0
LINE
8
BLACK
6
CONTINUOUS
10
5.04
20
-3.9521259842519685
11
5.0430132677165354
21
-3.9527253543307084
0
LINE
8
BLACK
6
CONTINUOUS
10
6.7430132677165355
20
-4.0274497637795275
11
6.7455677559055118
21
-4.029156653543307
0
LINE
8
BLACK
6
CONTINUOUS
10
6.7455677559055118
20
-4.029156653543307
11
6.7472746456692914
21
-4.0317111417322833
0
LINE
8
BLACK
6
CONTINUOUS
10
6.7472746456692914
20
-4.0317111417322833
11
6.7478740157480317
21
-4.0347244094488186
0
LINE
8
BLACK
6
CONTINUOUS
10
6.7478740157480317
20
-4.0347244094488186
11
6.7478740157480317
21
-4.0947244094488191
0
LINE
8
BLACK
6
CONTINUOUS
10
6.7478740157480317
20
-4.0947244094488191
11
6.7472746456692914
21
-4.0977376771653544
0
LINE
8
BLACK
6
CONTINUOUS
10
6.7472746456692914
20
-4.0977376771653544
11
6.7455677559055118
21
-4.1002921653543307
0
LINE
8
BLACK
6
CONTINUOUS
10
6.7455677559055118
20
-4.1002921653543307
11
6.7430132677165355
21
-4.1019990551181102
0
LINE
8
BLACK
6
CONTINUOUS
10
6.7430132677165355
20
-4.1019990551181102
11
6.7400000000000002
21
-4.1025984251968506
0
LINE
8
BLACK
6
CONTINUOUS
10
6.7400000000000002
20
-4.1025984251968506
11
6.6799999999999997
21
-4.1025984251968506
0
LINE
8
BLACK
6
CONTINUOUS
10
6.6799999999999997
20
-4.1025984251968506
11
6.6769867322834644
21
-4.1019990551181102
0
LINE
8
BLACK
6
CONTINUOUS
10
6.6769867322834644
20
-4.1019990551181102
11
6.6744322440944881
21
-4.1002921653543307
0
LINE
8
BLACK
6
CONTINUOUS
10
6.6744322440944881
20
-4.1002921653543307
11
6.6727253543307086
21
-4.0977376771653544
0
LINE
8
BLACK
6
CONTINUOUS
10
6.6727253543307086
20
-4.0977376771653544
11
6.6721259842519682
21
-4.0947244094488191
0
LINE
8
BLACK
6
CONTINUOUS
10
6.6721259842519682
20
-4.0947244094488191
11
6.6721259842519682
21
-4.0347244094488186
0
LINE
8
BLACK
6
CONTINUOUS
10
6.6721259842519682
20
-4.0347244094488186
11
6.6727253543307086
21
-4.0317111417322833
0
LINE
8
BLACK
6
CONTINUOUS
10
6.6727253543307086
20
-4.0317111417322833
11
6.6744322440944881
21
-4.029156653543307
0
LINE
8
BLACK
6
CONTINUOUS
10
6.6744322440944881
20
-4.029156653543307
11
6.6769867322834644
21
-4.0274497637795275
0
LINE
8
BLACK
6
CONTINUOUS
10
6.6769867322834644
20
-4.0274497637795275
11
6.6799999999999997
21
-4.0268503937007871
0
LINE
8
BLACK
6
CONTINUOUS
10
6.6799999999999997
20
-4.0268503937007871
11
6.7400000000000002
21
-4.0268503937007871
0
LINE
8
BLACK
6
CONTINUOUS
10
6.7400000000000002
20
-4.0268503937007871
11
6.7430132677165355
21
-4.0274497637795275
0
LINE
8
BLACK
6
CONTINUOUS
10
6.8430132677165352
20
-4.0274497637795275
11
6.8455677559055115
21
-4.029156653543307
0
LINE
8
BLACK
6
CONTINUOUS
10
6.8455677559055115
20
-4.029156653543307
11
6.847274645669291
21
-4.0317111417322833
0
LINE
8
BLACK
6
CONTINUOUS
10
6.847274645669291
20
-4.0317111417322833
11
6.8478740157480313
21
-4.0347244094488186
0
LINE
8
BLACK
6
CONTINUOUS
10
6.8478740157480313
20
-4.0347244094488186
11
6.8478740157480313
21
-4.0947244094488191
0
LINE
8
BLACK
6
CONTINUOUS
10
6.8478740157480313
20
-4.0947244094488191
11
6.847274645669291
21
-4.0977376771653544
0
LINE
8
BLACK
6
CONTINUOUS
10
6.847274645669291
20
-4.0977376771653544
11
6.8455677559055115
21
-4.1002921653543307
0
LINE
8
BLACK
6
CONTINUOUS
10
6.8455677559055115
20
-4.1002921653543307
11
6.8430132677165352
21
-4.1019990551181102
0
LINE
8
BLACK
6
CONTINUOUS
10
6.8430132677165352
20
-4.1019990551181102
11
6.8399999999999999
21
-4.1025984251968506
0
LINE
8
BLACK
6
CONTINUOUS
10
6.8399999999999999
20
-4.1025984251968506
11
6.7800000000000002
21
-4.1025984251968506
0
LINE
8
BLACK
6
CONTINUOUS
10
6.7800000000000002
20
-4.1025984251968506
11
6.776986732283464
21
-4.1019990551181102
0
LINE
8
BLACK
6
CONTINUOUS
10
6.776986732283464
20
-4.1019990551181102
11
6.7744322440944877
21
-4.1002921653543307
0
LINE
8
BLACK
6
CONTINUOUS
10
6.7744322440944877
20
-4.1002921653543307
11
6.7727253543307082
21
-4.0977376771653544
0
LINE
8
BLACK
6
CONTINUOUS
10
6.7727253543307082
20
-4.0977376771653544
11
6.7721259842519688
21
-4.0947244094488191
0
LINE
8
BLACK
6
CONTINUOUS
10
6.7721259842519688
20
-4.0947244094488191
11
6.7721259842519688
21
-4.0347244094488186
0
LINE
8
BLACK
6
CONTINUOUS
10
6.7721259842519688
20
-4.0347244094488186
11
6.7727253543307082
21
-4.0317111417322833
0
LINE
8
BLACK
6
CONTINUOUS
10
6.7727253543307082
20
-4.0317111417322833
11
6.7744322440944877
21
-4.029156653543307
0
LINE
8
BLACK
6
CONTINUOUS
10
6.7744322440944877
20
-4.029156653543307
11
6.776986732283464
21
-4.0274497637795275
0
LINE
8
BLACK
6
CONTINUOUS
10
6.776986732283464
20
-4.0274497637795275
11
6.7800000000000002
21
-4.0268503937007871
0
LINE
8
BLACK
6
CONTINUOUS
10
6.7800000000000002
20
-4.0268503937007871
11
6.8399999999999999
21
-4.0268503937007871
0
LINE
8
BLACK
6
CONTINUOUS
10
6.8399999999999999
20
-4.0268503937007871
11
6.8430132677165352
21
-4.0274497637795275
0
LINE
8
BLACK
6
CONTINUOUS
10
6.7430132677165355
20
-3.9274497637795274
11
6.7455677559055118
21
-3.9291566535433069
0
LINE
8
BLACK
6
CONTINUOUS
10
6.7455677559055118
20
-3.9291566535433069
11
6.7472746456692914
21
-3.9317111417322832
0
LINE
8
BLACK
6
CONTINUOUS
10
6.7472746456692914
20
-3.9317111417322832
11
6.7478740157480317
21
-3.934724409448819
0
LINE
8
BLACK
6
CONTINUOUS
10
6.7478740157480317
20
-3.934724409448819
11
6.7478740157480317
21
-3.994724409448819
0
LINE
8
BLACK
6
CONTINUOUS
10
6.7478740157480317
20
-3.994724409448819
11
6.7472746456692914
21
-3.9977376771653543
0
LINE
8
BLACK
6
CONTINUOUS
10
6.7472746456692914
20
-3.9977376771653543
11
6.7455677559055118
21
-4.0002921653543302
0
LINE
8
BLACK
6
CONTINUOUS
10
6.7455677559055118
20
-4.0002921653543302
11
6.7430132677165355
21
-4.0019990551181097
0
LINE
8
BLACK
6
CONTINUOUS
10
6.7430132677165355
20
-4.0019990551181097
11
6.7400000000000002
21
-4.0025984251968501
0
LINE
8
BLACK
6
CONTINUOUS
10
6.7400000000000002
20
-4.0025984251968501
11
6.6799999999999997
21
-4.0025984251968501
0
LINE
8
BLACK
6
CONTINUOUS
10
6.6799999999999997
20
-4.0025984251968501
11
6.6769867322834644
21
-4.0019990551181097
0
LINE
8
BLACK
6
CONTINUOUS
10
6.6769867322834644
20
-4.0019990551181097
11
6.6744322440944881
21
-4.0002921653543302
0
LINE
8
BLACK
6
CONTINUOUS
10
6.6744322440944881
20
-4.0002921653543302
11
6.6727253543307086
21
-3.9977376771653543
0
LINE
8
BLACK
6
CONTINUOUS
10
6.6727253543307086
20
-3.9977376771653543
11
6.6721259842519682
21
-3.994724409448819
0
LINE
8
BLACK
6
CONTINUOUS
10
6.6721259842519682
20
-3.994724409448819
11
6.6721259842519682
21
-3.934724409448819
0
LINE
8
BLACK
6
CONTINUOUS
10
6.6721259842519682
20
-3.934724409448819
11
6.6727253543307086
21
-3.9317111417322832
0
LINE
8
BLACK
6
CONTINUOUS
10
6.6727253543307086
20
-3.9317111417322832
11
6.6744322440944881
21
-3.9291566535433069
0
LINE
8
BLACK
6
CONTINUOUS
10
6.6744322440944881
20
-3.9291566535433069
11
6.6769867322834644
21
-3.9274497637795274
0
LINE
8
BLACK
6
CONTINUOUS
10
6.6769867322834644
20
-3.9274497637795274
11
6.6799999999999997
21
-3.9268503937007875
0
LINE
8
BLACK
6
CONTINUOUS
10
6.6799999999999997
20
-3.9268503937007875
11
6.7400000000000002
21
-3.9268503937007875
0
LINE
8
BLACK
6
CONTINUOUS
10
6.7400000000000002
20
-3.9268503937007875
11
6.7430132677165355
21
-3.9274497637795274
0
LINE
8
BLACK
6
CONTINUOUS
10
6.8430132677165352
20
-3.9274497637795274
11
6.8455677559055115
21
-3.9291566535433069
0
LINE
8
BLACK
6
CONTINUOUS
10
6.8455677559055115
20
-3.9291566535433069
11
6.847274645669291
21
-3.9317111417322832
0
LINE
8
BLACK
6
CONTINUOUS
10
6.847274645669291
20
-3.9317111417322832
11
6.8478740157480313
21
-3.934724409448819
0
LINE
8
BLACK
6
CONTINUOUS
10
6.8478740157480313
20
-3.934724409448819
11
6.8478740157480313
21
-3.994724409448819
0
LINE
8
BLACK
6
CONTINUOUS
10
6.8478740157480313
20
-3.994724409448819
11
6.847274645669291
21
-3.9977376771653543
0
LINE
8
BLACK
6
CONTINUOUS
10
6.847274645669291
20
-3.9977376771653543
11
6.8455677559055115
21
-4.0002921653543302
0
LINE
8
BLACK
6
CONTINUOUS
10
6.8455677559055115
20
-4.0002921653543302
11
6.8430132677165352
21
-4.0019990551181097
0
LINE
8
BLACK
6
CONTINUOUS
10
6.8430132677165352
20
-4.0019990551181097
11
6.8399999999999999
21
-4.0025984251968501
0
LINE
8
BLACK
6
CONTINUOUS
10
6.8399999999999999
20
-4.0025984251968501
11
6.7800000000000002
21
-4.0025984251968501
0
LINE
8
BLACK
6
CONTINUOUS
10
6.7800000000000002
20
-4.0025984251968501
11
6.776986732283464
21
-4.0019990551181097
0
LINE
8
BLACK
6
CONTINUOUS
10
6.776986732283464
20
-4.0019990551181097
11
6.7744322440944877
21
-4.0002921653543302
0
LINE
8
BLACK
6
CONTINUOUS
10
6.7744322440944877
20
-4.0002921653543302
11
6.7727253543307082
21
-3.9977376771653543
0
LINE
8
BLACK
6
CONTINUOUS
10
6.7727253543307082
20
-3.9977376771653543
11
6.7721259842519688
21
-3.994724409448819
0
LINE
8
BLACK
6
CONTINUOUS
10
6.7721259842519688
20
-3.994724409448819
11
6.7721259842519688
21
-3.934724409448819
0
LINE
8
BLACK
6
CONTINUOUS
10
6.7721259842519688
20
-3.934724409448819
11
6.7727253543307082
21
-3.9317111417322832
0
LINE
8
BLACK
6
CONTINUOUS
10
6.7727253543307082
20
-3.9317111417322832
11
6.7744322440944877
21
-3.9291566535433069
0
LINE
8
BLACK
6
CONTINUOUS
10
6.7744322440944877
20
-3.9291566535433069
11
6.776986732283464
21
-3.9274497637795274
0
LINE
8
BLACK
6
CONTINUOUS
10
6.776986732283464
20
-3.9274497637795274
11
6.7800000000000002
21
-3.9268503937007875
0
LINE
8
BLACK
6
CONTINUOUS
10
6.7800000000000002
20
-3.9268503937007875
11
6.8399999999999999
21
-3.9268503937007875
0
LINE
8
BLACK
6
CONTINUOUS
10
6.8399999999999999
20
-3.9268503937007875
11
6.8430132677165352
21
-3.9274497637795274
  0
ENDSEC
  0
EOF
