  0
SECTION
  2
HEADER
  9
$ANGBASE
  50
0.0
  9
$ANGDIR
  70
1
  9
$MEASUREMENT
  70
0
  0
ENDSEC
  0
SECTION
  2
TABLES
  0
TABLE
  2
LTYPE
  70
4
  0
LTYPE
  5
40F
  2
CONTINUOUS
  70
0
  3
Solid line
  72
65
  73
0
  40
0.0
  0
LTYPE
  5
410
  2
DASHDOT
 70
0
  3
Dash Dot ____ _ ____ _
 72
65
 73
4
 40
2.0
 49
1.25
 49
-0.25
 49
0.25
 49
-0.25
  0
LTYPE
  5
411
  2
DASHED
 70
0
  3
Dashed __ __ __ __ __
 72
65
 73
2
 40
0.75
 49
0.5
 49
-0.25
  0
LTYPE
  5
43B
  2
DOTTED
 70
0
  3
Dotted .  .  .  .
 72
65
 73
2
 40
0.2
 49
0.0
 49
-0.2
  0
ENDTAB
  0
TABLE
  2
STYLE
  70
4
  0
STYLE
  2
KICAD
  70
0
  40
0
  41
1
  42
1
  50
0
  71
0
  3
isocp.shx
  0
STYLE
  2
KICADB
  70
0
  40
0
  41
1
  42
1
  50
0
  71
0
  3
isocp.shx
  0
STYLE
  2
KICADI
  70
0
  40
0
  41
1
  42
1
  50
15
  71
0
  3
isocp.shx
  0
STYLE
  2
KICADBI
  70
0
  40
0
  41
1
  42
1
  50
15
  71
0
  3
isocp.shx
  0
ENDTAB
  0
TABLE
  2
LAYER
  70
1
  0
LAYER
  2
BLACK
  70
0
  62
7
  6
CONTINUOUS
  0
ENDTAB
  0
ENDSEC
  0
SECTION
  2
ENTITIES
0
LINE
8
BLACK
6
CONTINUOUS
10
0.291483
20
0.0835028
11
0.294676
21
0.0813692
0
LINE
8
BLACK
6
CONTINUOUS
10
0.294676
20
0.0813692
11
0.29681
21
0.078176
0
LINE
8
BLACK
6
CONTINUOUS
10
0.29681
20
0.078176
11
0.297559
21
0.0744094
0
LINE
8
BLACK
6
CONTINUOUS
10
0.297559
20
0.0744094
11
0.297559
21
0.0537402
0
LINE
8
BLACK
6
CONTINUOUS
10
0.297559
20
0.0537402
11
0.29681
21
0.0499736
0
LINE
8
BLACK
6
CONTINUOUS
10
0.29681
20
0.0499736
11
0.294676
21
0.0467804
0
LINE
8
BLACK
6
CONTINUOUS
10
0.294676
20
0.0467804
11
0.291483
21
0.0446469
0
LINE
8
BLACK
6
CONTINUOUS
10
0.291483
20
0.0446469
11
0.287717
21
0.0438976
0
LINE
8
BLACK
6
CONTINUOUS
10
0.287717
20
0.0438976
11
0.252283
21
0.0438976
0
LINE
8
BLACK
6
CONTINUOUS
10
0.252283
20
0.0438976
11
0.248517
21
0.0446469
0
LINE
8
BLACK
6
CONTINUOUS
10
0.248517
20
0.0446469
11
0.245324
21
0.0467804
0
LINE
8
BLACK
6
CONTINUOUS
10
0.245324
20
0.0467804
11
0.24319
21
0.0499736
0
LINE
8
BLACK
6
CONTINUOUS
10
0.24319
20
0.0499736
11
0.242441
21
0.0537402
0
LINE
8
BLACK
6
CONTINUOUS
10
0.242441
20
0.0537402
11
0.242441
21
0.0744094
0
LINE
8
BLACK
6
CONTINUOUS
10
0.242441
20
0.0744094
11
0.24319
21
0.078176
0
LINE
8
BLACK
6
CONTINUOUS
10
0.24319
20
0.078176
11
0.245324
21
0.0813692
0
LINE
8
BLACK
6
CONTINUOUS
10
0.245324
20
0.0813692
11
0.248517
21
0.0835028
0
LINE
8
BLACK
6
CONTINUOUS
10
0.248517
20
0.0835028
11
0.252283
21
0.084252
0
LINE
8
BLACK
6
CONTINUOUS
10
0.252283
20
0.084252
11
0.287717
21
0.084252
0
LINE
8
BLACK
6
CONTINUOUS
10
0.287717
20
0.084252
11
0.291483
21
0.0835028
0
LINE
8
BLACK
6
CONTINUOUS
10
0.291483
20
0.155353
11
0.294676
21
0.15322
0
LINE
8
BLACK
6
CONTINUOUS
10
0.294676
20
0.15322
11
0.29681
21
0.150026
0
LINE
8
BLACK
6
CONTINUOUS
10
0.29681
20
0.150026
11
0.297559
21
0.14626
0
LINE
8
BLACK
6
CONTINUOUS
10
0.297559
20
0.14626
11
0.297559
21
0.125591
0
LINE
8
BLACK
6
CONTINUOUS
10
0.297559
20
0.125591
11
0.29681
21
0.121824
0
LINE
8
BLACK
6
CONTINUOUS
10
0.29681
20
0.121824
11
0.294676
21
0.118631
0
LINE
8
BLACK
6
CONTINUOUS
10
0.294676
20
0.118631
11
0.291483
21
0.116497
0
LINE
8
BLACK
6
CONTINUOUS
10
0.291483
20
0.116497
11
0.287717
21
0.115748
0
LINE
8
BLACK
6
CONTINUOUS
10
0.287717
20
0.115748
11
0.252283
21
0.115748
0
LINE
8
BLACK
6
CONTINUOUS
10
0.252283
20
0.115748
11
0.248517
21
0.116497
0
LINE
8
BLACK
6
CONTINUOUS
10
0.248517
20
0.116497
11
0.245324
21
0.118631
0
LINE
8
BLACK
6
CONTINUOUS
10
0.245324
20
0.118631
11
0.24319
21
0.121824
0
LINE
8
BLACK
6
CONTINUOUS
10
0.24319
20
0.121824
11
0.242441
21
0.125591
0
LINE
8
BLACK
6
CONTINUOUS
10
0.242441
20
0.125591
11
0.242441
21
0.14626
0
LINE
8
BLACK
6
CONTINUOUS
10
0.242441
20
0.14626
11
0.24319
21
0.150026
0
LINE
8
BLACK
6
CONTINUOUS
10
0.24319
20
0.150026
11
0.245324
21
0.15322
0
LINE
8
BLACK
6
CONTINUOUS
10
0.245324
20
0.15322
11
0.248517
21
0.155353
0
LINE
8
BLACK
6
CONTINUOUS
10
0.248517
20
0.155353
11
0.252283
21
0.156102
0
LINE
8
BLACK
6
CONTINUOUS
10
0.252283
20
0.156102
11
0.287717
21
0.156102
0
LINE
8
BLACK
6
CONTINUOUS
10
0.287717
20
0.156102
11
0.291483
21
0.155353
0
LINE
8
BLACK
6
CONTINUOUS
10
0.722467
20
0.171534
11
0.725661
21
0.169401
0
LINE
8
BLACK
6
CONTINUOUS
10
0.725661
20
0.169401
11
0.727794
21
0.166208
0
LINE
8
BLACK
6
CONTINUOUS
10
0.727794
20
0.166208
11
0.728543
21
0.162441
0
LINE
8
BLACK
6
CONTINUOUS
10
0.728543
20
0.162441
11
0.728543
21
0.142756
0
LINE
8
BLACK
6
CONTINUOUS
10
0.728543
20
0.142756
11
0.727794
21
0.138989
0
LINE
8
BLACK
6
CONTINUOUS
10
0.727794
20
0.138989
11
0.725661
21
0.135796
0
LINE
8
BLACK
6
CONTINUOUS
10
0.725661
20
0.135796
11
0.722467
21
0.133663
0
LINE
8
BLACK
6
CONTINUOUS
10
0.722467
20
0.133663
11
0.718701
21
0.132913
0
LINE
8
BLACK
6
CONTINUOUS
10
0.718701
20
0.132913
11
0.681299
21
0.132913
0
LINE
8
BLACK
6
CONTINUOUS
10
0.681299
20
0.132913
11
0.677533
21
0.133663
0
LINE
8
BLACK
6
CONTINUOUS
10
0.677533
20
0.133663
11
0.674339
21
0.135796
0
LINE
8
BLACK
6
CONTINUOUS
10
0.674339
20
0.135796
11
0.672206
21
0.138989
0
LINE
8
BLACK
6
CONTINUOUS
10
0.672206
20
0.138989
11
0.671457
21
0.142756
0
LINE
8
BLACK
6
CONTINUOUS
10
0.671457
20
0.142756
11
0.671457
21
0.162441
0
LINE
8
BLACK
6
CONTINUOUS
10
0.671457
20
0.162441
11
0.672206
21
0.166208
0
LINE
8
BLACK
6
CONTINUOUS
10
0.672206
20
0.166208
11
0.674339
21
0.169401
0
LINE
8
BLACK
6
CONTINUOUS
10
0.674339
20
0.169401
11
0.677533
21
0.171534
0
LINE
8
BLACK
6
CONTINUOUS
10
0.677533
20
0.171534
11
0.681299
21
0.172283
0
LINE
8
BLACK
6
CONTINUOUS
10
0.681299
20
0.172283
11
0.718701
21
0.172283
0
LINE
8
BLACK
6
CONTINUOUS
10
0.718701
20
0.172283
11
0.722467
21
0.171534
0
LINE
8
BLACK
6
CONTINUOUS
10
0.621483
20
0.173503
11
0.624676
21
0.171369
0
LINE
8
BLACK
6
CONTINUOUS
10
0.624676
20
0.171369
11
0.62681
21
0.168176
0
LINE
8
BLACK
6
CONTINUOUS
10
0.62681
20
0.168176
11
0.627559
21
0.164409
0
LINE
8
BLACK
6
CONTINUOUS
10
0.627559
20
0.164409
11
0.627559
21
0.14374
0
LINE
8
BLACK
6
CONTINUOUS
10
0.627559
20
0.14374
11
0.62681
21
0.139974
0
LINE
8
BLACK
6
CONTINUOUS
10
0.62681
20
0.139974
11
0.624676
21
0.13678
0
LINE
8
BLACK
6
CONTINUOUS
10
0.624676
20
0.13678
11
0.621483
21
0.134647
0
LINE
8
BLACK
6
CONTINUOUS
10
0.621483
20
0.134647
11
0.617717
21
0.133898
0
LINE
8
BLACK
6
CONTINUOUS
10
0.617717
20
0.133898
11
0.582283
21
0.133898
0
LINE
8
BLACK
6
CONTINUOUS
10
0.582283
20
0.133898
11
0.578517
21
0.134647
0
LINE
8
BLACK
6
CONTINUOUS
10
0.578517
20
0.134647
11
0.575324
21
0.13678
0
LINE
8
BLACK
6
CONTINUOUS
10
0.575324
20
0.13678
11
0.57319
21
0.139974
0
LINE
8
BLACK
6
CONTINUOUS
10
0.57319
20
0.139974
11
0.572441
21
0.14374
0
LINE
8
BLACK
6
CONTINUOUS
10
0.572441
20
0.14374
11
0.572441
21
0.164409
0
LINE
8
BLACK
6
CONTINUOUS
10
0.572441
20
0.164409
11
0.57319
21
0.168176
0
LINE
8
BLACK
6
CONTINUOUS
10
0.57319
20
0.168176
11
0.575324
21
0.171369
0
LINE
8
BLACK
6
CONTINUOUS
10
0.575324
20
0.171369
11
0.578517
21
0.173503
0
LINE
8
BLACK
6
CONTINUOUS
10
0.578517
20
0.173503
11
0.582283
21
0.174252
0
LINE
8
BLACK
6
CONTINUOUS
10
0.582283
20
0.174252
11
0.617717
21
0.174252
0
LINE
8
BLACK
6
CONTINUOUS
10
0.617717
20
0.174252
11
0.621483
21
0.173503
0
LINE
8
BLACK
6
CONTINUOUS
10
0.506482
20
0.160623
11
0.508398
21
0.159343
0
LINE
8
BLACK
6
CONTINUOUS
10
0.508398
20
0.159343
11
0.509678
21
0.157427
0
LINE
8
BLACK
6
CONTINUOUS
10
0.509678
20
0.157427
11
0.510128
21
0.155167
0
LINE
8
BLACK
6
CONTINUOUS
10
0.510128
20
0.155167
11
0.510128
21
0.143356
0
LINE
8
BLACK
6
CONTINUOUS
10
0.510128
20
0.143356
11
0.509678
21
0.141096
0
LINE
8
BLACK
6
CONTINUOUS
10
0.509678
20
0.141096
11
0.508398
21
0.13918
0
LINE
8
BLACK
6
CONTINUOUS
10
0.508398
20
0.13918
11
0.506482
21
0.1379
0
LINE
8
BLACK
6
CONTINUOUS
10
0.506482
20
0.1379
11
0.504222
21
0.137451
0
LINE
8
BLACK
6
CONTINUOUS
10
0.504222
20
0.137451
11
0.463868
21
0.137451
0
LINE
8
BLACK
6
CONTINUOUS
10
0.463868
20
0.137451
11
0.461608
21
0.1379
0
LINE
8
BLACK
6
CONTINUOUS
10
0.461608
20
0.1379
11
0.459692
21
0.13918
0
LINE
8
BLACK
6
CONTINUOUS
10
0.459692
20
0.13918
11
0.458412
21
0.141096
0
LINE
8
BLACK
6
CONTINUOUS
10
0.458412
20
0.141096
11
0.457963
21
0.143356
0
LINE
8
BLACK
6
CONTINUOUS
10
0.457963
20
0.143356
11
0.457963
21
0.155167
0
LINE
8
BLACK
6
CONTINUOUS
10
0.457963
20
0.155167
11
0.458412
21
0.157427
0
LINE
8
BLACK
6
CONTINUOUS
10
0.458412
20
0.157427
11
0.459692
21
0.159343
0
LINE
8
BLACK
6
CONTINUOUS
10
0.459692
20
0.159343
11
0.461608
21
0.160623
0
LINE
8
BLACK
6
CONTINUOUS
10
0.461608
20
0.160623
11
0.463868
21
0.161073
0
LINE
8
BLACK
6
CONTINUOUS
10
0.463868
20
0.161073
11
0.504222
21
0.161073
0
LINE
8
BLACK
6
CONTINUOUS
10
0.504222
20
0.161073
11
0.506482
21
0.160623
0
LINE
8
BLACK
6
CONTINUOUS
10
0.416915
20
0.160623
11
0.418831
21
0.159343
0
LINE
8
BLACK
6
CONTINUOUS
10
0.418831
20
0.159343
11
0.420111
21
0.157427
0
LINE
8
BLACK
6
CONTINUOUS
10
0.420111
20
0.157427
11
0.420561
21
0.155167
0
LINE
8
BLACK
6
CONTINUOUS
10
0.420561
20
0.155167
11
0.420561
21
0.143356
0
LINE
8
BLACK
6
CONTINUOUS
10
0.420561
20
0.143356
11
0.420111
21
0.141096
0
LINE
8
BLACK
6
CONTINUOUS
10
0.420111
20
0.141096
11
0.418831
21
0.13918
0
LINE
8
BLACK
6
CONTINUOUS
10
0.418831
20
0.13918
11
0.416915
21
0.1379
0
LINE
8
BLACK
6
CONTINUOUS
10
0.416915
20
0.1379
11
0.414656
21
0.137451
0
LINE
8
BLACK
6
CONTINUOUS
10
0.414656
20
0.137451
11
0.374301
21
0.137451
0
LINE
8
BLACK
6
CONTINUOUS
10
0.374301
20
0.137451
11
0.372041
21
0.1379
0
LINE
8
BLACK
6
CONTINUOUS
10
0.372041
20
0.1379
11
0.370125
21
0.13918
0
LINE
8
BLACK
6
CONTINUOUS
10
0.370125
20
0.13918
11
0.368845
21
0.141096
0
LINE
8
BLACK
6
CONTINUOUS
10
0.368845
20
0.141096
11
0.368396
21
0.143356
0
LINE
8
BLACK
6
CONTINUOUS
10
0.368396
20
0.143356
11
0.368396
21
0.155167
0
LINE
8
BLACK
6
CONTINUOUS
10
0.368396
20
0.155167
11
0.368845
21
0.157427
0
LINE
8
BLACK
6
CONTINUOUS
10
0.368845
20
0.157427
11
0.370125
21
0.159343
0
LINE
8
BLACK
6
CONTINUOUS
10
0.370125
20
0.159343
11
0.372041
21
0.160623
0
LINE
8
BLACK
6
CONTINUOUS
10
0.372041
20
0.160623
11
0.374301
21
0.161073
0
LINE
8
BLACK
6
CONTINUOUS
10
0.374301
20
0.161073
11
0.414656
21
0.161073
0
LINE
8
BLACK
6
CONTINUOUS
10
0.414656
20
0.161073
11
0.416915
21
0.160623
0
LINE
8
BLACK
6
CONTINUOUS
10
0.201729
20
0.198198
11
0.204922
21
0.196064
0
LINE
8
BLACK
6
CONTINUOUS
10
0.204922
20
0.196064
11
0.207056
21
0.192871
0
LINE
8
BLACK
6
CONTINUOUS
10
0.207056
20
0.192871
11
0.207805
21
0.189104
0
LINE
8
BLACK
6
CONTINUOUS
10
0.207805
20
0.189104
11
0.207805
21
0.169419
0
LINE
8
BLACK
6
CONTINUOUS
10
0.207805
20
0.169419
11
0.207056
21
0.165653
0
LINE
8
BLACK
6
CONTINUOUS
10
0.207056
20
0.165653
11
0.204922
21
0.16246
0
LINE
8
BLACK
6
CONTINUOUS
10
0.204922
20
0.16246
11
0.201729
21
0.160326
0
LINE
8
BLACK
6
CONTINUOUS
10
0.201729
20
0.160326
11
0.197963
21
0.159577
0
LINE
8
BLACK
6
CONTINUOUS
10
0.197963
20
0.159577
11
0.160561
21
0.159577
0
LINE
8
BLACK
6
CONTINUOUS
10
0.160561
20
0.159577
11
0.156794
21
0.160326
0
LINE
8
BLACK
6
CONTINUOUS
10
0.156794
20
0.160326
11
0.153601
21
0.16246
0
LINE
8
BLACK
6
CONTINUOUS
10
0.153601
20
0.16246
11
0.151468
21
0.165653
0
LINE
8
BLACK
6
CONTINUOUS
10
0.151468
20
0.165653
11
0.150719
21
0.169419
0
LINE
8
BLACK
6
CONTINUOUS
10
0.150719
20
0.169419
11
0.150719
21
0.189104
0
LINE
8
BLACK
6
CONTINUOUS
10
0.150719
20
0.189104
11
0.151468
21
0.192871
0
LINE
8
BLACK
6
CONTINUOUS
10
0.151468
20
0.192871
11
0.153601
21
0.196064
0
LINE
8
BLACK
6
CONTINUOUS
10
0.153601
20
0.196064
11
0.156794
21
0.198198
0
LINE
8
BLACK
6
CONTINUOUS
10
0.156794
20
0.198198
11
0.160561
21
0.198947
0
LINE
8
BLACK
6
CONTINUOUS
10
0.160561
20
0.198947
11
0.197963
21
0.198947
0
LINE
8
BLACK
6
CONTINUOUS
10
0.197963
20
0.198947
11
0.201729
21
0.198198
0
LINE
8
BLACK
6
CONTINUOUS
10
0.110745
20
0.200166
11
0.113938
21
0.198033
0
LINE
8
BLACK
6
CONTINUOUS
10
0.113938
20
0.198033
11
0.116072
21
0.194839
0
LINE
8
BLACK
6
CONTINUOUS
10
0.116072
20
0.194839
11
0.116821
21
0.191073
0
LINE
8
BLACK
6
CONTINUOUS
10
0.116821
20
0.191073
11
0.116821
21
0.170404
0
LINE
8
BLACK
6
CONTINUOUS
10
0.116821
20
0.170404
11
0.116072
21
0.166637
0
LINE
8
BLACK
6
CONTINUOUS
10
0.116072
20
0.166637
11
0.113938
21
0.163444
0
LINE
8
BLACK
6
CONTINUOUS
10
0.113938
20
0.163444
11
0.110745
21
0.16131
0
LINE
8
BLACK
6
CONTINUOUS
10
0.110745
20
0.16131
11
0.106978
21
0.160561
0
LINE
8
BLACK
6
CONTINUOUS
10
0.106978
20
0.160561
11
0.0715453
21
0.160561
0
LINE
8
BLACK
6
CONTINUOUS
10
0.0715453
20
0.160561
11
0.0677787
21
0.16131
0
LINE
8
BLACK
6
CONTINUOUS
10
0.0677787
20
0.16131
11
0.0645856
21
0.163444
0
LINE
8
BLACK
6
CONTINUOUS
10
0.0645856
20
0.163444
11
0.062452
21
0.166637
0
LINE
8
BLACK
6
CONTINUOUS
10
0.062452
20
0.166637
11
0.0617028
21
0.170404
0
LINE
8
BLACK
6
CONTINUOUS
10
0.0617028
20
0.170404
11
0.0617028
21
0.191073
0
LINE
8
BLACK
6
CONTINUOUS
10
0.0617028
20
0.191073
11
0.062452
21
0.194839
0
LINE
8
BLACK
6
CONTINUOUS
10
0.062452
20
0.194839
11
0.0645856
21
0.198033
0
LINE
8
BLACK
6
CONTINUOUS
10
0.0645856
20
0.198033
11
0.0677787
21
0.200166
0
LINE
8
BLACK
6
CONTINUOUS
10
0.0677787
20
0.200166
11
0.0715453
21
0.200915
0
LINE
8
BLACK
6
CONTINUOUS
10
0.0715453
20
0.200915
11
0.106978
21
0.200915
0
LINE
8
BLACK
6
CONTINUOUS
10
0.106978
20
0.200915
11
0.110745
21
0.200166
0
LINE
8
BLACK
6
CONTINUOUS
10
1.67247
20
0.201534
11
1.67566
21
0.199401
0
LINE
8
BLACK
6
CONTINUOUS
10
1.67566
20
0.199401
11
1.67779
21
0.196208
0
LINE
8
BLACK
6
CONTINUOUS
10
1.67779
20
0.196208
11
1.67854
21
0.192441
0
LINE
8
BLACK
6
CONTINUOUS
10
1.67854
20
0.192441
11
1.67854
21
0.172756
0
LINE
8
BLACK
6
CONTINUOUS
10
1.67854
20
0.172756
11
1.67779
21
0.168989
0
LINE
8
BLACK
6
CONTINUOUS
10
1.67779
20
0.168989
11
1.67566
21
0.165796
0
LINE
8
BLACK
6
CONTINUOUS
10
1.67566
20
0.165796
11
1.67247
21
0.163663
0
LINE
8
BLACK
6
CONTINUOUS
10
1.67247
20
0.163663
11
1.6687
21
0.162913
0
LINE
8
BLACK
6
CONTINUOUS
10
1.6687
20
0.162913
11
1.6313
21
0.162913
0
LINE
8
BLACK
6
CONTINUOUS
10
1.6313
20
0.162913
11
1.62753
21
0.163663
0
LINE
8
BLACK
6
CONTINUOUS
10
1.62753
20
0.163663
11
1.62434
21
0.165796
0
LINE
8
BLACK
6
CONTINUOUS
10
1.62434
20
0.165796
11
1.62221
21
0.168989
0
LINE
8
BLACK
6
CONTINUOUS
10
1.62221
20
0.168989
11
1.62146
21
0.172756
0
LINE
8
BLACK
6
CONTINUOUS
10
1.62146
20
0.172756
11
1.62146
21
0.192441
0
LINE
8
BLACK
6
CONTINUOUS
10
1.62146
20
0.192441
11
1.62221
21
0.196208
0
LINE
8
BLACK
6
CONTINUOUS
10
1.62221
20
0.196208
11
1.62434
21
0.199401
0
LINE
8
BLACK
6
CONTINUOUS
10
1.62434
20
0.199401
11
1.62753
21
0.201534
0
LINE
8
BLACK
6
CONTINUOUS
10
1.62753
20
0.201534
11
1.6313
21
0.202283
0
LINE
8
BLACK
6
CONTINUOUS
10
1.6313
20
0.202283
11
1.6687
21
0.202283
0
LINE
8
BLACK
6
CONTINUOUS
10
1.6687
20
0.202283
11
1.67247
21
0.201534
0
LINE
8
BLACK
6
CONTINUOUS
10
1.79247
20
0.201534
11
1.79566
21
0.199401
0
LINE
8
BLACK
6
CONTINUOUS
10
1.79566
20
0.199401
11
1.79779
21
0.196208
0
LINE
8
BLACK
6
CONTINUOUS
10
1.79779
20
0.196208
11
1.79854
21
0.192441
0
LINE
8
BLACK
6
CONTINUOUS
10
1.79854
20
0.192441
11
1.79854
21
0.172756
0
LINE
8
BLACK
6
CONTINUOUS
10
1.79854
20
0.172756
11
1.79779
21
0.168989
0
LINE
8
BLACK
6
CONTINUOUS
10
1.79779
20
0.168989
11
1.79566
21
0.165796
0
LINE
8
BLACK
6
CONTINUOUS
10
1.79566
20
0.165796
11
1.79247
21
0.163663
0
LINE
8
BLACK
6
CONTINUOUS
10
1.79247
20
0.163663
11
1.7887
21
0.162913
0
LINE
8
BLACK
6
CONTINUOUS
10
1.7887
20
0.162913
11
1.7513
21
0.162913
0
LINE
8
BLACK
6
CONTINUOUS
10
1.7513
20
0.162913
11
1.74753
21
0.163663
0
LINE
8
BLACK
6
CONTINUOUS
10
1.74753
20
0.163663
11
1.74434
21
0.165796
0
LINE
8
BLACK
6
CONTINUOUS
10
1.74434
20
0.165796
11
1.74221
21
0.168989
0
LINE
8
BLACK
6
CONTINUOUS
10
1.74221
20
0.168989
11
1.74146
21
0.172756
0
LINE
8
BLACK
6
CONTINUOUS
10
1.74146
20
0.172756
11
1.74146
21
0.192441
0
LINE
8
BLACK
6
CONTINUOUS
10
1.74146
20
0.192441
11
1.74221
21
0.196208
0
LINE
8
BLACK
6
CONTINUOUS
10
1.74221
20
0.196208
11
1.74434
21
0.199401
0
LINE
8
BLACK
6
CONTINUOUS
10
1.74434
20
0.199401
11
1.74753
21
0.201534
0
LINE
8
BLACK
6
CONTINUOUS
10
1.74753
20
0.201534
11
1.7513
21
0.202283
0
LINE
8
BLACK
6
CONTINUOUS
10
1.7513
20
0.202283
11
1.7887
21
0.202283
0
LINE
8
BLACK
6
CONTINUOUS
10
1.7887
20
0.202283
11
1.79247
21
0.201534
0
LINE
8
BLACK
6
CONTINUOUS
10
1.55247
20
0.201534
11
1.55566
21
0.199401
0
LINE
8
BLACK
6
CONTINUOUS
10
1.55566
20
0.199401
11
1.55779
21
0.196208
0
LINE
8
BLACK
6
CONTINUOUS
10
1.55779
20
0.196208
11
1.55854
21
0.192441
0
LINE
8
BLACK
6
CONTINUOUS
10
1.55854
20
0.192441
11
1.55854
21
0.172756
0
LINE
8
BLACK
6
CONTINUOUS
10
1.55854
20
0.172756
11
1.55779
21
0.168989
0
LINE
8
BLACK
6
CONTINUOUS
10
1.55779
20
0.168989
11
1.55566
21
0.165796
0
LINE
8
BLACK
6
CONTINUOUS
10
1.55566
20
0.165796
11
1.55247
21
0.163663
0
LINE
8
BLACK
6
CONTINUOUS
10
1.55247
20
0.163663
11
1.5487
21
0.162913
0
LINE
8
BLACK
6
CONTINUOUS
10
1.5487
20
0.162913
11
1.5113
21
0.162913
0
LINE
8
BLACK
6
CONTINUOUS
10
1.5113
20
0.162913
11
1.50753
21
0.163663
0
LINE
8
BLACK
6
CONTINUOUS
10
1.50753
20
0.163663
11
1.50434
21
0.165796
0
LINE
8
BLACK
6
CONTINUOUS
10
1.50434
20
0.165796
11
1.50221
21
0.168989
0
LINE
8
BLACK
6
CONTINUOUS
10
1.50221
20
0.168989
11
1.50146
21
0.172756
0
LINE
8
BLACK
6
CONTINUOUS
10
1.50146
20
0.172756
11
1.50146
21
0.192441
0
LINE
8
BLACK
6
CONTINUOUS
10
1.50146
20
0.192441
11
1.50221
21
0.196208
0
LINE
8
BLACK
6
CONTINUOUS
10
1.50221
20
0.196208
11
1.50434
21
0.199401
0
LINE
8
BLACK
6
CONTINUOUS
10
1.50434
20
0.199401
11
1.50753
21
0.201534
0
LINE
8
BLACK
6
CONTINUOUS
10
1.50753
20
0.201534
11
1.5113
21
0.202283
0
LINE
8
BLACK
6
CONTINUOUS
10
1.5113
20
0.202283
11
1.5487
21
0.202283
0
LINE
8
BLACK
6
CONTINUOUS
10
1.5487
20
0.202283
11
1.55247
21
0.201534
0
LINE
8
BLACK
6
CONTINUOUS
10
1.43247
20
0.201534
11
1.43566
21
0.199401
0
LINE
8
BLACK
6
CONTINUOUS
10
1.43566
20
0.199401
11
1.43779
21
0.196208
0
LINE
8
BLACK
6
CONTINUOUS
10
1.43779
20
0.196208
11
1.43854
21
0.192441
0
LINE
8
BLACK
6
CONTINUOUS
10
1.43854
20
0.192441
11
1.43854
21
0.172756
0
LINE
8
BLACK
6
CONTINUOUS
10
1.43854
20
0.172756
11
1.43779
21
0.168989
0
LINE
8
BLACK
6
CONTINUOUS
10
1.43779
20
0.168989
11
1.43566
21
0.165796
0
LINE
8
BLACK
6
CONTINUOUS
10
1.43566
20
0.165796
11
1.43247
21
0.163663
0
LINE
8
BLACK
6
CONTINUOUS
10
1.43247
20
0.163663
11
1.4287
21
0.162913
0
LINE
8
BLACK
6
CONTINUOUS
10
1.4287
20
0.162913
11
1.3913
21
0.162913
0
LINE
8
BLACK
6
CONTINUOUS
10
1.3913
20
0.162913
11
1.38753
21
0.163663
0
LINE
8
BLACK
6
CONTINUOUS
10
1.38753
20
0.163663
11
1.38434
21
0.165796
0
LINE
8
BLACK
6
CONTINUOUS
10
1.38434
20
0.165796
11
1.38221
21
0.168989
0
LINE
8
BLACK
6
CONTINUOUS
10
1.38221
20
0.168989
11
1.38146
21
0.172756
0
LINE
8
BLACK
6
CONTINUOUS
10
1.38146
20
0.172756
11
1.38146
21
0.192441
0
LINE
8
BLACK
6
CONTINUOUS
10
1.38146
20
0.192441
11
1.38221
21
0.196208
0
LINE
8
BLACK
6
CONTINUOUS
10
1.38221
20
0.196208
11
1.38434
21
0.199401
0
LINE
8
BLACK
6
CONTINUOUS
10
1.38434
20
0.199401
11
1.38753
21
0.201534
0
LINE
8
BLACK
6
CONTINUOUS
10
1.38753
20
0.201534
11
1.3913
21
0.202283
0
LINE
8
BLACK
6
CONTINUOUS
10
1.3913
20
0.202283
11
1.4287
21
0.202283
0
LINE
8
BLACK
6
CONTINUOUS
10
1.4287
20
0.202283
11
1.43247
21
0.201534
0
LINE
8
BLACK
6
CONTINUOUS
10
0.416915
20
0.198025
11
0.418831
21
0.196745
0
LINE
8
BLACK
6
CONTINUOUS
10
0.418831
20
0.196745
11
0.420111
21
0.194829
0
LINE
8
BLACK
6
CONTINUOUS
10
0.420111
20
0.194829
11
0.420561
21
0.192569
0
LINE
8
BLACK
6
CONTINUOUS
10
0.420561
20
0.192569
11
0.420561
21
0.180758
0
LINE
8
BLACK
6
CONTINUOUS
10
0.420561
20
0.180758
11
0.420111
21
0.178498
0
LINE
8
BLACK
6
CONTINUOUS
10
0.420111
20
0.178498
11
0.418831
21
0.176582
0
LINE
8
BLACK
6
CONTINUOUS
10
0.418831
20
0.176582
11
0.416915
21
0.175302
0
LINE
8
BLACK
6
CONTINUOUS
10
0.416915
20
0.175302
11
0.414656
21
0.174852
0
LINE
8
BLACK
6
CONTINUOUS
10
0.414656
20
0.174852
11
0.374301
21
0.174852
0
LINE
8
BLACK
6
CONTINUOUS
10
0.374301
20
0.174852
11
0.372041
21
0.175302
0
LINE
8
BLACK
6
CONTINUOUS
10
0.372041
20
0.175302
11
0.370125
21
0.176582
0
LINE
8
BLACK
6
CONTINUOUS
10
0.370125
20
0.176582
11
0.368845
21
0.178498
0
LINE
8
BLACK
6
CONTINUOUS
10
0.368845
20
0.178498
11
0.368396
21
0.180758
0
LINE
8
BLACK
6
CONTINUOUS
10
0.368396
20
0.180758
11
0.368396
21
0.192569
0
LINE
8
BLACK
6
CONTINUOUS
10
0.368396
20
0.192569
11
0.368845
21
0.194829
0
LINE
8
BLACK
6
CONTINUOUS
10
0.368845
20
0.194829
11
0.370125
21
0.196745
0
LINE
8
BLACK
6
CONTINUOUS
10
0.370125
20
0.196745
11
0.372041
21
0.198025
0
LINE
8
BLACK
6
CONTINUOUS
10
0.372041
20
0.198025
11
0.374301
21
0.198474
0
LINE
8
BLACK
6
CONTINUOUS
10
0.374301
20
0.198474
11
0.414656
21
0.198474
0
LINE
8
BLACK
6
CONTINUOUS
10
0.414656
20
0.198474
11
0.416915
21
0.198025
0
LINE
8
BLACK
6
CONTINUOUS
10
0.506482
20
0.198025
11
0.508398
21
0.196745
0
LINE
8
BLACK
6
CONTINUOUS
10
0.508398
20
0.196745
11
0.509678
21
0.194829
0
LINE
8
BLACK
6
CONTINUOUS
10
0.509678
20
0.194829
11
0.510128
21
0.192569
0
LINE
8
BLACK
6
CONTINUOUS
10
0.510128
20
0.192569
11
0.510128
21
0.180758
0
LINE
8
BLACK
6
CONTINUOUS
10
0.510128
20
0.180758
11
0.509678
21
0.178498
0
LINE
8
BLACK
6
CONTINUOUS
10
0.509678
20
0.178498
11
0.508398
21
0.176582
0
LINE
8
BLACK
6
CONTINUOUS
10
0.508398
20
0.176582
11
0.506482
21
0.175302
0
LINE
8
BLACK
6
CONTINUOUS
10
0.506482
20
0.175302
11
0.504222
21
0.174852
0
LINE
8
BLACK
6
CONTINUOUS
10
0.504222
20
0.174852
11
0.463868
21
0.174852
0
LINE
8
BLACK
6
CONTINUOUS
10
0.463868
20
0.174852
11
0.461608
21
0.175302
0
LINE
8
BLACK
6
CONTINUOUS
10
0.461608
20
0.175302
11
0.459692
21
0.176582
0
LINE
8
BLACK
6
CONTINUOUS
10
0.459692
20
0.176582
11
0.458412
21
0.178498
0
LINE
8
BLACK
6
CONTINUOUS
10
0.458412
20
0.178498
11
0.457963
21
0.180758
0
LINE
8
BLACK
6
CONTINUOUS
10
0.457963
20
0.180758
11
0.457963
21
0.192569
0
LINE
8
BLACK
6
CONTINUOUS
10
0.457963
20
0.192569
11
0.458412
21
0.194829
0
LINE
8
BLACK
6
CONTINUOUS
10
0.458412
20
0.194829
11
0.459692
21
0.196745
0
LINE
8
BLACK
6
CONTINUOUS
10
0.459692
20
0.196745
11
0.461608
21
0.198025
0
LINE
8
BLACK
6
CONTINUOUS
10
0.461608
20
0.198025
11
0.463868
21
0.198474
0
LINE
8
BLACK
6
CONTINUOUS
10
0.463868
20
0.198474
11
0.504222
21
0.198474
0
LINE
8
BLACK
6
CONTINUOUS
10
0.504222
20
0.198474
11
0.506482
21
0.198025
0
LINE
8
BLACK
6
CONTINUOUS
10
0.832467
20
0.221534
11
0.835661
21
0.219401
0
LINE
8
BLACK
6
CONTINUOUS
10
0.835661
20
0.219401
11
0.837794
21
0.216208
0
LINE
8
BLACK
6
CONTINUOUS
10
0.837794
20
0.216208
11
0.838543
21
0.212441
0
LINE
8
BLACK
6
CONTINUOUS
10
0.838543
20
0.212441
11
0.838543
21
0.192756
0
LINE
8
BLACK
6
CONTINUOUS
10
0.838543
20
0.192756
11
0.837794
21
0.188989
0
LINE
8
BLACK
6
CONTINUOUS
10
0.837794
20
0.188989
11
0.835661
21
0.185796
0
LINE
8
BLACK
6
CONTINUOUS
10
0.835661
20
0.185796
11
0.832467
21
0.183663
0
LINE
8
BLACK
6
CONTINUOUS
10
0.832467
20
0.183663
11
0.828701
21
0.182913
0
LINE
8
BLACK
6
CONTINUOUS
10
0.828701
20
0.182913
11
0.791299
21
0.182913
0
LINE
8
BLACK
6
CONTINUOUS
10
0.791299
20
0.182913
11
0.787533
21
0.183663
0
LINE
8
BLACK
6
CONTINUOUS
10
0.787533
20
0.183663
11
0.784339
21
0.185796
0
LINE
8
BLACK
6
CONTINUOUS
10
0.784339
20
0.185796
11
0.782206
21
0.188989
0
LINE
8
BLACK
6
CONTINUOUS
10
0.782206
20
0.188989
11
0.781457
21
0.192756
0
LINE
8
BLACK
6
CONTINUOUS
10
0.781457
20
0.192756
11
0.781457
21
0.212441
0
LINE
8
BLACK
6
CONTINUOUS
10
0.781457
20
0.212441
11
0.782206
21
0.216208
0
LINE
8
BLACK
6
CONTINUOUS
10
0.782206
20
0.216208
11
0.784339
21
0.219401
0
LINE
8
BLACK
6
CONTINUOUS
10
0.784339
20
0.219401
11
0.787533
21
0.221534
0
LINE
8
BLACK
6
CONTINUOUS
10
0.787533
20
0.221534
11
0.791299
21
0.222283
0
LINE
8
BLACK
6
CONTINUOUS
10
0.791299
20
0.222283
11
0.828701
21
0.222283
0
LINE
8
BLACK
6
CONTINUOUS
10
0.828701
20
0.222283
11
0.832467
21
0.221534
0
LINE
8
BLACK
6
CONTINUOUS
10
0.311483
20
0.227578
11
0.314676
21
0.225444
0
LINE
8
BLACK
6
CONTINUOUS
10
0.314676
20
0.225444
11
0.31681
21
0.222251
0
LINE
8
BLACK
6
CONTINUOUS
10
0.31681
20
0.222251
11
0.317559
21
0.218484
0
LINE
8
BLACK
6
CONTINUOUS
10
0.317559
20
0.218484
11
0.317559
21
0.197815
0
LINE
8
BLACK
6
CONTINUOUS
10
0.317559
20
0.197815
11
0.31681
21
0.194048
0
LINE
8
BLACK
6
CONTINUOUS
10
0.31681
20
0.194048
11
0.314676
21
0.190855
0
LINE
8
BLACK
6
CONTINUOUS
10
0.314676
20
0.190855
11
0.311483
21
0.188722
0
LINE
8
BLACK
6
CONTINUOUS
10
0.311483
20
0.188722
11
0.307717
21
0.187972
0
LINE
8
BLACK
6
CONTINUOUS
10
0.307717
20
0.187972
11
0.272283
21
0.187972
0
LINE
8
BLACK
6
CONTINUOUS
10
0.272283
20
0.187972
11
0.268517
21
0.188722
0
LINE
8
BLACK
6
CONTINUOUS
10
0.268517
20
0.188722
11
0.265324
21
0.190855
0
LINE
8
BLACK
6
CONTINUOUS
10
0.265324
20
0.190855
11
0.26319
21
0.194048
0
LINE
8
BLACK
6
CONTINUOUS
10
0.26319
20
0.194048
11
0.262441
21
0.197815
0
LINE
8
BLACK
6
CONTINUOUS
10
0.262441
20
0.197815
11
0.262441
21
0.218484
0
LINE
8
BLACK
6
CONTINUOUS
10
0.262441
20
0.218484
11
0.26319
21
0.222251
0
LINE
8
BLACK
6
CONTINUOUS
10
0.26319
20
0.222251
11
0.265324
21
0.225444
0
LINE
8
BLACK
6
CONTINUOUS
10
0.265324
20
0.225444
11
0.268517
21
0.227578
0
LINE
8
BLACK
6
CONTINUOUS
10
0.268517
20
0.227578
11
0.272283
21
0.228327
0
LINE
8
BLACK
6
CONTINUOUS
10
0.272283
20
0.228327
11
0.307717
21
0.228327
0
LINE
8
BLACK
6
CONTINUOUS
10
0.307717
20
0.228327
11
0.311483
21
0.227578
0
LINE
8
BLACK
6
CONTINUOUS
10
1.91378
20
0.19063
11
1.88622
21
0.19063
0
LINE
8
BLACK
6
CONTINUOUS
10
1.88622
20
0.19063
11
1.88622
21
0.214252
0
LINE
8
BLACK
6
CONTINUOUS
10
1.88622
20
0.214252
11
1.91378
21
0.214252
0
LINE
8
BLACK
6
CONTINUOUS
10
1.91378
20
0.214252
11
1.91378
21
0.19063
0
LINE
8
BLACK
6
CONTINUOUS
10
0.621483
20
0.245353
11
0.624676
21
0.24322
0
LINE
8
BLACK
6
CONTINUOUS
10
0.624676
20
0.24322
11
0.62681
21
0.240026
0
LINE
8
BLACK
6
CONTINUOUS
10
0.62681
20
0.240026
11
0.627559
21
0.23626
0
LINE
8
BLACK
6
CONTINUOUS
10
0.627559
20
0.23626
11
0.627559
21
0.215591
0
LINE
8
BLACK
6
CONTINUOUS
10
0.627559
20
0.215591
11
0.62681
21
0.211824
0
LINE
8
BLACK
6
CONTINUOUS
10
0.62681
20
0.211824
11
0.624676
21
0.208631
0
LINE
8
BLACK
6
CONTINUOUS
10
0.624676
20
0.208631
11
0.621483
21
0.206497
0
LINE
8
BLACK
6
CONTINUOUS
10
0.621483
20
0.206497
11
0.617717
21
0.205748
0
LINE
8
BLACK
6
CONTINUOUS
10
0.617717
20
0.205748
11
0.582283
21
0.205748
0
LINE
8
BLACK
6
CONTINUOUS
10
0.582283
20
0.205748
11
0.578517
21
0.206497
0
LINE
8
BLACK
6
CONTINUOUS
10
0.578517
20
0.206497
11
0.575324
21
0.208631
0
LINE
8
BLACK
6
CONTINUOUS
10
0.575324
20
0.208631
11
0.57319
21
0.211824
0
LINE
8
BLACK
6
CONTINUOUS
10
0.57319
20
0.211824
11
0.572441
21
0.215591
0
LINE
8
BLACK
6
CONTINUOUS
10
0.572441
20
0.215591
11
0.572441
21
0.23626
0
LINE
8
BLACK
6
CONTINUOUS
10
0.572441
20
0.23626
11
0.57319
21
0.240026
0
LINE
8
BLACK
6
CONTINUOUS
10
0.57319
20
0.240026
11
0.575324
21
0.24322
0
LINE
8
BLACK
6
CONTINUOUS
10
0.575324
20
0.24322
11
0.578517
21
0.245353
0
LINE
8
BLACK
6
CONTINUOUS
10
0.578517
20
0.245353
11
0.582283
21
0.246102
0
LINE
8
BLACK
6
CONTINUOUS
10
0.582283
20
0.246102
11
0.617717
21
0.246102
0
LINE
8
BLACK
6
CONTINUOUS
10
0.617717
20
0.246102
11
0.621483
21
0.245353
0
LINE
8
BLACK
6
CONTINUOUS
10
0.722467
20
0.246337
11
0.725661
21
0.244204
0
LINE
8
BLACK
6
CONTINUOUS
10
0.725661
20
0.244204
11
0.727794
21
0.241011
0
LINE
8
BLACK
6
CONTINUOUS
10
0.727794
20
0.241011
11
0.728543
21
0.237244
0
LINE
8
BLACK
6
CONTINUOUS
10
0.728543
20
0.237244
11
0.728543
21
0.217559
0
LINE
8
BLACK
6
CONTINUOUS
10
0.728543
20
0.217559
11
0.727794
21
0.213792
0
LINE
8
BLACK
6
CONTINUOUS
10
0.727794
20
0.213792
11
0.725661
21
0.210599
0
LINE
8
BLACK
6
CONTINUOUS
10
0.725661
20
0.210599
11
0.722467
21
0.208466
0
LINE
8
BLACK
6
CONTINUOUS
10
0.722467
20
0.208466
11
0.718701
21
0.207717
0
LINE
8
BLACK
6
CONTINUOUS
10
0.718701
20
0.207717
11
0.681299
21
0.207717
0
LINE
8
BLACK
6
CONTINUOUS
10
0.681299
20
0.207717
11
0.677533
21
0.208466
0
LINE
8
BLACK
6
CONTINUOUS
10
0.677533
20
0.208466
11
0.674339
21
0.210599
0
LINE
8
BLACK
6
CONTINUOUS
10
0.674339
20
0.210599
11
0.672206
21
0.213792
0
LINE
8
BLACK
6
CONTINUOUS
10
0.672206
20
0.213792
11
0.671457
21
0.217559
0
LINE
8
BLACK
6
CONTINUOUS
10
0.671457
20
0.217559
11
0.671457
21
0.237244
0
LINE
8
BLACK
6
CONTINUOUS
10
0.671457
20
0.237244
11
0.672206
21
0.241011
0
LINE
8
BLACK
6
CONTINUOUS
10
0.672206
20
0.241011
11
0.674339
21
0.244204
0
LINE
8
BLACK
6
CONTINUOUS
10
0.674339
20
0.244204
11
0.677533
21
0.246337
0
LINE
8
BLACK
6
CONTINUOUS
10
0.677533
20
0.246337
11
0.681299
21
0.247087
0
LINE
8
BLACK
6
CONTINUOUS
10
0.681299
20
0.247087
11
0.718701
21
0.247087
0
LINE
8
BLACK
6
CONTINUOUS
10
0.718701
20
0.247087
11
0.722467
21
0.246337
0
LINE
8
BLACK
6
CONTINUOUS
10
0.416915
20
0.235426
11
0.418831
21
0.234146
0
LINE
8
BLACK
6
CONTINUOUS
10
0.418831
20
0.234146
11
0.420111
21
0.23223
0
LINE
8
BLACK
6
CONTINUOUS
10
0.420111
20
0.23223
11
0.420561
21
0.22997
0
LINE
8
BLACK
6
CONTINUOUS
10
0.420561
20
0.22997
11
0.420561
21
0.218159
0
LINE
8
BLACK
6
CONTINUOUS
10
0.420561
20
0.218159
11
0.420111
21
0.215899
0
LINE
8
BLACK
6
CONTINUOUS
10
0.420111
20
0.215899
11
0.418831
21
0.213984
0
LINE
8
BLACK
6
CONTINUOUS
10
0.418831
20
0.213984
11
0.416915
21
0.212703
0
LINE
8
BLACK
6
CONTINUOUS
10
0.416915
20
0.212703
11
0.414656
21
0.212254
0
LINE
8
BLACK
6
CONTINUOUS
10
0.414656
20
0.212254
11
0.374301
21
0.212254
0
LINE
8
BLACK
6
CONTINUOUS
10
0.374301
20
0.212254
11
0.372041
21
0.212703
0
LINE
8
BLACK
6
CONTINUOUS
10
0.372041
20
0.212703
11
0.370125
21
0.213984
0
LINE
8
BLACK
6
CONTINUOUS
10
0.370125
20
0.213984
11
0.368845
21
0.215899
0
LINE
8
BLACK
6
CONTINUOUS
10
0.368845
20
0.215899
11
0.368396
21
0.218159
0
LINE
8
BLACK
6
CONTINUOUS
10
0.368396
20
0.218159
11
0.368396
21
0.22997
0
LINE
8
BLACK
6
CONTINUOUS
10
0.368396
20
0.22997
11
0.368845
21
0.23223
0
LINE
8
BLACK
6
CONTINUOUS
10
0.368845
20
0.23223
11
0.370125
21
0.234146
0
LINE
8
BLACK
6
CONTINUOUS
10
0.370125
20
0.234146
11
0.372041
21
0.235426
0
LINE
8
BLACK
6
CONTINUOUS
10
0.372041
20
0.235426
11
0.374301
21
0.235876
0
LINE
8
BLACK
6
CONTINUOUS
10
0.374301
20
0.235876
11
0.414656
21
0.235876
0
LINE
8
BLACK
6
CONTINUOUS
10
0.414656
20
0.235876
11
0.416915
21
0.235426
0
LINE
8
BLACK
6
CONTINUOUS
10
0.506482
20
0.235426
11
0.508398
21
0.234146
0
LINE
8
BLACK
6
CONTINUOUS
10
0.508398
20
0.234146
11
0.509678
21
0.23223
0
LINE
8
BLACK
6
CONTINUOUS
10
0.509678
20
0.23223
11
0.510128
21
0.22997
0
LINE
8
BLACK
6
CONTINUOUS
10
0.510128
20
0.22997
11
0.510128
21
0.218159
0
LINE
8
BLACK
6
CONTINUOUS
10
0.510128
20
0.218159
11
0.509678
21
0.215899
0
LINE
8
BLACK
6
CONTINUOUS
10
0.509678
20
0.215899
11
0.508398
21
0.213984
0
LINE
8
BLACK
6
CONTINUOUS
10
0.508398
20
0.213984
11
0.506482
21
0.212703
0
LINE
8
BLACK
6
CONTINUOUS
10
0.506482
20
0.212703
11
0.504222
21
0.212254
0
LINE
8
BLACK
6
CONTINUOUS
10
0.504222
20
0.212254
11
0.463868
21
0.212254
0
LINE
8
BLACK
6
CONTINUOUS
10
0.463868
20
0.212254
11
0.461608
21
0.212703
0
LINE
8
BLACK
6
CONTINUOUS
10
0.461608
20
0.212703
11
0.459692
21
0.213984
0
LINE
8
BLACK
6
CONTINUOUS
10
0.459692
20
0.213984
11
0.458412
21
0.215899
0
LINE
8
BLACK
6
CONTINUOUS
10
0.458412
20
0.215899
11
0.457963
21
0.218159
0
LINE
8
BLACK
6
CONTINUOUS
10
0.457963
20
0.218159
11
0.457963
21
0.22997
0
LINE
8
BLACK
6
CONTINUOUS
10
0.457963
20
0.22997
11
0.458412
21
0.23223
0
LINE
8
BLACK
6
CONTINUOUS
10
0.458412
20
0.23223
11
0.459692
21
0.234146
0
LINE
8
BLACK
6
CONTINUOUS
10
0.459692
20
0.234146
11
0.461608
21
0.235426
0
LINE
8
BLACK
6
CONTINUOUS
10
0.461608
20
0.235426
11
0.463868
21
0.235876
0
LINE
8
BLACK
6
CONTINUOUS
10
0.463868
20
0.235876
11
0.504222
21
0.235876
0
LINE
8
BLACK
6
CONTINUOUS
10
0.504222
20
0.235876
11
0.506482
21
0.235426
0
LINE
8
BLACK
6
CONTINUOUS
10
1.23818
20
0.27681
11
1.24137
21
0.274676
0
LINE
8
BLACK
6
CONTINUOUS
10
1.24137
20
0.274676
11
1.2435
21
0.271483
0
LINE
8
BLACK
6
CONTINUOUS
10
1.2435
20
0.271483
11
1.24425
21
0.267717
0
LINE
8
BLACK
6
CONTINUOUS
10
1.24425
20
0.267717
11
1.24425
21
0.232283
0
LINE
8
BLACK
6
CONTINUOUS
10
1.24425
20
0.232283
11
1.2435
21
0.228517
0
LINE
8
BLACK
6
CONTINUOUS
10
1.2435
20
0.228517
11
1.24137
21
0.225324
0
LINE
8
BLACK
6
CONTINUOUS
10
1.24137
20
0.225324
11
1.23818
21
0.22319
0
LINE
8
BLACK
6
CONTINUOUS
10
1.23818
20
0.22319
11
1.23441
21
0.222441
0
LINE
8
BLACK
6
CONTINUOUS
10
1.23441
20
0.222441
11
1.21374
21
0.222441
0
LINE
8
BLACK
6
CONTINUOUS
10
1.21374
20
0.222441
11
1.20997
21
0.22319
0
LINE
8
BLACK
6
CONTINUOUS
10
1.20997
20
0.22319
11
1.20678
21
0.225324
0
LINE
8
BLACK
6
CONTINUOUS
10
1.20678
20
0.225324
11
1.20465
21
0.228517
0
LINE
8
BLACK
6
CONTINUOUS
10
1.20465
20
0.228517
11
1.2039
21
0.232283
0
LINE
8
BLACK
6
CONTINUOUS
10
1.2039
20
0.232283
11
1.2039
21
0.267717
0
LINE
8
BLACK
6
CONTINUOUS
10
1.2039
20
0.267717
11
1.20465
21
0.271483
0
LINE
8
BLACK
6
CONTINUOUS
10
1.20465
20
0.271483
11
1.20678
21
0.274676
0
LINE
8
BLACK
6
CONTINUOUS
10
1.20678
20
0.274676
11
1.20997
21
0.27681
0
LINE
8
BLACK
6
CONTINUOUS
10
1.20997
20
0.27681
11
1.21374
21
0.277559
0
LINE
8
BLACK
6
CONTINUOUS
10
1.21374
20
0.277559
11
1.23441
21
0.277559
0
LINE
8
BLACK
6
CONTINUOUS
10
1.23441
20
0.277559
11
1.23818
21
0.27681
0
LINE
8
BLACK
6
CONTINUOUS
10
1.31003
20
0.27681
11
1.31322
21
0.274676
0
LINE
8
BLACK
6
CONTINUOUS
10
1.31322
20
0.274676
11
1.31535
21
0.271483
0
LINE
8
BLACK
6
CONTINUOUS
10
1.31535
20
0.271483
11
1.3161
21
0.267717
0
LINE
8
BLACK
6
CONTINUOUS
10
1.3161
20
0.267717
11
1.3161
21
0.232283
0
LINE
8
BLACK
6
CONTINUOUS
10
1.3161
20
0.232283
11
1.31535
21
0.228517
0
LINE
8
BLACK
6
CONTINUOUS
10
1.31535
20
0.228517
11
1.31322
21
0.225324
0
LINE
8
BLACK
6
CONTINUOUS
10
1.31322
20
0.225324
11
1.31003
21
0.22319
0
LINE
8
BLACK
6
CONTINUOUS
10
1.31003
20
0.22319
11
1.30626
21
0.222441
0
LINE
8
BLACK
6
CONTINUOUS
10
1.30626
20
0.222441
11
1.28559
21
0.222441
0
LINE
8
BLACK
6
CONTINUOUS
10
1.28559
20
0.222441
11
1.28182
21
0.22319
0
LINE
8
BLACK
6
CONTINUOUS
10
1.28182
20
0.22319
11
1.27863
21
0.225324
0
LINE
8
BLACK
6
CONTINUOUS
10
1.27863
20
0.225324
11
1.2765
21
0.228517
0
LINE
8
BLACK
6
CONTINUOUS
10
1.2765
20
0.228517
11
1.27575
21
0.232283
0
LINE
8
BLACK
6
CONTINUOUS
10
1.27575
20
0.232283
11
1.27575
21
0.267717
0
LINE
8
BLACK
6
CONTINUOUS
10
1.27575
20
0.267717
11
1.2765
21
0.271483
0
LINE
8
BLACK
6
CONTINUOUS
10
1.2765
20
0.271483
11
1.27863
21
0.274676
0
LINE
8
BLACK
6
CONTINUOUS
10
1.27863
20
0.274676
11
1.28182
21
0.27681
0
LINE
8
BLACK
6
CONTINUOUS
10
1.28182
20
0.27681
11
1.28559
21
0.277559
0
LINE
8
BLACK
6
CONTINUOUS
10
1.28559
20
0.277559
11
1.30626
21
0.277559
0
LINE
8
BLACK
6
CONTINUOUS
10
1.30626
20
0.277559
11
1.31003
21
0.27681
0
LINE
8
BLACK
6
CONTINUOUS
10
0.110745
20
0.272017
11
0.113938
21
0.269883
0
LINE
8
BLACK
6
CONTINUOUS
10
0.113938
20
0.269883
11
0.116072
21
0.26669
0
LINE
8
BLACK
6
CONTINUOUS
10
0.116072
20
0.26669
11
0.116821
21
0.262923
0
LINE
8
BLACK
6
CONTINUOUS
10
0.116821
20
0.262923
11
0.116821
21
0.242254
0
LINE
8
BLACK
6
CONTINUOUS
10
0.116821
20
0.242254
11
0.116072
21
0.238487
0
LINE
8
BLACK
6
CONTINUOUS
10
0.116072
20
0.238487
11
0.113938
21
0.235294
0
LINE
8
BLACK
6
CONTINUOUS
10
0.113938
20
0.235294
11
0.110745
21
0.233161
0
LINE
8
BLACK
6
CONTINUOUS
10
0.110745
20
0.233161
11
0.106978
21
0.232411
0
LINE
8
BLACK
6
CONTINUOUS
10
0.106978
20
0.232411
11
0.0715453
21
0.232411
0
LINE
8
BLACK
6
CONTINUOUS
10
0.0715453
20
0.232411
11
0.0677787
21
0.233161
0
LINE
8
BLACK
6
CONTINUOUS
10
0.0677787
20
0.233161
11
0.0645856
21
0.235294
0
LINE
8
BLACK
6
CONTINUOUS
10
0.0645856
20
0.235294
11
0.062452
21
0.238487
0
LINE
8
BLACK
6
CONTINUOUS
10
0.062452
20
0.238487
11
0.0617028
21
0.242254
0
LINE
8
BLACK
6
CONTINUOUS
10
0.0617028
20
0.242254
11
0.0617028
21
0.262923
0
LINE
8
BLACK
6
CONTINUOUS
10
0.0617028
20
0.262923
11
0.062452
21
0.26669
0
LINE
8
BLACK
6
CONTINUOUS
10
0.062452
20
0.26669
11
0.0645856
21
0.269883
0
LINE
8
BLACK
6
CONTINUOUS
10
0.0645856
20
0.269883
11
0.0677787
21
0.272017
0
LINE
8
BLACK
6
CONTINUOUS
10
0.0677787
20
0.272017
11
0.0715453
21
0.272766
0
LINE
8
BLACK
6
CONTINUOUS
10
0.0715453
20
0.272766
11
0.106978
21
0.272766
0
LINE
8
BLACK
6
CONTINUOUS
10
0.106978
20
0.272766
11
0.110745
21
0.272017
0
LINE
8
BLACK
6
CONTINUOUS
10
0.201729
20
0.273001
11
0.204922
21
0.270867
0
LINE
8
BLACK
6
CONTINUOUS
10
0.204922
20
0.270867
11
0.207056
21
0.267674
0
LINE
8
BLACK
6
CONTINUOUS
10
0.207056
20
0.267674
11
0.207805
21
0.263907
0
LINE
8
BLACK
6
CONTINUOUS
10
0.207805
20
0.263907
11
0.207805
21
0.244222
0
LINE
8
BLACK
6
CONTINUOUS
10
0.207805
20
0.244222
11
0.207056
21
0.240456
0
LINE
8
BLACK
6
CONTINUOUS
10
0.207056
20
0.240456
11
0.204922
21
0.237263
0
LINE
8
BLACK
6
CONTINUOUS
10
0.204922
20
0.237263
11
0.201729
21
0.235129
0
LINE
8
BLACK
6
CONTINUOUS
10
0.201729
20
0.235129
11
0.197963
21
0.23438
0
LINE
8
BLACK
6
CONTINUOUS
10
0.197963
20
0.23438
11
0.160561
21
0.23438
0
LINE
8
BLACK
6
CONTINUOUS
10
0.160561
20
0.23438
11
0.156794
21
0.235129
0
LINE
8
BLACK
6
CONTINUOUS
10
0.156794
20
0.235129
11
0.153601
21
0.237263
0
LINE
8
BLACK
6
CONTINUOUS
10
0.153601
20
0.237263
11
0.151468
21
0.240456
0
LINE
8
BLACK
6
CONTINUOUS
10
0.151468
20
0.240456
11
0.150719
21
0.244222
0
LINE
8
BLACK
6
CONTINUOUS
10
0.150719
20
0.244222
11
0.150719
21
0.263907
0
LINE
8
BLACK
6
CONTINUOUS
10
0.150719
20
0.263907
11
0.151468
21
0.267674
0
LINE
8
BLACK
6
CONTINUOUS
10
0.151468
20
0.267674
11
0.153601
21
0.270867
0
LINE
8
BLACK
6
CONTINUOUS
10
0.153601
20
0.270867
11
0.156794
21
0.273001
0
LINE
8
BLACK
6
CONTINUOUS
10
0.156794
20
0.273001
11
0.160561
21
0.27375
0
LINE
8
BLACK
6
CONTINUOUS
10
0.160561
20
0.27375
11
0.197963
21
0.27375
0
LINE
8
BLACK
6
CONTINUOUS
10
0.197963
20
0.27375
11
0.201729
21
0.273001
0
LINE
8
BLACK
6
CONTINUOUS
10
1.79247
20
0.276337
11
1.79566
21
0.274204
0
LINE
8
BLACK
6
CONTINUOUS
10
1.79566
20
0.274204
11
1.79779
21
0.271011
0
LINE
8
BLACK
6
CONTINUOUS
10
1.79779
20
0.271011
11
1.79854
21
0.267244
0
LINE
8
BLACK
6
CONTINUOUS
10
1.79854
20
0.267244
11
1.79854
21
0.247559
0
LINE
8
BLACK
6
CONTINUOUS
10
1.79854
20
0.247559
11
1.79779
21
0.243792
0
LINE
8
BLACK
6
CONTINUOUS
10
1.79779
20
0.243792
11
1.79566
21
0.240599
0
LINE
8
BLACK
6
CONTINUOUS
10
1.79566
20
0.240599
11
1.79247
21
0.238466
0
LINE
8
BLACK
6
CONTINUOUS
10
1.79247
20
0.238466
11
1.7887
21
0.237717
0
LINE
8
BLACK
6
CONTINUOUS
10
1.7887
20
0.237717
11
1.7513
21
0.237717
0
LINE
8
BLACK
6
CONTINUOUS
10
1.7513
20
0.237717
11
1.74753
21
0.238466
0
LINE
8
BLACK
6
CONTINUOUS
10
1.74753
20
0.238466
11
1.74434
21
0.240599
0
LINE
8
BLACK
6
CONTINUOUS
10
1.74434
20
0.240599
11
1.74221
21
0.243792
0
LINE
8
BLACK
6
CONTINUOUS
10
1.74221
20
0.243792
11
1.74146
21
0.247559
0
LINE
8
BLACK
6
CONTINUOUS
10
1.74146
20
0.247559
11
1.74146
21
0.267244
0
LINE
8
BLACK
6
CONTINUOUS
10
1.74146
20
0.267244
11
1.74221
21
0.271011
0
LINE
8
BLACK
6
CONTINUOUS
10
1.74221
20
0.271011
11
1.74434
21
0.274204
0
LINE
8
BLACK
6
CONTINUOUS
10
1.74434
20
0.274204
11
1.74753
21
0.276337
0
LINE
8
BLACK
6
CONTINUOUS
10
1.74753
20
0.276337
11
1.7513
21
0.277087
0
LINE
8
BLACK
6
CONTINUOUS
10
1.7513
20
0.277087
11
1.7887
21
0.277087
0
LINE
8
BLACK
6
CONTINUOUS
10
1.7887
20
0.277087
11
1.79247
21
0.276337
0
LINE
8
BLACK
6
CONTINUOUS
10
1.55247
20
0.276337
11
1.55566
21
0.274204
0
LINE
8
BLACK
6
CONTINUOUS
10
1.55566
20
0.274204
11
1.55779
21
0.271011
0
LINE
8
BLACK
6
CONTINUOUS
10
1.55779
20
0.271011
11
1.55854
21
0.267244
0
LINE
8
BLACK
6
CONTINUOUS
10
1.55854
20
0.267244
11
1.55854
21
0.247559
0
LINE
8
BLACK
6
CONTINUOUS
10
1.55854
20
0.247559
11
1.55779
21
0.243792
0
LINE
8
BLACK
6
CONTINUOUS
10
1.55779
20
0.243792
11
1.55566
21
0.240599
0
LINE
8
BLACK
6
CONTINUOUS
10
1.55566
20
0.240599
11
1.55247
21
0.238466
0
LINE
8
BLACK
6
CONTINUOUS
10
1.55247
20
0.238466
11
1.5487
21
0.237717
0
LINE
8
BLACK
6
CONTINUOUS
10
1.5487
20
0.237717
11
1.5113
21
0.237717
0
LINE
8
BLACK
6
CONTINUOUS
10
1.5113
20
0.237717
11
1.50753
21
0.238466
0
LINE
8
BLACK
6
CONTINUOUS
10
1.50753
20
0.238466
11
1.50434
21
0.240599
0
LINE
8
BLACK
6
CONTINUOUS
10
1.50434
20
0.240599
11
1.50221
21
0.243792
0
LINE
8
BLACK
6
CONTINUOUS
10
1.50221
20
0.243792
11
1.50146
21
0.247559
0
LINE
8
BLACK
6
CONTINUOUS
10
1.50146
20
0.247559
11
1.50146
21
0.267244
0
LINE
8
BLACK
6
CONTINUOUS
10
1.50146
20
0.267244
11
1.50221
21
0.271011
0
LINE
8
BLACK
6
CONTINUOUS
10
1.50221
20
0.271011
11
1.50434
21
0.274204
0
LINE
8
BLACK
6
CONTINUOUS
10
1.50434
20
0.274204
11
1.50753
21
0.276337
0
LINE
8
BLACK
6
CONTINUOUS
10
1.50753
20
0.276337
11
1.5113
21
0.277087
0
LINE
8
BLACK
6
CONTINUOUS
10
1.5113
20
0.277087
11
1.5487
21
0.277087
0
LINE
8
BLACK
6
CONTINUOUS
10
1.5487
20
0.277087
11
1.55247
21
0.276337
0
LINE
8
BLACK
6
CONTINUOUS
10
1.43247
20
0.276337
11
1.43566
21
0.274204
0
LINE
8
BLACK
6
CONTINUOUS
10
1.43566
20
0.274204
11
1.43779
21
0.271011
0
LINE
8
BLACK
6
CONTINUOUS
10
1.43779
20
0.271011
11
1.43854
21
0.267244
0
LINE
8
BLACK
6
CONTINUOUS
10
1.43854
20
0.267244
11
1.43854
21
0.247559
0
LINE
8
BLACK
6
CONTINUOUS
10
1.43854
20
0.247559
11
1.43779
21
0.243792
0
LINE
8
BLACK
6
CONTINUOUS
10
1.43779
20
0.243792
11
1.43566
21
0.240599
0
LINE
8
BLACK
6
CONTINUOUS
10
1.43566
20
0.240599
11
1.43247
21
0.238466
0
LINE
8
BLACK
6
CONTINUOUS
10
1.43247
20
0.238466
11
1.4287
21
0.237717
0
LINE
8
BLACK
6
CONTINUOUS
10
1.4287
20
0.237717
11
1.3913
21
0.237717
0
LINE
8
BLACK
6
CONTINUOUS
10
1.3913
20
0.237717
11
1.38753
21
0.238466
0
LINE
8
BLACK
6
CONTINUOUS
10
1.38753
20
0.238466
11
1.38434
21
0.240599
0
LINE
8
BLACK
6
CONTINUOUS
10
1.38434
20
0.240599
11
1.38221
21
0.243792
0
LINE
8
BLACK
6
CONTINUOUS
10
1.38221
20
0.243792
11
1.38146
21
0.247559
0
LINE
8
BLACK
6
CONTINUOUS
10
1.38146
20
0.247559
11
1.38146
21
0.267244
0
LINE
8
BLACK
6
CONTINUOUS
10
1.38146
20
0.267244
11
1.38221
21
0.271011
0
LINE
8
BLACK
6
CONTINUOUS
10
1.38221
20
0.271011
11
1.38434
21
0.274204
0
LINE
8
BLACK
6
CONTINUOUS
10
1.38434
20
0.274204
11
1.38753
21
0.276337
0
LINE
8
BLACK
6
CONTINUOUS
10
1.38753
20
0.276337
11
1.3913
21
0.277087
0
LINE
8
BLACK
6
CONTINUOUS
10
1.3913
20
0.277087
11
1.4287
21
0.277087
0
LINE
8
BLACK
6
CONTINUOUS
10
1.4287
20
0.277087
11
1.43247
21
0.276337
0
LINE
8
BLACK
6
CONTINUOUS
10
1.67247
20
0.276337
11
1.67566
21
0.274204
0
LINE
8
BLACK
6
CONTINUOUS
10
1.67566
20
0.274204
11
1.67779
21
0.271011
0
LINE
8
BLACK
6
CONTINUOUS
10
1.67779
20
0.271011
11
1.67854
21
0.267244
0
LINE
8
BLACK
6
CONTINUOUS
10
1.67854
20
0.267244
11
1.67854
21
0.247559
0
LINE
8
BLACK
6
CONTINUOUS
10
1.67854
20
0.247559
11
1.67779
21
0.243792
0
LINE
8
BLACK
6
CONTINUOUS
10
1.67779
20
0.243792
11
1.67566
21
0.240599
0
LINE
8
BLACK
6
CONTINUOUS
10
1.67566
20
0.240599
11
1.67247
21
0.238466
0
LINE
8
BLACK
6
CONTINUOUS
10
1.67247
20
0.238466
11
1.6687
21
0.237717
0
LINE
8
BLACK
6
CONTINUOUS
10
1.6687
20
0.237717
11
1.6313
21
0.237717
0
LINE
8
BLACK
6
CONTINUOUS
10
1.6313
20
0.237717
11
1.62753
21
0.238466
0
LINE
8
BLACK
6
CONTINUOUS
10
1.62753
20
0.238466
11
1.62434
21
0.240599
0
LINE
8
BLACK
6
CONTINUOUS
10
1.62434
20
0.240599
11
1.62221
21
0.243792
0
LINE
8
BLACK
6
CONTINUOUS
10
1.62221
20
0.243792
11
1.62146
21
0.247559
0
LINE
8
BLACK
6
CONTINUOUS
10
1.62146
20
0.247559
11
1.62146
21
0.267244
0
LINE
8
BLACK
6
CONTINUOUS
10
1.62146
20
0.267244
11
1.62221
21
0.271011
0
LINE
8
BLACK
6
CONTINUOUS
10
1.62221
20
0.271011
11
1.62434
21
0.274204
0
LINE
8
BLACK
6
CONTINUOUS
10
1.62434
20
0.274204
11
1.62753
21
0.276337
0
LINE
8
BLACK
6
CONTINUOUS
10
1.62753
20
0.276337
11
1.6313
21
0.277087
0
LINE
8
BLACK
6
CONTINUOUS
10
1.6313
20
0.277087
11
1.6687
21
0.277087
0
LINE
8
BLACK
6
CONTINUOUS
10
1.6687
20
0.277087
11
1.67247
21
0.276337
0
LINE
8
BLACK
6
CONTINUOUS
10
1.91378
20
0.245748
11
1.88622
21
0.245748
0
LINE
8
BLACK
6
CONTINUOUS
10
1.88622
20
0.245748
11
1.88622
21
0.26937
0
LINE
8
BLACK
6
CONTINUOUS
10
1.88622
20
0.26937
11
1.91378
21
0.26937
0
LINE
8
BLACK
6
CONTINUOUS
10
1.91378
20
0.26937
11
1.91378
21
0.245748
0
LINE
8
BLACK
6
CONTINUOUS
10
0.832467
20
0.296337
11
0.835661
21
0.294204
0
LINE
8
BLACK
6
CONTINUOUS
10
0.835661
20
0.294204
11
0.837794
21
0.291011
0
LINE
8
BLACK
6
CONTINUOUS
10
0.837794
20
0.291011
11
0.838543
21
0.287244
0
LINE
8
BLACK
6
CONTINUOUS
10
0.838543
20
0.287244
11
0.838543
21
0.267559
0
LINE
8
BLACK
6
CONTINUOUS
10
0.838543
20
0.267559
11
0.837794
21
0.263792
0
LINE
8
BLACK
6
CONTINUOUS
10
0.837794
20
0.263792
11
0.835661
21
0.260599
0
LINE
8
BLACK
6
CONTINUOUS
10
0.835661
20
0.260599
11
0.832467
21
0.258466
0
LINE
8
BLACK
6
CONTINUOUS
10
0.832467
20
0.258466
11
0.828701
21
0.257717
0
LINE
8
BLACK
6
CONTINUOUS
10
0.828701
20
0.257717
11
0.791299
21
0.257717
0
LINE
8
BLACK
6
CONTINUOUS
10
0.791299
20
0.257717
11
0.787533
21
0.258466
0
LINE
8
BLACK
6
CONTINUOUS
10
0.787533
20
0.258466
11
0.784339
21
0.260599
0
LINE
8
BLACK
6
CONTINUOUS
10
0.784339
20
0.260599
11
0.782206
21
0.263792
0
LINE
8
BLACK
6
CONTINUOUS
10
0.782206
20
0.263792
11
0.781457
21
0.267559
0
LINE
8
BLACK
6
CONTINUOUS
10
0.781457
20
0.267559
11
0.781457
21
0.287244
0
LINE
8
BLACK
6
CONTINUOUS
10
0.781457
20
0.287244
11
0.782206
21
0.291011
0
LINE
8
BLACK
6
CONTINUOUS
10
0.782206
20
0.291011
11
0.784339
21
0.294204
0
LINE
8
BLACK
6
CONTINUOUS
10
0.784339
20
0.294204
11
0.787533
21
0.296337
0
LINE
8
BLACK
6
CONTINUOUS
10
0.787533
20
0.296337
11
0.791299
21
0.297087
0
LINE
8
BLACK
6
CONTINUOUS
10
0.791299
20
0.297087
11
0.828701
21
0.297087
0
LINE
8
BLACK
6
CONTINUOUS
10
0.828701
20
0.297087
11
0.832467
21
0.296337
0
LINE
8
BLACK
6
CONTINUOUS
10
0.311483
20
0.299428
11
0.314676
21
0.297294
0
LINE
8
BLACK
6
CONTINUOUS
10
0.314676
20
0.297294
11
0.31681
21
0.294101
0
LINE
8
BLACK
6
CONTINUOUS
10
0.31681
20
0.294101
11
0.317559
21
0.290335
0
LINE
8
BLACK
6
CONTINUOUS
10
0.317559
20
0.290335
11
0.317559
21
0.269665
0
LINE
8
BLACK
6
CONTINUOUS
10
0.317559
20
0.269665
11
0.31681
21
0.265899
0
LINE
8
BLACK
6
CONTINUOUS
10
0.31681
20
0.265899
11
0.314676
21
0.262706
0
LINE
8
BLACK
6
CONTINUOUS
10
0.314676
20
0.262706
11
0.311483
21
0.260572
0
LINE
8
BLACK
6
CONTINUOUS
10
0.311483
20
0.260572
11
0.307717
21
0.259823
0
LINE
8
BLACK
6
CONTINUOUS
10
0.307717
20
0.259823
11
0.272283
21
0.259823
0
LINE
8
BLACK
6
CONTINUOUS
10
0.272283
20
0.259823
11
0.268517
21
0.260572
0
LINE
8
BLACK
6
CONTINUOUS
10
0.268517
20
0.260572
11
0.265324
21
0.262706
0
LINE
8
BLACK
6
CONTINUOUS
10
0.265324
20
0.262706
11
0.26319
21
0.265899
0
LINE
8
BLACK
6
CONTINUOUS
10
0.26319
20
0.265899
11
0.262441
21
0.269665
0
LINE
8
BLACK
6
CONTINUOUS
10
0.262441
20
0.269665
11
0.262441
21
0.290335
0
LINE
8
BLACK
6
CONTINUOUS
10
0.262441
20
0.290335
11
0.26319
21
0.294101
0
LINE
8
BLACK
6
CONTINUOUS
10
0.26319
20
0.294101
11
0.265324
21
0.297294
0
LINE
8
BLACK
6
CONTINUOUS
10
0.265324
20
0.297294
11
0.268517
21
0.299428
0
LINE
8
BLACK
6
CONTINUOUS
10
0.268517
20
0.299428
11
0.272283
21
0.300177
0
LINE
8
BLACK
6
CONTINUOUS
10
0.272283
20
0.300177
11
0.307717
21
0.300177
0
LINE
8
BLACK
6
CONTINUOUS
10
0.307717
20
0.300177
11
0.311483
21
0.299428
0
LINE
8
BLACK
6
CONTINUOUS
10
0.509288
20
0.333473
11
0.512481
21
0.33134
0
LINE
8
BLACK
6
CONTINUOUS
10
0.512481
20
0.33134
11
0.514615
21
0.328146
0
LINE
8
BLACK
6
CONTINUOUS
10
0.514615
20
0.328146
11
0.515364
21
0.32438
0
LINE
8
BLACK
6
CONTINUOUS
10
0.515364
20
0.32438
11
0.515364
21
0.288947
0
LINE
8
BLACK
6
CONTINUOUS
10
0.515364
20
0.288947
11
0.514615
21
0.28518
0
LINE
8
BLACK
6
CONTINUOUS
10
0.514615
20
0.28518
11
0.512481
21
0.281987
0
LINE
8
BLACK
6
CONTINUOUS
10
0.512481
20
0.281987
11
0.509288
21
0.279854
0
LINE
8
BLACK
6
CONTINUOUS
10
0.509288
20
0.279854
11
0.505522
21
0.279104
0
LINE
8
BLACK
6
CONTINUOUS
10
0.505522
20
0.279104
11
0.484852
21
0.279104
0
LINE
8
BLACK
6
CONTINUOUS
10
0.484852
20
0.279104
11
0.481086
21
0.279854
0
LINE
8
BLACK
6
CONTINUOUS
10
0.481086
20
0.279854
11
0.477893
21
0.281987
0
LINE
8
BLACK
6
CONTINUOUS
10
0.477893
20
0.281987
11
0.475759
21
0.28518
0
LINE
8
BLACK
6
CONTINUOUS
10
0.475759
20
0.28518
11
0.47501
21
0.288947
0
LINE
8
BLACK
6
CONTINUOUS
10
0.47501
20
0.288947
11
0.47501
21
0.32438
0
LINE
8
BLACK
6
CONTINUOUS
10
0.47501
20
0.32438
11
0.475759
21
0.328146
0
LINE
8
BLACK
6
CONTINUOUS
10
0.475759
20
0.328146
11
0.477893
21
0.33134
0
LINE
8
BLACK
6
CONTINUOUS
10
0.477893
20
0.33134
11
0.481086
21
0.333473
0
LINE
8
BLACK
6
CONTINUOUS
10
0.481086
20
0.333473
11
0.484852
21
0.334222
0
LINE
8
BLACK
6
CONTINUOUS
10
0.484852
20
0.334222
11
0.505522
21
0.334222
0
LINE
8
BLACK
6
CONTINUOUS
10
0.505522
20
0.334222
11
0.509288
21
0.333473
0
LINE
8
BLACK
6
CONTINUOUS
10
0.437438
20
0.333473
11
0.440631
21
0.33134
0
LINE
8
BLACK
6
CONTINUOUS
10
0.440631
20
0.33134
11
0.442765
21
0.328146
0
LINE
8
BLACK
6
CONTINUOUS
10
0.442765
20
0.328146
11
0.443514
21
0.32438
0
LINE
8
BLACK
6
CONTINUOUS
10
0.443514
20
0.32438
11
0.443514
21
0.288947
0
LINE
8
BLACK
6
CONTINUOUS
10
0.443514
20
0.288947
11
0.442765
21
0.28518
0
LINE
8
BLACK
6
CONTINUOUS
10
0.442765
20
0.28518
11
0.440631
21
0.281987
0
LINE
8
BLACK
6
CONTINUOUS
10
0.440631
20
0.281987
11
0.437438
21
0.279854
0
LINE
8
BLACK
6
CONTINUOUS
10
0.437438
20
0.279854
11
0.433671
21
0.279104
0
LINE
8
BLACK
6
CONTINUOUS
10
0.433671
20
0.279104
11
0.413002
21
0.279104
0
LINE
8
BLACK
6
CONTINUOUS
10
0.413002
20
0.279104
11
0.409235
21
0.279854
0
LINE
8
BLACK
6
CONTINUOUS
10
0.409235
20
0.279854
11
0.406042
21
0.281987
0
LINE
8
BLACK
6
CONTINUOUS
10
0.406042
20
0.281987
11
0.403909
21
0.28518
0
LINE
8
BLACK
6
CONTINUOUS
10
0.403909
20
0.28518
11
0.403159
21
0.288947
0
LINE
8
BLACK
6
CONTINUOUS
10
0.403159
20
0.288947
11
0.403159
21
0.32438
0
LINE
8
BLACK
6
CONTINUOUS
10
0.403159
20
0.32438
11
0.403909
21
0.328146
0
LINE
8
BLACK
6
CONTINUOUS
10
0.403909
20
0.328146
11
0.406042
21
0.33134
0
LINE
8
BLACK
6
CONTINUOUS
10
0.406042
20
0.33134
11
0.409235
21
0.333473
0
LINE
8
BLACK
6
CONTINUOUS
10
0.409235
20
0.333473
11
0.413002
21
0.334222
0
LINE
8
BLACK
6
CONTINUOUS
10
0.413002
20
0.334222
11
0.433671
21
0.334222
0
LINE
8
BLACK
6
CONTINUOUS
10
0.433671
20
0.334222
11
0.437438
21
0.333473
0
LINE
8
BLACK
6
CONTINUOUS
10
1.91101
20
0.377794
11
1.9142
21
0.375661
0
LINE
8
BLACK
6
CONTINUOUS
10
1.9142
20
0.375661
11
1.91634
21
0.372467
0
LINE
8
BLACK
6
CONTINUOUS
10
1.91634
20
0.372467
11
1.91709
21
0.368701
0
LINE
8
BLACK
6
CONTINUOUS
10
1.91709
20
0.368701
11
1.91709
21
0.331299
0
LINE
8
BLACK
6
CONTINUOUS
10
1.91709
20
0.331299
11
1.91634
21
0.327533
0
LINE
8
BLACK
6
CONTINUOUS
10
1.91634
20
0.327533
11
1.9142
21
0.324339
0
LINE
8
BLACK
6
CONTINUOUS
10
1.9142
20
0.324339
11
1.91101
21
0.322206
0
LINE
8
BLACK
6
CONTINUOUS
10
1.91101
20
0.322206
11
1.90724
21
0.321457
0
LINE
8
BLACK
6
CONTINUOUS
10
1.90724
20
0.321457
11
1.88756
21
0.321457
0
LINE
8
BLACK
6
CONTINUOUS
10
1.88756
20
0.321457
11
1.88379
21
0.322206
0
LINE
8
BLACK
6
CONTINUOUS
10
1.88379
20
0.322206
11
1.8806
21
0.324339
0
LINE
8
BLACK
6
CONTINUOUS
10
1.8806
20
0.324339
11
1.87847
21
0.327533
0
LINE
8
BLACK
6
CONTINUOUS
10
1.87847
20
0.327533
11
1.87772
21
0.331299
0
LINE
8
BLACK
6
CONTINUOUS
10
1.87772
20
0.331299
11
1.87772
21
0.368701
0
LINE
8
BLACK
6
CONTINUOUS
10
1.87772
20
0.368701
11
1.87847
21
0.372467
0
LINE
8
BLACK
6
CONTINUOUS
10
1.87847
20
0.372467
11
1.8806
21
0.375661
0
LINE
8
BLACK
6
CONTINUOUS
10
1.8806
20
0.375661
11
1.88379
21
0.377794
0
LINE
8
BLACK
6
CONTINUOUS
10
1.88379
20
0.377794
11
1.88756
21
0.378543
0
LINE
8
BLACK
6
CONTINUOUS
10
1.88756
20
0.378543
11
1.90724
21
0.378543
0
LINE
8
BLACK
6
CONTINUOUS
10
1.90724
20
0.378543
11
1.91101
21
0.377794
0
LINE
8
BLACK
6
CONTINUOUS
10
1.83621
20
0.377794
11
1.8394
21
0.375661
0
LINE
8
BLACK
6
CONTINUOUS
10
1.8394
20
0.375661
11
1.84153
21
0.372467
0
LINE
8
BLACK
6
CONTINUOUS
10
1.84153
20
0.372467
11
1.84228
21
0.368701
0
LINE
8
BLACK
6
CONTINUOUS
10
1.84228
20
0.368701
11
1.84228
21
0.331299
0
LINE
8
BLACK
6
CONTINUOUS
10
1.84228
20
0.331299
11
1.84153
21
0.327533
0
LINE
8
BLACK
6
CONTINUOUS
10
1.84153
20
0.327533
11
1.8394
21
0.324339
0
LINE
8
BLACK
6
CONTINUOUS
10
1.8394
20
0.324339
11
1.83621
21
0.322206
0
LINE
8
BLACK
6
CONTINUOUS
10
1.83621
20
0.322206
11
1.83244
21
0.321457
0
LINE
8
BLACK
6
CONTINUOUS
10
1.83244
20
0.321457
11
1.81276
21
0.321457
0
LINE
8
BLACK
6
CONTINUOUS
10
1.81276
20
0.321457
11
1.80899
21
0.322206
0
LINE
8
BLACK
6
CONTINUOUS
10
1.80899
20
0.322206
11
1.8058
21
0.324339
0
LINE
8
BLACK
6
CONTINUOUS
10
1.8058
20
0.324339
11
1.80366
21
0.327533
0
LINE
8
BLACK
6
CONTINUOUS
10
1.80366
20
0.327533
11
1.80291
21
0.331299
0
LINE
8
BLACK
6
CONTINUOUS
10
1.80291
20
0.331299
11
1.80291
21
0.368701
0
LINE
8
BLACK
6
CONTINUOUS
10
1.80291
20
0.368701
11
1.80366
21
0.372467
0
LINE
8
BLACK
6
CONTINUOUS
10
1.80366
20
0.372467
11
1.8058
21
0.375661
0
LINE
8
BLACK
6
CONTINUOUS
10
1.8058
20
0.375661
11
1.80899
21
0.377794
0
LINE
8
BLACK
6
CONTINUOUS
10
1.80899
20
0.377794
11
1.81276
21
0.378543
0
LINE
8
BLACK
6
CONTINUOUS
10
1.81276
20
0.378543
11
1.83244
21
0.378543
0
LINE
8
BLACK
6
CONTINUOUS
10
1.83244
20
0.378543
11
1.83621
21
0.377794
0
LINE
8
BLACK
6
CONTINUOUS
10
2.06003
20
0.38681
11
2.06322
21
0.384676
0
LINE
8
BLACK
6
CONTINUOUS
10
2.06322
20
0.384676
11
2.06535
21
0.381483
0
LINE
8
BLACK
6
CONTINUOUS
10
2.06535
20
0.381483
11
2.0661
21
0.377717
0
LINE
8
BLACK
6
CONTINUOUS
10
2.0661
20
0.377717
11
2.0661
21
0.342283
0
LINE
8
BLACK
6
CONTINUOUS
10
2.0661
20
0.342283
11
2.06535
21
0.338517
0
LINE
8
BLACK
6
CONTINUOUS
10
2.06535
20
0.338517
11
2.06322
21
0.335324
0
LINE
8
BLACK
6
CONTINUOUS
10
2.06322
20
0.335324
11
2.06003
21
0.33319
0
LINE
8
BLACK
6
CONTINUOUS
10
2.06003
20
0.33319
11
2.05626
21
0.332441
0
LINE
8
BLACK
6
CONTINUOUS
10
2.05626
20
0.332441
11
2.03559
21
0.332441
0
LINE
8
BLACK
6
CONTINUOUS
10
2.03559
20
0.332441
11
2.03182
21
0.33319
0
LINE
8
BLACK
6
CONTINUOUS
10
2.03182
20
0.33319
11
2.02863
21
0.335324
0
LINE
8
BLACK
6
CONTINUOUS
10
2.02863
20
0.335324
11
2.0265
21
0.338517
0
LINE
8
BLACK
6
CONTINUOUS
10
2.0265
20
0.338517
11
2.02575
21
0.342283
0
LINE
8
BLACK
6
CONTINUOUS
10
2.02575
20
0.342283
11
2.02575
21
0.377717
0
LINE
8
BLACK
6
CONTINUOUS
10
2.02575
20
0.377717
11
2.0265
21
0.381483
0
LINE
8
BLACK
6
CONTINUOUS
10
2.0265
20
0.381483
11
2.02863
21
0.384676
0
LINE
8
BLACK
6
CONTINUOUS
10
2.02863
20
0.384676
11
2.03182
21
0.38681
0
LINE
8
BLACK
6
CONTINUOUS
10
2.03182
20
0.38681
11
2.03559
21
0.387559
0
LINE
8
BLACK
6
CONTINUOUS
10
2.03559
20
0.387559
11
2.05626
21
0.387559
0
LINE
8
BLACK
6
CONTINUOUS
10
2.05626
20
0.387559
11
2.06003
21
0.38681
0
LINE
8
BLACK
6
CONTINUOUS
10
1.98818
20
0.38681
11
1.99137
21
0.384676
0
LINE
8
BLACK
6
CONTINUOUS
10
1.99137
20
0.384676
11
1.9935
21
0.381483
0
LINE
8
BLACK
6
CONTINUOUS
10
1.9935
20
0.381483
11
1.99425
21
0.377717
0
LINE
8
BLACK
6
CONTINUOUS
10
1.99425
20
0.377717
11
1.99425
21
0.342283
0
LINE
8
BLACK
6
CONTINUOUS
10
1.99425
20
0.342283
11
1.9935
21
0.338517
0
LINE
8
BLACK
6
CONTINUOUS
10
1.9935
20
0.338517
11
1.99137
21
0.335324
0
LINE
8
BLACK
6
CONTINUOUS
10
1.99137
20
0.335324
11
1.98818
21
0.33319
0
LINE
8
BLACK
6
CONTINUOUS
10
1.98818
20
0.33319
11
1.98441
21
0.332441
0
LINE
8
BLACK
6
CONTINUOUS
10
1.98441
20
0.332441
11
1.96374
21
0.332441
0
LINE
8
BLACK
6
CONTINUOUS
10
1.96374
20
0.332441
11
1.95997
21
0.33319
0
LINE
8
BLACK
6
CONTINUOUS
10
1.95997
20
0.33319
11
1.95678
21
0.335324
0
LINE
8
BLACK
6
CONTINUOUS
10
1.95678
20
0.335324
11
1.95465
21
0.338517
0
LINE
8
BLACK
6
CONTINUOUS
10
1.95465
20
0.338517
11
1.9539
21
0.342283
0
LINE
8
BLACK
6
CONTINUOUS
10
1.9539
20
0.342283
11
1.9539
21
0.377717
0
LINE
8
BLACK
6
CONTINUOUS
10
1.9539
20
0.377717
11
1.95465
21
0.381483
0
LINE
8
BLACK
6
CONTINUOUS
10
1.95465
20
0.381483
11
1.95678
21
0.384676
0
LINE
8
BLACK
6
CONTINUOUS
10
1.95678
20
0.384676
11
1.95997
21
0.38681
0
LINE
8
BLACK
6
CONTINUOUS
10
1.95997
20
0.38681
11
1.96374
21
0.387559
0
LINE
8
BLACK
6
CONTINUOUS
10
1.96374
20
0.387559
11
1.98441
21
0.387559
0
LINE
8
BLACK
6
CONTINUOUS
10
1.98441
20
0.387559
11
1.98818
21
0.38681
0
LINE
8
BLACK
6
CONTINUOUS
10
1.74609
20
0.418739
11
1.74928
21
0.416605
0
LINE
8
BLACK
6
CONTINUOUS
10
1.74928
20
0.416605
11
1.75142
21
0.413412
0
LINE
8
BLACK
6
CONTINUOUS
10
1.75142
20
0.413412
11
1.75217
21
0.409646
0
LINE
8
BLACK
6
CONTINUOUS
10
1.75217
20
0.409646
11
1.75217
21
0.373228
0
LINE
8
BLACK
6
CONTINUOUS
10
1.75217
20
0.373228
11
1.75142
21
0.369462
0
LINE
8
BLACK
6
CONTINUOUS
10
1.75142
20
0.369462
11
1.74928
21
0.366269
0
LINE
8
BLACK
6
CONTINUOUS
10
1.74928
20
0.366269
11
1.74609
21
0.364135
0
LINE
8
BLACK
6
CONTINUOUS
10
1.74609
20
0.364135
11
1.74232
21
0.363386
0
LINE
8
BLACK
6
CONTINUOUS
10
1.74232
20
0.363386
11
1.65768
21
0.363386
0
LINE
8
BLACK
6
CONTINUOUS
10
1.65768
20
0.363386
11
1.65391
21
0.364135
0
LINE
8
BLACK
6
CONTINUOUS
10
1.65391
20
0.364135
11
1.65072
21
0.366269
0
LINE
8
BLACK
6
CONTINUOUS
10
1.65072
20
0.366269
11
1.64858
21
0.369462
0
LINE
8
BLACK
6
CONTINUOUS
10
1.64858
20
0.369462
11
1.64783
21
0.373228
0
LINE
8
BLACK
6
CONTINUOUS
10
1.64783
20
0.373228
11
1.64783
21
0.409646
0
LINE
8
BLACK
6
CONTINUOUS
10
1.64783
20
0.409646
11
1.64858
21
0.413412
0
LINE
8
BLACK
6
CONTINUOUS
10
1.64858
20
0.413412
11
1.65072
21
0.416605
0
LINE
8
BLACK
6
CONTINUOUS
10
1.65072
20
0.416605
11
1.65391
21
0.418739
0
LINE
8
BLACK
6
CONTINUOUS
10
1.65391
20
0.418739
11
1.65768
21
0.419488
0
LINE
8
BLACK
6
CONTINUOUS
10
1.65768
20
0.419488
11
1.74232
21
0.419488
0
LINE
8
BLACK
6
CONTINUOUS
10
1.74232
20
0.419488
11
1.74609
21
0.418739
0
LINE
8
BLACK
6
CONTINUOUS
10
1.19818
20
0.47681
11
1.20137
21
0.474676
0
LINE
8
BLACK
6
CONTINUOUS
10
1.20137
20
0.474676
11
1.2035
21
0.471483
0
LINE
8
BLACK
6
CONTINUOUS
10
1.2035
20
0.471483
11
1.20425
21
0.467717
0
LINE
8
BLACK
6
CONTINUOUS
10
1.20425
20
0.467717
11
1.20425
21
0.432283
0
LINE
8
BLACK
6
CONTINUOUS
10
1.20425
20
0.432283
11
1.2035
21
0.428517
0
LINE
8
BLACK
6
CONTINUOUS
10
1.2035
20
0.428517
11
1.20137
21
0.425324
0
LINE
8
BLACK
6
CONTINUOUS
10
1.20137
20
0.425324
11
1.19818
21
0.42319
0
LINE
8
BLACK
6
CONTINUOUS
10
1.19818
20
0.42319
11
1.19441
21
0.422441
0
LINE
8
BLACK
6
CONTINUOUS
10
1.19441
20
0.422441
11
1.17374
21
0.422441
0
LINE
8
BLACK
6
CONTINUOUS
10
1.17374
20
0.422441
11
1.16997
21
0.42319
0
LINE
8
BLACK
6
CONTINUOUS
10
1.16997
20
0.42319
11
1.16678
21
0.425324
0
LINE
8
BLACK
6
CONTINUOUS
10
1.16678
20
0.425324
11
1.16465
21
0.428517
0
LINE
8
BLACK
6
CONTINUOUS
10
1.16465
20
0.428517
11
1.1639
21
0.432283
0
LINE
8
BLACK
6
CONTINUOUS
10
1.1639
20
0.432283
11
1.1639
21
0.467717
0
LINE
8
BLACK
6
CONTINUOUS
10
1.1639
20
0.467717
11
1.16465
21
0.471483
0
LINE
8
BLACK
6
CONTINUOUS
10
1.16465
20
0.471483
11
1.16678
21
0.474676
0
LINE
8
BLACK
6
CONTINUOUS
10
1.16678
20
0.474676
11
1.16997
21
0.47681
0
LINE
8
BLACK
6
CONTINUOUS
10
1.16997
20
0.47681
11
1.17374
21
0.477559
0
LINE
8
BLACK
6
CONTINUOUS
10
1.17374
20
0.477559
11
1.19441
21
0.477559
0
LINE
8
BLACK
6
CONTINUOUS
10
1.19441
20
0.477559
11
1.19818
21
0.47681
0
LINE
8
BLACK
6
CONTINUOUS
10
1.27003
20
0.47681
11
1.27322
21
0.474676
0
LINE
8
BLACK
6
CONTINUOUS
10
1.27322
20
0.474676
11
1.27535
21
0.471483
0
LINE
8
BLACK
6
CONTINUOUS
10
1.27535
20
0.471483
11
1.2761
21
0.467717
0
LINE
8
BLACK
6
CONTINUOUS
10
1.2761
20
0.467717
11
1.2761
21
0.432283
0
LINE
8
BLACK
6
CONTINUOUS
10
1.2761
20
0.432283
11
1.27535
21
0.428517
0
LINE
8
BLACK
6
CONTINUOUS
10
1.27535
20
0.428517
11
1.27322
21
0.425324
0
LINE
8
BLACK
6
CONTINUOUS
10
1.27322
20
0.425324
11
1.27003
21
0.42319
0
LINE
8
BLACK
6
CONTINUOUS
10
1.27003
20
0.42319
11
1.26626
21
0.422441
0
LINE
8
BLACK
6
CONTINUOUS
10
1.26626
20
0.422441
11
1.24559
21
0.422441
0
LINE
8
BLACK
6
CONTINUOUS
10
1.24559
20
0.422441
11
1.24182
21
0.42319
0
LINE
8
BLACK
6
CONTINUOUS
10
1.24182
20
0.42319
11
1.23863
21
0.425324
0
LINE
8
BLACK
6
CONTINUOUS
10
1.23863
20
0.425324
11
1.2365
21
0.428517
0
LINE
8
BLACK
6
CONTINUOUS
10
1.2365
20
0.428517
11
1.23575
21
0.432283
0
LINE
8
BLACK
6
CONTINUOUS
10
1.23575
20
0.432283
11
1.23575
21
0.467717
0
LINE
8
BLACK
6
CONTINUOUS
10
1.23575
20
0.467717
11
1.2365
21
0.471483
0
LINE
8
BLACK
6
CONTINUOUS
10
1.2365
20
0.471483
11
1.23863
21
0.474676
0
LINE
8
BLACK
6
CONTINUOUS
10
1.23863
20
0.474676
11
1.24182
21
0.47681
0
LINE
8
BLACK
6
CONTINUOUS
10
1.24182
20
0.47681
11
1.24559
21
0.477559
0
LINE
8
BLACK
6
CONTINUOUS
10
1.24559
20
0.477559
11
1.26626
21
0.477559
0
LINE
8
BLACK
6
CONTINUOUS
10
1.26626
20
0.477559
11
1.27003
21
0.47681
0
LINE
8
BLACK
6
CONTINUOUS
10
0.405952
20
0.47681
11
0.409145
21
0.474676
0
LINE
8
BLACK
6
CONTINUOUS
10
0.409145
20
0.474676
11
0.411278
21
0.471483
0
LINE
8
BLACK
6
CONTINUOUS
10
0.411278
20
0.471483
11
0.412028
21
0.467717
0
LINE
8
BLACK
6
CONTINUOUS
10
0.412028
20
0.467717
11
0.412028
21
0.432283
0
LINE
8
BLACK
6
CONTINUOUS
10
0.412028
20
0.432283
11
0.411278
21
0.428517
0
LINE
8
BLACK
6
CONTINUOUS
10
0.411278
20
0.428517
11
0.409145
21
0.425324
0
LINE
8
BLACK
6
CONTINUOUS
10
0.409145
20
0.425324
11
0.405952
21
0.42319
0
LINE
8
BLACK
6
CONTINUOUS
10
0.405952
20
0.42319
11
0.402185
21
0.422441
0
LINE
8
BLACK
6
CONTINUOUS
10
0.402185
20
0.422441
11
0.381516
21
0.422441
0
LINE
8
BLACK
6
CONTINUOUS
10
0.381516
20
0.422441
11
0.377749
21
0.42319
0
LINE
8
BLACK
6
CONTINUOUS
10
0.377749
20
0.42319
11
0.374556
21
0.425324
0
LINE
8
BLACK
6
CONTINUOUS
10
0.374556
20
0.425324
11
0.372422
21
0.428517
0
LINE
8
BLACK
6
CONTINUOUS
10
0.372422
20
0.428517
11
0.371673
21
0.432283
0
LINE
8
BLACK
6
CONTINUOUS
10
0.371673
20
0.432283
11
0.371673
21
0.467717
0
LINE
8
BLACK
6
CONTINUOUS
10
0.371673
20
0.467717
11
0.372422
21
0.471483
0
LINE
8
BLACK
6
CONTINUOUS
10
0.372422
20
0.471483
11
0.374556
21
0.474676
0
LINE
8
BLACK
6
CONTINUOUS
10
0.374556
20
0.474676
11
0.377749
21
0.47681
0
LINE
8
BLACK
6
CONTINUOUS
10
0.377749
20
0.47681
11
0.381516
21
0.477559
0
LINE
8
BLACK
6
CONTINUOUS
10
0.381516
20
0.477559
11
0.402185
21
0.477559
0
LINE
8
BLACK
6
CONTINUOUS
10
0.402185
20
0.477559
11
0.405952
21
0.47681
0
LINE
8
BLACK
6
CONTINUOUS
10
0.838176
20
0.47681
11
0.841369
21
0.474676
0
LINE
8
BLACK
6
CONTINUOUS
10
0.841369
20
0.474676
11
0.843503
21
0.471483
0
LINE
8
BLACK
6
CONTINUOUS
10
0.843503
20
0.471483
11
0.844252
21
0.467717
0
LINE
8
BLACK
6
CONTINUOUS
10
0.844252
20
0.467717
11
0.844252
21
0.432283
0
LINE
8
BLACK
6
CONTINUOUS
10
0.844252
20
0.432283
11
0.843503
21
0.428517
0
LINE
8
BLACK
6
CONTINUOUS
10
0.843503
20
0.428517
11
0.841369
21
0.425324
0
LINE
8
BLACK
6
CONTINUOUS
10
0.841369
20
0.425324
11
0.838176
21
0.42319
0
LINE
8
BLACK
6
CONTINUOUS
10
0.838176
20
0.42319
11
0.834409
21
0.422441
0
LINE
8
BLACK
6
CONTINUOUS
10
0.834409
20
0.422441
11
0.81374
21
0.422441
0
LINE
8
BLACK
6
CONTINUOUS
10
0.81374
20
0.422441
11
0.809974
21
0.42319
0
LINE
8
BLACK
6
CONTINUOUS
10
0.809974
20
0.42319
11
0.80678
21
0.425324
0
LINE
8
BLACK
6
CONTINUOUS
10
0.80678
20
0.425324
11
0.804647
21
0.428517
0
LINE
8
BLACK
6
CONTINUOUS
10
0.804647
20
0.428517
11
0.803898
21
0.432283
0
LINE
8
BLACK
6
CONTINUOUS
10
0.803898
20
0.432283
11
0.803898
21
0.467717
0
LINE
8
BLACK
6
CONTINUOUS
10
0.803898
20
0.467717
11
0.804647
21
0.471483
0
LINE
8
BLACK
6
CONTINUOUS
10
0.804647
20
0.471483
11
0.80678
21
0.474676
0
LINE
8
BLACK
6
CONTINUOUS
10
0.80678
20
0.474676
11
0.809974
21
0.47681
0
LINE
8
BLACK
6
CONTINUOUS
10
0.809974
20
0.47681
11
0.81374
21
0.477559
0
LINE
8
BLACK
6
CONTINUOUS
10
0.81374
20
0.477559
11
0.834409
21
0.477559
0
LINE
8
BLACK
6
CONTINUOUS
10
0.834409
20
0.477559
11
0.838176
21
0.47681
0
LINE
8
BLACK
6
CONTINUOUS
10
0.588176
20
0.47681
11
0.591369
21
0.474676
0
LINE
8
BLACK
6
CONTINUOUS
10
0.591369
20
0.474676
11
0.593503
21
0.471483
0
LINE
8
BLACK
6
CONTINUOUS
10
0.593503
20
0.471483
11
0.594252
21
0.467717
0
LINE
8
BLACK
6
CONTINUOUS
10
0.594252
20
0.467717
11
0.594252
21
0.432283
0
LINE
8
BLACK
6
CONTINUOUS
10
0.594252
20
0.432283
11
0.593503
21
0.428517
0
LINE
8
BLACK
6
CONTINUOUS
10
0.593503
20
0.428517
11
0.591369
21
0.425324
0
LINE
8
BLACK
6
CONTINUOUS
10
0.591369
20
0.425324
11
0.588176
21
0.42319
0
LINE
8
BLACK
6
CONTINUOUS
10
0.588176
20
0.42319
11
0.584409
21
0.422441
0
LINE
8
BLACK
6
CONTINUOUS
10
0.584409
20
0.422441
11
0.56374
21
0.422441
0
LINE
8
BLACK
6
CONTINUOUS
10
0.56374
20
0.422441
11
0.559974
21
0.42319
0
LINE
8
BLACK
6
CONTINUOUS
10
0.559974
20
0.42319
11
0.55678
21
0.425324
0
LINE
8
BLACK
6
CONTINUOUS
10
0.55678
20
0.425324
11
0.554647
21
0.428517
0
LINE
8
BLACK
6
CONTINUOUS
10
0.554647
20
0.428517
11
0.553898
21
0.432283
0
LINE
8
BLACK
6
CONTINUOUS
10
0.553898
20
0.432283
11
0.553898
21
0.467717
0
LINE
8
BLACK
6
CONTINUOUS
10
0.553898
20
0.467717
11
0.554647
21
0.471483
0
LINE
8
BLACK
6
CONTINUOUS
10
0.554647
20
0.471483
11
0.55678
21
0.474676
0
LINE
8
BLACK
6
CONTINUOUS
10
0.55678
20
0.474676
11
0.559974
21
0.47681
0
LINE
8
BLACK
6
CONTINUOUS
10
0.559974
20
0.47681
11
0.56374
21
0.477559
0
LINE
8
BLACK
6
CONTINUOUS
10
0.56374
20
0.477559
11
0.584409
21
0.477559
0
LINE
8
BLACK
6
CONTINUOUS
10
0.584409
20
0.477559
11
0.588176
21
0.47681
0
LINE
8
BLACK
6
CONTINUOUS
10
0.660026
20
0.47681
11
0.66322
21
0.474676
0
LINE
8
BLACK
6
CONTINUOUS
10
0.66322
20
0.474676
11
0.665353
21
0.471483
0
LINE
8
BLACK
6
CONTINUOUS
10
0.665353
20
0.471483
11
0.666102
21
0.467717
0
LINE
8
BLACK
6
CONTINUOUS
10
0.666102
20
0.467717
11
0.666102
21
0.432283
0
LINE
8
BLACK
6
CONTINUOUS
10
0.666102
20
0.432283
11
0.665353
21
0.428517
0
LINE
8
BLACK
6
CONTINUOUS
10
0.665353
20
0.428517
11
0.66322
21
0.425324
0
LINE
8
BLACK
6
CONTINUOUS
10
0.66322
20
0.425324
11
0.660026
21
0.42319
0
LINE
8
BLACK
6
CONTINUOUS
10
0.660026
20
0.42319
11
0.65626
21
0.422441
0
LINE
8
BLACK
6
CONTINUOUS
10
0.65626
20
0.422441
11
0.635591
21
0.422441
0
LINE
8
BLACK
6
CONTINUOUS
10
0.635591
20
0.422441
11
0.631824
21
0.42319
0
LINE
8
BLACK
6
CONTINUOUS
10
0.631824
20
0.42319
11
0.628631
21
0.425324
0
LINE
8
BLACK
6
CONTINUOUS
10
0.628631
20
0.425324
11
0.626497
21
0.428517
0
LINE
8
BLACK
6
CONTINUOUS
10
0.626497
20
0.428517
11
0.625748
21
0.432283
0
LINE
8
BLACK
6
CONTINUOUS
10
0.625748
20
0.432283
11
0.625748
21
0.467717
0
LINE
8
BLACK
6
CONTINUOUS
10
0.625748
20
0.467717
11
0.626497
21
0.471483
0
LINE
8
BLACK
6
CONTINUOUS
10
0.626497
20
0.471483
11
0.628631
21
0.474676
0
LINE
8
BLACK
6
CONTINUOUS
10
0.628631
20
0.474676
11
0.631824
21
0.47681
0
LINE
8
BLACK
6
CONTINUOUS
10
0.631824
20
0.47681
11
0.635591
21
0.477559
0
LINE
8
BLACK
6
CONTINUOUS
10
0.635591
20
0.477559
11
0.65626
21
0.477559
0
LINE
8
BLACK
6
CONTINUOUS
10
0.65626
20
0.477559
11
0.660026
21
0.47681
0
LINE
8
BLACK
6
CONTINUOUS
10
0.910026
20
0.47681
11
0.91322
21
0.474676
0
LINE
8
BLACK
6
CONTINUOUS
10
0.91322
20
0.474676
11
0.915353
21
0.471483
0
LINE
8
BLACK
6
CONTINUOUS
10
0.915353
20
0.471483
11
0.916102
21
0.467717
0
LINE
8
BLACK
6
CONTINUOUS
10
0.916102
20
0.467717
11
0.916102
21
0.432283
0
LINE
8
BLACK
6
CONTINUOUS
10
0.916102
20
0.432283
11
0.915353
21
0.428517
0
LINE
8
BLACK
6
CONTINUOUS
10
0.915353
20
0.428517
11
0.91322
21
0.425324
0
LINE
8
BLACK
6
CONTINUOUS
10
0.91322
20
0.425324
11
0.910026
21
0.42319
0
LINE
8
BLACK
6
CONTINUOUS
10
0.910026
20
0.42319
11
0.90626
21
0.422441
0
LINE
8
BLACK
6
CONTINUOUS
10
0.90626
20
0.422441
11
0.885591
21
0.422441
0
LINE
8
BLACK
6
CONTINUOUS
10
0.885591
20
0.422441
11
0.881824
21
0.42319
0
LINE
8
BLACK
6
CONTINUOUS
10
0.881824
20
0.42319
11
0.878631
21
0.425324
0
LINE
8
BLACK
6
CONTINUOUS
10
0.878631
20
0.425324
11
0.876497
21
0.428517
0
LINE
8
BLACK
6
CONTINUOUS
10
0.876497
20
0.428517
11
0.875748
21
0.432283
0
LINE
8
BLACK
6
CONTINUOUS
10
0.875748
20
0.432283
11
0.875748
21
0.467717
0
LINE
8
BLACK
6
CONTINUOUS
10
0.875748
20
0.467717
11
0.876497
21
0.471483
0
LINE
8
BLACK
6
CONTINUOUS
10
0.876497
20
0.471483
11
0.878631
21
0.474676
0
LINE
8
BLACK
6
CONTINUOUS
10
0.878631
20
0.474676
11
0.881824
21
0.47681
0
LINE
8
BLACK
6
CONTINUOUS
10
0.881824
20
0.47681
11
0.885591
21
0.477559
0
LINE
8
BLACK
6
CONTINUOUS
10
0.885591
20
0.477559
11
0.90626
21
0.477559
0
LINE
8
BLACK
6
CONTINUOUS
10
0.90626
20
0.477559
11
0.910026
21
0.47681
0
LINE
8
BLACK
6
CONTINUOUS
10
0.334101
20
0.47681
11
0.337294
21
0.474676
0
LINE
8
BLACK
6
CONTINUOUS
10
0.337294
20
0.474676
11
0.339428
21
0.471483
0
LINE
8
BLACK
6
CONTINUOUS
10
0.339428
20
0.471483
11
0.340177
21
0.467717
0
LINE
8
BLACK
6
CONTINUOUS
10
0.340177
20
0.467717
11
0.340177
21
0.432283
0
LINE
8
BLACK
6
CONTINUOUS
10
0.340177
20
0.432283
11
0.339428
21
0.428517
0
LINE
8
BLACK
6
CONTINUOUS
10
0.339428
20
0.428517
11
0.337294
21
0.425324
0
LINE
8
BLACK
6
CONTINUOUS
10
0.337294
20
0.425324
11
0.334101
21
0.42319
0
LINE
8
BLACK
6
CONTINUOUS
10
0.334101
20
0.42319
11
0.330335
21
0.422441
0
LINE
8
BLACK
6
CONTINUOUS
10
0.330335
20
0.422441
11
0.309665
21
0.422441
0
LINE
8
BLACK
6
CONTINUOUS
10
0.309665
20
0.422441
11
0.305899
21
0.42319
0
LINE
8
BLACK
6
CONTINUOUS
10
0.305899
20
0.42319
11
0.302706
21
0.425324
0
LINE
8
BLACK
6
CONTINUOUS
10
0.302706
20
0.425324
11
0.300572
21
0.428517
0
LINE
8
BLACK
6
CONTINUOUS
10
0.300572
20
0.428517
11
0.299823
21
0.432283
0
LINE
8
BLACK
6
CONTINUOUS
10
0.299823
20
0.432283
11
0.299823
21
0.467717
0
LINE
8
BLACK
6
CONTINUOUS
10
0.299823
20
0.467717
11
0.300572
21
0.471483
0
LINE
8
BLACK
6
CONTINUOUS
10
0.300572
20
0.471483
11
0.302706
21
0.474676
0
LINE
8
BLACK
6
CONTINUOUS
10
0.302706
20
0.474676
11
0.305899
21
0.47681
0
LINE
8
BLACK
6
CONTINUOUS
10
0.305899
20
0.47681
11
0.309665
21
0.477559
0
LINE
8
BLACK
6
CONTINUOUS
10
0.309665
20
0.477559
11
0.330335
21
0.477559
0
LINE
8
BLACK
6
CONTINUOUS
10
0.330335
20
0.477559
11
0.334101
21
0.47681
0
LINE
8
BLACK
6
CONTINUOUS
10
1.12247
20
0.461534
11
1.12566
21
0.459401
0
LINE
8
BLACK
6
CONTINUOUS
10
1.12566
20
0.459401
11
1.12779
21
0.456208
0
LINE
8
BLACK
6
CONTINUOUS
10
1.12779
20
0.456208
11
1.12854
21
0.452441
0
LINE
8
BLACK
6
CONTINUOUS
10
1.12854
20
0.452441
11
1.12854
21
0.432756
0
LINE
8
BLACK
6
CONTINUOUS
10
1.12854
20
0.432756
11
1.12779
21
0.428989
0
LINE
8
BLACK
6
CONTINUOUS
10
1.12779
20
0.428989
11
1.12566
21
0.425796
0
LINE
8
BLACK
6
CONTINUOUS
10
1.12566
20
0.425796
11
1.12247
21
0.423663
0
LINE
8
BLACK
6
CONTINUOUS
10
1.12247
20
0.423663
11
1.1187
21
0.422913
0
LINE
8
BLACK
6
CONTINUOUS
10
1.1187
20
0.422913
11
1.0813
21
0.422913
0
LINE
8
BLACK
6
CONTINUOUS
10
1.0813
20
0.422913
11
1.07753
21
0.423663
0
LINE
8
BLACK
6
CONTINUOUS
10
1.07753
20
0.423663
11
1.07434
21
0.425796
0
LINE
8
BLACK
6
CONTINUOUS
10
1.07434
20
0.425796
11
1.07221
21
0.428989
0
LINE
8
BLACK
6
CONTINUOUS
10
1.07221
20
0.428989
11
1.07146
21
0.432756
0
LINE
8
BLACK
6
CONTINUOUS
10
1.07146
20
0.432756
11
1.07146
21
0.452441
0
LINE
8
BLACK
6
CONTINUOUS
10
1.07146
20
0.452441
11
1.07221
21
0.456208
0
LINE
8
BLACK
6
CONTINUOUS
10
1.07221
20
0.456208
11
1.07434
21
0.459401
0
LINE
8
BLACK
6
CONTINUOUS
10
1.07434
20
0.459401
11
1.07753
21
0.461534
0
LINE
8
BLACK
6
CONTINUOUS
10
1.07753
20
0.461534
11
1.0813
21
0.462283
0
LINE
8
BLACK
6
CONTINUOUS
10
1.0813
20
0.462283
11
1.1187
21
0.462283
0
LINE
8
BLACK
6
CONTINUOUS
10
1.1187
20
0.462283
11
1.12247
21
0.461534
0
LINE
8
BLACK
6
CONTINUOUS
10
1.36247
20
0.461534
11
1.36566
21
0.459401
0
LINE
8
BLACK
6
CONTINUOUS
10
1.36566
20
0.459401
11
1.36779
21
0.456208
0
LINE
8
BLACK
6
CONTINUOUS
10
1.36779
20
0.456208
11
1.36854
21
0.452441
0
LINE
8
BLACK
6
CONTINUOUS
10
1.36854
20
0.452441
11
1.36854
21
0.432756
0
LINE
8
BLACK
6
CONTINUOUS
10
1.36854
20
0.432756
11
1.36779
21
0.428989
0
LINE
8
BLACK
6
CONTINUOUS
10
1.36779
20
0.428989
11
1.36566
21
0.425796
0
LINE
8
BLACK
6
CONTINUOUS
10
1.36566
20
0.425796
11
1.36247
21
0.423663
0
LINE
8
BLACK
6
CONTINUOUS
10
1.36247
20
0.423663
11
1.3587
21
0.422913
0
LINE
8
BLACK
6
CONTINUOUS
10
1.3587
20
0.422913
11
1.3213
21
0.422913
0
LINE
8
BLACK
6
CONTINUOUS
10
1.3213
20
0.422913
11
1.31753
21
0.423663
0
LINE
8
BLACK
6
CONTINUOUS
10
1.31753
20
0.423663
11
1.31434
21
0.425796
0
LINE
8
BLACK
6
CONTINUOUS
10
1.31434
20
0.425796
11
1.31221
21
0.428989
0
LINE
8
BLACK
6
CONTINUOUS
10
1.31221
20
0.428989
11
1.31146
21
0.432756
0
LINE
8
BLACK
6
CONTINUOUS
10
1.31146
20
0.432756
11
1.31146
21
0.452441
0
LINE
8
BLACK
6
CONTINUOUS
10
1.31146
20
0.452441
11
1.31221
21
0.456208
0
LINE
8
BLACK
6
CONTINUOUS
10
1.31221
20
0.456208
11
1.31434
21
0.459401
0
LINE
8
BLACK
6
CONTINUOUS
10
1.31434
20
0.459401
11
1.31753
21
0.461534
0
LINE
8
BLACK
6
CONTINUOUS
10
1.31753
20
0.461534
11
1.3213
21
0.462283
0
LINE
8
BLACK
6
CONTINUOUS
10
1.3213
20
0.462283
11
1.3587
21
0.462283
0
LINE
8
BLACK
6
CONTINUOUS
10
1.3587
20
0.462283
11
1.36247
21
0.461534
0
LINE
8
BLACK
6
CONTINUOUS
10
0.752467
20
0.461534
11
0.755661
21
0.459401
0
LINE
8
BLACK
6
CONTINUOUS
10
0.755661
20
0.459401
11
0.757794
21
0.456208
0
LINE
8
BLACK
6
CONTINUOUS
10
0.757794
20
0.456208
11
0.758543
21
0.452441
0
LINE
8
BLACK
6
CONTINUOUS
10
0.758543
20
0.452441
11
0.758543
21
0.432756
0
LINE
8
BLACK
6
CONTINUOUS
10
0.758543
20
0.432756
11
0.757794
21
0.428989
0
LINE
8
BLACK
6
CONTINUOUS
10
0.757794
20
0.428989
11
0.755661
21
0.425796
0
LINE
8
BLACK
6
CONTINUOUS
10
0.755661
20
0.425796
11
0.752467
21
0.423663
0
LINE
8
BLACK
6
CONTINUOUS
10
0.752467
20
0.423663
11
0.748701
21
0.422913
0
LINE
8
BLACK
6
CONTINUOUS
10
0.748701
20
0.422913
11
0.711299
21
0.422913
0
LINE
8
BLACK
6
CONTINUOUS
10
0.711299
20
0.422913
11
0.707533
21
0.423663
0
LINE
8
BLACK
6
CONTINUOUS
10
0.707533
20
0.423663
11
0.704339
21
0.425796
0
LINE
8
BLACK
6
CONTINUOUS
10
0.704339
20
0.425796
11
0.702206
21
0.428989
0
LINE
8
BLACK
6
CONTINUOUS
10
0.702206
20
0.428989
11
0.701457
21
0.432756
0
LINE
8
BLACK
6
CONTINUOUS
10
0.701457
20
0.432756
11
0.701457
21
0.452441
0
LINE
8
BLACK
6
CONTINUOUS
10
0.701457
20
0.452441
11
0.702206
21
0.456208
0
LINE
8
BLACK
6
CONTINUOUS
10
0.702206
20
0.456208
11
0.704339
21
0.459401
0
LINE
8
BLACK
6
CONTINUOUS
10
0.704339
20
0.459401
11
0.707533
21
0.461534
0
LINE
8
BLACK
6
CONTINUOUS
10
0.707533
20
0.461534
11
0.711299
21
0.462283
0
LINE
8
BLACK
6
CONTINUOUS
10
0.711299
20
0.462283
11
0.748701
21
0.462283
0
LINE
8
BLACK
6
CONTINUOUS
10
0.748701
20
0.462283
11
0.752467
21
0.461534
0
LINE
8
BLACK
6
CONTINUOUS
10
1.01247
20
0.461534
11
1.01566
21
0.459401
0
LINE
8
BLACK
6
CONTINUOUS
10
1.01566
20
0.459401
11
1.01779
21
0.456208
0
LINE
8
BLACK
6
CONTINUOUS
10
1.01779
20
0.456208
11
1.01854
21
0.452441
0
LINE
8
BLACK
6
CONTINUOUS
10
1.01854
20
0.452441
11
1.01854
21
0.432756
0
LINE
8
BLACK
6
CONTINUOUS
10
1.01854
20
0.432756
11
1.01779
21
0.428989
0
LINE
8
BLACK
6
CONTINUOUS
10
1.01779
20
0.428989
11
1.01566
21
0.425796
0
LINE
8
BLACK
6
CONTINUOUS
10
1.01566
20
0.425796
11
1.01247
21
0.423663
0
LINE
8
BLACK
6
CONTINUOUS
10
1.01247
20
0.423663
11
1.0087
21
0.422913
0
LINE
8
BLACK
6
CONTINUOUS
10
1.0087
20
0.422913
11
0.971299
21
0.422913
0
LINE
8
BLACK
6
CONTINUOUS
10
0.971299
20
0.422913
11
0.967533
21
0.423663
0
LINE
8
BLACK
6
CONTINUOUS
10
0.967533
20
0.423663
11
0.964339
21
0.425796
0
LINE
8
BLACK
6
CONTINUOUS
10
0.964339
20
0.425796
11
0.962206
21
0.428989
0
LINE
8
BLACK
6
CONTINUOUS
10
0.962206
20
0.428989
11
0.961457
21
0.432756
0
LINE
8
BLACK
6
CONTINUOUS
10
0.961457
20
0.432756
11
0.961457
21
0.452441
0
LINE
8
BLACK
6
CONTINUOUS
10
0.961457
20
0.452441
11
0.962206
21
0.456208
0
LINE
8
BLACK
6
CONTINUOUS
10
0.962206
20
0.456208
11
0.964339
21
0.459401
0
LINE
8
BLACK
6
CONTINUOUS
10
0.964339
20
0.459401
11
0.967533
21
0.461534
0
LINE
8
BLACK
6
CONTINUOUS
10
0.967533
20
0.461534
11
0.971299
21
0.462283
0
LINE
8
BLACK
6
CONTINUOUS
10
0.971299
20
0.462283
11
1.0087
21
0.462283
0
LINE
8
BLACK
6
CONTINUOUS
10
1.0087
20
0.462283
11
1.01247
21
0.461534
0
LINE
8
BLACK
6
CONTINUOUS
10
0.242467
20
0.461534
11
0.245661
21
0.459401
0
LINE
8
BLACK
6
CONTINUOUS
10
0.245661
20
0.459401
11
0.247794
21
0.456208
0
LINE
8
BLACK
6
CONTINUOUS
10
0.247794
20
0.456208
11
0.248543
21
0.452441
0
LINE
8
BLACK
6
CONTINUOUS
10
0.248543
20
0.452441
11
0.248543
21
0.432756
0
LINE
8
BLACK
6
CONTINUOUS
10
0.248543
20
0.432756
11
0.247794
21
0.428989
0
LINE
8
BLACK
6
CONTINUOUS
10
0.247794
20
0.428989
11
0.245661
21
0.425796
0
LINE
8
BLACK
6
CONTINUOUS
10
0.245661
20
0.425796
11
0.242467
21
0.423663
0
LINE
8
BLACK
6
CONTINUOUS
10
0.242467
20
0.423663
11
0.238701
21
0.422913
0
LINE
8
BLACK
6
CONTINUOUS
10
0.238701
20
0.422913
11
0.201299
21
0.422913
0
LINE
8
BLACK
6
CONTINUOUS
10
0.201299
20
0.422913
11
0.197533
21
0.423663
0
LINE
8
BLACK
6
CONTINUOUS
10
0.197533
20
0.423663
11
0.194339
21
0.425796
0
LINE
8
BLACK
6
CONTINUOUS
10
0.194339
20
0.425796
11
0.192206
21
0.428989
0
LINE
8
BLACK
6
CONTINUOUS
10
0.192206
20
0.428989
11
0.191457
21
0.432756
0
LINE
8
BLACK
6
CONTINUOUS
10
0.191457
20
0.432756
11
0.191457
21
0.452441
0
LINE
8
BLACK
6
CONTINUOUS
10
0.191457
20
0.452441
11
0.192206
21
0.456208
0
LINE
8
BLACK
6
CONTINUOUS
10
0.192206
20
0.456208
11
0.194339
21
0.459401
0
LINE
8
BLACK
6
CONTINUOUS
10
0.194339
20
0.459401
11
0.197533
21
0.461534
0
LINE
8
BLACK
6
CONTINUOUS
10
0.197533
20
0.461534
11
0.201299
21
0.462283
0
LINE
8
BLACK
6
CONTINUOUS
10
0.201299
20
0.462283
11
0.238701
21
0.462283
0
LINE
8
BLACK
6
CONTINUOUS
10
0.238701
20
0.462283
11
0.242467
21
0.461534
0
LINE
8
BLACK
6
CONTINUOUS
10
1.46247
20
0.461534
11
1.46566
21
0.459401
0
LINE
8
BLACK
6
CONTINUOUS
10
1.46566
20
0.459401
11
1.46779
21
0.456208
0
LINE
8
BLACK
6
CONTINUOUS
10
1.46779
20
0.456208
11
1.46854
21
0.452441
0
LINE
8
BLACK
6
CONTINUOUS
10
1.46854
20
0.452441
11
1.46854
21
0.432756
0
LINE
8
BLACK
6
CONTINUOUS
10
1.46854
20
0.432756
11
1.46779
21
0.428989
0
LINE
8
BLACK
6
CONTINUOUS
10
1.46779
20
0.428989
11
1.46566
21
0.425796
0
LINE
8
BLACK
6
CONTINUOUS
10
1.46566
20
0.425796
11
1.46247
21
0.423663
0
LINE
8
BLACK
6
CONTINUOUS
10
1.46247
20
0.423663
11
1.4587
21
0.422913
0
LINE
8
BLACK
6
CONTINUOUS
10
1.4587
20
0.422913
11
1.4213
21
0.422913
0
LINE
8
BLACK
6
CONTINUOUS
10
1.4213
20
0.422913
11
1.41753
21
0.423663
0
LINE
8
BLACK
6
CONTINUOUS
10
1.41753
20
0.423663
11
1.41434
21
0.425796
0
LINE
8
BLACK
6
CONTINUOUS
10
1.41434
20
0.425796
11
1.41221
21
0.428989
0
LINE
8
BLACK
6
CONTINUOUS
10
1.41221
20
0.428989
11
1.41146
21
0.432756
0
LINE
8
BLACK
6
CONTINUOUS
10
1.41146
20
0.432756
11
1.41146
21
0.452441
0
LINE
8
BLACK
6
CONTINUOUS
10
1.41146
20
0.452441
11
1.41221
21
0.456208
0
LINE
8
BLACK
6
CONTINUOUS
10
1.41221
20
0.456208
11
1.41434
21
0.459401
0
LINE
8
BLACK
6
CONTINUOUS
10
1.41434
20
0.459401
11
1.41753
21
0.461534
0
LINE
8
BLACK
6
CONTINUOUS
10
1.41753
20
0.461534
11
1.4213
21
0.462283
0
LINE
8
BLACK
6
CONTINUOUS
10
1.4213
20
0.462283
11
1.4587
21
0.462283
0
LINE
8
BLACK
6
CONTINUOUS
10
1.4587
20
0.462283
11
1.46247
21
0.461534
0
LINE
8
BLACK
6
CONTINUOUS
10
0.142467
20
0.461534
11
0.145661
21
0.459401
0
LINE
8
BLACK
6
CONTINUOUS
10
0.145661
20
0.459401
11
0.147794
21
0.456208
0
LINE
8
BLACK
6
CONTINUOUS
10
0.147794
20
0.456208
11
0.148543
21
0.452441
0
LINE
8
BLACK
6
CONTINUOUS
10
0.148543
20
0.452441
11
0.148543
21
0.432756
0
LINE
8
BLACK
6
CONTINUOUS
10
0.148543
20
0.432756
11
0.147794
21
0.428989
0
LINE
8
BLACK
6
CONTINUOUS
10
0.147794
20
0.428989
11
0.145661
21
0.425796
0
LINE
8
BLACK
6
CONTINUOUS
10
0.145661
20
0.425796
11
0.142467
21
0.423663
0
LINE
8
BLACK
6
CONTINUOUS
10
0.142467
20
0.423663
11
0.138701
21
0.422913
0
LINE
8
BLACK
6
CONTINUOUS
10
0.138701
20
0.422913
11
0.101299
21
0.422913
0
LINE
8
BLACK
6
CONTINUOUS
10
0.101299
20
0.422913
11
0.0975326
21
0.423663
0
LINE
8
BLACK
6
CONTINUOUS
10
0.0975326
20
0.423663
11
0.0943395
21
0.425796
0
LINE
8
BLACK
6
CONTINUOUS
10
0.0943395
20
0.425796
11
0.0922059
21
0.428989
0
LINE
8
BLACK
6
CONTINUOUS
10
0.0922059
20
0.428989
11
0.0914567
21
0.432756
0
LINE
8
BLACK
6
CONTINUOUS
10
0.0914567
20
0.432756
11
0.0914567
21
0.452441
0
LINE
8
BLACK
6
CONTINUOUS
10
0.0914567
20
0.452441
11
0.0922059
21
0.456208
0
LINE
8
BLACK
6
CONTINUOUS
10
0.0922059
20
0.456208
11
0.0943395
21
0.459401
0
LINE
8
BLACK
6
CONTINUOUS
10
0.0943395
20
0.459401
11
0.0975326
21
0.461534
0
LINE
8
BLACK
6
CONTINUOUS
10
0.0975326
20
0.461534
11
0.101299
21
0.462283
0
LINE
8
BLACK
6
CONTINUOUS
10
0.101299
20
0.462283
11
0.138701
21
0.462283
0
LINE
8
BLACK
6
CONTINUOUS
10
0.138701
20
0.462283
11
0.142467
21
0.461534
0
LINE
8
BLACK
6
CONTINUOUS
10
0.502467
20
0.461534
11
0.505661
21
0.459401
0
LINE
8
BLACK
6
CONTINUOUS
10
0.505661
20
0.459401
11
0.507794
21
0.456208
0
LINE
8
BLACK
6
CONTINUOUS
10
0.507794
20
0.456208
11
0.508543
21
0.452441
0
LINE
8
BLACK
6
CONTINUOUS
10
0.508543
20
0.452441
11
0.508543
21
0.432756
0
LINE
8
BLACK
6
CONTINUOUS
10
0.508543
20
0.432756
11
0.507794
21
0.428989
0
LINE
8
BLACK
6
CONTINUOUS
10
0.507794
20
0.428989
11
0.505661
21
0.425796
0
LINE
8
BLACK
6
CONTINUOUS
10
0.505661
20
0.425796
11
0.502467
21
0.423663
0
LINE
8
BLACK
6
CONTINUOUS
10
0.502467
20
0.423663
11
0.498701
21
0.422913
0
LINE
8
BLACK
6
CONTINUOUS
10
0.498701
20
0.422913
11
0.461299
21
0.422913
0
LINE
8
BLACK
6
CONTINUOUS
10
0.461299
20
0.422913
11
0.457533
21
0.423663
0
LINE
8
BLACK
6
CONTINUOUS
10
0.457533
20
0.423663
11
0.454339
21
0.425796
0
LINE
8
BLACK
6
CONTINUOUS
10
0.454339
20
0.425796
11
0.452206
21
0.428989
0
LINE
8
BLACK
6
CONTINUOUS
10
0.452206
20
0.428989
11
0.451457
21
0.432756
0
LINE
8
BLACK
6
CONTINUOUS
10
0.451457
20
0.432756
11
0.451457
21
0.452441
0
LINE
8
BLACK
6
CONTINUOUS
10
0.451457
20
0.452441
11
0.452206
21
0.456208
0
LINE
8
BLACK
6
CONTINUOUS
10
0.452206
20
0.456208
11
0.454339
21
0.459401
0
LINE
8
BLACK
6
CONTINUOUS
10
0.454339
20
0.459401
11
0.457533
21
0.461534
0
LINE
8
BLACK
6
CONTINUOUS
10
0.457533
20
0.461534
11
0.461299
21
0.462283
0
LINE
8
BLACK
6
CONTINUOUS
10
0.461299
20
0.462283
11
0.498701
21
0.462283
0
LINE
8
BLACK
6
CONTINUOUS
10
0.498701
20
0.462283
11
0.502467
21
0.461534
0
LINE
8
BLACK
6
CONTINUOUS
10
2.07148
20
0.463503
11
2.07468
21
0.461369
0
LINE
8
BLACK
6
CONTINUOUS
10
2.07468
20
0.461369
11
2.07681
21
0.458176
0
LINE
8
BLACK
6
CONTINUOUS
10
2.07681
20
0.458176
11
2.07756
21
0.454409
0
LINE
8
BLACK
6
CONTINUOUS
10
2.07756
20
0.454409
11
2.07756
21
0.43374
0
LINE
8
BLACK
6
CONTINUOUS
10
2.07756
20
0.43374
11
2.07681
21
0.429974
0
LINE
8
BLACK
6
CONTINUOUS
10
2.07681
20
0.429974
11
2.07468
21
0.42678
0
LINE
8
BLACK
6
CONTINUOUS
10
2.07468
20
0.42678
11
2.07148
21
0.424647
0
LINE
8
BLACK
6
CONTINUOUS
10
2.07148
20
0.424647
11
2.06772
21
0.423898
0
LINE
8
BLACK
6
CONTINUOUS
10
2.06772
20
0.423898
11
2.03228
21
0.423898
0
LINE
8
BLACK
6
CONTINUOUS
10
2.03228
20
0.423898
11
2.02852
21
0.424647
0
LINE
8
BLACK
6
CONTINUOUS
10
2.02852
20
0.424647
11
2.02532
21
0.42678
0
LINE
8
BLACK
6
CONTINUOUS
10
2.02532
20
0.42678
11
2.02319
21
0.429974
0
LINE
8
BLACK
6
CONTINUOUS
10
2.02319
20
0.429974
11
2.02244
21
0.43374
0
LINE
8
BLACK
6
CONTINUOUS
10
2.02244
20
0.43374
11
2.02244
21
0.454409
0
LINE
8
BLACK
6
CONTINUOUS
10
2.02244
20
0.454409
11
2.02319
21
0.458176
0
LINE
8
BLACK
6
CONTINUOUS
10
2.02319
20
0.458176
11
2.02532
21
0.461369
0
LINE
8
BLACK
6
CONTINUOUS
10
2.02532
20
0.461369
11
2.02852
21
0.463503
0
LINE
8
BLACK
6
CONTINUOUS
10
2.02852
20
0.463503
11
2.03228
21
0.464252
0
LINE
8
BLACK
6
CONTINUOUS
10
2.03228
20
0.464252
11
2.06772
21
0.464252
0
LINE
8
BLACK
6
CONTINUOUS
10
2.06772
20
0.464252
11
2.07148
21
0.463503
0
LINE
8
BLACK
6
CONTINUOUS
10
1.96386
20
0.429803
11
1.90244
21
0.429803
0
LINE
8
BLACK
6
CONTINUOUS
10
1.90244
20
0.429803
11
1.90244
21
0.455394
0
LINE
8
BLACK
6
CONTINUOUS
10
1.90244
20
0.455394
11
1.96386
21
0.455394
0
LINE
8
BLACK
6
CONTINUOUS
10
1.96386
20
0.455394
11
1.96386
21
0.429803
0
LINE
8
BLACK
6
CONTINUOUS
10
1.85756
20
0.429803
11
1.79614
21
0.429803
0
LINE
8
BLACK
6
CONTINUOUS
10
1.79614
20
0.429803
11
1.79614
21
0.455394
0
LINE
8
BLACK
6
CONTINUOUS
10
1.79614
20
0.455394
11
1.85756
21
0.455394
0
LINE
8
BLACK
6
CONTINUOUS
10
1.85756
20
0.455394
11
1.85756
21
0.429803
0
LINE
8
BLACK
6
CONTINUOUS
10
1.54425
20
0.45622
11
1.52063
21
0.45622
0
LINE
8
BLACK
6
CONTINUOUS
10
1.52063
20
0.45622
11
1.52063
21
0.48378
0
LINE
8
BLACK
6
CONTINUOUS
10
1.52063
20
0.48378
11
1.54425
21
0.48378
0
LINE
8
BLACK
6
CONTINUOUS
10
1.54425
20
0.48378
11
1.54425
21
0.45622
0
LINE
8
BLACK
6
CONTINUOUS
10
1.59937
20
0.45622
11
1.57575
21
0.45622
0
LINE
8
BLACK
6
CONTINUOUS
10
1.57575
20
0.45622
11
1.57575
21
0.48378
0
LINE
8
BLACK
6
CONTINUOUS
10
1.57575
20
0.48378
11
1.59937
21
0.48378
0
LINE
8
BLACK
6
CONTINUOUS
10
1.59937
20
0.48378
11
1.59937
21
0.45622
0
LINE
8
BLACK
6
CONTINUOUS
10
1.85756
20
0.467205
11
1.79614
21
0.467205
0
LINE
8
BLACK
6
CONTINUOUS
10
1.79614
20
0.467205
11
1.79614
21
0.492795
0
LINE
8
BLACK
6
CONTINUOUS
10
1.79614
20
0.492795
11
1.85756
21
0.492795
0
LINE
8
BLACK
6
CONTINUOUS
10
1.85756
20
0.492795
11
1.85756
21
0.467205
0
LINE
8
BLACK
6
CONTINUOUS
10
1.96386
20
0.467205
11
1.90244
21
0.467205
0
LINE
8
BLACK
6
CONTINUOUS
10
1.90244
20
0.467205
11
1.90244
21
0.492795
0
LINE
8
BLACK
6
CONTINUOUS
10
1.90244
20
0.492795
11
1.96386
21
0.492795
0
LINE
8
BLACK
6
CONTINUOUS
10
1.96386
20
0.492795
11
1.96386
21
0.467205
0
LINE
8
BLACK
6
CONTINUOUS
10
1.74609
20
0.535865
11
1.74928
21
0.533731
0
LINE
8
BLACK
6
CONTINUOUS
10
1.74928
20
0.533731
11
1.75142
21
0.530538
0
LINE
8
BLACK
6
CONTINUOUS
10
1.75142
20
0.530538
11
1.75217
21
0.526772
0
LINE
8
BLACK
6
CONTINUOUS
10
1.75217
20
0.526772
11
1.75217
21
0.490354
0
LINE
8
BLACK
6
CONTINUOUS
10
1.75217
20
0.490354
11
1.75142
21
0.486588
0
LINE
8
BLACK
6
CONTINUOUS
10
1.75142
20
0.486588
11
1.74928
21
0.483395
0
LINE
8
BLACK
6
CONTINUOUS
10
1.74928
20
0.483395
11
1.74609
21
0.481261
0
LINE
8
BLACK
6
CONTINUOUS
10
1.74609
20
0.481261
11
1.74232
21
0.480512
0
LINE
8
BLACK
6
CONTINUOUS
10
1.74232
20
0.480512
11
1.65768
21
0.480512
0
LINE
8
BLACK
6
CONTINUOUS
10
1.65768
20
0.480512
11
1.65391
21
0.481261
0
LINE
8
BLACK
6
CONTINUOUS
10
1.65391
20
0.481261
11
1.65072
21
0.483395
0
LINE
8
BLACK
6
CONTINUOUS
10
1.65072
20
0.483395
11
1.64858
21
0.486588
0
LINE
8
BLACK
6
CONTINUOUS
10
1.64858
20
0.486588
11
1.64783
21
0.490354
0
LINE
8
BLACK
6
CONTINUOUS
10
1.64783
20
0.490354
11
1.64783
21
0.526772
0
LINE
8
BLACK
6
CONTINUOUS
10
1.64783
20
0.526772
11
1.64858
21
0.530538
0
LINE
8
BLACK
6
CONTINUOUS
10
1.64858
20
0.530538
11
1.65072
21
0.533731
0
LINE
8
BLACK
6
CONTINUOUS
10
1.65072
20
0.533731
11
1.65391
21
0.535865
0
LINE
8
BLACK
6
CONTINUOUS
10
1.65391
20
0.535865
11
1.65768
21
0.536614
0
LINE
8
BLACK
6
CONTINUOUS
10
1.65768
20
0.536614
11
1.74232
21
0.536614
0
LINE
8
BLACK
6
CONTINUOUS
10
1.74232
20
0.536614
11
1.74609
21
0.535865
0
LINE
8
BLACK
6
CONTINUOUS
10
2.07148
20
0.535353
11
2.07468
21
0.53322
0
LINE
8
BLACK
6
CONTINUOUS
10
2.07468
20
0.53322
11
2.07681
21
0.530026
0
LINE
8
BLACK
6
CONTINUOUS
10
2.07681
20
0.530026
11
2.07756
21
0.52626
0
LINE
8
BLACK
6
CONTINUOUS
10
2.07756
20
0.52626
11
2.07756
21
0.505591
0
LINE
8
BLACK
6
CONTINUOUS
10
2.07756
20
0.505591
11
2.07681
21
0.501824
0
LINE
8
BLACK
6
CONTINUOUS
10
2.07681
20
0.501824
11
2.07468
21
0.498631
0
LINE
8
BLACK
6
CONTINUOUS
10
2.07468
20
0.498631
11
2.07148
21
0.496497
0
LINE
8
BLACK
6
CONTINUOUS
10
2.07148
20
0.496497
11
2.06772
21
0.495748
0
LINE
8
BLACK
6
CONTINUOUS
10
2.06772
20
0.495748
11
2.03228
21
0.495748
0
LINE
8
BLACK
6
CONTINUOUS
10
2.03228
20
0.495748
11
2.02852
21
0.496497
0
LINE
8
BLACK
6
CONTINUOUS
10
2.02852
20
0.496497
11
2.02532
21
0.498631
0
LINE
8
BLACK
6
CONTINUOUS
10
2.02532
20
0.498631
11
2.02319
21
0.501824
0
LINE
8
BLACK
6
CONTINUOUS
10
2.02319
20
0.501824
11
2.02244
21
0.505591
0
LINE
8
BLACK
6
CONTINUOUS
10
2.02244
20
0.505591
11
2.02244
21
0.52626
0
LINE
8
BLACK
6
CONTINUOUS
10
2.02244
20
0.52626
11
2.02319
21
0.530026
0
LINE
8
BLACK
6
CONTINUOUS
10
2.02319
20
0.530026
11
2.02532
21
0.53322
0
LINE
8
BLACK
6
CONTINUOUS
10
2.02532
20
0.53322
11
2.02852
21
0.535353
0
LINE
8
BLACK
6
CONTINUOUS
10
2.02852
20
0.535353
11
2.03228
21
0.536102
0
LINE
8
BLACK
6
CONTINUOUS
10
2.03228
20
0.536102
11
2.06772
21
0.536102
0
LINE
8
BLACK
6
CONTINUOUS
10
2.06772
20
0.536102
11
2.07148
21
0.535353
0
LINE
8
BLACK
6
CONTINUOUS
10
0.502467
20
0.536337
11
0.505661
21
0.534204
0
LINE
8
BLACK
6
CONTINUOUS
10
0.505661
20
0.534204
11
0.507794
21
0.531011
0
LINE
8
BLACK
6
CONTINUOUS
10
0.507794
20
0.531011
11
0.508543
21
0.527244
0
LINE
8
BLACK
6
CONTINUOUS
10
0.508543
20
0.527244
11
0.508543
21
0.507559
0
LINE
8
BLACK
6
CONTINUOUS
10
0.508543
20
0.507559
11
0.507794
21
0.503792
0
LINE
8
BLACK
6
CONTINUOUS
10
0.507794
20
0.503792
11
0.505661
21
0.500599
0
LINE
8
BLACK
6
CONTINUOUS
10
0.505661
20
0.500599
11
0.502467
21
0.498466
0
LINE
8
BLACK
6
CONTINUOUS
10
0.502467
20
0.498466
11
0.498701
21
0.497717
0
LINE
8
BLACK
6
CONTINUOUS
10
0.498701
20
0.497717
11
0.461299
21
0.497717
0
LINE
8
BLACK
6
CONTINUOUS
10
0.461299
20
0.497717
11
0.457533
21
0.498466
0
LINE
8
BLACK
6
CONTINUOUS
10
0.457533
20
0.498466
11
0.454339
21
0.500599
0
LINE
8
BLACK
6
CONTINUOUS
10
0.454339
20
0.500599
11
0.452206
21
0.503792
0
LINE
8
BLACK
6
CONTINUOUS
10
0.452206
20
0.503792
11
0.451457
21
0.507559
0
LINE
8
BLACK
6
CONTINUOUS
10
0.451457
20
0.507559
11
0.451457
21
0.527244
0
LINE
8
BLACK
6
CONTINUOUS
10
0.451457
20
0.527244
11
0.452206
21
0.531011
0
LINE
8
BLACK
6
CONTINUOUS
10
0.452206
20
0.531011
11
0.454339
21
0.534204
0
LINE
8
BLACK
6
CONTINUOUS
10
0.454339
20
0.534204
11
0.457533
21
0.536337
0
LINE
8
BLACK
6
CONTINUOUS
10
0.457533
20
0.536337
11
0.461299
21
0.537087
0
LINE
8
BLACK
6
CONTINUOUS
10
0.461299
20
0.537087
11
0.498701
21
0.537087
0
LINE
8
BLACK
6
CONTINUOUS
10
0.498701
20
0.537087
11
0.502467
21
0.536337
0
LINE
8
BLACK
6
CONTINUOUS
10
0.142467
20
0.536337
11
0.145661
21
0.534204
0
LINE
8
BLACK
6
CONTINUOUS
10
0.145661
20
0.534204
11
0.147794
21
0.531011
0
LINE
8
BLACK
6
CONTINUOUS
10
0.147794
20
0.531011
11
0.148543
21
0.527244
0
LINE
8
BLACK
6
CONTINUOUS
10
0.148543
20
0.527244
11
0.148543
21
0.507559
0
LINE
8
BLACK
6
CONTINUOUS
10
0.148543
20
0.507559
11
0.147794
21
0.503792
0
LINE
8
BLACK
6
CONTINUOUS
10
0.147794
20
0.503792
11
0.145661
21
0.500599
0
LINE
8
BLACK
6
CONTINUOUS
10
0.145661
20
0.500599
11
0.142467
21
0.498466
0
LINE
8
BLACK
6
CONTINUOUS
10
0.142467
20
0.498466
11
0.138701
21
0.497717
0
LINE
8
BLACK
6
CONTINUOUS
10
0.138701
20
0.497717
11
0.101299
21
0.497717
0
LINE
8
BLACK
6
CONTINUOUS
10
0.101299
20
0.497717
11
0.0975326
21
0.498466
0
LINE
8
BLACK
6
CONTINUOUS
10
0.0975326
20
0.498466
11
0.0943395
21
0.500599
0
LINE
8
BLACK
6
CONTINUOUS
10
0.0943395
20
0.500599
11
0.0922059
21
0.503792
0
LINE
8
BLACK
6
CONTINUOUS
10
0.0922059
20
0.503792
11
0.0914567
21
0.507559
0
LINE
8
BLACK
6
CONTINUOUS
10
0.0914567
20
0.507559
11
0.0914567
21
0.527244
0
LINE
8
BLACK
6
CONTINUOUS
10
0.0914567
20
0.527244
11
0.0922059
21
0.531011
0
LINE
8
BLACK
6
CONTINUOUS
10
0.0922059
20
0.531011
11
0.0943395
21
0.534204
0
LINE
8
BLACK
6
CONTINUOUS
10
0.0943395
20
0.534204
11
0.0975326
21
0.536337
0
LINE
8
BLACK
6
CONTINUOUS
10
0.0975326
20
0.536337
11
0.101299
21
0.537087
0
LINE
8
BLACK
6
CONTINUOUS
10
0.101299
20
0.537087
11
0.138701
21
0.537087
0
LINE
8
BLACK
6
CONTINUOUS
10
0.138701
20
0.537087
11
0.142467
21
0.536337
0
LINE
8
BLACK
6
CONTINUOUS
10
0.242467
20
0.536337
11
0.245661
21
0.534204
0
LINE
8
BLACK
6
CONTINUOUS
10
0.245661
20
0.534204
11
0.247794
21
0.531011
0
LINE
8
BLACK
6
CONTINUOUS
10
0.247794
20
0.531011
11
0.248543
21
0.527244
0
LINE
8
BLACK
6
CONTINUOUS
10
0.248543
20
0.527244
11
0.248543
21
0.507559
0
LINE
8
BLACK
6
CONTINUOUS
10
0.248543
20
0.507559
11
0.247794
21
0.503792
0
LINE
8
BLACK
6
CONTINUOUS
10
0.247794
20
0.503792
11
0.245661
21
0.500599
0
LINE
8
BLACK
6
CONTINUOUS
10
0.245661
20
0.500599
11
0.242467
21
0.498466
0
LINE
8
BLACK
6
CONTINUOUS
10
0.242467
20
0.498466
11
0.238701
21
0.497717
0
LINE
8
BLACK
6
CONTINUOUS
10
0.238701
20
0.497717
11
0.201299
21
0.497717
0
LINE
8
BLACK
6
CONTINUOUS
10
0.201299
20
0.497717
11
0.197533
21
0.498466
0
LINE
8
BLACK
6
CONTINUOUS
10
0.197533
20
0.498466
11
0.194339
21
0.500599
0
LINE
8
BLACK
6
CONTINUOUS
10
0.194339
20
0.500599
11
0.192206
21
0.503792
0
LINE
8
BLACK
6
CONTINUOUS
10
0.192206
20
0.503792
11
0.191457
21
0.507559
0
LINE
8
BLACK
6
CONTINUOUS
10
0.191457
20
0.507559
11
0.191457
21
0.527244
0
LINE
8
BLACK
6
CONTINUOUS
10
0.191457
20
0.527244
11
0.192206
21
0.531011
0
LINE
8
BLACK
6
CONTINUOUS
10
0.192206
20
0.531011
11
0.194339
21
0.534204
0
LINE
8
BLACK
6
CONTINUOUS
10
0.194339
20
0.534204
11
0.197533
21
0.536337
0
LINE
8
BLACK
6
CONTINUOUS
10
0.197533
20
0.536337
11
0.201299
21
0.537087
0
LINE
8
BLACK
6
CONTINUOUS
10
0.201299
20
0.537087
11
0.238701
21
0.537087
0
LINE
8
BLACK
6
CONTINUOUS
10
0.238701
20
0.537087
11
0.242467
21
0.536337
0
LINE
8
BLACK
6
CONTINUOUS
10
1.46247
20
0.536337
11
1.46566
21
0.534204
0
LINE
8
BLACK
6
CONTINUOUS
10
1.46566
20
0.534204
11
1.46779
21
0.531011
0
LINE
8
BLACK
6
CONTINUOUS
10
1.46779
20
0.531011
11
1.46854
21
0.527244
0
LINE
8
BLACK
6
CONTINUOUS
10
1.46854
20
0.527244
11
1.46854
21
0.507559
0
LINE
8
BLACK
6
CONTINUOUS
10
1.46854
20
0.507559
11
1.46779
21
0.503792
0
LINE
8
BLACK
6
CONTINUOUS
10
1.46779
20
0.503792
11
1.46566
21
0.500599
0
LINE
8
BLACK
6
CONTINUOUS
10
1.46566
20
0.500599
11
1.46247
21
0.498466
0
LINE
8
BLACK
6
CONTINUOUS
10
1.46247
20
0.498466
11
1.4587
21
0.497717
0
LINE
8
BLACK
6
CONTINUOUS
10
1.4587
20
0.497717
11
1.4213
21
0.497717
0
LINE
8
BLACK
6
CONTINUOUS
10
1.4213
20
0.497717
11
1.41753
21
0.498466
0
LINE
8
BLACK
6
CONTINUOUS
10
1.41753
20
0.498466
11
1.41434
21
0.500599
0
LINE
8
BLACK
6
CONTINUOUS
10
1.41434
20
0.500599
11
1.41221
21
0.503792
0
LINE
8
BLACK
6
CONTINUOUS
10
1.41221
20
0.503792
11
1.41146
21
0.507559
0
LINE
8
BLACK
6
CONTINUOUS
10
1.41146
20
0.507559
11
1.41146
21
0.527244
0
LINE
8
BLACK
6
CONTINUOUS
10
1.41146
20
0.527244
11
1.41221
21
0.531011
0
LINE
8
BLACK
6
CONTINUOUS
10
1.41221
20
0.531011
11
1.41434
21
0.534204
0
LINE
8
BLACK
6
CONTINUOUS
10
1.41434
20
0.534204
11
1.41753
21
0.536337
0
LINE
8
BLACK
6
CONTINUOUS
10
1.41753
20
0.536337
11
1.4213
21
0.537087
0
LINE
8
BLACK
6
CONTINUOUS
10
1.4213
20
0.537087
11
1.4587
21
0.537087
0
LINE
8
BLACK
6
CONTINUOUS
10
1.4587
20
0.537087
11
1.46247
21
0.536337
0
LINE
8
BLACK
6
CONTINUOUS
10
1.01247
20
0.536337
11
1.01566
21
0.534204
0
LINE
8
BLACK
6
CONTINUOUS
10
1.01566
20
0.534204
11
1.01779
21
0.531011
0
LINE
8
BLACK
6
CONTINUOUS
10
1.01779
20
0.531011
11
1.01854
21
0.527244
0
LINE
8
BLACK
6
CONTINUOUS
10
1.01854
20
0.527244
11
1.01854
21
0.507559
0
LINE
8
BLACK
6
CONTINUOUS
10
1.01854
20
0.507559
11
1.01779
21
0.503792
0
LINE
8
BLACK
6
CONTINUOUS
10
1.01779
20
0.503792
11
1.01566
21
0.500599
0
LINE
8
BLACK
6
CONTINUOUS
10
1.01566
20
0.500599
11
1.01247
21
0.498466
0
LINE
8
BLACK
6
CONTINUOUS
10
1.01247
20
0.498466
11
1.0087
21
0.497717
0
LINE
8
BLACK
6
CONTINUOUS
10
1.0087
20
0.497717
11
0.971299
21
0.497717
0
LINE
8
BLACK
6
CONTINUOUS
10
0.971299
20
0.497717
11
0.967533
21
0.498466
0
LINE
8
BLACK
6
CONTINUOUS
10
0.967533
20
0.498466
11
0.964339
21
0.500599
0
LINE
8
BLACK
6
CONTINUOUS
10
0.964339
20
0.500599
11
0.962206
21
0.503792
0
LINE
8
BLACK
6
CONTINUOUS
10
0.962206
20
0.503792
11
0.961457
21
0.507559
0
LINE
8
BLACK
6
CONTINUOUS
10
0.961457
20
0.507559
11
0.961457
21
0.527244
0
LINE
8
BLACK
6
CONTINUOUS
10
0.961457
20
0.527244
11
0.962206
21
0.531011
0
LINE
8
BLACK
6
CONTINUOUS
10
0.962206
20
0.531011
11
0.964339
21
0.534204
0
LINE
8
BLACK
6
CONTINUOUS
10
0.964339
20
0.534204
11
0.967533
21
0.536337
0
LINE
8
BLACK
6
CONTINUOUS
10
0.967533
20
0.536337
11
0.971299
21
0.537087
0
LINE
8
BLACK
6
CONTINUOUS
10
0.971299
20
0.537087
11
1.0087
21
0.537087
0
LINE
8
BLACK
6
CONTINUOUS
10
1.0087
20
0.537087
11
1.01247
21
0.536337
0
LINE
8
BLACK
6
CONTINUOUS
10
0.752467
20
0.536337
11
0.755661
21
0.534204
0
LINE
8
BLACK
6
CONTINUOUS
10
0.755661
20
0.534204
11
0.757794
21
0.531011
0
LINE
8
BLACK
6
CONTINUOUS
10
0.757794
20
0.531011
11
0.758543
21
0.527244
0
LINE
8
BLACK
6
CONTINUOUS
10
0.758543
20
0.527244
11
0.758543
21
0.507559
0
LINE
8
BLACK
6
CONTINUOUS
10
0.758543
20
0.507559
11
0.757794
21
0.503792
0
LINE
8
BLACK
6
CONTINUOUS
10
0.757794
20
0.503792
11
0.755661
21
0.500599
0
LINE
8
BLACK
6
CONTINUOUS
10
0.755661
20
0.500599
11
0.752467
21
0.498466
0
LINE
8
BLACK
6
CONTINUOUS
10
0.752467
20
0.498466
11
0.748701
21
0.497717
0
LINE
8
BLACK
6
CONTINUOUS
10
0.748701
20
0.497717
11
0.711299
21
0.497717
0
LINE
8
BLACK
6
CONTINUOUS
10
0.711299
20
0.497717
11
0.707533
21
0.498466
0
LINE
8
BLACK
6
CONTINUOUS
10
0.707533
20
0.498466
11
0.704339
21
0.500599
0
LINE
8
BLACK
6
CONTINUOUS
10
0.704339
20
0.500599
11
0.702206
21
0.503792
0
LINE
8
BLACK
6
CONTINUOUS
10
0.702206
20
0.503792
11
0.701457
21
0.507559
0
LINE
8
BLACK
6
CONTINUOUS
10
0.701457
20
0.507559
11
0.701457
21
0.527244
0
LINE
8
BLACK
6
CONTINUOUS
10
0.701457
20
0.527244
11
0.702206
21
0.531011
0
LINE
8
BLACK
6
CONTINUOUS
10
0.702206
20
0.531011
11
0.704339
21
0.534204
0
LINE
8
BLACK
6
CONTINUOUS
10
0.704339
20
0.534204
11
0.707533
21
0.536337
0
LINE
8
BLACK
6
CONTINUOUS
10
0.707533
20
0.536337
11
0.711299
21
0.537087
0
LINE
8
BLACK
6
CONTINUOUS
10
0.711299
20
0.537087
11
0.748701
21
0.537087
0
LINE
8
BLACK
6
CONTINUOUS
10
0.748701
20
0.537087
11
0.752467
21
0.536337
0
LINE
8
BLACK
6
CONTINUOUS
10
1.12247
20
0.536337
11
1.12566
21
0.534204
0
LINE
8
BLACK
6
CONTINUOUS
10
1.12566
20
0.534204
11
1.12779
21
0.531011
0
LINE
8
BLACK
6
CONTINUOUS
10
1.12779
20
0.531011
11
1.12854
21
0.527244
0
LINE
8
BLACK
6
CONTINUOUS
10
1.12854
20
0.527244
11
1.12854
21
0.507559
0
LINE
8
BLACK
6
CONTINUOUS
10
1.12854
20
0.507559
11
1.12779
21
0.503792
0
LINE
8
BLACK
6
CONTINUOUS
10
1.12779
20
0.503792
11
1.12566
21
0.500599
0
LINE
8
BLACK
6
CONTINUOUS
10
1.12566
20
0.500599
11
1.12247
21
0.498466
0
LINE
8
BLACK
6
CONTINUOUS
10
1.12247
20
0.498466
11
1.1187
21
0.497717
0
LINE
8
BLACK
6
CONTINUOUS
10
1.1187
20
0.497717
11
1.0813
21
0.497717
0
LINE
8
BLACK
6
CONTINUOUS
10
1.0813
20
0.497717
11
1.07753
21
0.498466
0
LINE
8
BLACK
6
CONTINUOUS
10
1.07753
20
0.498466
11
1.07434
21
0.500599
0
LINE
8
BLACK
6
CONTINUOUS
10
1.07434
20
0.500599
11
1.07221
21
0.503792
0
LINE
8
BLACK
6
CONTINUOUS
10
1.07221
20
0.503792
11
1.07146
21
0.507559
0
LINE
8
BLACK
6
CONTINUOUS
10
1.07146
20
0.507559
11
1.07146
21
0.527244
0
LINE
8
BLACK
6
CONTINUOUS
10
1.07146
20
0.527244
11
1.07221
21
0.531011
0
LINE
8
BLACK
6
CONTINUOUS
10
1.07221
20
0.531011
11
1.07434
21
0.534204
0
LINE
8
BLACK
6
CONTINUOUS
10
1.07434
20
0.534204
11
1.07753
21
0.536337
0
LINE
8
BLACK
6
CONTINUOUS
10
1.07753
20
0.536337
11
1.0813
21
0.537087
0
LINE
8
BLACK
6
CONTINUOUS
10
1.0813
20
0.537087
11
1.1187
21
0.537087
0
LINE
8
BLACK
6
CONTINUOUS
10
1.1187
20
0.537087
11
1.12247
21
0.536337
0
LINE
8
BLACK
6
CONTINUOUS
10
1.36247
20
0.536337
11
1.36566
21
0.534204
0
LINE
8
BLACK
6
CONTINUOUS
10
1.36566
20
0.534204
11
1.36779
21
0.531011
0
LINE
8
BLACK
6
CONTINUOUS
10
1.36779
20
0.531011
11
1.36854
21
0.527244
0
LINE
8
BLACK
6
CONTINUOUS
10
1.36854
20
0.527244
11
1.36854
21
0.507559
0
LINE
8
BLACK
6
CONTINUOUS
10
1.36854
20
0.507559
11
1.36779
21
0.503792
0
LINE
8
BLACK
6
CONTINUOUS
10
1.36779
20
0.503792
11
1.36566
21
0.500599
0
LINE
8
BLACK
6
CONTINUOUS
10
1.36566
20
0.500599
11
1.36247
21
0.498466
0
LINE
8
BLACK
6
CONTINUOUS
10
1.36247
20
0.498466
11
1.3587
21
0.497717
0
LINE
8
BLACK
6
CONTINUOUS
10
1.3587
20
0.497717
11
1.3213
21
0.497717
0
LINE
8
BLACK
6
CONTINUOUS
10
1.3213
20
0.497717
11
1.31753
21
0.498466
0
LINE
8
BLACK
6
CONTINUOUS
10
1.31753
20
0.498466
11
1.31434
21
0.500599
0
LINE
8
BLACK
6
CONTINUOUS
10
1.31434
20
0.500599
11
1.31221
21
0.503792
0
LINE
8
BLACK
6
CONTINUOUS
10
1.31221
20
0.503792
11
1.31146
21
0.507559
0
LINE
8
BLACK
6
CONTINUOUS
10
1.31146
20
0.507559
11
1.31146
21
0.527244
0
LINE
8
BLACK
6
CONTINUOUS
10
1.31146
20
0.527244
11
1.31221
21
0.531011
0
LINE
8
BLACK
6
CONTINUOUS
10
1.31221
20
0.531011
11
1.31434
21
0.534204
0
LINE
8
BLACK
6
CONTINUOUS
10
1.31434
20
0.534204
11
1.31753
21
0.536337
0
LINE
8
BLACK
6
CONTINUOUS
10
1.31753
20
0.536337
11
1.3213
21
0.537087
0
LINE
8
BLACK
6
CONTINUOUS
10
1.3213
20
0.537087
11
1.3587
21
0.537087
0
LINE
8
BLACK
6
CONTINUOUS
10
1.3587
20
0.537087
11
1.36247
21
0.536337
0
LINE
8
BLACK
6
CONTINUOUS
10
1.85756
20
0.504606
11
1.79614
21
0.504606
0
LINE
8
BLACK
6
CONTINUOUS
10
1.79614
20
0.504606
11
1.79614
21
0.530197
0
LINE
8
BLACK
6
CONTINUOUS
10
1.79614
20
0.530197
11
1.85756
21
0.530197
0
LINE
8
BLACK
6
CONTINUOUS
10
1.85756
20
0.530197
11
1.85756
21
0.504606
0
LINE
8
BLACK
6
CONTINUOUS
10
1.96386
20
0.504606
11
1.90244
21
0.504606
0
LINE
8
BLACK
6
CONTINUOUS
10
1.90244
20
0.504606
11
1.90244
21
0.530197
0
LINE
8
BLACK
6
CONTINUOUS
10
1.90244
20
0.530197
11
1.96386
21
0.530197
0
LINE
8
BLACK
6
CONTINUOUS
10
1.96386
20
0.530197
11
1.96386
21
0.504606
  0
ENDSEC
  0
EOF
