  0
SECTION
  2
HEADER
  9
$ANGBASE
  50
0.0
  9
$ANGDIR
  70
1
  9
$MEASUREMENT
  70
0
  0
ENDSEC
  0
SECTION
  2
TABLES
  0
TABLE
  2
LTYPE
  70
4
  0
LTYPE
  5
40F
  2
CONTINUOUS
  70
0
  3
Solid line
  72
65
  73
0
  40
0.0
  0
LTYPE
  5
410
  2
DASHDOT
 70
0
  3
Dash Dot ____ _ ____ _
 72
65
 73
4
 40
2.0
 49
1.25
 49
-0.25
 49
0.25
 49
-0.25
  0
LTYPE
  5
411
  2
DASHED
 70
0
  3
Dashed __ __ __ __ __
 72
65
 73
2
 40
0.75
 49
0.5
 49
-0.25
  0
LTYPE
  5
43B
  2
DOTTED
 70
0
  3
Dotted .  .  .  .
 72
65
 73
2
 40
0.2
 49
0.0
 49
-0.2
  0
ENDTAB
  0
TABLE
  2
STYLE
  70
4
  0
STYLE
  2
KICAD
  70
0
  40
0
  41
1
  42
1
  50
0
  71
0
  3
isocp.shx
  0
STYLE
  2
KICADB
  70
0
  40
0
  41
1
  42
1
  50
0
  71
0
  3
isocp.shx
  0
STYLE
  2
KICADI
  70
0
  40
0
  41
1
  42
1
  50
15
  71
0
  3
isocp.shx
  0
STYLE
  2
KICADBI
  70
0
  40
0
  41
1
  42
1
  50
15
  71
0
  3
isocp.shx
  0
ENDTAB
  0
TABLE
  2
LAYER
  70
1
  0
LAYER
  2
BLACK
  70
0
  62
7
  6
CONTINUOUS
  0
ENDTAB
  0
ENDSEC
  0
SECTION
  2
ENTITIES
0
LINE
8
BLACK
6
CONTINUOUS
10
1.18038
20
1.58289
11
1.18051
21
1.58291
0
LINE
8
BLACK
6
CONTINUOUS
10
1.18051
20
1.58291
11
1.18063
21
1.58284
0
LINE
8
BLACK
6
CONTINUOUS
10
1.18063
20
1.58284
11
1.18101
21
1.58277
0
LINE
8
BLACK
6
CONTINUOUS
10
1.18101
20
1.58277
11
1.1816
21
1.58228
0
LINE
8
BLACK
6
CONTINUOUS
10
1.1816
20
1.58228
11
1.18226
21
1.5819
0
LINE
8
BLACK
6
CONTINUOUS
10
1.18226
20
1.5819
11
1.18235
21
1.58165
0
LINE
8
BLACK
6
CONTINUOUS
10
1.18235
20
1.58165
11
1.18256
21
1.58148
0
LINE
8
BLACK
6
CONTINUOUS
10
1.18256
20
1.58148
11
1.18269
21
1.58072
0
LINE
8
BLACK
6
CONTINUOUS
10
1.18269
20
1.58072
11
1.18295
21
1.58
0
LINE
8
BLACK
6
CONTINUOUS
10
1.18295
20
1.58
11
1.18295
21
0.02
0
LINE
8
BLACK
6
CONTINUOUS
10
1.18295
20
0.02
11
1.18289
21
0.0196165
0
LINE
8
BLACK
6
CONTINUOUS
10
1.18289
20
0.0196165
11
1.18291
21
0.0194872
0
LINE
8
BLACK
6
CONTINUOUS
10
1.18291
20
0.0194872
11
1.18284
21
0.0193736
0
LINE
8
BLACK
6
CONTINUOUS
10
1.18284
20
0.0193736
11
1.18277
21
0.0189901
0
LINE
8
BLACK
6
CONTINUOUS
10
1.18277
20
0.0189901
11
1.18228
21
0.0184024
0
LINE
8
BLACK
6
CONTINUOUS
10
1.18228
20
0.0184024
11
1.1819
21
0.0177381
0
LINE
8
BLACK
6
CONTINUOUS
10
1.1819
20
0.0177381
11
1.18165
21
0.017647
0
LINE
8
BLACK
6
CONTINUOUS
10
1.18165
20
0.017647
11
1.18148
21
0.0174428
0
LINE
8
BLACK
6
CONTINUOUS
10
1.18148
20
0.0174428
11
1.18072
21
0.0173096
0
LINE
8
BLACK
6
CONTINUOUS
10
1.18072
20
0.0173096
11
1.18
21
0.0170472
0
LINE
8
BLACK
6
CONTINUOUS
10
1.18
20
0.0170472
11
0.96
21
0.0170472
0
LINE
8
BLACK
6
CONTINUOUS
10
0.96
20
0.0170472
11
0.959616
21
0.0171149
0
LINE
8
BLACK
6
CONTINUOUS
10
0.959616
20
0.0171149
11
0.959487
21
0.0170921
0
LINE
8
BLACK
6
CONTINUOUS
10
0.959487
20
0.0170921
11
0.959374
21
0.0171577
0
LINE
8
BLACK
6
CONTINUOUS
10
0.959374
20
0.0171577
11
0.95899
21
0.0172253
0
LINE
8
BLACK
6
CONTINUOUS
10
0.95899
20
0.0172253
11
0.958402
21
0.0177185
0
LINE
8
BLACK
6
CONTINUOUS
10
0.958402
20
0.0177185
11
0.957738
21
0.018102
0
LINE
8
BLACK
6
CONTINUOUS
10
0.957738
20
0.018102
11
0.957647
21
0.0183524
0
LINE
8
BLACK
6
CONTINUOUS
10
0.957647
20
0.0183524
11
0.957443
21
0.0185236
0
LINE
8
BLACK
6
CONTINUOUS
10
0.957443
20
0.0185236
11
0.95731
21
0.0192792
0
LINE
8
BLACK
6
CONTINUOUS
10
0.95731
20
0.0192792
11
0.957047
21
0.02
0
LINE
8
BLACK
6
CONTINUOUS
10
0.957047
20
0.02
11
0.957047
21
1.58
0
LINE
8
BLACK
6
CONTINUOUS
10
0.957047
20
1.58
11
0.957115
21
1.58038
0
LINE
8
BLACK
6
CONTINUOUS
10
0.957115
20
1.58038
11
0.957092
21
1.58051
0
LINE
8
BLACK
6
CONTINUOUS
10
0.957092
20
1.58051
11
0.957158
21
1.58063
0
LINE
8
BLACK
6
CONTINUOUS
10
0.957158
20
1.58063
11
0.957225
21
1.58101
0
LINE
8
BLACK
6
CONTINUOUS
10
0.957225
20
1.58101
11
0.957718
21
1.5816
0
LINE
8
BLACK
6
CONTINUOUS
10
0.957718
20
1.5816
11
0.958102
21
1.58226
0
LINE
8
BLACK
6
CONTINUOUS
10
0.958102
20
1.58226
11
0.958352
21
1.58235
0
LINE
8
BLACK
6
CONTINUOUS
10
0.958352
20
1.58235
11
0.958524
21
1.58256
0
LINE
8
BLACK
6
CONTINUOUS
10
0.958524
20
1.58256
11
0.959279
21
1.58269
0
LINE
8
BLACK
6
CONTINUOUS
10
0.959279
20
1.58269
11
0.96
21
1.58295
0
LINE
8
BLACK
6
CONTINUOUS
10
0.96
20
1.58295
11
1.18
21
1.58295
0
LINE
8
BLACK
6
CONTINUOUS
10
1.18
20
1.58295
11
1.18038
21
1.58289
0
LINE
8
BLACK
6
CONTINUOUS
10
0.219917
20
0.325098
11
0.233769
21
0.322656
0
LINE
8
BLACK
6
CONTINUOUS
10
0.233769
20
0.322656
11
0.247262
21
0.318684
0
LINE
8
BLACK
6
CONTINUOUS
10
0.247262
20
0.318684
11
0.260228
21
0.313234
0
LINE
8
BLACK
6
CONTINUOUS
10
0.260228
20
0.313234
11
0.272506
21
0.306372
0
LINE
8
BLACK
6
CONTINUOUS
10
0.272506
20
0.306372
11
0.283942
21
0.298184
0
LINE
8
BLACK
6
CONTINUOUS
10
0.283942
20
0.298184
11
0.294395
21
0.288773
0
LINE
8
BLACK
6
CONTINUOUS
10
0.294395
20
0.288773
11
0.303733
21
0.278255
0
LINE
8
BLACK
6
CONTINUOUS
10
0.303733
20
0.278255
11
0.311841
21
0.266761
0
LINE
8
BLACK
6
CONTINUOUS
10
0.311841
20
0.266761
11
0.318617
21
0.254436
0
LINE
8
BLACK
6
CONTINUOUS
10
0.318617
20
0.254436
11
0.323977
21
0.241432
0
LINE
8
BLACK
6
CONTINUOUS
10
0.323977
20
0.241432
11
0.327853
21
0.227912
0
LINE
8
BLACK
6
CONTINUOUS
10
0.327853
20
0.227912
11
0.330199
21
0.214043
0
LINE
8
BLACK
6
CONTINUOUS
10
0.330199
20
0.214043
11
0.330984
21
0.2
0
LINE
8
BLACK
6
CONTINUOUS
10
0.330984
20
0.2
11
0.330935
21
0.196482
0
LINE
8
BLACK
6
CONTINUOUS
10
0.330935
20
0.196482
11
0.329758
21
0.182466
0
LINE
8
BLACK
6
CONTINUOUS
10
0.329758
20
0.182466
11
0.327026
21
0.168669
0
LINE
8
BLACK
6
CONTINUOUS
10
0.327026
20
0.168669
11
0.322773
21
0.155262
0
LINE
8
BLACK
6
CONTINUOUS
10
0.322773
20
0.155262
11
0.317052
21
0.142413
0
LINE
8
BLACK
6
CONTINUOUS
10
0.317052
20
0.142413
11
0.309935
21
0.130281
0
LINE
8
BLACK
6
CONTINUOUS
10
0.309935
20
0.130281
11
0.30151
21
0.119019
0
LINE
8
BLACK
6
CONTINUOUS
10
0.30151
20
0.119019
11
0.291881
21
0.108766
0
LINE
8
BLACK
6
CONTINUOUS
10
0.291881
20
0.108766
11
0.28117
21
0.0996498
0
LINE
8
BLACK
6
CONTINUOUS
10
0.28117
20
0.0996498
11
0.269509
21
0.0917846
0
LINE
8
BLACK
6
CONTINUOUS
10
0.269509
20
0.0917846
11
0.257045
21
0.0852682
0
LINE
8
BLACK
6
CONTINUOUS
10
0.257045
20
0.0852682
11
0.243931
21
0.0801819
0
LINE
8
BLACK
6
CONTINUOUS
10
0.243931
20
0.0801819
11
0.230333
21
0.0765889
0
LINE
8
BLACK
6
CONTINUOUS
10
0.230333
20
0.0765889
11
0.216418
21
0.0745343
0
LINE
8
BLACK
6
CONTINUOUS
10
0.216418
20
0.0745343
11
0.202362
21
0.0740434
0
LINE
8
BLACK
6
CONTINUOUS
10
0.202362
20
0.0740434
11
0.188338
21
0.0751224
0
LINE
8
BLACK
6
CONTINUOUS
10
0.188338
20
0.0751224
11
0.174522
21
0.077758
0
LINE
8
BLACK
6
CONTINUOUS
10
0.174522
20
0.077758
11
0.161085
21
0.0819172
0
LINE
8
BLACK
6
CONTINUOUS
10
0.161085
20
0.0819172
11
0.148197
21
0.0875482
0
LINE
8
BLACK
6
CONTINUOUS
10
0.148197
20
0.0875482
11
0.136016
21
0.0945809
0
LINE
8
BLACK
6
CONTINUOUS
10
0.136016
20
0.0945809
11
0.124695
21
0.102927
0
LINE
8
BLACK
6
CONTINUOUS
10
0.124695
20
0.102927
11
0.114375
21
0.112484
0
LINE
8
BLACK
6
CONTINUOUS
10
0.114375
20
0.112484
11
0.105184
21
0.123131
0
LINE
8
BLACK
6
CONTINUOUS
10
0.105184
20
0.123131
11
0.0972376
21
0.134737
0
LINE
8
BLACK
6
CONTINUOUS
10
0.0972376
20
0.134737
11
0.0906343
21
0.147156
0
LINE
8
BLACK
6
CONTINUOUS
10
0.0906343
20
0.147156
11
0.0854566
21
0.160233
0
LINE
8
BLACK
6
CONTINUOUS
10
0.0854566
20
0.160233
11
0.0817688
21
0.173806
0
LINE
8
BLACK
6
CONTINUOUS
10
0.0817688
20
0.173806
11
0.079617
21
0.187706
0
LINE
8
BLACK
6
CONTINUOUS
10
0.079617
20
0.187706
11
0.079028
21
0.201759
0
LINE
8
BLACK
6
CONTINUOUS
10
0.079028
20
0.201759
11
0.0800092
21
0.21579
0
LINE
8
BLACK
6
CONTINUOUS
10
0.0800092
20
0.21579
11
0.0825482
21
0.229624
0
LINE
8
BLACK
6
CONTINUOUS
10
0.0825482
20
0.229624
11
0.0866135
21
0.243089
0
LINE
8
BLACK
6
CONTINUOUS
10
0.0866135
20
0.243089
11
0.0921544
21
0.256017
0
LINE
8
BLACK
6
CONTINUOUS
10
0.0921544
20
0.256017
11
0.0991019
21
0.268247
0
LINE
8
BLACK
6
CONTINUOUS
10
0.0991019
20
0.268247
11
0.107369
21
0.279626
0
LINE
8
BLACK
6
CONTINUOUS
10
0.107369
20
0.279626
11
0.116853
21
0.290012
0
LINE
8
BLACK
6
CONTINUOUS
10
0.116853
20
0.290012
11
0.127436
21
0.299277
0
LINE
8
BLACK
6
CONTINUOUS
10
0.127436
20
0.299277
11
0.138986
21
0.307304
0
LINE
8
BLACK
6
CONTINUOUS
10
0.138986
20
0.307304
11
0.151359
21
0.313994
0
LINE
8
BLACK
6
CONTINUOUS
10
0.151359
20
0.313994
11
0.1644
21
0.319263
0
LINE
8
BLACK
6
CONTINUOUS
10
0.1644
20
0.319263
11
0.177947
21
0.323045
0
LINE
8
BLACK
6
CONTINUOUS
10
0.177947
20
0.323045
11
0.191831
21
0.325294
0
LINE
8
BLACK
6
CONTINUOUS
10
0.191831
20
0.325294
11
0.20588
21
0.325981
0
LINE
8
BLACK
6
CONTINUOUS
10
0.20588
20
0.325981
11
0.219917
21
0.325098
0
LINE
8
BLACK
6
CONTINUOUS
10
0.619917
20
0.325098
11
0.633769
21
0.322656
0
LINE
8
BLACK
6
CONTINUOUS
10
0.633769
20
0.322656
11
0.647262
21
0.318684
0
LINE
8
BLACK
6
CONTINUOUS
10
0.647262
20
0.318684
11
0.660228
21
0.313234
0
LINE
8
BLACK
6
CONTINUOUS
10
0.660228
20
0.313234
11
0.672506
21
0.306372
0
LINE
8
BLACK
6
CONTINUOUS
10
0.672506
20
0.306372
11
0.683942
21
0.298184
0
LINE
8
BLACK
6
CONTINUOUS
10
0.683942
20
0.298184
11
0.694395
21
0.288773
0
LINE
8
BLACK
6
CONTINUOUS
10
0.694395
20
0.288773
11
0.703733
21
0.278255
0
LINE
8
BLACK
6
CONTINUOUS
10
0.703733
20
0.278255
11
0.711841
21
0.266761
0
LINE
8
BLACK
6
CONTINUOUS
10
0.711841
20
0.266761
11
0.718617
21
0.254436
0
LINE
8
BLACK
6
CONTINUOUS
10
0.718617
20
0.254436
11
0.723977
21
0.241432
0
LINE
8
BLACK
6
CONTINUOUS
10
0.723977
20
0.241432
11
0.727853
21
0.227912
0
LINE
8
BLACK
6
CONTINUOUS
10
0.727853
20
0.227912
11
0.730199
21
0.214043
0
LINE
8
BLACK
6
CONTINUOUS
10
0.730199
20
0.214043
11
0.730984
21
0.2
0
LINE
8
BLACK
6
CONTINUOUS
10
0.730984
20
0.2
11
0.730935
21
0.196482
0
LINE
8
BLACK
6
CONTINUOUS
10
0.730935
20
0.196482
11
0.729758
21
0.182466
0
LINE
8
BLACK
6
CONTINUOUS
10
0.729758
20
0.182466
11
0.727026
21
0.168669
0
LINE
8
BLACK
6
CONTINUOUS
10
0.727026
20
0.168669
11
0.722773
21
0.155262
0
LINE
8
BLACK
6
CONTINUOUS
10
0.722773
20
0.155262
11
0.717052
21
0.142413
0
LINE
8
BLACK
6
CONTINUOUS
10
0.717052
20
0.142413
11
0.709935
21
0.130281
0
LINE
8
BLACK
6
CONTINUOUS
10
0.709935
20
0.130281
11
0.70151
21
0.119019
0
LINE
8
BLACK
6
CONTINUOUS
10
0.70151
20
0.119019
11
0.691881
21
0.108766
0
LINE
8
BLACK
6
CONTINUOUS
10
0.691881
20
0.108766
11
0.68117
21
0.0996498
0
LINE
8
BLACK
6
CONTINUOUS
10
0.68117
20
0.0996498
11
0.669509
21
0.0917846
0
LINE
8
BLACK
6
CONTINUOUS
10
0.669509
20
0.0917846
11
0.657045
21
0.0852682
0
LINE
8
BLACK
6
CONTINUOUS
10
0.657045
20
0.0852682
11
0.643931
21
0.0801819
0
LINE
8
BLACK
6
CONTINUOUS
10
0.643931
20
0.0801819
11
0.630333
21
0.0765889
0
LINE
8
BLACK
6
CONTINUOUS
10
0.630333
20
0.0765889
11
0.616418
21
0.0745343
0
LINE
8
BLACK
6
CONTINUOUS
10
0.616418
20
0.0745343
11
0.602362
21
0.0740434
0
LINE
8
BLACK
6
CONTINUOUS
10
0.602362
20
0.0740434
11
0.588338
21
0.0751224
0
LINE
8
BLACK
6
CONTINUOUS
10
0.588338
20
0.0751224
11
0.574522
21
0.077758
0
LINE
8
BLACK
6
CONTINUOUS
10
0.574522
20
0.077758
11
0.561085
21
0.0819172
0
LINE
8
BLACK
6
CONTINUOUS
10
0.561085
20
0.0819172
11
0.548197
21
0.0875482
0
LINE
8
BLACK
6
CONTINUOUS
10
0.548197
20
0.0875482
11
0.536016
21
0.0945809
0
LINE
8
BLACK
6
CONTINUOUS
10
0.536016
20
0.0945809
11
0.524695
21
0.102927
0
LINE
8
BLACK
6
CONTINUOUS
10
0.524695
20
0.102927
11
0.514375
21
0.112484
0
LINE
8
BLACK
6
CONTINUOUS
10
0.514375
20
0.112484
11
0.505184
21
0.123131
0
LINE
8
BLACK
6
CONTINUOUS
10
0.505184
20
0.123131
11
0.497238
21
0.134737
0
LINE
8
BLACK
6
CONTINUOUS
10
0.497238
20
0.134737
11
0.490634
21
0.147156
0
LINE
8
BLACK
6
CONTINUOUS
10
0.490634
20
0.147156
11
0.485457
21
0.160233
0
LINE
8
BLACK
6
CONTINUOUS
10
0.485457
20
0.160233
11
0.481769
21
0.173806
0
LINE
8
BLACK
6
CONTINUOUS
10
0.481769
20
0.173806
11
0.479617
21
0.187706
0
LINE
8
BLACK
6
CONTINUOUS
10
0.479617
20
0.187706
11
0.479028
21
0.201759
0
LINE
8
BLACK
6
CONTINUOUS
10
0.479028
20
0.201759
11
0.480009
21
0.21579
0
LINE
8
BLACK
6
CONTINUOUS
10
0.480009
20
0.21579
11
0.482548
21
0.229624
0
LINE
8
BLACK
6
CONTINUOUS
10
0.482548
20
0.229624
11
0.486614
21
0.243089
0
LINE
8
BLACK
6
CONTINUOUS
10
0.486614
20
0.243089
11
0.492154
21
0.256017
0
LINE
8
BLACK
6
CONTINUOUS
10
0.492154
20
0.256017
11
0.499102
21
0.268247
0
LINE
8
BLACK
6
CONTINUOUS
10
0.499102
20
0.268247
11
0.507369
21
0.279626
0
LINE
8
BLACK
6
CONTINUOUS
10
0.507369
20
0.279626
11
0.516853
21
0.290012
0
LINE
8
BLACK
6
CONTINUOUS
10
0.516853
20
0.290012
11
0.527436
21
0.299277
0
LINE
8
BLACK
6
CONTINUOUS
10
0.527436
20
0.299277
11
0.538986
21
0.307304
0
LINE
8
BLACK
6
CONTINUOUS
10
0.538986
20
0.307304
11
0.551359
21
0.313994
0
LINE
8
BLACK
6
CONTINUOUS
10
0.551359
20
0.313994
11
0.5644
21
0.319263
0
LINE
8
BLACK
6
CONTINUOUS
10
0.5644
20
0.319263
11
0.577947
21
0.323045
0
LINE
8
BLACK
6
CONTINUOUS
10
0.577947
20
0.323045
11
0.591831
21
0.325294
0
LINE
8
BLACK
6
CONTINUOUS
10
0.591831
20
0.325294
11
0.60588
21
0.325981
0
LINE
8
BLACK
6
CONTINUOUS
10
0.60588
20
0.325981
11
0.619917
21
0.325098
0
LINE
8
BLACK
6
CONTINUOUS
10
0.341084
20
0.740346
11
0.343639
21
0.738639
0
LINE
8
BLACK
6
CONTINUOUS
10
0.343639
20
0.738639
11
0.345346
21
0.736084
0
LINE
8
BLACK
6
CONTINUOUS
10
0.345346
20
0.736084
11
0.345945
21
0.733071
0
LINE
8
BLACK
6
CONTINUOUS
10
0.345945
20
0.733071
11
0.345945
21
0.595276
0
LINE
8
BLACK
6
CONTINUOUS
10
0.345945
20
0.595276
11
0.345346
21
0.592262
0
LINE
8
BLACK
6
CONTINUOUS
10
0.345346
20
0.592262
11
0.343639
21
0.589708
0
LINE
8
BLACK
6
CONTINUOUS
10
0.343639
20
0.589708
11
0.341084
21
0.588001
0
LINE
8
BLACK
6
CONTINUOUS
10
0.341084
20
0.588001
11
0.338071
21
0.587402
0
LINE
8
BLACK
6
CONTINUOUS
10
0.338071
20
0.587402
11
0.200276
21
0.587402
0
LINE
8
BLACK
6
CONTINUOUS
10
0.200276
20
0.587402
11
0.197262
21
0.588001
0
LINE
8
BLACK
6
CONTINUOUS
10
0.197262
20
0.588001
11
0.194708
21
0.589708
0
LINE
8
BLACK
6
CONTINUOUS
10
0.194708
20
0.589708
11
0.193001
21
0.592262
0
LINE
8
BLACK
6
CONTINUOUS
10
0.193001
20
0.592262
11
0.192402
21
0.595276
0
LINE
8
BLACK
6
CONTINUOUS
10
0.192402
20
0.595276
11
0.192402
21
0.733071
0
LINE
8
BLACK
6
CONTINUOUS
10
0.192402
20
0.733071
11
0.193001
21
0.736084
0
LINE
8
BLACK
6
CONTINUOUS
10
0.193001
20
0.736084
11
0.194708
21
0.738639
0
LINE
8
BLACK
6
CONTINUOUS
10
0.194708
20
0.738639
11
0.197262
21
0.740346
0
LINE
8
BLACK
6
CONTINUOUS
10
0.197262
20
0.740346
11
0.200276
21
0.740945
0
LINE
8
BLACK
6
CONTINUOUS
10
0.200276
20
0.740945
11
0.338071
21
0.740945
0
LINE
8
BLACK
6
CONTINUOUS
10
0.338071
20
0.740945
11
0.341084
21
0.740346
0
LINE
8
BLACK
6
CONTINUOUS
10
0.612738
20
0.740346
11
0.615292
21
0.738639
0
LINE
8
BLACK
6
CONTINUOUS
10
0.615292
20
0.738639
11
0.616999
21
0.736084
0
LINE
8
BLACK
6
CONTINUOUS
10
0.616999
20
0.736084
11
0.617598
21
0.733071
0
LINE
8
BLACK
6
CONTINUOUS
10
0.617598
20
0.733071
11
0.617598
21
0.595276
0
LINE
8
BLACK
6
CONTINUOUS
10
0.617598
20
0.595276
11
0.616999
21
0.592262
0
LINE
8
BLACK
6
CONTINUOUS
10
0.616999
20
0.592262
11
0.615292
21
0.589708
0
LINE
8
BLACK
6
CONTINUOUS
10
0.615292
20
0.589708
11
0.612738
21
0.588001
0
LINE
8
BLACK
6
CONTINUOUS
10
0.612738
20
0.588001
11
0.609724
21
0.587402
0
LINE
8
BLACK
6
CONTINUOUS
10
0.609724
20
0.587402
11
0.471929
21
0.587402
0
LINE
8
BLACK
6
CONTINUOUS
10
0.471929
20
0.587402
11
0.468916
21
0.588001
0
LINE
8
BLACK
6
CONTINUOUS
10
0.468916
20
0.588001
11
0.466361
21
0.589708
0
LINE
8
BLACK
6
CONTINUOUS
10
0.466361
20
0.589708
11
0.464654
21
0.592262
0
LINE
8
BLACK
6
CONTINUOUS
10
0.464654
20
0.592262
11
0.464055
21
0.595276
0
LINE
8
BLACK
6
CONTINUOUS
10
0.464055
20
0.595276
11
0.464055
21
0.733071
0
LINE
8
BLACK
6
CONTINUOUS
10
0.464055
20
0.733071
11
0.464654
21
0.736084
0
LINE
8
BLACK
6
CONTINUOUS
10
0.464654
20
0.736084
11
0.466361
21
0.738639
0
LINE
8
BLACK
6
CONTINUOUS
10
0.466361
20
0.738639
11
0.468916
21
0.740346
0
LINE
8
BLACK
6
CONTINUOUS
10
0.468916
20
0.740346
11
0.471929
21
0.740945
0
LINE
8
BLACK
6
CONTINUOUS
10
0.471929
20
0.740945
11
0.609724
21
0.740945
0
LINE
8
BLACK
6
CONTINUOUS
10
0.609724
20
0.740945
11
0.612738
21
0.740346
0
LINE
8
BLACK
6
CONTINUOUS
10
0.341084
20
1.012
11
0.343639
21
1.01029
0
LINE
8
BLACK
6
CONTINUOUS
10
0.343639
20
1.01029
11
0.345346
21
1.00774
0
LINE
8
BLACK
6
CONTINUOUS
10
0.345346
20
1.00774
11
0.345945
21
1.00472
0
LINE
8
BLACK
6
CONTINUOUS
10
0.345945
20
1.00472
11
0.345945
21
0.866929
0
LINE
8
BLACK
6
CONTINUOUS
10
0.345945
20
0.866929
11
0.345346
21
0.863916
0
LINE
8
BLACK
6
CONTINUOUS
10
0.345346
20
0.863916
11
0.343639
21
0.861361
0
LINE
8
BLACK
6
CONTINUOUS
10
0.343639
20
0.861361
11
0.341084
21
0.859654
0
LINE
8
BLACK
6
CONTINUOUS
10
0.341084
20
0.859654
11
0.338071
21
0.859055
0
LINE
8
BLACK
6
CONTINUOUS
10
0.338071
20
0.859055
11
0.200276
21
0.859055
0
LINE
8
BLACK
6
CONTINUOUS
10
0.200276
20
0.859055
11
0.197262
21
0.859654
0
LINE
8
BLACK
6
CONTINUOUS
10
0.197262
20
0.859654
11
0.194708
21
0.861361
0
LINE
8
BLACK
6
CONTINUOUS
10
0.194708
20
0.861361
11
0.193001
21
0.863916
0
LINE
8
BLACK
6
CONTINUOUS
10
0.193001
20
0.863916
11
0.192402
21
0.866929
0
LINE
8
BLACK
6
CONTINUOUS
10
0.192402
20
0.866929
11
0.192402
21
1.00472
0
LINE
8
BLACK
6
CONTINUOUS
10
0.192402
20
1.00472
11
0.193001
21
1.00774
0
LINE
8
BLACK
6
CONTINUOUS
10
0.193001
20
1.00774
11
0.194708
21
1.01029
0
LINE
8
BLACK
6
CONTINUOUS
10
0.194708
20
1.01029
11
0.197262
21
1.012
0
LINE
8
BLACK
6
CONTINUOUS
10
0.197262
20
1.012
11
0.200276
21
1.0126
0
LINE
8
BLACK
6
CONTINUOUS
10
0.200276
20
1.0126
11
0.338071
21
1.0126
0
LINE
8
BLACK
6
CONTINUOUS
10
0.338071
20
1.0126
11
0.341084
21
1.012
0
LINE
8
BLACK
6
CONTINUOUS
10
0.612738
20
1.012
11
0.615292
21
1.01029
0
LINE
8
BLACK
6
CONTINUOUS
10
0.615292
20
1.01029
11
0.616999
21
1.00774
0
LINE
8
BLACK
6
CONTINUOUS
10
0.616999
20
1.00774
11
0.617598
21
1.00472
0
LINE
8
BLACK
6
CONTINUOUS
10
0.617598
20
1.00472
11
0.617598
21
0.866929
0
LINE
8
BLACK
6
CONTINUOUS
10
0.617598
20
0.866929
11
0.616999
21
0.863916
0
LINE
8
BLACK
6
CONTINUOUS
10
0.616999
20
0.863916
11
0.615292
21
0.861361
0
LINE
8
BLACK
6
CONTINUOUS
10
0.615292
20
0.861361
11
0.612738
21
0.859654
0
LINE
8
BLACK
6
CONTINUOUS
10
0.612738
20
0.859654
11
0.609724
21
0.859055
0
LINE
8
BLACK
6
CONTINUOUS
10
0.609724
20
0.859055
11
0.471929
21
0.859055
0
LINE
8
BLACK
6
CONTINUOUS
10
0.471929
20
0.859055
11
0.468916
21
0.859654
0
LINE
8
BLACK
6
CONTINUOUS
10
0.468916
20
0.859654
11
0.466361
21
0.861361
0
LINE
8
BLACK
6
CONTINUOUS
10
0.466361
20
0.861361
11
0.464654
21
0.863916
0
LINE
8
BLACK
6
CONTINUOUS
10
0.464654
20
0.863916
11
0.464055
21
0.866929
0
LINE
8
BLACK
6
CONTINUOUS
10
0.464055
20
0.866929
11
0.464055
21
1.00472
0
LINE
8
BLACK
6
CONTINUOUS
10
0.464055
20
1.00472
11
0.464654
21
1.00774
0
LINE
8
BLACK
6
CONTINUOUS
10
0.464654
20
1.00774
11
0.466361
21
1.01029
0
LINE
8
BLACK
6
CONTINUOUS
10
0.466361
20
1.01029
11
0.468916
21
1.012
0
LINE
8
BLACK
6
CONTINUOUS
10
0.468916
20
1.012
11
0.471929
21
1.0126
0
LINE
8
BLACK
6
CONTINUOUS
10
0.471929
20
1.0126
11
0.609724
21
1.0126
0
LINE
8
BLACK
6
CONTINUOUS
10
0.609724
20
1.0126
11
0.612738
21
1.012
0
LINE
8
BLACK
6
CONTINUOUS
10
0.219917
20
1.5251
11
0.233769
21
1.52266
0
LINE
8
BLACK
6
CONTINUOUS
10
0.233769
20
1.52266
11
0.247262
21
1.51868
0
LINE
8
BLACK
6
CONTINUOUS
10
0.247262
20
1.51868
11
0.260228
21
1.51323
0
LINE
8
BLACK
6
CONTINUOUS
10
0.260228
20
1.51323
11
0.272506
21
1.50637
0
LINE
8
BLACK
6
CONTINUOUS
10
0.272506
20
1.50637
11
0.283942
21
1.49818
0
LINE
8
BLACK
6
CONTINUOUS
10
0.283942
20
1.49818
11
0.294395
21
1.48877
0
LINE
8
BLACK
6
CONTINUOUS
10
0.294395
20
1.48877
11
0.303733
21
1.47825
0
LINE
8
BLACK
6
CONTINUOUS
10
0.303733
20
1.47825
11
0.311841
21
1.46676
0
LINE
8
BLACK
6
CONTINUOUS
10
0.311841
20
1.46676
11
0.318617
21
1.45444
0
LINE
8
BLACK
6
CONTINUOUS
10
0.318617
20
1.45444
11
0.323977
21
1.44143
0
LINE
8
BLACK
6
CONTINUOUS
10
0.323977
20
1.44143
11
0.327853
21
1.42791
0
LINE
8
BLACK
6
CONTINUOUS
10
0.327853
20
1.42791
11
0.330199
21
1.41404
0
LINE
8
BLACK
6
CONTINUOUS
10
0.330199
20
1.41404
11
0.330984
21
1.4
0
LINE
8
BLACK
6
CONTINUOUS
10
0.330984
20
1.4
11
0.330935
21
1.39648
0
LINE
8
BLACK
6
CONTINUOUS
10
0.330935
20
1.39648
11
0.329758
21
1.38247
0
LINE
8
BLACK
6
CONTINUOUS
10
0.329758
20
1.38247
11
0.327026
21
1.36867
0
LINE
8
BLACK
6
CONTINUOUS
10
0.327026
20
1.36867
11
0.322773
21
1.35526
0
LINE
8
BLACK
6
CONTINUOUS
10
0.322773
20
1.35526
11
0.317052
21
1.34241
0
LINE
8
BLACK
6
CONTINUOUS
10
0.317052
20
1.34241
11
0.309935
21
1.33028
0
LINE
8
BLACK
6
CONTINUOUS
10
0.309935
20
1.33028
11
0.30151
21
1.31902
0
LINE
8
BLACK
6
CONTINUOUS
10
0.30151
20
1.31902
11
0.291881
21
1.30877
0
LINE
8
BLACK
6
CONTINUOUS
10
0.291881
20
1.30877
11
0.28117
21
1.29965
0
LINE
8
BLACK
6
CONTINUOUS
10
0.28117
20
1.29965
11
0.269509
21
1.29178
0
LINE
8
BLACK
6
CONTINUOUS
10
0.269509
20
1.29178
11
0.257045
21
1.28527
0
LINE
8
BLACK
6
CONTINUOUS
10
0.257045
20
1.28527
11
0.243931
21
1.28018
0
LINE
8
BLACK
6
CONTINUOUS
10
0.243931
20
1.28018
11
0.230333
21
1.27659
0
LINE
8
BLACK
6
CONTINUOUS
10
0.230333
20
1.27659
11
0.216418
21
1.27453
0
LINE
8
BLACK
6
CONTINUOUS
10
0.216418
20
1.27453
11
0.202362
21
1.27404
0
LINE
8
BLACK
6
CONTINUOUS
10
0.202362
20
1.27404
11
0.188338
21
1.27512
0
LINE
8
BLACK
6
CONTINUOUS
10
0.188338
20
1.27512
11
0.174522
21
1.27776
0
LINE
8
BLACK
6
CONTINUOUS
10
0.174522
20
1.27776
11
0.161085
21
1.28192
0
LINE
8
BLACK
6
CONTINUOUS
10
0.161085
20
1.28192
11
0.148197
21
1.28755
0
LINE
8
BLACK
6
CONTINUOUS
10
0.148197
20
1.28755
11
0.136016
21
1.29458
0
LINE
8
BLACK
6
CONTINUOUS
10
0.136016
20
1.29458
11
0.124695
21
1.30293
0
LINE
8
BLACK
6
CONTINUOUS
10
0.124695
20
1.30293
11
0.114375
21
1.31248
0
LINE
8
BLACK
6
CONTINUOUS
10
0.114375
20
1.31248
11
0.105184
21
1.32313
0
LINE
8
BLACK
6
CONTINUOUS
10
0.105184
20
1.32313
11
0.0972376
21
1.33474
0
LINE
8
BLACK
6
CONTINUOUS
10
0.0972376
20
1.33474
11
0.0906343
21
1.34716
0
LINE
8
BLACK
6
CONTINUOUS
10
0.0906343
20
1.34716
11
0.0854566
21
1.36023
0
LINE
8
BLACK
6
CONTINUOUS
10
0.0854566
20
1.36023
11
0.0817688
21
1.37381
0
LINE
8
BLACK
6
CONTINUOUS
10
0.0817688
20
1.37381
11
0.079617
21
1.38771
0
LINE
8
BLACK
6
CONTINUOUS
10
0.079617
20
1.38771
11
0.079028
21
1.40176
0
LINE
8
BLACK
6
CONTINUOUS
10
0.079028
20
1.40176
11
0.0800092
21
1.41579
0
LINE
8
BLACK
6
CONTINUOUS
10
0.0800092
20
1.41579
11
0.0825482
21
1.42962
0
LINE
8
BLACK
6
CONTINUOUS
10
0.0825482
20
1.42962
11
0.0866135
21
1.44309
0
LINE
8
BLACK
6
CONTINUOUS
10
0.0866135
20
1.44309
11
0.0921544
21
1.45602
0
LINE
8
BLACK
6
CONTINUOUS
10
0.0921544
20
1.45602
11
0.0991019
21
1.46825
0
LINE
8
BLACK
6
CONTINUOUS
10
0.0991019
20
1.46825
11
0.107369
21
1.47963
0
LINE
8
BLACK
6
CONTINUOUS
10
0.107369
20
1.47963
11
0.116853
21
1.49001
0
LINE
8
BLACK
6
CONTINUOUS
10
0.116853
20
1.49001
11
0.127436
21
1.49928
0
LINE
8
BLACK
6
CONTINUOUS
10
0.127436
20
1.49928
11
0.138986
21
1.5073
0
LINE
8
BLACK
6
CONTINUOUS
10
0.138986
20
1.5073
11
0.151359
21
1.51399
0
LINE
8
BLACK
6
CONTINUOUS
10
0.151359
20
1.51399
11
0.1644
21
1.51926
0
LINE
8
BLACK
6
CONTINUOUS
10
0.1644
20
1.51926
11
0.177947
21
1.52305
0
LINE
8
BLACK
6
CONTINUOUS
10
0.177947
20
1.52305
11
0.191831
21
1.52529
0
LINE
8
BLACK
6
CONTINUOUS
10
0.191831
20
1.52529
11
0.20588
21
1.52598
0
LINE
8
BLACK
6
CONTINUOUS
10
0.20588
20
1.52598
11
0.219917
21
1.5251
0
LINE
8
BLACK
6
CONTINUOUS
10
0.619917
20
1.5251
11
0.633769
21
1.52266
0
LINE
8
BLACK
6
CONTINUOUS
10
0.633769
20
1.52266
11
0.647262
21
1.51868
0
LINE
8
BLACK
6
CONTINUOUS
10
0.647262
20
1.51868
11
0.660228
21
1.51323
0
LINE
8
BLACK
6
CONTINUOUS
10
0.660228
20
1.51323
11
0.672506
21
1.50637
0
LINE
8
BLACK
6
CONTINUOUS
10
0.672506
20
1.50637
11
0.683942
21
1.49818
0
LINE
8
BLACK
6
CONTINUOUS
10
0.683942
20
1.49818
11
0.694395
21
1.48877
0
LINE
8
BLACK
6
CONTINUOUS
10
0.694395
20
1.48877
11
0.703733
21
1.47825
0
LINE
8
BLACK
6
CONTINUOUS
10
0.703733
20
1.47825
11
0.711841
21
1.46676
0
LINE
8
BLACK
6
CONTINUOUS
10
0.711841
20
1.46676
11
0.718617
21
1.45444
0
LINE
8
BLACK
6
CONTINUOUS
10
0.718617
20
1.45444
11
0.723977
21
1.44143
0
LINE
8
BLACK
6
CONTINUOUS
10
0.723977
20
1.44143
11
0.727853
21
1.42791
0
LINE
8
BLACK
6
CONTINUOUS
10
0.727853
20
1.42791
11
0.730199
21
1.41404
0
LINE
8
BLACK
6
CONTINUOUS
10
0.730199
20
1.41404
11
0.730984
21
1.4
0
LINE
8
BLACK
6
CONTINUOUS
10
0.730984
20
1.4
11
0.730935
21
1.39648
0
LINE
8
BLACK
6
CONTINUOUS
10
0.730935
20
1.39648
11
0.729758
21
1.38247
0
LINE
8
BLACK
6
CONTINUOUS
10
0.729758
20
1.38247
11
0.727026
21
1.36867
0
LINE
8
BLACK
6
CONTINUOUS
10
0.727026
20
1.36867
11
0.722773
21
1.35526
0
LINE
8
BLACK
6
CONTINUOUS
10
0.722773
20
1.35526
11
0.717052
21
1.34241
0
LINE
8
BLACK
6
CONTINUOUS
10
0.717052
20
1.34241
11
0.709935
21
1.33028
0
LINE
8
BLACK
6
CONTINUOUS
10
0.709935
20
1.33028
11
0.70151
21
1.31902
0
LINE
8
BLACK
6
CONTINUOUS
10
0.70151
20
1.31902
11
0.691881
21
1.30877
0
LINE
8
BLACK
6
CONTINUOUS
10
0.691881
20
1.30877
11
0.68117
21
1.29965
0
LINE
8
BLACK
6
CONTINUOUS
10
0.68117
20
1.29965
11
0.669509
21
1.29178
0
LINE
8
BLACK
6
CONTINUOUS
10
0.669509
20
1.29178
11
0.657045
21
1.28527
0
LINE
8
BLACK
6
CONTINUOUS
10
0.657045
20
1.28527
11
0.643931
21
1.28018
0
LINE
8
BLACK
6
CONTINUOUS
10
0.643931
20
1.28018
11
0.630333
21
1.27659
0
LINE
8
BLACK
6
CONTINUOUS
10
0.630333
20
1.27659
11
0.616418
21
1.27453
0
LINE
8
BLACK
6
CONTINUOUS
10
0.616418
20
1.27453
11
0.602362
21
1.27404
0
LINE
8
BLACK
6
CONTINUOUS
10
0.602362
20
1.27404
11
0.588338
21
1.27512
0
LINE
8
BLACK
6
CONTINUOUS
10
0.588338
20
1.27512
11
0.574522
21
1.27776
0
LINE
8
BLACK
6
CONTINUOUS
10
0.574522
20
1.27776
11
0.561085
21
1.28192
0
LINE
8
BLACK
6
CONTINUOUS
10
0.561085
20
1.28192
11
0.548197
21
1.28755
0
LINE
8
BLACK
6
CONTINUOUS
10
0.548197
20
1.28755
11
0.536016
21
1.29458
0
LINE
8
BLACK
6
CONTINUOUS
10
0.536016
20
1.29458
11
0.524695
21
1.30293
0
LINE
8
BLACK
6
CONTINUOUS
10
0.524695
20
1.30293
11
0.514375
21
1.31248
0
LINE
8
BLACK
6
CONTINUOUS
10
0.514375
20
1.31248
11
0.505184
21
1.32313
0
LINE
8
BLACK
6
CONTINUOUS
10
0.505184
20
1.32313
11
0.497238
21
1.33474
0
LINE
8
BLACK
6
CONTINUOUS
10
0.497238
20
1.33474
11
0.490634
21
1.34716
0
LINE
8
BLACK
6
CONTINUOUS
10
0.490634
20
1.34716
11
0.485457
21
1.36023
0
LINE
8
BLACK
6
CONTINUOUS
10
0.485457
20
1.36023
11
0.481769
21
1.37381
0
LINE
8
BLACK
6
CONTINUOUS
10
0.481769
20
1.37381
11
0.479617
21
1.38771
0
LINE
8
BLACK
6
CONTINUOUS
10
0.479617
20
1.38771
11
0.479028
21
1.40176
0
LINE
8
BLACK
6
CONTINUOUS
10
0.479028
20
1.40176
11
0.480009
21
1.41579
0
LINE
8
BLACK
6
CONTINUOUS
10
0.480009
20
1.41579
11
0.482548
21
1.42962
0
LINE
8
BLACK
6
CONTINUOUS
10
0.482548
20
1.42962
11
0.486614
21
1.44309
0
LINE
8
BLACK
6
CONTINUOUS
10
0.486614
20
1.44309
11
0.492154
21
1.45602
0
LINE
8
BLACK
6
CONTINUOUS
10
0.492154
20
1.45602
11
0.499102
21
1.46825
0
LINE
8
BLACK
6
CONTINUOUS
10
0.499102
20
1.46825
11
0.507369
21
1.47963
0
LINE
8
BLACK
6
CONTINUOUS
10
0.507369
20
1.47963
11
0.516853
21
1.49001
0
LINE
8
BLACK
6
CONTINUOUS
10
0.516853
20
1.49001
11
0.527436
21
1.49928
0
LINE
8
BLACK
6
CONTINUOUS
10
0.527436
20
1.49928
11
0.538986
21
1.5073
0
LINE
8
BLACK
6
CONTINUOUS
10
0.538986
20
1.5073
11
0.551359
21
1.51399
0
LINE
8
BLACK
6
CONTINUOUS
10
0.551359
20
1.51399
11
0.5644
21
1.51926
0
LINE
8
BLACK
6
CONTINUOUS
10
0.5644
20
1.51926
11
0.577947
21
1.52305
0
LINE
8
BLACK
6
CONTINUOUS
10
0.577947
20
1.52305
11
0.591831
21
1.52529
0
LINE
8
BLACK
6
CONTINUOUS
10
0.591831
20
1.52529
11
0.60588
21
1.52598
0
LINE
8
BLACK
6
CONTINUOUS
10
0.60588
20
1.52598
11
0.619917
21
1.5251
  0
ENDSEC
  0
EOF
