  0
SECTION
  2
HEADER
  9
$ANGBASE
  50
0.0
  9
$ANGDIR
  70
1
  9
$MEASUREMENT
  70
0
  0
ENDSEC
  0
SECTION
  2
TABLES
  0
TABLE
  2
LTYPE
  70
4
  0
LTYPE
  5
40F
  2
CONTINUOUS
  70
0
  3
Solid line
  72
65
  73
0
  40
0.0
  0
LTYPE
  5
410
  2
DASHDOT
 70
0
  3
Dash Dot ____ _ ____ _
 72
65
 73
4
 40
2.0
 49
1.25
 49
-0.25
 49
0.25
 49
-0.25
  0
LTYPE
  5
411
  2
DASHED
 70
0
  3
Dashed __ __ __ __ __
 72
65
 73
2
 40
0.75
 49
0.5
 49
-0.25
  0
LTYPE
  5
43B
  2
DOTTED
 70
0
  3
Dotted .  .  .  .
 72
65
 73
2
 40
0.2
 49
0.0
 49
-0.2
  0
ENDTAB
  0
TABLE
  2
STYLE
  70
4
  0
STYLE
  2
KICAD
  70
0
  40
0
  41
1
  42
1
  50
0
  71
0
  3
isocp.shx
  0
STYLE
  2
KICADB
  70
0
  40
0
  41
1
  42
1
  50
0
  71
0
  3
isocp.shx
  0
STYLE
  2
KICADI
  70
0
  40
0
  41
1
  42
1
  50
15
  71
0
  3
isocp.shx
  0
STYLE
  2
KICADBI
  70
0
  40
0
  41
1
  42
1
  50
15
  71
0
  3
isocp.shx
  0
ENDTAB
  0
TABLE
  2
LAYER
  70
1
  0
LAYER
  2
BLACK
  70
0
  62
7
  6
CONTINUOUS
  0
ENDTAB
  0
ENDSEC
  0
SECTION
  2
ENTITIES
0
LINE
8
BLACK
6
CONTINUOUS
10
0.0719024
20
0.0331623
11
0.0716142
21
0.0338583
0
LINE
8
BLACK
6
CONTINUOUS
10
0.0716142
20
0.0338583
11
0.0716142
21
0.166142
0
LINE
8
BLACK
6
CONTINUOUS
10
0.0716142
20
0.166142
11
0.0719024
21
0.166838
0
LINE
8
BLACK
6
CONTINUOUS
10
0.0719024
20
0.166838
11
0.0725984
21
0.167126
0
LINE
8
BLACK
6
CONTINUOUS
10
0.0725984
20
0.167126
11
0.147402
21
0.167126
0
LINE
8
BLACK
6
CONTINUOUS
10
0.147402
20
0.167126
11
0.148098
21
0.166838
0
LINE
8
BLACK
6
CONTINUOUS
10
0.148098
20
0.166838
11
0.148386
21
0.166142
0
LINE
8
BLACK
6
CONTINUOUS
10
0.148386
20
0.166142
11
0.148386
21
0.0338583
0
LINE
8
BLACK
6
CONTINUOUS
10
0.148386
20
0.0338583
11
0.148098
21
0.0331623
0
LINE
8
BLACK
6
CONTINUOUS
10
0.148098
20
0.0331623
11
0.147402
21
0.032874
0
LINE
8
BLACK
6
CONTINUOUS
10
0.147402
20
0.032874
11
0.0725984
21
0.032874
0
LINE
8
BLACK
6
CONTINUOUS
10
0.0725984
20
0.032874
11
0.0719024
21
0.0331623
0
LINE
8
BLACK
6
CONTINUOUS
10
0.0735827
20
0.165157
11
0.0735827
21
0.0348425
0
LINE
8
BLACK
6
CONTINUOUS
10
0.0735827
20
0.0348425
11
0.146417
21
0.0348425
0
LINE
8
BLACK
6
CONTINUOUS
10
0.146417
20
0.0348425
11
0.146417
21
0.165157
0
LINE
8
BLACK
6
CONTINUOUS
10
0.146417
20
0.165157
11
0.0735827
21
0.165157
0
LINE
8
BLACK
6
CONTINUOUS
10
0.171902
20
0.0331623
11
0.171614
21
0.0338583
0
LINE
8
BLACK
6
CONTINUOUS
10
0.171614
20
0.0338583
11
0.171614
21
0.166142
0
LINE
8
BLACK
6
CONTINUOUS
10
0.171614
20
0.166142
11
0.171902
21
0.166838
0
LINE
8
BLACK
6
CONTINUOUS
10
0.171902
20
0.166838
11
0.172598
21
0.167126
0
LINE
8
BLACK
6
CONTINUOUS
10
0.172598
20
0.167126
11
0.247402
21
0.167126
0
LINE
8
BLACK
6
CONTINUOUS
10
0.247402
20
0.167126
11
0.248098
21
0.166838
0
LINE
8
BLACK
6
CONTINUOUS
10
0.248098
20
0.166838
11
0.248386
21
0.166142
0
LINE
8
BLACK
6
CONTINUOUS
10
0.248386
20
0.166142
11
0.248386
21
0.0338583
0
LINE
8
BLACK
6
CONTINUOUS
10
0.248386
20
0.0338583
11
0.248098
21
0.0331623
0
LINE
8
BLACK
6
CONTINUOUS
10
0.248098
20
0.0331623
11
0.247402
21
0.032874
0
LINE
8
BLACK
6
CONTINUOUS
10
0.247402
20
0.032874
11
0.172598
21
0.032874
0
LINE
8
BLACK
6
CONTINUOUS
10
0.172598
20
0.032874
11
0.171902
21
0.0331623
0
LINE
8
BLACK
6
CONTINUOUS
10
0.173583
20
0.165157
11
0.173583
21
0.0348425
0
LINE
8
BLACK
6
CONTINUOUS
10
0.173583
20
0.0348425
11
0.246417
21
0.0348425
0
LINE
8
BLACK
6
CONTINUOUS
10
0.246417
20
0.0348425
11
0.246417
21
0.165157
0
LINE
8
BLACK
6
CONTINUOUS
10
0.246417
20
0.165157
11
0.173583
21
0.165157
0
LINE
8
BLACK
6
CONTINUOUS
10
1.58028
20
0.0415748
11
1.57999
21
0.0408788
0
LINE
8
BLACK
6
CONTINUOUS
10
1.57999
20
0.0408788
11
1.57929
21
0.0405906
0
LINE
8
BLACK
6
CONTINUOUS
10
1.57929
20
0.0405906
11
1.44701
21
0.0405906
0
LINE
8
BLACK
6
CONTINUOUS
10
1.44701
20
0.0405906
11
1.44631
21
0.0408788
0
LINE
8
BLACK
6
CONTINUOUS
10
1.44631
20
0.0408788
11
1.44602
21
0.0415748
0
LINE
8
BLACK
6
CONTINUOUS
10
1.44602
20
0.0415748
11
1.44602
21
0.0720866
0
LINE
8
BLACK
6
CONTINUOUS
10
1.44602
20
0.0720866
11
1.37614
21
0.0720866
0
LINE
8
BLACK
6
CONTINUOUS
10
1.37614
20
0.0720866
11
1.37545
21
0.0723749
0
LINE
8
BLACK
6
CONTINUOUS
10
1.37545
20
0.0723749
11
1.37516
21
0.0730709
0
LINE
8
BLACK
6
CONTINUOUS
10
1.37516
20
0.0730709
11
1.37516
21
0.206929
0
LINE
8
BLACK
6
CONTINUOUS
10
1.37516
20
0.206929
11
1.37545
21
0.207625
0
LINE
8
BLACK
6
CONTINUOUS
10
1.37545
20
0.207625
11
1.37614
21
0.207913
0
LINE
8
BLACK
6
CONTINUOUS
10
1.37614
20
0.207913
11
1.45331
21
0.207913
0
LINE
8
BLACK
6
CONTINUOUS
10
1.45331
20
0.207913
11
1.454
21
0.207625
0
LINE
8
BLACK
6
CONTINUOUS
10
1.454
20
0.207625
11
1.45429
21
0.206929
0
LINE
8
BLACK
6
CONTINUOUS
10
1.45429
20
0.206929
11
1.45429
21
0.117362
0
LINE
8
BLACK
6
CONTINUOUS
10
1.45429
20
0.117362
11
1.5661
21
0.117362
0
LINE
8
BLACK
6
CONTINUOUS
10
1.5661
20
0.117362
11
1.5661
21
0.244331
0
LINE
8
BLACK
6
CONTINUOUS
10
1.5661
20
0.244331
11
1.56639
21
0.245027
0
LINE
8
BLACK
6
CONTINUOUS
10
1.56639
20
0.245027
11
1.56709
21
0.245315
0
LINE
8
BLACK
6
CONTINUOUS
10
1.56709
20
0.245315
11
1.64425
21
0.245315
0
LINE
8
BLACK
6
CONTINUOUS
10
1.64425
20
0.245315
11
1.64495
21
0.245027
0
LINE
8
BLACK
6
CONTINUOUS
10
1.64495
20
0.245027
11
1.64524
21
0.244331
0
LINE
8
BLACK
6
CONTINUOUS
10
1.64524
20
0.244331
11
1.64524
21
0.110472
0
LINE
8
BLACK
6
CONTINUOUS
10
1.64524
20
0.110472
11
1.64495
21
0.109776
0
LINE
8
BLACK
6
CONTINUOUS
10
1.64495
20
0.109776
11
1.64425
21
0.109488
0
LINE
8
BLACK
6
CONTINUOUS
10
1.64425
20
0.109488
11
1.58028
21
0.109488
0
LINE
8
BLACK
6
CONTINUOUS
10
1.58028
20
0.109488
11
1.58028
21
0.0415748
0
LINE
8
BLACK
6
CONTINUOUS
10
1.44799
20
0.0425591
11
1.57831
21
0.0425591
0
LINE
8
BLACK
6
CONTINUOUS
10
1.57831
20
0.0425591
11
1.57831
21
0.109488
0
LINE
8
BLACK
6
CONTINUOUS
10
1.57831
20
0.109488
11
1.56709
21
0.109488
0
LINE
8
BLACK
6
CONTINUOUS
10
1.56709
20
0.109488
11
1.56639
21
0.109776
0
LINE
8
BLACK
6
CONTINUOUS
10
1.56639
20
0.109776
11
1.5661
21
0.110472
0
LINE
8
BLACK
6
CONTINUOUS
10
1.5661
20
0.110472
11
1.5661
21
0.115394
0
LINE
8
BLACK
6
CONTINUOUS
10
1.5661
20
0.115394
11
1.45429
21
0.115394
0
LINE
8
BLACK
6
CONTINUOUS
10
1.45429
20
0.115394
11
1.45429
21
0.0730709
0
LINE
8
BLACK
6
CONTINUOUS
10
1.45429
20
0.0730709
11
1.454
21
0.0723749
0
LINE
8
BLACK
6
CONTINUOUS
10
1.454
20
0.0723749
11
1.45331
21
0.0720866
0
LINE
8
BLACK
6
CONTINUOUS
10
1.45331
20
0.0720866
11
1.44799
21
0.0720866
0
LINE
8
BLACK
6
CONTINUOUS
10
1.44799
20
0.0720866
11
1.44799
21
0.0425591
0
LINE
8
BLACK
6
CONTINUOUS
10
1.37713
20
0.205945
11
1.37713
21
0.0740551
0
LINE
8
BLACK
6
CONTINUOUS
10
1.37713
20
0.0740551
11
1.44602
21
0.0740551
0
LINE
8
BLACK
6
CONTINUOUS
10
1.44602
20
0.0740551
11
1.44602
21
0.116378
0
LINE
8
BLACK
6
CONTINUOUS
10
1.44602
20
0.116378
11
1.44631
21
0.117074
0
LINE
8
BLACK
6
CONTINUOUS
10
1.44631
20
0.117074
11
1.44701
21
0.117362
0
LINE
8
BLACK
6
CONTINUOUS
10
1.44701
20
0.117362
11
1.45232
21
0.117362
0
LINE
8
BLACK
6
CONTINUOUS
10
1.45232
20
0.117362
11
1.45232
21
0.205945
0
LINE
8
BLACK
6
CONTINUOUS
10
1.45232
20
0.205945
11
1.37713
21
0.205945
0
LINE
8
BLACK
6
CONTINUOUS
10
1.44799
20
0.115394
11
1.44799
21
0.0740551
0
LINE
8
BLACK
6
CONTINUOUS
10
1.44799
20
0.0740551
11
1.45232
21
0.0740551
0
LINE
8
BLACK
6
CONTINUOUS
10
1.45232
20
0.0740551
11
1.45232
21
0.115394
0
LINE
8
BLACK
6
CONTINUOUS
10
1.45232
20
0.115394
11
1.44799
21
0.115394
0
LINE
8
BLACK
6
CONTINUOUS
10
1.56807
20
0.115394
11
1.56807
21
0.111457
0
LINE
8
BLACK
6
CONTINUOUS
10
1.56807
20
0.111457
11
1.57831
21
0.111457
0
LINE
8
BLACK
6
CONTINUOUS
10
1.57831
20
0.111457
11
1.57831
21
0.115394
0
LINE
8
BLACK
6
CONTINUOUS
10
1.57831
20
0.115394
11
1.56807
21
0.115394
0
LINE
8
BLACK
6
CONTINUOUS
10
1.58028
20
0.116378
11
1.58028
21
0.111457
0
LINE
8
BLACK
6
CONTINUOUS
10
1.58028
20
0.111457
11
1.64327
21
0.111457
0
LINE
8
BLACK
6
CONTINUOUS
10
1.64327
20
0.111457
11
1.64327
21
0.243346
0
LINE
8
BLACK
6
CONTINUOUS
10
1.64327
20
0.243346
11
1.56807
21
0.243346
0
LINE
8
BLACK
6
CONTINUOUS
10
1.56807
20
0.243346
11
1.56807
21
0.117362
0
LINE
8
BLACK
6
CONTINUOUS
10
1.56807
20
0.117362
11
1.57929
21
0.117362
0
LINE
8
BLACK
6
CONTINUOUS
10
1.57929
20
0.117362
11
1.57999
21
0.117074
0
LINE
8
BLACK
6
CONTINUOUS
10
1.57999
20
0.117074
11
1.58028
21
0.116378
0
LINE
8
BLACK
6
CONTINUOUS
10
0.461902
20
0.0431623
11
0.461614
21
0.0438583
0
LINE
8
BLACK
6
CONTINUOUS
10
0.461614
20
0.0438583
11
0.461614
21
0.176142
0
LINE
8
BLACK
6
CONTINUOUS
10
0.461614
20
0.176142
11
0.461902
21
0.176838
0
LINE
8
BLACK
6
CONTINUOUS
10
0.461902
20
0.176838
11
0.462598
21
0.177126
0
LINE
8
BLACK
6
CONTINUOUS
10
0.462598
20
0.177126
11
0.537402
21
0.177126
0
LINE
8
BLACK
6
CONTINUOUS
10
0.537402
20
0.177126
11
0.538098
21
0.176838
0
LINE
8
BLACK
6
CONTINUOUS
10
0.538098
20
0.176838
11
0.538386
21
0.176142
0
LINE
8
BLACK
6
CONTINUOUS
10
0.538386
20
0.176142
11
0.538386
21
0.0438583
0
LINE
8
BLACK
6
CONTINUOUS
10
0.538386
20
0.0438583
11
0.538098
21
0.0431623
0
LINE
8
BLACK
6
CONTINUOUS
10
0.538098
20
0.0431623
11
0.537402
21
0.042874
0
LINE
8
BLACK
6
CONTINUOUS
10
0.537402
20
0.042874
11
0.462598
21
0.042874
0
LINE
8
BLACK
6
CONTINUOUS
10
0.462598
20
0.042874
11
0.461902
21
0.0431623
0
LINE
8
BLACK
6
CONTINUOUS
10
0.463583
20
0.175157
11
0.463583
21
0.0448425
0
LINE
8
BLACK
6
CONTINUOUS
10
0.463583
20
0.0448425
11
0.536417
21
0.0448425
0
LINE
8
BLACK
6
CONTINUOUS
10
0.536417
20
0.0448425
11
0.536417
21
0.175157
0
LINE
8
BLACK
6
CONTINUOUS
10
0.536417
20
0.175157
11
0.463583
21
0.175157
0
LINE
8
BLACK
6
CONTINUOUS
10
1.1786
20
0.109776
11
1.17831
21
0.110472
0
LINE
8
BLACK
6
CONTINUOUS
10
1.17831
20
0.110472
11
1.17831
21
0.244331
0
LINE
8
BLACK
6
CONTINUOUS
10
1.17831
20
0.244331
11
1.1786
21
0.245027
0
LINE
8
BLACK
6
CONTINUOUS
10
1.1786
20
0.245027
11
1.17929
21
0.245315
0
LINE
8
BLACK
6
CONTINUOUS
10
1.17929
20
0.245315
11
1.25646
21
0.245315
0
LINE
8
BLACK
6
CONTINUOUS
10
1.25646
20
0.245315
11
1.25715
21
0.245027
0
LINE
8
BLACK
6
CONTINUOUS
10
1.25715
20
0.245027
11
1.25744
21
0.244331
0
LINE
8
BLACK
6
CONTINUOUS
10
1.25744
20
0.244331
11
1.25744
21
0.110472
0
LINE
8
BLACK
6
CONTINUOUS
10
1.25744
20
0.110472
11
1.25715
21
0.109776
0
LINE
8
BLACK
6
CONTINUOUS
10
1.25715
20
0.109776
11
1.25646
21
0.109488
0
LINE
8
BLACK
6
CONTINUOUS
10
1.25646
20
0.109488
11
1.17929
21
0.109488
0
LINE
8
BLACK
6
CONTINUOUS
10
1.17929
20
0.109488
11
1.1786
21
0.109776
0
LINE
8
BLACK
6
CONTINUOUS
10
1.18028
20
0.243346
11
1.18028
21
0.111457
0
LINE
8
BLACK
6
CONTINUOUS
10
1.18028
20
0.111457
11
1.25547
21
0.111457
0
LINE
8
BLACK
6
CONTINUOUS
10
1.25547
20
0.111457
11
1.25547
21
0.243346
0
LINE
8
BLACK
6
CONTINUOUS
10
1.25547
20
0.243346
11
1.18028
21
0.243346
0
LINE
8
BLACK
6
CONTINUOUS
10
1.67072
20
0.109776
11
1.67043
21
0.110472
0
LINE
8
BLACK
6
CONTINUOUS
10
1.67043
20
0.110472
11
1.67043
21
0.244331
0
LINE
8
BLACK
6
CONTINUOUS
10
1.67043
20
0.244331
11
1.67072
21
0.245027
0
LINE
8
BLACK
6
CONTINUOUS
10
1.67072
20
0.245027
11
1.67142
21
0.245315
0
LINE
8
BLACK
6
CONTINUOUS
10
1.67142
20
0.245315
11
1.74858
21
0.245315
0
LINE
8
BLACK
6
CONTINUOUS
10
1.74858
20
0.245315
11
1.74928
21
0.245027
0
LINE
8
BLACK
6
CONTINUOUS
10
1.74928
20
0.245027
11
1.74957
21
0.244331
0
LINE
8
BLACK
6
CONTINUOUS
10
1.74957
20
0.244331
11
1.74957
21
0.110472
0
LINE
8
BLACK
6
CONTINUOUS
10
1.74957
20
0.110472
11
1.74928
21
0.109776
0
LINE
8
BLACK
6
CONTINUOUS
10
1.74928
20
0.109776
11
1.74858
21
0.109488
0
LINE
8
BLACK
6
CONTINUOUS
10
1.74858
20
0.109488
11
1.67142
21
0.109488
0
LINE
8
BLACK
6
CONTINUOUS
10
1.67142
20
0.109488
11
1.67072
21
0.109776
0
LINE
8
BLACK
6
CONTINUOUS
10
1.6724
20
0.243346
11
1.6724
21
0.111457
0
LINE
8
BLACK
6
CONTINUOUS
10
1.6724
20
0.111457
11
1.7476
21
0.111457
0
LINE
8
BLACK
6
CONTINUOUS
10
1.7476
20
0.111457
11
1.7476
21
0.243346
0
LINE
8
BLACK
6
CONTINUOUS
10
1.7476
20
0.243346
11
1.6724
21
0.243346
0
LINE
8
BLACK
6
CONTINUOUS
10
1.08017
20
0.109776
11
1.07988
21
0.110472
0
LINE
8
BLACK
6
CONTINUOUS
10
1.07988
20
0.110472
11
1.07988
21
0.244331
0
LINE
8
BLACK
6
CONTINUOUS
10
1.07988
20
0.244331
11
1.08017
21
0.245027
0
LINE
8
BLACK
6
CONTINUOUS
10
1.08017
20
0.245027
11
1.08087
21
0.245315
0
LINE
8
BLACK
6
CONTINUOUS
10
1.08087
20
0.245315
11
1.15803
21
0.245315
0
LINE
8
BLACK
6
CONTINUOUS
10
1.15803
20
0.245315
11
1.15873
21
0.245027
0
LINE
8
BLACK
6
CONTINUOUS
10
1.15873
20
0.245027
11
1.15902
21
0.244331
0
LINE
8
BLACK
6
CONTINUOUS
10
1.15902
20
0.244331
11
1.15902
21
0.110472
0
LINE
8
BLACK
6
CONTINUOUS
10
1.15902
20
0.110472
11
1.15873
21
0.109776
0
LINE
8
BLACK
6
CONTINUOUS
10
1.15873
20
0.109776
11
1.15803
21
0.109488
0
LINE
8
BLACK
6
CONTINUOUS
10
1.15803
20
0.109488
11
1.08087
21
0.109488
0
LINE
8
BLACK
6
CONTINUOUS
10
1.08087
20
0.109488
11
1.08017
21
0.109776
0
LINE
8
BLACK
6
CONTINUOUS
10
1.08185
20
0.243346
11
1.08185
21
0.111457
0
LINE
8
BLACK
6
CONTINUOUS
10
1.08185
20
0.111457
11
1.15705
21
0.111457
0
LINE
8
BLACK
6
CONTINUOUS
10
1.15705
20
0.111457
11
1.15705
21
0.243346
0
LINE
8
BLACK
6
CONTINUOUS
10
1.15705
20
0.243346
11
1.08185
21
0.243346
0
LINE
8
BLACK
6
CONTINUOUS
10
0.288595
20
0.112375
11
0.288307
21
0.113071
0
LINE
8
BLACK
6
CONTINUOUS
10
0.288307
20
0.113071
11
0.288307
21
0.246929
0
LINE
8
BLACK
6
CONTINUOUS
10
0.288307
20
0.246929
11
0.288595
21
0.247625
0
LINE
8
BLACK
6
CONTINUOUS
10
0.288595
20
0.247625
11
0.289291
21
0.247913
0
LINE
8
BLACK
6
CONTINUOUS
10
0.289291
20
0.247913
11
0.450709
21
0.247913
0
LINE
8
BLACK
6
CONTINUOUS
10
0.450709
20
0.247913
11
0.451405
21
0.247625
0
LINE
8
BLACK
6
CONTINUOUS
10
0.451405
20
0.247625
11
0.451693
21
0.246929
0
LINE
8
BLACK
6
CONTINUOUS
10
0.451693
20
0.246929
11
0.451693
21
0.113071
0
LINE
8
BLACK
6
CONTINUOUS
10
0.451693
20
0.113071
11
0.451405
21
0.112375
0
LINE
8
BLACK
6
CONTINUOUS
10
0.451405
20
0.112375
11
0.450709
21
0.112087
0
LINE
8
BLACK
6
CONTINUOUS
10
0.450709
20
0.112087
11
0.289291
21
0.112087
0
LINE
8
BLACK
6
CONTINUOUS
10
0.289291
20
0.112087
11
0.288595
21
0.112375
0
LINE
8
BLACK
6
CONTINUOUS
10
0.290276
20
0.245945
11
0.290276
21
0.114055
0
LINE
8
BLACK
6
CONTINUOUS
10
0.290276
20
0.114055
11
0.449724
21
0.114055
0
LINE
8
BLACK
6
CONTINUOUS
10
0.449724
20
0.114055
11
0.449724
21
0.245945
0
LINE
8
BLACK
6
CONTINUOUS
10
0.449724
20
0.245945
11
0.290276
21
0.245945
0
LINE
8
BLACK
6
CONTINUOUS
10
0.992769
20
0.127493
11
0.99248
21
0.128189
0
LINE
8
BLACK
6
CONTINUOUS
10
0.99248
20
0.128189
11
0.99248
21
0.226614
0
LINE
8
BLACK
6
CONTINUOUS
10
0.99248
20
0.226614
11
0.992769
21
0.22731
0
LINE
8
BLACK
6
CONTINUOUS
10
0.992769
20
0.22731
11
0.993465
21
0.227598
0
LINE
8
BLACK
6
CONTINUOUS
10
0.993465
20
0.227598
11
1.04858
21
0.227598
0
LINE
8
BLACK
6
CONTINUOUS
10
1.04858
20
0.227598
11
1.04928
21
0.22731
0
LINE
8
BLACK
6
CONTINUOUS
10
1.04928
20
0.22731
11
1.04957
21
0.226614
0
LINE
8
BLACK
6
CONTINUOUS
10
1.04957
20
0.226614
11
1.04957
21
0.128189
0
LINE
8
BLACK
6
CONTINUOUS
10
1.04957
20
0.128189
11
1.04928
21
0.127493
0
LINE
8
BLACK
6
CONTINUOUS
10
1.04928
20
0.127493
11
1.04858
21
0.127205
0
LINE
8
BLACK
6
CONTINUOUS
10
1.04858
20
0.127205
11
0.993465
21
0.127205
0
LINE
8
BLACK
6
CONTINUOUS
10
0.993465
20
0.127205
11
0.992769
21
0.127493
0
LINE
8
BLACK
6
CONTINUOUS
10
0.994449
20
0.22563
11
0.994449
21
0.129173
0
LINE
8
BLACK
6
CONTINUOUS
10
0.994449
20
0.129173
11
1.0476
21
0.129173
0
LINE
8
BLACK
6
CONTINUOUS
10
1.0476
20
0.129173
11
1.0476
21
0.22563
0
LINE
8
BLACK
6
CONTINUOUS
10
1.0476
20
0.22563
11
0.994449
21
0.22563
0
LINE
8
BLACK
6
CONTINUOUS
10
1.27702
20
0.147178
11
1.27673
21
0.147874
0
LINE
8
BLACK
6
CONTINUOUS
10
1.27673
20
0.147874
11
1.27673
21
0.281732
0
LINE
8
BLACK
6
CONTINUOUS
10
1.27673
20
0.281732
11
1.27702
21
0.282428
0
LINE
8
BLACK
6
CONTINUOUS
10
1.27702
20
0.282428
11
1.27772
21
0.282717
0
LINE
8
BLACK
6
CONTINUOUS
10
1.27772
20
0.282717
11
1.35488
21
0.282717
0
LINE
8
BLACK
6
CONTINUOUS
10
1.35488
20
0.282717
11
1.35558
21
0.282428
0
LINE
8
BLACK
6
CONTINUOUS
10
1.35558
20
0.282428
11
1.35587
21
0.281732
0
LINE
8
BLACK
6
CONTINUOUS
10
1.35587
20
0.281732
11
1.35587
21
0.147874
0
LINE
8
BLACK
6
CONTINUOUS
10
1.35587
20
0.147874
11
1.35558
21
0.147178
0
LINE
8
BLACK
6
CONTINUOUS
10
1.35558
20
0.147178
11
1.35488
21
0.14689
0
LINE
8
BLACK
6
CONTINUOUS
10
1.35488
20
0.14689
11
1.27772
21
0.14689
0
LINE
8
BLACK
6
CONTINUOUS
10
1.27772
20
0.14689
11
1.27702
21
0.147178
0
LINE
8
BLACK
6
CONTINUOUS
10
1.2787
20
0.280748
11
1.2787
21
0.148858
0
LINE
8
BLACK
6
CONTINUOUS
10
1.2787
20
0.148858
11
1.3539
21
0.148858
0
LINE
8
BLACK
6
CONTINUOUS
10
1.3539
20
0.148858
11
1.3539
21
0.280748
0
LINE
8
BLACK
6
CONTINUOUS
10
1.3539
20
0.280748
11
1.2787
21
0.280748
0
LINE
8
BLACK
6
CONTINUOUS
10
0.577237
20
0.181902
11
0.576949
21
0.182598
0
LINE
8
BLACK
6
CONTINUOUS
10
0.576949
20
0.182598
11
0.576949
21
0.257402
0
LINE
8
BLACK
6
CONTINUOUS
10
0.576949
20
0.257402
11
0.577237
21
0.258098
0
LINE
8
BLACK
6
CONTINUOUS
10
0.577237
20
0.258098
11
0.577933
21
0.258386
0
LINE
8
BLACK
6
CONTINUOUS
10
0.577933
20
0.258386
11
0.710217
21
0.258386
0
LINE
8
BLACK
6
CONTINUOUS
10
0.710217
20
0.258386
11
0.710913
21
0.258098
0
LINE
8
BLACK
6
CONTINUOUS
10
0.710913
20
0.258098
11
0.711201
21
0.257402
0
LINE
8
BLACK
6
CONTINUOUS
10
0.711201
20
0.257402
11
0.711201
21
0.182598
0
LINE
8
BLACK
6
CONTINUOUS
10
0.711201
20
0.182598
11
0.710913
21
0.181902
0
LINE
8
BLACK
6
CONTINUOUS
10
0.710913
20
0.181902
11
0.710217
21
0.181614
0
LINE
8
BLACK
6
CONTINUOUS
10
0.710217
20
0.181614
11
0.577933
21
0.181614
0
LINE
8
BLACK
6
CONTINUOUS
10
0.577933
20
0.181614
11
0.577237
21
0.181902
0
LINE
8
BLACK
6
CONTINUOUS
10
0.578917
20
0.256417
11
0.578917
21
0.183583
0
LINE
8
BLACK
6
CONTINUOUS
10
0.578917
20
0.183583
11
0.709232
21
0.183583
0
LINE
8
BLACK
6
CONTINUOUS
10
0.709232
20
0.183583
11
0.709232
21
0.256417
0
LINE
8
BLACK
6
CONTINUOUS
10
0.709232
20
0.256417
11
0.578917
21
0.256417
0
LINE
8
BLACK
6
CONTINUOUS
10
0.471902
20
0.199087
11
0.471614
21
0.199783
0
LINE
8
BLACK
6
CONTINUOUS
10
0.471614
20
0.199783
11
0.471614
21
0.332067
0
LINE
8
BLACK
6
CONTINUOUS
10
0.471614
20
0.332067
11
0.471902
21
0.332763
0
LINE
8
BLACK
6
CONTINUOUS
10
0.471902
20
0.332763
11
0.472598
21
0.333051
0
LINE
8
BLACK
6
CONTINUOUS
10
0.472598
20
0.333051
11
0.547402
21
0.333051
0
LINE
8
BLACK
6
CONTINUOUS
10
0.547402
20
0.333051
11
0.548098
21
0.332763
0
LINE
8
BLACK
6
CONTINUOUS
10
0.548098
20
0.332763
11
0.548386
21
0.332067
0
LINE
8
BLACK
6
CONTINUOUS
10
0.548386
20
0.332067
11
0.548386
21
0.199783
0
LINE
8
BLACK
6
CONTINUOUS
10
0.548386
20
0.199783
11
0.548098
21
0.199087
0
LINE
8
BLACK
6
CONTINUOUS
10
0.548098
20
0.199087
11
0.547402
21
0.198799
0
LINE
8
BLACK
6
CONTINUOUS
10
0.547402
20
0.198799
11
0.472598
21
0.198799
0
LINE
8
BLACK
6
CONTINUOUS
10
0.472598
20
0.198799
11
0.471902
21
0.199087
0
LINE
8
BLACK
6
CONTINUOUS
10
0.473583
20
0.331083
11
0.473583
21
0.200768
0
LINE
8
BLACK
6
CONTINUOUS
10
0.473583
20
0.200768
11
0.546417
21
0.200768
0
LINE
8
BLACK
6
CONTINUOUS
10
0.546417
20
0.200768
11
0.546417
21
0.331083
0
LINE
8
BLACK
6
CONTINUOUS
10
0.546417
20
0.331083
11
0.473583
21
0.331083
0
LINE
8
BLACK
6
CONTINUOUS
10
2.1019
20
0.203162
11
2.10161
21
0.203858
0
LINE
8
BLACK
6
CONTINUOUS
10
2.10161
20
0.203858
11
2.10161
21
0.336142
0
LINE
8
BLACK
6
CONTINUOUS
10
2.10161
20
0.336142
11
2.1019
21
0.336838
0
LINE
8
BLACK
6
CONTINUOUS
10
2.1019
20
0.336838
11
2.1026
21
0.337126
0
LINE
8
BLACK
6
CONTINUOUS
10
2.1026
20
0.337126
11
2.1774
21
0.337126
0
LINE
8
BLACK
6
CONTINUOUS
10
2.1774
20
0.337126
11
2.1781
21
0.336838
0
LINE
8
BLACK
6
CONTINUOUS
10
2.1781
20
0.336838
11
2.17839
21
0.336142
0
LINE
8
BLACK
6
CONTINUOUS
10
2.17839
20
0.336142
11
2.17839
21
0.203858
0
LINE
8
BLACK
6
CONTINUOUS
10
2.17839
20
0.203858
11
2.1781
21
0.203162
0
LINE
8
BLACK
6
CONTINUOUS
10
2.1781
20
0.203162
11
2.1774
21
0.202874
0
LINE
8
BLACK
6
CONTINUOUS
10
2.1774
20
0.202874
11
2.1026
21
0.202874
0
LINE
8
BLACK
6
CONTINUOUS
10
2.1026
20
0.202874
11
2.1019
21
0.203162
0
LINE
8
BLACK
6
CONTINUOUS
10
2.10358
20
0.335157
11
2.10358
21
0.204843
0
LINE
8
BLACK
6
CONTINUOUS
10
2.10358
20
0.204843
11
2.17642
21
0.204843
0
LINE
8
BLACK
6
CONTINUOUS
10
2.17642
20
0.204843
11
2.17642
21
0.335157
0
LINE
8
BLACK
6
CONTINUOUS
10
2.17642
20
0.335157
11
2.10358
21
0.335157
0
LINE
8
BLACK
6
CONTINUOUS
10
1.90237
20
0.240721
11
1.90209
21
0.241417
0
LINE
8
BLACK
6
CONTINUOUS
10
1.90209
20
0.241417
11
1.90209
21
0.318583
0
LINE
8
BLACK
6
CONTINUOUS
10
1.90209
20
0.318583
11
1.90237
21
0.319279
0
LINE
8
BLACK
6
CONTINUOUS
10
1.90237
20
0.319279
11
1.90307
21
0.319567
0
LINE
8
BLACK
6
CONTINUOUS
10
1.90307
20
0.319567
11
2.03693
21
0.319567
0
LINE
8
BLACK
6
CONTINUOUS
10
2.03693
20
0.319567
11
2.03763
21
0.319279
0
LINE
8
BLACK
6
CONTINUOUS
10
2.03763
20
0.319279
11
2.03791
21
0.318583
0
LINE
8
BLACK
6
CONTINUOUS
10
2.03791
20
0.318583
11
2.03791
21
0.241417
0
LINE
8
BLACK
6
CONTINUOUS
10
2.03791
20
0.241417
11
2.03763
21
0.240721
0
LINE
8
BLACK
6
CONTINUOUS
10
2.03763
20
0.240721
11
2.03693
21
0.240433
0
LINE
8
BLACK
6
CONTINUOUS
10
2.03693
20
0.240433
11
1.90307
21
0.240433
0
LINE
8
BLACK
6
CONTINUOUS
10
1.90307
20
0.240433
11
1.90237
21
0.240721
0
LINE
8
BLACK
6
CONTINUOUS
10
1.90406
20
0.317598
11
1.90406
21
0.242402
0
LINE
8
BLACK
6
CONTINUOUS
10
1.90406
20
0.242402
11
2.03594
21
0.242402
0
LINE
8
BLACK
6
CONTINUOUS
10
2.03594
20
0.242402
11
2.03594
21
0.317598
0
LINE
8
BLACK
6
CONTINUOUS
10
2.03594
20
0.317598
11
1.90406
21
0.317598
0
LINE
8
BLACK
6
CONTINUOUS
10
0.303162
20
0.261902
11
0.302874
21
0.262598
0
LINE
8
BLACK
6
CONTINUOUS
10
0.302874
20
0.262598
11
0.302874
21
0.337402
0
LINE
8
BLACK
6
CONTINUOUS
10
0.302874
20
0.337402
11
0.303162
21
0.338098
0
LINE
8
BLACK
6
CONTINUOUS
10
0.303162
20
0.338098
11
0.303858
21
0.338386
0
LINE
8
BLACK
6
CONTINUOUS
10
0.303858
20
0.338386
11
0.436142
21
0.338386
0
LINE
8
BLACK
6
CONTINUOUS
10
0.436142
20
0.338386
11
0.436838
21
0.338098
0
LINE
8
BLACK
6
CONTINUOUS
10
0.436838
20
0.338098
11
0.437126
21
0.337402
0
LINE
8
BLACK
6
CONTINUOUS
10
0.437126
20
0.337402
11
0.437126
21
0.262598
0
LINE
8
BLACK
6
CONTINUOUS
10
0.437126
20
0.262598
11
0.436838
21
0.261902
0
LINE
8
BLACK
6
CONTINUOUS
10
0.436838
20
0.261902
11
0.436142
21
0.261614
0
LINE
8
BLACK
6
CONTINUOUS
10
0.436142
20
0.261614
11
0.303858
21
0.261614
0
LINE
8
BLACK
6
CONTINUOUS
10
0.303858
20
0.261614
11
0.303162
21
0.261902
0
LINE
8
BLACK
6
CONTINUOUS
10
0.304843
20
0.336417
11
0.304843
21
0.263583
0
LINE
8
BLACK
6
CONTINUOUS
10
0.304843
20
0.263583
11
0.435157
21
0.263583
0
LINE
8
BLACK
6
CONTINUOUS
10
0.435157
20
0.263583
11
0.435157
21
0.336417
0
LINE
8
BLACK
6
CONTINUOUS
10
0.435157
20
0.336417
11
0.304843
21
0.336417
0
LINE
8
BLACK
6
CONTINUOUS
10
1.88482
20
0.338438
11
1.88453
21
0.339134
0
LINE
8
BLACK
6
CONTINUOUS
10
1.88453
20
0.339134
11
1.88453
21
0.480866
0
LINE
8
BLACK
6
CONTINUOUS
10
1.88453
20
0.480866
11
1.88482
21
0.481562
0
LINE
8
BLACK
6
CONTINUOUS
10
1.88482
20
0.481562
11
1.88551
21
0.48185
0
LINE
8
BLACK
6
CONTINUOUS
10
1.88551
20
0.48185
11
2.07449
21
0.48185
0
LINE
8
BLACK
6
CONTINUOUS
10
2.07449
20
0.48185
11
2.07518
21
0.481562
0
LINE
8
BLACK
6
CONTINUOUS
10
2.07518
20
0.481562
11
2.07547
21
0.480866
0
LINE
8
BLACK
6
CONTINUOUS
10
2.07547
20
0.480866
11
2.07547
21
0.339134
0
LINE
8
BLACK
6
CONTINUOUS
10
2.07547
20
0.339134
11
2.07518
21
0.338438
0
LINE
8
BLACK
6
CONTINUOUS
10
2.07518
20
0.338438
11
2.07449
21
0.33815
0
LINE
8
BLACK
6
CONTINUOUS
10
2.07449
20
0.33815
11
1.88551
21
0.33815
0
LINE
8
BLACK
6
CONTINUOUS
10
1.88551
20
0.33815
11
1.88482
21
0.338438
0
LINE
8
BLACK
6
CONTINUOUS
10
1.8865
20
0.479882
11
1.8865
21
0.340118
0
LINE
8
BLACK
6
CONTINUOUS
10
1.8865
20
0.340118
11
2.0735
21
0.340118
0
LINE
8
BLACK
6
CONTINUOUS
10
2.0735
20
0.340118
11
2.0735
21
0.479882
0
LINE
8
BLACK
6
CONTINUOUS
10
2.0735
20
0.479882
11
1.8865
21
0.479882
0
LINE
8
BLACK
6
CONTINUOUS
10
2.1019
20
0.343162
11
2.10161
21
0.343858
0
LINE
8
BLACK
6
CONTINUOUS
10
2.10161
20
0.343858
11
2.10161
21
0.476142
0
LINE
8
BLACK
6
CONTINUOUS
10
2.10161
20
0.476142
11
2.1019
21
0.476838
0
LINE
8
BLACK
6
CONTINUOUS
10
2.1019
20
0.476838
11
2.1026
21
0.477126
0
LINE
8
BLACK
6
CONTINUOUS
10
2.1026
20
0.477126
11
2.1774
21
0.477126
0
LINE
8
BLACK
6
CONTINUOUS
10
2.1774
20
0.477126
11
2.1781
21
0.476838
0
LINE
8
BLACK
6
CONTINUOUS
10
2.1781
20
0.476838
11
2.17839
21
0.476142
0
LINE
8
BLACK
6
CONTINUOUS
10
2.17839
20
0.476142
11
2.17839
21
0.343858
0
LINE
8
BLACK
6
CONTINUOUS
10
2.17839
20
0.343858
11
2.1781
21
0.343162
0
LINE
8
BLACK
6
CONTINUOUS
10
2.1781
20
0.343162
11
2.1774
21
0.342874
0
LINE
8
BLACK
6
CONTINUOUS
10
2.1774
20
0.342874
11
2.1026
21
0.342874
0
LINE
8
BLACK
6
CONTINUOUS
10
2.1026
20
0.342874
11
2.1019
21
0.343162
0
LINE
8
BLACK
6
CONTINUOUS
10
2.10358
20
0.475157
11
2.10358
21
0.344843
0
LINE
8
BLACK
6
CONTINUOUS
10
2.10358
20
0.344843
11
2.17642
21
0.344843
0
LINE
8
BLACK
6
CONTINUOUS
10
2.17642
20
0.344843
11
2.17642
21
0.475157
0
LINE
8
BLACK
6
CONTINUOUS
10
2.17642
20
0.475157
11
2.10358
21
0.475157
0
LINE
8
BLACK
6
CONTINUOUS
10
1.7371
20
0.352847
11
1.73681
21
0.353543
0
LINE
8
BLACK
6
CONTINUOUS
10
1.73681
20
0.353543
11
1.73681
21
0.546457
0
LINE
8
BLACK
6
CONTINUOUS
10
1.73681
20
0.546457
11
1.7371
21
0.547153
0
LINE
8
BLACK
6
CONTINUOUS
10
1.7371
20
0.547153
11
1.7378
21
0.547441
0
LINE
8
BLACK
6
CONTINUOUS
10
1.7378
20
0.547441
11
1.8622
21
0.547441
0
LINE
8
BLACK
6
CONTINUOUS
10
1.8622
20
0.547441
11
1.8629
21
0.547153
0
LINE
8
BLACK
6
CONTINUOUS
10
1.8629
20
0.547153
11
1.86319
21
0.546457
0
LINE
8
BLACK
6
CONTINUOUS
10
1.86319
20
0.546457
11
1.86319
21
0.353543
0
LINE
8
BLACK
6
CONTINUOUS
10
1.86319
20
0.353543
11
1.8629
21
0.352847
0
LINE
8
BLACK
6
CONTINUOUS
10
1.8629
20
0.352847
11
1.8622
21
0.352559
0
LINE
8
BLACK
6
CONTINUOUS
10
1.8622
20
0.352559
11
1.7378
21
0.352559
0
LINE
8
BLACK
6
CONTINUOUS
10
1.7378
20
0.352559
11
1.7371
21
0.352847
0
LINE
8
BLACK
6
CONTINUOUS
10
1.73878
20
0.545472
11
1.73878
21
0.354528
0
LINE
8
BLACK
6
CONTINUOUS
10
1.73878
20
0.354528
11
1.86122
21
0.354528
0
LINE
8
BLACK
6
CONTINUOUS
10
1.86122
20
0.354528
11
1.86122
21
0.545472
0
LINE
8
BLACK
6
CONTINUOUS
10
1.86122
20
0.545472
11
1.73878
21
0.545472
0
LINE
8
BLACK
6
CONTINUOUS
10
1.16316
20
0.401902
11
1.16287
21
0.402598
0
LINE
8
BLACK
6
CONTINUOUS
10
1.16287
20
0.402598
11
1.16287
21
0.477402
0
LINE
8
BLACK
6
CONTINUOUS
10
1.16287
20
0.477402
11
1.16316
21
0.478098
0
LINE
8
BLACK
6
CONTINUOUS
10
1.16316
20
0.478098
11
1.16386
21
0.478386
0
LINE
8
BLACK
6
CONTINUOUS
10
1.16386
20
0.478386
11
1.29614
21
0.478386
0
LINE
8
BLACK
6
CONTINUOUS
10
1.29614
20
0.478386
11
1.29684
21
0.478098
0
LINE
8
BLACK
6
CONTINUOUS
10
1.29684
20
0.478098
11
1.29713
21
0.477402
0
LINE
8
BLACK
6
CONTINUOUS
10
1.29713
20
0.477402
11
1.29713
21
0.402598
0
LINE
8
BLACK
6
CONTINUOUS
10
1.29713
20
0.402598
11
1.29684
21
0.401902
0
LINE
8
BLACK
6
CONTINUOUS
10
1.29684
20
0.401902
11
1.29614
21
0.401614
0
LINE
8
BLACK
6
CONTINUOUS
10
1.29614
20
0.401614
11
1.16386
21
0.401614
0
LINE
8
BLACK
6
CONTINUOUS
10
1.16386
20
0.401614
11
1.16316
21
0.401902
0
LINE
8
BLACK
6
CONTINUOUS
10
1.16484
20
0.476417
11
1.16484
21
0.403583
0
LINE
8
BLACK
6
CONTINUOUS
10
1.16484
20
0.403583
11
1.29516
21
0.403583
0
LINE
8
BLACK
6
CONTINUOUS
10
1.29516
20
0.403583
11
1.29516
21
0.476417
0
LINE
8
BLACK
6
CONTINUOUS
10
1.29516
20
0.476417
11
1.16484
21
0.476417
0
LINE
8
BLACK
6
CONTINUOUS
10
1.43072
20
0.402375
11
1.43043
21
0.403071
0
LINE
8
BLACK
6
CONTINUOUS
10
1.43043
20
0.403071
11
1.43043
21
0.536929
0
LINE
8
BLACK
6
CONTINUOUS
10
1.43043
20
0.536929
11
1.43072
21
0.537625
0
LINE
8
BLACK
6
CONTINUOUS
10
1.43072
20
0.537625
11
1.43142
21
0.537913
0
LINE
8
BLACK
6
CONTINUOUS
10
1.43142
20
0.537913
11
1.50858
21
0.537913
0
LINE
8
BLACK
6
CONTINUOUS
10
1.50858
20
0.537913
11
1.50928
21
0.537625
0
LINE
8
BLACK
6
CONTINUOUS
10
1.50928
20
0.537625
11
1.50957
21
0.536929
0
LINE
8
BLACK
6
CONTINUOUS
10
1.50957
20
0.536929
11
1.50957
21
0.403071
0
LINE
8
BLACK
6
CONTINUOUS
10
1.50957
20
0.403071
11
1.50928
21
0.402375
0
LINE
8
BLACK
6
CONTINUOUS
10
1.50928
20
0.402375
11
1.50858
21
0.402087
0
LINE
8
BLACK
6
CONTINUOUS
10
1.50858
20
0.402087
11
1.43142
21
0.402087
0
LINE
8
BLACK
6
CONTINUOUS
10
1.43142
20
0.402087
11
1.43072
21
0.402375
0
LINE
8
BLACK
6
CONTINUOUS
10
1.4324
20
0.535945
11
1.4324
21
0.404055
0
LINE
8
BLACK
6
CONTINUOUS
10
1.4324
20
0.404055
11
1.5076
21
0.404055
0
LINE
8
BLACK
6
CONTINUOUS
10
1.5076
20
0.404055
11
1.5076
21
0.535945
0
LINE
8
BLACK
6
CONTINUOUS
10
1.5076
20
0.535945
11
1.4324
21
0.535945
0
LINE
8
BLACK
6
CONTINUOUS
10
0.289087
20
0.411902
11
0.288799
21
0.412598
0
LINE
8
BLACK
6
CONTINUOUS
10
0.288799
20
0.412598
11
0.288799
21
0.487402
0
LINE
8
BLACK
6
CONTINUOUS
10
0.288799
20
0.487402
11
0.289087
21
0.488098
0
LINE
8
BLACK
6
CONTINUOUS
10
0.289087
20
0.488098
11
0.289783
21
0.488386
0
LINE
8
BLACK
6
CONTINUOUS
10
0.289783
20
0.488386
11
0.422067
21
0.488386
0
LINE
8
BLACK
6
CONTINUOUS
10
0.422067
20
0.488386
11
0.422763
21
0.488098
0
LINE
8
BLACK
6
CONTINUOUS
10
0.422763
20
0.488098
11
0.423051
21
0.487402
0
LINE
8
BLACK
6
CONTINUOUS
10
0.423051
20
0.487402
11
0.423051
21
0.412598
0
LINE
8
BLACK
6
CONTINUOUS
10
0.423051
20
0.412598
11
0.422763
21
0.411902
0
LINE
8
BLACK
6
CONTINUOUS
10
0.422763
20
0.411902
11
0.422067
21
0.411614
0
LINE
8
BLACK
6
CONTINUOUS
10
0.422067
20
0.411614
11
0.289783
21
0.411614
0
LINE
8
BLACK
6
CONTINUOUS
10
0.289783
20
0.411614
11
0.289087
21
0.411902
0
LINE
8
BLACK
6
CONTINUOUS
10
0.290768
20
0.486417
11
0.290768
21
0.413583
0
LINE
8
BLACK
6
CONTINUOUS
10
0.290768
20
0.413583
11
0.421083
21
0.413583
0
LINE
8
BLACK
6
CONTINUOUS
10
0.421083
20
0.413583
11
0.421083
21
0.486417
0
LINE
8
BLACK
6
CONTINUOUS
10
0.421083
20
0.486417
11
0.290768
21
0.486417
0
LINE
8
BLACK
6
CONTINUOUS
10
0.803162
20
0.411902
11
0.802874
21
0.412598
0
LINE
8
BLACK
6
CONTINUOUS
10
0.802874
20
0.412598
11
0.802874
21
0.487402
0
LINE
8
BLACK
6
CONTINUOUS
10
0.802874
20
0.487402
11
0.803162
21
0.488098
0
LINE
8
BLACK
6
CONTINUOUS
10
0.803162
20
0.488098
11
0.803858
21
0.488386
0
LINE
8
BLACK
6
CONTINUOUS
10
0.803858
20
0.488386
11
0.936142
21
0.488386
0
LINE
8
BLACK
6
CONTINUOUS
10
0.936142
20
0.488386
11
0.936838
21
0.488098
0
LINE
8
BLACK
6
CONTINUOUS
10
0.936838
20
0.488098
11
0.937126
21
0.487402
0
LINE
8
BLACK
6
CONTINUOUS
10
0.937126
20
0.487402
11
0.937126
21
0.412598
0
LINE
8
BLACK
6
CONTINUOUS
10
0.937126
20
0.412598
11
0.936838
21
0.411902
0
LINE
8
BLACK
6
CONTINUOUS
10
0.936838
20
0.411902
11
0.936142
21
0.411614
0
LINE
8
BLACK
6
CONTINUOUS
10
0.936142
20
0.411614
11
0.803858
21
0.411614
0
LINE
8
BLACK
6
CONTINUOUS
10
0.803858
20
0.411614
11
0.803162
21
0.411902
0
LINE
8
BLACK
6
CONTINUOUS
10
0.804843
20
0.486417
11
0.804843
21
0.413583
0
LINE
8
BLACK
6
CONTINUOUS
10
0.804843
20
0.413583
11
0.935157
21
0.413583
0
LINE
8
BLACK
6
CONTINUOUS
10
0.935157
20
0.413583
11
0.935157
21
0.486417
0
LINE
8
BLACK
6
CONTINUOUS
10
0.935157
20
0.486417
11
0.804843
21
0.486417
0
LINE
8
BLACK
6
CONTINUOUS
10
0.543162
20
0.411902
11
0.542874
21
0.412598
0
LINE
8
BLACK
6
CONTINUOUS
10
0.542874
20
0.412598
11
0.542874
21
0.487402
0
LINE
8
BLACK
6
CONTINUOUS
10
0.542874
20
0.487402
11
0.543162
21
0.488098
0
LINE
8
BLACK
6
CONTINUOUS
10
0.543162
20
0.488098
11
0.543858
21
0.488386
0
LINE
8
BLACK
6
CONTINUOUS
10
0.543858
20
0.488386
11
0.676142
21
0.488386
0
LINE
8
BLACK
6
CONTINUOUS
10
0.676142
20
0.488386
11
0.676838
21
0.488098
0
LINE
8
BLACK
6
CONTINUOUS
10
0.676838
20
0.488098
11
0.677126
21
0.487402
0
LINE
8
BLACK
6
CONTINUOUS
10
0.677126
20
0.487402
11
0.677126
21
0.412598
0
LINE
8
BLACK
6
CONTINUOUS
10
0.677126
20
0.412598
11
0.676838
21
0.411902
0
LINE
8
BLACK
6
CONTINUOUS
10
0.676838
20
0.411902
11
0.676142
21
0.411614
0
LINE
8
BLACK
6
CONTINUOUS
10
0.676142
20
0.411614
11
0.543858
21
0.411614
0
LINE
8
BLACK
6
CONTINUOUS
10
0.543858
20
0.411614
11
0.543162
21
0.411902
0
LINE
8
BLACK
6
CONTINUOUS
10
0.544843
20
0.486417
11
0.544843
21
0.413583
0
LINE
8
BLACK
6
CONTINUOUS
10
0.544843
20
0.413583
11
0.675157
21
0.413583
0
LINE
8
BLACK
6
CONTINUOUS
10
0.675157
20
0.413583
11
0.675157
21
0.486417
0
LINE
8
BLACK
6
CONTINUOUS
10
0.675157
20
0.486417
11
0.544843
21
0.486417
0
LINE
8
BLACK
6
CONTINUOUS
10
0.180721
20
0.412375
11
0.180433
21
0.413071
0
LINE
8
BLACK
6
CONTINUOUS
10
0.180433
20
0.413071
11
0.180433
21
0.546929
0
LINE
8
BLACK
6
CONTINUOUS
10
0.180433
20
0.546929
11
0.180721
21
0.547625
0
LINE
8
BLACK
6
CONTINUOUS
10
0.180721
20
0.547625
11
0.181417
21
0.547913
0
LINE
8
BLACK
6
CONTINUOUS
10
0.181417
20
0.547913
11
0.258583
21
0.547913
0
LINE
8
BLACK
6
CONTINUOUS
10
0.258583
20
0.547913
11
0.259279
21
0.547625
0
LINE
8
BLACK
6
CONTINUOUS
10
0.259279
20
0.547625
11
0.259567
21
0.546929
0
LINE
8
BLACK
6
CONTINUOUS
10
0.259567
20
0.546929
11
0.259567
21
0.413071
0
LINE
8
BLACK
6
CONTINUOUS
10
0.259567
20
0.413071
11
0.259279
21
0.412375
0
LINE
8
BLACK
6
CONTINUOUS
10
0.259279
20
0.412375
11
0.258583
21
0.412087
0
LINE
8
BLACK
6
CONTINUOUS
10
0.258583
20
0.412087
11
0.181417
21
0.412087
0
LINE
8
BLACK
6
CONTINUOUS
10
0.181417
20
0.412087
11
0.180721
21
0.412375
0
LINE
8
BLACK
6
CONTINUOUS
10
0.182402
20
0.545945
11
0.182402
21
0.414055
0
LINE
8
BLACK
6
CONTINUOUS
10
0.182402
20
0.414055
11
0.257598
21
0.414055
0
LINE
8
BLACK
6
CONTINUOUS
10
0.257598
20
0.414055
11
0.257598
21
0.545945
0
LINE
8
BLACK
6
CONTINUOUS
10
0.257598
20
0.545945
11
0.182402
21
0.545945
0
LINE
8
BLACK
6
CONTINUOUS
10
1.07072
20
0.412375
11
1.07043
21
0.413071
0
LINE
8
BLACK
6
CONTINUOUS
10
1.07043
20
0.413071
11
1.07043
21
0.546929
0
LINE
8
BLACK
6
CONTINUOUS
10
1.07043
20
0.546929
11
1.07072
21
0.547625
0
LINE
8
BLACK
6
CONTINUOUS
10
1.07072
20
0.547625
11
1.07142
21
0.547913
0
LINE
8
BLACK
6
CONTINUOUS
10
1.07142
20
0.547913
11
1.14858
21
0.547913
0
LINE
8
BLACK
6
CONTINUOUS
10
1.14858
20
0.547913
11
1.14928
21
0.547625
0
LINE
8
BLACK
6
CONTINUOUS
10
1.14928
20
0.547625
11
1.14957
21
0.546929
0
LINE
8
BLACK
6
CONTINUOUS
10
1.14957
20
0.546929
11
1.14957
21
0.413071
0
LINE
8
BLACK
6
CONTINUOUS
10
1.14957
20
0.413071
11
1.14928
21
0.412375
0
LINE
8
BLACK
6
CONTINUOUS
10
1.14928
20
0.412375
11
1.14858
21
0.412087
0
LINE
8
BLACK
6
CONTINUOUS
10
1.14858
20
0.412087
11
1.07142
21
0.412087
0
LINE
8
BLACK
6
CONTINUOUS
10
1.07142
20
0.412087
11
1.07072
21
0.412375
0
LINE
8
BLACK
6
CONTINUOUS
10
1.0724
20
0.545945
11
1.0724
21
0.414055
0
LINE
8
BLACK
6
CONTINUOUS
10
1.0724
20
0.414055
11
1.1476
21
0.414055
0
LINE
8
BLACK
6
CONTINUOUS
10
1.1476
20
0.414055
11
1.1476
21
0.545945
0
LINE
8
BLACK
6
CONTINUOUS
10
1.1476
20
0.545945
11
1.0724
21
0.545945
0
LINE
8
BLACK
6
CONTINUOUS
10
0.450721
20
0.412375
11
0.450433
21
0.413071
0
LINE
8
BLACK
6
CONTINUOUS
10
0.450433
20
0.413071
11
0.450433
21
0.546929
0
LINE
8
BLACK
6
CONTINUOUS
10
0.450433
20
0.546929
11
0.450721
21
0.547625
0
LINE
8
BLACK
6
CONTINUOUS
10
0.450721
20
0.547625
11
0.451417
21
0.547913
0
LINE
8
BLACK
6
CONTINUOUS
10
0.451417
20
0.547913
11
0.528583
21
0.547913
0
LINE
8
BLACK
6
CONTINUOUS
10
0.528583
20
0.547913
11
0.529279
21
0.547625
0
LINE
8
BLACK
6
CONTINUOUS
10
0.529279
20
0.547625
11
0.529567
21
0.546929
0
LINE
8
BLACK
6
CONTINUOUS
10
0.529567
20
0.546929
11
0.529567
21
0.413071
0
LINE
8
BLACK
6
CONTINUOUS
10
0.529567
20
0.413071
11
0.529279
21
0.412375
0
LINE
8
BLACK
6
CONTINUOUS
10
0.529279
20
0.412375
11
0.528583
21
0.412087
0
LINE
8
BLACK
6
CONTINUOUS
10
0.528583
20
0.412087
11
0.451417
21
0.412087
0
LINE
8
BLACK
6
CONTINUOUS
10
0.451417
20
0.412087
11
0.450721
21
0.412375
0
LINE
8
BLACK
6
CONTINUOUS
10
0.452402
20
0.545945
11
0.452402
21
0.414055
0
LINE
8
BLACK
6
CONTINUOUS
10
0.452402
20
0.414055
11
0.527598
21
0.414055
0
LINE
8
BLACK
6
CONTINUOUS
10
0.527598
20
0.414055
11
0.527598
21
0.545945
0
LINE
8
BLACK
6
CONTINUOUS
10
0.527598
20
0.545945
11
0.452402
21
0.545945
0
LINE
8
BLACK
6
CONTINUOUS
10
0.710721
20
0.412375
11
0.710433
21
0.413071
0
LINE
8
BLACK
6
CONTINUOUS
10
0.710433
20
0.413071
11
0.710433
21
0.546929
0
LINE
8
BLACK
6
CONTINUOUS
10
0.710433
20
0.546929
11
0.710721
21
0.547625
0
LINE
8
BLACK
6
CONTINUOUS
10
0.710721
20
0.547625
11
0.711417
21
0.547913
0
LINE
8
BLACK
6
CONTINUOUS
10
0.711417
20
0.547913
11
0.788583
21
0.547913
0
LINE
8
BLACK
6
CONTINUOUS
10
0.788583
20
0.547913
11
0.789279
21
0.547625
0
LINE
8
BLACK
6
CONTINUOUS
10
0.789279
20
0.547625
11
0.789567
21
0.546929
0
LINE
8
BLACK
6
CONTINUOUS
10
0.789567
20
0.546929
11
0.789567
21
0.413071
0
LINE
8
BLACK
6
CONTINUOUS
10
0.789567
20
0.413071
11
0.789279
21
0.412375
0
LINE
8
BLACK
6
CONTINUOUS
10
0.789279
20
0.412375
11
0.788583
21
0.412087
0
LINE
8
BLACK
6
CONTINUOUS
10
0.788583
20
0.412087
11
0.711417
21
0.412087
0
LINE
8
BLACK
6
CONTINUOUS
10
0.711417
20
0.412087
11
0.710721
21
0.412375
0
LINE
8
BLACK
6
CONTINUOUS
10
0.712402
20
0.545945
11
0.712402
21
0.414055
0
LINE
8
BLACK
6
CONTINUOUS
10
0.712402
20
0.414055
11
0.787598
21
0.414055
0
LINE
8
BLACK
6
CONTINUOUS
10
0.787598
20
0.414055
11
0.787598
21
0.545945
0
LINE
8
BLACK
6
CONTINUOUS
10
0.787598
20
0.545945
11
0.712402
21
0.545945
0
LINE
8
BLACK
6
CONTINUOUS
10
0.0807213
20
0.412375
11
0.0804331
21
0.413071
0
LINE
8
BLACK
6
CONTINUOUS
10
0.0804331
20
0.413071
11
0.0804331
21
0.546929
0
LINE
8
BLACK
6
CONTINUOUS
10
0.0804331
20
0.546929
11
0.0807213
21
0.547625
0
LINE
8
BLACK
6
CONTINUOUS
10
0.0807213
20
0.547625
11
0.0814173
21
0.547913
0
LINE
8
BLACK
6
CONTINUOUS
10
0.0814173
20
0.547913
11
0.158583
21
0.547913
0
LINE
8
BLACK
6
CONTINUOUS
10
0.158583
20
0.547913
11
0.159279
21
0.547625
0
LINE
8
BLACK
6
CONTINUOUS
10
0.159279
20
0.547625
11
0.159567
21
0.546929
0
LINE
8
BLACK
6
CONTINUOUS
10
0.159567
20
0.546929
11
0.159567
21
0.413071
0
LINE
8
BLACK
6
CONTINUOUS
10
0.159567
20
0.413071
11
0.159279
21
0.412375
0
LINE
8
BLACK
6
CONTINUOUS
10
0.159279
20
0.412375
11
0.158583
21
0.412087
0
LINE
8
BLACK
6
CONTINUOUS
10
0.158583
20
0.412087
11
0.0814173
21
0.412087
0
LINE
8
BLACK
6
CONTINUOUS
10
0.0814173
20
0.412087
11
0.0807213
21
0.412375
0
LINE
8
BLACK
6
CONTINUOUS
10
0.0824016
20
0.545945
11
0.0824016
21
0.414055
0
LINE
8
BLACK
6
CONTINUOUS
10
0.0824016
20
0.414055
11
0.157598
21
0.414055
0
LINE
8
BLACK
6
CONTINUOUS
10
0.157598
20
0.414055
11
0.157598
21
0.545945
0
LINE
8
BLACK
6
CONTINUOUS
10
0.157598
20
0.545945
11
0.0824016
21
0.545945
0
LINE
8
BLACK
6
CONTINUOUS
10
0.960721
20
0.412375
11
0.960433
21
0.413071
0
LINE
8
BLACK
6
CONTINUOUS
10
0.960433
20
0.413071
11
0.960433
21
0.546929
0
LINE
8
BLACK
6
CONTINUOUS
10
0.960433
20
0.546929
11
0.960721
21
0.547625
0
LINE
8
BLACK
6
CONTINUOUS
10
0.960721
20
0.547625
11
0.961417
21
0.547913
0
LINE
8
BLACK
6
CONTINUOUS
10
0.961417
20
0.547913
11
1.03858
21
0.547913
0
LINE
8
BLACK
6
CONTINUOUS
10
1.03858
20
0.547913
11
1.03928
21
0.547625
0
LINE
8
BLACK
6
CONTINUOUS
10
1.03928
20
0.547625
11
1.03957
21
0.546929
0
LINE
8
BLACK
6
CONTINUOUS
10
1.03957
20
0.546929
11
1.03957
21
0.413071
0
LINE
8
BLACK
6
CONTINUOUS
10
1.03957
20
0.413071
11
1.03928
21
0.412375
0
LINE
8
BLACK
6
CONTINUOUS
10
1.03928
20
0.412375
11
1.03858
21
0.412087
0
LINE
8
BLACK
6
CONTINUOUS
10
1.03858
20
0.412087
11
0.961417
21
0.412087
0
LINE
8
BLACK
6
CONTINUOUS
10
0.961417
20
0.412087
11
0.960721
21
0.412375
0
LINE
8
BLACK
6
CONTINUOUS
10
0.962402
20
0.545945
11
0.962402
21
0.414055
0
LINE
8
BLACK
6
CONTINUOUS
10
0.962402
20
0.414055
11
1.0376
21
0.414055
0
LINE
8
BLACK
6
CONTINUOUS
10
1.0376
20
0.414055
11
1.0376
21
0.545945
0
LINE
8
BLACK
6
CONTINUOUS
10
1.0376
20
0.545945
11
0.962402
21
0.545945
0
LINE
8
BLACK
6
CONTINUOUS
10
1.32072
20
0.412375
11
1.32043
21
0.413071
0
LINE
8
BLACK
6
CONTINUOUS
10
1.32043
20
0.413071
11
1.32043
21
0.546929
0
LINE
8
BLACK
6
CONTINUOUS
10
1.32043
20
0.546929
11
1.32072
21
0.547625
0
LINE
8
BLACK
6
CONTINUOUS
10
1.32072
20
0.547625
11
1.32142
21
0.547913
0
LINE
8
BLACK
6
CONTINUOUS
10
1.32142
20
0.547913
11
1.39858
21
0.547913
0
LINE
8
BLACK
6
CONTINUOUS
10
1.39858
20
0.547913
11
1.39928
21
0.547625
0
LINE
8
BLACK
6
CONTINUOUS
10
1.39928
20
0.547625
11
1.39957
21
0.546929
0
LINE
8
BLACK
6
CONTINUOUS
10
1.39957
20
0.546929
11
1.39957
21
0.413071
0
LINE
8
BLACK
6
CONTINUOUS
10
1.39957
20
0.413071
11
1.39928
21
0.412375
0
LINE
8
BLACK
6
CONTINUOUS
10
1.39928
20
0.412375
11
1.39858
21
0.412087
0
LINE
8
BLACK
6
CONTINUOUS
10
1.39858
20
0.412087
11
1.32142
21
0.412087
0
LINE
8
BLACK
6
CONTINUOUS
10
1.32142
20
0.412087
11
1.32072
21
0.412375
0
LINE
8
BLACK
6
CONTINUOUS
10
1.3224
20
0.545945
11
1.3224
21
0.414055
0
LINE
8
BLACK
6
CONTINUOUS
10
1.3224
20
0.414055
11
1.3976
21
0.414055
0
LINE
8
BLACK
6
CONTINUOUS
10
1.3976
20
0.414055
11
1.3976
21
0.545945
0
LINE
8
BLACK
6
CONTINUOUS
10
1.3976
20
0.545945
11
1.3224
21
0.545945
0
LINE
8
BLACK
6
CONTINUOUS
10
1.62009
20
0.481745
11
1.6198
21
0.482441
0
LINE
8
BLACK
6
CONTINUOUS
10
1.6198
20
0.482441
11
1.6198
21
0.537559
0
LINE
8
BLACK
6
CONTINUOUS
10
1.6198
20
0.537559
11
1.62009
21
0.538255
0
LINE
8
BLACK
6
CONTINUOUS
10
1.62009
20
0.538255
11
1.62079
21
0.538543
0
LINE
8
BLACK
6
CONTINUOUS
10
1.62079
20
0.538543
11
1.71921
21
0.538543
0
LINE
8
BLACK
6
CONTINUOUS
10
1.71921
20
0.538543
11
1.71991
21
0.538255
0
LINE
8
BLACK
6
CONTINUOUS
10
1.71991
20
0.538255
11
1.7202
21
0.537559
0
LINE
8
BLACK
6
CONTINUOUS
10
1.7202
20
0.537559
11
1.7202
21
0.482441
0
LINE
8
BLACK
6
CONTINUOUS
10
1.7202
20
0.482441
11
1.71991
21
0.481745
0
LINE
8
BLACK
6
CONTINUOUS
10
1.71991
20
0.481745
11
1.71921
21
0.481457
0
LINE
8
BLACK
6
CONTINUOUS
10
1.71921
20
0.481457
11
1.62079
21
0.481457
0
LINE
8
BLACK
6
CONTINUOUS
10
1.62079
20
0.481457
11
1.62009
21
0.481745
0
LINE
8
BLACK
6
CONTINUOUS
10
1.62177
20
0.536575
11
1.62177
21
0.483425
0
LINE
8
BLACK
6
CONTINUOUS
10
1.62177
20
0.483425
11
1.71823
21
0.483425
0
LINE
8
BLACK
6
CONTINUOUS
10
1.71823
20
0.483425
11
1.71823
21
0.536575
0
LINE
8
BLACK
6
CONTINUOUS
10
1.71823
20
0.536575
11
1.62177
21
0.536575
  0
ENDSEC
  0
EOF
