  0
SECTION
  2
HEADER
  9
$ANGBASE
  50
0.0
  9
$ANGDIR
  70
1
  9
$MEASUREMENT
  70
0
  0
ENDSEC
  0
SECTION
  2
TABLES
  0
TABLE
  2
LTYPE
  70
4
  0
LTYPE
  5
40F
  2
CONTINUOUS
  70
0
  3
Solid line
  72
65
  73
0
  40
0.0
  0
LTYPE
  5
410
  2
DASHDOT
 70
0
  3
Dash Dot ____ _ ____ _
 72
65
 73
4
 40
2.0
 49
1.25
 49
-0.25
 49
0.25
 49
-0.25
  0
LTYPE
  5
411
  2
DASHED
 70
0
  3
Dashed __ __ __ __ __
 72
65
 73
2
 40
0.75
 49
0.5
 49
-0.25
  0
LTYPE
  5
43B
  2
DOTTED
 70
0
  3
Dotted .  .  .  .
 72
65
 73
2
 40
0.2
 49
0.0
 49
-0.2
  0
ENDTAB
  0
TABLE
  2
STYLE
  70
4
  0
STYLE
  2
KICAD
  70
0
  40
0
  41
1
  42
1
  50
0
  71
0
  3
isocp.shx
  0
STYLE
  2
KICADB
  70
0
  40
0
  41
1
  42
1
  50
0
  71
0
  3
isocp.shx
  0
STYLE
  2
KICADI
  70
0
  40
0
  41
1
  42
1
  50
15
  71
0
  3
isocp.shx
  0
STYLE
  2
KICADBI
  70
0
  40
0
  41
1
  42
1
  50
15
  71
0
  3
isocp.shx
  0
ENDTAB
  0
TABLE
  2
LAYER
  70
1
  0
LAYER
  2
BLACK
  70
0
  62
7
  6
CONTINUOUS
  0
ENDTAB
  0
ENDSEC
  0
SECTION
  2
ENTITIES
0
LINE
8
BLACK
6
CONTINUOUS
10
1.14789
20
0.0496165
11
1.14791
21
0.0494872
0
LINE
8
BLACK
6
CONTINUOUS
10
1.14791
20
0.0494872
11
1.14784
21
0.0493736
0
LINE
8
BLACK
6
CONTINUOUS
10
1.14784
20
0.0493736
11
1.14777
21
0.0489901
0
LINE
8
BLACK
6
CONTINUOUS
10
1.14777
20
0.0489901
11
1.14728
21
0.0484024
0
LINE
8
BLACK
6
CONTINUOUS
10
1.14728
20
0.0484024
11
1.1469
21
0.0477381
0
LINE
8
BLACK
6
CONTINUOUS
10
1.1469
20
0.0477381
11
1.14665
21
0.047647
0
LINE
8
BLACK
6
CONTINUOUS
10
1.14665
20
0.047647
11
1.14648
21
0.0474428
0
LINE
8
BLACK
6
CONTINUOUS
10
1.14648
20
0.0474428
11
1.14572
21
0.0473096
0
LINE
8
BLACK
6
CONTINUOUS
10
1.14572
20
0.0473096
11
1.145
21
0.0470472
0
LINE
8
BLACK
6
CONTINUOUS
10
1.145
20
0.0470472
11
0.945
21
0.0470472
0
LINE
8
BLACK
6
CONTINUOUS
10
0.945
20
0.0470472
11
0.944616
21
0.0471149
0
LINE
8
BLACK
6
CONTINUOUS
10
0.944616
20
0.0471149
11
0.944487
21
0.0470921
0
LINE
8
BLACK
6
CONTINUOUS
10
0.944487
20
0.0470921
11
0.944374
21
0.0471577
0
LINE
8
BLACK
6
CONTINUOUS
10
0.944374
20
0.0471577
11
0.94399
21
0.0472253
0
LINE
8
BLACK
6
CONTINUOUS
10
0.94399
20
0.0472253
11
0.943402
21
0.0477185
0
LINE
8
BLACK
6
CONTINUOUS
10
0.943402
20
0.0477185
11
0.942738
21
0.048102
0
LINE
8
BLACK
6
CONTINUOUS
10
0.942738
20
0.048102
11
0.942647
21
0.0483524
0
LINE
8
BLACK
6
CONTINUOUS
10
0.942647
20
0.0483524
11
0.942443
21
0.0485236
0
LINE
8
BLACK
6
CONTINUOUS
10
0.942443
20
0.0485236
11
0.94231
21
0.0492792
0
LINE
8
BLACK
6
CONTINUOUS
10
0.94231
20
0.0492792
11
0.942047
21
0.05
0
LINE
8
BLACK
6
CONTINUOUS
10
0.942047
20
0.05
11
0.942047
21
0.35
0
LINE
8
BLACK
6
CONTINUOUS
10
0.942047
20
0.35
11
0.942115
21
0.350384
0
LINE
8
BLACK
6
CONTINUOUS
10
0.942115
20
0.350384
11
0.942092
21
0.350513
0
LINE
8
BLACK
6
CONTINUOUS
10
0.942092
20
0.350513
11
0.942158
21
0.350626
0
LINE
8
BLACK
6
CONTINUOUS
10
0.942158
20
0.350626
11
0.942225
21
0.35101
0
LINE
8
BLACK
6
CONTINUOUS
10
0.942225
20
0.35101
11
0.942718
21
0.351598
0
LINE
8
BLACK
6
CONTINUOUS
10
0.942718
20
0.351598
11
0.943102
21
0.352262
0
LINE
8
BLACK
6
CONTINUOUS
10
0.943102
20
0.352262
11
0.943352
21
0.352353
0
LINE
8
BLACK
6
CONTINUOUS
10
0.943352
20
0.352353
11
0.943524
21
0.352557
0
LINE
8
BLACK
6
CONTINUOUS
10
0.943524
20
0.352557
11
0.944279
21
0.35269
0
LINE
8
BLACK
6
CONTINUOUS
10
0.944279
20
0.35269
11
0.945
21
0.352953
0
LINE
8
BLACK
6
CONTINUOUS
10
0.945
20
0.352953
11
1.145
21
0.352953
0
LINE
8
BLACK
6
CONTINUOUS
10
1.145
20
0.352953
11
1.14538
21
0.352885
0
LINE
8
BLACK
6
CONTINUOUS
10
1.14538
20
0.352885
11
1.14551
21
0.352908
0
LINE
8
BLACK
6
CONTINUOUS
10
1.14551
20
0.352908
11
1.14563
21
0.352842
0
LINE
8
BLACK
6
CONTINUOUS
10
1.14563
20
0.352842
11
1.14601
21
0.352775
0
LINE
8
BLACK
6
CONTINUOUS
10
1.14601
20
0.352775
11
1.1466
21
0.352282
0
LINE
8
BLACK
6
CONTINUOUS
10
1.1466
20
0.352282
11
1.14726
21
0.351898
0
LINE
8
BLACK
6
CONTINUOUS
10
1.14726
20
0.351898
11
1.14735
21
0.351648
0
LINE
8
BLACK
6
CONTINUOUS
10
1.14735
20
0.351648
11
1.14756
21
0.351476
0
LINE
8
BLACK
6
CONTINUOUS
10
1.14756
20
0.351476
11
1.14769
21
0.350721
0
LINE
8
BLACK
6
CONTINUOUS
10
1.14769
20
0.350721
11
1.14795
21
0.35
0
LINE
8
BLACK
6
CONTINUOUS
10
1.14795
20
0.35
11
1.14795
21
0.05
0
LINE
8
BLACK
6
CONTINUOUS
10
1.14795
20
0.05
11
1.14789
21
0.0496165
0
LINE
8
BLACK
6
CONTINUOUS
10
0.947953
20
0.147047
11
0.947953
21
0.0529528
0
LINE
8
BLACK
6
CONTINUOUS
10
0.947953
20
0.0529528
11
1.14205
21
0.0529528
0
LINE
8
BLACK
6
CONTINUOUS
10
1.14205
20
0.0529528
11
1.14205
21
0.147047
0
LINE
8
BLACK
6
CONTINUOUS
10
1.14205
20
0.147047
11
0.947953
21
0.147047
0
LINE
8
BLACK
6
CONTINUOUS
10
0.947953
20
0.247047
11
0.947953
21
0.152953
0
LINE
8
BLACK
6
CONTINUOUS
10
0.947953
20
0.152953
11
1.14205
21
0.152953
0
LINE
8
BLACK
6
CONTINUOUS
10
1.14205
20
0.152953
11
1.14205
21
0.247047
0
LINE
8
BLACK
6
CONTINUOUS
10
1.14205
20
0.247047
11
0.947953
21
0.247047
0
LINE
8
BLACK
6
CONTINUOUS
10
0.947953
20
0.347047
11
0.947953
21
0.252953
0
LINE
8
BLACK
6
CONTINUOUS
10
0.947953
20
0.252953
11
1.14205
21
0.252953
0
LINE
8
BLACK
6
CONTINUOUS
10
1.14205
20
0.252953
11
1.14205
21
0.347047
0
LINE
8
BLACK
6
CONTINUOUS
10
1.14205
20
0.347047
11
0.947953
21
0.347047
0
LINE
8
BLACK
6
CONTINUOUS
10
1.14789
20
0.569616
11
1.14791
21
0.569487
0
LINE
8
BLACK
6
CONTINUOUS
10
1.14791
20
0.569487
11
1.14784
21
0.569374
0
LINE
8
BLACK
6
CONTINUOUS
10
1.14784
20
0.569374
11
1.14777
21
0.56899
0
LINE
8
BLACK
6
CONTINUOUS
10
1.14777
20
0.56899
11
1.14728
21
0.568402
0
LINE
8
BLACK
6
CONTINUOUS
10
1.14728
20
0.568402
11
1.1469
21
0.567738
0
LINE
8
BLACK
6
CONTINUOUS
10
1.1469
20
0.567738
11
1.14665
21
0.567647
0
LINE
8
BLACK
6
CONTINUOUS
10
1.14665
20
0.567647
11
1.14648
21
0.567443
0
LINE
8
BLACK
6
CONTINUOUS
10
1.14648
20
0.567443
11
1.14572
21
0.56731
0
LINE
8
BLACK
6
CONTINUOUS
10
1.14572
20
0.56731
11
1.145
21
0.567047
0
LINE
8
BLACK
6
CONTINUOUS
10
1.145
20
0.567047
11
0.945
21
0.567047
0
LINE
8
BLACK
6
CONTINUOUS
10
0.945
20
0.567047
11
0.944616
21
0.567115
0
LINE
8
BLACK
6
CONTINUOUS
10
0.944616
20
0.567115
11
0.944487
21
0.567092
0
LINE
8
BLACK
6
CONTINUOUS
10
0.944487
20
0.567092
11
0.944374
21
0.567158
0
LINE
8
BLACK
6
CONTINUOUS
10
0.944374
20
0.567158
11
0.94399
21
0.567225
0
LINE
8
BLACK
6
CONTINUOUS
10
0.94399
20
0.567225
11
0.943402
21
0.567718
0
LINE
8
BLACK
6
CONTINUOUS
10
0.943402
20
0.567718
11
0.942738
21
0.568102
0
LINE
8
BLACK
6
CONTINUOUS
10
0.942738
20
0.568102
11
0.942647
21
0.568352
0
LINE
8
BLACK
6
CONTINUOUS
10
0.942647
20
0.568352
11
0.942443
21
0.568524
0
LINE
8
BLACK
6
CONTINUOUS
10
0.942443
20
0.568524
11
0.94231
21
0.569279
0
LINE
8
BLACK
6
CONTINUOUS
10
0.94231
20
0.569279
11
0.942047
21
0.57
0
LINE
8
BLACK
6
CONTINUOUS
10
0.942047
20
0.57
11
0.942047
21
0.97
0
LINE
8
BLACK
6
CONTINUOUS
10
0.942047
20
0.97
11
0.942115
21
0.970384
0
LINE
8
BLACK
6
CONTINUOUS
10
0.942115
20
0.970384
11
0.942092
21
0.970513
0
LINE
8
BLACK
6
CONTINUOUS
10
0.942092
20
0.970513
11
0.942158
21
0.970626
0
LINE
8
BLACK
6
CONTINUOUS
10
0.942158
20
0.970626
11
0.942225
21
0.97101
0
LINE
8
BLACK
6
CONTINUOUS
10
0.942225
20
0.97101
11
0.942718
21
0.971598
0
LINE
8
BLACK
6
CONTINUOUS
10
0.942718
20
0.971598
11
0.943102
21
0.972262
0
LINE
8
BLACK
6
CONTINUOUS
10
0.943102
20
0.972262
11
0.943352
21
0.972353
0
LINE
8
BLACK
6
CONTINUOUS
10
0.943352
20
0.972353
11
0.943524
21
0.972557
0
LINE
8
BLACK
6
CONTINUOUS
10
0.943524
20
0.972557
11
0.944279
21
0.97269
0
LINE
8
BLACK
6
CONTINUOUS
10
0.944279
20
0.97269
11
0.945
21
0.972953
0
LINE
8
BLACK
6
CONTINUOUS
10
0.945
20
0.972953
11
1.145
21
0.972953
0
LINE
8
BLACK
6
CONTINUOUS
10
1.145
20
0.972953
11
1.14538
21
0.972885
0
LINE
8
BLACK
6
CONTINUOUS
10
1.14538
20
0.972885
11
1.14551
21
0.972908
0
LINE
8
BLACK
6
CONTINUOUS
10
1.14551
20
0.972908
11
1.14563
21
0.972842
0
LINE
8
BLACK
6
CONTINUOUS
10
1.14563
20
0.972842
11
1.14601
21
0.972775
0
LINE
8
BLACK
6
CONTINUOUS
10
1.14601
20
0.972775
11
1.1466
21
0.972282
0
LINE
8
BLACK
6
CONTINUOUS
10
1.1466
20
0.972282
11
1.14726
21
0.971898
0
LINE
8
BLACK
6
CONTINUOUS
10
1.14726
20
0.971898
11
1.14735
21
0.971648
0
LINE
8
BLACK
6
CONTINUOUS
10
1.14735
20
0.971648
11
1.14756
21
0.971476
0
LINE
8
BLACK
6
CONTINUOUS
10
1.14756
20
0.971476
11
1.14769
21
0.970721
0
LINE
8
BLACK
6
CONTINUOUS
10
1.14769
20
0.970721
11
1.14795
21
0.97
0
LINE
8
BLACK
6
CONTINUOUS
10
1.14795
20
0.97
11
1.14795
21
0.57
0
LINE
8
BLACK
6
CONTINUOUS
10
1.14795
20
0.57
11
1.14789
21
0.569616
0
LINE
8
BLACK
6
CONTINUOUS
10
0.947953
20
0.667047
11
0.947953
21
0.572953
0
LINE
8
BLACK
6
CONTINUOUS
10
0.947953
20
0.572953
11
1.14205
21
0.572953
0
LINE
8
BLACK
6
CONTINUOUS
10
1.14205
20
0.572953
11
1.14205
21
0.667047
0
LINE
8
BLACK
6
CONTINUOUS
10
1.14205
20
0.667047
11
0.947953
21
0.667047
0
LINE
8
BLACK
6
CONTINUOUS
10
0.947953
20
0.767047
11
0.947953
21
0.672953
0
LINE
8
BLACK
6
CONTINUOUS
10
0.947953
20
0.672953
11
1.14205
21
0.672953
0
LINE
8
BLACK
6
CONTINUOUS
10
1.14205
20
0.672953
11
1.14205
21
0.767047
0
LINE
8
BLACK
6
CONTINUOUS
10
1.14205
20
0.767047
11
0.947953
21
0.767047
0
LINE
8
BLACK
6
CONTINUOUS
10
0.947953
20
0.867047
11
0.947953
21
0.772953
0
LINE
8
BLACK
6
CONTINUOUS
10
0.947953
20
0.772953
11
1.14205
21
0.772953
0
LINE
8
BLACK
6
CONTINUOUS
10
1.14205
20
0.772953
11
1.14205
21
0.867047
0
LINE
8
BLACK
6
CONTINUOUS
10
1.14205
20
0.867047
11
0.947953
21
0.867047
0
LINE
8
BLACK
6
CONTINUOUS
10
0.947953
20
0.967047
11
0.947953
21
0.872953
0
LINE
8
BLACK
6
CONTINUOUS
10
0.947953
20
0.872953
11
1.14205
21
0.872953
0
LINE
8
BLACK
6
CONTINUOUS
10
1.14205
20
0.872953
11
1.14205
21
0.967047
0
LINE
8
BLACK
6
CONTINUOUS
10
1.14205
20
0.967047
11
0.947953
21
0.967047
0
LINE
8
BLACK
6
CONTINUOUS
10
0.543179
20
0.94068
11
0.543308
21
0.940703
0
LINE
8
BLACK
6
CONTINUOUS
10
0.543308
20
0.940703
11
0.543422
21
0.940638
0
LINE
8
BLACK
6
CONTINUOUS
10
0.543422
20
0.940638
11
0.543805
21
0.94057
0
LINE
8
BLACK
6
CONTINUOUS
10
0.543805
20
0.94057
11
0.544393
21
0.940077
0
LINE
8
BLACK
6
CONTINUOUS
10
0.544393
20
0.940077
11
0.545057
21
0.939693
0
LINE
8
BLACK
6
CONTINUOUS
10
0.545057
20
0.939693
11
0.545148
21
0.939443
0
LINE
8
BLACK
6
CONTINUOUS
10
0.545148
20
0.939443
11
0.545352
21
0.939272
0
LINE
8
BLACK
6
CONTINUOUS
10
0.545352
20
0.939272
11
0.545486
21
0.938516
0
LINE
8
BLACK
6
CONTINUOUS
10
0.545486
20
0.938516
11
0.545748
21
0.937795
0
LINE
8
BLACK
6
CONTINUOUS
10
0.545748
20
0.937795
11
0.545748
21
0.662205
0
LINE
8
BLACK
6
CONTINUOUS
10
0.545748
20
0.662205
11
0.54568
21
0.661821
0
LINE
8
BLACK
6
CONTINUOUS
10
0.54568
20
0.661821
11
0.545703
21
0.661692
0
LINE
8
BLACK
6
CONTINUOUS
10
0.545703
20
0.661692
11
0.545638
21
0.661578
0
LINE
8
BLACK
6
CONTINUOUS
10
0.545638
20
0.661578
11
0.54557
21
0.661195
0
LINE
8
BLACK
6
CONTINUOUS
10
0.54557
20
0.661195
11
0.545077
21
0.660607
0
LINE
8
BLACK
6
CONTINUOUS
10
0.545077
20
0.660607
11
0.544693
21
0.659943
0
LINE
8
BLACK
6
CONTINUOUS
10
0.544693
20
0.659943
11
0.544443
21
0.659852
0
LINE
8
BLACK
6
CONTINUOUS
10
0.544443
20
0.659852
11
0.544272
21
0.659648
0
LINE
8
BLACK
6
CONTINUOUS
10
0.544272
20
0.659648
11
0.543516
21
0.659514
0
LINE
8
BLACK
6
CONTINUOUS
10
0.543516
20
0.659514
11
0.542795
21
0.659252
0
LINE
8
BLACK
6
CONTINUOUS
10
0.542795
20
0.659252
11
0.267205
21
0.659252
0
LINE
8
BLACK
6
CONTINUOUS
10
0.267205
20
0.659252
11
0.266821
21
0.65932
0
LINE
8
BLACK
6
CONTINUOUS
10
0.266821
20
0.65932
11
0.266692
21
0.659297
0
LINE
8
BLACK
6
CONTINUOUS
10
0.266692
20
0.659297
11
0.266578
21
0.659362
0
LINE
8
BLACK
6
CONTINUOUS
10
0.266578
20
0.659362
11
0.266195
21
0.65943
0
LINE
8
BLACK
6
CONTINUOUS
10
0.266195
20
0.65943
11
0.265607
21
0.659923
0
LINE
8
BLACK
6
CONTINUOUS
10
0.265607
20
0.659923
11
0.264943
21
0.660307
0
LINE
8
BLACK
6
CONTINUOUS
10
0.264943
20
0.660307
11
0.264852
21
0.660557
0
LINE
8
BLACK
6
CONTINUOUS
10
0.264852
20
0.660557
11
0.264648
21
0.660728
0
LINE
8
BLACK
6
CONTINUOUS
10
0.264648
20
0.660728
11
0.264514
21
0.661484
0
LINE
8
BLACK
6
CONTINUOUS
10
0.264514
20
0.661484
11
0.264252
21
0.662205
0
LINE
8
BLACK
6
CONTINUOUS
10
0.264252
20
0.662205
11
0.264252
21
0.937795
0
LINE
8
BLACK
6
CONTINUOUS
10
0.264252
20
0.937795
11
0.26432
21
0.938179
0
LINE
8
BLACK
6
CONTINUOUS
10
0.26432
20
0.938179
11
0.264297
21
0.938308
0
LINE
8
BLACK
6
CONTINUOUS
10
0.264297
20
0.938308
11
0.264362
21
0.938422
0
LINE
8
BLACK
6
CONTINUOUS
10
0.264362
20
0.938422
11
0.26443
21
0.938805
0
LINE
8
BLACK
6
CONTINUOUS
10
0.26443
20
0.938805
11
0.264923
21
0.939393
0
LINE
8
BLACK
6
CONTINUOUS
10
0.264923
20
0.939393
11
0.265307
21
0.940057
0
LINE
8
BLACK
6
CONTINUOUS
10
0.265307
20
0.940057
11
0.265557
21
0.940148
0
LINE
8
BLACK
6
CONTINUOUS
10
0.265557
20
0.940148
11
0.265728
21
0.940352
0
LINE
8
BLACK
6
CONTINUOUS
10
0.265728
20
0.940352
11
0.266484
21
0.940486
0
LINE
8
BLACK
6
CONTINUOUS
10
0.266484
20
0.940486
11
0.267205
21
0.940748
0
LINE
8
BLACK
6
CONTINUOUS
10
0.267205
20
0.940748
11
0.542795
21
0.940748
0
LINE
8
BLACK
6
CONTINUOUS
10
0.542795
20
0.940748
11
0.543179
21
0.94068
0
LINE
8
BLACK
6
CONTINUOUS
10
0.270157
20
0.934843
11
0.270157
21
0.665157
0
LINE
8
BLACK
6
CONTINUOUS
10
0.270157
20
0.665157
11
0.539843
21
0.665157
0
LINE
8
BLACK
6
CONTINUOUS
10
0.539843
20
0.665157
11
0.539843
21
0.934843
0
LINE
8
BLACK
6
CONTINUOUS
10
0.539843
20
0.934843
11
0.270157
21
0.934843
0
LINE
8
BLACK
6
CONTINUOUS
10
0.399263
20
0.803458
11
0.399954
21
0.80156
0
LINE
8
BLACK
6
CONTINUOUS
10
0.399954
20
0.80156
11
0.399954
21
0.769689
0
LINE
8
BLACK
6
CONTINUOUS
10
0.399954
20
0.769689
11
0.399776
21
0.768679
0
LINE
8
BLACK
6
CONTINUOUS
10
0.399776
20
0.768679
11
0.399662
21
0.768544
0
LINE
8
BLACK
6
CONTINUOUS
10
0.399662
20
0.768544
11
0.399642
21
0.768368
0
LINE
8
BLACK
6
CONTINUOUS
10
0.399642
20
0.768368
11
0.397767
21
0.764619
0
LINE
8
BLACK
6
CONTINUOUS
10
0.397767
20
0.764619
11
0.397241
21
0.76391
0
LINE
8
BLACK
6
CONTINUOUS
10
0.397241
20
0.76391
11
0.397214
21
0.763851
0
LINE
8
BLACK
6
CONTINUOUS
10
0.397214
20
0.763851
11
0.395339
21
0.761977
0
LINE
8
BLACK
6
CONTINUOUS
10
0.395339
20
0.761977
11
0.394616
21
0.76147
0
LINE
8
BLACK
6
CONTINUOUS
10
0.394616
20
0.76147
11
0.394572
21
0.761423
0
LINE
8
BLACK
6
CONTINUOUS
10
0.394572
20
0.761423
11
0.390822
21
0.759549
0
LINE
8
BLACK
6
CONTINUOUS
10
0.390822
20
0.759549
11
0.389839
21
0.759256
0
LINE
8
BLACK
6
CONTINUOUS
10
0.389839
20
0.759256
11
0.389668
21
0.759297
0
LINE
8
BLACK
6
CONTINUOUS
10
0.389668
20
0.759297
11
0.389502
21
0.759237
0
LINE
8
BLACK
6
CONTINUOUS
10
0.389502
20
0.759237
11
0.382003
21
0.759237
0
LINE
8
BLACK
6
CONTINUOUS
10
0.382003
20
0.759237
11
0.380993
21
0.759415
0
LINE
8
BLACK
6
CONTINUOUS
10
0.380993
20
0.759415
11
0.380858
21
0.759529
0
LINE
8
BLACK
6
CONTINUOUS
10
0.380858
20
0.759529
11
0.380682
21
0.759549
0
LINE
8
BLACK
6
CONTINUOUS
10
0.380682
20
0.759549
11
0.376933
21
0.761423
0
LINE
8
BLACK
6
CONTINUOUS
10
0.376933
20
0.761423
11
0.376224
21
0.761949
0
LINE
8
BLACK
6
CONTINUOUS
10
0.376224
20
0.761949
11
0.376165
21
0.761977
0
LINE
8
BLACK
6
CONTINUOUS
10
0.376165
20
0.761977
11
0.374291
21
0.763851
0
LINE
8
BLACK
6
CONTINUOUS
10
0.374291
20
0.763851
11
0.373784
21
0.764574
0
LINE
8
BLACK
6
CONTINUOUS
10
0.373784
20
0.764574
11
0.373737
21
0.764619
0
LINE
8
BLACK
6
CONTINUOUS
10
0.373737
20
0.764619
11
0.371863
21
0.768368
0
LINE
8
BLACK
6
CONTINUOUS
10
0.371863
20
0.768368
11
0.37157
21
0.769351
0
LINE
8
BLACK
6
CONTINUOUS
10
0.37157
20
0.769351
11
0.371611
21
0.769523
0
LINE
8
BLACK
6
CONTINUOUS
10
0.371611
20
0.769523
11
0.371551
21
0.769689
0
LINE
8
BLACK
6
CONTINUOUS
10
0.371551
20
0.769689
11
0.371551
21
0.80156
0
LINE
8
BLACK
6
CONTINUOUS
10
0.371551
20
0.80156
11
0.371729
21
0.80257
0
LINE
8
BLACK
6
CONTINUOUS
10
0.371729
20
0.80257
11
0.373027
21
0.804117
0
LINE
8
BLACK
6
CONTINUOUS
10
0.373027
20
0.804117
11
0.375016
21
0.804468
0
LINE
8
BLACK
6
CONTINUOUS
10
0.375016
20
0.804468
11
0.376766
21
0.803458
0
LINE
8
BLACK
6
CONTINUOUS
10
0.376766
20
0.803458
11
0.377456
21
0.80156
0
LINE
8
BLACK
6
CONTINUOUS
10
0.377456
20
0.80156
11
0.377456
21
0.770386
0
LINE
8
BLACK
6
CONTINUOUS
10
0.377456
20
0.770386
11
0.378805
21
0.767688
0
LINE
8
BLACK
6
CONTINUOUS
10
0.378805
20
0.767688
11
0.380002
21
0.766491
0
LINE
8
BLACK
6
CONTINUOUS
10
0.380002
20
0.766491
11
0.3827
21
0.765142
0
LINE
8
BLACK
6
CONTINUOUS
10
0.3827
20
0.765142
11
0.388805
21
0.765142
0
LINE
8
BLACK
6
CONTINUOUS
10
0.388805
20
0.765142
11
0.391502
21
0.766491
0
LINE
8
BLACK
6
CONTINUOUS
10
0.391502
20
0.766491
11
0.392699
21
0.767688
0
LINE
8
BLACK
6
CONTINUOUS
10
0.392699
20
0.767688
11
0.394048
21
0.770386
0
LINE
8
BLACK
6
CONTINUOUS
10
0.394048
20
0.770386
11
0.394048
21
0.80156
0
LINE
8
BLACK
6
CONTINUOUS
10
0.394048
20
0.80156
11
0.394226
21
0.80257
0
LINE
8
BLACK
6
CONTINUOUS
10
0.394226
20
0.80257
11
0.395525
21
0.804117
0
LINE
8
BLACK
6
CONTINUOUS
10
0.395525
20
0.804117
11
0.397514
21
0.804468
0
LINE
8
BLACK
6
CONTINUOUS
10
0.397514
20
0.804468
11
0.399263
21
0.803458
0
LINE
8
BLACK
6
CONTINUOUS
10
0.425468
20
0.804438
11
0.425635
21
0.804468
0
LINE
8
BLACK
6
CONTINUOUS
10
0.425635
20
0.804468
11
0.426377
21
0.804039
0
LINE
8
BLACK
6
CONTINUOUS
10
0.426377
20
0.804039
11
0.427162
21
0.803695
0
LINE
8
BLACK
6
CONTINUOUS
10
0.427162
20
0.803695
11
0.427237
21
0.803543
0
LINE
8
BLACK
6
CONTINUOUS
10
0.427237
20
0.803543
11
0.427384
21
0.803458
0
LINE
8
BLACK
6
CONTINUOUS
10
0.427384
20
0.803458
11
0.427677
21
0.802653
0
LINE
8
BLACK
6
CONTINUOUS
10
0.427677
20
0.802653
11
0.428057
21
0.801884
0
LINE
8
BLACK
6
CONTINUOUS
10
0.428057
20
0.801884
11
0.428017
21
0.801719
0
LINE
8
BLACK
6
CONTINUOUS
10
0.428017
20
0.801719
11
0.428075
21
0.80156
0
LINE
8
BLACK
6
CONTINUOUS
10
0.428075
20
0.80156
11
0.428075
21
0.765142
0
LINE
8
BLACK
6
CONTINUOUS
10
0.428075
20
0.765142
11
0.436371
21
0.765142
0
LINE
8
BLACK
6
CONTINUOUS
10
0.436371
20
0.765142
11
0.437381
21
0.764964
0
LINE
8
BLACK
6
CONTINUOUS
10
0.437381
20
0.764964
11
0.438928
21
0.763666
0
LINE
8
BLACK
6
CONTINUOUS
10
0.438928
20
0.763666
11
0.439279
21
0.761677
0
LINE
8
BLACK
6
CONTINUOUS
10
0.439279
20
0.761677
11
0.438269
21
0.759928
0
LINE
8
BLACK
6
CONTINUOUS
10
0.438269
20
0.759928
11
0.436371
21
0.759237
0
LINE
8
BLACK
6
CONTINUOUS
10
0.436371
20
0.759237
11
0.413874
21
0.759237
0
LINE
8
BLACK
6
CONTINUOUS
10
0.413874
20
0.759237
11
0.412864
21
0.759415
0
LINE
8
BLACK
6
CONTINUOUS
10
0.412864
20
0.759415
11
0.411317
21
0.760713
0
LINE
8
BLACK
6
CONTINUOUS
10
0.411317
20
0.760713
11
0.410966
21
0.762702
0
LINE
8
BLACK
6
CONTINUOUS
10
0.410966
20
0.762702
11
0.411976
21
0.764452
0
LINE
8
BLACK
6
CONTINUOUS
10
0.411976
20
0.764452
11
0.413874
21
0.765142
0
LINE
8
BLACK
6
CONTINUOUS
10
0.413874
20
0.765142
11
0.42217
21
0.765142
0
LINE
8
BLACK
6
CONTINUOUS
10
0.42217
20
0.765142
11
0.42217
21
0.792556
0
LINE
8
BLACK
6
CONTINUOUS
10
0.42217
20
0.792556
11
0.419711
21
0.790098
0
LINE
8
BLACK
6
CONTINUOUS
10
0.419711
20
0.790098
11
0.418988
21
0.789592
0
LINE
8
BLACK
6
CONTINUOUS
10
0.418988
20
0.789592
11
0.418944
21
0.789545
0
LINE
8
BLACK
6
CONTINUOUS
10
0.418944
20
0.789545
11
0.415194
21
0.78767
0
LINE
8
BLACK
6
CONTINUOUS
10
0.415194
20
0.78767
11
0.414211
21
0.787378
0
LINE
8
BLACK
6
CONTINUOUS
10
0.414211
20
0.787378
11
0.412247
21
0.787847
0
LINE
8
BLACK
6
CONTINUOUS
10
0.412247
20
0.787847
11
0.411044
21
0.789469
0
LINE
8
BLACK
6
CONTINUOUS
10
0.411044
20
0.789469
11
0.411165
21
0.791486
0
LINE
8
BLACK
6
CONTINUOUS
10
0.411165
20
0.791486
11
0.412553
21
0.792952
0
LINE
8
BLACK
6
CONTINUOUS
10
0.412553
20
0.792952
11
0.415874
21
0.794613
0
LINE
8
BLACK
6
CONTINUOUS
10
0.415874
20
0.794613
11
0.419078
21
0.797817
0
LINE
8
BLACK
6
CONTINUOUS
10
0.419078
20
0.797817
11
0.422666
21
0.803198
0
LINE
8
BLACK
6
CONTINUOUS
10
0.422666
20
0.803198
11
0.423374
21
0.803939
0
LINE
8
BLACK
6
CONTINUOUS
10
0.423374
20
0.803939
11
0.423537
21
0.803987
0
LINE
8
BLACK
6
CONTINUOUS
10
0.423537
20
0.803987
11
0.423646
21
0.804117
0
LINE
8
BLACK
6
CONTINUOUS
10
0.423646
20
0.804117
11
0.42449
21
0.804266
0
LINE
8
BLACK
6
CONTINUOUS
10
0.42449
20
0.804266
11
0.425312
21
0.804506
0
LINE
8
BLACK
6
CONTINUOUS
10
0.425312
20
0.804506
11
0.425468
21
0.804438
0
LINE
8
BLACK
6
CONTINUOUS
10
0.275556
20
0.764986
11
0.277817
21
0.769802
0
LINE
8
BLACK
6
CONTINUOUS
10
0.277817
20
0.769802
11
0.281339
21
0.77379
0
LINE
8
BLACK
6
CONTINUOUS
10
0.281339
20
0.77379
11
0.285838
21
0.776629
0
LINE
8
BLACK
6
CONTINUOUS
10
0.285838
20
0.776629
11
0.290953
21
0.778091
0
LINE
8
BLACK
6
CONTINUOUS
10
0.290953
20
0.778091
11
0.296274
21
0.778058
0
LINE
8
BLACK
6
CONTINUOUS
10
0.296274
20
0.778058
11
0.301371
21
0.776534
0
LINE
8
BLACK
6
CONTINUOUS
10
0.301371
20
0.776534
11
0.305835
21
0.77364
0
LINE
8
BLACK
6
CONTINUOUS
10
0.305835
20
0.77364
11
0.309308
21
0.76961
0
LINE
8
BLACK
6
CONTINUOUS
10
0.309308
20
0.76961
11
0.31151
21
0.764766
0
LINE
8
BLACK
6
CONTINUOUS
10
0.31151
20
0.764766
11
0.312264
21
0.7595
0
LINE
8
BLACK
6
CONTINUOUS
10
0.312264
20
0.7595
11
0.312259
21
0.759042
0
LINE
8
BLACK
6
CONTINUOUS
10
0.312259
20
0.759042
11
0.311376
21
0.753795
0
LINE
8
BLACK
6
CONTINUOUS
10
0.311376
20
0.753795
11
0.309056
21
0.749007
0
LINE
8
BLACK
6
CONTINUOUS
10
0.309056
20
0.749007
11
0.305486
21
0.745063
0
LINE
8
BLACK
6
CONTINUOUS
10
0.305486
20
0.745063
11
0.300952
21
0.742279
0
LINE
8
BLACK
6
CONTINUOUS
10
0.300952
20
0.742279
11
0.295819
21
0.74088
0
LINE
8
BLACK
6
CONTINUOUS
10
0.295819
20
0.74088
11
0.2905
21
0.740977
0
LINE
8
BLACK
6
CONTINUOUS
10
0.2905
20
0.740977
11
0.285422
21
0.742564
0
LINE
8
BLACK
6
CONTINUOUS
10
0.285422
20
0.742564
11
0.280993
21
0.745512
0
LINE
8
BLACK
6
CONTINUOUS
10
0.280993
20
0.745512
11
0.27757
21
0.749584
0
LINE
8
BLACK
6
CONTINUOUS
10
0.27757
20
0.749584
11
0.275427
21
0.754454
0
LINE
8
BLACK
6
CONTINUOUS
10
0.275427
20
0.754454
11
0.274767
21
0.7595
0
LINE
8
BLACK
6
CONTINUOUS
10
0.274767
20
0.7595
11
0.274737
21
0.759729
0
LINE
8
BLACK
6
CONTINUOUS
10
0.274737
20
0.759729
11
0.275556
21
0.764986
0
LINE
8
BLACK
6
CONTINUOUS
10
0.283498
20
0.751107
11
0.286971
21
0.748192
0
LINE
8
BLACK
6
CONTINUOUS
10
0.286971
20
0.748192
11
0.291233
21
0.746641
0
LINE
8
BLACK
6
CONTINUOUS
10
0.291233
20
0.746641
11
0.295767
21
0.746641
0
LINE
8
BLACK
6
CONTINUOUS
10
0.295767
20
0.746641
11
0.300029
21
0.748192
0
LINE
8
BLACK
6
CONTINUOUS
10
0.300029
20
0.748192
11
0.303502
21
0.751107
0
LINE
8
BLACK
6
CONTINUOUS
10
0.303502
20
0.751107
11
0.30577
21
0.755034
0
LINE
8
BLACK
6
CONTINUOUS
10
0.30577
20
0.755034
11
0.306557
21
0.7595
0
LINE
8
BLACK
6
CONTINUOUS
10
0.306557
20
0.7595
11
0.30577
21
0.763966
0
LINE
8
BLACK
6
CONTINUOUS
10
0.30577
20
0.763966
11
0.303502
21
0.767893
0
LINE
8
BLACK
6
CONTINUOUS
10
0.303502
20
0.767893
11
0.300029
21
0.770808
0
LINE
8
BLACK
6
CONTINUOUS
10
0.300029
20
0.770808
11
0.295767
21
0.772359
0
LINE
8
BLACK
6
CONTINUOUS
10
0.295767
20
0.772359
11
0.291233
21
0.772359
0
LINE
8
BLACK
6
CONTINUOUS
10
0.291233
20
0.772359
11
0.286972
21
0.770808
0
LINE
8
BLACK
6
CONTINUOUS
10
0.286972
20
0.770808
11
0.283498
21
0.767893
0
LINE
8
BLACK
6
CONTINUOUS
10
0.283498
20
0.767893
11
0.28123
21
0.763966
0
LINE
8
BLACK
6
CONTINUOUS
10
0.28123
20
0.763966
11
0.280443
21
0.7595
0
LINE
8
BLACK
6
CONTINUOUS
10
0.280443
20
0.7595
11
0.28123
21
0.755034
0
LINE
8
BLACK
6
CONTINUOUS
10
0.28123
20
0.755034
11
0.283498
21
0.751107
0
LINE
8
BLACK
6
CONTINUOUS
10
1.14789
20
1.24962
11
1.14791
21
1.24949
0
LINE
8
BLACK
6
CONTINUOUS
10
1.14791
20
1.24949
11
1.14784
21
1.24937
0
LINE
8
BLACK
6
CONTINUOUS
10
1.14784
20
1.24937
11
1.14777
21
1.24899
0
LINE
8
BLACK
6
CONTINUOUS
10
1.14777
20
1.24899
11
1.14728
21
1.2484
0
LINE
8
BLACK
6
CONTINUOUS
10
1.14728
20
1.2484
11
1.1469
21
1.24774
0
LINE
8
BLACK
6
CONTINUOUS
10
1.1469
20
1.24774
11
1.14665
21
1.24765
0
LINE
8
BLACK
6
CONTINUOUS
10
1.14665
20
1.24765
11
1.14648
21
1.24744
0
LINE
8
BLACK
6
CONTINUOUS
10
1.14648
20
1.24744
11
1.14572
21
1.24731
0
LINE
8
BLACK
6
CONTINUOUS
10
1.14572
20
1.24731
11
1.145
21
1.24705
0
LINE
8
BLACK
6
CONTINUOUS
10
1.145
20
1.24705
11
0.945
21
1.24705
0
LINE
8
BLACK
6
CONTINUOUS
10
0.945
20
1.24705
11
0.944616
21
1.24711
0
LINE
8
BLACK
6
CONTINUOUS
10
0.944616
20
1.24711
11
0.944487
21
1.24709
0
LINE
8
BLACK
6
CONTINUOUS
10
0.944487
20
1.24709
11
0.944374
21
1.24716
0
LINE
8
BLACK
6
CONTINUOUS
10
0.944374
20
1.24716
11
0.94399
21
1.24723
0
LINE
8
BLACK
6
CONTINUOUS
10
0.94399
20
1.24723
11
0.943402
21
1.24772
0
LINE
8
BLACK
6
CONTINUOUS
10
0.943402
20
1.24772
11
0.942738
21
1.2481
0
LINE
8
BLACK
6
CONTINUOUS
10
0.942738
20
1.2481
11
0.942647
21
1.24835
0
LINE
8
BLACK
6
CONTINUOUS
10
0.942647
20
1.24835
11
0.942443
21
1.24852
0
LINE
8
BLACK
6
CONTINUOUS
10
0.942443
20
1.24852
11
0.94231
21
1.24928
0
LINE
8
BLACK
6
CONTINUOUS
10
0.94231
20
1.24928
11
0.942047
21
1.25
0
LINE
8
BLACK
6
CONTINUOUS
10
0.942047
20
1.25
11
0.942047
21
1.55
0
LINE
8
BLACK
6
CONTINUOUS
10
0.942047
20
1.55
11
0.942115
21
1.55038
0
LINE
8
BLACK
6
CONTINUOUS
10
0.942115
20
1.55038
11
0.942092
21
1.55051
0
LINE
8
BLACK
6
CONTINUOUS
10
0.942092
20
1.55051
11
0.942158
21
1.55063
0
LINE
8
BLACK
6
CONTINUOUS
10
0.942158
20
1.55063
11
0.942225
21
1.55101
0
LINE
8
BLACK
6
CONTINUOUS
10
0.942225
20
1.55101
11
0.942718
21
1.5516
0
LINE
8
BLACK
6
CONTINUOUS
10
0.942718
20
1.5516
11
0.943102
21
1.55226
0
LINE
8
BLACK
6
CONTINUOUS
10
0.943102
20
1.55226
11
0.943352
21
1.55235
0
LINE
8
BLACK
6
CONTINUOUS
10
0.943352
20
1.55235
11
0.943524
21
1.55256
0
LINE
8
BLACK
6
CONTINUOUS
10
0.943524
20
1.55256
11
0.944279
21
1.55269
0
LINE
8
BLACK
6
CONTINUOUS
10
0.944279
20
1.55269
11
0.945
21
1.55295
0
LINE
8
BLACK
6
CONTINUOUS
10
0.945
20
1.55295
11
1.145
21
1.55295
0
LINE
8
BLACK
6
CONTINUOUS
10
1.145
20
1.55295
11
1.14538
21
1.55289
0
LINE
8
BLACK
6
CONTINUOUS
10
1.14538
20
1.55289
11
1.14551
21
1.55291
0
LINE
8
BLACK
6
CONTINUOUS
10
1.14551
20
1.55291
11
1.14563
21
1.55284
0
LINE
8
BLACK
6
CONTINUOUS
10
1.14563
20
1.55284
11
1.14601
21
1.55277
0
LINE
8
BLACK
6
CONTINUOUS
10
1.14601
20
1.55277
11
1.1466
21
1.55228
0
LINE
8
BLACK
6
CONTINUOUS
10
1.1466
20
1.55228
11
1.14726
21
1.5519
0
LINE
8
BLACK
6
CONTINUOUS
10
1.14726
20
1.5519
11
1.14735
21
1.55165
0
LINE
8
BLACK
6
CONTINUOUS
10
1.14735
20
1.55165
11
1.14756
21
1.55148
0
LINE
8
BLACK
6
CONTINUOUS
10
1.14756
20
1.55148
11
1.14769
21
1.55072
0
LINE
8
BLACK
6
CONTINUOUS
10
1.14769
20
1.55072
11
1.14795
21
1.55
0
LINE
8
BLACK
6
CONTINUOUS
10
1.14795
20
1.55
11
1.14795
21
1.25
0
LINE
8
BLACK
6
CONTINUOUS
10
1.14795
20
1.25
11
1.14789
21
1.24962
0
LINE
8
BLACK
6
CONTINUOUS
10
0.947953
20
1.34705
11
0.947953
21
1.25295
0
LINE
8
BLACK
6
CONTINUOUS
10
0.947953
20
1.25295
11
1.14205
21
1.25295
0
LINE
8
BLACK
6
CONTINUOUS
10
1.14205
20
1.25295
11
1.14205
21
1.34705
0
LINE
8
BLACK
6
CONTINUOUS
10
1.14205
20
1.34705
11
0.947953
21
1.34705
0
LINE
8
BLACK
6
CONTINUOUS
10
0.947953
20
1.44705
11
0.947953
21
1.35295
0
LINE
8
BLACK
6
CONTINUOUS
10
0.947953
20
1.35295
11
1.14205
21
1.35295
0
LINE
8
BLACK
6
CONTINUOUS
10
1.14205
20
1.35295
11
1.14205
21
1.44705
0
LINE
8
BLACK
6
CONTINUOUS
10
1.14205
20
1.44705
11
0.947953
21
1.44705
0
LINE
8
BLACK
6
CONTINUOUS
10
0.947953
20
1.54705
11
0.947953
21
1.45295
0
LINE
8
BLACK
6
CONTINUOUS
10
0.947953
20
1.45295
11
1.14205
21
1.45295
0
LINE
8
BLACK
6
CONTINUOUS
10
1.14205
20
1.45295
11
1.14205
21
1.54705
0
LINE
8
BLACK
6
CONTINUOUS
10
1.14205
20
1.54705
11
0.947953
21
1.54705
  0
ENDSEC
  0
EOF
