  0
SECTION
  2
HEADER
  9
$ANGBASE
  50
0.0
  9
$ANGDIR
  70
1
  9
$MEASUREMENT
  70
0
  0
ENDSEC
  0
SECTION
  2
TABLES
  0
TABLE
  2
LTYPE
  70
4
  0
LTYPE
  5
40F
  2
CONTINUOUS
  70
0
  3
Solid line
  72
65
  73
0
  40
0.0
  0
LTYPE
  5
410
  2
DASHDOT
 70
0
  3
Dash Dot ____ _ ____ _
 72
65
 73
4
 40
2.0
 49
1.25
 49
-0.25
 49
0.25
 49
-0.25
  0
LTYPE
  5
411
  2
DASHED
 70
0
  3
Dashed __ __ __ __ __
 72
65
 73
2
 40
0.75
 49
0.5
 49
-0.25
  0
LTYPE
  5
43B
  2
DOTTED
 70
0
  3
Dotted .  .  .  .
 72
65
 73
2
 40
0.2
 49
0.0
 49
-0.2
  0
ENDTAB
  0
TABLE
  2
STYLE
  70
4
  0
STYLE
  2
KICAD
  70
0
  40
0
  41
1
  42
1
  50
0
  71
0
  3
isocp.shx
  0
STYLE
  2
KICADB
  70
0
  40
0
  41
1
  42
1
  50
0
  71
0
  3
isocp.shx
  0
STYLE
  2
KICADI
  70
0
  40
0
  41
1
  42
1
  50
15
  71
0
  3
isocp.shx
  0
STYLE
  2
KICADBI
  70
0
  40
0
  41
1
  42
1
  50
15
  71
0
  3
isocp.shx
  0
ENDTAB
  0
TABLE
  2
LAYER
  70
1
  0
LAYER
  2
BLACK
  70
0
  62
7
  6
CONTINUOUS
  0
ENDTAB
  0
ENDSEC
  0
SECTION
  2
ENTITIES
0
LINE
8
BLACK
6
CONTINUOUS
10
2.32289
20
0.044892
11
2.32291
21
0.0447628
0
LINE
8
BLACK
6
CONTINUOUS
10
2.32291
20
0.0447628
11
2.32284
21
0.0446492
0
LINE
8
BLACK
6
CONTINUOUS
10
2.32284
20
0.0446492
11
2.32277
21
0.0442657
0
LINE
8
BLACK
6
CONTINUOUS
10
2.32277
20
0.0442657
11
2.32228
21
0.043678
0
LINE
8
BLACK
6
CONTINUOUS
10
2.32228
20
0.043678
11
2.3219
21
0.0430137
0
LINE
8
BLACK
6
CONTINUOUS
10
2.3219
20
0.0430137
11
2.32165
21
0.0429226
0
LINE
8
BLACK
6
CONTINUOUS
10
2.32165
20
0.0429226
11
2.32148
21
0.0427184
0
LINE
8
BLACK
6
CONTINUOUS
10
2.32148
20
0.0427184
11
2.32072
21
0.0425852
0
LINE
8
BLACK
6
CONTINUOUS
10
2.32072
20
0.0425852
11
2.32
21
0.0423228
0
LINE
8
BLACK
6
CONTINUOUS
10
2.32
20
0.0423228
11
2.12
21
0.0423228
0
LINE
8
BLACK
6
CONTINUOUS
10
2.12
20
0.0423228
11
2.11962
21
0.0423905
0
LINE
8
BLACK
6
CONTINUOUS
10
2.11962
20
0.0423905
11
2.11949
21
0.0423677
0
LINE
8
BLACK
6
CONTINUOUS
10
2.11949
20
0.0423677
11
2.11937
21
0.0424333
0
LINE
8
BLACK
6
CONTINUOUS
10
2.11937
20
0.0424333
11
2.11899
21
0.0425009
0
LINE
8
BLACK
6
CONTINUOUS
10
2.11899
20
0.0425009
11
2.1184
21
0.0429941
0
LINE
8
BLACK
6
CONTINUOUS
10
2.1184
20
0.0429941
11
2.11774
21
0.0433776
0
LINE
8
BLACK
6
CONTINUOUS
10
2.11774
20
0.0433776
11
2.11765
21
0.043628
0
LINE
8
BLACK
6
CONTINUOUS
10
2.11765
20
0.043628
11
2.11744
21
0.0437992
0
LINE
8
BLACK
6
CONTINUOUS
10
2.11744
20
0.0437992
11
2.11731
21
0.0445548
0
LINE
8
BLACK
6
CONTINUOUS
10
2.11731
20
0.0445548
11
2.11705
21
0.0452756
0
LINE
8
BLACK
6
CONTINUOUS
10
2.11705
20
0.0452756
11
2.11705
21
0.545276
0
LINE
8
BLACK
6
CONTINUOUS
10
2.11705
20
0.545276
11
2.11711
21
0.545659
0
LINE
8
BLACK
6
CONTINUOUS
10
2.11711
20
0.545659
11
2.11709
21
0.545788
0
LINE
8
BLACK
6
CONTINUOUS
10
2.11709
20
0.545788
11
2.11716
21
0.545902
0
LINE
8
BLACK
6
CONTINUOUS
10
2.11716
20
0.545902
11
2.11723
21
0.546286
0
LINE
8
BLACK
6
CONTINUOUS
10
2.11723
20
0.546286
11
2.11772
21
0.546873
0
LINE
8
BLACK
6
CONTINUOUS
10
2.11772
20
0.546873
11
2.1181
21
0.547538
0
LINE
8
BLACK
6
CONTINUOUS
10
2.1181
20
0.547538
11
2.11835
21
0.547629
0
LINE
8
BLACK
6
CONTINUOUS
10
2.11835
20
0.547629
11
2.11852
21
0.547833
0
LINE
8
BLACK
6
CONTINUOUS
10
2.11852
20
0.547833
11
2.11928
21
0.547966
0
LINE
8
BLACK
6
CONTINUOUS
10
2.11928
20
0.547966
11
2.12
21
0.548228
0
LINE
8
BLACK
6
CONTINUOUS
10
2.12
20
0.548228
11
2.32
21
0.548228
0
LINE
8
BLACK
6
CONTINUOUS
10
2.32
20
0.548228
11
2.32038
21
0.548161
0
LINE
8
BLACK
6
CONTINUOUS
10
2.32038
20
0.548161
11
2.32051
21
0.548184
0
LINE
8
BLACK
6
CONTINUOUS
10
2.32051
20
0.548184
11
2.32063
21
0.548118
0
LINE
8
BLACK
6
CONTINUOUS
10
2.32063
20
0.548118
11
2.32101
21
0.54805
0
LINE
8
BLACK
6
CONTINUOUS
10
2.32101
20
0.54805
11
2.3216
21
0.547557
0
LINE
8
BLACK
6
CONTINUOUS
10
2.3216
20
0.547557
11
2.32226
21
0.547174
0
LINE
8
BLACK
6
CONTINUOUS
10
2.32226
20
0.547174
11
2.32235
21
0.546923
0
LINE
8
BLACK
6
CONTINUOUS
10
2.32235
20
0.546923
11
2.32256
21
0.546752
0
LINE
8
BLACK
6
CONTINUOUS
10
2.32256
20
0.546752
11
2.32269
21
0.545996
0
LINE
8
BLACK
6
CONTINUOUS
10
2.32269
20
0.545996
11
2.32295
21
0.545276
0
LINE
8
BLACK
6
CONTINUOUS
10
2.32295
20
0.545276
11
2.32295
21
0.0452756
0
LINE
8
BLACK
6
CONTINUOUS
10
2.32295
20
0.0452756
11
2.32289
21
0.044892
0
LINE
8
BLACK
6
CONTINUOUS
10
2.12295
20
0.142323
11
2.12295
21
0.0482283
0
LINE
8
BLACK
6
CONTINUOUS
10
2.12295
20
0.0482283
11
2.31705
21
0.0482283
0
LINE
8
BLACK
6
CONTINUOUS
10
2.31705
20
0.0482283
11
2.31705
21
0.142323
0
LINE
8
BLACK
6
CONTINUOUS
10
2.31705
20
0.142323
11
2.12295
21
0.142323
0
LINE
8
BLACK
6
CONTINUOUS
10
2.12295
20
0.242323
11
2.12295
21
0.148228
0
LINE
8
BLACK
6
CONTINUOUS
10
2.12295
20
0.148228
11
2.31705
21
0.148228
0
LINE
8
BLACK
6
CONTINUOUS
10
2.31705
20
0.148228
11
2.31705
21
0.242323
0
LINE
8
BLACK
6
CONTINUOUS
10
2.31705
20
0.242323
11
2.12295
21
0.242323
0
LINE
8
BLACK
6
CONTINUOUS
10
2.12295
20
0.342323
11
2.12295
21
0.248228
0
LINE
8
BLACK
6
CONTINUOUS
10
2.12295
20
0.248228
11
2.31705
21
0.248228
0
LINE
8
BLACK
6
CONTINUOUS
10
2.31705
20
0.248228
11
2.31705
21
0.342323
0
LINE
8
BLACK
6
CONTINUOUS
10
2.31705
20
0.342323
11
2.12295
21
0.342323
0
LINE
8
BLACK
6
CONTINUOUS
10
2.12295
20
0.442323
11
2.12295
21
0.348228
0
LINE
8
BLACK
6
CONTINUOUS
10
2.12295
20
0.348228
11
2.31705
21
0.348228
0
LINE
8
BLACK
6
CONTINUOUS
10
2.31705
20
0.348228
11
2.31705
21
0.442323
0
LINE
8
BLACK
6
CONTINUOUS
10
2.31705
20
0.442323
11
2.12295
21
0.442323
0
LINE
8
BLACK
6
CONTINUOUS
10
2.12295
20
0.542323
11
2.12295
21
0.448228
0
LINE
8
BLACK
6
CONTINUOUS
10
2.12295
20
0.448228
11
2.31705
21
0.448228
0
LINE
8
BLACK
6
CONTINUOUS
10
2.31705
20
0.448228
11
2.31705
21
0.542323
0
LINE
8
BLACK
6
CONTINUOUS
10
2.31705
20
0.542323
11
2.12295
21
0.542323
0
LINE
8
BLACK
6
CONTINUOUS
10
0.433454
20
0.435956
11
0.433584
21
0.435979
0
LINE
8
BLACK
6
CONTINUOUS
10
0.433584
20
0.435979
11
0.433697
21
0.435913
0
LINE
8
BLACK
6
CONTINUOUS
10
0.433697
20
0.435913
11
0.434081
21
0.435846
0
LINE
8
BLACK
6
CONTINUOUS
10
0.434081
20
0.435846
11
0.434668
21
0.435352
0
LINE
8
BLACK
6
CONTINUOUS
10
0.434668
20
0.435352
11
0.435333
21
0.434969
0
LINE
8
BLACK
6
CONTINUOUS
10
0.435333
20
0.434969
11
0.435424
21
0.434719
0
LINE
8
BLACK
6
CONTINUOUS
10
0.435424
20
0.434719
11
0.435628
21
0.434547
0
LINE
8
BLACK
6
CONTINUOUS
10
0.435628
20
0.434547
11
0.435761
21
0.433792
0
LINE
8
BLACK
6
CONTINUOUS
10
0.435761
20
0.433792
11
0.436024
21
0.433071
0
LINE
8
BLACK
6
CONTINUOUS
10
0.436024
20
0.433071
11
0.436024
21
0.15748
0
LINE
8
BLACK
6
CONTINUOUS
10
0.436024
20
0.15748
11
0.435956
21
0.157097
0
LINE
8
BLACK
6
CONTINUOUS
10
0.435956
20
0.157097
11
0.435979
21
0.156968
0
LINE
8
BLACK
6
CONTINUOUS
10
0.435979
20
0.156968
11
0.435913
21
0.156854
0
LINE
8
BLACK
6
CONTINUOUS
10
0.435913
20
0.156854
11
0.435846
21
0.15647
0
LINE
8
BLACK
6
CONTINUOUS
10
0.435846
20
0.15647
11
0.435352
21
0.155883
0
LINE
8
BLACK
6
CONTINUOUS
10
0.435352
20
0.155883
11
0.434969
21
0.155218
0
LINE
8
BLACK
6
CONTINUOUS
10
0.434969
20
0.155218
11
0.434719
21
0.155127
0
LINE
8
BLACK
6
CONTINUOUS
10
0.434719
20
0.155127
11
0.434547
21
0.154923
0
LINE
8
BLACK
6
CONTINUOUS
10
0.434547
20
0.154923
11
0.433792
21
0.15479
0
LINE
8
BLACK
6
CONTINUOUS
10
0.433792
20
0.15479
11
0.433071
21
0.154528
0
LINE
8
BLACK
6
CONTINUOUS
10
0.433071
20
0.154528
11
0.15748
21
0.154528
0
LINE
8
BLACK
6
CONTINUOUS
10
0.15748
20
0.154528
11
0.157097
21
0.154595
0
LINE
8
BLACK
6
CONTINUOUS
10
0.157097
20
0.154595
11
0.156968
21
0.154572
0
LINE
8
BLACK
6
CONTINUOUS
10
0.156968
20
0.154572
11
0.156854
21
0.154638
0
LINE
8
BLACK
6
CONTINUOUS
10
0.156854
20
0.154638
11
0.15647
21
0.154706
0
LINE
8
BLACK
6
CONTINUOUS
10
0.15647
20
0.154706
11
0.155883
21
0.155199
0
LINE
8
BLACK
6
CONTINUOUS
10
0.155883
20
0.155199
11
0.155218
21
0.155582
0
LINE
8
BLACK
6
CONTINUOUS
10
0.155218
20
0.155582
11
0.155127
21
0.155833
0
LINE
8
BLACK
6
CONTINUOUS
10
0.155127
20
0.155833
11
0.154923
21
0.156004
0
LINE
8
BLACK
6
CONTINUOUS
10
0.154923
20
0.156004
11
0.15479
21
0.156759
0
LINE
8
BLACK
6
CONTINUOUS
10
0.15479
20
0.156759
11
0.154528
21
0.15748
0
LINE
8
BLACK
6
CONTINUOUS
10
0.154528
20
0.15748
11
0.154528
21
0.433071
0
LINE
8
BLACK
6
CONTINUOUS
10
0.154528
20
0.433071
11
0.154595
21
0.433454
0
LINE
8
BLACK
6
CONTINUOUS
10
0.154595
20
0.433454
11
0.154572
21
0.433584
0
LINE
8
BLACK
6
CONTINUOUS
10
0.154572
20
0.433584
11
0.154638
21
0.433697
0
LINE
8
BLACK
6
CONTINUOUS
10
0.154638
20
0.433697
11
0.154706
21
0.434081
0
LINE
8
BLACK
6
CONTINUOUS
10
0.154706
20
0.434081
11
0.155199
21
0.434668
0
LINE
8
BLACK
6
CONTINUOUS
10
0.155199
20
0.434668
11
0.155582
21
0.435333
0
LINE
8
BLACK
6
CONTINUOUS
10
0.155582
20
0.435333
11
0.155833
21
0.435424
0
LINE
8
BLACK
6
CONTINUOUS
10
0.155833
20
0.435424
11
0.156004
21
0.435628
0
LINE
8
BLACK
6
CONTINUOUS
10
0.156004
20
0.435628
11
0.156759
21
0.435761
0
LINE
8
BLACK
6
CONTINUOUS
10
0.156759
20
0.435761
11
0.15748
21
0.436024
0
LINE
8
BLACK
6
CONTINUOUS
10
0.15748
20
0.436024
11
0.433071
21
0.436024
0
LINE
8
BLACK
6
CONTINUOUS
10
0.433071
20
0.436024
11
0.433454
21
0.435956
0
LINE
8
BLACK
6
CONTINUOUS
10
0.160433
20
0.430118
11
0.160433
21
0.160433
0
LINE
8
BLACK
6
CONTINUOUS
10
0.160433
20
0.160433
11
0.430118
21
0.160433
0
LINE
8
BLACK
6
CONTINUOUS
10
0.430118
20
0.160433
11
0.430118
21
0.430118
0
LINE
8
BLACK
6
CONTINUOUS
10
0.430118
20
0.430118
11
0.160433
21
0.430118
0
LINE
8
BLACK
6
CONTINUOUS
10
0.315005
20
0.326377
11
0.315173
21
0.326407
0
LINE
8
BLACK
6
CONTINUOUS
10
0.315173
20
0.326407
11
0.315915
21
0.325978
0
LINE
8
BLACK
6
CONTINUOUS
10
0.315915
20
0.325978
11
0.316699
21
0.325634
0
LINE
8
BLACK
6
CONTINUOUS
10
0.316699
20
0.325634
11
0.316775
21
0.325482
0
LINE
8
BLACK
6
CONTINUOUS
10
0.316775
20
0.325482
11
0.316922
21
0.325397
0
LINE
8
BLACK
6
CONTINUOUS
10
0.316922
20
0.325397
11
0.317215
21
0.324592
0
LINE
8
BLACK
6
CONTINUOUS
10
0.317215
20
0.324592
11
0.317595
21
0.323823
0
LINE
8
BLACK
6
CONTINUOUS
10
0.317595
20
0.323823
11
0.317554
21
0.323658
0
LINE
8
BLACK
6
CONTINUOUS
10
0.317554
20
0.323658
11
0.317613
21
0.323499
0
LINE
8
BLACK
6
CONTINUOUS
10
0.317613
20
0.323499
11
0.317613
21
0.287081
0
LINE
8
BLACK
6
CONTINUOUS
10
0.317613
20
0.287081
11
0.325908
21
0.287081
0
LINE
8
BLACK
6
CONTINUOUS
10
0.325908
20
0.287081
11
0.326918
21
0.286903
0
LINE
8
BLACK
6
CONTINUOUS
10
0.326918
20
0.286903
11
0.328466
21
0.285605
0
LINE
8
BLACK
6
CONTINUOUS
10
0.328466
20
0.285605
11
0.328816
21
0.283616
0
LINE
8
BLACK
6
CONTINUOUS
10
0.328816
20
0.283616
11
0.327806
21
0.281867
0
LINE
8
BLACK
6
CONTINUOUS
10
0.327806
20
0.281867
11
0.325908
21
0.281176
0
LINE
8
BLACK
6
CONTINUOUS
10
0.325908
20
0.281176
11
0.303411
21
0.281176
0
LINE
8
BLACK
6
CONTINUOUS
10
0.303411
20
0.281176
11
0.302401
21
0.281354
0
LINE
8
BLACK
6
CONTINUOUS
10
0.302401
20
0.281354
11
0.300854
21
0.282652
0
LINE
8
BLACK
6
CONTINUOUS
10
0.300854
20
0.282652
11
0.300503
21
0.284641
0
LINE
8
BLACK
6
CONTINUOUS
10
0.300503
20
0.284641
11
0.301513
21
0.286391
0
LINE
8
BLACK
6
CONTINUOUS
10
0.301513
20
0.286391
11
0.303411
21
0.287081
0
LINE
8
BLACK
6
CONTINUOUS
10
0.303411
20
0.287081
11
0.311707
21
0.287081
0
LINE
8
BLACK
6
CONTINUOUS
10
0.311707
20
0.287081
11
0.311707
21
0.314495
0
LINE
8
BLACK
6
CONTINUOUS
10
0.311707
20
0.314495
11
0.309249
21
0.312037
0
LINE
8
BLACK
6
CONTINUOUS
10
0.309249
20
0.312037
11
0.308526
21
0.311531
0
LINE
8
BLACK
6
CONTINUOUS
10
0.308526
20
0.311531
11
0.308481
21
0.311484
0
LINE
8
BLACK
6
CONTINUOUS
10
0.308481
20
0.311484
11
0.304732
21
0.309609
0
LINE
8
BLACK
6
CONTINUOUS
10
0.304732
20
0.309609
11
0.303749
21
0.309317
0
LINE
8
BLACK
6
CONTINUOUS
10
0.303749
20
0.309317
11
0.301784
21
0.309786
0
LINE
8
BLACK
6
CONTINUOUS
10
0.301784
20
0.309786
11
0.300581
21
0.311408
0
LINE
8
BLACK
6
CONTINUOUS
10
0.300581
20
0.311408
11
0.300702
21
0.313424
0
LINE
8
BLACK
6
CONTINUOUS
10
0.300702
20
0.313424
11
0.302091
21
0.314891
0
LINE
8
BLACK
6
CONTINUOUS
10
0.302091
20
0.314891
11
0.305412
21
0.316552
0
LINE
8
BLACK
6
CONTINUOUS
10
0.305412
20
0.316552
11
0.308616
21
0.319756
0
LINE
8
BLACK
6
CONTINUOUS
10
0.308616
20
0.319756
11
0.312203
21
0.325137
0
LINE
8
BLACK
6
CONTINUOUS
10
0.312203
20
0.325137
11
0.312911
21
0.325878
0
LINE
8
BLACK
6
CONTINUOUS
10
0.312911
20
0.325878
11
0.313074
21
0.325926
0
LINE
8
BLACK
6
CONTINUOUS
10
0.313074
20
0.325926
11
0.313183
21
0.326056
0
LINE
8
BLACK
6
CONTINUOUS
10
0.313183
20
0.326056
11
0.314027
21
0.326205
0
LINE
8
BLACK
6
CONTINUOUS
10
0.314027
20
0.326205
11
0.31485
21
0.326445
0
LINE
8
BLACK
6
CONTINUOUS
10
0.31485
20
0.326445
11
0.315005
21
0.326377
0
LINE
8
BLACK
6
CONTINUOUS
10
0.2888
20
0.325397
11
0.289491
21
0.323499
0
LINE
8
BLACK
6
CONTINUOUS
10
0.289491
20
0.323499
11
0.289491
21
0.291628
0
LINE
8
BLACK
6
CONTINUOUS
10
0.289491
20
0.291628
11
0.289313
21
0.290618
0
LINE
8
BLACK
6
CONTINUOUS
10
0.289313
20
0.290618
11
0.2892
21
0.290483
0
LINE
8
BLACK
6
CONTINUOUS
10
0.2892
20
0.290483
11
0.289179
21
0.290307
0
LINE
8
BLACK
6
CONTINUOUS
10
0.289179
20
0.290307
11
0.287305
21
0.286558
0
LINE
8
BLACK
6
CONTINUOUS
10
0.287305
20
0.286558
11
0.286779
21
0.285849
0
LINE
8
BLACK
6
CONTINUOUS
10
0.286779
20
0.285849
11
0.286751
21
0.28579
0
LINE
8
BLACK
6
CONTINUOUS
10
0.286751
20
0.28579
11
0.284877
21
0.283916
0
LINE
8
BLACK
6
CONTINUOUS
10
0.284877
20
0.283916
11
0.284154
21
0.283409
0
LINE
8
BLACK
6
CONTINUOUS
10
0.284154
20
0.283409
11
0.284109
21
0.283362
0
LINE
8
BLACK
6
CONTINUOUS
10
0.284109
20
0.283362
11
0.28036
21
0.281488
0
LINE
8
BLACK
6
CONTINUOUS
10
0.28036
20
0.281488
11
0.279377
21
0.281195
0
LINE
8
BLACK
6
CONTINUOUS
10
0.279377
20
0.281195
11
0.279205
21
0.281236
0
LINE
8
BLACK
6
CONTINUOUS
10
0.279205
20
0.281236
11
0.279039
21
0.281176
0
LINE
8
BLACK
6
CONTINUOUS
10
0.279039
20
0.281176
11
0.27154
21
0.281176
0
LINE
8
BLACK
6
CONTINUOUS
10
0.27154
20
0.281176
11
0.27053
21
0.281354
0
LINE
8
BLACK
6
CONTINUOUS
10
0.27053
20
0.281354
11
0.270395
21
0.281467
0
LINE
8
BLACK
6
CONTINUOUS
10
0.270395
20
0.281467
11
0.27022
21
0.281488
0
LINE
8
BLACK
6
CONTINUOUS
10
0.27022
20
0.281488
11
0.26647
21
0.283362
0
LINE
8
BLACK
6
CONTINUOUS
10
0.26647
20
0.283362
11
0.265761
21
0.283888
0
LINE
8
BLACK
6
CONTINUOUS
10
0.265761
20
0.283888
11
0.265703
21
0.283916
0
LINE
8
BLACK
6
CONTINUOUS
10
0.265703
20
0.283916
11
0.263828
21
0.28579
0
LINE
8
BLACK
6
CONTINUOUS
10
0.263828
20
0.28579
11
0.263322
21
0.286513
0
LINE
8
BLACK
6
CONTINUOUS
10
0.263322
20
0.286513
11
0.263275
21
0.286558
0
LINE
8
BLACK
6
CONTINUOUS
10
0.263275
20
0.286558
11
0.2614
21
0.290307
0
LINE
8
BLACK
6
CONTINUOUS
10
0.2614
20
0.290307
11
0.261108
21
0.29129
0
LINE
8
BLACK
6
CONTINUOUS
10
0.261108
20
0.29129
11
0.261149
21
0.291462
0
LINE
8
BLACK
6
CONTINUOUS
10
0.261149
20
0.291462
11
0.261088
21
0.291628
0
LINE
8
BLACK
6
CONTINUOUS
10
0.261088
20
0.291628
11
0.261088
21
0.323499
0
LINE
8
BLACK
6
CONTINUOUS
10
0.261088
20
0.323499
11
0.261266
21
0.324509
0
LINE
8
BLACK
6
CONTINUOUS
10
0.261266
20
0.324509
11
0.262565
21
0.326056
0
LINE
8
BLACK
6
CONTINUOUS
10
0.262565
20
0.326056
11
0.264554
21
0.326407
0
LINE
8
BLACK
6
CONTINUOUS
10
0.264554
20
0.326407
11
0.266303
21
0.325397
0
LINE
8
BLACK
6
CONTINUOUS
10
0.266303
20
0.325397
11
0.266994
21
0.323499
0
LINE
8
BLACK
6
CONTINUOUS
10
0.266994
20
0.323499
11
0.266994
21
0.292325
0
LINE
8
BLACK
6
CONTINUOUS
10
0.266994
20
0.292325
11
0.268343
21
0.289627
0
LINE
8
BLACK
6
CONTINUOUS
10
0.268343
20
0.289627
11
0.26954
21
0.28843
0
LINE
8
BLACK
6
CONTINUOUS
10
0.26954
20
0.28843
11
0.272237
21
0.287081
0
LINE
8
BLACK
6
CONTINUOUS
10
0.272237
20
0.287081
11
0.278342
21
0.287081
0
LINE
8
BLACK
6
CONTINUOUS
10
0.278342
20
0.287081
11
0.28104
21
0.28843
0
LINE
8
BLACK
6
CONTINUOUS
10
0.28104
20
0.28843
11
0.282237
21
0.289627
0
LINE
8
BLACK
6
CONTINUOUS
10
0.282237
20
0.289627
11
0.283586
21
0.292325
0
LINE
8
BLACK
6
CONTINUOUS
10
0.283586
20
0.292325
11
0.283586
21
0.323499
0
LINE
8
BLACK
6
CONTINUOUS
10
0.283586
20
0.323499
11
0.283764
21
0.324509
0
LINE
8
BLACK
6
CONTINUOUS
10
0.283764
20
0.324509
11
0.285062
21
0.326056
0
LINE
8
BLACK
6
CONTINUOUS
10
0.285062
20
0.326056
11
0.287051
21
0.326407
0
LINE
8
BLACK
6
CONTINUOUS
10
0.287051
20
0.326407
11
0.2888
21
0.325397
0
LINE
8
BLACK
6
CONTINUOUS
10
0.165831
20
0.260262
11
0.168092
21
0.265078
0
LINE
8
BLACK
6
CONTINUOUS
10
0.168092
20
0.265078
11
0.171614
21
0.269065
0
LINE
8
BLACK
6
CONTINUOUS
10
0.171614
20
0.269065
11
0.176114
21
0.271904
0
LINE
8
BLACK
6
CONTINUOUS
10
0.176114
20
0.271904
11
0.181229
21
0.273366
0
LINE
8
BLACK
6
CONTINUOUS
10
0.181229
20
0.273366
11
0.186549
21
0.273334
0
LINE
8
BLACK
6
CONTINUOUS
10
0.186549
20
0.273334
11
0.191646
21
0.271809
0
LINE
8
BLACK
6
CONTINUOUS
10
0.191646
20
0.271809
11
0.196111
21
0.268916
0
LINE
8
BLACK
6
CONTINUOUS
10
0.196111
20
0.268916
11
0.199583
21
0.264885
0
LINE
8
BLACK
6
CONTINUOUS
10
0.199583
20
0.264885
11
0.201786
21
0.260042
0
LINE
8
BLACK
6
CONTINUOUS
10
0.201786
20
0.260042
11
0.20254
21
0.254776
0
LINE
8
BLACK
6
CONTINUOUS
10
0.20254
20
0.254776
11
0.202534
21
0.254317
0
LINE
8
BLACK
6
CONTINUOUS
10
0.202534
20
0.254317
11
0.201651
21
0.249071
0
LINE
8
BLACK
6
CONTINUOUS
10
0.201651
20
0.249071
11
0.199332
21
0.244283
0
LINE
8
BLACK
6
CONTINUOUS
10
0.199332
20
0.244283
11
0.195761
21
0.240338
0
LINE
8
BLACK
6
CONTINUOUS
10
0.195761
20
0.240338
11
0.191228
21
0.237555
0
LINE
8
BLACK
6
CONTINUOUS
10
0.191228
20
0.237555
11
0.186095
21
0.236155
0
LINE
8
BLACK
6
CONTINUOUS
10
0.186095
20
0.236155
11
0.180776
21
0.236253
0
LINE
8
BLACK
6
CONTINUOUS
10
0.180776
20
0.236253
11
0.175697
21
0.237839
0
LINE
8
BLACK
6
CONTINUOUS
10
0.175697
20
0.237839
11
0.171269
21
0.240787
0
LINE
8
BLACK
6
CONTINUOUS
10
0.171269
20
0.240787
11
0.167845
21
0.24486
0
LINE
8
BLACK
6
CONTINUOUS
10
0.167845
20
0.24486
11
0.165703
21
0.24973
0
LINE
8
BLACK
6
CONTINUOUS
10
0.165703
20
0.24973
11
0.165043
21
0.254776
0
LINE
8
BLACK
6
CONTINUOUS
10
0.165043
20
0.254776
11
0.165013
21
0.255005
0
LINE
8
BLACK
6
CONTINUOUS
10
0.165013
20
0.255005
11
0.165831
21
0.260262
0
LINE
8
BLACK
6
CONTINUOUS
10
0.173773
20
0.246383
11
0.177247
21
0.243468
0
LINE
8
BLACK
6
CONTINUOUS
10
0.177247
20
0.243468
11
0.181508
21
0.241917
0
LINE
8
BLACK
6
CONTINUOUS
10
0.181508
20
0.241917
11
0.186043
21
0.241917
0
LINE
8
BLACK
6
CONTINUOUS
10
0.186043
20
0.241917
11
0.190304
21
0.243468
0
LINE
8
BLACK
6
CONTINUOUS
10
0.190304
20
0.243468
11
0.193778
21
0.246383
0
LINE
8
BLACK
6
CONTINUOUS
10
0.193778
20
0.246383
11
0.196045
21
0.25031
0
LINE
8
BLACK
6
CONTINUOUS
10
0.196045
20
0.25031
11
0.196833
21
0.254776
0
LINE
8
BLACK
6
CONTINUOUS
10
0.196833
20
0.254776
11
0.196045
21
0.259241
0
LINE
8
BLACK
6
CONTINUOUS
10
0.196045
20
0.259241
11
0.193778
21
0.263168
0
LINE
8
BLACK
6
CONTINUOUS
10
0.193778
20
0.263168
11
0.190304
21
0.266083
0
LINE
8
BLACK
6
CONTINUOUS
10
0.190304
20
0.266083
11
0.186043
21
0.267634
0
LINE
8
BLACK
6
CONTINUOUS
10
0.186043
20
0.267634
11
0.181508
21
0.267634
0
LINE
8
BLACK
6
CONTINUOUS
10
0.181508
20
0.267634
11
0.177247
21
0.266083
0
LINE
8
BLACK
6
CONTINUOUS
10
0.177247
20
0.266083
11
0.173773
21
0.263168
0
LINE
8
BLACK
6
CONTINUOUS
10
0.173773
20
0.263168
11
0.171506
21
0.259241
0
LINE
8
BLACK
6
CONTINUOUS
10
0.171506
20
0.259241
11
0.170719
21
0.254776
0
LINE
8
BLACK
6
CONTINUOUS
10
0.170719
20
0.254776
11
0.171506
21
0.25031
0
LINE
8
BLACK
6
CONTINUOUS
10
0.171506
20
0.25031
11
0.173773
21
0.246383
  0
ENDSEC
  0
EOF
