  0
SECTION
  2
HEADER
  9
$ANGBASE
  50
0.0
  9
$ANGDIR
  70
1
  9
$MEASUREMENT
  70
0
  0
ENDSEC
  0
SECTION
  2
TABLES
  0
TABLE
  2
LTYPE
  70
4
  0
LTYPE
  5
40F
  2
CONTINUOUS
  70
0
  3
Solid line
  72
65
  73
0
  40
0.0
  0
LTYPE
  5
410
  2
DASHDOT
 70
0
  3
Dash Dot ____ _ ____ _
 72
65
 73
4
 40
2.0
 49
1.25
 49
-0.25
 49
0.25
 49
-0.25
  0
LTYPE
  5
411
  2
DASHED
 70
0
  3
Dashed __ __ __ __ __
 72
65
 73
2
 40
0.75
 49
0.5
 49
-0.25
  0
LTYPE
  5
43B
  2
DOTTED
 70
0
  3
Dotted .  .  .  .
 72
65
 73
2
 40
0.2
 49
0.0
 49
-0.2
  0
ENDTAB
  0
TABLE
  2
STYLE
  70
4
  0
STYLE
  2
KICAD
  70
0
  40
0
  41
1
  42
1
  50
0
  71
0
  3
isocp.shx
  0
STYLE
  2
KICADB
  70
0
  40
0
  41
1
  42
1
  50
0
  71
0
  3
isocp.shx
  0
STYLE
  2
KICADI
  70
0
  40
0
  41
1
  42
1
  50
15
  71
0
  3
isocp.shx
  0
STYLE
  2
KICADBI
  70
0
  40
0
  41
1
  42
1
  50
15
  71
0
  3
isocp.shx
  0
ENDTAB
  0
TABLE
  2
LAYER
  70
1
  0
LAYER
  2
BLACK
  70
0
  62
7
  6
CONTINUOUS
  0
ENDTAB
  0
ENDSEC
  0
SECTION
  2
ENTITIES
0
LINE
8
BLACK
6
CONTINUOUS
10
2.20301
20
0.13255
11
2.20557
21
0.130843
0
LINE
8
BLACK
6
CONTINUOUS
10
2.20557
20
0.130843
11
2.20727
21
0.128289
0
LINE
8
BLACK
6
CONTINUOUS
10
2.20727
20
0.128289
11
2.20787
21
0.125276
0
LINE
8
BLACK
6
CONTINUOUS
10
2.20787
20
0.125276
11
2.20787
21
0.0652756
0
LINE
8
BLACK
6
CONTINUOUS
10
2.20787
20
0.0652756
11
2.20727
21
0.0622623
0
LINE
8
BLACK
6
CONTINUOUS
10
2.20727
20
0.0622623
11
2.20557
21
0.0597078
0
LINE
8
BLACK
6
CONTINUOUS
10
2.20557
20
0.0597078
11
2.20301
21
0.0580009
0
LINE
8
BLACK
6
CONTINUOUS
10
2.20301
20
0.0580009
11
2.2
21
0.0574016
0
LINE
8
BLACK
6
CONTINUOUS
10
2.2
20
0.0574016
11
2.14
21
0.0574016
0
LINE
8
BLACK
6
CONTINUOUS
10
2.14
20
0.0574016
11
2.13699
21
0.0580009
0
LINE
8
BLACK
6
CONTINUOUS
10
2.13699
20
0.0580009
11
2.13443
21
0.0597078
0
LINE
8
BLACK
6
CONTINUOUS
10
2.13443
20
0.0597078
11
2.13273
21
0.0622623
0
LINE
8
BLACK
6
CONTINUOUS
10
2.13273
20
0.0622623
11
2.13213
21
0.0652756
0
LINE
8
BLACK
6
CONTINUOUS
10
2.13213
20
0.0652756
11
2.13213
21
0.125276
0
LINE
8
BLACK
6
CONTINUOUS
10
2.13213
20
0.125276
11
2.13273
21
0.128289
0
LINE
8
BLACK
6
CONTINUOUS
10
2.13273
20
0.128289
11
2.13443
21
0.130843
0
LINE
8
BLACK
6
CONTINUOUS
10
2.13443
20
0.130843
11
2.13699
21
0.13255
0
LINE
8
BLACK
6
CONTINUOUS
10
2.13699
20
0.13255
11
2.14
21
0.13315
0
LINE
8
BLACK
6
CONTINUOUS
10
2.14
20
0.13315
11
2.2
21
0.13315
0
LINE
8
BLACK
6
CONTINUOUS
10
2.2
20
0.13315
11
2.20301
21
0.13255
0
LINE
8
BLACK
6
CONTINUOUS
10
2.30301
20
0.13255
11
2.30557
21
0.130843
0
LINE
8
BLACK
6
CONTINUOUS
10
2.30557
20
0.130843
11
2.30727
21
0.128289
0
LINE
8
BLACK
6
CONTINUOUS
10
2.30727
20
0.128289
11
2.30787
21
0.125276
0
LINE
8
BLACK
6
CONTINUOUS
10
2.30787
20
0.125276
11
2.30787
21
0.0652756
0
LINE
8
BLACK
6
CONTINUOUS
10
2.30787
20
0.0652756
11
2.30727
21
0.0622623
0
LINE
8
BLACK
6
CONTINUOUS
10
2.30727
20
0.0622623
11
2.30557
21
0.0597078
0
LINE
8
BLACK
6
CONTINUOUS
10
2.30557
20
0.0597078
11
2.30301
21
0.0580009
0
LINE
8
BLACK
6
CONTINUOUS
10
2.30301
20
0.0580009
11
2.3
21
0.0574016
0
LINE
8
BLACK
6
CONTINUOUS
10
2.3
20
0.0574016
11
2.24
21
0.0574016
0
LINE
8
BLACK
6
CONTINUOUS
10
2.24
20
0.0574016
11
2.23699
21
0.0580009
0
LINE
8
BLACK
6
CONTINUOUS
10
2.23699
20
0.0580009
11
2.23443
21
0.0597078
0
LINE
8
BLACK
6
CONTINUOUS
10
2.23443
20
0.0597078
11
2.23273
21
0.0622623
0
LINE
8
BLACK
6
CONTINUOUS
10
2.23273
20
0.0622623
11
2.23213
21
0.0652756
0
LINE
8
BLACK
6
CONTINUOUS
10
2.23213
20
0.0652756
11
2.23213
21
0.125276
0
LINE
8
BLACK
6
CONTINUOUS
10
2.23213
20
0.125276
11
2.23273
21
0.128289
0
LINE
8
BLACK
6
CONTINUOUS
10
2.23273
20
0.128289
11
2.23443
21
0.130843
0
LINE
8
BLACK
6
CONTINUOUS
10
2.23443
20
0.130843
11
2.23699
21
0.13255
0
LINE
8
BLACK
6
CONTINUOUS
10
2.23699
20
0.13255
11
2.24
21
0.13315
0
LINE
8
BLACK
6
CONTINUOUS
10
2.24
20
0.13315
11
2.3
21
0.13315
0
LINE
8
BLACK
6
CONTINUOUS
10
2.3
20
0.13315
11
2.30301
21
0.13255
0
LINE
8
BLACK
6
CONTINUOUS
10
0.23136
20
0.235621
11
0.233914
21
0.233914
0
LINE
8
BLACK
6
CONTINUOUS
10
0.233914
20
0.233914
11
0.235621
21
0.23136
0
LINE
8
BLACK
6
CONTINUOUS
10
0.235621
20
0.23136
11
0.23622
21
0.228346
0
LINE
8
BLACK
6
CONTINUOUS
10
0.23622
20
0.228346
11
0.23622
21
0.0905512
0
LINE
8
BLACK
6
CONTINUOUS
10
0.23622
20
0.0905512
11
0.235621
21
0.0875379
0
LINE
8
BLACK
6
CONTINUOUS
10
0.235621
20
0.0875379
11
0.233914
21
0.0849834
0
LINE
8
BLACK
6
CONTINUOUS
10
0.233914
20
0.0849834
11
0.23136
21
0.0832765
0
LINE
8
BLACK
6
CONTINUOUS
10
0.23136
20
0.0832765
11
0.228346
21
0.0826772
0
LINE
8
BLACK
6
CONTINUOUS
10
0.228346
20
0.0826772
11
0.0905512
21
0.0826772
0
LINE
8
BLACK
6
CONTINUOUS
10
0.0905512
20
0.0826772
11
0.0875379
21
0.0832765
0
LINE
8
BLACK
6
CONTINUOUS
10
0.0875379
20
0.0832765
11
0.0849834
21
0.0849834
0
LINE
8
BLACK
6
CONTINUOUS
10
0.0849834
20
0.0849834
11
0.0832765
21
0.0875379
0
LINE
8
BLACK
6
CONTINUOUS
10
0.0832765
20
0.0875379
11
0.0826772
21
0.0905512
0
LINE
8
BLACK
6
CONTINUOUS
10
0.0826772
20
0.0905512
11
0.0826772
21
0.228346
0
LINE
8
BLACK
6
CONTINUOUS
10
0.0826772
20
0.228346
11
0.0832765
21
0.23136
0
LINE
8
BLACK
6
CONTINUOUS
10
0.0832765
20
0.23136
11
0.0849834
21
0.233914
0
LINE
8
BLACK
6
CONTINUOUS
10
0.0849834
20
0.233914
11
0.0875379
21
0.235621
0
LINE
8
BLACK
6
CONTINUOUS
10
0.0875379
20
0.235621
11
0.0905512
21
0.23622
0
LINE
8
BLACK
6
CONTINUOUS
10
0.0905512
20
0.23622
11
0.228346
21
0.23622
0
LINE
8
BLACK
6
CONTINUOUS
10
0.228346
20
0.23622
11
0.23136
21
0.235621
0
LINE
8
BLACK
6
CONTINUOUS
10
0.503013
20
0.235621
11
0.505568
21
0.233914
0
LINE
8
BLACK
6
CONTINUOUS
10
0.505568
20
0.233914
11
0.507275
21
0.23136
0
LINE
8
BLACK
6
CONTINUOUS
10
0.507275
20
0.23136
11
0.507874
21
0.228346
0
LINE
8
BLACK
6
CONTINUOUS
10
0.507874
20
0.228346
11
0.507874
21
0.0905512
0
LINE
8
BLACK
6
CONTINUOUS
10
0.507874
20
0.0905512
11
0.507275
21
0.0875379
0
LINE
8
BLACK
6
CONTINUOUS
10
0.507275
20
0.0875379
11
0.505568
21
0.0849834
0
LINE
8
BLACK
6
CONTINUOUS
10
0.505568
20
0.0849834
11
0.503013
21
0.0832765
0
LINE
8
BLACK
6
CONTINUOUS
10
0.503013
20
0.0832765
11
0.5
21
0.0826772
0
LINE
8
BLACK
6
CONTINUOUS
10
0.5
20
0.0826772
11
0.362205
21
0.0826772
0
LINE
8
BLACK
6
CONTINUOUS
10
0.362205
20
0.0826772
11
0.359191
21
0.0832765
0
LINE
8
BLACK
6
CONTINUOUS
10
0.359191
20
0.0832765
11
0.356637
21
0.0849834
0
LINE
8
BLACK
6
CONTINUOUS
10
0.356637
20
0.0849834
11
0.35493
21
0.0875379
0
LINE
8
BLACK
6
CONTINUOUS
10
0.35493
20
0.0875379
11
0.354331
21
0.0905512
0
LINE
8
BLACK
6
CONTINUOUS
10
0.354331
20
0.0905512
11
0.354331
21
0.228346
0
LINE
8
BLACK
6
CONTINUOUS
10
0.354331
20
0.228346
11
0.35493
21
0.23136
0
LINE
8
BLACK
6
CONTINUOUS
10
0.35493
20
0.23136
11
0.356637
21
0.233914
0
LINE
8
BLACK
6
CONTINUOUS
10
0.356637
20
0.233914
11
0.359191
21
0.235621
0
LINE
8
BLACK
6
CONTINUOUS
10
0.359191
20
0.235621
11
0.362205
21
0.23622
0
LINE
8
BLACK
6
CONTINUOUS
10
0.362205
20
0.23622
11
0.5
21
0.23622
0
LINE
8
BLACK
6
CONTINUOUS
10
0.5
20
0.23622
11
0.503013
21
0.235621
0
LINE
8
BLACK
6
CONTINUOUS
10
2.20301
20
0.23255
11
2.20557
21
0.230843
0
LINE
8
BLACK
6
CONTINUOUS
10
2.20557
20
0.230843
11
2.20727
21
0.228289
0
LINE
8
BLACK
6
CONTINUOUS
10
2.20727
20
0.228289
11
2.20787
21
0.225276
0
LINE
8
BLACK
6
CONTINUOUS
10
2.20787
20
0.225276
11
2.20787
21
0.165276
0
LINE
8
BLACK
6
CONTINUOUS
10
2.20787
20
0.165276
11
2.20727
21
0.162262
0
LINE
8
BLACK
6
CONTINUOUS
10
2.20727
20
0.162262
11
2.20557
21
0.159708
0
LINE
8
BLACK
6
CONTINUOUS
10
2.20557
20
0.159708
11
2.20301
21
0.158001
0
LINE
8
BLACK
6
CONTINUOUS
10
2.20301
20
0.158001
11
2.2
21
0.157402
0
LINE
8
BLACK
6
CONTINUOUS
10
2.2
20
0.157402
11
2.14
21
0.157402
0
LINE
8
BLACK
6
CONTINUOUS
10
2.14
20
0.157402
11
2.13699
21
0.158001
0
LINE
8
BLACK
6
CONTINUOUS
10
2.13699
20
0.158001
11
2.13443
21
0.159708
0
LINE
8
BLACK
6
CONTINUOUS
10
2.13443
20
0.159708
11
2.13273
21
0.162262
0
LINE
8
BLACK
6
CONTINUOUS
10
2.13273
20
0.162262
11
2.13213
21
0.165276
0
LINE
8
BLACK
6
CONTINUOUS
10
2.13213
20
0.165276
11
2.13213
21
0.225276
0
LINE
8
BLACK
6
CONTINUOUS
10
2.13213
20
0.225276
11
2.13273
21
0.228289
0
LINE
8
BLACK
6
CONTINUOUS
10
2.13273
20
0.228289
11
2.13443
21
0.230843
0
LINE
8
BLACK
6
CONTINUOUS
10
2.13443
20
0.230843
11
2.13699
21
0.23255
0
LINE
8
BLACK
6
CONTINUOUS
10
2.13699
20
0.23255
11
2.14
21
0.23315
0
LINE
8
BLACK
6
CONTINUOUS
10
2.14
20
0.23315
11
2.2
21
0.23315
0
LINE
8
BLACK
6
CONTINUOUS
10
2.2
20
0.23315
11
2.20301
21
0.23255
0
LINE
8
BLACK
6
CONTINUOUS
10
2.30301
20
0.23255
11
2.30557
21
0.230843
0
LINE
8
BLACK
6
CONTINUOUS
10
2.30557
20
0.230843
11
2.30727
21
0.228289
0
LINE
8
BLACK
6
CONTINUOUS
10
2.30727
20
0.228289
11
2.30787
21
0.225276
0
LINE
8
BLACK
6
CONTINUOUS
10
2.30787
20
0.225276
11
2.30787
21
0.165276
0
LINE
8
BLACK
6
CONTINUOUS
10
2.30787
20
0.165276
11
2.30727
21
0.162262
0
LINE
8
BLACK
6
CONTINUOUS
10
2.30727
20
0.162262
11
2.30557
21
0.159708
0
LINE
8
BLACK
6
CONTINUOUS
10
2.30557
20
0.159708
11
2.30301
21
0.158001
0
LINE
8
BLACK
6
CONTINUOUS
10
2.30301
20
0.158001
11
2.3
21
0.157402
0
LINE
8
BLACK
6
CONTINUOUS
10
2.3
20
0.157402
11
2.24
21
0.157402
0
LINE
8
BLACK
6
CONTINUOUS
10
2.24
20
0.157402
11
2.23699
21
0.158001
0
LINE
8
BLACK
6
CONTINUOUS
10
2.23699
20
0.158001
11
2.23443
21
0.159708
0
LINE
8
BLACK
6
CONTINUOUS
10
2.23443
20
0.159708
11
2.23273
21
0.162262
0
LINE
8
BLACK
6
CONTINUOUS
10
2.23273
20
0.162262
11
2.23213
21
0.165276
0
LINE
8
BLACK
6
CONTINUOUS
10
2.23213
20
0.165276
11
2.23213
21
0.225276
0
LINE
8
BLACK
6
CONTINUOUS
10
2.23213
20
0.225276
11
2.23273
21
0.228289
0
LINE
8
BLACK
6
CONTINUOUS
10
2.23273
20
0.228289
11
2.23443
21
0.230843
0
LINE
8
BLACK
6
CONTINUOUS
10
2.23443
20
0.230843
11
2.23699
21
0.23255
0
LINE
8
BLACK
6
CONTINUOUS
10
2.23699
20
0.23255
11
2.24
21
0.23315
0
LINE
8
BLACK
6
CONTINUOUS
10
2.24
20
0.23315
11
2.3
21
0.23315
0
LINE
8
BLACK
6
CONTINUOUS
10
2.3
20
0.23315
11
2.30301
21
0.23255
0
LINE
8
BLACK
6
CONTINUOUS
10
2.20301
20
0.33255
11
2.20557
21
0.330843
0
LINE
8
BLACK
6
CONTINUOUS
10
2.20557
20
0.330843
11
2.20727
21
0.328289
0
LINE
8
BLACK
6
CONTINUOUS
10
2.20727
20
0.328289
11
2.20787
21
0.325276
0
LINE
8
BLACK
6
CONTINUOUS
10
2.20787
20
0.325276
11
2.20787
21
0.265276
0
LINE
8
BLACK
6
CONTINUOUS
10
2.20787
20
0.265276
11
2.20727
21
0.262262
0
LINE
8
BLACK
6
CONTINUOUS
10
2.20727
20
0.262262
11
2.20557
21
0.259708
0
LINE
8
BLACK
6
CONTINUOUS
10
2.20557
20
0.259708
11
2.20301
21
0.258001
0
LINE
8
BLACK
6
CONTINUOUS
10
2.20301
20
0.258001
11
2.2
21
0.257402
0
LINE
8
BLACK
6
CONTINUOUS
10
2.2
20
0.257402
11
2.14
21
0.257402
0
LINE
8
BLACK
6
CONTINUOUS
10
2.14
20
0.257402
11
2.13699
21
0.258001
0
LINE
8
BLACK
6
CONTINUOUS
10
2.13699
20
0.258001
11
2.13443
21
0.259708
0
LINE
8
BLACK
6
CONTINUOUS
10
2.13443
20
0.259708
11
2.13273
21
0.262262
0
LINE
8
BLACK
6
CONTINUOUS
10
2.13273
20
0.262262
11
2.13213
21
0.265276
0
LINE
8
BLACK
6
CONTINUOUS
10
2.13213
20
0.265276
11
2.13213
21
0.325276
0
LINE
8
BLACK
6
CONTINUOUS
10
2.13213
20
0.325276
11
2.13273
21
0.328289
0
LINE
8
BLACK
6
CONTINUOUS
10
2.13273
20
0.328289
11
2.13443
21
0.330843
0
LINE
8
BLACK
6
CONTINUOUS
10
2.13443
20
0.330843
11
2.13699
21
0.33255
0
LINE
8
BLACK
6
CONTINUOUS
10
2.13699
20
0.33255
11
2.14
21
0.33315
0
LINE
8
BLACK
6
CONTINUOUS
10
2.14
20
0.33315
11
2.2
21
0.33315
0
LINE
8
BLACK
6
CONTINUOUS
10
2.2
20
0.33315
11
2.20301
21
0.33255
0
LINE
8
BLACK
6
CONTINUOUS
10
2.30301
20
0.33255
11
2.30557
21
0.330843
0
LINE
8
BLACK
6
CONTINUOUS
10
2.30557
20
0.330843
11
2.30727
21
0.328289
0
LINE
8
BLACK
6
CONTINUOUS
10
2.30727
20
0.328289
11
2.30787
21
0.325276
0
LINE
8
BLACK
6
CONTINUOUS
10
2.30787
20
0.325276
11
2.30787
21
0.265276
0
LINE
8
BLACK
6
CONTINUOUS
10
2.30787
20
0.265276
11
2.30727
21
0.262262
0
LINE
8
BLACK
6
CONTINUOUS
10
2.30727
20
0.262262
11
2.30557
21
0.259708
0
LINE
8
BLACK
6
CONTINUOUS
10
2.30557
20
0.259708
11
2.30301
21
0.258001
0
LINE
8
BLACK
6
CONTINUOUS
10
2.30301
20
0.258001
11
2.3
21
0.257402
0
LINE
8
BLACK
6
CONTINUOUS
10
2.3
20
0.257402
11
2.24
21
0.257402
0
LINE
8
BLACK
6
CONTINUOUS
10
2.24
20
0.257402
11
2.23699
21
0.258001
0
LINE
8
BLACK
6
CONTINUOUS
10
2.23699
20
0.258001
11
2.23443
21
0.259708
0
LINE
8
BLACK
6
CONTINUOUS
10
2.23443
20
0.259708
11
2.23273
21
0.262262
0
LINE
8
BLACK
6
CONTINUOUS
10
2.23273
20
0.262262
11
2.23213
21
0.265276
0
LINE
8
BLACK
6
CONTINUOUS
10
2.23213
20
0.265276
11
2.23213
21
0.325276
0
LINE
8
BLACK
6
CONTINUOUS
10
2.23213
20
0.325276
11
2.23273
21
0.328289
0
LINE
8
BLACK
6
CONTINUOUS
10
2.23273
20
0.328289
11
2.23443
21
0.330843
0
LINE
8
BLACK
6
CONTINUOUS
10
2.23443
20
0.330843
11
2.23699
21
0.33255
0
LINE
8
BLACK
6
CONTINUOUS
10
2.23699
20
0.33255
11
2.24
21
0.33315
0
LINE
8
BLACK
6
CONTINUOUS
10
2.24
20
0.33315
11
2.3
21
0.33315
0
LINE
8
BLACK
6
CONTINUOUS
10
2.3
20
0.33315
11
2.30301
21
0.33255
0
LINE
8
BLACK
6
CONTINUOUS
10
0.503013
20
0.507275
11
0.505568
21
0.505568
0
LINE
8
BLACK
6
CONTINUOUS
10
0.505568
20
0.505568
11
0.507275
21
0.503013
0
LINE
8
BLACK
6
CONTINUOUS
10
0.507275
20
0.503013
11
0.507874
21
0.5
0
LINE
8
BLACK
6
CONTINUOUS
10
0.507874
20
0.5
11
0.507874
21
0.362205
0
LINE
8
BLACK
6
CONTINUOUS
10
0.507874
20
0.362205
11
0.507275
21
0.359191
0
LINE
8
BLACK
6
CONTINUOUS
10
0.507275
20
0.359191
11
0.505568
21
0.356637
0
LINE
8
BLACK
6
CONTINUOUS
10
0.505568
20
0.356637
11
0.503013
21
0.35493
0
LINE
8
BLACK
6
CONTINUOUS
10
0.503013
20
0.35493
11
0.5
21
0.354331
0
LINE
8
BLACK
6
CONTINUOUS
10
0.5
20
0.354331
11
0.362205
21
0.354331
0
LINE
8
BLACK
6
CONTINUOUS
10
0.362205
20
0.354331
11
0.359191
21
0.35493
0
LINE
8
BLACK
6
CONTINUOUS
10
0.359191
20
0.35493
11
0.356637
21
0.356637
0
LINE
8
BLACK
6
CONTINUOUS
10
0.356637
20
0.356637
11
0.35493
21
0.359191
0
LINE
8
BLACK
6
CONTINUOUS
10
0.35493
20
0.359191
11
0.354331
21
0.362205
0
LINE
8
BLACK
6
CONTINUOUS
10
0.354331
20
0.362205
11
0.354331
21
0.5
0
LINE
8
BLACK
6
CONTINUOUS
10
0.354331
20
0.5
11
0.35493
21
0.503013
0
LINE
8
BLACK
6
CONTINUOUS
10
0.35493
20
0.503013
11
0.356637
21
0.505568
0
LINE
8
BLACK
6
CONTINUOUS
10
0.356637
20
0.505568
11
0.359191
21
0.507275
0
LINE
8
BLACK
6
CONTINUOUS
10
0.359191
20
0.507275
11
0.362205
21
0.507874
0
LINE
8
BLACK
6
CONTINUOUS
10
0.362205
20
0.507874
11
0.5
21
0.507874
0
LINE
8
BLACK
6
CONTINUOUS
10
0.5
20
0.507874
11
0.503013
21
0.507275
0
LINE
8
BLACK
6
CONTINUOUS
10
0.23136
20
0.507275
11
0.233914
21
0.505568
0
LINE
8
BLACK
6
CONTINUOUS
10
0.233914
20
0.505568
11
0.235621
21
0.503013
0
LINE
8
BLACK
6
CONTINUOUS
10
0.235621
20
0.503013
11
0.23622
21
0.5
0
LINE
8
BLACK
6
CONTINUOUS
10
0.23622
20
0.5
11
0.23622
21
0.362205
0
LINE
8
BLACK
6
CONTINUOUS
10
0.23622
20
0.362205
11
0.235621
21
0.359191
0
LINE
8
BLACK
6
CONTINUOUS
10
0.235621
20
0.359191
11
0.233914
21
0.356637
0
LINE
8
BLACK
6
CONTINUOUS
10
0.233914
20
0.356637
11
0.23136
21
0.35493
0
LINE
8
BLACK
6
CONTINUOUS
10
0.23136
20
0.35493
11
0.228346
21
0.354331
0
LINE
8
BLACK
6
CONTINUOUS
10
0.228346
20
0.354331
11
0.0905512
21
0.354331
0
LINE
8
BLACK
6
CONTINUOUS
10
0.0905512
20
0.354331
11
0.0875379
21
0.35493
0
LINE
8
BLACK
6
CONTINUOUS
10
0.0875379
20
0.35493
11
0.0849834
21
0.356637
0
LINE
8
BLACK
6
CONTINUOUS
10
0.0849834
20
0.356637
11
0.0832765
21
0.359191
0
LINE
8
BLACK
6
CONTINUOUS
10
0.0832765
20
0.359191
11
0.0826772
21
0.362205
0
LINE
8
BLACK
6
CONTINUOUS
10
0.0826772
20
0.362205
11
0.0826772
21
0.5
0
LINE
8
BLACK
6
CONTINUOUS
10
0.0826772
20
0.5
11
0.0832765
21
0.503013
0
LINE
8
BLACK
6
CONTINUOUS
10
0.0832765
20
0.503013
11
0.0849834
21
0.505568
0
LINE
8
BLACK
6
CONTINUOUS
10
0.0849834
20
0.505568
11
0.0875379
21
0.507275
0
LINE
8
BLACK
6
CONTINUOUS
10
0.0875379
20
0.507275
11
0.0905512
21
0.507874
0
LINE
8
BLACK
6
CONTINUOUS
10
0.0905512
20
0.507874
11
0.228346
21
0.507874
0
LINE
8
BLACK
6
CONTINUOUS
10
0.228346
20
0.507874
11
0.23136
21
0.507275
0
LINE
8
BLACK
6
CONTINUOUS
10
2.20301
20
0.43255
11
2.20557
21
0.430843
0
LINE
8
BLACK
6
CONTINUOUS
10
2.20557
20
0.430843
11
2.20727
21
0.428289
0
LINE
8
BLACK
6
CONTINUOUS
10
2.20727
20
0.428289
11
2.20787
21
0.425276
0
LINE
8
BLACK
6
CONTINUOUS
10
2.20787
20
0.425276
11
2.20787
21
0.365276
0
LINE
8
BLACK
6
CONTINUOUS
10
2.20787
20
0.365276
11
2.20727
21
0.362262
0
LINE
8
BLACK
6
CONTINUOUS
10
2.20727
20
0.362262
11
2.20557
21
0.359708
0
LINE
8
BLACK
6
CONTINUOUS
10
2.20557
20
0.359708
11
2.20301
21
0.358001
0
LINE
8
BLACK
6
CONTINUOUS
10
2.20301
20
0.358001
11
2.2
21
0.357402
0
LINE
8
BLACK
6
CONTINUOUS
10
2.2
20
0.357402
11
2.14
21
0.357402
0
LINE
8
BLACK
6
CONTINUOUS
10
2.14
20
0.357402
11
2.13699
21
0.358001
0
LINE
8
BLACK
6
CONTINUOUS
10
2.13699
20
0.358001
11
2.13443
21
0.359708
0
LINE
8
BLACK
6
CONTINUOUS
10
2.13443
20
0.359708
11
2.13273
21
0.362262
0
LINE
8
BLACK
6
CONTINUOUS
10
2.13273
20
0.362262
11
2.13213
21
0.365276
0
LINE
8
BLACK
6
CONTINUOUS
10
2.13213
20
0.365276
11
2.13213
21
0.425276
0
LINE
8
BLACK
6
CONTINUOUS
10
2.13213
20
0.425276
11
2.13273
21
0.428289
0
LINE
8
BLACK
6
CONTINUOUS
10
2.13273
20
0.428289
11
2.13443
21
0.430843
0
LINE
8
BLACK
6
CONTINUOUS
10
2.13443
20
0.430843
11
2.13699
21
0.43255
0
LINE
8
BLACK
6
CONTINUOUS
10
2.13699
20
0.43255
11
2.14
21
0.43315
0
LINE
8
BLACK
6
CONTINUOUS
10
2.14
20
0.43315
11
2.2
21
0.43315
0
LINE
8
BLACK
6
CONTINUOUS
10
2.2
20
0.43315
11
2.20301
21
0.43255
0
LINE
8
BLACK
6
CONTINUOUS
10
2.30301
20
0.43255
11
2.30557
21
0.430843
0
LINE
8
BLACK
6
CONTINUOUS
10
2.30557
20
0.430843
11
2.30727
21
0.428289
0
LINE
8
BLACK
6
CONTINUOUS
10
2.30727
20
0.428289
11
2.30787
21
0.425276
0
LINE
8
BLACK
6
CONTINUOUS
10
2.30787
20
0.425276
11
2.30787
21
0.365276
0
LINE
8
BLACK
6
CONTINUOUS
10
2.30787
20
0.365276
11
2.30727
21
0.362262
0
LINE
8
BLACK
6
CONTINUOUS
10
2.30727
20
0.362262
11
2.30557
21
0.359708
0
LINE
8
BLACK
6
CONTINUOUS
10
2.30557
20
0.359708
11
2.30301
21
0.358001
0
LINE
8
BLACK
6
CONTINUOUS
10
2.30301
20
0.358001
11
2.3
21
0.357402
0
LINE
8
BLACK
6
CONTINUOUS
10
2.3
20
0.357402
11
2.24
21
0.357402
0
LINE
8
BLACK
6
CONTINUOUS
10
2.24
20
0.357402
11
2.23699
21
0.358001
0
LINE
8
BLACK
6
CONTINUOUS
10
2.23699
20
0.358001
11
2.23443
21
0.359708
0
LINE
8
BLACK
6
CONTINUOUS
10
2.23443
20
0.359708
11
2.23273
21
0.362262
0
LINE
8
BLACK
6
CONTINUOUS
10
2.23273
20
0.362262
11
2.23213
21
0.365276
0
LINE
8
BLACK
6
CONTINUOUS
10
2.23213
20
0.365276
11
2.23213
21
0.425276
0
LINE
8
BLACK
6
CONTINUOUS
10
2.23213
20
0.425276
11
2.23273
21
0.428289
0
LINE
8
BLACK
6
CONTINUOUS
10
2.23273
20
0.428289
11
2.23443
21
0.430843
0
LINE
8
BLACK
6
CONTINUOUS
10
2.23443
20
0.430843
11
2.23699
21
0.43255
0
LINE
8
BLACK
6
CONTINUOUS
10
2.23699
20
0.43255
11
2.24
21
0.43315
0
LINE
8
BLACK
6
CONTINUOUS
10
2.24
20
0.43315
11
2.3
21
0.43315
0
LINE
8
BLACK
6
CONTINUOUS
10
2.3
20
0.43315
11
2.30301
21
0.43255
0
LINE
8
BLACK
6
CONTINUOUS
10
2.20301
20
0.53255
11
2.20557
21
0.530843
0
LINE
8
BLACK
6
CONTINUOUS
10
2.20557
20
0.530843
11
2.20727
21
0.528289
0
LINE
8
BLACK
6
CONTINUOUS
10
2.20727
20
0.528289
11
2.20787
21
0.525276
0
LINE
8
BLACK
6
CONTINUOUS
10
2.20787
20
0.525276
11
2.20787
21
0.465276
0
LINE
8
BLACK
6
CONTINUOUS
10
2.20787
20
0.465276
11
2.20727
21
0.462262
0
LINE
8
BLACK
6
CONTINUOUS
10
2.20727
20
0.462262
11
2.20557
21
0.459708
0
LINE
8
BLACK
6
CONTINUOUS
10
2.20557
20
0.459708
11
2.20301
21
0.458001
0
LINE
8
BLACK
6
CONTINUOUS
10
2.20301
20
0.458001
11
2.2
21
0.457402
0
LINE
8
BLACK
6
CONTINUOUS
10
2.2
20
0.457402
11
2.14
21
0.457402
0
LINE
8
BLACK
6
CONTINUOUS
10
2.14
20
0.457402
11
2.13699
21
0.458001
0
LINE
8
BLACK
6
CONTINUOUS
10
2.13699
20
0.458001
11
2.13443
21
0.459708
0
LINE
8
BLACK
6
CONTINUOUS
10
2.13443
20
0.459708
11
2.13273
21
0.462262
0
LINE
8
BLACK
6
CONTINUOUS
10
2.13273
20
0.462262
11
2.13213
21
0.465276
0
LINE
8
BLACK
6
CONTINUOUS
10
2.13213
20
0.465276
11
2.13213
21
0.525276
0
LINE
8
BLACK
6
CONTINUOUS
10
2.13213
20
0.525276
11
2.13273
21
0.528289
0
LINE
8
BLACK
6
CONTINUOUS
10
2.13273
20
0.528289
11
2.13443
21
0.530843
0
LINE
8
BLACK
6
CONTINUOUS
10
2.13443
20
0.530843
11
2.13699
21
0.53255
0
LINE
8
BLACK
6
CONTINUOUS
10
2.13699
20
0.53255
11
2.14
21
0.53315
0
LINE
8
BLACK
6
CONTINUOUS
10
2.14
20
0.53315
11
2.2
21
0.53315
0
LINE
8
BLACK
6
CONTINUOUS
10
2.2
20
0.53315
11
2.20301
21
0.53255
0
LINE
8
BLACK
6
CONTINUOUS
10
2.30301
20
0.53255
11
2.30557
21
0.530843
0
LINE
8
BLACK
6
CONTINUOUS
10
2.30557
20
0.530843
11
2.30727
21
0.528289
0
LINE
8
BLACK
6
CONTINUOUS
10
2.30727
20
0.528289
11
2.30787
21
0.525276
0
LINE
8
BLACK
6
CONTINUOUS
10
2.30787
20
0.525276
11
2.30787
21
0.465276
0
LINE
8
BLACK
6
CONTINUOUS
10
2.30787
20
0.465276
11
2.30727
21
0.462262
0
LINE
8
BLACK
6
CONTINUOUS
10
2.30727
20
0.462262
11
2.30557
21
0.459708
0
LINE
8
BLACK
6
CONTINUOUS
10
2.30557
20
0.459708
11
2.30301
21
0.458001
0
LINE
8
BLACK
6
CONTINUOUS
10
2.30301
20
0.458001
11
2.3
21
0.457402
0
LINE
8
BLACK
6
CONTINUOUS
10
2.3
20
0.457402
11
2.24
21
0.457402
0
LINE
8
BLACK
6
CONTINUOUS
10
2.24
20
0.457402
11
2.23699
21
0.458001
0
LINE
8
BLACK
6
CONTINUOUS
10
2.23699
20
0.458001
11
2.23443
21
0.459708
0
LINE
8
BLACK
6
CONTINUOUS
10
2.23443
20
0.459708
11
2.23273
21
0.462262
0
LINE
8
BLACK
6
CONTINUOUS
10
2.23273
20
0.462262
11
2.23213
21
0.465276
0
LINE
8
BLACK
6
CONTINUOUS
10
2.23213
20
0.465276
11
2.23213
21
0.525276
0
LINE
8
BLACK
6
CONTINUOUS
10
2.23213
20
0.525276
11
2.23273
21
0.528289
0
LINE
8
BLACK
6
CONTINUOUS
10
2.23273
20
0.528289
11
2.23443
21
0.530843
0
LINE
8
BLACK
6
CONTINUOUS
10
2.23443
20
0.530843
11
2.23699
21
0.53255
0
LINE
8
BLACK
6
CONTINUOUS
10
2.23699
20
0.53255
11
2.24
21
0.53315
0
LINE
8
BLACK
6
CONTINUOUS
10
2.24
20
0.53315
11
2.3
21
0.53315
0
LINE
8
BLACK
6
CONTINUOUS
10
2.3
20
0.53315
11
2.30301
21
0.53255
  0
ENDSEC
  0
EOF
