  0
SECTION
  2
HEADER
  9
$ANGBASE
  50
0.0
  9
$ANGDIR
  70
1
  9
$MEASUREMENT
  70
0
  0
ENDSEC
  0
SECTION
  2
TABLES
  0
TABLE
  2
LTYPE
  70
4
  0
LTYPE
  5
40F
  2
CONTINUOUS
  70
0
  3
Solid line
  72
65
  73
0
  40
0.0
  0
LTYPE
  5
410
  2
DASHDOT
 70
0
  3
Dash Dot ____ _ ____ _
 72
65
 73
4
 40
2.0
 49
1.25
 49
-0.25
 49
0.25
 49
-0.25
  0
LTYPE
  5
411
  2
DASHED
 70
0
  3
Dashed __ __ __ __ __
 72
65
 73
2
 40
0.75
 49
0.5
 49
-0.25
  0
LTYPE
  5
43B
  2
DOTTED
 70
0
  3
Dotted .  .  .  .
 72
65
 73
2
 40
0.2
 49
0.0
 49
-0.2
  0
ENDTAB
  0
TABLE
  2
STYLE
  70
4
  0
STYLE
  2
KICAD
  70
0
  40
0
  41
1
  42
1
  50
0
  71
0
  3
isocp.shx
  0
STYLE
  2
KICADB
  70
0
  40
0
  41
1
  42
1
  50
0
  71
0
  3
isocp.shx
  0
STYLE
  2
KICADI
  70
0
  40
0
  41
1
  42
1
  50
15
  71
0
  3
isocp.shx
  0
STYLE
  2
KICADBI
  70
0
  40
0
  41
1
  42
1
  50
15
  71
0
  3
isocp.shx
  0
ENDTAB
  0
TABLE
  2
LAYER
  70
1
  0
LAYER
  2
BLACK
  70
0
  62
7
  6
CONTINUOUS
  0
ENDTAB
  0
ENDSEC
  0
SECTION
  2
ENTITIES
0
LINE
8
BLACK
6
CONTINUOUS
10
1.19538
20
1.59289
11
1.19551
21
1.59291
0
LINE
8
BLACK
6
CONTINUOUS
10
1.19551
20
1.59291
11
1.19563
21
1.59284
0
LINE
8
BLACK
6
CONTINUOUS
10
1.19563
20
1.59284
11
1.19601
21
1.59277
0
LINE
8
BLACK
6
CONTINUOUS
10
1.19601
20
1.59277
11
1.1966
21
1.59228
0
LINE
8
BLACK
6
CONTINUOUS
10
1.1966
20
1.59228
11
1.19726
21
1.5919
0
LINE
8
BLACK
6
CONTINUOUS
10
1.19726
20
1.5919
11
1.19735
21
1.59165
0
LINE
8
BLACK
6
CONTINUOUS
10
1.19735
20
1.59165
11
1.19756
21
1.59148
0
LINE
8
BLACK
6
CONTINUOUS
10
1.19756
20
1.59148
11
1.19769
21
1.59072
0
LINE
8
BLACK
6
CONTINUOUS
10
1.19769
20
1.59072
11
1.19795
21
1.59
0
LINE
8
BLACK
6
CONTINUOUS
10
1.19795
20
1.59
11
1.19795
21
0.01
0
LINE
8
BLACK
6
CONTINUOUS
10
1.19795
20
0.01
11
1.19789
21
0.00961646
0
LINE
8
BLACK
6
CONTINUOUS
10
1.19789
20
0.00961646
11
1.19791
21
0.00948724
0
LINE
8
BLACK
6
CONTINUOUS
10
1.19791
20
0.00948724
11
1.19784
21
0.00937362
0
LINE
8
BLACK
6
CONTINUOUS
10
1.19784
20
0.00937362
11
1.19777
21
0.00899008
0
LINE
8
BLACK
6
CONTINUOUS
10
1.19777
20
0.00899008
11
1.19728
21
0.0084024
0
LINE
8
BLACK
6
CONTINUOUS
10
1.19728
20
0.0084024
11
1.1969
21
0.00773807
0
LINE
8
BLACK
6
CONTINUOUS
10
1.1969
20
0.00773807
11
1.19665
21
0.00764697
0
LINE
8
BLACK
6
CONTINUOUS
10
1.19665
20
0.00764697
11
1.19648
21
0.00744283
0
LINE
8
BLACK
6
CONTINUOUS
10
1.19648
20
0.00744283
11
1.19572
21
0.00730961
0
LINE
8
BLACK
6
CONTINUOUS
10
1.19572
20
0.00730961
11
1.195
21
0.00704724
0
LINE
8
BLACK
6
CONTINUOUS
10
1.195
20
0.00704724
11
0.015
21
0.00704724
0
LINE
8
BLACK
6
CONTINUOUS
10
0.015
20
0.00704724
11
0.0146165
21
0.00711488
0
LINE
8
BLACK
6
CONTINUOUS
10
0.0146165
20
0.00711488
11
0.0144872
21
0.00709209
0
LINE
8
BLACK
6
CONTINUOUS
10
0.0144872
20
0.00709209
11
0.0143736
21
0.00715768
0
LINE
8
BLACK
6
CONTINUOUS
10
0.0143736
20
0.00715768
11
0.0139901
21
0.00722531
0
LINE
8
BLACK
6
CONTINUOUS
10
0.0139901
20
0.00722531
11
0.0134024
21
0.00771846
0
LINE
8
BLACK
6
CONTINUOUS
10
0.0134024
20
0.00771846
11
0.0127381
21
0.00810201
0
LINE
8
BLACK
6
CONTINUOUS
10
0.0127381
20
0.00810201
11
0.012647
21
0.00835236
0
LINE
8
BLACK
6
CONTINUOUS
10
0.012647
20
0.00835236
11
0.0124428
21
0.00852362
0
LINE
8
BLACK
6
CONTINUOUS
10
0.0124428
20
0.00852362
11
0.0123096
21
0.00927917
0
LINE
8
BLACK
6
CONTINUOUS
10
0.0123096
20
0.00927917
11
0.0120472
21
0.01
0
LINE
8
BLACK
6
CONTINUOUS
10
0.0120472
20
0.01
11
0.0120472
21
1.59
0
LINE
8
BLACK
6
CONTINUOUS
10
0.0120472
20
1.59
11
0.0121149
21
1.59038
0
LINE
8
BLACK
6
CONTINUOUS
10
0.0121149
20
1.59038
11
0.0120921
21
1.59051
0
LINE
8
BLACK
6
CONTINUOUS
10
0.0120921
20
1.59051
11
0.0121577
21
1.59063
0
LINE
8
BLACK
6
CONTINUOUS
10
0.0121577
20
1.59063
11
0.0122253
21
1.59101
0
LINE
8
BLACK
6
CONTINUOUS
10
0.0122253
20
1.59101
11
0.0127185
21
1.5916
0
LINE
8
BLACK
6
CONTINUOUS
10
0.0127185
20
1.5916
11
0.013102
21
1.59226
0
LINE
8
BLACK
6
CONTINUOUS
10
0.013102
20
1.59226
11
0.0133524
21
1.59235
0
LINE
8
BLACK
6
CONTINUOUS
10
0.0133524
20
1.59235
11
0.0135236
21
1.59256
0
LINE
8
BLACK
6
CONTINUOUS
10
0.0135236
20
1.59256
11
0.0142792
21
1.59269
0
LINE
8
BLACK
6
CONTINUOUS
10
0.0142792
20
1.59269
11
0.015
21
1.59295
0
LINE
8
BLACK
6
CONTINUOUS
10
0.015
20
1.59295
11
1.195
21
1.59295
0
LINE
8
BLACK
6
CONTINUOUS
10
1.195
20
1.59295
11
1.19538
21
1.59289
0
LINE
8
BLACK
6
CONTINUOUS
10
0.0179528
20
1.58705
11
0.0179528
21
0.0129528
0
LINE
8
BLACK
6
CONTINUOUS
10
0.0179528
20
0.0129528
11
1.19205
21
0.0129528
0
LINE
8
BLACK
6
CONTINUOUS
10
1.19205
20
0.0129528
11
1.19205
21
1.58705
0
LINE
8
BLACK
6
CONTINUOUS
10
1.19205
20
1.58705
11
0.0179528
21
1.58705
  0
ENDSEC
  0
EOF
