  0
SECTION
  2
HEADER
  9
$ANGBASE
  50
0.0
  9
$ANGDIR
  70
1
  9
$MEASUREMENT
  70
0
  0
ENDSEC
  0
SECTION
  2
TABLES
  0
TABLE
  2
LTYPE
  70
4
  0
LTYPE
  5
40F
  2
CONTINUOUS
  70
0
  3
Solid line
  72
65
  73
0
  40
0.0
  0
LTYPE
  5
410
  2
DASHDOT
 70
0
  3
Dash Dot ____ _ ____ _
 72
65
 73
4
 40
2.0
 49
1.25
 49
-0.25
 49
0.25
 49
-0.25
  0
LTYPE
  5
411
  2
DASHED
 70
0
  3
Dashed __ __ __ __ __
 72
65
 73
2
 40
0.75
 49
0.5
 49
-0.25
  0
LTYPE
  5
43B
  2
DOTTED
 70
0
  3
Dotted .  .  .  .
 72
65
 73
2
 40
0.2
 49
0.0
 49
-0.2
  0
ENDTAB
  0
TABLE
  2
STYLE
  70
4
  0
STYLE
  2
KICAD
  70
0
  40
0
  41
1
  42
1
  50
0
  71
0
  3
isocp.shx
  0
STYLE
  2
KICADB
  70
0
  40
0
  41
1
  42
1
  50
0
  71
0
  3
isocp.shx
  0
STYLE
  2
KICADI
  70
0
  40
0
  41
1
  42
1
  50
15
  71
0
  3
isocp.shx
  0
STYLE
  2
KICADBI
  70
0
  40
0
  41
1
  42
1
  50
15
  71
0
  3
isocp.shx
  0
ENDTAB
  0
TABLE
  2
LAYER
  70
1
  0
LAYER
  2
BLACK
  70
0
  62
7
  6
CONTINUOUS
  0
ENDTAB
  0
ENDSEC
  0
SECTION
  2
ENTITIES
0
LINE
8
BLACK
6
CONTINUOUS
10
2.32226
20
0.137174
11
2.32295
21
0.135276
0
LINE
8
BLACK
6
CONTINUOUS
10
2.32295
20
0.135276
11
2.32295
21
0.0452756
0
LINE
8
BLACK
6
CONTINUOUS
10
2.32295
20
0.0452756
11
2.32289
21
0.044892
0
LINE
8
BLACK
6
CONTINUOUS
10
2.32289
20
0.044892
11
2.32291
21
0.0447628
0
LINE
8
BLACK
6
CONTINUOUS
10
2.32291
20
0.0447628
11
2.32284
21
0.0446492
0
LINE
8
BLACK
6
CONTINUOUS
10
2.32284
20
0.0446492
11
2.32277
21
0.0442657
0
LINE
8
BLACK
6
CONTINUOUS
10
2.32277
20
0.0442657
11
2.32228
21
0.043678
0
LINE
8
BLACK
6
CONTINUOUS
10
2.32228
20
0.043678
11
2.3219
21
0.0430137
0
LINE
8
BLACK
6
CONTINUOUS
10
2.3219
20
0.0430137
11
2.32165
21
0.0429226
0
LINE
8
BLACK
6
CONTINUOUS
10
2.32165
20
0.0429226
11
2.32148
21
0.0427184
0
LINE
8
BLACK
6
CONTINUOUS
10
2.32148
20
0.0427184
11
2.32072
21
0.0425852
0
LINE
8
BLACK
6
CONTINUOUS
10
2.32072
20
0.0425852
11
2.32
21
0.0423228
0
LINE
8
BLACK
6
CONTINUOUS
10
2.32
20
0.0423228
11
2.12
21
0.0423228
0
LINE
8
BLACK
6
CONTINUOUS
10
2.12
20
0.0423228
11
2.11962
21
0.0423905
0
LINE
8
BLACK
6
CONTINUOUS
10
2.11962
20
0.0423905
11
2.11949
21
0.0423677
0
LINE
8
BLACK
6
CONTINUOUS
10
2.11949
20
0.0423677
11
2.11937
21
0.0424333
0
LINE
8
BLACK
6
CONTINUOUS
10
2.11937
20
0.0424333
11
2.11899
21
0.0425009
0
LINE
8
BLACK
6
CONTINUOUS
10
2.11899
20
0.0425009
11
2.1184
21
0.0429941
0
LINE
8
BLACK
6
CONTINUOUS
10
2.1184
20
0.0429941
11
2.11774
21
0.0433776
0
LINE
8
BLACK
6
CONTINUOUS
10
2.11774
20
0.0433776
11
2.11765
21
0.043628
0
LINE
8
BLACK
6
CONTINUOUS
10
2.11765
20
0.043628
11
2.11744
21
0.0437992
0
LINE
8
BLACK
6
CONTINUOUS
10
2.11744
20
0.0437992
11
2.11731
21
0.0445548
0
LINE
8
BLACK
6
CONTINUOUS
10
2.11731
20
0.0445548
11
2.11705
21
0.0452756
0
LINE
8
BLACK
6
CONTINUOUS
10
2.11705
20
0.0452756
11
2.11705
21
0.135276
0
LINE
8
BLACK
6
CONTINUOUS
10
2.11705
20
0.135276
11
2.11723
21
0.136286
0
LINE
8
BLACK
6
CONTINUOUS
10
2.11723
20
0.136286
11
2.11852
21
0.137833
0
LINE
8
BLACK
6
CONTINUOUS
10
2.11852
20
0.137833
11
2.12051
21
0.138184
0
LINE
8
BLACK
6
CONTINUOUS
10
2.12051
20
0.138184
11
2.12226
21
0.137174
0
LINE
8
BLACK
6
CONTINUOUS
10
2.12226
20
0.137174
11
2.12295
21
0.135276
0
LINE
8
BLACK
6
CONTINUOUS
10
2.12295
20
0.135276
11
2.12295
21
0.0482283
0
LINE
8
BLACK
6
CONTINUOUS
10
2.12295
20
0.0482283
11
2.31705
21
0.0482283
0
LINE
8
BLACK
6
CONTINUOUS
10
2.31705
20
0.0482283
11
2.31705
21
0.135276
0
LINE
8
BLACK
6
CONTINUOUS
10
2.31705
20
0.135276
11
2.31723
21
0.136286
0
LINE
8
BLACK
6
CONTINUOUS
10
2.31723
20
0.136286
11
2.31852
21
0.137833
0
LINE
8
BLACK
6
CONTINUOUS
10
2.31852
20
0.137833
11
2.32051
21
0.138184
0
LINE
8
BLACK
6
CONTINUOUS
10
2.32051
20
0.138184
11
2.32226
21
0.137174
0
LINE
8
BLACK
6
CONTINUOUS
10
2.08986
20
0.127043
11
2.0905
21
0.127038
0
LINE
8
BLACK
6
CONTINUOUS
10
2.0905
20
0.127038
11
2.09781
21
0.124601
0
LINE
8
BLACK
6
CONTINUOUS
10
2.09781
20
0.124601
11
2.09854
21
0.124062
0
LINE
8
BLACK
6
CONTINUOUS
10
2.09854
20
0.124062
11
2.09935
21
0.12365
0
LINE
8
BLACK
6
CONTINUOUS
10
2.09935
20
0.12365
11
2.10422
21
0.118776
0
LINE
8
BLACK
6
CONTINUOUS
10
2.10422
20
0.118776
11
2.10451
21
0.118207
0
LINE
8
BLACK
6
CONTINUOUS
10
2.10451
20
0.118207
11
2.10496
21
0.117752
0
LINE
8
BLACK
6
CONTINUOUS
10
2.10496
20
0.117752
11
2.1074
21
0.112878
0
LINE
8
BLACK
6
CONTINUOUS
10
2.1074
20
0.112878
11
2.10746
21
0.112444
0
LINE
8
BLACK
6
CONTINUOUS
10
2.10746
20
0.112444
11
2.1077
21
0.112072
0
LINE
8
BLACK
6
CONTINUOUS
10
2.1077
20
0.112072
11
2.11013
21
0.102323
0
LINE
8
BLACK
6
CONTINUOUS
10
2.11013
20
0.102323
11
2.1101
21
0.101835
0
LINE
8
BLACK
6
CONTINUOUS
10
2.1101
20
0.101835
11
2.11025
21
0.101369
0
LINE
8
BLACK
6
CONTINUOUS
10
2.11025
20
0.101369
11
2.11025
21
0.094057
0
LINE
8
BLACK
6
CONTINUOUS
10
2.11025
20
0.094057
11
2.1101
21
0.0935909
0
LINE
8
BLACK
6
CONTINUOUS
10
2.1101
20
0.0935909
11
2.11013
21
0.0931021
0
LINE
8
BLACK
6
CONTINUOUS
10
2.11013
20
0.0931021
11
2.1077
21
0.0833533
0
LINE
8
BLACK
6
CONTINUOUS
10
2.1077
20
0.0833533
11
2.10746
21
0.0829815
0
LINE
8
BLACK
6
CONTINUOUS
10
2.10746
20
0.0829815
11
2.1074
21
0.0825475
0
LINE
8
BLACK
6
CONTINUOUS
10
2.1074
20
0.0825475
11
2.10496
21
0.0776731
0
LINE
8
BLACK
6
CONTINUOUS
10
2.10496
20
0.0776731
11
2.10451
21
0.0772185
0
LINE
8
BLACK
6
CONTINUOUS
10
2.10451
20
0.0772185
11
2.10422
21
0.0766499
0
LINE
8
BLACK
6
CONTINUOUS
10
2.10422
20
0.0766499
11
2.09935
21
0.0717755
0
LINE
8
BLACK
6
CONTINUOUS
10
2.09935
20
0.0717755
11
2.09854
21
0.0713635
0
LINE
8
BLACK
6
CONTINUOUS
10
2.09854
20
0.0713635
11
2.09781
21
0.0708244
0
LINE
8
BLACK
6
CONTINUOUS
10
2.09781
20
0.0708244
11
2.0905
21
0.0683872
0
LINE
8
BLACK
6
CONTINUOUS
10
2.0905
20
0.0683872
11
2.08986
21
0.0683824
0
LINE
8
BLACK
6
CONTINUOUS
10
2.08986
20
0.0683824
11
2.08925
21
0.0681852
0
LINE
8
BLACK
6
CONTINUOUS
10
2.08925
20
0.0681852
11
2.07707
21
0.0681852
0
LINE
8
BLACK
6
CONTINUOUS
10
2.07707
20
0.0681852
11
2.07647
21
0.0683779
0
LINE
8
BLACK
6
CONTINUOUS
10
2.07647
20
0.0683779
11
2.07585
21
0.0683779
0
LINE
8
BLACK
6
CONTINUOUS
10
2.07585
20
0.0683779
11
2.07535
21
0.0687444
0
LINE
8
BLACK
6
CONTINUOUS
10
2.07535
20
0.0687444
11
2.07475
21
0.0689371
0
LINE
8
BLACK
6
CONTINUOUS
10
2.07475
20
0.0689371
11
2.07439
21
0.0694415
0
LINE
8
BLACK
6
CONTINUOUS
10
2.07439
20
0.0694415
11
2.07388
21
0.0698081
0
LINE
8
BLACK
6
CONTINUOUS
10
2.07388
20
0.0698081
11
2.07369
21
0.0704011
0
LINE
8
BLACK
6
CONTINUOUS
10
2.07369
20
0.0704011
11
2.07332
21
0.0709056
0
LINE
8
BLACK
6
CONTINUOUS
10
2.07332
20
0.0709056
11
2.07332
21
0.0715292
0
LINE
8
BLACK
6
CONTINUOUS
10
2.07332
20
0.0715292
11
2.07313
21
0.0721222
0
LINE
8
BLACK
6
CONTINUOUS
10
2.07313
20
0.0721222
11
2.07313
21
0.123303
0
LINE
8
BLACK
6
CONTINUOUS
10
2.07313
20
0.123303
11
2.07332
21
0.123896
0
LINE
8
BLACK
6
CONTINUOUS
10
2.07332
20
0.123896
11
2.07332
21
0.12452
0
LINE
8
BLACK
6
CONTINUOUS
10
2.07332
20
0.12452
11
2.07369
21
0.125024
0
LINE
8
BLACK
6
CONTINUOUS
10
2.07369
20
0.125024
11
2.07388
21
0.125617
0
LINE
8
BLACK
6
CONTINUOUS
10
2.07388
20
0.125617
11
2.07439
21
0.125984
0
LINE
8
BLACK
6
CONTINUOUS
10
2.07439
20
0.125984
11
2.07475
21
0.126488
0
LINE
8
BLACK
6
CONTINUOUS
10
2.07475
20
0.126488
11
2.07535
21
0.126681
0
LINE
8
BLACK
6
CONTINUOUS
10
2.07535
20
0.126681
11
2.07585
21
0.127048
0
LINE
8
BLACK
6
CONTINUOUS
10
2.07585
20
0.127048
11
2.07647
21
0.127048
0
LINE
8
BLACK
6
CONTINUOUS
10
2.07647
20
0.127048
11
2.07707
21
0.12724
0
LINE
8
BLACK
6
CONTINUOUS
10
2.07707
20
0.12724
11
2.08925
21
0.12724
0
LINE
8
BLACK
6
CONTINUOUS
10
2.08925
20
0.12724
11
2.08986
21
0.127043
0
LINE
8
BLACK
6
CONTINUOUS
10
2.081
20
0.119366
11
2.081
21
0.0760592
0
LINE
8
BLACK
6
CONTINUOUS
10
2.081
20
0.0760592
11
2.08861
21
0.0760592
0
LINE
8
BLACK
6
CONTINUOUS
10
2.08861
20
0.0760592
11
2.09444
21
0.0780004
0
LINE
8
BLACK
6
CONTINUOUS
10
2.09444
20
0.0780004
11
2.0982
21
0.0817659
0
LINE
8
BLACK
6
CONTINUOUS
10
2.0982
20
0.0817659
11
2.10016
21
0.0856825
0
LINE
8
BLACK
6
CONTINUOUS
10
2.10016
20
0.0856825
11
2.10238
21
0.0945416
0
LINE
8
BLACK
6
CONTINUOUS
10
2.10238
20
0.0945416
11
2.10238
21
0.100884
0
LINE
8
BLACK
6
CONTINUOUS
10
2.10238
20
0.100884
11
2.10016
21
0.109743
0
LINE
8
BLACK
6
CONTINUOUS
10
2.10016
20
0.109743
11
2.0982
21
0.11366
0
LINE
8
BLACK
6
CONTINUOUS
10
2.0982
20
0.11366
11
2.09444
21
0.117425
0
LINE
8
BLACK
6
CONTINUOUS
10
2.09444
20
0.117425
11
2.08861
21
0.119366
0
LINE
8
BLACK
6
CONTINUOUS
10
2.08861
20
0.119366
11
2.081
21
0.119366
0
LINE
8
BLACK
6
CONTINUOUS
10
1.99507
20
0.12696
11
1.99596
21
0.126825
0
LINE
8
BLACK
6
CONTINUOUS
10
1.99596
20
0.126825
11
2.00084
21
0.124388
0
LINE
8
BLACK
6
CONTINUOUS
10
2.00084
20
0.124388
11
2.00257
21
0.12268
0
LINE
8
BLACK
6
CONTINUOUS
10
2.00257
20
0.12268
11
2.00297
21
0.12028
0
LINE
8
BLACK
6
CONTINUOUS
10
2.00297
20
0.12028
11
2.00188
21
0.118103
0
LINE
8
BLACK
6
CONTINUOUS
10
2.00188
20
0.118103
11
1.99972
21
0.116982
0
LINE
8
BLACK
6
CONTINUOUS
10
1.99972
20
0.116982
11
1.99732
21
0.117345
0
LINE
8
BLACK
6
CONTINUOUS
10
1.99732
20
0.117345
11
1.99327
21
0.119366
0
LINE
8
BLACK
6
CONTINUOUS
10
1.99327
20
0.119366
11
1.98753
21
0.119366
0
LINE
8
BLACK
6
CONTINUOUS
10
1.98753
20
0.119366
11
1.98171
21
0.117425
0
LINE
8
BLACK
6
CONTINUOUS
10
1.98171
20
0.117425
11
1.97794
21
0.11366
0
LINE
8
BLACK
6
CONTINUOUS
10
1.97794
20
0.11366
11
1.97598
21
0.109743
0
LINE
8
BLACK
6
CONTINUOUS
10
1.97598
20
0.109743
11
1.97377
21
0.100884
0
LINE
8
BLACK
6
CONTINUOUS
10
1.97377
20
0.100884
11
1.97377
21
0.0945416
0
LINE
8
BLACK
6
CONTINUOUS
10
1.97377
20
0.0945416
11
1.97598
21
0.0856824
0
LINE
8
BLACK
6
CONTINUOUS
10
1.97598
20
0.0856824
11
1.97794
21
0.081766
0
LINE
8
BLACK
6
CONTINUOUS
10
1.97794
20
0.081766
11
1.98171
21
0.0780004
0
LINE
8
BLACK
6
CONTINUOUS
10
1.98171
20
0.0780004
11
1.98753
21
0.0760592
0
LINE
8
BLACK
6
CONTINUOUS
10
1.98753
20
0.0760592
11
1.99113
21
0.0760592
0
LINE
8
BLACK
6
CONTINUOUS
10
1.99113
20
0.0760592
11
1.99695
21
0.0780004
0
LINE
8
BLACK
6
CONTINUOUS
10
1.99695
20
0.0780004
11
1.99758
21
0.0786274
0
LINE
8
BLACK
6
CONTINUOUS
10
1.99758
20
0.0786274
11
1.99758
21
0.09012
0
LINE
8
BLACK
6
CONTINUOUS
10
1.99758
20
0.09012
11
1.99177
21
0.09012
0
LINE
8
BLACK
6
CONTINUOUS
10
1.99177
20
0.09012
11
1.98945
21
0.0908719
0
LINE
8
BLACK
6
CONTINUOUS
10
1.98945
20
0.0908719
11
1.98802
21
0.0928404
0
LINE
8
BLACK
6
CONTINUOUS
10
1.98802
20
0.0928404
11
1.98802
21
0.0952736
0
LINE
8
BLACK
6
CONTINUOUS
10
1.98802
20
0.0952736
11
1.98945
21
0.0972421
0
LINE
8
BLACK
6
CONTINUOUS
10
1.98945
20
0.0972421
11
1.99177
21
0.097994
0
LINE
8
BLACK
6
CONTINUOUS
10
1.99177
20
0.097994
11
2.00151
21
0.097994
0
LINE
8
BLACK
6
CONTINUOUS
10
2.00151
20
0.097994
11
2.00211
21
0.0978013
0
LINE
8
BLACK
6
CONTINUOUS
10
2.00211
20
0.0978013
11
2.00273
21
0.0978013
0
LINE
8
BLACK
6
CONTINUOUS
10
2.00273
20
0.0978013
11
2.00324
21
0.0974348
0
LINE
8
BLACK
6
CONTINUOUS
10
2.00324
20
0.0974348
11
2.00383
21
0.0972421
0
LINE
8
BLACK
6
CONTINUOUS
10
2.00383
20
0.0972421
11
2.0042
21
0.0967376
0
LINE
8
BLACK
6
CONTINUOUS
10
2.0042
20
0.0967376
11
2.0047
21
0.0963711
0
LINE
8
BLACK
6
CONTINUOUS
10
2.0047
20
0.0963711
11
2.00489
21
0.0957781
0
LINE
8
BLACK
6
CONTINUOUS
10
2.00489
20
0.0957781
11
2.00526
21
0.0952736
0
LINE
8
BLACK
6
CONTINUOUS
10
2.00526
20
0.0952736
11
2.00526
21
0.09465
0
LINE
8
BLACK
6
CONTINUOUS
10
2.00526
20
0.09465
11
2.00545
21
0.094057
0
LINE
8
BLACK
6
CONTINUOUS
10
2.00545
20
0.094057
11
2.00545
21
0.0769966
0
LINE
8
BLACK
6
CONTINUOUS
10
2.00545
20
0.0769966
11
2.00535
21
0.0766945
0
LINE
8
BLACK
6
CONTINUOUS
10
2.00535
20
0.0766945
11
2.0054
21
0.0763807
0
LINE
8
BLACK
6
CONTINUOUS
10
2.0054
20
0.0763807
11
2.00498
21
0.0755593
0
LINE
8
BLACK
6
CONTINUOUS
10
2.00498
20
0.0755593
11
2.0047
21
0.0746825
0
LINE
8
BLACK
6
CONTINUOUS
10
2.0047
20
0.0746825
11
2.00444
21
0.0744957
0
LINE
8
BLACK
6
CONTINUOUS
10
2.00444
20
0.0744957
11
2.0043
21
0.0742127
0
LINE
8
BLACK
6
CONTINUOUS
10
2.0043
20
0.0742127
11
2.00186
21
0.0717755
0
LINE
8
BLACK
6
CONTINUOUS
10
2.00186
20
0.0717755
11
2.00105
21
0.0713635
0
LINE
8
BLACK
6
CONTINUOUS
10
2.00105
20
0.0713635
11
2.00032
21
0.0708244
0
LINE
8
BLACK
6
CONTINUOUS
10
2.00032
20
0.0708244
11
1.99301
21
0.0683872
0
LINE
8
BLACK
6
CONTINUOUS
10
1.99301
20
0.0683872
11
1.99237
21
0.0683824
0
LINE
8
BLACK
6
CONTINUOUS
10
1.99237
20
0.0683824
11
1.99177
21
0.0681852
0
LINE
8
BLACK
6
CONTINUOUS
10
1.99177
20
0.0681852
11
1.98689
21
0.0681852
0
LINE
8
BLACK
6
CONTINUOUS
10
1.98689
20
0.0681852
11
1.98628
21
0.0683824
0
LINE
8
BLACK
6
CONTINUOUS
10
1.98628
20
0.0683824
11
1.98565
21
0.0683872
0
LINE
8
BLACK
6
CONTINUOUS
10
1.98565
20
0.0683872
11
1.97834
21
0.0708244
0
LINE
8
BLACK
6
CONTINUOUS
10
1.97834
20
0.0708244
11
1.9776
21
0.0713634
0
LINE
8
BLACK
6
CONTINUOUS
10
1.9776
20
0.0713634
11
1.9768
21
0.0717755
0
LINE
8
BLACK
6
CONTINUOUS
10
1.9768
20
0.0717755
11
1.97192
21
0.0766499
0
LINE
8
BLACK
6
CONTINUOUS
10
1.97192
20
0.0766499
11
1.97163
21
0.0772185
0
LINE
8
BLACK
6
CONTINUOUS
10
1.97163
20
0.0772185
11
1.97118
21
0.0776731
0
LINE
8
BLACK
6
CONTINUOUS
10
1.97118
20
0.0776731
11
1.96875
21
0.0825475
0
LINE
8
BLACK
6
CONTINUOUS
10
1.96875
20
0.0825475
11
1.96868
21
0.0829814
0
LINE
8
BLACK
6
CONTINUOUS
10
1.96868
20
0.0829814
11
1.96845
21
0.0833533
0
LINE
8
BLACK
6
CONTINUOUS
10
1.96845
20
0.0833533
11
1.96601
21
0.0931021
0
LINE
8
BLACK
6
CONTINUOUS
10
1.96601
20
0.0931021
11
1.96605
21
0.0935909
0
LINE
8
BLACK
6
CONTINUOUS
10
1.96605
20
0.0935909
11
1.96589
21
0.094057
0
LINE
8
BLACK
6
CONTINUOUS
10
1.96589
20
0.094057
11
1.96589
21
0.101369
0
LINE
8
BLACK
6
CONTINUOUS
10
1.96589
20
0.101369
11
1.96605
21
0.101835
0
LINE
8
BLACK
6
CONTINUOUS
10
1.96605
20
0.101835
11
1.96601
21
0.102323
0
LINE
8
BLACK
6
CONTINUOUS
10
1.96601
20
0.102323
11
1.96845
21
0.112072
0
LINE
8
BLACK
6
CONTINUOUS
10
1.96845
20
0.112072
11
1.96868
21
0.112444
0
LINE
8
BLACK
6
CONTINUOUS
10
1.96868
20
0.112444
11
1.96875
21
0.112878
0
LINE
8
BLACK
6
CONTINUOUS
10
1.96875
20
0.112878
11
1.97118
21
0.117752
0
LINE
8
BLACK
6
CONTINUOUS
10
1.97118
20
0.117752
11
1.97163
21
0.118207
0
LINE
8
BLACK
6
CONTINUOUS
10
1.97163
20
0.118207
11
1.97192
21
0.118776
0
LINE
8
BLACK
6
CONTINUOUS
10
1.97192
20
0.118776
11
1.9768
21
0.12365
0
LINE
8
BLACK
6
CONTINUOUS
10
1.9768
20
0.12365
11
1.97761
21
0.124062
0
LINE
8
BLACK
6
CONTINUOUS
10
1.97761
20
0.124062
11
1.97834
21
0.124601
0
LINE
8
BLACK
6
CONTINUOUS
10
1.97834
20
0.124601
11
1.98565
21
0.127038
0
LINE
8
BLACK
6
CONTINUOUS
10
1.98565
20
0.127038
11
1.98628
21
0.127043
0
LINE
8
BLACK
6
CONTINUOUS
10
1.98628
20
0.127043
11
1.98689
21
0.12724
0
LINE
8
BLACK
6
CONTINUOUS
10
1.98689
20
0.12724
11
1.9942
21
0.12724
0
LINE
8
BLACK
6
CONTINUOUS
10
1.9942
20
0.12724
11
1.99507
21
0.12696
0
LINE
8
BLACK
6
CONTINUOUS
10
2.02365
20
0.127048
11
2.02467
21
0.127048
0
LINE
8
BLACK
6
CONTINUOUS
10
2.02467
20
0.127048
11
2.02485
21
0.126917
0
LINE
8
BLACK
6
CONTINUOUS
10
2.02485
20
0.126917
11
2.02507
21
0.126893
0
LINE
8
BLACK
6
CONTINUOUS
10
2.02507
20
0.126893
11
2.02582
21
0.126212
0
LINE
8
BLACK
6
CONTINUOUS
10
2.02582
20
0.126212
11
2.02663
21
0.125617
0
LINE
8
BLACK
6
CONTINUOUS
10
2.02663
20
0.125617
11
2.0267
21
0.125406
0
LINE
8
BLACK
6
CONTINUOUS
10
2.0267
20
0.125406
11
2.02687
21
0.125257
0
LINE
8
BLACK
6
CONTINUOUS
10
2.02687
20
0.125257
11
2.04876
21
0.0869472
0
LINE
8
BLACK
6
CONTINUOUS
10
2.04876
20
0.0869472
11
2.04876
21
0.123303
0
LINE
8
BLACK
6
CONTINUOUS
10
2.04876
20
0.123303
11
2.04951
21
0.125617
0
LINE
8
BLACK
6
CONTINUOUS
10
2.04951
20
0.125617
11
2.05148
21
0.127048
0
LINE
8
BLACK
6
CONTINUOUS
10
2.05148
20
0.127048
11
2.05391
21
0.127048
0
LINE
8
BLACK
6
CONTINUOUS
10
2.05391
20
0.127048
11
2.05588
21
0.125617
0
LINE
8
BLACK
6
CONTINUOUS
10
2.05588
20
0.125617
11
2.05663
21
0.123303
0
LINE
8
BLACK
6
CONTINUOUS
10
2.05663
20
0.123303
11
2.05663
21
0.0721222
0
LINE
8
BLACK
6
CONTINUOUS
10
2.05663
20
0.0721222
11
2.05656
21
0.0719109
0
LINE
8
BLACK
6
CONTINUOUS
10
2.05656
20
0.0719109
11
2.05661
21
0.0716932
0
LINE
8
BLACK
6
CONTINUOUS
10
2.05661
20
0.0716932
11
2.05619
21
0.0707706
0
LINE
8
BLACK
6
CONTINUOUS
10
2.05619
20
0.0707706
11
2.05588
21
0.0698081
0
LINE
8
BLACK
6
CONTINUOUS
10
2.05588
20
0.0698081
11
2.0557
21
0.0696774
0
LINE
8
BLACK
6
CONTINUOUS
10
2.0557
20
0.0696774
11
2.05561
21
0.0694748
0
LINE
8
BLACK
6
CONTINUOUS
10
2.05561
20
0.0694748
11
2.05473
21
0.0689729
0
LINE
8
BLACK
6
CONTINUOUS
10
2.05473
20
0.0689729
11
2.05391
21
0.0683779
0
LINE
8
BLACK
6
CONTINUOUS
10
2.05391
20
0.0683779
11
2.05369
21
0.0683779
0
LINE
8
BLACK
6
CONTINUOUS
10
2.05369
20
0.0683779
11
2.0535
21
0.0682676
0
LINE
8
BLACK
6
CONTINUOUS
10
2.0535
20
0.0682676
11
2.05249
21
0.0683779
0
LINE
8
BLACK
6
CONTINUOUS
10
2.05249
20
0.0683779
11
2.05148
21
0.0683779
0
LINE
8
BLACK
6
CONTINUOUS
10
2.05148
20
0.0683779
11
2.0513
21
0.0685085
0
LINE
8
BLACK
6
CONTINUOUS
10
2.0513
20
0.0685085
11
2.05108
21
0.0685327
0
LINE
8
BLACK
6
CONTINUOUS
10
2.05108
20
0.0685327
11
2.05033
21
0.0692132
0
LINE
8
BLACK
6
CONTINUOUS
10
2.05033
20
0.0692132
11
2.04951
21
0.0698081
0
LINE
8
BLACK
6
CONTINUOUS
10
2.04951
20
0.0698081
11
2.04944
21
0.0700194
0
LINE
8
BLACK
6
CONTINUOUS
10
2.04944
20
0.0700194
11
2.04928
21
0.0701689
0
LINE
8
BLACK
6
CONTINUOUS
10
2.04928
20
0.0701689
11
2.02739
21
0.108478
0
LINE
8
BLACK
6
CONTINUOUS
10
2.02739
20
0.108478
11
2.02739
21
0.0721222
0
LINE
8
BLACK
6
CONTINUOUS
10
2.02739
20
0.0721222
11
2.02663
21
0.0698081
0
LINE
8
BLACK
6
CONTINUOUS
10
2.02663
20
0.0698081
11
2.02467
21
0.0683779
0
LINE
8
BLACK
6
CONTINUOUS
10
2.02467
20
0.0683779
11
2.02223
21
0.0683779
0
LINE
8
BLACK
6
CONTINUOUS
10
2.02223
20
0.0683779
11
2.02026
21
0.0698081
0
LINE
8
BLACK
6
CONTINUOUS
10
2.02026
20
0.0698081
11
2.01951
21
0.0721222
0
LINE
8
BLACK
6
CONTINUOUS
10
2.01951
20
0.0721222
11
2.01951
21
0.123303
0
LINE
8
BLACK
6
CONTINUOUS
10
2.01951
20
0.123303
11
2.01958
21
0.123515
0
LINE
8
BLACK
6
CONTINUOUS
10
2.01958
20
0.123515
11
2.01954
21
0.123732
0
LINE
8
BLACK
6
CONTINUOUS
10
2.01954
20
0.123732
11
2.01995
21
0.124655
0
LINE
8
BLACK
6
CONTINUOUS
10
2.01995
20
0.124655
11
2.02026
21
0.125617
0
LINE
8
BLACK
6
CONTINUOUS
10
2.02026
20
0.125617
11
2.02044
21
0.125748
0
LINE
8
BLACK
6
CONTINUOUS
10
2.02044
20
0.125748
11
2.02054
21
0.125951
0
LINE
8
BLACK
6
CONTINUOUS
10
2.02054
20
0.125951
11
2.02141
21
0.126453
0
LINE
8
BLACK
6
CONTINUOUS
10
2.02141
20
0.126453
11
2.02223
21
0.127048
0
LINE
8
BLACK
6
CONTINUOUS
10
2.02223
20
0.127048
11
2.02246
21
0.127048
0
LINE
8
BLACK
6
CONTINUOUS
10
2.02246
20
0.127048
11
2.02265
21
0.127158
0
LINE
8
BLACK
6
CONTINUOUS
10
2.02265
20
0.127158
11
2.02365
21
0.127048
0
LINE
8
BLACK
6
CONTINUOUS
10
2.32226
20
0.237174
11
2.32295
21
0.235276
0
LINE
8
BLACK
6
CONTINUOUS
10
2.32295
20
0.235276
11
2.32295
21
0.145276
0
LINE
8
BLACK
6
CONTINUOUS
10
2.32295
20
0.145276
11
2.32289
21
0.144892
0
LINE
8
BLACK
6
CONTINUOUS
10
2.32289
20
0.144892
11
2.32291
21
0.144763
0
LINE
8
BLACK
6
CONTINUOUS
10
2.32291
20
0.144763
11
2.32284
21
0.144649
0
LINE
8
BLACK
6
CONTINUOUS
10
2.32284
20
0.144649
11
2.32277
21
0.144266
0
LINE
8
BLACK
6
CONTINUOUS
10
2.32277
20
0.144266
11
2.32228
21
0.143678
0
LINE
8
BLACK
6
CONTINUOUS
10
2.32228
20
0.143678
11
2.3219
21
0.143014
0
LINE
8
BLACK
6
CONTINUOUS
10
2.3219
20
0.143014
11
2.32165
21
0.142923
0
LINE
8
BLACK
6
CONTINUOUS
10
2.32165
20
0.142923
11
2.32148
21
0.142718
0
LINE
8
BLACK
6
CONTINUOUS
10
2.32148
20
0.142718
11
2.32072
21
0.142585
0
LINE
8
BLACK
6
CONTINUOUS
10
2.32072
20
0.142585
11
2.32
21
0.142323
0
LINE
8
BLACK
6
CONTINUOUS
10
2.32
20
0.142323
11
2.12
21
0.142323
0
LINE
8
BLACK
6
CONTINUOUS
10
2.12
20
0.142323
11
2.11962
21
0.14239
0
LINE
8
BLACK
6
CONTINUOUS
10
2.11962
20
0.14239
11
2.11949
21
0.142368
0
LINE
8
BLACK
6
CONTINUOUS
10
2.11949
20
0.142368
11
2.11937
21
0.142433
0
LINE
8
BLACK
6
CONTINUOUS
10
2.11937
20
0.142433
11
2.11899
21
0.142501
0
LINE
8
BLACK
6
CONTINUOUS
10
2.11899
20
0.142501
11
2.1184
21
0.142994
0
LINE
8
BLACK
6
CONTINUOUS
10
2.1184
20
0.142994
11
2.11774
21
0.143378
0
LINE
8
BLACK
6
CONTINUOUS
10
2.11774
20
0.143378
11
2.11765
21
0.143628
0
LINE
8
BLACK
6
CONTINUOUS
10
2.11765
20
0.143628
11
2.11744
21
0.143799
0
LINE
8
BLACK
6
CONTINUOUS
10
2.11744
20
0.143799
11
2.11731
21
0.144555
0
LINE
8
BLACK
6
CONTINUOUS
10
2.11731
20
0.144555
11
2.11705
21
0.145276
0
LINE
8
BLACK
6
CONTINUOUS
10
2.11705
20
0.145276
11
2.11705
21
0.235276
0
LINE
8
BLACK
6
CONTINUOUS
10
2.11705
20
0.235276
11
2.11723
21
0.236286
0
LINE
8
BLACK
6
CONTINUOUS
10
2.11723
20
0.236286
11
2.11852
21
0.237833
0
LINE
8
BLACK
6
CONTINUOUS
10
2.11852
20
0.237833
11
2.12051
21
0.238184
0
LINE
8
BLACK
6
CONTINUOUS
10
2.12051
20
0.238184
11
2.12226
21
0.237174
0
LINE
8
BLACK
6
CONTINUOUS
10
2.12226
20
0.237174
11
2.12295
21
0.235276
0
LINE
8
BLACK
6
CONTINUOUS
10
2.12295
20
0.235276
11
2.12295
21
0.148228
0
LINE
8
BLACK
6
CONTINUOUS
10
2.12295
20
0.148228
11
2.31705
21
0.148228
0
LINE
8
BLACK
6
CONTINUOUS
10
2.31705
20
0.148228
11
2.31705
21
0.235276
0
LINE
8
BLACK
6
CONTINUOUS
10
2.31705
20
0.235276
11
2.31723
21
0.236286
0
LINE
8
BLACK
6
CONTINUOUS
10
2.31723
20
0.236286
11
2.31852
21
0.237833
0
LINE
8
BLACK
6
CONTINUOUS
10
2.31852
20
0.237833
11
2.32051
21
0.238184
0
LINE
8
BLACK
6
CONTINUOUS
10
2.32051
20
0.238184
11
2.32226
21
0.237174
0
LINE
8
BLACK
6
CONTINUOUS
10
0.351404
20
0.160255
11
0.352951
21
0.158957
0
LINE
8
BLACK
6
CONTINUOUS
10
0.352951
20
0.158957
11
0.353302
21
0.156968
0
LINE
8
BLACK
6
CONTINUOUS
10
0.353302
20
0.156968
11
0.352292
21
0.155218
0
LINE
8
BLACK
6
CONTINUOUS
10
0.352292
20
0.155218
11
0.350394
21
0.154528
0
LINE
8
BLACK
6
CONTINUOUS
10
0.350394
20
0.154528
11
0.240157
21
0.154528
0
LINE
8
BLACK
6
CONTINUOUS
10
0.240157
20
0.154528
11
0.239148
21
0.154706
0
LINE
8
BLACK
6
CONTINUOUS
10
0.239148
20
0.154706
11
0.2376
21
0.156004
0
LINE
8
BLACK
6
CONTINUOUS
10
0.2376
20
0.156004
11
0.23725
21
0.157993
0
LINE
8
BLACK
6
CONTINUOUS
10
0.23725
20
0.157993
11
0.238259
21
0.159742
0
LINE
8
BLACK
6
CONTINUOUS
10
0.238259
20
0.159742
11
0.240157
21
0.160433
0
LINE
8
BLACK
6
CONTINUOUS
10
0.240157
20
0.160433
11
0.350394
21
0.160433
0
LINE
8
BLACK
6
CONTINUOUS
10
0.350394
20
0.160433
11
0.351404
21
0.160255
0
LINE
8
BLACK
6
CONTINUOUS
10
1.0209
20
0.220567
11
1.02153
21
0.220562
0
LINE
8
BLACK
6
CONTINUOUS
10
1.02153
20
0.220562
11
1.02885
21
0.218125
0
LINE
8
BLACK
6
CONTINUOUS
10
1.02885
20
0.218125
11
1.0308
21
0.21668
0
LINE
8
BLACK
6
CONTINUOUS
10
1.0308
20
0.21668
11
1.03154
21
0.21436
0
LINE
8
BLACK
6
CONTINUOUS
10
1.03154
20
0.21436
11
1.03077
21
0.212052
0
LINE
8
BLACK
6
CONTINUOUS
10
1.03077
20
0.212052
11
1.02879
21
0.210636
0
LINE
8
BLACK
6
CONTINUOUS
10
1.02879
20
0.210636
11
1.02636
21
0.210655
0
LINE
8
BLACK
6
CONTINUOUS
10
1.02636
20
0.210655
11
1.01965
21
0.21289
0
LINE
8
BLACK
6
CONTINUOUS
10
1.01965
20
0.21289
11
1.00903
21
0.21289
0
LINE
8
BLACK
6
CONTINUOUS
10
1.00903
20
0.21289
11
1.00556
21
0.211154
0
LINE
8
BLACK
6
CONTINUOUS
10
1.00556
20
0.211154
11
1.00403
21
0.20962
0
LINE
8
BLACK
6
CONTINUOUS
10
1.00403
20
0.20962
11
1.00229
21
0.206149
0
LINE
8
BLACK
6
CONTINUOUS
10
1.00229
20
0.206149
11
1.00229
21
0.203133
0
LINE
8
BLACK
6
CONTINUOUS
10
1.00229
20
0.203133
11
1.00403
21
0.199662
0
LINE
8
BLACK
6
CONTINUOUS
10
1.00403
20
0.199662
11
1.00556
21
0.198128
0
LINE
8
BLACK
6
CONTINUOUS
10
1.00556
20
0.198128
11
1.00948
21
0.19617
0
LINE
8
BLACK
6
CONTINUOUS
10
1.00948
20
0.19617
11
1.01881
21
0.193837
0
LINE
8
BLACK
6
CONTINUOUS
10
1.01881
20
0.193837
11
1.01918
21
0.193605
0
LINE
8
BLACK
6
CONTINUOUS
10
1.01918
20
0.193605
11
1.01961
21
0.193539
0
LINE
8
BLACK
6
CONTINUOUS
10
1.01961
20
0.193539
11
1.02449
21
0.191102
0
LINE
8
BLACK
6
CONTINUOUS
10
1.02449
20
0.191102
11
1.02494
21
0.190654
0
LINE
8
BLACK
6
CONTINUOUS
10
1.02494
20
0.190654
11
1.02551
21
0.190364
0
LINE
8
BLACK
6
CONTINUOUS
10
1.02551
20
0.190364
11
1.02795
21
0.187927
0
LINE
8
BLACK
6
CONTINUOUS
10
1.02795
20
0.187927
11
1.02824
21
0.187359
0
LINE
8
BLACK
6
CONTINUOUS
10
1.02824
20
0.187359
11
1.02868
21
0.186904
0
LINE
8
BLACK
6
CONTINUOUS
10
1.02868
20
0.186904
11
1.03112
21
0.18203
0
LINE
8
BLACK
6
CONTINUOUS
10
1.03112
20
0.18203
11
1.03126
21
0.181132
0
LINE
8
BLACK
6
CONTINUOUS
10
1.03126
20
0.181132
11
1.03154
21
0.180269
0
LINE
8
BLACK
6
CONTINUOUS
10
1.03154
20
0.180269
11
1.03154
21
0.175395
0
LINE
8
BLACK
6
CONTINUOUS
10
1.03154
20
0.175395
11
1.03126
21
0.174531
0
LINE
8
BLACK
6
CONTINUOUS
10
1.03126
20
0.174531
11
1.03112
21
0.173634
0
LINE
8
BLACK
6
CONTINUOUS
10
1.03112
20
0.173634
11
1.02868
21
0.16876
0
LINE
8
BLACK
6
CONTINUOUS
10
1.02868
20
0.16876
11
1.02824
21
0.168305
0
LINE
8
BLACK
6
CONTINUOUS
10
1.02824
20
0.168305
11
1.02795
21
0.167736
0
LINE
8
BLACK
6
CONTINUOUS
10
1.02795
20
0.167736
11
1.02551
21
0.165299
0
LINE
8
BLACK
6
CONTINUOUS
10
1.02551
20
0.165299
11
1.02494
21
0.165009
0
LINE
8
BLACK
6
CONTINUOUS
10
1.02494
20
0.165009
11
1.02449
21
0.164562
0
LINE
8
BLACK
6
CONTINUOUS
10
1.02449
20
0.164562
11
1.01961
21
0.162124
0
LINE
8
BLACK
6
CONTINUOUS
10
1.01961
20
0.162124
11
1.01871
21
0.161989
0
LINE
8
BLACK
6
CONTINUOUS
10
1.01871
20
0.161989
11
1.01785
21
0.161709
0
LINE
8
BLACK
6
CONTINUOUS
10
1.01785
20
0.161709
11
1.00567
21
0.161709
0
LINE
8
BLACK
6
CONTINUOUS
10
1.00567
20
0.161709
11
1.00506
21
0.161906
0
LINE
8
BLACK
6
CONTINUOUS
10
1.00506
20
0.161906
11
1.00442
21
0.161911
0
LINE
8
BLACK
6
CONTINUOUS
10
1.00442
20
0.161911
11
0.997109
21
0.164348
0
LINE
8
BLACK
6
CONTINUOUS
10
0.997109
20
0.164348
11
0.995151
21
0.165793
0
LINE
8
BLACK
6
CONTINUOUS
10
0.995151
20
0.165793
11
0.994417
21
0.168113
0
LINE
8
BLACK
6
CONTINUOUS
10
0.994417
20
0.168113
11
0.995186
21
0.170421
0
LINE
8
BLACK
6
CONTINUOUS
10
0.995186
20
0.170421
11
0.997166
21
0.171836
0
LINE
8
BLACK
6
CONTINUOUS
10
0.997166
20
0.171836
11
0.999599
21
0.171818
0
LINE
8
BLACK
6
CONTINUOUS
10
0.999599
20
0.171818
11
1.0063
21
0.169583
0
LINE
8
BLACK
6
CONTINUOUS
10
1.0063
20
0.169583
11
1.01692
21
0.169583
0
LINE
8
BLACK
6
CONTINUOUS
10
1.01692
20
0.169583
11
1.02039
21
0.171319
0
LINE
8
BLACK
6
CONTINUOUS
10
1.02039
20
0.171319
11
1.02193
21
0.172852
0
LINE
8
BLACK
6
CONTINUOUS
10
1.02193
20
0.172852
11
1.02366
21
0.176324
0
LINE
8
BLACK
6
CONTINUOUS
10
1.02366
20
0.176324
11
1.02366
21
0.17934
0
LINE
8
BLACK
6
CONTINUOUS
10
1.02366
20
0.17934
11
1.02193
21
0.182811
0
LINE
8
BLACK
6
CONTINUOUS
10
1.02193
20
0.182811
11
1.02039
21
0.184345
0
LINE
8
BLACK
6
CONTINUOUS
10
1.02039
20
0.184345
11
1.01648
21
0.186303
0
LINE
8
BLACK
6
CONTINUOUS
10
1.01648
20
0.186303
11
1.00715
21
0.188636
0
LINE
8
BLACK
6
CONTINUOUS
10
1.00715
20
0.188636
11
1.00678
21
0.188868
0
LINE
8
BLACK
6
CONTINUOUS
10
1.00678
20
0.188868
11
1.00634
21
0.188934
0
LINE
8
BLACK
6
CONTINUOUS
10
1.00634
20
0.188934
11
1.00147
21
0.191371
0
LINE
8
BLACK
6
CONTINUOUS
10
1.00147
20
0.191371
11
1.00101
21
0.191819
0
LINE
8
BLACK
6
CONTINUOUS
10
1.00101
20
0.191819
11
1.00044
21
0.192108
0
LINE
8
BLACK
6
CONTINUOUS
10
1.00044
20
0.192108
11
0.998007
21
0.194545
0
LINE
8
BLACK
6
CONTINUOUS
10
0.998007
20
0.194545
11
0.997718
21
0.195114
0
LINE
8
BLACK
6
CONTINUOUS
10
0.997718
20
0.195114
11
0.99727
21
0.195569
0
LINE
8
BLACK
6
CONTINUOUS
10
0.99727
20
0.195569
11
0.994833
21
0.200443
0
LINE
8
BLACK
6
CONTINUOUS
10
0.994833
20
0.200443
11
0.994697
21
0.201341
0
LINE
8
BLACK
6
CONTINUOUS
10
0.994697
20
0.201341
11
0.994417
21
0.202204
0
LINE
8
BLACK
6
CONTINUOUS
10
0.994417
20
0.202204
11
0.994417
21
0.207078
0
LINE
8
BLACK
6
CONTINUOUS
10
0.994417
20
0.207078
11
0.994697
21
0.207941
0
LINE
8
BLACK
6
CONTINUOUS
10
0.994697
20
0.207941
11
0.994833
21
0.208839
0
LINE
8
BLACK
6
CONTINUOUS
10
0.994833
20
0.208839
11
0.99727
21
0.213713
0
LINE
8
BLACK
6
CONTINUOUS
10
0.99727
20
0.213713
11
0.997718
21
0.214168
0
LINE
8
BLACK
6
CONTINUOUS
10
0.997718
20
0.214168
11
0.998007
21
0.214736
0
LINE
8
BLACK
6
CONTINUOUS
10
0.998007
20
0.214736
11
1.00044
21
0.217174
0
LINE
8
BLACK
6
CONTINUOUS
10
1.00044
20
0.217174
11
1.00101
21
0.217463
0
LINE
8
BLACK
6
CONTINUOUS
10
1.00101
20
0.217463
11
1.00147
21
0.217911
0
LINE
8
BLACK
6
CONTINUOUS
10
1.00147
20
0.217911
11
1.00634
21
0.220348
0
LINE
8
BLACK
6
CONTINUOUS
10
1.00634
20
0.220348
11
1.00724
21
0.220483
0
LINE
8
BLACK
6
CONTINUOUS
10
1.00724
20
0.220483
11
1.0081
21
0.220764
0
LINE
8
BLACK
6
CONTINUOUS
10
1.0081
20
0.220764
11
1.02029
21
0.220764
0
LINE
8
BLACK
6
CONTINUOUS
10
1.02029
20
0.220764
11
1.0209
21
0.220567
0
LINE
8
BLACK
6
CONTINUOUS
10
1.19907
20
0.220484
11
1.19996
21
0.220348
0
LINE
8
BLACK
6
CONTINUOUS
10
1.19996
20
0.220348
11
1.20484
21
0.217911
0
LINE
8
BLACK
6
CONTINUOUS
10
1.20484
20
0.217911
11
1.20529
21
0.217463
0
LINE
8
BLACK
6
CONTINUOUS
10
1.20529
20
0.217463
11
1.20586
21
0.217174
0
LINE
8
BLACK
6
CONTINUOUS
10
1.20586
20
0.217174
11
1.2083
21
0.214736
0
LINE
8
BLACK
6
CONTINUOUS
10
1.2083
20
0.214736
11
1.20859
21
0.214168
0
LINE
8
BLACK
6
CONTINUOUS
10
1.20859
20
0.214168
11
1.20904
21
0.213713
0
LINE
8
BLACK
6
CONTINUOUS
10
1.20904
20
0.213713
11
1.21147
21
0.208839
0
LINE
8
BLACK
6
CONTINUOUS
10
1.21147
20
0.208839
11
1.21154
21
0.208405
0
LINE
8
BLACK
6
CONTINUOUS
10
1.21154
20
0.208405
11
1.21177
21
0.208033
0
LINE
8
BLACK
6
CONTINUOUS
10
1.21177
20
0.208033
11
1.21421
21
0.198284
0
LINE
8
BLACK
6
CONTINUOUS
10
1.21421
20
0.198284
11
1.21418
21
0.197795
0
LINE
8
BLACK
6
CONTINUOUS
10
1.21418
20
0.197795
11
1.21433
21
0.197329
0
LINE
8
BLACK
6
CONTINUOUS
10
1.21433
20
0.197329
11
1.21433
21
0.185143
0
LINE
8
BLACK
6
CONTINUOUS
10
1.21433
20
0.185143
11
1.21418
21
0.184677
0
LINE
8
BLACK
6
CONTINUOUS
10
1.21418
20
0.184677
11
1.21421
21
0.184189
0
LINE
8
BLACK
6
CONTINUOUS
10
1.21421
20
0.184189
11
1.21177
21
0.17444
0
LINE
8
BLACK
6
CONTINUOUS
10
1.21177
20
0.17444
11
1.21154
21
0.174068
0
LINE
8
BLACK
6
CONTINUOUS
10
1.21154
20
0.174068
11
1.21147
21
0.173634
0
LINE
8
BLACK
6
CONTINUOUS
10
1.21147
20
0.173634
11
1.20904
21
0.16876
0
LINE
8
BLACK
6
CONTINUOUS
10
1.20904
20
0.16876
11
1.20859
21
0.168305
0
LINE
8
BLACK
6
CONTINUOUS
10
1.20859
20
0.168305
11
1.2083
21
0.167736
0
LINE
8
BLACK
6
CONTINUOUS
10
1.2083
20
0.167736
11
1.20586
21
0.165299
0
LINE
8
BLACK
6
CONTINUOUS
10
1.20586
20
0.165299
11
1.20529
21
0.165009
0
LINE
8
BLACK
6
CONTINUOUS
10
1.20529
20
0.165009
11
1.20484
21
0.164562
0
LINE
8
BLACK
6
CONTINUOUS
10
1.20484
20
0.164562
11
1.19996
21
0.162124
0
LINE
8
BLACK
6
CONTINUOUS
10
1.19996
20
0.162124
11
1.19907
21
0.161989
0
LINE
8
BLACK
6
CONTINUOUS
10
1.19907
20
0.161989
11
1.1982
21
0.161709
0
LINE
8
BLACK
6
CONTINUOUS
10
1.1982
20
0.161709
11
1.19333
21
0.161709
0
LINE
8
BLACK
6
CONTINUOUS
10
1.19333
20
0.161709
11
1.19247
21
0.161989
0
LINE
8
BLACK
6
CONTINUOUS
10
1.19247
20
0.161989
11
1.19157
21
0.162124
0
LINE
8
BLACK
6
CONTINUOUS
10
1.19157
20
0.162124
11
1.18669
21
0.164562
0
LINE
8
BLACK
6
CONTINUOUS
10
1.18669
20
0.164562
11
1.18624
21
0.165009
0
LINE
8
BLACK
6
CONTINUOUS
10
1.18624
20
0.165009
11
1.18567
21
0.165299
0
LINE
8
BLACK
6
CONTINUOUS
10
1.18567
20
0.165299
11
1.18323
21
0.167736
0
LINE
8
BLACK
6
CONTINUOUS
10
1.18323
20
0.167736
11
1.18294
21
0.168305
0
LINE
8
BLACK
6
CONTINUOUS
10
1.18294
20
0.168305
11
1.1825
21
0.16876
0
LINE
8
BLACK
6
CONTINUOUS
10
1.1825
20
0.16876
11
1.18006
21
0.173634
0
LINE
8
BLACK
6
CONTINUOUS
10
1.18006
20
0.173634
11
1.17999
21
0.174068
0
LINE
8
BLACK
6
CONTINUOUS
10
1.17999
20
0.174068
11
1.17976
21
0.17444
0
LINE
8
BLACK
6
CONTINUOUS
10
1.17976
20
0.17444
11
1.17732
21
0.184189
0
LINE
8
BLACK
6
CONTINUOUS
10
1.17732
20
0.184189
11
1.17736
21
0.184677
0
LINE
8
BLACK
6
CONTINUOUS
10
1.17736
20
0.184677
11
1.17721
21
0.185143
0
LINE
8
BLACK
6
CONTINUOUS
10
1.17721
20
0.185143
11
1.17721
21
0.197329
0
LINE
8
BLACK
6
CONTINUOUS
10
1.17721
20
0.197329
11
1.17736
21
0.197795
0
LINE
8
BLACK
6
CONTINUOUS
10
1.17736
20
0.197795
11
1.17732
21
0.198284
0
LINE
8
BLACK
6
CONTINUOUS
10
1.17732
20
0.198284
11
1.17976
21
0.208033
0
LINE
8
BLACK
6
CONTINUOUS
10
1.17976
20
0.208033
11
1.17999
21
0.208405
0
LINE
8
BLACK
6
CONTINUOUS
10
1.17999
20
0.208405
11
1.18006
21
0.208839
0
LINE
8
BLACK
6
CONTINUOUS
10
1.18006
20
0.208839
11
1.1825
21
0.213713
0
LINE
8
BLACK
6
CONTINUOUS
10
1.1825
20
0.213713
11
1.18294
21
0.214168
0
LINE
8
BLACK
6
CONTINUOUS
10
1.18294
20
0.214168
11
1.18323
21
0.214736
0
LINE
8
BLACK
6
CONTINUOUS
10
1.18323
20
0.214736
11
1.18567
21
0.217174
0
LINE
8
BLACK
6
CONTINUOUS
10
1.18567
20
0.217174
11
1.18624
21
0.217463
0
LINE
8
BLACK
6
CONTINUOUS
10
1.18624
20
0.217463
11
1.18669
21
0.217911
0
LINE
8
BLACK
6
CONTINUOUS
10
1.18669
20
0.217911
11
1.19157
21
0.220348
0
LINE
8
BLACK
6
CONTINUOUS
10
1.19157
20
0.220348
11
1.19247
21
0.220483
0
LINE
8
BLACK
6
CONTINUOUS
10
1.19247
20
0.220483
11
1.19333
21
0.220764
0
LINE
8
BLACK
6
CONTINUOUS
10
1.19333
20
0.220764
11
1.1982
21
0.220764
0
LINE
8
BLACK
6
CONTINUOUS
10
1.1982
20
0.220764
11
1.19907
21
0.220484
0
LINE
8
BLACK
6
CONTINUOUS
10
1.19426
20
0.21289
11
1.19079
21
0.211154
0
LINE
8
BLACK
6
CONTINUOUS
10
1.19079
20
0.211154
11
1.18925
21
0.20962
0
LINE
8
BLACK
6
CONTINUOUS
10
1.18925
20
0.20962
11
1.1873
21
0.205704
0
LINE
8
BLACK
6
CONTINUOUS
10
1.1873
20
0.205704
11
1.18508
21
0.196845
0
LINE
8
BLACK
6
CONTINUOUS
10
1.18508
20
0.196845
11
1.18508
21
0.185628
0
LINE
8
BLACK
6
CONTINUOUS
10
1.18508
20
0.185628
11
1.1873
21
0.176769
0
LINE
8
BLACK
6
CONTINUOUS
10
1.1873
20
0.176769
11
1.18925
21
0.172852
0
LINE
8
BLACK
6
CONTINUOUS
10
1.18925
20
0.172852
11
1.19079
21
0.171319
0
LINE
8
BLACK
6
CONTINUOUS
10
1.19079
20
0.171319
11
1.19426
21
0.169583
0
LINE
8
BLACK
6
CONTINUOUS
10
1.19426
20
0.169583
11
1.19727
21
0.169583
0
LINE
8
BLACK
6
CONTINUOUS
10
1.19727
20
0.169583
11
1.20075
21
0.171319
0
LINE
8
BLACK
6
CONTINUOUS
10
1.20075
20
0.171319
11
1.20228
21
0.172852
0
LINE
8
BLACK
6
CONTINUOUS
10
1.20228
20
0.172852
11
1.20424
21
0.176769
0
LINE
8
BLACK
6
CONTINUOUS
10
1.20424
20
0.176769
11
1.20645
21
0.185628
0
LINE
8
BLACK
6
CONTINUOUS
10
1.20645
20
0.185628
11
1.20645
21
0.196845
0
LINE
8
BLACK
6
CONTINUOUS
10
1.20645
20
0.196845
11
1.20424
21
0.205704
0
LINE
8
BLACK
6
CONTINUOUS
10
1.20424
20
0.205704
11
1.20228
21
0.20962
0
LINE
8
BLACK
6
CONTINUOUS
10
1.20228
20
0.20962
11
1.20075
21
0.211154
0
LINE
8
BLACK
6
CONTINUOUS
10
1.20075
20
0.211154
11
1.19727
21
0.21289
0
LINE
8
BLACK
6
CONTINUOUS
10
1.19727
20
0.21289
11
1.19426
21
0.21289
0
LINE
8
BLACK
6
CONTINUOUS
10
1.24564
20
0.220571
11
1.24573
21
0.220571
0
LINE
8
BLACK
6
CONTINUOUS
10
1.24573
20
0.220571
11
1.24665
21
0.219901
0
LINE
8
BLACK
6
CONTINUOUS
10
1.24665
20
0.219901
11
1.2476
21
0.219268
0
LINE
8
BLACK
6
CONTINUOUS
10
1.2476
20
0.219268
11
1.24763
21
0.21919
0
LINE
8
BLACK
6
CONTINUOUS
10
1.24763
20
0.21919
11
1.2477
21
0.219141
0
LINE
8
BLACK
6
CONTINUOUS
10
1.2477
20
0.219141
11
1.24805
21
0.218056
0
LINE
8
BLACK
6
CONTINUOUS
10
1.24805
20
0.218056
11
1.24844
21
0.216986
0
LINE
8
BLACK
6
CONTINUOUS
10
1.24844
20
0.216986
11
1.24842
21
0.216906
0
LINE
8
BLACK
6
CONTINUOUS
10
1.24842
20
0.216906
11
1.24845
21
0.216827
0
LINE
8
BLACK
6
CONTINUOUS
10
1.24845
20
0.216827
11
1.24845
21
0.169583
0
LINE
8
BLACK
6
CONTINUOUS
10
1.24845
20
0.169583
11
1.25913
21
0.169583
0
LINE
8
BLACK
6
CONTINUOUS
10
1.25913
20
0.169583
11
1.26145
21
0.168831
0
LINE
8
BLACK
6
CONTINUOUS
10
1.26145
20
0.168831
11
1.26288
21
0.166862
0
LINE
8
BLACK
6
CONTINUOUS
10
1.26288
20
0.166862
11
1.26288
21
0.164429
0
LINE
8
BLACK
6
CONTINUOUS
10
1.26288
20
0.164429
11
1.26145
21
0.162461
0
LINE
8
BLACK
6
CONTINUOUS
10
1.26145
20
0.162461
11
1.25913
21
0.161709
0
LINE
8
BLACK
6
CONTINUOUS
10
1.25913
20
0.161709
11
1.22989
21
0.161709
0
LINE
8
BLACK
6
CONTINUOUS
10
1.22989
20
0.161709
11
1.22757
21
0.162461
0
LINE
8
BLACK
6
CONTINUOUS
10
1.22757
20
0.162461
11
1.22614
21
0.164429
0
LINE
8
BLACK
6
CONTINUOUS
10
1.22614
20
0.164429
11
1.22614
21
0.166862
0
LINE
8
BLACK
6
CONTINUOUS
10
1.22614
20
0.166862
11
1.22757
21
0.168831
0
LINE
8
BLACK
6
CONTINUOUS
10
1.22757
20
0.168831
11
1.22989
21
0.169583
0
LINE
8
BLACK
6
CONTINUOUS
10
1.22989
20
0.169583
11
1.24057
21
0.169583
0
LINE
8
BLACK
6
CONTINUOUS
10
1.24057
20
0.169583
11
1.24057
21
0.204885
0
LINE
8
BLACK
6
CONTINUOUS
10
1.24057
20
0.204885
11
1.23755
21
0.201857
0
LINE
8
BLACK
6
CONTINUOUS
10
1.23755
20
0.201857
11
1.23698
21
0.201567
0
LINE
8
BLACK
6
CONTINUOUS
10
1.23698
20
0.201567
11
1.23652
21
0.20112
0
LINE
8
BLACK
6
CONTINUOUS
10
1.23652
20
0.20112
11
1.23165
21
0.198682
0
LINE
8
BLACK
6
CONTINUOUS
10
1.23165
20
0.198682
11
1.22924
21
0.19832
0
LINE
8
BLACK
6
CONTINUOUS
10
1.22924
20
0.19832
11
1.22708
21
0.199441
0
LINE
8
BLACK
6
CONTINUOUS
10
1.22708
20
0.199441
11
1.22599
21
0.201617
0
LINE
8
BLACK
6
CONTINUOUS
10
1.22599
20
0.201617
11
1.22639
21
0.204018
0
LINE
8
BLACK
6
CONTINUOUS
10
1.22639
20
0.204018
11
1.22813
21
0.205725
0
LINE
8
BLACK
6
CONTINUOUS
10
1.22813
20
0.205725
11
1.23243
21
0.207877
0
LINE
8
BLACK
6
CONTINUOUS
10
1.23243
20
0.207877
11
1.23658
21
0.212024
0
LINE
8
BLACK
6
CONTINUOUS
10
1.23658
20
0.212024
11
1.24123
21
0.219011
0
LINE
8
BLACK
6
CONTINUOUS
10
1.24123
20
0.219011
11
1.2413
21
0.219062
0
LINE
8
BLACK
6
CONTINUOUS
10
1.2413
20
0.219062
11
1.24133
21
0.219141
0
LINE
8
BLACK
6
CONTINUOUS
10
1.24133
20
0.219141
11
1.24225
21
0.219812
0
LINE
8
BLACK
6
CONTINUOUS
10
1.24225
20
0.219812
11
1.24314
21
0.220519
0
LINE
8
BLACK
6
CONTINUOUS
10
1.24314
20
0.220519
11
1.24323
21
0.220523
0
LINE
8
BLACK
6
CONTINUOUS
10
1.24323
20
0.220523
11
1.24329
21
0.220571
0
LINE
8
BLACK
6
CONTINUOUS
10
1.24329
20
0.220571
11
1.24443
21
0.220571
0
LINE
8
BLACK
6
CONTINUOUS
10
1.24443
20
0.220571
11
1.24558
21
0.220617
0
LINE
8
BLACK
6
CONTINUOUS
10
1.24558
20
0.220617
11
1.24564
21
0.220571
0
LINE
8
BLACK
6
CONTINUOUS
10
0.862619
20
0.219141
11
0.863371
21
0.216827
0
LINE
8
BLACK
6
CONTINUOUS
10
0.863371
20
0.216827
11
0.863371
21
0.176324
0
LINE
8
BLACK
6
CONTINUOUS
10
0.863371
20
0.176324
11
0.865107
21
0.172852
0
LINE
8
BLACK
6
CONTINUOUS
10
0.865107
20
0.172852
11
0.86664
21
0.171319
0
LINE
8
BLACK
6
CONTINUOUS
10
0.86664
20
0.171319
11
0.870112
21
0.169583
0
LINE
8
BLACK
6
CONTINUOUS
10
0.870112
20
0.169583
11
0.878002
21
0.169583
0
LINE
8
BLACK
6
CONTINUOUS
10
0.878002
20
0.169583
11
0.881474
21
0.171319
0
LINE
8
BLACK
6
CONTINUOUS
10
0.881474
20
0.171319
11
0.883007
21
0.172852
0
LINE
8
BLACK
6
CONTINUOUS
10
0.883007
20
0.172852
11
0.884743
21
0.176324
0
LINE
8
BLACK
6
CONTINUOUS
10
0.884743
20
0.176324
11
0.884743
21
0.216827
0
LINE
8
BLACK
6
CONTINUOUS
10
0.884743
20
0.216827
11
0.885495
21
0.219141
0
LINE
8
BLACK
6
CONTINUOUS
10
0.885495
20
0.219141
11
0.887464
21
0.220571
0
LINE
8
BLACK
6
CONTINUOUS
10
0.887464
20
0.220571
11
0.889897
21
0.220571
0
LINE
8
BLACK
6
CONTINUOUS
10
0.889897
20
0.220571
11
0.891865
21
0.219141
0
LINE
8
BLACK
6
CONTINUOUS
10
0.891865
20
0.219141
11
0.892617
21
0.216827
0
LINE
8
BLACK
6
CONTINUOUS
10
0.892617
20
0.216827
11
0.892617
21
0.175395
0
LINE
8
BLACK
6
CONTINUOUS
10
0.892617
20
0.175395
11
0.892337
21
0.174531
0
LINE
8
BLACK
6
CONTINUOUS
10
0.892337
20
0.174531
11
0.892202
21
0.173634
0
LINE
8
BLACK
6
CONTINUOUS
10
0.892202
20
0.173634
11
0.889764
21
0.16876
0
LINE
8
BLACK
6
CONTINUOUS
10
0.889764
20
0.16876
11
0.889317
21
0.168305
0
LINE
8
BLACK
6
CONTINUOUS
10
0.889317
20
0.168305
11
0.889027
21
0.167736
0
LINE
8
BLACK
6
CONTINUOUS
10
0.889027
20
0.167736
11
0.88659
21
0.165299
0
LINE
8
BLACK
6
CONTINUOUS
10
0.88659
20
0.165299
11
0.886021
21
0.165009
0
LINE
8
BLACK
6
CONTINUOUS
10
0.886021
20
0.165009
11
0.885566
21
0.164562
0
LINE
8
BLACK
6
CONTINUOUS
10
0.885566
20
0.164562
11
0.880692
21
0.162124
0
LINE
8
BLACK
6
CONTINUOUS
10
0.880692
20
0.162124
11
0.879794
21
0.161989
0
LINE
8
BLACK
6
CONTINUOUS
10
0.879794
20
0.161989
11
0.878931
21
0.161709
0
LINE
8
BLACK
6
CONTINUOUS
10
0.878931
20
0.161709
11
0.869183
21
0.161709
0
LINE
8
BLACK
6
CONTINUOUS
10
0.869183
20
0.161709
11
0.868319
21
0.161989
0
LINE
8
BLACK
6
CONTINUOUS
10
0.868319
20
0.161989
11
0.867422
21
0.162124
0
LINE
8
BLACK
6
CONTINUOUS
10
0.867422
20
0.162124
11
0.862548
21
0.164562
0
LINE
8
BLACK
6
CONTINUOUS
10
0.862548
20
0.164562
11
0.862093
21
0.165009
0
LINE
8
BLACK
6
CONTINUOUS
10
0.862093
20
0.165009
11
0.861524
21
0.165299
0
LINE
8
BLACK
6
CONTINUOUS
10
0.861524
20
0.165299
11
0.859087
21
0.167736
0
LINE
8
BLACK
6
CONTINUOUS
10
0.859087
20
0.167736
11
0.858797
21
0.168305
0
LINE
8
BLACK
6
CONTINUOUS
10
0.858797
20
0.168305
11
0.85835
21
0.16876
0
LINE
8
BLACK
6
CONTINUOUS
10
0.85835
20
0.16876
11
0.855912
21
0.173634
0
LINE
8
BLACK
6
CONTINUOUS
10
0.855912
20
0.173634
11
0.855777
21
0.174531
0
LINE
8
BLACK
6
CONTINUOUS
10
0.855777
20
0.174531
11
0.855497
21
0.175395
0
LINE
8
BLACK
6
CONTINUOUS
10
0.855497
20
0.175395
11
0.855497
21
0.216827
0
LINE
8
BLACK
6
CONTINUOUS
10
0.855497
20
0.216827
11
0.856249
21
0.219141
0
LINE
8
BLACK
6
CONTINUOUS
10
0.856249
20
0.219141
11
0.858217
21
0.220571
0
LINE
8
BLACK
6
CONTINUOUS
10
0.858217
20
0.220571
11
0.86065
21
0.220571
0
LINE
8
BLACK
6
CONTINUOUS
10
0.86065
20
0.220571
11
0.862619
21
0.219141
0
LINE
8
BLACK
6
CONTINUOUS
10
0.933157
20
0.220567
11
0.933795
21
0.220562
0
LINE
8
BLACK
6
CONTINUOUS
10
0.933795
20
0.220562
11
0.941106
21
0.218125
0
LINE
8
BLACK
6
CONTINUOUS
10
0.941106
20
0.218125
11
0.943064
21
0.21668
0
LINE
8
BLACK
6
CONTINUOUS
10
0.943064
20
0.21668
11
0.943798
21
0.21436
0
LINE
8
BLACK
6
CONTINUOUS
10
0.943798
20
0.21436
11
0.943029
21
0.212052
0
LINE
8
BLACK
6
CONTINUOUS
10
0.943029
20
0.212052
11
0.941049
21
0.210636
0
LINE
8
BLACK
6
CONTINUOUS
10
0.941049
20
0.210636
11
0.938616
21
0.210655
0
LINE
8
BLACK
6
CONTINUOUS
10
0.938616
20
0.210655
11
0.931911
21
0.21289
0
LINE
8
BLACK
6
CONTINUOUS
10
0.931911
20
0.21289
11
0.921293
21
0.21289
0
LINE
8
BLACK
6
CONTINUOUS
10
0.921293
20
0.21289
11
0.917821
21
0.211154
0
LINE
8
BLACK
6
CONTINUOUS
10
0.917821
20
0.211154
11
0.916288
21
0.20962
0
LINE
8
BLACK
6
CONTINUOUS
10
0.916288
20
0.20962
11
0.914552
21
0.206149
0
LINE
8
BLACK
6
CONTINUOUS
10
0.914552
20
0.206149
11
0.914552
21
0.203133
0
LINE
8
BLACK
6
CONTINUOUS
10
0.914552
20
0.203133
11
0.916288
21
0.199662
0
LINE
8
BLACK
6
CONTINUOUS
10
0.916288
20
0.199662
11
0.917821
21
0.198128
0
LINE
8
BLACK
6
CONTINUOUS
10
0.917821
20
0.198128
11
0.921738
21
0.19617
0
LINE
8
BLACK
6
CONTINUOUS
10
0.921738
20
0.19617
11
0.931067
21
0.193837
0
LINE
8
BLACK
6
CONTINUOUS
10
0.931067
20
0.193837
11
0.931439
21
0.193605
0
LINE
8
BLACK
6
CONTINUOUS
10
0.931439
20
0.193605
11
0.931873
21
0.193539
0
LINE
8
BLACK
6
CONTINUOUS
10
0.931873
20
0.193539
11
0.936748
21
0.191102
0
LINE
8
BLACK
6
CONTINUOUS
10
0.936748
20
0.191102
11
0.937202
21
0.190654
0
LINE
8
BLACK
6
CONTINUOUS
10
0.937202
20
0.190654
11
0.937771
21
0.190364
0
LINE
8
BLACK
6
CONTINUOUS
10
0.937771
20
0.190364
11
0.940208
21
0.187927
0
LINE
8
BLACK
6
CONTINUOUS
10
0.940208
20
0.187927
11
0.940498
21
0.187359
0
LINE
8
BLACK
6
CONTINUOUS
10
0.940498
20
0.187359
11
0.940945
21
0.186904
0
LINE
8
BLACK
6
CONTINUOUS
10
0.940945
20
0.186904
11
0.943383
21
0.18203
0
LINE
8
BLACK
6
CONTINUOUS
10
0.943383
20
0.18203
11
0.943518
21
0.181132
0
LINE
8
BLACK
6
CONTINUOUS
10
0.943518
20
0.181132
11
0.943798
21
0.180269
0
LINE
8
BLACK
6
CONTINUOUS
10
0.943798
20
0.180269
11
0.943798
21
0.175395
0
LINE
8
BLACK
6
CONTINUOUS
10
0.943798
20
0.175395
11
0.943518
21
0.174531
0
LINE
8
BLACK
6
CONTINUOUS
10
0.943518
20
0.174531
11
0.943383
21
0.173634
0
LINE
8
BLACK
6
CONTINUOUS
10
0.943383
20
0.173634
11
0.940945
21
0.16876
0
LINE
8
BLACK
6
CONTINUOUS
10
0.940945
20
0.16876
11
0.940498
21
0.168305
0
LINE
8
BLACK
6
CONTINUOUS
10
0.940498
20
0.168305
11
0.940208
21
0.167736
0
LINE
8
BLACK
6
CONTINUOUS
10
0.940208
20
0.167736
11
0.937771
21
0.165299
0
LINE
8
BLACK
6
CONTINUOUS
10
0.937771
20
0.165299
11
0.937202
21
0.165009
0
LINE
8
BLACK
6
CONTINUOUS
10
0.937202
20
0.165009
11
0.936748
21
0.164562
0
LINE
8
BLACK
6
CONTINUOUS
10
0.936748
20
0.164562
11
0.931873
21
0.162124
0
LINE
8
BLACK
6
CONTINUOUS
10
0.931873
20
0.162124
11
0.930976
21
0.161989
0
LINE
8
BLACK
6
CONTINUOUS
10
0.930976
20
0.161989
11
0.930112
21
0.161709
0
LINE
8
BLACK
6
CONTINUOUS
10
0.930112
20
0.161709
11
0.917926
21
0.161709
0
LINE
8
BLACK
6
CONTINUOUS
10
0.917926
20
0.161709
11
0.91732
21
0.161906
0
LINE
8
BLACK
6
CONTINUOUS
10
0.91732
20
0.161906
11
0.916681
21
0.161911
0
LINE
8
BLACK
6
CONTINUOUS
10
0.916681
20
0.161911
11
0.90937
21
0.164348
0
LINE
8
BLACK
6
CONTINUOUS
10
0.90937
20
0.164348
11
0.907412
21
0.165793
0
LINE
8
BLACK
6
CONTINUOUS
10
0.907412
20
0.165793
11
0.906678
21
0.168113
0
LINE
8
BLACK
6
CONTINUOUS
10
0.906678
20
0.168113
11
0.907447
21
0.170421
0
LINE
8
BLACK
6
CONTINUOUS
10
0.907447
20
0.170421
11
0.909427
21
0.171836
0
LINE
8
BLACK
6
CONTINUOUS
10
0.909427
20
0.171836
11
0.91186
21
0.171818
0
LINE
8
BLACK
6
CONTINUOUS
10
0.91186
20
0.171818
11
0.918565
21
0.169583
0
LINE
8
BLACK
6
CONTINUOUS
10
0.918565
20
0.169583
11
0.929183
21
0.169583
0
LINE
8
BLACK
6
CONTINUOUS
10
0.929183
20
0.169583
11
0.932655
21
0.171319
0
LINE
8
BLACK
6
CONTINUOUS
10
0.932655
20
0.171319
11
0.934188
21
0.172852
0
LINE
8
BLACK
6
CONTINUOUS
10
0.934188
20
0.172852
11
0.935924
21
0.176324
0
LINE
8
BLACK
6
CONTINUOUS
10
0.935924
20
0.176324
11
0.935924
21
0.17934
0
LINE
8
BLACK
6
CONTINUOUS
10
0.935924
20
0.17934
11
0.934188
21
0.182811
0
LINE
8
BLACK
6
CONTINUOUS
10
0.934188
20
0.182811
11
0.932655
21
0.184345
0
LINE
8
BLACK
6
CONTINUOUS
10
0.932655
20
0.184345
11
0.928738
21
0.186303
0
LINE
8
BLACK
6
CONTINUOUS
10
0.928738
20
0.186303
11
0.919409
21
0.188636
0
LINE
8
BLACK
6
CONTINUOUS
10
0.919409
20
0.188636
11
0.919037
21
0.188868
0
LINE
8
BLACK
6
CONTINUOUS
10
0.919037
20
0.188868
11
0.918603
21
0.188934
0
LINE
8
BLACK
6
CONTINUOUS
10
0.918603
20
0.188934
11
0.913729
21
0.191371
0
LINE
8
BLACK
6
CONTINUOUS
10
0.913729
20
0.191371
11
0.913274
21
0.191819
0
LINE
8
BLACK
6
CONTINUOUS
10
0.913274
20
0.191819
11
0.912705
21
0.192108
0
LINE
8
BLACK
6
CONTINUOUS
10
0.912705
20
0.192108
11
0.910268
21
0.194545
0
LINE
8
BLACK
6
CONTINUOUS
10
0.910268
20
0.194545
11
0.909978
21
0.195114
0
LINE
8
BLACK
6
CONTINUOUS
10
0.909978
20
0.195114
11
0.909531
21
0.195569
0
LINE
8
BLACK
6
CONTINUOUS
10
0.909531
20
0.195569
11
0.907094
21
0.200443
0
LINE
8
BLACK
6
CONTINUOUS
10
0.907094
20
0.200443
11
0.906958
21
0.201341
0
LINE
8
BLACK
6
CONTINUOUS
10
0.906958
20
0.201341
11
0.906678
21
0.202204
0
LINE
8
BLACK
6
CONTINUOUS
10
0.906678
20
0.202204
11
0.906678
21
0.207078
0
LINE
8
BLACK
6
CONTINUOUS
10
0.906678
20
0.207078
11
0.906958
21
0.207941
0
LINE
8
BLACK
6
CONTINUOUS
10
0.906958
20
0.207941
11
0.907094
21
0.208839
0
LINE
8
BLACK
6
CONTINUOUS
10
0.907094
20
0.208839
11
0.909531
21
0.213713
0
LINE
8
BLACK
6
CONTINUOUS
10
0.909531
20
0.213713
11
0.909978
21
0.214168
0
LINE
8
BLACK
6
CONTINUOUS
10
0.909978
20
0.214168
11
0.910268
21
0.214736
0
LINE
8
BLACK
6
CONTINUOUS
10
0.910268
20
0.214736
11
0.912705
21
0.217174
0
LINE
8
BLACK
6
CONTINUOUS
10
0.912705
20
0.217174
11
0.913274
21
0.217463
0
LINE
8
BLACK
6
CONTINUOUS
10
0.913274
20
0.217463
11
0.913729
21
0.217911
0
LINE
8
BLACK
6
CONTINUOUS
10
0.913729
20
0.217911
11
0.918603
21
0.220348
0
LINE
8
BLACK
6
CONTINUOUS
10
0.918603
20
0.220348
11
0.9195
21
0.220483
0
LINE
8
BLACK
6
CONTINUOUS
10
0.9195
20
0.220483
11
0.920364
21
0.220764
0
LINE
8
BLACK
6
CONTINUOUS
10
0.920364
20
0.220764
11
0.93255
21
0.220764
0
LINE
8
BLACK
6
CONTINUOUS
10
0.93255
20
0.220764
11
0.933157
21
0.220567
0
LINE
8
BLACK
6
CONTINUOUS
10
1.29082
20
0.220754
11
1.29085
21
0.220764
0
LINE
8
BLACK
6
CONTINUOUS
10
1.29085
20
0.220764
11
1.29197
21
0.220389
0
LINE
8
BLACK
6
CONTINUOUS
10
1.29197
20
0.220389
11
1.29311
21
0.22003
0
LINE
8
BLACK
6
CONTINUOUS
10
1.29311
20
0.22003
11
1.29313
21
0.220004
0
LINE
8
BLACK
6
CONTINUOUS
10
1.29313
20
0.220004
11
1.29316
21
0.219994
0
LINE
8
BLACK
6
CONTINUOUS
10
1.29316
20
0.219994
11
1.29385
21
0.219028
0
LINE
8
BLACK
6
CONTINUOUS
10
1.29385
20
0.219028
11
1.29455
21
0.218072
0
LINE
8
BLACK
6
CONTINUOUS
10
1.29455
20
0.218072
11
1.31161
21
0.166891
0
LINE
8
BLACK
6
CONTINUOUS
10
1.31161
20
0.166891
11
1.31163
21
0.164458
0
LINE
8
BLACK
6
CONTINUOUS
10
1.31163
20
0.164458
11
1.31022
21
0.162478
0
LINE
8
BLACK
6
CONTINUOUS
10
1.31022
20
0.162478
11
1.30791
21
0.161709
0
LINE
8
BLACK
6
CONTINUOUS
10
1.30791
20
0.161709
11
1.30559
21
0.162443
0
LINE
8
BLACK
6
CONTINUOUS
10
1.30559
20
0.162443
11
1.30414
21
0.164401
0
LINE
8
BLACK
6
CONTINUOUS
10
1.30414
20
0.164401
11
1.30017
21
0.176332
0
LINE
8
BLACK
6
CONTINUOUS
10
1.30017
20
0.176332
11
1.28147
21
0.176332
0
LINE
8
BLACK
6
CONTINUOUS
10
1.28147
20
0.176332
11
1.27749
21
0.164401
0
LINE
8
BLACK
6
CONTINUOUS
10
1.27749
20
0.164401
11
1.27605
21
0.162443
0
LINE
8
BLACK
6
CONTINUOUS
10
1.27605
20
0.162443
11
1.27373
21
0.161709
0
LINE
8
BLACK
6
CONTINUOUS
10
1.27373
20
0.161709
11
1.27142
21
0.162478
0
LINE
8
BLACK
6
CONTINUOUS
10
1.27142
20
0.162478
11
1.27
21
0.164458
0
LINE
8
BLACK
6
CONTINUOUS
10
1.27
20
0.164458
11
1.27002
21
0.166891
0
LINE
8
BLACK
6
CONTINUOUS
10
1.27002
20
0.166891
11
1.28708
21
0.218072
0
LINE
8
BLACK
6
CONTINUOUS
10
1.28708
20
0.218072
11
1.28779
21
0.219028
0
LINE
8
BLACK
6
CONTINUOUS
10
1.28779
20
0.219028
11
1.28848
21
0.219994
0
LINE
8
BLACK
6
CONTINUOUS
10
1.28848
20
0.219994
11
1.28851
21
0.220004
0
LINE
8
BLACK
6
CONTINUOUS
10
1.28851
20
0.220004
11
1.28853
21
0.22003
0
LINE
8
BLACK
6
CONTINUOUS
10
1.28853
20
0.22003
11
1.28966
21
0.220388
0
LINE
8
BLACK
6
CONTINUOUS
10
1.28966
20
0.220388
11
1.29079
21
0.220764
0
LINE
8
BLACK
6
CONTINUOUS
10
1.29079
20
0.220764
11
1.29082
21
0.220754
0
LINE
8
BLACK
6
CONTINUOUS
10
1.28409
20
0.184206
11
1.29754
21
0.184206
0
LINE
8
BLACK
6
CONTINUOUS
10
1.29754
20
0.184206
11
1.29082
21
0.204377
0
LINE
8
BLACK
6
CONTINUOUS
10
1.29082
20
0.204377
11
1.28409
21
0.184206
0
LINE
8
BLACK
6
CONTINUOUS
10
1.16004
20
0.220571
11
1.16043
21
0.220571
0
LINE
8
BLACK
6
CONTINUOUS
10
1.16043
20
0.220571
11
1.16112
21
0.220068
0
LINE
8
BLACK
6
CONTINUOUS
10
1.16112
20
0.220068
11
1.16189
21
0.219706
0
LINE
8
BLACK
6
CONTINUOUS
10
1.16189
20
0.219706
11
1.16208
21
0.219368
0
LINE
8
BLACK
6
CONTINUOUS
10
1.16208
20
0.219368
11
1.16239
21
0.219141
0
LINE
8
BLACK
6
CONTINUOUS
10
1.16239
20
0.219141
11
1.16266
21
0.218326
0
LINE
8
BLACK
6
CONTINUOUS
10
1.16266
20
0.218326
11
1.16307
21
0.217577
0
LINE
8
BLACK
6
CONTINUOUS
10
1.16307
20
0.217577
11
1.16303
21
0.217194
0
LINE
8
BLACK
6
CONTINUOUS
10
1.16303
20
0.217194
11
1.16315
21
0.216827
0
LINE
8
BLACK
6
CONTINUOUS
10
1.16315
20
0.216827
11
1.16315
21
0.165646
0
LINE
8
BLACK
6
CONTINUOUS
10
1.16315
20
0.165646
11
1.16239
21
0.163332
0
LINE
8
BLACK
6
CONTINUOUS
10
1.16239
20
0.163332
11
1.16043
21
0.161901
0
LINE
8
BLACK
6
CONTINUOUS
10
1.16043
20
0.161901
11
1.15799
21
0.161901
0
LINE
8
BLACK
6
CONTINUOUS
10
1.15799
20
0.161901
11
1.15602
21
0.163332
0
LINE
8
BLACK
6
CONTINUOUS
10
1.15602
20
0.163332
11
1.15527
21
0.165646
0
LINE
8
BLACK
6
CONTINUOUS
10
1.15527
20
0.165646
11
1.15527
21
0.199081
0
LINE
8
BLACK
6
CONTINUOUS
10
1.15527
20
0.199081
11
1.14572
21
0.178604
0
LINE
8
BLACK
6
CONTINUOUS
10
1.14572
20
0.178604
11
1.1452
21
0.178052
0
LINE
8
BLACK
6
CONTINUOUS
10
1.1452
20
0.178052
11
1.14483
21
0.17739
0
LINE
8
BLACK
6
CONTINUOUS
10
1.14483
20
0.17739
11
1.14439
21
0.177183
0
LINE
8
BLACK
6
CONTINUOUS
10
1.14439
20
0.177183
11
1.14406
21
0.176825
0
LINE
8
BLACK
6
CONTINUOUS
10
1.14406
20
0.176825
11
1.14331
21
0.176681
0
LINE
8
BLACK
6
CONTINUOUS
10
1.14331
20
0.176681
11
1.14263
21
0.176361
0
LINE
8
BLACK
6
CONTINUOUS
10
1.14263
20
0.176361
11
1.14215
21
0.176455
0
LINE
8
BLACK
6
CONTINUOUS
10
1.14215
20
0.176455
11
1.14167
21
0.176361
0
LINE
8
BLACK
6
CONTINUOUS
10
1.14167
20
0.176361
11
1.14098
21
0.176681
0
LINE
8
BLACK
6
CONTINUOUS
10
1.14098
20
0.176681
11
1.14024
21
0.176825
0
LINE
8
BLACK
6
CONTINUOUS
10
1.14024
20
0.176825
11
1.13991
21
0.177183
0
LINE
8
BLACK
6
CONTINUOUS
10
1.13991
20
0.177183
11
1.13946
21
0.17739
0
LINE
8
BLACK
6
CONTINUOUS
10
1.13946
20
0.17739
11
1.1391
21
0.178052
0
LINE
8
BLACK
6
CONTINUOUS
10
1.1391
20
0.178052
11
1.13858
21
0.178604
0
LINE
8
BLACK
6
CONTINUOUS
10
1.13858
20
0.178604
11
1.12903
21
0.199081
0
LINE
8
BLACK
6
CONTINUOUS
10
1.12903
20
0.199081
11
1.12903
21
0.165646
0
LINE
8
BLACK
6
CONTINUOUS
10
1.12903
20
0.165646
11
1.12827
21
0.163332
0
LINE
8
BLACK
6
CONTINUOUS
10
1.12827
20
0.163332
11
1.1263
21
0.161901
0
LINE
8
BLACK
6
CONTINUOUS
10
1.1263
20
0.161901
11
1.12387
21
0.161901
0
LINE
8
BLACK
6
CONTINUOUS
10
1.12387
20
0.161901
11
1.1219
21
0.163332
0
LINE
8
BLACK
6
CONTINUOUS
10
1.1219
20
0.163332
11
1.12115
21
0.165646
0
LINE
8
BLACK
6
CONTINUOUS
10
1.12115
20
0.165646
11
1.12115
21
0.216827
0
LINE
8
BLACK
6
CONTINUOUS
10
1.12115
20
0.216827
11
1.12127
21
0.217194
0
LINE
8
BLACK
6
CONTINUOUS
10
1.12127
20
0.217194
11
1.12122
21
0.217577
0
LINE
8
BLACK
6
CONTINUOUS
10
1.12122
20
0.217577
11
1.12164
21
0.218326
0
LINE
8
BLACK
6
CONTINUOUS
10
1.12164
20
0.218326
11
1.1219
21
0.219141
0
LINE
8
BLACK
6
CONTINUOUS
10
1.1219
20
0.219141
11
1.12222
21
0.219368
0
LINE
8
BLACK
6
CONTINUOUS
10
1.12222
20
0.219368
11
1.1224
21
0.219705
0
LINE
8
BLACK
6
CONTINUOUS
10
1.1224
20
0.219705
11
1.12318
21
0.220068
0
LINE
8
BLACK
6
CONTINUOUS
10
1.12318
20
0.220068
11
1.12387
21
0.220571
0
LINE
8
BLACK
6
CONTINUOUS
10
1.12387
20
0.220571
11
1.12426
21
0.220571
0
LINE
8
BLACK
6
CONTINUOUS
10
1.12426
20
0.220571
11
1.12461
21
0.220734
0
LINE
8
BLACK
6
CONTINUOUS
10
1.12461
20
0.220734
11
1.12545
21
0.220571
0
LINE
8
BLACK
6
CONTINUOUS
10
1.12545
20
0.220571
11
1.1263
21
0.220571
0
LINE
8
BLACK
6
CONTINUOUS
10
1.1263
20
0.220571
11
1.12662
21
0.220344
0
LINE
8
BLACK
6
CONTINUOUS
10
1.12662
20
0.220344
11
1.127
21
0.220271
0
LINE
8
BLACK
6
CONTINUOUS
10
1.127
20
0.220271
11
1.12758
21
0.219645
0
LINE
8
BLACK
6
CONTINUOUS
10
1.12758
20
0.219645
11
1.12827
21
0.219141
0
LINE
8
BLACK
6
CONTINUOUS
10
1.12827
20
0.219141
11
1.12839
21
0.218774
0
LINE
8
BLACK
6
CONTINUOUS
10
1.12839
20
0.218774
11
1.12866
21
0.218492
0
LINE
8
BLACK
6
CONTINUOUS
10
1.12866
20
0.218492
11
1.14215
21
0.189579
0
LINE
8
BLACK
6
CONTINUOUS
10
1.14215
20
0.189579
11
1.15564
21
0.218492
0
LINE
8
BLACK
6
CONTINUOUS
10
1.15564
20
0.218492
11
1.1559
21
0.218774
0
LINE
8
BLACK
6
CONTINUOUS
10
1.1559
20
0.218774
11
1.15602
21
0.219141
0
LINE
8
BLACK
6
CONTINUOUS
10
1.15602
20
0.219141
11
1.15672
21
0.219645
0
LINE
8
BLACK
6
CONTINUOUS
10
1.15672
20
0.219645
11
1.1573
21
0.220271
0
LINE
8
BLACK
6
CONTINUOUS
10
1.1573
20
0.220271
11
1.15768
21
0.220344
0
LINE
8
BLACK
6
CONTINUOUS
10
1.15768
20
0.220344
11
1.15799
21
0.220571
0
LINE
8
BLACK
6
CONTINUOUS
10
1.15799
20
0.220571
11
1.15885
21
0.220571
0
LINE
8
BLACK
6
CONTINUOUS
10
1.15885
20
0.220571
11
1.15969
21
0.220734
0
LINE
8
BLACK
6
CONTINUOUS
10
1.15969
20
0.220734
11
1.16004
21
0.220571
0
LINE
8
BLACK
6
CONTINUOUS
10
0.986045
20
0.220012
11
0.987475
21
0.218044
0
LINE
8
BLACK
6
CONTINUOUS
10
0.987475
20
0.218044
11
0.987475
21
0.21561
0
LINE
8
BLACK
6
CONTINUOUS
10
0.987475
20
0.21561
11
0.986045
21
0.213642
0
LINE
8
BLACK
6
CONTINUOUS
10
0.986045
20
0.213642
11
0.983731
21
0.21289
0
LINE
8
BLACK
6
CONTINUOUS
10
0.983731
20
0.21289
11
0.973045
21
0.21289
0
LINE
8
BLACK
6
CONTINUOUS
10
0.973045
20
0.21289
11
0.973045
21
0.165646
0
LINE
8
BLACK
6
CONTINUOUS
10
0.973045
20
0.165646
11
0.972293
21
0.163332
0
LINE
8
BLACK
6
CONTINUOUS
10
0.972293
20
0.163332
11
0.970324
21
0.161901
0
LINE
8
BLACK
6
CONTINUOUS
10
0.970324
20
0.161901
11
0.967891
21
0.161901
0
LINE
8
BLACK
6
CONTINUOUS
10
0.967891
20
0.161901
11
0.965922
21
0.163332
0
LINE
8
BLACK
6
CONTINUOUS
10
0.965922
20
0.163332
11
0.965171
21
0.165646
0
LINE
8
BLACK
6
CONTINUOUS
10
0.965171
20
0.165646
11
0.965171
21
0.21289
0
LINE
8
BLACK
6
CONTINUOUS
10
0.965171
20
0.21289
11
0.954484
21
0.21289
0
LINE
8
BLACK
6
CONTINUOUS
10
0.954484
20
0.21289
11
0.95217
21
0.213642
0
LINE
8
BLACK
6
CONTINUOUS
10
0.95217
20
0.213642
11
0.95074
21
0.21561
0
LINE
8
BLACK
6
CONTINUOUS
10
0.95074
20
0.21561
11
0.95074
21
0.218044
0
LINE
8
BLACK
6
CONTINUOUS
10
0.95074
20
0.218044
11
0.95217
21
0.220012
0
LINE
8
BLACK
6
CONTINUOUS
10
0.95217
20
0.220012
11
0.954484
21
0.220764
0
LINE
8
BLACK
6
CONTINUOUS
10
0.954484
20
0.220764
11
0.983731
21
0.220764
0
LINE
8
BLACK
6
CONTINUOUS
10
0.983731
20
0.220764
11
0.986045
21
0.220012
0
LINE
8
BLACK
6
CONTINUOUS
10
1.05272
20
0.219141
11
1.05347
21
0.216827
0
LINE
8
BLACK
6
CONTINUOUS
10
1.05347
20
0.216827
11
1.05347
21
0.165646
0
LINE
8
BLACK
6
CONTINUOUS
10
1.05347
20
0.165646
11
1.05272
21
0.163332
0
LINE
8
BLACK
6
CONTINUOUS
10
1.05272
20
0.163332
11
1.05075
21
0.161901
0
LINE
8
BLACK
6
CONTINUOUS
10
1.05075
20
0.161901
11
1.04832
21
0.161901
0
LINE
8
BLACK
6
CONTINUOUS
10
1.04832
20
0.161901
11
1.04635
21
0.163332
0
LINE
8
BLACK
6
CONTINUOUS
10
1.04635
20
0.163332
11
1.0456
21
0.165646
0
LINE
8
BLACK
6
CONTINUOUS
10
1.0456
20
0.165646
11
1.0456
21
0.216827
0
LINE
8
BLACK
6
CONTINUOUS
10
1.0456
20
0.216827
11
1.04635
21
0.219141
0
LINE
8
BLACK
6
CONTINUOUS
10
1.04635
20
0.219141
11
1.04832
21
0.220571
0
LINE
8
BLACK
6
CONTINUOUS
10
1.04832
20
0.220571
11
1.05075
21
0.220571
0
LINE
8
BLACK
6
CONTINUOUS
10
1.05075
20
0.220571
11
1.05272
21
0.219141
0
LINE
8
BLACK
6
CONTINUOUS
10
1.09427
20
0.220484
11
1.09517
21
0.220348
0
LINE
8
BLACK
6
CONTINUOUS
10
1.09517
20
0.220348
11
1.10004
21
0.217911
0
LINE
8
BLACK
6
CONTINUOUS
10
1.10004
20
0.217911
11
1.10049
21
0.217463
0
LINE
8
BLACK
6
CONTINUOUS
10
1.10049
20
0.217463
11
1.10106
21
0.217174
0
LINE
8
BLACK
6
CONTINUOUS
10
1.10106
20
0.217174
11
1.1035
21
0.214736
0
LINE
8
BLACK
6
CONTINUOUS
10
1.1035
20
0.214736
11
1.10379
21
0.214168
0
LINE
8
BLACK
6
CONTINUOUS
10
1.10379
20
0.214168
11
1.10424
21
0.213713
0
LINE
8
BLACK
6
CONTINUOUS
10
1.10424
20
0.213713
11
1.10667
21
0.208839
0
LINE
8
BLACK
6
CONTINUOUS
10
1.10667
20
0.208839
11
1.10681
21
0.207941
0
LINE
8
BLACK
6
CONTINUOUS
10
1.10681
20
0.207941
11
1.10709
21
0.207078
0
LINE
8
BLACK
6
CONTINUOUS
10
1.10709
20
0.207078
11
1.10709
21
0.199767
0
LINE
8
BLACK
6
CONTINUOUS
10
1.10709
20
0.199767
11
1.10681
21
0.198903
0
LINE
8
BLACK
6
CONTINUOUS
10
1.10681
20
0.198903
11
1.10667
21
0.198006
0
LINE
8
BLACK
6
CONTINUOUS
10
1.10667
20
0.198006
11
1.10424
21
0.193131
0
LINE
8
BLACK
6
CONTINUOUS
10
1.10424
20
0.193131
11
1.10379
21
0.192677
0
LINE
8
BLACK
6
CONTINUOUS
10
1.10379
20
0.192677
11
1.1035
21
0.192108
0
LINE
8
BLACK
6
CONTINUOUS
10
1.1035
20
0.192108
11
1.10106
21
0.189671
0
LINE
8
BLACK
6
CONTINUOUS
10
1.10106
20
0.189671
11
1.10049
21
0.189381
0
LINE
8
BLACK
6
CONTINUOUS
10
1.10049
20
0.189381
11
1.10004
21
0.188934
0
LINE
8
BLACK
6
CONTINUOUS
10
1.10004
20
0.188934
11
1.09517
21
0.186496
0
LINE
8
BLACK
6
CONTINUOUS
10
1.09517
20
0.186496
11
1.09427
21
0.186361
0
LINE
8
BLACK
6
CONTINUOUS
10
1.09427
20
0.186361
11
1.0934
21
0.186081
0
LINE
8
BLACK
6
CONTINUOUS
10
1.0934
20
0.186081
11
1.07784
21
0.186081
0
LINE
8
BLACK
6
CONTINUOUS
10
1.07784
20
0.186081
11
1.07784
21
0.165646
0
LINE
8
BLACK
6
CONTINUOUS
10
1.07784
20
0.165646
11
1.07709
21
0.163332
0
LINE
8
BLACK
6
CONTINUOUS
10
1.07709
20
0.163332
11
1.07512
21
0.161901
0
LINE
8
BLACK
6
CONTINUOUS
10
1.07512
20
0.161901
11
1.07269
21
0.161901
0
LINE
8
BLACK
6
CONTINUOUS
10
1.07269
20
0.161901
11
1.07072
21
0.163332
0
LINE
8
BLACK
6
CONTINUOUS
10
1.07072
20
0.163332
11
1.06997
21
0.165646
0
LINE
8
BLACK
6
CONTINUOUS
10
1.06997
20
0.165646
11
1.06997
21
0.216827
0
LINE
8
BLACK
6
CONTINUOUS
10
1.06997
20
0.216827
11
1.07016
21
0.21742
0
LINE
8
BLACK
6
CONTINUOUS
10
1.07016
20
0.21742
11
1.07016
21
0.218044
0
LINE
8
BLACK
6
CONTINUOUS
10
1.07016
20
0.218044
11
1.07053
21
0.218548
0
LINE
8
BLACK
6
CONTINUOUS
10
1.07053
20
0.218548
11
1.07072
21
0.219141
0
LINE
8
BLACK
6
CONTINUOUS
10
1.07072
20
0.219141
11
1.07123
21
0.219508
0
LINE
8
BLACK
6
CONTINUOUS
10
1.07123
20
0.219508
11
1.07159
21
0.220012
0
LINE
8
BLACK
6
CONTINUOUS
10
1.07159
20
0.220012
11
1.07219
21
0.220205
0
LINE
8
BLACK
6
CONTINUOUS
10
1.07219
20
0.220205
11
1.07269
21
0.220571
0
LINE
8
BLACK
6
CONTINUOUS
10
1.07269
20
0.220571
11
1.07331
21
0.220571
0
LINE
8
BLACK
6
CONTINUOUS
10
1.07331
20
0.220571
11
1.07391
21
0.220764
0
LINE
8
BLACK
6
CONTINUOUS
10
1.07391
20
0.220764
11
1.0934
21
0.220764
0
LINE
8
BLACK
6
CONTINUOUS
10
1.0934
20
0.220764
11
1.09427
21
0.220484
0
LINE
8
BLACK
6
CONTINUOUS
10
1.07784
20
0.21289
11
1.07784
21
0.193955
0
LINE
8
BLACK
6
CONTINUOUS
10
1.07784
20
0.193955
11
1.09248
21
0.193955
0
LINE
8
BLACK
6
CONTINUOUS
10
1.09248
20
0.193955
11
1.09595
21
0.195691
0
LINE
8
BLACK
6
CONTINUOUS
10
1.09595
20
0.195691
11
1.09748
21
0.197224
0
LINE
8
BLACK
6
CONTINUOUS
10
1.09748
20
0.197224
11
1.09922
21
0.200696
0
LINE
8
BLACK
6
CONTINUOUS
10
1.09922
20
0.200696
11
1.09922
21
0.206149
0
LINE
8
BLACK
6
CONTINUOUS
10
1.09922
20
0.206149
11
1.09748
21
0.20962
0
LINE
8
BLACK
6
CONTINUOUS
10
1.09748
20
0.20962
11
1.09595
21
0.211154
0
LINE
8
BLACK
6
CONTINUOUS
10
1.09595
20
0.211154
11
1.09248
21
0.21289
0
LINE
8
BLACK
6
CONTINUOUS
10
1.09248
20
0.21289
11
1.07784
21
0.21289
0
LINE
8
BLACK
6
CONTINUOUS
10
2.03882
20
0.225617
11
2.03957
21
0.223303
0
LINE
8
BLACK
6
CONTINUOUS
10
2.03957
20
0.223303
11
2.03957
21
0.1828
0
LINE
8
BLACK
6
CONTINUOUS
10
2.03957
20
0.1828
11
2.04131
21
0.179329
0
LINE
8
BLACK
6
CONTINUOUS
10
2.04131
20
0.179329
11
2.04284
21
0.177795
0
LINE
8
BLACK
6
CONTINUOUS
10
2.04284
20
0.177795
11
2.04631
21
0.176059
0
LINE
8
BLACK
6
CONTINUOUS
10
2.04631
20
0.176059
11
2.0542
21
0.176059
0
LINE
8
BLACK
6
CONTINUOUS
10
2.0542
20
0.176059
11
2.05768
21
0.177795
0
LINE
8
BLACK
6
CONTINUOUS
10
2.05768
20
0.177795
11
2.05921
21
0.179329
0
LINE
8
BLACK
6
CONTINUOUS
10
2.05921
20
0.179329
11
2.06094
21
0.1828
0
LINE
8
BLACK
6
CONTINUOUS
10
2.06094
20
0.1828
11
2.06094
21
0.223303
0
LINE
8
BLACK
6
CONTINUOUS
10
2.06094
20
0.223303
11
2.0617
21
0.225617
0
LINE
8
BLACK
6
CONTINUOUS
10
2.0617
20
0.225617
11
2.06367
21
0.227048
0
LINE
8
BLACK
6
CONTINUOUS
10
2.06367
20
0.227048
11
2.0661
21
0.227048
0
LINE
8
BLACK
6
CONTINUOUS
10
2.0661
20
0.227048
11
2.06807
21
0.225617
0
LINE
8
BLACK
6
CONTINUOUS
10
2.06807
20
0.225617
11
2.06882
21
0.223303
0
LINE
8
BLACK
6
CONTINUOUS
10
2.06882
20
0.223303
11
2.06882
21
0.181871
0
LINE
8
BLACK
6
CONTINUOUS
10
2.06882
20
0.181871
11
2.06854
21
0.181008
0
LINE
8
BLACK
6
CONTINUOUS
10
2.06854
20
0.181008
11
2.0684
21
0.18011
0
LINE
8
BLACK
6
CONTINUOUS
10
2.0684
20
0.18011
11
2.06597
21
0.175236
0
LINE
8
BLACK
6
CONTINUOUS
10
2.06597
20
0.175236
11
2.06552
21
0.174781
0
LINE
8
BLACK
6
CONTINUOUS
10
2.06552
20
0.174781
11
2.06523
21
0.174213
0
LINE
8
BLACK
6
CONTINUOUS
10
2.06523
20
0.174213
11
2.06279
21
0.171776
0
LINE
8
BLACK
6
CONTINUOUS
10
2.06279
20
0.171776
11
2.06222
21
0.171486
0
LINE
8
BLACK
6
CONTINUOUS
10
2.06222
20
0.171486
11
2.06177
21
0.171038
0
LINE
8
BLACK
6
CONTINUOUS
10
2.06177
20
0.171038
11
2.05689
21
0.168601
0
LINE
8
BLACK
6
CONTINUOUS
10
2.05689
20
0.168601
11
2.056
21
0.168466
0
LINE
8
BLACK
6
CONTINUOUS
10
2.056
20
0.168466
11
2.05513
21
0.168185
0
LINE
8
BLACK
6
CONTINUOUS
10
2.05513
20
0.168185
11
2.04538
21
0.168185
0
LINE
8
BLACK
6
CONTINUOUS
10
2.04538
20
0.168185
11
2.04452
21
0.168466
0
LINE
8
BLACK
6
CONTINUOUS
10
2.04452
20
0.168466
11
2.04362
21
0.168601
0
LINE
8
BLACK
6
CONTINUOUS
10
2.04362
20
0.168601
11
2.03875
21
0.171038
0
LINE
8
BLACK
6
CONTINUOUS
10
2.03875
20
0.171038
11
2.03829
21
0.171486
0
LINE
8
BLACK
6
CONTINUOUS
10
2.03829
20
0.171486
11
2.03773
21
0.171776
0
LINE
8
BLACK
6
CONTINUOUS
10
2.03773
20
0.171776
11
2.03529
21
0.174213
0
LINE
8
BLACK
6
CONTINUOUS
10
2.03529
20
0.174213
11
2.035
21
0.174781
0
LINE
8
BLACK
6
CONTINUOUS
10
2.035
20
0.174781
11
2.03455
21
0.175236
0
LINE
8
BLACK
6
CONTINUOUS
10
2.03455
20
0.175236
11
2.03211
21
0.18011
0
LINE
8
BLACK
6
CONTINUOUS
10
2.03211
20
0.18011
11
2.03198
21
0.181008
0
LINE
8
BLACK
6
CONTINUOUS
10
2.03198
20
0.181008
11
2.0317
21
0.181871
0
LINE
8
BLACK
6
CONTINUOUS
10
2.0317
20
0.181871
11
2.0317
21
0.223303
0
LINE
8
BLACK
6
CONTINUOUS
10
2.0317
20
0.223303
11
2.03245
21
0.225617
0
LINE
8
BLACK
6
CONTINUOUS
10
2.03245
20
0.225617
11
2.03442
21
0.227048
0
LINE
8
BLACK
6
CONTINUOUS
10
2.03442
20
0.227048
11
2.03685
21
0.227048
0
LINE
8
BLACK
6
CONTINUOUS
10
2.03685
20
0.227048
11
2.03882
21
0.225617
0
LINE
8
BLACK
6
CONTINUOUS
10
2.00238
20
0.22696
11
2.00328
21
0.226825
0
LINE
8
BLACK
6
CONTINUOUS
10
2.00328
20
0.226825
11
2.00815
21
0.224388
0
LINE
8
BLACK
6
CONTINUOUS
10
2.00815
20
0.224388
11
2.0086
21
0.22394
0
LINE
8
BLACK
6
CONTINUOUS
10
2.0086
20
0.22394
11
2.00917
21
0.22365
0
LINE
8
BLACK
6
CONTINUOUS
10
2.00917
20
0.22365
11
2.01405
21
0.218776
0
LINE
8
BLACK
6
CONTINUOUS
10
2.01405
20
0.218776
11
2.01453
21
0.217838
0
LINE
8
BLACK
6
CONTINUOUS
10
2.01453
20
0.217838
11
2.01508
21
0.216947
0
LINE
8
BLACK
6
CONTINUOUS
10
2.01508
20
0.216947
11
2.01752
21
0.207198
0
LINE
8
BLACK
6
CONTINUOUS
10
2.01752
20
0.207198
11
2.01749
21
0.206709
0
LINE
8
BLACK
6
CONTINUOUS
10
2.01749
20
0.206709
11
2.01764
21
0.206243
0
LINE
8
BLACK
6
CONTINUOUS
10
2.01764
20
0.206243
11
2.01764
21
0.189183
0
LINE
8
BLACK
6
CONTINUOUS
10
2.01764
20
0.189183
11
2.01749
21
0.188717
0
LINE
8
BLACK
6
CONTINUOUS
10
2.01749
20
0.188717
11
2.01752
21
0.188228
0
LINE
8
BLACK
6
CONTINUOUS
10
2.01752
20
0.188228
11
2.01508
21
0.178479
0
LINE
8
BLACK
6
CONTINUOUS
10
2.01508
20
0.178479
11
2.01453
21
0.177587
0
LINE
8
BLACK
6
CONTINUOUS
10
2.01453
20
0.177587
11
2.01405
21
0.17665
0
LINE
8
BLACK
6
CONTINUOUS
10
2.01405
20
0.17665
11
2.00917
21
0.171776
0
LINE
8
BLACK
6
CONTINUOUS
10
2.00917
20
0.171776
11
2.0086
21
0.171486
0
LINE
8
BLACK
6
CONTINUOUS
10
2.0086
20
0.171486
11
2.00815
21
0.171038
0
LINE
8
BLACK
6
CONTINUOUS
10
2.00815
20
0.171038
11
2.00328
21
0.168601
0
LINE
8
BLACK
6
CONTINUOUS
10
2.00328
20
0.168601
11
2.00238
21
0.168466
0
LINE
8
BLACK
6
CONTINUOUS
10
2.00238
20
0.168466
11
2.00151
21
0.168185
0
LINE
8
BLACK
6
CONTINUOUS
10
2.00151
20
0.168185
11
1.99177
21
0.168185
0
LINE
8
BLACK
6
CONTINUOUS
10
1.99177
20
0.168185
11
1.9909
21
0.168466
0
LINE
8
BLACK
6
CONTINUOUS
10
1.9909
20
0.168466
11
1.99001
21
0.168601
0
LINE
8
BLACK
6
CONTINUOUS
10
1.99001
20
0.168601
11
1.98513
21
0.171038
0
LINE
8
BLACK
6
CONTINUOUS
10
1.98513
20
0.171038
11
1.98468
21
0.171486
0
LINE
8
BLACK
6
CONTINUOUS
10
1.98468
20
0.171486
11
1.98411
21
0.171776
0
LINE
8
BLACK
6
CONTINUOUS
10
1.98411
20
0.171776
11
1.97923
21
0.17665
0
LINE
8
BLACK
6
CONTINUOUS
10
1.97923
20
0.17665
11
1.97876
21
0.177587
0
LINE
8
BLACK
6
CONTINUOUS
10
1.97876
20
0.177587
11
1.9782
21
0.178479
0
LINE
8
BLACK
6
CONTINUOUS
10
1.9782
20
0.178479
11
1.97576
21
0.188228
0
LINE
8
BLACK
6
CONTINUOUS
10
1.97576
20
0.188228
11
1.97579
21
0.188717
0
LINE
8
BLACK
6
CONTINUOUS
10
1.97579
20
0.188717
11
1.97564
21
0.189183
0
LINE
8
BLACK
6
CONTINUOUS
10
1.97564
20
0.189183
11
1.97564
21
0.206243
0
LINE
8
BLACK
6
CONTINUOUS
10
1.97564
20
0.206243
11
1.97579
21
0.206709
0
LINE
8
BLACK
6
CONTINUOUS
10
1.97579
20
0.206709
11
1.97576
21
0.207198
0
LINE
8
BLACK
6
CONTINUOUS
10
1.97576
20
0.207198
11
1.9782
21
0.216947
0
LINE
8
BLACK
6
CONTINUOUS
10
1.9782
20
0.216947
11
1.97876
21
0.217838
0
LINE
8
BLACK
6
CONTINUOUS
10
1.97876
20
0.217838
11
1.97923
21
0.218776
0
LINE
8
BLACK
6
CONTINUOUS
10
1.97923
20
0.218776
11
1.98411
21
0.22365
0
LINE
8
BLACK
6
CONTINUOUS
10
1.98411
20
0.22365
11
1.98468
21
0.22394
0
LINE
8
BLACK
6
CONTINUOUS
10
1.98468
20
0.22394
11
1.98513
21
0.224388
0
LINE
8
BLACK
6
CONTINUOUS
10
1.98513
20
0.224388
11
1.99001
21
0.226825
0
LINE
8
BLACK
6
CONTINUOUS
10
1.99001
20
0.226825
11
1.9909
21
0.22696
0
LINE
8
BLACK
6
CONTINUOUS
10
1.9909
20
0.22696
11
1.99177
21
0.22724
0
LINE
8
BLACK
6
CONTINUOUS
10
1.99177
20
0.22724
11
2.00151
21
0.22724
0
LINE
8
BLACK
6
CONTINUOUS
10
2.00151
20
0.22724
11
2.00238
21
0.22696
0
LINE
8
BLACK
6
CONTINUOUS
10
1.9927
20
0.219366
11
1.98922
21
0.21763
0
LINE
8
BLACK
6
CONTINUOUS
10
1.98922
20
0.21763
11
1.98557
21
0.213979
0
LINE
8
BLACK
6
CONTINUOUS
10
1.98557
20
0.213979
11
1.98352
21
0.205758
0
LINE
8
BLACK
6
CONTINUOUS
10
1.98352
20
0.205758
11
1.98352
21
0.189667
0
LINE
8
BLACK
6
CONTINUOUS
10
1.98352
20
0.189667
11
1.98557
21
0.181447
0
LINE
8
BLACK
6
CONTINUOUS
10
1.98557
20
0.181447
11
1.98922
21
0.177795
0
LINE
8
BLACK
6
CONTINUOUS
10
1.98922
20
0.177795
11
1.9927
21
0.176059
0
LINE
8
BLACK
6
CONTINUOUS
10
1.9927
20
0.176059
11
2.00059
21
0.176059
0
LINE
8
BLACK
6
CONTINUOUS
10
2.00059
20
0.176059
11
2.00406
21
0.177795
0
LINE
8
BLACK
6
CONTINUOUS
10
2.00406
20
0.177795
11
2.00771
21
0.181447
0
LINE
8
BLACK
6
CONTINUOUS
10
2.00771
20
0.181447
11
2.00976
21
0.189667
0
LINE
8
BLACK
6
CONTINUOUS
10
2.00976
20
0.189667
11
2.00976
21
0.205758
0
LINE
8
BLACK
6
CONTINUOUS
10
2.00976
20
0.205758
11
2.00771
21
0.213979
0
LINE
8
BLACK
6
CONTINUOUS
10
2.00771
20
0.213979
11
2.00406
21
0.217631
0
LINE
8
BLACK
6
CONTINUOUS
10
2.00406
20
0.217631
11
2.00059
21
0.219366
0
LINE
8
BLACK
6
CONTINUOUS
10
2.00059
20
0.219366
11
1.9927
21
0.219366
0
LINE
8
BLACK
6
CONTINUOUS
10
2.1135
20
0.226488
11
2.11493
21
0.22452
0
LINE
8
BLACK
6
CONTINUOUS
10
2.11493
20
0.22452
11
2.11493
21
0.222087
0
LINE
8
BLACK
6
CONTINUOUS
10
2.11493
20
0.222087
11
2.1135
21
0.220118
0
LINE
8
BLACK
6
CONTINUOUS
10
2.1135
20
0.220118
11
2.11119
21
0.219366
0
LINE
8
BLACK
6
CONTINUOUS
10
2.11119
20
0.219366
11
2.1005
21
0.219366
0
LINE
8
BLACK
6
CONTINUOUS
10
2.1005
20
0.219366
11
2.1005
21
0.172122
0
LINE
8
BLACK
6
CONTINUOUS
10
2.1005
20
0.172122
11
2.09975
21
0.169808
0
LINE
8
BLACK
6
CONTINUOUS
10
2.09975
20
0.169808
11
2.09778
21
0.168378
0
LINE
8
BLACK
6
CONTINUOUS
10
2.09778
20
0.168378
11
2.09535
21
0.168378
0
LINE
8
BLACK
6
CONTINUOUS
10
2.09535
20
0.168378
11
2.09338
21
0.169808
0
LINE
8
BLACK
6
CONTINUOUS
10
2.09338
20
0.169808
11
2.09263
21
0.172122
0
LINE
8
BLACK
6
CONTINUOUS
10
2.09263
20
0.172122
11
2.09263
21
0.219366
0
LINE
8
BLACK
6
CONTINUOUS
10
2.09263
20
0.219366
11
2.08194
21
0.219366
0
LINE
8
BLACK
6
CONTINUOUS
10
2.08194
20
0.219366
11
2.07963
21
0.220118
0
LINE
8
BLACK
6
CONTINUOUS
10
2.07963
20
0.220118
11
2.0782
21
0.222087
0
LINE
8
BLACK
6
CONTINUOUS
10
2.0782
20
0.222087
11
2.0782
21
0.22452
0
LINE
8
BLACK
6
CONTINUOUS
10
2.0782
20
0.22452
11
2.07963
21
0.226488
0
LINE
8
BLACK
6
CONTINUOUS
10
2.07963
20
0.226488
11
2.08194
21
0.22724
0
LINE
8
BLACK
6
CONTINUOUS
10
2.08194
20
0.22724
11
2.11119
21
0.22724
0
LINE
8
BLACK
6
CONTINUOUS
10
2.11119
20
0.22724
11
2.1135
21
0.226488
0
LINE
8
BLACK
6
CONTINUOUS
10
0.159742
20
0.352292
11
0.160433
21
0.350394
0
LINE
8
BLACK
6
CONTINUOUS
10
0.160433
20
0.350394
11
0.160433
21
0.240157
0
LINE
8
BLACK
6
CONTINUOUS
10
0.160433
20
0.240157
11
0.160255
21
0.239148
0
LINE
8
BLACK
6
CONTINUOUS
10
0.160255
20
0.239148
11
0.158957
21
0.2376
0
LINE
8
BLACK
6
CONTINUOUS
10
0.158957
20
0.2376
11
0.156968
21
0.23725
0
LINE
8
BLACK
6
CONTINUOUS
10
0.156968
20
0.23725
11
0.155218
21
0.238259
0
LINE
8
BLACK
6
CONTINUOUS
10
0.155218
20
0.238259
11
0.154528
21
0.240157
0
LINE
8
BLACK
6
CONTINUOUS
10
0.154528
20
0.240157
11
0.154528
21
0.350394
0
LINE
8
BLACK
6
CONTINUOUS
10
0.154528
20
0.350394
11
0.154706
21
0.351404
0
LINE
8
BLACK
6
CONTINUOUS
10
0.154706
20
0.351404
11
0.156004
21
0.352951
0
LINE
8
BLACK
6
CONTINUOUS
10
0.156004
20
0.352951
11
0.157993
21
0.353302
0
LINE
8
BLACK
6
CONTINUOUS
10
0.157993
20
0.353302
11
0.159742
21
0.352292
0
LINE
8
BLACK
6
CONTINUOUS
10
0.435333
20
0.352292
11
0.436024
21
0.350394
0
LINE
8
BLACK
6
CONTINUOUS
10
0.436024
20
0.350394
11
0.436024
21
0.240157
0
LINE
8
BLACK
6
CONTINUOUS
10
0.436024
20
0.240157
11
0.435846
21
0.239148
0
LINE
8
BLACK
6
CONTINUOUS
10
0.435846
20
0.239148
11
0.434547
21
0.2376
0
LINE
8
BLACK
6
CONTINUOUS
10
0.434547
20
0.2376
11
0.432558
21
0.23725
0
LINE
8
BLACK
6
CONTINUOUS
10
0.432558
20
0.23725
11
0.430809
21
0.238259
0
LINE
8
BLACK
6
CONTINUOUS
10
0.430809
20
0.238259
11
0.430118
21
0.240157
0
LINE
8
BLACK
6
CONTINUOUS
10
0.430118
20
0.240157
11
0.430118
21
0.350394
0
LINE
8
BLACK
6
CONTINUOUS
10
0.430118
20
0.350394
11
0.430296
21
0.351404
0
LINE
8
BLACK
6
CONTINUOUS
10
0.430296
20
0.351404
11
0.431594
21
0.352951
0
LINE
8
BLACK
6
CONTINUOUS
10
0.431594
20
0.352951
11
0.433584
21
0.353302
0
LINE
8
BLACK
6
CONTINUOUS
10
0.433584
20
0.353302
11
0.435333
21
0.352292
0
LINE
8
BLACK
6
CONTINUOUS
10
2.32226
20
0.337174
11
2.32295
21
0.335276
0
LINE
8
BLACK
6
CONTINUOUS
10
2.32295
20
0.335276
11
2.32295
21
0.245276
0
LINE
8
BLACK
6
CONTINUOUS
10
2.32295
20
0.245276
11
2.32289
21
0.244892
0
LINE
8
BLACK
6
CONTINUOUS
10
2.32289
20
0.244892
11
2.32291
21
0.244763
0
LINE
8
BLACK
6
CONTINUOUS
10
2.32291
20
0.244763
11
2.32284
21
0.244649
0
LINE
8
BLACK
6
CONTINUOUS
10
2.32284
20
0.244649
11
2.32277
21
0.244266
0
LINE
8
BLACK
6
CONTINUOUS
10
2.32277
20
0.244266
11
2.32228
21
0.243678
0
LINE
8
BLACK
6
CONTINUOUS
10
2.32228
20
0.243678
11
2.3219
21
0.243014
0
LINE
8
BLACK
6
CONTINUOUS
10
2.3219
20
0.243014
11
2.32165
21
0.242923
0
LINE
8
BLACK
6
CONTINUOUS
10
2.32165
20
0.242923
11
2.32148
21
0.242718
0
LINE
8
BLACK
6
CONTINUOUS
10
2.32148
20
0.242718
11
2.32072
21
0.242585
0
LINE
8
BLACK
6
CONTINUOUS
10
2.32072
20
0.242585
11
2.32
21
0.242323
0
LINE
8
BLACK
6
CONTINUOUS
10
2.32
20
0.242323
11
2.12
21
0.242323
0
LINE
8
BLACK
6
CONTINUOUS
10
2.12
20
0.242323
11
2.11962
21
0.24239
0
LINE
8
BLACK
6
CONTINUOUS
10
2.11962
20
0.24239
11
2.11949
21
0.242368
0
LINE
8
BLACK
6
CONTINUOUS
10
2.11949
20
0.242368
11
2.11937
21
0.242433
0
LINE
8
BLACK
6
CONTINUOUS
10
2.11937
20
0.242433
11
2.11899
21
0.242501
0
LINE
8
BLACK
6
CONTINUOUS
10
2.11899
20
0.242501
11
2.1184
21
0.242994
0
LINE
8
BLACK
6
CONTINUOUS
10
2.1184
20
0.242994
11
2.11774
21
0.243378
0
LINE
8
BLACK
6
CONTINUOUS
10
2.11774
20
0.243378
11
2.11765
21
0.243628
0
LINE
8
BLACK
6
CONTINUOUS
10
2.11765
20
0.243628
11
2.11744
21
0.243799
0
LINE
8
BLACK
6
CONTINUOUS
10
2.11744
20
0.243799
11
2.11731
21
0.244555
0
LINE
8
BLACK
6
CONTINUOUS
10
2.11731
20
0.244555
11
2.11705
21
0.245276
0
LINE
8
BLACK
6
CONTINUOUS
10
2.11705
20
0.245276
11
2.11705
21
0.335276
0
LINE
8
BLACK
6
CONTINUOUS
10
2.11705
20
0.335276
11
2.11723
21
0.336286
0
LINE
8
BLACK
6
CONTINUOUS
10
2.11723
20
0.336286
11
2.11852
21
0.337833
0
LINE
8
BLACK
6
CONTINUOUS
10
2.11852
20
0.337833
11
2.12051
21
0.338184
0
LINE
8
BLACK
6
CONTINUOUS
10
2.12051
20
0.338184
11
2.12226
21
0.337174
0
LINE
8
BLACK
6
CONTINUOUS
10
2.12226
20
0.337174
11
2.12295
21
0.335276
0
LINE
8
BLACK
6
CONTINUOUS
10
2.12295
20
0.335276
11
2.12295
21
0.248228
0
LINE
8
BLACK
6
CONTINUOUS
10
2.12295
20
0.248228
11
2.31705
21
0.248228
0
LINE
8
BLACK
6
CONTINUOUS
10
2.31705
20
0.248228
11
2.31705
21
0.335276
0
LINE
8
BLACK
6
CONTINUOUS
10
2.31705
20
0.335276
11
2.31723
21
0.336286
0
LINE
8
BLACK
6
CONTINUOUS
10
2.31723
20
0.336286
11
2.31852
21
0.337833
0
LINE
8
BLACK
6
CONTINUOUS
10
2.31852
20
0.337833
11
2.32051
21
0.338184
0
LINE
8
BLACK
6
CONTINUOUS
10
2.32051
20
0.338184
11
2.32226
21
0.337174
0
LINE
8
BLACK
6
CONTINUOUS
10
1.20603
20
0.302997
11
1.20658
21
0.303019
0
LINE
8
BLACK
6
CONTINUOUS
10
1.20658
20
0.303019
11
1.20716
21
0.30263
0
LINE
8
BLACK
6
CONTINUOUS
10
1.20716
20
0.30263
11
1.20783
21
0.302414
0
LINE
8
BLACK
6
CONTINUOUS
10
1.20783
20
0.302414
11
1.20815
21
0.301972
0
LINE
8
BLACK
6
CONTINUOUS
10
1.20815
20
0.301972
11
1.2086
21
0.301669
0
LINE
8
BLACK
6
CONTINUOUS
10
1.2086
20
0.301669
11
1.20885
21
0.301012
0
LINE
8
BLACK
6
CONTINUOUS
10
1.20885
20
0.301012
11
1.20926
21
0.300445
0
LINE
8
BLACK
6
CONTINUOUS
10
1.20926
20
0.300445
11
1.20926
21
0.299899
0
LINE
8
BLACK
6
CONTINUOUS
10
1.20926
20
0.299899
11
1.20945
21
0.299387
0
LINE
8
BLACK
6
CONTINUOUS
10
1.20945
20
0.299387
11
1.20926
21
0.298713
0
LINE
8
BLACK
6
CONTINUOUS
10
1.20926
20
0.298713
11
1.20926
21
0.298012
0
LINE
8
BLACK
6
CONTINUOUS
10
1.20926
20
0.298012
11
1.20894
21
0.29757
0
LINE
8
BLACK
6
CONTINUOUS
10
1.20894
20
0.29757
11
1.20879
21
0.297045
0
LINE
8
BLACK
6
CONTINUOUS
10
1.20879
20
0.297045
11
1.17875
21
0.251984
0
LINE
8
BLACK
6
CONTINUOUS
10
1.17875
20
0.251984
11
1.20552
21
0.251984
0
LINE
8
BLACK
6
CONTINUOUS
10
1.20552
20
0.251984
11
1.20783
21
0.251233
0
LINE
8
BLACK
6
CONTINUOUS
10
1.20783
20
0.251233
11
1.20926
21
0.249264
0
LINE
8
BLACK
6
CONTINUOUS
10
1.20926
20
0.249264
11
1.20926
21
0.246831
0
LINE
8
BLACK
6
CONTINUOUS
10
1.20926
20
0.246831
11
1.20783
21
0.244862
0
LINE
8
BLACK
6
CONTINUOUS
10
1.20783
20
0.244862
11
1.20552
21
0.24411
0
LINE
8
BLACK
6
CONTINUOUS
10
1.20552
20
0.24411
11
1.17139
21
0.24411
0
LINE
8
BLACK
6
CONTINUOUS
10
1.17139
20
0.24411
11
1.17088
21
0.244279
0
LINE
8
BLACK
6
CONTINUOUS
10
1.17088
20
0.244279
11
1.17033
21
0.244257
0
LINE
8
BLACK
6
CONTINUOUS
10
1.17033
20
0.244257
11
1.16975
21
0.244646
0
LINE
8
BLACK
6
CONTINUOUS
10
1.16975
20
0.244646
11
1.16908
21
0.244862
0
LINE
8
BLACK
6
CONTINUOUS
10
1.16908
20
0.244862
11
1.16876
21
0.245304
0
LINE
8
BLACK
6
CONTINUOUS
10
1.16876
20
0.245304
11
1.16831
21
0.245607
0
LINE
8
BLACK
6
CONTINUOUS
10
1.16831
20
0.245607
11
1.16806
21
0.246264
0
LINE
8
BLACK
6
CONTINUOUS
10
1.16806
20
0.246264
11
1.16765
21
0.246831
0
LINE
8
BLACK
6
CONTINUOUS
10
1.16765
20
0.246831
11
1.16765
21
0.247377
0
LINE
8
BLACK
6
CONTINUOUS
10
1.16765
20
0.247377
11
1.16746
21
0.247889
0
LINE
8
BLACK
6
CONTINUOUS
10
1.16746
20
0.247889
11
1.16765
21
0.248563
0
LINE
8
BLACK
6
CONTINUOUS
10
1.16765
20
0.248563
11
1.16765
21
0.249264
0
LINE
8
BLACK
6
CONTINUOUS
10
1.16765
20
0.249264
11
1.16797
21
0.249706
0
LINE
8
BLACK
6
CONTINUOUS
10
1.16797
20
0.249706
11
1.16812
21
0.250231
0
LINE
8
BLACK
6
CONTINUOUS
10
1.16812
20
0.250231
11
1.19816
21
0.295291
0
LINE
8
BLACK
6
CONTINUOUS
10
1.19816
20
0.295291
11
1.17139
21
0.295291
0
LINE
8
BLACK
6
CONTINUOUS
10
1.17139
20
0.295291
11
1.16908
21
0.296043
0
LINE
8
BLACK
6
CONTINUOUS
10
1.16908
20
0.296043
11
1.16765
21
0.298012
0
LINE
8
BLACK
6
CONTINUOUS
10
1.16765
20
0.298012
11
1.16765
21
0.300445
0
LINE
8
BLACK
6
CONTINUOUS
10
1.16765
20
0.300445
11
1.16908
21
0.302414
0
LINE
8
BLACK
6
CONTINUOUS
10
1.16908
20
0.302414
11
1.17139
21
0.303166
0
LINE
8
BLACK
6
CONTINUOUS
10
1.17139
20
0.303166
11
1.20552
21
0.303166
0
LINE
8
BLACK
6
CONTINUOUS
10
1.20552
20
0.303166
11
1.20603
21
0.302997
0
LINE
8
BLACK
6
CONTINUOUS
10
1.14519
20
0.302968
11
1.14583
21
0.302963
0
LINE
8
BLACK
6
CONTINUOUS
10
1.14583
20
0.302963
11
1.15314
21
0.300526
0
LINE
8
BLACK
6
CONTINUOUS
10
1.15314
20
0.300526
11
1.15387
21
0.299987
0
LINE
8
BLACK
6
CONTINUOUS
10
1.15387
20
0.299987
11
1.15468
21
0.299575
0
LINE
8
BLACK
6
CONTINUOUS
10
1.15468
20
0.299575
11
1.15712
21
0.297138
0
LINE
8
BLACK
6
CONTINUOUS
10
1.15712
20
0.297138
11
1.15822
21
0.29497
0
LINE
8
BLACK
6
CONTINUOUS
10
1.15822
20
0.29497
11
1.15784
21
0.292567
0
LINE
8
BLACK
6
CONTINUOUS
10
1.15784
20
0.292567
11
1.15612
21
0.290846
0
LINE
8
BLACK
6
CONTINUOUS
10
1.15612
20
0.290846
11
1.15372
21
0.290466
0
LINE
8
BLACK
6
CONTINUOUS
10
1.15372
20
0.290466
11
1.15155
21
0.29157
0
LINE
8
BLACK
6
CONTINUOUS
10
1.15155
20
0.29157
11
1.14977
21
0.29335
0
LINE
8
BLACK
6
CONTINUOUS
10
1.14977
20
0.29335
11
1.14395
21
0.295291
0
LINE
8
BLACK
6
CONTINUOUS
10
1.14395
20
0.295291
11
1.14035
21
0.295291
0
LINE
8
BLACK
6
CONTINUOUS
10
1.14035
20
0.295291
11
1.13453
21
0.29335
0
LINE
8
BLACK
6
CONTINUOUS
10
1.13453
20
0.29335
11
1.13076
21
0.289585
0
LINE
8
BLACK
6
CONTINUOUS
10
1.13076
20
0.289585
11
1.1288
21
0.285668
0
LINE
8
BLACK
6
CONTINUOUS
10
1.1288
20
0.285668
11
1.12659
21
0.276809
0
LINE
8
BLACK
6
CONTINUOUS
10
1.12659
20
0.276809
11
1.12659
21
0.270467
0
LINE
8
BLACK
6
CONTINUOUS
10
1.12659
20
0.270467
11
1.1288
21
0.261608
0
LINE
8
BLACK
6
CONTINUOUS
10
1.1288
20
0.261608
11
1.13076
21
0.257691
0
LINE
8
BLACK
6
CONTINUOUS
10
1.13076
20
0.257691
11
1.13453
21
0.253926
0
LINE
8
BLACK
6
CONTINUOUS
10
1.13453
20
0.253926
11
1.14035
21
0.251984
0
LINE
8
BLACK
6
CONTINUOUS
10
1.14035
20
0.251984
11
1.14395
21
0.251984
0
LINE
8
BLACK
6
CONTINUOUS
10
1.14395
20
0.251984
11
1.14977
21
0.253926
0
LINE
8
BLACK
6
CONTINUOUS
10
1.14977
20
0.253926
11
1.15155
21
0.255706
0
LINE
8
BLACK
6
CONTINUOUS
10
1.15155
20
0.255706
11
1.15372
21
0.25681
0
LINE
8
BLACK
6
CONTINUOUS
10
1.15372
20
0.25681
11
1.15612
21
0.25643
0
LINE
8
BLACK
6
CONTINUOUS
10
1.15612
20
0.25643
11
1.15784
21
0.254709
0
LINE
8
BLACK
6
CONTINUOUS
10
1.15784
20
0.254709
11
1.15822
21
0.252306
0
LINE
8
BLACK
6
CONTINUOUS
10
1.15822
20
0.252306
11
1.15712
21
0.250138
0
LINE
8
BLACK
6
CONTINUOUS
10
1.15712
20
0.250138
11
1.15468
21
0.247701
0
LINE
8
BLACK
6
CONTINUOUS
10
1.15468
20
0.247701
11
1.15387
21
0.247289
0
LINE
8
BLACK
6
CONTINUOUS
10
1.15387
20
0.247289
11
1.15314
21
0.24675
0
LINE
8
BLACK
6
CONTINUOUS
10
1.15314
20
0.24675
11
1.14583
21
0.244312
0
LINE
8
BLACK
6
CONTINUOUS
10
1.14583
20
0.244312
11
1.14519
21
0.244308
0
LINE
8
BLACK
6
CONTINUOUS
10
1.14519
20
0.244308
11
1.14459
21
0.24411
0
LINE
8
BLACK
6
CONTINUOUS
10
1.14459
20
0.24411
11
1.13971
21
0.24411
0
LINE
8
BLACK
6
CONTINUOUS
10
1.13971
20
0.24411
11
1.1391
21
0.244308
0
LINE
8
BLACK
6
CONTINUOUS
10
1.1391
20
0.244308
11
1.13847
21
0.244312
0
LINE
8
BLACK
6
CONTINUOUS
10
1.13847
20
0.244312
11
1.13115
21
0.24675
0
LINE
8
BLACK
6
CONTINUOUS
10
1.13115
20
0.24675
11
1.13042
21
0.247289
0
LINE
8
BLACK
6
CONTINUOUS
10
1.13042
20
0.247289
11
1.12962
21
0.247701
0
LINE
8
BLACK
6
CONTINUOUS
10
1.12962
20
0.247701
11
1.12474
21
0.252575
0
LINE
8
BLACK
6
CONTINUOUS
10
1.12474
20
0.252575
11
1.12445
21
0.253144
0
LINE
8
BLACK
6
CONTINUOUS
10
1.12445
20
0.253144
11
1.124
21
0.253598
0
LINE
8
BLACK
6
CONTINUOUS
10
1.124
20
0.253598
11
1.12157
21
0.258473
0
LINE
8
BLACK
6
CONTINUOUS
10
1.12157
20
0.258473
11
1.1215
21
0.258907
0
LINE
8
BLACK
6
CONTINUOUS
10
1.1215
20
0.258907
11
1.12127
21
0.259279
0
LINE
8
BLACK
6
CONTINUOUS
10
1.12127
20
0.259279
11
1.11883
21
0.269027
0
LINE
8
BLACK
6
CONTINUOUS
10
1.11883
20
0.269027
11
1.11887
21
0.269516
0
LINE
8
BLACK
6
CONTINUOUS
10
1.11887
20
0.269516
11
1.11871
21
0.269982
0
LINE
8
BLACK
6
CONTINUOUS
10
1.11871
20
0.269982
11
1.11871
21
0.277294
0
LINE
8
BLACK
6
CONTINUOUS
10
1.11871
20
0.277294
11
1.11887
21
0.27776
0
LINE
8
BLACK
6
CONTINUOUS
10
1.11887
20
0.27776
11
1.11883
21
0.278249
0
LINE
8
BLACK
6
CONTINUOUS
10
1.11883
20
0.278249
11
1.12127
21
0.287997
0
LINE
8
BLACK
6
CONTINUOUS
10
1.12127
20
0.287997
11
1.1215
21
0.288369
0
LINE
8
BLACK
6
CONTINUOUS
10
1.1215
20
0.288369
11
1.12157
21
0.288803
0
LINE
8
BLACK
6
CONTINUOUS
10
1.12157
20
0.288803
11
1.124
21
0.293678
0
LINE
8
BLACK
6
CONTINUOUS
10
1.124
20
0.293678
11
1.12445
21
0.294132
0
LINE
8
BLACK
6
CONTINUOUS
10
1.12445
20
0.294132
11
1.12474
21
0.294701
0
LINE
8
BLACK
6
CONTINUOUS
10
1.12474
20
0.294701
11
1.12962
21
0.299575
0
LINE
8
BLACK
6
CONTINUOUS
10
1.12962
20
0.299575
11
1.13042
21
0.299987
0
LINE
8
BLACK
6
CONTINUOUS
10
1.13042
20
0.299987
11
1.13115
21
0.300526
0
LINE
8
BLACK
6
CONTINUOUS
10
1.13115
20
0.300526
11
1.13847
21
0.302964
0
LINE
8
BLACK
6
CONTINUOUS
10
1.13847
20
0.302964
11
1.1391
21
0.302968
0
LINE
8
BLACK
6
CONTINUOUS
10
1.1391
20
0.302968
11
1.13971
21
0.303166
0
LINE
8
BLACK
6
CONTINUOUS
10
1.13971
20
0.303166
11
1.14459
21
0.303166
0
LINE
8
BLACK
6
CONTINUOUS
10
1.14459
20
0.303166
11
1.14519
21
0.302968
0
LINE
8
BLACK
6
CONTINUOUS
10
0.962544
20
0.301543
11
0.963296
21
0.299229
0
LINE
8
BLACK
6
CONTINUOUS
10
0.963296
20
0.299229
11
0.963296
21
0.258726
0
LINE
8
BLACK
6
CONTINUOUS
10
0.963296
20
0.258726
11
0.965032
21
0.255254
0
LINE
8
BLACK
6
CONTINUOUS
10
0.965032
20
0.255254
11
0.966565
21
0.25372
0
LINE
8
BLACK
6
CONTINUOUS
10
0.966565
20
0.25372
11
0.970037
21
0.251984
0
LINE
8
BLACK
6
CONTINUOUS
10
0.970037
20
0.251984
11
0.977927
21
0.251984
0
LINE
8
BLACK
6
CONTINUOUS
10
0.977927
20
0.251984
11
0.981399
21
0.25372
0
LINE
8
BLACK
6
CONTINUOUS
10
0.981399
20
0.25372
11
0.982932
21
0.255254
0
LINE
8
BLACK
6
CONTINUOUS
10
0.982932
20
0.255254
11
0.984668
21
0.258726
0
LINE
8
BLACK
6
CONTINUOUS
10
0.984668
20
0.258726
11
0.984668
21
0.299229
0
LINE
8
BLACK
6
CONTINUOUS
10
0.984668
20
0.299229
11
0.98542
21
0.301543
0
LINE
8
BLACK
6
CONTINUOUS
10
0.98542
20
0.301543
11
0.987389
21
0.302973
0
LINE
8
BLACK
6
CONTINUOUS
10
0.987389
20
0.302973
11
0.989822
21
0.302973
0
LINE
8
BLACK
6
CONTINUOUS
10
0.989822
20
0.302973
11
0.99179
21
0.301543
0
LINE
8
BLACK
6
CONTINUOUS
10
0.99179
20
0.301543
11
0.992542
21
0.299229
0
LINE
8
BLACK
6
CONTINUOUS
10
0.992542
20
0.299229
11
0.992542
21
0.257796
0
LINE
8
BLACK
6
CONTINUOUS
10
0.992542
20
0.257796
11
0.992262
21
0.256933
0
LINE
8
BLACK
6
CONTINUOUS
10
0.992262
20
0.256933
11
0.992127
21
0.256035
0
LINE
8
BLACK
6
CONTINUOUS
10
0.992127
20
0.256035
11
0.989689
21
0.251161
0
LINE
8
BLACK
6
CONTINUOUS
10
0.989689
20
0.251161
11
0.989242
21
0.250706
0
LINE
8
BLACK
6
CONTINUOUS
10
0.989242
20
0.250706
11
0.988952
21
0.250138
0
LINE
8
BLACK
6
CONTINUOUS
10
0.988952
20
0.250138
11
0.986515
21
0.247701
0
LINE
8
BLACK
6
CONTINUOUS
10
0.986515
20
0.247701
11
0.985946
21
0.247411
0
LINE
8
BLACK
6
CONTINUOUS
10
0.985946
20
0.247411
11
0.985491
21
0.246963
0
LINE
8
BLACK
6
CONTINUOUS
10
0.985491
20
0.246963
11
0.980617
21
0.244526
0
LINE
8
BLACK
6
CONTINUOUS
10
0.980617
20
0.244526
11
0.979719
21
0.244391
0
LINE
8
BLACK
6
CONTINUOUS
10
0.979719
20
0.244391
11
0.978856
21
0.24411
0
LINE
8
BLACK
6
CONTINUOUS
10
0.978856
20
0.24411
11
0.969108
21
0.24411
0
LINE
8
BLACK
6
CONTINUOUS
10
0.969108
20
0.24411
11
0.968244
21
0.244391
0
LINE
8
BLACK
6
CONTINUOUS
10
0.968244
20
0.244391
11
0.967347
21
0.244526
0
LINE
8
BLACK
6
CONTINUOUS
10
0.967347
20
0.244526
11
0.962473
21
0.246963
0
LINE
8
BLACK
6
CONTINUOUS
10
0.962473
20
0.246963
11
0.962018
21
0.247411
0
LINE
8
BLACK
6
CONTINUOUS
10
0.962018
20
0.247411
11
0.961449
21
0.247701
0
LINE
8
BLACK
6
CONTINUOUS
10
0.961449
20
0.247701
11
0.959012
21
0.250138
0
LINE
8
BLACK
6
CONTINUOUS
10
0.959012
20
0.250138
11
0.958722
21
0.250706
0
LINE
8
BLACK
6
CONTINUOUS
10
0.958722
20
0.250706
11
0.958275
21
0.251161
0
LINE
8
BLACK
6
CONTINUOUS
10
0.958275
20
0.251161
11
0.955837
21
0.256035
0
LINE
8
BLACK
6
CONTINUOUS
10
0.955837
20
0.256035
11
0.955702
21
0.256933
0
LINE
8
BLACK
6
CONTINUOUS
10
0.955702
20
0.256933
11
0.955422
21
0.257796
0
LINE
8
BLACK
6
CONTINUOUS
10
0.955422
20
0.257796
11
0.955422
21
0.299229
0
LINE
8
BLACK
6
CONTINUOUS
10
0.955422
20
0.299229
11
0.956174
21
0.301543
0
LINE
8
BLACK
6
CONTINUOUS
10
0.956174
20
0.301543
11
0.958142
21
0.302973
0
LINE
8
BLACK
6
CONTINUOUS
10
0.958142
20
0.302973
11
0.960575
21
0.302973
0
LINE
8
BLACK
6
CONTINUOUS
10
0.960575
20
0.302973
11
0.962544
21
0.301543
0
LINE
8
BLACK
6
CONTINUOUS
10
1.03308
20
0.302968
11
1.03372
21
0.302963
0
LINE
8
BLACK
6
CONTINUOUS
10
1.03372
20
0.302963
11
1.04103
21
0.300526
0
LINE
8
BLACK
6
CONTINUOUS
10
1.04103
20
0.300526
11
1.04299
21
0.299081
0
LINE
8
BLACK
6
CONTINUOUS
10
1.04299
20
0.299081
11
1.04372
21
0.296761
0
LINE
8
BLACK
6
CONTINUOUS
10
1.04372
20
0.296761
11
1.04295
21
0.294453
0
LINE
8
BLACK
6
CONTINUOUS
10
1.04295
20
0.294453
11
1.04097
21
0.293038
0
LINE
8
BLACK
6
CONTINUOUS
10
1.04097
20
0.293038
11
1.03854
21
0.293056
0
LINE
8
BLACK
6
CONTINUOUS
10
1.03854
20
0.293056
11
1.03184
21
0.295291
0
LINE
8
BLACK
6
CONTINUOUS
10
1.03184
20
0.295291
11
1.02122
21
0.295291
0
LINE
8
BLACK
6
CONTINUOUS
10
1.02122
20
0.295291
11
1.01775
21
0.293556
0
LINE
8
BLACK
6
CONTINUOUS
10
1.01775
20
0.293556
11
1.01621
21
0.292022
0
LINE
8
BLACK
6
CONTINUOUS
10
1.01621
20
0.292022
11
1.01448
21
0.28855
0
LINE
8
BLACK
6
CONTINUOUS
10
1.01448
20
0.28855
11
1.01448
21
0.285535
0
LINE
8
BLACK
6
CONTINUOUS
10
1.01448
20
0.285535
11
1.01621
21
0.282063
0
LINE
8
BLACK
6
CONTINUOUS
10
1.01621
20
0.282063
11
1.01775
21
0.280529
0
LINE
8
BLACK
6
CONTINUOUS
10
1.01775
20
0.280529
11
1.02166
21
0.278571
0
LINE
8
BLACK
6
CONTINUOUS
10
1.02166
20
0.278571
11
1.03099
21
0.276239
0
LINE
8
BLACK
6
CONTINUOUS
10
1.03099
20
0.276239
11
1.03136
21
0.276006
0
LINE
8
BLACK
6
CONTINUOUS
10
1.03136
20
0.276006
11
1.0318
21
0.275941
0
LINE
8
BLACK
6
CONTINUOUS
10
1.0318
20
0.275941
11
1.03667
21
0.273504
0
LINE
8
BLACK
6
CONTINUOUS
10
1.03667
20
0.273504
11
1.03713
21
0.273056
0
LINE
8
BLACK
6
CONTINUOUS
10
1.03713
20
0.273056
11
1.0377
21
0.272766
0
LINE
8
BLACK
6
CONTINUOUS
10
1.0377
20
0.272766
11
1.04013
21
0.270329
0
LINE
8
BLACK
6
CONTINUOUS
10
1.04013
20
0.270329
11
1.04042
21
0.26976
0
LINE
8
BLACK
6
CONTINUOUS
10
1.04042
20
0.26976
11
1.04087
21
0.269306
0
LINE
8
BLACK
6
CONTINUOUS
10
1.04087
20
0.269306
11
1.04331
21
0.264431
0
LINE
8
BLACK
6
CONTINUOUS
10
1.04331
20
0.264431
11
1.04344
21
0.263534
0
LINE
8
BLACK
6
CONTINUOUS
10
1.04344
20
0.263534
11
1.04372
21
0.262671
0
LINE
8
BLACK
6
CONTINUOUS
10
1.04372
20
0.262671
11
1.04372
21
0.257796
0
LINE
8
BLACK
6
CONTINUOUS
10
1.04372
20
0.257796
11
1.04344
21
0.256933
0
LINE
8
BLACK
6
CONTINUOUS
10
1.04344
20
0.256933
11
1.04331
21
0.256035
0
LINE
8
BLACK
6
CONTINUOUS
10
1.04331
20
0.256035
11
1.04087
21
0.251161
0
LINE
8
BLACK
6
CONTINUOUS
10
1.04087
20
0.251161
11
1.04042
21
0.250706
0
LINE
8
BLACK
6
CONTINUOUS
10
1.04042
20
0.250706
11
1.04013
21
0.250138
0
LINE
8
BLACK
6
CONTINUOUS
10
1.04013
20
0.250138
11
1.0377
21
0.247701
0
LINE
8
BLACK
6
CONTINUOUS
10
1.0377
20
0.247701
11
1.03713
21
0.247411
0
LINE
8
BLACK
6
CONTINUOUS
10
1.03713
20
0.247411
11
1.03667
21
0.246963
0
LINE
8
BLACK
6
CONTINUOUS
10
1.03667
20
0.246963
11
1.0318
21
0.244526
0
LINE
8
BLACK
6
CONTINUOUS
10
1.0318
20
0.244526
11
1.0309
21
0.244391
0
LINE
8
BLACK
6
CONTINUOUS
10
1.0309
20
0.244391
11
1.03004
21
0.24411
0
LINE
8
BLACK
6
CONTINUOUS
10
1.03004
20
0.24411
11
1.01785
21
0.24411
0
LINE
8
BLACK
6
CONTINUOUS
10
1.01785
20
0.24411
11
1.01724
21
0.244308
0
LINE
8
BLACK
6
CONTINUOUS
10
1.01724
20
0.244308
11
1.01661
21
0.244312
0
LINE
8
BLACK
6
CONTINUOUS
10
1.01661
20
0.244312
11
1.00929
21
0.24675
0
LINE
8
BLACK
6
CONTINUOUS
10
1.00929
20
0.24675
11
1.00734
21
0.248195
0
LINE
8
BLACK
6
CONTINUOUS
10
1.00734
20
0.248195
11
1.0066
21
0.250514
0
LINE
8
BLACK
6
CONTINUOUS
10
1.0066
20
0.250514
11
1.00737
21
0.252823
0
LINE
8
BLACK
6
CONTINUOUS
10
1.00737
20
0.252823
11
1.00935
21
0.254238
0
LINE
8
BLACK
6
CONTINUOUS
10
1.00935
20
0.254238
11
1.01178
21
0.25422
0
LINE
8
BLACK
6
CONTINUOUS
10
1.01178
20
0.25422
11
1.01849
21
0.251984
0
LINE
8
BLACK
6
CONTINUOUS
10
1.01849
20
0.251984
11
1.02911
21
0.251984
0
LINE
8
BLACK
6
CONTINUOUS
10
1.02911
20
0.251984
11
1.03258
21
0.25372
0
LINE
8
BLACK
6
CONTINUOUS
10
1.03258
20
0.25372
11
1.03411
21
0.255254
0
LINE
8
BLACK
6
CONTINUOUS
10
1.03411
20
0.255254
11
1.03585
21
0.258726
0
LINE
8
BLACK
6
CONTINUOUS
10
1.03585
20
0.258726
11
1.03585
21
0.261741
0
LINE
8
BLACK
6
CONTINUOUS
10
1.03585
20
0.261741
11
1.03411
21
0.265213
0
LINE
8
BLACK
6
CONTINUOUS
10
1.03411
20
0.265213
11
1.03258
21
0.266746
0
LINE
8
BLACK
6
CONTINUOUS
10
1.03258
20
0.266746
11
1.02866
21
0.268705
0
LINE
8
BLACK
6
CONTINUOUS
10
1.02866
20
0.268705
11
1.01933
21
0.271037
0
LINE
8
BLACK
6
CONTINUOUS
10
1.01933
20
0.271037
11
1.01896
21
0.27127
0
LINE
8
BLACK
6
CONTINUOUS
10
1.01896
20
0.27127
11
1.01853
21
0.271335
0
LINE
8
BLACK
6
CONTINUOUS
10
1.01853
20
0.271335
11
1.01365
21
0.273772
0
LINE
8
BLACK
6
CONTINUOUS
10
1.01365
20
0.273772
11
1.0132
21
0.27422
0
LINE
8
BLACK
6
CONTINUOUS
10
1.0132
20
0.27422
11
1.01263
21
0.27451
0
LINE
8
BLACK
6
CONTINUOUS
10
1.01263
20
0.27451
11
1.01019
21
0.276947
0
LINE
8
BLACK
6
CONTINUOUS
10
1.01019
20
0.276947
11
1.0099
21
0.277516
0
LINE
8
BLACK
6
CONTINUOUS
10
1.0099
20
0.277516
11
1.00946
21
0.27797
0
LINE
8
BLACK
6
CONTINUOUS
10
1.00946
20
0.27797
11
1.00702
21
0.282845
0
LINE
8
BLACK
6
CONTINUOUS
10
1.00702
20
0.282845
11
1.00688
21
0.283742
0
LINE
8
BLACK
6
CONTINUOUS
10
1.00688
20
0.283742
11
1.0066
21
0.284605
0
LINE
8
BLACK
6
CONTINUOUS
10
1.0066
20
0.284605
11
1.0066
21
0.28948
0
LINE
8
BLACK
6
CONTINUOUS
10
1.0066
20
0.28948
11
1.00688
21
0.290343
0
LINE
8
BLACK
6
CONTINUOUS
10
1.00688
20
0.290343
11
1.00702
21
0.29124
0
LINE
8
BLACK
6
CONTINUOUS
10
1.00702
20
0.29124
11
1.00946
21
0.296115
0
LINE
8
BLACK
6
CONTINUOUS
10
1.00946
20
0.296115
11
1.0099
21
0.296569
0
LINE
8
BLACK
6
CONTINUOUS
10
1.0099
20
0.296569
11
1.01019
21
0.297138
0
LINE
8
BLACK
6
CONTINUOUS
10
1.01019
20
0.297138
11
1.01263
21
0.299575
0
LINE
8
BLACK
6
CONTINUOUS
10
1.01263
20
0.299575
11
1.0132
21
0.299865
0
LINE
8
BLACK
6
CONTINUOUS
10
1.0132
20
0.299865
11
1.01365
21
0.300313
0
LINE
8
BLACK
6
CONTINUOUS
10
1.01365
20
0.300313
11
1.01853
21
0.30275
0
LINE
8
BLACK
6
CONTINUOUS
10
1.01853
20
0.30275
11
1.01943
21
0.302885
0
LINE
8
BLACK
6
CONTINUOUS
10
1.01943
20
0.302885
11
1.02029
21
0.303166
0
LINE
8
BLACK
6
CONTINUOUS
10
1.02029
20
0.303166
11
1.03247
21
0.303166
0
LINE
8
BLACK
6
CONTINUOUS
10
1.03247
20
0.303166
11
1.03308
21
0.302968
0
LINE
8
BLACK
6
CONTINUOUS
10
1.10162
20
0.256666
11
1.10193
21
0.256666
0
LINE
8
BLACK
6
CONTINUOUS
10
1.10193
20
0.256666
11
1.10219
21
0.256479
0
LINE
8
BLACK
6
CONTINUOUS
10
1.10219
20
0.256479
11
1.1025
21
0.25643
0
LINE
8
BLACK
6
CONTINUOUS
10
1.1025
20
0.25643
11
1.10294
21
0.255989
0
LINE
8
BLACK
6
CONTINUOUS
10
1.10294
20
0.255989
11
1.1035
21
0.255706
0
LINE
8
BLACK
6
CONTINUOUS
10
1.1035
20
0.255706
11
1.10594
21
0.253269
0
LINE
8
BLACK
6
CONTINUOUS
10
1.10594
20
0.253269
11
1.10622
21
0.252713
0
LINE
8
BLACK
6
CONTINUOUS
10
1.10622
20
0.252713
11
1.10666
21
0.252272
0
LINE
8
BLACK
6
CONTINUOUS
10
1.10666
20
0.252272
11
1.10676
21
0.251656
0
LINE
8
BLACK
6
CONTINUOUS
10
1.10676
20
0.251656
11
1.10704
21
0.2511
0
LINE
8
BLACK
6
CONTINUOUS
10
1.10704
20
0.2511
11
1.10694
21
0.250485
0
LINE
8
BLACK
6
CONTINUOUS
10
1.10694
20
0.250485
11
1.10704
21
0.249869
0
LINE
8
BLACK
6
CONTINUOUS
10
1.10704
20
0.249869
11
1.10676
21
0.249313
0
LINE
8
BLACK
6
CONTINUOUS
10
1.10676
20
0.249313
11
1.10666
21
0.248697
0
LINE
8
BLACK
6
CONTINUOUS
10
1.10666
20
0.248697
11
1.10622
21
0.248256
0
LINE
8
BLACK
6
CONTINUOUS
10
1.10622
20
0.248256
11
1.10594
21
0.247701
0
LINE
8
BLACK
6
CONTINUOUS
10
1.10594
20
0.247701
11
1.1035
21
0.245264
0
LINE
8
BLACK
6
CONTINUOUS
10
1.1035
20
0.245264
11
1.10294
21
0.24498
0
LINE
8
BLACK
6
CONTINUOUS
10
1.10294
20
0.24498
11
1.1025
21
0.244539
0
LINE
8
BLACK
6
CONTINUOUS
10
1.1025
20
0.244539
11
1.10219
21
0.24449
0
LINE
8
BLACK
6
CONTINUOUS
10
1.10219
20
0.24449
11
1.10193
21
0.244303
0
LINE
8
BLACK
6
CONTINUOUS
10
1.10193
20
0.244303
11
1.10162
21
0.244303
0
LINE
8
BLACK
6
CONTINUOUS
10
1.10162
20
0.244303
11
1.10133
21
0.244159
0
LINE
8
BLACK
6
CONTINUOUS
10
1.10133
20
0.244159
11
1.10072
21
0.244256
0
LINE
8
BLACK
6
CONTINUOUS
10
1.10072
20
0.244256
11
1.1001
21
0.244159
0
LINE
8
BLACK
6
CONTINUOUS
10
1.1001
20
0.244159
11
1.09982
21
0.244303
0
LINE
8
BLACK
6
CONTINUOUS
10
1.09982
20
0.244303
11
1.0995
21
0.244303
0
LINE
8
BLACK
6
CONTINUOUS
10
1.0995
20
0.244303
11
1.09924
21
0.24449
0
LINE
8
BLACK
6
CONTINUOUS
10
1.09924
20
0.24449
11
1.09893
21
0.244539
0
LINE
8
BLACK
6
CONTINUOUS
10
1.09893
20
0.244539
11
1.09849
21
0.24498
0
LINE
8
BLACK
6
CONTINUOUS
10
1.09849
20
0.24498
11
1.09793
21
0.245264
0
LINE
8
BLACK
6
CONTINUOUS
10
1.09793
20
0.245264
11
1.0955
21
0.247701
0
LINE
8
BLACK
6
CONTINUOUS
10
1.0955
20
0.247701
11
1.09521
21
0.248256
0
LINE
8
BLACK
6
CONTINUOUS
10
1.09521
20
0.248256
11
1.09477
21
0.248697
0
LINE
8
BLACK
6
CONTINUOUS
10
1.09477
20
0.248697
11
1.09467
21
0.249313
0
LINE
8
BLACK
6
CONTINUOUS
10
1.09467
20
0.249313
11
1.09439
21
0.249869
0
LINE
8
BLACK
6
CONTINUOUS
10
1.09439
20
0.249869
11
1.09449
21
0.250485
0
LINE
8
BLACK
6
CONTINUOUS
10
1.09449
20
0.250485
11
1.09439
21
0.2511
0
LINE
8
BLACK
6
CONTINUOUS
10
1.09439
20
0.2511
11
1.09467
21
0.251656
0
LINE
8
BLACK
6
CONTINUOUS
10
1.09467
20
0.251656
11
1.09477
21
0.252272
0
LINE
8
BLACK
6
CONTINUOUS
10
1.09477
20
0.252272
11
1.09521
21
0.252713
0
LINE
8
BLACK
6
CONTINUOUS
10
1.09521
20
0.252713
11
1.0955
21
0.253269
0
LINE
8
BLACK
6
CONTINUOUS
10
1.0955
20
0.253269
11
1.09793
21
0.255706
0
LINE
8
BLACK
6
CONTINUOUS
10
1.09793
20
0.255706
11
1.09849
21
0.255989
0
LINE
8
BLACK
6
CONTINUOUS
10
1.09849
20
0.255989
11
1.09893
21
0.25643
0
LINE
8
BLACK
6
CONTINUOUS
10
1.09893
20
0.25643
11
1.09924
21
0.256479
0
LINE
8
BLACK
6
CONTINUOUS
10
1.09924
20
0.256479
11
1.0995
21
0.256666
0
LINE
8
BLACK
6
CONTINUOUS
10
1.0995
20
0.256666
11
1.09982
21
0.256666
0
LINE
8
BLACK
6
CONTINUOUS
10
1.09982
20
0.256666
11
1.1001
21
0.25681
0
LINE
8
BLACK
6
CONTINUOUS
10
1.1001
20
0.25681
11
1.10072
21
0.256713
0
LINE
8
BLACK
6
CONTINUOUS
10
1.10072
20
0.256713
11
1.10133
21
0.25681
0
LINE
8
BLACK
6
CONTINUOUS
10
1.10133
20
0.25681
11
1.10162
21
0.256666
0
LINE
8
BLACK
6
CONTINUOUS
10
1.08597
20
0.302414
11
1.0874
21
0.300445
0
LINE
8
BLACK
6
CONTINUOUS
10
1.0874
20
0.300445
11
1.0874
21
0.298012
0
LINE
8
BLACK
6
CONTINUOUS
10
1.0874
20
0.298012
11
1.08597
21
0.296043
0
LINE
8
BLACK
6
CONTINUOUS
10
1.08597
20
0.296043
11
1.08366
21
0.295291
0
LINE
8
BLACK
6
CONTINUOUS
10
1.08366
20
0.295291
11
1.07297
21
0.295291
0
LINE
8
BLACK
6
CONTINUOUS
10
1.07297
20
0.295291
11
1.07297
21
0.248047
0
LINE
8
BLACK
6
CONTINUOUS
10
1.07297
20
0.248047
11
1.07222
21
0.245733
0
LINE
8
BLACK
6
CONTINUOUS
10
1.07222
20
0.245733
11
1.07025
21
0.244303
0
LINE
8
BLACK
6
CONTINUOUS
10
1.07025
20
0.244303
11
1.06782
21
0.244303
0
LINE
8
BLACK
6
CONTINUOUS
10
1.06782
20
0.244303
11
1.06585
21
0.245733
0
LINE
8
BLACK
6
CONTINUOUS
10
1.06585
20
0.245733
11
1.0651
21
0.248047
0
LINE
8
BLACK
6
CONTINUOUS
10
1.0651
20
0.248047
11
1.0651
21
0.295291
0
LINE
8
BLACK
6
CONTINUOUS
10
1.0651
20
0.295291
11
1.05441
21
0.295291
0
LINE
8
BLACK
6
CONTINUOUS
10
1.05441
20
0.295291
11
1.0521
21
0.296043
0
LINE
8
BLACK
6
CONTINUOUS
10
1.0521
20
0.296043
11
1.05067
21
0.298012
0
LINE
8
BLACK
6
CONTINUOUS
10
1.05067
20
0.298012
11
1.05067
21
0.300445
0
LINE
8
BLACK
6
CONTINUOUS
10
1.05067
20
0.300445
11
1.0521
21
0.302414
0
LINE
8
BLACK
6
CONTINUOUS
10
1.0521
20
0.302414
11
1.05441
21
0.303166
0
LINE
8
BLACK
6
CONTINUOUS
10
1.05441
20
0.303166
11
1.08366
21
0.303166
0
LINE
8
BLACK
6
CONTINUOUS
10
1.08366
20
0.303166
11
1.08597
21
0.302414
0
LINE
8
BLACK
6
CONTINUOUS
10
2.08986
20
0.327043
11
2.0905
21
0.327038
0
LINE
8
BLACK
6
CONTINUOUS
10
2.0905
20
0.327038
11
2.09781
21
0.324601
0
LINE
8
BLACK
6
CONTINUOUS
10
2.09781
20
0.324601
11
2.09854
21
0.324062
0
LINE
8
BLACK
6
CONTINUOUS
10
2.09854
20
0.324062
11
2.09935
21
0.32365
0
LINE
8
BLACK
6
CONTINUOUS
10
2.09935
20
0.32365
11
2.10422
21
0.318776
0
LINE
8
BLACK
6
CONTINUOUS
10
2.10422
20
0.318776
11
2.10451
21
0.318207
0
LINE
8
BLACK
6
CONTINUOUS
10
2.10451
20
0.318207
11
2.10496
21
0.317752
0
LINE
8
BLACK
6
CONTINUOUS
10
2.10496
20
0.317752
11
2.1074
21
0.312878
0
LINE
8
BLACK
6
CONTINUOUS
10
2.1074
20
0.312878
11
2.10746
21
0.312444
0
LINE
8
BLACK
6
CONTINUOUS
10
2.10746
20
0.312444
11
2.1077
21
0.312072
0
LINE
8
BLACK
6
CONTINUOUS
10
2.1077
20
0.312072
11
2.11013
21
0.302323
0
LINE
8
BLACK
6
CONTINUOUS
10
2.11013
20
0.302323
11
2.1101
21
0.301835
0
LINE
8
BLACK
6
CONTINUOUS
10
2.1101
20
0.301835
11
2.11025
21
0.301369
0
LINE
8
BLACK
6
CONTINUOUS
10
2.11025
20
0.301369
11
2.11025
21
0.294057
0
LINE
8
BLACK
6
CONTINUOUS
10
2.11025
20
0.294057
11
2.1101
21
0.293591
0
LINE
8
BLACK
6
CONTINUOUS
10
2.1101
20
0.293591
11
2.11013
21
0.293102
0
LINE
8
BLACK
6
CONTINUOUS
10
2.11013
20
0.293102
11
2.1077
21
0.283353
0
LINE
8
BLACK
6
CONTINUOUS
10
2.1077
20
0.283353
11
2.10746
21
0.282981
0
LINE
8
BLACK
6
CONTINUOUS
10
2.10746
20
0.282981
11
2.1074
21
0.282547
0
LINE
8
BLACK
6
CONTINUOUS
10
2.1074
20
0.282547
11
2.10496
21
0.277673
0
LINE
8
BLACK
6
CONTINUOUS
10
2.10496
20
0.277673
11
2.10451
21
0.277219
0
LINE
8
BLACK
6
CONTINUOUS
10
2.10451
20
0.277219
11
2.10422
21
0.27665
0
LINE
8
BLACK
6
CONTINUOUS
10
2.10422
20
0.27665
11
2.09935
21
0.271776
0
LINE
8
BLACK
6
CONTINUOUS
10
2.09935
20
0.271776
11
2.09854
21
0.271363
0
LINE
8
BLACK
6
CONTINUOUS
10
2.09854
20
0.271363
11
2.09781
21
0.270824
0
LINE
8
BLACK
6
CONTINUOUS
10
2.09781
20
0.270824
11
2.0905
21
0.268387
0
LINE
8
BLACK
6
CONTINUOUS
10
2.0905
20
0.268387
11
2.08986
21
0.268382
0
LINE
8
BLACK
6
CONTINUOUS
10
2.08986
20
0.268382
11
2.08925
21
0.268185
0
LINE
8
BLACK
6
CONTINUOUS
10
2.08925
20
0.268185
11
2.07707
21
0.268185
0
LINE
8
BLACK
6
CONTINUOUS
10
2.07707
20
0.268185
11
2.07647
21
0.268378
0
LINE
8
BLACK
6
CONTINUOUS
10
2.07647
20
0.268378
11
2.07585
21
0.268378
0
LINE
8
BLACK
6
CONTINUOUS
10
2.07585
20
0.268378
11
2.07535
21
0.268744
0
LINE
8
BLACK
6
CONTINUOUS
10
2.07535
20
0.268744
11
2.07475
21
0.268937
0
LINE
8
BLACK
6
CONTINUOUS
10
2.07475
20
0.268937
11
2.07439
21
0.269442
0
LINE
8
BLACK
6
CONTINUOUS
10
2.07439
20
0.269442
11
2.07388
21
0.269808
0
LINE
8
BLACK
6
CONTINUOUS
10
2.07388
20
0.269808
11
2.07369
21
0.270401
0
LINE
8
BLACK
6
CONTINUOUS
10
2.07369
20
0.270401
11
2.07332
21
0.270906
0
LINE
8
BLACK
6
CONTINUOUS
10
2.07332
20
0.270906
11
2.07332
21
0.271529
0
LINE
8
BLACK
6
CONTINUOUS
10
2.07332
20
0.271529
11
2.07313
21
0.272122
0
LINE
8
BLACK
6
CONTINUOUS
10
2.07313
20
0.272122
11
2.07313
21
0.323303
0
LINE
8
BLACK
6
CONTINUOUS
10
2.07313
20
0.323303
11
2.07332
21
0.323896
0
LINE
8
BLACK
6
CONTINUOUS
10
2.07332
20
0.323896
11
2.07332
21
0.32452
0
LINE
8
BLACK
6
CONTINUOUS
10
2.07332
20
0.32452
11
2.07369
21
0.325024
0
LINE
8
BLACK
6
CONTINUOUS
10
2.07369
20
0.325024
11
2.07388
21
0.325617
0
LINE
8
BLACK
6
CONTINUOUS
10
2.07388
20
0.325617
11
2.07439
21
0.325984
0
LINE
8
BLACK
6
CONTINUOUS
10
2.07439
20
0.325984
11
2.07475
21
0.326488
0
LINE
8
BLACK
6
CONTINUOUS
10
2.07475
20
0.326488
11
2.07535
21
0.326681
0
LINE
8
BLACK
6
CONTINUOUS
10
2.07535
20
0.326681
11
2.07585
21
0.327048
0
LINE
8
BLACK
6
CONTINUOUS
10
2.07585
20
0.327048
11
2.07647
21
0.327048
0
LINE
8
BLACK
6
CONTINUOUS
10
2.07647
20
0.327048
11
2.07707
21
0.32724
0
LINE
8
BLACK
6
CONTINUOUS
10
2.07707
20
0.32724
11
2.08925
21
0.32724
0
LINE
8
BLACK
6
CONTINUOUS
10
2.08925
20
0.32724
11
2.08986
21
0.327043
0
LINE
8
BLACK
6
CONTINUOUS
10
2.081
20
0.319366
11
2.081
21
0.276059
0
LINE
8
BLACK
6
CONTINUOUS
10
2.081
20
0.276059
11
2.08861
21
0.276059
0
LINE
8
BLACK
6
CONTINUOUS
10
2.08861
20
0.276059
11
2.09444
21
0.278
0
LINE
8
BLACK
6
CONTINUOUS
10
2.09444
20
0.278
11
2.0982
21
0.281766
0
LINE
8
BLACK
6
CONTINUOUS
10
2.0982
20
0.281766
11
2.10016
21
0.285682
0
LINE
8
BLACK
6
CONTINUOUS
10
2.10016
20
0.285682
11
2.10238
21
0.294542
0
LINE
8
BLACK
6
CONTINUOUS
10
2.10238
20
0.294542
11
2.10238
21
0.300884
0
LINE
8
BLACK
6
CONTINUOUS
10
2.10238
20
0.300884
11
2.10016
21
0.309743
0
LINE
8
BLACK
6
CONTINUOUS
10
2.10016
20
0.309743
11
2.0982
21
0.31366
0
LINE
8
BLACK
6
CONTINUOUS
10
2.0982
20
0.31366
11
2.09444
21
0.317425
0
LINE
8
BLACK
6
CONTINUOUS
10
2.09444
20
0.317425
11
2.08861
21
0.319366
0
LINE
8
BLACK
6
CONTINUOUS
10
2.08861
20
0.319366
11
2.081
21
0.319366
0
LINE
8
BLACK
6
CONTINUOUS
10
1.99507
20
0.32696
11
1.99596
21
0.326825
0
LINE
8
BLACK
6
CONTINUOUS
10
1.99596
20
0.326825
11
2.00084
21
0.324388
0
LINE
8
BLACK
6
CONTINUOUS
10
2.00084
20
0.324388
11
2.00257
21
0.32268
0
LINE
8
BLACK
6
CONTINUOUS
10
2.00257
20
0.32268
11
2.00297
21
0.32028
0
LINE
8
BLACK
6
CONTINUOUS
10
2.00297
20
0.32028
11
2.00188
21
0.318103
0
LINE
8
BLACK
6
CONTINUOUS
10
2.00188
20
0.318103
11
1.99972
21
0.316982
0
LINE
8
BLACK
6
CONTINUOUS
10
1.99972
20
0.316982
11
1.99732
21
0.317345
0
LINE
8
BLACK
6
CONTINUOUS
10
1.99732
20
0.317345
11
1.99327
21
0.319366
0
LINE
8
BLACK
6
CONTINUOUS
10
1.99327
20
0.319366
11
1.98753
21
0.319366
0
LINE
8
BLACK
6
CONTINUOUS
10
1.98753
20
0.319366
11
1.98171
21
0.317425
0
LINE
8
BLACK
6
CONTINUOUS
10
1.98171
20
0.317425
11
1.97794
21
0.31366
0
LINE
8
BLACK
6
CONTINUOUS
10
1.97794
20
0.31366
11
1.97598
21
0.309743
0
LINE
8
BLACK
6
CONTINUOUS
10
1.97598
20
0.309743
11
1.97377
21
0.300884
0
LINE
8
BLACK
6
CONTINUOUS
10
1.97377
20
0.300884
11
1.97377
21
0.294542
0
LINE
8
BLACK
6
CONTINUOUS
10
1.97377
20
0.294542
11
1.97598
21
0.285682
0
LINE
8
BLACK
6
CONTINUOUS
10
1.97598
20
0.285682
11
1.97794
21
0.281766
0
LINE
8
BLACK
6
CONTINUOUS
10
1.97794
20
0.281766
11
1.98171
21
0.278
0
LINE
8
BLACK
6
CONTINUOUS
10
1.98171
20
0.278
11
1.98753
21
0.276059
0
LINE
8
BLACK
6
CONTINUOUS
10
1.98753
20
0.276059
11
1.99113
21
0.276059
0
LINE
8
BLACK
6
CONTINUOUS
10
1.99113
20
0.276059
11
1.99695
21
0.278
0
LINE
8
BLACK
6
CONTINUOUS
10
1.99695
20
0.278
11
1.99758
21
0.278627
0
LINE
8
BLACK
6
CONTINUOUS
10
1.99758
20
0.278627
11
1.99758
21
0.29012
0
LINE
8
BLACK
6
CONTINUOUS
10
1.99758
20
0.29012
11
1.99177
21
0.29012
0
LINE
8
BLACK
6
CONTINUOUS
10
1.99177
20
0.29012
11
1.98945
21
0.290872
0
LINE
8
BLACK
6
CONTINUOUS
10
1.98945
20
0.290872
11
1.98802
21
0.29284
0
LINE
8
BLACK
6
CONTINUOUS
10
1.98802
20
0.29284
11
1.98802
21
0.295274
0
LINE
8
BLACK
6
CONTINUOUS
10
1.98802
20
0.295274
11
1.98945
21
0.297242
0
LINE
8
BLACK
6
CONTINUOUS
10
1.98945
20
0.297242
11
1.99177
21
0.297994
0
LINE
8
BLACK
6
CONTINUOUS
10
1.99177
20
0.297994
11
2.00151
21
0.297994
0
LINE
8
BLACK
6
CONTINUOUS
10
2.00151
20
0.297994
11
2.00211
21
0.297801
0
LINE
8
BLACK
6
CONTINUOUS
10
2.00211
20
0.297801
11
2.00273
21
0.297801
0
LINE
8
BLACK
6
CONTINUOUS
10
2.00273
20
0.297801
11
2.00324
21
0.297435
0
LINE
8
BLACK
6
CONTINUOUS
10
2.00324
20
0.297435
11
2.00383
21
0.297242
0
LINE
8
BLACK
6
CONTINUOUS
10
2.00383
20
0.297242
11
2.0042
21
0.296738
0
LINE
8
BLACK
6
CONTINUOUS
10
2.0042
20
0.296738
11
2.0047
21
0.296371
0
LINE
8
BLACK
6
CONTINUOUS
10
2.0047
20
0.296371
11
2.00489
21
0.295778
0
LINE
8
BLACK
6
CONTINUOUS
10
2.00489
20
0.295778
11
2.00526
21
0.295274
0
LINE
8
BLACK
6
CONTINUOUS
10
2.00526
20
0.295274
11
2.00526
21
0.29465
0
LINE
8
BLACK
6
CONTINUOUS
10
2.00526
20
0.29465
11
2.00545
21
0.294057
0
LINE
8
BLACK
6
CONTINUOUS
10
2.00545
20
0.294057
11
2.00545
21
0.276997
0
LINE
8
BLACK
6
CONTINUOUS
10
2.00545
20
0.276997
11
2.00535
21
0.276694
0
LINE
8
BLACK
6
CONTINUOUS
10
2.00535
20
0.276694
11
2.0054
21
0.276381
0
LINE
8
BLACK
6
CONTINUOUS
10
2.0054
20
0.276381
11
2.00498
21
0.275559
0
LINE
8
BLACK
6
CONTINUOUS
10
2.00498
20
0.275559
11
2.0047
21
0.274682
0
LINE
8
BLACK
6
CONTINUOUS
10
2.0047
20
0.274682
11
2.00444
21
0.274496
0
LINE
8
BLACK
6
CONTINUOUS
10
2.00444
20
0.274496
11
2.0043
21
0.274213
0
LINE
8
BLACK
6
CONTINUOUS
10
2.0043
20
0.274213
11
2.00186
21
0.271776
0
LINE
8
BLACK
6
CONTINUOUS
10
2.00186
20
0.271776
11
2.00105
21
0.271363
0
LINE
8
BLACK
6
CONTINUOUS
10
2.00105
20
0.271363
11
2.00032
21
0.270824
0
LINE
8
BLACK
6
CONTINUOUS
10
2.00032
20
0.270824
11
1.99301
21
0.268387
0
LINE
8
BLACK
6
CONTINUOUS
10
1.99301
20
0.268387
11
1.99237
21
0.268382
0
LINE
8
BLACK
6
CONTINUOUS
10
1.99237
20
0.268382
11
1.99177
21
0.268185
0
LINE
8
BLACK
6
CONTINUOUS
10
1.99177
20
0.268185
11
1.98689
21
0.268185
0
LINE
8
BLACK
6
CONTINUOUS
10
1.98689
20
0.268185
11
1.98628
21
0.268382
0
LINE
8
BLACK
6
CONTINUOUS
10
1.98628
20
0.268382
11
1.98565
21
0.268387
0
LINE
8
BLACK
6
CONTINUOUS
10
1.98565
20
0.268387
11
1.97834
21
0.270824
0
LINE
8
BLACK
6
CONTINUOUS
10
1.97834
20
0.270824
11
1.9776
21
0.271363
0
LINE
8
BLACK
6
CONTINUOUS
10
1.9776
20
0.271363
11
1.9768
21
0.271776
0
LINE
8
BLACK
6
CONTINUOUS
10
1.9768
20
0.271776
11
1.97192
21
0.27665
0
LINE
8
BLACK
6
CONTINUOUS
10
1.97192
20
0.27665
11
1.97163
21
0.277219
0
LINE
8
BLACK
6
CONTINUOUS
10
1.97163
20
0.277219
11
1.97118
21
0.277673
0
LINE
8
BLACK
6
CONTINUOUS
10
1.97118
20
0.277673
11
1.96875
21
0.282548
0
LINE
8
BLACK
6
CONTINUOUS
10
1.96875
20
0.282548
11
1.96868
21
0.282981
0
LINE
8
BLACK
6
CONTINUOUS
10
1.96868
20
0.282981
11
1.96845
21
0.283353
0
LINE
8
BLACK
6
CONTINUOUS
10
1.96845
20
0.283353
11
1.96601
21
0.293102
0
LINE
8
BLACK
6
CONTINUOUS
10
1.96601
20
0.293102
11
1.96605
21
0.293591
0
LINE
8
BLACK
6
CONTINUOUS
10
1.96605
20
0.293591
11
1.96589
21
0.294057
0
LINE
8
BLACK
6
CONTINUOUS
10
1.96589
20
0.294057
11
1.96589
21
0.301369
0
LINE
8
BLACK
6
CONTINUOUS
10
1.96589
20
0.301369
11
1.96605
21
0.301835
0
LINE
8
BLACK
6
CONTINUOUS
10
1.96605
20
0.301835
11
1.96601
21
0.302323
0
LINE
8
BLACK
6
CONTINUOUS
10
1.96601
20
0.302323
11
1.96845
21
0.312072
0
LINE
8
BLACK
6
CONTINUOUS
10
1.96845
20
0.312072
11
1.96868
21
0.312444
0
LINE
8
BLACK
6
CONTINUOUS
10
1.96868
20
0.312444
11
1.96875
21
0.312878
0
LINE
8
BLACK
6
CONTINUOUS
10
1.96875
20
0.312878
11
1.97118
21
0.317752
0
LINE
8
BLACK
6
CONTINUOUS
10
1.97118
20
0.317752
11
1.97163
21
0.318207
0
LINE
8
BLACK
6
CONTINUOUS
10
1.97163
20
0.318207
11
1.97192
21
0.318776
0
LINE
8
BLACK
6
CONTINUOUS
10
1.97192
20
0.318776
11
1.9768
21
0.32365
0
LINE
8
BLACK
6
CONTINUOUS
10
1.9768
20
0.32365
11
1.97761
21
0.324062
0
LINE
8
BLACK
6
CONTINUOUS
10
1.97761
20
0.324062
11
1.97834
21
0.324601
0
LINE
8
BLACK
6
CONTINUOUS
10
1.97834
20
0.324601
11
1.98565
21
0.327038
0
LINE
8
BLACK
6
CONTINUOUS
10
1.98565
20
0.327038
11
1.98628
21
0.327043
0
LINE
8
BLACK
6
CONTINUOUS
10
1.98628
20
0.327043
11
1.98689
21
0.32724
0
LINE
8
BLACK
6
CONTINUOUS
10
1.98689
20
0.32724
11
1.9942
21
0.32724
0
LINE
8
BLACK
6
CONTINUOUS
10
1.9942
20
0.32724
11
1.99507
21
0.32696
0
LINE
8
BLACK
6
CONTINUOUS
10
2.02365
20
0.327048
11
2.02467
21
0.327048
0
LINE
8
BLACK
6
CONTINUOUS
10
2.02467
20
0.327048
11
2.02485
21
0.326917
0
LINE
8
BLACK
6
CONTINUOUS
10
2.02485
20
0.326917
11
2.02507
21
0.326893
0
LINE
8
BLACK
6
CONTINUOUS
10
2.02507
20
0.326893
11
2.02582
21
0.326212
0
LINE
8
BLACK
6
CONTINUOUS
10
2.02582
20
0.326212
11
2.02663
21
0.325617
0
LINE
8
BLACK
6
CONTINUOUS
10
2.02663
20
0.325617
11
2.0267
21
0.325406
0
LINE
8
BLACK
6
CONTINUOUS
10
2.0267
20
0.325406
11
2.02687
21
0.325257
0
LINE
8
BLACK
6
CONTINUOUS
10
2.02687
20
0.325257
11
2.04876
21
0.286947
0
LINE
8
BLACK
6
CONTINUOUS
10
2.04876
20
0.286947
11
2.04876
21
0.323303
0
LINE
8
BLACK
6
CONTINUOUS
10
2.04876
20
0.323303
11
2.04951
21
0.325617
0
LINE
8
BLACK
6
CONTINUOUS
10
2.04951
20
0.325617
11
2.05148
21
0.327048
0
LINE
8
BLACK
6
CONTINUOUS
10
2.05148
20
0.327048
11
2.05391
21
0.327048
0
LINE
8
BLACK
6
CONTINUOUS
10
2.05391
20
0.327048
11
2.05588
21
0.325617
0
LINE
8
BLACK
6
CONTINUOUS
10
2.05588
20
0.325617
11
2.05663
21
0.323303
0
LINE
8
BLACK
6
CONTINUOUS
10
2.05663
20
0.323303
11
2.05663
21
0.272122
0
LINE
8
BLACK
6
CONTINUOUS
10
2.05663
20
0.272122
11
2.05656
21
0.271911
0
LINE
8
BLACK
6
CONTINUOUS
10
2.05656
20
0.271911
11
2.05661
21
0.271693
0
LINE
8
BLACK
6
CONTINUOUS
10
2.05661
20
0.271693
11
2.05619
21
0.270771
0
LINE
8
BLACK
6
CONTINUOUS
10
2.05619
20
0.270771
11
2.05588
21
0.269808
0
LINE
8
BLACK
6
CONTINUOUS
10
2.05588
20
0.269808
11
2.0557
21
0.269677
0
LINE
8
BLACK
6
CONTINUOUS
10
2.0557
20
0.269677
11
2.05561
21
0.269475
0
LINE
8
BLACK
6
CONTINUOUS
10
2.05561
20
0.269475
11
2.05473
21
0.268973
0
LINE
8
BLACK
6
CONTINUOUS
10
2.05473
20
0.268973
11
2.05391
21
0.268378
0
LINE
8
BLACK
6
CONTINUOUS
10
2.05391
20
0.268378
11
2.05369
21
0.268378
0
LINE
8
BLACK
6
CONTINUOUS
10
2.05369
20
0.268378
11
2.0535
21
0.268268
0
LINE
8
BLACK
6
CONTINUOUS
10
2.0535
20
0.268268
11
2.05249
21
0.268378
0
LINE
8
BLACK
6
CONTINUOUS
10
2.05249
20
0.268378
11
2.05148
21
0.268378
0
LINE
8
BLACK
6
CONTINUOUS
10
2.05148
20
0.268378
11
2.0513
21
0.268509
0
LINE
8
BLACK
6
CONTINUOUS
10
2.0513
20
0.268509
11
2.05108
21
0.268533
0
LINE
8
BLACK
6
CONTINUOUS
10
2.05108
20
0.268533
11
2.05033
21
0.269213
0
LINE
8
BLACK
6
CONTINUOUS
10
2.05033
20
0.269213
11
2.04951
21
0.269808
0
LINE
8
BLACK
6
CONTINUOUS
10
2.04951
20
0.269808
11
2.04944
21
0.270019
0
LINE
8
BLACK
6
CONTINUOUS
10
2.04944
20
0.270019
11
2.04928
21
0.270169
0
LINE
8
BLACK
6
CONTINUOUS
10
2.04928
20
0.270169
11
2.02739
21
0.308478
0
LINE
8
BLACK
6
CONTINUOUS
10
2.02739
20
0.308478
11
2.02739
21
0.272122
0
LINE
8
BLACK
6
CONTINUOUS
10
2.02739
20
0.272122
11
2.02663
21
0.269808
0
LINE
8
BLACK
6
CONTINUOUS
10
2.02663
20
0.269808
11
2.02467
21
0.268378
0
LINE
8
BLACK
6
CONTINUOUS
10
2.02467
20
0.268378
11
2.02223
21
0.268378
0
LINE
8
BLACK
6
CONTINUOUS
10
2.02223
20
0.268378
11
2.02026
21
0.269808
0
LINE
8
BLACK
6
CONTINUOUS
10
2.02026
20
0.269808
11
2.01951
21
0.272122
0
LINE
8
BLACK
6
CONTINUOUS
10
2.01951
20
0.272122
11
2.01951
21
0.323303
0
LINE
8
BLACK
6
CONTINUOUS
10
2.01951
20
0.323303
11
2.01958
21
0.323515
0
LINE
8
BLACK
6
CONTINUOUS
10
2.01958
20
0.323515
11
2.01954
21
0.323732
0
LINE
8
BLACK
6
CONTINUOUS
10
2.01954
20
0.323732
11
2.01995
21
0.324655
0
LINE
8
BLACK
6
CONTINUOUS
10
2.01995
20
0.324655
11
2.02026
21
0.325617
0
LINE
8
BLACK
6
CONTINUOUS
10
2.02026
20
0.325617
11
2.02044
21
0.325748
0
LINE
8
BLACK
6
CONTINUOUS
10
2.02044
20
0.325748
11
2.02054
21
0.325951
0
LINE
8
BLACK
6
CONTINUOUS
10
2.02054
20
0.325951
11
2.02141
21
0.326453
0
LINE
8
BLACK
6
CONTINUOUS
10
2.02141
20
0.326453
11
2.02223
21
0.327048
0
LINE
8
BLACK
6
CONTINUOUS
10
2.02223
20
0.327048
11
2.02246
21
0.327048
0
LINE
8
BLACK
6
CONTINUOUS
10
2.02246
20
0.327048
11
2.02265
21
0.327158
0
LINE
8
BLACK
6
CONTINUOUS
10
2.02265
20
0.327158
11
2.02365
21
0.327048
0
LINE
8
BLACK
6
CONTINUOUS
10
0.315505
20
0.326692
11
0.315673
21
0.326722
0
LINE
8
BLACK
6
CONTINUOUS
10
0.315673
20
0.326722
11
0.316415
21
0.326293
0
LINE
8
BLACK
6
CONTINUOUS
10
0.316415
20
0.326293
11
0.317199
21
0.325949
0
LINE
8
BLACK
6
CONTINUOUS
10
0.317199
20
0.325949
11
0.317275
21
0.325797
0
LINE
8
BLACK
6
CONTINUOUS
10
0.317275
20
0.325797
11
0.317422
21
0.325712
0
LINE
8
BLACK
6
CONTINUOUS
10
0.317422
20
0.325712
11
0.317715
21
0.324907
0
LINE
8
BLACK
6
CONTINUOUS
10
0.317715
20
0.324907
11
0.318095
21
0.324138
0
LINE
8
BLACK
6
CONTINUOUS
10
0.318095
20
0.324138
11
0.318054
21
0.323973
0
LINE
8
BLACK
6
CONTINUOUS
10
0.318054
20
0.323973
11
0.318113
21
0.323814
0
LINE
8
BLACK
6
CONTINUOUS
10
0.318113
20
0.323814
11
0.318113
21
0.287396
0
LINE
8
BLACK
6
CONTINUOUS
10
0.318113
20
0.287396
11
0.326408
21
0.287396
0
LINE
8
BLACK
6
CONTINUOUS
10
0.326408
20
0.287396
11
0.327418
21
0.287218
0
LINE
8
BLACK
6
CONTINUOUS
10
0.327418
20
0.287218
11
0.328966
21
0.28592
0
LINE
8
BLACK
6
CONTINUOUS
10
0.328966
20
0.28592
11
0.329316
21
0.283931
0
LINE
8
BLACK
6
CONTINUOUS
10
0.329316
20
0.283931
11
0.328306
21
0.282182
0
LINE
8
BLACK
6
CONTINUOUS
10
0.328306
20
0.282182
11
0.326408
21
0.281491
0
LINE
8
BLACK
6
CONTINUOUS
10
0.326408
20
0.281491
11
0.303911
21
0.281491
0
LINE
8
BLACK
6
CONTINUOUS
10
0.303911
20
0.281491
11
0.302901
21
0.281669
0
LINE
8
BLACK
6
CONTINUOUS
10
0.302901
20
0.281669
11
0.301354
21
0.282967
0
LINE
8
BLACK
6
CONTINUOUS
10
0.301354
20
0.282967
11
0.301003
21
0.284956
0
LINE
8
BLACK
6
CONTINUOUS
10
0.301003
20
0.284956
11
0.302013
21
0.286706
0
LINE
8
BLACK
6
CONTINUOUS
10
0.302013
20
0.286706
11
0.303911
21
0.287396
0
LINE
8
BLACK
6
CONTINUOUS
10
0.303911
20
0.287396
11
0.312207
21
0.287396
0
LINE
8
BLACK
6
CONTINUOUS
10
0.312207
20
0.287396
11
0.312207
21
0.31481
0
LINE
8
BLACK
6
CONTINUOUS
10
0.312207
20
0.31481
11
0.309749
21
0.312352
0
LINE
8
BLACK
6
CONTINUOUS
10
0.309749
20
0.312352
11
0.309026
21
0.311846
0
LINE
8
BLACK
6
CONTINUOUS
10
0.309026
20
0.311846
11
0.308981
21
0.311799
0
LINE
8
BLACK
6
CONTINUOUS
10
0.308981
20
0.311799
11
0.305232
21
0.309924
0
LINE
8
BLACK
6
CONTINUOUS
10
0.305232
20
0.309924
11
0.304249
21
0.309632
0
LINE
8
BLACK
6
CONTINUOUS
10
0.304249
20
0.309632
11
0.302284
21
0.310101
0
LINE
8
BLACK
6
CONTINUOUS
10
0.302284
20
0.310101
11
0.301081
21
0.311723
0
LINE
8
BLACK
6
CONTINUOUS
10
0.301081
20
0.311723
11
0.301202
21
0.313739
0
LINE
8
BLACK
6
CONTINUOUS
10
0.301202
20
0.313739
11
0.302591
21
0.315206
0
LINE
8
BLACK
6
CONTINUOUS
10
0.302591
20
0.315206
11
0.305912
21
0.316867
0
LINE
8
BLACK
6
CONTINUOUS
10
0.305912
20
0.316867
11
0.309116
21
0.320071
0
LINE
8
BLACK
6
CONTINUOUS
10
0.309116
20
0.320071
11
0.312703
21
0.325452
0
LINE
8
BLACK
6
CONTINUOUS
10
0.312703
20
0.325452
11
0.313411
21
0.326193
0
LINE
8
BLACK
6
CONTINUOUS
10
0.313411
20
0.326193
11
0.313574
21
0.326241
0
LINE
8
BLACK
6
CONTINUOUS
10
0.313574
20
0.326241
11
0.313683
21
0.326371
0
LINE
8
BLACK
6
CONTINUOUS
10
0.313683
20
0.326371
11
0.314527
21
0.32652
0
LINE
8
BLACK
6
CONTINUOUS
10
0.314527
20
0.32652
11
0.31535
21
0.32676
0
LINE
8
BLACK
6
CONTINUOUS
10
0.31535
20
0.32676
11
0.315505
21
0.326692
0
LINE
8
BLACK
6
CONTINUOUS
10
0.2893
20
0.325712
11
0.289991
21
0.323814
0
LINE
8
BLACK
6
CONTINUOUS
10
0.289991
20
0.323814
11
0.289991
21
0.291943
0
LINE
8
BLACK
6
CONTINUOUS
10
0.289991
20
0.291943
11
0.289813
21
0.290933
0
LINE
8
BLACK
6
CONTINUOUS
10
0.289813
20
0.290933
11
0.2897
21
0.290798
0
LINE
8
BLACK
6
CONTINUOUS
10
0.2897
20
0.290798
11
0.289679
21
0.290622
0
LINE
8
BLACK
6
CONTINUOUS
10
0.289679
20
0.290622
11
0.287805
21
0.286873
0
LINE
8
BLACK
6
CONTINUOUS
10
0.287805
20
0.286873
11
0.287279
21
0.286164
0
LINE
8
BLACK
6
CONTINUOUS
10
0.287279
20
0.286164
11
0.287251
21
0.286105
0
LINE
8
BLACK
6
CONTINUOUS
10
0.287251
20
0.286105
11
0.285377
21
0.284231
0
LINE
8
BLACK
6
CONTINUOUS
10
0.285377
20
0.284231
11
0.284654
21
0.283724
0
LINE
8
BLACK
6
CONTINUOUS
10
0.284654
20
0.283724
11
0.284609
21
0.283677
0
LINE
8
BLACK
6
CONTINUOUS
10
0.284609
20
0.283677
11
0.28086
21
0.281803
0
LINE
8
BLACK
6
CONTINUOUS
10
0.28086
20
0.281803
11
0.279877
21
0.28151
0
LINE
8
BLACK
6
CONTINUOUS
10
0.279877
20
0.28151
11
0.279705
21
0.281551
0
LINE
8
BLACK
6
CONTINUOUS
10
0.279705
20
0.281551
11
0.279539
21
0.281491
0
LINE
8
BLACK
6
CONTINUOUS
10
0.279539
20
0.281491
11
0.27204
21
0.281491
0
LINE
8
BLACK
6
CONTINUOUS
10
0.27204
20
0.281491
11
0.27103
21
0.281669
0
LINE
8
BLACK
6
CONTINUOUS
10
0.27103
20
0.281669
11
0.270895
21
0.281782
0
LINE
8
BLACK
6
CONTINUOUS
10
0.270895
20
0.281782
11
0.27072
21
0.281803
0
LINE
8
BLACK
6
CONTINUOUS
10
0.27072
20
0.281803
11
0.26697
21
0.283677
0
LINE
8
BLACK
6
CONTINUOUS
10
0.26697
20
0.283677
11
0.266261
21
0.284203
0
LINE
8
BLACK
6
CONTINUOUS
10
0.266261
20
0.284203
11
0.266203
21
0.284231
0
LINE
8
BLACK
6
CONTINUOUS
10
0.266203
20
0.284231
11
0.264328
21
0.286105
0
LINE
8
BLACK
6
CONTINUOUS
10
0.264328
20
0.286105
11
0.263822
21
0.286828
0
LINE
8
BLACK
6
CONTINUOUS
10
0.263822
20
0.286828
11
0.263775
21
0.286873
0
LINE
8
BLACK
6
CONTINUOUS
10
0.263775
20
0.286873
11
0.2619
21
0.290622
0
LINE
8
BLACK
6
CONTINUOUS
10
0.2619
20
0.290622
11
0.261608
21
0.291605
0
LINE
8
BLACK
6
CONTINUOUS
10
0.261608
20
0.291605
11
0.261649
21
0.291777
0
LINE
8
BLACK
6
CONTINUOUS
10
0.261649
20
0.291777
11
0.261588
21
0.291943
0
LINE
8
BLACK
6
CONTINUOUS
10
0.261588
20
0.291943
11
0.261588
21
0.323814
0
LINE
8
BLACK
6
CONTINUOUS
10
0.261588
20
0.323814
11
0.261766
21
0.324824
0
LINE
8
BLACK
6
CONTINUOUS
10
0.261766
20
0.324824
11
0.263065
21
0.326371
0
LINE
8
BLACK
6
CONTINUOUS
10
0.263065
20
0.326371
11
0.265054
21
0.326722
0
LINE
8
BLACK
6
CONTINUOUS
10
0.265054
20
0.326722
11
0.266803
21
0.325712
0
LINE
8
BLACK
6
CONTINUOUS
10
0.266803
20
0.325712
11
0.267494
21
0.323814
0
LINE
8
BLACK
6
CONTINUOUS
10
0.267494
20
0.323814
11
0.267494
21
0.29264
0
LINE
8
BLACK
6
CONTINUOUS
10
0.267494
20
0.29264
11
0.268843
21
0.289942
0
LINE
8
BLACK
6
CONTINUOUS
10
0.268843
20
0.289942
11
0.27004
21
0.288745
0
LINE
8
BLACK
6
CONTINUOUS
10
0.27004
20
0.288745
11
0.272737
21
0.287396
0
LINE
8
BLACK
6
CONTINUOUS
10
0.272737
20
0.287396
11
0.278842
21
0.287396
0
LINE
8
BLACK
6
CONTINUOUS
10
0.278842
20
0.287396
11
0.28154
21
0.288745
0
LINE
8
BLACK
6
CONTINUOUS
10
0.28154
20
0.288745
11
0.282737
21
0.289942
0
LINE
8
BLACK
6
CONTINUOUS
10
0.282737
20
0.289942
11
0.284086
21
0.29264
0
LINE
8
BLACK
6
CONTINUOUS
10
0.284086
20
0.29264
11
0.284086
21
0.323814
0
LINE
8
BLACK
6
CONTINUOUS
10
0.284086
20
0.323814
11
0.284264
21
0.324824
0
LINE
8
BLACK
6
CONTINUOUS
10
0.284264
20
0.324824
11
0.285562
21
0.326371
0
LINE
8
BLACK
6
CONTINUOUS
10
0.285562
20
0.326371
11
0.287551
21
0.326722
0
LINE
8
BLACK
6
CONTINUOUS
10
0.287551
20
0.326722
11
0.2893
21
0.325712
0
LINE
8
BLACK
6
CONTINUOUS
10
2.32226
20
0.437174
11
2.32295
21
0.435276
0
LINE
8
BLACK
6
CONTINUOUS
10
2.32295
20
0.435276
11
2.32295
21
0.345276
0
LINE
8
BLACK
6
CONTINUOUS
10
2.32295
20
0.345276
11
2.32289
21
0.344892
0
LINE
8
BLACK
6
CONTINUOUS
10
2.32289
20
0.344892
11
2.32291
21
0.344763
0
LINE
8
BLACK
6
CONTINUOUS
10
2.32291
20
0.344763
11
2.32284
21
0.344649
0
LINE
8
BLACK
6
CONTINUOUS
10
2.32284
20
0.344649
11
2.32277
21
0.344266
0
LINE
8
BLACK
6
CONTINUOUS
10
2.32277
20
0.344266
11
2.32228
21
0.343678
0
LINE
8
BLACK
6
CONTINUOUS
10
2.32228
20
0.343678
11
2.3219
21
0.343014
0
LINE
8
BLACK
6
CONTINUOUS
10
2.3219
20
0.343014
11
2.32165
21
0.342923
0
LINE
8
BLACK
6
CONTINUOUS
10
2.32165
20
0.342923
11
2.32148
21
0.342718
0
LINE
8
BLACK
6
CONTINUOUS
10
2.32148
20
0.342718
11
2.32072
21
0.342585
0
LINE
8
BLACK
6
CONTINUOUS
10
2.32072
20
0.342585
11
2.32
21
0.342323
0
LINE
8
BLACK
6
CONTINUOUS
10
2.32
20
0.342323
11
2.12
21
0.342323
0
LINE
8
BLACK
6
CONTINUOUS
10
2.12
20
0.342323
11
2.11962
21
0.34239
0
LINE
8
BLACK
6
CONTINUOUS
10
2.11962
20
0.34239
11
2.11949
21
0.342368
0
LINE
8
BLACK
6
CONTINUOUS
10
2.11949
20
0.342368
11
2.11937
21
0.342433
0
LINE
8
BLACK
6
CONTINUOUS
10
2.11937
20
0.342433
11
2.11899
21
0.342501
0
LINE
8
BLACK
6
CONTINUOUS
10
2.11899
20
0.342501
11
2.1184
21
0.342994
0
LINE
8
BLACK
6
CONTINUOUS
10
2.1184
20
0.342994
11
2.11774
21
0.343378
0
LINE
8
BLACK
6
CONTINUOUS
10
2.11774
20
0.343378
11
2.11765
21
0.343628
0
LINE
8
BLACK
6
CONTINUOUS
10
2.11765
20
0.343628
11
2.11744
21
0.343799
0
LINE
8
BLACK
6
CONTINUOUS
10
2.11744
20
0.343799
11
2.11731
21
0.344555
0
LINE
8
BLACK
6
CONTINUOUS
10
2.11731
20
0.344555
11
2.11705
21
0.345276
0
LINE
8
BLACK
6
CONTINUOUS
10
2.11705
20
0.345276
11
2.11705
21
0.435276
0
LINE
8
BLACK
6
CONTINUOUS
10
2.11705
20
0.435276
11
2.11723
21
0.436286
0
LINE
8
BLACK
6
CONTINUOUS
10
2.11723
20
0.436286
11
2.11852
21
0.437833
0
LINE
8
BLACK
6
CONTINUOUS
10
2.11852
20
0.437833
11
2.12051
21
0.438184
0
LINE
8
BLACK
6
CONTINUOUS
10
2.12051
20
0.438184
11
2.12226
21
0.437174
0
LINE
8
BLACK
6
CONTINUOUS
10
2.12226
20
0.437174
11
2.12295
21
0.435276
0
LINE
8
BLACK
6
CONTINUOUS
10
2.12295
20
0.435276
11
2.12295
21
0.348228
0
LINE
8
BLACK
6
CONTINUOUS
10
2.12295
20
0.348228
11
2.31705
21
0.348228
0
LINE
8
BLACK
6
CONTINUOUS
10
2.31705
20
0.348228
11
2.31705
21
0.435276
0
LINE
8
BLACK
6
CONTINUOUS
10
2.31705
20
0.435276
11
2.31723
21
0.436286
0
LINE
8
BLACK
6
CONTINUOUS
10
2.31723
20
0.436286
11
2.31852
21
0.437833
0
LINE
8
BLACK
6
CONTINUOUS
10
2.31852
20
0.437833
11
2.32051
21
0.438184
0
LINE
8
BLACK
6
CONTINUOUS
10
2.32051
20
0.438184
11
2.32226
21
0.437174
0
LINE
8
BLACK
6
CONTINUOUS
10
2.01446
20
0.426994
11
2.01525
21
0.426922
0
LINE
8
BLACK
6
CONTINUOUS
10
2.01525
20
0.426922
11
2.01559
21
0.426627
0
LINE
8
BLACK
6
CONTINUOUS
10
2.01559
20
0.426627
11
2.01601
21
0.426488
0
LINE
8
BLACK
6
CONTINUOUS
10
2.01601
20
0.426488
11
2.01648
21
0.425844
0
LINE
8
BLACK
6
CONTINUOUS
10
2.01648
20
0.425844
11
2.01708
21
0.42532
0
LINE
8
BLACK
6
CONTINUOUS
10
2.01708
20
0.42532
11
2.01718
21
0.424883
0
LINE
8
BLACK
6
CONTINUOUS
10
2.01718
20
0.424883
11
2.01745
21
0.42452
0
LINE
8
BLACK
6
CONTINUOUS
10
2.01745
20
0.42452
11
2.01745
21
0.423724
0
LINE
8
BLACK
6
CONTINUOUS
10
2.01745
20
0.423724
11
2.01762
21
0.422947
0
LINE
8
BLACK
6
CONTINUOUS
10
2.01762
20
0.422947
11
2.01745
21
0.422535
0
LINE
8
BLACK
6
CONTINUOUS
10
2.01745
20
0.422535
11
2.01745
21
0.422087
0
LINE
8
BLACK
6
CONTINUOUS
10
2.01745
20
0.422087
11
2.01698
21
0.421443
0
LINE
8
BLACK
6
CONTINUOUS
10
2.01698
20
0.421443
11
2.01666
21
0.420711
0
LINE
8
BLACK
6
CONTINUOUS
10
2.01666
20
0.420711
11
2.00504
21
0.407428
0
LINE
8
BLACK
6
CONTINUOUS
10
2.00504
20
0.407428
11
2.00571
21
0.407327
0
LINE
8
BLACK
6
CONTINUOUS
10
2.00571
20
0.407327
11
2.01059
21
0.40489
0
LINE
8
BLACK
6
CONTINUOUS
10
2.01059
20
0.40489
11
2.01104
21
0.404442
0
LINE
8
BLACK
6
CONTINUOUS
10
2.01104
20
0.404442
11
2.01161
21
0.404152
0
LINE
8
BLACK
6
CONTINUOUS
10
2.01161
20
0.404152
11
2.01405
21
0.401715
0
LINE
8
BLACK
6
CONTINUOUS
10
2.01405
20
0.401715
11
2.01434
21
0.401147
0
LINE
8
BLACK
6
CONTINUOUS
10
2.01434
20
0.401147
11
2.01478
21
0.400692
0
LINE
8
BLACK
6
CONTINUOUS
10
2.01478
20
0.400692
11
2.01722
21
0.395818
0
LINE
8
BLACK
6
CONTINUOUS
10
2.01722
20
0.395818
11
2.01736
21
0.39492
0
LINE
8
BLACK
6
CONTINUOUS
10
2.01736
20
0.39492
11
2.01764
21
0.394057
0
LINE
8
BLACK
6
CONTINUOUS
10
2.01764
20
0.394057
11
2.01764
21
0.381871
0
LINE
8
BLACK
6
CONTINUOUS
10
2.01764
20
0.381871
11
2.01736
21
0.381008
0
LINE
8
BLACK
6
CONTINUOUS
10
2.01736
20
0.381008
11
2.01722
21
0.38011
0
LINE
8
BLACK
6
CONTINUOUS
10
2.01722
20
0.38011
11
2.01478
21
0.375236
0
LINE
8
BLACK
6
CONTINUOUS
10
2.01478
20
0.375236
11
2.01434
21
0.374781
0
LINE
8
BLACK
6
CONTINUOUS
10
2.01434
20
0.374781
11
2.01405
21
0.374213
0
LINE
8
BLACK
6
CONTINUOUS
10
2.01405
20
0.374213
11
2.01161
21
0.371776
0
LINE
8
BLACK
6
CONTINUOUS
10
2.01161
20
0.371776
11
2.01104
21
0.371486
0
LINE
8
BLACK
6
CONTINUOUS
10
2.01104
20
0.371486
11
2.01059
21
0.371038
0
LINE
8
BLACK
6
CONTINUOUS
10
2.01059
20
0.371038
11
2.00571
21
0.368601
0
LINE
8
BLACK
6
CONTINUOUS
10
2.00571
20
0.368601
11
2.00482
21
0.368466
0
LINE
8
BLACK
6
CONTINUOUS
10
2.00482
20
0.368466
11
2.00395
21
0.368185
0
LINE
8
BLACK
6
CONTINUOUS
10
2.00395
20
0.368185
11
1.98933
21
0.368185
0
LINE
8
BLACK
6
CONTINUOUS
10
1.98933
20
0.368185
11
1.98847
21
0.368466
0
LINE
8
BLACK
6
CONTINUOUS
10
1.98847
20
0.368466
11
1.98757
21
0.368601
0
LINE
8
BLACK
6
CONTINUOUS
10
1.98757
20
0.368601
11
1.98269
21
0.371038
0
LINE
8
BLACK
6
CONTINUOUS
10
1.98269
20
0.371038
11
1.98224
21
0.371486
0
LINE
8
BLACK
6
CONTINUOUS
10
1.98224
20
0.371486
11
1.98167
21
0.371776
0
LINE
8
BLACK
6
CONTINUOUS
10
1.98167
20
0.371776
11
1.97923
21
0.374213
0
LINE
8
BLACK
6
CONTINUOUS
10
1.97923
20
0.374213
11
1.97813
21
0.376381
0
LINE
8
BLACK
6
CONTINUOUS
10
1.97813
20
0.376381
11
1.97851
21
0.378784
0
LINE
8
BLACK
6
CONTINUOUS
10
1.97851
20
0.378784
11
1.98023
21
0.380505
0
LINE
8
BLACK
6
CONTINUOUS
10
1.98023
20
0.380505
11
1.98263
21
0.380885
0
LINE
8
BLACK
6
CONTINUOUS
10
1.98263
20
0.380885
11
1.9848
21
0.37978
0
LINE
8
BLACK
6
CONTINUOUS
10
1.9848
20
0.37978
11
1.98679
21
0.377795
0
LINE
8
BLACK
6
CONTINUOUS
10
1.98679
20
0.377795
11
1.99026
21
0.376059
0
LINE
8
BLACK
6
CONTINUOUS
10
1.99026
20
0.376059
11
2.00302
21
0.376059
0
LINE
8
BLACK
6
CONTINUOUS
10
2.00302
20
0.376059
11
2.00649
21
0.377795
0
LINE
8
BLACK
6
CONTINUOUS
10
2.00649
20
0.377795
11
2.00803
21
0.379329
0
LINE
8
BLACK
6
CONTINUOUS
10
2.00803
20
0.379329
11
2.00976
21
0.3828
0
LINE
8
BLACK
6
CONTINUOUS
10
2.00976
20
0.3828
11
2.00976
21
0.393128
0
LINE
8
BLACK
6
CONTINUOUS
10
2.00976
20
0.393128
11
2.00803
21
0.396599
0
LINE
8
BLACK
6
CONTINUOUS
10
2.00803
20
0.396599
11
2.00649
21
0.398133
0
LINE
8
BLACK
6
CONTINUOUS
10
2.00649
20
0.398133
11
2.00302
21
0.399869
0
LINE
8
BLACK
6
CONTINUOUS
10
2.00302
20
0.399869
11
1.99664
21
0.399869
0
LINE
8
BLACK
6
CONTINUOUS
10
1.99664
20
0.399869
11
1.99588
21
0.400115
0
LINE
8
BLACK
6
CONTINUOUS
10
1.99588
20
0.400115
11
1.99509
21
0.400187
0
LINE
8
BLACK
6
CONTINUOUS
10
1.99509
20
0.400187
11
1.99475
21
0.400482
0
LINE
8
BLACK
6
CONTINUOUS
10
1.99475
20
0.400482
11
1.99433
21
0.400621
0
LINE
8
BLACK
6
CONTINUOUS
10
1.99433
20
0.400621
11
1.99386
21
0.401265
0
LINE
8
BLACK
6
CONTINUOUS
10
1.99386
20
0.401265
11
1.99326
21
0.401789
0
LINE
8
BLACK
6
CONTINUOUS
10
1.99326
20
0.401789
11
1.99316
21
0.402226
0
LINE
8
BLACK
6
CONTINUOUS
10
1.99316
20
0.402226
11
1.9929
21
0.402589
0
LINE
8
BLACK
6
CONTINUOUS
10
1.9929
20
0.402589
11
1.9929
21
0.403385
0
LINE
8
BLACK
6
CONTINUOUS
10
1.9929
20
0.403385
11
1.99272
21
0.404162
0
LINE
8
BLACK
6
CONTINUOUS
10
1.99272
20
0.404162
11
1.9929
21
0.404574
0
LINE
8
BLACK
6
CONTINUOUS
10
1.9929
20
0.404574
11
1.9929
21
0.405022
0
LINE
8
BLACK
6
CONTINUOUS
10
1.9929
20
0.405022
11
1.99336
21
0.405666
0
LINE
8
BLACK
6
CONTINUOUS
10
1.99336
20
0.405666
11
1.99368
21
0.406398
0
LINE
8
BLACK
6
CONTINUOUS
10
1.99368
20
0.406398
11
2.00502
21
0.419366
0
LINE
8
BLACK
6
CONTINUOUS
10
2.00502
20
0.419366
11
1.98202
21
0.419366
0
LINE
8
BLACK
6
CONTINUOUS
10
1.98202
20
0.419366
11
1.9797
21
0.420118
0
LINE
8
BLACK
6
CONTINUOUS
10
1.9797
20
0.420118
11
1.97827
21
0.422087
0
LINE
8
BLACK
6
CONTINUOUS
10
1.97827
20
0.422087
11
1.97827
21
0.42452
0
LINE
8
BLACK
6
CONTINUOUS
10
1.97827
20
0.42452
11
1.9797
21
0.426488
0
LINE
8
BLACK
6
CONTINUOUS
10
1.9797
20
0.426488
11
1.98202
21
0.42724
0
LINE
8
BLACK
6
CONTINUOUS
10
1.98202
20
0.42724
11
2.0137
21
0.42724
0
LINE
8
BLACK
6
CONTINUOUS
10
2.0137
20
0.42724
11
2.01446
21
0.426994
0
LINE
8
BLACK
6
CONTINUOUS
10
2.10375
20
0.426488
11
2.10518
21
0.42452
0
LINE
8
BLACK
6
CONTINUOUS
10
2.10518
20
0.42452
11
2.10518
21
0.422087
0
LINE
8
BLACK
6
CONTINUOUS
10
2.10518
20
0.422087
11
2.10375
21
0.420118
0
LINE
8
BLACK
6
CONTINUOUS
10
2.10375
20
0.420118
11
2.10144
21
0.419366
0
LINE
8
BLACK
6
CONTINUOUS
10
2.10144
20
0.419366
11
2.09262
21
0.419366
0
LINE
8
BLACK
6
CONTINUOUS
10
2.09262
20
0.419366
11
2.08915
21
0.41763
0
LINE
8
BLACK
6
CONTINUOUS
10
2.08915
20
0.41763
11
2.08744
21
0.415921
0
LINE
8
BLACK
6
CONTINUOUS
10
2.08744
20
0.415921
11
2.08316
21
0.409501
0
LINE
8
BLACK
6
CONTINUOUS
10
2.08316
20
0.409501
11
2.08227
21
0.405933
0
LINE
8
BLACK
6
CONTINUOUS
10
2.08227
20
0.405933
11
2.08506
21
0.407327
0
LINE
8
BLACK
6
CONTINUOUS
10
2.08506
20
0.407327
11
2.08595
21
0.407462
0
LINE
8
BLACK
6
CONTINUOUS
10
2.08595
20
0.407462
11
2.08682
21
0.407743
0
LINE
8
BLACK
6
CONTINUOUS
10
2.08682
20
0.407743
11
2.09657
21
0.407743
0
LINE
8
BLACK
6
CONTINUOUS
10
2.09657
20
0.407743
11
2.09743
21
0.407462
0
LINE
8
BLACK
6
CONTINUOUS
10
2.09743
20
0.407462
11
2.09833
21
0.407327
0
LINE
8
BLACK
6
CONTINUOUS
10
2.09833
20
0.407327
11
2.1032
21
0.40489
0
LINE
8
BLACK
6
CONTINUOUS
10
2.1032
20
0.40489
11
2.10366
21
0.404442
0
LINE
8
BLACK
6
CONTINUOUS
10
2.10366
20
0.404442
11
2.10422
21
0.404152
0
LINE
8
BLACK
6
CONTINUOUS
10
2.10422
20
0.404152
11
2.10666
21
0.401715
0
LINE
8
BLACK
6
CONTINUOUS
10
2.10666
20
0.401715
11
2.10695
21
0.401147
0
LINE
8
BLACK
6
CONTINUOUS
10
2.10695
20
0.401147
11
2.1074
21
0.400692
0
LINE
8
BLACK
6
CONTINUOUS
10
2.1074
20
0.400692
11
2.10984
21
0.395818
0
LINE
8
BLACK
6
CONTINUOUS
10
2.10984
20
0.395818
11
2.10997
21
0.39492
0
LINE
8
BLACK
6
CONTINUOUS
10
2.10997
20
0.39492
11
2.11025
21
0.394057
0
LINE
8
BLACK
6
CONTINUOUS
10
2.11025
20
0.394057
11
2.11025
21
0.381871
0
LINE
8
BLACK
6
CONTINUOUS
10
2.11025
20
0.381871
11
2.10997
21
0.381008
0
LINE
8
BLACK
6
CONTINUOUS
10
2.10997
20
0.381008
11
2.10984
21
0.38011
0
LINE
8
BLACK
6
CONTINUOUS
10
2.10984
20
0.38011
11
2.1074
21
0.375236
0
LINE
8
BLACK
6
CONTINUOUS
10
2.1074
20
0.375236
11
2.10695
21
0.374781
0
LINE
8
BLACK
6
CONTINUOUS
10
2.10695
20
0.374781
11
2.10666
21
0.374213
0
LINE
8
BLACK
6
CONTINUOUS
10
2.10666
20
0.374213
11
2.10422
21
0.371776
0
LINE
8
BLACK
6
CONTINUOUS
10
2.10422
20
0.371776
11
2.10366
21
0.371486
0
LINE
8
BLACK
6
CONTINUOUS
10
2.10366
20
0.371486
11
2.1032
21
0.371038
0
LINE
8
BLACK
6
CONTINUOUS
10
2.1032
20
0.371038
11
2.09833
21
0.368601
0
LINE
8
BLACK
6
CONTINUOUS
10
2.09833
20
0.368601
11
2.09743
21
0.368466
0
LINE
8
BLACK
6
CONTINUOUS
10
2.09743
20
0.368466
11
2.09657
21
0.368185
0
LINE
8
BLACK
6
CONTINUOUS
10
2.09657
20
0.368185
11
2.08682
21
0.368185
0
LINE
8
BLACK
6
CONTINUOUS
10
2.08682
20
0.368185
11
2.08595
21
0.368466
0
LINE
8
BLACK
6
CONTINUOUS
10
2.08595
20
0.368466
11
2.08506
21
0.368601
0
LINE
8
BLACK
6
CONTINUOUS
10
2.08506
20
0.368601
11
2.08018
21
0.371038
0
LINE
8
BLACK
6
CONTINUOUS
10
2.08018
20
0.371038
11
2.07973
21
0.371486
0
LINE
8
BLACK
6
CONTINUOUS
10
2.07973
20
0.371486
11
2.07916
21
0.371776
0
LINE
8
BLACK
6
CONTINUOUS
10
2.07916
20
0.371776
11
2.07672
21
0.374213
0
LINE
8
BLACK
6
CONTINUOUS
10
2.07672
20
0.374213
11
2.07643
21
0.374781
0
LINE
8
BLACK
6
CONTINUOUS
10
2.07643
20
0.374781
11
2.07598
21
0.375236
0
LINE
8
BLACK
6
CONTINUOUS
10
2.07598
20
0.375236
11
2.07355
21
0.38011
0
LINE
8
BLACK
6
CONTINUOUS
10
2.07355
20
0.38011
11
2.07341
21
0.381008
0
LINE
8
BLACK
6
CONTINUOUS
10
2.07341
20
0.381008
11
2.07313
21
0.381871
0
LINE
8
BLACK
6
CONTINUOUS
10
2.07313
20
0.381871
11
2.07313
21
0.401369
0
LINE
8
BLACK
6
CONTINUOUS
10
2.07313
20
0.401369
11
2.07328
21
0.401835
0
LINE
8
BLACK
6
CONTINUOUS
10
2.07328
20
0.401835
11
2.07325
21
0.402323
0
LINE
8
BLACK
6
CONTINUOUS
10
2.07325
20
0.402323
11
2.07569
21
0.412072
0
LINE
8
BLACK
6
CONTINUOUS
10
2.07569
20
0.412072
11
2.07605
21
0.412648
0
LINE
8
BLACK
6
CONTINUOUS
10
2.07605
20
0.412648
11
2.07623
21
0.413301
0
LINE
8
BLACK
6
CONTINUOUS
10
2.07623
20
0.413301
11
2.0811
21
0.420613
0
LINE
8
BLACK
6
CONTINUOUS
10
2.0811
20
0.420613
11
2.08142
21
0.420859
0
LINE
8
BLACK
6
CONTINUOUS
10
2.08142
20
0.420859
11
2.0816
21
0.421213
0
LINE
8
BLACK
6
CONTINUOUS
10
2.0816
20
0.421213
11
2.08403
21
0.42365
0
LINE
8
BLACK
6
CONTINUOUS
10
2.08403
20
0.42365
11
2.0846
21
0.42394
0
LINE
8
BLACK
6
CONTINUOUS
10
2.0846
20
0.42394
11
2.08506
21
0.424388
0
LINE
8
BLACK
6
CONTINUOUS
10
2.08506
20
0.424388
11
2.08993
21
0.426825
0
LINE
8
BLACK
6
CONTINUOUS
10
2.08993
20
0.426825
11
2.09083
21
0.42696
0
LINE
8
BLACK
6
CONTINUOUS
10
2.09083
20
0.42696
11
2.09169
21
0.42724
0
LINE
8
BLACK
6
CONTINUOUS
10
2.09169
20
0.42724
11
2.10144
21
0.42724
0
LINE
8
BLACK
6
CONTINUOUS
10
2.10144
20
0.42724
11
2.10375
21
0.426488
0
LINE
8
BLACK
6
CONTINUOUS
10
2.08775
20
0.399869
11
2.08427
21
0.398133
0
LINE
8
BLACK
6
CONTINUOUS
10
2.08427
20
0.398133
11
2.08274
21
0.396599
0
LINE
8
BLACK
6
CONTINUOUS
10
2.08274
20
0.396599
11
2.081
21
0.393128
0
LINE
8
BLACK
6
CONTINUOUS
10
2.081
20
0.393128
11
2.081
21
0.3828
0
LINE
8
BLACK
6
CONTINUOUS
10
2.081
20
0.3828
11
2.08274
21
0.379329
0
LINE
8
BLACK
6
CONTINUOUS
10
2.08274
20
0.379329
11
2.08427
21
0.377795
0
LINE
8
BLACK
6
CONTINUOUS
10
2.08427
20
0.377795
11
2.08775
21
0.376059
0
LINE
8
BLACK
6
CONTINUOUS
10
2.08775
20
0.376059
11
2.09564
21
0.376059
0
LINE
8
BLACK
6
CONTINUOUS
10
2.09564
20
0.376059
11
2.09911
21
0.377795
0
LINE
8
BLACK
6
CONTINUOUS
10
2.09911
20
0.377795
11
2.10064
21
0.379329
0
LINE
8
BLACK
6
CONTINUOUS
10
2.10064
20
0.379329
11
2.10238
21
0.3828
0
LINE
8
BLACK
6
CONTINUOUS
10
2.10238
20
0.3828
11
2.10238
21
0.393128
0
LINE
8
BLACK
6
CONTINUOUS
10
2.10238
20
0.393128
11
2.10064
21
0.396599
0
LINE
8
BLACK
6
CONTINUOUS
10
2.10064
20
0.396599
11
2.09911
21
0.398133
0
LINE
8
BLACK
6
CONTINUOUS
10
2.09911
20
0.398133
11
2.09564
21
0.399869
0
LINE
8
BLACK
6
CONTINUOUS
10
2.09564
20
0.399869
11
2.08775
21
0.399869
0
LINE
8
BLACK
6
CONTINUOUS
10
2.06478
20
0.426471
11
2.0662
21
0.424491
0
LINE
8
BLACK
6
CONTINUOUS
10
2.0662
20
0.424491
11
2.06618
21
0.422058
0
LINE
8
BLACK
6
CONTINUOUS
10
2.06618
20
0.422058
11
2.04912
21
0.370877
0
LINE
8
BLACK
6
CONTINUOUS
10
2.04912
20
0.370877
11
2.04841
21
0.369921
0
LINE
8
BLACK
6
CONTINUOUS
10
2.04841
20
0.369921
11
2.04772
21
0.368955
0
LINE
8
BLACK
6
CONTINUOUS
10
2.04772
20
0.368955
11
2.04769
21
0.368945
0
LINE
8
BLACK
6
CONTINUOUS
10
2.04769
20
0.368945
11
2.04767
21
0.36892
0
LINE
8
BLACK
6
CONTINUOUS
10
2.04767
20
0.36892
11
2.04654
21
0.36856
0
LINE
8
BLACK
6
CONTINUOUS
10
2.04654
20
0.36856
11
2.04541
21
0.368185
0
LINE
8
BLACK
6
CONTINUOUS
10
2.04541
20
0.368185
11
2.04538
21
0.368195
0
LINE
8
BLACK
6
CONTINUOUS
10
2.04538
20
0.368195
11
2.04535
21
0.368185
0
LINE
8
BLACK
6
CONTINUOUS
10
2.04535
20
0.368185
11
2.04423
21
0.368561
0
LINE
8
BLACK
6
CONTINUOUS
10
2.04423
20
0.368561
11
2.04309
21
0.36892
0
LINE
8
BLACK
6
CONTINUOUS
10
2.04309
20
0.36892
11
2.04308
21
0.368945
0
LINE
8
BLACK
6
CONTINUOUS
10
2.04308
20
0.368945
11
2.04305
21
0.368955
0
LINE
8
BLACK
6
CONTINUOUS
10
2.04305
20
0.368955
11
2.04235
21
0.369921
0
LINE
8
BLACK
6
CONTINUOUS
10
2.04235
20
0.369921
11
2.04165
21
0.370877
0
LINE
8
BLACK
6
CONTINUOUS
10
2.04165
20
0.370877
11
2.02459
21
0.422058
0
LINE
8
BLACK
6
CONTINUOUS
10
2.02459
20
0.422058
11
2.02457
21
0.424491
0
LINE
8
BLACK
6
CONTINUOUS
10
2.02457
20
0.424491
11
2.02599
21
0.426471
0
LINE
8
BLACK
6
CONTINUOUS
10
2.02599
20
0.426471
11
2.02829
21
0.42724
0
LINE
8
BLACK
6
CONTINUOUS
10
2.02829
20
0.42724
11
2.03061
21
0.426506
0
LINE
8
BLACK
6
CONTINUOUS
10
2.03061
20
0.426506
11
2.03206
21
0.424548
0
LINE
8
BLACK
6
CONTINUOUS
10
2.03206
20
0.424548
11
2.04538
21
0.384572
0
LINE
8
BLACK
6
CONTINUOUS
10
2.04538
20
0.384572
11
2.05871
21
0.424548
0
LINE
8
BLACK
6
CONTINUOUS
10
2.05871
20
0.424548
11
2.06015
21
0.426506
0
LINE
8
BLACK
6
CONTINUOUS
10
2.06015
20
0.426506
11
2.06247
21
0.42724
0
LINE
8
BLACK
6
CONTINUOUS
10
2.06247
20
0.42724
11
2.06478
21
0.426471
0
LINE
8
BLACK
6
CONTINUOUS
10
0.351404
20
0.435846
11
0.352951
21
0.434547
0
LINE
8
BLACK
6
CONTINUOUS
10
0.352951
20
0.434547
11
0.353302
21
0.432558
0
LINE
8
BLACK
6
CONTINUOUS
10
0.353302
20
0.432558
11
0.352292
21
0.430809
0
LINE
8
BLACK
6
CONTINUOUS
10
0.352292
20
0.430809
11
0.350394
21
0.430118
0
LINE
8
BLACK
6
CONTINUOUS
10
0.350394
20
0.430118
11
0.240157
21
0.430118
0
LINE
8
BLACK
6
CONTINUOUS
10
0.240157
20
0.430118
11
0.239148
21
0.430296
0
LINE
8
BLACK
6
CONTINUOUS
10
0.239148
20
0.430296
11
0.2376
21
0.431594
0
LINE
8
BLACK
6
CONTINUOUS
10
0.2376
20
0.431594
11
0.23725
21
0.433584
0
LINE
8
BLACK
6
CONTINUOUS
10
0.23725
20
0.433584
11
0.238259
21
0.435333
0
LINE
8
BLACK
6
CONTINUOUS
10
0.238259
20
0.435333
11
0.240157
21
0.436024
0
LINE
8
BLACK
6
CONTINUOUS
10
0.240157
20
0.436024
11
0.350394
21
0.436024
0
LINE
8
BLACK
6
CONTINUOUS
10
0.350394
20
0.436024
11
0.351404
21
0.435846
0
LINE
8
BLACK
6
CONTINUOUS
10
2.32226
20
0.537174
11
2.32295
21
0.535276
0
LINE
8
BLACK
6
CONTINUOUS
10
2.32295
20
0.535276
11
2.32295
21
0.445276
0
LINE
8
BLACK
6
CONTINUOUS
10
2.32295
20
0.445276
11
2.32289
21
0.444892
0
LINE
8
BLACK
6
CONTINUOUS
10
2.32289
20
0.444892
11
2.32291
21
0.444763
0
LINE
8
BLACK
6
CONTINUOUS
10
2.32291
20
0.444763
11
2.32284
21
0.444649
0
LINE
8
BLACK
6
CONTINUOUS
10
2.32284
20
0.444649
11
2.32277
21
0.444266
0
LINE
8
BLACK
6
CONTINUOUS
10
2.32277
20
0.444266
11
2.32228
21
0.443678
0
LINE
8
BLACK
6
CONTINUOUS
10
2.32228
20
0.443678
11
2.3219
21
0.443014
0
LINE
8
BLACK
6
CONTINUOUS
10
2.3219
20
0.443014
11
2.32165
21
0.442923
0
LINE
8
BLACK
6
CONTINUOUS
10
2.32165
20
0.442923
11
2.32148
21
0.442718
0
LINE
8
BLACK
6
CONTINUOUS
10
2.32148
20
0.442718
11
2.32072
21
0.442585
0
LINE
8
BLACK
6
CONTINUOUS
10
2.32072
20
0.442585
11
2.32
21
0.442323
0
LINE
8
BLACK
6
CONTINUOUS
10
2.32
20
0.442323
11
2.12
21
0.442323
0
LINE
8
BLACK
6
CONTINUOUS
10
2.12
20
0.442323
11
2.11962
21
0.44239
0
LINE
8
BLACK
6
CONTINUOUS
10
2.11962
20
0.44239
11
2.11949
21
0.442368
0
LINE
8
BLACK
6
CONTINUOUS
10
2.11949
20
0.442368
11
2.11937
21
0.442433
0
LINE
8
BLACK
6
CONTINUOUS
10
2.11937
20
0.442433
11
2.11899
21
0.442501
0
LINE
8
BLACK
6
CONTINUOUS
10
2.11899
20
0.442501
11
2.1184
21
0.442994
0
LINE
8
BLACK
6
CONTINUOUS
10
2.1184
20
0.442994
11
2.11774
21
0.443378
0
LINE
8
BLACK
6
CONTINUOUS
10
2.11774
20
0.443378
11
2.11765
21
0.443628
0
LINE
8
BLACK
6
CONTINUOUS
10
2.11765
20
0.443628
11
2.11744
21
0.443799
0
LINE
8
BLACK
6
CONTINUOUS
10
2.11744
20
0.443799
11
2.11731
21
0.444555
0
LINE
8
BLACK
6
CONTINUOUS
10
2.11731
20
0.444555
11
2.11705
21
0.445276
0
LINE
8
BLACK
6
CONTINUOUS
10
2.11705
20
0.445276
11
2.11705
21
0.535276
0
LINE
8
BLACK
6
CONTINUOUS
10
2.11705
20
0.535276
11
2.11723
21
0.536286
0
LINE
8
BLACK
6
CONTINUOUS
10
2.11723
20
0.536286
11
2.11852
21
0.537833
0
LINE
8
BLACK
6
CONTINUOUS
10
2.11852
20
0.537833
11
2.12051
21
0.538184
0
LINE
8
BLACK
6
CONTINUOUS
10
2.12051
20
0.538184
11
2.12226
21
0.537174
0
LINE
8
BLACK
6
CONTINUOUS
10
2.12226
20
0.537174
11
2.12295
21
0.535276
0
LINE
8
BLACK
6
CONTINUOUS
10
2.12295
20
0.535276
11
2.12295
21
0.448228
0
LINE
8
BLACK
6
CONTINUOUS
10
2.12295
20
0.448228
11
2.31705
21
0.448228
0
LINE
8
BLACK
6
CONTINUOUS
10
2.31705
20
0.448228
11
2.31705
21
0.535276
0
LINE
8
BLACK
6
CONTINUOUS
10
2.31705
20
0.535276
11
2.31723
21
0.536286
0
LINE
8
BLACK
6
CONTINUOUS
10
2.31723
20
0.536286
11
2.31852
21
0.537833
0
LINE
8
BLACK
6
CONTINUOUS
10
2.31852
20
0.537833
11
2.32051
21
0.538184
0
LINE
8
BLACK
6
CONTINUOUS
10
2.32051
20
0.538184
11
2.32226
21
0.537174
0
LINE
8
BLACK
6
CONTINUOUS
10
2.08986
20
0.527043
11
2.0905
21
0.527038
0
LINE
8
BLACK
6
CONTINUOUS
10
2.0905
20
0.527038
11
2.09781
21
0.524601
0
LINE
8
BLACK
6
CONTINUOUS
10
2.09781
20
0.524601
11
2.09854
21
0.524062
0
LINE
8
BLACK
6
CONTINUOUS
10
2.09854
20
0.524062
11
2.09935
21
0.52365
0
LINE
8
BLACK
6
CONTINUOUS
10
2.09935
20
0.52365
11
2.10422
21
0.518776
0
LINE
8
BLACK
6
CONTINUOUS
10
2.10422
20
0.518776
11
2.10451
21
0.518207
0
LINE
8
BLACK
6
CONTINUOUS
10
2.10451
20
0.518207
11
2.10496
21
0.517752
0
LINE
8
BLACK
6
CONTINUOUS
10
2.10496
20
0.517752
11
2.1074
21
0.512878
0
LINE
8
BLACK
6
CONTINUOUS
10
2.1074
20
0.512878
11
2.10746
21
0.512444
0
LINE
8
BLACK
6
CONTINUOUS
10
2.10746
20
0.512444
11
2.1077
21
0.512072
0
LINE
8
BLACK
6
CONTINUOUS
10
2.1077
20
0.512072
11
2.11013
21
0.502323
0
LINE
8
BLACK
6
CONTINUOUS
10
2.11013
20
0.502323
11
2.1101
21
0.501835
0
LINE
8
BLACK
6
CONTINUOUS
10
2.1101
20
0.501835
11
2.11025
21
0.501369
0
LINE
8
BLACK
6
CONTINUOUS
10
2.11025
20
0.501369
11
2.11025
21
0.494057
0
LINE
8
BLACK
6
CONTINUOUS
10
2.11025
20
0.494057
11
2.1101
21
0.493591
0
LINE
8
BLACK
6
CONTINUOUS
10
2.1101
20
0.493591
11
2.11013
21
0.493102
0
LINE
8
BLACK
6
CONTINUOUS
10
2.11013
20
0.493102
11
2.1077
21
0.483353
0
LINE
8
BLACK
6
CONTINUOUS
10
2.1077
20
0.483353
11
2.10746
21
0.482981
0
LINE
8
BLACK
6
CONTINUOUS
10
2.10746
20
0.482981
11
2.1074
21
0.482547
0
LINE
8
BLACK
6
CONTINUOUS
10
2.1074
20
0.482547
11
2.10496
21
0.477673
0
LINE
8
BLACK
6
CONTINUOUS
10
2.10496
20
0.477673
11
2.10451
21
0.477219
0
LINE
8
BLACK
6
CONTINUOUS
10
2.10451
20
0.477219
11
2.10422
21
0.47665
0
LINE
8
BLACK
6
CONTINUOUS
10
2.10422
20
0.47665
11
2.09935
21
0.471776
0
LINE
8
BLACK
6
CONTINUOUS
10
2.09935
20
0.471776
11
2.09854
21
0.471363
0
LINE
8
BLACK
6
CONTINUOUS
10
2.09854
20
0.471363
11
2.09781
21
0.470824
0
LINE
8
BLACK
6
CONTINUOUS
10
2.09781
20
0.470824
11
2.0905
21
0.468387
0
LINE
8
BLACK
6
CONTINUOUS
10
2.0905
20
0.468387
11
2.08986
21
0.468382
0
LINE
8
BLACK
6
CONTINUOUS
10
2.08986
20
0.468382
11
2.08925
21
0.468185
0
LINE
8
BLACK
6
CONTINUOUS
10
2.08925
20
0.468185
11
2.07707
21
0.468185
0
LINE
8
BLACK
6
CONTINUOUS
10
2.07707
20
0.468185
11
2.07647
21
0.468378
0
LINE
8
BLACK
6
CONTINUOUS
10
2.07647
20
0.468378
11
2.07585
21
0.468378
0
LINE
8
BLACK
6
CONTINUOUS
10
2.07585
20
0.468378
11
2.07535
21
0.468744
0
LINE
8
BLACK
6
CONTINUOUS
10
2.07535
20
0.468744
11
2.07475
21
0.468937
0
LINE
8
BLACK
6
CONTINUOUS
10
2.07475
20
0.468937
11
2.07439
21
0.469442
0
LINE
8
BLACK
6
CONTINUOUS
10
2.07439
20
0.469442
11
2.07388
21
0.469808
0
LINE
8
BLACK
6
CONTINUOUS
10
2.07388
20
0.469808
11
2.07369
21
0.470401
0
LINE
8
BLACK
6
CONTINUOUS
10
2.07369
20
0.470401
11
2.07332
21
0.470906
0
LINE
8
BLACK
6
CONTINUOUS
10
2.07332
20
0.470906
11
2.07332
21
0.471529
0
LINE
8
BLACK
6
CONTINUOUS
10
2.07332
20
0.471529
11
2.07313
21
0.472122
0
LINE
8
BLACK
6
CONTINUOUS
10
2.07313
20
0.472122
11
2.07313
21
0.523303
0
LINE
8
BLACK
6
CONTINUOUS
10
2.07313
20
0.523303
11
2.07332
21
0.523896
0
LINE
8
BLACK
6
CONTINUOUS
10
2.07332
20
0.523896
11
2.07332
21
0.52452
0
LINE
8
BLACK
6
CONTINUOUS
10
2.07332
20
0.52452
11
2.07369
21
0.525024
0
LINE
8
BLACK
6
CONTINUOUS
10
2.07369
20
0.525024
11
2.07388
21
0.525617
0
LINE
8
BLACK
6
CONTINUOUS
10
2.07388
20
0.525617
11
2.07439
21
0.525984
0
LINE
8
BLACK
6
CONTINUOUS
10
2.07439
20
0.525984
11
2.07475
21
0.526488
0
LINE
8
BLACK
6
CONTINUOUS
10
2.07475
20
0.526488
11
2.07535
21
0.526681
0
LINE
8
BLACK
6
CONTINUOUS
10
2.07535
20
0.526681
11
2.07585
21
0.527048
0
LINE
8
BLACK
6
CONTINUOUS
10
2.07585
20
0.527048
11
2.07647
21
0.527048
0
LINE
8
BLACK
6
CONTINUOUS
10
2.07647
20
0.527048
11
2.07707
21
0.52724
0
LINE
8
BLACK
6
CONTINUOUS
10
2.07707
20
0.52724
11
2.08925
21
0.52724
0
LINE
8
BLACK
6
CONTINUOUS
10
2.08925
20
0.52724
11
2.08986
21
0.527043
0
LINE
8
BLACK
6
CONTINUOUS
10
2.081
20
0.519366
11
2.081
21
0.476059
0
LINE
8
BLACK
6
CONTINUOUS
10
2.081
20
0.476059
11
2.08861
21
0.476059
0
LINE
8
BLACK
6
CONTINUOUS
10
2.08861
20
0.476059
11
2.09444
21
0.478
0
LINE
8
BLACK
6
CONTINUOUS
10
2.09444
20
0.478
11
2.0982
21
0.481766
0
LINE
8
BLACK
6
CONTINUOUS
10
2.0982
20
0.481766
11
2.10016
21
0.485682
0
LINE
8
BLACK
6
CONTINUOUS
10
2.10016
20
0.485682
11
2.10238
21
0.494542
0
LINE
8
BLACK
6
CONTINUOUS
10
2.10238
20
0.494542
11
2.10238
21
0.500884
0
LINE
8
BLACK
6
CONTINUOUS
10
2.10238
20
0.500884
11
2.10016
21
0.509743
0
LINE
8
BLACK
6
CONTINUOUS
10
2.10016
20
0.509743
11
2.0982
21
0.51366
0
LINE
8
BLACK
6
CONTINUOUS
10
2.0982
20
0.51366
11
2.09444
21
0.517425
0
LINE
8
BLACK
6
CONTINUOUS
10
2.09444
20
0.517425
11
2.08861
21
0.519366
0
LINE
8
BLACK
6
CONTINUOUS
10
2.08861
20
0.519366
11
2.081
21
0.519366
0
LINE
8
BLACK
6
CONTINUOUS
10
1.99507
20
0.52696
11
1.99596
21
0.526825
0
LINE
8
BLACK
6
CONTINUOUS
10
1.99596
20
0.526825
11
2.00084
21
0.524388
0
LINE
8
BLACK
6
CONTINUOUS
10
2.00084
20
0.524388
11
2.00257
21
0.52268
0
LINE
8
BLACK
6
CONTINUOUS
10
2.00257
20
0.52268
11
2.00297
21
0.52028
0
LINE
8
BLACK
6
CONTINUOUS
10
2.00297
20
0.52028
11
2.00188
21
0.518103
0
LINE
8
BLACK
6
CONTINUOUS
10
2.00188
20
0.518103
11
1.99972
21
0.516982
0
LINE
8
BLACK
6
CONTINUOUS
10
1.99972
20
0.516982
11
1.99732
21
0.517345
0
LINE
8
BLACK
6
CONTINUOUS
10
1.99732
20
0.517345
11
1.99327
21
0.519366
0
LINE
8
BLACK
6
CONTINUOUS
10
1.99327
20
0.519366
11
1.98753
21
0.519366
0
LINE
8
BLACK
6
CONTINUOUS
10
1.98753
20
0.519366
11
1.98171
21
0.517425
0
LINE
8
BLACK
6
CONTINUOUS
10
1.98171
20
0.517425
11
1.97794
21
0.51366
0
LINE
8
BLACK
6
CONTINUOUS
10
1.97794
20
0.51366
11
1.97598
21
0.509743
0
LINE
8
BLACK
6
CONTINUOUS
10
1.97598
20
0.509743
11
1.97377
21
0.500884
0
LINE
8
BLACK
6
CONTINUOUS
10
1.97377
20
0.500884
11
1.97377
21
0.494542
0
LINE
8
BLACK
6
CONTINUOUS
10
1.97377
20
0.494542
11
1.97598
21
0.485682
0
LINE
8
BLACK
6
CONTINUOUS
10
1.97598
20
0.485682
11
1.97794
21
0.481766
0
LINE
8
BLACK
6
CONTINUOUS
10
1.97794
20
0.481766
11
1.98171
21
0.478
0
LINE
8
BLACK
6
CONTINUOUS
10
1.98171
20
0.478
11
1.98753
21
0.476059
0
LINE
8
BLACK
6
CONTINUOUS
10
1.98753
20
0.476059
11
1.99113
21
0.476059
0
LINE
8
BLACK
6
CONTINUOUS
10
1.99113
20
0.476059
11
1.99695
21
0.478
0
LINE
8
BLACK
6
CONTINUOUS
10
1.99695
20
0.478
11
1.99758
21
0.478627
0
LINE
8
BLACK
6
CONTINUOUS
10
1.99758
20
0.478627
11
1.99758
21
0.49012
0
LINE
8
BLACK
6
CONTINUOUS
10
1.99758
20
0.49012
11
1.99177
21
0.49012
0
LINE
8
BLACK
6
CONTINUOUS
10
1.99177
20
0.49012
11
1.98945
21
0.490872
0
LINE
8
BLACK
6
CONTINUOUS
10
1.98945
20
0.490872
11
1.98802
21
0.49284
0
LINE
8
BLACK
6
CONTINUOUS
10
1.98802
20
0.49284
11
1.98802
21
0.495274
0
LINE
8
BLACK
6
CONTINUOUS
10
1.98802
20
0.495274
11
1.98945
21
0.497242
0
LINE
8
BLACK
6
CONTINUOUS
10
1.98945
20
0.497242
11
1.99177
21
0.497994
0
LINE
8
BLACK
6
CONTINUOUS
10
1.99177
20
0.497994
11
2.00151
21
0.497994
0
LINE
8
BLACK
6
CONTINUOUS
10
2.00151
20
0.497994
11
2.00211
21
0.497801
0
LINE
8
BLACK
6
CONTINUOUS
10
2.00211
20
0.497801
11
2.00273
21
0.497801
0
LINE
8
BLACK
6
CONTINUOUS
10
2.00273
20
0.497801
11
2.00324
21
0.497435
0
LINE
8
BLACK
6
CONTINUOUS
10
2.00324
20
0.497435
11
2.00383
21
0.497242
0
LINE
8
BLACK
6
CONTINUOUS
10
2.00383
20
0.497242
11
2.0042
21
0.496738
0
LINE
8
BLACK
6
CONTINUOUS
10
2.0042
20
0.496738
11
2.0047
21
0.496371
0
LINE
8
BLACK
6
CONTINUOUS
10
2.0047
20
0.496371
11
2.00489
21
0.495778
0
LINE
8
BLACK
6
CONTINUOUS
10
2.00489
20
0.495778
11
2.00526
21
0.495274
0
LINE
8
BLACK
6
CONTINUOUS
10
2.00526
20
0.495274
11
2.00526
21
0.49465
0
LINE
8
BLACK
6
CONTINUOUS
10
2.00526
20
0.49465
11
2.00545
21
0.494057
0
LINE
8
BLACK
6
CONTINUOUS
10
2.00545
20
0.494057
11
2.00545
21
0.476997
0
LINE
8
BLACK
6
CONTINUOUS
10
2.00545
20
0.476997
11
2.00535
21
0.476694
0
LINE
8
BLACK
6
CONTINUOUS
10
2.00535
20
0.476694
11
2.0054
21
0.476381
0
LINE
8
BLACK
6
CONTINUOUS
10
2.0054
20
0.476381
11
2.00498
21
0.475559
0
LINE
8
BLACK
6
CONTINUOUS
10
2.00498
20
0.475559
11
2.0047
21
0.474682
0
LINE
8
BLACK
6
CONTINUOUS
10
2.0047
20
0.474682
11
2.00444
21
0.474496
0
LINE
8
BLACK
6
CONTINUOUS
10
2.00444
20
0.474496
11
2.0043
21
0.474213
0
LINE
8
BLACK
6
CONTINUOUS
10
2.0043
20
0.474213
11
2.00186
21
0.471776
0
LINE
8
BLACK
6
CONTINUOUS
10
2.00186
20
0.471776
11
2.00105
21
0.471363
0
LINE
8
BLACK
6
CONTINUOUS
10
2.00105
20
0.471363
11
2.00032
21
0.470824
0
LINE
8
BLACK
6
CONTINUOUS
10
2.00032
20
0.470824
11
1.99301
21
0.468387
0
LINE
8
BLACK
6
CONTINUOUS
10
1.99301
20
0.468387
11
1.99237
21
0.468382
0
LINE
8
BLACK
6
CONTINUOUS
10
1.99237
20
0.468382
11
1.99177
21
0.468185
0
LINE
8
BLACK
6
CONTINUOUS
10
1.99177
20
0.468185
11
1.98689
21
0.468185
0
LINE
8
BLACK
6
CONTINUOUS
10
1.98689
20
0.468185
11
1.98628
21
0.468382
0
LINE
8
BLACK
6
CONTINUOUS
10
1.98628
20
0.468382
11
1.98565
21
0.468387
0
LINE
8
BLACK
6
CONTINUOUS
10
1.98565
20
0.468387
11
1.97834
21
0.470824
0
LINE
8
BLACK
6
CONTINUOUS
10
1.97834
20
0.470824
11
1.9776
21
0.471363
0
LINE
8
BLACK
6
CONTINUOUS
10
1.9776
20
0.471363
11
1.9768
21
0.471776
0
LINE
8
BLACK
6
CONTINUOUS
10
1.9768
20
0.471776
11
1.97192
21
0.47665
0
LINE
8
BLACK
6
CONTINUOUS
10
1.97192
20
0.47665
11
1.97163
21
0.477219
0
LINE
8
BLACK
6
CONTINUOUS
10
1.97163
20
0.477219
11
1.97118
21
0.477673
0
LINE
8
BLACK
6
CONTINUOUS
10
1.97118
20
0.477673
11
1.96875
21
0.482548
0
LINE
8
BLACK
6
CONTINUOUS
10
1.96875
20
0.482548
11
1.96868
21
0.482981
0
LINE
8
BLACK
6
CONTINUOUS
10
1.96868
20
0.482981
11
1.96845
21
0.483353
0
LINE
8
BLACK
6
CONTINUOUS
10
1.96845
20
0.483353
11
1.96601
21
0.493102
0
LINE
8
BLACK
6
CONTINUOUS
10
1.96601
20
0.493102
11
1.96605
21
0.493591
0
LINE
8
BLACK
6
CONTINUOUS
10
1.96605
20
0.493591
11
1.96589
21
0.494057
0
LINE
8
BLACK
6
CONTINUOUS
10
1.96589
20
0.494057
11
1.96589
21
0.501369
0
LINE
8
BLACK
6
CONTINUOUS
10
1.96589
20
0.501369
11
1.96605
21
0.501835
0
LINE
8
BLACK
6
CONTINUOUS
10
1.96605
20
0.501835
11
1.96601
21
0.502323
0
LINE
8
BLACK
6
CONTINUOUS
10
1.96601
20
0.502323
11
1.96845
21
0.512072
0
LINE
8
BLACK
6
CONTINUOUS
10
1.96845
20
0.512072
11
1.96868
21
0.512444
0
LINE
8
BLACK
6
CONTINUOUS
10
1.96868
20
0.512444
11
1.96875
21
0.512878
0
LINE
8
BLACK
6
CONTINUOUS
10
1.96875
20
0.512878
11
1.97118
21
0.517752
0
LINE
8
BLACK
6
CONTINUOUS
10
1.97118
20
0.517752
11
1.97163
21
0.518207
0
LINE
8
BLACK
6
CONTINUOUS
10
1.97163
20
0.518207
11
1.97192
21
0.518776
0
LINE
8
BLACK
6
CONTINUOUS
10
1.97192
20
0.518776
11
1.9768
21
0.52365
0
LINE
8
BLACK
6
CONTINUOUS
10
1.9768
20
0.52365
11
1.97761
21
0.524062
0
LINE
8
BLACK
6
CONTINUOUS
10
1.97761
20
0.524062
11
1.97834
21
0.524601
0
LINE
8
BLACK
6
CONTINUOUS
10
1.97834
20
0.524601
11
1.98565
21
0.527038
0
LINE
8
BLACK
6
CONTINUOUS
10
1.98565
20
0.527038
11
1.98628
21
0.527043
0
LINE
8
BLACK
6
CONTINUOUS
10
1.98628
20
0.527043
11
1.98689
21
0.52724
0
LINE
8
BLACK
6
CONTINUOUS
10
1.98689
20
0.52724
11
1.9942
21
0.52724
0
LINE
8
BLACK
6
CONTINUOUS
10
1.9942
20
0.52724
11
1.99507
21
0.52696
0
LINE
8
BLACK
6
CONTINUOUS
10
2.02365
20
0.527048
11
2.02467
21
0.527048
0
LINE
8
BLACK
6
CONTINUOUS
10
2.02467
20
0.527048
11
2.02485
21
0.526917
0
LINE
8
BLACK
6
CONTINUOUS
10
2.02485
20
0.526917
11
2.02507
21
0.526893
0
LINE
8
BLACK
6
CONTINUOUS
10
2.02507
20
0.526893
11
2.02582
21
0.526212
0
LINE
8
BLACK
6
CONTINUOUS
10
2.02582
20
0.526212
11
2.02663
21
0.525617
0
LINE
8
BLACK
6
CONTINUOUS
10
2.02663
20
0.525617
11
2.0267
21
0.525406
0
LINE
8
BLACK
6
CONTINUOUS
10
2.0267
20
0.525406
11
2.02687
21
0.525257
0
LINE
8
BLACK
6
CONTINUOUS
10
2.02687
20
0.525257
11
2.04876
21
0.486947
0
LINE
8
BLACK
6
CONTINUOUS
10
2.04876
20
0.486947
11
2.04876
21
0.523303
0
LINE
8
BLACK
6
CONTINUOUS
10
2.04876
20
0.523303
11
2.04951
21
0.525617
0
LINE
8
BLACK
6
CONTINUOUS
10
2.04951
20
0.525617
11
2.05148
21
0.527048
0
LINE
8
BLACK
6
CONTINUOUS
10
2.05148
20
0.527048
11
2.05391
21
0.527048
0
LINE
8
BLACK
6
CONTINUOUS
10
2.05391
20
0.527048
11
2.05588
21
0.525617
0
LINE
8
BLACK
6
CONTINUOUS
10
2.05588
20
0.525617
11
2.05663
21
0.523303
0
LINE
8
BLACK
6
CONTINUOUS
10
2.05663
20
0.523303
11
2.05663
21
0.472122
0
LINE
8
BLACK
6
CONTINUOUS
10
2.05663
20
0.472122
11
2.05656
21
0.471911
0
LINE
8
BLACK
6
CONTINUOUS
10
2.05656
20
0.471911
11
2.05661
21
0.471693
0
LINE
8
BLACK
6
CONTINUOUS
10
2.05661
20
0.471693
11
2.05619
21
0.470771
0
LINE
8
BLACK
6
CONTINUOUS
10
2.05619
20
0.470771
11
2.05588
21
0.469808
0
LINE
8
BLACK
6
CONTINUOUS
10
2.05588
20
0.469808
11
2.0557
21
0.469677
0
LINE
8
BLACK
6
CONTINUOUS
10
2.0557
20
0.469677
11
2.05561
21
0.469475
0
LINE
8
BLACK
6
CONTINUOUS
10
2.05561
20
0.469475
11
2.05473
21
0.468973
0
LINE
8
BLACK
6
CONTINUOUS
10
2.05473
20
0.468973
11
2.05391
21
0.468378
0
LINE
8
BLACK
6
CONTINUOUS
10
2.05391
20
0.468378
11
2.05369
21
0.468378
0
LINE
8
BLACK
6
CONTINUOUS
10
2.05369
20
0.468378
11
2.0535
21
0.468268
0
LINE
8
BLACK
6
CONTINUOUS
10
2.0535
20
0.468268
11
2.05249
21
0.468378
0
LINE
8
BLACK
6
CONTINUOUS
10
2.05249
20
0.468378
11
2.05148
21
0.468378
0
LINE
8
BLACK
6
CONTINUOUS
10
2.05148
20
0.468378
11
2.0513
21
0.468509
0
LINE
8
BLACK
6
CONTINUOUS
10
2.0513
20
0.468509
11
2.05108
21
0.468533
0
LINE
8
BLACK
6
CONTINUOUS
10
2.05108
20
0.468533
11
2.05033
21
0.469213
0
LINE
8
BLACK
6
CONTINUOUS
10
2.05033
20
0.469213
11
2.04951
21
0.469808
0
LINE
8
BLACK
6
CONTINUOUS
10
2.04951
20
0.469808
11
2.04944
21
0.470019
0
LINE
8
BLACK
6
CONTINUOUS
10
2.04944
20
0.470019
11
2.04928
21
0.470169
0
LINE
8
BLACK
6
CONTINUOUS
10
2.04928
20
0.470169
11
2.02739
21
0.508478
0
LINE
8
BLACK
6
CONTINUOUS
10
2.02739
20
0.508478
11
2.02739
21
0.472122
0
LINE
8
BLACK
6
CONTINUOUS
10
2.02739
20
0.472122
11
2.02663
21
0.469808
0
LINE
8
BLACK
6
CONTINUOUS
10
2.02663
20
0.469808
11
2.02467
21
0.468378
0
LINE
8
BLACK
6
CONTINUOUS
10
2.02467
20
0.468378
11
2.02223
21
0.468378
0
LINE
8
BLACK
6
CONTINUOUS
10
2.02223
20
0.468378
11
2.02026
21
0.469808
0
LINE
8
BLACK
6
CONTINUOUS
10
2.02026
20
0.469808
11
2.01951
21
0.472122
0
LINE
8
BLACK
6
CONTINUOUS
10
2.01951
20
0.472122
11
2.01951
21
0.523303
0
LINE
8
BLACK
6
CONTINUOUS
10
2.01951
20
0.523303
11
2.01958
21
0.523515
0
LINE
8
BLACK
6
CONTINUOUS
10
2.01958
20
0.523515
11
2.01954
21
0.523732
0
LINE
8
BLACK
6
CONTINUOUS
10
2.01954
20
0.523732
11
2.01995
21
0.524655
0
LINE
8
BLACK
6
CONTINUOUS
10
2.01995
20
0.524655
11
2.02026
21
0.525617
0
LINE
8
BLACK
6
CONTINUOUS
10
2.02026
20
0.525617
11
2.02044
21
0.525748
0
LINE
8
BLACK
6
CONTINUOUS
10
2.02044
20
0.525748
11
2.02054
21
0.525951
0
LINE
8
BLACK
6
CONTINUOUS
10
2.02054
20
0.525951
11
2.02141
21
0.526453
0
LINE
8
BLACK
6
CONTINUOUS
10
2.02141
20
0.526453
11
2.02223
21
0.527048
0
LINE
8
BLACK
6
CONTINUOUS
10
2.02223
20
0.527048
11
2.02246
21
0.527048
0
LINE
8
BLACK
6
CONTINUOUS
10
2.02246
20
0.527048
11
2.02265
21
0.527158
0
LINE
8
BLACK
6
CONTINUOUS
10
2.02265
20
0.527158
11
2.02365
21
0.527048
0
LINE
8
BLACK
6
CONTINUOUS
10
0.165831
20
0.260262
11
0.168092
21
0.265078
0
LINE
8
BLACK
6
CONTINUOUS
10
0.168092
20
0.265078
11
0.171614
21
0.269065
0
LINE
8
BLACK
6
CONTINUOUS
10
0.171614
20
0.269065
11
0.176114
21
0.271904
0
LINE
8
BLACK
6
CONTINUOUS
10
0.176114
20
0.271904
11
0.181229
21
0.273366
0
LINE
8
BLACK
6
CONTINUOUS
10
0.181229
20
0.273366
11
0.186549
21
0.273334
0
LINE
8
BLACK
6
CONTINUOUS
10
0.186549
20
0.273334
11
0.191646
21
0.271809
0
LINE
8
BLACK
6
CONTINUOUS
10
0.191646
20
0.271809
11
0.196111
21
0.268916
0
LINE
8
BLACK
6
CONTINUOUS
10
0.196111
20
0.268916
11
0.199583
21
0.264885
0
LINE
8
BLACK
6
CONTINUOUS
10
0.199583
20
0.264885
11
0.201786
21
0.260042
0
LINE
8
BLACK
6
CONTINUOUS
10
0.201786
20
0.260042
11
0.20254
21
0.254776
0
LINE
8
BLACK
6
CONTINUOUS
10
0.20254
20
0.254776
11
0.202534
21
0.254317
0
LINE
8
BLACK
6
CONTINUOUS
10
0.202534
20
0.254317
11
0.201651
21
0.249071
0
LINE
8
BLACK
6
CONTINUOUS
10
0.201651
20
0.249071
11
0.199332
21
0.244283
0
LINE
8
BLACK
6
CONTINUOUS
10
0.199332
20
0.244283
11
0.195761
21
0.240338
0
LINE
8
BLACK
6
CONTINUOUS
10
0.195761
20
0.240338
11
0.191228
21
0.237555
0
LINE
8
BLACK
6
CONTINUOUS
10
0.191228
20
0.237555
11
0.186095
21
0.236155
0
LINE
8
BLACK
6
CONTINUOUS
10
0.186095
20
0.236155
11
0.180776
21
0.236253
0
LINE
8
BLACK
6
CONTINUOUS
10
0.180776
20
0.236253
11
0.175697
21
0.237839
0
LINE
8
BLACK
6
CONTINUOUS
10
0.175697
20
0.237839
11
0.171269
21
0.240787
0
LINE
8
BLACK
6
CONTINUOUS
10
0.171269
20
0.240787
11
0.167845
21
0.24486
0
LINE
8
BLACK
6
CONTINUOUS
10
0.167845
20
0.24486
11
0.165703
21
0.24973
0
LINE
8
BLACK
6
CONTINUOUS
10
0.165703
20
0.24973
11
0.165043
21
0.254776
0
LINE
8
BLACK
6
CONTINUOUS
10
0.165043
20
0.254776
11
0.165013
21
0.255005
0
LINE
8
BLACK
6
CONTINUOUS
10
0.165013
20
0.255005
11
0.165831
21
0.260262
0
LINE
8
BLACK
6
CONTINUOUS
10
0.173773
20
0.246383
11
0.177247
21
0.243468
0
LINE
8
BLACK
6
CONTINUOUS
10
0.177247
20
0.243468
11
0.181508
21
0.241917
0
LINE
8
BLACK
6
CONTINUOUS
10
0.181508
20
0.241917
11
0.186043
21
0.241917
0
LINE
8
BLACK
6
CONTINUOUS
10
0.186043
20
0.241917
11
0.190304
21
0.243468
0
LINE
8
BLACK
6
CONTINUOUS
10
0.190304
20
0.243468
11
0.193778
21
0.246383
0
LINE
8
BLACK
6
CONTINUOUS
10
0.193778
20
0.246383
11
0.196045
21
0.25031
0
LINE
8
BLACK
6
CONTINUOUS
10
0.196045
20
0.25031
11
0.196833
21
0.254776
0
LINE
8
BLACK
6
CONTINUOUS
10
0.196833
20
0.254776
11
0.196045
21
0.259241
0
LINE
8
BLACK
6
CONTINUOUS
10
0.196045
20
0.259241
11
0.193778
21
0.263168
0
LINE
8
BLACK
6
CONTINUOUS
10
0.193778
20
0.263168
11
0.190304
21
0.266083
0
LINE
8
BLACK
6
CONTINUOUS
10
0.190304
20
0.266083
11
0.186043
21
0.267634
0
LINE
8
BLACK
6
CONTINUOUS
10
0.186043
20
0.267634
11
0.181508
21
0.267634
0
LINE
8
BLACK
6
CONTINUOUS
10
0.181508
20
0.267634
11
0.177247
21
0.266083
0
LINE
8
BLACK
6
CONTINUOUS
10
0.177247
20
0.266083
11
0.173773
21
0.263168
0
LINE
8
BLACK
6
CONTINUOUS
10
0.173773
20
0.263168
11
0.171506
21
0.259241
0
LINE
8
BLACK
6
CONTINUOUS
10
0.171506
20
0.259241
11
0.170719
21
0.254776
0
LINE
8
BLACK
6
CONTINUOUS
10
0.170719
20
0.254776
11
0.171506
21
0.25031
0
LINE
8
BLACK
6
CONTINUOUS
10
0.171506
20
0.25031
11
0.173773
21
0.246383
  0
ENDSEC
  0
EOF
