  0
SECTION
  2
HEADER
  9
$ANGBASE
  50
0.0
  9
$ANGDIR
  70
1
  9
$MEASUREMENT
  70
0
  0
ENDSEC
  0
SECTION
  2
TABLES
  0
TABLE
  2
LTYPE
  70
4
  0
LTYPE
  5
40F
  2
CONTINUOUS
  70
0
  3
Solid line
  72
65
  73
0
  40
0.0
  0
LTYPE
  5
410
  2
DASHDOT
 70
0
  3
Dash Dot ____ _ ____ _
 72
65
 73
4
 40
2.0
 49
1.25
 49
-0.25
 49
0.25
 49
-0.25
  0
LTYPE
  5
411
  2
DASHED
 70
0
  3
Dashed __ __ __ __ __
 72
65
 73
2
 40
0.75
 49
0.5
 49
-0.25
  0
LTYPE
  5
43B
  2
DOTTED
 70
0
  3
Dotted .  .  .  .
 72
65
 73
2
 40
0.2
 49
0.0
 49
-0.2
  0
ENDTAB
  0
TABLE
  2
STYLE
  70
4
  0
STYLE
  2
KICAD
  70
0
  40
0
  41
1
  42
1
  50
0
  71
0
  3
isocp.shx
  0
STYLE
  2
KICADB
  70
0
  40
0
  41
1
  42
1
  50
0
  71
0
  3
isocp.shx
  0
STYLE
  2
KICADI
  70
0
  40
0
  41
1
  42
1
  50
15
  71
0
  3
isocp.shx
  0
STYLE
  2
KICADBI
  70
0
  40
0
  41
1
  42
1
  50
15
  71
0
  3
isocp.shx
  0
ENDTAB
  0
TABLE
  2
LAYER
  70
1
  0
LAYER
  2
BLACK
  70
0
  62
7
  6
CONTINUOUS
  0
ENDTAB
  0
ENDSEC
  0
SECTION
  2
ENTITIES
0
LINE
8
BLACK
6
CONTINUOUS
10
0.912323
20
0.313858
11
0.912323
21
0.10126
0
LINE
8
BLACK
6
CONTINUOUS
10
0.912323
20
0.10126
11
0.911631
21
0.0995895
0
LINE
8
BLACK
6
CONTINUOUS
10
0.911631
20
0.0995895
11
0.909961
21
0.0988976
0
LINE
8
BLACK
6
CONTINUOUS
10
0.909961
20
0.0988976
11
0.90829
21
0.0995895
0
LINE
8
BLACK
6
CONTINUOUS
10
0.90829
20
0.0995895
11
0.907598
21
0.10126
0
LINE
8
BLACK
6
CONTINUOUS
10
0.907598
20
0.10126
11
0.907598
21
0.311496
0
LINE
8
BLACK
6
CONTINUOUS
10
0.907598
20
0.311496
11
0.815435
21
0.311496
0
LINE
8
BLACK
6
CONTINUOUS
10
0.815435
20
0.311496
11
0.814057
21
0.310118
0
LINE
8
BLACK
6
CONTINUOUS
10
0.814057
20
0.310118
11
0.811057
21
0.309314
0
LINE
8
BLACK
6
CONTINUOUS
10
0.811057
20
0.309314
11
0.7942
21
0.309314
0
LINE
8
BLACK
6
CONTINUOUS
10
0.7942
20
0.309314
11
0.7942
21
0.292457
0
LINE
8
BLACK
6
CONTINUOUS
10
0.7942
20
0.292457
11
0.793396
21
0.289457
0
LINE
8
BLACK
6
CONTINUOUS
10
0.793396
20
0.289457
11
0.7912
21
0.287261
0
LINE
8
BLACK
6
CONTINUOUS
10
0.7912
20
0.287261
11
0.7882
21
0.286457
0
LINE
8
BLACK
6
CONTINUOUS
10
0.7882
20
0.286457
11
0.7852
21
0.287261
0
LINE
8
BLACK
6
CONTINUOUS
10
0.7852
20
0.287261
11
0.783004
21
0.289457
0
LINE
8
BLACK
6
CONTINUOUS
10
0.783004
20
0.289457
11
0.782402
21
0.291705
0
LINE
8
BLACK
6
CONTINUOUS
10
0.782402
20
0.291705
11
0.782402
21
0.10126
0
LINE
8
BLACK
6
CONTINUOUS
10
0.782402
20
0.10126
11
0.78171
21
0.0995895
0
LINE
8
BLACK
6
CONTINUOUS
10
0.78171
20
0.0995895
11
0.780039
21
0.0988976
0
LINE
8
BLACK
6
CONTINUOUS
10
0.780039
20
0.0988976
11
0.778369
21
0.0995895
0
LINE
8
BLACK
6
CONTINUOUS
10
0.778369
20
0.0995895
11
0.777677
21
0.10126
0
LINE
8
BLACK
6
CONTINUOUS
10
0.777677
20
0.10126
11
0.777677
21
0.309314
0
LINE
8
BLACK
6
CONTINUOUS
10
0.777677
20
0.309314
11
0.765343
21
0.309314
0
LINE
8
BLACK
6
CONTINUOUS
10
0.765343
20
0.309314
11
0.762343
21
0.310118
0
LINE
8
BLACK
6
CONTINUOUS
10
0.762343
20
0.310118
11
0.760147
21
0.312314
0
LINE
8
BLACK
6
CONTINUOUS
10
0.760147
20
0.312314
11
0.759343
21
0.315314
0
LINE
8
BLACK
6
CONTINUOUS
10
0.759343
20
0.315314
11
0.760147
21
0.318314
0
LINE
8
BLACK
6
CONTINUOUS
10
0.760147
20
0.318314
11
0.76163
21
0.319798
0
LINE
8
BLACK
6
CONTINUOUS
10
0.76163
20
0.319798
11
0.761592
21
0.320013
0
LINE
8
BLACK
6
CONTINUOUS
10
0.761592
20
0.320013
11
0.762602
21
0.321762
0
LINE
8
BLACK
6
CONTINUOUS
10
0.762602
20
0.321762
11
0.7645
21
0.322453
0
LINE
8
BLACK
6
CONTINUOUS
10
0.7645
20
0.322453
11
0.7822
21
0.322453
0
LINE
8
BLACK
6
CONTINUOUS
10
0.7822
20
0.322453
11
0.7822
21
0.338171
0
LINE
8
BLACK
6
CONTINUOUS
10
0.7822
20
0.338171
11
0.783004
21
0.341171
0
LINE
8
BLACK
6
CONTINUOUS
10
0.783004
20
0.341171
11
0.785193
21
0.343361
0
LINE
8
BLACK
6
CONTINUOUS
10
0.785193
20
0.343361
11
0.785325
21
0.34411
0
LINE
8
BLACK
6
CONTINUOUS
10
0.785325
20
0.34411
11
0.786624
21
0.345657
0
LINE
8
BLACK
6
CONTINUOUS
10
0.786624
20
0.345657
11
0.788613
21
0.346008
0
LINE
8
BLACK
6
CONTINUOUS
10
0.788613
20
0.346008
11
0.790362
21
0.344998
0
LINE
8
BLACK
6
CONTINUOUS
10
0.790362
20
0.344998
11
0.790929
21
0.34344
0
LINE
8
BLACK
6
CONTINUOUS
10
0.790929
20
0.34344
11
0.7912
21
0.343368
0
LINE
8
BLACK
6
CONTINUOUS
10
0.7912
20
0.343368
11
0.793396
21
0.341171
0
LINE
8
BLACK
6
CONTINUOUS
10
0.793396
20
0.341171
11
0.7942
21
0.338171
0
LINE
8
BLACK
6
CONTINUOUS
10
0.7942
20
0.338171
11
0.7942
21
0.322453
0
LINE
8
BLACK
6
CONTINUOUS
10
0.7942
20
0.322453
11
0.8117
21
0.322453
0
LINE
8
BLACK
6
CONTINUOUS
10
0.8117
20
0.322453
11
0.81271
21
0.322275
0
LINE
8
BLACK
6
CONTINUOUS
10
0.81271
20
0.322275
11
0.814257
21
0.320976
0
LINE
8
BLACK
6
CONTINUOUS
10
0.814257
20
0.320976
11
0.8144
21
0.320168
0
LINE
8
BLACK
6
CONTINUOUS
10
0.8144
20
0.320168
11
0.816253
21
0.318314
0
LINE
8
BLACK
6
CONTINUOUS
10
0.816253
20
0.318314
11
0.816814
21
0.31622
0
LINE
8
BLACK
6
CONTINUOUS
10
0.816814
20
0.31622
11
0.909961
21
0.31622
0
LINE
8
BLACK
6
CONTINUOUS
10
0.909961
20
0.31622
11
0.911631
21
0.315529
0
LINE
8
BLACK
6
CONTINUOUS
10
0.911631
20
0.315529
11
0.912323
21
0.313858
0
LINE
8
BLACK
6
CONTINUOUS
10
0.738023
20
0.173935
11
0.739136
21
0.17225
0
LINE
8
BLACK
6
CONTINUOUS
10
0.739136
20
0.17225
11
0.738905
21
0.170243
0
LINE
8
BLACK
6
CONTINUOUS
10
0.738905
20
0.170243
11
0.73703
21
0.166494
0
LINE
8
BLACK
6
CONTINUOUS
10
0.73703
20
0.166494
11
0.736504
21
0.165784
0
LINE
8
BLACK
6
CONTINUOUS
10
0.736504
20
0.165784
11
0.736477
21
0.165726
0
LINE
8
BLACK
6
CONTINUOUS
10
0.736477
20
0.165726
11
0.734018
21
0.163268
0
LINE
8
BLACK
6
CONTINUOUS
10
0.734018
20
0.163268
11
0.761432
21
0.163268
0
LINE
8
BLACK
6
CONTINUOUS
10
0.761432
20
0.163268
11
0.761432
21
0.171564
0
LINE
8
BLACK
6
CONTINUOUS
10
0.761432
20
0.171564
11
0.76161
21
0.172573
0
LINE
8
BLACK
6
CONTINUOUS
10
0.76161
20
0.172573
11
0.762909
21
0.174121
0
LINE
8
BLACK
6
CONTINUOUS
10
0.762909
20
0.174121
11
0.764898
21
0.174471
0
LINE
8
BLACK
6
CONTINUOUS
10
0.764898
20
0.174471
11
0.766647
21
0.173462
0
LINE
8
BLACK
6
CONTINUOUS
10
0.766647
20
0.173462
11
0.767338
21
0.171564
0
LINE
8
BLACK
6
CONTINUOUS
10
0.767338
20
0.171564
11
0.767338
21
0.149066
0
LINE
8
BLACK
6
CONTINUOUS
10
0.767338
20
0.149066
11
0.76716
21
0.148056
0
LINE
8
BLACK
6
CONTINUOUS
10
0.76716
20
0.148056
11
0.765861
21
0.146509
0
LINE
8
BLACK
6
CONTINUOUS
10
0.765861
20
0.146509
11
0.763872
21
0.146158
0
LINE
8
BLACK
6
CONTINUOUS
10
0.763872
20
0.146158
11
0.762123
21
0.147168
0
LINE
8
BLACK
6
CONTINUOUS
10
0.762123
20
0.147168
11
0.761432
21
0.149066
0
LINE
8
BLACK
6
CONTINUOUS
10
0.761432
20
0.149066
11
0.761432
21
0.157362
0
LINE
8
BLACK
6
CONTINUOUS
10
0.761432
20
0.157362
11
0.725015
21
0.157362
0
LINE
8
BLACK
6
CONTINUOUS
10
0.725015
20
0.157362
11
0.724005
21
0.15754
0
LINE
8
BLACK
6
CONTINUOUS
10
0.724005
20
0.15754
11
0.723875
21
0.157649
0
LINE
8
BLACK
6
CONTINUOUS
10
0.723875
20
0.157649
11
0.723706
21
0.157668
0
LINE
8
BLACK
6
CONTINUOUS
10
0.723706
20
0.157668
11
0.723114
21
0.158288
0
LINE
8
BLACK
6
CONTINUOUS
10
0.723114
20
0.158288
11
0.722458
21
0.158839
0
LINE
8
BLACK
6
CONTINUOUS
10
0.722458
20
0.158839
11
0.722428
21
0.159006
0
LINE
8
BLACK
6
CONTINUOUS
10
0.722428
20
0.159006
11
0.722311
21
0.159129
0
LINE
8
BLACK
6
CONTINUOUS
10
0.722311
20
0.159129
11
0.722256
21
0.159984
0
LINE
8
BLACK
6
CONTINUOUS
10
0.722256
20
0.159984
11
0.722107
21
0.160828
0
LINE
8
BLACK
6
CONTINUOUS
10
0.722107
20
0.160828
11
0.722192
21
0.160975
0
LINE
8
BLACK
6
CONTINUOUS
10
0.722192
20
0.160975
11
0.722181
21
0.161144
0
LINE
8
BLACK
6
CONTINUOUS
10
0.722181
20
0.161144
11
0.722688
21
0.161835
0
LINE
8
BLACK
6
CONTINUOUS
10
0.722688
20
0.161835
11
0.723117
21
0.162577
0
LINE
8
BLACK
6
CONTINUOUS
10
0.723117
20
0.162577
11
0.723277
21
0.162635
0
LINE
8
BLACK
6
CONTINUOUS
10
0.723277
20
0.162635
11
0.723377
21
0.162772
0
LINE
8
BLACK
6
CONTINUOUS
10
0.723377
20
0.162772
11
0.728758
21
0.166359
0
LINE
8
BLACK
6
CONTINUOUS
10
0.728758
20
0.166359
11
0.731962
21
0.169563
0
LINE
8
BLACK
6
CONTINUOUS
10
0.731962
20
0.169563
11
0.733623
21
0.172884
0
LINE
8
BLACK
6
CONTINUOUS
10
0.733623
20
0.172884
11
0.734233
21
0.173708
0
LINE
8
BLACK
6
CONTINUOUS
10
0.734233
20
0.173708
11
0.736087
21
0.174511
0
LINE
8
BLACK
6
CONTINUOUS
10
0.736087
20
0.174511
11
0.738023
21
0.173935
0
LINE
8
BLACK
6
CONTINUOUS
10
0.764769
20
0.211944
11
0.764898
21
0.211967
0
LINE
8
BLACK
6
CONTINUOUS
10
0.764898
20
0.211967
11
0.765011
21
0.211901
0
LINE
8
BLACK
6
CONTINUOUS
10
0.765011
20
0.211901
11
0.765395
21
0.211834
0
LINE
8
BLACK
6
CONTINUOUS
10
0.765395
20
0.211834
11
0.765983
21
0.21134
0
LINE
8
BLACK
6
CONTINUOUS
10
0.765983
20
0.21134
11
0.766647
21
0.210957
0
LINE
8
BLACK
6
CONTINUOUS
10
0.766647
20
0.210957
11
0.766738
21
0.210706
0
LINE
8
BLACK
6
CONTINUOUS
10
0.766738
20
0.210706
11
0.766942
21
0.210535
0
LINE
8
BLACK
6
CONTINUOUS
10
0.766942
20
0.210535
11
0.767075
21
0.20978
0
LINE
8
BLACK
6
CONTINUOUS
10
0.767075
20
0.20978
11
0.767338
21
0.209059
0
LINE
8
BLACK
6
CONTINUOUS
10
0.767338
20
0.209059
11
0.767338
21
0.199685
0
LINE
8
BLACK
6
CONTINUOUS
10
0.767338
20
0.199685
11
0.767184
21
0.198816
0
LINE
8
BLACK
6
CONTINUOUS
10
0.767184
20
0.198816
11
0.767186
21
0.198751
0
LINE
8
BLACK
6
CONTINUOUS
10
0.767186
20
0.198751
11
0.765311
21
0.193127
0
LINE
8
BLACK
6
CONTINUOUS
10
0.765311
20
0.193127
11
0.764823
21
0.192225
0
LINE
8
BLACK
6
CONTINUOUS
10
0.764823
20
0.192225
11
0.764673
21
0.192133
0
LINE
8
BLACK
6
CONTINUOUS
10
0.764673
20
0.192133
11
0.764598
21
0.191973
0
LINE
8
BLACK
6
CONTINUOUS
10
0.764598
20
0.191973
11
0.760849
21
0.188223
0
LINE
8
BLACK
6
CONTINUOUS
10
0.760849
20
0.188223
11
0.760126
21
0.187717
0
LINE
8
BLACK
6
CONTINUOUS
10
0.760126
20
0.187717
11
0.760081
21
0.18767
0
LINE
8
BLACK
6
CONTINUOUS
10
0.760081
20
0.18767
11
0.756332
21
0.185795
0
LINE
8
BLACK
6
CONTINUOUS
10
0.756332
20
0.185795
11
0.755843
21
0.18565
0
LINE
8
BLACK
6
CONTINUOUS
10
0.755843
20
0.18565
11
0.755727
21
0.185572
0
LINE
8
BLACK
6
CONTINUOUS
10
0.755727
20
0.185572
11
0.748228
21
0.183697
0
LINE
8
BLACK
6
CONTINUOUS
10
0.748228
20
0.183697
11
0.74764
21
0.183656
0
LINE
8
BLACK
6
CONTINUOUS
10
0.74764
20
0.183656
11
0.747512
21
0.183609
0
LINE
8
BLACK
6
CONTINUOUS
10
0.747512
20
0.183609
11
0.741888
21
0.183609
0
LINE
8
BLACK
6
CONTINUOUS
10
0.741888
20
0.183609
11
0.741307
21
0.183711
0
LINE
8
BLACK
6
CONTINUOUS
10
0.741307
20
0.183711
11
0.741172
21
0.183697
0
LINE
8
BLACK
6
CONTINUOUS
10
0.741172
20
0.183697
11
0.733673
21
0.185572
0
LINE
8
BLACK
6
CONTINUOUS
10
0.733673
20
0.185572
11
0.733207
21
0.185779
0
LINE
8
BLACK
6
CONTINUOUS
10
0.733207
20
0.185779
11
0.733068
21
0.185795
0
LINE
8
BLACK
6
CONTINUOUS
10
0.733068
20
0.185795
11
0.729319
21
0.18767
0
LINE
8
BLACK
6
CONTINUOUS
10
0.729319
20
0.18767
11
0.72861
21
0.188196
0
LINE
8
BLACK
6
CONTINUOUS
10
0.72861
20
0.188196
11
0.728551
21
0.188223
0
LINE
8
BLACK
6
CONTINUOUS
10
0.728551
20
0.188223
11
0.724802
21
0.191973
0
LINE
8
BLACK
6
CONTINUOUS
10
0.724802
20
0.191973
11
0.724214
21
0.192813
0
LINE
8
BLACK
6
CONTINUOUS
10
0.724214
20
0.192813
11
0.724198
21
0.192989
0
LINE
8
BLACK
6
CONTINUOUS
10
0.724198
20
0.192989
11
0.724089
21
0.193127
0
LINE
8
BLACK
6
CONTINUOUS
10
0.724089
20
0.193127
11
0.722214
21
0.198751
0
LINE
8
BLACK
6
CONTINUOUS
10
0.722214
20
0.198751
11
0.722084
21
0.199624
0
LINE
8
BLACK
6
CONTINUOUS
10
0.722084
20
0.199624
11
0.722062
21
0.199685
0
LINE
8
BLACK
6
CONTINUOUS
10
0.722062
20
0.199685
11
0.722062
21
0.209059
0
LINE
8
BLACK
6
CONTINUOUS
10
0.722062
20
0.209059
11
0.72213
21
0.209442
0
LINE
8
BLACK
6
CONTINUOUS
10
0.72213
20
0.209442
11
0.722107
21
0.209572
0
LINE
8
BLACK
6
CONTINUOUS
10
0.722107
20
0.209572
11
0.722173
21
0.209685
0
LINE
8
BLACK
6
CONTINUOUS
10
0.722173
20
0.209685
11
0.72224
21
0.210069
0
LINE
8
BLACK
6
CONTINUOUS
10
0.72224
20
0.210069
11
0.722733
21
0.210656
0
LINE
8
BLACK
6
CONTINUOUS
10
0.722733
20
0.210656
11
0.723117
21
0.211321
0
LINE
8
BLACK
6
CONTINUOUS
10
0.723117
20
0.211321
11
0.723367
21
0.211412
0
LINE
8
BLACK
6
CONTINUOUS
10
0.723367
20
0.211412
11
0.723539
21
0.211616
0
LINE
8
BLACK
6
CONTINUOUS
10
0.723539
20
0.211616
11
0.724294
21
0.211749
0
LINE
8
BLACK
6
CONTINUOUS
10
0.724294
20
0.211749
11
0.725015
21
0.212012
0
LINE
8
BLACK
6
CONTINUOUS
10
0.725015
20
0.212012
11
0.764385
21
0.212012
0
LINE
8
BLACK
6
CONTINUOUS
10
0.764385
20
0.212012
11
0.764769
21
0.211944
0
LINE
8
BLACK
6
CONTINUOUS
10
0.727968
20
0.206106
11
0.727968
21
0.200164
0
LINE
8
BLACK
6
CONTINUOUS
10
0.727968
20
0.200164
11
0.729471
21
0.195656
0
LINE
8
BLACK
6
CONTINUOUS
10
0.729471
20
0.195656
11
0.732388
21
0.192738
0
LINE
8
BLACK
6
CONTINUOUS
10
0.732388
20
0.192738
11
0.735419
21
0.191222
0
LINE
8
BLACK
6
CONTINUOUS
10
0.735419
20
0.191222
11
0.742251
21
0.189514
0
LINE
8
BLACK
6
CONTINUOUS
10
0.742251
20
0.189514
11
0.747149
21
0.189514
0
LINE
8
BLACK
6
CONTINUOUS
10
0.747149
20
0.189514
11
0.753981
21
0.191222
0
LINE
8
BLACK
6
CONTINUOUS
10
0.753981
20
0.191222
11
0.757012
21
0.192738
0
LINE
8
BLACK
6
CONTINUOUS
10
0.757012
20
0.192738
11
0.759929
21
0.195656
0
LINE
8
BLACK
6
CONTINUOUS
10
0.759929
20
0.195656
11
0.761432
21
0.200164
0
LINE
8
BLACK
6
CONTINUOUS
10
0.761432
20
0.200164
11
0.761432
21
0.206106
0
LINE
8
BLACK
6
CONTINUOUS
10
0.761432
20
0.206106
11
0.727968
21
0.206106
0
LINE
8
BLACK
6
CONTINUOUS
10
0.75882
20
0.298086
11
0.760367
21
0.296788
0
LINE
8
BLACK
6
CONTINUOUS
10
0.760367
20
0.296788
11
0.760718
21
0.294798
0
LINE
8
BLACK
6
CONTINUOUS
10
0.760718
20
0.294798
11
0.759708
21
0.293049
0
LINE
8
BLACK
6
CONTINUOUS
10
0.759708
20
0.293049
11
0.75781
21
0.292358
0
LINE
8
BLACK
6
CONTINUOUS
10
0.75781
20
0.292358
11
0.74216
21
0.292358
0
LINE
8
BLACK
6
CONTINUOUS
10
0.74216
20
0.292358
11
0.739808
21
0.290006
0
LINE
8
BLACK
6
CONTINUOUS
10
0.739808
20
0.290006
11
0.759582
21
0.275176
0
LINE
8
BLACK
6
CONTINUOUS
10
0.759582
20
0.275176
11
0.760283
21
0.274428
0
LINE
8
BLACK
6
CONTINUOUS
10
0.760283
20
0.274428
11
0.760742
21
0.272461
0
LINE
8
BLACK
6
CONTINUOUS
10
0.760742
20
0.272461
11
0.759829
21
0.270659
0
LINE
8
BLACK
6
CONTINUOUS
10
0.759829
20
0.270659
11
0.757971
21
0.269866
0
LINE
8
BLACK
6
CONTINUOUS
10
0.757971
20
0.269866
11
0.756039
21
0.270452
0
LINE
8
BLACK
6
CONTINUOUS
10
0.756039
20
0.270452
11
0.73559
21
0.285788
0
LINE
8
BLACK
6
CONTINUOUS
10
0.73559
20
0.285788
11
0.720528
21
0.270726
0
LINE
8
BLACK
6
CONTINUOUS
10
0.720528
20
0.270726
11
0.719688
21
0.270138
0
LINE
8
BLACK
6
CONTINUOUS
10
0.719688
20
0.270138
11
0.717676
21
0.269962
0
LINE
8
BLACK
6
CONTINUOUS
10
0.717676
20
0.269962
11
0.716021
21
0.27112
0
LINE
8
BLACK
6
CONTINUOUS
10
0.716021
20
0.27112
11
0.715499
21
0.273071
0
LINE
8
BLACK
6
CONTINUOUS
10
0.715499
20
0.273071
11
0.716352
21
0.274902
0
LINE
8
BLACK
6
CONTINUOUS
10
0.716352
20
0.274902
11
0.733809
21
0.292358
0
LINE
8
BLACK
6
CONTINUOUS
10
0.733809
20
0.292358
11
0.71844
21
0.292358
0
LINE
8
BLACK
6
CONTINUOUS
10
0.71844
20
0.292358
11
0.71743
21
0.292536
0
LINE
8
BLACK
6
CONTINUOUS
10
0.71743
20
0.292536
11
0.715883
21
0.293835
0
LINE
8
BLACK
6
CONTINUOUS
10
0.715883
20
0.293835
11
0.715532
21
0.295824
0
LINE
8
BLACK
6
CONTINUOUS
10
0.715532
20
0.295824
11
0.716542
21
0.297573
0
LINE
8
BLACK
6
CONTINUOUS
10
0.716542
20
0.297573
11
0.71844
21
0.298264
0
LINE
8
BLACK
6
CONTINUOUS
10
0.71844
20
0.298264
11
0.75781
21
0.298264
0
LINE
8
BLACK
6
CONTINUOUS
10
0.75781
20
0.298264
11
0.75882
21
0.298086
0
LINE
8
BLACK
6
CONTINUOUS
10
1.10321
20
0.355775
11
1.10476
21
0.354476
0
LINE
8
BLACK
6
CONTINUOUS
10
1.10476
20
0.354476
11
1.10511
21
0.352487
0
LINE
8
BLACK
6
CONTINUOUS
10
1.10511
20
0.352487
11
1.1041
21
0.350738
0
LINE
8
BLACK
6
CONTINUOUS
10
1.1041
20
0.350738
11
1.1022
21
0.350047
0
LINE
8
BLACK
6
CONTINUOUS
10
1.1022
20
0.350047
11
0.866
21
0.350047
0
LINE
8
BLACK
6
CONTINUOUS
10
0.866
20
0.350047
11
0.86499
21
0.350225
0
LINE
8
BLACK
6
CONTINUOUS
10
0.86499
20
0.350225
11
0.863443
21
0.351524
0
LINE
8
BLACK
6
CONTINUOUS
10
0.863443
20
0.351524
11
0.863092
21
0.353513
0
LINE
8
BLACK
6
CONTINUOUS
10
0.863092
20
0.353513
11
0.864102
21
0.355262
0
LINE
8
BLACK
6
CONTINUOUS
10
0.864102
20
0.355262
11
0.866
21
0.355953
0
LINE
8
BLACK
6
CONTINUOUS
10
0.866
20
0.355953
11
1.1022
21
0.355953
0
LINE
8
BLACK
6
CONTINUOUS
10
1.1022
20
0.355953
11
1.10321
21
0.355775
0
LINE
8
BLACK
6
CONTINUOUS
10
0.817962
20
0.488798
11
0.818653
21
0.4869
0
LINE
8
BLACK
6
CONTINUOUS
10
0.818653
20
0.4869
11
0.818653
21
0.3531
0
LINE
8
BLACK
6
CONTINUOUS
10
0.818653
20
0.3531
11
0.818475
21
0.35209
0
LINE
8
BLACK
6
CONTINUOUS
10
0.818475
20
0.35209
11
0.817176
21
0.350543
0
LINE
8
BLACK
6
CONTINUOUS
10
0.817176
20
0.350543
11
0.815187
21
0.350192
0
LINE
8
BLACK
6
CONTINUOUS
10
0.815187
20
0.350192
11
0.815156
21
0.35021
0
LINE
8
BLACK
6
CONTINUOUS
10
0.815156
20
0.35021
11
0.814487
21
0.350092
0
LINE
8
BLACK
6
CONTINUOUS
10
0.814487
20
0.350092
11
0.812738
21
0.351102
0
LINE
8
BLACK
6
CONTINUOUS
10
0.812738
20
0.351102
11
0.812047
21
0.353
0
LINE
8
BLACK
6
CONTINUOUS
10
0.812047
20
0.353
11
0.812047
21
0.4868
0
LINE
8
BLACK
6
CONTINUOUS
10
0.812047
20
0.4868
11
0.812225
21
0.48781
0
LINE
8
BLACK
6
CONTINUOUS
10
0.812225
20
0.48781
11
0.813524
21
0.489357
0
LINE
8
BLACK
6
CONTINUOUS
10
0.813524
20
0.489357
11
0.815513
21
0.489708
0
LINE
8
BLACK
6
CONTINUOUS
10
0.815513
20
0.489708
11
0.815544
21
0.48969
0
LINE
8
BLACK
6
CONTINUOUS
10
0.815544
20
0.48969
11
0.816213
21
0.489808
0
LINE
8
BLACK
6
CONTINUOUS
10
0.816213
20
0.489808
11
0.817962
21
0.488798
0
LINE
8
BLACK
6
CONTINUOUS
10
0.77601
20
0.360275
11
0.777557
21
0.358976
0
LINE
8
BLACK
6
CONTINUOUS
10
0.777557
20
0.358976
11
0.777908
21
0.356987
0
LINE
8
BLACK
6
CONTINUOUS
10
0.777908
20
0.356987
11
0.776898
21
0.355238
0
LINE
8
BLACK
6
CONTINUOUS
10
0.776898
20
0.355238
11
0.775
21
0.354547
0
LINE
8
BLACK
6
CONTINUOUS
10
0.775
20
0.354547
11
0.715
21
0.354547
0
LINE
8
BLACK
6
CONTINUOUS
10
0.715
20
0.354547
11
0.71399
21
0.354725
0
LINE
8
BLACK
6
CONTINUOUS
10
0.71399
20
0.354725
11
0.712443
21
0.356024
0
LINE
8
BLACK
6
CONTINUOUS
10
0.712443
20
0.356024
11
0.712092
21
0.358013
0
LINE
8
BLACK
6
CONTINUOUS
10
0.712092
20
0.358013
11
0.713102
21
0.359762
0
LINE
8
BLACK
6
CONTINUOUS
10
0.713102
20
0.359762
11
0.715
21
0.360453
0
LINE
8
BLACK
6
CONTINUOUS
10
0.715
20
0.360453
11
0.775
21
0.360453
0
LINE
8
BLACK
6
CONTINUOUS
10
0.775
20
0.360453
11
0.77601
21
0.360275
0
LINE
8
BLACK
6
CONTINUOUS
10
0.689762
20
0.429398
11
0.690453
21
0.4275
0
LINE
8
BLACK
6
CONTINUOUS
10
0.690453
20
0.4275
11
0.690453
21
0.3675
0
LINE
8
BLACK
6
CONTINUOUS
10
0.690453
20
0.3675
11
0.690275
21
0.36649
0
LINE
8
BLACK
6
CONTINUOUS
10
0.690275
20
0.36649
11
0.688976
21
0.364943
0
LINE
8
BLACK
6
CONTINUOUS
10
0.688976
20
0.364943
11
0.686987
21
0.364592
0
LINE
8
BLACK
6
CONTINUOUS
10
0.686987
20
0.364592
11
0.685238
21
0.365602
0
LINE
8
BLACK
6
CONTINUOUS
10
0.685238
20
0.365602
11
0.684547
21
0.3675
0
LINE
8
BLACK
6
CONTINUOUS
10
0.684547
20
0.3675
11
0.684547
21
0.4275
0
LINE
8
BLACK
6
CONTINUOUS
10
0.684547
20
0.4275
11
0.684725
21
0.42851
0
LINE
8
BLACK
6
CONTINUOUS
10
0.684725
20
0.42851
11
0.686024
21
0.430057
0
LINE
8
BLACK
6
CONTINUOUS
10
0.686024
20
0.430057
11
0.688013
21
0.430408
0
LINE
8
BLACK
6
CONTINUOUS
10
0.688013
20
0.430408
11
0.689762
21
0.429398
0
LINE
8
BLACK
6
CONTINUOUS
10
0.569762
20
0.429398
11
0.570453
21
0.4275
0
LINE
8
BLACK
6
CONTINUOUS
10
0.570453
20
0.4275
11
0.570453
21
0.3675
0
LINE
8
BLACK
6
CONTINUOUS
10
0.570453
20
0.3675
11
0.570275
21
0.36649
0
LINE
8
BLACK
6
CONTINUOUS
10
0.570275
20
0.36649
11
0.568976
21
0.364943
0
LINE
8
BLACK
6
CONTINUOUS
10
0.568976
20
0.364943
11
0.566987
21
0.364592
0
LINE
8
BLACK
6
CONTINUOUS
10
0.566987
20
0.364592
11
0.565238
21
0.365602
0
LINE
8
BLACK
6
CONTINUOUS
10
0.565238
20
0.365602
11
0.564547
21
0.3675
0
LINE
8
BLACK
6
CONTINUOUS
10
0.564547
20
0.3675
11
0.564547
21
0.4275
0
LINE
8
BLACK
6
CONTINUOUS
10
0.564547
20
0.4275
11
0.564725
21
0.42851
0
LINE
8
BLACK
6
CONTINUOUS
10
0.564725
20
0.42851
11
0.566024
21
0.430057
0
LINE
8
BLACK
6
CONTINUOUS
10
0.566024
20
0.430057
11
0.568013
21
0.430408
0
LINE
8
BLACK
6
CONTINUOUS
10
0.568013
20
0.430408
11
0.569762
21
0.429398
0
LINE
8
BLACK
6
CONTINUOUS
10
0.64417
20
0.36917
11
0.644862
21
0.3675
0
LINE
8
BLACK
6
CONTINUOUS
10
0.644862
20
0.3675
11
0.64417
21
0.36583
0
LINE
8
BLACK
6
CONTINUOUS
10
0.64417
20
0.36583
11
0.6425
21
0.365138
0
LINE
8
BLACK
6
CONTINUOUS
10
0.6425
20
0.365138
11
0.6125
21
0.365138
0
LINE
8
BLACK
6
CONTINUOUS
10
0.6125
20
0.365138
11
0.61083
21
0.36583
0
LINE
8
BLACK
6
CONTINUOUS
10
0.61083
20
0.36583
11
0.610138
21
0.3675
0
LINE
8
BLACK
6
CONTINUOUS
10
0.610138
20
0.3675
11
0.61083
21
0.36917
0
LINE
8
BLACK
6
CONTINUOUS
10
0.61083
20
0.36917
11
0.6125
21
0.369862
0
LINE
8
BLACK
6
CONTINUOUS
10
0.6125
20
0.369862
11
0.6425
21
0.369862
0
LINE
8
BLACK
6
CONTINUOUS
10
0.6425
20
0.369862
11
0.64417
21
0.36917
0
LINE
8
BLACK
6
CONTINUOUS
10
0.955143
20
0.420196
11
0.957339
21
0.418
0
LINE
8
BLACK
6
CONTINUOUS
10
0.957339
20
0.418
11
0.958143
21
0.415
0
LINE
8
BLACK
6
CONTINUOUS
10
0.958143
20
0.415
11
0.958143
21
0.39108
0
LINE
8
BLACK
6
CONTINUOUS
10
0.958143
20
0.39108
11
0.971049
21
0.402373
0
LINE
8
BLACK
6
CONTINUOUS
10
0.971049
20
0.402373
11
0.971581
21
0.402634
0
LINE
8
BLACK
6
CONTINUOUS
10
0.971581
20
0.402634
11
0.972
21
0.403053
0
LINE
8
BLACK
6
CONTINUOUS
10
0.972
20
0.403053
11
0.972952
21
0.403308
0
LINE
8
BLACK
6
CONTINUOUS
10
0.972952
20
0.403308
11
0.973836
21
0.403743
0
LINE
8
BLACK
6
CONTINUOUS
10
0.973836
20
0.403743
11
0.974427
21
0.403704
0
LINE
8
BLACK
6
CONTINUOUS
10
0.974427
20
0.403704
11
0.975
21
0.403857
0
LINE
8
BLACK
6
CONTINUOUS
10
0.975
20
0.403857
11
0.975952
21
0.403602
0
LINE
8
BLACK
6
CONTINUOUS
10
0.975952
20
0.403602
11
0.976935
21
0.403537
0
LINE
8
BLACK
6
CONTINUOUS
10
0.976935
20
0.403537
11
0.977427
21
0.403207
0
LINE
8
BLACK
6
CONTINUOUS
10
0.977427
20
0.403207
11
0.978
21
0.403053
0
LINE
8
BLACK
6
CONTINUOUS
10
0.978
20
0.403053
11
0.978697
21
0.402356
0
LINE
8
BLACK
6
CONTINUOUS
10
0.978697
20
0.402356
11
0.979515
21
0.401808
0
LINE
8
BLACK
6
CONTINUOUS
10
0.979515
20
0.401808
11
0.979777
21
0.401276
0
LINE
8
BLACK
6
CONTINUOUS
10
0.979777
20
0.401276
11
0.980196
21
0.400857
0
LINE
8
BLACK
6
CONTINUOUS
10
0.980196
20
0.400857
11
0.980451
21
0.399905
0
LINE
8
BLACK
6
CONTINUOUS
10
0.980451
20
0.399905
11
0.980886
21
0.399021
0
LINE
8
BLACK
6
CONTINUOUS
10
0.980886
20
0.399021
11
0.980847
21
0.39843
0
LINE
8
BLACK
6
CONTINUOUS
10
0.980847
20
0.39843
11
0.981
21
0.397857
0
LINE
8
BLACK
6
CONTINUOUS
10
0.981
20
0.397857
11
0.981
21
0.390702
0
LINE
8
BLACK
6
CONTINUOUS
10
0.981
20
0.390702
11
0.982788
21
0.387126
0
LINE
8
BLACK
6
CONTINUOUS
10
0.982788
20
0.387126
11
0.984268
21
0.385645
0
LINE
8
BLACK
6
CONTINUOUS
10
0.984268
20
0.385645
11
0.987845
21
0.383857
0
LINE
8
BLACK
6
CONTINUOUS
10
0.987845
20
0.383857
11
0.999298
21
0.383857
0
LINE
8
BLACK
6
CONTINUOUS
10
0.999298
20
0.383857
11
1.00287
21
0.385645
0
LINE
8
BLACK
6
CONTINUOUS
10
1.00287
20
0.385645
11
1.00435
21
0.387126
0
LINE
8
BLACK
6
CONTINUOUS
10
1.00435
20
0.387126
11
1.00614
21
0.390702
0
LINE
8
BLACK
6
CONTINUOUS
10
1.00614
20
0.390702
11
1.00614
21
0.405012
0
LINE
8
BLACK
6
CONTINUOUS
10
1.00614
20
0.405012
11
1.00435
21
0.408589
0
LINE
8
BLACK
6
CONTINUOUS
10
1.00435
20
0.408589
11
1.00219
21
0.410757
0
LINE
8
BLACK
6
CONTINUOUS
10
1.00219
20
0.410757
11
1.00063
21
0.413447
0
LINE
8
BLACK
6
CONTINUOUS
10
1.00063
20
0.413447
11
1.00063
21
0.416553
0
LINE
8
BLACK
6
CONTINUOUS
10
1.00063
20
0.416553
11
1.00219
21
0.419243
0
LINE
8
BLACK
6
CONTINUOUS
10
1.00219
20
0.419243
11
1.00488
21
0.420796
0
LINE
8
BLACK
6
CONTINUOUS
10
1.00488
20
0.420796
11
1.00798
21
0.420796
0
LINE
8
BLACK
6
CONTINUOUS
10
1.00798
20
0.420796
11
1.01067
21
0.419243
0
LINE
8
BLACK
6
CONTINUOUS
10
1.01067
20
0.419243
11
1.01353
21
0.416385
0
LINE
8
BLACK
6
CONTINUOUS
10
1.01353
20
0.416385
11
1.01401
21
0.415549
0
LINE
8
BLACK
6
CONTINUOUS
10
1.01401
20
0.415549
11
1.01465
21
0.414826
0
LINE
8
BLACK
6
CONTINUOUS
10
1.01465
20
0.414826
11
1.01751
21
0.409112
0
LINE
8
BLACK
6
CONTINUOUS
10
1.01751
20
0.409112
11
1.01779
21
0.407761
0
LINE
8
BLACK
6
CONTINUOUS
10
1.01779
20
0.407761
11
1.01814
21
0.406429
0
LINE
8
BLACK
6
CONTINUOUS
10
1.01814
20
0.406429
11
1.01814
21
0.389286
0
LINE
8
BLACK
6
CONTINUOUS
10
1.01814
20
0.389286
11
1.01779
21
0.387954
0
LINE
8
BLACK
6
CONTINUOUS
10
1.01779
20
0.387954
11
1.01751
21
0.386602
0
LINE
8
BLACK
6
CONTINUOUS
10
1.01751
20
0.386602
11
1.01465
21
0.380888
0
LINE
8
BLACK
6
CONTINUOUS
10
1.01465
20
0.380888
11
1.01401
21
0.380165
0
LINE
8
BLACK
6
CONTINUOUS
10
1.01401
20
0.380165
11
1.01353
21
0.379329
0
LINE
8
BLACK
6
CONTINUOUS
10
1.01353
20
0.379329
11
1.01067
21
0.376472
0
LINE
8
BLACK
6
CONTINUOUS
10
1.01067
20
0.376472
11
1.00983
21
0.375989
0
LINE
8
BLACK
6
CONTINUOUS
10
1.00983
20
0.375989
11
1.00911
21
0.375348
0
LINE
8
BLACK
6
CONTINUOUS
10
1.00911
20
0.375348
11
1.0034
21
0.372491
0
LINE
8
BLACK
6
CONTINUOUS
10
1.0034
20
0.372491
11
1.00205
21
0.372214
0
LINE
8
BLACK
6
CONTINUOUS
10
1.00205
20
0.372214
11
1.00071
21
0.371857
0
LINE
8
BLACK
6
CONTINUOUS
10
1.00071
20
0.371857
11
0.986429
21
0.371857
0
LINE
8
BLACK
6
CONTINUOUS
10
0.986429
20
0.371857
11
0.985096
21
0.372214
0
LINE
8
BLACK
6
CONTINUOUS
10
0.985096
20
0.372214
11
0.983745
21
0.372491
0
LINE
8
BLACK
6
CONTINUOUS
10
0.983745
20
0.372491
11
0.978031
21
0.375348
0
LINE
8
BLACK
6
CONTINUOUS
10
0.978031
20
0.375348
11
0.977308
21
0.375989
0
LINE
8
BLACK
6
CONTINUOUS
10
0.977308
20
0.375989
11
0.976472
21
0.376472
0
LINE
8
BLACK
6
CONTINUOUS
10
0.976472
20
0.376472
11
0.973614
21
0.379329
0
LINE
8
BLACK
6
CONTINUOUS
10
0.973614
20
0.379329
11
0.973131
21
0.380165
0
LINE
8
BLACK
6
CONTINUOUS
10
0.973131
20
0.380165
11
0.972491
21
0.380888
0
LINE
8
BLACK
6
CONTINUOUS
10
0.972491
20
0.380888
11
0.970125
21
0.385619
0
LINE
8
BLACK
6
CONTINUOUS
10
0.970125
20
0.385619
11
0.956094
21
0.373342
0
LINE
8
BLACK
6
CONTINUOUS
10
0.956094
20
0.373342
11
0.955562
21
0.37308
0
LINE
8
BLACK
6
CONTINUOUS
10
0.955562
20
0.37308
11
0.955143
21
0.372661
0
LINE
8
BLACK
6
CONTINUOUS
10
0.955143
20
0.372661
11
0.954191
21
0.372406
0
LINE
8
BLACK
6
CONTINUOUS
10
0.954191
20
0.372406
11
0.953307
21
0.371971
0
LINE
8
BLACK
6
CONTINUOUS
10
0.953307
20
0.371971
11
0.952715
21
0.372011
0
LINE
8
BLACK
6
CONTINUOUS
10
0.952715
20
0.372011
11
0.952143
21
0.371857
0
LINE
8
BLACK
6
CONTINUOUS
10
0.952143
20
0.371857
11
0.951191
21
0.372112
0
LINE
8
BLACK
6
CONTINUOUS
10
0.951191
20
0.372112
11
0.950208
21
0.372178
0
LINE
8
BLACK
6
CONTINUOUS
10
0.950208
20
0.372178
11
0.949715
21
0.372508
0
LINE
8
BLACK
6
CONTINUOUS
10
0.949715
20
0.372508
11
0.949143
21
0.372661
0
LINE
8
BLACK
6
CONTINUOUS
10
0.949143
20
0.372661
11
0.948446
21
0.373358
0
LINE
8
BLACK
6
CONTINUOUS
10
0.948446
20
0.373358
11
0.947627
21
0.373906
0
LINE
8
BLACK
6
CONTINUOUS
10
0.947627
20
0.373906
11
0.947366
21
0.374438
0
LINE
8
BLACK
6
CONTINUOUS
10
0.947366
20
0.374438
11
0.946947
21
0.374857
0
LINE
8
BLACK
6
CONTINUOUS
10
0.946947
20
0.374857
11
0.946692
21
0.375809
0
LINE
8
BLACK
6
CONTINUOUS
10
0.946692
20
0.375809
11
0.946257
21
0.376693
0
LINE
8
BLACK
6
CONTINUOUS
10
0.946257
20
0.376693
11
0.946296
21
0.377285
0
LINE
8
BLACK
6
CONTINUOUS
10
0.946296
20
0.377285
11
0.946143
21
0.377857
0
LINE
8
BLACK
6
CONTINUOUS
10
0.946143
20
0.377857
11
0.946143
21
0.415
0
LINE
8
BLACK
6
CONTINUOUS
10
0.946143
20
0.415
11
0.946947
21
0.418
0
LINE
8
BLACK
6
CONTINUOUS
10
0.946947
20
0.418
11
0.949143
21
0.420196
0
LINE
8
BLACK
6
CONTINUOUS
10
0.949143
20
0.420196
11
0.952143
21
0.421
0
LINE
8
BLACK
6
CONTINUOUS
10
0.952143
20
0.421
11
0.955143
21
0.420196
0
LINE
8
BLACK
6
CONTINUOUS
10
0.77667
20
0.43417
11
0.777362
21
0.4325
0
LINE
8
BLACK
6
CONTINUOUS
10
0.777362
20
0.4325
11
0.777362
21
0.4025
0
LINE
8
BLACK
6
CONTINUOUS
10
0.777362
20
0.4025
11
0.77667
21
0.40083
0
LINE
8
BLACK
6
CONTINUOUS
10
0.77667
20
0.40083
11
0.775
21
0.400138
0
LINE
8
BLACK
6
CONTINUOUS
10
0.775
20
0.400138
11
0.77333
21
0.40083
0
LINE
8
BLACK
6
CONTINUOUS
10
0.77333
20
0.40083
11
0.772638
21
0.4025
0
LINE
8
BLACK
6
CONTINUOUS
10
0.772638
20
0.4025
11
0.772638
21
0.4325
0
LINE
8
BLACK
6
CONTINUOUS
10
0.772638
20
0.4325
11
0.77333
21
0.43417
0
LINE
8
BLACK
6
CONTINUOUS
10
0.77333
20
0.43417
11
0.775
21
0.434862
0
LINE
8
BLACK
6
CONTINUOUS
10
0.775
20
0.434862
11
0.77667
21
0.43417
0
LINE
8
BLACK
6
CONTINUOUS
10
0.71667
20
0.43417
11
0.717362
21
0.4325
0
LINE
8
BLACK
6
CONTINUOUS
10
0.717362
20
0.4325
11
0.717362
21
0.4025
0
LINE
8
BLACK
6
CONTINUOUS
10
0.717362
20
0.4025
11
0.71667
21
0.40083
0
LINE
8
BLACK
6
CONTINUOUS
10
0.71667
20
0.40083
11
0.715
21
0.400138
0
LINE
8
BLACK
6
CONTINUOUS
10
0.715
20
0.400138
11
0.71333
21
0.40083
0
LINE
8
BLACK
6
CONTINUOUS
10
0.71333
20
0.40083
11
0.712638
21
0.4025
0
LINE
8
BLACK
6
CONTINUOUS
10
0.712638
20
0.4025
11
0.712638
21
0.4325
0
LINE
8
BLACK
6
CONTINUOUS
10
0.712638
20
0.4325
11
0.71333
21
0.43417
0
LINE
8
BLACK
6
CONTINUOUS
10
0.71333
20
0.43417
11
0.715
21
0.434862
0
LINE
8
BLACK
6
CONTINUOUS
10
0.715
20
0.434862
11
0.71667
21
0.43417
0
LINE
8
BLACK
6
CONTINUOUS
10
0.64417
20
0.42917
11
0.644862
21
0.4275
0
LINE
8
BLACK
6
CONTINUOUS
10
0.644862
20
0.4275
11
0.64417
21
0.42583
0
LINE
8
BLACK
6
CONTINUOUS
10
0.64417
20
0.42583
11
0.6425
21
0.425138
0
LINE
8
BLACK
6
CONTINUOUS
10
0.6425
20
0.425138
11
0.6125
21
0.425138
0
LINE
8
BLACK
6
CONTINUOUS
10
0.6125
20
0.425138
11
0.61083
21
0.42583
0
LINE
8
BLACK
6
CONTINUOUS
10
0.61083
20
0.42583
11
0.610138
21
0.4275
0
LINE
8
BLACK
6
CONTINUOUS
10
0.610138
20
0.4275
11
0.61083
21
0.42917
0
LINE
8
BLACK
6
CONTINUOUS
10
0.61083
20
0.42917
11
0.6125
21
0.429862
0
LINE
8
BLACK
6
CONTINUOUS
10
0.6125
20
0.429862
11
0.6425
21
0.429862
0
LINE
8
BLACK
6
CONTINUOUS
10
0.6425
20
0.429862
11
0.64417
21
0.42917
0
LINE
8
BLACK
6
CONTINUOUS
10
0.987144
20
0.477951
11
0.987884
21
0.477964
0
LINE
8
BLACK
6
CONTINUOUS
10
0.987884
20
0.477964
11
0.999312
21
0.475107
0
LINE
8
BLACK
6
CONTINUOUS
10
0.999312
20
0.475107
11
0.999891
21
0.474785
0
LINE
8
BLACK
6
CONTINUOUS
10
0.999891
20
0.474785
11
1.00054
21
0.474652
0
LINE
8
BLACK
6
CONTINUOUS
10
1.00054
20
0.474652
11
1.00625
21
0.471795
0
LINE
8
BLACK
6
CONTINUOUS
10
1.00625
20
0.471795
11
1.00698
21
0.471154
0
LINE
8
BLACK
6
CONTINUOUS
10
1.00698
20
0.471154
11
1.00781
21
0.470671
0
LINE
8
BLACK
6
CONTINUOUS
10
1.00781
20
0.470671
11
1.01353
21
0.464957
0
LINE
8
BLACK
6
CONTINUOUS
10
1.01353
20
0.464957
11
1.01422
21
0.463762
0
LINE
8
BLACK
6
CONTINUOUS
10
1.01422
20
0.463762
11
1.01498
21
0.462612
0
LINE
8
BLACK
6
CONTINUOUS
10
1.01498
20
0.462612
11
1.01783
21
0.45404
0
LINE
8
BLACK
6
CONTINUOUS
10
1.01783
20
0.45404
11
1.01789
21
0.453076
0
LINE
8
BLACK
6
CONTINUOUS
10
1.01789
20
0.453076
11
1.01814
21
0.452143
0
LINE
8
BLACK
6
CONTINUOUS
10
1.01814
20
0.452143
11
1.01814
21
0.446429
0
LINE
8
BLACK
6
CONTINUOUS
10
1.01814
20
0.446429
11
1.01789
21
0.445496
0
LINE
8
BLACK
6
CONTINUOUS
10
1.01789
20
0.445496
11
1.01783
21
0.444531
0
LINE
8
BLACK
6
CONTINUOUS
10
1.01783
20
0.444531
11
1.01498
21
0.43596
0
LINE
8
BLACK
6
CONTINUOUS
10
1.01498
20
0.43596
11
1.01422
21
0.434809
0
LINE
8
BLACK
6
CONTINUOUS
10
1.01422
20
0.434809
11
1.01353
21
0.433614
0
LINE
8
BLACK
6
CONTINUOUS
10
1.01353
20
0.433614
11
1.01067
21
0.430757
0
LINE
8
BLACK
6
CONTINUOUS
10
1.01067
20
0.430757
11
1.00798
21
0.429204
0
LINE
8
BLACK
6
CONTINUOUS
10
1.00798
20
0.429204
11
1.00488
21
0.429204
0
LINE
8
BLACK
6
CONTINUOUS
10
1.00488
20
0.429204
11
1.00219
21
0.430757
0
LINE
8
BLACK
6
CONTINUOUS
10
1.00219
20
0.430757
11
1.00063
21
0.433447
0
LINE
8
BLACK
6
CONTINUOUS
10
1.00063
20
0.433447
11
1.00063
21
0.436553
0
LINE
8
BLACK
6
CONTINUOUS
10
1.00063
20
0.436553
11
1.00219
21
0.439243
0
LINE
8
BLACK
6
CONTINUOUS
10
1.00219
20
0.439243
11
1.00404
21
0.441098
0
LINE
8
BLACK
6
CONTINUOUS
10
1.00404
20
0.441098
11
1.00614
21
0.447402
0
LINE
8
BLACK
6
CONTINUOUS
10
1.00614
20
0.447402
11
1.00614
21
0.451169
0
LINE
8
BLACK
6
CONTINUOUS
10
1.00614
20
0.451169
11
1.00404
21
0.457473
0
LINE
8
BLACK
6
CONTINUOUS
10
1.00404
20
0.457473
11
1.00002
21
0.461497
0
LINE
8
BLACK
6
CONTINUOUS
10
1.00002
20
0.461497
11
0.995763
21
0.463625
0
LINE
8
BLACK
6
CONTINUOUS
10
0.995763
20
0.463625
11
0.98569
21
0.466143
0
LINE
8
BLACK
6
CONTINUOUS
10
0.98569
20
0.466143
11
0.978596
21
0.466143
0
LINE
8
BLACK
6
CONTINUOUS
10
0.978596
20
0.466143
11
0.968523
21
0.463625
0
LINE
8
BLACK
6
CONTINUOUS
10
0.968523
20
0.463625
11
0.964268
21
0.461497
0
LINE
8
BLACK
6
CONTINUOUS
10
0.964268
20
0.461497
11
0.960244
21
0.457473
0
LINE
8
BLACK
6
CONTINUOUS
10
0.960244
20
0.457473
11
0.958143
21
0.451169
0
LINE
8
BLACK
6
CONTINUOUS
10
0.958143
20
0.451169
11
0.958143
21
0.447402
0
LINE
8
BLACK
6
CONTINUOUS
10
0.958143
20
0.447402
11
0.960244
21
0.441098
0
LINE
8
BLACK
6
CONTINUOUS
10
0.960244
20
0.441098
11
0.9621
21
0.439243
0
LINE
8
BLACK
6
CONTINUOUS
10
0.9621
20
0.439243
11
0.963653
21
0.436553
0
LINE
8
BLACK
6
CONTINUOUS
10
0.963653
20
0.436553
11
0.963653
21
0.433447
0
LINE
8
BLACK
6
CONTINUOUS
10
0.963653
20
0.433447
11
0.9621
21
0.430757
0
LINE
8
BLACK
6
CONTINUOUS
10
0.9621
20
0.430757
11
0.95941
21
0.429204
0
LINE
8
BLACK
6
CONTINUOUS
10
0.95941
20
0.429204
11
0.956304
21
0.429204
0
LINE
8
BLACK
6
CONTINUOUS
10
0.956304
20
0.429204
11
0.953614
21
0.430757
0
LINE
8
BLACK
6
CONTINUOUS
10
0.953614
20
0.430757
11
0.950757
21
0.433614
0
LINE
8
BLACK
6
CONTINUOUS
10
0.950757
20
0.433614
11
0.950068
21
0.434809
0
LINE
8
BLACK
6
CONTINUOUS
10
0.950068
20
0.434809
11
0.949308
21
0.43596
0
LINE
8
BLACK
6
CONTINUOUS
10
0.949308
20
0.43596
11
0.946451
21
0.444531
0
LINE
8
BLACK
6
CONTINUOUS
10
0.946451
20
0.444531
11
0.946393
21
0.445495
0
LINE
8
BLACK
6
CONTINUOUS
10
0.946393
20
0.445495
11
0.946143
21
0.446429
0
LINE
8
BLACK
6
CONTINUOUS
10
0.946143
20
0.446429
11
0.946143
21
0.452143
0
LINE
8
BLACK
6
CONTINUOUS
10
0.946143
20
0.452143
11
0.946393
21
0.453076
0
LINE
8
BLACK
6
CONTINUOUS
10
0.946393
20
0.453076
11
0.946451
21
0.45404
0
LINE
8
BLACK
6
CONTINUOUS
10
0.946451
20
0.45404
11
0.949308
21
0.462612
0
LINE
8
BLACK
6
CONTINUOUS
10
0.949308
20
0.462612
11
0.950068
21
0.463763
0
LINE
8
BLACK
6
CONTINUOUS
10
0.950068
20
0.463763
11
0.950757
21
0.464957
0
LINE
8
BLACK
6
CONTINUOUS
10
0.950757
20
0.464957
11
0.956472
21
0.470671
0
LINE
8
BLACK
6
CONTINUOUS
10
0.956472
20
0.470671
11
0.957308
21
0.471154
0
LINE
8
BLACK
6
CONTINUOUS
10
0.957308
20
0.471154
11
0.958031
21
0.471795
0
LINE
8
BLACK
6
CONTINUOUS
10
0.958031
20
0.471795
11
0.963745
21
0.474652
0
LINE
8
BLACK
6
CONTINUOUS
10
0.963745
20
0.474652
11
0.964394
21
0.474785
0
LINE
8
BLACK
6
CONTINUOUS
10
0.964394
20
0.474785
11
0.964973
21
0.475107
0
LINE
8
BLACK
6
CONTINUOUS
10
0.964973
20
0.475107
11
0.976402
21
0.477964
0
LINE
8
BLACK
6
CONTINUOUS
10
0.976402
20
0.477964
11
0.977142
21
0.477951
0
LINE
8
BLACK
6
CONTINUOUS
10
0.977142
20
0.477951
11
0.977857
21
0.478143
0
LINE
8
BLACK
6
CONTINUOUS
10
0.977857
20
0.478143
11
0.986429
21
0.478143
0
LINE
8
BLACK
6
CONTINUOUS
10
0.986429
20
0.478143
11
0.987144
21
0.477951
0
LINE
8
BLACK
6
CONTINUOUS
10
0.77601
20
0.480275
11
0.777557
21
0.478976
0
LINE
8
BLACK
6
CONTINUOUS
10
0.777557
20
0.478976
11
0.777908
21
0.476987
0
LINE
8
BLACK
6
CONTINUOUS
10
0.777908
20
0.476987
11
0.776898
21
0.475238
0
LINE
8
BLACK
6
CONTINUOUS
10
0.776898
20
0.475238
11
0.775
21
0.474547
0
LINE
8
BLACK
6
CONTINUOUS
10
0.775
20
0.474547
11
0.715
21
0.474547
0
LINE
8
BLACK
6
CONTINUOUS
10
0.715
20
0.474547
11
0.71399
21
0.474725
0
LINE
8
BLACK
6
CONTINUOUS
10
0.71399
20
0.474725
11
0.712443
21
0.476024
0
LINE
8
BLACK
6
CONTINUOUS
10
0.712443
20
0.476024
11
0.712092
21
0.478013
0
LINE
8
BLACK
6
CONTINUOUS
10
0.712092
20
0.478013
11
0.713102
21
0.479762
0
LINE
8
BLACK
6
CONTINUOUS
10
0.713102
20
0.479762
11
0.715
21
0.480453
0
LINE
8
BLACK
6
CONTINUOUS
10
0.715
20
0.480453
11
0.775
21
0.480453
0
LINE
8
BLACK
6
CONTINUOUS
10
0.775
20
0.480453
11
0.77601
21
0.480275
0
LINE
8
BLACK
6
CONTINUOUS
10
0.29601
20
0.485275
11
0.297557
21
0.483976
0
LINE
8
BLACK
6
CONTINUOUS
10
0.297557
20
0.483976
11
0.297908
21
0.481987
0
LINE
8
BLACK
6
CONTINUOUS
10
0.297908
20
0.481987
11
0.296898
21
0.480238
0
LINE
8
BLACK
6
CONTINUOUS
10
0.296898
20
0.480238
11
0.295
21
0.479547
0
LINE
8
BLACK
6
CONTINUOUS
10
0.295
20
0.479547
11
0.235
21
0.479547
0
LINE
8
BLACK
6
CONTINUOUS
10
0.235
20
0.479547
11
0.23399
21
0.479725
0
LINE
8
BLACK
6
CONTINUOUS
10
0.23399
20
0.479725
11
0.232443
21
0.481024
0
LINE
8
BLACK
6
CONTINUOUS
10
0.232443
20
0.481024
11
0.232092
21
0.483013
0
LINE
8
BLACK
6
CONTINUOUS
10
0.232092
20
0.483013
11
0.233102
21
0.484762
0
LINE
8
BLACK
6
CONTINUOUS
10
0.233102
20
0.484762
11
0.235
21
0.485453
0
LINE
8
BLACK
6
CONTINUOUS
10
0.235
20
0.485453
11
0.295
21
0.485453
0
LINE
8
BLACK
6
CONTINUOUS
10
0.295
20
0.485453
11
0.29601
21
0.485275
0
LINE
8
BLACK
6
CONTINUOUS
10
1.10411
20
0.489675
11
1.10566
21
0.488376
0
LINE
8
BLACK
6
CONTINUOUS
10
1.10566
20
0.488376
11
1.10601
21
0.486387
0
LINE
8
BLACK
6
CONTINUOUS
10
1.10601
20
0.486387
11
1.105
21
0.484638
0
LINE
8
BLACK
6
CONTINUOUS
10
1.105
20
0.484638
11
1.1031
21
0.483947
0
LINE
8
BLACK
6
CONTINUOUS
10
1.1031
20
0.483947
11
0.8669
21
0.483947
0
LINE
8
BLACK
6
CONTINUOUS
10
0.8669
20
0.483947
11
0.86589
21
0.484125
0
LINE
8
BLACK
6
CONTINUOUS
10
0.86589
20
0.484125
11
0.864343
21
0.485424
0
LINE
8
BLACK
6
CONTINUOUS
10
0.864343
20
0.485424
11
0.863992
21
0.487413
0
LINE
8
BLACK
6
CONTINUOUS
10
0.863992
20
0.487413
11
0.865002
21
0.489162
0
LINE
8
BLACK
6
CONTINUOUS
10
0.865002
20
0.489162
11
0.8669
21
0.489853
0
LINE
8
BLACK
6
CONTINUOUS
10
0.8669
20
0.489853
11
1.1031
21
0.489853
0
LINE
8
BLACK
6
CONTINUOUS
10
1.1031
20
0.489853
11
1.10411
21
0.489675
0
LINE
8
BLACK
6
CONTINUOUS
10
0.849762
20
0.551898
11
0.850453
21
0.55
0
LINE
8
BLACK
6
CONTINUOUS
10
0.850453
20
0.55
11
0.850453
21
0.49
0
LINE
8
BLACK
6
CONTINUOUS
10
0.850453
20
0.49
11
0.850275
21
0.48899
0
LINE
8
BLACK
6
CONTINUOUS
10
0.850275
20
0.48899
11
0.848976
21
0.487443
0
LINE
8
BLACK
6
CONTINUOUS
10
0.848976
20
0.487443
11
0.846987
21
0.487092
0
LINE
8
BLACK
6
CONTINUOUS
10
0.846987
20
0.487092
11
0.845238
21
0.488102
0
LINE
8
BLACK
6
CONTINUOUS
10
0.845238
20
0.488102
11
0.844547
21
0.49
0
LINE
8
BLACK
6
CONTINUOUS
10
0.844547
20
0.49
11
0.844547
21
0.55
0
LINE
8
BLACK
6
CONTINUOUS
10
0.844547
20
0.55
11
0.844725
21
0.55101
0
LINE
8
BLACK
6
CONTINUOUS
10
0.844725
20
0.55101
11
0.846024
21
0.552557
0
LINE
8
BLACK
6
CONTINUOUS
10
0.846024
20
0.552557
11
0.848013
21
0.552908
0
LINE
8
BLACK
6
CONTINUOUS
10
0.848013
20
0.552908
11
0.849762
21
0.551898
0
LINE
8
BLACK
6
CONTINUOUS
10
0.729762
20
0.551898
11
0.730453
21
0.55
0
LINE
8
BLACK
6
CONTINUOUS
10
0.730453
20
0.55
11
0.730453
21
0.49
0
LINE
8
BLACK
6
CONTINUOUS
10
0.730453
20
0.49
11
0.730275
21
0.48899
0
LINE
8
BLACK
6
CONTINUOUS
10
0.730275
20
0.48899
11
0.728976
21
0.487443
0
LINE
8
BLACK
6
CONTINUOUS
10
0.728976
20
0.487443
11
0.726987
21
0.487092
0
LINE
8
BLACK
6
CONTINUOUS
10
0.726987
20
0.487092
11
0.725238
21
0.488102
0
LINE
8
BLACK
6
CONTINUOUS
10
0.725238
20
0.488102
11
0.724547
21
0.49
0
LINE
8
BLACK
6
CONTINUOUS
10
0.724547
20
0.49
11
0.724547
21
0.55
0
LINE
8
BLACK
6
CONTINUOUS
10
0.724547
20
0.55
11
0.724725
21
0.55101
0
LINE
8
BLACK
6
CONTINUOUS
10
0.724725
20
0.55101
11
0.726024
21
0.552557
0
LINE
8
BLACK
6
CONTINUOUS
10
0.726024
20
0.552557
11
0.728013
21
0.552908
0
LINE
8
BLACK
6
CONTINUOUS
10
0.728013
20
0.552908
11
0.729762
21
0.551898
0
LINE
8
BLACK
6
CONTINUOUS
10
0.80417
20
0.49167
11
0.804862
21
0.49
0
LINE
8
BLACK
6
CONTINUOUS
10
0.804862
20
0.49
11
0.80417
21
0.48833
0
LINE
8
BLACK
6
CONTINUOUS
10
0.80417
20
0.48833
11
0.8025
21
0.487638
0
LINE
8
BLACK
6
CONTINUOUS
10
0.8025
20
0.487638
11
0.7725
21
0.487638
0
LINE
8
BLACK
6
CONTINUOUS
10
0.7725
20
0.487638
11
0.77083
21
0.48833
0
LINE
8
BLACK
6
CONTINUOUS
10
0.77083
20
0.48833
11
0.770138
21
0.49
0
LINE
8
BLACK
6
CONTINUOUS
10
0.770138
20
0.49
11
0.77083
21
0.49167
0
LINE
8
BLACK
6
CONTINUOUS
10
0.77083
20
0.49167
11
0.7725
21
0.492362
0
LINE
8
BLACK
6
CONTINUOUS
10
0.7725
20
0.492362
11
0.8025
21
0.492362
0
LINE
8
BLACK
6
CONTINUOUS
10
0.8025
20
0.492362
11
0.80417
21
0.49167
0
LINE
8
BLACK
6
CONTINUOUS
10
0.53601
20
0.505275
11
0.537557
21
0.503976
0
LINE
8
BLACK
6
CONTINUOUS
10
0.537557
20
0.503976
11
0.537908
21
0.501987
0
LINE
8
BLACK
6
CONTINUOUS
10
0.537908
20
0.501987
11
0.536898
21
0.500238
0
LINE
8
BLACK
6
CONTINUOUS
10
0.536898
20
0.500238
11
0.535
21
0.499547
0
LINE
8
BLACK
6
CONTINUOUS
10
0.535
20
0.499547
11
0.475
21
0.499547
0
LINE
8
BLACK
6
CONTINUOUS
10
0.475
20
0.499547
11
0.47399
21
0.499725
0
LINE
8
BLACK
6
CONTINUOUS
10
0.47399
20
0.499725
11
0.472443
21
0.501024
0
LINE
8
BLACK
6
CONTINUOUS
10
0.472443
20
0.501024
11
0.472092
21
0.503013
0
LINE
8
BLACK
6
CONTINUOUS
10
0.472092
20
0.503013
11
0.473102
21
0.504762
0
LINE
8
BLACK
6
CONTINUOUS
10
0.473102
20
0.504762
11
0.475
21
0.505453
0
LINE
8
BLACK
6
CONTINUOUS
10
0.475
20
0.505453
11
0.535
21
0.505453
0
LINE
8
BLACK
6
CONTINUOUS
10
0.535
20
0.505453
11
0.53601
21
0.505275
0
LINE
8
BLACK
6
CONTINUOUS
10
0.61601
20
0.505275
11
0.617557
21
0.503976
0
LINE
8
BLACK
6
CONTINUOUS
10
0.617557
20
0.503976
11
0.617908
21
0.501987
0
LINE
8
BLACK
6
CONTINUOUS
10
0.617908
20
0.501987
11
0.616898
21
0.500238
0
LINE
8
BLACK
6
CONTINUOUS
10
0.616898
20
0.500238
11
0.615
21
0.499547
0
LINE
8
BLACK
6
CONTINUOUS
10
0.615
20
0.499547
11
0.555
21
0.499547
0
LINE
8
BLACK
6
CONTINUOUS
10
0.555
20
0.499547
11
0.55399
21
0.499725
0
LINE
8
BLACK
6
CONTINUOUS
10
0.55399
20
0.499725
11
0.552443
21
0.501024
0
LINE
8
BLACK
6
CONTINUOUS
10
0.552443
20
0.501024
11
0.552092
21
0.503013
0
LINE
8
BLACK
6
CONTINUOUS
10
0.552092
20
0.503013
11
0.553102
21
0.504762
0
LINE
8
BLACK
6
CONTINUOUS
10
0.553102
20
0.504762
11
0.555
21
0.505453
0
LINE
8
BLACK
6
CONTINUOUS
10
0.555
20
0.505453
11
0.615
21
0.505453
0
LINE
8
BLACK
6
CONTINUOUS
10
0.615
20
0.505453
11
0.61601
21
0.505275
0
LINE
8
BLACK
6
CONTINUOUS
10
0.69601
20
0.505275
11
0.697557
21
0.503976
0
LINE
8
BLACK
6
CONTINUOUS
10
0.697557
20
0.503976
11
0.697908
21
0.501987
0
LINE
8
BLACK
6
CONTINUOUS
10
0.697908
20
0.501987
11
0.696898
21
0.500238
0
LINE
8
BLACK
6
CONTINUOUS
10
0.696898
20
0.500238
11
0.695
21
0.499547
0
LINE
8
BLACK
6
CONTINUOUS
10
0.695
20
0.499547
11
0.635
21
0.499547
0
LINE
8
BLACK
6
CONTINUOUS
10
0.635
20
0.499547
11
0.63399
21
0.499725
0
LINE
8
BLACK
6
CONTINUOUS
10
0.63399
20
0.499725
11
0.632443
21
0.501024
0
LINE
8
BLACK
6
CONTINUOUS
10
0.632443
20
0.501024
11
0.632092
21
0.503013
0
LINE
8
BLACK
6
CONTINUOUS
10
0.632092
20
0.503013
11
0.633102
21
0.504762
0
LINE
8
BLACK
6
CONTINUOUS
10
0.633102
20
0.504762
11
0.635
21
0.505453
0
LINE
8
BLACK
6
CONTINUOUS
10
0.635
20
0.505453
11
0.695
21
0.505453
0
LINE
8
BLACK
6
CONTINUOUS
10
0.695
20
0.505453
11
0.69601
21
0.505275
0
LINE
8
BLACK
6
CONTINUOUS
10
0.23667
20
0.55917
11
0.237362
21
0.5575
0
LINE
8
BLACK
6
CONTINUOUS
10
0.237362
20
0.5575
11
0.237362
21
0.5275
0
LINE
8
BLACK
6
CONTINUOUS
10
0.237362
20
0.5275
11
0.23667
21
0.52583
0
LINE
8
BLACK
6
CONTINUOUS
10
0.23667
20
0.52583
11
0.235
21
0.525138
0
LINE
8
BLACK
6
CONTINUOUS
10
0.235
20
0.525138
11
0.23333
21
0.52583
0
LINE
8
BLACK
6
CONTINUOUS
10
0.23333
20
0.52583
11
0.232638
21
0.5275
0
LINE
8
BLACK
6
CONTINUOUS
10
0.232638
20
0.5275
11
0.232638
21
0.5575
0
LINE
8
BLACK
6
CONTINUOUS
10
0.232638
20
0.5575
11
0.23333
21
0.55917
0
LINE
8
BLACK
6
CONTINUOUS
10
0.23333
20
0.55917
11
0.235
21
0.559862
0
LINE
8
BLACK
6
CONTINUOUS
10
0.235
20
0.559862
11
0.23667
21
0.55917
0
LINE
8
BLACK
6
CONTINUOUS
10
0.29667
20
0.55917
11
0.297362
21
0.5575
0
LINE
8
BLACK
6
CONTINUOUS
10
0.297362
20
0.5575
11
0.297362
21
0.5275
0
LINE
8
BLACK
6
CONTINUOUS
10
0.297362
20
0.5275
11
0.29667
21
0.52583
0
LINE
8
BLACK
6
CONTINUOUS
10
0.29667
20
0.52583
11
0.295
21
0.525138
0
LINE
8
BLACK
6
CONTINUOUS
10
0.295
20
0.525138
11
0.29333
21
0.52583
0
LINE
8
BLACK
6
CONTINUOUS
10
0.29333
20
0.52583
11
0.292638
21
0.5275
0
LINE
8
BLACK
6
CONTINUOUS
10
0.292638
20
0.5275
11
0.292638
21
0.5575
0
LINE
8
BLACK
6
CONTINUOUS
10
0.292638
20
0.5575
11
0.29333
21
0.55917
0
LINE
8
BLACK
6
CONTINUOUS
10
0.29333
20
0.55917
11
0.295
21
0.559862
0
LINE
8
BLACK
6
CONTINUOUS
10
0.295
20
0.559862
11
0.29667
21
0.55917
0
LINE
8
BLACK
6
CONTINUOUS
10
0.63667
20
0.57917
11
0.637362
21
0.5775
0
LINE
8
BLACK
6
CONTINUOUS
10
0.637362
20
0.5775
11
0.637362
21
0.5475
0
LINE
8
BLACK
6
CONTINUOUS
10
0.637362
20
0.5475
11
0.63667
21
0.54583
0
LINE
8
BLACK
6
CONTINUOUS
10
0.63667
20
0.54583
11
0.635
21
0.545138
0
LINE
8
BLACK
6
CONTINUOUS
10
0.635
20
0.545138
11
0.63333
21
0.54583
0
LINE
8
BLACK
6
CONTINUOUS
10
0.63333
20
0.54583
11
0.632638
21
0.5475
0
LINE
8
BLACK
6
CONTINUOUS
10
0.632638
20
0.5475
11
0.632638
21
0.5775
0
LINE
8
BLACK
6
CONTINUOUS
10
0.632638
20
0.5775
11
0.63333
21
0.57917
0
LINE
8
BLACK
6
CONTINUOUS
10
0.63333
20
0.57917
11
0.635
21
0.579862
0
LINE
8
BLACK
6
CONTINUOUS
10
0.635
20
0.579862
11
0.63667
21
0.57917
0
LINE
8
BLACK
6
CONTINUOUS
10
0.61667
20
0.57917
11
0.617362
21
0.5775
0
LINE
8
BLACK
6
CONTINUOUS
10
0.617362
20
0.5775
11
0.617362
21
0.5475
0
LINE
8
BLACK
6
CONTINUOUS
10
0.617362
20
0.5475
11
0.61667
21
0.54583
0
LINE
8
BLACK
6
CONTINUOUS
10
0.61667
20
0.54583
11
0.615
21
0.545138
0
LINE
8
BLACK
6
CONTINUOUS
10
0.615
20
0.545138
11
0.61333
21
0.54583
0
LINE
8
BLACK
6
CONTINUOUS
10
0.61333
20
0.54583
11
0.612638
21
0.5475
0
LINE
8
BLACK
6
CONTINUOUS
10
0.612638
20
0.5475
11
0.612638
21
0.5775
0
LINE
8
BLACK
6
CONTINUOUS
10
0.612638
20
0.5775
11
0.61333
21
0.57917
0
LINE
8
BLACK
6
CONTINUOUS
10
0.61333
20
0.57917
11
0.615
21
0.579862
0
LINE
8
BLACK
6
CONTINUOUS
10
0.615
20
0.579862
11
0.61667
21
0.57917
0
LINE
8
BLACK
6
CONTINUOUS
10
0.47667
20
0.57917
11
0.477362
21
0.5775
0
LINE
8
BLACK
6
CONTINUOUS
10
0.477362
20
0.5775
11
0.477362
21
0.5475
0
LINE
8
BLACK
6
CONTINUOUS
10
0.477362
20
0.5475
11
0.47667
21
0.54583
0
LINE
8
BLACK
6
CONTINUOUS
10
0.47667
20
0.54583
11
0.475
21
0.545138
0
LINE
8
BLACK
6
CONTINUOUS
10
0.475
20
0.545138
11
0.47333
21
0.54583
0
LINE
8
BLACK
6
CONTINUOUS
10
0.47333
20
0.54583
11
0.472638
21
0.5475
0
LINE
8
BLACK
6
CONTINUOUS
10
0.472638
20
0.5475
11
0.472638
21
0.5775
0
LINE
8
BLACK
6
CONTINUOUS
10
0.472638
20
0.5775
11
0.47333
21
0.57917
0
LINE
8
BLACK
6
CONTINUOUS
10
0.47333
20
0.57917
11
0.475
21
0.579862
0
LINE
8
BLACK
6
CONTINUOUS
10
0.475
20
0.579862
11
0.47667
21
0.57917
0
LINE
8
BLACK
6
CONTINUOUS
10
0.53667
20
0.57917
11
0.537362
21
0.5775
0
LINE
8
BLACK
6
CONTINUOUS
10
0.537362
20
0.5775
11
0.537362
21
0.5475
0
LINE
8
BLACK
6
CONTINUOUS
10
0.537362
20
0.5475
11
0.53667
21
0.54583
0
LINE
8
BLACK
6
CONTINUOUS
10
0.53667
20
0.54583
11
0.535
21
0.545138
0
LINE
8
BLACK
6
CONTINUOUS
10
0.535
20
0.545138
11
0.53333
21
0.54583
0
LINE
8
BLACK
6
CONTINUOUS
10
0.53333
20
0.54583
11
0.532638
21
0.5475
0
LINE
8
BLACK
6
CONTINUOUS
10
0.532638
20
0.5475
11
0.532638
21
0.5775
0
LINE
8
BLACK
6
CONTINUOUS
10
0.532638
20
0.5775
11
0.53333
21
0.57917
0
LINE
8
BLACK
6
CONTINUOUS
10
0.53333
20
0.57917
11
0.535
21
0.579862
0
LINE
8
BLACK
6
CONTINUOUS
10
0.535
20
0.579862
11
0.53667
21
0.57917
0
LINE
8
BLACK
6
CONTINUOUS
10
0.55667
20
0.57917
11
0.557362
21
0.5775
0
LINE
8
BLACK
6
CONTINUOUS
10
0.557362
20
0.5775
11
0.557362
21
0.5475
0
LINE
8
BLACK
6
CONTINUOUS
10
0.557362
20
0.5475
11
0.55667
21
0.54583
0
LINE
8
BLACK
6
CONTINUOUS
10
0.55667
20
0.54583
11
0.555
21
0.545138
0
LINE
8
BLACK
6
CONTINUOUS
10
0.555
20
0.545138
11
0.55333
21
0.54583
0
LINE
8
BLACK
6
CONTINUOUS
10
0.55333
20
0.54583
11
0.552638
21
0.5475
0
LINE
8
BLACK
6
CONTINUOUS
10
0.552638
20
0.5475
11
0.552638
21
0.5775
0
LINE
8
BLACK
6
CONTINUOUS
10
0.552638
20
0.5775
11
0.55333
21
0.57917
0
LINE
8
BLACK
6
CONTINUOUS
10
0.55333
20
0.57917
11
0.555
21
0.579862
0
LINE
8
BLACK
6
CONTINUOUS
10
0.555
20
0.579862
11
0.55667
21
0.57917
0
LINE
8
BLACK
6
CONTINUOUS
10
0.69667
20
0.57917
11
0.697362
21
0.5775
0
LINE
8
BLACK
6
CONTINUOUS
10
0.697362
20
0.5775
11
0.697362
21
0.5475
0
LINE
8
BLACK
6
CONTINUOUS
10
0.697362
20
0.5475
11
0.69667
21
0.54583
0
LINE
8
BLACK
6
CONTINUOUS
10
0.69667
20
0.54583
11
0.695
21
0.545138
0
LINE
8
BLACK
6
CONTINUOUS
10
0.695
20
0.545138
11
0.69333
21
0.54583
0
LINE
8
BLACK
6
CONTINUOUS
10
0.69333
20
0.54583
11
0.692638
21
0.5475
0
LINE
8
BLACK
6
CONTINUOUS
10
0.692638
20
0.5475
11
0.692638
21
0.5775
0
LINE
8
BLACK
6
CONTINUOUS
10
0.692638
20
0.5775
11
0.69333
21
0.57917
0
LINE
8
BLACK
6
CONTINUOUS
10
0.69333
20
0.57917
11
0.695
21
0.579862
0
LINE
8
BLACK
6
CONTINUOUS
10
0.695
20
0.579862
11
0.69667
21
0.57917
0
LINE
8
BLACK
6
CONTINUOUS
10
0.80417
20
0.55167
11
0.804862
21
0.55
0
LINE
8
BLACK
6
CONTINUOUS
10
0.804862
20
0.55
11
0.80417
21
0.54833
0
LINE
8
BLACK
6
CONTINUOUS
10
0.80417
20
0.54833
11
0.8025
21
0.547638
0
LINE
8
BLACK
6
CONTINUOUS
10
0.8025
20
0.547638
11
0.7725
21
0.547638
0
LINE
8
BLACK
6
CONTINUOUS
10
0.7725
20
0.547638
11
0.77083
21
0.54833
0
LINE
8
BLACK
6
CONTINUOUS
10
0.77083
20
0.54833
11
0.770138
21
0.55
0
LINE
8
BLACK
6
CONTINUOUS
10
0.770138
20
0.55
11
0.77083
21
0.55167
0
LINE
8
BLACK
6
CONTINUOUS
10
0.77083
20
0.55167
11
0.7725
21
0.552362
0
LINE
8
BLACK
6
CONTINUOUS
10
0.7725
20
0.552362
11
0.8025
21
0.552362
0
LINE
8
BLACK
6
CONTINUOUS
10
0.8025
20
0.552362
11
0.80417
21
0.55167
0
LINE
8
BLACK
6
CONTINUOUS
10
0.329762
20
0.631898
11
0.330453
21
0.63
0
LINE
8
BLACK
6
CONTINUOUS
10
0.330453
20
0.63
11
0.330453
21
0.57
0
LINE
8
BLACK
6
CONTINUOUS
10
0.330453
20
0.57
11
0.330275
21
0.56899
0
LINE
8
BLACK
6
CONTINUOUS
10
0.330275
20
0.56899
11
0.328976
21
0.567443
0
LINE
8
BLACK
6
CONTINUOUS
10
0.328976
20
0.567443
11
0.326987
21
0.567092
0
LINE
8
BLACK
6
CONTINUOUS
10
0.326987
20
0.567092
11
0.325238
21
0.568102
0
LINE
8
BLACK
6
CONTINUOUS
10
0.325238
20
0.568102
11
0.324547
21
0.57
0
LINE
8
BLACK
6
CONTINUOUS
10
0.324547
20
0.57
11
0.324547
21
0.63
0
LINE
8
BLACK
6
CONTINUOUS
10
0.324547
20
0.63
11
0.324725
21
0.63101
0
LINE
8
BLACK
6
CONTINUOUS
10
0.324725
20
0.63101
11
0.326024
21
0.632557
0
LINE
8
BLACK
6
CONTINUOUS
10
0.326024
20
0.632557
11
0.328013
21
0.632908
0
LINE
8
BLACK
6
CONTINUOUS
10
0.328013
20
0.632908
11
0.329762
21
0.631898
0
LINE
8
BLACK
6
CONTINUOUS
10
0.729762
20
0.631898
11
0.730453
21
0.63
0
LINE
8
BLACK
6
CONTINUOUS
10
0.730453
20
0.63
11
0.730453
21
0.57
0
LINE
8
BLACK
6
CONTINUOUS
10
0.730453
20
0.57
11
0.730275
21
0.56899
0
LINE
8
BLACK
6
CONTINUOUS
10
0.730275
20
0.56899
11
0.728976
21
0.567443
0
LINE
8
BLACK
6
CONTINUOUS
10
0.728976
20
0.567443
11
0.726987
21
0.567092
0
LINE
8
BLACK
6
CONTINUOUS
10
0.726987
20
0.567092
11
0.725238
21
0.568102
0
LINE
8
BLACK
6
CONTINUOUS
10
0.725238
20
0.568102
11
0.724547
21
0.57
0
LINE
8
BLACK
6
CONTINUOUS
10
0.724547
20
0.57
11
0.724547
21
0.63
0
LINE
8
BLACK
6
CONTINUOUS
10
0.724547
20
0.63
11
0.724725
21
0.63101
0
LINE
8
BLACK
6
CONTINUOUS
10
0.724725
20
0.63101
11
0.726024
21
0.632557
0
LINE
8
BLACK
6
CONTINUOUS
10
0.726024
20
0.632557
11
0.728013
21
0.632908
0
LINE
8
BLACK
6
CONTINUOUS
10
0.728013
20
0.632908
11
0.729762
21
0.631898
0
LINE
8
BLACK
6
CONTINUOUS
10
0.849762
20
0.631898
11
0.850453
21
0.63
0
LINE
8
BLACK
6
CONTINUOUS
10
0.850453
20
0.63
11
0.850453
21
0.57
0
LINE
8
BLACK
6
CONTINUOUS
10
0.850453
20
0.57
11
0.850275
21
0.56899
0
LINE
8
BLACK
6
CONTINUOUS
10
0.850275
20
0.56899
11
0.848976
21
0.567443
0
LINE
8
BLACK
6
CONTINUOUS
10
0.848976
20
0.567443
11
0.846987
21
0.567092
0
LINE
8
BLACK
6
CONTINUOUS
10
0.846987
20
0.567092
11
0.845238
21
0.568102
0
LINE
8
BLACK
6
CONTINUOUS
10
0.845238
20
0.568102
11
0.844547
21
0.57
0
LINE
8
BLACK
6
CONTINUOUS
10
0.844547
20
0.57
11
0.844547
21
0.63
0
LINE
8
BLACK
6
CONTINUOUS
10
0.844547
20
0.63
11
0.844725
21
0.63101
0
LINE
8
BLACK
6
CONTINUOUS
10
0.844725
20
0.63101
11
0.846024
21
0.632557
0
LINE
8
BLACK
6
CONTINUOUS
10
0.846024
20
0.632557
11
0.848013
21
0.632908
0
LINE
8
BLACK
6
CONTINUOUS
10
0.848013
20
0.632908
11
0.849762
21
0.631898
0
LINE
8
BLACK
6
CONTINUOUS
10
0.449762
20
0.631898
11
0.450453
21
0.63
0
LINE
8
BLACK
6
CONTINUOUS
10
0.450453
20
0.63
11
0.450453
21
0.57
0
LINE
8
BLACK
6
CONTINUOUS
10
0.450453
20
0.57
11
0.450275
21
0.56899
0
LINE
8
BLACK
6
CONTINUOUS
10
0.450275
20
0.56899
11
0.448976
21
0.567443
0
LINE
8
BLACK
6
CONTINUOUS
10
0.448976
20
0.567443
11
0.446987
21
0.567092
0
LINE
8
BLACK
6
CONTINUOUS
10
0.446987
20
0.567092
11
0.445238
21
0.568102
0
LINE
8
BLACK
6
CONTINUOUS
10
0.445238
20
0.568102
11
0.444547
21
0.57
0
LINE
8
BLACK
6
CONTINUOUS
10
0.444547
20
0.57
11
0.444547
21
0.63
0
LINE
8
BLACK
6
CONTINUOUS
10
0.444547
20
0.63
11
0.444725
21
0.63101
0
LINE
8
BLACK
6
CONTINUOUS
10
0.444725
20
0.63101
11
0.446024
21
0.632557
0
LINE
8
BLACK
6
CONTINUOUS
10
0.446024
20
0.632557
11
0.448013
21
0.632908
0
LINE
8
BLACK
6
CONTINUOUS
10
0.448013
20
0.632908
11
0.449762
21
0.631898
0
LINE
8
BLACK
6
CONTINUOUS
10
0.80417
20
0.57167
11
0.804862
21
0.57
0
LINE
8
BLACK
6
CONTINUOUS
10
0.804862
20
0.57
11
0.80417
21
0.56833
0
LINE
8
BLACK
6
CONTINUOUS
10
0.80417
20
0.56833
11
0.8025
21
0.567638
0
LINE
8
BLACK
6
CONTINUOUS
10
0.8025
20
0.567638
11
0.7725
21
0.567638
0
LINE
8
BLACK
6
CONTINUOUS
10
0.7725
20
0.567638
11
0.77083
21
0.56833
0
LINE
8
BLACK
6
CONTINUOUS
10
0.77083
20
0.56833
11
0.770138
21
0.57
0
LINE
8
BLACK
6
CONTINUOUS
10
0.770138
20
0.57
11
0.77083
21
0.57167
0
LINE
8
BLACK
6
CONTINUOUS
10
0.77083
20
0.57167
11
0.7725
21
0.572362
0
LINE
8
BLACK
6
CONTINUOUS
10
0.7725
20
0.572362
11
0.8025
21
0.572362
0
LINE
8
BLACK
6
CONTINUOUS
10
0.8025
20
0.572362
11
0.80417
21
0.57167
0
LINE
8
BLACK
6
CONTINUOUS
10
0.40417
20
0.57167
11
0.404862
21
0.57
0
LINE
8
BLACK
6
CONTINUOUS
10
0.404862
20
0.57
11
0.40417
21
0.56833
0
LINE
8
BLACK
6
CONTINUOUS
10
0.40417
20
0.56833
11
0.4025
21
0.567638
0
LINE
8
BLACK
6
CONTINUOUS
10
0.4025
20
0.567638
11
0.3725
21
0.567638
0
LINE
8
BLACK
6
CONTINUOUS
10
0.3725
20
0.567638
11
0.37083
21
0.56833
0
LINE
8
BLACK
6
CONTINUOUS
10
0.37083
20
0.56833
11
0.370138
21
0.57
0
LINE
8
BLACK
6
CONTINUOUS
10
0.370138
20
0.57
11
0.37083
21
0.57167
0
LINE
8
BLACK
6
CONTINUOUS
10
0.37083
20
0.57167
11
0.3725
21
0.572362
0
LINE
8
BLACK
6
CONTINUOUS
10
0.3725
20
0.572362
11
0.4025
21
0.572362
0
LINE
8
BLACK
6
CONTINUOUS
10
0.4025
20
0.572362
11
0.40417
21
0.57167
0
LINE
8
BLACK
6
CONTINUOUS
10
0.29601
20
0.605275
11
0.297557
21
0.603976
0
LINE
8
BLACK
6
CONTINUOUS
10
0.297557
20
0.603976
11
0.297908
21
0.601987
0
LINE
8
BLACK
6
CONTINUOUS
10
0.297908
20
0.601987
11
0.296898
21
0.600238
0
LINE
8
BLACK
6
CONTINUOUS
10
0.296898
20
0.600238
11
0.295
21
0.599547
0
LINE
8
BLACK
6
CONTINUOUS
10
0.295
20
0.599547
11
0.235
21
0.599547
0
LINE
8
BLACK
6
CONTINUOUS
10
0.235
20
0.599547
11
0.23399
21
0.599725
0
LINE
8
BLACK
6
CONTINUOUS
10
0.23399
20
0.599725
11
0.232443
21
0.601024
0
LINE
8
BLACK
6
CONTINUOUS
10
0.232443
20
0.601024
11
0.232092
21
0.603013
0
LINE
8
BLACK
6
CONTINUOUS
10
0.232092
20
0.603013
11
0.233102
21
0.604762
0
LINE
8
BLACK
6
CONTINUOUS
10
0.233102
20
0.604762
11
0.235
21
0.605453
0
LINE
8
BLACK
6
CONTINUOUS
10
0.235
20
0.605453
11
0.295
21
0.605453
0
LINE
8
BLACK
6
CONTINUOUS
10
0.295
20
0.605453
11
0.29601
21
0.605275
0
LINE
8
BLACK
6
CONTINUOUS
10
0.61601
20
0.625275
11
0.617557
21
0.623976
0
LINE
8
BLACK
6
CONTINUOUS
10
0.617557
20
0.623976
11
0.617908
21
0.621987
0
LINE
8
BLACK
6
CONTINUOUS
10
0.617908
20
0.621987
11
0.616898
21
0.620238
0
LINE
8
BLACK
6
CONTINUOUS
10
0.616898
20
0.620238
11
0.615
21
0.619547
0
LINE
8
BLACK
6
CONTINUOUS
10
0.615
20
0.619547
11
0.555
21
0.619547
0
LINE
8
BLACK
6
CONTINUOUS
10
0.555
20
0.619547
11
0.55399
21
0.619725
0
LINE
8
BLACK
6
CONTINUOUS
10
0.55399
20
0.619725
11
0.552443
21
0.621024
0
LINE
8
BLACK
6
CONTINUOUS
10
0.552443
20
0.621024
11
0.552092
21
0.623013
0
LINE
8
BLACK
6
CONTINUOUS
10
0.552092
20
0.623013
11
0.553102
21
0.624762
0
LINE
8
BLACK
6
CONTINUOUS
10
0.553102
20
0.624762
11
0.555
21
0.625453
0
LINE
8
BLACK
6
CONTINUOUS
10
0.555
20
0.625453
11
0.615
21
0.625453
0
LINE
8
BLACK
6
CONTINUOUS
10
0.615
20
0.625453
11
0.61601
21
0.625275
0
LINE
8
BLACK
6
CONTINUOUS
10
0.53601
20
0.625275
11
0.537557
21
0.623976
0
LINE
8
BLACK
6
CONTINUOUS
10
0.537557
20
0.623976
11
0.537908
21
0.621987
0
LINE
8
BLACK
6
CONTINUOUS
10
0.537908
20
0.621987
11
0.536898
21
0.620238
0
LINE
8
BLACK
6
CONTINUOUS
10
0.536898
20
0.620238
11
0.535
21
0.619547
0
LINE
8
BLACK
6
CONTINUOUS
10
0.535
20
0.619547
11
0.475
21
0.619547
0
LINE
8
BLACK
6
CONTINUOUS
10
0.475
20
0.619547
11
0.47399
21
0.619725
0
LINE
8
BLACK
6
CONTINUOUS
10
0.47399
20
0.619725
11
0.472443
21
0.621024
0
LINE
8
BLACK
6
CONTINUOUS
10
0.472443
20
0.621024
11
0.472092
21
0.623013
0
LINE
8
BLACK
6
CONTINUOUS
10
0.472092
20
0.623013
11
0.473102
21
0.624762
0
LINE
8
BLACK
6
CONTINUOUS
10
0.473102
20
0.624762
11
0.475
21
0.625453
0
LINE
8
BLACK
6
CONTINUOUS
10
0.475
20
0.625453
11
0.535
21
0.625453
0
LINE
8
BLACK
6
CONTINUOUS
10
0.535
20
0.625453
11
0.53601
21
0.625275
0
LINE
8
BLACK
6
CONTINUOUS
10
0.69601
20
0.625275
11
0.697557
21
0.623976
0
LINE
8
BLACK
6
CONTINUOUS
10
0.697557
20
0.623976
11
0.697908
21
0.621987
0
LINE
8
BLACK
6
CONTINUOUS
10
0.697908
20
0.621987
11
0.696898
21
0.620238
0
LINE
8
BLACK
6
CONTINUOUS
10
0.696898
20
0.620238
11
0.695
21
0.619547
0
LINE
8
BLACK
6
CONTINUOUS
10
0.695
20
0.619547
11
0.635
21
0.619547
0
LINE
8
BLACK
6
CONTINUOUS
10
0.635
20
0.619547
11
0.63399
21
0.619725
0
LINE
8
BLACK
6
CONTINUOUS
10
0.63399
20
0.619725
11
0.632443
21
0.621024
0
LINE
8
BLACK
6
CONTINUOUS
10
0.632443
20
0.621024
11
0.632092
21
0.623013
0
LINE
8
BLACK
6
CONTINUOUS
10
0.632092
20
0.623013
11
0.633102
21
0.624762
0
LINE
8
BLACK
6
CONTINUOUS
10
0.633102
20
0.624762
11
0.635
21
0.625453
0
LINE
8
BLACK
6
CONTINUOUS
10
0.635
20
0.625453
11
0.695
21
0.625453
0
LINE
8
BLACK
6
CONTINUOUS
10
0.695
20
0.625453
11
0.69601
21
0.625275
0
LINE
8
BLACK
6
CONTINUOUS
10
0.80417
20
0.63167
11
0.804862
21
0.63
0
LINE
8
BLACK
6
CONTINUOUS
10
0.804862
20
0.63
11
0.80417
21
0.62833
0
LINE
8
BLACK
6
CONTINUOUS
10
0.80417
20
0.62833
11
0.8025
21
0.627638
0
LINE
8
BLACK
6
CONTINUOUS
10
0.8025
20
0.627638
11
0.7725
21
0.627638
0
LINE
8
BLACK
6
CONTINUOUS
10
0.7725
20
0.627638
11
0.77083
21
0.62833
0
LINE
8
BLACK
6
CONTINUOUS
10
0.77083
20
0.62833
11
0.770138
21
0.63
0
LINE
8
BLACK
6
CONTINUOUS
10
0.770138
20
0.63
11
0.77083
21
0.63167
0
LINE
8
BLACK
6
CONTINUOUS
10
0.77083
20
0.63167
11
0.7725
21
0.632362
0
LINE
8
BLACK
6
CONTINUOUS
10
0.7725
20
0.632362
11
0.8025
21
0.632362
0
LINE
8
BLACK
6
CONTINUOUS
10
0.8025
20
0.632362
11
0.80417
21
0.63167
0
LINE
8
BLACK
6
CONTINUOUS
10
0.40417
20
0.63167
11
0.404862
21
0.63
0
LINE
8
BLACK
6
CONTINUOUS
10
0.404862
20
0.63
11
0.40417
21
0.62833
0
LINE
8
BLACK
6
CONTINUOUS
10
0.40417
20
0.62833
11
0.4025
21
0.627638
0
LINE
8
BLACK
6
CONTINUOUS
10
0.4025
20
0.627638
11
0.3725
21
0.627638
0
LINE
8
BLACK
6
CONTINUOUS
10
0.3725
20
0.627638
11
0.37083
21
0.62833
0
LINE
8
BLACK
6
CONTINUOUS
10
0.37083
20
0.62833
11
0.370138
21
0.63
0
LINE
8
BLACK
6
CONTINUOUS
10
0.370138
20
0.63
11
0.37083
21
0.63167
0
LINE
8
BLACK
6
CONTINUOUS
10
0.37083
20
0.63167
11
0.3725
21
0.632362
0
LINE
8
BLACK
6
CONTINUOUS
10
0.3725
20
0.632362
11
0.4025
21
0.632362
0
LINE
8
BLACK
6
CONTINUOUS
10
0.4025
20
0.632362
11
0.40417
21
0.63167
0
LINE
8
BLACK
6
CONTINUOUS
10
0.72541
20
0.658284
11
0.726102
21
0.656614
0
LINE
8
BLACK
6
CONTINUOUS
10
0.726102
20
0.656614
11
0.72541
21
0.654944
0
LINE
8
BLACK
6
CONTINUOUS
10
0.72541
20
0.654944
11
0.72374
21
0.654252
0
LINE
8
BLACK
6
CONTINUOUS
10
0.72374
20
0.654252
11
0.627283
21
0.654252
0
LINE
8
BLACK
6
CONTINUOUS
10
0.627283
20
0.654252
11
0.625613
21
0.654944
0
LINE
8
BLACK
6
CONTINUOUS
10
0.625613
20
0.654944
11
0.624921
21
0.656614
0
LINE
8
BLACK
6
CONTINUOUS
10
0.624921
20
0.656614
11
0.625613
21
0.658284
0
LINE
8
BLACK
6
CONTINUOUS
10
0.625613
20
0.658284
11
0.627283
21
0.658976
0
LINE
8
BLACK
6
CONTINUOUS
10
0.627283
20
0.658976
11
0.72374
21
0.658976
0
LINE
8
BLACK
6
CONTINUOUS
10
0.72374
20
0.658976
11
0.72541
21
0.658284
0
LINE
8
BLACK
6
CONTINUOUS
10
0.904762
20
0.751898
11
0.905453
21
0.75
0
LINE
8
BLACK
6
CONTINUOUS
10
0.905453
20
0.75
11
0.905453
21
0.69
0
LINE
8
BLACK
6
CONTINUOUS
10
0.905453
20
0.69
11
0.905275
21
0.68899
0
LINE
8
BLACK
6
CONTINUOUS
10
0.905275
20
0.68899
11
0.903976
21
0.687443
0
LINE
8
BLACK
6
CONTINUOUS
10
0.903976
20
0.687443
11
0.901987
21
0.687092
0
LINE
8
BLACK
6
CONTINUOUS
10
0.901987
20
0.687092
11
0.900238
21
0.688102
0
LINE
8
BLACK
6
CONTINUOUS
10
0.900238
20
0.688102
11
0.899547
21
0.69
0
LINE
8
BLACK
6
CONTINUOUS
10
0.899547
20
0.69
11
0.899547
21
0.75
0
LINE
8
BLACK
6
CONTINUOUS
10
0.899547
20
0.75
11
0.899725
21
0.75101
0
LINE
8
BLACK
6
CONTINUOUS
10
0.899725
20
0.75101
11
0.901024
21
0.752557
0
LINE
8
BLACK
6
CONTINUOUS
10
0.901024
20
0.752557
11
0.903013
21
0.752908
0
LINE
8
BLACK
6
CONTINUOUS
10
0.903013
20
0.752908
11
0.904762
21
0.751898
0
LINE
8
BLACK
6
CONTINUOUS
10
0.784762
20
0.751898
11
0.785453
21
0.75
0
LINE
8
BLACK
6
CONTINUOUS
10
0.785453
20
0.75
11
0.785453
21
0.69
0
LINE
8
BLACK
6
CONTINUOUS
10
0.785453
20
0.69
11
0.785275
21
0.68899
0
LINE
8
BLACK
6
CONTINUOUS
10
0.785275
20
0.68899
11
0.783976
21
0.687443
0
LINE
8
BLACK
6
CONTINUOUS
10
0.783976
20
0.687443
11
0.781987
21
0.687092
0
LINE
8
BLACK
6
CONTINUOUS
10
0.781987
20
0.687092
11
0.780238
21
0.688102
0
LINE
8
BLACK
6
CONTINUOUS
10
0.780238
20
0.688102
11
0.779547
21
0.69
0
LINE
8
BLACK
6
CONTINUOUS
10
0.779547
20
0.69
11
0.779547
21
0.75
0
LINE
8
BLACK
6
CONTINUOUS
10
0.779547
20
0.75
11
0.779725
21
0.75101
0
LINE
8
BLACK
6
CONTINUOUS
10
0.779725
20
0.75101
11
0.781024
21
0.752557
0
LINE
8
BLACK
6
CONTINUOUS
10
0.781024
20
0.752557
11
0.783013
21
0.752908
0
LINE
8
BLACK
6
CONTINUOUS
10
0.783013
20
0.752908
11
0.784762
21
0.751898
0
LINE
8
BLACK
6
CONTINUOUS
10
0.85917
20
0.69167
11
0.859862
21
0.69
0
LINE
8
BLACK
6
CONTINUOUS
10
0.859862
20
0.69
11
0.85917
21
0.68833
0
LINE
8
BLACK
6
CONTINUOUS
10
0.85917
20
0.68833
11
0.8575
21
0.687638
0
LINE
8
BLACK
6
CONTINUOUS
10
0.8575
20
0.687638
11
0.8275
21
0.687638
0
LINE
8
BLACK
6
CONTINUOUS
10
0.8275
20
0.687638
11
0.82583
21
0.68833
0
LINE
8
BLACK
6
CONTINUOUS
10
0.82583
20
0.68833
11
0.825138
21
0.69
0
LINE
8
BLACK
6
CONTINUOUS
10
0.825138
20
0.69
11
0.82583
21
0.69167
0
LINE
8
BLACK
6
CONTINUOUS
10
0.82583
20
0.69167
11
0.8275
21
0.692362
0
LINE
8
BLACK
6
CONTINUOUS
10
0.8275
20
0.692362
11
0.8575
21
0.692362
0
LINE
8
BLACK
6
CONTINUOUS
10
0.8575
20
0.692362
11
0.85917
21
0.69167
0
LINE
8
BLACK
6
CONTINUOUS
10
0.55601
20
0.725275
11
0.557557
21
0.723976
0
LINE
8
BLACK
6
CONTINUOUS
10
0.557557
20
0.723976
11
0.557908
21
0.721987
0
LINE
8
BLACK
6
CONTINUOUS
10
0.557908
20
0.721987
11
0.556898
21
0.720238
0
LINE
8
BLACK
6
CONTINUOUS
10
0.556898
20
0.720238
11
0.555
21
0.719547
0
LINE
8
BLACK
6
CONTINUOUS
10
0.555
20
0.719547
11
0.495
21
0.719547
0
LINE
8
BLACK
6
CONTINUOUS
10
0.495
20
0.719547
11
0.49399
21
0.719725
0
LINE
8
BLACK
6
CONTINUOUS
10
0.49399
20
0.719725
11
0.492443
21
0.721024
0
LINE
8
BLACK
6
CONTINUOUS
10
0.492443
20
0.721024
11
0.492092
21
0.723013
0
LINE
8
BLACK
6
CONTINUOUS
10
0.492092
20
0.723013
11
0.493102
21
0.724762
0
LINE
8
BLACK
6
CONTINUOUS
10
0.493102
20
0.724762
11
0.495
21
0.725453
0
LINE
8
BLACK
6
CONTINUOUS
10
0.495
20
0.725453
11
0.555
21
0.725453
0
LINE
8
BLACK
6
CONTINUOUS
10
0.555
20
0.725453
11
0.55601
21
0.725275
0
LINE
8
BLACK
6
CONTINUOUS
10
0.85917
20
0.75167
11
0.859862
21
0.75
0
LINE
8
BLACK
6
CONTINUOUS
10
0.859862
20
0.75
11
0.85917
21
0.74833
0
LINE
8
BLACK
6
CONTINUOUS
10
0.85917
20
0.74833
11
0.8575
21
0.747638
0
LINE
8
BLACK
6
CONTINUOUS
10
0.8575
20
0.747638
11
0.8275
21
0.747638
0
LINE
8
BLACK
6
CONTINUOUS
10
0.8275
20
0.747638
11
0.82583
21
0.74833
0
LINE
8
BLACK
6
CONTINUOUS
10
0.82583
20
0.74833
11
0.825138
21
0.75
0
LINE
8
BLACK
6
CONTINUOUS
10
0.825138
20
0.75
11
0.82583
21
0.75167
0
LINE
8
BLACK
6
CONTINUOUS
10
0.82583
20
0.75167
11
0.8275
21
0.752362
0
LINE
8
BLACK
6
CONTINUOUS
10
0.8275
20
0.752362
11
0.8575
21
0.752362
0
LINE
8
BLACK
6
CONTINUOUS
10
0.8575
20
0.752362
11
0.85917
21
0.75167
0
LINE
8
BLACK
6
CONTINUOUS
10
0.55667
20
0.79917
11
0.557362
21
0.7975
0
LINE
8
BLACK
6
CONTINUOUS
10
0.557362
20
0.7975
11
0.557362
21
0.7675
0
LINE
8
BLACK
6
CONTINUOUS
10
0.557362
20
0.7675
11
0.55667
21
0.76583
0
LINE
8
BLACK
6
CONTINUOUS
10
0.55667
20
0.76583
11
0.555
21
0.765138
0
LINE
8
BLACK
6
CONTINUOUS
10
0.555
20
0.765138
11
0.55333
21
0.76583
0
LINE
8
BLACK
6
CONTINUOUS
10
0.55333
20
0.76583
11
0.552638
21
0.7675
0
LINE
8
BLACK
6
CONTINUOUS
10
0.552638
20
0.7675
11
0.552638
21
0.7975
0
LINE
8
BLACK
6
CONTINUOUS
10
0.552638
20
0.7975
11
0.55333
21
0.79917
0
LINE
8
BLACK
6
CONTINUOUS
10
0.55333
20
0.79917
11
0.555
21
0.799862
0
LINE
8
BLACK
6
CONTINUOUS
10
0.555
20
0.799862
11
0.55667
21
0.79917
0
LINE
8
BLACK
6
CONTINUOUS
10
0.49667
20
0.79917
11
0.497362
21
0.7975
0
LINE
8
BLACK
6
CONTINUOUS
10
0.497362
20
0.7975
11
0.497362
21
0.7675
0
LINE
8
BLACK
6
CONTINUOUS
10
0.497362
20
0.7675
11
0.49667
21
0.76583
0
LINE
8
BLACK
6
CONTINUOUS
10
0.49667
20
0.76583
11
0.495
21
0.765138
0
LINE
8
BLACK
6
CONTINUOUS
10
0.495
20
0.765138
11
0.49333
21
0.76583
0
LINE
8
BLACK
6
CONTINUOUS
10
0.49333
20
0.76583
11
0.492638
21
0.7675
0
LINE
8
BLACK
6
CONTINUOUS
10
0.492638
20
0.7675
11
0.492638
21
0.7975
0
LINE
8
BLACK
6
CONTINUOUS
10
0.492638
20
0.7975
11
0.49333
21
0.79917
0
LINE
8
BLACK
6
CONTINUOUS
10
0.49333
20
0.79917
11
0.495
21
0.799862
0
LINE
8
BLACK
6
CONTINUOUS
10
0.495
20
0.799862
11
0.49667
21
0.79917
0
LINE
8
BLACK
6
CONTINUOUS
10
0.72541
20
0.785056
11
0.726102
21
0.783386
0
LINE
8
BLACK
6
CONTINUOUS
10
0.726102
20
0.783386
11
0.72541
21
0.781716
0
LINE
8
BLACK
6
CONTINUOUS
10
0.72541
20
0.781716
11
0.72374
21
0.781024
0
LINE
8
BLACK
6
CONTINUOUS
10
0.72374
20
0.781024
11
0.652874
21
0.781024
0
LINE
8
BLACK
6
CONTINUOUS
10
0.652874
20
0.781024
11
0.651204
21
0.781716
0
LINE
8
BLACK
6
CONTINUOUS
10
0.651204
20
0.781716
11
0.650512
21
0.783386
0
LINE
8
BLACK
6
CONTINUOUS
10
0.650512
20
0.783386
11
0.651204
21
0.785056
0
LINE
8
BLACK
6
CONTINUOUS
10
0.651204
20
0.785056
11
0.652874
21
0.785748
0
LINE
8
BLACK
6
CONTINUOUS
10
0.652874
20
0.785748
11
0.72374
21
0.785748
0
LINE
8
BLACK
6
CONTINUOUS
10
0.72374
20
0.785748
11
0.72541
21
0.785056
0
LINE
8
BLACK
6
CONTINUOUS
10
0.657258
20
0.843458
11
0.657949
21
0.84156
0
LINE
8
BLACK
6
CONTINUOUS
10
0.657949
20
0.84156
11
0.657949
21
0.809689
0
LINE
8
BLACK
6
CONTINUOUS
10
0.657949
20
0.809689
11
0.657771
21
0.808679
0
LINE
8
BLACK
6
CONTINUOUS
10
0.657771
20
0.808679
11
0.657657
21
0.808544
0
LINE
8
BLACK
6
CONTINUOUS
10
0.657657
20
0.808544
11
0.657637
21
0.808368
0
LINE
8
BLACK
6
CONTINUOUS
10
0.657637
20
0.808368
11
0.655762
21
0.804619
0
LINE
8
BLACK
6
CONTINUOUS
10
0.655762
20
0.804619
11
0.655237
21
0.80391
0
LINE
8
BLACK
6
CONTINUOUS
10
0.655237
20
0.80391
11
0.655209
21
0.803851
0
LINE
8
BLACK
6
CONTINUOUS
10
0.655209
20
0.803851
11
0.653335
21
0.801977
0
LINE
8
BLACK
6
CONTINUOUS
10
0.653335
20
0.801977
11
0.652612
21
0.80147
0
LINE
8
BLACK
6
CONTINUOUS
10
0.652612
20
0.80147
11
0.652567
21
0.801423
0
LINE
8
BLACK
6
CONTINUOUS
10
0.652567
20
0.801423
11
0.648818
21
0.799549
0
LINE
8
BLACK
6
CONTINUOUS
10
0.648818
20
0.799549
11
0.647835
21
0.799256
0
LINE
8
BLACK
6
CONTINUOUS
10
0.647835
20
0.799256
11
0.647663
21
0.799297
0
LINE
8
BLACK
6
CONTINUOUS
10
0.647663
20
0.799297
11
0.647497
21
0.799237
0
LINE
8
BLACK
6
CONTINUOUS
10
0.647497
20
0.799237
11
0.639998
21
0.799237
0
LINE
8
BLACK
6
CONTINUOUS
10
0.639998
20
0.799237
11
0.638988
21
0.799415
0
LINE
8
BLACK
6
CONTINUOUS
10
0.638988
20
0.799415
11
0.638853
21
0.799529
0
LINE
8
BLACK
6
CONTINUOUS
10
0.638853
20
0.799529
11
0.638678
21
0.799549
0
LINE
8
BLACK
6
CONTINUOUS
10
0.638678
20
0.799549
11
0.634928
21
0.801423
0
LINE
8
BLACK
6
CONTINUOUS
10
0.634928
20
0.801423
11
0.634219
21
0.801949
0
LINE
8
BLACK
6
CONTINUOUS
10
0.634219
20
0.801949
11
0.634161
21
0.801977
0
LINE
8
BLACK
6
CONTINUOUS
10
0.634161
20
0.801977
11
0.632286
21
0.803851
0
LINE
8
BLACK
6
CONTINUOUS
10
0.632286
20
0.803851
11
0.63178
21
0.804574
0
LINE
8
BLACK
6
CONTINUOUS
10
0.63178
20
0.804574
11
0.631733
21
0.804619
0
LINE
8
BLACK
6
CONTINUOUS
10
0.631733
20
0.804619
11
0.629858
21
0.808368
0
LINE
8
BLACK
6
CONTINUOUS
10
0.629858
20
0.808368
11
0.629566
21
0.809351
0
LINE
8
BLACK
6
CONTINUOUS
10
0.629566
20
0.809351
11
0.629607
21
0.809523
0
LINE
8
BLACK
6
CONTINUOUS
10
0.629607
20
0.809523
11
0.629546
21
0.809689
0
LINE
8
BLACK
6
CONTINUOUS
10
0.629546
20
0.809689
11
0.629546
21
0.84156
0
LINE
8
BLACK
6
CONTINUOUS
10
0.629546
20
0.84156
11
0.629724
21
0.84257
0
LINE
8
BLACK
6
CONTINUOUS
10
0.629724
20
0.84257
11
0.631023
21
0.844117
0
LINE
8
BLACK
6
CONTINUOUS
10
0.631023
20
0.844117
11
0.633012
21
0.844468
0
LINE
8
BLACK
6
CONTINUOUS
10
0.633012
20
0.844468
11
0.634761
21
0.843458
0
LINE
8
BLACK
6
CONTINUOUS
10
0.634761
20
0.843458
11
0.635452
21
0.84156
0
LINE
8
BLACK
6
CONTINUOUS
10
0.635452
20
0.84156
11
0.635452
21
0.810386
0
LINE
8
BLACK
6
CONTINUOUS
10
0.635452
20
0.810386
11
0.636801
21
0.807688
0
LINE
8
BLACK
6
CONTINUOUS
10
0.636801
20
0.807688
11
0.637998
21
0.806491
0
LINE
8
BLACK
6
CONTINUOUS
10
0.637998
20
0.806491
11
0.640695
21
0.805142
0
LINE
8
BLACK
6
CONTINUOUS
10
0.640695
20
0.805142
11
0.6468
21
0.805142
0
LINE
8
BLACK
6
CONTINUOUS
10
0.6468
20
0.805142
11
0.649498
21
0.806491
0
LINE
8
BLACK
6
CONTINUOUS
10
0.649498
20
0.806491
11
0.650695
21
0.807688
0
LINE
8
BLACK
6
CONTINUOUS
10
0.650695
20
0.807688
11
0.652043
21
0.810386
0
LINE
8
BLACK
6
CONTINUOUS
10
0.652043
20
0.810386
11
0.652043
21
0.84156
0
LINE
8
BLACK
6
CONTINUOUS
10
0.652043
20
0.84156
11
0.652222
21
0.84257
0
LINE
8
BLACK
6
CONTINUOUS
10
0.652222
20
0.84257
11
0.65352
21
0.844117
0
LINE
8
BLACK
6
CONTINUOUS
10
0.65352
20
0.844117
11
0.655509
21
0.844468
0
LINE
8
BLACK
6
CONTINUOUS
10
0.655509
20
0.844468
11
0.657258
21
0.843458
0
LINE
8
BLACK
6
CONTINUOUS
10
0.611012
20
0.844334
11
0.611147
21
0.844221
0
LINE
8
BLACK
6
CONTINUOUS
10
0.611147
20
0.844221
11
0.611322
21
0.844201
0
LINE
8
BLACK
6
CONTINUOUS
10
0.611322
20
0.844201
11
0.615072
21
0.842326
0
LINE
8
BLACK
6
CONTINUOUS
10
0.615072
20
0.842326
11
0.615781
21
0.8418
0
LINE
8
BLACK
6
CONTINUOUS
10
0.615781
20
0.8418
11
0.615839
21
0.841773
0
LINE
8
BLACK
6
CONTINUOUS
10
0.615839
20
0.841773
11
0.617714
21
0.839898
0
LINE
8
BLACK
6
CONTINUOUS
10
0.617714
20
0.839898
11
0.618302
21
0.839058
0
LINE
8
BLACK
6
CONTINUOUS
10
0.618302
20
0.839058
11
0.618478
21
0.837046
0
LINE
8
BLACK
6
CONTINUOUS
10
0.618478
20
0.837046
11
0.61732
21
0.835391
0
LINE
8
BLACK
6
CONTINUOUS
10
0.61732
20
0.835391
11
0.615369
21
0.834869
0
LINE
8
BLACK
6
CONTINUOUS
10
0.615369
20
0.834869
11
0.613538
21
0.835722
0
LINE
8
BLACK
6
CONTINUOUS
10
0.613538
20
0.835722
11
0.612002
21
0.837258
0
LINE
8
BLACK
6
CONTINUOUS
10
0.612002
20
0.837258
11
0.609305
21
0.838607
0
LINE
8
BLACK
6
CONTINUOUS
10
0.609305
20
0.838607
11
0.601325
21
0.838607
0
LINE
8
BLACK
6
CONTINUOUS
10
0.601325
20
0.838607
11
0.598628
21
0.837258
0
LINE
8
BLACK
6
CONTINUOUS
10
0.598628
20
0.837258
11
0.59743
21
0.836061
0
LINE
8
BLACK
6
CONTINUOUS
10
0.59743
20
0.836061
11
0.596082
21
0.833364
0
LINE
8
BLACK
6
CONTINUOUS
10
0.596082
20
0.833364
11
0.596082
21
0.83079
0
LINE
8
BLACK
6
CONTINUOUS
10
0.596082
20
0.83079
11
0.597585
21
0.826282
0
LINE
8
BLACK
6
CONTINUOUS
10
0.597585
20
0.826282
11
0.619589
21
0.804278
0
LINE
8
BLACK
6
CONTINUOUS
10
0.619589
20
0.804278
11
0.619959
21
0.80375
0
LINE
8
BLACK
6
CONTINUOUS
10
0.619959
20
0.80375
11
0.620058
21
0.803666
0
LINE
8
BLACK
6
CONTINUOUS
10
0.620058
20
0.803666
11
0.620072
21
0.803588
0
LINE
8
BLACK
6
CONTINUOUS
10
0.620072
20
0.803588
11
0.620177
21
0.803438
0
LINE
8
BLACK
6
CONTINUOUS
10
0.620177
20
0.803438
11
0.620254
21
0.802552
0
LINE
8
BLACK
6
CONTINUOUS
10
0.620254
20
0.802552
11
0.620409
21
0.801677
0
LINE
8
BLACK
6
CONTINUOUS
10
0.620409
20
0.801677
11
0.620341
21
0.80156
0
LINE
8
BLACK
6
CONTINUOUS
10
0.620341
20
0.80156
11
0.620353
21
0.801426
0
LINE
8
BLACK
6
CONTINUOUS
10
0.620353
20
0.801426
11
0.619843
21
0.800698
0
LINE
8
BLACK
6
CONTINUOUS
10
0.619843
20
0.800698
11
0.619399
21
0.799928
0
LINE
8
BLACK
6
CONTINUOUS
10
0.619399
20
0.799928
11
0.619272
21
0.799882
0
LINE
8
BLACK
6
CONTINUOUS
10
0.619272
20
0.799882
11
0.619195
21
0.799771
0
LINE
8
BLACK
6
CONTINUOUS
10
0.619195
20
0.799771
11
0.618336
21
0.799541
0
LINE
8
BLACK
6
CONTINUOUS
10
0.618336
20
0.799541
11
0.617501
21
0.799237
0
LINE
8
BLACK
6
CONTINUOUS
10
0.617501
20
0.799237
11
0.593129
21
0.799237
0
LINE
8
BLACK
6
CONTINUOUS
10
0.593129
20
0.799237
11
0.592119
21
0.799415
0
LINE
8
BLACK
6
CONTINUOUS
10
0.592119
20
0.799415
11
0.590572
21
0.800713
0
LINE
8
BLACK
6
CONTINUOUS
10
0.590572
20
0.800713
11
0.590221
21
0.802702
0
LINE
8
BLACK
6
CONTINUOUS
10
0.590221
20
0.802702
11
0.591231
21
0.804452
0
LINE
8
BLACK
6
CONTINUOUS
10
0.591231
20
0.804452
11
0.593129
21
0.805142
0
LINE
8
BLACK
6
CONTINUOUS
10
0.593129
20
0.805142
11
0.610372
21
0.805142
0
LINE
8
BLACK
6
CONTINUOUS
10
0.610372
20
0.805142
11
0.592916
21
0.822599
0
LINE
8
BLACK
6
CONTINUOUS
10
0.592916
20
0.822599
11
0.592328
21
0.823439
0
LINE
8
BLACK
6
CONTINUOUS
10
0.592328
20
0.823439
11
0.592312
21
0.823615
0
LINE
8
BLACK
6
CONTINUOUS
10
0.592312
20
0.823615
11
0.592203
21
0.823753
0
LINE
8
BLACK
6
CONTINUOUS
10
0.592203
20
0.823753
11
0.590328
21
0.829377
0
LINE
8
BLACK
6
CONTINUOUS
10
0.590328
20
0.829377
11
0.590198
21
0.830251
0
LINE
8
BLACK
6
CONTINUOUS
10
0.590198
20
0.830251
11
0.590176
21
0.830311
0
LINE
8
BLACK
6
CONTINUOUS
10
0.590176
20
0.830311
11
0.590176
21
0.834061
0
LINE
8
BLACK
6
CONTINUOUS
10
0.590176
20
0.834061
11
0.590354
21
0.835071
0
LINE
8
BLACK
6
CONTINUOUS
10
0.590354
20
0.835071
11
0.590468
21
0.835206
0
LINE
8
BLACK
6
CONTINUOUS
10
0.590468
20
0.835206
11
0.590488
21
0.835381
0
LINE
8
BLACK
6
CONTINUOUS
10
0.590488
20
0.835381
11
0.592363
21
0.839131
0
LINE
8
BLACK
6
CONTINUOUS
10
0.592363
20
0.839131
11
0.592889
21
0.83984
0
LINE
8
BLACK
6
CONTINUOUS
10
0.592889
20
0.83984
11
0.592916
21
0.839898
0
LINE
8
BLACK
6
CONTINUOUS
10
0.592916
20
0.839898
11
0.594791
21
0.841773
0
LINE
8
BLACK
6
CONTINUOUS
10
0.594791
20
0.841773
11
0.595514
21
0.842279
0
LINE
8
BLACK
6
CONTINUOUS
10
0.595514
20
0.842279
11
0.595558
21
0.842326
0
LINE
8
BLACK
6
CONTINUOUS
10
0.595558
20
0.842326
11
0.599308
21
0.844201
0
LINE
8
BLACK
6
CONTINUOUS
10
0.599308
20
0.844201
11
0.60029
21
0.844493
0
LINE
8
BLACK
6
CONTINUOUS
10
0.60029
20
0.844493
11
0.600462
21
0.844452
0
LINE
8
BLACK
6
CONTINUOUS
10
0.600462
20
0.844452
11
0.600628
21
0.844513
0
LINE
8
BLACK
6
CONTINUOUS
10
0.600628
20
0.844513
11
0.610002
21
0.844513
0
LINE
8
BLACK
6
CONTINUOUS
10
0.610002
20
0.844513
11
0.611012
21
0.844334
0
LINE
8
BLACK
6
CONTINUOUS
10
0.804762
20
0.871898
11
0.805453
21
0.87
0
LINE
8
BLACK
6
CONTINUOUS
10
0.805453
20
0.87
11
0.805453
21
0.81
0
LINE
8
BLACK
6
CONTINUOUS
10
0.805453
20
0.81
11
0.805275
21
0.80899
0
LINE
8
BLACK
6
CONTINUOUS
10
0.805275
20
0.80899
11
0.803976
21
0.807443
0
LINE
8
BLACK
6
CONTINUOUS
10
0.803976
20
0.807443
11
0.801987
21
0.807092
0
LINE
8
BLACK
6
CONTINUOUS
10
0.801987
20
0.807092
11
0.800238
21
0.808102
0
LINE
8
BLACK
6
CONTINUOUS
10
0.800238
20
0.808102
11
0.799547
21
0.81
0
LINE
8
BLACK
6
CONTINUOUS
10
0.799547
20
0.81
11
0.799547
21
0.87
0
LINE
8
BLACK
6
CONTINUOUS
10
0.799547
20
0.87
11
0.799725
21
0.87101
0
LINE
8
BLACK
6
CONTINUOUS
10
0.799725
20
0.87101
11
0.801024
21
0.872557
0
LINE
8
BLACK
6
CONTINUOUS
10
0.801024
20
0.872557
11
0.803013
21
0.872908
0
LINE
8
BLACK
6
CONTINUOUS
10
0.803013
20
0.872908
11
0.804762
21
0.871898
0
LINE
8
BLACK
6
CONTINUOUS
10
0.684762
20
0.871898
11
0.685453
21
0.87
0
LINE
8
BLACK
6
CONTINUOUS
10
0.685453
20
0.87
11
0.685453
21
0.81
0
LINE
8
BLACK
6
CONTINUOUS
10
0.685453
20
0.81
11
0.685275
21
0.80899
0
LINE
8
BLACK
6
CONTINUOUS
10
0.685275
20
0.80899
11
0.683976
21
0.807443
0
LINE
8
BLACK
6
CONTINUOUS
10
0.683976
20
0.807443
11
0.681987
21
0.807092
0
LINE
8
BLACK
6
CONTINUOUS
10
0.681987
20
0.807092
11
0.680238
21
0.808102
0
LINE
8
BLACK
6
CONTINUOUS
10
0.680238
20
0.808102
11
0.679547
21
0.81
0
LINE
8
BLACK
6
CONTINUOUS
10
0.679547
20
0.81
11
0.679547
21
0.87
0
LINE
8
BLACK
6
CONTINUOUS
10
0.679547
20
0.87
11
0.679725
21
0.87101
0
LINE
8
BLACK
6
CONTINUOUS
10
0.679725
20
0.87101
11
0.681024
21
0.872557
0
LINE
8
BLACK
6
CONTINUOUS
10
0.681024
20
0.872557
11
0.683013
21
0.872908
0
LINE
8
BLACK
6
CONTINUOUS
10
0.683013
20
0.872908
11
0.684762
21
0.871898
0
LINE
8
BLACK
6
CONTINUOUS
10
0.75917
20
0.81167
11
0.759862
21
0.81
0
LINE
8
BLACK
6
CONTINUOUS
10
0.759862
20
0.81
11
0.75917
21
0.80833
0
LINE
8
BLACK
6
CONTINUOUS
10
0.75917
20
0.80833
11
0.7575
21
0.807638
0
LINE
8
BLACK
6
CONTINUOUS
10
0.7575
20
0.807638
11
0.7275
21
0.807638
0
LINE
8
BLACK
6
CONTINUOUS
10
0.7275
20
0.807638
11
0.72583
21
0.80833
0
LINE
8
BLACK
6
CONTINUOUS
10
0.72583
20
0.80833
11
0.725138
21
0.81
0
LINE
8
BLACK
6
CONTINUOUS
10
0.725138
20
0.81
11
0.72583
21
0.81167
0
LINE
8
BLACK
6
CONTINUOUS
10
0.72583
20
0.81167
11
0.7275
21
0.812362
0
LINE
8
BLACK
6
CONTINUOUS
10
0.7275
20
0.812362
11
0.7575
21
0.812362
0
LINE
8
BLACK
6
CONTINUOUS
10
0.7575
20
0.812362
11
0.75917
21
0.81167
0
LINE
8
BLACK
6
CONTINUOUS
10
0.89601
20
0.820275
11
0.897557
21
0.818976
0
LINE
8
BLACK
6
CONTINUOUS
10
0.897557
20
0.818976
11
0.897908
21
0.816987
0
LINE
8
BLACK
6
CONTINUOUS
10
0.897908
20
0.816987
11
0.896898
21
0.815238
0
LINE
8
BLACK
6
CONTINUOUS
10
0.896898
20
0.815238
11
0.895
21
0.814547
0
LINE
8
BLACK
6
CONTINUOUS
10
0.895
20
0.814547
11
0.835
21
0.814547
0
LINE
8
BLACK
6
CONTINUOUS
10
0.835
20
0.814547
11
0.83399
21
0.814725
0
LINE
8
BLACK
6
CONTINUOUS
10
0.83399
20
0.814725
11
0.832443
21
0.816024
0
LINE
8
BLACK
6
CONTINUOUS
10
0.832443
20
0.816024
11
0.832092
21
0.818013
0
LINE
8
BLACK
6
CONTINUOUS
10
0.832092
20
0.818013
11
0.833102
21
0.819762
0
LINE
8
BLACK
6
CONTINUOUS
10
0.833102
20
0.819762
11
0.835
21
0.820453
0
LINE
8
BLACK
6
CONTINUOUS
10
0.835
20
0.820453
11
0.895
21
0.820453
0
LINE
8
BLACK
6
CONTINUOUS
10
0.895
20
0.820453
11
0.89601
21
0.820275
0
LINE
8
BLACK
6
CONTINUOUS
10
0.55601
20
0.845275
11
0.557557
21
0.843976
0
LINE
8
BLACK
6
CONTINUOUS
10
0.557557
20
0.843976
11
0.557908
21
0.841987
0
LINE
8
BLACK
6
CONTINUOUS
10
0.557908
20
0.841987
11
0.556898
21
0.840238
0
LINE
8
BLACK
6
CONTINUOUS
10
0.556898
20
0.840238
11
0.555
21
0.839547
0
LINE
8
BLACK
6
CONTINUOUS
10
0.555
20
0.839547
11
0.495
21
0.839547
0
LINE
8
BLACK
6
CONTINUOUS
10
0.495
20
0.839547
11
0.49399
21
0.839725
0
LINE
8
BLACK
6
CONTINUOUS
10
0.49399
20
0.839725
11
0.492443
21
0.841024
0
LINE
8
BLACK
6
CONTINUOUS
10
0.492443
20
0.841024
11
0.492092
21
0.843013
0
LINE
8
BLACK
6
CONTINUOUS
10
0.492092
20
0.843013
11
0.493102
21
0.844762
0
LINE
8
BLACK
6
CONTINUOUS
10
0.493102
20
0.844762
11
0.495
21
0.845453
0
LINE
8
BLACK
6
CONTINUOUS
10
0.495
20
0.845453
11
0.555
21
0.845453
0
LINE
8
BLACK
6
CONTINUOUS
10
0.555
20
0.845453
11
0.55601
21
0.845275
0
LINE
8
BLACK
6
CONTINUOUS
10
0.89667
20
0.89417
11
0.897362
21
0.8925
0
LINE
8
BLACK
6
CONTINUOUS
10
0.897362
20
0.8925
11
0.897362
21
0.8625
0
LINE
8
BLACK
6
CONTINUOUS
10
0.897362
20
0.8625
11
0.89667
21
0.86083
0
LINE
8
BLACK
6
CONTINUOUS
10
0.89667
20
0.86083
11
0.895
21
0.860138
0
LINE
8
BLACK
6
CONTINUOUS
10
0.895
20
0.860138
11
0.89333
21
0.86083
0
LINE
8
BLACK
6
CONTINUOUS
10
0.89333
20
0.86083
11
0.892638
21
0.8625
0
LINE
8
BLACK
6
CONTINUOUS
10
0.892638
20
0.8625
11
0.892638
21
0.8925
0
LINE
8
BLACK
6
CONTINUOUS
10
0.892638
20
0.8925
11
0.89333
21
0.89417
0
LINE
8
BLACK
6
CONTINUOUS
10
0.89333
20
0.89417
11
0.895
21
0.894862
0
LINE
8
BLACK
6
CONTINUOUS
10
0.895
20
0.894862
11
0.89667
21
0.89417
0
LINE
8
BLACK
6
CONTINUOUS
10
0.83667
20
0.89417
11
0.837362
21
0.8925
0
LINE
8
BLACK
6
CONTINUOUS
10
0.837362
20
0.8925
11
0.837362
21
0.8625
0
LINE
8
BLACK
6
CONTINUOUS
10
0.837362
20
0.8625
11
0.83667
21
0.86083
0
LINE
8
BLACK
6
CONTINUOUS
10
0.83667
20
0.86083
11
0.835
21
0.860138
0
LINE
8
BLACK
6
CONTINUOUS
10
0.835
20
0.860138
11
0.83333
21
0.86083
0
LINE
8
BLACK
6
CONTINUOUS
10
0.83333
20
0.86083
11
0.832638
21
0.8625
0
LINE
8
BLACK
6
CONTINUOUS
10
0.832638
20
0.8625
11
0.832638
21
0.8925
0
LINE
8
BLACK
6
CONTINUOUS
10
0.832638
20
0.8925
11
0.83333
21
0.89417
0
LINE
8
BLACK
6
CONTINUOUS
10
0.83333
20
0.89417
11
0.835
21
0.894862
0
LINE
8
BLACK
6
CONTINUOUS
10
0.835
20
0.894862
11
0.83667
21
0.89417
0
LINE
8
BLACK
6
CONTINUOUS
10
0.75917
20
0.87167
11
0.759862
21
0.87
0
LINE
8
BLACK
6
CONTINUOUS
10
0.759862
20
0.87
11
0.75917
21
0.86833
0
LINE
8
BLACK
6
CONTINUOUS
10
0.75917
20
0.86833
11
0.7575
21
0.867638
0
LINE
8
BLACK
6
CONTINUOUS
10
0.7575
20
0.867638
11
0.7275
21
0.867638
0
LINE
8
BLACK
6
CONTINUOUS
10
0.7275
20
0.867638
11
0.72583
21
0.86833
0
LINE
8
BLACK
6
CONTINUOUS
10
0.72583
20
0.86833
11
0.725138
21
0.87
0
LINE
8
BLACK
6
CONTINUOUS
10
0.725138
20
0.87
11
0.72583
21
0.87167
0
LINE
8
BLACK
6
CONTINUOUS
10
0.72583
20
0.87167
11
0.7275
21
0.872362
0
LINE
8
BLACK
6
CONTINUOUS
10
0.7275
20
0.872362
11
0.7575
21
0.872362
0
LINE
8
BLACK
6
CONTINUOUS
10
0.7575
20
0.872362
11
0.75917
21
0.87167
0
LINE
8
BLACK
6
CONTINUOUS
10
0.72368
20
0.964359
11
0.723744
21
0.964361
0
LINE
8
BLACK
6
CONTINUOUS
10
0.723744
20
0.964361
11
0.729368
21
0.962486
0
LINE
8
BLACK
6
CONTINUOUS
10
0.729368
20
0.962486
11
0.73027
21
0.961998
0
LINE
8
BLACK
6
CONTINUOUS
10
0.73027
20
0.961998
11
0.730363
21
0.961848
0
LINE
8
BLACK
6
CONTINUOUS
10
0.730363
20
0.961848
11
0.730522
21
0.961773
0
LINE
8
BLACK
6
CONTINUOUS
10
0.730522
20
0.961773
11
0.734272
21
0.958023
0
LINE
8
BLACK
6
CONTINUOUS
10
0.734272
20
0.958023
11
0.734778
21
0.9573
0
LINE
8
BLACK
6
CONTINUOUS
10
0.734778
20
0.9573
11
0.734825
21
0.957256
0
LINE
8
BLACK
6
CONTINUOUS
10
0.734825
20
0.957256
11
0.7367
21
0.953506
0
LINE
8
BLACK
6
CONTINUOUS
10
0.7367
20
0.953506
11
0.736845
21
0.953018
0
LINE
8
BLACK
6
CONTINUOUS
10
0.736845
20
0.953018
11
0.736923
21
0.952902
0
LINE
8
BLACK
6
CONTINUOUS
10
0.736923
20
0.952902
11
0.738798
21
0.945403
0
LINE
8
BLACK
6
CONTINUOUS
10
0.738798
20
0.945403
11
0.73884
21
0.944815
0
LINE
8
BLACK
6
CONTINUOUS
10
0.73884
20
0.944815
11
0.738886
21
0.944687
0
LINE
8
BLACK
6
CONTINUOUS
10
0.738886
20
0.944687
11
0.738886
21
0.939063
0
LINE
8
BLACK
6
CONTINUOUS
10
0.738886
20
0.939063
11
0.738784
21
0.938482
0
LINE
8
BLACK
6
CONTINUOUS
10
0.738784
20
0.938482
11
0.738798
21
0.938346
0
LINE
8
BLACK
6
CONTINUOUS
10
0.738798
20
0.938346
11
0.736923
21
0.930847
0
LINE
8
BLACK
6
CONTINUOUS
10
0.736923
20
0.930847
11
0.736716
21
0.930382
0
LINE
8
BLACK
6
CONTINUOUS
10
0.736716
20
0.930382
11
0.7367
21
0.930243
0
LINE
8
BLACK
6
CONTINUOUS
10
0.7367
20
0.930243
11
0.734825
21
0.926494
0
LINE
8
BLACK
6
CONTINUOUS
10
0.734825
20
0.926494
11
0.734299
21
0.925784
0
LINE
8
BLACK
6
CONTINUOUS
10
0.734299
20
0.925784
11
0.734272
21
0.925726
0
LINE
8
BLACK
6
CONTINUOUS
10
0.734272
20
0.925726
11
0.730522
21
0.921977
0
LINE
8
BLACK
6
CONTINUOUS
10
0.730522
20
0.921977
11
0.729682
21
0.921388
0
LINE
8
BLACK
6
CONTINUOUS
10
0.729682
20
0.921388
11
0.729507
21
0.921373
0
LINE
8
BLACK
6
CONTINUOUS
10
0.729507
20
0.921373
11
0.729368
21
0.921263
0
LINE
8
BLACK
6
CONTINUOUS
10
0.729368
20
0.921263
11
0.723744
21
0.919389
0
LINE
8
BLACK
6
CONTINUOUS
10
0.723744
20
0.919389
11
0.722871
21
0.919259
0
LINE
8
BLACK
6
CONTINUOUS
10
0.722871
20
0.919259
11
0.72281
21
0.919237
0
LINE
8
BLACK
6
CONTINUOUS
10
0.72281
20
0.919237
11
0.719061
21
0.919237
0
LINE
8
BLACK
6
CONTINUOUS
10
0.719061
20
0.919237
11
0.718191
21
0.91939
0
LINE
8
BLACK
6
CONTINUOUS
10
0.718191
20
0.91939
11
0.718127
21
0.919389
0
LINE
8
BLACK
6
CONTINUOUS
10
0.718127
20
0.919389
11
0.712503
21
0.921263
0
LINE
8
BLACK
6
CONTINUOUS
10
0.712503
20
0.921263
11
0.711601
21
0.921752
0
LINE
8
BLACK
6
CONTINUOUS
10
0.711601
20
0.921752
11
0.711509
21
0.921902
0
LINE
8
BLACK
6
CONTINUOUS
10
0.711509
20
0.921902
11
0.711349
21
0.921977
0
LINE
8
BLACK
6
CONTINUOUS
10
0.711349
20
0.921977
11
0.709474
21
0.923851
0
LINE
8
BLACK
6
CONTINUOUS
10
0.709474
20
0.923851
11
0.708886
21
0.924691
0
LINE
8
BLACK
6
CONTINUOUS
10
0.708886
20
0.924691
11
0.708709
21
0.926703
0
LINE
8
BLACK
6
CONTINUOUS
10
0.708709
20
0.926703
11
0.709868
21
0.928358
0
LINE
8
BLACK
6
CONTINUOUS
10
0.709868
20
0.928358
11
0.711819
21
0.928881
0
LINE
8
BLACK
6
CONTINUOUS
10
0.711819
20
0.928881
11
0.71365
21
0.928027
0
LINE
8
BLACK
6
CONTINUOUS
10
0.71365
20
0.928027
11
0.715031
21
0.926645
0
LINE
8
BLACK
6
CONTINUOUS
10
0.715031
20
0.926645
11
0.71954
21
0.925142
0
LINE
8
BLACK
6
CONTINUOUS
10
0.71954
20
0.925142
11
0.722331
21
0.925142
0
LINE
8
BLACK
6
CONTINUOUS
10
0.722331
20
0.925142
11
0.72684
21
0.926645
0
LINE
8
BLACK
6
CONTINUOUS
10
0.72684
20
0.926645
11
0.729757
21
0.929563
0
LINE
8
BLACK
6
CONTINUOUS
10
0.729757
20
0.929563
11
0.731273
21
0.932594
0
LINE
8
BLACK
6
CONTINUOUS
10
0.731273
20
0.932594
11
0.732981
21
0.939426
0
LINE
8
BLACK
6
CONTINUOUS
10
0.732981
20
0.939426
11
0.732981
21
0.944323
0
LINE
8
BLACK
6
CONTINUOUS
10
0.732981
20
0.944323
11
0.731273
21
0.951155
0
LINE
8
BLACK
6
CONTINUOUS
10
0.731273
20
0.951155
11
0.729757
21
0.954186
0
LINE
8
BLACK
6
CONTINUOUS
10
0.729757
20
0.954186
11
0.72684
21
0.957104
0
LINE
8
BLACK
6
CONTINUOUS
10
0.72684
20
0.957104
11
0.722331
21
0.958607
0
LINE
8
BLACK
6
CONTINUOUS
10
0.722331
20
0.958607
11
0.71954
21
0.958607
0
LINE
8
BLACK
6
CONTINUOUS
10
0.71954
20
0.958607
11
0.715031
21
0.957104
0
LINE
8
BLACK
6
CONTINUOUS
10
0.715031
20
0.957104
11
0.71365
21
0.955722
0
LINE
8
BLACK
6
CONTINUOUS
10
0.71365
20
0.955722
11
0.71281
21
0.955134
0
LINE
8
BLACK
6
CONTINUOUS
10
0.71281
20
0.955134
11
0.710797
21
0.954958
0
LINE
8
BLACK
6
CONTINUOUS
10
0.710797
20
0.954958
11
0.709143
21
0.956117
0
LINE
8
BLACK
6
CONTINUOUS
10
0.709143
20
0.956117
11
0.70862
21
0.958068
0
LINE
8
BLACK
6
CONTINUOUS
10
0.70862
20
0.958068
11
0.709474
21
0.959898
0
LINE
8
BLACK
6
CONTINUOUS
10
0.709474
20
0.959898
11
0.711348
21
0.961773
0
LINE
8
BLACK
6
CONTINUOUS
10
0.711348
20
0.961773
11
0.712189
21
0.962361
0
LINE
8
BLACK
6
CONTINUOUS
10
0.712189
20
0.962361
11
0.712364
21
0.962377
0
LINE
8
BLACK
6
CONTINUOUS
10
0.712364
20
0.962377
11
0.712503
21
0.962486
0
LINE
8
BLACK
6
CONTINUOUS
10
0.712503
20
0.962486
11
0.718127
21
0.964361
0
LINE
8
BLACK
6
CONTINUOUS
10
0.718127
20
0.964361
11
0.719
21
0.964491
0
LINE
8
BLACK
6
CONTINUOUS
10
0.719
20
0.964491
11
0.719061
21
0.964513
0
LINE
8
BLACK
6
CONTINUOUS
10
0.719061
20
0.964513
11
0.72281
21
0.964513
0
LINE
8
BLACK
6
CONTINUOUS
10
0.72281
20
0.964513
11
0.72368
21
0.964359
0
LINE
8
BLACK
6
CONTINUOUS
10
0.691949
20
0.964334
11
0.692084
21
0.964221
0
LINE
8
BLACK
6
CONTINUOUS
10
0.692084
20
0.964221
11
0.69226
21
0.964201
0
LINE
8
BLACK
6
CONTINUOUS
10
0.69226
20
0.964201
11
0.696009
21
0.962326
0
LINE
8
BLACK
6
CONTINUOUS
10
0.696009
20
0.962326
11
0.696718
21
0.9618
0
LINE
8
BLACK
6
CONTINUOUS
10
0.696718
20
0.9618
11
0.696777
21
0.961773
0
LINE
8
BLACK
6
CONTINUOUS
10
0.696777
20
0.961773
11
0.698651
21
0.959898
0
LINE
8
BLACK
6
CONTINUOUS
10
0.698651
20
0.959898
11
0.69924
21
0.959058
0
LINE
8
BLACK
6
CONTINUOUS
10
0.69924
20
0.959058
11
0.699416
21
0.957046
0
LINE
8
BLACK
6
CONTINUOUS
10
0.699416
20
0.957046
11
0.698257
21
0.955391
0
LINE
8
BLACK
6
CONTINUOUS
10
0.698257
20
0.955391
11
0.696306
21
0.954869
0
LINE
8
BLACK
6
CONTINUOUS
10
0.696306
20
0.954869
11
0.694476
21
0.955722
0
LINE
8
BLACK
6
CONTINUOUS
10
0.694476
20
0.955722
11
0.69294
21
0.957258
0
LINE
8
BLACK
6
CONTINUOUS
10
0.69294
20
0.957258
11
0.690242
21
0.958607
0
LINE
8
BLACK
6
CONTINUOUS
10
0.690242
20
0.958607
11
0.682262
21
0.958607
0
LINE
8
BLACK
6
CONTINUOUS
10
0.682262
20
0.958607
11
0.679565
21
0.957258
0
LINE
8
BLACK
6
CONTINUOUS
10
0.679565
20
0.957258
11
0.678368
21
0.956061
0
LINE
8
BLACK
6
CONTINUOUS
10
0.678368
20
0.956061
11
0.677019
21
0.953364
0
LINE
8
BLACK
6
CONTINUOUS
10
0.677019
20
0.953364
11
0.677019
21
0.95079
0
LINE
8
BLACK
6
CONTINUOUS
10
0.677019
20
0.95079
11
0.678522
21
0.946282
0
LINE
8
BLACK
6
CONTINUOUS
10
0.678522
20
0.946282
11
0.700526
21
0.924278
0
LINE
8
BLACK
6
CONTINUOUS
10
0.700526
20
0.924278
11
0.700896
21
0.92375
0
LINE
8
BLACK
6
CONTINUOUS
10
0.700896
20
0.92375
11
0.700995
21
0.923666
0
LINE
8
BLACK
6
CONTINUOUS
10
0.700995
20
0.923666
11
0.701009
21
0.923588
0
LINE
8
BLACK
6
CONTINUOUS
10
0.701009
20
0.923588
11
0.701114
21
0.923438
0
LINE
8
BLACK
6
CONTINUOUS
10
0.701114
20
0.923438
11
0.701192
21
0.922552
0
LINE
8
BLACK
6
CONTINUOUS
10
0.701192
20
0.922552
11
0.701346
21
0.921677
0
LINE
8
BLACK
6
CONTINUOUS
10
0.701346
20
0.921677
11
0.701279
21
0.92156
0
LINE
8
BLACK
6
CONTINUOUS
10
0.701279
20
0.92156
11
0.70129
21
0.921426
0
LINE
8
BLACK
6
CONTINUOUS
10
0.70129
20
0.921426
11
0.700781
21
0.920697
0
LINE
8
BLACK
6
CONTINUOUS
10
0.700781
20
0.920697
11
0.700336
21
0.919928
0
LINE
8
BLACK
6
CONTINUOUS
10
0.700336
20
0.919928
11
0.700209
21
0.919882
0
LINE
8
BLACK
6
CONTINUOUS
10
0.700209
20
0.919882
11
0.700132
21
0.919771
0
LINE
8
BLACK
6
CONTINUOUS
10
0.700132
20
0.919771
11
0.699273
21
0.919541
0
LINE
8
BLACK
6
CONTINUOUS
10
0.699273
20
0.919541
11
0.698438
21
0.919237
0
LINE
8
BLACK
6
CONTINUOUS
10
0.698438
20
0.919237
11
0.674066
21
0.919237
0
LINE
8
BLACK
6
CONTINUOUS
10
0.674066
20
0.919237
11
0.673056
21
0.919415
0
LINE
8
BLACK
6
CONTINUOUS
10
0.673056
20
0.919415
11
0.671509
21
0.920713
0
LINE
8
BLACK
6
CONTINUOUS
10
0.671509
20
0.920713
11
0.671158
21
0.922702
0
LINE
8
BLACK
6
CONTINUOUS
10
0.671158
20
0.922702
11
0.672168
21
0.924452
0
LINE
8
BLACK
6
CONTINUOUS
10
0.672168
20
0.924452
11
0.674066
21
0.925142
0
LINE
8
BLACK
6
CONTINUOUS
10
0.674066
20
0.925142
11
0.69131
21
0.925142
0
LINE
8
BLACK
6
CONTINUOUS
10
0.69131
20
0.925142
11
0.673853
21
0.942599
0
LINE
8
BLACK
6
CONTINUOUS
10
0.673853
20
0.942599
11
0.673265
21
0.943439
0
LINE
8
BLACK
6
CONTINUOUS
10
0.673265
20
0.943439
11
0.67325
21
0.943615
0
LINE
8
BLACK
6
CONTINUOUS
10
0.67325
20
0.943615
11
0.67314
21
0.943753
0
LINE
8
BLACK
6
CONTINUOUS
10
0.67314
20
0.943753
11
0.671265
21
0.949377
0
LINE
8
BLACK
6
CONTINUOUS
10
0.671265
20
0.949377
11
0.671136
21
0.950251
0
LINE
8
BLACK
6
CONTINUOUS
10
0.671136
20
0.950251
11
0.671114
21
0.950311
0
LINE
8
BLACK
6
CONTINUOUS
10
0.671114
20
0.950311
11
0.671114
21
0.954061
0
LINE
8
BLACK
6
CONTINUOUS
10
0.671114
20
0.954061
11
0.671292
21
0.955071
0
LINE
8
BLACK
6
CONTINUOUS
10
0.671292
20
0.955071
11
0.671405
21
0.955206
0
LINE
8
BLACK
6
CONTINUOUS
10
0.671405
20
0.955206
11
0.671425
21
0.955381
0
LINE
8
BLACK
6
CONTINUOUS
10
0.671425
20
0.955381
11
0.6733
21
0.959131
0
LINE
8
BLACK
6
CONTINUOUS
10
0.6733
20
0.959131
11
0.673826
21
0.95984
0
LINE
8
BLACK
6
CONTINUOUS
10
0.673826
20
0.95984
11
0.673853
21
0.959898
0
LINE
8
BLACK
6
CONTINUOUS
10
0.673853
20
0.959898
11
0.675728
21
0.961773
0
LINE
8
BLACK
6
CONTINUOUS
10
0.675728
20
0.961773
11
0.676451
21
0.962279
0
LINE
8
BLACK
6
CONTINUOUS
10
0.676451
20
0.962279
11
0.676495
21
0.962326
0
LINE
8
BLACK
6
CONTINUOUS
10
0.676495
20
0.962326
11
0.680245
21
0.964201
0
LINE
8
BLACK
6
CONTINUOUS
10
0.680245
20
0.964201
11
0.681228
21
0.964493
0
LINE
8
BLACK
6
CONTINUOUS
10
0.681228
20
0.964493
11
0.681399
21
0.964452
0
LINE
8
BLACK
6
CONTINUOUS
10
0.681399
20
0.964452
11
0.681565
21
0.964513
0
LINE
8
BLACK
6
CONTINUOUS
10
0.681565
20
0.964513
11
0.690939
21
0.964513
0
LINE
8
BLACK
6
CONTINUOUS
10
0.690939
20
0.964513
11
0.691949
21
0.964334
0
LINE
8
BLACK
6
CONTINUOUS
10
0.89601
20
0.940275
11
0.897557
21
0.938976
0
LINE
8
BLACK
6
CONTINUOUS
10
0.897557
20
0.938976
11
0.897908
21
0.936987
0
LINE
8
BLACK
6
CONTINUOUS
10
0.897908
20
0.936987
11
0.896898
21
0.935238
0
LINE
8
BLACK
6
CONTINUOUS
10
0.896898
20
0.935238
11
0.895
21
0.934547
0
LINE
8
BLACK
6
CONTINUOUS
10
0.895
20
0.934547
11
0.835
21
0.934547
0
LINE
8
BLACK
6
CONTINUOUS
10
0.835
20
0.934547
11
0.83399
21
0.934725
0
LINE
8
BLACK
6
CONTINUOUS
10
0.83399
20
0.934725
11
0.832443
21
0.936024
0
LINE
8
BLACK
6
CONTINUOUS
10
0.832443
20
0.936024
11
0.832092
21
0.938013
0
LINE
8
BLACK
6
CONTINUOUS
10
0.832092
20
0.938013
11
0.833102
21
0.939762
0
LINE
8
BLACK
6
CONTINUOUS
10
0.833102
20
0.939762
11
0.835
21
0.940453
0
LINE
8
BLACK
6
CONTINUOUS
10
0.835
20
0.940453
11
0.895
21
0.940453
0
LINE
8
BLACK
6
CONTINUOUS
10
0.895
20
0.940453
11
0.89601
21
0.940275
0
LINE
8
BLACK
6
CONTINUOUS
10
0.364762
20
1.0119
11
0.365453
21
1.01
0
LINE
8
BLACK
6
CONTINUOUS
10
0.365453
20
1.01
11
0.365453
21
0.95
0
LINE
8
BLACK
6
CONTINUOUS
10
0.365453
20
0.95
11
0.365275
21
0.94899
0
LINE
8
BLACK
6
CONTINUOUS
10
0.365275
20
0.94899
11
0.363976
21
0.947443
0
LINE
8
BLACK
6
CONTINUOUS
10
0.363976
20
0.947443
11
0.361987
21
0.947092
0
LINE
8
BLACK
6
CONTINUOUS
10
0.361987
20
0.947092
11
0.360238
21
0.948102
0
LINE
8
BLACK
6
CONTINUOUS
10
0.360238
20
0.948102
11
0.359547
21
0.95
0
LINE
8
BLACK
6
CONTINUOUS
10
0.359547
20
0.95
11
0.359547
21
1.01
0
LINE
8
BLACK
6
CONTINUOUS
10
0.359547
20
1.01
11
0.359725
21
1.01101
0
LINE
8
BLACK
6
CONTINUOUS
10
0.359725
20
1.01101
11
0.361024
21
1.01256
0
LINE
8
BLACK
6
CONTINUOUS
10
0.361024
20
1.01256
11
0.363013
21
1.01291
0
LINE
8
BLACK
6
CONTINUOUS
10
0.363013
20
1.01291
11
0.364762
21
1.0119
0
LINE
8
BLACK
6
CONTINUOUS
10
0.484762
20
1.0119
11
0.485453
21
1.01
0
LINE
8
BLACK
6
CONTINUOUS
10
0.485453
20
1.01
11
0.485453
21
0.95
0
LINE
8
BLACK
6
CONTINUOUS
10
0.485453
20
0.95
11
0.485275
21
0.94899
0
LINE
8
BLACK
6
CONTINUOUS
10
0.485275
20
0.94899
11
0.483976
21
0.947443
0
LINE
8
BLACK
6
CONTINUOUS
10
0.483976
20
0.947443
11
0.481987
21
0.947092
0
LINE
8
BLACK
6
CONTINUOUS
10
0.481987
20
0.947092
11
0.480238
21
0.948102
0
LINE
8
BLACK
6
CONTINUOUS
10
0.480238
20
0.948102
11
0.479547
21
0.95
0
LINE
8
BLACK
6
CONTINUOUS
10
0.479547
20
0.95
11
0.479547
21
1.01
0
LINE
8
BLACK
6
CONTINUOUS
10
0.479547
20
1.01
11
0.479725
21
1.01101
0
LINE
8
BLACK
6
CONTINUOUS
10
0.479725
20
1.01101
11
0.481024
21
1.01256
0
LINE
8
BLACK
6
CONTINUOUS
10
0.481024
20
1.01256
11
0.483013
21
1.01291
0
LINE
8
BLACK
6
CONTINUOUS
10
0.483013
20
1.01291
11
0.484762
21
1.0119
0
LINE
8
BLACK
6
CONTINUOUS
10
0.43917
20
0.95167
11
0.439862
21
0.95
0
LINE
8
BLACK
6
CONTINUOUS
10
0.439862
20
0.95
11
0.43917
21
0.94833
0
LINE
8
BLACK
6
CONTINUOUS
10
0.43917
20
0.94833
11
0.4375
21
0.947638
0
LINE
8
BLACK
6
CONTINUOUS
10
0.4375
20
0.947638
11
0.4075
21
0.947638
0
LINE
8
BLACK
6
CONTINUOUS
10
0.4075
20
0.947638
11
0.40583
21
0.94833
0
LINE
8
BLACK
6
CONTINUOUS
10
0.40583
20
0.94833
11
0.405138
21
0.95
0
LINE
8
BLACK
6
CONTINUOUS
10
0.405138
20
0.95
11
0.40583
21
0.95167
0
LINE
8
BLACK
6
CONTINUOUS
10
0.40583
20
0.95167
11
0.4075
21
0.952362
0
LINE
8
BLACK
6
CONTINUOUS
10
0.4075
20
0.952362
11
0.4375
21
0.952362
0
LINE
8
BLACK
6
CONTINUOUS
10
0.4375
20
0.952362
11
0.43917
21
0.95167
0
LINE
8
BLACK
6
CONTINUOUS
10
0.85042
20
0.985844
11
0.851112
21
0.984173
0
LINE
8
BLACK
6
CONTINUOUS
10
0.851112
20
0.984173
11
0.85042
21
0.982503
0
LINE
8
BLACK
6
CONTINUOUS
10
0.85042
20
0.982503
11
0.84875
21
0.981811
0
LINE
8
BLACK
6
CONTINUOUS
10
0.84875
20
0.981811
11
0.76125
21
0.981811
0
LINE
8
BLACK
6
CONTINUOUS
10
0.76125
20
0.981811
11
0.75958
21
0.982503
0
LINE
8
BLACK
6
CONTINUOUS
10
0.75958
20
0.982503
11
0.758888
21
0.984173
0
LINE
8
BLACK
6
CONTINUOUS
10
0.758888
20
0.984173
11
0.75958
21
0.985844
0
LINE
8
BLACK
6
CONTINUOUS
10
0.75958
20
0.985844
11
0.76125
21
0.986535
0
LINE
8
BLACK
6
CONTINUOUS
10
0.76125
20
0.986535
11
0.84875
21
0.986535
0
LINE
8
BLACK
6
CONTINUOUS
10
0.84875
20
0.986535
11
0.85042
21
0.985844
0
LINE
8
BLACK
6
CONTINUOUS
10
0.43917
20
1.01167
11
0.439862
21
1.01
0
LINE
8
BLACK
6
CONTINUOUS
10
0.439862
20
1.01
11
0.43917
21
1.00833
0
LINE
8
BLACK
6
CONTINUOUS
10
0.43917
20
1.00833
11
0.4375
21
1.00764
0
LINE
8
BLACK
6
CONTINUOUS
10
0.4375
20
1.00764
11
0.4075
21
1.00764
0
LINE
8
BLACK
6
CONTINUOUS
10
0.4075
20
1.00764
11
0.40583
21
1.00833
0
LINE
8
BLACK
6
CONTINUOUS
10
0.40583
20
1.00833
11
0.405138
21
1.01
0
LINE
8
BLACK
6
CONTINUOUS
10
0.405138
20
1.01
11
0.40583
21
1.01167
0
LINE
8
BLACK
6
CONTINUOUS
10
0.40583
20
1.01167
11
0.4075
21
1.01236
0
LINE
8
BLACK
6
CONTINUOUS
10
0.4075
20
1.01236
11
0.4375
21
1.01236
0
LINE
8
BLACK
6
CONTINUOUS
10
0.4375
20
1.01236
11
0.43917
21
1.01167
0
LINE
8
BLACK
6
CONTINUOUS
10
0.444762
20
1.1119
11
0.445453
21
1.11
0
LINE
8
BLACK
6
CONTINUOUS
10
0.445453
20
1.11
11
0.445453
21
1.05
0
LINE
8
BLACK
6
CONTINUOUS
10
0.445453
20
1.05
11
0.445275
21
1.04899
0
LINE
8
BLACK
6
CONTINUOUS
10
0.445275
20
1.04899
11
0.443976
21
1.04744
0
LINE
8
BLACK
6
CONTINUOUS
10
0.443976
20
1.04744
11
0.441987
21
1.04709
0
LINE
8
BLACK
6
CONTINUOUS
10
0.441987
20
1.04709
11
0.440238
21
1.0481
0
LINE
8
BLACK
6
CONTINUOUS
10
0.440238
20
1.0481
11
0.439547
21
1.05
0
LINE
8
BLACK
6
CONTINUOUS
10
0.439547
20
1.05
11
0.439547
21
1.11
0
LINE
8
BLACK
6
CONTINUOUS
10
0.439547
20
1.11
11
0.439725
21
1.11101
0
LINE
8
BLACK
6
CONTINUOUS
10
0.439725
20
1.11101
11
0.441024
21
1.11256
0
LINE
8
BLACK
6
CONTINUOUS
10
0.441024
20
1.11256
11
0.443013
21
1.11291
0
LINE
8
BLACK
6
CONTINUOUS
10
0.443013
20
1.11291
11
0.444762
21
1.1119
0
LINE
8
BLACK
6
CONTINUOUS
10
0.324762
20
1.1119
11
0.325453
21
1.11
0
LINE
8
BLACK
6
CONTINUOUS
10
0.325453
20
1.11
11
0.325453
21
1.05
0
LINE
8
BLACK
6
CONTINUOUS
10
0.325453
20
1.05
11
0.325275
21
1.04899
0
LINE
8
BLACK
6
CONTINUOUS
10
0.325275
20
1.04899
11
0.323976
21
1.04744
0
LINE
8
BLACK
6
CONTINUOUS
10
0.323976
20
1.04744
11
0.321987
21
1.04709
0
LINE
8
BLACK
6
CONTINUOUS
10
0.321987
20
1.04709
11
0.320238
21
1.0481
0
LINE
8
BLACK
6
CONTINUOUS
10
0.320238
20
1.0481
11
0.319547
21
1.05
0
LINE
8
BLACK
6
CONTINUOUS
10
0.319547
20
1.05
11
0.319547
21
1.11
0
LINE
8
BLACK
6
CONTINUOUS
10
0.319547
20
1.11
11
0.319725
21
1.11101
0
LINE
8
BLACK
6
CONTINUOUS
10
0.319725
20
1.11101
11
0.321024
21
1.11256
0
LINE
8
BLACK
6
CONTINUOUS
10
0.321024
20
1.11256
11
0.323013
21
1.11291
0
LINE
8
BLACK
6
CONTINUOUS
10
0.323013
20
1.11291
11
0.324762
21
1.1119
0
LINE
8
BLACK
6
CONTINUOUS
10
0.627262
20
1.1119
11
0.627953
21
1.11
0
LINE
8
BLACK
6
CONTINUOUS
10
0.627953
20
1.11
11
0.627953
21
1.05
0
LINE
8
BLACK
6
CONTINUOUS
10
0.627953
20
1.05
11
0.627775
21
1.04899
0
LINE
8
BLACK
6
CONTINUOUS
10
0.627775
20
1.04899
11
0.626476
21
1.04744
0
LINE
8
BLACK
6
CONTINUOUS
10
0.626476
20
1.04744
11
0.624487
21
1.04709
0
LINE
8
BLACK
6
CONTINUOUS
10
0.624487
20
1.04709
11
0.622738
21
1.0481
0
LINE
8
BLACK
6
CONTINUOUS
10
0.622738
20
1.0481
11
0.622047
21
1.05
0
LINE
8
BLACK
6
CONTINUOUS
10
0.622047
20
1.05
11
0.622047
21
1.11
0
LINE
8
BLACK
6
CONTINUOUS
10
0.622047
20
1.11
11
0.622225
21
1.11101
0
LINE
8
BLACK
6
CONTINUOUS
10
0.622225
20
1.11101
11
0.623524
21
1.11256
0
LINE
8
BLACK
6
CONTINUOUS
10
0.623524
20
1.11256
11
0.625513
21
1.11291
0
LINE
8
BLACK
6
CONTINUOUS
10
0.625513
20
1.11291
11
0.627262
21
1.1119
0
LINE
8
BLACK
6
CONTINUOUS
10
0.507262
20
1.1119
11
0.507953
21
1.11
0
LINE
8
BLACK
6
CONTINUOUS
10
0.507953
20
1.11
11
0.507953
21
1.05
0
LINE
8
BLACK
6
CONTINUOUS
10
0.507953
20
1.05
11
0.507775
21
1.04899
0
LINE
8
BLACK
6
CONTINUOUS
10
0.507775
20
1.04899
11
0.506476
21
1.04744
0
LINE
8
BLACK
6
CONTINUOUS
10
0.506476
20
1.04744
11
0.504487
21
1.04709
0
LINE
8
BLACK
6
CONTINUOUS
10
0.504487
20
1.04709
11
0.502738
21
1.0481
0
LINE
8
BLACK
6
CONTINUOUS
10
0.502738
20
1.0481
11
0.502047
21
1.05
0
LINE
8
BLACK
6
CONTINUOUS
10
0.502047
20
1.05
11
0.502047
21
1.11
0
LINE
8
BLACK
6
CONTINUOUS
10
0.502047
20
1.11
11
0.502225
21
1.11101
0
LINE
8
BLACK
6
CONTINUOUS
10
0.502225
20
1.11101
11
0.503524
21
1.11256
0
LINE
8
BLACK
6
CONTINUOUS
10
0.503524
20
1.11256
11
0.505513
21
1.11291
0
LINE
8
BLACK
6
CONTINUOUS
10
0.505513
20
1.11291
11
0.507262
21
1.1119
0
LINE
8
BLACK
6
CONTINUOUS
10
0.39917
20
1.05167
11
0.399862
21
1.05
0
LINE
8
BLACK
6
CONTINUOUS
10
0.399862
20
1.05
11
0.39917
21
1.04833
0
LINE
8
BLACK
6
CONTINUOUS
10
0.39917
20
1.04833
11
0.3975
21
1.04764
0
LINE
8
BLACK
6
CONTINUOUS
10
0.3975
20
1.04764
11
0.3675
21
1.04764
0
LINE
8
BLACK
6
CONTINUOUS
10
0.3675
20
1.04764
11
0.36583
21
1.04833
0
LINE
8
BLACK
6
CONTINUOUS
10
0.36583
20
1.04833
11
0.365138
21
1.05
0
LINE
8
BLACK
6
CONTINUOUS
10
0.365138
20
1.05
11
0.36583
21
1.05167
0
LINE
8
BLACK
6
CONTINUOUS
10
0.36583
20
1.05167
11
0.3675
21
1.05236
0
LINE
8
BLACK
6
CONTINUOUS
10
0.3675
20
1.05236
11
0.3975
21
1.05236
0
LINE
8
BLACK
6
CONTINUOUS
10
0.3975
20
1.05236
11
0.39917
21
1.05167
0
LINE
8
BLACK
6
CONTINUOUS
10
0.58167
20
1.05167
11
0.582362
21
1.05
0
LINE
8
BLACK
6
CONTINUOUS
10
0.582362
20
1.05
11
0.58167
21
1.04833
0
LINE
8
BLACK
6
CONTINUOUS
10
0.58167
20
1.04833
11
0.58
21
1.04764
0
LINE
8
BLACK
6
CONTINUOUS
10
0.58
20
1.04764
11
0.55
21
1.04764
0
LINE
8
BLACK
6
CONTINUOUS
10
0.55
20
1.04764
11
0.54833
21
1.04833
0
LINE
8
BLACK
6
CONTINUOUS
10
0.54833
20
1.04833
11
0.547638
21
1.05
0
LINE
8
BLACK
6
CONTINUOUS
10
0.547638
20
1.05
11
0.54833
21
1.05167
0
LINE
8
BLACK
6
CONTINUOUS
10
0.54833
20
1.05167
11
0.55
21
1.05236
0
LINE
8
BLACK
6
CONTINUOUS
10
0.55
20
1.05236
11
0.58
21
1.05236
0
LINE
8
BLACK
6
CONTINUOUS
10
0.58
20
1.05236
11
0.58167
21
1.05167
0
LINE
8
BLACK
6
CONTINUOUS
10
0.85042
20
1.0575
11
0.851112
21
1.05583
0
LINE
8
BLACK
6
CONTINUOUS
10
0.851112
20
1.05583
11
0.85042
21
1.05416
0
LINE
8
BLACK
6
CONTINUOUS
10
0.85042
20
1.05416
11
0.84875
21
1.05346
0
LINE
8
BLACK
6
CONTINUOUS
10
0.84875
20
1.05346
11
0.76125
21
1.05346
0
LINE
8
BLACK
6
CONTINUOUS
10
0.76125
20
1.05346
11
0.75958
21
1.05416
0
LINE
8
BLACK
6
CONTINUOUS
10
0.75958
20
1.05416
11
0.758888
21
1.05583
0
LINE
8
BLACK
6
CONTINUOUS
10
0.758888
20
1.05583
11
0.75958
21
1.0575
0
LINE
8
BLACK
6
CONTINUOUS
10
0.75958
20
1.0575
11
0.76125
21
1.05819
0
LINE
8
BLACK
6
CONTINUOUS
10
0.76125
20
1.05819
11
0.84875
21
1.05819
0
LINE
8
BLACK
6
CONTINUOUS
10
0.84875
20
1.05819
11
0.85042
21
1.0575
0
LINE
8
BLACK
6
CONTINUOUS
10
0.39917
20
1.11167
11
0.399862
21
1.11
0
LINE
8
BLACK
6
CONTINUOUS
10
0.399862
20
1.11
11
0.39917
21
1.10833
0
LINE
8
BLACK
6
CONTINUOUS
10
0.39917
20
1.10833
11
0.3975
21
1.10764
0
LINE
8
BLACK
6
CONTINUOUS
10
0.3975
20
1.10764
11
0.3675
21
1.10764
0
LINE
8
BLACK
6
CONTINUOUS
10
0.3675
20
1.10764
11
0.36583
21
1.10833
0
LINE
8
BLACK
6
CONTINUOUS
10
0.36583
20
1.10833
11
0.365138
21
1.11
0
LINE
8
BLACK
6
CONTINUOUS
10
0.365138
20
1.11
11
0.36583
21
1.11167
0
LINE
8
BLACK
6
CONTINUOUS
10
0.36583
20
1.11167
11
0.3675
21
1.11236
0
LINE
8
BLACK
6
CONTINUOUS
10
0.3675
20
1.11236
11
0.3975
21
1.11236
0
LINE
8
BLACK
6
CONTINUOUS
10
0.3975
20
1.11236
11
0.39917
21
1.11167
0
LINE
8
BLACK
6
CONTINUOUS
10
0.58167
20
1.11167
11
0.582362
21
1.11
0
LINE
8
BLACK
6
CONTINUOUS
10
0.582362
20
1.11
11
0.58167
21
1.10833
0
LINE
8
BLACK
6
CONTINUOUS
10
0.58167
20
1.10833
11
0.58
21
1.10764
0
LINE
8
BLACK
6
CONTINUOUS
10
0.58
20
1.10764
11
0.55
21
1.10764
0
LINE
8
BLACK
6
CONTINUOUS
10
0.55
20
1.10764
11
0.54833
21
1.10833
0
LINE
8
BLACK
6
CONTINUOUS
10
0.54833
20
1.10833
11
0.547638
21
1.11
0
LINE
8
BLACK
6
CONTINUOUS
10
0.547638
20
1.11
11
0.54833
21
1.11167
0
LINE
8
BLACK
6
CONTINUOUS
10
0.54833
20
1.11167
11
0.55
21
1.11236
0
LINE
8
BLACK
6
CONTINUOUS
10
0.55
20
1.11236
11
0.58
21
1.11236
0
LINE
8
BLACK
6
CONTINUOUS
10
0.58
20
1.11236
11
0.58167
21
1.11167
0
LINE
8
BLACK
6
CONTINUOUS
10
0.92351
20
1.11647
11
0.925057
21
1.11518
0
LINE
8
BLACK
6
CONTINUOUS
10
0.925057
20
1.11518
11
0.925408
21
1.11319
0
LINE
8
BLACK
6
CONTINUOUS
10
0.925408
20
1.11319
11
0.924398
21
1.11144
0
LINE
8
BLACK
6
CONTINUOUS
10
0.924398
20
1.11144
11
0.9225
21
1.11075
0
LINE
8
BLACK
6
CONTINUOUS
10
0.9225
20
1.11075
11
0.6863
21
1.11075
0
LINE
8
BLACK
6
CONTINUOUS
10
0.6863
20
1.11075
11
0.68529
21
1.11093
0
LINE
8
BLACK
6
CONTINUOUS
10
0.68529
20
1.11093
11
0.683743
21
1.11222
0
LINE
8
BLACK
6
CONTINUOUS
10
0.683743
20
1.11222
11
0.683392
21
1.11421
0
LINE
8
BLACK
6
CONTINUOUS
10
0.683392
20
1.11421
11
0.684402
21
1.11596
0
LINE
8
BLACK
6
CONTINUOUS
10
0.684402
20
1.11596
11
0.6863
21
1.11665
0
LINE
8
BLACK
6
CONTINUOUS
10
0.6863
20
1.11665
11
0.9225
21
1.11665
0
LINE
8
BLACK
6
CONTINUOUS
10
0.9225
20
1.11665
11
0.92351
21
1.11647
0
LINE
8
BLACK
6
CONTINUOUS
10
0.976662
20
1.2495
11
0.977353
21
1.2476
0
LINE
8
BLACK
6
CONTINUOUS
10
0.977353
20
1.2476
11
0.977353
21
1.1138
0
LINE
8
BLACK
6
CONTINUOUS
10
0.977353
20
1.1138
11
0.977175
21
1.11279
0
LINE
8
BLACK
6
CONTINUOUS
10
0.977175
20
1.11279
11
0.975876
21
1.11124
0
LINE
8
BLACK
6
CONTINUOUS
10
0.975876
20
1.11124
11
0.973887
21
1.11089
0
LINE
8
BLACK
6
CONTINUOUS
10
0.973887
20
1.11089
11
0.973856
21
1.11091
0
LINE
8
BLACK
6
CONTINUOUS
10
0.973856
20
1.11091
11
0.973187
21
1.11079
0
LINE
8
BLACK
6
CONTINUOUS
10
0.973187
20
1.11079
11
0.971438
21
1.1118
0
LINE
8
BLACK
6
CONTINUOUS
10
0.971438
20
1.1118
11
0.970747
21
1.1137
0
LINE
8
BLACK
6
CONTINUOUS
10
0.970747
20
1.1137
11
0.970747
21
1.2475
0
LINE
8
BLACK
6
CONTINUOUS
10
0.970747
20
1.2475
11
0.970925
21
1.24851
0
LINE
8
BLACK
6
CONTINUOUS
10
0.970925
20
1.24851
11
0.972224
21
1.25006
0
LINE
8
BLACK
6
CONTINUOUS
10
0.972224
20
1.25006
11
0.974213
21
1.25041
0
LINE
8
BLACK
6
CONTINUOUS
10
0.974213
20
1.25041
11
0.974244
21
1.25039
0
LINE
8
BLACK
6
CONTINUOUS
10
0.974244
20
1.25039
11
0.974913
21
1.25051
0
LINE
8
BLACK
6
CONTINUOUS
10
0.974913
20
1.25051
11
0.976662
21
1.2495
0
LINE
8
BLACK
6
CONTINUOUS
10
0.469762
20
1.2319
11
0.470453
21
1.23
0
LINE
8
BLACK
6
CONTINUOUS
10
0.470453
20
1.23
11
0.470453
21
1.17
0
LINE
8
BLACK
6
CONTINUOUS
10
0.470453
20
1.17
11
0.470275
21
1.16899
0
LINE
8
BLACK
6
CONTINUOUS
10
0.470275
20
1.16899
11
0.468976
21
1.16744
0
LINE
8
BLACK
6
CONTINUOUS
10
0.468976
20
1.16744
11
0.466987
21
1.16709
0
LINE
8
BLACK
6
CONTINUOUS
10
0.466987
20
1.16709
11
0.465238
21
1.1681
0
LINE
8
BLACK
6
CONTINUOUS
10
0.465238
20
1.1681
11
0.464547
21
1.17
0
LINE
8
BLACK
6
CONTINUOUS
10
0.464547
20
1.17
11
0.464547
21
1.23
0
LINE
8
BLACK
6
CONTINUOUS
10
0.464547
20
1.23
11
0.464725
21
1.23101
0
LINE
8
BLACK
6
CONTINUOUS
10
0.464725
20
1.23101
11
0.466024
21
1.23256
0
LINE
8
BLACK
6
CONTINUOUS
10
0.466024
20
1.23256
11
0.468013
21
1.23291
0
LINE
8
BLACK
6
CONTINUOUS
10
0.468013
20
1.23291
11
0.469762
21
1.2319
0
LINE
8
BLACK
6
CONTINUOUS
10
0.349762
20
1.2319
11
0.350453
21
1.23
0
LINE
8
BLACK
6
CONTINUOUS
10
0.350453
20
1.23
11
0.350453
21
1.17
0
LINE
8
BLACK
6
CONTINUOUS
10
0.350453
20
1.17
11
0.350275
21
1.16899
0
LINE
8
BLACK
6
CONTINUOUS
10
0.350275
20
1.16899
11
0.348976
21
1.16744
0
LINE
8
BLACK
6
CONTINUOUS
10
0.348976
20
1.16744
11
0.346987
21
1.16709
0
LINE
8
BLACK
6
CONTINUOUS
10
0.346987
20
1.16709
11
0.345238
21
1.1681
0
LINE
8
BLACK
6
CONTINUOUS
10
0.345238
20
1.1681
11
0.344547
21
1.17
0
LINE
8
BLACK
6
CONTINUOUS
10
0.344547
20
1.17
11
0.344547
21
1.23
0
LINE
8
BLACK
6
CONTINUOUS
10
0.344547
20
1.23
11
0.344725
21
1.23101
0
LINE
8
BLACK
6
CONTINUOUS
10
0.344725
20
1.23101
11
0.346024
21
1.23256
0
LINE
8
BLACK
6
CONTINUOUS
10
0.346024
20
1.23256
11
0.348013
21
1.23291
0
LINE
8
BLACK
6
CONTINUOUS
10
0.348013
20
1.23291
11
0.349762
21
1.2319
0
LINE
8
BLACK
6
CONTINUOUS
10
0.509762
20
1.2319
11
0.510453
21
1.23
0
LINE
8
BLACK
6
CONTINUOUS
10
0.510453
20
1.23
11
0.510453
21
1.17
0
LINE
8
BLACK
6
CONTINUOUS
10
0.510453
20
1.17
11
0.510275
21
1.16899
0
LINE
8
BLACK
6
CONTINUOUS
10
0.510275
20
1.16899
11
0.508976
21
1.16744
0
LINE
8
BLACK
6
CONTINUOUS
10
0.508976
20
1.16744
11
0.506987
21
1.16709
0
LINE
8
BLACK
6
CONTINUOUS
10
0.506987
20
1.16709
11
0.505238
21
1.1681
0
LINE
8
BLACK
6
CONTINUOUS
10
0.505238
20
1.1681
11
0.504547
21
1.17
0
LINE
8
BLACK
6
CONTINUOUS
10
0.504547
20
1.17
11
0.504547
21
1.23
0
LINE
8
BLACK
6
CONTINUOUS
10
0.504547
20
1.23
11
0.504725
21
1.23101
0
LINE
8
BLACK
6
CONTINUOUS
10
0.504725
20
1.23101
11
0.506024
21
1.23256
0
LINE
8
BLACK
6
CONTINUOUS
10
0.506024
20
1.23256
11
0.508013
21
1.23291
0
LINE
8
BLACK
6
CONTINUOUS
10
0.508013
20
1.23291
11
0.509762
21
1.2319
0
LINE
8
BLACK
6
CONTINUOUS
10
0.629762
20
1.2319
11
0.630453
21
1.23
0
LINE
8
BLACK
6
CONTINUOUS
10
0.630453
20
1.23
11
0.630453
21
1.17
0
LINE
8
BLACK
6
CONTINUOUS
10
0.630453
20
1.17
11
0.630275
21
1.16899
0
LINE
8
BLACK
6
CONTINUOUS
10
0.630275
20
1.16899
11
0.628976
21
1.16744
0
LINE
8
BLACK
6
CONTINUOUS
10
0.628976
20
1.16744
11
0.626987
21
1.16709
0
LINE
8
BLACK
6
CONTINUOUS
10
0.626987
20
1.16709
11
0.625238
21
1.1681
0
LINE
8
BLACK
6
CONTINUOUS
10
0.625238
20
1.1681
11
0.624547
21
1.17
0
LINE
8
BLACK
6
CONTINUOUS
10
0.624547
20
1.17
11
0.624547
21
1.23
0
LINE
8
BLACK
6
CONTINUOUS
10
0.624547
20
1.23
11
0.624725
21
1.23101
0
LINE
8
BLACK
6
CONTINUOUS
10
0.624725
20
1.23101
11
0.626024
21
1.23256
0
LINE
8
BLACK
6
CONTINUOUS
10
0.626024
20
1.23256
11
0.628013
21
1.23291
0
LINE
8
BLACK
6
CONTINUOUS
10
0.628013
20
1.23291
11
0.629762
21
1.2319
0
LINE
8
BLACK
6
CONTINUOUS
10
0.42417
20
1.17167
11
0.424862
21
1.17
0
LINE
8
BLACK
6
CONTINUOUS
10
0.424862
20
1.17
11
0.42417
21
1.16833
0
LINE
8
BLACK
6
CONTINUOUS
10
0.42417
20
1.16833
11
0.4225
21
1.16764
0
LINE
8
BLACK
6
CONTINUOUS
10
0.4225
20
1.16764
11
0.3925
21
1.16764
0
LINE
8
BLACK
6
CONTINUOUS
10
0.3925
20
1.16764
11
0.39083
21
1.16833
0
LINE
8
BLACK
6
CONTINUOUS
10
0.39083
20
1.16833
11
0.390138
21
1.17
0
LINE
8
BLACK
6
CONTINUOUS
10
0.390138
20
1.17
11
0.39083
21
1.17167
0
LINE
8
BLACK
6
CONTINUOUS
10
0.39083
20
1.17167
11
0.3925
21
1.17236
0
LINE
8
BLACK
6
CONTINUOUS
10
0.3925
20
1.17236
11
0.4225
21
1.17236
0
LINE
8
BLACK
6
CONTINUOUS
10
0.4225
20
1.17236
11
0.42417
21
1.17167
0
LINE
8
BLACK
6
CONTINUOUS
10
0.58417
20
1.17167
11
0.584862
21
1.17
0
LINE
8
BLACK
6
CONTINUOUS
10
0.584862
20
1.17
11
0.58417
21
1.16833
0
LINE
8
BLACK
6
CONTINUOUS
10
0.58417
20
1.16833
11
0.5825
21
1.16764
0
LINE
8
BLACK
6
CONTINUOUS
10
0.5825
20
1.16764
11
0.5525
21
1.16764
0
LINE
8
BLACK
6
CONTINUOUS
10
0.5525
20
1.16764
11
0.55083
21
1.16833
0
LINE
8
BLACK
6
CONTINUOUS
10
0.55083
20
1.16833
11
0.550138
21
1.17
0
LINE
8
BLACK
6
CONTINUOUS
10
0.550138
20
1.17
11
0.55083
21
1.17167
0
LINE
8
BLACK
6
CONTINUOUS
10
0.55083
20
1.17167
11
0.5525
21
1.17236
0
LINE
8
BLACK
6
CONTINUOUS
10
0.5525
20
1.17236
11
0.5825
21
1.17236
0
LINE
8
BLACK
6
CONTINUOUS
10
0.5825
20
1.17236
11
0.58417
21
1.17167
0
LINE
8
BLACK
6
CONTINUOUS
10
0.58417
20
1.23167
11
0.584862
21
1.23
0
LINE
8
BLACK
6
CONTINUOUS
10
0.584862
20
1.23
11
0.58417
21
1.22833
0
LINE
8
BLACK
6
CONTINUOUS
10
0.58417
20
1.22833
11
0.5825
21
1.22764
0
LINE
8
BLACK
6
CONTINUOUS
10
0.5825
20
1.22764
11
0.5525
21
1.22764
0
LINE
8
BLACK
6
CONTINUOUS
10
0.5525
20
1.22764
11
0.55083
21
1.22833
0
LINE
8
BLACK
6
CONTINUOUS
10
0.55083
20
1.22833
11
0.550138
21
1.23
0
LINE
8
BLACK
6
CONTINUOUS
10
0.550138
20
1.23
11
0.55083
21
1.23167
0
LINE
8
BLACK
6
CONTINUOUS
10
0.55083
20
1.23167
11
0.5525
21
1.23236
0
LINE
8
BLACK
6
CONTINUOUS
10
0.5525
20
1.23236
11
0.5825
21
1.23236
0
LINE
8
BLACK
6
CONTINUOUS
10
0.5825
20
1.23236
11
0.58417
21
1.23167
0
LINE
8
BLACK
6
CONTINUOUS
10
0.42417
20
1.23167
11
0.424862
21
1.23
0
LINE
8
BLACK
6
CONTINUOUS
10
0.424862
20
1.23
11
0.42417
21
1.22833
0
LINE
8
BLACK
6
CONTINUOUS
10
0.42417
20
1.22833
11
0.4225
21
1.22764
0
LINE
8
BLACK
6
CONTINUOUS
10
0.4225
20
1.22764
11
0.3925
21
1.22764
0
LINE
8
BLACK
6
CONTINUOUS
10
0.3925
20
1.22764
11
0.39083
21
1.22833
0
LINE
8
BLACK
6
CONTINUOUS
10
0.39083
20
1.22833
11
0.390138
21
1.23
0
LINE
8
BLACK
6
CONTINUOUS
10
0.390138
20
1.23
11
0.39083
21
1.23167
0
LINE
8
BLACK
6
CONTINUOUS
10
0.39083
20
1.23167
11
0.3925
21
1.23236
0
LINE
8
BLACK
6
CONTINUOUS
10
0.3925
20
1.23236
11
0.4225
21
1.23236
0
LINE
8
BLACK
6
CONTINUOUS
10
0.4225
20
1.23236
11
0.42417
21
1.23167
0
LINE
8
BLACK
6
CONTINUOUS
10
0.92441
20
1.25037
11
0.925957
21
1.24908
0
LINE
8
BLACK
6
CONTINUOUS
10
0.925957
20
1.24908
11
0.926308
21
1.24709
0
LINE
8
BLACK
6
CONTINUOUS
10
0.926308
20
1.24709
11
0.925298
21
1.24534
0
LINE
8
BLACK
6
CONTINUOUS
10
0.925298
20
1.24534
11
0.9234
21
1.24465
0
LINE
8
BLACK
6
CONTINUOUS
10
0.9234
20
1.24465
11
0.6872
21
1.24465
0
LINE
8
BLACK
6
CONTINUOUS
10
0.6872
20
1.24465
11
0.68619
21
1.24483
0
LINE
8
BLACK
6
CONTINUOUS
10
0.68619
20
1.24483
11
0.684643
21
1.24612
0
LINE
8
BLACK
6
CONTINUOUS
10
0.684643
20
1.24612
11
0.684292
21
1.24811
0
LINE
8
BLACK
6
CONTINUOUS
10
0.684292
20
1.24811
11
0.685302
21
1.24986
0
LINE
8
BLACK
6
CONTINUOUS
10
0.685302
20
1.24986
11
0.6872
21
1.25055
0
LINE
8
BLACK
6
CONTINUOUS
10
0.6872
20
1.25055
11
0.9234
21
1.25055
0
LINE
8
BLACK
6
CONTINUOUS
10
0.9234
20
1.25055
11
0.92441
21
1.25037
0
LINE
8
BLACK
6
CONTINUOUS
10
1.0042
20
1.30477
11
1.0064
21
1.30257
0
LINE
8
BLACK
6
CONTINUOUS
10
1.0064
20
1.30257
11
1.0072
21
1.29957
0
LINE
8
BLACK
6
CONTINUOUS
10
1.0072
20
1.29957
11
1.0072
21
1.28405
0
LINE
8
BLACK
6
CONTINUOUS
10
1.0072
20
1.28405
11
1.0249
21
1.28405
0
LINE
8
BLACK
6
CONTINUOUS
10
1.0249
20
1.28405
11
1.02591
21
1.28387
0
LINE
8
BLACK
6
CONTINUOUS
10
1.02591
20
1.28387
11
1.02746
21
1.28258
0
LINE
8
BLACK
6
CONTINUOUS
10
1.02746
20
1.28258
11
1.02769
21
1.28128
0
LINE
8
BLACK
6
CONTINUOUS
10
1.02769
20
1.28128
11
1.02925
21
1.27971
0
LINE
8
BLACK
6
CONTINUOUS
10
1.02925
20
1.27971
11
1.03006
21
1.27671
0
LINE
8
BLACK
6
CONTINUOUS
10
1.03006
20
1.27671
11
1.02925
21
1.27371
0
LINE
8
BLACK
6
CONTINUOUS
10
1.02925
20
1.27371
11
1.02706
21
1.27152
0
LINE
8
BLACK
6
CONTINUOUS
10
1.02706
20
1.27152
11
1.02406
21
1.27071
0
LINE
8
BLACK
6
CONTINUOUS
10
1.02406
20
1.27071
11
1.0072
21
1.27071
0
LINE
8
BLACK
6
CONTINUOUS
10
1.0072
20
1.27071
11
1.0072
21
1.25386
0
LINE
8
BLACK
6
CONTINUOUS
10
1.0072
20
1.25386
11
1.0064
21
1.25086
0
LINE
8
BLACK
6
CONTINUOUS
10
1.0064
20
1.25086
11
1.0042
21
1.24866
0
LINE
8
BLACK
6
CONTINUOUS
10
1.0042
20
1.24866
11
1.0012
21
1.24786
0
LINE
8
BLACK
6
CONTINUOUS
10
1.0012
20
1.24786
11
0.9982
21
1.24866
0
LINE
8
BLACK
6
CONTINUOUS
10
0.9982
20
1.24866
11
0.996004
21
1.25086
0
LINE
8
BLACK
6
CONTINUOUS
10
0.996004
20
1.25086
11
0.9952
21
1.25386
0
LINE
8
BLACK
6
CONTINUOUS
10
0.9952
20
1.25386
11
0.9952
21
1.27071
0
LINE
8
BLACK
6
CONTINUOUS
10
0.9952
20
1.27071
11
0.978343
21
1.27071
0
LINE
8
BLACK
6
CONTINUOUS
10
0.978343
20
1.27071
11
0.975343
21
1.27152
0
LINE
8
BLACK
6
CONTINUOUS
10
0.975343
20
1.27152
11
0.973147
21
1.27371
0
LINE
8
BLACK
6
CONTINUOUS
10
0.973147
20
1.27371
11
0.972343
21
1.27671
0
LINE
8
BLACK
6
CONTINUOUS
10
0.972343
20
1.27671
11
0.973147
21
1.27971
0
LINE
8
BLACK
6
CONTINUOUS
10
0.973147
20
1.27971
11
0.97483
21
1.2814
0
LINE
8
BLACK
6
CONTINUOUS
10
0.97483
20
1.2814
11
0.974792
21
1.28161
0
LINE
8
BLACK
6
CONTINUOUS
10
0.974792
20
1.28161
11
0.975802
21
1.28336
0
LINE
8
BLACK
6
CONTINUOUS
10
0.975802
20
1.28336
11
0.9777
21
1.28405
0
LINE
8
BLACK
6
CONTINUOUS
10
0.9777
20
1.28405
11
0.9952
21
1.28405
0
LINE
8
BLACK
6
CONTINUOUS
10
0.9952
20
1.28405
11
0.9952
21
1.29957
0
LINE
8
BLACK
6
CONTINUOUS
10
0.9952
20
1.29957
11
0.996004
21
1.30257
0
LINE
8
BLACK
6
CONTINUOUS
10
0.996004
20
1.30257
11
0.9982
21
1.30477
0
LINE
8
BLACK
6
CONTINUOUS
10
0.9982
20
1.30477
11
1.0012
21
1.30557
0
LINE
8
BLACK
6
CONTINUOUS
10
1.0012
20
1.30557
11
1.0042
21
1.30477
0
LINE
8
BLACK
6
CONTINUOUS
10
0.788076
20
1.33361
11
0.78904
21
1.33355
0
LINE
8
BLACK
6
CONTINUOUS
10
0.78904
20
1.33355
11
0.797612
21
1.33069
0
LINE
8
BLACK
6
CONTINUOUS
10
0.797612
20
1.33069
11
0.798762
21
1.32993
0
LINE
8
BLACK
6
CONTINUOUS
10
0.798762
20
1.32993
11
0.799957
21
1.32924
0
LINE
8
BLACK
6
CONTINUOUS
10
0.799957
20
1.32924
11
0.805671
21
1.32353
0
LINE
8
BLACK
6
CONTINUOUS
10
0.805671
20
1.32353
11
0.806154
21
1.32269
0
LINE
8
BLACK
6
CONTINUOUS
10
0.806154
20
1.32269
11
0.806795
21
1.32197
0
LINE
8
BLACK
6
CONTINUOUS
10
0.806795
20
1.32197
11
0.809652
21
1.31625
0
LINE
8
BLACK
6
CONTINUOUS
10
0.809652
20
1.31625
11
0.809785
21
1.31561
0
LINE
8
BLACK
6
CONTINUOUS
10
0.809785
20
1.31561
11
0.810107
21
1.31503
0
LINE
8
BLACK
6
CONTINUOUS
10
0.810107
20
1.31503
11
0.812964
21
1.3036
0
LINE
8
BLACK
6
CONTINUOUS
10
0.812964
20
1.3036
11
0.812951
21
1.30286
0
LINE
8
BLACK
6
CONTINUOUS
10
0.812951
20
1.30286
11
0.813143
21
1.30214
0
LINE
8
BLACK
6
CONTINUOUS
10
0.813143
20
1.30214
11
0.813143
21
1.29357
0
LINE
8
BLACK
6
CONTINUOUS
10
0.813143
20
1.29357
11
0.812951
21
1.29286
0
LINE
8
BLACK
6
CONTINUOUS
10
0.812951
20
1.29286
11
0.812964
21
1.29212
0
LINE
8
BLACK
6
CONTINUOUS
10
0.812964
20
1.29212
11
0.810107
21
1.28069
0
LINE
8
BLACK
6
CONTINUOUS
10
0.810107
20
1.28069
11
0.809785
21
1.28011
0
LINE
8
BLACK
6
CONTINUOUS
10
0.809785
20
1.28011
11
0.809652
21
1.27946
0
LINE
8
BLACK
6
CONTINUOUS
10
0.809652
20
1.27946
11
0.806795
21
1.27375
0
LINE
8
BLACK
6
CONTINUOUS
10
0.806795
20
1.27375
11
0.806154
21
1.27302
0
LINE
8
BLACK
6
CONTINUOUS
10
0.806154
20
1.27302
11
0.805671
21
1.27219
0
LINE
8
BLACK
6
CONTINUOUS
10
0.805671
20
1.27219
11
0.799957
21
1.26647
0
LINE
8
BLACK
6
CONTINUOUS
10
0.799957
20
1.26647
11
0.798762
21
1.26578
0
LINE
8
BLACK
6
CONTINUOUS
10
0.798762
20
1.26578
11
0.797612
21
1.26502
0
LINE
8
BLACK
6
CONTINUOUS
10
0.797612
20
1.26502
11
0.78904
21
1.26217
0
LINE
8
BLACK
6
CONTINUOUS
10
0.78904
20
1.26217
11
0.788076
21
1.26211
0
LINE
8
BLACK
6
CONTINUOUS
10
0.788076
20
1.26211
11
0.787143
21
1.26186
0
LINE
8
BLACK
6
CONTINUOUS
10
0.787143
20
1.26186
11
0.781429
21
1.26186
0
LINE
8
BLACK
6
CONTINUOUS
10
0.781429
20
1.26186
11
0.780496
21
1.26211
0
LINE
8
BLACK
6
CONTINUOUS
10
0.780496
20
1.26211
11
0.779531
21
1.26216
0
LINE
8
BLACK
6
CONTINUOUS
10
0.779531
20
1.26216
11
0.77096
21
1.26502
0
LINE
8
BLACK
6
CONTINUOUS
10
0.77096
20
1.26502
11
0.769809
21
1.26578
0
LINE
8
BLACK
6
CONTINUOUS
10
0.769809
20
1.26578
11
0.768614
21
1.26647
0
LINE
8
BLACK
6
CONTINUOUS
10
0.768614
20
1.26647
11
0.765757
21
1.26933
0
LINE
8
BLACK
6
CONTINUOUS
10
0.765757
20
1.26933
11
0.764204
21
1.27202
0
LINE
8
BLACK
6
CONTINUOUS
10
0.764204
20
1.27202
11
0.764204
21
1.27512
0
LINE
8
BLACK
6
CONTINUOUS
10
0.764204
20
1.27512
11
0.765757
21
1.27781
0
LINE
8
BLACK
6
CONTINUOUS
10
0.765757
20
1.27781
11
0.768447
21
1.27937
0
LINE
8
BLACK
6
CONTINUOUS
10
0.768447
20
1.27937
11
0.771553
21
1.27937
0
LINE
8
BLACK
6
CONTINUOUS
10
0.771553
20
1.27937
11
0.774243
21
1.27781
0
LINE
8
BLACK
6
CONTINUOUS
10
0.774243
20
1.27781
11
0.776098
21
1.27596
0
LINE
8
BLACK
6
CONTINUOUS
10
0.776098
20
1.27596
11
0.782402
21
1.27386
0
LINE
8
BLACK
6
CONTINUOUS
10
0.782402
20
1.27386
11
0.786169
21
1.27386
0
LINE
8
BLACK
6
CONTINUOUS
10
0.786169
20
1.27386
11
0.792473
21
1.27596
0
LINE
8
BLACK
6
CONTINUOUS
10
0.792473
20
1.27596
11
0.796497
21
1.27998
0
LINE
8
BLACK
6
CONTINUOUS
10
0.796497
20
1.27998
11
0.798625
21
1.28424
0
LINE
8
BLACK
6
CONTINUOUS
10
0.798625
20
1.28424
11
0.801143
21
1.29431
0
LINE
8
BLACK
6
CONTINUOUS
10
0.801143
20
1.29431
11
0.801143
21
1.3014
0
LINE
8
BLACK
6
CONTINUOUS
10
0.801143
20
1.3014
11
0.798625
21
1.31148
0
LINE
8
BLACK
6
CONTINUOUS
10
0.798625
20
1.31148
11
0.796497
21
1.31573
0
LINE
8
BLACK
6
CONTINUOUS
10
0.796497
20
1.31573
11
0.792473
21
1.31976
0
LINE
8
BLACK
6
CONTINUOUS
10
0.792473
20
1.31976
11
0.786169
21
1.32186
0
LINE
8
BLACK
6
CONTINUOUS
10
0.786169
20
1.32186
11
0.782402
21
1.32186
0
LINE
8
BLACK
6
CONTINUOUS
10
0.782402
20
1.32186
11
0.776098
21
1.31976
0
LINE
8
BLACK
6
CONTINUOUS
10
0.776098
20
1.31976
11
0.774243
21
1.3179
0
LINE
8
BLACK
6
CONTINUOUS
10
0.774243
20
1.3179
11
0.771553
21
1.31635
0
LINE
8
BLACK
6
CONTINUOUS
10
0.771553
20
1.31635
11
0.768447
21
1.31635
0
LINE
8
BLACK
6
CONTINUOUS
10
0.768447
20
1.31635
11
0.765757
21
1.3179
0
LINE
8
BLACK
6
CONTINUOUS
10
0.765757
20
1.3179
11
0.764204
21
1.32059
0
LINE
8
BLACK
6
CONTINUOUS
10
0.764204
20
1.32059
11
0.764204
21
1.3237
0
LINE
8
BLACK
6
CONTINUOUS
10
0.764204
20
1.3237
11
0.765757
21
1.32639
0
LINE
8
BLACK
6
CONTINUOUS
10
0.765757
20
1.32639
11
0.768614
21
1.32924
0
LINE
8
BLACK
6
CONTINUOUS
10
0.768614
20
1.32924
11
0.769809
21
1.32993
0
LINE
8
BLACK
6
CONTINUOUS
10
0.769809
20
1.32993
11
0.77096
21
1.33069
0
LINE
8
BLACK
6
CONTINUOUS
10
0.77096
20
1.33069
11
0.779531
21
1.33355
0
LINE
8
BLACK
6
CONTINUOUS
10
0.779531
20
1.33355
11
0.780496
21
1.33361
0
LINE
8
BLACK
6
CONTINUOUS
10
0.780496
20
1.33361
11
0.781429
21
1.33386
0
LINE
8
BLACK
6
CONTINUOUS
10
0.781429
20
1.33386
11
0.787143
21
1.33386
0
LINE
8
BLACK
6
CONTINUOUS
10
0.787143
20
1.33386
11
0.788076
21
1.33361
0
LINE
8
BLACK
6
CONTINUOUS
10
0.709857
20
1.26266
11
0.707661
21
1.26486
0
LINE
8
BLACK
6
CONTINUOUS
10
0.707661
20
1.26486
11
0.706857
21
1.26786
0
LINE
8
BLACK
6
CONTINUOUS
10
0.706857
20
1.26786
11
0.707661
21
1.27086
0
LINE
8
BLACK
6
CONTINUOUS
10
0.707661
20
1.27086
11
0.709857
21
1.27305
0
LINE
8
BLACK
6
CONTINUOUS
10
0.709857
20
1.27305
11
0.712857
21
1.27386
0
LINE
8
BLACK
6
CONTINUOUS
10
0.712857
20
1.27386
11
0.724
21
1.27386
0
LINE
8
BLACK
6
CONTINUOUS
10
0.724
20
1.27386
11
0.724
21
1.32786
0
LINE
8
BLACK
6
CONTINUOUS
10
0.724
20
1.32786
11
0.724354
21
1.32918
0
LINE
8
BLACK
6
CONTINUOUS
10
0.724354
20
1.32918
11
0.724622
21
1.33052
0
LINE
8
BLACK
6
CONTINUOUS
10
0.724622
20
1.33052
11
0.724753
21
1.33067
0
LINE
8
BLACK
6
CONTINUOUS
10
0.724753
20
1.33067
11
0.724804
21
1.33086
0
LINE
8
BLACK
6
CONTINUOUS
10
0.724804
20
1.33086
11
0.72577
21
1.33182
0
LINE
8
BLACK
6
CONTINUOUS
10
0.72577
20
1.33182
11
0.726672
21
1.33285
0
LINE
8
BLACK
6
CONTINUOUS
10
0.726672
20
1.33285
11
0.72686
21
1.33291
0
LINE
8
BLACK
6
CONTINUOUS
10
0.72686
20
1.33291
11
0.727
21
1.33305
0
LINE
8
BLACK
6
CONTINUOUS
10
0.727
20
1.33305
11
0.72832
21
1.33341
0
LINE
8
BLACK
6
CONTINUOUS
10
0.72832
20
1.33341
11
0.729614
21
1.33384
0
LINE
8
BLACK
6
CONTINUOUS
10
0.729614
20
1.33384
11
0.729808
21
1.33381
0
LINE
8
BLACK
6
CONTINUOUS
10
0.729808
20
1.33381
11
0.73
21
1.33386
0
LINE
8
BLACK
6
CONTINUOUS
10
0.73
20
1.33386
11
0.73132
21
1.3335
0
LINE
8
BLACK
6
CONTINUOUS
10
0.73132
20
1.3335
11
0.732659
21
1.33324
0
LINE
8
BLACK
6
CONTINUOUS
10
0.732659
20
1.33324
11
0.732808
21
1.3331
0
LINE
8
BLACK
6
CONTINUOUS
10
0.732808
20
1.3331
11
0.733
21
1.33305
0
LINE
8
BLACK
6
CONTINUOUS
10
0.733
20
1.33305
11
0.733966
21
1.33209
0
LINE
8
BLACK
6
CONTINUOUS
10
0.733966
20
1.33209
11
0.734992
21
1.33119
0
LINE
8
BLACK
6
CONTINUOUS
10
0.734992
20
1.33119
11
0.740377
21
1.32311
0
LINE
8
BLACK
6
CONTINUOUS
10
0.740377
20
1.32311
11
0.744983
21
1.3185
0
LINE
8
BLACK
6
CONTINUOUS
10
0.744983
20
1.3185
11
0.749826
21
1.31608
0
LINE
8
BLACK
6
CONTINUOUS
10
0.749826
20
1.31608
11
0.75215
21
1.31402
0
LINE
8
BLACK
6
CONTINUOUS
10
0.75215
20
1.31402
11
0.753132
21
1.31107
0
LINE
8
BLACK
6
CONTINUOUS
10
0.753132
20
1.31107
11
0.752509
21
1.30803
0
LINE
8
BLACK
6
CONTINUOUS
10
0.752509
20
1.30803
11
0.750449
21
1.30571
0
LINE
8
BLACK
6
CONTINUOUS
10
0.750449
20
1.30571
11
0.747502
21
1.30473
0
LINE
8
BLACK
6
CONTINUOUS
10
0.747502
20
1.30473
11
0.74446
21
1.30535
0
LINE
8
BLACK
6
CONTINUOUS
10
0.74446
20
1.30535
11
0.738745
21
1.3082
0
LINE
8
BLACK
6
CONTINUOUS
10
0.738745
20
1.3082
11
0.738022
21
1.30885
0
LINE
8
BLACK
6
CONTINUOUS
10
0.738022
20
1.30885
11
0.737186
21
1.30933
0
LINE
8
BLACK
6
CONTINUOUS
10
0.737186
20
1.30933
11
0.736
21
1.31051
0
LINE
8
BLACK
6
CONTINUOUS
10
0.736
20
1.31051
11
0.736
21
1.27386
0
LINE
8
BLACK
6
CONTINUOUS
10
0.736
20
1.27386
11
0.747143
21
1.27386
0
LINE
8
BLACK
6
CONTINUOUS
10
0.747143
20
1.27386
11
0.750143
21
1.27305
0
LINE
8
BLACK
6
CONTINUOUS
10
0.750143
20
1.27305
11
0.752339
21
1.27086
0
LINE
8
BLACK
6
CONTINUOUS
10
0.752339
20
1.27086
11
0.753143
21
1.26786
0
LINE
8
BLACK
6
CONTINUOUS
10
0.753143
20
1.26786
11
0.752339
21
1.26486
0
LINE
8
BLACK
6
CONTINUOUS
10
0.752339
20
1.26486
11
0.750143
21
1.26266
0
LINE
8
BLACK
6
CONTINUOUS
10
0.750143
20
1.26266
11
0.747143
21
1.26186
0
LINE
8
BLACK
6
CONTINUOUS
10
0.747143
20
1.26186
11
0.712857
21
1.26186
0
LINE
8
BLACK
6
CONTINUOUS
10
0.712857
20
1.26186
11
0.709857
21
1.26266
0
LINE
8
BLACK
6
CONTINUOUS
10
0.89601
20
1.30527
11
0.897557
21
1.30398
0
LINE
8
BLACK
6
CONTINUOUS
10
0.897557
20
1.30398
11
0.897908
21
1.30199
0
LINE
8
BLACK
6
CONTINUOUS
10
0.897908
20
1.30199
11
0.896898
21
1.30024
0
LINE
8
BLACK
6
CONTINUOUS
10
0.896898
20
1.30024
11
0.895
21
1.29955
0
LINE
8
BLACK
6
CONTINUOUS
10
0.895
20
1.29955
11
0.835
21
1.29955
0
LINE
8
BLACK
6
CONTINUOUS
10
0.835
20
1.29955
11
0.83399
21
1.29973
0
LINE
8
BLACK
6
CONTINUOUS
10
0.83399
20
1.29973
11
0.832443
21
1.30102
0
LINE
8
BLACK
6
CONTINUOUS
10
0.832443
20
1.30102
11
0.832092
21
1.30301
0
LINE
8
BLACK
6
CONTINUOUS
10
0.832092
20
1.30301
11
0.833102
21
1.30476
0
LINE
8
BLACK
6
CONTINUOUS
10
0.833102
20
1.30476
11
0.835
21
1.30545
0
LINE
8
BLACK
6
CONTINUOUS
10
0.835
20
1.30545
11
0.895
21
1.30545
0
LINE
8
BLACK
6
CONTINUOUS
10
0.895
20
1.30545
11
0.89601
21
1.30527
0
LINE
8
BLACK
6
CONTINUOUS
10
0.83667
20
1.37917
11
0.837362
21
1.3775
0
LINE
8
BLACK
6
CONTINUOUS
10
0.837362
20
1.3775
11
0.837362
21
1.3475
0
LINE
8
BLACK
6
CONTINUOUS
10
0.837362
20
1.3475
11
0.83667
21
1.34583
0
LINE
8
BLACK
6
CONTINUOUS
10
0.83667
20
1.34583
11
0.835
21
1.34514
0
LINE
8
BLACK
6
CONTINUOUS
10
0.835
20
1.34514
11
0.83333
21
1.34583
0
LINE
8
BLACK
6
CONTINUOUS
10
0.83333
20
1.34583
11
0.832638
21
1.3475
0
LINE
8
BLACK
6
CONTINUOUS
10
0.832638
20
1.3475
11
0.832638
21
1.3775
0
LINE
8
BLACK
6
CONTINUOUS
10
0.832638
20
1.3775
11
0.83333
21
1.37917
0
LINE
8
BLACK
6
CONTINUOUS
10
0.83333
20
1.37917
11
0.835
21
1.37986
0
LINE
8
BLACK
6
CONTINUOUS
10
0.835
20
1.37986
11
0.83667
21
1.37917
0
LINE
8
BLACK
6
CONTINUOUS
10
0.89667
20
1.37917
11
0.897362
21
1.3775
0
LINE
8
BLACK
6
CONTINUOUS
10
0.897362
20
1.3775
11
0.897362
21
1.3475
0
LINE
8
BLACK
6
CONTINUOUS
10
0.897362
20
1.3475
11
0.89667
21
1.34583
0
LINE
8
BLACK
6
CONTINUOUS
10
0.89667
20
1.34583
11
0.895
21
1.34514
0
LINE
8
BLACK
6
CONTINUOUS
10
0.895
20
1.34514
11
0.89333
21
1.34583
0
LINE
8
BLACK
6
CONTINUOUS
10
0.89333
20
1.34583
11
0.892638
21
1.3475
0
LINE
8
BLACK
6
CONTINUOUS
10
0.892638
20
1.3475
11
0.892638
21
1.3775
0
LINE
8
BLACK
6
CONTINUOUS
10
0.892638
20
1.3775
11
0.89333
21
1.37917
0
LINE
8
BLACK
6
CONTINUOUS
10
0.89333
20
1.37917
11
0.895
21
1.37986
0
LINE
8
BLACK
6
CONTINUOUS
10
0.895
20
1.37986
11
0.89667
21
1.37917
0
LINE
8
BLACK
6
CONTINUOUS
10
0.89601
20
1.42527
11
0.897557
21
1.42398
0
LINE
8
BLACK
6
CONTINUOUS
10
0.897557
20
1.42398
11
0.897908
21
1.42199
0
LINE
8
BLACK
6
CONTINUOUS
10
0.897908
20
1.42199
11
0.896898
21
1.42024
0
LINE
8
BLACK
6
CONTINUOUS
10
0.896898
20
1.42024
11
0.895
21
1.41955
0
LINE
8
BLACK
6
CONTINUOUS
10
0.895
20
1.41955
11
0.835
21
1.41955
0
LINE
8
BLACK
6
CONTINUOUS
10
0.835
20
1.41955
11
0.83399
21
1.41973
0
LINE
8
BLACK
6
CONTINUOUS
10
0.83399
20
1.41973
11
0.832443
21
1.42102
0
LINE
8
BLACK
6
CONTINUOUS
10
0.832443
20
1.42102
11
0.832092
21
1.42301
0
LINE
8
BLACK
6
CONTINUOUS
10
0.832092
20
1.42301
11
0.833102
21
1.42476
0
LINE
8
BLACK
6
CONTINUOUS
10
0.833102
20
1.42476
11
0.835
21
1.42545
0
LINE
8
BLACK
6
CONTINUOUS
10
0.835
20
1.42545
11
0.895
21
1.42545
0
LINE
8
BLACK
6
CONTINUOUS
10
0.895
20
1.42545
11
0.89601
21
1.42527
  0
ENDSEC
  0
EOF
