  0
SECTION
  2
HEADER
  9
$ANGBASE
  50
0.0
  9
$ANGDIR
  70
1
  9
$MEASUREMENT
  70
0
  0
ENDSEC
  0
SECTION
  2
TABLES
  0
TABLE
  2
LTYPE
  70
4
  0
LTYPE
  5
40F
  2
CONTINUOUS
  70
0
  3
Solid line
  72
65
  73
0
  40
0.0
  0
LTYPE
  5
410
  2
DASHDOT
 70
0
  3
Dash Dot ____ _ ____ _
 72
65
 73
4
 40
2.0
 49
1.25
 49
-0.25
 49
0.25
 49
-0.25
  0
LTYPE
  5
411
  2
DASHED
 70
0
  3
Dashed __ __ __ __ __
 72
65
 73
2
 40
0.75
 49
0.5
 49
-0.25
  0
LTYPE
  5
43B
  2
DOTTED
 70
0
  3
Dotted .  .  .  .
 72
65
 73
2
 40
0.2
 49
0.0
 49
-0.2
  0
ENDTAB
  0
TABLE
  2
STYLE
  70
4
  0
STYLE
  2
KICAD
  70
0
  40
0
  41
1
  42
1
  50
0
  71
0
  3
isocp.shx
  0
STYLE
  2
KICADB
  70
0
  40
0
  41
1
  42
1
  50
0
  71
0
  3
isocp.shx
  0
STYLE
  2
KICADI
  70
0
  40
0
  41
1
  42
1
  50
15
  71
0
  3
isocp.shx
  0
STYLE
  2
KICADBI
  70
0
  40
0
  41
1
  42
1
  50
15
  71
0
  3
isocp.shx
  0
ENDTAB
  0
TABLE
  2
LAYER
  70
1
  0
LAYER
  2
BLACK
  70
0
  62
7
  6
CONTINUOUS
  0
ENDTAB
  0
ENDSEC
  0
SECTION
  2
ENTITIES
0
LINE
8
BLACK
6
CONTINUOUS
10
0.775406
20
0.0415087
11
0.775118
21
0.0422047
0
LINE
8
BLACK
6
CONTINUOUS
10
0.775118
20
0.0422047
11
0.775118
21
0.317795
0
LINE
8
BLACK
6
CONTINUOUS
10
0.775118
20
0.317795
11
0.775406
21
0.318491
0
LINE
8
BLACK
6
CONTINUOUS
10
0.775406
20
0.318491
11
0.776102
21
0.31878
0
LINE
8
BLACK
6
CONTINUOUS
10
0.776102
20
0.31878
11
0.913898
21
0.31878
0
LINE
8
BLACK
6
CONTINUOUS
10
0.913898
20
0.31878
11
0.914594
21
0.318491
0
LINE
8
BLACK
6
CONTINUOUS
10
0.914594
20
0.318491
11
0.914882
21
0.317795
0
LINE
8
BLACK
6
CONTINUOUS
10
0.914882
20
0.317795
11
0.914882
21
0.0422047
0
LINE
8
BLACK
6
CONTINUOUS
10
0.914882
20
0.0422047
11
0.914594
21
0.0415087
0
LINE
8
BLACK
6
CONTINUOUS
10
0.914594
20
0.0415087
11
0.913898
21
0.0412205
0
LINE
8
BLACK
6
CONTINUOUS
10
0.913898
20
0.0412205
11
0.776102
21
0.0412205
0
LINE
8
BLACK
6
CONTINUOUS
10
0.776102
20
0.0412205
11
0.775406
21
0.0415087
0
LINE
8
BLACK
6
CONTINUOUS
10
0.777087
20
0.316811
11
0.777087
21
0.043189
0
LINE
8
BLACK
6
CONTINUOUS
10
0.777087
20
0.043189
11
0.912913
21
0.043189
0
LINE
8
BLACK
6
CONTINUOUS
10
0.912913
20
0.043189
11
0.912913
21
0.316811
0
LINE
8
BLACK
6
CONTINUOUS
10
0.912913
20
0.316811
11
0.777087
21
0.316811
0
LINE
8
BLACK
6
CONTINUOUS
10
0.612808
20
0.648438
11
0.61252
21
0.649134
0
LINE
8
BLACK
6
CONTINUOUS
10
0.61252
20
0.649134
11
0.61252
21
0.790866
0
LINE
8
BLACK
6
CONTINUOUS
10
0.61252
20
0.790866
11
0.612808
21
0.791562
0
LINE
8
BLACK
6
CONTINUOUS
10
0.612808
20
0.791562
11
0.613504
21
0.79185
0
LINE
8
BLACK
6
CONTINUOUS
10
0.613504
20
0.79185
11
0.76311
21
0.79185
0
LINE
8
BLACK
6
CONTINUOUS
10
0.76311
20
0.79185
11
0.763806
21
0.791562
0
LINE
8
BLACK
6
CONTINUOUS
10
0.763806
20
0.791562
11
0.764094
21
0.790866
0
LINE
8
BLACK
6
CONTINUOUS
10
0.764094
20
0.790866
11
0.764094
21
0.649134
0
LINE
8
BLACK
6
CONTINUOUS
10
0.764094
20
0.649134
11
0.763806
21
0.648438
0
LINE
8
BLACK
6
CONTINUOUS
10
0.763806
20
0.648438
11
0.76311
21
0.64815
0
LINE
8
BLACK
6
CONTINUOUS
10
0.76311
20
0.64815
11
0.613504
21
0.64815
0
LINE
8
BLACK
6
CONTINUOUS
10
0.613504
20
0.64815
11
0.612808
21
0.648438
0
LINE
8
BLACK
6
CONTINUOUS
10
0.614488
20
0.789882
11
0.614488
21
0.650118
0
LINE
8
BLACK
6
CONTINUOUS
10
0.614488
20
0.650118
11
0.762126
21
0.650118
0
LINE
8
BLACK
6
CONTINUOUS
10
0.762126
20
0.650118
11
0.762126
21
0.789882
0
LINE
8
BLACK
6
CONTINUOUS
10
0.762126
20
0.789882
11
0.614488
21
0.789882
0
LINE
8
BLACK
6
CONTINUOUS
10
0.681469
20
0.974028
11
0.681181
21
0.974724
0
LINE
8
BLACK
6
CONTINUOUS
10
0.681181
20
0.974724
11
0.681181
21
1.06528
0
LINE
8
BLACK
6
CONTINUOUS
10
0.681181
20
1.06528
11
0.681469
21
1.06597
0
LINE
8
BLACK
6
CONTINUOUS
10
0.681469
20
1.06597
11
0.682165
21
1.06626
0
LINE
8
BLACK
6
CONTINUOUS
10
0.682165
20
1.06626
11
0.927835
21
1.06626
0
LINE
8
BLACK
6
CONTINUOUS
10
0.927835
20
1.06626
11
0.928531
21
1.06597
0
LINE
8
BLACK
6
CONTINUOUS
10
0.928531
20
1.06597
11
0.928819
21
1.06528
0
LINE
8
BLACK
6
CONTINUOUS
10
0.928819
20
1.06528
11
0.928819
21
0.974724
0
LINE
8
BLACK
6
CONTINUOUS
10
0.928819
20
0.974724
11
0.928531
21
0.974028
0
LINE
8
BLACK
6
CONTINUOUS
10
0.928531
20
0.974028
11
0.927835
21
0.97374
0
LINE
8
BLACK
6
CONTINUOUS
10
0.927835
20
0.97374
11
0.682165
21
0.97374
0
LINE
8
BLACK
6
CONTINUOUS
10
0.682165
20
0.97374
11
0.681469
21
0.974028
0
LINE
8
BLACK
6
CONTINUOUS
10
0.68315
20
1.06429
11
0.68315
21
0.975709
0
LINE
8
BLACK
6
CONTINUOUS
10
0.68315
20
0.975709
11
0.92685
21
0.975709
0
LINE
8
BLACK
6
CONTINUOUS
10
0.92685
20
0.975709
11
0.92685
21
1.06429
0
LINE
8
BLACK
6
CONTINUOUS
10
0.92685
20
1.06429
11
0.68315
21
1.06429
  0
ENDSEC
  0
EOF
