  0
SECTION
  2
HEADER
  9
$ANGBASE
  50
0.0
  9
$ANGDIR
  70
1
  9
$MEASUREMENT
  70
0
  0
ENDSEC
  0
SECTION
  2
TABLES
  0
TABLE
  2
LTYPE
  70
4
  0
LTYPE
  5
40F
  2
CONTINUOUS
  70
0
  3
Solid line
  72
65
  73
0
  40
0.0
  0
LTYPE
  5
410
  2
DASHDOT
 70
0
  3
Dash Dot ____ _ ____ _
 72
65
 73
4
 40
2.0
 49
1.25
 49
-0.25
 49
0.25
 49
-0.25
  0
LTYPE
  5
411
  2
DASHED
 70
0
  3
Dashed __ __ __ __ __
 72
65
 73
2
 40
0.75
 49
0.5
 49
-0.25
  0
LTYPE
  5
43B
  2
DOTTED
 70
0
  3
Dotted .  .  .  .
 72
65
 73
2
 40
0.2
 49
0.0
 49
-0.2
  0
ENDTAB
  0
TABLE
  2
STYLE
  70
4
  0
STYLE
  2
KICAD
  70
0
  40
0
  41
1
  42
1
  50
0
  71
0
  3
isocp.shx
  0
STYLE
  2
KICADB
  70
0
  40
0
  41
1
  42
1
  50
0
  71
0
  3
isocp.shx
  0
STYLE
  2
KICADI
  70
0
  40
0
  41
1
  42
1
  50
15
  71
0
  3
isocp.shx
  0
STYLE
  2
KICADBI
  70
0
  40
0
  41
1
  42
1
  50
15
  71
0
  3
isocp.shx
  0
ENDTAB
  0
TABLE
  2
LAYER
  70
1
  0
LAYER
  2
BLACK
  70
0
  62
7
  6
CONTINUOUS
  0
ENDTAB
  0
ENDSEC
  0
SECTION
  2
ENTITIES
0
LINE
8
BLACK
6
CONTINUOUS
10
0.314096
20
-0.0778402
11
0.315643
21
-0.0791385
0
LINE
8
BLACK
6
CONTINUOUS
10
0.315643
20
-0.0791385
11
0.315994
21
-0.0811277
0
LINE
8
BLACK
6
CONTINUOUS
10
0.315994
20
-0.0811277
11
0.314984
21
-0.0828769
0
LINE
8
BLACK
6
CONTINUOUS
10
0.314984
20
-0.0828769
11
0.313086
21
-0.0835677
0
LINE
8
BLACK
6
CONTINUOUS
10
0.313086
20
-0.0835677
11
0.287026
21
-0.0835677
0
LINE
8
BLACK
6
CONTINUOUS
10
0.287026
20
-0.0835677
11
0.303086
21
-0.0910625
0
LINE
8
BLACK
6
CONTINUOUS
10
0.303086
20
-0.0910625
11
0.303404
21
-0.0912852
0
LINE
8
BLACK
6
CONTINUOUS
10
0.303404
20
-0.0912852
11
0.30353
21
-0.091319
0
LINE
8
BLACK
6
CONTINUOUS
10
0.30353
20
-0.091319
11
0.303606
21
-0.0914267
0
LINE
8
BLACK
6
CONTINUOUS
10
0.303606
20
-0.0914267
11
0.303926
21
-0.091651
0
LINE
8
BLACK
6
CONTINUOUS
10
0.303926
20
-0.091651
11
0.304249
21
-0.0923454
0
LINE
8
BLACK
6
CONTINUOUS
10
0.304249
20
-0.0923454
11
0.304689
21
-0.0929732
0
LINE
8
BLACK
6
CONTINUOUS
10
0.304689
20
-0.0929732
11
0.304666
21
-0.0932396
0
LINE
8
BLACK
6
CONTINUOUS
10
0.304666
20
-0.0932396
11
0.304779
21
-0.0934818
0
LINE
8
BLACK
6
CONTINUOUS
10
0.304779
20
-0.0934818
11
0.30458
21
-0.0942219
0
LINE
8
BLACK
6
CONTINUOUS
10
0.30458
20
-0.0942219
11
0.304514
21
-0.0949854
0
LINE
8
BLACK
6
CONTINUOUS
10
0.304514
20
-0.0949854
11
0.304325
21
-0.0951744
0
LINE
8
BLACK
6
CONTINUOUS
10
0.304325
20
-0.0951744
11
0.304256
21
-0.0954326
0
LINE
8
BLACK
6
CONTINUOUS
10
0.304256
20
-0.0954326
11
0.303628
21
-0.095872
0
LINE
8
BLACK
6
CONTINUOUS
10
0.303628
20
-0.095872
11
0.303086
21
-0.096414
0
LINE
8
BLACK
6
CONTINUOUS
10
0.303086
20
-0.096414
11
0.287026
21
-0.103909
0
LINE
8
BLACK
6
CONTINUOUS
10
0.287026
20
-0.103909
11
0.313086
21
-0.103909
0
LINE
8
BLACK
6
CONTINUOUS
10
0.313086
20
-0.103909
11
0.314096
21
-0.104087
0
LINE
8
BLACK
6
CONTINUOUS
10
0.314096
20
-0.104087
11
0.315643
21
-0.105385
0
LINE
8
BLACK
6
CONTINUOUS
10
0.315643
20
-0.105385
11
0.315994
21
-0.107374
0
LINE
8
BLACK
6
CONTINUOUS
10
0.315994
20
-0.107374
11
0.314984
21
-0.109124
0
LINE
8
BLACK
6
CONTINUOUS
10
0.314984
20
-0.109124
11
0.313086
21
-0.109814
0
LINE
8
BLACK
6
CONTINUOUS
10
0.313086
20
-0.109814
11
0.273716
21
-0.109814
0
LINE
8
BLACK
6
CONTINUOUS
10
0.273716
20
-0.109814
11
0.272706
21
-0.109636
0
LINE
8
BLACK
6
CONTINUOUS
10
0.272706
20
-0.109636
11
0.272404
21
-0.109383
0
LINE
8
BLACK
6
CONTINUOUS
10
0.272404
20
-0.109383
11
0.272023
21
-0.109281
0
LINE
8
BLACK
6
CONTINUOUS
10
0.272023
20
-0.109281
11
0.271653
21
-0.108753
0
LINE
8
BLACK
6
CONTINUOUS
10
0.271653
20
-0.108753
11
0.271159
21
-0.108338
0
LINE
8
BLACK
6
CONTINUOUS
10
0.271159
20
-0.108338
11
0.27109
21
-0.10795
0
LINE
8
BLACK
6
CONTINUOUS
10
0.27109
20
-0.10795
11
0.270864
21
-0.107627
0
LINE
8
BLACK
6
CONTINUOUS
10
0.270864
20
-0.107627
11
0.27092
21
-0.106984
0
LINE
8
BLACK
6
CONTINUOUS
10
0.27092
20
-0.106984
11
0.270808
21
-0.106349
0
LINE
8
BLACK
6
CONTINUOUS
10
0.270808
20
-0.106349
11
0.271005
21
-0.106007
0
LINE
8
BLACK
6
CONTINUOUS
10
0.271005
20
-0.106007
11
0.271039
21
-0.105615
0
LINE
8
BLACK
6
CONTINUOUS
10
0.271039
20
-0.105615
11
0.271495
21
-0.105158
0
LINE
8
BLACK
6
CONTINUOUS
10
0.271495
20
-0.105158
11
0.271818
21
-0.1046
0
LINE
8
BLACK
6
CONTINUOUS
10
0.271818
20
-0.1046
11
0.272188
21
-0.104465
0
LINE
8
BLACK
6
CONTINUOUS
10
0.272188
20
-0.104465
11
0.272467
21
-0.104186
0
LINE
8
BLACK
6
CONTINUOUS
10
0.272467
20
-0.104186
11
0.294855
21
-0.0937383
0
LINE
8
BLACK
6
CONTINUOUS
10
0.294855
20
-0.0937383
11
0.272467
21
-0.0832907
0
LINE
8
BLACK
6
CONTINUOUS
10
0.272467
20
-0.0832907
11
0.271627
21
-0.0827022
0
LINE
8
BLACK
6
CONTINUOUS
10
0.271627
20
-0.0827022
11
0.271461
21
-0.0823448
0
LINE
8
BLACK
6
CONTINUOUS
10
0.271461
20
-0.0823448
11
0.271159
21
-0.0820913
0
LINE
8
BLACK
6
CONTINUOUS
10
0.271159
20
-0.0820913
11
0.271047
21
-0.0814561
0
LINE
8
BLACK
6
CONTINUOUS
10
0.271047
20
-0.0814561
11
0.270774
21
-0.0808714
0
LINE
8
BLACK
6
CONTINUOUS
10
0.270774
20
-0.0808714
11
0.270876
21
-0.0804905
0
LINE
8
BLACK
6
CONTINUOUS
10
0.270876
20
-0.0804905
11
0.270808
21
-0.0801022
0
LINE
8
BLACK
6
CONTINUOUS
10
0.270808
20
-0.0801022
11
0.27113
21
-0.0795436
0
LINE
8
BLACK
6
CONTINUOUS
10
0.27113
20
-0.0795436
11
0.271297
21
-0.0789206
0
LINE
8
BLACK
6
CONTINUOUS
10
0.271297
20
-0.0789206
11
0.271621
21
-0.0786944
0
LINE
8
BLACK
6
CONTINUOUS
10
0.271621
20
-0.0786944
11
0.271818
21
-0.078353
0
LINE
8
BLACK
6
CONTINUOUS
10
0.271818
20
-0.078353
11
0.272424
21
-0.0781324
0
LINE
8
BLACK
6
CONTINUOUS
10
0.272424
20
-0.0781324
11
0.272952
21
-0.0777626
0
LINE
8
BLACK
6
CONTINUOUS
10
0.272952
20
-0.0777626
11
0.273345
21
-0.077797
0
LINE
8
BLACK
6
CONTINUOUS
10
0.273345
20
-0.077797
11
0.273716
21
-0.0776622
0
LINE
8
BLACK
6
CONTINUOUS
10
0.273716
20
-0.0776622
11
0.313086
21
-0.0776622
0
LINE
8
BLACK
6
CONTINUOUS
10
0.313086
20
-0.0776622
11
0.314096
21
-0.0778402
0
LINE
8
BLACK
6
CONTINUOUS
10
0.314096
20
-0.0590926
11
0.315643
21
-0.0603909
0
LINE
8
BLACK
6
CONTINUOUS
10
0.315643
20
-0.0603909
11
0.315994
21
-0.06238
0
LINE
8
BLACK
6
CONTINUOUS
10
0.315994
20
-0.06238
11
0.314984
21
-0.0641292
0
LINE
8
BLACK
6
CONTINUOUS
10
0.314984
20
-0.0641292
11
0.313086
21
-0.06482
0
LINE
8
BLACK
6
CONTINUOUS
10
0.313086
20
-0.06482
11
0.273716
21
-0.06482
0
LINE
8
BLACK
6
CONTINUOUS
10
0.273716
20
-0.06482
11
0.272706
21
-0.0646419
0
LINE
8
BLACK
6
CONTINUOUS
10
0.272706
20
-0.0646419
11
0.271159
21
-0.0633436
0
LINE
8
BLACK
6
CONTINUOUS
10
0.271159
20
-0.0633436
11
0.270808
21
-0.0613545
0
LINE
8
BLACK
6
CONTINUOUS
10
0.270808
20
-0.0613545
11
0.271818
21
-0.0596053
0
LINE
8
BLACK
6
CONTINUOUS
10
0.271818
20
-0.0596053
11
0.273716
21
-0.0589145
0
LINE
8
BLACK
6
CONTINUOUS
10
0.273716
20
-0.0589145
11
0.313086
21
-0.0589145
0
LINE
8
BLACK
6
CONTINUOUS
10
0.313086
20
-0.0589145
11
0.314096
21
-0.0590926
0
LINE
8
BLACK
6
CONTINUOUS
10
0.311424
20
-0.0185345
11
0.313299
21
-0.0204093
0
LINE
8
BLACK
6
CONTINUOUS
10
0.313299
20
-0.0204093
11
0.313887
21
-0.0212493
0
LINE
8
BLACK
6
CONTINUOUS
10
0.313887
20
-0.0212493
11
0.313903
21
-0.0214252
0
LINE
8
BLACK
6
CONTINUOUS
10
0.313903
20
-0.0214252
11
0.314012
21
-0.0215634
0
LINE
8
BLACK
6
CONTINUOUS
10
0.314012
20
-0.0215634
11
0.315887
21
-0.0271877
0
LINE
8
BLACK
6
CONTINUOUS
10
0.315887
20
-0.0271877
11
0.316017
21
-0.0280609
0
LINE
8
BLACK
6
CONTINUOUS
10
0.316017
20
-0.0280609
11
0.316039
21
-0.0281215
0
LINE
8
BLACK
6
CONTINUOUS
10
0.316039
20
-0.0281215
11
0.316039
21
-0.031871
0
LINE
8
BLACK
6
CONTINUOUS
10
0.316039
20
-0.031871
11
0.315885
21
-0.0327404
0
LINE
8
BLACK
6
CONTINUOUS
10
0.315885
20
-0.0327404
11
0.315887
21
-0.0328048
0
LINE
8
BLACK
6
CONTINUOUS
10
0.315887
20
-0.0328048
11
0.314012
21
-0.038429
0
LINE
8
BLACK
6
CONTINUOUS
10
0.314012
20
-0.038429
11
0.313524
21
-0.0393308
0
LINE
8
BLACK
6
CONTINUOUS
10
0.313524
20
-0.0393308
11
0.313374
21
-0.0394231
0
LINE
8
BLACK
6
CONTINUOUS
10
0.313374
20
-0.0394231
11
0.313299
21
-0.0395831
0
LINE
8
BLACK
6
CONTINUOUS
10
0.313299
20
-0.0395831
11
0.309549
21
-0.0433328
0
LINE
8
BLACK
6
CONTINUOUS
10
0.309549
20
-0.0433328
11
0.308826
21
-0.0438391
0
LINE
8
BLACK
6
CONTINUOUS
10
0.308826
20
-0.0438391
11
0.308782
21
-0.0438859
0
LINE
8
BLACK
6
CONTINUOUS
10
0.308782
20
-0.0438859
11
0.305033
21
-0.0457606
0
LINE
8
BLACK
6
CONTINUOUS
10
0.305033
20
-0.0457606
11
0.304544
21
-0.0459059
0
LINE
8
BLACK
6
CONTINUOUS
10
0.304544
20
-0.0459059
11
0.304428
21
-0.0459842
0
LINE
8
BLACK
6
CONTINUOUS
10
0.304428
20
-0.0459842
11
0.296929
21
-0.047859
0
LINE
8
BLACK
6
CONTINUOUS
10
0.296929
20
-0.047859
11
0.296341
21
-0.0479004
0
LINE
8
BLACK
6
CONTINUOUS
10
0.296341
20
-0.0479004
11
0.296213
21
-0.0479471
0
LINE
8
BLACK
6
CONTINUOUS
10
0.296213
20
-0.0479471
11
0.290589
21
-0.0479471
0
LINE
8
BLACK
6
CONTINUOUS
10
0.290589
20
-0.0479471
11
0.290008
21
-0.0478448
0
LINE
8
BLACK
6
CONTINUOUS
10
0.290008
20
-0.0478448
11
0.289873
21
-0.047859
0
LINE
8
BLACK
6
CONTINUOUS
10
0.289873
20
-0.047859
11
0.282373
21
-0.0459842
0
LINE
8
BLACK
6
CONTINUOUS
10
0.282373
20
-0.0459842
11
0.281908
21
-0.0457766
0
LINE
8
BLACK
6
CONTINUOUS
10
0.281908
20
-0.0457766
11
0.281769
21
-0.0457606
0
LINE
8
BLACK
6
CONTINUOUS
10
0.281769
20
-0.0457606
11
0.27802
21
-0.0438859
0
LINE
8
BLACK
6
CONTINUOUS
10
0.27802
20
-0.0438859
11
0.277311
21
-0.04336
0
LINE
8
BLACK
6
CONTINUOUS
10
0.277311
20
-0.04336
11
0.277252
21
-0.0433328
0
LINE
8
BLACK
6
CONTINUOUS
10
0.277252
20
-0.0433328
11
0.273503
21
-0.0395832
0
LINE
8
BLACK
6
CONTINUOUS
10
0.273503
20
-0.0395832
11
0.272914
21
-0.0387431
0
LINE
8
BLACK
6
CONTINUOUS
10
0.272914
20
-0.0387431
11
0.272899
21
-0.0385673
0
LINE
8
BLACK
6
CONTINUOUS
10
0.272899
20
-0.0385673
11
0.272789
21
-0.038429
0
LINE
8
BLACK
6
CONTINUOUS
10
0.272789
20
-0.038429
11
0.270915
21
-0.0328047
0
LINE
8
BLACK
6
CONTINUOUS
10
0.270915
20
-0.0328047
11
0.270785
21
-0.0319316
0
LINE
8
BLACK
6
CONTINUOUS
10
0.270785
20
-0.0319316
11
0.270763
21
-0.031871
0
LINE
8
BLACK
6
CONTINUOUS
10
0.270763
20
-0.031871
11
0.270763
21
-0.0281215
0
LINE
8
BLACK
6
CONTINUOUS
10
0.270763
20
-0.0281215
11
0.270916
21
-0.027252
0
LINE
8
BLACK
6
CONTINUOUS
10
0.270916
20
-0.027252
11
0.270915
21
-0.0271877
0
LINE
8
BLACK
6
CONTINUOUS
10
0.270915
20
-0.0271877
11
0.272789
21
-0.0215634
0
LINE
8
BLACK
6
CONTINUOUS
10
0.272789
20
-0.0215634
11
0.273278
21
-0.0206617
0
LINE
8
BLACK
6
CONTINUOUS
10
0.273278
20
-0.0206617
11
0.273428
21
-0.0205692
0
LINE
8
BLACK
6
CONTINUOUS
10
0.273428
20
-0.0205692
11
0.273503
21
-0.0204092
0
LINE
8
BLACK
6
CONTINUOUS
10
0.273503
20
-0.0204092
11
0.275377
21
-0.0185345
0
LINE
8
BLACK
6
CONTINUOUS
10
0.275377
20
-0.0185345
11
0.276217
21
-0.0179463
0
LINE
8
BLACK
6
CONTINUOUS
10
0.276217
20
-0.0179463
11
0.27823
21
-0.0177703
0
LINE
8
BLACK
6
CONTINUOUS
10
0.27823
20
-0.0177703
11
0.279884
21
-0.0189288
0
LINE
8
BLACK
6
CONTINUOUS
10
0.279884
20
-0.0189288
11
0.280407
21
-0.0208798
0
LINE
8
BLACK
6
CONTINUOUS
10
0.280407
20
-0.0208798
11
0.279553
21
-0.0227104
0
LINE
8
BLACK
6
CONTINUOUS
10
0.279553
20
-0.0227104
11
0.278171
21
-0.0240922
0
LINE
8
BLACK
6
CONTINUOUS
10
0.278171
20
-0.0240922
11
0.276669
21
-0.0286006
0
LINE
8
BLACK
6
CONTINUOUS
10
0.276669
20
-0.0286006
11
0.276669
21
-0.0313919
0
LINE
8
BLACK
6
CONTINUOUS
10
0.276669
20
-0.0313919
11
0.278171
21
-0.0359002
0
LINE
8
BLACK
6
CONTINUOUS
10
0.278171
20
-0.0359002
11
0.281089
21
-0.0388181
0
LINE
8
BLACK
6
CONTINUOUS
10
0.281089
20
-0.0388181
11
0.28412
21
-0.0403336
0
LINE
8
BLACK
6
CONTINUOUS
10
0.28412
20
-0.0403336
11
0.290952
21
-0.0420416
0
LINE
8
BLACK
6
CONTINUOUS
10
0.290952
20
-0.0420416
11
0.295849
21
-0.0420416
0
LINE
8
BLACK
6
CONTINUOUS
10
0.295849
20
-0.0420416
11
0.302681
21
-0.0403336
0
LINE
8
BLACK
6
CONTINUOUS
10
0.302681
20
-0.0403336
11
0.305712
21
-0.0388181
0
LINE
8
BLACK
6
CONTINUOUS
10
0.305712
20
-0.0388181
11
0.30863
21
-0.0359002
0
LINE
8
BLACK
6
CONTINUOUS
10
0.30863
20
-0.0359002
11
0.310133
21
-0.0313919
0
LINE
8
BLACK
6
CONTINUOUS
10
0.310133
20
-0.0313919
11
0.310133
21
-0.0286006
0
LINE
8
BLACK
6
CONTINUOUS
10
0.310133
20
-0.0286006
11
0.30863
21
-0.0240922
0
LINE
8
BLACK
6
CONTINUOUS
10
0.30863
20
-0.0240922
11
0.307248
21
-0.0227103
0
LINE
8
BLACK
6
CONTINUOUS
10
0.307248
20
-0.0227103
11
0.30666
21
-0.0218703
0
LINE
8
BLACK
6
CONTINUOUS
10
0.30666
20
-0.0218703
11
0.306484
21
-0.0198582
0
LINE
8
BLACK
6
CONTINUOUS
10
0.306484
20
-0.0198582
11
0.307643
21
-0.0182036
0
LINE
8
BLACK
6
CONTINUOUS
10
0.307643
20
-0.0182036
11
0.309594
21
-0.0176809
0
LINE
8
BLACK
6
CONTINUOUS
10
0.309594
20
-0.0176809
11
0.311424
21
-0.0185345
0
LINE
8
BLACK
6
CONTINUOUS
10
0.287849
20
0.0215223
11
0.287984
21
0.0214089
0
LINE
8
BLACK
6
CONTINUOUS
10
0.287984
20
0.0214089
11
0.28816
21
0.0213887
0
LINE
8
BLACK
6
CONTINUOUS
10
0.28816
20
0.0213887
11
0.291909
21
0.0195139
0
LINE
8
BLACK
6
CONTINUOUS
10
0.291909
20
0.0195139
11
0.292618
21
0.018988
0
LINE
8
BLACK
6
CONTINUOUS
10
0.292618
20
0.018988
11
0.292677
21
0.0189608
0
LINE
8
BLACK
6
CONTINUOUS
10
0.292677
20
0.0189608
11
0.294551
21
0.017086
0
LINE
8
BLACK
6
CONTINUOUS
10
0.294551
20
0.017086
11
0.295058
21
0.016363
0
LINE
8
BLACK
6
CONTINUOUS
10
0.295058
20
0.016363
11
0.295104
21
0.0163186
0
LINE
8
BLACK
6
CONTINUOUS
10
0.295104
20
0.0163186
11
0.296979
21
0.0125691
0
LINE
8
BLACK
6
CONTINUOUS
10
0.296979
20
0.0125691
11
0.297272
21
0.0115862
0
LINE
8
BLACK
6
CONTINUOUS
10
0.297272
20
0.0115862
11
0.297231
21
0.0114145
0
LINE
8
BLACK
6
CONTINUOUS
10
0.297231
20
0.0114145
11
0.297277
21
0.011286
0
LINE
8
BLACK
6
CONTINUOUS
10
0.297277
20
0.011286
11
0.311393
21
0.0211666
0
LINE
8
BLACK
6
CONTINUOUS
10
0.311393
20
0.0211666
11
0.312322
21
0.0215999
0
LINE
8
BLACK
6
CONTINUOUS
10
0.312322
20
0.0215999
11
0.314334
21
0.0214236
0
LINE
8
BLACK
6
CONTINUOUS
10
0.314334
20
0.0214236
11
0.315762
21
0.0199952
0
LINE
8
BLACK
6
CONTINUOUS
10
0.315762
20
0.0199952
11
0.315938
21
0.017983
0
LINE
8
BLACK
6
CONTINUOUS
10
0.315938
20
0.017983
11
0.314779
21
0.0163287
0
LINE
8
BLACK
6
CONTINUOUS
10
0.314779
20
0.0163287
11
0.297291
21
0.00408693
0
LINE
8
BLACK
6
CONTINUOUS
10
0.297291
20
0.00408693
11
0.297291
21
-0.000796772
0
LINE
8
BLACK
6
CONTINUOUS
10
0.297291
20
-0.000796772
11
0.313086
21
-0.000796772
0
LINE
8
BLACK
6
CONTINUOUS
10
0.313086
20
-0.000796772
11
0.314096
21
-0.000974843
0
LINE
8
BLACK
6
CONTINUOUS
10
0.314096
20
-0.000974843
11
0.315643
21
-0.00227315
0
LINE
8
BLACK
6
CONTINUOUS
10
0.315643
20
-0.00227315
11
0.315994
21
-0.00426228
0
LINE
8
BLACK
6
CONTINUOUS
10
0.315994
20
-0.00426228
11
0.314984
21
-0.00601146
0
LINE
8
BLACK
6
CONTINUOUS
10
0.314984
20
-0.00601146
11
0.313086
21
-0.00670228
0
LINE
8
BLACK
6
CONTINUOUS
10
0.313086
20
-0.00670228
11
0.273716
21
-0.00670228
0
LINE
8
BLACK
6
CONTINUOUS
10
0.273716
20
-0.00670228
11
0.273332
21
-0.00663465
0
LINE
8
BLACK
6
CONTINUOUS
10
0.273332
20
-0.00663465
11
0.273203
21
-0.00665744
0
LINE
8
BLACK
6
CONTINUOUS
10
0.273203
20
-0.00665744
11
0.273089
21
-0.00659185
0
LINE
8
BLACK
6
CONTINUOUS
10
0.273089
20
-0.00659185
11
0.272706
21
-0.00652421
0
LINE
8
BLACK
6
CONTINUOUS
10
0.272706
20
-0.00652421
11
0.272118
21
-0.00603106
0
LINE
8
BLACK
6
CONTINUOUS
10
0.272118
20
-0.00603106
11
0.271454
21
-0.00564752
0
LINE
8
BLACK
6
CONTINUOUS
10
0.271454
20
-0.00564752
11
0.271363
21
-0.00539717
0
LINE
8
BLACK
6
CONTINUOUS
10
0.271363
20
-0.00539717
11
0.271159
21
-0.00522591
0
LINE
8
BLACK
6
CONTINUOUS
10
0.271159
20
-0.00522591
11
0.271025
21
-0.00447035
0
LINE
8
BLACK
6
CONTINUOUS
10
0.271025
20
-0.00447035
11
0.270763
21
-0.00374953
0
LINE
8
BLACK
6
CONTINUOUS
10
0.270763
20
-0.00374953
11
0.270763
21
0.0112486
0
LINE
8
BLACK
6
CONTINUOUS
10
0.270763
20
0.0112486
11
0.270941
21
0.0122585
0
LINE
8
BLACK
6
CONTINUOUS
10
0.270941
20
0.0122585
11
0.271055
21
0.0123937
0
LINE
8
BLACK
6
CONTINUOUS
10
0.271055
20
0.0123937
11
0.271075
21
0.0125691
0
LINE
8
BLACK
6
CONTINUOUS
10
0.271075
20
0.0125691
11
0.27295
21
0.0163187
0
LINE
8
BLACK
6
CONTINUOUS
10
0.27295
20
0.0163187
11
0.273475
21
0.0170277
0
LINE
8
BLACK
6
CONTINUOUS
10
0.273475
20
0.0170277
11
0.273503
21
0.017086
0
LINE
8
BLACK
6
CONTINUOUS
10
0.273503
20
0.017086
11
0.275377
21
0.0189608
0
LINE
8
BLACK
6
CONTINUOUS
10
0.275377
20
0.0189608
11
0.2761
21
0.0194671
0
LINE
8
BLACK
6
CONTINUOUS
10
0.2761
20
0.0194671
11
0.276145
21
0.0195139
0
LINE
8
BLACK
6
CONTINUOUS
10
0.276145
20
0.0195139
11
0.279894
21
0.0213887
0
LINE
8
BLACK
6
CONTINUOUS
10
0.279894
20
0.0213887
11
0.280877
21
0.021681
0
LINE
8
BLACK
6
CONTINUOUS
10
0.280877
20
0.021681
11
0.281049
21
0.02164
0
LINE
8
BLACK
6
CONTINUOUS
10
0.281049
20
0.02164
11
0.281215
21
0.0217004
0
LINE
8
BLACK
6
CONTINUOUS
10
0.281215
20
0.0217004
11
0.286839
21
0.0217004
0
LINE
8
BLACK
6
CONTINUOUS
10
0.286839
20
0.0217004
11
0.287849
21
0.0215223
0
LINE
8
BLACK
6
CONTINUOUS
10
0.281912
20
0.0157949
11
0.279214
21
0.0144461
0
LINE
8
BLACK
6
CONTINUOUS
10
0.279214
20
0.0144461
11
0.278017
21
0.013249
0
LINE
8
BLACK
6
CONTINUOUS
10
0.278017
20
0.013249
11
0.276669
21
0.0105515
0
LINE
8
BLACK
6
CONTINUOUS
10
0.276669
20
0.0105515
11
0.276669
21
-0.000796772
0
LINE
8
BLACK
6
CONTINUOUS
10
0.276669
20
-0.000796772
11
0.291385
21
-0.000796772
0
LINE
8
BLACK
6
CONTINUOUS
10
0.291385
20
-0.000796772
11
0.291385
21
0.0105515
0
LINE
8
BLACK
6
CONTINUOUS
10
0.291385
20
0.0105515
11
0.290037
21
0.013249
0
LINE
8
BLACK
6
CONTINUOUS
10
0.290037
20
0.013249
11
0.28884
21
0.0144461
0
LINE
8
BLACK
6
CONTINUOUS
10
0.28884
20
0.0144461
11
0.286142
21
0.0157949
0
LINE
8
BLACK
6
CONTINUOUS
10
0.286142
20
0.0157949
11
0.281912
21
0.0157949
0
LINE
8
BLACK
6
CONTINUOUS
10
0.300543
20
0.0628429
11
0.300679
21
0.0628571
0
LINE
8
BLACK
6
CONTINUOUS
10
0.300679
20
0.0628571
11
0.308178
21
0.0609823
0
LINE
8
BLACK
6
CONTINUOUS
10
0.308178
20
0.0609823
11
0.309114
21
0.0605646
0
LINE
8
BLACK
6
CONTINUOUS
10
0.309114
20
0.0605646
11
0.309285
21
0.0603288
0
LINE
8
BLACK
6
CONTINUOUS
10
0.309285
20
0.0603288
11
0.309549
21
0.0602056
0
LINE
8
BLACK
6
CONTINUOUS
10
0.309549
20
0.0602056
11
0.313299
21
0.0564561
0
LINE
8
BLACK
6
CONTINUOUS
10
0.313299
20
0.0564561
11
0.313805
21
0.055733
0
LINE
8
BLACK
6
CONTINUOUS
10
0.313805
20
0.055733
11
0.313852
21
0.0556887
0
LINE
8
BLACK
6
CONTINUOUS
10
0.313852
20
0.0556887
11
0.315727
21
0.0519392
0
LINE
8
BLACK
6
CONTINUOUS
10
0.315727
20
0.0519392
11
0.316019
21
0.0509563
0
LINE
8
BLACK
6
CONTINUOUS
10
0.316019
20
0.0509563
11
0.315978
21
0.0507846
0
LINE
8
BLACK
6
CONTINUOUS
10
0.315978
20
0.0507846
11
0.316039
21
0.0506187
0
LINE
8
BLACK
6
CONTINUOUS
10
0.316039
20
0.0506187
11
0.316039
21
0.0431196
0
LINE
8
BLACK
6
CONTINUOUS
10
0.316039
20
0.0431196
11
0.315861
21
0.0421097
0
LINE
8
BLACK
6
CONTINUOUS
10
0.315861
20
0.0421097
11
0.315747
21
0.0419744
0
LINE
8
BLACK
6
CONTINUOUS
10
0.315747
20
0.0419744
11
0.315727
21
0.0417991
0
LINE
8
BLACK
6
CONTINUOUS
10
0.315727
20
0.0417991
11
0.313852
21
0.0380495
0
LINE
8
BLACK
6
CONTINUOUS
10
0.313852
20
0.0380495
11
0.313326
21
0.0373405
0
LINE
8
BLACK
6
CONTINUOUS
10
0.313326
20
0.0373405
11
0.313299
21
0.0372821
0
LINE
8
BLACK
6
CONTINUOUS
10
0.313299
20
0.0372821
11
0.309549
21
0.0335326
0
LINE
8
BLACK
6
CONTINUOUS
10
0.309549
20
0.0335326
11
0.308709
21
0.0329444
0
LINE
8
BLACK
6
CONTINUOUS
10
0.308709
20
0.0329444
11
0.308419
21
0.032919
0
LINE
8
BLACK
6
CONTINUOUS
10
0.308419
20
0.032919
11
0.308178
21
0.0327559
0
LINE
8
BLACK
6
CONTINUOUS
10
0.308178
20
0.0327559
11
0.300679
21
0.0308811
0
LINE
8
BLACK
6
CONTINUOUS
10
0.300679
20
0.0308811
11
0.300091
21
0.0308397
0
LINE
8
BLACK
6
CONTINUOUS
10
0.300091
20
0.0308397
11
0.299962
21
0.030793
0
LINE
8
BLACK
6
CONTINUOUS
10
0.299962
20
0.030793
11
0.286839
21
0.030793
0
LINE
8
BLACK
6
CONTINUOUS
10
0.286839
20
0.030793
11
0.286259
21
0.0308953
0
LINE
8
BLACK
6
CONTINUOUS
10
0.286259
20
0.0308953
11
0.286123
21
0.0308811
0
LINE
8
BLACK
6
CONTINUOUS
10
0.286123
20
0.0308811
11
0.278624
21
0.0327559
0
LINE
8
BLACK
6
CONTINUOUS
10
0.278624
20
0.0327559
11
0.277687
21
0.0331736
0
LINE
8
BLACK
6
CONTINUOUS
10
0.277687
20
0.0331736
11
0.277516
21
0.0334094
0
LINE
8
BLACK
6
CONTINUOUS
10
0.277516
20
0.0334094
11
0.277252
21
0.0335326
0
LINE
8
BLACK
6
CONTINUOUS
10
0.277252
20
0.0335326
11
0.273503
21
0.0372821
0
LINE
8
BLACK
6
CONTINUOUS
10
0.273503
20
0.0372821
11
0.272996
21
0.0380051
0
LINE
8
BLACK
6
CONTINUOUS
10
0.272996
20
0.0380051
11
0.27295
21
0.0380495
0
LINE
8
BLACK
6
CONTINUOUS
10
0.27295
20
0.0380495
11
0.271075
21
0.0417991
0
LINE
8
BLACK
6
CONTINUOUS
10
0.271075
20
0.0417991
11
0.270782
21
0.042782
0
LINE
8
BLACK
6
CONTINUOUS
10
0.270782
20
0.042782
11
0.270823
21
0.0429537
0
LINE
8
BLACK
6
CONTINUOUS
10
0.270823
20
0.0429537
11
0.270763
21
0.0431196
0
LINE
8
BLACK
6
CONTINUOUS
10
0.270763
20
0.0431196
11
0.270763
21
0.0506187
0
LINE
8
BLACK
6
CONTINUOUS
10
0.270763
20
0.0506187
11
0.270941
21
0.0516286
0
LINE
8
BLACK
6
CONTINUOUS
10
0.270941
20
0.0516286
11
0.271055
21
0.0517638
0
LINE
8
BLACK
6
CONTINUOUS
10
0.271055
20
0.0517638
11
0.271075
21
0.0519392
0
LINE
8
BLACK
6
CONTINUOUS
10
0.271075
20
0.0519392
11
0.27295
21
0.0556887
0
LINE
8
BLACK
6
CONTINUOUS
10
0.27295
20
0.0556887
11
0.273475
21
0.0563978
0
LINE
8
BLACK
6
CONTINUOUS
10
0.273475
20
0.0563978
11
0.273503
21
0.0564561
0
LINE
8
BLACK
6
CONTINUOUS
10
0.273503
20
0.0564561
11
0.277252
21
0.0602056
0
LINE
8
BLACK
6
CONTINUOUS
10
0.277252
20
0.0602056
11
0.278092
21
0.0607939
0
LINE
8
BLACK
6
CONTINUOUS
10
0.278092
20
0.0607939
11
0.278383
21
0.0608193
0
LINE
8
BLACK
6
CONTINUOUS
10
0.278383
20
0.0608193
11
0.278624
21
0.0609823
0
LINE
8
BLACK
6
CONTINUOUS
10
0.278624
20
0.0609823
11
0.286123
21
0.0628571
0
LINE
8
BLACK
6
CONTINUOUS
10
0.286123
20
0.0628571
11
0.286711
21
0.0628985
0
LINE
8
BLACK
6
CONTINUOUS
10
0.286711
20
0.0628985
11
0.286839
21
0.0629452
0
LINE
8
BLACK
6
CONTINUOUS
10
0.286839
20
0.0629452
11
0.299962
21
0.0629452
0
LINE
8
BLACK
6
CONTINUOUS
10
0.299962
20
0.0629452
11
0.300543
21
0.0628429
0
LINE
8
BLACK
6
CONTINUOUS
10
0.287203
20
0.0570397
11
0.28085
21
0.0554515
0
LINE
8
BLACK
6
CONTINUOUS
10
0.28085
20
0.0554515
11
0.278017
21
0.0526191
0
LINE
8
BLACK
6
CONTINUOUS
10
0.278017
20
0.0526191
11
0.276669
21
0.0499216
0
LINE
8
BLACK
6
CONTINUOUS
10
0.276669
20
0.0499216
11
0.276669
21
0.0438167
0
LINE
8
BLACK
6
CONTINUOUS
10
0.276669
20
0.0438167
11
0.278017
21
0.0411191
0
LINE
8
BLACK
6
CONTINUOUS
10
0.278017
20
0.0411191
11
0.28085
21
0.0382868
0
LINE
8
BLACK
6
CONTINUOUS
10
0.28085
20
0.0382868
11
0.287203
21
0.0366985
0
LINE
8
BLACK
6
CONTINUOUS
10
0.287203
20
0.0366985
11
0.299599
21
0.0366985
0
LINE
8
BLACK
6
CONTINUOUS
10
0.299599
20
0.0366985
11
0.305952
21
0.0382868
0
LINE
8
BLACK
6
CONTINUOUS
10
0.305952
20
0.0382868
11
0.308784
21
0.0411191
0
LINE
8
BLACK
6
CONTINUOUS
10
0.308784
20
0.0411191
11
0.310133
21
0.0438167
0
LINE
8
BLACK
6
CONTINUOUS
10
0.310133
20
0.0438167
11
0.310133
21
0.0499216
0
LINE
8
BLACK
6
CONTINUOUS
10
0.310133
20
0.0499216
11
0.308784
21
0.0526191
0
LINE
8
BLACK
6
CONTINUOUS
10
0.308784
20
0.0526191
11
0.305952
21
0.0554515
0
LINE
8
BLACK
6
CONTINUOUS
10
0.305952
20
0.0554515
11
0.299599
21
0.0570397
0
LINE
8
BLACK
6
CONTINUOUS
10
0.299599
20
0.0570397
11
0.287203
21
0.0570397
0
LINE
8
BLACK
6
CONTINUOUS
10
2.41289
20
0.0496165
11
2.41291
21
0.0494872
0
LINE
8
BLACK
6
CONTINUOUS
10
2.41291
20
0.0494872
11
2.41284
21
0.0493736
0
LINE
8
BLACK
6
CONTINUOUS
10
2.41284
20
0.0493736
11
2.41277
21
0.0489901
0
LINE
8
BLACK
6
CONTINUOUS
10
2.41277
20
0.0489901
11
2.41228
21
0.0484024
0
LINE
8
BLACK
6
CONTINUOUS
10
2.41228
20
0.0484024
11
2.4119
21
0.0477381
0
LINE
8
BLACK
6
CONTINUOUS
10
2.4119
20
0.0477381
11
2.41165
21
0.047647
0
LINE
8
BLACK
6
CONTINUOUS
10
2.41165
20
0.047647
11
2.41148
21
0.0474428
0
LINE
8
BLACK
6
CONTINUOUS
10
2.41148
20
0.0474428
11
2.41072
21
0.0473096
0
LINE
8
BLACK
6
CONTINUOUS
10
2.41072
20
0.0473096
11
2.41
21
0.0470472
0
LINE
8
BLACK
6
CONTINUOUS
10
2.41
20
0.0470472
11
2.21
21
0.0470472
0
LINE
8
BLACK
6
CONTINUOUS
10
2.21
20
0.0470472
11
2.20962
21
0.0471149
0
LINE
8
BLACK
6
CONTINUOUS
10
2.20962
20
0.0471149
11
2.20949
21
0.0470921
0
LINE
8
BLACK
6
CONTINUOUS
10
2.20949
20
0.0470921
11
2.20937
21
0.0471577
0
LINE
8
BLACK
6
CONTINUOUS
10
2.20937
20
0.0471577
11
2.20899
21
0.0472253
0
LINE
8
BLACK
6
CONTINUOUS
10
2.20899
20
0.0472253
11
2.2084
21
0.0477185
0
LINE
8
BLACK
6
CONTINUOUS
10
2.2084
20
0.0477185
11
2.20774
21
0.048102
0
LINE
8
BLACK
6
CONTINUOUS
10
2.20774
20
0.048102
11
2.20765
21
0.0483524
0
LINE
8
BLACK
6
CONTINUOUS
10
2.20765
20
0.0483524
11
2.20744
21
0.0485236
0
LINE
8
BLACK
6
CONTINUOUS
10
2.20744
20
0.0485236
11
2.20731
21
0.0492792
0
LINE
8
BLACK
6
CONTINUOUS
10
2.20731
20
0.0492792
11
2.20705
21
0.05
0
LINE
8
BLACK
6
CONTINUOUS
10
2.20705
20
0.05
11
2.20705
21
0.55
0
LINE
8
BLACK
6
CONTINUOUS
10
2.20705
20
0.55
11
2.20711
21
0.550384
0
LINE
8
BLACK
6
CONTINUOUS
10
2.20711
20
0.550384
11
2.20709
21
0.550513
0
LINE
8
BLACK
6
CONTINUOUS
10
2.20709
20
0.550513
11
2.20716
21
0.550626
0
LINE
8
BLACK
6
CONTINUOUS
10
2.20716
20
0.550626
11
2.20723
21
0.55101
0
LINE
8
BLACK
6
CONTINUOUS
10
2.20723
20
0.55101
11
2.20772
21
0.551598
0
LINE
8
BLACK
6
CONTINUOUS
10
2.20772
20
0.551598
11
2.2081
21
0.552262
0
LINE
8
BLACK
6
CONTINUOUS
10
2.2081
20
0.552262
11
2.20835
21
0.552353
0
LINE
8
BLACK
6
CONTINUOUS
10
2.20835
20
0.552353
11
2.20852
21
0.552557
0
LINE
8
BLACK
6
CONTINUOUS
10
2.20852
20
0.552557
11
2.20928
21
0.55269
0
LINE
8
BLACK
6
CONTINUOUS
10
2.20928
20
0.55269
11
2.21
21
0.552953
0
LINE
8
BLACK
6
CONTINUOUS
10
2.21
20
0.552953
11
2.41
21
0.552953
0
LINE
8
BLACK
6
CONTINUOUS
10
2.41
20
0.552953
11
2.41038
21
0.552885
0
LINE
8
BLACK
6
CONTINUOUS
10
2.41038
20
0.552885
11
2.41051
21
0.552908
0
LINE
8
BLACK
6
CONTINUOUS
10
2.41051
20
0.552908
11
2.41063
21
0.552842
0
LINE
8
BLACK
6
CONTINUOUS
10
2.41063
20
0.552842
11
2.41101
21
0.552775
0
LINE
8
BLACK
6
CONTINUOUS
10
2.41101
20
0.552775
11
2.4116
21
0.552282
0
LINE
8
BLACK
6
CONTINUOUS
10
2.4116
20
0.552282
11
2.41226
21
0.551898
0
LINE
8
BLACK
6
CONTINUOUS
10
2.41226
20
0.551898
11
2.41235
21
0.551648
0
LINE
8
BLACK
6
CONTINUOUS
10
2.41235
20
0.551648
11
2.41256
21
0.551476
0
LINE
8
BLACK
6
CONTINUOUS
10
2.41256
20
0.551476
11
2.41269
21
0.550721
0
LINE
8
BLACK
6
CONTINUOUS
10
2.41269
20
0.550721
11
2.41295
21
0.55
0
LINE
8
BLACK
6
CONTINUOUS
10
2.41295
20
0.55
11
2.41295
21
0.05
0
LINE
8
BLACK
6
CONTINUOUS
10
2.41295
20
0.05
11
2.41289
21
0.0496165
0
LINE
8
BLACK
6
CONTINUOUS
10
2.21295
20
0.147047
11
2.21295
21
0.0529528
0
LINE
8
BLACK
6
CONTINUOUS
10
2.21295
20
0.0529528
11
2.40705
21
0.0529528
0
LINE
8
BLACK
6
CONTINUOUS
10
2.40705
20
0.0529528
11
2.40705
21
0.147047
0
LINE
8
BLACK
6
CONTINUOUS
10
2.40705
20
0.147047
11
2.21295
21
0.147047
0
LINE
8
BLACK
6
CONTINUOUS
10
2.21295
20
0.247047
11
2.21295
21
0.152953
0
LINE
8
BLACK
6
CONTINUOUS
10
2.21295
20
0.152953
11
2.40705
21
0.152953
0
LINE
8
BLACK
6
CONTINUOUS
10
2.40705
20
0.152953
11
2.40705
21
0.247047
0
LINE
8
BLACK
6
CONTINUOUS
10
2.40705
20
0.247047
11
2.21295
21
0.247047
0
LINE
8
BLACK
6
CONTINUOUS
10
2.21295
20
0.347047
11
2.21295
21
0.252953
0
LINE
8
BLACK
6
CONTINUOUS
10
2.21295
20
0.252953
11
2.40705
21
0.252953
0
LINE
8
BLACK
6
CONTINUOUS
10
2.40705
20
0.252953
11
2.40705
21
0.347047
0
LINE
8
BLACK
6
CONTINUOUS
10
2.40705
20
0.347047
11
2.21295
21
0.347047
0
LINE
8
BLACK
6
CONTINUOUS
10
2.21295
20
0.447047
11
2.21295
21
0.352953
0
LINE
8
BLACK
6
CONTINUOUS
10
2.21295
20
0.352953
11
2.40705
21
0.352953
0
LINE
8
BLACK
6
CONTINUOUS
10
2.40705
20
0.352953
11
2.40705
21
0.447047
0
LINE
8
BLACK
6
CONTINUOUS
10
2.40705
20
0.447047
11
2.21295
21
0.447047
0
LINE
8
BLACK
6
CONTINUOUS
10
2.21295
20
0.547047
11
2.21295
21
0.452953
0
LINE
8
BLACK
6
CONTINUOUS
10
2.21295
20
0.452953
11
2.40705
21
0.452953
0
LINE
8
BLACK
6
CONTINUOUS
10
2.40705
20
0.452953
11
2.40705
21
0.547047
0
LINE
8
BLACK
6
CONTINUOUS
10
2.40705
20
0.547047
11
2.21295
21
0.547047
0
LINE
8
BLACK
6
CONTINUOUS
10
0.275978
20
0.097511
11
0.276669
21
0.095613
0
LINE
8
BLACK
6
CONTINUOUS
10
0.276669
20
0.095613
11
0.276669
21
0.0798181
0
LINE
8
BLACK
6
CONTINUOUS
10
0.276669
20
0.0798181
11
0.289511
21
0.0798181
0
LINE
8
BLACK
6
CONTINUOUS
10
0.289511
20
0.0798181
11
0.289511
21
0.0899887
0
LINE
8
BLACK
6
CONTINUOUS
10
0.289511
20
0.0899887
11
0.289689
21
0.0909987
0
LINE
8
BLACK
6
CONTINUOUS
10
0.289689
20
0.0909987
11
0.290987
21
0.0925459
0
LINE
8
BLACK
6
CONTINUOUS
10
0.290987
20
0.0925459
11
0.292976
21
0.0928967
0
LINE
8
BLACK
6
CONTINUOUS
10
0.292976
20
0.0928967
11
0.294725
21
0.0918867
0
LINE
8
BLACK
6
CONTINUOUS
10
0.294725
20
0.0918867
11
0.295416
21
0.0899887
0
LINE
8
BLACK
6
CONTINUOUS
10
0.295416
20
0.0899887
11
0.295416
21
0.0798181
0
LINE
8
BLACK
6
CONTINUOUS
10
0.295416
20
0.0798181
11
0.313086
21
0.0798181
0
LINE
8
BLACK
6
CONTINUOUS
10
0.313086
20
0.0798181
11
0.314096
21
0.07964
0
LINE
8
BLACK
6
CONTINUOUS
10
0.314096
20
0.07964
11
0.315643
21
0.0783417
0
LINE
8
BLACK
6
CONTINUOUS
10
0.315643
20
0.0783417
11
0.315994
21
0.0763526
0
LINE
8
BLACK
6
CONTINUOUS
10
0.315994
20
0.0763526
11
0.314984
21
0.0746034
0
LINE
8
BLACK
6
CONTINUOUS
10
0.314984
20
0.0746034
11
0.313086
21
0.0739126
0
LINE
8
BLACK
6
CONTINUOUS
10
0.313086
20
0.0739126
11
0.273716
21
0.0739126
0
LINE
8
BLACK
6
CONTINUOUS
10
0.273716
20
0.0739126
11
0.273332
21
0.0739802
0
LINE
8
BLACK
6
CONTINUOUS
10
0.273332
20
0.0739802
11
0.273203
21
0.0739574
0
LINE
8
BLACK
6
CONTINUOUS
10
0.273203
20
0.0739574
11
0.273089
21
0.074023
0
LINE
8
BLACK
6
CONTINUOUS
10
0.273089
20
0.074023
11
0.272706
21
0.0740907
0
LINE
8
BLACK
6
CONTINUOUS
10
0.272706
20
0.0740907
11
0.272118
21
0.0745838
0
LINE
8
BLACK
6
CONTINUOUS
10
0.272118
20
0.0745838
11
0.271454
21
0.0749674
0
LINE
8
BLACK
6
CONTINUOUS
10
0.271454
20
0.0749674
11
0.271363
21
0.0752177
0
LINE
8
BLACK
6
CONTINUOUS
10
0.271363
20
0.0752177
11
0.271159
21
0.075389
0
LINE
8
BLACK
6
CONTINUOUS
10
0.271159
20
0.075389
11
0.271025
21
0.0761445
0
LINE
8
BLACK
6
CONTINUOUS
10
0.271025
20
0.0761445
11
0.270763
21
0.0768654
0
LINE
8
BLACK
6
CONTINUOUS
10
0.270763
20
0.0768654
11
0.270763
21
0.095613
0
LINE
8
BLACK
6
CONTINUOUS
10
0.270763
20
0.095613
11
0.270941
21
0.096623
0
LINE
8
BLACK
6
CONTINUOUS
10
0.270941
20
0.096623
11
0.272239
21
0.0981702
0
LINE
8
BLACK
6
CONTINUOUS
10
0.272239
20
0.0981702
11
0.274229
21
0.0985209
0
LINE
8
BLACK
6
CONTINUOUS
10
0.274229
20
0.0985209
11
0.275978
21
0.097511
0
LINE
8
BLACK
6
CONTINUOUS
10
0.311424
20
0.135196
11
0.313299
21
0.133321
0
LINE
8
BLACK
6
CONTINUOUS
10
0.313299
20
0.133321
11
0.313887
21
0.132481
0
LINE
8
BLACK
6
CONTINUOUS
10
0.313887
20
0.132481
11
0.313903
21
0.132306
0
LINE
8
BLACK
6
CONTINUOUS
10
0.313903
20
0.132306
11
0.314012
21
0.132167
0
LINE
8
BLACK
6
CONTINUOUS
10
0.314012
20
0.132167
11
0.315887
21
0.126543
0
LINE
8
BLACK
6
CONTINUOUS
10
0.315887
20
0.126543
11
0.316017
21
0.12567
0
LINE
8
BLACK
6
CONTINUOUS
10
0.316017
20
0.12567
11
0.316039
21
0.125609
0
LINE
8
BLACK
6
CONTINUOUS
10
0.316039
20
0.125609
11
0.316039
21
0.12186
0
LINE
8
BLACK
6
CONTINUOUS
10
0.316039
20
0.12186
11
0.315885
21
0.12099
0
LINE
8
BLACK
6
CONTINUOUS
10
0.315885
20
0.12099
11
0.315887
21
0.120926
0
LINE
8
BLACK
6
CONTINUOUS
10
0.315887
20
0.120926
11
0.314012
21
0.115302
0
LINE
8
BLACK
6
CONTINUOUS
10
0.314012
20
0.115302
11
0.313524
21
0.1144
0
LINE
8
BLACK
6
CONTINUOUS
10
0.313524
20
0.1144
11
0.313374
21
0.114307
0
LINE
8
BLACK
6
CONTINUOUS
10
0.313374
20
0.114307
11
0.313299
21
0.114148
0
LINE
8
BLACK
6
CONTINUOUS
10
0.313299
20
0.114148
11
0.309549
21
0.110398
0
LINE
8
BLACK
6
CONTINUOUS
10
0.309549
20
0.110398
11
0.308826
21
0.109892
0
LINE
8
BLACK
6
CONTINUOUS
10
0.308826
20
0.109892
11
0.308782
21
0.109845
0
LINE
8
BLACK
6
CONTINUOUS
10
0.308782
20
0.109845
11
0.305033
21
0.10797
0
LINE
8
BLACK
6
CONTINUOUS
10
0.305033
20
0.10797
11
0.304544
21
0.107825
0
LINE
8
BLACK
6
CONTINUOUS
10
0.304544
20
0.107825
11
0.304428
21
0.107747
0
LINE
8
BLACK
6
CONTINUOUS
10
0.304428
20
0.107747
11
0.296929
21
0.105872
0
LINE
8
BLACK
6
CONTINUOUS
10
0.296929
20
0.105872
11
0.296341
21
0.10583
0
LINE
8
BLACK
6
CONTINUOUS
10
0.296341
20
0.10583
11
0.296213
21
0.105784
0
LINE
8
BLACK
6
CONTINUOUS
10
0.296213
20
0.105784
11
0.290589
21
0.105784
0
LINE
8
BLACK
6
CONTINUOUS
10
0.290589
20
0.105784
11
0.290008
21
0.105886
0
LINE
8
BLACK
6
CONTINUOUS
10
0.290008
20
0.105886
11
0.289873
21
0.105872
0
LINE
8
BLACK
6
CONTINUOUS
10
0.289873
20
0.105872
11
0.282373
21
0.107747
0
LINE
8
BLACK
6
CONTINUOUS
10
0.282373
20
0.107747
11
0.281908
21
0.107954
0
LINE
8
BLACK
6
CONTINUOUS
10
0.281908
20
0.107954
11
0.281769
21
0.10797
0
LINE
8
BLACK
6
CONTINUOUS
10
0.281769
20
0.10797
11
0.27802
21
0.109845
0
LINE
8
BLACK
6
CONTINUOUS
10
0.27802
20
0.109845
11
0.277311
21
0.110371
0
LINE
8
BLACK
6
CONTINUOUS
10
0.277311
20
0.110371
11
0.277252
21
0.110398
0
LINE
8
BLACK
6
CONTINUOUS
10
0.277252
20
0.110398
11
0.273503
21
0.114148
0
LINE
8
BLACK
6
CONTINUOUS
10
0.273503
20
0.114148
11
0.272914
21
0.114988
0
LINE
8
BLACK
6
CONTINUOUS
10
0.272914
20
0.114988
11
0.272899
21
0.115163
0
LINE
8
BLACK
6
CONTINUOUS
10
0.272899
20
0.115163
11
0.272789
21
0.115302
0
LINE
8
BLACK
6
CONTINUOUS
10
0.272789
20
0.115302
11
0.270915
21
0.120926
0
LINE
8
BLACK
6
CONTINUOUS
10
0.270915
20
0.120926
11
0.270785
21
0.121799
0
LINE
8
BLACK
6
CONTINUOUS
10
0.270785
20
0.121799
11
0.270763
21
0.12186
0
LINE
8
BLACK
6
CONTINUOUS
10
0.270763
20
0.12186
11
0.270763
21
0.125609
0
LINE
8
BLACK
6
CONTINUOUS
10
0.270763
20
0.125609
11
0.270916
21
0.126479
0
LINE
8
BLACK
6
CONTINUOUS
10
0.270916
20
0.126479
11
0.270915
21
0.126543
0
LINE
8
BLACK
6
CONTINUOUS
10
0.270915
20
0.126543
11
0.272789
21
0.132167
0
LINE
8
BLACK
6
CONTINUOUS
10
0.272789
20
0.132167
11
0.273278
21
0.133069
0
LINE
8
BLACK
6
CONTINUOUS
10
0.273278
20
0.133069
11
0.273428
21
0.133162
0
LINE
8
BLACK
6
CONTINUOUS
10
0.273428
20
0.133162
11
0.273503
21
0.133321
0
LINE
8
BLACK
6
CONTINUOUS
10
0.273503
20
0.133321
11
0.275377
21
0.135196
0
LINE
8
BLACK
6
CONTINUOUS
10
0.275377
20
0.135196
11
0.276217
21
0.135784
0
LINE
8
BLACK
6
CONTINUOUS
10
0.276217
20
0.135784
11
0.27823
21
0.13596
0
LINE
8
BLACK
6
CONTINUOUS
10
0.27823
20
0.13596
11
0.279884
21
0.134802
0
LINE
8
BLACK
6
CONTINUOUS
10
0.279884
20
0.134802
11
0.280407
21
0.132851
0
LINE
8
BLACK
6
CONTINUOUS
10
0.280407
20
0.132851
11
0.279553
21
0.13102
0
LINE
8
BLACK
6
CONTINUOUS
10
0.279553
20
0.13102
11
0.278171
21
0.129639
0
LINE
8
BLACK
6
CONTINUOUS
10
0.278171
20
0.129639
11
0.276669
21
0.12513
0
LINE
8
BLACK
6
CONTINUOUS
10
0.276669
20
0.12513
11
0.276669
21
0.122339
0
LINE
8
BLACK
6
CONTINUOUS
10
0.276669
20
0.122339
11
0.278171
21
0.11783
0
LINE
8
BLACK
6
CONTINUOUS
10
0.278171
20
0.11783
11
0.281089
21
0.114913
0
LINE
8
BLACK
6
CONTINUOUS
10
0.281089
20
0.114913
11
0.28412
21
0.113397
0
LINE
8
BLACK
6
CONTINUOUS
10
0.28412
20
0.113397
11
0.290952
21
0.111689
0
LINE
8
BLACK
6
CONTINUOUS
10
0.290952
20
0.111689
11
0.295849
21
0.111689
0
LINE
8
BLACK
6
CONTINUOUS
10
0.295849
20
0.111689
11
0.302681
21
0.113397
0
LINE
8
BLACK
6
CONTINUOUS
10
0.302681
20
0.113397
11
0.305712
21
0.114913
0
LINE
8
BLACK
6
CONTINUOUS
10
0.305712
20
0.114913
11
0.30863
21
0.11783
0
LINE
8
BLACK
6
CONTINUOUS
10
0.30863
20
0.11783
11
0.310133
21
0.122339
0
LINE
8
BLACK
6
CONTINUOUS
10
0.310133
20
0.122339
11
0.310133
21
0.12513
0
LINE
8
BLACK
6
CONTINUOUS
10
0.310133
20
0.12513
11
0.30863
21
0.129639
0
LINE
8
BLACK
6
CONTINUOUS
10
0.30863
20
0.129639
11
0.307248
21
0.13102
0
LINE
8
BLACK
6
CONTINUOUS
10
0.307248
20
0.13102
11
0.30666
21
0.13186
0
LINE
8
BLACK
6
CONTINUOUS
10
0.30666
20
0.13186
11
0.306484
21
0.133873
0
LINE
8
BLACK
6
CONTINUOUS
10
0.306484
20
0.133873
11
0.307643
21
0.135527
0
LINE
8
BLACK
6
CONTINUOUS
10
0.307643
20
0.135527
11
0.309594
21
0.13605
0
LINE
8
BLACK
6
CONTINUOUS
10
0.309594
20
0.13605
11
0.311424
21
0.135196
0
LINE
8
BLACK
6
CONTINUOUS
10
0.306597
20
0.458343
11
0.306732
21
0.458229
0
LINE
8
BLACK
6
CONTINUOUS
10
0.306732
20
0.458229
11
0.306907
21
0.458209
0
LINE
8
BLACK
6
CONTINUOUS
10
0.306907
20
0.458209
11
0.310657
21
0.456334
0
LINE
8
BLACK
6
CONTINUOUS
10
0.310657
20
0.456334
11
0.311366
21
0.455808
0
LINE
8
BLACK
6
CONTINUOUS
10
0.311366
20
0.455808
11
0.311424
21
0.455781
0
LINE
8
BLACK
6
CONTINUOUS
10
0.311424
20
0.455781
11
0.313299
21
0.453906
0
LINE
8
BLACK
6
CONTINUOUS
10
0.313299
20
0.453906
11
0.313805
21
0.453183
0
LINE
8
BLACK
6
CONTINUOUS
10
0.313805
20
0.453183
11
0.313852
21
0.453139
0
LINE
8
BLACK
6
CONTINUOUS
10
0.313852
20
0.453139
11
0.315727
21
0.449389
0
LINE
8
BLACK
6
CONTINUOUS
10
0.315727
20
0.449389
11
0.316019
21
0.448407
0
LINE
8
BLACK
6
CONTINUOUS
10
0.316019
20
0.448407
11
0.315978
21
0.448235
0
LINE
8
BLACK
6
CONTINUOUS
10
0.315978
20
0.448235
11
0.316039
21
0.448069
0
LINE
8
BLACK
6
CONTINUOUS
10
0.316039
20
0.448069
11
0.316039
21
0.438695
0
LINE
8
BLACK
6
CONTINUOUS
10
0.316039
20
0.438695
11
0.315885
21
0.437826
0
LINE
8
BLACK
6
CONTINUOUS
10
0.315885
20
0.437826
11
0.315887
21
0.437761
0
LINE
8
BLACK
6
CONTINUOUS
10
0.315887
20
0.437761
11
0.315308
21
0.436024
0
LINE
8
BLACK
6
CONTINUOUS
10
0.315308
20
0.436024
11
0.433071
21
0.436024
0
LINE
8
BLACK
6
CONTINUOUS
10
0.433071
20
0.436024
11
0.433454
21
0.435956
0
LINE
8
BLACK
6
CONTINUOUS
10
0.433454
20
0.435956
11
0.433584
21
0.435979
0
LINE
8
BLACK
6
CONTINUOUS
10
0.433584
20
0.435979
11
0.433697
21
0.435913
0
LINE
8
BLACK
6
CONTINUOUS
10
0.433697
20
0.435913
11
0.434081
21
0.435846
0
LINE
8
BLACK
6
CONTINUOUS
10
0.434081
20
0.435846
11
0.434668
21
0.435352
0
LINE
8
BLACK
6
CONTINUOUS
10
0.434668
20
0.435352
11
0.435333
21
0.434969
0
LINE
8
BLACK
6
CONTINUOUS
10
0.435333
20
0.434969
11
0.435424
21
0.434719
0
LINE
8
BLACK
6
CONTINUOUS
10
0.435424
20
0.434719
11
0.435628
21
0.434547
0
LINE
8
BLACK
6
CONTINUOUS
10
0.435628
20
0.434547
11
0.435761
21
0.433792
0
LINE
8
BLACK
6
CONTINUOUS
10
0.435761
20
0.433792
11
0.436024
21
0.433071
0
LINE
8
BLACK
6
CONTINUOUS
10
0.436024
20
0.433071
11
0.436024
21
0.15748
0
LINE
8
BLACK
6
CONTINUOUS
10
0.436024
20
0.15748
11
0.435956
21
0.157097
0
LINE
8
BLACK
6
CONTINUOUS
10
0.435956
20
0.157097
11
0.435979
21
0.156968
0
LINE
8
BLACK
6
CONTINUOUS
10
0.435979
20
0.156968
11
0.435913
21
0.156854
0
LINE
8
BLACK
6
CONTINUOUS
10
0.435913
20
0.156854
11
0.435846
21
0.15647
0
LINE
8
BLACK
6
CONTINUOUS
10
0.435846
20
0.15647
11
0.435352
21
0.155883
0
LINE
8
BLACK
6
CONTINUOUS
10
0.435352
20
0.155883
11
0.434969
21
0.155218
0
LINE
8
BLACK
6
CONTINUOUS
10
0.434969
20
0.155218
11
0.434719
21
0.155127
0
LINE
8
BLACK
6
CONTINUOUS
10
0.434719
20
0.155127
11
0.434547
21
0.154923
0
LINE
8
BLACK
6
CONTINUOUS
10
0.434547
20
0.154923
11
0.433792
21
0.15479
0
LINE
8
BLACK
6
CONTINUOUS
10
0.433792
20
0.15479
11
0.433071
21
0.154528
0
LINE
8
BLACK
6
CONTINUOUS
10
0.433071
20
0.154528
11
0.30104
21
0.154528
0
LINE
8
BLACK
6
CONTINUOUS
10
0.30104
20
0.154528
11
0.30104
21
0.149981
0
LINE
8
BLACK
6
CONTINUOUS
10
0.30104
20
0.149981
11
0.300862
21
0.148971
0
LINE
8
BLACK
6
CONTINUOUS
10
0.300862
20
0.148971
11
0.299564
21
0.147424
0
LINE
8
BLACK
6
CONTINUOUS
10
0.299564
20
0.147424
11
0.297575
21
0.147073
0
LINE
8
BLACK
6
CONTINUOUS
10
0.297575
20
0.147073
11
0.295826
21
0.148083
0
LINE
8
BLACK
6
CONTINUOUS
10
0.295826
20
0.148083
11
0.295135
21
0.149981
0
LINE
8
BLACK
6
CONTINUOUS
10
0.295135
20
0.149981
11
0.295135
21
0.154528
0
LINE
8
BLACK
6
CONTINUOUS
10
0.295135
20
0.154528
11
0.15748
21
0.154528
0
LINE
8
BLACK
6
CONTINUOUS
10
0.15748
20
0.154528
11
0.157097
21
0.154595
0
LINE
8
BLACK
6
CONTINUOUS
10
0.157097
20
0.154595
11
0.156968
21
0.154572
0
LINE
8
BLACK
6
CONTINUOUS
10
0.156968
20
0.154572
11
0.156854
21
0.154638
0
LINE
8
BLACK
6
CONTINUOUS
10
0.156854
20
0.154638
11
0.15647
21
0.154706
0
LINE
8
BLACK
6
CONTINUOUS
10
0.15647
20
0.154706
11
0.155883
21
0.155199
0
LINE
8
BLACK
6
CONTINUOUS
10
0.155883
20
0.155199
11
0.155218
21
0.155582
0
LINE
8
BLACK
6
CONTINUOUS
10
0.155218
20
0.155582
11
0.155127
21
0.155833
0
LINE
8
BLACK
6
CONTINUOUS
10
0.155127
20
0.155833
11
0.154923
21
0.156004
0
LINE
8
BLACK
6
CONTINUOUS
10
0.154923
20
0.156004
11
0.15479
21
0.156759
0
LINE
8
BLACK
6
CONTINUOUS
10
0.15479
20
0.156759
11
0.154528
21
0.15748
0
LINE
8
BLACK
6
CONTINUOUS
10
0.154528
20
0.15748
11
0.154528
21
0.433071
0
LINE
8
BLACK
6
CONTINUOUS
10
0.154528
20
0.433071
11
0.154595
21
0.433454
0
LINE
8
BLACK
6
CONTINUOUS
10
0.154595
20
0.433454
11
0.154572
21
0.433584
0
LINE
8
BLACK
6
CONTINUOUS
10
0.154572
20
0.433584
11
0.154638
21
0.433697
0
LINE
8
BLACK
6
CONTINUOUS
10
0.154638
20
0.433697
11
0.154706
21
0.434081
0
LINE
8
BLACK
6
CONTINUOUS
10
0.154706
20
0.434081
11
0.155199
21
0.434668
0
LINE
8
BLACK
6
CONTINUOUS
10
0.155199
20
0.434668
11
0.155582
21
0.435333
0
LINE
8
BLACK
6
CONTINUOUS
10
0.155582
20
0.435333
11
0.155833
21
0.435424
0
LINE
8
BLACK
6
CONTINUOUS
10
0.155833
20
0.435424
11
0.156004
21
0.435628
0
LINE
8
BLACK
6
CONTINUOUS
10
0.156004
20
0.435628
11
0.156759
21
0.435761
0
LINE
8
BLACK
6
CONTINUOUS
10
0.156759
20
0.435761
11
0.15748
21
0.436024
0
LINE
8
BLACK
6
CONTINUOUS
10
0.15748
20
0.436024
11
0.272688
21
0.436024
0
LINE
8
BLACK
6
CONTINUOUS
10
0.272688
20
0.436024
11
0.271075
21
0.439249
0
LINE
8
BLACK
6
CONTINUOUS
10
0.271075
20
0.439249
11
0.270782
21
0.440232
0
LINE
8
BLACK
6
CONTINUOUS
10
0.270782
20
0.440232
11
0.270823
21
0.440404
0
LINE
8
BLACK
6
CONTINUOUS
10
0.270823
20
0.440404
11
0.270763
21
0.44057
0
LINE
8
BLACK
6
CONTINUOUS
10
0.270763
20
0.44057
11
0.270763
21
0.449944
0
LINE
8
BLACK
6
CONTINUOUS
10
0.270763
20
0.449944
11
0.270916
21
0.450813
0
LINE
8
BLACK
6
CONTINUOUS
10
0.270916
20
0.450813
11
0.270915
21
0.450878
0
LINE
8
BLACK
6
CONTINUOUS
10
0.270915
20
0.450878
11
0.272789
21
0.456502
0
LINE
8
BLACK
6
CONTINUOUS
10
0.272789
20
0.456502
11
0.273278
21
0.457404
0
LINE
8
BLACK
6
CONTINUOUS
10
0.273278
20
0.457404
11
0.274999
21
0.458461
0
LINE
8
BLACK
6
CONTINUOUS
10
0.274999
20
0.458461
11
0.276997
21
0.458165
0
LINE
8
BLACK
6
CONTINUOUS
10
0.276997
20
0.458165
11
0.278337
21
0.456653
0
LINE
8
BLACK
6
CONTINUOUS
10
0.278337
20
0.456653
11
0.278392
21
0.454634
0
LINE
8
BLACK
6
CONTINUOUS
10
0.278392
20
0.454634
11
0.276669
21
0.449465
0
LINE
8
BLACK
6
CONTINUOUS
10
0.276669
20
0.449465
11
0.276669
21
0.441267
0
LINE
8
BLACK
6
CONTINUOUS
10
0.276669
20
0.441267
11
0.278017
21
0.438569
0
LINE
8
BLACK
6
CONTINUOUS
10
0.278017
20
0.438569
11
0.279214
21
0.437372
0
LINE
8
BLACK
6
CONTINUOUS
10
0.279214
20
0.437372
11
0.281912
21
0.436024
0
LINE
8
BLACK
6
CONTINUOUS
10
0.281912
20
0.436024
11
0.284267
21
0.436024
0
LINE
8
BLACK
6
CONTINUOUS
10
0.284267
20
0.436024
11
0.286965
21
0.437372
0
LINE
8
BLACK
6
CONTINUOUS
10
0.286965
20
0.437372
11
0.288162
21
0.438569
0
LINE
8
BLACK
6
CONTINUOUS
10
0.288162
20
0.438569
11
0.289677
21
0.4416
0
LINE
8
BLACK
6
CONTINUOUS
10
0.289677
20
0.4416
11
0.291474
21
0.448785
0
LINE
8
BLACK
6
CONTINUOUS
10
0.291474
20
0.448785
11
0.291681
21
0.449251
0
LINE
8
BLACK
6
CONTINUOUS
10
0.291681
20
0.449251
11
0.291697
21
0.449389
0
LINE
8
BLACK
6
CONTINUOUS
10
0.291697
20
0.449389
11
0.293572
21
0.453139
0
LINE
8
BLACK
6
CONTINUOUS
10
0.293572
20
0.453139
11
0.294098
21
0.453848
0
LINE
8
BLACK
6
CONTINUOUS
10
0.294098
20
0.453848
11
0.294125
21
0.453906
0
LINE
8
BLACK
6
CONTINUOUS
10
0.294125
20
0.453906
11
0.296
21
0.455781
0
LINE
8
BLACK
6
CONTINUOUS
10
0.296
20
0.455781
11
0.296723
21
0.456287
0
LINE
8
BLACK
6
CONTINUOUS
10
0.296723
20
0.456287
11
0.296767
21
0.456334
0
LINE
8
BLACK
6
CONTINUOUS
10
0.296767
20
0.456334
11
0.300517
21
0.458209
0
LINE
8
BLACK
6
CONTINUOUS
10
0.300517
20
0.458209
11
0.3015
21
0.458501
0
LINE
8
BLACK
6
CONTINUOUS
10
0.3015
20
0.458501
11
0.301671
21
0.45846
0
LINE
8
BLACK
6
CONTINUOUS
10
0.301671
20
0.45846
11
0.301837
21
0.458521
0
LINE
8
BLACK
6
CONTINUOUS
10
0.301837
20
0.458521
11
0.305587
21
0.458521
0
LINE
8
BLACK
6
CONTINUOUS
10
0.305587
20
0.458521
11
0.306597
21
0.458343
0
LINE
8
BLACK
6
CONTINUOUS
10
0.284964
20
0.430118
11
0.284964
21
0.430118
0
LINE
8
BLACK
6
CONTINUOUS
10
0.284964
20
0.430118
11
0.281215
21
0.430118
0
LINE
8
BLACK
6
CONTINUOUS
10
0.281215
20
0.430118
11
0.281215
21
0.430118
0
LINE
8
BLACK
6
CONTINUOUS
10
0.281215
20
0.430118
11
0.160433
21
0.430118
0
LINE
8
BLACK
6
CONTINUOUS
10
0.160433
20
0.430118
11
0.160433
21
0.160433
0
LINE
8
BLACK
6
CONTINUOUS
10
0.160433
20
0.160433
11
0.295135
21
0.160433
0
LINE
8
BLACK
6
CONTINUOUS
10
0.295135
20
0.160433
11
0.295135
21
0.179977
0
LINE
8
BLACK
6
CONTINUOUS
10
0.295135
20
0.179977
11
0.295313
21
0.180987
0
LINE
8
BLACK
6
CONTINUOUS
10
0.295313
20
0.180987
11
0.296611
21
0.182535
0
LINE
8
BLACK
6
CONTINUOUS
10
0.296611
20
0.182535
11
0.2986
21
0.182885
0
LINE
8
BLACK
6
CONTINUOUS
10
0.2986
20
0.182885
11
0.30035
21
0.181875
0
LINE
8
BLACK
6
CONTINUOUS
10
0.30035
20
0.181875
11
0.30104
21
0.179977
0
LINE
8
BLACK
6
CONTINUOUS
10
0.30104
20
0.179977
11
0.30104
21
0.160433
0
LINE
8
BLACK
6
CONTINUOUS
10
0.30104
20
0.160433
11
0.430118
21
0.160433
0
LINE
8
BLACK
6
CONTINUOUS
10
0.430118
20
0.160433
11
0.430118
21
0.430118
0
LINE
8
BLACK
6
CONTINUOUS
10
0.430118
20
0.430118
11
0.284964
21
0.430118
0
LINE
8
BLACK
6
CONTINUOUS
10
0.302534
20
0.452615
11
0.299837
21
0.451267
0
LINE
8
BLACK
6
CONTINUOUS
10
0.299837
20
0.451267
11
0.29864
21
0.450069
0
LINE
8
BLACK
6
CONTINUOUS
10
0.29864
20
0.450069
11
0.297124
21
0.447038
0
LINE
8
BLACK
6
CONTINUOUS
10
0.297124
20
0.447038
11
0.295328
21
0.439854
0
LINE
8
BLACK
6
CONTINUOUS
10
0.295328
20
0.439854
11
0.29512
21
0.439388
0
LINE
8
BLACK
6
CONTINUOUS
10
0.29512
20
0.439388
11
0.295104
21
0.439249
0
LINE
8
BLACK
6
CONTINUOUS
10
0.295104
20
0.439249
11
0.293492
21
0.436024
0
LINE
8
BLACK
6
CONTINUOUS
10
0.293492
20
0.436024
11
0.309083
21
0.436024
0
LINE
8
BLACK
6
CONTINUOUS
10
0.309083
20
0.436024
11
0.310133
21
0.439174
0
LINE
8
BLACK
6
CONTINUOUS
10
0.310133
20
0.439174
11
0.310133
21
0.447372
0
LINE
8
BLACK
6
CONTINUOUS
10
0.310133
20
0.447372
11
0.308784
21
0.450069
0
LINE
8
BLACK
6
CONTINUOUS
10
0.308784
20
0.450069
11
0.307587
21
0.451267
0
LINE
8
BLACK
6
CONTINUOUS
10
0.307587
20
0.451267
11
0.30489
21
0.452615
0
LINE
8
BLACK
6
CONTINUOUS
10
0.30489
20
0.452615
11
0.302534
21
0.452615
0
LINE
8
BLACK
6
CONTINUOUS
10
0.306597
20
0.222122
11
0.306732
21
0.222009
0
LINE
8
BLACK
6
CONTINUOUS
10
0.306732
20
0.222009
11
0.306907
21
0.221989
0
LINE
8
BLACK
6
CONTINUOUS
10
0.306907
20
0.221989
11
0.310657
21
0.220114
0
LINE
8
BLACK
6
CONTINUOUS
10
0.310657
20
0.220114
11
0.311366
21
0.219588
0
LINE
8
BLACK
6
CONTINUOUS
10
0.311366
20
0.219588
11
0.311424
21
0.219561
0
LINE
8
BLACK
6
CONTINUOUS
10
0.311424
20
0.219561
11
0.313299
21
0.217686
0
LINE
8
BLACK
6
CONTINUOUS
10
0.313299
20
0.217686
11
0.313805
21
0.216963
0
LINE
8
BLACK
6
CONTINUOUS
10
0.313805
20
0.216963
11
0.313852
21
0.216919
0
LINE
8
BLACK
6
CONTINUOUS
10
0.313852
20
0.216919
11
0.315727
21
0.213169
0
LINE
8
BLACK
6
CONTINUOUS
10
0.315727
20
0.213169
11
0.316019
21
0.212186
0
LINE
8
BLACK
6
CONTINUOUS
10
0.316019
20
0.212186
11
0.315978
21
0.212014
0
LINE
8
BLACK
6
CONTINUOUS
10
0.315978
20
0.212014
11
0.316039
21
0.211849
0
LINE
8
BLACK
6
CONTINUOUS
10
0.316039
20
0.211849
11
0.316039
21
0.204349
0
LINE
8
BLACK
6
CONTINUOUS
10
0.316039
20
0.204349
11
0.315861
21
0.20334
0
LINE
8
BLACK
6
CONTINUOUS
10
0.315861
20
0.20334
11
0.315747
21
0.203204
0
LINE
8
BLACK
6
CONTINUOUS
10
0.315747
20
0.203204
11
0.315727
21
0.203029
0
LINE
8
BLACK
6
CONTINUOUS
10
0.315727
20
0.203029
11
0.313852
21
0.199279
0
LINE
8
BLACK
6
CONTINUOUS
10
0.313852
20
0.199279
11
0.313326
21
0.19857
0
LINE
8
BLACK
6
CONTINUOUS
10
0.313326
20
0.19857
11
0.313299
21
0.198512
0
LINE
8
BLACK
6
CONTINUOUS
10
0.313299
20
0.198512
11
0.311424
21
0.196637
0
LINE
8
BLACK
6
CONTINUOUS
10
0.311424
20
0.196637
11
0.310701
21
0.196131
0
LINE
8
BLACK
6
CONTINUOUS
10
0.310701
20
0.196131
11
0.310657
21
0.196084
0
LINE
8
BLACK
6
CONTINUOUS
10
0.310657
20
0.196084
11
0.306907
21
0.194209
0
LINE
8
BLACK
6
CONTINUOUS
10
0.306907
20
0.194209
11
0.305924
21
0.193917
0
LINE
8
BLACK
6
CONTINUOUS
10
0.305924
20
0.193917
11
0.305753
21
0.193958
0
LINE
8
BLACK
6
CONTINUOUS
10
0.305753
20
0.193958
11
0.305587
21
0.193898
0
LINE
8
BLACK
6
CONTINUOUS
10
0.305587
20
0.193898
11
0.290589
21
0.193898
0
LINE
8
BLACK
6
CONTINUOUS
10
0.290589
20
0.193898
11
0.290008
21
0.194
0
LINE
8
BLACK
6
CONTINUOUS
10
0.290008
20
0.194
11
0.289872
21
0.193986
0
LINE
8
BLACK
6
CONTINUOUS
10
0.289872
20
0.193986
11
0.282373
21
0.195861
0
LINE
8
BLACK
6
CONTINUOUS
10
0.282373
20
0.195861
11
0.281468
21
0.196264
0
LINE
8
BLACK
6
CONTINUOUS
10
0.281468
20
0.196264
11
0.281452
21
0.196268
0
LINE
8
BLACK
6
CONTINUOUS
10
0.281452
20
0.196268
11
0.275827
21
0.200018
0
LINE
8
BLACK
6
CONTINUOUS
10
0.275827
20
0.200018
11
0.275502
21
0.200329
0
LINE
8
BLACK
6
CONTINUOUS
10
0.275502
20
0.200329
11
0.275377
21
0.200387
0
LINE
8
BLACK
6
CONTINUOUS
10
0.275377
20
0.200387
11
0.273503
21
0.202262
0
LINE
8
BLACK
6
CONTINUOUS
10
0.273503
20
0.202262
11
0.272996
21
0.202984
0
LINE
8
BLACK
6
CONTINUOUS
10
0.272996
20
0.202984
11
0.27295
21
0.203029
0
LINE
8
BLACK
6
CONTINUOUS
10
0.27295
20
0.203029
11
0.271075
21
0.206778
0
LINE
8
BLACK
6
CONTINUOUS
10
0.271075
20
0.206778
11
0.270782
21
0.207761
0
LINE
8
BLACK
6
CONTINUOUS
10
0.270782
20
0.207761
11
0.270823
21
0.207933
0
LINE
8
BLACK
6
CONTINUOUS
10
0.270823
20
0.207933
11
0.270763
21
0.208099
0
LINE
8
BLACK
6
CONTINUOUS
10
0.270763
20
0.208099
11
0.270763
21
0.215598
0
LINE
8
BLACK
6
CONTINUOUS
10
0.270763
20
0.215598
11
0.270941
21
0.216608
0
LINE
8
BLACK
6
CONTINUOUS
10
0.270941
20
0.216608
11
0.272239
21
0.218155
0
LINE
8
BLACK
6
CONTINUOUS
10
0.272239
20
0.218155
11
0.274229
21
0.218506
0
LINE
8
BLACK
6
CONTINUOUS
10
0.274229
20
0.218506
11
0.275978
21
0.217496
0
LINE
8
BLACK
6
CONTINUOUS
10
0.275978
20
0.217496
11
0.276669
21
0.215598
0
LINE
8
BLACK
6
CONTINUOUS
10
0.276669
20
0.215598
11
0.276669
21
0.208796
0
LINE
8
BLACK
6
CONTINUOUS
10
0.276669
20
0.208796
11
0.278017
21
0.206099
0
LINE
8
BLACK
6
CONTINUOUS
10
0.278017
20
0.206099
11
0.279346
21
0.204769
0
LINE
8
BLACK
6
CONTINUOUS
10
0.279346
20
0.204769
11
0.284302
21
0.201466
0
LINE
8
BLACK
6
CONTINUOUS
10
0.284302
20
0.201466
11
0.287219
21
0.200736
0
LINE
8
BLACK
6
CONTINUOUS
10
0.287219
20
0.200736
11
0.286073
21
0.203029
0
LINE
8
BLACK
6
CONTINUOUS
10
0.286073
20
0.203029
11
0.285781
21
0.204012
0
LINE
8
BLACK
6
CONTINUOUS
10
0.285781
20
0.204012
11
0.285822
21
0.204184
0
LINE
8
BLACK
6
CONTINUOUS
10
0.285822
20
0.204184
11
0.285761
21
0.204349
0
LINE
8
BLACK
6
CONTINUOUS
10
0.285761
20
0.204349
11
0.285761
21
0.211849
0
LINE
8
BLACK
6
CONTINUOUS
10
0.285761
20
0.211849
11
0.285939
21
0.212858
0
LINE
8
BLACK
6
CONTINUOUS
10
0.285939
20
0.212858
11
0.286053
21
0.212994
0
LINE
8
BLACK
6
CONTINUOUS
10
0.286053
20
0.212994
11
0.286073
21
0.213169
0
LINE
8
BLACK
6
CONTINUOUS
10
0.286073
20
0.213169
11
0.287948
21
0.216919
0
LINE
8
BLACK
6
CONTINUOUS
10
0.287948
20
0.216919
11
0.288474
21
0.217628
0
LINE
8
BLACK
6
CONTINUOUS
10
0.288474
20
0.217628
11
0.288501
21
0.217686
0
LINE
8
BLACK
6
CONTINUOUS
10
0.288501
20
0.217686
11
0.290376
21
0.219561
0
LINE
8
BLACK
6
CONTINUOUS
10
0.290376
20
0.219561
11
0.291099
21
0.220067
0
LINE
8
BLACK
6
CONTINUOUS
10
0.291099
20
0.220067
11
0.291143
21
0.220114
0
LINE
8
BLACK
6
CONTINUOUS
10
0.291143
20
0.220114
11
0.294892
21
0.221989
0
LINE
8
BLACK
6
CONTINUOUS
10
0.294892
20
0.221989
11
0.295875
21
0.222281
0
LINE
8
BLACK
6
CONTINUOUS
10
0.295875
20
0.222281
11
0.296047
21
0.22224
0
LINE
8
BLACK
6
CONTINUOUS
10
0.296047
20
0.22224
11
0.296213
21
0.2223
0
LINE
8
BLACK
6
CONTINUOUS
10
0.296213
20
0.2223
11
0.305587
21
0.2223
0
LINE
8
BLACK
6
CONTINUOUS
10
0.305587
20
0.2223
11
0.306597
21
0.222122
0
LINE
8
BLACK
6
CONTINUOUS
10
0.29691
20
0.216395
11
0.294213
21
0.215046
0
LINE
8
BLACK
6
CONTINUOUS
10
0.294213
20
0.215046
11
0.293015
21
0.213849
0
LINE
8
BLACK
6
CONTINUOUS
10
0.293015
20
0.213849
11
0.291667
21
0.211151
0
LINE
8
BLACK
6
CONTINUOUS
10
0.291667
20
0.211151
11
0.291667
21
0.205046
0
LINE
8
BLACK
6
CONTINUOUS
10
0.291667
20
0.205046
11
0.293015
21
0.202349
0
LINE
8
BLACK
6
CONTINUOUS
10
0.293015
20
0.202349
11
0.294212
21
0.201152
0
LINE
8
BLACK
6
CONTINUOUS
10
0.294212
20
0.201152
11
0.29691
21
0.199803
0
LINE
8
BLACK
6
CONTINUOUS
10
0.29691
20
0.199803
11
0.30489
21
0.199803
0
LINE
8
BLACK
6
CONTINUOUS
10
0.30489
20
0.199803
11
0.307587
21
0.201152
0
LINE
8
BLACK
6
CONTINUOUS
10
0.307587
20
0.201152
11
0.308784
21
0.202349
0
LINE
8
BLACK
6
CONTINUOUS
10
0.308784
20
0.202349
11
0.310133
21
0.205046
0
LINE
8
BLACK
6
CONTINUOUS
10
0.310133
20
0.205046
11
0.310133
21
0.211151
0
LINE
8
BLACK
6
CONTINUOUS
10
0.310133
20
0.211151
11
0.308784
21
0.213849
0
LINE
8
BLACK
6
CONTINUOUS
10
0.308784
20
0.213849
11
0.307587
21
0.215046
0
LINE
8
BLACK
6
CONTINUOUS
10
0.307587
20
0.215046
11
0.30489
21
0.216395
0
LINE
8
BLACK
6
CONTINUOUS
10
0.30489
20
0.216395
11
0.29691
21
0.216395
0
LINE
8
BLACK
6
CONTINUOUS
10
0.315744
20
0.299714
11
0.315911
21
0.299743
0
LINE
8
BLACK
6
CONTINUOUS
10
0.315911
20
0.299743
11
0.316653
21
0.299315
0
LINE
8
BLACK
6
CONTINUOUS
10
0.316653
20
0.299315
11
0.317438
21
0.298971
0
LINE
8
BLACK
6
CONTINUOUS
10
0.317438
20
0.298971
11
0.317513
21
0.298818
0
LINE
8
BLACK
6
CONTINUOUS
10
0.317513
20
0.298818
11
0.31766
21
0.298733
0
LINE
8
BLACK
6
CONTINUOUS
10
0.31766
20
0.298733
11
0.317953
21
0.297928
0
LINE
8
BLACK
6
CONTINUOUS
10
0.317953
20
0.297928
11
0.318333
21
0.29716
0
LINE
8
BLACK
6
CONTINUOUS
10
0.318333
20
0.29716
11
0.318293
21
0.296995
0
LINE
8
BLACK
6
CONTINUOUS
10
0.318293
20
0.296995
11
0.318351
21
0.296835
0
LINE
8
BLACK
6
CONTINUOUS
10
0.318351
20
0.296835
11
0.318351
21
0.260418
0
LINE
8
BLACK
6
CONTINUOUS
10
0.318351
20
0.260418
11
0.326647
21
0.260418
0
LINE
8
BLACK
6
CONTINUOUS
10
0.326647
20
0.260418
11
0.327656
21
0.26024
0
LINE
8
BLACK
6
CONTINUOUS
10
0.327656
20
0.26024
11
0.329204
21
0.258942
0
LINE
8
BLACK
6
CONTINUOUS
10
0.329204
20
0.258942
11
0.329554
21
0.256953
0
LINE
8
BLACK
6
CONTINUOUS
10
0.329554
20
0.256953
11
0.328545
21
0.255203
0
LINE
8
BLACK
6
CONTINUOUS
10
0.328545
20
0.255203
11
0.326647
21
0.254513
0
LINE
8
BLACK
6
CONTINUOUS
10
0.326647
20
0.254513
11
0.312093
21
0.254513
0
LINE
8
BLACK
6
CONTINUOUS
10
0.312093
20
0.254513
11
0.313299
21
0.253306
0
LINE
8
BLACK
6
CONTINUOUS
10
0.313299
20
0.253306
11
0.313805
21
0.252583
0
LINE
8
BLACK
6
CONTINUOUS
10
0.313805
20
0.252583
11
0.313852
21
0.252539
0
LINE
8
BLACK
6
CONTINUOUS
10
0.313852
20
0.252539
11
0.315727
21
0.24879
0
LINE
8
BLACK
6
CONTINUOUS
10
0.315727
20
0.24879
11
0.316019
21
0.247807
0
LINE
8
BLACK
6
CONTINUOUS
10
0.316019
20
0.247807
11
0.315978
21
0.247635
0
LINE
8
BLACK
6
CONTINUOUS
10
0.315978
20
0.247635
11
0.316039
21
0.247469
0
LINE
8
BLACK
6
CONTINUOUS
10
0.316039
20
0.247469
11
0.316039
21
0.24372
0
LINE
8
BLACK
6
CONTINUOUS
10
0.316039
20
0.24372
11
0.315861
21
0.24271
0
LINE
8
BLACK
6
CONTINUOUS
10
0.315861
20
0.24271
11
0.315747
21
0.242574
0
LINE
8
BLACK
6
CONTINUOUS
10
0.315747
20
0.242574
11
0.315727
21
0.242399
0
LINE
8
BLACK
6
CONTINUOUS
10
0.315727
20
0.242399
11
0.313852
21
0.238649
0
LINE
8
BLACK
6
CONTINUOUS
10
0.313852
20
0.238649
11
0.313326
21
0.23794
0
LINE
8
BLACK
6
CONTINUOUS
10
0.313326
20
0.23794
11
0.313299
21
0.237882
0
LINE
8
BLACK
6
CONTINUOUS
10
0.313299
20
0.237882
11
0.311424
21
0.236007
0
LINE
8
BLACK
6
CONTINUOUS
10
0.311424
20
0.236007
11
0.310701
21
0.235501
0
LINE
8
BLACK
6
CONTINUOUS
10
0.310701
20
0.235501
11
0.310657
21
0.235454
0
LINE
8
BLACK
6
CONTINUOUS
10
0.310657
20
0.235454
11
0.306907
21
0.233579
0
LINE
8
BLACK
6
CONTINUOUS
10
0.306907
20
0.233579
11
0.306419
21
0.233434
0
LINE
8
BLACK
6
CONTINUOUS
10
0.306419
20
0.233434
11
0.306303
21
0.233356
0
LINE
8
BLACK
6
CONTINUOUS
10
0.306303
20
0.233356
11
0.298804
21
0.231481
0
LINE
8
BLACK
6
CONTINUOUS
10
0.298804
20
0.231481
11
0.298216
21
0.23144
0
LINE
8
BLACK
6
CONTINUOUS
10
0.298216
20
0.23144
11
0.298088
21
0.231393
0
LINE
8
BLACK
6
CONTINUOUS
10
0.298088
20
0.231393
11
0.288714
21
0.231393
0
LINE
8
BLACK
6
CONTINUOUS
10
0.288714
20
0.231393
11
0.288134
21
0.231495
0
LINE
8
BLACK
6
CONTINUOUS
10
0.288134
20
0.231495
11
0.287998
21
0.231481
0
LINE
8
BLACK
6
CONTINUOUS
10
0.287998
20
0.231481
11
0.280499
21
0.233356
0
LINE
8
BLACK
6
CONTINUOUS
10
0.280499
20
0.233356
11
0.280033
21
0.233563
0
LINE
8
BLACK
6
CONTINUOUS
10
0.280033
20
0.233563
11
0.279894
21
0.233579
0
LINE
8
BLACK
6
CONTINUOUS
10
0.279894
20
0.233579
11
0.276145
21
0.235454
0
LINE
8
BLACK
6
CONTINUOUS
10
0.276145
20
0.235454
11
0.275436
21
0.23598
0
LINE
8
BLACK
6
CONTINUOUS
10
0.275436
20
0.23598
11
0.275377
21
0.236007
0
LINE
8
BLACK
6
CONTINUOUS
10
0.275377
20
0.236007
11
0.273503
21
0.237882
0
LINE
8
BLACK
6
CONTINUOUS
10
0.273503
20
0.237882
11
0.272996
21
0.238605
0
LINE
8
BLACK
6
CONTINUOUS
10
0.272996
20
0.238605
11
0.27295
21
0.238649
0
LINE
8
BLACK
6
CONTINUOUS
10
0.27295
20
0.238649
11
0.271075
21
0.242399
0
LINE
8
BLACK
6
CONTINUOUS
10
0.271075
20
0.242399
11
0.270782
21
0.243382
0
LINE
8
BLACK
6
CONTINUOUS
10
0.270782
20
0.243382
11
0.270823
21
0.243554
0
LINE
8
BLACK
6
CONTINUOUS
10
0.270823
20
0.243554
11
0.270763
21
0.24372
0
LINE
8
BLACK
6
CONTINUOUS
10
0.270763
20
0.24372
11
0.270763
21
0.247469
0
LINE
8
BLACK
6
CONTINUOUS
10
0.270763
20
0.247469
11
0.270941
21
0.248479
0
LINE
8
BLACK
6
CONTINUOUS
10
0.270941
20
0.248479
11
0.271055
21
0.248614
0
LINE
8
BLACK
6
CONTINUOUS
10
0.271055
20
0.248614
11
0.271075
21
0.24879
0
LINE
8
BLACK
6
CONTINUOUS
10
0.271075
20
0.24879
11
0.27295
21
0.252539
0
LINE
8
BLACK
6
CONTINUOUS
10
0.27295
20
0.252539
11
0.273475
21
0.253248
0
LINE
8
BLACK
6
CONTINUOUS
10
0.273475
20
0.253248
11
0.273503
21
0.253306
0
LINE
8
BLACK
6
CONTINUOUS
10
0.273503
20
0.253306
11
0.274709
21
0.254513
0
LINE
8
BLACK
6
CONTINUOUS
10
0.274709
20
0.254513
11
0.272278
21
0.254513
0
LINE
8
BLACK
6
CONTINUOUS
10
0.272278
20
0.254513
11
0.271268
21
0.254691
0
LINE
8
BLACK
6
CONTINUOUS
10
0.271268
20
0.254691
11
0.271133
21
0.254804
0
LINE
8
BLACK
6
CONTINUOUS
10
0.271133
20
0.254804
11
0.270958
21
0.254824
0
LINE
8
BLACK
6
CONTINUOUS
10
0.270958
20
0.254824
11
0.267208
21
0.256699
0
LINE
8
BLACK
6
CONTINUOUS
10
0.267208
20
0.256699
11
0.266499
21
0.257225
0
LINE
8
BLACK
6
CONTINUOUS
10
0.266499
20
0.257225
11
0.266441
21
0.257252
0
LINE
8
BLACK
6
CONTINUOUS
10
0.266441
20
0.257252
11
0.264566
21
0.259127
0
LINE
8
BLACK
6
CONTINUOUS
10
0.264566
20
0.259127
11
0.26406
21
0.25985
0
LINE
8
BLACK
6
CONTINUOUS
10
0.26406
20
0.25985
11
0.264013
21
0.259894
0
LINE
8
BLACK
6
CONTINUOUS
10
0.264013
20
0.259894
11
0.262138
21
0.263644
0
LINE
8
BLACK
6
CONTINUOUS
10
0.262138
20
0.263644
11
0.261846
21
0.264627
0
LINE
8
BLACK
6
CONTINUOUS
10
0.261846
20
0.264627
11
0.261887
21
0.264798
0
LINE
8
BLACK
6
CONTINUOUS
10
0.261887
20
0.264798
11
0.261827
21
0.264964
0
LINE
8
BLACK
6
CONTINUOUS
10
0.261827
20
0.264964
11
0.261827
21
0.296835
0
LINE
8
BLACK
6
CONTINUOUS
10
0.261827
20
0.296835
11
0.262005
21
0.297845
0
LINE
8
BLACK
6
CONTINUOUS
10
0.262005
20
0.297845
11
0.263303
21
0.299393
0
LINE
8
BLACK
6
CONTINUOUS
10
0.263303
20
0.299393
11
0.265292
21
0.299743
0
LINE
8
BLACK
6
CONTINUOUS
10
0.265292
20
0.299743
11
0.267041
21
0.298733
0
LINE
8
BLACK
6
CONTINUOUS
10
0.267041
20
0.298733
11
0.267732
21
0.296835
0
LINE
8
BLACK
6
CONTINUOUS
10
0.267732
20
0.296835
11
0.267732
21
0.265661
0
LINE
8
BLACK
6
CONTINUOUS
10
0.267732
20
0.265661
11
0.269081
21
0.262964
0
LINE
8
BLACK
6
CONTINUOUS
10
0.269081
20
0.262964
11
0.270278
21
0.261767
0
LINE
8
BLACK
6
CONTINUOUS
10
0.270278
20
0.261767
11
0.272975
21
0.260418
0
LINE
8
BLACK
6
CONTINUOUS
10
0.272975
20
0.260418
11
0.27908
21
0.260418
0
LINE
8
BLACK
6
CONTINUOUS
10
0.27908
20
0.260418
11
0.281778
21
0.261767
0
LINE
8
BLACK
6
CONTINUOUS
10
0.281778
20
0.261767
11
0.282975
21
0.262964
0
LINE
8
BLACK
6
CONTINUOUS
10
0.282975
20
0.262964
11
0.284324
21
0.265661
0
LINE
8
BLACK
6
CONTINUOUS
10
0.284324
20
0.265661
11
0.284324
21
0.269895
0
LINE
8
BLACK
6
CONTINUOUS
10
0.284324
20
0.269895
11
0.280499
21
0.270851
0
LINE
8
BLACK
6
CONTINUOUS
10
0.280499
20
0.270851
11
0.280033
21
0.271059
0
LINE
8
BLACK
6
CONTINUOUS
10
0.280033
20
0.271059
11
0.279894
21
0.271075
0
LINE
8
BLACK
6
CONTINUOUS
10
0.279894
20
0.271075
11
0.276145
21
0.272949
0
LINE
8
BLACK
6
CONTINUOUS
10
0.276145
20
0.272949
11
0.275436
21
0.273475
0
LINE
8
BLACK
6
CONTINUOUS
10
0.275436
20
0.273475
11
0.275377
21
0.273503
0
LINE
8
BLACK
6
CONTINUOUS
10
0.275377
20
0.273503
11
0.273503
21
0.275377
0
LINE
8
BLACK
6
CONTINUOUS
10
0.273503
20
0.275377
11
0.272996
21
0.2761
0
LINE
8
BLACK
6
CONTINUOUS
10
0.272996
20
0.2761
11
0.27295
21
0.276145
0
LINE
8
BLACK
6
CONTINUOUS
10
0.27295
20
0.276145
11
0.271075
21
0.279894
0
LINE
8
BLACK
6
CONTINUOUS
10
0.271075
20
0.279894
11
0.270782
21
0.280877
0
LINE
8
BLACK
6
CONTINUOUS
10
0.270782
20
0.280877
11
0.270823
21
0.281049
0
LINE
8
BLACK
6
CONTINUOUS
10
0.270823
20
0.281049
11
0.270763
21
0.281215
0
LINE
8
BLACK
6
CONTINUOUS
10
0.270763
20
0.281215
11
0.270763
21
0.284964
0
LINE
8
BLACK
6
CONTINUOUS
10
0.270763
20
0.284964
11
0.270941
21
0.285974
0
LINE
8
BLACK
6
CONTINUOUS
10
0.270941
20
0.285974
11
0.271055
21
0.28611
0
LINE
8
BLACK
6
CONTINUOUS
10
0.271055
20
0.28611
11
0.271075
21
0.286285
0
LINE
8
BLACK
6
CONTINUOUS
10
0.271075
20
0.286285
11
0.27295
21
0.290034
0
LINE
8
BLACK
6
CONTINUOUS
10
0.27295
20
0.290034
11
0.273475
21
0.290743
0
LINE
8
BLACK
6
CONTINUOUS
10
0.273475
20
0.290743
11
0.273503
21
0.290802
0
LINE
8
BLACK
6
CONTINUOUS
10
0.273503
20
0.290802
11
0.275377
21
0.292677
0
LINE
8
BLACK
6
CONTINUOUS
10
0.275377
20
0.292677
11
0.2761
21
0.293183
0
LINE
8
BLACK
6
CONTINUOUS
10
0.2761
20
0.293183
11
0.276145
21
0.29323
0
LINE
8
BLACK
6
CONTINUOUS
10
0.276145
20
0.29323
11
0.279894
21
0.295104
0
LINE
8
BLACK
6
CONTINUOUS
10
0.279894
20
0.295104
11
0.280383
21
0.29525
0
LINE
8
BLACK
6
CONTINUOUS
10
0.280383
20
0.29525
11
0.280499
21
0.295328
0
LINE
8
BLACK
6
CONTINUOUS
10
0.280499
20
0.295328
11
0.284324
21
0.296284
0
LINE
8
BLACK
6
CONTINUOUS
10
0.284324
20
0.296284
11
0.284324
21
0.296835
0
LINE
8
BLACK
6
CONTINUOUS
10
0.284324
20
0.296835
11
0.284502
21
0.297845
0
LINE
8
BLACK
6
CONTINUOUS
10
0.284502
20
0.297845
11
0.2858
21
0.299393
0
LINE
8
BLACK
6
CONTINUOUS
10
0.2858
20
0.299393
11
0.287789
21
0.299743
0
LINE
8
BLACK
6
CONTINUOUS
10
0.287789
20
0.299743
11
0.289538
21
0.298733
0
LINE
8
BLACK
6
CONTINUOUS
10
0.289538
20
0.298733
11
0.290063
21
0.297291
0
LINE
8
BLACK
6
CONTINUOUS
10
0.290063
20
0.297291
11
0.298088
21
0.297291
0
LINE
8
BLACK
6
CONTINUOUS
10
0.298088
20
0.297291
11
0.298668
21
0.297189
0
LINE
8
BLACK
6
CONTINUOUS
10
0.298668
20
0.297189
11
0.298804
21
0.297203
0
LINE
8
BLACK
6
CONTINUOUS
10
0.298804
20
0.297203
11
0.306303
21
0.295328
0
LINE
8
BLACK
6
CONTINUOUS
10
0.306303
20
0.295328
11
0.306768
21
0.29512
0
LINE
8
BLACK
6
CONTINUOUS
10
0.306768
20
0.29512
11
0.306907
21
0.295104
0
LINE
8
BLACK
6
CONTINUOUS
10
0.306907
20
0.295104
11
0.309748
21
0.293684
0
LINE
8
BLACK
6
CONTINUOUS
10
0.309748
20
0.293684
11
0.312941
21
0.298473
0
LINE
8
BLACK
6
CONTINUOUS
10
0.312941
20
0.298473
11
0.31365
21
0.299215
0
LINE
8
BLACK
6
CONTINUOUS
10
0.31365
20
0.299215
11
0.313813
21
0.299263
0
LINE
8
BLACK
6
CONTINUOUS
10
0.313813
20
0.299263
11
0.313922
21
0.299393
0
LINE
8
BLACK
6
CONTINUOUS
10
0.313922
20
0.299393
11
0.314765
21
0.299541
0
LINE
8
BLACK
6
CONTINUOUS
10
0.314765
20
0.299541
11
0.315588
21
0.299782
0
LINE
8
BLACK
6
CONTINUOUS
10
0.315588
20
0.299782
11
0.315744
21
0.299714
0
LINE
8
BLACK
6
CONTINUOUS
10
0.289077
20
0.25389
11
0.282245
21
0.252182
0
LINE
8
BLACK
6
CONTINUOUS
10
0.282245
20
0.252182
11
0.279214
21
0.250667
0
LINE
8
BLACK
6
CONTINUOUS
10
0.279214
20
0.250667
11
0.278017
21
0.249469
0
LINE
8
BLACK
6
CONTINUOUS
10
0.278017
20
0.249469
11
0.276669
21
0.246772
0
LINE
8
BLACK
6
CONTINUOUS
10
0.276669
20
0.246772
11
0.276669
21
0.244417
0
LINE
8
BLACK
6
CONTINUOUS
10
0.276669
20
0.244417
11
0.278017
21
0.241719
0
LINE
8
BLACK
6
CONTINUOUS
10
0.278017
20
0.241719
11
0.279214
21
0.240522
0
LINE
8
BLACK
6
CONTINUOUS
10
0.279214
20
0.240522
11
0.282245
21
0.239006
0
LINE
8
BLACK
6
CONTINUOUS
10
0.282245
20
0.239006
11
0.289077
21
0.237298
0
LINE
8
BLACK
6
CONTINUOUS
10
0.289077
20
0.237298
11
0.297724
21
0.237298
0
LINE
8
BLACK
6
CONTINUOUS
10
0.297724
20
0.237298
11
0.304556
21
0.239006
0
LINE
8
BLACK
6
CONTINUOUS
10
0.304556
20
0.239006
11
0.307587
21
0.240522
0
LINE
8
BLACK
6
CONTINUOUS
10
0.307587
20
0.240522
11
0.308784
21
0.241719
0
LINE
8
BLACK
6
CONTINUOUS
10
0.308784
20
0.241719
11
0.310133
21
0.244417
0
LINE
8
BLACK
6
CONTINUOUS
10
0.310133
20
0.244417
11
0.310133
21
0.246772
0
LINE
8
BLACK
6
CONTINUOUS
10
0.310133
20
0.246772
11
0.308784
21
0.249469
0
LINE
8
BLACK
6
CONTINUOUS
10
0.308784
20
0.249469
11
0.307587
21
0.250667
0
LINE
8
BLACK
6
CONTINUOUS
10
0.307587
20
0.250667
11
0.304556
21
0.252182
0
LINE
8
BLACK
6
CONTINUOUS
10
0.304556
20
0.252182
11
0.297724
21
0.25389
0
LINE
8
BLACK
6
CONTINUOUS
10
0.297724
20
0.25389
11
0.289077
21
0.25389
0
LINE
8
BLACK
6
CONTINUOUS
10
0.311424
20
0.273503
11
0.310701
21
0.272996
0
LINE
8
BLACK
6
CONTINUOUS
10
0.310701
20
0.272996
11
0.310657
21
0.272949
0
LINE
8
BLACK
6
CONTINUOUS
10
0.310657
20
0.272949
11
0.306907
21
0.271075
0
LINE
8
BLACK
6
CONTINUOUS
10
0.306907
20
0.271075
11
0.306419
21
0.270929
0
LINE
8
BLACK
6
CONTINUOUS
10
0.306419
20
0.270929
11
0.306303
21
0.270851
0
LINE
8
BLACK
6
CONTINUOUS
10
0.306303
20
0.270851
11
0.298804
21
0.268976
0
LINE
8
BLACK
6
CONTINUOUS
10
0.298804
20
0.268976
11
0.298216
21
0.268935
0
LINE
8
BLACK
6
CONTINUOUS
10
0.298216
20
0.268935
11
0.298088
21
0.268888
0
LINE
8
BLACK
6
CONTINUOUS
10
0.298088
20
0.268888
11
0.290229
21
0.268888
0
LINE
8
BLACK
6
CONTINUOUS
10
0.290229
20
0.268888
11
0.290229
21
0.264964
0
LINE
8
BLACK
6
CONTINUOUS
10
0.290229
20
0.264964
11
0.290051
21
0.263954
0
LINE
8
BLACK
6
CONTINUOUS
10
0.290051
20
0.263954
11
0.289938
21
0.263819
0
LINE
8
BLACK
6
CONTINUOUS
10
0.289938
20
0.263819
11
0.289918
21
0.263644
0
LINE
8
BLACK
6
CONTINUOUS
10
0.289918
20
0.263644
11
0.288043
21
0.259894
0
LINE
8
BLACK
6
CONTINUOUS
10
0.288043
20
0.259894
11
0.287883
21
0.259679
0
LINE
8
BLACK
6
CONTINUOUS
10
0.287883
20
0.259679
11
0.287998
21
0.259707
0
LINE
8
BLACK
6
CONTINUOUS
10
0.287998
20
0.259707
11
0.288586
21
0.259749
0
LINE
8
BLACK
6
CONTINUOUS
10
0.288586
20
0.259749
11
0.288714
21
0.259796
0
LINE
8
BLACK
6
CONTINUOUS
10
0.288714
20
0.259796
11
0.298088
21
0.259796
0
LINE
8
BLACK
6
CONTINUOUS
10
0.298088
20
0.259796
11
0.298668
21
0.259693
0
LINE
8
BLACK
6
CONTINUOUS
10
0.298668
20
0.259693
11
0.298804
21
0.259707
0
LINE
8
BLACK
6
CONTINUOUS
10
0.298804
20
0.259707
11
0.301807
21
0.258957
0
LINE
8
BLACK
6
CONTINUOUS
10
0.301807
20
0.258957
11
0.302251
21
0.259727
0
LINE
8
BLACK
6
CONTINUOUS
10
0.302251
20
0.259727
11
0.304149
21
0.260418
0
LINE
8
BLACK
6
CONTINUOUS
10
0.304149
20
0.260418
11
0.312445
21
0.260418
0
LINE
8
BLACK
6
CONTINUOUS
10
0.312445
20
0.260418
11
0.312445
21
0.274524
0
LINE
8
BLACK
6
CONTINUOUS
10
0.312445
20
0.274524
11
0.311424
21
0.273503
0
LINE
8
BLACK
6
CONTINUOUS
10
0.290229
20
0.291385
11
0.290229
21
0.274794
0
LINE
8
BLACK
6
CONTINUOUS
10
0.290229
20
0.274794
11
0.297724
21
0.274794
0
LINE
8
BLACK
6
CONTINUOUS
10
0.297724
20
0.274794
11
0.304556
21
0.276502
0
LINE
8
BLACK
6
CONTINUOUS
10
0.304556
20
0.276502
11
0.307587
21
0.278017
0
LINE
8
BLACK
6
CONTINUOUS
10
0.307587
20
0.278017
11
0.308784
21
0.279214
0
LINE
8
BLACK
6
CONTINUOUS
10
0.308784
20
0.279214
11
0.310133
21
0.281912
0
LINE
8
BLACK
6
CONTINUOUS
10
0.310133
20
0.281912
11
0.310133
21
0.284267
0
LINE
8
BLACK
6
CONTINUOUS
10
0.310133
20
0.284267
11
0.309685
21
0.285163
0
LINE
8
BLACK
6
CONTINUOUS
10
0.309685
20
0.285163
11
0.309264
21
0.284867
0
LINE
8
BLACK
6
CONTINUOUS
10
0.309264
20
0.284867
11
0.309219
21
0.284821
0
LINE
8
BLACK
6
CONTINUOUS
10
0.309219
20
0.284821
11
0.30547
21
0.282946
0
LINE
8
BLACK
6
CONTINUOUS
10
0.30547
20
0.282946
11
0.304487
21
0.282653
0
LINE
8
BLACK
6
CONTINUOUS
10
0.304487
20
0.282653
11
0.302522
21
0.283123
0
LINE
8
BLACK
6
CONTINUOUS
10
0.302522
20
0.283123
11
0.301319
21
0.284745
0
LINE
8
BLACK
6
CONTINUOUS
10
0.301319
20
0.284745
11
0.30144
21
0.286761
0
LINE
8
BLACK
6
CONTINUOUS
10
0.30144
20
0.286761
11
0.302829
21
0.288228
0
LINE
8
BLACK
6
CONTINUOUS
10
0.302829
20
0.288228
11
0.305142
21
0.289384
0
LINE
8
BLACK
6
CONTINUOUS
10
0.305142
20
0.289384
11
0.304556
21
0.289677
0
LINE
8
BLACK
6
CONTINUOUS
10
0.304556
20
0.289677
11
0.297724
21
0.291385
0
LINE
8
BLACK
6
CONTINUOUS
10
0.297724
20
0.291385
11
0.290229
21
0.291385
0
LINE
8
BLACK
6
CONTINUOUS
10
0.282245
20
0.289677
11
0.279214
21
0.288162
0
LINE
8
BLACK
6
CONTINUOUS
10
0.279214
20
0.288162
11
0.278017
21
0.286965
0
LINE
8
BLACK
6
CONTINUOUS
10
0.278017
20
0.286965
11
0.276669
21
0.284267
0
LINE
8
BLACK
6
CONTINUOUS
10
0.276669
20
0.284267
11
0.276669
21
0.281912
0
LINE
8
BLACK
6
CONTINUOUS
10
0.276669
20
0.281912
11
0.278017
21
0.279214
0
LINE
8
BLACK
6
CONTINUOUS
10
0.278017
20
0.279214
11
0.279214
21
0.278017
0
LINE
8
BLACK
6
CONTINUOUS
10
0.279214
20
0.278017
11
0.282245
21
0.276502
0
LINE
8
BLACK
6
CONTINUOUS
10
0.282245
20
0.276502
11
0.284324
21
0.275982
0
LINE
8
BLACK
6
CONTINUOUS
10
0.284324
20
0.275982
11
0.284324
21
0.290197
0
LINE
8
BLACK
6
CONTINUOUS
10
0.284324
20
0.290197
11
0.282245
21
0.289677
0
LINE
8
BLACK
6
CONTINUOUS
10
0.306597
20
0.334608
11
0.306732
21
0.334495
0
LINE
8
BLACK
6
CONTINUOUS
10
0.306732
20
0.334495
11
0.306907
21
0.334475
0
LINE
8
BLACK
6
CONTINUOUS
10
0.306907
20
0.334475
11
0.310657
21
0.3326
0
LINE
8
BLACK
6
CONTINUOUS
10
0.310657
20
0.3326
11
0.311366
21
0.332074
0
LINE
8
BLACK
6
CONTINUOUS
10
0.311366
20
0.332074
11
0.311424
21
0.332047
0
LINE
8
BLACK
6
CONTINUOUS
10
0.311424
20
0.332047
11
0.313299
21
0.330172
0
LINE
8
BLACK
6
CONTINUOUS
10
0.313299
20
0.330172
11
0.313805
21
0.329449
0
LINE
8
BLACK
6
CONTINUOUS
10
0.313805
20
0.329449
11
0.313852
21
0.329404
0
LINE
8
BLACK
6
CONTINUOUS
10
0.313852
20
0.329404
11
0.315727
21
0.325655
0
LINE
8
BLACK
6
CONTINUOUS
10
0.315727
20
0.325655
11
0.316019
21
0.324672
0
LINE
8
BLACK
6
CONTINUOUS
10
0.316019
20
0.324672
11
0.315978
21
0.3245
0
LINE
8
BLACK
6
CONTINUOUS
10
0.315978
20
0.3245
11
0.316039
21
0.324334
0
LINE
8
BLACK
6
CONTINUOUS
10
0.316039
20
0.324334
11
0.316039
21
0.313086
0
LINE
8
BLACK
6
CONTINUOUS
10
0.316039
20
0.313086
11
0.315861
21
0.312076
0
LINE
8
BLACK
6
CONTINUOUS
10
0.315861
20
0.312076
11
0.315747
21
0.311941
0
LINE
8
BLACK
6
CONTINUOUS
10
0.315747
20
0.311941
11
0.315727
21
0.311765
0
LINE
8
BLACK
6
CONTINUOUS
10
0.315727
20
0.311765
11
0.313852
21
0.308016
0
LINE
8
BLACK
6
CONTINUOUS
10
0.313852
20
0.308016
11
0.313326
21
0.307307
0
LINE
8
BLACK
6
CONTINUOUS
10
0.313326
20
0.307307
11
0.313299
21
0.307248
0
LINE
8
BLACK
6
CONTINUOUS
10
0.313299
20
0.307248
11
0.311424
21
0.305374
0
LINE
8
BLACK
6
CONTINUOUS
10
0.311424
20
0.305374
11
0.310584
21
0.304785
0
LINE
8
BLACK
6
CONTINUOUS
10
0.310584
20
0.304785
11
0.308572
21
0.304609
0
LINE
8
BLACK
6
CONTINUOUS
10
0.308572
20
0.304609
11
0.306918
21
0.305768
0
LINE
8
BLACK
6
CONTINUOUS
10
0.306918
20
0.305768
11
0.306395
21
0.307719
0
LINE
8
BLACK
6
CONTINUOUS
10
0.306395
20
0.307719
11
0.307248
21
0.309549
0
LINE
8
BLACK
6
CONTINUOUS
10
0.307248
20
0.309549
11
0.308784
21
0.311085
0
LINE
8
BLACK
6
CONTINUOUS
10
0.308784
20
0.311085
11
0.310133
21
0.313783
0
LINE
8
BLACK
6
CONTINUOUS
10
0.310133
20
0.313783
11
0.310133
21
0.323637
0
LINE
8
BLACK
6
CONTINUOUS
10
0.310133
20
0.323637
11
0.308784
21
0.326335
0
LINE
8
BLACK
6
CONTINUOUS
10
0.308784
20
0.326335
11
0.307587
21
0.327532
0
LINE
8
BLACK
6
CONTINUOUS
10
0.307587
20
0.327532
11
0.30489
21
0.328881
0
LINE
8
BLACK
6
CONTINUOUS
10
0.30489
20
0.328881
11
0.29691
21
0.328881
0
LINE
8
BLACK
6
CONTINUOUS
10
0.29691
20
0.328881
11
0.294213
21
0.327532
0
LINE
8
BLACK
6
CONTINUOUS
10
0.294213
20
0.327532
11
0.293015
21
0.326335
0
LINE
8
BLACK
6
CONTINUOUS
10
0.293015
20
0.326335
11
0.291667
21
0.323637
0
LINE
8
BLACK
6
CONTINUOUS
10
0.291667
20
0.323637
11
0.291667
21
0.31871
0
LINE
8
BLACK
6
CONTINUOUS
10
0.291667
20
0.31871
11
0.29159
21
0.318273
0
LINE
8
BLACK
6
CONTINUOUS
10
0.29159
20
0.318273
11
0.291611
21
0.318137
0
LINE
8
BLACK
6
CONTINUOUS
10
0.291611
20
0.318137
11
0.291547
21
0.318033
0
LINE
8
BLACK
6
CONTINUOUS
10
0.291547
20
0.318033
11
0.291489
21
0.3177
0
LINE
8
BLACK
6
CONTINUOUS
10
0.291489
20
0.3177
11
0.290977
21
0.317091
0
LINE
8
BLACK
6
CONTINUOUS
10
0.290977
20
0.317091
11
0.290565
21
0.316409
0
LINE
8
BLACK
6
CONTINUOUS
10
0.290565
20
0.316409
11
0.290342
21
0.316333
0
LINE
8
BLACK
6
CONTINUOUS
10
0.290342
20
0.316333
11
0.29019
21
0.316153
0
LINE
8
BLACK
6
CONTINUOUS
10
0.29019
20
0.316153
11
0.289406
21
0.316015
0
LINE
8
BLACK
6
CONTINUOUS
10
0.289406
20
0.316015
11
0.288653
21
0.315758
0
LINE
8
BLACK
6
CONTINUOUS
10
0.288653
20
0.315758
11
0.288433
21
0.315843
0
LINE
8
BLACK
6
CONTINUOUS
10
0.288433
20
0.315843
11
0.288201
21
0.315802
0
LINE
8
BLACK
6
CONTINUOUS
10
0.288201
20
0.315802
11
0.287512
21
0.3162
0
LINE
8
BLACK
6
CONTINUOUS
10
0.287512
20
0.3162
11
0.286769
21
0.316488
0
LINE
8
BLACK
6
CONTINUOUS
10
0.286769
20
0.316488
11
0.276669
21
0.325326
0
LINE
8
BLACK
6
CONTINUOUS
10
0.276669
20
0.325326
11
0.276669
21
0.307462
0
LINE
8
BLACK
6
CONTINUOUS
10
0.276669
20
0.307462
11
0.27649
21
0.306452
0
LINE
8
BLACK
6
CONTINUOUS
10
0.27649
20
0.306452
11
0.275192
21
0.304904
0
LINE
8
BLACK
6
CONTINUOUS
10
0.275192
20
0.304904
11
0.273203
21
0.304554
0
LINE
8
BLACK
6
CONTINUOUS
10
0.273203
20
0.304554
11
0.271454
21
0.305564
0
LINE
8
BLACK
6
CONTINUOUS
10
0.271454
20
0.305564
11
0.270763
21
0.307462
0
LINE
8
BLACK
6
CONTINUOUS
10
0.270763
20
0.307462
11
0.270763
21
0.331834
0
LINE
8
BLACK
6
CONTINUOUS
10
0.270763
20
0.331834
11
0.27084
21
0.332271
0
LINE
8
BLACK
6
CONTINUOUS
10
0.27084
20
0.332271
11
0.270819
21
0.332406
0
LINE
8
BLACK
6
CONTINUOUS
10
0.270819
20
0.332406
11
0.270882
21
0.332511
0
LINE
8
BLACK
6
CONTINUOUS
10
0.270882
20
0.332511
11
0.270941
21
0.332843
0
LINE
8
BLACK
6
CONTINUOUS
10
0.270941
20
0.332843
11
0.271453
21
0.333453
0
LINE
8
BLACK
6
CONTINUOUS
10
0.271453
20
0.333453
11
0.271865
21
0.334134
0
LINE
8
BLACK
6
CONTINUOUS
10
0.271865
20
0.334134
11
0.272088
21
0.33421
0
LINE
8
BLACK
6
CONTINUOUS
10
0.272088
20
0.33421
11
0.272239
21
0.334391
0
LINE
8
BLACK
6
CONTINUOUS
10
0.272239
20
0.334391
11
0.273023
21
0.334529
0
LINE
8
BLACK
6
CONTINUOUS
10
0.273023
20
0.334529
11
0.273777
21
0.334786
0
LINE
8
BLACK
6
CONTINUOUS
10
0.273777
20
0.334786
11
0.273996
21
0.334701
0
LINE
8
BLACK
6
CONTINUOUS
10
0.273996
20
0.334701
11
0.274229
21
0.334741
0
LINE
8
BLACK
6
CONTINUOUS
10
0.274229
20
0.334741
11
0.274918
21
0.334343
0
LINE
8
BLACK
6
CONTINUOUS
10
0.274918
20
0.334343
11
0.27566
21
0.334056
0
LINE
8
BLACK
6
CONTINUOUS
10
0.27566
20
0.334056
11
0.285896
21
0.325099
0
LINE
8
BLACK
6
CONTINUOUS
10
0.285896
20
0.325099
11
0.285939
21
0.325344
0
LINE
8
BLACK
6
CONTINUOUS
10
0.285939
20
0.325344
11
0.286053
21
0.32548
0
LINE
8
BLACK
6
CONTINUOUS
10
0.286053
20
0.32548
11
0.286073
21
0.325655
0
LINE
8
BLACK
6
CONTINUOUS
10
0.286073
20
0.325655
11
0.287948
21
0.329404
0
LINE
8
BLACK
6
CONTINUOUS
10
0.287948
20
0.329404
11
0.288474
21
0.330114
0
LINE
8
BLACK
6
CONTINUOUS
10
0.288474
20
0.330114
11
0.288501
21
0.330172
0
LINE
8
BLACK
6
CONTINUOUS
10
0.288501
20
0.330172
11
0.290376
21
0.332047
0
LINE
8
BLACK
6
CONTINUOUS
10
0.290376
20
0.332047
11
0.291099
21
0.332553
0
LINE
8
BLACK
6
CONTINUOUS
10
0.291099
20
0.332553
11
0.291143
21
0.3326
0
LINE
8
BLACK
6
CONTINUOUS
10
0.291143
20
0.3326
11
0.294892
21
0.334475
0
LINE
8
BLACK
6
CONTINUOUS
10
0.294892
20
0.334475
11
0.295875
21
0.334767
0
LINE
8
BLACK
6
CONTINUOUS
10
0.295875
20
0.334767
11
0.296047
21
0.334726
0
LINE
8
BLACK
6
CONTINUOUS
10
0.296047
20
0.334726
11
0.296213
21
0.334786
0
LINE
8
BLACK
6
CONTINUOUS
10
0.296213
20
0.334786
11
0.305587
21
0.334786
0
LINE
8
BLACK
6
CONTINUOUS
10
0.305587
20
0.334786
11
0.306597
21
0.334608
0
LINE
8
BLACK
6
CONTINUOUS
10
0.306597
20
0.372104
11
0.306732
21
0.37199
0
LINE
8
BLACK
6
CONTINUOUS
10
0.306732
20
0.37199
11
0.306907
21
0.37197
0
LINE
8
BLACK
6
CONTINUOUS
10
0.306907
20
0.37197
11
0.310657
21
0.370095
0
LINE
8
BLACK
6
CONTINUOUS
10
0.310657
20
0.370095
11
0.311366
21
0.369569
0
LINE
8
BLACK
6
CONTINUOUS
10
0.311366
20
0.369569
11
0.311424
21
0.369542
0
LINE
8
BLACK
6
CONTINUOUS
10
0.311424
20
0.369542
11
0.313299
21
0.367667
0
LINE
8
BLACK
6
CONTINUOUS
10
0.313299
20
0.367667
11
0.313805
21
0.366944
0
LINE
8
BLACK
6
CONTINUOUS
10
0.313805
20
0.366944
11
0.313852
21
0.3669
0
LINE
8
BLACK
6
CONTINUOUS
10
0.313852
20
0.3669
11
0.315727
21
0.36315
0
LINE
8
BLACK
6
CONTINUOUS
10
0.315727
20
0.36315
11
0.316019
21
0.362167
0
LINE
8
BLACK
6
CONTINUOUS
10
0.316019
20
0.362167
11
0.315978
21
0.361996
0
LINE
8
BLACK
6
CONTINUOUS
10
0.315978
20
0.361996
11
0.316039
21
0.36183
0
LINE
8
BLACK
6
CONTINUOUS
10
0.316039
20
0.36183
11
0.316039
21
0.352456
0
LINE
8
BLACK
6
CONTINUOUS
10
0.316039
20
0.352456
11
0.315861
21
0.351446
0
LINE
8
BLACK
6
CONTINUOUS
10
0.315861
20
0.351446
11
0.315747
21
0.351311
0
LINE
8
BLACK
6
CONTINUOUS
10
0.315747
20
0.351311
11
0.315727
21
0.351135
0
LINE
8
BLACK
6
CONTINUOUS
10
0.315727
20
0.351135
11
0.313852
21
0.347386
0
LINE
8
BLACK
6
CONTINUOUS
10
0.313852
20
0.347386
11
0.313326
21
0.346677
0
LINE
8
BLACK
6
CONTINUOUS
10
0.313326
20
0.346677
11
0.313299
21
0.346618
0
LINE
8
BLACK
6
CONTINUOUS
10
0.313299
20
0.346618
11
0.311424
21
0.344744
0
LINE
8
BLACK
6
CONTINUOUS
10
0.311424
20
0.344744
11
0.310584
21
0.344156
0
LINE
8
BLACK
6
CONTINUOUS
10
0.310584
20
0.344156
11
0.308572
21
0.343979
0
LINE
8
BLACK
6
CONTINUOUS
10
0.308572
20
0.343979
11
0.306918
21
0.345138
0
LINE
8
BLACK
6
CONTINUOUS
10
0.306918
20
0.345138
11
0.306395
21
0.347089
0
LINE
8
BLACK
6
CONTINUOUS
10
0.306395
20
0.347089
11
0.307248
21
0.34892
0
LINE
8
BLACK
6
CONTINUOUS
10
0.307248
20
0.34892
11
0.308784
21
0.350455
0
LINE
8
BLACK
6
CONTINUOUS
10
0.308784
20
0.350455
11
0.310133
21
0.353153
0
LINE
8
BLACK
6
CONTINUOUS
10
0.310133
20
0.353153
11
0.310133
21
0.361133
0
LINE
8
BLACK
6
CONTINUOUS
10
0.310133
20
0.361133
11
0.308784
21
0.36383
0
LINE
8
BLACK
6
CONTINUOUS
10
0.308784
20
0.36383
11
0.307587
21
0.365027
0
LINE
8
BLACK
6
CONTINUOUS
10
0.307587
20
0.365027
11
0.30489
21
0.366376
0
LINE
8
BLACK
6
CONTINUOUS
10
0.30489
20
0.366376
11
0.29691
21
0.366376
0
LINE
8
BLACK
6
CONTINUOUS
10
0.29691
20
0.366376
11
0.294213
21
0.365027
0
LINE
8
BLACK
6
CONTINUOUS
10
0.294213
20
0.365027
11
0.293015
21
0.36383
0
LINE
8
BLACK
6
CONTINUOUS
10
0.293015
20
0.36383
11
0.291667
21
0.361133
0
LINE
8
BLACK
6
CONTINUOUS
10
0.291667
20
0.361133
11
0.291667
21
0.353153
0
LINE
8
BLACK
6
CONTINUOUS
10
0.291667
20
0.353153
11
0.293015
21
0.350455
0
LINE
8
BLACK
6
CONTINUOUS
10
0.293015
20
0.350455
11
0.294551
21
0.34892
0
LINE
8
BLACK
6
CONTINUOUS
10
0.294551
20
0.34892
11
0.29514
21
0.348079
0
LINE
8
BLACK
6
CONTINUOUS
10
0.29514
20
0.348079
11
0.295141
21
0.34806
0
LINE
8
BLACK
6
CONTINUOUS
10
0.295141
20
0.34806
11
0.295155
21
0.348046
0
LINE
8
BLACK
6
CONTINUOUS
10
0.295155
20
0.348046
11
0.295229
21
0.347056
0
LINE
8
BLACK
6
CONTINUOUS
10
0.295229
20
0.347056
11
0.295316
21
0.346067
0
LINE
8
BLACK
6
CONTINUOUS
10
0.295316
20
0.346067
11
0.295304
21
0.346051
0
LINE
8
BLACK
6
CONTINUOUS
10
0.295304
20
0.346051
11
0.295306
21
0.346032
0
LINE
8
BLACK
6
CONTINUOUS
10
0.295306
20
0.346032
11
0.294726
21
0.345225
0
LINE
8
BLACK
6
CONTINUOUS
10
0.294726
20
0.345225
11
0.294157
21
0.344413
0
LINE
8
BLACK
6
CONTINUOUS
10
0.294157
20
0.344413
11
0.294138
21
0.344408
0
LINE
8
BLACK
6
CONTINUOUS
10
0.294138
20
0.344408
11
0.294127
21
0.344392
0
LINE
8
BLACK
6
CONTINUOUS
10
0.294127
20
0.344392
11
0.293165
21
0.344147
0
LINE
8
BLACK
6
CONTINUOUS
10
0.293165
20
0.344147
11
0.292206
21
0.34389
0
LINE
8
BLACK
6
CONTINUOUS
10
0.292206
20
0.34389
11
0.292189
21
0.343898
0
LINE
8
BLACK
6
CONTINUOUS
10
0.292189
20
0.343898
11
0.29217
21
0.343894
0
LINE
8
BLACK
6
CONTINUOUS
10
0.29217
20
0.343894
11
0.273422
21
0.345768
0
LINE
8
BLACK
6
CONTINUOUS
10
0.273422
20
0.345768
11
0.273272
21
0.345811
0
LINE
8
BLACK
6
CONTINUOUS
10
0.273272
20
0.345811
11
0.273203
21
0.345798
0
LINE
8
BLACK
6
CONTINUOUS
10
0.273203
20
0.345798
11
0.273097
21
0.34586
0
LINE
8
BLACK
6
CONTINUOUS
10
0.273097
20
0.34586
11
0.272435
21
0.346046
0
LINE
8
BLACK
6
CONTINUOUS
10
0.272435
20
0.346046
11
0.271997
21
0.346495
0
LINE
8
BLACK
6
CONTINUOUS
10
0.271997
20
0.346495
11
0.271454
21
0.346808
0
LINE
8
BLACK
6
CONTINUOUS
10
0.271454
20
0.346808
11
0.271313
21
0.347196
0
LINE
8
BLACK
6
CONTINUOUS
10
0.271313
20
0.347196
11
0.271024
21
0.347492
0
LINE
8
BLACK
6
CONTINUOUS
10
0.271024
20
0.347492
11
0.270977
21
0.348117
0
LINE
8
BLACK
6
CONTINUOUS
10
0.270977
20
0.348117
11
0.270763
21
0.348706
0
LINE
8
BLACK
6
CONTINUOUS
10
0.270763
20
0.348706
11
0.270763
21
0.367454
0
LINE
8
BLACK
6
CONTINUOUS
10
0.270763
20
0.367454
11
0.270941
21
0.368464
0
LINE
8
BLACK
6
CONTINUOUS
10
0.270941
20
0.368464
11
0.272239
21
0.370011
0
LINE
8
BLACK
6
CONTINUOUS
10
0.272239
20
0.370011
11
0.274229
21
0.370362
0
LINE
8
BLACK
6
CONTINUOUS
10
0.274229
20
0.370362
11
0.275978
21
0.369352
0
LINE
8
BLACK
6
CONTINUOUS
10
0.275978
20
0.369352
11
0.276669
21
0.367454
0
LINE
8
BLACK
6
CONTINUOUS
10
0.276669
20
0.367454
11
0.276669
21
0.351379
0
LINE
8
BLACK
6
CONTINUOUS
10
0.276669
20
0.351379
11
0.28644
21
0.350401
0
LINE
8
BLACK
6
CONTINUOUS
10
0.28644
20
0.350401
11
0.286073
21
0.351135
0
LINE
8
BLACK
6
CONTINUOUS
10
0.286073
20
0.351135
11
0.285781
21
0.352118
0
LINE
8
BLACK
6
CONTINUOUS
10
0.285781
20
0.352118
11
0.285822
21
0.35229
0
LINE
8
BLACK
6
CONTINUOUS
10
0.285822
20
0.35229
11
0.285761
21
0.352456
0
LINE
8
BLACK
6
CONTINUOUS
10
0.285761
20
0.352456
11
0.285761
21
0.36183
0
LINE
8
BLACK
6
CONTINUOUS
10
0.285761
20
0.36183
11
0.285939
21
0.36284
0
LINE
8
BLACK
6
CONTINUOUS
10
0.285939
20
0.36284
11
0.286053
21
0.362975
0
LINE
8
BLACK
6
CONTINUOUS
10
0.286053
20
0.362975
11
0.286073
21
0.36315
0
LINE
8
BLACK
6
CONTINUOUS
10
0.286073
20
0.36315
11
0.287948
21
0.3669
0
LINE
8
BLACK
6
CONTINUOUS
10
0.287948
20
0.3669
11
0.288474
21
0.367609
0
LINE
8
BLACK
6
CONTINUOUS
10
0.288474
20
0.367609
11
0.288501
21
0.367667
0
LINE
8
BLACK
6
CONTINUOUS
10
0.288501
20
0.367667
11
0.290376
21
0.369542
0
LINE
8
BLACK
6
CONTINUOUS
10
0.290376
20
0.369542
11
0.291099
21
0.370048
0
LINE
8
BLACK
6
CONTINUOUS
10
0.291099
20
0.370048
11
0.291143
21
0.370095
0
LINE
8
BLACK
6
CONTINUOUS
10
0.291143
20
0.370095
11
0.294892
21
0.37197
0
LINE
8
BLACK
6
CONTINUOUS
10
0.294892
20
0.37197
11
0.295875
21
0.372262
0
LINE
8
BLACK
6
CONTINUOUS
10
0.295875
20
0.372262
11
0.296047
21
0.372221
0
LINE
8
BLACK
6
CONTINUOUS
10
0.296047
20
0.372221
11
0.296213
21
0.372282
0
LINE
8
BLACK
6
CONTINUOUS
10
0.296213
20
0.372282
11
0.305587
21
0.372282
0
LINE
8
BLACK
6
CONTINUOUS
10
0.305587
20
0.372282
11
0.306597
21
0.372104
0
LINE
8
BLACK
6
CONTINUOUS
10
0.30035
20
0.418096
11
0.30104
21
0.416198
0
LINE
8
BLACK
6
CONTINUOUS
10
0.30104
20
0.416198
11
0.30104
21
0.386202
0
LINE
8
BLACK
6
CONTINUOUS
10
0.30104
20
0.386202
11
0.300862
21
0.385192
0
LINE
8
BLACK
6
CONTINUOUS
10
0.300862
20
0.385192
11
0.299564
21
0.383645
0
LINE
8
BLACK
6
CONTINUOUS
10
0.299564
20
0.383645
11
0.297575
21
0.383294
0
LINE
8
BLACK
6
CONTINUOUS
10
0.297575
20
0.383294
11
0.295826
21
0.384304
0
LINE
8
BLACK
6
CONTINUOUS
10
0.295826
20
0.384304
11
0.295135
21
0.386202
0
LINE
8
BLACK
6
CONTINUOUS
10
0.295135
20
0.386202
11
0.295135
21
0.416198
0
LINE
8
BLACK
6
CONTINUOUS
10
0.295135
20
0.416198
11
0.295313
21
0.417208
0
LINE
8
BLACK
6
CONTINUOUS
10
0.295313
20
0.417208
11
0.296611
21
0.418755
0
LINE
8
BLACK
6
CONTINUOUS
10
0.296611
20
0.418755
11
0.2986
21
0.419106
0
LINE
8
BLACK
6
CONTINUOUS
10
0.2986
20
0.419106
11
0.30035
21
0.418096
0
LINE
8
BLACK
6
CONTINUOUS
10
0.165831
20
0.260262
11
0.168092
21
0.265078
0
LINE
8
BLACK
6
CONTINUOUS
10
0.168092
20
0.265078
11
0.171614
21
0.269065
0
LINE
8
BLACK
6
CONTINUOUS
10
0.171614
20
0.269065
11
0.176114
21
0.271904
0
LINE
8
BLACK
6
CONTINUOUS
10
0.176114
20
0.271904
11
0.181229
21
0.273366
0
LINE
8
BLACK
6
CONTINUOUS
10
0.181229
20
0.273366
11
0.186549
21
0.273334
0
LINE
8
BLACK
6
CONTINUOUS
10
0.186549
20
0.273334
11
0.191646
21
0.271809
0
LINE
8
BLACK
6
CONTINUOUS
10
0.191646
20
0.271809
11
0.196111
21
0.268916
0
LINE
8
BLACK
6
CONTINUOUS
10
0.196111
20
0.268916
11
0.199583
21
0.264885
0
LINE
8
BLACK
6
CONTINUOUS
10
0.199583
20
0.264885
11
0.201786
21
0.260042
0
LINE
8
BLACK
6
CONTINUOUS
10
0.201786
20
0.260042
11
0.20254
21
0.254776
0
LINE
8
BLACK
6
CONTINUOUS
10
0.20254
20
0.254776
11
0.202534
21
0.254317
0
LINE
8
BLACK
6
CONTINUOUS
10
0.202534
20
0.254317
11
0.201651
21
0.249071
0
LINE
8
BLACK
6
CONTINUOUS
10
0.201651
20
0.249071
11
0.199332
21
0.244283
0
LINE
8
BLACK
6
CONTINUOUS
10
0.199332
20
0.244283
11
0.195761
21
0.240338
0
LINE
8
BLACK
6
CONTINUOUS
10
0.195761
20
0.240338
11
0.191228
21
0.237555
0
LINE
8
BLACK
6
CONTINUOUS
10
0.191228
20
0.237555
11
0.186095
21
0.236155
0
LINE
8
BLACK
6
CONTINUOUS
10
0.186095
20
0.236155
11
0.180776
21
0.236253
0
LINE
8
BLACK
6
CONTINUOUS
10
0.180776
20
0.236253
11
0.175697
21
0.237839
0
LINE
8
BLACK
6
CONTINUOUS
10
0.175697
20
0.237839
11
0.171269
21
0.240787
0
LINE
8
BLACK
6
CONTINUOUS
10
0.171269
20
0.240787
11
0.167845
21
0.24486
0
LINE
8
BLACK
6
CONTINUOUS
10
0.167845
20
0.24486
11
0.165703
21
0.24973
0
LINE
8
BLACK
6
CONTINUOUS
10
0.165703
20
0.24973
11
0.165043
21
0.254776
0
LINE
8
BLACK
6
CONTINUOUS
10
0.165043
20
0.254776
11
0.165013
21
0.255005
0
LINE
8
BLACK
6
CONTINUOUS
10
0.165013
20
0.255005
11
0.165831
21
0.260262
0
LINE
8
BLACK
6
CONTINUOUS
10
0.173773
20
0.246383
11
0.177247
21
0.243468
0
LINE
8
BLACK
6
CONTINUOUS
10
0.177247
20
0.243468
11
0.181508
21
0.241917
0
LINE
8
BLACK
6
CONTINUOUS
10
0.181508
20
0.241917
11
0.186043
21
0.241917
0
LINE
8
BLACK
6
CONTINUOUS
10
0.186043
20
0.241917
11
0.190304
21
0.243468
0
LINE
8
BLACK
6
CONTINUOUS
10
0.190304
20
0.243468
11
0.193778
21
0.246383
0
LINE
8
BLACK
6
CONTINUOUS
10
0.193778
20
0.246383
11
0.196045
21
0.25031
0
LINE
8
BLACK
6
CONTINUOUS
10
0.196045
20
0.25031
11
0.196833
21
0.254776
0
LINE
8
BLACK
6
CONTINUOUS
10
0.196833
20
0.254776
11
0.196045
21
0.259241
0
LINE
8
BLACK
6
CONTINUOUS
10
0.196045
20
0.259241
11
0.193778
21
0.263168
0
LINE
8
BLACK
6
CONTINUOUS
10
0.193778
20
0.263168
11
0.190304
21
0.266083
0
LINE
8
BLACK
6
CONTINUOUS
10
0.190304
20
0.266083
11
0.186043
21
0.267634
0
LINE
8
BLACK
6
CONTINUOUS
10
0.186043
20
0.267634
11
0.181508
21
0.267634
0
LINE
8
BLACK
6
CONTINUOUS
10
0.181508
20
0.267634
11
0.177247
21
0.266083
0
LINE
8
BLACK
6
CONTINUOUS
10
0.177247
20
0.266083
11
0.173773
21
0.263168
0
LINE
8
BLACK
6
CONTINUOUS
10
0.173773
20
0.263168
11
0.171506
21
0.259241
0
LINE
8
BLACK
6
CONTINUOUS
10
0.171506
20
0.259241
11
0.170719
21
0.254776
0
LINE
8
BLACK
6
CONTINUOUS
10
0.170719
20
0.254776
11
0.171506
21
0.25031
0
LINE
8
BLACK
6
CONTINUOUS
10
0.171506
20
0.25031
11
0.173773
21
0.246383
0
LINE
8
BLACK
6
CONTINUOUS
10
0.314096
20
0.501462
11
0.315643
21
0.500164
0
LINE
8
BLACK
6
CONTINUOUS
10
0.315643
20
0.500164
11
0.315994
21
0.498175
0
LINE
8
BLACK
6
CONTINUOUS
10
0.315994
20
0.498175
11
0.314984
21
0.496426
0
LINE
8
BLACK
6
CONTINUOUS
10
0.314984
20
0.496426
11
0.313086
21
0.495735
0
LINE
8
BLACK
6
CONTINUOUS
10
0.313086
20
0.495735
11
0.287026
21
0.495735
0
LINE
8
BLACK
6
CONTINUOUS
10
0.287026
20
0.495735
11
0.303086
21
0.48824
0
LINE
8
BLACK
6
CONTINUOUS
10
0.303086
20
0.48824
11
0.303404
21
0.488017
0
LINE
8
BLACK
6
CONTINUOUS
10
0.303404
20
0.488017
11
0.30353
21
0.487984
0
LINE
8
BLACK
6
CONTINUOUS
10
0.30353
20
0.487984
11
0.303606
21
0.487876
0
LINE
8
BLACK
6
CONTINUOUS
10
0.303606
20
0.487876
11
0.303926
21
0.487652
0
LINE
8
BLACK
6
CONTINUOUS
10
0.303926
20
0.487652
11
0.304249
21
0.486957
0
LINE
8
BLACK
6
CONTINUOUS
10
0.304249
20
0.486957
11
0.304689
21
0.486329
0
LINE
8
BLACK
6
CONTINUOUS
10
0.304689
20
0.486329
11
0.304666
21
0.486063
0
LINE
8
BLACK
6
CONTINUOUS
10
0.304666
20
0.486063
11
0.304779
21
0.485821
0
LINE
8
BLACK
6
CONTINUOUS
10
0.304779
20
0.485821
11
0.30458
21
0.48508
0
LINE
8
BLACK
6
CONTINUOUS
10
0.30458
20
0.48508
11
0.304514
21
0.484317
0
LINE
8
BLACK
6
CONTINUOUS
10
0.304514
20
0.484317
11
0.304325
21
0.484128
0
LINE
8
BLACK
6
CONTINUOUS
10
0.304325
20
0.484128
11
0.304256
21
0.48387
0
LINE
8
BLACK
6
CONTINUOUS
10
0.304256
20
0.48387
11
0.303627
21
0.48343
0
LINE
8
BLACK
6
CONTINUOUS
10
0.303627
20
0.48343
11
0.303086
21
0.482889
0
LINE
8
BLACK
6
CONTINUOUS
10
0.303086
20
0.482889
11
0.287025
21
0.475394
0
LINE
8
BLACK
6
CONTINUOUS
10
0.287025
20
0.475394
11
0.313086
21
0.475394
0
LINE
8
BLACK
6
CONTINUOUS
10
0.313086
20
0.475394
11
0.314096
21
0.475216
0
LINE
8
BLACK
6
CONTINUOUS
10
0.314096
20
0.475216
11
0.315643
21
0.473917
0
LINE
8
BLACK
6
CONTINUOUS
10
0.315643
20
0.473917
11
0.315994
21
0.471928
0
LINE
8
BLACK
6
CONTINUOUS
10
0.315994
20
0.471928
11
0.314984
21
0.470179
0
LINE
8
BLACK
6
CONTINUOUS
10
0.314984
20
0.470179
11
0.313086
21
0.469488
0
LINE
8
BLACK
6
CONTINUOUS
10
0.313086
20
0.469488
11
0.273716
21
0.469488
0
LINE
8
BLACK
6
CONTINUOUS
10
0.273716
20
0.469488
11
0.272706
21
0.469666
0
LINE
8
BLACK
6
CONTINUOUS
10
0.272706
20
0.469666
11
0.272404
21
0.46992
0
LINE
8
BLACK
6
CONTINUOUS
10
0.272404
20
0.46992
11
0.272023
21
0.470022
0
LINE
8
BLACK
6
CONTINUOUS
10
0.272023
20
0.470022
11
0.271653
21
0.47055
0
LINE
8
BLACK
6
CONTINUOUS
10
0.271653
20
0.47055
11
0.271159
21
0.470965
0
LINE
8
BLACK
6
CONTINUOUS
10
0.271159
20
0.470965
11
0.27109
21
0.471353
0
LINE
8
BLACK
6
CONTINUOUS
10
0.27109
20
0.471353
11
0.270864
21
0.471676
0
LINE
8
BLACK
6
CONTINUOUS
10
0.270864
20
0.471676
11
0.27092
21
0.472318
0
LINE
8
BLACK
6
CONTINUOUS
10
0.27092
20
0.472318
11
0.270808
21
0.472954
0
LINE
8
BLACK
6
CONTINUOUS
10
0.270808
20
0.472954
11
0.271005
21
0.473295
0
LINE
8
BLACK
6
CONTINUOUS
10
0.271005
20
0.473295
11
0.271039
21
0.473688
0
LINE
8
BLACK
6
CONTINUOUS
10
0.271039
20
0.473688
11
0.271495
21
0.474144
0
LINE
8
BLACK
6
CONTINUOUS
10
0.271495
20
0.474144
11
0.271818
21
0.474703
0
LINE
8
BLACK
6
CONTINUOUS
10
0.271818
20
0.474703
11
0.272188
21
0.474838
0
LINE
8
BLACK
6
CONTINUOUS
10
0.272188
20
0.474838
11
0.272467
21
0.475117
0
LINE
8
BLACK
6
CONTINUOUS
10
0.272467
20
0.475117
11
0.294855
21
0.485564
0
LINE
8
BLACK
6
CONTINUOUS
10
0.294855
20
0.485564
11
0.272467
21
0.496012
0
LINE
8
BLACK
6
CONTINUOUS
10
0.272467
20
0.496012
11
0.271627
21
0.4966
0
LINE
8
BLACK
6
CONTINUOUS
10
0.271627
20
0.4966
11
0.271461
21
0.496958
0
LINE
8
BLACK
6
CONTINUOUS
10
0.271461
20
0.496958
11
0.271159
21
0.497211
0
LINE
8
BLACK
6
CONTINUOUS
10
0.271159
20
0.497211
11
0.271047
21
0.497846
0
LINE
8
BLACK
6
CONTINUOUS
10
0.271047
20
0.497846
11
0.270774
21
0.498431
0
LINE
8
BLACK
6
CONTINUOUS
10
0.270774
20
0.498431
11
0.270876
21
0.498812
0
LINE
8
BLACK
6
CONTINUOUS
10
0.270876
20
0.498812
11
0.270808
21
0.4992
0
LINE
8
BLACK
6
CONTINUOUS
10
0.270808
20
0.4992
11
0.27113
21
0.499759
0
LINE
8
BLACK
6
CONTINUOUS
10
0.27113
20
0.499759
11
0.271297
21
0.500382
0
LINE
8
BLACK
6
CONTINUOUS
10
0.271297
20
0.500382
11
0.271621
21
0.500608
0
LINE
8
BLACK
6
CONTINUOUS
10
0.271621
20
0.500608
11
0.271818
21
0.50095
0
LINE
8
BLACK
6
CONTINUOUS
10
0.271818
20
0.50095
11
0.272424
21
0.50117
0
LINE
8
BLACK
6
CONTINUOUS
10
0.272424
20
0.50117
11
0.272952
21
0.50154
0
LINE
8
BLACK
6
CONTINUOUS
10
0.272952
20
0.50154
11
0.273345
21
0.501506
0
LINE
8
BLACK
6
CONTINUOUS
10
0.273345
20
0.501506
11
0.273716
21
0.50164
0
LINE
8
BLACK
6
CONTINUOUS
10
0.273716
20
0.50164
11
0.313086
21
0.50164
0
LINE
8
BLACK
6
CONTINUOUS
10
0.313086
20
0.50164
11
0.314096
21
0.501462
0
LINE
8
BLACK
6
CONTINUOUS
10
0.275978
20
0.536206
11
0.276669
21
0.534308
0
LINE
8
BLACK
6
CONTINUOUS
10
0.276669
20
0.534308
11
0.276669
21
0.526012
0
LINE
8
BLACK
6
CONTINUOUS
10
0.276669
20
0.526012
11
0.313086
21
0.526012
0
LINE
8
BLACK
6
CONTINUOUS
10
0.313086
20
0.526012
11
0.314096
21
0.525834
0
LINE
8
BLACK
6
CONTINUOUS
10
0.314096
20
0.525834
11
0.315643
21
0.524536
0
LINE
8
BLACK
6
CONTINUOUS
10
0.315643
20
0.524536
11
0.315994
21
0.522547
0
LINE
8
BLACK
6
CONTINUOUS
10
0.315994
20
0.522547
11
0.314984
21
0.520798
0
LINE
8
BLACK
6
CONTINUOUS
10
0.314984
20
0.520798
11
0.313086
21
0.520107
0
LINE
8
BLACK
6
CONTINUOUS
10
0.313086
20
0.520107
11
0.276669
21
0.520107
0
LINE
8
BLACK
6
CONTINUOUS
10
0.276669
20
0.520107
11
0.276669
21
0.511811
0
LINE
8
BLACK
6
CONTINUOUS
10
0.276669
20
0.511811
11
0.27649
21
0.510801
0
LINE
8
BLACK
6
CONTINUOUS
10
0.27649
20
0.510801
11
0.275192
21
0.509254
0
LINE
8
BLACK
6
CONTINUOUS
10
0.275192
20
0.509254
11
0.273203
21
0.508903
0
LINE
8
BLACK
6
CONTINUOUS
10
0.273203
20
0.508903
11
0.271454
21
0.509913
0
LINE
8
BLACK
6
CONTINUOUS
10
0.271454
20
0.509913
11
0.270763
21
0.511811
0
LINE
8
BLACK
6
CONTINUOUS
10
0.270763
20
0.511811
11
0.270763
21
0.534308
0
LINE
8
BLACK
6
CONTINUOUS
10
0.270763
20
0.534308
11
0.270941
21
0.535318
0
LINE
8
BLACK
6
CONTINUOUS
10
0.270941
20
0.535318
11
0.272239
21
0.536865
0
LINE
8
BLACK
6
CONTINUOUS
10
0.272239
20
0.536865
11
0.274229
21
0.537216
0
LINE
8
BLACK
6
CONTINUOUS
10
0.274229
20
0.537216
11
0.275978
21
0.536206
0
LINE
8
BLACK
6
CONTINUOUS
10
0.30035
20
0.579326
11
0.30104
21
0.577428
0
LINE
8
BLACK
6
CONTINUOUS
10
0.30104
20
0.577428
11
0.30104
21
0.547432
0
LINE
8
BLACK
6
CONTINUOUS
10
0.30104
20
0.547432
11
0.300862
21
0.546422
0
LINE
8
BLACK
6
CONTINUOUS
10
0.300862
20
0.546422
11
0.299564
21
0.544874
0
LINE
8
BLACK
6
CONTINUOUS
10
0.299564
20
0.544874
11
0.297575
21
0.544524
0
LINE
8
BLACK
6
CONTINUOUS
10
0.297575
20
0.544524
11
0.295826
21
0.545534
0
LINE
8
BLACK
6
CONTINUOUS
10
0.295826
20
0.545534
11
0.295135
21
0.547432
0
LINE
8
BLACK
6
CONTINUOUS
10
0.295135
20
0.547432
11
0.295135
21
0.577428
0
LINE
8
BLACK
6
CONTINUOUS
10
0.295135
20
0.577428
11
0.295313
21
0.578438
0
LINE
8
BLACK
6
CONTINUOUS
10
0.295313
20
0.578438
11
0.296611
21
0.579985
0
LINE
8
BLACK
6
CONTINUOUS
10
0.296611
20
0.579985
11
0.2986
21
0.580336
0
LINE
8
BLACK
6
CONTINUOUS
10
0.2986
20
0.580336
11
0.30035
21
0.579326
0
LINE
8
BLACK
6
CONTINUOUS
10
0.275978
20
0.614946
11
0.276669
21
0.613048
0
LINE
8
BLACK
6
CONTINUOUS
10
0.276669
20
0.613048
11
0.276669
21
0.604753
0
LINE
8
BLACK
6
CONTINUOUS
10
0.276669
20
0.604753
11
0.313086
21
0.604753
0
LINE
8
BLACK
6
CONTINUOUS
10
0.313086
20
0.604753
11
0.314096
21
0.604574
0
LINE
8
BLACK
6
CONTINUOUS
10
0.314096
20
0.604574
11
0.315643
21
0.603276
0
LINE
8
BLACK
6
CONTINUOUS
10
0.315643
20
0.603276
11
0.315994
21
0.601287
0
LINE
8
BLACK
6
CONTINUOUS
10
0.315994
20
0.601287
11
0.314984
21
0.599538
0
LINE
8
BLACK
6
CONTINUOUS
10
0.314984
20
0.599538
11
0.313086
21
0.598847
0
LINE
8
BLACK
6
CONTINUOUS
10
0.313086
20
0.598847
11
0.276669
21
0.598847
0
LINE
8
BLACK
6
CONTINUOUS
10
0.276669
20
0.598847
11
0.276669
21
0.590551
0
LINE
8
BLACK
6
CONTINUOUS
10
0.276669
20
0.590551
11
0.27649
21
0.589541
0
LINE
8
BLACK
6
CONTINUOUS
10
0.27649
20
0.589541
11
0.275192
21
0.587994
0
LINE
8
BLACK
6
CONTINUOUS
10
0.275192
20
0.587994
11
0.273203
21
0.587643
0
LINE
8
BLACK
6
CONTINUOUS
10
0.273203
20
0.587643
11
0.271454
21
0.588653
0
LINE
8
BLACK
6
CONTINUOUS
10
0.271454
20
0.588653
11
0.270763
21
0.590551
0
LINE
8
BLACK
6
CONTINUOUS
10
0.270763
20
0.590551
11
0.270763
21
0.613048
0
LINE
8
BLACK
6
CONTINUOUS
10
0.270763
20
0.613048
11
0.270941
21
0.614058
0
LINE
8
BLACK
6
CONTINUOUS
10
0.270941
20
0.614058
11
0.272239
21
0.615606
0
LINE
8
BLACK
6
CONTINUOUS
10
0.272239
20
0.615606
11
0.274229
21
0.615956
0
LINE
8
BLACK
6
CONTINUOUS
10
0.274229
20
0.615956
11
0.275978
21
0.614946
0
LINE
8
BLACK
6
CONTINUOUS
10
0.287849
20
0.651444
11
0.287984
21
0.65133
0
LINE
8
BLACK
6
CONTINUOUS
10
0.287984
20
0.65133
11
0.28816
21
0.65131
0
LINE
8
BLACK
6
CONTINUOUS
10
0.28816
20
0.65131
11
0.291909
21
0.649435
0
LINE
8
BLACK
6
CONTINUOUS
10
0.291909
20
0.649435
11
0.292618
21
0.648909
0
LINE
8
BLACK
6
CONTINUOUS
10
0.292618
20
0.648909
11
0.292677
21
0.648882
0
LINE
8
BLACK
6
CONTINUOUS
10
0.292677
20
0.648882
11
0.294551
21
0.647007
0
LINE
8
BLACK
6
CONTINUOUS
10
0.294551
20
0.647007
11
0.295058
21
0.646284
0
LINE
8
BLACK
6
CONTINUOUS
10
0.295058
20
0.646284
11
0.295104
21
0.64624
0
LINE
8
BLACK
6
CONTINUOUS
10
0.295104
20
0.64624
11
0.296979
21
0.64249
0
LINE
8
BLACK
6
CONTINUOUS
10
0.296979
20
0.64249
11
0.297272
21
0.641507
0
LINE
8
BLACK
6
CONTINUOUS
10
0.297272
20
0.641507
11
0.297231
21
0.641336
0
LINE
8
BLACK
6
CONTINUOUS
10
0.297231
20
0.641336
11
0.297277
21
0.641207
0
LINE
8
BLACK
6
CONTINUOUS
10
0.297277
20
0.641207
11
0.311393
21
0.651088
0
LINE
8
BLACK
6
CONTINUOUS
10
0.311393
20
0.651088
11
0.312322
21
0.651521
0
LINE
8
BLACK
6
CONTINUOUS
10
0.312322
20
0.651521
11
0.314334
21
0.651345
0
LINE
8
BLACK
6
CONTINUOUS
10
0.314334
20
0.651345
11
0.315762
21
0.649916
0
LINE
8
BLACK
6
CONTINUOUS
10
0.315762
20
0.649916
11
0.315938
21
0.647904
0
LINE
8
BLACK
6
CONTINUOUS
10
0.315938
20
0.647904
11
0.314779
21
0.64625
0
LINE
8
BLACK
6
CONTINUOUS
10
0.314779
20
0.64625
11
0.297291
21
0.634008
0
LINE
8
BLACK
6
CONTINUOUS
10
0.297291
20
0.634008
11
0.297291
21
0.629124
0
LINE
8
BLACK
6
CONTINUOUS
10
0.297291
20
0.629124
11
0.313086
21
0.629124
0
LINE
8
BLACK
6
CONTINUOUS
10
0.313086
20
0.629124
11
0.314096
21
0.628946
0
LINE
8
BLACK
6
CONTINUOUS
10
0.314096
20
0.628946
11
0.315643
21
0.627648
0
LINE
8
BLACK
6
CONTINUOUS
10
0.315643
20
0.627648
11
0.315994
21
0.625659
0
LINE
8
BLACK
6
CONTINUOUS
10
0.315994
20
0.625659
11
0.314984
21
0.62391
0
LINE
8
BLACK
6
CONTINUOUS
10
0.314984
20
0.62391
11
0.313086
21
0.623219
0
LINE
8
BLACK
6
CONTINUOUS
10
0.313086
20
0.623219
11
0.273716
21
0.623219
0
LINE
8
BLACK
6
CONTINUOUS
10
0.273716
20
0.623219
11
0.273332
21
0.623287
0
LINE
8
BLACK
6
CONTINUOUS
10
0.273332
20
0.623287
11
0.273203
21
0.623264
0
LINE
8
BLACK
6
CONTINUOUS
10
0.273203
20
0.623264
11
0.273089
21
0.623329
0
LINE
8
BLACK
6
CONTINUOUS
10
0.273089
20
0.623329
11
0.272706
21
0.623397
0
LINE
8
BLACK
6
CONTINUOUS
10
0.272706
20
0.623397
11
0.272118
21
0.62389
0
LINE
8
BLACK
6
CONTINUOUS
10
0.272118
20
0.62389
11
0.271454
21
0.624274
0
LINE
8
BLACK
6
CONTINUOUS
10
0.271454
20
0.624274
11
0.271363
21
0.624524
0
LINE
8
BLACK
6
CONTINUOUS
10
0.271363
20
0.624524
11
0.271159
21
0.624695
0
LINE
8
BLACK
6
CONTINUOUS
10
0.271159
20
0.624695
11
0.271025
21
0.625451
0
LINE
8
BLACK
6
CONTINUOUS
10
0.271025
20
0.625451
11
0.270763
21
0.626172
0
LINE
8
BLACK
6
CONTINUOUS
10
0.270763
20
0.626172
11
0.270763
21
0.64117
0
LINE
8
BLACK
6
CONTINUOUS
10
0.270763
20
0.64117
11
0.270941
21
0.64218
0
LINE
8
BLACK
6
CONTINUOUS
10
0.270941
20
0.64218
11
0.271055
21
0.642315
0
LINE
8
BLACK
6
CONTINUOUS
10
0.271055
20
0.642315
11
0.271075
21
0.64249
0
LINE
8
BLACK
6
CONTINUOUS
10
0.271075
20
0.64249
11
0.27295
21
0.64624
0
LINE
8
BLACK
6
CONTINUOUS
10
0.27295
20
0.64624
11
0.273475
21
0.646949
0
LINE
8
BLACK
6
CONTINUOUS
10
0.273475
20
0.646949
11
0.273503
21
0.647007
0
LINE
8
BLACK
6
CONTINUOUS
10
0.273503
20
0.647007
11
0.275377
21
0.648882
0
LINE
8
BLACK
6
CONTINUOUS
10
0.275377
20
0.648882
11
0.2761
21
0.649388
0
LINE
8
BLACK
6
CONTINUOUS
10
0.2761
20
0.649388
11
0.276145
21
0.649435
0
LINE
8
BLACK
6
CONTINUOUS
10
0.276145
20
0.649435
11
0.279894
21
0.65131
0
LINE
8
BLACK
6
CONTINUOUS
10
0.279894
20
0.65131
11
0.280877
21
0.651602
0
LINE
8
BLACK
6
CONTINUOUS
10
0.280877
20
0.651602
11
0.281049
21
0.651561
0
LINE
8
BLACK
6
CONTINUOUS
10
0.281049
20
0.651561
11
0.281215
21
0.651622
0
LINE
8
BLACK
6
CONTINUOUS
10
0.281215
20
0.651622
11
0.286839
21
0.651622
0
LINE
8
BLACK
6
CONTINUOUS
10
0.286839
20
0.651622
11
0.287849
21
0.651444
0
LINE
8
BLACK
6
CONTINUOUS
10
0.281912
20
0.645716
11
0.279214
21
0.644367
0
LINE
8
BLACK
6
CONTINUOUS
10
0.279214
20
0.644367
11
0.278017
21
0.64317
0
LINE
8
BLACK
6
CONTINUOUS
10
0.278017
20
0.64317
11
0.276669
21
0.640473
0
LINE
8
BLACK
6
CONTINUOUS
10
0.276669
20
0.640473
11
0.276669
21
0.629124
0
LINE
8
BLACK
6
CONTINUOUS
10
0.276669
20
0.629124
11
0.291385
21
0.629124
0
LINE
8
BLACK
6
CONTINUOUS
10
0.291385
20
0.629124
11
0.291385
21
0.640473
0
LINE
8
BLACK
6
CONTINUOUS
10
0.291385
20
0.640473
11
0.290037
21
0.64317
0
LINE
8
BLACK
6
CONTINUOUS
10
0.290037
20
0.64317
11
0.28884
21
0.644367
0
LINE
8
BLACK
6
CONTINUOUS
10
0.28884
20
0.644367
11
0.286142
21
0.645716
0
LINE
8
BLACK
6
CONTINUOUS
10
0.286142
20
0.645716
11
0.281912
21
0.645716
0
LINE
8
BLACK
6
CONTINUOUS
10
0.270179
20
0.678878
11
0.271847
21
0.67721
0
LINE
8
BLACK
6
CONTINUOUS
10
0.271847
20
0.67721
11
0.277076
21
0.673725
0
LINE
8
BLACK
6
CONTINUOUS
10
0.277076
20
0.673725
11
0.280473
21
0.672026
0
LINE
8
BLACK
6
CONTINUOUS
10
0.280473
20
0.672026
11
0.285724
21
0.670276
0
LINE
8
BLACK
6
CONTINUOUS
10
0.285724
20
0.670276
11
0.294631
21
0.668495
0
LINE
8
BLACK
6
CONTINUOUS
10
0.294631
20
0.668495
11
0.301545
21
0.668495
0
LINE
8
BLACK
6
CONTINUOUS
10
0.301545
20
0.668495
11
0.310452
21
0.670276
0
LINE
8
BLACK
6
CONTINUOUS
10
0.310452
20
0.670276
11
0.315702
21
0.672026
0
LINE
8
BLACK
6
CONTINUOUS
10
0.315702
20
0.672026
11
0.3191
21
0.673725
0
LINE
8
BLACK
6
CONTINUOUS
10
0.3191
20
0.673725
11
0.324328
21
0.67721
0
LINE
8
BLACK
6
CONTINUOUS
10
0.324328
20
0.67721
11
0.325996
21
0.678878
0
LINE
8
BLACK
6
CONTINUOUS
10
0.325996
20
0.678878
11
0.326836
21
0.679466
0
LINE
8
BLACK
6
CONTINUOUS
10
0.326836
20
0.679466
11
0.328848
21
0.679643
0
LINE
8
BLACK
6
CONTINUOUS
10
0.328848
20
0.679643
11
0.330503
21
0.678484
0
LINE
8
BLACK
6
CONTINUOUS
10
0.330503
20
0.678484
11
0.331025
21
0.676533
0
LINE
8
BLACK
6
CONTINUOUS
10
0.331025
20
0.676533
11
0.330172
21
0.674702
0
LINE
8
BLACK
6
CONTINUOUS
10
0.330172
20
0.674702
11
0.328297
21
0.672828
0
LINE
8
BLACK
6
CONTINUOUS
10
0.328297
20
0.672828
11
0.327929
21
0.67257
0
LINE
8
BLACK
6
CONTINUOUS
10
0.327929
20
0.67257
11
0.327847
21
0.672459
0
LINE
8
BLACK
6
CONTINUOUS
10
0.327847
20
0.672459
11
0.322223
21
0.668709
0
LINE
8
BLACK
6
CONTINUOUS
10
0.322223
20
0.668709
11
0.321978
21
0.668602
0
LINE
8
BLACK
6
CONTINUOUS
10
0.321978
20
0.668602
11
0.321905
21
0.668525
0
LINE
8
BLACK
6
CONTINUOUS
10
0.321905
20
0.668525
11
0.318156
21
0.66665
0
LINE
8
BLACK
6
CONTINUOUS
10
0.318156
20
0.66665
11
0.31786
21
0.666562
0
LINE
8
BLACK
6
CONTINUOUS
10
0.31786
20
0.666562
11
0.317769
21
0.66649
0
LINE
8
BLACK
6
CONTINUOUS
10
0.317769
20
0.66649
11
0.312145
21
0.664615
0
LINE
8
BLACK
6
CONTINUOUS
10
0.312145
20
0.664615
11
0.311881
21
0.664576
0
LINE
8
BLACK
6
CONTINUOUS
10
0.311881
20
0.664576
11
0.31179
21
0.664521
0
LINE
8
BLACK
6
CONTINUOUS
10
0.31179
20
0.664521
11
0.302416
21
0.662646
0
LINE
8
BLACK
6
CONTINUOUS
10
0.302416
20
0.662646
11
0.301966
21
0.662636
0
LINE
8
BLACK
6
CONTINUOUS
10
0.301966
20
0.662636
11
0.301837
21
0.662589
0
LINE
8
BLACK
6
CONTINUOUS
10
0.301837
20
0.662589
11
0.294338
21
0.662589
0
LINE
8
BLACK
6
CONTINUOUS
10
0.294338
20
0.662589
11
0.293895
21
0.662667
0
LINE
8
BLACK
6
CONTINUOUS
10
0.293895
20
0.662667
11
0.293759
21
0.662646
0
LINE
8
BLACK
6
CONTINUOUS
10
0.293759
20
0.662646
11
0.284385
21
0.664521
0
LINE
8
BLACK
6
CONTINUOUS
10
0.284385
20
0.664521
11
0.284136
21
0.664618
0
LINE
8
BLACK
6
CONTINUOUS
10
0.284136
20
0.664618
11
0.284031
21
0.664615
0
LINE
8
BLACK
6
CONTINUOUS
10
0.284031
20
0.664615
11
0.278406
21
0.66649
0
LINE
8
BLACK
6
CONTINUOUS
10
0.278406
20
0.66649
11
0.278135
21
0.666637
0
LINE
8
BLACK
6
CONTINUOUS
10
0.278135
20
0.666637
11
0.27802
21
0.66665
0
LINE
8
BLACK
6
CONTINUOUS
10
0.27802
20
0.66665
11
0.27427
21
0.668525
0
LINE
8
BLACK
6
CONTINUOUS
10
0.27427
20
0.668525
11
0.274055
21
0.668684
0
LINE
8
BLACK
6
CONTINUOUS
10
0.274055
20
0.668684
11
0.273953
21
0.668709
0
LINE
8
BLACK
6
CONTINUOUS
10
0.273953
20
0.668709
11
0.268328
21
0.672459
0
LINE
8
BLACK
6
CONTINUOUS
10
0.268328
20
0.672459
11
0.268003
21
0.67277
0
LINE
8
BLACK
6
CONTINUOUS
10
0.268003
20
0.67277
11
0.267878
21
0.672828
0
LINE
8
BLACK
6
CONTINUOUS
10
0.267878
20
0.672828
11
0.266004
21
0.674702
0
LINE
8
BLACK
6
CONTINUOUS
10
0.266004
20
0.674702
11
0.265415
21
0.675543
0
LINE
8
BLACK
6
CONTINUOUS
10
0.265415
20
0.675543
11
0.265239
21
0.677555
0
LINE
8
BLACK
6
CONTINUOUS
10
0.265239
20
0.677555
11
0.266398
21
0.679209
0
LINE
8
BLACK
6
CONTINUOUS
10
0.266398
20
0.679209
11
0.268349
21
0.679732
0
LINE
8
BLACK
6
CONTINUOUS
10
0.268349
20
0.679732
11
0.270179
21
0.678878
0
LINE
8
BLACK
6
CONTINUOUS
10
0.315348
20
0.714309
11
0.316039
21
0.712411
0
LINE
8
BLACK
6
CONTINUOUS
10
0.316039
20
0.712411
11
0.316039
21
0.689914
0
LINE
8
BLACK
6
CONTINUOUS
10
0.316039
20
0.689914
11
0.315861
21
0.688904
0
LINE
8
BLACK
6
CONTINUOUS
10
0.315861
20
0.688904
11
0.314562
21
0.687357
0
LINE
8
BLACK
6
CONTINUOUS
10
0.314562
20
0.687357
11
0.312573
21
0.687006
0
LINE
8
BLACK
6
CONTINUOUS
10
0.312573
20
0.687006
11
0.310824
21
0.688016
0
LINE
8
BLACK
6
CONTINUOUS
10
0.310824
20
0.688016
11
0.310133
21
0.689914
0
LINE
8
BLACK
6
CONTINUOUS
10
0.310133
20
0.689914
11
0.310133
21
0.69821
0
LINE
8
BLACK
6
CONTINUOUS
10
0.310133
20
0.69821
11
0.282719
21
0.69821
0
LINE
8
BLACK
6
CONTINUOUS
10
0.282719
20
0.69821
11
0.285178
21
0.695751
0
LINE
8
BLACK
6
CONTINUOUS
10
0.285178
20
0.695751
11
0.285684
21
0.695028
0
LINE
8
BLACK
6
CONTINUOUS
10
0.285684
20
0.695028
11
0.285731
21
0.694984
0
LINE
8
BLACK
6
CONTINUOUS
10
0.285731
20
0.694984
11
0.287605
21
0.691234
0
LINE
8
BLACK
6
CONTINUOUS
10
0.287605
20
0.691234
11
0.287898
21
0.690251
0
LINE
8
BLACK
6
CONTINUOUS
10
0.287898
20
0.690251
11
0.287428
21
0.688287
0
LINE
8
BLACK
6
CONTINUOUS
10
0.287428
20
0.688287
11
0.285806
21
0.687084
0
LINE
8
BLACK
6
CONTINUOUS
10
0.285806
20
0.687084
11
0.28379
21
0.687205
0
LINE
8
BLACK
6
CONTINUOUS
10
0.28379
20
0.687205
11
0.282323
21
0.688593
0
LINE
8
BLACK
6
CONTINUOUS
10
0.282323
20
0.688593
11
0.280663
21
0.691914
0
LINE
8
BLACK
6
CONTINUOUS
10
0.280663
20
0.691914
11
0.277459
21
0.695118
0
LINE
8
BLACK
6
CONTINUOUS
10
0.277459
20
0.695118
11
0.272078
21
0.698705
0
LINE
8
BLACK
6
CONTINUOUS
10
0.272078
20
0.698705
11
0.271336
21
0.699414
0
LINE
8
BLACK
6
CONTINUOUS
10
0.271336
20
0.699414
11
0.271289
21
0.699577
0
LINE
8
BLACK
6
CONTINUOUS
10
0.271289
20
0.699577
11
0.271159
21
0.699686
0
LINE
8
BLACK
6
CONTINUOUS
10
0.271159
20
0.699686
11
0.27101
21
0.70053
0
LINE
8
BLACK
6
CONTINUOUS
10
0.27101
20
0.70053
11
0.270769
21
0.701352
0
LINE
8
BLACK
6
CONTINUOUS
10
0.270769
20
0.701352
11
0.270837
21
0.701508
0
LINE
8
BLACK
6
CONTINUOUS
10
0.270837
20
0.701508
11
0.270808
21
0.701675
0
LINE
8
BLACK
6
CONTINUOUS
10
0.270808
20
0.701675
11
0.271236
21
0.702417
0
LINE
8
BLACK
6
CONTINUOUS
10
0.271236
20
0.702417
11
0.271581
21
0.703202
0
LINE
8
BLACK
6
CONTINUOUS
10
0.271581
20
0.703202
11
0.271733
21
0.703277
0
LINE
8
BLACK
6
CONTINUOUS
10
0.271733
20
0.703277
11
0.271818
21
0.703424
0
LINE
8
BLACK
6
CONTINUOUS
10
0.271818
20
0.703424
11
0.272623
21
0.703717
0
LINE
8
BLACK
6
CONTINUOUS
10
0.272623
20
0.703717
11
0.273391
21
0.704097
0
LINE
8
BLACK
6
CONTINUOUS
10
0.273391
20
0.704097
11
0.273556
21
0.704057
0
LINE
8
BLACK
6
CONTINUOUS
10
0.273556
20
0.704057
11
0.273716
21
0.704115
0
LINE
8
BLACK
6
CONTINUOUS
10
0.273716
20
0.704115
11
0.310133
21
0.704115
0
LINE
8
BLACK
6
CONTINUOUS
10
0.310133
20
0.704115
11
0.310133
21
0.712411
0
LINE
8
BLACK
6
CONTINUOUS
10
0.310133
20
0.712411
11
0.310311
21
0.713421
0
LINE
8
BLACK
6
CONTINUOUS
10
0.310311
20
0.713421
11
0.311609
21
0.714968
0
LINE
8
BLACK
6
CONTINUOUS
10
0.311609
20
0.714968
11
0.313599
21
0.715319
0
LINE
8
BLACK
6
CONTINUOUS
10
0.313599
20
0.715319
11
0.315348
21
0.714309
0
LINE
8
BLACK
6
CONTINUOUS
10
0.30228
20
0.739658
11
0.302416
21
0.739678
0
LINE
8
BLACK
6
CONTINUOUS
10
0.302416
20
0.739678
11
0.31179
21
0.737804
0
LINE
8
BLACK
6
CONTINUOUS
10
0.31179
20
0.737804
11
0.312039
21
0.737706
0
LINE
8
BLACK
6
CONTINUOUS
10
0.312039
20
0.737706
11
0.312145
21
0.737709
0
LINE
8
BLACK
6
CONTINUOUS
10
0.312145
20
0.737709
11
0.317769
21
0.735835
0
LINE
8
BLACK
6
CONTINUOUS
10
0.317769
20
0.735835
11
0.31804
21
0.735688
0
LINE
8
BLACK
6
CONTINUOUS
10
0.31804
20
0.735688
11
0.318156
21
0.735674
0
LINE
8
BLACK
6
CONTINUOUS
10
0.318156
20
0.735674
11
0.321905
21
0.7338
0
LINE
8
BLACK
6
CONTINUOUS
10
0.321905
20
0.7338
11
0.32212
21
0.73364
0
LINE
8
BLACK
6
CONTINUOUS
10
0.32212
20
0.73364
11
0.322223
21
0.733615
0
LINE
8
BLACK
6
CONTINUOUS
10
0.322223
20
0.733615
11
0.327847
21
0.729866
0
LINE
8
BLACK
6
CONTINUOUS
10
0.327847
20
0.729866
11
0.328172
21
0.729555
0
LINE
8
BLACK
6
CONTINUOUS
10
0.328172
20
0.729555
11
0.328297
21
0.729497
0
LINE
8
BLACK
6
CONTINUOUS
10
0.328297
20
0.729497
11
0.330172
21
0.727622
0
LINE
8
BLACK
6
CONTINUOUS
10
0.330172
20
0.727622
11
0.33076
21
0.726782
0
LINE
8
BLACK
6
CONTINUOUS
10
0.33076
20
0.726782
11
0.330936
21
0.72477
0
LINE
8
BLACK
6
CONTINUOUS
10
0.330936
20
0.72477
11
0.329778
21
0.723116
0
LINE
8
BLACK
6
CONTINUOUS
10
0.329778
20
0.723116
11
0.327827
21
0.722593
0
LINE
8
BLACK
6
CONTINUOUS
10
0.327827
20
0.722593
11
0.325996
21
0.723446
0
LINE
8
BLACK
6
CONTINUOUS
10
0.325996
20
0.723446
11
0.324328
21
0.725114
0
LINE
8
BLACK
6
CONTINUOUS
10
0.324328
20
0.725114
11
0.3191
21
0.7286
0
LINE
8
BLACK
6
CONTINUOUS
10
0.3191
20
0.7286
11
0.315703
21
0.730299
0
LINE
8
BLACK
6
CONTINUOUS
10
0.315703
20
0.730299
11
0.310452
21
0.732049
0
LINE
8
BLACK
6
CONTINUOUS
10
0.310452
20
0.732049
11
0.301545
21
0.73383
0
LINE
8
BLACK
6
CONTINUOUS
10
0.301545
20
0.73383
11
0.294631
21
0.73383
0
LINE
8
BLACK
6
CONTINUOUS
10
0.294631
20
0.73383
11
0.285724
21
0.732049
0
LINE
8
BLACK
6
CONTINUOUS
10
0.285724
20
0.732049
11
0.280473
21
0.730299
0
LINE
8
BLACK
6
CONTINUOUS
10
0.280473
20
0.730299
11
0.277076
21
0.7286
0
LINE
8
BLACK
6
CONTINUOUS
10
0.277076
20
0.7286
11
0.271847
21
0.725114
0
LINE
8
BLACK
6
CONTINUOUS
10
0.271847
20
0.725114
11
0.270179
21
0.723446
0
LINE
8
BLACK
6
CONTINUOUS
10
0.270179
20
0.723446
11
0.269339
21
0.722858
0
LINE
8
BLACK
6
CONTINUOUS
10
0.269339
20
0.722858
11
0.267327
21
0.722682
0
LINE
8
BLACK
6
CONTINUOUS
10
0.267327
20
0.722682
11
0.265673
21
0.723841
0
LINE
8
BLACK
6
CONTINUOUS
10
0.265673
20
0.723841
11
0.26515
21
0.725792
0
LINE
8
BLACK
6
CONTINUOUS
10
0.26515
20
0.725792
11
0.266004
21
0.727622
0
LINE
8
BLACK
6
CONTINUOUS
10
0.266004
20
0.727622
11
0.267878
21
0.729497
0
LINE
8
BLACK
6
CONTINUOUS
10
0.267878
20
0.729497
11
0.268247
21
0.729755
0
LINE
8
BLACK
6
CONTINUOUS
10
0.268247
20
0.729755
11
0.268328
21
0.729866
0
LINE
8
BLACK
6
CONTINUOUS
10
0.268328
20
0.729866
11
0.273953
21
0.733615
0
LINE
8
BLACK
6
CONTINUOUS
10
0.273953
20
0.733615
11
0.274197
21
0.733723
0
LINE
8
BLACK
6
CONTINUOUS
10
0.274197
20
0.733723
11
0.27427
21
0.7338
0
LINE
8
BLACK
6
CONTINUOUS
10
0.27427
20
0.7338
11
0.27802
21
0.735674
0
LINE
8
BLACK
6
CONTINUOUS
10
0.27802
20
0.735674
11
0.278315
21
0.735762
0
LINE
8
BLACK
6
CONTINUOUS
10
0.278315
20
0.735762
11
0.278406
21
0.735835
0
LINE
8
BLACK
6
CONTINUOUS
10
0.278406
20
0.735835
11
0.284031
21
0.737709
0
LINE
8
BLACK
6
CONTINUOUS
10
0.284031
20
0.737709
11
0.284295
21
0.737749
0
LINE
8
BLACK
6
CONTINUOUS
10
0.284295
20
0.737749
11
0.284385
21
0.737804
0
LINE
8
BLACK
6
CONTINUOUS
10
0.284385
20
0.737804
11
0.293759
21
0.739678
0
LINE
8
BLACK
6
CONTINUOUS
10
0.293759
20
0.739678
11
0.294209
21
0.739689
0
LINE
8
BLACK
6
CONTINUOUS
10
0.294209
20
0.739689
11
0.294338
21
0.739736
0
LINE
8
BLACK
6
CONTINUOUS
10
0.294338
20
0.739736
11
0.301837
21
0.739736
0
LINE
8
BLACK
6
CONTINUOUS
10
0.301837
20
0.739736
11
0.30228
21
0.739658
0
LINE
8
BLACK
6
CONTINUOUS
10
-0.220504
20
2.19489
11
-0.216451
21
2.20831
0
LINE
8
BLACK
6
CONTINUOUS
10
-0.216451
20
2.20831
11
-0.210927
21
2.2212
0
LINE
8
BLACK
6
CONTINUOUS
10
-0.210927
20
2.2212
11
-0.204
21
2.23339
0
LINE
8
BLACK
6
CONTINUOUS
10
-0.204
20
2.23339
11
-0.195758
21
2.24474
0
LINE
8
BLACK
6
CONTINUOUS
10
-0.195758
20
2.24474
11
-0.186303
21
2.25509
0
LINE
8
BLACK
6
CONTINUOUS
10
-0.186303
20
2.25509
11
-0.175752
21
2.26433
0
LINE
8
BLACK
6
CONTINUOUS
10
-0.175752
20
2.26433
11
-0.164238
21
2.27233
0
LINE
8
BLACK
6
CONTINUOUS
10
-0.164238
20
2.27233
11
-0.151903
21
2.279
0
LINE
8
BLACK
6
CONTINUOUS
10
-0.151903
20
2.279
11
-0.138902
21
2.28425
0
LINE
8
BLACK
6
CONTINUOUS
10
-0.138902
20
2.28425
11
-0.125396
21
2.28802
0
LINE
8
BLACK
6
CONTINUOUS
10
-0.125396
20
2.28802
11
-0.111554
21
2.29027
0
LINE
8
BLACK
6
CONTINUOUS
10
-0.111554
20
2.29027
11
-0.0975483
21
2.29095
0
LINE
8
BLACK
6
CONTINUOUS
10
-0.0975483
20
2.29095
11
-0.0835537
21
2.29007
0
LINE
8
BLACK
6
CONTINUOUS
10
-0.0835537
20
2.29007
11
-0.0697443
21
2.28764
0
LINE
8
BLACK
6
CONTINUOUS
10
-0.0697443
20
2.28764
11
-0.0562925
21
2.28368
0
LINE
8
BLACK
6
CONTINUOUS
10
-0.0562925
20
2.28368
11
-0.0433658
21
2.27824
0
LINE
8
BLACK
6
CONTINUOUS
10
-0.0433658
20
2.27824
11
-0.0311254
21
2.2714
0
LINE
8
BLACK
6
CONTINUOUS
10
-0.0311254
20
2.2714
11
-0.0197237
21
2.26324
0
LINE
8
BLACK
6
CONTINUOUS
10
-0.0197237
20
2.26324
11
-0.00930311
21
2.25386
0
LINE
8
BLACK
6
CONTINUOUS
10
-0.00930311
20
2.25386
11
6.69291e-06
21
2.24337
0
LINE
8
BLACK
6
CONTINUOUS
10
6.69291e-06
20
2.24337
11
0.00808965
21
2.23191
0
LINE
8
BLACK
6
CONTINUOUS
10
0.00808965
20
2.23191
11
0.014845
21
2.21962
0
LINE
8
BLACK
6
CONTINUOUS
10
0.014845
20
2.21962
11
0.0201885
21
2.20666
0
LINE
8
BLACK
6
CONTINUOUS
10
0.0201885
20
2.20666
11
0.0240535
21
2.19318
0
LINE
8
BLACK
6
CONTINUOUS
10
0.0240535
20
2.19318
11
0.026392
21
2.17935
0
LINE
8
BLACK
6
CONTINUOUS
10
0.026392
20
2.17935
11
0.0271748
21
2.16535
0
LINE
8
BLACK
6
CONTINUOUS
10
0.0271748
20
2.16535
11
0.0271258
21
2.16185
0
LINE
8
BLACK
6
CONTINUOUS
10
0.0271258
20
2.16185
11
0.0259525
21
2.14787
0
LINE
8
BLACK
6
CONTINUOUS
10
0.0259525
20
2.14787
11
0.0232289
21
2.13412
0
LINE
8
BLACK
6
CONTINUOUS
10
0.0232289
20
2.13412
11
0.0189889
21
2.12075
0
LINE
8
BLACK
6
CONTINUOUS
10
0.0189889
20
2.12075
11
0.0132855
21
2.10794
0
LINE
8
BLACK
6
CONTINUOUS
10
0.0132855
20
2.10794
11
0.00618972
21
2.09585
0
LINE
8
BLACK
6
CONTINUOUS
10
0.00618972
20
2.09585
11
-0.00221
21
2.08462
0
LINE
8
BLACK
6
CONTINUOUS
10
-0.00221
20
2.08462
11
-0.011809
21
2.0744
0
LINE
8
BLACK
6
CONTINUOUS
10
-0.011809
20
2.0744
11
-0.0224876
21
2.06531
0
LINE
8
BLACK
6
CONTINUOUS
10
-0.0224876
20
2.06531
11
-0.0341126
21
2.05747
0
LINE
8
BLACK
6
CONTINUOUS
10
-0.0341126
20
2.05747
11
-0.0465393
21
2.05097
0
LINE
8
BLACK
6
CONTINUOUS
10
-0.0465393
20
2.05097
11
-0.0596127
21
2.0459
0
LINE
8
BLACK
6
CONTINUOUS
10
-0.0596127
20
2.0459
11
-0.0731698
21
2.04232
0
LINE
8
BLACK
6
CONTINUOUS
10
-0.0731698
20
2.04232
11
-0.0870417
21
2.04027
0
LINE
8
BLACK
6
CONTINUOUS
10
-0.0870417
20
2.04027
11
-0.101056
21
2.03978
0
LINE
8
BLACK
6
CONTINUOUS
10
-0.101056
20
2.03978
11
-0.115037
21
2.04086
0
LINE
8
BLACK
6
CONTINUOUS
10
-0.115037
20
2.04086
11
-0.128811
21
2.04349
0
LINE
8
BLACK
6
CONTINUOUS
10
-0.128811
20
2.04349
11
-0.142206
21
2.04763
0
LINE
8
BLACK
6
CONTINUOUS
10
-0.142206
20
2.04763
11
-0.155055
21
2.05325
0
LINE
8
BLACK
6
CONTINUOUS
10
-0.155055
20
2.05325
11
-0.167199
21
2.06026
0
LINE
8
BLACK
6
CONTINUOUS
10
-0.167199
20
2.06026
11
-0.178486
21
2.06858
0
LINE
8
BLACK
6
CONTINUOUS
10
-0.178486
20
2.06858
11
-0.188774
21
2.07811
0
LINE
8
BLACK
6
CONTINUOUS
10
-0.188774
20
2.07811
11
-0.197937
21
2.08872
0
LINE
8
BLACK
6
CONTINUOUS
10
-0.197937
20
2.08872
11
-0.205859
21
2.10029
0
LINE
8
BLACK
6
CONTINUOUS
10
-0.205859
20
2.10029
11
-0.212442
21
2.11267
0
LINE
8
BLACK
6
CONTINUOUS
10
-0.212442
20
2.11267
11
-0.217604
21
2.12571
0
LINE
8
BLACK
6
CONTINUOUS
10
-0.217604
20
2.12571
11
-0.221281
21
2.13924
0
LINE
8
BLACK
6
CONTINUOUS
10
-0.221281
20
2.13924
11
-0.223426
21
2.1531
0
LINE
8
BLACK
6
CONTINUOUS
10
-0.223426
20
2.1531
11
-0.224013
21
2.16711
0
LINE
8
BLACK
6
CONTINUOUS
10
-0.224013
20
2.16711
11
-0.223892
21
2.16883
0
LINE
8
BLACK
6
CONTINUOUS
10
-0.223892
20
2.16883
11
-0.223035
21
2.1811
0
LINE
8
BLACK
6
CONTINUOUS
10
-0.223035
20
2.1811
11
-0.220504
21
2.19489
0
LINE
8
BLACK
6
CONTINUOUS
10
-0.207027
20
2.14346
11
-0.20379
21
2.13112
0
LINE
8
BLACK
6
CONTINUOUS
10
-0.20379
20
2.13112
11
-0.199157
21
2.11924
0
LINE
8
BLACK
6
CONTINUOUS
10
-0.199157
20
2.11924
11
-0.193189
21
2.10796
0
LINE
8
BLACK
6
CONTINUOUS
10
-0.193189
20
2.10796
11
-0.185964
21
2.09745
0
LINE
8
BLACK
6
CONTINUOUS
10
-0.185964
20
2.09745
11
-0.17758
21
2.08784
0
LINE
8
BLACK
6
CONTINUOUS
10
-0.17758
20
2.08784
11
-0.168146
21
2.07926
0
LINE
8
BLACK
6
CONTINUOUS
10
-0.168146
20
2.07926
11
-0.157788
21
2.07181
0
LINE
8
BLACK
6
CONTINUOUS
10
-0.157788
20
2.07181
11
-0.146643
21
2.06561
0
LINE
8
BLACK
6
CONTINUOUS
10
-0.146643
20
2.06561
11
-0.134859
21
2.06073
0
LINE
8
BLACK
6
CONTINUOUS
10
-0.134859
20
2.06073
11
-0.122593
21
2.05723
0
LINE
8
BLACK
6
CONTINUOUS
10
-0.122593
20
2.05723
11
-0.110006
21
2.05517
0
LINE
8
BLACK
6
CONTINUOUS
10
-0.110006
20
2.05517
11
-0.097265
21
2.05457
0
LINE
8
BLACK
6
CONTINUOUS
10
-0.097265
20
2.05457
11
-0.0845398
21
2.05544
0
LINE
8
BLACK
6
CONTINUOUS
10
-0.0845398
20
2.05544
11
-0.0719987
21
2.05776
0
LINE
8
BLACK
6
CONTINUOUS
10
-0.0719987
20
2.05776
11
-0.0598078
21
2.06152
0
LINE
8
BLACK
6
CONTINUOUS
10
-0.0598078
20
2.06152
11
-0.0481287
21
2.06664
0
LINE
8
BLACK
6
CONTINUOUS
10
-0.0481287
20
2.06664
11
-0.0371164
21
2.07308
0
LINE
8
BLACK
6
CONTINUOUS
10
-0.0371164
20
2.07308
11
-0.0269166
21
2.08074
0
LINE
8
BLACK
6
CONTINUOUS
10
-0.0269166
20
2.08074
11
-0.0176646
21
2.08952
0
LINE
8
BLACK
6
CONTINUOUS
10
-0.0176646
20
2.08952
11
-0.00948311
21
2.0993
0
LINE
8
BLACK
6
CONTINUOUS
10
-0.00948311
20
2.0993
11
-0.00248047
21
2.10996
0
LINE
8
BLACK
6
CONTINUOUS
10
-0.00248047
20
2.10996
11
0.00325047
21
2.12136
0
LINE
8
BLACK
6
CONTINUOUS
10
0.00325047
20
2.12136
11
0.00763378
21
2.13333
0
LINE
8
BLACK
6
CONTINUOUS
10
0.00763378
20
2.13333
11
0.0106113
21
2.14574
0
LINE
8
BLACK
6
CONTINUOUS
10
0.0106113
20
2.14574
11
0.0121436
21
2.1584
0
LINE
8
BLACK
6
CONTINUOUS
10
0.0121436
20
2.1584
11
0.0123622
21
2.16535
0
LINE
8
BLACK
6
CONTINUOUS
10
0.0123622
20
2.16535
11
0.011628
21
2.17809
0
LINE
8
BLACK
6
CONTINUOUS
10
0.011628
20
2.17809
11
0.00943512
21
2.19065
0
LINE
8
BLACK
6
CONTINUOUS
10
0.00943512
20
2.19065
11
0.00581256
21
2.20288
0
LINE
8
BLACK
6
CONTINUOUS
10
0.00581256
20
2.20288
11
0.000808425
21
2.21461
0
LINE
8
BLACK
6
CONTINUOUS
10
0.000808425
20
2.21461
11
-0.00551102
21
2.22569
0
LINE
8
BLACK
6
CONTINUOUS
10
-0.00551102
20
2.22569
11
-0.013062
21
2.23597
0
LINE
8
BLACK
6
CONTINUOUS
10
-0.013062
20
2.23597
11
-0.0217444
21
2.24532
0
LINE
8
BLACK
6
CONTINUOUS
10
-0.0217444
20
2.24532
11
-0.0314432
21
2.2536
0
LINE
8
BLACK
6
CONTINUOUS
10
-0.0314432
20
2.2536
11
-0.0420298
21
2.26071
0
LINE
8
BLACK
6
CONTINUOUS
10
-0.0420298
20
2.26071
11
-0.0533639
21
2.26656
0
LINE
8
BLACK
6
CONTINUOUS
10
-0.0533639
20
2.26656
11
-0.0652952
21
2.27107
0
LINE
8
BLACK
6
CONTINUOUS
10
-0.0652952
20
2.27107
11
-0.0776657
21
2.27418
0
LINE
8
BLACK
6
CONTINUOUS
10
-0.0776657
20
2.27418
11
-0.0903113
21
2.27584
0
LINE
8
BLACK
6
CONTINUOUS
10
-0.0903113
20
2.27584
11
-0.103064
21
2.27604
0
LINE
8
BLACK
6
CONTINUOUS
10
-0.103064
20
2.27604
11
-0.115756
21
2.27478
0
LINE
8
BLACK
6
CONTINUOUS
10
-0.115756
20
2.27478
11
-0.128218
21
2.27206
0
LINE
8
BLACK
6
CONTINUOUS
10
-0.128218
20
2.27206
11
-0.140285
21
2.26793
0
LINE
8
BLACK
6
CONTINUOUS
10
-0.140285
20
2.26793
11
-0.151797
21
2.26244
0
LINE
8
BLACK
6
CONTINUOUS
10
-0.151797
20
2.26244
11
-0.162602
21
2.25566
0
LINE
8
BLACK
6
CONTINUOUS
10
-0.162602
20
2.25566
11
-0.172556
21
2.24769
0
LINE
8
BLACK
6
CONTINUOUS
10
-0.172556
20
2.24769
11
-0.181528
21
2.23862
0
LINE
8
BLACK
6
CONTINUOUS
10
-0.181528
20
2.23862
11
-0.189398
21
2.22858
0
LINE
8
BLACK
6
CONTINUOUS
10
-0.189398
20
2.22858
11
-0.196063
21
2.21771
0
LINE
8
BLACK
6
CONTINUOUS
10
-0.196063
20
2.21771
11
-0.201433
21
2.20614
0
LINE
8
BLACK
6
CONTINUOUS
10
-0.201433
20
2.20614
11
-0.205438
21
2.19403
0
LINE
8
BLACK
6
CONTINUOUS
10
-0.205438
20
2.19403
11
-0.208024
21
2.18154
0
LINE
8
BLACK
6
CONTINUOUS
10
-0.208024
20
2.18154
11
-0.209158
21
2.16883
0
LINE
8
BLACK
6
CONTINUOUS
10
-0.209158
20
2.16883
11
-0.208824
21
2.15608
0
LINE
8
BLACK
6
CONTINUOUS
10
-0.208824
20
2.15608
11
-0.207027
21
2.14346
0
LINE
8
BLACK
6
CONTINUOUS
10
2.33855
20
2.39174
11
2.3426
21
2.40516
0
LINE
8
BLACK
6
CONTINUOUS
10
2.3426
20
2.40516
11
2.34813
21
2.41805
0
LINE
8
BLACK
6
CONTINUOUS
10
2.34813
20
2.41805
11
2.35505
21
2.43024
0
LINE
8
BLACK
6
CONTINUOUS
10
2.35505
20
2.43024
11
2.3633
21
2.44159
0
LINE
8
BLACK
6
CONTINUOUS
10
2.3633
20
2.44159
11
2.37275
21
2.45194
0
LINE
8
BLACK
6
CONTINUOUS
10
2.37275
20
2.45194
11
2.3833
21
2.46118
0
LINE
8
BLACK
6
CONTINUOUS
10
2.3833
20
2.46118
11
2.39482
21
2.46918
0
LINE
8
BLACK
6
CONTINUOUS
10
2.39482
20
2.46918
11
2.40715
21
2.47585
0
LINE
8
BLACK
6
CONTINUOUS
10
2.40715
20
2.47585
11
2.42015
21
2.4811
0
LINE
8
BLACK
6
CONTINUOUS
10
2.42015
20
2.4811
11
2.43366
21
2.48487
0
LINE
8
BLACK
6
CONTINUOUS
10
2.43366
20
2.48487
11
2.4475
21
2.48712
0
LINE
8
BLACK
6
CONTINUOUS
10
2.4475
20
2.48712
11
2.46151
21
2.4878
0
LINE
8
BLACK
6
CONTINUOUS
10
2.46151
20
2.4878
11
2.4755
21
2.48692
0
LINE
8
BLACK
6
CONTINUOUS
10
2.4755
20
2.48692
11
2.48931
21
2.48449
0
LINE
8
BLACK
6
CONTINUOUS
10
2.48931
20
2.48449
11
2.50276
21
2.48053
0
LINE
8
BLACK
6
CONTINUOUS
10
2.50276
20
2.48053
11
2.51569
21
2.47509
0
LINE
8
BLACK
6
CONTINUOUS
10
2.51569
20
2.47509
11
2.52793
21
2.46825
0
LINE
8
BLACK
6
CONTINUOUS
10
2.52793
20
2.46825
11
2.53933
21
2.46009
0
LINE
8
BLACK
6
CONTINUOUS
10
2.53933
20
2.46009
11
2.54975
21
2.45071
0
LINE
8
BLACK
6
CONTINUOUS
10
2.54975
20
2.45071
11
2.55906
21
2.44022
0
LINE
8
BLACK
6
CONTINUOUS
10
2.55906
20
2.44022
11
2.56714
21
2.42876
0
LINE
8
BLACK
6
CONTINUOUS
10
2.56714
20
2.42876
11
2.5739
21
2.41647
0
LINE
8
BLACK
6
CONTINUOUS
10
2.5739
20
2.41647
11
2.57924
21
2.40351
0
LINE
8
BLACK
6
CONTINUOUS
10
2.57924
20
2.40351
11
2.58311
21
2.39003
0
LINE
8
BLACK
6
CONTINUOUS
10
2.58311
20
2.39003
11
2.58545
21
2.37621
0
LINE
8
BLACK
6
CONTINUOUS
10
2.58545
20
2.37621
11
2.58623
21
2.3622
0
LINE
8
BLACK
6
CONTINUOUS
10
2.58623
20
2.3622
11
2.58618
21
2.3587
0
LINE
8
BLACK
6
CONTINUOUS
10
2.58618
20
2.3587
11
2.58501
21
2.34472
0
LINE
8
BLACK
6
CONTINUOUS
10
2.58501
20
2.34472
11
2.58228
21
2.33097
0
LINE
8
BLACK
6
CONTINUOUS
10
2.58228
20
2.33097
11
2.57804
21
2.3176
0
LINE
8
BLACK
6
CONTINUOUS
10
2.57804
20
2.3176
11
2.57234
21
2.30479
0
LINE
8
BLACK
6
CONTINUOUS
10
2.57234
20
2.30479
11
2.56524
21
2.2927
0
LINE
8
BLACK
6
CONTINUOUS
10
2.56524
20
2.2927
11
2.55685
21
2.28147
0
LINE
8
BLACK
6
CONTINUOUS
10
2.55685
20
2.28147
11
2.54725
21
2.27125
0
LINE
8
BLACK
6
CONTINUOUS
10
2.54725
20
2.27125
11
2.53657
21
2.26216
0
LINE
8
BLACK
6
CONTINUOUS
10
2.53657
20
2.26216
11
2.52494
21
2.25432
0
LINE
8
BLACK
6
CONTINUOUS
10
2.52494
20
2.25432
11
2.51252
21
2.24782
0
LINE
8
BLACK
6
CONTINUOUS
10
2.51252
20
2.24782
11
2.49944
21
2.24275
0
LINE
8
BLACK
6
CONTINUOUS
10
2.49944
20
2.24275
11
2.48589
21
2.23917
0
LINE
8
BLACK
6
CONTINUOUS
10
2.48589
20
2.23917
11
2.47201
21
2.23712
0
LINE
8
BLACK
6
CONTINUOUS
10
2.47201
20
2.23712
11
2.458
21
2.23663
0
LINE
8
BLACK
6
CONTINUOUS
10
2.458
20
2.23663
11
2.44402
21
2.23771
0
LINE
8
BLACK
6
CONTINUOUS
10
2.44402
20
2.23771
11
2.43024
21
2.24034
0
LINE
8
BLACK
6
CONTINUOUS
10
2.43024
20
2.24034
11
2.41685
21
2.24448
0
LINE
8
BLACK
6
CONTINUOUS
10
2.41685
20
2.24448
11
2.404
21
2.2501
0
LINE
8
BLACK
6
CONTINUOUS
10
2.404
20
2.2501
11
2.39186
21
2.25711
0
LINE
8
BLACK
6
CONTINUOUS
10
2.39186
20
2.25711
11
2.38057
21
2.26543
0
LINE
8
BLACK
6
CONTINUOUS
10
2.38057
20
2.26543
11
2.37028
21
2.27496
0
LINE
8
BLACK
6
CONTINUOUS
10
2.37028
20
2.27496
11
2.36112
21
2.28557
0
LINE
8
BLACK
6
CONTINUOUS
10
2.36112
20
2.28557
11
2.3532
21
2.29714
0
LINE
8
BLACK
6
CONTINUOUS
10
2.3532
20
2.29714
11
2.34661
21
2.30952
0
LINE
8
BLACK
6
CONTINUOUS
10
2.34661
20
2.30952
11
2.34145
21
2.32256
0
LINE
8
BLACK
6
CONTINUOUS
10
2.34145
20
2.32256
11
2.33777
21
2.33609
0
LINE
8
BLACK
6
CONTINUOUS
10
2.33777
20
2.33609
11
2.33563
21
2.34995
0
LINE
8
BLACK
6
CONTINUOUS
10
2.33563
20
2.34995
11
2.33504
21
2.36396
0
LINE
8
BLACK
6
CONTINUOUS
10
2.33504
20
2.36396
11
2.33516
21
2.36568
0
LINE
8
BLACK
6
CONTINUOUS
10
2.33516
20
2.36568
11
2.33602
21
2.37795
0
LINE
8
BLACK
6
CONTINUOUS
10
2.33602
20
2.37795
11
2.33855
21
2.39174
0
LINE
8
BLACK
6
CONTINUOUS
10
2.35203
20
2.34031
11
2.35526
21
2.32797
0
LINE
8
BLACK
6
CONTINUOUS
10
2.35526
20
2.32797
11
2.3599
21
2.31609
0
LINE
8
BLACK
6
CONTINUOUS
10
2.3599
20
2.31609
11
2.36587
21
2.30481
0
LINE
8
BLACK
6
CONTINUOUS
10
2.36587
20
2.30481
11
2.37309
21
2.2943
0
LINE
8
BLACK
6
CONTINUOUS
10
2.37309
20
2.2943
11
2.38148
21
2.28469
0
LINE
8
BLACK
6
CONTINUOUS
10
2.38148
20
2.28469
11
2.39091
21
2.27611
0
LINE
8
BLACK
6
CONTINUOUS
10
2.39091
20
2.27611
11
2.40127
21
2.26866
0
LINE
8
BLACK
6
CONTINUOUS
10
2.40127
20
2.26866
11
2.41241
21
2.26246
0
LINE
8
BLACK
6
CONTINUOUS
10
2.41241
20
2.26246
11
2.4242
21
2.25758
0
LINE
8
BLACK
6
CONTINUOUS
10
2.4242
20
2.25758
11
2.43646
21
2.25409
0
LINE
8
BLACK
6
CONTINUOUS
10
2.43646
20
2.25409
11
2.44905
21
2.25202
0
LINE
8
BLACK
6
CONTINUOUS
10
2.44905
20
2.25202
11
2.46179
21
2.25142
0
LINE
8
BLACK
6
CONTINUOUS
10
2.46179
20
2.25142
11
2.47452
21
2.25229
0
LINE
8
BLACK
6
CONTINUOUS
10
2.47452
20
2.25229
11
2.48706
21
2.25462
0
LINE
8
BLACK
6
CONTINUOUS
10
2.48706
20
2.25462
11
2.49925
21
2.25837
0
LINE
8
BLACK
6
CONTINUOUS
10
2.49925
20
2.25837
11
2.51093
21
2.26349
0
LINE
8
BLACK
6
CONTINUOUS
10
2.51093
20
2.26349
11
2.52194
21
2.26993
0
LINE
8
BLACK
6
CONTINUOUS
10
2.52194
20
2.26993
11
2.53214
21
2.27759
0
LINE
8
BLACK
6
CONTINUOUS
10
2.53214
20
2.27759
11
2.54139
21
2.28637
0
LINE
8
BLACK
6
CONTINUOUS
10
2.54139
20
2.28637
11
2.54957
21
2.29615
0
LINE
8
BLACK
6
CONTINUOUS
10
2.54957
20
2.29615
11
2.55657
21
2.30681
0
LINE
8
BLACK
6
CONTINUOUS
10
2.55657
20
2.30681
11
2.56231
21
2.31821
0
LINE
8
BLACK
6
CONTINUOUS
10
2.56231
20
2.31821
11
2.56669
21
2.33018
0
LINE
8
BLACK
6
CONTINUOUS
10
2.56669
20
2.33018
11
2.56967
21
2.34259
0
LINE
8
BLACK
6
CONTINUOUS
10
2.56967
20
2.34259
11
2.5712
21
2.35525
0
LINE
8
BLACK
6
CONTINUOUS
10
2.5712
20
2.35525
11
2.57142
21
2.3622
0
LINE
8
BLACK
6
CONTINUOUS
10
2.57142
20
2.3622
11
2.57068
21
2.37494
0
LINE
8
BLACK
6
CONTINUOUS
10
2.57068
20
2.37494
11
2.56849
21
2.3875
0
LINE
8
BLACK
6
CONTINUOUS
10
2.56849
20
2.3875
11
2.56487
21
2.39973
0
LINE
8
BLACK
6
CONTINUOUS
10
2.56487
20
2.39973
11
2.55986
21
2.41146
0
LINE
8
BLACK
6
CONTINUOUS
10
2.55986
20
2.41146
11
2.55354
21
2.42254
0
LINE
8
BLACK
6
CONTINUOUS
10
2.55354
20
2.42254
11
2.54599
21
2.43282
0
LINE
8
BLACK
6
CONTINUOUS
10
2.54599
20
2.43282
11
2.53731
21
2.44217
0
LINE
8
BLACK
6
CONTINUOUS
10
2.53731
20
2.44217
11
2.52761
21
2.45045
0
LINE
8
BLACK
6
CONTINUOUS
10
2.52761
20
2.45045
11
2.51703
21
2.45756
0
LINE
8
BLACK
6
CONTINUOUS
10
2.51703
20
2.45756
11
2.50569
21
2.46341
0
LINE
8
BLACK
6
CONTINUOUS
10
2.50569
20
2.46341
11
2.49376
21
2.46792
0
LINE
8
BLACK
6
CONTINUOUS
10
2.49376
20
2.46792
11
2.48139
21
2.47103
0
LINE
8
BLACK
6
CONTINUOUS
10
2.48139
20
2.47103
11
2.46874
21
2.47269
0
LINE
8
BLACK
6
CONTINUOUS
10
2.46874
20
2.47269
11
2.45599
21
2.47289
0
LINE
8
BLACK
6
CONTINUOUS
10
2.45599
20
2.47289
11
2.4433
21
2.47163
0
LINE
8
BLACK
6
CONTINUOUS
10
2.4433
20
2.47163
11
2.43084
21
2.46891
0
LINE
8
BLACK
6
CONTINUOUS
10
2.43084
20
2.46891
11
2.41877
21
2.46478
0
LINE
8
BLACK
6
CONTINUOUS
10
2.41877
20
2.46478
11
2.40726
21
2.45929
0
LINE
8
BLACK
6
CONTINUOUS
10
2.40726
20
2.45929
11
2.39645
21
2.45251
0
LINE
8
BLACK
6
CONTINUOUS
10
2.39645
20
2.45251
11
2.3865
21
2.44454
0
LINE
8
BLACK
6
CONTINUOUS
10
2.3865
20
2.44454
11
2.37753
21
2.43547
0
LINE
8
BLACK
6
CONTINUOUS
10
2.37753
20
2.43547
11
2.36966
21
2.42543
0
LINE
8
BLACK
6
CONTINUOUS
10
2.36966
20
2.42543
11
2.36299
21
2.41456
0
LINE
8
BLACK
6
CONTINUOUS
10
2.36299
20
2.41456
11
2.35762
21
2.40299
0
LINE
8
BLACK
6
CONTINUOUS
10
2.35762
20
2.40299
11
2.35362
21
2.39088
0
LINE
8
BLACK
6
CONTINUOUS
10
2.35362
20
2.39088
11
2.35103
21
2.37839
0
LINE
8
BLACK
6
CONTINUOUS
10
2.35103
20
2.37839
11
2.3499
21
2.36568
0
LINE
8
BLACK
6
CONTINUOUS
10
2.3499
20
2.36568
11
2.35023
21
2.35293
0
LINE
8
BLACK
6
CONTINUOUS
10
2.35023
20
2.35293
11
2.35203
21
2.34031
0
LINE
8
BLACK
6
CONTINUOUS
10
1.45272
20
2.58859
11
1.45678
21
2.60201
0
LINE
8
BLACK
6
CONTINUOUS
10
1.45678
20
2.60201
11
1.4623
21
2.6149
0
LINE
8
BLACK
6
CONTINUOUS
10
1.4623
20
2.6149
11
1.46923
21
2.62709
0
LINE
8
BLACK
6
CONTINUOUS
10
1.46923
20
2.62709
11
1.47747
21
2.63844
0
LINE
8
BLACK
6
CONTINUOUS
10
1.47747
20
2.63844
11
1.48693
21
2.64879
0
LINE
8
BLACK
6
CONTINUOUS
10
1.48693
20
2.64879
11
1.49748
21
2.65803
0
LINE
8
BLACK
6
CONTINUOUS
10
1.49748
20
2.65803
11
1.50899
21
2.66603
0
LINE
8
BLACK
6
CONTINUOUS
10
1.50899
20
2.66603
11
1.52133
21
2.6727
0
LINE
8
BLACK
6
CONTINUOUS
10
1.52133
20
2.6727
11
1.53433
21
2.67795
0
LINE
8
BLACK
6
CONTINUOUS
10
1.53433
20
2.67795
11
1.54783
21
2.68173
0
LINE
8
BLACK
6
CONTINUOUS
10
1.54783
20
2.68173
11
1.56167
21
2.68397
0
LINE
8
BLACK
6
CONTINUOUS
10
1.56167
20
2.68397
11
1.57568
21
2.68465
0
LINE
8
BLACK
6
CONTINUOUS
10
1.57568
20
2.68465
11
1.58967
21
2.68377
0
LINE
8
BLACK
6
CONTINUOUS
10
1.58967
20
2.68377
11
1.60348
21
2.68134
0
LINE
8
BLACK
6
CONTINUOUS
10
1.60348
20
2.68134
11
1.61694
21
2.67738
0
LINE
8
BLACK
6
CONTINUOUS
10
1.61694
20
2.67738
11
1.62986
21
2.67194
0
LINE
8
BLACK
6
CONTINUOUS
10
1.62986
20
2.67194
11
1.6421
21
2.6651
0
LINE
8
BLACK
6
CONTINUOUS
10
1.6421
20
2.6651
11
1.6535
21
2.65694
0
LINE
8
BLACK
6
CONTINUOUS
10
1.6535
20
2.65694
11
1.66393
21
2.64756
0
LINE
8
BLACK
6
CONTINUOUS
10
1.66393
20
2.64756
11
1.67324
21
2.63707
0
LINE
8
BLACK
6
CONTINUOUS
10
1.67324
20
2.63707
11
1.68132
21
2.62561
0
LINE
8
BLACK
6
CONTINUOUS
10
1.68132
20
2.62561
11
1.68807
21
2.61333
0
LINE
8
BLACK
6
CONTINUOUS
10
1.68807
20
2.61333
11
1.69342
21
2.60036
0
LINE
8
BLACK
6
CONTINUOUS
10
1.69342
20
2.60036
11
1.69728
21
2.58688
0
LINE
8
BLACK
6
CONTINUOUS
10
1.69728
20
2.58688
11
1.69962
21
2.57306
0
LINE
8
BLACK
6
CONTINUOUS
10
1.69962
20
2.57306
11
1.7004
21
2.55906
0
LINE
8
BLACK
6
CONTINUOUS
10
1.7004
20
2.55906
11
1.70035
21
2.55555
0
LINE
8
BLACK
6
CONTINUOUS
10
1.70035
20
2.55555
11
1.69918
21
2.54157
0
LINE
8
BLACK
6
CONTINUOUS
10
1.69918
20
2.54157
11
1.69646
21
2.52782
0
LINE
8
BLACK
6
CONTINUOUS
10
1.69646
20
2.52782
11
1.69222
21
2.51445
0
LINE
8
BLACK
6
CONTINUOUS
10
1.69222
20
2.51445
11
1.68651
21
2.50164
0
LINE
8
BLACK
6
CONTINUOUS
10
1.68651
20
2.50164
11
1.67942
21
2.48955
0
LINE
8
BLACK
6
CONTINUOUS
10
1.67942
20
2.48955
11
1.67102
21
2.47832
0
LINE
8
BLACK
6
CONTINUOUS
10
1.67102
20
2.47832
11
1.66142
21
2.4681
0
LINE
8
BLACK
6
CONTINUOUS
10
1.66142
20
2.4681
11
1.65074
21
2.45901
0
LINE
8
BLACK
6
CONTINUOUS
10
1.65074
20
2.45901
11
1.63912
21
2.45117
0
LINE
8
BLACK
6
CONTINUOUS
10
1.63912
20
2.45117
11
1.62669
21
2.44467
0
LINE
8
BLACK
6
CONTINUOUS
10
1.62669
20
2.44467
11
1.61362
21
2.4396
0
LINE
8
BLACK
6
CONTINUOUS
10
1.61362
20
2.4396
11
1.60006
21
2.43602
0
LINE
8
BLACK
6
CONTINUOUS
10
1.60006
20
2.43602
11
1.58619
21
2.43397
0
LINE
8
BLACK
6
CONTINUOUS
10
1.58619
20
2.43397
11
1.57217
21
2.43348
0
LINE
8
BLACK
6
CONTINUOUS
10
1.57217
20
2.43348
11
1.55819
21
2.43456
0
LINE
8
BLACK
6
CONTINUOUS
10
1.55819
20
2.43456
11
1.54442
21
2.43719
0
LINE
8
BLACK
6
CONTINUOUS
10
1.54442
20
2.43719
11
1.53102
21
2.44133
0
LINE
8
BLACK
6
CONTINUOUS
10
1.53102
20
2.44133
11
1.51817
21
2.44695
0
LINE
8
BLACK
6
CONTINUOUS
10
1.51817
20
2.44695
11
1.50603
21
2.45396
0
LINE
8
BLACK
6
CONTINUOUS
10
1.50603
20
2.45396
11
1.49474
21
2.46228
0
LINE
8
BLACK
6
CONTINUOUS
10
1.49474
20
2.46228
11
1.48445
21
2.47181
0
LINE
8
BLACK
6
CONTINUOUS
10
1.48445
20
2.47181
11
1.47529
21
2.48242
0
LINE
8
BLACK
6
CONTINUOUS
10
1.47529
20
2.48242
11
1.46737
21
2.49399
0
LINE
8
BLACK
6
CONTINUOUS
10
1.46737
20
2.49399
11
1.46079
21
2.50637
0
LINE
8
BLACK
6
CONTINUOUS
10
1.46079
20
2.50637
11
1.45562
21
2.51941
0
LINE
8
BLACK
6
CONTINUOUS
10
1.45562
20
2.51941
11
1.45195
21
2.53294
0
LINE
8
BLACK
6
CONTINUOUS
10
1.45195
20
2.53294
11
1.4498
21
2.5468
0
LINE
8
BLACK
6
CONTINUOUS
10
1.4498
20
2.5468
11
1.44922
21
2.56081
0
LINE
8
BLACK
6
CONTINUOUS
10
1.44922
20
2.56081
11
1.44934
21
2.56254
0
LINE
8
BLACK
6
CONTINUOUS
10
1.44934
20
2.56254
11
1.45019
21
2.5748
0
LINE
8
BLACK
6
CONTINUOUS
10
1.45019
20
2.5748
11
1.45272
21
2.58859
0
LINE
8
BLACK
6
CONTINUOUS
10
1.4662
20
2.53716
11
1.46944
21
2.52482
0
LINE
8
BLACK
6
CONTINUOUS
10
1.46944
20
2.52482
11
1.47407
21
2.51294
0
LINE
8
BLACK
6
CONTINUOUS
10
1.47407
20
2.51294
11
1.48004
21
2.50166
0
LINE
8
BLACK
6
CONTINUOUS
10
1.48004
20
2.50166
11
1.48726
21
2.49115
0
LINE
8
BLACK
6
CONTINUOUS
10
1.48726
20
2.49115
11
1.49565
21
2.48154
0
LINE
8
BLACK
6
CONTINUOUS
10
1.49565
20
2.48154
11
1.50508
21
2.47296
0
LINE
8
BLACK
6
CONTINUOUS
10
1.50508
20
2.47296
11
1.51544
21
2.46551
0
LINE
8
BLACK
6
CONTINUOUS
10
1.51544
20
2.46551
11
1.52658
21
2.45931
0
LINE
8
BLACK
6
CONTINUOUS
10
1.52658
20
2.45931
11
1.53837
21
2.45443
0
LINE
8
BLACK
6
CONTINUOUS
10
1.53837
20
2.45443
11
1.55064
21
2.45094
0
LINE
8
BLACK
6
CONTINUOUS
10
1.55064
20
2.45094
11
1.56322
21
2.44887
0
LINE
8
BLACK
6
CONTINUOUS
10
1.56322
20
2.44887
11
1.57596
21
2.44827
0
LINE
8
BLACK
6
CONTINUOUS
10
1.57596
20
2.44827
11
1.58869
21
2.44914
0
LINE
8
BLACK
6
CONTINUOUS
10
1.58869
20
2.44914
11
1.60123
21
2.45147
0
LINE
8
BLACK
6
CONTINUOUS
10
1.60123
20
2.45147
11
1.61342
21
2.45522
0
LINE
8
BLACK
6
CONTINUOUS
10
1.61342
20
2.45522
11
1.6251
21
2.46034
0
LINE
8
BLACK
6
CONTINUOUS
10
1.6251
20
2.46034
11
1.63611
21
2.46678
0
LINE
8
BLACK
6
CONTINUOUS
10
1.63611
20
2.46678
11
1.64631
21
2.47444
0
LINE
8
BLACK
6
CONTINUOUS
10
1.64631
20
2.47444
11
1.65556
21
2.48322
0
LINE
8
BLACK
6
CONTINUOUS
10
1.65556
20
2.48322
11
1.66375
21
2.493
0
LINE
8
BLACK
6
CONTINUOUS
10
1.66375
20
2.493
11
1.67075
21
2.50366
0
LINE
8
BLACK
6
CONTINUOUS
10
1.67075
20
2.50366
11
1.67648
21
2.51506
0
LINE
8
BLACK
6
CONTINUOUS
10
1.67648
20
2.51506
11
1.68086
21
2.52703
0
LINE
8
BLACK
6
CONTINUOUS
10
1.68086
20
2.52703
11
1.68384
21
2.53944
0
LINE
8
BLACK
6
CONTINUOUS
10
1.68384
20
2.53944
11
1.68537
21
2.5521
0
LINE
8
BLACK
6
CONTINUOUS
10
1.68537
20
2.5521
11
1.68559
21
2.55906
0
LINE
8
BLACK
6
CONTINUOUS
10
1.68559
20
2.55906
11
1.68486
21
2.57179
0
LINE
8
BLACK
6
CONTINUOUS
10
1.68486
20
2.57179
11
1.68266
21
2.58435
0
LINE
8
BLACK
6
CONTINUOUS
10
1.68266
20
2.58435
11
1.67904
21
2.59658
0
LINE
8
BLACK
6
CONTINUOUS
10
1.67904
20
2.59658
11
1.67404
21
2.60832
0
LINE
8
BLACK
6
CONTINUOUS
10
1.67404
20
2.60832
11
1.66772
21
2.61939
0
LINE
8
BLACK
6
CONTINUOUS
10
1.66772
20
2.61939
11
1.66017
21
2.62967
0
LINE
8
BLACK
6
CONTINUOUS
10
1.66017
20
2.62967
11
1.65148
21
2.63902
0
LINE
8
BLACK
6
CONTINUOUS
10
1.65148
20
2.63902
11
1.64179
21
2.6473
0
LINE
8
BLACK
6
CONTINUOUS
10
1.64179
20
2.6473
11
1.6312
21
2.65441
0
LINE
8
BLACK
6
CONTINUOUS
10
1.6312
20
2.65441
11
1.61986
21
2.66026
0
LINE
8
BLACK
6
CONTINUOUS
10
1.61986
20
2.66026
11
1.60793
21
2.66477
0
LINE
8
BLACK
6
CONTINUOUS
10
1.60793
20
2.66477
11
1.59556
21
2.66788
0
LINE
8
BLACK
6
CONTINUOUS
10
1.59556
20
2.66788
11
1.58292
21
2.66955
0
LINE
8
BLACK
6
CONTINUOUS
10
1.58292
20
2.66955
11
1.57016
21
2.66975
0
LINE
8
BLACK
6
CONTINUOUS
10
1.57016
20
2.66975
11
1.55747
21
2.66848
0
LINE
8
BLACK
6
CONTINUOUS
10
1.55747
20
2.66848
11
1.54501
21
2.66576
0
LINE
8
BLACK
6
CONTINUOUS
10
1.54501
20
2.66576
11
1.53294
21
2.66163
0
LINE
8
BLACK
6
CONTINUOUS
10
1.53294
20
2.66163
11
1.52143
21
2.65614
0
LINE
8
BLACK
6
CONTINUOUS
10
1.52143
20
2.65614
11
1.51063
21
2.64936
0
LINE
8
BLACK
6
CONTINUOUS
10
1.51063
20
2.64936
11
1.50067
21
2.64139
0
LINE
8
BLACK
6
CONTINUOUS
10
1.50067
20
2.64139
11
1.4917
21
2.63232
0
LINE
8
BLACK
6
CONTINUOUS
10
1.4917
20
2.63232
11
1.48383
21
2.62228
0
LINE
8
BLACK
6
CONTINUOUS
10
1.48383
20
2.62228
11
1.47717
21
2.61141
0
LINE
8
BLACK
6
CONTINUOUS
10
1.47717
20
2.61141
11
1.4718
21
2.59984
0
LINE
8
BLACK
6
CONTINUOUS
10
1.4718
20
2.59984
11
1.46779
21
2.58773
0
LINE
8
BLACK
6
CONTINUOUS
10
1.46779
20
2.58773
11
1.4652
21
2.57524
0
LINE
8
BLACK
6
CONTINUOUS
10
1.4652
20
2.57524
11
1.46407
21
2.56254
0
LINE
8
BLACK
6
CONTINUOUS
10
1.46407
20
2.56254
11
1.4644
21
2.54978
0
LINE
8
BLACK
6
CONTINUOUS
10
1.4644
20
2.54978
11
1.4662
21
2.53716
0
LINE
8
BLACK
6
CONTINUOUS
10
2.24013
20
2.68701
11
2.24418
21
2.70044
0
LINE
8
BLACK
6
CONTINUOUS
10
2.24418
20
2.70044
11
2.2497
21
2.71333
0
LINE
8
BLACK
6
CONTINUOUS
10
2.2497
20
2.71333
11
2.25663
21
2.72552
0
LINE
8
BLACK
6
CONTINUOUS
10
2.25663
20
2.72552
11
2.26487
21
2.73686
0
LINE
8
BLACK
6
CONTINUOUS
10
2.26487
20
2.73686
11
2.27433
21
2.74722
0
LINE
8
BLACK
6
CONTINUOUS
10
2.27433
20
2.74722
11
2.28488
21
2.75645
0
LINE
8
BLACK
6
CONTINUOUS
10
2.28488
20
2.75645
11
2.29639
21
2.76446
0
LINE
8
BLACK
6
CONTINUOUS
10
2.29639
20
2.76446
11
2.30873
21
2.77113
0
LINE
8
BLACK
6
CONTINUOUS
10
2.30873
20
2.77113
11
2.32173
21
2.77638
0
LINE
8
BLACK
6
CONTINUOUS
10
2.32173
20
2.77638
11
2.33523
21
2.78015
0
LINE
8
BLACK
6
CONTINUOUS
10
2.33523
20
2.78015
11
2.34908
21
2.78239
0
LINE
8
BLACK
6
CONTINUOUS
10
2.34908
20
2.78239
11
2.36308
21
2.78308
0
LINE
8
BLACK
6
CONTINUOUS
10
2.36308
20
2.78308
11
2.37708
21
2.7822
0
LINE
8
BLACK
6
CONTINUOUS
10
2.37708
20
2.7822
11
2.39089
21
2.77976
0
LINE
8
BLACK
6
CONTINUOUS
10
2.39089
20
2.77976
11
2.40434
21
2.7758
0
LINE
8
BLACK
6
CONTINUOUS
10
2.40434
20
2.7758
11
2.41726
21
2.77037
0
LINE
8
BLACK
6
CONTINUOUS
10
2.41726
20
2.77037
11
2.4295
21
2.76353
0
LINE
8
BLACK
6
CONTINUOUS
10
2.4295
20
2.76353
11
2.44091
21
2.75537
0
LINE
8
BLACK
6
CONTINUOUS
10
2.44091
20
2.75537
11
2.45133
21
2.74598
0
LINE
8
BLACK
6
CONTINUOUS
10
2.45133
20
2.74598
11
2.46064
21
2.7355
0
LINE
8
BLACK
6
CONTINUOUS
10
2.46064
20
2.7355
11
2.46872
21
2.72404
0
LINE
8
BLACK
6
CONTINUOUS
10
2.46872
20
2.72404
11
2.47547
21
2.71175
0
LINE
8
BLACK
6
CONTINUOUS
10
2.47547
20
2.71175
11
2.48082
21
2.69879
0
LINE
8
BLACK
6
CONTINUOUS
10
2.48082
20
2.69879
11
2.48468
21
2.68531
0
LINE
8
BLACK
6
CONTINUOUS
10
2.48468
20
2.68531
11
2.48702
21
2.67148
0
LINE
8
BLACK
6
CONTINUOUS
10
2.48702
20
2.67148
11
2.4878
21
2.65748
0
LINE
8
BLACK
6
CONTINUOUS
10
2.4878
20
2.65748
11
2.48776
21
2.65397
0
LINE
8
BLACK
6
CONTINUOUS
10
2.48776
20
2.65397
11
2.48658
21
2.64
0
LINE
8
BLACK
6
CONTINUOUS
10
2.48658
20
2.64
11
2.48386
21
2.62624
0
LINE
8
BLACK
6
CONTINUOUS
10
2.48386
20
2.62624
11
2.47962
21
2.61288
0
LINE
8
BLACK
6
CONTINUOUS
10
2.47962
20
2.61288
11
2.47392
21
2.60007
0
LINE
8
BLACK
6
CONTINUOUS
10
2.47392
20
2.60007
11
2.46682
21
2.58797
0
LINE
8
BLACK
6
CONTINUOUS
10
2.46682
20
2.58797
11
2.45842
21
2.57675
0
LINE
8
BLACK
6
CONTINUOUS
10
2.45842
20
2.57675
11
2.44882
21
2.56652
0
LINE
8
BLACK
6
CONTINUOUS
10
2.44882
20
2.56652
11
2.43814
21
2.55744
0
LINE
8
BLACK
6
CONTINUOUS
10
2.43814
20
2.55744
11
2.42652
21
2.54959
0
LINE
8
BLACK
6
CONTINUOUS
10
2.42652
20
2.54959
11
2.41409
21
2.5431
0
LINE
8
BLACK
6
CONTINUOUS
10
2.41409
20
2.5431
11
2.40102
21
2.53803
0
LINE
8
BLACK
6
CONTINUOUS
10
2.40102
20
2.53803
11
2.38746
21
2.53445
0
LINE
8
BLACK
6
CONTINUOUS
10
2.38746
20
2.53445
11
2.37359
21
2.5324
0
LINE
8
BLACK
6
CONTINUOUS
10
2.37359
20
2.5324
11
2.35957
21
2.53191
0
LINE
8
BLACK
6
CONTINUOUS
10
2.35957
20
2.53191
11
2.34559
21
2.53298
0
LINE
8
BLACK
6
CONTINUOUS
10
2.34559
20
2.53298
11
2.33182
21
2.53561
0
LINE
8
BLACK
6
CONTINUOUS
10
2.33182
20
2.53561
11
2.31842
21
2.53976
0
LINE
8
BLACK
6
CONTINUOUS
10
2.31842
20
2.53976
11
2.30557
21
2.54537
0
LINE
8
BLACK
6
CONTINUOUS
10
2.30557
20
2.54537
11
2.29343
21
2.55238
0
LINE
8
BLACK
6
CONTINUOUS
10
2.29343
20
2.55238
11
2.28214
21
2.5607
0
LINE
8
BLACK
6
CONTINUOUS
10
2.28214
20
2.5607
11
2.27186
21
2.57023
0
LINE
8
BLACK
6
CONTINUOUS
10
2.27186
20
2.57023
11
2.26269
21
2.58085
0
LINE
8
BLACK
6
CONTINUOUS
10
2.26269
20
2.58085
11
2.25477
21
2.59242
0
LINE
8
BLACK
6
CONTINUOUS
10
2.25477
20
2.59242
11
2.24819
21
2.6048
0
LINE
8
BLACK
6
CONTINUOUS
10
2.24819
20
2.6048
11
2.24303
21
2.61783
0
LINE
8
BLACK
6
CONTINUOUS
10
2.24303
20
2.61783
11
2.23935
21
2.63137
0
LINE
8
BLACK
6
CONTINUOUS
10
2.23935
20
2.63137
11
2.2372
21
2.64522
0
LINE
8
BLACK
6
CONTINUOUS
10
2.2372
20
2.64522
11
2.23662
21
2.65923
0
LINE
8
BLACK
6
CONTINUOUS
10
2.23662
20
2.65923
11
2.23674
21
2.66096
0
LINE
8
BLACK
6
CONTINUOUS
10
2.23674
20
2.66096
11
2.2376
21
2.67322
0
LINE
8
BLACK
6
CONTINUOUS
10
2.2376
20
2.67322
11
2.24013
21
2.68701
0
LINE
8
BLACK
6
CONTINUOUS
10
2.2536
20
2.63558
11
2.25684
21
2.62325
0
LINE
8
BLACK
6
CONTINUOUS
10
2.25684
20
2.62325
11
2.26147
21
2.61136
0
LINE
8
BLACK
6
CONTINUOUS
10
2.26147
20
2.61136
11
2.26744
21
2.60009
0
LINE
8
BLACK
6
CONTINUOUS
10
2.26744
20
2.60009
11
2.27467
21
2.58958
0
LINE
8
BLACK
6
CONTINUOUS
10
2.27467
20
2.58958
11
2.28305
21
2.57997
0
LINE
8
BLACK
6
CONTINUOUS
10
2.28305
20
2.57997
11
2.29248
21
2.57138
0
LINE
8
BLACK
6
CONTINUOUS
10
2.29248
20
2.57138
11
2.30284
21
2.56394
0
LINE
8
BLACK
6
CONTINUOUS
10
2.30284
20
2.56394
11
2.31399
21
2.55774
0
LINE
8
BLACK
6
CONTINUOUS
10
2.31399
20
2.55774
11
2.32577
21
2.55286
0
LINE
8
BLACK
6
CONTINUOUS
10
2.32577
20
2.55286
11
2.33804
21
2.54936
0
LINE
8
BLACK
6
CONTINUOUS
10
2.33804
20
2.54936
11
2.35062
21
2.5473
0
LINE
8
BLACK
6
CONTINUOUS
10
2.35062
20
2.5473
11
2.36336
21
2.5467
0
LINE
8
BLACK
6
CONTINUOUS
10
2.36336
20
2.5467
11
2.37609
21
2.54757
0
LINE
8
BLACK
6
CONTINUOUS
10
2.37609
20
2.54757
11
2.38863
21
2.54989
0
LINE
8
BLACK
6
CONTINUOUS
10
2.38863
20
2.54989
11
2.40082
21
2.55364
0
LINE
8
BLACK
6
CONTINUOUS
10
2.40082
20
2.55364
11
2.4125
21
2.55877
0
LINE
8
BLACK
6
CONTINUOUS
10
2.4125
20
2.55877
11
2.42351
21
2.5652
0
LINE
8
BLACK
6
CONTINUOUS
10
2.42351
20
2.5652
11
2.43371
21
2.57286
0
LINE
8
BLACK
6
CONTINUOUS
10
2.43371
20
2.57286
11
2.44297
21
2.58164
0
LINE
8
BLACK
6
CONTINUOUS
10
2.44297
20
2.58164
11
2.45115
21
2.59143
0
LINE
8
BLACK
6
CONTINUOUS
10
2.45115
20
2.59143
11
2.45815
21
2.60209
0
LINE
8
BLACK
6
CONTINUOUS
10
2.45815
20
2.60209
11
2.46388
21
2.61348
0
LINE
8
BLACK
6
CONTINUOUS
10
2.46388
20
2.61348
11
2.46826
21
2.62546
0
LINE
8
BLACK
6
CONTINUOUS
10
2.46826
20
2.62546
11
2.47124
21
2.63786
0
LINE
8
BLACK
6
CONTINUOUS
10
2.47124
20
2.63786
11
2.47277
21
2.65052
0
LINE
8
BLACK
6
CONTINUOUS
10
2.47277
20
2.65052
11
2.47299
21
2.65748
0
LINE
8
BLACK
6
CONTINUOUS
10
2.47299
20
2.65748
11
2.47226
21
2.67021
0
LINE
8
BLACK
6
CONTINUOUS
10
2.47226
20
2.67021
11
2.47007
21
2.68278
0
LINE
8
BLACK
6
CONTINUOUS
10
2.47007
20
2.68278
11
2.46644
21
2.69501
0
LINE
8
BLACK
6
CONTINUOUS
10
2.46644
20
2.69501
11
2.46144
21
2.70674
0
LINE
8
BLACK
6
CONTINUOUS
10
2.46144
20
2.70674
11
2.45512
21
2.71782
0
LINE
8
BLACK
6
CONTINUOUS
10
2.45512
20
2.71782
11
2.44757
21
2.7281
0
LINE
8
BLACK
6
CONTINUOUS
10
2.44757
20
2.7281
11
2.43889
21
2.73744
0
LINE
8
BLACK
6
CONTINUOUS
10
2.43889
20
2.73744
11
2.42919
21
2.74573
0
LINE
8
BLACK
6
CONTINUOUS
10
2.42919
20
2.74573
11
2.4186
21
2.75284
0
LINE
8
BLACK
6
CONTINUOUS
10
2.4186
20
2.75284
11
2.40727
21
2.75869
0
LINE
8
BLACK
6
CONTINUOUS
10
2.40727
20
2.75869
11
2.39533
21
2.7632
0
LINE
8
BLACK
6
CONTINUOUS
10
2.39533
20
2.7632
11
2.38296
21
2.76631
0
LINE
8
BLACK
6
CONTINUOUS
10
2.38296
20
2.76631
11
2.37032
21
2.76797
0
LINE
8
BLACK
6
CONTINUOUS
10
2.37032
20
2.76797
11
2.35757
21
2.76817
0
LINE
8
BLACK
6
CONTINUOUS
10
2.35757
20
2.76817
11
2.34487
21
2.7669
0
LINE
8
BLACK
6
CONTINUOUS
10
2.34487
20
2.7669
11
2.33241
21
2.76419
0
LINE
8
BLACK
6
CONTINUOUS
10
2.33241
20
2.76419
11
2.32034
21
2.76006
0
LINE
8
BLACK
6
CONTINUOUS
10
2.32034
20
2.76006
11
2.30883
21
2.75456
0
LINE
8
BLACK
6
CONTINUOUS
10
2.30883
20
2.75456
11
2.29803
21
2.74779
0
LINE
8
BLACK
6
CONTINUOUS
10
2.29803
20
2.74779
11
2.28807
21
2.73981
0
LINE
8
BLACK
6
CONTINUOUS
10
2.28807
20
2.73981
11
2.2791
21
2.73075
0
LINE
8
BLACK
6
CONTINUOUS
10
2.2791
20
2.73075
11
2.27123
21
2.72071
0
LINE
8
BLACK
6
CONTINUOUS
10
2.27123
20
2.72071
11
2.26457
21
2.70983
0
LINE
8
BLACK
6
CONTINUOUS
10
2.26457
20
2.70983
11
2.2592
21
2.69826
0
LINE
8
BLACK
6
CONTINUOUS
10
2.2592
20
2.69826
11
2.25519
21
2.68615
0
LINE
8
BLACK
6
CONTINUOUS
10
2.25519
20
2.68615
11
2.25261
21
2.67366
0
LINE
8
BLACK
6
CONTINUOUS
10
2.25261
20
2.67366
11
2.25147
21
2.66096
0
LINE
8
BLACK
6
CONTINUOUS
10
2.25147
20
2.66096
11
2.25181
21
2.64821
0
LINE
8
BLACK
6
CONTINUOUS
10
2.25181
20
2.64821
11
2.2536
21
2.63558
  0
ENDSEC
  0
EOF
