  0
SECTION
  2
HEADER
  9
$ANGBASE
  50
0.0
  9
$ANGDIR
  70
1
  9
$MEASUREMENT
  70
0
  0
ENDSEC
  0
SECTION
  2
TABLES
  0
TABLE
  2
LTYPE
  70
4
  0
LTYPE
  5
40F
  2
CONTINUOUS
  70
0
  3
Solid line
  72
65
  73
0
  40
0.0
  0
LTYPE
  5
410
  2
DASHDOT
 70
0
  3
Dash Dot ____ _ ____ _
 72
65
 73
4
 40
2.0
 49
1.25
 49
-0.25
 49
0.25
 49
-0.25
  0
LTYPE
  5
411
  2
DASHED
 70
0
  3
Dashed __ __ __ __ __
 72
65
 73
2
 40
0.75
 49
0.5
 49
-0.25
  0
LTYPE
  5
43B
  2
DOTTED
 70
0
  3
Dotted .  .  .  .
 72
65
 73
2
 40
0.2
 49
0.0
 49
-0.2
  0
ENDTAB
  0
TABLE
  2
STYLE
  70
4
  0
STYLE
  2
KICAD
  70
0
  40
0
  41
1
  42
1
  50
0
  71
0
  3
isocp.shx
  0
STYLE
  2
KICADB
  70
0
  40
0
  41
1
  42
1
  50
0
  71
0
  3
isocp.shx
  0
STYLE
  2
KICADI
  70
0
  40
0
  41
1
  42
1
  50
15
  71
0
  3
isocp.shx
  0
STYLE
  2
KICADBI
  70
0
  40
0
  41
1
  42
1
  50
15
  71
0
  3
isocp.shx
  0
ENDTAB
  0
TABLE
  2
LAYER
  70
1
  0
LAYER
  2
BLACK
  70
0
  62
7
  6
CONTINUOUS
  0
ENDTAB
  0
ENDSEC
  0
SECTION
  2
ENTITIES
0
LINE
8
BLACK
6
CONTINUOUS
10
0.0829217
20
0.229534
11
0.0869746
21
0.242958
0
LINE
8
BLACK
6
CONTINUOUS
10
0.0869746
20
0.242958
11
0.0924986
21
0.255846
0
LINE
8
BLACK
6
CONTINUOUS
10
0.0924986
20
0.255846
11
0.0994248
21
0.268039
0
LINE
8
BLACK
6
CONTINUOUS
10
0.0994248
20
0.268039
11
0.107667
21
0.279383
0
LINE
8
BLACK
6
CONTINUOUS
10
0.107667
20
0.279383
11
0.117122
21
0.289738
0
LINE
8
BLACK
6
CONTINUOUS
10
0.117122
20
0.289738
11
0.127673
21
0.298974
0
LINE
8
BLACK
6
CONTINUOUS
10
0.127673
20
0.298974
11
0.139187
21
0.306977
0
LINE
8
BLACK
6
CONTINUOUS
10
0.139187
20
0.306977
11
0.151522
21
0.313646
0
LINE
8
BLACK
6
CONTINUOUS
10
0.151522
20
0.313646
11
0.164523
21
0.318899
0
LINE
8
BLACK
6
CONTINUOUS
10
0.164523
20
0.318899
11
0.178029
21
0.32267
0
LINE
8
BLACK
6
CONTINUOUS
10
0.178029
20
0.32267
11
0.191871
21
0.324912
0
LINE
8
BLACK
6
CONTINUOUS
10
0.191871
20
0.324912
11
0.205877
21
0.325597
0
LINE
8
BLACK
6
CONTINUOUS
10
0.205877
20
0.325597
11
0.219872
21
0.324716
0
LINE
8
BLACK
6
CONTINUOUS
10
0.219872
20
0.324716
11
0.233681
21
0.322281
0
LINE
8
BLACK
6
CONTINUOUS
10
0.233681
20
0.322281
11
0.247133
21
0.318322
0
LINE
8
BLACK
6
CONTINUOUS
10
0.247133
20
0.318322
11
0.260059
21
0.312889
0
LINE
8
BLACK
6
CONTINUOUS
10
0.260059
20
0.312889
11
0.2723
21
0.306048
0
LINE
8
BLACK
6
CONTINUOUS
10
0.2723
20
0.306048
11
0.283701
21
0.297885
0
LINE
8
BLACK
6
CONTINUOUS
10
0.283701
20
0.297885
11
0.294122
21
0.288502
0
LINE
8
BLACK
6
CONTINUOUS
10
0.294122
20
0.288502
11
0.303432
21
0.278016
0
LINE
8
BLACK
6
CONTINUOUS
10
0.303432
20
0.278016
11
0.311515
21
0.266558
0
LINE
8
BLACK
6
CONTINUOUS
10
0.311515
20
0.266558
11
0.31827
21
0.25427
0
LINE
8
BLACK
6
CONTINUOUS
10
0.31827
20
0.25427
11
0.323614
21
0.241306
0
LINE
8
BLACK
6
CONTINUOUS
10
0.323614
20
0.241306
11
0.327479
21
0.227826
0
LINE
8
BLACK
6
CONTINUOUS
10
0.327479
20
0.227826
11
0.329817
21
0.214001
0
LINE
8
BLACK
6
CONTINUOUS
10
0.329817
20
0.214001
11
0.3306
21
0.2
0
LINE
8
BLACK
6
CONTINUOUS
10
0.3306
20
0.2
11
0.330551
21
0.196493
0
LINE
8
BLACK
6
CONTINUOUS
10
0.330551
20
0.196493
11
0.329378
21
0.18252
0
LINE
8
BLACK
6
CONTINUOUS
10
0.329378
20
0.18252
11
0.326654
21
0.168765
0
LINE
8
BLACK
6
CONTINUOUS
10
0.326654
20
0.168765
11
0.322414
21
0.155399
0
LINE
8
BLACK
6
CONTINUOUS
10
0.322414
20
0.155399
11
0.316711
21
0.142589
0
LINE
8
BLACK
6
CONTINUOUS
10
0.316711
20
0.142589
11
0.309615
21
0.130494
0
LINE
8
BLACK
6
CONTINUOUS
10
0.309615
20
0.130494
11
0.301215
21
0.119266
0
LINE
8
BLACK
6
CONTINUOUS
10
0.301215
20
0.119266
11
0.291616
21
0.109044
0
LINE
8
BLACK
6
CONTINUOUS
10
0.291616
20
0.109044
11
0.280938
21
0.0999558
0
LINE
8
BLACK
6
CONTINUOUS
10
0.280938
20
0.0999558
11
0.269313
21
0.0921146
0
LINE
8
BLACK
6
CONTINUOUS
10
0.269313
20
0.0921146
11
0.256886
21
0.0856181
0
LINE
8
BLACK
6
CONTINUOUS
10
0.256886
20
0.0856181
11
0.243813
21
0.0805473
0
LINE
8
BLACK
6
CONTINUOUS
10
0.243813
20
0.0805473
11
0.230255
21
0.0769654
0
LINE
8
BLACK
6
CONTINUOUS
10
0.230255
20
0.0769654
11
0.216383
21
0.0749169
0
LINE
8
BLACK
6
CONTINUOUS
10
0.216383
20
0.0749169
11
0.20237
21
0.0744276
0
LINE
8
BLACK
6
CONTINUOUS
10
0.20237
20
0.0744276
11
0.188389
21
0.0755033
0
LINE
8
BLACK
6
CONTINUOUS
10
0.188389
20
0.0755033
11
0.174615
21
0.0781309
0
LINE
8
BLACK
6
CONTINUOUS
10
0.174615
20
0.0781309
11
0.161219
21
0.0822774
0
LINE
8
BLACK
6
CONTINUOUS
10
0.161219
20
0.0822774
11
0.14837
21
0.0878912
0
LINE
8
BLACK
6
CONTINUOUS
10
0.14837
20
0.0878912
11
0.136226
21
0.0949024
0
LINE
8
BLACK
6
CONTINUOUS
10
0.136226
20
0.0949024
11
0.12494
21
0.103224
0
LINE
8
BLACK
6
CONTINUOUS
10
0.12494
20
0.103224
11
0.114651
21
0.112751
0
LINE
8
BLACK
6
CONTINUOUS
10
0.114651
20
0.112751
11
0.105488
21
0.123366
0
LINE
8
BLACK
6
CONTINUOUS
10
0.105488
20
0.123366
11
0.0975663
21
0.134936
0
LINE
8
BLACK
6
CONTINUOUS
10
0.0975663
20
0.134936
11
0.0909831
21
0.147317
0
LINE
8
BLACK
6
CONTINUOUS
10
0.0909831
20
0.147317
11
0.0858212
21
0.160354
0
LINE
8
BLACK
6
CONTINUOUS
10
0.0858212
20
0.160354
11
0.0821446
21
0.173886
0
LINE
8
BLACK
6
CONTINUOUS
10
0.0821446
20
0.173886
11
0.0799994
21
0.187744
0
LINE
8
BLACK
6
CONTINUOUS
10
0.0799994
20
0.187744
11
0.0794122
21
0.201754
0
LINE
8
BLACK
6
CONTINUOUS
10
0.0794122
20
0.201754
11
0.079533
21
0.20348
0
LINE
8
BLACK
6
CONTINUOUS
10
0.079533
20
0.20348
11
0.0803904
21
0.215742
0
LINE
8
BLACK
6
CONTINUOUS
10
0.0803904
20
0.215742
11
0.0829217
21
0.229534
0
LINE
8
BLACK
6
CONTINUOUS
10
0.0963983
20
0.178102
11
0.0996349
21
0.165765
0
LINE
8
BLACK
6
CONTINUOUS
10
0.0996349
20
0.165765
11
0.104268
21
0.153881
0
LINE
8
BLACK
6
CONTINUOUS
10
0.104268
20
0.153881
11
0.110236
21
0.142609
0
LINE
8
BLACK
6
CONTINUOUS
10
0.110236
20
0.142609
11
0.117461
21
0.132098
0
LINE
8
BLACK
6
CONTINUOUS
10
0.117461
20
0.132098
11
0.125845
21
0.122486
0
LINE
8
BLACK
6
CONTINUOUS
10
0.125845
20
0.122486
11
0.135279
21
0.113902
0
LINE
8
BLACK
6
CONTINUOUS
10
0.135279
20
0.113902
11
0.145637
21
0.106459
0
LINE
8
BLACK
6
CONTINUOUS
10
0.145637
20
0.106459
11
0.156782
21
0.100256
0
LINE
8
BLACK
6
CONTINUOUS
10
0.156782
20
0.100256
11
0.168566
21
0.095375
0
LINE
8
BLACK
6
CONTINUOUS
10
0.168566
20
0.095375
11
0.180832
21
0.0918807
0
LINE
8
BLACK
6
CONTINUOUS
10
0.180832
20
0.0918807
11
0.19342
21
0.0898194
0
LINE
8
BLACK
6
CONTINUOUS
10
0.19342
20
0.0898194
11
0.20616
21
0.0892186
0
LINE
8
BLACK
6
CONTINUOUS
10
0.20616
20
0.0892186
11
0.218885
21
0.0900861
0
LINE
8
BLACK
6
CONTINUOUS
10
0.218885
20
0.0900861
11
0.231426
21
0.0924105
0
LINE
8
BLACK
6
CONTINUOUS
10
0.231426
20
0.0924105
11
0.243617
21
0.0961609
0
LINE
8
BLACK
6
CONTINUOUS
10
0.243617
20
0.0961609
11
0.255296
21
0.101288
0
LINE
8
BLACK
6
CONTINUOUS
10
0.255296
20
0.101288
11
0.266309
21
0.107723
0
LINE
8
BLACK
6
CONTINUOUS
10
0.266309
20
0.107723
11
0.276509
21
0.115381
0
LINE
8
BLACK
6
CONTINUOUS
10
0.276509
20
0.115381
11
0.285761
21
0.124161
0
LINE
8
BLACK
6
CONTINUOUS
10
0.285761
20
0.124161
11
0.293942
21
0.133946
0
LINE
8
BLACK
6
CONTINUOUS
10
0.293942
20
0.133946
11
0.300945
21
0.144606
0
LINE
8
BLACK
6
CONTINUOUS
10
0.300945
20
0.144606
11
0.306676
21
0.156001
0
LINE
8
BLACK
6
CONTINUOUS
10
0.306676
20
0.156001
11
0.311059
21
0.167979
0
LINE
8
BLACK
6
CONTINUOUS
10
0.311059
20
0.167979
11
0.314036
21
0.180381
0
LINE
8
BLACK
6
CONTINUOUS
10
0.314036
20
0.180381
11
0.315569
21
0.193044
0
LINE
8
BLACK
6
CONTINUOUS
10
0.315569
20
0.193044
11
0.315787
21
0.2
0
LINE
8
BLACK
6
CONTINUOUS
10
0.315787
20
0.2
11
0.315053
21
0.212734
0
LINE
8
BLACK
6
CONTINUOUS
10
0.315053
20
0.212734
11
0.31286
21
0.225298
0
LINE
8
BLACK
6
CONTINUOUS
10
0.31286
20
0.225298
11
0.309238
21
0.237528
0
LINE
8
BLACK
6
CONTINUOUS
10
0.309238
20
0.237528
11
0.304234
21
0.24926
0
LINE
8
BLACK
6
CONTINUOUS
10
0.304234
20
0.24926
11
0.297914
21
0.260339
0
LINE
8
BLACK
6
CONTINUOUS
10
0.297914
20
0.260339
11
0.290363
21
0.270619
0
LINE
8
BLACK
6
CONTINUOUS
10
0.290363
20
0.270619
11
0.281681
21
0.279962
0
LINE
8
BLACK
6
CONTINUOUS
10
0.281681
20
0.279962
11
0.271982
21
0.288246
0
LINE
8
BLACK
6
CONTINUOUS
10
0.271982
20
0.288246
11
0.261395
21
0.295359
0
LINE
8
BLACK
6
CONTINUOUS
10
0.261395
20
0.295359
11
0.250061
21
0.301209
0
LINE
8
BLACK
6
CONTINUOUS
10
0.250061
20
0.301209
11
0.23813
21
0.305718
0
LINE
8
BLACK
6
CONTINUOUS
10
0.23813
20
0.305718
11
0.225759
21
0.308825
0
LINE
8
BLACK
6
CONTINUOUS
10
0.225759
20
0.308825
11
0.213114
21
0.31049
0
LINE
8
BLACK
6
CONTINUOUS
10
0.213114
20
0.31049
11
0.200361
21
0.31069
0
LINE
8
BLACK
6
CONTINUOUS
10
0.200361
20
0.31069
11
0.187669
21
0.309423
0
LINE
8
BLACK
6
CONTINUOUS
10
0.187669
20
0.309423
11
0.175207
21
0.306706
0
LINE
8
BLACK
6
CONTINUOUS
10
0.175207
20
0.306706
11
0.16314
21
0.302575
0
LINE
8
BLACK
6
CONTINUOUS
10
0.16314
20
0.302575
11
0.151628
21
0.297084
0
LINE
8
BLACK
6
CONTINUOUS
10
0.151628
20
0.297084
11
0.140823
21
0.290306
0
LINE
8
BLACK
6
CONTINUOUS
10
0.140823
20
0.290306
11
0.130869
21
0.282331
0
LINE
8
BLACK
6
CONTINUOUS
10
0.130869
20
0.282331
11
0.121897
21
0.273265
0
LINE
8
BLACK
6
CONTINUOUS
10
0.121897
20
0.273265
11
0.114027
21
0.263228
0
LINE
8
BLACK
6
CONTINUOUS
10
0.114027
20
0.263228
11
0.107363
21
0.252353
0
LINE
8
BLACK
6
CONTINUOUS
10
0.107363
20
0.252353
11
0.101992
21
0.240784
0
LINE
8
BLACK
6
CONTINUOUS
10
0.101992
20
0.240784
11
0.0979876
21
0.228674
0
LINE
8
BLACK
6
CONTINUOUS
10
0.0979876
20
0.228674
11
0.0954011
21
0.216184
0
LINE
8
BLACK
6
CONTINUOUS
10
0.0954011
20
0.216184
11
0.0942672
21
0.20348
0
LINE
8
BLACK
6
CONTINUOUS
10
0.0942672
20
0.20348
11
0.0946011
21
0.19073
0
LINE
8
BLACK
6
CONTINUOUS
10
0.0946011
20
0.19073
11
0.0963983
21
0.178102
0
LINE
8
BLACK
6
CONTINUOUS
10
0.482922
20
0.229534
11
0.486975
21
0.242958
0
LINE
8
BLACK
6
CONTINUOUS
10
0.486975
20
0.242958
11
0.492499
21
0.255846
0
LINE
8
BLACK
6
CONTINUOUS
10
0.492499
20
0.255846
11
0.499425
21
0.268039
0
LINE
8
BLACK
6
CONTINUOUS
10
0.499425
20
0.268039
11
0.507667
21
0.279383
0
LINE
8
BLACK
6
CONTINUOUS
10
0.507667
20
0.279383
11
0.517122
21
0.289738
0
LINE
8
BLACK
6
CONTINUOUS
10
0.517122
20
0.289738
11
0.527673
21
0.298974
0
LINE
8
BLACK
6
CONTINUOUS
10
0.527673
20
0.298974
11
0.539187
21
0.306977
0
LINE
8
BLACK
6
CONTINUOUS
10
0.539187
20
0.306977
11
0.551522
21
0.313646
0
LINE
8
BLACK
6
CONTINUOUS
10
0.551522
20
0.313646
11
0.564523
21
0.318899
0
LINE
8
BLACK
6
CONTINUOUS
10
0.564523
20
0.318899
11
0.578029
21
0.32267
0
LINE
8
BLACK
6
CONTINUOUS
10
0.578029
20
0.32267
11
0.591871
21
0.324912
0
LINE
8
BLACK
6
CONTINUOUS
10
0.591871
20
0.324912
11
0.605877
21
0.325597
0
LINE
8
BLACK
6
CONTINUOUS
10
0.605877
20
0.325597
11
0.619872
21
0.324716
0
LINE
8
BLACK
6
CONTINUOUS
10
0.619872
20
0.324716
11
0.633681
21
0.322281
0
LINE
8
BLACK
6
CONTINUOUS
10
0.633681
20
0.322281
11
0.647133
21
0.318322
0
LINE
8
BLACK
6
CONTINUOUS
10
0.647133
20
0.318322
11
0.660059
21
0.312889
0
LINE
8
BLACK
6
CONTINUOUS
10
0.660059
20
0.312889
11
0.6723
21
0.306048
0
LINE
8
BLACK
6
CONTINUOUS
10
0.6723
20
0.306048
11
0.683701
21
0.297885
0
LINE
8
BLACK
6
CONTINUOUS
10
0.683701
20
0.297885
11
0.694122
21
0.288502
0
LINE
8
BLACK
6
CONTINUOUS
10
0.694122
20
0.288502
11
0.703432
21
0.278016
0
LINE
8
BLACK
6
CONTINUOUS
10
0.703432
20
0.278016
11
0.711515
21
0.266558
0
LINE
8
BLACK
6
CONTINUOUS
10
0.711515
20
0.266558
11
0.71827
21
0.25427
0
LINE
8
BLACK
6
CONTINUOUS
10
0.71827
20
0.25427
11
0.723614
21
0.241306
0
LINE
8
BLACK
6
CONTINUOUS
10
0.723614
20
0.241306
11
0.727479
21
0.227826
0
LINE
8
BLACK
6
CONTINUOUS
10
0.727479
20
0.227826
11
0.729817
21
0.214001
0
LINE
8
BLACK
6
CONTINUOUS
10
0.729817
20
0.214001
11
0.7306
21
0.2
0
LINE
8
BLACK
6
CONTINUOUS
10
0.7306
20
0.2
11
0.730551
21
0.196493
0
LINE
8
BLACK
6
CONTINUOUS
10
0.730551
20
0.196493
11
0.729378
21
0.18252
0
LINE
8
BLACK
6
CONTINUOUS
10
0.729378
20
0.18252
11
0.726654
21
0.168765
0
LINE
8
BLACK
6
CONTINUOUS
10
0.726654
20
0.168765
11
0.722414
21
0.155399
0
LINE
8
BLACK
6
CONTINUOUS
10
0.722414
20
0.155399
11
0.716711
21
0.142589
0
LINE
8
BLACK
6
CONTINUOUS
10
0.716711
20
0.142589
11
0.709615
21
0.130494
0
LINE
8
BLACK
6
CONTINUOUS
10
0.709615
20
0.130494
11
0.701215
21
0.119266
0
LINE
8
BLACK
6
CONTINUOUS
10
0.701215
20
0.119266
11
0.691616
21
0.109044
0
LINE
8
BLACK
6
CONTINUOUS
10
0.691616
20
0.109044
11
0.680938
21
0.0999558
0
LINE
8
BLACK
6
CONTINUOUS
10
0.680938
20
0.0999558
11
0.669313
21
0.0921146
0
LINE
8
BLACK
6
CONTINUOUS
10
0.669313
20
0.0921146
11
0.656886
21
0.0856181
0
LINE
8
BLACK
6
CONTINUOUS
10
0.656886
20
0.0856181
11
0.643813
21
0.0805473
0
LINE
8
BLACK
6
CONTINUOUS
10
0.643813
20
0.0805473
11
0.630255
21
0.0769654
0
LINE
8
BLACK
6
CONTINUOUS
10
0.630255
20
0.0769654
11
0.616383
21
0.0749169
0
LINE
8
BLACK
6
CONTINUOUS
10
0.616383
20
0.0749169
11
0.60237
21
0.0744276
0
LINE
8
BLACK
6
CONTINUOUS
10
0.60237
20
0.0744276
11
0.588389
21
0.0755033
0
LINE
8
BLACK
6
CONTINUOUS
10
0.588389
20
0.0755033
11
0.574615
21
0.0781309
0
LINE
8
BLACK
6
CONTINUOUS
10
0.574615
20
0.0781309
11
0.561219
21
0.0822774
0
LINE
8
BLACK
6
CONTINUOUS
10
0.561219
20
0.0822774
11
0.54837
21
0.0878912
0
LINE
8
BLACK
6
CONTINUOUS
10
0.54837
20
0.0878912
11
0.536226
21
0.0949024
0
LINE
8
BLACK
6
CONTINUOUS
10
0.536226
20
0.0949024
11
0.52494
21
0.103224
0
LINE
8
BLACK
6
CONTINUOUS
10
0.52494
20
0.103224
11
0.514651
21
0.112751
0
LINE
8
BLACK
6
CONTINUOUS
10
0.514651
20
0.112751
11
0.505488
21
0.123366
0
LINE
8
BLACK
6
CONTINUOUS
10
0.505488
20
0.123366
11
0.497566
21
0.134936
0
LINE
8
BLACK
6
CONTINUOUS
10
0.497566
20
0.134936
11
0.490983
21
0.147317
0
LINE
8
BLACK
6
CONTINUOUS
10
0.490983
20
0.147317
11
0.485821
21
0.160354
0
LINE
8
BLACK
6
CONTINUOUS
10
0.485821
20
0.160354
11
0.482145
21
0.173886
0
LINE
8
BLACK
6
CONTINUOUS
10
0.482145
20
0.173886
11
0.479999
21
0.187744
0
LINE
8
BLACK
6
CONTINUOUS
10
0.479999
20
0.187744
11
0.479412
21
0.201754
0
LINE
8
BLACK
6
CONTINUOUS
10
0.479412
20
0.201754
11
0.479533
21
0.20348
0
LINE
8
BLACK
6
CONTINUOUS
10
0.479533
20
0.20348
11
0.48039
21
0.215742
0
LINE
8
BLACK
6
CONTINUOUS
10
0.48039
20
0.215742
11
0.482922
21
0.229534
0
LINE
8
BLACK
6
CONTINUOUS
10
0.496398
20
0.178102
11
0.499635
21
0.165765
0
LINE
8
BLACK
6
CONTINUOUS
10
0.499635
20
0.165765
11
0.504268
21
0.153881
0
LINE
8
BLACK
6
CONTINUOUS
10
0.504268
20
0.153881
11
0.510236
21
0.142609
0
LINE
8
BLACK
6
CONTINUOUS
10
0.510236
20
0.142609
11
0.517461
21
0.132098
0
LINE
8
BLACK
6
CONTINUOUS
10
0.517461
20
0.132098
11
0.525845
21
0.122486
0
LINE
8
BLACK
6
CONTINUOUS
10
0.525845
20
0.122486
11
0.535279
21
0.113902
0
LINE
8
BLACK
6
CONTINUOUS
10
0.535279
20
0.113902
11
0.545637
21
0.106459
0
LINE
8
BLACK
6
CONTINUOUS
10
0.545637
20
0.106459
11
0.556782
21
0.100256
0
LINE
8
BLACK
6
CONTINUOUS
10
0.556782
20
0.100256
11
0.568566
21
0.095375
0
LINE
8
BLACK
6
CONTINUOUS
10
0.568566
20
0.095375
11
0.580832
21
0.0918807
0
LINE
8
BLACK
6
CONTINUOUS
10
0.580832
20
0.0918807
11
0.59342
21
0.0898194
0
LINE
8
BLACK
6
CONTINUOUS
10
0.59342
20
0.0898194
11
0.60616
21
0.0892186
0
LINE
8
BLACK
6
CONTINUOUS
10
0.60616
20
0.0892186
11
0.618885
21
0.0900861
0
LINE
8
BLACK
6
CONTINUOUS
10
0.618885
20
0.0900861
11
0.631426
21
0.0924105
0
LINE
8
BLACK
6
CONTINUOUS
10
0.631426
20
0.0924105
11
0.643617
21
0.0961609
0
LINE
8
BLACK
6
CONTINUOUS
10
0.643617
20
0.0961609
11
0.655296
21
0.101288
0
LINE
8
BLACK
6
CONTINUOUS
10
0.655296
20
0.101288
11
0.666309
21
0.107723
0
LINE
8
BLACK
6
CONTINUOUS
10
0.666309
20
0.107723
11
0.676509
21
0.115381
0
LINE
8
BLACK
6
CONTINUOUS
10
0.676509
20
0.115381
11
0.685761
21
0.124161
0
LINE
8
BLACK
6
CONTINUOUS
10
0.685761
20
0.124161
11
0.693942
21
0.133946
0
LINE
8
BLACK
6
CONTINUOUS
10
0.693942
20
0.133946
11
0.700945
21
0.144606
0
LINE
8
BLACK
6
CONTINUOUS
10
0.700945
20
0.144606
11
0.706676
21
0.156001
0
LINE
8
BLACK
6
CONTINUOUS
10
0.706676
20
0.156001
11
0.711059
21
0.167979
0
LINE
8
BLACK
6
CONTINUOUS
10
0.711059
20
0.167979
11
0.714036
21
0.180381
0
LINE
8
BLACK
6
CONTINUOUS
10
0.714036
20
0.180381
11
0.715569
21
0.193044
0
LINE
8
BLACK
6
CONTINUOUS
10
0.715569
20
0.193044
11
0.715787
21
0.2
0
LINE
8
BLACK
6
CONTINUOUS
10
0.715787
20
0.2
11
0.715053
21
0.212734
0
LINE
8
BLACK
6
CONTINUOUS
10
0.715053
20
0.212734
11
0.71286
21
0.225298
0
LINE
8
BLACK
6
CONTINUOUS
10
0.71286
20
0.225298
11
0.709238
21
0.237528
0
LINE
8
BLACK
6
CONTINUOUS
10
0.709238
20
0.237528
11
0.704234
21
0.24926
0
LINE
8
BLACK
6
CONTINUOUS
10
0.704234
20
0.24926
11
0.697914
21
0.260339
0
LINE
8
BLACK
6
CONTINUOUS
10
0.697914
20
0.260339
11
0.690363
21
0.270619
0
LINE
8
BLACK
6
CONTINUOUS
10
0.690363
20
0.270619
11
0.681681
21
0.279962
0
LINE
8
BLACK
6
CONTINUOUS
10
0.681681
20
0.279962
11
0.671982
21
0.288246
0
LINE
8
BLACK
6
CONTINUOUS
10
0.671982
20
0.288246
11
0.661395
21
0.295359
0
LINE
8
BLACK
6
CONTINUOUS
10
0.661395
20
0.295359
11
0.650061
21
0.301209
0
LINE
8
BLACK
6
CONTINUOUS
10
0.650061
20
0.301209
11
0.63813
21
0.305718
0
LINE
8
BLACK
6
CONTINUOUS
10
0.63813
20
0.305718
11
0.625759
21
0.308825
0
LINE
8
BLACK
6
CONTINUOUS
10
0.625759
20
0.308825
11
0.613114
21
0.31049
0
LINE
8
BLACK
6
CONTINUOUS
10
0.613114
20
0.31049
11
0.600361
21
0.31069
0
LINE
8
BLACK
6
CONTINUOUS
10
0.600361
20
0.31069
11
0.587669
21
0.309423
0
LINE
8
BLACK
6
CONTINUOUS
10
0.587669
20
0.309423
11
0.575207
21
0.306706
0
LINE
8
BLACK
6
CONTINUOUS
10
0.575207
20
0.306706
11
0.56314
21
0.302575
0
LINE
8
BLACK
6
CONTINUOUS
10
0.56314
20
0.302575
11
0.551628
21
0.297084
0
LINE
8
BLACK
6
CONTINUOUS
10
0.551628
20
0.297084
11
0.540823
21
0.290306
0
LINE
8
BLACK
6
CONTINUOUS
10
0.540823
20
0.290306
11
0.530869
21
0.282331
0
LINE
8
BLACK
6
CONTINUOUS
10
0.530869
20
0.282331
11
0.521897
21
0.273265
0
LINE
8
BLACK
6
CONTINUOUS
10
0.521897
20
0.273265
11
0.514027
21
0.263228
0
LINE
8
BLACK
6
CONTINUOUS
10
0.514027
20
0.263228
11
0.507363
21
0.252353
0
LINE
8
BLACK
6
CONTINUOUS
10
0.507363
20
0.252353
11
0.501992
21
0.240784
0
LINE
8
BLACK
6
CONTINUOUS
10
0.501992
20
0.240784
11
0.497988
21
0.228674
0
LINE
8
BLACK
6
CONTINUOUS
10
0.497988
20
0.228674
11
0.495401
21
0.216184
0
LINE
8
BLACK
6
CONTINUOUS
10
0.495401
20
0.216184
11
0.494267
21
0.20348
0
LINE
8
BLACK
6
CONTINUOUS
10
0.494267
20
0.20348
11
0.494601
21
0.19073
0
LINE
8
BLACK
6
CONTINUOUS
10
0.494601
20
0.19073
11
0.496398
21
0.178102
0
LINE
8
BLACK
6
CONTINUOUS
10
0.0829217
20
1.42953
11
0.0869746
21
1.44296
0
LINE
8
BLACK
6
CONTINUOUS
10
0.0869746
20
1.44296
11
0.0924986
21
1.45585
0
LINE
8
BLACK
6
CONTINUOUS
10
0.0924986
20
1.45585
11
0.0994248
21
1.46804
0
LINE
8
BLACK
6
CONTINUOUS
10
0.0994248
20
1.46804
11
0.107667
21
1.47938
0
LINE
8
BLACK
6
CONTINUOUS
10
0.107667
20
1.47938
11
0.117122
21
1.48974
0
LINE
8
BLACK
6
CONTINUOUS
10
0.117122
20
1.48974
11
0.127673
21
1.49897
0
LINE
8
BLACK
6
CONTINUOUS
10
0.127673
20
1.49897
11
0.139187
21
1.50698
0
LINE
8
BLACK
6
CONTINUOUS
10
0.139187
20
1.50698
11
0.151522
21
1.51365
0
LINE
8
BLACK
6
CONTINUOUS
10
0.151522
20
1.51365
11
0.164523
21
1.5189
0
LINE
8
BLACK
6
CONTINUOUS
10
0.164523
20
1.5189
11
0.178029
21
1.52267
0
LINE
8
BLACK
6
CONTINUOUS
10
0.178029
20
1.52267
11
0.191871
21
1.52491
0
LINE
8
BLACK
6
CONTINUOUS
10
0.191871
20
1.52491
11
0.205877
21
1.5256
0
LINE
8
BLACK
6
CONTINUOUS
10
0.205877
20
1.5256
11
0.219872
21
1.52472
0
LINE
8
BLACK
6
CONTINUOUS
10
0.219872
20
1.52472
11
0.233681
21
1.52228
0
LINE
8
BLACK
6
CONTINUOUS
10
0.233681
20
1.52228
11
0.247133
21
1.51832
0
LINE
8
BLACK
6
CONTINUOUS
10
0.247133
20
1.51832
11
0.260059
21
1.51289
0
LINE
8
BLACK
6
CONTINUOUS
10
0.260059
20
1.51289
11
0.2723
21
1.50605
0
LINE
8
BLACK
6
CONTINUOUS
10
0.2723
20
1.50605
11
0.283701
21
1.49788
0
LINE
8
BLACK
6
CONTINUOUS
10
0.283701
20
1.49788
11
0.294122
21
1.4885
0
LINE
8
BLACK
6
CONTINUOUS
10
0.294122
20
1.4885
11
0.303432
21
1.47802
0
LINE
8
BLACK
6
CONTINUOUS
10
0.303432
20
1.47802
11
0.311515
21
1.46656
0
LINE
8
BLACK
6
CONTINUOUS
10
0.311515
20
1.46656
11
0.31827
21
1.45427
0
LINE
8
BLACK
6
CONTINUOUS
10
0.31827
20
1.45427
11
0.323614
21
1.44131
0
LINE
8
BLACK
6
CONTINUOUS
10
0.323614
20
1.44131
11
0.327479
21
1.42783
0
LINE
8
BLACK
6
CONTINUOUS
10
0.327479
20
1.42783
11
0.329817
21
1.414
0
LINE
8
BLACK
6
CONTINUOUS
10
0.329817
20
1.414
11
0.3306
21
1.4
0
LINE
8
BLACK
6
CONTINUOUS
10
0.3306
20
1.4
11
0.330551
21
1.39649
0
LINE
8
BLACK
6
CONTINUOUS
10
0.330551
20
1.39649
11
0.329378
21
1.38252
0
LINE
8
BLACK
6
CONTINUOUS
10
0.329378
20
1.38252
11
0.326654
21
1.36876
0
LINE
8
BLACK
6
CONTINUOUS
10
0.326654
20
1.36876
11
0.322414
21
1.3554
0
LINE
8
BLACK
6
CONTINUOUS
10
0.322414
20
1.3554
11
0.316711
21
1.34259
0
LINE
8
BLACK
6
CONTINUOUS
10
0.316711
20
1.34259
11
0.309615
21
1.33049
0
LINE
8
BLACK
6
CONTINUOUS
10
0.309615
20
1.33049
11
0.301215
21
1.31927
0
LINE
8
BLACK
6
CONTINUOUS
10
0.301215
20
1.31927
11
0.291616
21
1.30904
0
LINE
8
BLACK
6
CONTINUOUS
10
0.291616
20
1.30904
11
0.280938
21
1.29996
0
LINE
8
BLACK
6
CONTINUOUS
10
0.280938
20
1.29996
11
0.269313
21
1.29211
0
LINE
8
BLACK
6
CONTINUOUS
10
0.269313
20
1.29211
11
0.256886
21
1.28562
0
LINE
8
BLACK
6
CONTINUOUS
10
0.256886
20
1.28562
11
0.243813
21
1.28055
0
LINE
8
BLACK
6
CONTINUOUS
10
0.243813
20
1.28055
11
0.230255
21
1.27697
0
LINE
8
BLACK
6
CONTINUOUS
10
0.230255
20
1.27697
11
0.216383
21
1.27492
0
LINE
8
BLACK
6
CONTINUOUS
10
0.216383
20
1.27492
11
0.20237
21
1.27443
0
LINE
8
BLACK
6
CONTINUOUS
10
0.20237
20
1.27443
11
0.188389
21
1.2755
0
LINE
8
BLACK
6
CONTINUOUS
10
0.188389
20
1.2755
11
0.174615
21
1.27813
0
LINE
8
BLACK
6
CONTINUOUS
10
0.174615
20
1.27813
11
0.161219
21
1.28228
0
LINE
8
BLACK
6
CONTINUOUS
10
0.161219
20
1.28228
11
0.14837
21
1.28789
0
LINE
8
BLACK
6
CONTINUOUS
10
0.14837
20
1.28789
11
0.136226
21
1.2949
0
LINE
8
BLACK
6
CONTINUOUS
10
0.136226
20
1.2949
11
0.12494
21
1.30322
0
LINE
8
BLACK
6
CONTINUOUS
10
0.12494
20
1.30322
11
0.114651
21
1.31275
0
LINE
8
BLACK
6
CONTINUOUS
10
0.114651
20
1.31275
11
0.105488
21
1.32337
0
LINE
8
BLACK
6
CONTINUOUS
10
0.105488
20
1.32337
11
0.0975663
21
1.33494
0
LINE
8
BLACK
6
CONTINUOUS
10
0.0975663
20
1.33494
11
0.0909831
21
1.34732
0
LINE
8
BLACK
6
CONTINUOUS
10
0.0909831
20
1.34732
11
0.0858212
21
1.36035
0
LINE
8
BLACK
6
CONTINUOUS
10
0.0858212
20
1.36035
11
0.0821446
21
1.37389
0
LINE
8
BLACK
6
CONTINUOUS
10
0.0821446
20
1.37389
11
0.0799994
21
1.38774
0
LINE
8
BLACK
6
CONTINUOUS
10
0.0799994
20
1.38774
11
0.0794122
21
1.40175
0
LINE
8
BLACK
6
CONTINUOUS
10
0.0794122
20
1.40175
11
0.079533
21
1.40348
0
LINE
8
BLACK
6
CONTINUOUS
10
0.079533
20
1.40348
11
0.0803904
21
1.41574
0
LINE
8
BLACK
6
CONTINUOUS
10
0.0803904
20
1.41574
11
0.0829217
21
1.42953
0
LINE
8
BLACK
6
CONTINUOUS
10
0.0963983
20
1.3781
11
0.0996349
21
1.36576
0
LINE
8
BLACK
6
CONTINUOUS
10
0.0996349
20
1.36576
11
0.104268
21
1.35388
0
LINE
8
BLACK
6
CONTINUOUS
10
0.104268
20
1.35388
11
0.110236
21
1.34261
0
LINE
8
BLACK
6
CONTINUOUS
10
0.110236
20
1.34261
11
0.117461
21
1.3321
0
LINE
8
BLACK
6
CONTINUOUS
10
0.117461
20
1.3321
11
0.125845
21
1.32249
0
LINE
8
BLACK
6
CONTINUOUS
10
0.125845
20
1.32249
11
0.135279
21
1.3139
0
LINE
8
BLACK
6
CONTINUOUS
10
0.135279
20
1.3139
11
0.145637
21
1.30646
0
LINE
8
BLACK
6
CONTINUOUS
10
0.145637
20
1.30646
11
0.156782
21
1.30026
0
LINE
8
BLACK
6
CONTINUOUS
10
0.156782
20
1.30026
11
0.168566
21
1.29537
0
LINE
8
BLACK
6
CONTINUOUS
10
0.168566
20
1.29537
11
0.180832
21
1.29188
0
LINE
8
BLACK
6
CONTINUOUS
10
0.180832
20
1.29188
11
0.19342
21
1.28982
0
LINE
8
BLACK
6
CONTINUOUS
10
0.19342
20
1.28982
11
0.20616
21
1.28922
0
LINE
8
BLACK
6
CONTINUOUS
10
0.20616
20
1.28922
11
0.218885
21
1.29009
0
LINE
8
BLACK
6
CONTINUOUS
10
0.218885
20
1.29009
11
0.231426
21
1.29241
0
LINE
8
BLACK
6
CONTINUOUS
10
0.231426
20
1.29241
11
0.243617
21
1.29616
0
LINE
8
BLACK
6
CONTINUOUS
10
0.243617
20
1.29616
11
0.255296
21
1.30129
0
LINE
8
BLACK
6
CONTINUOUS
10
0.255296
20
1.30129
11
0.266309
21
1.30772
0
LINE
8
BLACK
6
CONTINUOUS
10
0.266309
20
1.30772
11
0.276509
21
1.31538
0
LINE
8
BLACK
6
CONTINUOUS
10
0.276509
20
1.31538
11
0.285761
21
1.32416
0
LINE
8
BLACK
6
CONTINUOUS
10
0.285761
20
1.32416
11
0.293942
21
1.33395
0
LINE
8
BLACK
6
CONTINUOUS
10
0.293942
20
1.33395
11
0.300945
21
1.34461
0
LINE
8
BLACK
6
CONTINUOUS
10
0.300945
20
1.34461
11
0.306676
21
1.356
0
LINE
8
BLACK
6
CONTINUOUS
10
0.306676
20
1.356
11
0.311059
21
1.36798
0
LINE
8
BLACK
6
CONTINUOUS
10
0.311059
20
1.36798
11
0.314036
21
1.38038
0
LINE
8
BLACK
6
CONTINUOUS
10
0.314036
20
1.38038
11
0.315569
21
1.39304
0
LINE
8
BLACK
6
CONTINUOUS
10
0.315569
20
1.39304
11
0.315787
21
1.4
0
LINE
8
BLACK
6
CONTINUOUS
10
0.315787
20
1.4
11
0.315053
21
1.41273
0
LINE
8
BLACK
6
CONTINUOUS
10
0.315053
20
1.41273
11
0.31286
21
1.4253
0
LINE
8
BLACK
6
CONTINUOUS
10
0.31286
20
1.4253
11
0.309238
21
1.43753
0
LINE
8
BLACK
6
CONTINUOUS
10
0.309238
20
1.43753
11
0.304234
21
1.44926
0
LINE
8
BLACK
6
CONTINUOUS
10
0.304234
20
1.44926
11
0.297914
21
1.46034
0
LINE
8
BLACK
6
CONTINUOUS
10
0.297914
20
1.46034
11
0.290363
21
1.47062
0
LINE
8
BLACK
6
CONTINUOUS
10
0.290363
20
1.47062
11
0.281681
21
1.47996
0
LINE
8
BLACK
6
CONTINUOUS
10
0.281681
20
1.47996
11
0.271982
21
1.48825
0
LINE
8
BLACK
6
CONTINUOUS
10
0.271982
20
1.48825
11
0.261395
21
1.49536
0
LINE
8
BLACK
6
CONTINUOUS
10
0.261395
20
1.49536
11
0.250061
21
1.50121
0
LINE
8
BLACK
6
CONTINUOUS
10
0.250061
20
1.50121
11
0.23813
21
1.50572
0
LINE
8
BLACK
6
CONTINUOUS
10
0.23813
20
1.50572
11
0.225759
21
1.50883
0
LINE
8
BLACK
6
CONTINUOUS
10
0.225759
20
1.50883
11
0.213114
21
1.51049
0
LINE
8
BLACK
6
CONTINUOUS
10
0.213114
20
1.51049
11
0.200361
21
1.51069
0
LINE
8
BLACK
6
CONTINUOUS
10
0.200361
20
1.51069
11
0.187669
21
1.50942
0
LINE
8
BLACK
6
CONTINUOUS
10
0.187669
20
1.50942
11
0.175207
21
1.50671
0
LINE
8
BLACK
6
CONTINUOUS
10
0.175207
20
1.50671
11
0.16314
21
1.50257
0
LINE
8
BLACK
6
CONTINUOUS
10
0.16314
20
1.50257
11
0.151628
21
1.49708
0
LINE
8
BLACK
6
CONTINUOUS
10
0.151628
20
1.49708
11
0.140823
21
1.49031
0
LINE
8
BLACK
6
CONTINUOUS
10
0.140823
20
1.49031
11
0.130869
21
1.48233
0
LINE
8
BLACK
6
CONTINUOUS
10
0.130869
20
1.48233
11
0.121897
21
1.47327
0
LINE
8
BLACK
6
CONTINUOUS
10
0.121897
20
1.47327
11
0.114027
21
1.46323
0
LINE
8
BLACK
6
CONTINUOUS
10
0.114027
20
1.46323
11
0.107363
21
1.45235
0
LINE
8
BLACK
6
CONTINUOUS
10
0.107363
20
1.45235
11
0.101992
21
1.44078
0
LINE
8
BLACK
6
CONTINUOUS
10
0.101992
20
1.44078
11
0.0979876
21
1.42867
0
LINE
8
BLACK
6
CONTINUOUS
10
0.0979876
20
1.42867
11
0.0954011
21
1.41618
0
LINE
8
BLACK
6
CONTINUOUS
10
0.0954011
20
1.41618
11
0.0942672
21
1.40348
0
LINE
8
BLACK
6
CONTINUOUS
10
0.0942672
20
1.40348
11
0.0946011
21
1.39073
0
LINE
8
BLACK
6
CONTINUOUS
10
0.0946011
20
1.39073
11
0.0963983
21
1.3781
0
LINE
8
BLACK
6
CONTINUOUS
10
0.482922
20
1.42953
11
0.486975
21
1.44296
0
LINE
8
BLACK
6
CONTINUOUS
10
0.486975
20
1.44296
11
0.492499
21
1.45585
0
LINE
8
BLACK
6
CONTINUOUS
10
0.492499
20
1.45585
11
0.499425
21
1.46804
0
LINE
8
BLACK
6
CONTINUOUS
10
0.499425
20
1.46804
11
0.507667
21
1.47938
0
LINE
8
BLACK
6
CONTINUOUS
10
0.507667
20
1.47938
11
0.517122
21
1.48974
0
LINE
8
BLACK
6
CONTINUOUS
10
0.517122
20
1.48974
11
0.527673
21
1.49897
0
LINE
8
BLACK
6
CONTINUOUS
10
0.527673
20
1.49897
11
0.539187
21
1.50698
0
LINE
8
BLACK
6
CONTINUOUS
10
0.539187
20
1.50698
11
0.551522
21
1.51365
0
LINE
8
BLACK
6
CONTINUOUS
10
0.551522
20
1.51365
11
0.564523
21
1.5189
0
LINE
8
BLACK
6
CONTINUOUS
10
0.564523
20
1.5189
11
0.578029
21
1.52267
0
LINE
8
BLACK
6
CONTINUOUS
10
0.578029
20
1.52267
11
0.591871
21
1.52491
0
LINE
8
BLACK
6
CONTINUOUS
10
0.591871
20
1.52491
11
0.605877
21
1.5256
0
LINE
8
BLACK
6
CONTINUOUS
10
0.605877
20
1.5256
11
0.619872
21
1.52472
0
LINE
8
BLACK
6
CONTINUOUS
10
0.619872
20
1.52472
11
0.633681
21
1.52228
0
LINE
8
BLACK
6
CONTINUOUS
10
0.633681
20
1.52228
11
0.647133
21
1.51832
0
LINE
8
BLACK
6
CONTINUOUS
10
0.647133
20
1.51832
11
0.660059
21
1.51289
0
LINE
8
BLACK
6
CONTINUOUS
10
0.660059
20
1.51289
11
0.6723
21
1.50605
0
LINE
8
BLACK
6
CONTINUOUS
10
0.6723
20
1.50605
11
0.683701
21
1.49788
0
LINE
8
BLACK
6
CONTINUOUS
10
0.683701
20
1.49788
11
0.694122
21
1.4885
0
LINE
8
BLACK
6
CONTINUOUS
10
0.694122
20
1.4885
11
0.703432
21
1.47802
0
LINE
8
BLACK
6
CONTINUOUS
10
0.703432
20
1.47802
11
0.711515
21
1.46656
0
LINE
8
BLACK
6
CONTINUOUS
10
0.711515
20
1.46656
11
0.71827
21
1.45427
0
LINE
8
BLACK
6
CONTINUOUS
10
0.71827
20
1.45427
11
0.723614
21
1.44131
0
LINE
8
BLACK
6
CONTINUOUS
10
0.723614
20
1.44131
11
0.727479
21
1.42783
0
LINE
8
BLACK
6
CONTINUOUS
10
0.727479
20
1.42783
11
0.729817
21
1.414
0
LINE
8
BLACK
6
CONTINUOUS
10
0.729817
20
1.414
11
0.7306
21
1.4
0
LINE
8
BLACK
6
CONTINUOUS
10
0.7306
20
1.4
11
0.730551
21
1.39649
0
LINE
8
BLACK
6
CONTINUOUS
10
0.730551
20
1.39649
11
0.729378
21
1.38252
0
LINE
8
BLACK
6
CONTINUOUS
10
0.729378
20
1.38252
11
0.726654
21
1.36876
0
LINE
8
BLACK
6
CONTINUOUS
10
0.726654
20
1.36876
11
0.722414
21
1.3554
0
LINE
8
BLACK
6
CONTINUOUS
10
0.722414
20
1.3554
11
0.716711
21
1.34259
0
LINE
8
BLACK
6
CONTINUOUS
10
0.716711
20
1.34259
11
0.709615
21
1.33049
0
LINE
8
BLACK
6
CONTINUOUS
10
0.709615
20
1.33049
11
0.701215
21
1.31927
0
LINE
8
BLACK
6
CONTINUOUS
10
0.701215
20
1.31927
11
0.691616
21
1.30904
0
LINE
8
BLACK
6
CONTINUOUS
10
0.691616
20
1.30904
11
0.680938
21
1.29996
0
LINE
8
BLACK
6
CONTINUOUS
10
0.680938
20
1.29996
11
0.669313
21
1.29211
0
LINE
8
BLACK
6
CONTINUOUS
10
0.669313
20
1.29211
11
0.656886
21
1.28562
0
LINE
8
BLACK
6
CONTINUOUS
10
0.656886
20
1.28562
11
0.643813
21
1.28055
0
LINE
8
BLACK
6
CONTINUOUS
10
0.643813
20
1.28055
11
0.630255
21
1.27697
0
LINE
8
BLACK
6
CONTINUOUS
10
0.630255
20
1.27697
11
0.616383
21
1.27492
0
LINE
8
BLACK
6
CONTINUOUS
10
0.616383
20
1.27492
11
0.60237
21
1.27443
0
LINE
8
BLACK
6
CONTINUOUS
10
0.60237
20
1.27443
11
0.588389
21
1.2755
0
LINE
8
BLACK
6
CONTINUOUS
10
0.588389
20
1.2755
11
0.574615
21
1.27813
0
LINE
8
BLACK
6
CONTINUOUS
10
0.574615
20
1.27813
11
0.561219
21
1.28228
0
LINE
8
BLACK
6
CONTINUOUS
10
0.561219
20
1.28228
11
0.54837
21
1.28789
0
LINE
8
BLACK
6
CONTINUOUS
10
0.54837
20
1.28789
11
0.536226
21
1.2949
0
LINE
8
BLACK
6
CONTINUOUS
10
0.536226
20
1.2949
11
0.52494
21
1.30322
0
LINE
8
BLACK
6
CONTINUOUS
10
0.52494
20
1.30322
11
0.514651
21
1.31275
0
LINE
8
BLACK
6
CONTINUOUS
10
0.514651
20
1.31275
11
0.505488
21
1.32337
0
LINE
8
BLACK
6
CONTINUOUS
10
0.505488
20
1.32337
11
0.497566
21
1.33494
0
LINE
8
BLACK
6
CONTINUOUS
10
0.497566
20
1.33494
11
0.490983
21
1.34732
0
LINE
8
BLACK
6
CONTINUOUS
10
0.490983
20
1.34732
11
0.485821
21
1.36035
0
LINE
8
BLACK
6
CONTINUOUS
10
0.485821
20
1.36035
11
0.482145
21
1.37389
0
LINE
8
BLACK
6
CONTINUOUS
10
0.482145
20
1.37389
11
0.479999
21
1.38774
0
LINE
8
BLACK
6
CONTINUOUS
10
0.479999
20
1.38774
11
0.479412
21
1.40175
0
LINE
8
BLACK
6
CONTINUOUS
10
0.479412
20
1.40175
11
0.479533
21
1.40348
0
LINE
8
BLACK
6
CONTINUOUS
10
0.479533
20
1.40348
11
0.48039
21
1.41574
0
LINE
8
BLACK
6
CONTINUOUS
10
0.48039
20
1.41574
11
0.482922
21
1.42953
0
LINE
8
BLACK
6
CONTINUOUS
10
0.496398
20
1.3781
11
0.499635
21
1.36576
0
LINE
8
BLACK
6
CONTINUOUS
10
0.499635
20
1.36576
11
0.504268
21
1.35388
0
LINE
8
BLACK
6
CONTINUOUS
10
0.504268
20
1.35388
11
0.510236
21
1.34261
0
LINE
8
BLACK
6
CONTINUOUS
10
0.510236
20
1.34261
11
0.517461
21
1.3321
0
LINE
8
BLACK
6
CONTINUOUS
10
0.517461
20
1.3321
11
0.525845
21
1.32249
0
LINE
8
BLACK
6
CONTINUOUS
10
0.525845
20
1.32249
11
0.535279
21
1.3139
0
LINE
8
BLACK
6
CONTINUOUS
10
0.535279
20
1.3139
11
0.545637
21
1.30646
0
LINE
8
BLACK
6
CONTINUOUS
10
0.545637
20
1.30646
11
0.556782
21
1.30026
0
LINE
8
BLACK
6
CONTINUOUS
10
0.556782
20
1.30026
11
0.568566
21
1.29537
0
LINE
8
BLACK
6
CONTINUOUS
10
0.568566
20
1.29537
11
0.580832
21
1.29188
0
LINE
8
BLACK
6
CONTINUOUS
10
0.580832
20
1.29188
11
0.59342
21
1.28982
0
LINE
8
BLACK
6
CONTINUOUS
10
0.59342
20
1.28982
11
0.60616
21
1.28922
0
LINE
8
BLACK
6
CONTINUOUS
10
0.60616
20
1.28922
11
0.618885
21
1.29009
0
LINE
8
BLACK
6
CONTINUOUS
10
0.618885
20
1.29009
11
0.631426
21
1.29241
0
LINE
8
BLACK
6
CONTINUOUS
10
0.631426
20
1.29241
11
0.643617
21
1.29616
0
LINE
8
BLACK
6
CONTINUOUS
10
0.643617
20
1.29616
11
0.655296
21
1.30129
0
LINE
8
BLACK
6
CONTINUOUS
10
0.655296
20
1.30129
11
0.666309
21
1.30772
0
LINE
8
BLACK
6
CONTINUOUS
10
0.666309
20
1.30772
11
0.676509
21
1.31538
0
LINE
8
BLACK
6
CONTINUOUS
10
0.676509
20
1.31538
11
0.685761
21
1.32416
0
LINE
8
BLACK
6
CONTINUOUS
10
0.685761
20
1.32416
11
0.693942
21
1.33395
0
LINE
8
BLACK
6
CONTINUOUS
10
0.693942
20
1.33395
11
0.700945
21
1.34461
0
LINE
8
BLACK
6
CONTINUOUS
10
0.700945
20
1.34461
11
0.706676
21
1.356
0
LINE
8
BLACK
6
CONTINUOUS
10
0.706676
20
1.356
11
0.711059
21
1.36798
0
LINE
8
BLACK
6
CONTINUOUS
10
0.711059
20
1.36798
11
0.714036
21
1.38038
0
LINE
8
BLACK
6
CONTINUOUS
10
0.714036
20
1.38038
11
0.715569
21
1.39304
0
LINE
8
BLACK
6
CONTINUOUS
10
0.715569
20
1.39304
11
0.715787
21
1.4
0
LINE
8
BLACK
6
CONTINUOUS
10
0.715787
20
1.4
11
0.715053
21
1.41273
0
LINE
8
BLACK
6
CONTINUOUS
10
0.715053
20
1.41273
11
0.71286
21
1.4253
0
LINE
8
BLACK
6
CONTINUOUS
10
0.71286
20
1.4253
11
0.709238
21
1.43753
0
LINE
8
BLACK
6
CONTINUOUS
10
0.709238
20
1.43753
11
0.704234
21
1.44926
0
LINE
8
BLACK
6
CONTINUOUS
10
0.704234
20
1.44926
11
0.697914
21
1.46034
0
LINE
8
BLACK
6
CONTINUOUS
10
0.697914
20
1.46034
11
0.690363
21
1.47062
0
LINE
8
BLACK
6
CONTINUOUS
10
0.690363
20
1.47062
11
0.681681
21
1.47996
0
LINE
8
BLACK
6
CONTINUOUS
10
0.681681
20
1.47996
11
0.671982
21
1.48825
0
LINE
8
BLACK
6
CONTINUOUS
10
0.671982
20
1.48825
11
0.661395
21
1.49536
0
LINE
8
BLACK
6
CONTINUOUS
10
0.661395
20
1.49536
11
0.650061
21
1.50121
0
LINE
8
BLACK
6
CONTINUOUS
10
0.650061
20
1.50121
11
0.63813
21
1.50572
0
LINE
8
BLACK
6
CONTINUOUS
10
0.63813
20
1.50572
11
0.625759
21
1.50883
0
LINE
8
BLACK
6
CONTINUOUS
10
0.625759
20
1.50883
11
0.613114
21
1.51049
0
LINE
8
BLACK
6
CONTINUOUS
10
0.613114
20
1.51049
11
0.600361
21
1.51069
0
LINE
8
BLACK
6
CONTINUOUS
10
0.600361
20
1.51069
11
0.587669
21
1.50942
0
LINE
8
BLACK
6
CONTINUOUS
10
0.587669
20
1.50942
11
0.575207
21
1.50671
0
LINE
8
BLACK
6
CONTINUOUS
10
0.575207
20
1.50671
11
0.56314
21
1.50257
0
LINE
8
BLACK
6
CONTINUOUS
10
0.56314
20
1.50257
11
0.551628
21
1.49708
0
LINE
8
BLACK
6
CONTINUOUS
10
0.551628
20
1.49708
11
0.540823
21
1.49031
0
LINE
8
BLACK
6
CONTINUOUS
10
0.540823
20
1.49031
11
0.530869
21
1.48233
0
LINE
8
BLACK
6
CONTINUOUS
10
0.530869
20
1.48233
11
0.521897
21
1.47327
0
LINE
8
BLACK
6
CONTINUOUS
10
0.521897
20
1.47327
11
0.514027
21
1.46323
0
LINE
8
BLACK
6
CONTINUOUS
10
0.514027
20
1.46323
11
0.507363
21
1.45235
0
LINE
8
BLACK
6
CONTINUOUS
10
0.507363
20
1.45235
11
0.501992
21
1.44078
0
LINE
8
BLACK
6
CONTINUOUS
10
0.501992
20
1.44078
11
0.497988
21
1.42867
0
LINE
8
BLACK
6
CONTINUOUS
10
0.497988
20
1.42867
11
0.495401
21
1.41618
0
LINE
8
BLACK
6
CONTINUOUS
10
0.495401
20
1.41618
11
0.494267
21
1.40348
0
LINE
8
BLACK
6
CONTINUOUS
10
0.494267
20
1.40348
11
0.494601
21
1.39073
0
LINE
8
BLACK
6
CONTINUOUS
10
0.494601
20
1.39073
11
0.496398
21
1.3781
  0
ENDSEC
  0
EOF
