  0
SECTION
  2
HEADER
  9
$ANGBASE
  50
0.0
  9
$ANGDIR
  70
1
  9
$MEASUREMENT
  70
0
  0
ENDSEC
  0
SECTION
  2
TABLES
  0
TABLE
  2
LTYPE
  70
4
  0
LTYPE
  5
40F
  2
CONTINUOUS
  70
0
  3
Solid line
  72
65
  73
0
  40
0.0
  0
LTYPE
  5
410
  2
DASHDOT
 70
0
  3
Dash Dot ____ _ ____ _
 72
65
 73
4
 40
2.0
 49
1.25
 49
-0.25
 49
0.25
 49
-0.25
  0
LTYPE
  5
411
  2
DASHED
 70
0
  3
Dashed __ __ __ __ __
 72
65
 73
2
 40
0.75
 49
0.5
 49
-0.25
  0
LTYPE
  5
43B
  2
DOTTED
 70
0
  3
Dotted .  .  .  .
 72
65
 73
2
 40
0.2
 49
0.0
 49
-0.2
  0
ENDTAB
  0
TABLE
  2
STYLE
  70
4
  0
STYLE
  2
KICAD
  70
0
  40
0
  41
1
  42
1
  50
0
  71
0
  3
isocp.shx
  0
STYLE
  2
KICADB
  70
0
  40
0
  41
1
  42
1
  50
0
  71
0
  3
isocp.shx
  0
STYLE
  2
KICADI
  70
0
  40
0
  41
1
  42
1
  50
15
  71
0
  3
isocp.shx
  0
STYLE
  2
KICADBI
  70
0
  40
0
  41
1
  42
1
  50
15
  71
0
  3
isocp.shx
  0
ENDTAB
  0
TABLE
  2
LAYER
  70
1
  0
LAYER
  2
BLACK
  70
0
  62
7
  6
CONTINUOUS
  0
ENDTAB
  0
ENDSEC
  0
SECTION
  2
ENTITIES
0
LINE
8
BLACK
6
CONTINUOUS
10
0.131036
20
0.0918122
11
0.136007
21
0.0900667
0
LINE
8
BLACK
6
CONTINUOUS
10
0.136007
20
0.0900667
11
0.140244
21
0.0869369
0
LINE
8
BLACK
6
CONTINUOUS
10
0.140244
20
0.0869369
11
0.143374
21
0.0826995
0
LINE
8
BLACK
6
CONTINUOUS
10
0.143374
20
0.0826995
11
0.145119
21
0.0777292
0
LINE
8
BLACK
6
CONTINUOUS
10
0.145119
20
0.0777292
11
0.145433
21
0.0744094
0
LINE
8
BLACK
6
CONTINUOUS
10
0.145433
20
0.0744094
11
0.145433
21
0.0537402
0
LINE
8
BLACK
6
CONTINUOUS
10
0.145433
20
0.0537402
11
0.145119
21
0.0504204
0
LINE
8
BLACK
6
CONTINUOUS
10
0.145119
20
0.0504204
11
0.143374
21
0.0454501
0
LINE
8
BLACK
6
CONTINUOUS
10
0.143374
20
0.0454501
11
0.140244
21
0.0412127
0
LINE
8
BLACK
6
CONTINUOUS
10
0.140244
20
0.0412127
11
0.136007
21
0.0380829
0
LINE
8
BLACK
6
CONTINUOUS
10
0.136007
20
0.0380829
11
0.131036
21
0.0363374
0
LINE
8
BLACK
6
CONTINUOUS
10
0.131036
20
0.0363374
11
0.127717
21
0.0360236
0
LINE
8
BLACK
6
CONTINUOUS
10
0.127717
20
0.0360236
11
0.0922835
21
0.0360236
0
LINE
8
BLACK
6
CONTINUOUS
10
0.0922835
20
0.0360236
11
0.0889637
21
0.0363374
0
LINE
8
BLACK
6
CONTINUOUS
10
0.0889637
20
0.0363374
11
0.0839934
21
0.0380829
0
LINE
8
BLACK
6
CONTINUOUS
10
0.0839934
20
0.0380829
11
0.079756
21
0.0412127
0
LINE
8
BLACK
6
CONTINUOUS
10
0.079756
20
0.0412127
11
0.0766262
21
0.0454501
0
LINE
8
BLACK
6
CONTINUOUS
10
0.0766262
20
0.0454501
11
0.0748807
21
0.0504204
0
LINE
8
BLACK
6
CONTINUOUS
10
0.0748807
20
0.0504204
11
0.0745669
21
0.0537402
0
LINE
8
BLACK
6
CONTINUOUS
10
0.0745669
20
0.0537402
11
0.0745669
21
0.0744094
0
LINE
8
BLACK
6
CONTINUOUS
10
0.0745669
20
0.0744094
11
0.0748807
21
0.0777292
0
LINE
8
BLACK
6
CONTINUOUS
10
0.0748807
20
0.0777292
11
0.0766262
21
0.0826995
0
LINE
8
BLACK
6
CONTINUOUS
10
0.0766262
20
0.0826995
11
0.079756
21
0.0869369
0
LINE
8
BLACK
6
CONTINUOUS
10
0.079756
20
0.0869369
11
0.0839934
21
0.0900667
0
LINE
8
BLACK
6
CONTINUOUS
10
0.0839934
20
0.0900667
11
0.0889637
21
0.0918122
0
LINE
8
BLACK
6
CONTINUOUS
10
0.0889637
20
0.0918122
11
0.0922835
21
0.092126
0
LINE
8
BLACK
6
CONTINUOUS
10
0.0922835
20
0.092126
11
0.127717
21
0.092126
0
LINE
8
BLACK
6
CONTINUOUS
10
0.127717
20
0.092126
11
0.131036
21
0.0918122
0
LINE
8
BLACK
6
CONTINUOUS
10
0.231036
20
0.0918122
11
0.236007
21
0.0900667
0
LINE
8
BLACK
6
CONTINUOUS
10
0.236007
20
0.0900667
11
0.240244
21
0.0869369
0
LINE
8
BLACK
6
CONTINUOUS
10
0.240244
20
0.0869369
11
0.243374
21
0.0826995
0
LINE
8
BLACK
6
CONTINUOUS
10
0.243374
20
0.0826995
11
0.245119
21
0.0777292
0
LINE
8
BLACK
6
CONTINUOUS
10
0.245119
20
0.0777292
11
0.245433
21
0.0744094
0
LINE
8
BLACK
6
CONTINUOUS
10
0.245433
20
0.0744094
11
0.245433
21
0.0537402
0
LINE
8
BLACK
6
CONTINUOUS
10
0.245433
20
0.0537402
11
0.245119
21
0.0504204
0
LINE
8
BLACK
6
CONTINUOUS
10
0.245119
20
0.0504204
11
0.243374
21
0.0454501
0
LINE
8
BLACK
6
CONTINUOUS
10
0.243374
20
0.0454501
11
0.240244
21
0.0412127
0
LINE
8
BLACK
6
CONTINUOUS
10
0.240244
20
0.0412127
11
0.236007
21
0.0380829
0
LINE
8
BLACK
6
CONTINUOUS
10
0.236007
20
0.0380829
11
0.231036
21
0.0363374
0
LINE
8
BLACK
6
CONTINUOUS
10
0.231036
20
0.0363374
11
0.227717
21
0.0360236
0
LINE
8
BLACK
6
CONTINUOUS
10
0.227717
20
0.0360236
11
0.192283
21
0.0360236
0
LINE
8
BLACK
6
CONTINUOUS
10
0.192283
20
0.0360236
11
0.188964
21
0.0363374
0
LINE
8
BLACK
6
CONTINUOUS
10
0.188964
20
0.0363374
11
0.183993
21
0.0380829
0
LINE
8
BLACK
6
CONTINUOUS
10
0.183993
20
0.0380829
11
0.179756
21
0.0412127
0
LINE
8
BLACK
6
CONTINUOUS
10
0.179756
20
0.0412127
11
0.176626
21
0.0454501
0
LINE
8
BLACK
6
CONTINUOUS
10
0.176626
20
0.0454501
11
0.174881
21
0.0504204
0
LINE
8
BLACK
6
CONTINUOUS
10
0.174881
20
0.0504204
11
0.174567
21
0.0537402
0
LINE
8
BLACK
6
CONTINUOUS
10
0.174567
20
0.0537402
11
0.174567
21
0.0744094
0
LINE
8
BLACK
6
CONTINUOUS
10
0.174567
20
0.0744094
11
0.174881
21
0.0777292
0
LINE
8
BLACK
6
CONTINUOUS
10
0.174881
20
0.0777292
11
0.176626
21
0.0826995
0
LINE
8
BLACK
6
CONTINUOUS
10
0.176626
20
0.0826995
11
0.179756
21
0.0869369
0
LINE
8
BLACK
6
CONTINUOUS
10
0.179756
20
0.0869369
11
0.183993
21
0.0900667
0
LINE
8
BLACK
6
CONTINUOUS
10
0.183993
20
0.0900667
11
0.188964
21
0.0918122
0
LINE
8
BLACK
6
CONTINUOUS
10
0.188964
20
0.0918122
11
0.192283
21
0.092126
0
LINE
8
BLACK
6
CONTINUOUS
10
0.192283
20
0.092126
11
0.227717
21
0.092126
0
LINE
8
BLACK
6
CONTINUOUS
10
0.227717
20
0.092126
11
0.231036
21
0.0918122
0
LINE
8
BLACK
6
CONTINUOUS
10
1.56273
20
0.114096
11
1.5677
21
0.11235
0
LINE
8
BLACK
6
CONTINUOUS
10
1.5677
20
0.11235
11
1.57194
21
0.10922
0
LINE
8
BLACK
6
CONTINUOUS
10
1.57194
20
0.10922
11
1.57507
21
0.104983
0
LINE
8
BLACK
6
CONTINUOUS
10
1.57507
20
0.104983
11
1.57681
21
0.100013
0
LINE
8
BLACK
6
CONTINUOUS
10
1.57681
20
0.100013
11
1.57713
21
0.0966929
0
LINE
8
BLACK
6
CONTINUOUS
10
1.57713
20
0.0966929
11
1.57713
21
0.0612598
0
LINE
8
BLACK
6
CONTINUOUS
10
1.57713
20
0.0612598
11
1.57681
21
0.0579401
0
LINE
8
BLACK
6
CONTINUOUS
10
1.57681
20
0.0579401
11
1.57507
21
0.0529698
0
LINE
8
BLACK
6
CONTINUOUS
10
1.57507
20
0.0529698
11
1.57194
21
0.0487324
0
LINE
8
BLACK
6
CONTINUOUS
10
1.57194
20
0.0487324
11
1.5677
21
0.0456026
0
LINE
8
BLACK
6
CONTINUOUS
10
1.5677
20
0.0456026
11
1.56273
21
0.0438571
0
LINE
8
BLACK
6
CONTINUOUS
10
1.56273
20
0.0438571
11
1.55941
21
0.0435433
0
LINE
8
BLACK
6
CONTINUOUS
10
1.55941
20
0.0435433
11
1.53874
21
0.0435433
0
LINE
8
BLACK
6
CONTINUOUS
10
1.53874
20
0.0435433
11
1.53542
21
0.0438571
0
LINE
8
BLACK
6
CONTINUOUS
10
1.53542
20
0.0438571
11
1.53045
21
0.0456026
0
LINE
8
BLACK
6
CONTINUOUS
10
1.53045
20
0.0456026
11
1.52621
21
0.0487324
0
LINE
8
BLACK
6
CONTINUOUS
10
1.52621
20
0.0487324
11
1.52308
21
0.0529698
0
LINE
8
BLACK
6
CONTINUOUS
10
1.52308
20
0.0529698
11
1.52134
21
0.0579401
0
LINE
8
BLACK
6
CONTINUOUS
10
1.52134
20
0.0579401
11
1.52102
21
0.0612598
0
LINE
8
BLACK
6
CONTINUOUS
10
1.52102
20
0.0612598
11
1.52102
21
0.0966929
0
LINE
8
BLACK
6
CONTINUOUS
10
1.52102
20
0.0966929
11
1.52134
21
0.100013
0
LINE
8
BLACK
6
CONTINUOUS
10
1.52134
20
0.100013
11
1.52308
21
0.104983
0
LINE
8
BLACK
6
CONTINUOUS
10
1.52308
20
0.104983
11
1.52621
21
0.10922
0
LINE
8
BLACK
6
CONTINUOUS
10
1.52621
20
0.10922
11
1.53045
21
0.11235
0
LINE
8
BLACK
6
CONTINUOUS
10
1.53045
20
0.11235
11
1.53542
21
0.114096
0
LINE
8
BLACK
6
CONTINUOUS
10
1.53542
20
0.114096
11
1.53874
21
0.114409
0
LINE
8
BLACK
6
CONTINUOUS
10
1.53874
20
0.114409
11
1.55941
21
0.114409
0
LINE
8
BLACK
6
CONTINUOUS
10
1.55941
20
0.114409
11
1.56273
21
0.114096
0
LINE
8
BLACK
6
CONTINUOUS
10
1.43674
20
0.129844
11
1.44172
21
0.128098
0
LINE
8
BLACK
6
CONTINUOUS
10
1.44172
20
0.128098
11
1.44595
21
0.124968
0
LINE
8
BLACK
6
CONTINUOUS
10
1.44595
20
0.124968
11
1.44908
21
0.120731
0
LINE
8
BLACK
6
CONTINUOUS
10
1.44908
20
0.120731
11
1.45083
21
0.115761
0
LINE
8
BLACK
6
CONTINUOUS
10
1.45083
20
0.115761
11
1.45114
21
0.112441
0
LINE
8
BLACK
6
CONTINUOUS
10
1.45114
20
0.112441
11
1.45114
21
0.104725
0
LINE
8
BLACK
6
CONTINUOUS
10
1.45114
20
0.104725
11
1.45123
21
0.104983
0
LINE
8
BLACK
6
CONTINUOUS
10
1.45123
20
0.104983
11
1.45436
21
0.10922
0
LINE
8
BLACK
6
CONTINUOUS
10
1.45436
20
0.10922
11
1.4586
21
0.11235
0
LINE
8
BLACK
6
CONTINUOUS
10
1.4586
20
0.11235
11
1.46357
21
0.114096
0
LINE
8
BLACK
6
CONTINUOUS
10
1.46357
20
0.114096
11
1.46689
21
0.114409
0
LINE
8
BLACK
6
CONTINUOUS
10
1.46689
20
0.114409
11
1.48756
21
0.114409
0
LINE
8
BLACK
6
CONTINUOUS
10
1.48756
20
0.114409
11
1.49088
21
0.114096
0
LINE
8
BLACK
6
CONTINUOUS
10
1.49088
20
0.114096
11
1.49585
21
0.11235
0
LINE
8
BLACK
6
CONTINUOUS
10
1.49585
20
0.11235
11
1.50009
21
0.10922
0
LINE
8
BLACK
6
CONTINUOUS
10
1.50009
20
0.10922
11
1.50322
21
0.104983
0
LINE
8
BLACK
6
CONTINUOUS
10
1.50322
20
0.104983
11
1.50496
21
0.100013
0
LINE
8
BLACK
6
CONTINUOUS
10
1.50496
20
0.100013
11
1.50528
21
0.0966929
0
LINE
8
BLACK
6
CONTINUOUS
10
1.50528
20
0.0966929
11
1.50528
21
0.0612598
0
LINE
8
BLACK
6
CONTINUOUS
10
1.50528
20
0.0612598
11
1.50496
21
0.0579401
0
LINE
8
BLACK
6
CONTINUOUS
10
1.50496
20
0.0579401
11
1.50322
21
0.0529698
0
LINE
8
BLACK
6
CONTINUOUS
10
1.50322
20
0.0529698
11
1.50009
21
0.0487324
0
LINE
8
BLACK
6
CONTINUOUS
10
1.50009
20
0.0487324
11
1.49585
21
0.0456026
0
LINE
8
BLACK
6
CONTINUOUS
10
1.49585
20
0.0456026
11
1.49088
21
0.0438571
0
LINE
8
BLACK
6
CONTINUOUS
10
1.49088
20
0.0438571
11
1.48756
21
0.0435433
0
LINE
8
BLACK
6
CONTINUOUS
10
1.48756
20
0.0435433
11
1.46689
21
0.0435433
0
LINE
8
BLACK
6
CONTINUOUS
10
1.46689
20
0.0435433
11
1.46357
21
0.0438571
0
LINE
8
BLACK
6
CONTINUOUS
10
1.46357
20
0.0438571
11
1.4586
21
0.0456026
0
LINE
8
BLACK
6
CONTINUOUS
10
1.4586
20
0.0456026
11
1.45436
21
0.0487324
0
LINE
8
BLACK
6
CONTINUOUS
10
1.45436
20
0.0487324
11
1.45123
21
0.0529698
0
LINE
8
BLACK
6
CONTINUOUS
10
1.45123
20
0.0529698
11
1.44949
21
0.0579401
0
LINE
8
BLACK
6
CONTINUOUS
10
1.44949
20
0.0579401
11
1.44917
21
0.0612598
0
LINE
8
BLACK
6
CONTINUOUS
10
1.44917
20
0.0612598
11
1.44917
21
0.0847243
0
LINE
8
BLACK
6
CONTINUOUS
10
1.44917
20
0.0847243
11
1.44908
21
0.0844658
0
LINE
8
BLACK
6
CONTINUOUS
10
1.44908
20
0.0844658
11
1.44595
21
0.0802284
0
LINE
8
BLACK
6
CONTINUOUS
10
1.44595
20
0.0802284
11
1.44172
21
0.0770986
0
LINE
8
BLACK
6
CONTINUOUS
10
1.44172
20
0.0770986
11
1.43674
21
0.0753532
0
LINE
8
BLACK
6
CONTINUOUS
10
1.43674
20
0.0753532
11
1.43343
21
0.0750394
0
LINE
8
BLACK
6
CONTINUOUS
10
1.43343
20
0.0750394
11
1.39602
21
0.0750394
0
LINE
8
BLACK
6
CONTINUOUS
10
1.39602
20
0.0750394
11
1.3927
21
0.0753532
0
LINE
8
BLACK
6
CONTINUOUS
10
1.3927
20
0.0753532
11
1.38773
21
0.0770986
0
LINE
8
BLACK
6
CONTINUOUS
10
1.38773
20
0.0770986
11
1.3835
21
0.0802284
0
LINE
8
BLACK
6
CONTINUOUS
10
1.3835
20
0.0802284
11
1.38037
21
0.0844658
0
LINE
8
BLACK
6
CONTINUOUS
10
1.38037
20
0.0844658
11
1.37862
21
0.0894361
0
LINE
8
BLACK
6
CONTINUOUS
10
1.37862
20
0.0894361
11
1.37831
21
0.0927559
0
LINE
8
BLACK
6
CONTINUOUS
10
1.37831
20
0.0927559
11
1.37831
21
0.112441
0
LINE
8
BLACK
6
CONTINUOUS
10
1.37831
20
0.112441
11
1.37862
21
0.115761
0
LINE
8
BLACK
6
CONTINUOUS
10
1.37862
20
0.115761
11
1.38037
21
0.120731
0
LINE
8
BLACK
6
CONTINUOUS
10
1.38037
20
0.120731
11
1.3835
21
0.124968
0
LINE
8
BLACK
6
CONTINUOUS
10
1.3835
20
0.124968
11
1.38773
21
0.128098
0
LINE
8
BLACK
6
CONTINUOUS
10
1.38773
20
0.128098
11
1.3927
21
0.129844
0
LINE
8
BLACK
6
CONTINUOUS
10
1.3927
20
0.129844
11
1.39602
21
0.130157
0
LINE
8
BLACK
6
CONTINUOUS
10
1.39602
20
0.130157
11
1.43343
21
0.130157
0
LINE
8
BLACK
6
CONTINUOUS
10
1.43343
20
0.130157
11
1.43674
21
0.129844
0
LINE
8
BLACK
6
CONTINUOUS
10
0.521036
20
0.101812
11
0.526007
21
0.100067
0
LINE
8
BLACK
6
CONTINUOUS
10
0.526007
20
0.100067
11
0.530244
21
0.0969369
0
LINE
8
BLACK
6
CONTINUOUS
10
0.530244
20
0.0969369
11
0.533374
21
0.0926995
0
LINE
8
BLACK
6
CONTINUOUS
10
0.533374
20
0.0926995
11
0.535119
21
0.0877292
0
LINE
8
BLACK
6
CONTINUOUS
10
0.535119
20
0.0877292
11
0.535433
21
0.0844094
0
LINE
8
BLACK
6
CONTINUOUS
10
0.535433
20
0.0844094
11
0.535433
21
0.0637402
0
LINE
8
BLACK
6
CONTINUOUS
10
0.535433
20
0.0637402
11
0.535119
21
0.0604204
0
LINE
8
BLACK
6
CONTINUOUS
10
0.535119
20
0.0604204
11
0.533374
21
0.0554501
0
LINE
8
BLACK
6
CONTINUOUS
10
0.533374
20
0.0554501
11
0.530244
21
0.0512127
0
LINE
8
BLACK
6
CONTINUOUS
10
0.530244
20
0.0512127
11
0.526007
21
0.0480829
0
LINE
8
BLACK
6
CONTINUOUS
10
0.526007
20
0.0480829
11
0.521036
21
0.0463374
0
LINE
8
BLACK
6
CONTINUOUS
10
0.521036
20
0.0463374
11
0.517717
21
0.0460236
0
LINE
8
BLACK
6
CONTINUOUS
10
0.517717
20
0.0460236
11
0.482283
21
0.0460236
0
LINE
8
BLACK
6
CONTINUOUS
10
0.482283
20
0.0460236
11
0.478964
21
0.0463374
0
LINE
8
BLACK
6
CONTINUOUS
10
0.478964
20
0.0463374
11
0.473993
21
0.0480829
0
LINE
8
BLACK
6
CONTINUOUS
10
0.473993
20
0.0480829
11
0.469756
21
0.0512127
0
LINE
8
BLACK
6
CONTINUOUS
10
0.469756
20
0.0512127
11
0.466626
21
0.0554501
0
LINE
8
BLACK
6
CONTINUOUS
10
0.466626
20
0.0554501
11
0.464881
21
0.0604204
0
LINE
8
BLACK
6
CONTINUOUS
10
0.464881
20
0.0604204
11
0.464567
21
0.0637402
0
LINE
8
BLACK
6
CONTINUOUS
10
0.464567
20
0.0637402
11
0.464567
21
0.0844094
0
LINE
8
BLACK
6
CONTINUOUS
10
0.464567
20
0.0844094
11
0.464881
21
0.0877292
0
LINE
8
BLACK
6
CONTINUOUS
10
0.464881
20
0.0877292
11
0.466626
21
0.0926995
0
LINE
8
BLACK
6
CONTINUOUS
10
0.466626
20
0.0926995
11
0.469756
21
0.0969369
0
LINE
8
BLACK
6
CONTINUOUS
10
0.469756
20
0.0969369
11
0.473993
21
0.100067
0
LINE
8
BLACK
6
CONTINUOUS
10
0.473993
20
0.100067
11
0.478964
21
0.101812
0
LINE
8
BLACK
6
CONTINUOUS
10
0.478964
20
0.101812
11
0.482283
21
0.102126
0
LINE
8
BLACK
6
CONTINUOUS
10
0.482283
20
0.102126
11
0.517717
21
0.102126
0
LINE
8
BLACK
6
CONTINUOUS
10
0.517717
20
0.102126
11
0.521036
21
0.101812
0
LINE
8
BLACK
6
CONTINUOUS
10
2.39301
20
0.137275
11
2.39557
21
0.135568
0
LINE
8
BLACK
6
CONTINUOUS
10
2.39557
20
0.135568
11
2.39727
21
0.133013
0
LINE
8
BLACK
6
CONTINUOUS
10
2.39727
20
0.133013
11
2.39787
21
0.13
0
LINE
8
BLACK
6
CONTINUOUS
10
2.39787
20
0.13
11
2.39787
21
0.07
0
LINE
8
BLACK
6
CONTINUOUS
10
2.39787
20
0.07
11
2.39727
21
0.0669867
0
LINE
8
BLACK
6
CONTINUOUS
10
2.39727
20
0.0669867
11
2.39557
21
0.0644322
0
LINE
8
BLACK
6
CONTINUOUS
10
2.39557
20
0.0644322
11
2.39301
21
0.0627254
0
LINE
8
BLACK
6
CONTINUOUS
10
2.39301
20
0.0627254
11
2.39
21
0.062126
0
LINE
8
BLACK
6
CONTINUOUS
10
2.39
20
0.062126
11
2.33
21
0.062126
0
LINE
8
BLACK
6
CONTINUOUS
10
2.33
20
0.062126
11
2.32699
21
0.0627254
0
LINE
8
BLACK
6
CONTINUOUS
10
2.32699
20
0.0627254
11
2.32443
21
0.0644322
0
LINE
8
BLACK
6
CONTINUOUS
10
2.32443
20
0.0644322
11
2.32273
21
0.0669867
0
LINE
8
BLACK
6
CONTINUOUS
10
2.32273
20
0.0669867
11
2.32213
21
0.07
0
LINE
8
BLACK
6
CONTINUOUS
10
2.32213
20
0.07
11
2.32213
21
0.13
0
LINE
8
BLACK
6
CONTINUOUS
10
2.32213
20
0.13
11
2.32273
21
0.133013
0
LINE
8
BLACK
6
CONTINUOUS
10
2.32273
20
0.133013
11
2.32443
21
0.135568
0
LINE
8
BLACK
6
CONTINUOUS
10
2.32443
20
0.135568
11
2.32699
21
0.137275
0
LINE
8
BLACK
6
CONTINUOUS
10
2.32699
20
0.137275
11
2.33
21
0.137874
0
LINE
8
BLACK
6
CONTINUOUS
10
2.33
20
0.137874
11
2.39
21
0.137874
0
LINE
8
BLACK
6
CONTINUOUS
10
2.39
20
0.137874
11
2.39301
21
0.137275
0
LINE
8
BLACK
6
CONTINUOUS
10
2.29301
20
0.137275
11
2.29557
21
0.135568
0
LINE
8
BLACK
6
CONTINUOUS
10
2.29557
20
0.135568
11
2.29727
21
0.133013
0
LINE
8
BLACK
6
CONTINUOUS
10
2.29727
20
0.133013
11
2.29787
21
0.13
0
LINE
8
BLACK
6
CONTINUOUS
10
2.29787
20
0.13
11
2.29787
21
0.07
0
LINE
8
BLACK
6
CONTINUOUS
10
2.29787
20
0.07
11
2.29727
21
0.0669867
0
LINE
8
BLACK
6
CONTINUOUS
10
2.29727
20
0.0669867
11
2.29557
21
0.0644322
0
LINE
8
BLACK
6
CONTINUOUS
10
2.29557
20
0.0644322
11
2.29301
21
0.0627254
0
LINE
8
BLACK
6
CONTINUOUS
10
2.29301
20
0.0627254
11
2.29
21
0.062126
0
LINE
8
BLACK
6
CONTINUOUS
10
2.29
20
0.062126
11
2.23
21
0.062126
0
LINE
8
BLACK
6
CONTINUOUS
10
2.23
20
0.062126
11
2.22699
21
0.0627254
0
LINE
8
BLACK
6
CONTINUOUS
10
2.22699
20
0.0627254
11
2.22443
21
0.0644322
0
LINE
8
BLACK
6
CONTINUOUS
10
2.22443
20
0.0644322
11
2.22273
21
0.0669867
0
LINE
8
BLACK
6
CONTINUOUS
10
2.22273
20
0.0669867
11
2.22213
21
0.07
0
LINE
8
BLACK
6
CONTINUOUS
10
2.22213
20
0.07
11
2.22213
21
0.13
0
LINE
8
BLACK
6
CONTINUOUS
10
2.22213
20
0.13
11
2.22273
21
0.133013
0
LINE
8
BLACK
6
CONTINUOUS
10
2.22273
20
0.133013
11
2.22443
21
0.135568
0
LINE
8
BLACK
6
CONTINUOUS
10
2.22443
20
0.135568
11
2.22699
21
0.137275
0
LINE
8
BLACK
6
CONTINUOUS
10
2.22699
20
0.137275
11
2.23
21
0.137874
0
LINE
8
BLACK
6
CONTINUOUS
10
2.23
20
0.137874
11
2.29
21
0.137874
0
LINE
8
BLACK
6
CONTINUOUS
10
2.29
20
0.137874
11
2.29301
21
0.137275
0
LINE
8
BLACK
6
CONTINUOUS
10
0.231036
20
0.163663
11
0.236007
21
0.161917
0
LINE
8
BLACK
6
CONTINUOUS
10
0.236007
20
0.161917
11
0.240244
21
0.158787
0
LINE
8
BLACK
6
CONTINUOUS
10
0.240244
20
0.158787
11
0.243374
21
0.15455
0
LINE
8
BLACK
6
CONTINUOUS
10
0.243374
20
0.15455
11
0.245119
21
0.14958
0
LINE
8
BLACK
6
CONTINUOUS
10
0.245119
20
0.14958
11
0.245433
21
0.14626
0
LINE
8
BLACK
6
CONTINUOUS
10
0.245433
20
0.14626
11
0.245433
21
0.125591
0
LINE
8
BLACK
6
CONTINUOUS
10
0.245433
20
0.125591
11
0.245119
21
0.122271
0
LINE
8
BLACK
6
CONTINUOUS
10
0.245119
20
0.122271
11
0.243374
21
0.1173
0
LINE
8
BLACK
6
CONTINUOUS
10
0.243374
20
0.1173
11
0.240244
21
0.113063
0
LINE
8
BLACK
6
CONTINUOUS
10
0.240244
20
0.113063
11
0.236007
21
0.109933
0
LINE
8
BLACK
6
CONTINUOUS
10
0.236007
20
0.109933
11
0.231036
21
0.108188
0
LINE
8
BLACK
6
CONTINUOUS
10
0.231036
20
0.108188
11
0.227717
21
0.107874
0
LINE
8
BLACK
6
CONTINUOUS
10
0.227717
20
0.107874
11
0.192283
21
0.107874
0
LINE
8
BLACK
6
CONTINUOUS
10
0.192283
20
0.107874
11
0.188964
21
0.108188
0
LINE
8
BLACK
6
CONTINUOUS
10
0.188964
20
0.108188
11
0.183993
21
0.109933
0
LINE
8
BLACK
6
CONTINUOUS
10
0.183993
20
0.109933
11
0.179756
21
0.113063
0
LINE
8
BLACK
6
CONTINUOUS
10
0.179756
20
0.113063
11
0.176626
21
0.1173
0
LINE
8
BLACK
6
CONTINUOUS
10
0.176626
20
0.1173
11
0.174881
21
0.122271
0
LINE
8
BLACK
6
CONTINUOUS
10
0.174881
20
0.122271
11
0.174567
21
0.125591
0
LINE
8
BLACK
6
CONTINUOUS
10
0.174567
20
0.125591
11
0.174567
21
0.14626
0
LINE
8
BLACK
6
CONTINUOUS
10
0.174567
20
0.14626
11
0.174881
21
0.14958
0
LINE
8
BLACK
6
CONTINUOUS
10
0.174881
20
0.14958
11
0.176626
21
0.15455
0
LINE
8
BLACK
6
CONTINUOUS
10
0.176626
20
0.15455
11
0.179756
21
0.158787
0
LINE
8
BLACK
6
CONTINUOUS
10
0.179756
20
0.158787
11
0.183993
21
0.161917
0
LINE
8
BLACK
6
CONTINUOUS
10
0.183993
20
0.161917
11
0.188964
21
0.163663
0
LINE
8
BLACK
6
CONTINUOUS
10
0.188964
20
0.163663
11
0.192283
21
0.163976
0
LINE
8
BLACK
6
CONTINUOUS
10
0.192283
20
0.163976
11
0.227717
21
0.163976
0
LINE
8
BLACK
6
CONTINUOUS
10
0.227717
20
0.163976
11
0.231036
21
0.163663
0
LINE
8
BLACK
6
CONTINUOUS
10
0.131036
20
0.163663
11
0.136007
21
0.161917
0
LINE
8
BLACK
6
CONTINUOUS
10
0.136007
20
0.161917
11
0.140244
21
0.158787
0
LINE
8
BLACK
6
CONTINUOUS
10
0.140244
20
0.158787
11
0.143374
21
0.15455
0
LINE
8
BLACK
6
CONTINUOUS
10
0.143374
20
0.15455
11
0.145119
21
0.14958
0
LINE
8
BLACK
6
CONTINUOUS
10
0.145119
20
0.14958
11
0.145433
21
0.14626
0
LINE
8
BLACK
6
CONTINUOUS
10
0.145433
20
0.14626
11
0.145433
21
0.125591
0
LINE
8
BLACK
6
CONTINUOUS
10
0.145433
20
0.125591
11
0.145119
21
0.122271
0
LINE
8
BLACK
6
CONTINUOUS
10
0.145119
20
0.122271
11
0.143374
21
0.1173
0
LINE
8
BLACK
6
CONTINUOUS
10
0.143374
20
0.1173
11
0.140244
21
0.113063
0
LINE
8
BLACK
6
CONTINUOUS
10
0.140244
20
0.113063
11
0.136007
21
0.109933
0
LINE
8
BLACK
6
CONTINUOUS
10
0.136007
20
0.109933
11
0.131036
21
0.108188
0
LINE
8
BLACK
6
CONTINUOUS
10
0.131036
20
0.108188
11
0.127717
21
0.107874
0
LINE
8
BLACK
6
CONTINUOUS
10
0.127717
20
0.107874
11
0.0922835
21
0.107874
0
LINE
8
BLACK
6
CONTINUOUS
10
0.0922835
20
0.107874
11
0.0889637
21
0.108188
0
LINE
8
BLACK
6
CONTINUOUS
10
0.0889637
20
0.108188
11
0.0839934
21
0.109933
0
LINE
8
BLACK
6
CONTINUOUS
10
0.0839934
20
0.109933
11
0.079756
21
0.113063
0
LINE
8
BLACK
6
CONTINUOUS
10
0.079756
20
0.113063
11
0.0766262
21
0.1173
0
LINE
8
BLACK
6
CONTINUOUS
10
0.0766262
20
0.1173
11
0.0748807
21
0.122271
0
LINE
8
BLACK
6
CONTINUOUS
10
0.0748807
20
0.122271
11
0.0745669
21
0.125591
0
LINE
8
BLACK
6
CONTINUOUS
10
0.0745669
20
0.125591
11
0.0745669
21
0.14626
0
LINE
8
BLACK
6
CONTINUOUS
10
0.0745669
20
0.14626
11
0.0748807
21
0.14958
0
LINE
8
BLACK
6
CONTINUOUS
10
0.0748807
20
0.14958
11
0.0766262
21
0.15455
0
LINE
8
BLACK
6
CONTINUOUS
10
0.0766262
20
0.15455
11
0.079756
21
0.158787
0
LINE
8
BLACK
6
CONTINUOUS
10
0.079756
20
0.158787
11
0.0839934
21
0.161917
0
LINE
8
BLACK
6
CONTINUOUS
10
0.0839934
20
0.161917
11
0.0889637
21
0.163663
0
LINE
8
BLACK
6
CONTINUOUS
10
0.0889637
20
0.163663
11
0.0922835
21
0.163976
0
LINE
8
BLACK
6
CONTINUOUS
10
0.0922835
20
0.163976
11
0.127717
21
0.163976
0
LINE
8
BLACK
6
CONTINUOUS
10
0.127717
20
0.163976
11
0.131036
21
0.163663
0
LINE
8
BLACK
6
CONTINUOUS
10
1.14147
20
0.167245
11
1.14644
21
0.1655
0
LINE
8
BLACK
6
CONTINUOUS
10
1.14644
20
0.1655
11
1.15068
21
0.16237
0
LINE
8
BLACK
6
CONTINUOUS
10
1.15068
20
0.16237
11
1.15381
21
0.158133
0
LINE
8
BLACK
6
CONTINUOUS
10
1.15381
20
0.158133
11
1.15555
21
0.153162
0
LINE
8
BLACK
6
CONTINUOUS
10
1.15555
20
0.153162
11
1.15587
21
0.149843
0
LINE
8
BLACK
6
CONTINUOUS
10
1.15587
20
0.149843
11
1.15587
21
0.130157
0
LINE
8
BLACK
6
CONTINUOUS
10
1.15587
20
0.130157
11
1.15555
21
0.126838
0
LINE
8
BLACK
6
CONTINUOUS
10
1.15555
20
0.126838
11
1.15381
21
0.121867
0
LINE
8
BLACK
6
CONTINUOUS
10
1.15381
20
0.121867
11
1.15068
21
0.11763
0
LINE
8
BLACK
6
CONTINUOUS
10
1.15068
20
0.11763
11
1.14644
21
0.1145
0
LINE
8
BLACK
6
CONTINUOUS
10
1.14644
20
0.1145
11
1.14147
21
0.112755
0
LINE
8
BLACK
6
CONTINUOUS
10
1.14147
20
0.112755
11
1.13815
21
0.112441
0
LINE
8
BLACK
6
CONTINUOUS
10
1.13815
20
0.112441
11
1.10075
21
0.112441
0
LINE
8
BLACK
6
CONTINUOUS
10
1.10075
20
0.112441
11
1.09743
21
0.112755
0
LINE
8
BLACK
6
CONTINUOUS
10
1.09743
20
0.112755
11
1.09246
21
0.1145
0
LINE
8
BLACK
6
CONTINUOUS
10
1.09246
20
0.1145
11
1.08822
21
0.11763
0
LINE
8
BLACK
6
CONTINUOUS
10
1.08822
20
0.11763
11
1.08509
21
0.121867
0
LINE
8
BLACK
6
CONTINUOUS
10
1.08509
20
0.121867
11
1.08335
21
0.126838
0
LINE
8
BLACK
6
CONTINUOUS
10
1.08335
20
0.126838
11
1.08303
21
0.130157
0
LINE
8
BLACK
6
CONTINUOUS
10
1.08303
20
0.130157
11
1.08303
21
0.149843
0
LINE
8
BLACK
6
CONTINUOUS
10
1.08303
20
0.149843
11
1.08335
21
0.153162
0
LINE
8
BLACK
6
CONTINUOUS
10
1.08335
20
0.153162
11
1.08509
21
0.158133
0
LINE
8
BLACK
6
CONTINUOUS
10
1.08509
20
0.158133
11
1.08822
21
0.16237
0
LINE
8
BLACK
6
CONTINUOUS
10
1.08822
20
0.16237
11
1.09246
21
0.1655
0
LINE
8
BLACK
6
CONTINUOUS
10
1.09246
20
0.1655
11
1.09743
21
0.167245
0
LINE
8
BLACK
6
CONTINUOUS
10
1.09743
20
0.167245
11
1.10075
21
0.167559
0
LINE
8
BLACK
6
CONTINUOUS
10
1.10075
20
0.167559
11
1.13815
21
0.167559
0
LINE
8
BLACK
6
CONTINUOUS
10
1.13815
20
0.167559
11
1.14147
21
0.167245
0
LINE
8
BLACK
6
CONTINUOUS
10
1.62769
20
0.167245
11
1.63266
21
0.1655
0
LINE
8
BLACK
6
CONTINUOUS
10
1.63266
20
0.1655
11
1.6369
21
0.16237
0
LINE
8
BLACK
6
CONTINUOUS
10
1.6369
20
0.16237
11
1.64003
21
0.158133
0
LINE
8
BLACK
6
CONTINUOUS
10
1.64003
20
0.158133
11
1.64177
21
0.153162
0
LINE
8
BLACK
6
CONTINUOUS
10
1.64177
20
0.153162
11
1.64209
21
0.149843
0
LINE
8
BLACK
6
CONTINUOUS
10
1.64209
20
0.149843
11
1.64209
21
0.130157
0
LINE
8
BLACK
6
CONTINUOUS
10
1.64209
20
0.130157
11
1.64177
21
0.126838
0
LINE
8
BLACK
6
CONTINUOUS
10
1.64177
20
0.126838
11
1.64003
21
0.121867
0
LINE
8
BLACK
6
CONTINUOUS
10
1.64003
20
0.121867
11
1.6369
21
0.11763
0
LINE
8
BLACK
6
CONTINUOUS
10
1.6369
20
0.11763
11
1.63266
21
0.1145
0
LINE
8
BLACK
6
CONTINUOUS
10
1.63266
20
0.1145
11
1.62769
21
0.112755
0
LINE
8
BLACK
6
CONTINUOUS
10
1.62769
20
0.112755
11
1.62437
21
0.112441
0
LINE
8
BLACK
6
CONTINUOUS
10
1.62437
20
0.112441
11
1.58697
21
0.112441
0
LINE
8
BLACK
6
CONTINUOUS
10
1.58697
20
0.112441
11
1.58365
21
0.112755
0
LINE
8
BLACK
6
CONTINUOUS
10
1.58365
20
0.112755
11
1.57868
21
0.1145
0
LINE
8
BLACK
6
CONTINUOUS
10
1.57868
20
0.1145
11
1.57444
21
0.11763
0
LINE
8
BLACK
6
CONTINUOUS
10
1.57444
20
0.11763
11
1.57131
21
0.121867
0
LINE
8
BLACK
6
CONTINUOUS
10
1.57131
20
0.121867
11
1.56957
21
0.126838
0
LINE
8
BLACK
6
CONTINUOUS
10
1.56957
20
0.126838
11
1.56925
21
0.130157
0
LINE
8
BLACK
6
CONTINUOUS
10
1.56925
20
0.130157
11
1.56925
21
0.149843
0
LINE
8
BLACK
6
CONTINUOUS
10
1.56925
20
0.149843
11
1.56957
21
0.153162
0
LINE
8
BLACK
6
CONTINUOUS
10
1.56957
20
0.153162
11
1.57131
21
0.158133
0
LINE
8
BLACK
6
CONTINUOUS
10
1.57131
20
0.158133
11
1.57444
21
0.16237
0
LINE
8
BLACK
6
CONTINUOUS
10
1.57444
20
0.16237
11
1.57868
21
0.1655
0
LINE
8
BLACK
6
CONTINUOUS
10
1.57868
20
0.1655
11
1.58365
21
0.167245
0
LINE
8
BLACK
6
CONTINUOUS
10
1.58365
20
0.167245
11
1.58697
21
0.167559
0
LINE
8
BLACK
6
CONTINUOUS
10
1.58697
20
0.167559
11
1.62437
21
0.167559
0
LINE
8
BLACK
6
CONTINUOUS
10
1.62437
20
0.167559
11
1.62769
21
0.167245
0
LINE
8
BLACK
6
CONTINUOUS
10
1.73202
20
0.167245
11
1.73699
21
0.1655
0
LINE
8
BLACK
6
CONTINUOUS
10
1.73699
20
0.1655
11
1.74123
21
0.16237
0
LINE
8
BLACK
6
CONTINUOUS
10
1.74123
20
0.16237
11
1.74436
21
0.158133
0
LINE
8
BLACK
6
CONTINUOUS
10
1.74436
20
0.158133
11
1.7461
21
0.153162
0
LINE
8
BLACK
6
CONTINUOUS
10
1.7461
20
0.153162
11
1.74642
21
0.149843
0
LINE
8
BLACK
6
CONTINUOUS
10
1.74642
20
0.149843
11
1.74642
21
0.130157
0
LINE
8
BLACK
6
CONTINUOUS
10
1.74642
20
0.130157
11
1.7461
21
0.126838
0
LINE
8
BLACK
6
CONTINUOUS
10
1.7461
20
0.126838
11
1.74436
21
0.121867
0
LINE
8
BLACK
6
CONTINUOUS
10
1.74436
20
0.121867
11
1.74123
21
0.11763
0
LINE
8
BLACK
6
CONTINUOUS
10
1.74123
20
0.11763
11
1.73699
21
0.1145
0
LINE
8
BLACK
6
CONTINUOUS
10
1.73699
20
0.1145
11
1.73202
21
0.112755
0
LINE
8
BLACK
6
CONTINUOUS
10
1.73202
20
0.112755
11
1.7287
21
0.112441
0
LINE
8
BLACK
6
CONTINUOUS
10
1.7287
20
0.112441
11
1.6913
21
0.112441
0
LINE
8
BLACK
6
CONTINUOUS
10
1.6913
20
0.112441
11
1.68798
21
0.112755
0
LINE
8
BLACK
6
CONTINUOUS
10
1.68798
20
0.112755
11
1.68301
21
0.1145
0
LINE
8
BLACK
6
CONTINUOUS
10
1.68301
20
0.1145
11
1.67877
21
0.11763
0
LINE
8
BLACK
6
CONTINUOUS
10
1.67877
20
0.11763
11
1.67564
21
0.121867
0
LINE
8
BLACK
6
CONTINUOUS
10
1.67564
20
0.121867
11
1.6739
21
0.126838
0
LINE
8
BLACK
6
CONTINUOUS
10
1.6739
20
0.126838
11
1.67358
21
0.130157
0
LINE
8
BLACK
6
CONTINUOUS
10
1.67358
20
0.130157
11
1.67358
21
0.149843
0
LINE
8
BLACK
6
CONTINUOUS
10
1.67358
20
0.149843
11
1.6739
21
0.153162
0
LINE
8
BLACK
6
CONTINUOUS
10
1.6739
20
0.153162
11
1.67564
21
0.158133
0
LINE
8
BLACK
6
CONTINUOUS
10
1.67564
20
0.158133
11
1.67877
21
0.16237
0
LINE
8
BLACK
6
CONTINUOUS
10
1.67877
20
0.16237
11
1.68301
21
0.1655
0
LINE
8
BLACK
6
CONTINUOUS
10
1.68301
20
0.1655
11
1.68798
21
0.167245
0
LINE
8
BLACK
6
CONTINUOUS
10
1.68798
20
0.167245
11
1.6913
21
0.167559
0
LINE
8
BLACK
6
CONTINUOUS
10
1.6913
20
0.167559
11
1.7287
21
0.167559
0
LINE
8
BLACK
6
CONTINUOUS
10
1.7287
20
0.167559
11
1.73202
21
0.167245
0
LINE
8
BLACK
6
CONTINUOUS
10
1.23989
20
0.167245
11
1.24486
21
0.1655
0
LINE
8
BLACK
6
CONTINUOUS
10
1.24486
20
0.1655
11
1.2491
21
0.16237
0
LINE
8
BLACK
6
CONTINUOUS
10
1.2491
20
0.16237
11
1.25223
21
0.158133
0
LINE
8
BLACK
6
CONTINUOUS
10
1.25223
20
0.158133
11
1.25398
21
0.153162
0
LINE
8
BLACK
6
CONTINUOUS
10
1.25398
20
0.153162
11
1.25429
21
0.149843
0
LINE
8
BLACK
6
CONTINUOUS
10
1.25429
20
0.149843
11
1.25429
21
0.130157
0
LINE
8
BLACK
6
CONTINUOUS
10
1.25429
20
0.130157
11
1.25398
21
0.126838
0
LINE
8
BLACK
6
CONTINUOUS
10
1.25398
20
0.126838
11
1.25223
21
0.121867
0
LINE
8
BLACK
6
CONTINUOUS
10
1.25223
20
0.121867
11
1.2491
21
0.11763
0
LINE
8
BLACK
6
CONTINUOUS
10
1.2491
20
0.11763
11
1.24486
21
0.1145
0
LINE
8
BLACK
6
CONTINUOUS
10
1.24486
20
0.1145
11
1.23989
21
0.112755
0
LINE
8
BLACK
6
CONTINUOUS
10
1.23989
20
0.112755
11
1.23657
21
0.112441
0
LINE
8
BLACK
6
CONTINUOUS
10
1.23657
20
0.112441
11
1.19917
21
0.112441
0
LINE
8
BLACK
6
CONTINUOUS
10
1.19917
20
0.112441
11
1.19585
21
0.112755
0
LINE
8
BLACK
6
CONTINUOUS
10
1.19585
20
0.112755
11
1.19088
21
0.1145
0
LINE
8
BLACK
6
CONTINUOUS
10
1.19088
20
0.1145
11
1.18665
21
0.11763
0
LINE
8
BLACK
6
CONTINUOUS
10
1.18665
20
0.11763
11
1.18352
21
0.121867
0
LINE
8
BLACK
6
CONTINUOUS
10
1.18352
20
0.121867
11
1.18177
21
0.126838
0
LINE
8
BLACK
6
CONTINUOUS
10
1.18177
20
0.126838
11
1.18146
21
0.130157
0
LINE
8
BLACK
6
CONTINUOUS
10
1.18146
20
0.130157
11
1.18146
21
0.149843
0
LINE
8
BLACK
6
CONTINUOUS
10
1.18146
20
0.149843
11
1.18177
21
0.153162
0
LINE
8
BLACK
6
CONTINUOUS
10
1.18177
20
0.153162
11
1.18352
21
0.158133
0
LINE
8
BLACK
6
CONTINUOUS
10
1.18352
20
0.158133
11
1.18665
21
0.16237
0
LINE
8
BLACK
6
CONTINUOUS
10
1.18665
20
0.16237
11
1.19088
21
0.1655
0
LINE
8
BLACK
6
CONTINUOUS
10
1.19088
20
0.1655
11
1.19585
21
0.167245
0
LINE
8
BLACK
6
CONTINUOUS
10
1.19585
20
0.167245
11
1.19917
21
0.167559
0
LINE
8
BLACK
6
CONTINUOUS
10
1.19917
20
0.167559
11
1.23657
21
0.167559
0
LINE
8
BLACK
6
CONTINUOUS
10
1.23657
20
0.167559
11
1.23989
21
0.167245
0
LINE
8
BLACK
6
CONTINUOUS
10
0.521036
20
0.173663
11
0.526007
21
0.171917
0
LINE
8
BLACK
6
CONTINUOUS
10
0.526007
20
0.171917
11
0.530244
21
0.168787
0
LINE
8
BLACK
6
CONTINUOUS
10
0.530244
20
0.168787
11
0.533374
21
0.16455
0
LINE
8
BLACK
6
CONTINUOUS
10
0.533374
20
0.16455
11
0.535119
21
0.15958
0
LINE
8
BLACK
6
CONTINUOUS
10
0.535119
20
0.15958
11
0.535433
21
0.15626
0
LINE
8
BLACK
6
CONTINUOUS
10
0.535433
20
0.15626
11
0.535433
21
0.135591
0
LINE
8
BLACK
6
CONTINUOUS
10
0.535433
20
0.135591
11
0.535119
21
0.132271
0
LINE
8
BLACK
6
CONTINUOUS
10
0.535119
20
0.132271
11
0.533374
21
0.1273
0
LINE
8
BLACK
6
CONTINUOUS
10
0.533374
20
0.1273
11
0.530244
21
0.123063
0
LINE
8
BLACK
6
CONTINUOUS
10
0.530244
20
0.123063
11
0.526007
21
0.119933
0
LINE
8
BLACK
6
CONTINUOUS
10
0.526007
20
0.119933
11
0.521036
21
0.118188
0
LINE
8
BLACK
6
CONTINUOUS
10
0.521036
20
0.118188
11
0.517717
21
0.117874
0
LINE
8
BLACK
6
CONTINUOUS
10
0.517717
20
0.117874
11
0.482283
21
0.117874
0
LINE
8
BLACK
6
CONTINUOUS
10
0.482283
20
0.117874
11
0.478964
21
0.118188
0
LINE
8
BLACK
6
CONTINUOUS
10
0.478964
20
0.118188
11
0.473993
21
0.119933
0
LINE
8
BLACK
6
CONTINUOUS
10
0.473993
20
0.119933
11
0.469756
21
0.123063
0
LINE
8
BLACK
6
CONTINUOUS
10
0.469756
20
0.123063
11
0.466626
21
0.1273
0
LINE
8
BLACK
6
CONTINUOUS
10
0.466626
20
0.1273
11
0.464881
21
0.132271
0
LINE
8
BLACK
6
CONTINUOUS
10
0.464881
20
0.132271
11
0.464567
21
0.135591
0
LINE
8
BLACK
6
CONTINUOUS
10
0.464567
20
0.135591
11
0.464567
21
0.15626
0
LINE
8
BLACK
6
CONTINUOUS
10
0.464567
20
0.15626
11
0.464881
21
0.15958
0
LINE
8
BLACK
6
CONTINUOUS
10
0.464881
20
0.15958
11
0.466626
21
0.16455
0
LINE
8
BLACK
6
CONTINUOUS
10
0.466626
20
0.16455
11
0.469756
21
0.168787
0
LINE
8
BLACK
6
CONTINUOUS
10
0.469756
20
0.168787
11
0.473993
21
0.171917
0
LINE
8
BLACK
6
CONTINUOUS
10
0.473993
20
0.171917
11
0.478964
21
0.173663
0
LINE
8
BLACK
6
CONTINUOUS
10
0.478964
20
0.173663
11
0.482283
21
0.173976
0
LINE
8
BLACK
6
CONTINUOUS
10
0.482283
20
0.173976
11
0.517717
21
0.173976
0
LINE
8
BLACK
6
CONTINUOUS
10
0.517717
20
0.173976
11
0.521036
21
0.173663
0
LINE
8
BLACK
6
CONTINUOUS
10
0.438897
20
0.236512
11
0.442962
21
0.234525
0
LINE
8
BLACK
6
CONTINUOUS
10
0.442962
20
0.234525
11
0.446165
21
0.231328
0
LINE
8
BLACK
6
CONTINUOUS
10
0.446165
20
0.231328
11
0.448159
21
0.227267
0
LINE
8
BLACK
6
CONTINUOUS
10
0.448159
20
0.227267
11
0.44874
21
0.223307
0
LINE
8
BLACK
6
CONTINUOUS
10
0.44874
20
0.223307
11
0.44874
21
0.211496
0
LINE
8
BLACK
6
CONTINUOUS
10
0.44874
20
0.211496
11
0.448166
21
0.207559
0
LINE
8
BLACK
6
CONTINUOUS
10
0.448166
20
0.207559
11
0.446179
21
0.203494
0
LINE
8
BLACK
6
CONTINUOUS
10
0.446179
20
0.203494
11
0.442982
21
0.200292
0
LINE
8
BLACK
6
CONTINUOUS
10
0.442982
20
0.200292
11
0.439739
21
0.198699
0
LINE
8
BLACK
6
CONTINUOUS
10
0.439739
20
0.198699
11
0.442962
21
0.197124
0
LINE
8
BLACK
6
CONTINUOUS
10
0.442962
20
0.197124
11
0.446165
21
0.193927
0
LINE
8
BLACK
6
CONTINUOUS
10
0.446165
20
0.193927
11
0.448159
21
0.189865
0
LINE
8
BLACK
6
CONTINUOUS
10
0.448159
20
0.189865
11
0.44874
21
0.185906
0
LINE
8
BLACK
6
CONTINUOUS
10
0.44874
20
0.185906
11
0.44874
21
0.174094
0
LINE
8
BLACK
6
CONTINUOUS
10
0.44874
20
0.174094
11
0.448166
21
0.170158
0
LINE
8
BLACK
6
CONTINUOUS
10
0.448166
20
0.170158
11
0.446179
21
0.166093
0
LINE
8
BLACK
6
CONTINUOUS
10
0.446179
20
0.166093
11
0.442982
21
0.16289
0
LINE
8
BLACK
6
CONTINUOUS
10
0.442982
20
0.16289
11
0.439739
21
0.161298
0
LINE
8
BLACK
6
CONTINUOUS
10
0.439739
20
0.161298
11
0.442962
21
0.159722
0
LINE
8
BLACK
6
CONTINUOUS
10
0.442962
20
0.159722
11
0.446165
21
0.156525
0
LINE
8
BLACK
6
CONTINUOUS
10
0.446165
20
0.156525
11
0.448159
21
0.152464
0
LINE
8
BLACK
6
CONTINUOUS
10
0.448159
20
0.152464
11
0.44874
21
0.148504
0
LINE
8
BLACK
6
CONTINUOUS
10
0.44874
20
0.148504
11
0.44874
21
0.136693
0
LINE
8
BLACK
6
CONTINUOUS
10
0.44874
20
0.136693
11
0.448166
21
0.132756
0
LINE
8
BLACK
6
CONTINUOUS
10
0.448166
20
0.132756
11
0.446179
21
0.128691
0
LINE
8
BLACK
6
CONTINUOUS
10
0.446179
20
0.128691
11
0.442982
21
0.125489
0
LINE
8
BLACK
6
CONTINUOUS
10
0.442982
20
0.125489
11
0.43892
21
0.123495
0
LINE
8
BLACK
6
CONTINUOUS
10
0.43892
20
0.123495
11
0.434961
21
0.122913
0
LINE
8
BLACK
6
CONTINUOUS
10
0.434961
20
0.122913
11
0.394606
21
0.122913
0
LINE
8
BLACK
6
CONTINUOUS
10
0.394606
20
0.122913
11
0.39067
21
0.123488
0
LINE
8
BLACK
6
CONTINUOUS
10
0.39067
20
0.123488
11
0.386604
21
0.125475
0
LINE
8
BLACK
6
CONTINUOUS
10
0.386604
20
0.125475
11
0.383402
21
0.128672
0
LINE
8
BLACK
6
CONTINUOUS
10
0.383402
20
0.128672
11
0.381408
21
0.132733
0
LINE
8
BLACK
6
CONTINUOUS
10
0.381408
20
0.132733
11
0.380827
21
0.136693
0
LINE
8
BLACK
6
CONTINUOUS
10
0.380827
20
0.136693
11
0.380827
21
0.148504
0
LINE
8
BLACK
6
CONTINUOUS
10
0.380827
20
0.148504
11
0.381401
21
0.152441
0
LINE
8
BLACK
6
CONTINUOUS
10
0.381401
20
0.152441
11
0.383388
21
0.156506
0
LINE
8
BLACK
6
CONTINUOUS
10
0.383388
20
0.156506
11
0.386585
21
0.159708
0
LINE
8
BLACK
6
CONTINUOUS
10
0.386585
20
0.159708
11
0.389828
21
0.161301
0
LINE
8
BLACK
6
CONTINUOUS
10
0.389828
20
0.161301
11
0.386604
21
0.162876
0
LINE
8
BLACK
6
CONTINUOUS
10
0.386604
20
0.162876
11
0.383402
21
0.166073
0
LINE
8
BLACK
6
CONTINUOUS
10
0.383402
20
0.166073
11
0.381408
21
0.170135
0
LINE
8
BLACK
6
CONTINUOUS
10
0.381408
20
0.170135
11
0.380827
21
0.174094
0
LINE
8
BLACK
6
CONTINUOUS
10
0.380827
20
0.174094
11
0.380827
21
0.185906
0
LINE
8
BLACK
6
CONTINUOUS
10
0.380827
20
0.185906
11
0.381401
21
0.189842
0
LINE
8
BLACK
6
CONTINUOUS
10
0.381401
20
0.189842
11
0.383388
21
0.193907
0
LINE
8
BLACK
6
CONTINUOUS
10
0.383388
20
0.193907
11
0.386585
21
0.19711
0
LINE
8
BLACK
6
CONTINUOUS
10
0.386585
20
0.19711
11
0.389828
21
0.198702
0
LINE
8
BLACK
6
CONTINUOUS
10
0.389828
20
0.198702
11
0.386604
21
0.200278
0
LINE
8
BLACK
6
CONTINUOUS
10
0.386604
20
0.200278
11
0.383402
21
0.203475
0
LINE
8
BLACK
6
CONTINUOUS
10
0.383402
20
0.203475
11
0.381408
21
0.207536
0
LINE
8
BLACK
6
CONTINUOUS
10
0.381408
20
0.207536
11
0.380827
21
0.211496
0
LINE
8
BLACK
6
CONTINUOUS
10
0.380827
20
0.211496
11
0.380827
21
0.223307
0
LINE
8
BLACK
6
CONTINUOUS
10
0.380827
20
0.223307
11
0.381401
21
0.227244
0
LINE
8
BLACK
6
CONTINUOUS
10
0.381401
20
0.227244
11
0.383388
21
0.231309
0
LINE
8
BLACK
6
CONTINUOUS
10
0.383388
20
0.231309
11
0.386585
21
0.234511
0
LINE
8
BLACK
6
CONTINUOUS
10
0.386585
20
0.234511
11
0.390647
21
0.236505
0
LINE
8
BLACK
6
CONTINUOUS
10
0.390647
20
0.236505
11
0.394606
21
0.237087
0
LINE
8
BLACK
6
CONTINUOUS
10
0.394606
20
0.237087
11
0.434961
21
0.237087
0
LINE
8
BLACK
6
CONTINUOUS
10
0.434961
20
0.237087
11
0.438897
21
0.236512
0
LINE
8
BLACK
6
CONTINUOUS
10
0.34933
20
0.236512
11
0.353396
21
0.234525
0
LINE
8
BLACK
6
CONTINUOUS
10
0.353396
20
0.234525
11
0.356598
21
0.231328
0
LINE
8
BLACK
6
CONTINUOUS
10
0.356598
20
0.231328
11
0.358592
21
0.227267
0
LINE
8
BLACK
6
CONTINUOUS
10
0.358592
20
0.227267
11
0.359173
21
0.223307
0
LINE
8
BLACK
6
CONTINUOUS
10
0.359173
20
0.223307
11
0.359173
21
0.211496
0
LINE
8
BLACK
6
CONTINUOUS
10
0.359173
20
0.211496
11
0.358599
21
0.207559
0
LINE
8
BLACK
6
CONTINUOUS
10
0.358599
20
0.207559
11
0.356612
21
0.203494
0
LINE
8
BLACK
6
CONTINUOUS
10
0.356612
20
0.203494
11
0.353415
21
0.200292
0
LINE
8
BLACK
6
CONTINUOUS
10
0.353415
20
0.200292
11
0.350172
21
0.198699
0
LINE
8
BLACK
6
CONTINUOUS
10
0.350172
20
0.198699
11
0.353396
21
0.197124
0
LINE
8
BLACK
6
CONTINUOUS
10
0.353396
20
0.197124
11
0.356598
21
0.193927
0
LINE
8
BLACK
6
CONTINUOUS
10
0.356598
20
0.193927
11
0.358592
21
0.189865
0
LINE
8
BLACK
6
CONTINUOUS
10
0.358592
20
0.189865
11
0.359173
21
0.185906
0
LINE
8
BLACK
6
CONTINUOUS
10
0.359173
20
0.185906
11
0.359173
21
0.174094
0
LINE
8
BLACK
6
CONTINUOUS
10
0.359173
20
0.174094
11
0.358599
21
0.170158
0
LINE
8
BLACK
6
CONTINUOUS
10
0.358599
20
0.170158
11
0.356612
21
0.166093
0
LINE
8
BLACK
6
CONTINUOUS
10
0.356612
20
0.166093
11
0.353415
21
0.16289
0
LINE
8
BLACK
6
CONTINUOUS
10
0.353415
20
0.16289
11
0.350172
21
0.161298
0
LINE
8
BLACK
6
CONTINUOUS
10
0.350172
20
0.161298
11
0.353396
21
0.159722
0
LINE
8
BLACK
6
CONTINUOUS
10
0.353396
20
0.159722
11
0.356598
21
0.156525
0
LINE
8
BLACK
6
CONTINUOUS
10
0.356598
20
0.156525
11
0.358592
21
0.152464
0
LINE
8
BLACK
6
CONTINUOUS
10
0.358592
20
0.152464
11
0.359173
21
0.148504
0
LINE
8
BLACK
6
CONTINUOUS
10
0.359173
20
0.148504
11
0.359173
21
0.136693
0
LINE
8
BLACK
6
CONTINUOUS
10
0.359173
20
0.136693
11
0.358599
21
0.132756
0
LINE
8
BLACK
6
CONTINUOUS
10
0.358599
20
0.132756
11
0.356612
21
0.128691
0
LINE
8
BLACK
6
CONTINUOUS
10
0.356612
20
0.128691
11
0.353415
21
0.125489
0
LINE
8
BLACK
6
CONTINUOUS
10
0.353415
20
0.125489
11
0.349353
21
0.123495
0
LINE
8
BLACK
6
CONTINUOUS
10
0.349353
20
0.123495
11
0.345394
21
0.122913
0
LINE
8
BLACK
6
CONTINUOUS
10
0.345394
20
0.122913
11
0.305039
21
0.122913
0
LINE
8
BLACK
6
CONTINUOUS
10
0.305039
20
0.122913
11
0.301103
21
0.123488
0
LINE
8
BLACK
6
CONTINUOUS
10
0.301103
20
0.123488
11
0.297038
21
0.125475
0
LINE
8
BLACK
6
CONTINUOUS
10
0.297038
20
0.125475
11
0.293835
21
0.128672
0
LINE
8
BLACK
6
CONTINUOUS
10
0.293835
20
0.128672
11
0.291841
21
0.132733
0
LINE
8
BLACK
6
CONTINUOUS
10
0.291841
20
0.132733
11
0.29126
21
0.136693
0
LINE
8
BLACK
6
CONTINUOUS
10
0.29126
20
0.136693
11
0.29126
21
0.148504
0
LINE
8
BLACK
6
CONTINUOUS
10
0.29126
20
0.148504
11
0.291834
21
0.152441
0
LINE
8
BLACK
6
CONTINUOUS
10
0.291834
20
0.152441
11
0.293821
21
0.156506
0
LINE
8
BLACK
6
CONTINUOUS
10
0.293821
20
0.156506
11
0.297018
21
0.159708
0
LINE
8
BLACK
6
CONTINUOUS
10
0.297018
20
0.159708
11
0.300261
21
0.161301
0
LINE
8
BLACK
6
CONTINUOUS
10
0.300261
20
0.161301
11
0.297038
21
0.162876
0
LINE
8
BLACK
6
CONTINUOUS
10
0.297038
20
0.162876
11
0.293835
21
0.166073
0
LINE
8
BLACK
6
CONTINUOUS
10
0.293835
20
0.166073
11
0.291841
21
0.170135
0
LINE
8
BLACK
6
CONTINUOUS
10
0.291841
20
0.170135
11
0.29126
21
0.174094
0
LINE
8
BLACK
6
CONTINUOUS
10
0.29126
20
0.174094
11
0.29126
21
0.185906
0
LINE
8
BLACK
6
CONTINUOUS
10
0.29126
20
0.185906
11
0.291834
21
0.189842
0
LINE
8
BLACK
6
CONTINUOUS
10
0.291834
20
0.189842
11
0.293821
21
0.193907
0
LINE
8
BLACK
6
CONTINUOUS
10
0.293821
20
0.193907
11
0.297018
21
0.19711
0
LINE
8
BLACK
6
CONTINUOUS
10
0.297018
20
0.19711
11
0.300261
21
0.198702
0
LINE
8
BLACK
6
CONTINUOUS
10
0.300261
20
0.198702
11
0.297038
21
0.200278
0
LINE
8
BLACK
6
CONTINUOUS
10
0.297038
20
0.200278
11
0.293835
21
0.203475
0
LINE
8
BLACK
6
CONTINUOUS
10
0.293835
20
0.203475
11
0.291841
21
0.207536
0
LINE
8
BLACK
6
CONTINUOUS
10
0.291841
20
0.207536
11
0.29126
21
0.211496
0
LINE
8
BLACK
6
CONTINUOUS
10
0.29126
20
0.211496
11
0.29126
21
0.223307
0
LINE
8
BLACK
6
CONTINUOUS
10
0.29126
20
0.223307
11
0.291834
21
0.227244
0
LINE
8
BLACK
6
CONTINUOUS
10
0.291834
20
0.227244
11
0.293821
21
0.231309
0
LINE
8
BLACK
6
CONTINUOUS
10
0.293821
20
0.231309
11
0.297018
21
0.234511
0
LINE
8
BLACK
6
CONTINUOUS
10
0.297018
20
0.234511
11
0.30108
21
0.236505
0
LINE
8
BLACK
6
CONTINUOUS
10
0.30108
20
0.236505
11
0.305039
21
0.237087
0
LINE
8
BLACK
6
CONTINUOUS
10
0.305039
20
0.237087
11
0.345394
21
0.237087
0
LINE
8
BLACK
6
CONTINUOUS
10
0.345394
20
0.237087
11
0.34933
21
0.236512
0
LINE
8
BLACK
6
CONTINUOUS
10
1.03782
20
0.168928
11
1.04037
21
0.167221
0
LINE
8
BLACK
6
CONTINUOUS
10
1.04037
20
0.167221
11
1.04208
21
0.164667
0
LINE
8
BLACK
6
CONTINUOUS
10
1.04208
20
0.164667
11
1.04268
21
0.161654
0
LINE
8
BLACK
6
CONTINUOUS
10
1.04268
20
0.161654
11
1.04268
21
0.138031
0
LINE
8
BLACK
6
CONTINUOUS
10
1.04268
20
0.138031
11
1.04208
21
0.135018
0
LINE
8
BLACK
6
CONTINUOUS
10
1.04208
20
0.135018
11
1.04037
21
0.132464
0
LINE
8
BLACK
6
CONTINUOUS
10
1.04037
20
0.132464
11
1.03782
21
0.130757
0
LINE
8
BLACK
6
CONTINUOUS
10
1.03782
20
0.130757
11
1.0348
21
0.130157
0
LINE
8
BLACK
6
CONTINUOUS
10
1.0348
20
0.130157
11
1.00724
21
0.130157
0
LINE
8
BLACK
6
CONTINUOUS
10
1.00724
20
0.130157
11
1.00423
21
0.130757
0
LINE
8
BLACK
6
CONTINUOUS
10
1.00423
20
0.130757
11
1.00168
21
0.132464
0
LINE
8
BLACK
6
CONTINUOUS
10
1.00168
20
0.132464
11
0.999969
21
0.135018
0
LINE
8
BLACK
6
CONTINUOUS
10
0.999969
20
0.135018
11
0.99937
21
0.138031
0
LINE
8
BLACK
6
CONTINUOUS
10
0.99937
20
0.138031
11
0.99937
21
0.161654
0
LINE
8
BLACK
6
CONTINUOUS
10
0.99937
20
0.161654
11
0.999969
21
0.164667
0
LINE
8
BLACK
6
CONTINUOUS
10
0.999969
20
0.164667
11
1.00168
21
0.167221
0
LINE
8
BLACK
6
CONTINUOUS
10
1.00168
20
0.167221
11
1.00423
21
0.168928
0
LINE
8
BLACK
6
CONTINUOUS
10
1.00423
20
0.168928
11
1.00724
21
0.169528
0
LINE
8
BLACK
6
CONTINUOUS
10
1.00724
20
0.169528
11
1.0348
21
0.169528
0
LINE
8
BLACK
6
CONTINUOUS
10
1.0348
20
0.169528
11
1.03782
21
0.168928
0
LINE
8
BLACK
6
CONTINUOUS
10
1.33832
20
0.204647
11
1.34329
21
0.202901
0
LINE
8
BLACK
6
CONTINUOUS
10
1.34329
20
0.202901
11
1.34753
21
0.199772
0
LINE
8
BLACK
6
CONTINUOUS
10
1.34753
20
0.199772
11
1.35066
21
0.195534
0
LINE
8
BLACK
6
CONTINUOUS
10
1.35066
20
0.195534
11
1.3524
21
0.190564
0
LINE
8
BLACK
6
CONTINUOUS
10
1.3524
20
0.190564
11
1.35272
21
0.187244
0
LINE
8
BLACK
6
CONTINUOUS
10
1.35272
20
0.187244
11
1.35272
21
0.167559
0
LINE
8
BLACK
6
CONTINUOUS
10
1.35272
20
0.167559
11
1.3524
21
0.164239
0
LINE
8
BLACK
6
CONTINUOUS
10
1.3524
20
0.164239
11
1.35066
21
0.159269
0
LINE
8
BLACK
6
CONTINUOUS
10
1.35066
20
0.159269
11
1.34753
21
0.155032
0
LINE
8
BLACK
6
CONTINUOUS
10
1.34753
20
0.155032
11
1.34329
21
0.151902
0
LINE
8
BLACK
6
CONTINUOUS
10
1.34329
20
0.151902
11
1.33832
21
0.150156
0
LINE
8
BLACK
6
CONTINUOUS
10
1.33832
20
0.150156
11
1.335
21
0.149843
0
LINE
8
BLACK
6
CONTINUOUS
10
1.335
20
0.149843
11
1.2976
21
0.149843
0
LINE
8
BLACK
6
CONTINUOUS
10
1.2976
20
0.149843
11
1.29428
21
0.150156
0
LINE
8
BLACK
6
CONTINUOUS
10
1.29428
20
0.150156
11
1.28931
21
0.151902
0
LINE
8
BLACK
6
CONTINUOUS
10
1.28931
20
0.151902
11
1.28507
21
0.155032
0
LINE
8
BLACK
6
CONTINUOUS
10
1.28507
20
0.155032
11
1.28194
21
0.159269
0
LINE
8
BLACK
6
CONTINUOUS
10
1.28194
20
0.159269
11
1.2802
21
0.164239
0
LINE
8
BLACK
6
CONTINUOUS
10
1.2802
20
0.164239
11
1.27988
21
0.167559
0
LINE
8
BLACK
6
CONTINUOUS
10
1.27988
20
0.167559
11
1.27988
21
0.187244
0
LINE
8
BLACK
6
CONTINUOUS
10
1.27988
20
0.187244
11
1.2802
21
0.190564
0
LINE
8
BLACK
6
CONTINUOUS
10
1.2802
20
0.190564
11
1.28194
21
0.195534
0
LINE
8
BLACK
6
CONTINUOUS
10
1.28194
20
0.195534
11
1.28507
21
0.199772
0
LINE
8
BLACK
6
CONTINUOUS
10
1.28507
20
0.199772
11
1.28931
21
0.202901
0
LINE
8
BLACK
6
CONTINUOUS
10
1.28931
20
0.202901
11
1.29428
21
0.204647
0
LINE
8
BLACK
6
CONTINUOUS
10
1.29428
20
0.204647
11
1.2976
21
0.204961
0
LINE
8
BLACK
6
CONTINUOUS
10
1.2976
20
0.204961
11
1.335
21
0.204961
0
LINE
8
BLACK
6
CONTINUOUS
10
1.335
20
0.204961
11
1.33832
21
0.204647
0
LINE
8
BLACK
6
CONTINUOUS
10
1.43674
20
0.204647
11
1.44172
21
0.202901
0
LINE
8
BLACK
6
CONTINUOUS
10
1.44172
20
0.202901
11
1.44595
21
0.199772
0
LINE
8
BLACK
6
CONTINUOUS
10
1.44595
20
0.199772
11
1.44908
21
0.195534
0
LINE
8
BLACK
6
CONTINUOUS
10
1.44908
20
0.195534
11
1.45083
21
0.190564
0
LINE
8
BLACK
6
CONTINUOUS
10
1.45083
20
0.190564
11
1.45114
21
0.187244
0
LINE
8
BLACK
6
CONTINUOUS
10
1.45114
20
0.187244
11
1.45114
21
0.167559
0
LINE
8
BLACK
6
CONTINUOUS
10
1.45114
20
0.167559
11
1.45083
21
0.164239
0
LINE
8
BLACK
6
CONTINUOUS
10
1.45083
20
0.164239
11
1.44908
21
0.159269
0
LINE
8
BLACK
6
CONTINUOUS
10
1.44908
20
0.159269
11
1.44595
21
0.155032
0
LINE
8
BLACK
6
CONTINUOUS
10
1.44595
20
0.155032
11
1.44172
21
0.151902
0
LINE
8
BLACK
6
CONTINUOUS
10
1.44172
20
0.151902
11
1.43674
21
0.150156
0
LINE
8
BLACK
6
CONTINUOUS
10
1.43674
20
0.150156
11
1.43343
21
0.149843
0
LINE
8
BLACK
6
CONTINUOUS
10
1.43343
20
0.149843
11
1.39602
21
0.149843
0
LINE
8
BLACK
6
CONTINUOUS
10
1.39602
20
0.149843
11
1.3927
21
0.150156
0
LINE
8
BLACK
6
CONTINUOUS
10
1.3927
20
0.150156
11
1.38773
21
0.151902
0
LINE
8
BLACK
6
CONTINUOUS
10
1.38773
20
0.151902
11
1.3835
21
0.155032
0
LINE
8
BLACK
6
CONTINUOUS
10
1.3835
20
0.155032
11
1.38037
21
0.159269
0
LINE
8
BLACK
6
CONTINUOUS
10
1.38037
20
0.159269
11
1.37862
21
0.164239
0
LINE
8
BLACK
6
CONTINUOUS
10
1.37862
20
0.164239
11
1.37831
21
0.167559
0
LINE
8
BLACK
6
CONTINUOUS
10
1.37831
20
0.167559
11
1.37831
21
0.187244
0
LINE
8
BLACK
6
CONTINUOUS
10
1.37831
20
0.187244
11
1.37862
21
0.190564
0
LINE
8
BLACK
6
CONTINUOUS
10
1.37862
20
0.190564
11
1.38037
21
0.195534
0
LINE
8
BLACK
6
CONTINUOUS
10
1.38037
20
0.195534
11
1.3835
21
0.199772
0
LINE
8
BLACK
6
CONTINUOUS
10
1.3835
20
0.199772
11
1.38773
21
0.202901
0
LINE
8
BLACK
6
CONTINUOUS
10
1.38773
20
0.202901
11
1.3927
21
0.204647
0
LINE
8
BLACK
6
CONTINUOUS
10
1.3927
20
0.204647
11
1.39602
21
0.204961
0
LINE
8
BLACK
6
CONTINUOUS
10
1.39602
20
0.204961
11
1.43343
21
0.204961
0
LINE
8
BLACK
6
CONTINUOUS
10
1.43343
20
0.204961
11
1.43674
21
0.204647
0
LINE
8
BLACK
6
CONTINUOUS
10
2.39301
20
0.237275
11
2.39557
21
0.235568
0
LINE
8
BLACK
6
CONTINUOUS
10
2.39557
20
0.235568
11
2.39727
21
0.233013
0
LINE
8
BLACK
6
CONTINUOUS
10
2.39727
20
0.233013
11
2.39787
21
0.23
0
LINE
8
BLACK
6
CONTINUOUS
10
2.39787
20
0.23
11
2.39787
21
0.17
0
LINE
8
BLACK
6
CONTINUOUS
10
2.39787
20
0.17
11
2.39727
21
0.166987
0
LINE
8
BLACK
6
CONTINUOUS
10
2.39727
20
0.166987
11
2.39557
21
0.164432
0
LINE
8
BLACK
6
CONTINUOUS
10
2.39557
20
0.164432
11
2.39301
21
0.162725
0
LINE
8
BLACK
6
CONTINUOUS
10
2.39301
20
0.162725
11
2.39
21
0.162126
0
LINE
8
BLACK
6
CONTINUOUS
10
2.39
20
0.162126
11
2.33
21
0.162126
0
LINE
8
BLACK
6
CONTINUOUS
10
2.33
20
0.162126
11
2.32699
21
0.162725
0
LINE
8
BLACK
6
CONTINUOUS
10
2.32699
20
0.162725
11
2.32443
21
0.164432
0
LINE
8
BLACK
6
CONTINUOUS
10
2.32443
20
0.164432
11
2.32273
21
0.166987
0
LINE
8
BLACK
6
CONTINUOUS
10
2.32273
20
0.166987
11
2.32213
21
0.17
0
LINE
8
BLACK
6
CONTINUOUS
10
2.32213
20
0.17
11
2.32213
21
0.23
0
LINE
8
BLACK
6
CONTINUOUS
10
2.32213
20
0.23
11
2.32273
21
0.233013
0
LINE
8
BLACK
6
CONTINUOUS
10
2.32273
20
0.233013
11
2.32443
21
0.235568
0
LINE
8
BLACK
6
CONTINUOUS
10
2.32443
20
0.235568
11
2.32699
21
0.237275
0
LINE
8
BLACK
6
CONTINUOUS
10
2.32699
20
0.237275
11
2.33
21
0.237874
0
LINE
8
BLACK
6
CONTINUOUS
10
2.33
20
0.237874
11
2.39
21
0.237874
0
LINE
8
BLACK
6
CONTINUOUS
10
2.39
20
0.237874
11
2.39301
21
0.237275
0
LINE
8
BLACK
6
CONTINUOUS
10
2.29301
20
0.237275
11
2.29557
21
0.235568
0
LINE
8
BLACK
6
CONTINUOUS
10
2.29557
20
0.235568
11
2.29727
21
0.233013
0
LINE
8
BLACK
6
CONTINUOUS
10
2.29727
20
0.233013
11
2.29787
21
0.23
0
LINE
8
BLACK
6
CONTINUOUS
10
2.29787
20
0.23
11
2.29787
21
0.17
0
LINE
8
BLACK
6
CONTINUOUS
10
2.29787
20
0.17
11
2.29727
21
0.166987
0
LINE
8
BLACK
6
CONTINUOUS
10
2.29727
20
0.166987
11
2.29557
21
0.164432
0
LINE
8
BLACK
6
CONTINUOUS
10
2.29557
20
0.164432
11
2.29301
21
0.162725
0
LINE
8
BLACK
6
CONTINUOUS
10
2.29301
20
0.162725
11
2.29
21
0.162126
0
LINE
8
BLACK
6
CONTINUOUS
10
2.29
20
0.162126
11
2.23
21
0.162126
0
LINE
8
BLACK
6
CONTINUOUS
10
2.23
20
0.162126
11
2.22699
21
0.162725
0
LINE
8
BLACK
6
CONTINUOUS
10
2.22699
20
0.162725
11
2.22443
21
0.164432
0
LINE
8
BLACK
6
CONTINUOUS
10
2.22443
20
0.164432
11
2.22273
21
0.166987
0
LINE
8
BLACK
6
CONTINUOUS
10
2.22273
20
0.166987
11
2.22213
21
0.17
0
LINE
8
BLACK
6
CONTINUOUS
10
2.22213
20
0.17
11
2.22213
21
0.23
0
LINE
8
BLACK
6
CONTINUOUS
10
2.22213
20
0.23
11
2.22273
21
0.233013
0
LINE
8
BLACK
6
CONTINUOUS
10
2.22273
20
0.233013
11
2.22443
21
0.235568
0
LINE
8
BLACK
6
CONTINUOUS
10
2.22443
20
0.235568
11
2.22699
21
0.237275
0
LINE
8
BLACK
6
CONTINUOUS
10
2.22699
20
0.237275
11
2.23
21
0.237874
0
LINE
8
BLACK
6
CONTINUOUS
10
2.23
20
0.237874
11
2.29
21
0.237874
0
LINE
8
BLACK
6
CONTINUOUS
10
2.29
20
0.237874
11
2.29301
21
0.237275
0
LINE
8
BLACK
6
CONTINUOUS
10
0.621804
20
0.255119
11
0.626774
21
0.253374
0
LINE
8
BLACK
6
CONTINUOUS
10
0.626774
20
0.253374
11
0.631012
21
0.250244
0
LINE
8
BLACK
6
CONTINUOUS
10
0.631012
20
0.250244
11
0.634142
21
0.246007
0
LINE
8
BLACK
6
CONTINUOUS
10
0.634142
20
0.246007
11
0.635887
21
0.241036
0
LINE
8
BLACK
6
CONTINUOUS
10
0.635887
20
0.241036
11
0.636201
21
0.237717
0
LINE
8
BLACK
6
CONTINUOUS
10
0.636201
20
0.237717
11
0.636201
21
0.202283
0
LINE
8
BLACK
6
CONTINUOUS
10
0.636201
20
0.202283
11
0.635887
21
0.198964
0
LINE
8
BLACK
6
CONTINUOUS
10
0.635887
20
0.198964
11
0.634142
21
0.193993
0
LINE
8
BLACK
6
CONTINUOUS
10
0.634142
20
0.193993
11
0.631012
21
0.189756
0
LINE
8
BLACK
6
CONTINUOUS
10
0.631012
20
0.189756
11
0.626774
21
0.186626
0
LINE
8
BLACK
6
CONTINUOUS
10
0.626774
20
0.186626
11
0.621804
21
0.184881
0
LINE
8
BLACK
6
CONTINUOUS
10
0.621804
20
0.184881
11
0.618484
21
0.184567
0
LINE
8
BLACK
6
CONTINUOUS
10
0.618484
20
0.184567
11
0.597815
21
0.184567
0
LINE
8
BLACK
6
CONTINUOUS
10
0.597815
20
0.184567
11
0.594495
21
0.184881
0
LINE
8
BLACK
6
CONTINUOUS
10
0.594495
20
0.184881
11
0.589525
21
0.186626
0
LINE
8
BLACK
6
CONTINUOUS
10
0.589525
20
0.186626
11
0.585287
21
0.189756
0
LINE
8
BLACK
6
CONTINUOUS
10
0.585287
20
0.189756
11
0.582158
21
0.193993
0
LINE
8
BLACK
6
CONTINUOUS
10
0.582158
20
0.193993
11
0.580412
21
0.198964
0
LINE
8
BLACK
6
CONTINUOUS
10
0.580412
20
0.198964
11
0.580098
21
0.202283
0
LINE
8
BLACK
6
CONTINUOUS
10
0.580098
20
0.202283
11
0.580098
21
0.237717
0
LINE
8
BLACK
6
CONTINUOUS
10
0.580098
20
0.237717
11
0.580412
21
0.241036
0
LINE
8
BLACK
6
CONTINUOUS
10
0.580412
20
0.241036
11
0.582158
21
0.246007
0
LINE
8
BLACK
6
CONTINUOUS
10
0.582158
20
0.246007
11
0.585287
21
0.250244
0
LINE
8
BLACK
6
CONTINUOUS
10
0.585287
20
0.250244
11
0.589525
21
0.253374
0
LINE
8
BLACK
6
CONTINUOUS
10
0.589525
20
0.253374
11
0.594495
21
0.255119
0
LINE
8
BLACK
6
CONTINUOUS
10
0.594495
20
0.255119
11
0.597815
21
0.255433
0
LINE
8
BLACK
6
CONTINUOUS
10
0.597815
20
0.255433
11
0.618484
21
0.255433
0
LINE
8
BLACK
6
CONTINUOUS
10
0.618484
20
0.255433
11
0.621804
21
0.255119
0
LINE
8
BLACK
6
CONTINUOUS
10
0.693654
20
0.255119
11
0.698625
21
0.253374
0
LINE
8
BLACK
6
CONTINUOUS
10
0.698625
20
0.253374
11
0.702862
21
0.250244
0
LINE
8
BLACK
6
CONTINUOUS
10
0.702862
20
0.250244
11
0.705992
21
0.246007
0
LINE
8
BLACK
6
CONTINUOUS
10
0.705992
20
0.246007
11
0.707737
21
0.241036
0
LINE
8
BLACK
6
CONTINUOUS
10
0.707737
20
0.241036
11
0.708051
21
0.237717
0
LINE
8
BLACK
6
CONTINUOUS
10
0.708051
20
0.237717
11
0.708051
21
0.202283
0
LINE
8
BLACK
6
CONTINUOUS
10
0.708051
20
0.202283
11
0.707737
21
0.198964
0
LINE
8
BLACK
6
CONTINUOUS
10
0.707737
20
0.198964
11
0.705992
21
0.193993
0
LINE
8
BLACK
6
CONTINUOUS
10
0.705992
20
0.193993
11
0.702862
21
0.189756
0
LINE
8
BLACK
6
CONTINUOUS
10
0.702862
20
0.189756
11
0.698625
21
0.186626
0
LINE
8
BLACK
6
CONTINUOUS
10
0.698625
20
0.186626
11
0.693654
21
0.184881
0
LINE
8
BLACK
6
CONTINUOUS
10
0.693654
20
0.184881
11
0.690335
21
0.184567
0
LINE
8
BLACK
6
CONTINUOUS
10
0.690335
20
0.184567
11
0.669665
21
0.184567
0
LINE
8
BLACK
6
CONTINUOUS
10
0.669665
20
0.184567
11
0.666346
21
0.184881
0
LINE
8
BLACK
6
CONTINUOUS
10
0.666346
20
0.184881
11
0.661375
21
0.186626
0
LINE
8
BLACK
6
CONTINUOUS
10
0.661375
20
0.186626
11
0.657138
21
0.189756
0
LINE
8
BLACK
6
CONTINUOUS
10
0.657138
20
0.189756
11
0.654008
21
0.193993
0
LINE
8
BLACK
6
CONTINUOUS
10
0.654008
20
0.193993
11
0.652263
21
0.198964
0
LINE
8
BLACK
6
CONTINUOUS
10
0.652263
20
0.198964
11
0.651949
21
0.202283
0
LINE
8
BLACK
6
CONTINUOUS
10
0.651949
20
0.202283
11
0.651949
21
0.237717
0
LINE
8
BLACK
6
CONTINUOUS
10
0.651949
20
0.237717
11
0.652263
21
0.241036
0
LINE
8
BLACK
6
CONTINUOUS
10
0.652263
20
0.241036
11
0.654008
21
0.246007
0
LINE
8
BLACK
6
CONTINUOUS
10
0.654008
20
0.246007
11
0.657138
21
0.250244
0
LINE
8
BLACK
6
CONTINUOUS
10
0.657138
20
0.250244
11
0.661375
21
0.253374
0
LINE
8
BLACK
6
CONTINUOUS
10
0.661375
20
0.253374
11
0.666346
21
0.255119
0
LINE
8
BLACK
6
CONTINUOUS
10
0.666346
20
0.255119
11
0.669665
21
0.255433
0
LINE
8
BLACK
6
CONTINUOUS
10
0.669665
20
0.255433
11
0.690335
21
0.255433
0
LINE
8
BLACK
6
CONTINUOUS
10
0.690335
20
0.255433
11
0.693654
21
0.255119
0
LINE
8
BLACK
6
CONTINUOUS
10
1.03782
20
0.224046
11
1.04037
21
0.222339
0
LINE
8
BLACK
6
CONTINUOUS
10
1.04037
20
0.222339
11
1.04208
21
0.219785
0
LINE
8
BLACK
6
CONTINUOUS
10
1.04208
20
0.219785
11
1.04268
21
0.216772
0
LINE
8
BLACK
6
CONTINUOUS
10
1.04268
20
0.216772
11
1.04268
21
0.19315
0
LINE
8
BLACK
6
CONTINUOUS
10
1.04268
20
0.19315
11
1.04208
21
0.190136
0
LINE
8
BLACK
6
CONTINUOUS
10
1.04208
20
0.190136
11
1.04037
21
0.187582
0
LINE
8
BLACK
6
CONTINUOUS
10
1.04037
20
0.187582
11
1.03782
21
0.185875
0
LINE
8
BLACK
6
CONTINUOUS
10
1.03782
20
0.185875
11
1.0348
21
0.185276
0
LINE
8
BLACK
6
CONTINUOUS
10
1.0348
20
0.185276
11
1.00724
21
0.185276
0
LINE
8
BLACK
6
CONTINUOUS
10
1.00724
20
0.185276
11
1.00423
21
0.185875
0
LINE
8
BLACK
6
CONTINUOUS
10
1.00423
20
0.185875
11
1.00168
21
0.187582
0
LINE
8
BLACK
6
CONTINUOUS
10
1.00168
20
0.187582
11
0.999969
21
0.190136
0
LINE
8
BLACK
6
CONTINUOUS
10
0.999969
20
0.190136
11
0.99937
21
0.19315
0
LINE
8
BLACK
6
CONTINUOUS
10
0.99937
20
0.19315
11
0.99937
21
0.216772
0
LINE
8
BLACK
6
CONTINUOUS
10
0.99937
20
0.216772
11
0.999969
21
0.219785
0
LINE
8
BLACK
6
CONTINUOUS
10
0.999969
20
0.219785
11
1.00168
21
0.222339
0
LINE
8
BLACK
6
CONTINUOUS
10
1.00168
20
0.222339
11
1.00423
21
0.224046
0
LINE
8
BLACK
6
CONTINUOUS
10
1.00423
20
0.224046
11
1.00724
21
0.224646
0
LINE
8
BLACK
6
CONTINUOUS
10
1.00724
20
0.224646
11
1.0348
21
0.224646
0
LINE
8
BLACK
6
CONTINUOUS
10
1.0348
20
0.224646
11
1.03782
21
0.224046
0
LINE
8
BLACK
6
CONTINUOUS
10
1.23989
20
0.242048
11
1.24486
21
0.240303
0
LINE
8
BLACK
6
CONTINUOUS
10
1.24486
20
0.240303
11
1.2491
21
0.237173
0
LINE
8
BLACK
6
CONTINUOUS
10
1.2491
20
0.237173
11
1.25223
21
0.232936
0
LINE
8
BLACK
6
CONTINUOUS
10
1.25223
20
0.232936
11
1.25398
21
0.227965
0
LINE
8
BLACK
6
CONTINUOUS
10
1.25398
20
0.227965
11
1.25429
21
0.224646
0
LINE
8
BLACK
6
CONTINUOUS
10
1.25429
20
0.224646
11
1.25429
21
0.204961
0
LINE
8
BLACK
6
CONTINUOUS
10
1.25429
20
0.204961
11
1.25398
21
0.201641
0
LINE
8
BLACK
6
CONTINUOUS
10
1.25398
20
0.201641
11
1.25223
21
0.196671
0
LINE
8
BLACK
6
CONTINUOUS
10
1.25223
20
0.196671
11
1.2491
21
0.192433
0
LINE
8
BLACK
6
CONTINUOUS
10
1.2491
20
0.192433
11
1.24486
21
0.189303
0
LINE
8
BLACK
6
CONTINUOUS
10
1.24486
20
0.189303
11
1.23989
21
0.187558
0
LINE
8
BLACK
6
CONTINUOUS
10
1.23989
20
0.187558
11
1.23657
21
0.187244
0
LINE
8
BLACK
6
CONTINUOUS
10
1.23657
20
0.187244
11
1.19917
21
0.187244
0
LINE
8
BLACK
6
CONTINUOUS
10
1.19917
20
0.187244
11
1.19585
21
0.187558
0
LINE
8
BLACK
6
CONTINUOUS
10
1.19585
20
0.187558
11
1.19088
21
0.189303
0
LINE
8
BLACK
6
CONTINUOUS
10
1.19088
20
0.189303
11
1.18665
21
0.192433
0
LINE
8
BLACK
6
CONTINUOUS
10
1.18665
20
0.192433
11
1.18352
21
0.196671
0
LINE
8
BLACK
6
CONTINUOUS
10
1.18352
20
0.196671
11
1.18177
21
0.201641
0
LINE
8
BLACK
6
CONTINUOUS
10
1.18177
20
0.201641
11
1.18146
21
0.204961
0
LINE
8
BLACK
6
CONTINUOUS
10
1.18146
20
0.204961
11
1.18146
21
0.224646
0
LINE
8
BLACK
6
CONTINUOUS
10
1.18146
20
0.224646
11
1.18177
21
0.227965
0
LINE
8
BLACK
6
CONTINUOUS
10
1.18177
20
0.227965
11
1.18352
21
0.232936
0
LINE
8
BLACK
6
CONTINUOUS
10
1.18352
20
0.232936
11
1.18665
21
0.237173
0
LINE
8
BLACK
6
CONTINUOUS
10
1.18665
20
0.237173
11
1.19088
21
0.240303
0
LINE
8
BLACK
6
CONTINUOUS
10
1.19088
20
0.240303
11
1.19585
21
0.242048
0
LINE
8
BLACK
6
CONTINUOUS
10
1.19585
20
0.242048
11
1.19917
21
0.242362
0
LINE
8
BLACK
6
CONTINUOUS
10
1.19917
20
0.242362
11
1.23657
21
0.242362
0
LINE
8
BLACK
6
CONTINUOUS
10
1.23657
20
0.242362
11
1.23989
21
0.242048
0
LINE
8
BLACK
6
CONTINUOUS
10
1.62769
20
0.242048
11
1.63266
21
0.240303
0
LINE
8
BLACK
6
CONTINUOUS
10
1.63266
20
0.240303
11
1.6369
21
0.237173
0
LINE
8
BLACK
6
CONTINUOUS
10
1.6369
20
0.237173
11
1.64003
21
0.232936
0
LINE
8
BLACK
6
CONTINUOUS
10
1.64003
20
0.232936
11
1.64177
21
0.227965
0
LINE
8
BLACK
6
CONTINUOUS
10
1.64177
20
0.227965
11
1.64209
21
0.224646
0
LINE
8
BLACK
6
CONTINUOUS
10
1.64209
20
0.224646
11
1.64209
21
0.204961
0
LINE
8
BLACK
6
CONTINUOUS
10
1.64209
20
0.204961
11
1.64177
21
0.201641
0
LINE
8
BLACK
6
CONTINUOUS
10
1.64177
20
0.201641
11
1.64003
21
0.196671
0
LINE
8
BLACK
6
CONTINUOUS
10
1.64003
20
0.196671
11
1.6369
21
0.192433
0
LINE
8
BLACK
6
CONTINUOUS
10
1.6369
20
0.192433
11
1.63266
21
0.189303
0
LINE
8
BLACK
6
CONTINUOUS
10
1.63266
20
0.189303
11
1.62769
21
0.187558
0
LINE
8
BLACK
6
CONTINUOUS
10
1.62769
20
0.187558
11
1.62437
21
0.187244
0
LINE
8
BLACK
6
CONTINUOUS
10
1.62437
20
0.187244
11
1.58697
21
0.187244
0
LINE
8
BLACK
6
CONTINUOUS
10
1.58697
20
0.187244
11
1.58365
21
0.187558
0
LINE
8
BLACK
6
CONTINUOUS
10
1.58365
20
0.187558
11
1.57868
21
0.189303
0
LINE
8
BLACK
6
CONTINUOUS
10
1.57868
20
0.189303
11
1.57444
21
0.192433
0
LINE
8
BLACK
6
CONTINUOUS
10
1.57444
20
0.192433
11
1.57131
21
0.196671
0
LINE
8
BLACK
6
CONTINUOUS
10
1.57131
20
0.196671
11
1.56957
21
0.201641
0
LINE
8
BLACK
6
CONTINUOUS
10
1.56957
20
0.201641
11
1.56925
21
0.204961
0
LINE
8
BLACK
6
CONTINUOUS
10
1.56925
20
0.204961
11
1.56925
21
0.224646
0
LINE
8
BLACK
6
CONTINUOUS
10
1.56925
20
0.224646
11
1.56957
21
0.227965
0
LINE
8
BLACK
6
CONTINUOUS
10
1.56957
20
0.227965
11
1.57131
21
0.232936
0
LINE
8
BLACK
6
CONTINUOUS
10
1.57131
20
0.232936
11
1.57444
21
0.237173
0
LINE
8
BLACK
6
CONTINUOUS
10
1.57444
20
0.237173
11
1.57868
21
0.240303
0
LINE
8
BLACK
6
CONTINUOUS
10
1.57868
20
0.240303
11
1.58365
21
0.242048
0
LINE
8
BLACK
6
CONTINUOUS
10
1.58365
20
0.242048
11
1.58697
21
0.242362
0
LINE
8
BLACK
6
CONTINUOUS
10
1.58697
20
0.242362
11
1.62437
21
0.242362
0
LINE
8
BLACK
6
CONTINUOUS
10
1.62437
20
0.242362
11
1.62769
21
0.242048
0
LINE
8
BLACK
6
CONTINUOUS
10
1.14147
20
0.242048
11
1.14644
21
0.240303
0
LINE
8
BLACK
6
CONTINUOUS
10
1.14644
20
0.240303
11
1.15068
21
0.237173
0
LINE
8
BLACK
6
CONTINUOUS
10
1.15068
20
0.237173
11
1.15381
21
0.232936
0
LINE
8
BLACK
6
CONTINUOUS
10
1.15381
20
0.232936
11
1.15555
21
0.227965
0
LINE
8
BLACK
6
CONTINUOUS
10
1.15555
20
0.227965
11
1.15587
21
0.224646
0
LINE
8
BLACK
6
CONTINUOUS
10
1.15587
20
0.224646
11
1.15587
21
0.204961
0
LINE
8
BLACK
6
CONTINUOUS
10
1.15587
20
0.204961
11
1.15555
21
0.201641
0
LINE
8
BLACK
6
CONTINUOUS
10
1.15555
20
0.201641
11
1.15381
21
0.196671
0
LINE
8
BLACK
6
CONTINUOUS
10
1.15381
20
0.196671
11
1.15068
21
0.192433
0
LINE
8
BLACK
6
CONTINUOUS
10
1.15068
20
0.192433
11
1.14644
21
0.189303
0
LINE
8
BLACK
6
CONTINUOUS
10
1.14644
20
0.189303
11
1.14147
21
0.187558
0
LINE
8
BLACK
6
CONTINUOUS
10
1.14147
20
0.187558
11
1.13815
21
0.187244
0
LINE
8
BLACK
6
CONTINUOUS
10
1.13815
20
0.187244
11
1.10075
21
0.187244
0
LINE
8
BLACK
6
CONTINUOUS
10
1.10075
20
0.187244
11
1.09743
21
0.187558
0
LINE
8
BLACK
6
CONTINUOUS
10
1.09743
20
0.187558
11
1.09246
21
0.189303
0
LINE
8
BLACK
6
CONTINUOUS
10
1.09246
20
0.189303
11
1.08822
21
0.192433
0
LINE
8
BLACK
6
CONTINUOUS
10
1.08822
20
0.192433
11
1.08509
21
0.196671
0
LINE
8
BLACK
6
CONTINUOUS
10
1.08509
20
0.196671
11
1.08335
21
0.201641
0
LINE
8
BLACK
6
CONTINUOUS
10
1.08335
20
0.201641
11
1.08303
21
0.204961
0
LINE
8
BLACK
6
CONTINUOUS
10
1.08303
20
0.204961
11
1.08303
21
0.224646
0
LINE
8
BLACK
6
CONTINUOUS
10
1.08303
20
0.224646
11
1.08335
21
0.227965
0
LINE
8
BLACK
6
CONTINUOUS
10
1.08335
20
0.227965
11
1.08509
21
0.232936
0
LINE
8
BLACK
6
CONTINUOUS
10
1.08509
20
0.232936
11
1.08822
21
0.237173
0
LINE
8
BLACK
6
CONTINUOUS
10
1.08822
20
0.237173
11
1.09246
21
0.240303
0
LINE
8
BLACK
6
CONTINUOUS
10
1.09246
20
0.240303
11
1.09743
21
0.242048
0
LINE
8
BLACK
6
CONTINUOUS
10
1.09743
20
0.242048
11
1.10075
21
0.242362
0
LINE
8
BLACK
6
CONTINUOUS
10
1.10075
20
0.242362
11
1.13815
21
0.242362
0
LINE
8
BLACK
6
CONTINUOUS
10
1.13815
20
0.242362
11
1.14147
21
0.242048
0
LINE
8
BLACK
6
CONTINUOUS
10
1.73202
20
0.242048
11
1.73699
21
0.240303
0
LINE
8
BLACK
6
CONTINUOUS
10
1.73699
20
0.240303
11
1.74123
21
0.237173
0
LINE
8
BLACK
6
CONTINUOUS
10
1.74123
20
0.237173
11
1.74436
21
0.232936
0
LINE
8
BLACK
6
CONTINUOUS
10
1.74436
20
0.232936
11
1.7461
21
0.227965
0
LINE
8
BLACK
6
CONTINUOUS
10
1.7461
20
0.227965
11
1.74642
21
0.224646
0
LINE
8
BLACK
6
CONTINUOUS
10
1.74642
20
0.224646
11
1.74642
21
0.204961
0
LINE
8
BLACK
6
CONTINUOUS
10
1.74642
20
0.204961
11
1.7461
21
0.201641
0
LINE
8
BLACK
6
CONTINUOUS
10
1.7461
20
0.201641
11
1.74436
21
0.196671
0
LINE
8
BLACK
6
CONTINUOUS
10
1.74436
20
0.196671
11
1.74123
21
0.192433
0
LINE
8
BLACK
6
CONTINUOUS
10
1.74123
20
0.192433
11
1.73699
21
0.189303
0
LINE
8
BLACK
6
CONTINUOUS
10
1.73699
20
0.189303
11
1.73202
21
0.187558
0
LINE
8
BLACK
6
CONTINUOUS
10
1.73202
20
0.187558
11
1.7287
21
0.187244
0
LINE
8
BLACK
6
CONTINUOUS
10
1.7287
20
0.187244
11
1.6913
21
0.187244
0
LINE
8
BLACK
6
CONTINUOUS
10
1.6913
20
0.187244
11
1.68798
21
0.187558
0
LINE
8
BLACK
6
CONTINUOUS
10
1.68798
20
0.187558
11
1.68301
21
0.189303
0
LINE
8
BLACK
6
CONTINUOUS
10
1.68301
20
0.189303
11
1.67877
21
0.192433
0
LINE
8
BLACK
6
CONTINUOUS
10
1.67877
20
0.192433
11
1.67564
21
0.196671
0
LINE
8
BLACK
6
CONTINUOUS
10
1.67564
20
0.196671
11
1.6739
21
0.201641
0
LINE
8
BLACK
6
CONTINUOUS
10
1.6739
20
0.201641
11
1.67358
21
0.204961
0
LINE
8
BLACK
6
CONTINUOUS
10
1.67358
20
0.204961
11
1.67358
21
0.224646
0
LINE
8
BLACK
6
CONTINUOUS
10
1.67358
20
0.224646
11
1.6739
21
0.227965
0
LINE
8
BLACK
6
CONTINUOUS
10
1.6739
20
0.227965
11
1.67564
21
0.232936
0
LINE
8
BLACK
6
CONTINUOUS
10
1.67564
20
0.232936
11
1.67877
21
0.237173
0
LINE
8
BLACK
6
CONTINUOUS
10
1.67877
20
0.237173
11
1.68301
21
0.240303
0
LINE
8
BLACK
6
CONTINUOUS
10
1.68301
20
0.240303
11
1.68798
21
0.242048
0
LINE
8
BLACK
6
CONTINUOUS
10
1.68798
20
0.242048
11
1.6913
21
0.242362
0
LINE
8
BLACK
6
CONTINUOUS
10
1.6913
20
0.242362
11
1.7287
21
0.242362
0
LINE
8
BLACK
6
CONTINUOUS
10
1.7287
20
0.242362
11
1.73202
21
0.242048
0
LINE
8
BLACK
6
CONTINUOUS
10
0.531036
20
0.257737
11
0.536007
21
0.255992
0
LINE
8
BLACK
6
CONTINUOUS
10
0.536007
20
0.255992
11
0.540244
21
0.252862
0
LINE
8
BLACK
6
CONTINUOUS
10
0.540244
20
0.252862
11
0.543374
21
0.248625
0
LINE
8
BLACK
6
CONTINUOUS
10
0.543374
20
0.248625
11
0.545119
21
0.243654
0
LINE
8
BLACK
6
CONTINUOUS
10
0.545119
20
0.243654
11
0.545433
21
0.240335
0
LINE
8
BLACK
6
CONTINUOUS
10
0.545433
20
0.240335
11
0.545433
21
0.219665
0
LINE
8
BLACK
6
CONTINUOUS
10
0.545433
20
0.219665
11
0.545119
21
0.216346
0
LINE
8
BLACK
6
CONTINUOUS
10
0.545119
20
0.216346
11
0.543374
21
0.211375
0
LINE
8
BLACK
6
CONTINUOUS
10
0.543374
20
0.211375
11
0.540244
21
0.207138
0
LINE
8
BLACK
6
CONTINUOUS
10
0.540244
20
0.207138
11
0.536007
21
0.204008
0
LINE
8
BLACK
6
CONTINUOUS
10
0.536007
20
0.204008
11
0.531036
21
0.202263
0
LINE
8
BLACK
6
CONTINUOUS
10
0.531036
20
0.202263
11
0.527717
21
0.201949
0
LINE
8
BLACK
6
CONTINUOUS
10
0.527717
20
0.201949
11
0.492283
21
0.201949
0
LINE
8
BLACK
6
CONTINUOUS
10
0.492283
20
0.201949
11
0.488964
21
0.202263
0
LINE
8
BLACK
6
CONTINUOUS
10
0.488964
20
0.202263
11
0.483993
21
0.204008
0
LINE
8
BLACK
6
CONTINUOUS
10
0.483993
20
0.204008
11
0.479756
21
0.207138
0
LINE
8
BLACK
6
CONTINUOUS
10
0.479756
20
0.207138
11
0.476626
21
0.211375
0
LINE
8
BLACK
6
CONTINUOUS
10
0.476626
20
0.211375
11
0.474881
21
0.216346
0
LINE
8
BLACK
6
CONTINUOUS
10
0.474881
20
0.216346
11
0.474567
21
0.219665
0
LINE
8
BLACK
6
CONTINUOUS
10
0.474567
20
0.219665
11
0.474567
21
0.240335
0
LINE
8
BLACK
6
CONTINUOUS
10
0.474567
20
0.240335
11
0.474881
21
0.243654
0
LINE
8
BLACK
6
CONTINUOUS
10
0.474881
20
0.243654
11
0.476626
21
0.248625
0
LINE
8
BLACK
6
CONTINUOUS
10
0.476626
20
0.248625
11
0.479756
21
0.252862
0
LINE
8
BLACK
6
CONTINUOUS
10
0.479756
20
0.252862
11
0.483993
21
0.255992
0
LINE
8
BLACK
6
CONTINUOUS
10
0.483993
20
0.255992
11
0.488964
21
0.257737
0
LINE
8
BLACK
6
CONTINUOUS
10
0.488964
20
0.257737
11
0.492283
21
0.258051
0
LINE
8
BLACK
6
CONTINUOUS
10
0.492283
20
0.258051
11
0.527717
21
0.258051
0
LINE
8
BLACK
6
CONTINUOUS
10
0.527717
20
0.258051
11
0.531036
21
0.257737
0
LINE
8
BLACK
6
CONTINUOUS
10
2.16104
20
0.261812
11
2.16601
21
0.260067
0
LINE
8
BLACK
6
CONTINUOUS
10
2.16601
20
0.260067
11
2.17024
21
0.256937
0
LINE
8
BLACK
6
CONTINUOUS
10
2.17024
20
0.256937
11
2.17337
21
0.2527
0
LINE
8
BLACK
6
CONTINUOUS
10
2.17337
20
0.2527
11
2.17512
21
0.247729
0
LINE
8
BLACK
6
CONTINUOUS
10
2.17512
20
0.247729
11
2.17543
21
0.244409
0
LINE
8
BLACK
6
CONTINUOUS
10
2.17543
20
0.244409
11
2.17543
21
0.22374
0
LINE
8
BLACK
6
CONTINUOUS
10
2.17543
20
0.22374
11
2.17512
21
0.22042
0
LINE
8
BLACK
6
CONTINUOUS
10
2.17512
20
0.22042
11
2.17337
21
0.21545
0
LINE
8
BLACK
6
CONTINUOUS
10
2.17337
20
0.21545
11
2.17024
21
0.211213
0
LINE
8
BLACK
6
CONTINUOUS
10
2.17024
20
0.211213
11
2.16601
21
0.208083
0
LINE
8
BLACK
6
CONTINUOUS
10
2.16601
20
0.208083
11
2.16104
21
0.206337
0
LINE
8
BLACK
6
CONTINUOUS
10
2.16104
20
0.206337
11
2.15772
21
0.206024
0
LINE
8
BLACK
6
CONTINUOUS
10
2.15772
20
0.206024
11
2.12228
21
0.206024
0
LINE
8
BLACK
6
CONTINUOUS
10
2.12228
20
0.206024
11
2.11896
21
0.206337
0
LINE
8
BLACK
6
CONTINUOUS
10
2.11896
20
0.206337
11
2.11399
21
0.208083
0
LINE
8
BLACK
6
CONTINUOUS
10
2.11399
20
0.208083
11
2.10976
21
0.211213
0
LINE
8
BLACK
6
CONTINUOUS
10
2.10976
20
0.211213
11
2.10663
21
0.21545
0
LINE
8
BLACK
6
CONTINUOUS
10
2.10663
20
0.21545
11
2.10488
21
0.22042
0
LINE
8
BLACK
6
CONTINUOUS
10
2.10488
20
0.22042
11
2.10457
21
0.22374
0
LINE
8
BLACK
6
CONTINUOUS
10
2.10457
20
0.22374
11
2.10457
21
0.244409
0
LINE
8
BLACK
6
CONTINUOUS
10
2.10457
20
0.244409
11
2.10488
21
0.247729
0
LINE
8
BLACK
6
CONTINUOUS
10
2.10488
20
0.247729
11
2.10663
21
0.2527
0
LINE
8
BLACK
6
CONTINUOUS
10
2.10663
20
0.2527
11
2.10976
21
0.256937
0
LINE
8
BLACK
6
CONTINUOUS
10
2.10976
20
0.256937
11
2.11399
21
0.260067
0
LINE
8
BLACK
6
CONTINUOUS
10
2.11399
20
0.260067
11
2.11896
21
0.261812
0
LINE
8
BLACK
6
CONTINUOUS
10
2.11896
20
0.261812
11
2.12228
21
0.262126
0
LINE
8
BLACK
6
CONTINUOUS
10
2.12228
20
0.262126
11
2.15772
21
0.262126
0
LINE
8
BLACK
6
CONTINUOUS
10
2.15772
20
0.262126
11
2.16104
21
0.261812
0
LINE
8
BLACK
6
CONTINUOUS
10
1.33832
20
0.27945
11
1.34329
21
0.277705
0
LINE
8
BLACK
6
CONTINUOUS
10
1.34329
20
0.277705
11
1.34753
21
0.274575
0
LINE
8
BLACK
6
CONTINUOUS
10
1.34753
20
0.274575
11
1.35066
21
0.270337
0
LINE
8
BLACK
6
CONTINUOUS
10
1.35066
20
0.270337
11
1.3524
21
0.265367
0
LINE
8
BLACK
6
CONTINUOUS
10
1.3524
20
0.265367
11
1.35272
21
0.262047
0
LINE
8
BLACK
6
CONTINUOUS
10
1.35272
20
0.262047
11
1.35272
21
0.242362
0
LINE
8
BLACK
6
CONTINUOUS
10
1.35272
20
0.242362
11
1.3524
21
0.239042
0
LINE
8
BLACK
6
CONTINUOUS
10
1.3524
20
0.239042
11
1.35066
21
0.234072
0
LINE
8
BLACK
6
CONTINUOUS
10
1.35066
20
0.234072
11
1.34753
21
0.229835
0
LINE
8
BLACK
6
CONTINUOUS
10
1.34753
20
0.229835
11
1.34329
21
0.226705
0
LINE
8
BLACK
6
CONTINUOUS
10
1.34329
20
0.226705
11
1.33832
21
0.224959
0
LINE
8
BLACK
6
CONTINUOUS
10
1.33832
20
0.224959
11
1.335
21
0.224646
0
LINE
8
BLACK
6
CONTINUOUS
10
1.335
20
0.224646
11
1.2976
21
0.224646
0
LINE
8
BLACK
6
CONTINUOUS
10
1.2976
20
0.224646
11
1.29428
21
0.224959
0
LINE
8
BLACK
6
CONTINUOUS
10
1.29428
20
0.224959
11
1.28931
21
0.226705
0
LINE
8
BLACK
6
CONTINUOUS
10
1.28931
20
0.226705
11
1.28507
21
0.229835
0
LINE
8
BLACK
6
CONTINUOUS
10
1.28507
20
0.229835
11
1.28194
21
0.234072
0
LINE
8
BLACK
6
CONTINUOUS
10
1.28194
20
0.234072
11
1.2802
21
0.239042
0
LINE
8
BLACK
6
CONTINUOUS
10
1.2802
20
0.239042
11
1.27988
21
0.242362
0
LINE
8
BLACK
6
CONTINUOUS
10
1.27988
20
0.242362
11
1.27988
21
0.262047
0
LINE
8
BLACK
6
CONTINUOUS
10
1.27988
20
0.262047
11
1.2802
21
0.265367
0
LINE
8
BLACK
6
CONTINUOUS
10
1.2802
20
0.265367
11
1.28194
21
0.270337
0
LINE
8
BLACK
6
CONTINUOUS
10
1.28194
20
0.270337
11
1.28507
21
0.274575
0
LINE
8
BLACK
6
CONTINUOUS
10
1.28507
20
0.274575
11
1.28931
21
0.277705
0
LINE
8
BLACK
6
CONTINUOUS
10
1.28931
20
0.277705
11
1.29428
21
0.27945
0
LINE
8
BLACK
6
CONTINUOUS
10
1.29428
20
0.27945
11
1.2976
21
0.279764
0
LINE
8
BLACK
6
CONTINUOUS
10
1.2976
20
0.279764
11
1.335
21
0.279764
0
LINE
8
BLACK
6
CONTINUOUS
10
1.335
20
0.279764
11
1.33832
21
0.27945
0
LINE
8
BLACK
6
CONTINUOUS
10
1.94576
20
0.316104
11
1.95073
21
0.314358
0
LINE
8
BLACK
6
CONTINUOUS
10
1.95073
20
0.314358
11
1.95497
21
0.311228
0
LINE
8
BLACK
6
CONTINUOUS
10
1.95497
20
0.311228
11
1.9581
21
0.306991
0
LINE
8
BLACK
6
CONTINUOUS
10
1.9581
20
0.306991
11
1.95984
21
0.302021
0
LINE
8
BLACK
6
CONTINUOUS
10
1.95984
20
0.302021
11
1.96016
21
0.298701
0
LINE
8
BLACK
6
CONTINUOUS
10
1.96016
20
0.298701
11
1.96016
21
0.261299
0
LINE
8
BLACK
6
CONTINUOUS
10
1.96016
20
0.261299
11
1.95984
21
0.257979
0
LINE
8
BLACK
6
CONTINUOUS
10
1.95984
20
0.257979
11
1.9581
21
0.253009
0
LINE
8
BLACK
6
CONTINUOUS
10
1.9581
20
0.253009
11
1.95497
21
0.248772
0
LINE
8
BLACK
6
CONTINUOUS
10
1.95497
20
0.248772
11
1.95073
21
0.245642
0
LINE
8
BLACK
6
CONTINUOUS
10
1.95073
20
0.245642
11
1.94576
21
0.243896
0
LINE
8
BLACK
6
CONTINUOUS
10
1.94576
20
0.243896
11
1.94244
21
0.243583
0
LINE
8
BLACK
6
CONTINUOUS
10
1.94244
20
0.243583
11
1.92276
21
0.243583
0
LINE
8
BLACK
6
CONTINUOUS
10
1.92276
20
0.243583
11
1.91944
21
0.243896
0
LINE
8
BLACK
6
CONTINUOUS
10
1.91944
20
0.243896
11
1.91447
21
0.245642
0
LINE
8
BLACK
6
CONTINUOUS
10
1.91447
20
0.245642
11
1.91023
21
0.248772
0
LINE
8
BLACK
6
CONTINUOUS
10
1.91023
20
0.248772
11
1.9071
21
0.253009
0
LINE
8
BLACK
6
CONTINUOUS
10
1.9071
20
0.253009
11
1.90535
21
0.257979
0
LINE
8
BLACK
6
CONTINUOUS
10
1.90535
20
0.257979
11
1.90504
21
0.261299
0
LINE
8
BLACK
6
CONTINUOUS
10
1.90504
20
0.261299
11
1.90504
21
0.298701
0
LINE
8
BLACK
6
CONTINUOUS
10
1.90504
20
0.298701
11
1.90535
21
0.302021
0
LINE
8
BLACK
6
CONTINUOUS
10
1.90535
20
0.302021
11
1.9071
21
0.306991
0
LINE
8
BLACK
6
CONTINUOUS
10
1.9071
20
0.306991
11
1.91023
21
0.311228
0
LINE
8
BLACK
6
CONTINUOUS
10
1.91023
20
0.311228
11
1.91447
21
0.314358
0
LINE
8
BLACK
6
CONTINUOUS
10
1.91447
20
0.314358
11
1.91944
21
0.316104
0
LINE
8
BLACK
6
CONTINUOUS
10
1.91944
20
0.316104
11
1.92276
21
0.316417
0
LINE
8
BLACK
6
CONTINUOUS
10
1.92276
20
0.316417
11
1.94244
21
0.316417
0
LINE
8
BLACK
6
CONTINUOUS
10
1.94244
20
0.316417
11
1.94576
21
0.316104
0
LINE
8
BLACK
6
CONTINUOUS
10
2.02056
20
0.316104
11
2.02553
21
0.314358
0
LINE
8
BLACK
6
CONTINUOUS
10
2.02553
20
0.314358
11
2.02977
21
0.311228
0
LINE
8
BLACK
6
CONTINUOUS
10
2.02977
20
0.311228
11
2.0329
21
0.306991
0
LINE
8
BLACK
6
CONTINUOUS
10
2.0329
20
0.306991
11
2.03465
21
0.302021
0
LINE
8
BLACK
6
CONTINUOUS
10
2.03465
20
0.302021
11
2.03496
21
0.298701
0
LINE
8
BLACK
6
CONTINUOUS
10
2.03496
20
0.298701
11
2.03496
21
0.261299
0
LINE
8
BLACK
6
CONTINUOUS
10
2.03496
20
0.261299
11
2.03465
21
0.257979
0
LINE
8
BLACK
6
CONTINUOUS
10
2.03465
20
0.257979
11
2.0329
21
0.253009
0
LINE
8
BLACK
6
CONTINUOUS
10
2.0329
20
0.253009
11
2.02977
21
0.248772
0
LINE
8
BLACK
6
CONTINUOUS
10
2.02977
20
0.248772
11
2.02553
21
0.245642
0
LINE
8
BLACK
6
CONTINUOUS
10
2.02553
20
0.245642
11
2.02056
21
0.243896
0
LINE
8
BLACK
6
CONTINUOUS
10
2.02056
20
0.243896
11
2.01724
21
0.243583
0
LINE
8
BLACK
6
CONTINUOUS
10
2.01724
20
0.243583
11
1.99756
21
0.243583
0
LINE
8
BLACK
6
CONTINUOUS
10
1.99756
20
0.243583
11
1.99424
21
0.243896
0
LINE
8
BLACK
6
CONTINUOUS
10
1.99424
20
0.243896
11
1.98927
21
0.245642
0
LINE
8
BLACK
6
CONTINUOUS
10
1.98927
20
0.245642
11
1.98503
21
0.248772
0
LINE
8
BLACK
6
CONTINUOUS
10
1.98503
20
0.248772
11
1.9819
21
0.253009
0
LINE
8
BLACK
6
CONTINUOUS
10
1.9819
20
0.253009
11
1.98016
21
0.257979
0
LINE
8
BLACK
6
CONTINUOUS
10
1.98016
20
0.257979
11
1.97984
21
0.261299
0
LINE
8
BLACK
6
CONTINUOUS
10
1.97984
20
0.261299
11
1.97984
21
0.298701
0
LINE
8
BLACK
6
CONTINUOUS
10
1.97984
20
0.298701
11
1.98016
21
0.302021
0
LINE
8
BLACK
6
CONTINUOUS
10
1.98016
20
0.302021
11
1.9819
21
0.306991
0
LINE
8
BLACK
6
CONTINUOUS
10
1.9819
20
0.306991
11
1.98503
21
0.311228
0
LINE
8
BLACK
6
CONTINUOUS
10
1.98503
20
0.311228
11
1.98927
21
0.314358
0
LINE
8
BLACK
6
CONTINUOUS
10
1.98927
20
0.314358
11
1.99424
21
0.316104
0
LINE
8
BLACK
6
CONTINUOUS
10
1.99424
20
0.316104
11
1.99756
21
0.316417
0
LINE
8
BLACK
6
CONTINUOUS
10
1.99756
20
0.316417
11
2.01724
21
0.316417
0
LINE
8
BLACK
6
CONTINUOUS
10
2.01724
20
0.316417
11
2.02056
21
0.316104
0
LINE
8
BLACK
6
CONTINUOUS
10
2.39301
20
0.337275
11
2.39557
21
0.335568
0
LINE
8
BLACK
6
CONTINUOUS
10
2.39557
20
0.335568
11
2.39727
21
0.333013
0
LINE
8
BLACK
6
CONTINUOUS
10
2.39727
20
0.333013
11
2.39787
21
0.33
0
LINE
8
BLACK
6
CONTINUOUS
10
2.39787
20
0.33
11
2.39787
21
0.27
0
LINE
8
BLACK
6
CONTINUOUS
10
2.39787
20
0.27
11
2.39727
21
0.266987
0
LINE
8
BLACK
6
CONTINUOUS
10
2.39727
20
0.266987
11
2.39557
21
0.264432
0
LINE
8
BLACK
6
CONTINUOUS
10
2.39557
20
0.264432
11
2.39301
21
0.262725
0
LINE
8
BLACK
6
CONTINUOUS
10
2.39301
20
0.262725
11
2.39
21
0.262126
0
LINE
8
BLACK
6
CONTINUOUS
10
2.39
20
0.262126
11
2.33
21
0.262126
0
LINE
8
BLACK
6
CONTINUOUS
10
2.33
20
0.262126
11
2.32699
21
0.262725
0
LINE
8
BLACK
6
CONTINUOUS
10
2.32699
20
0.262725
11
2.32443
21
0.264432
0
LINE
8
BLACK
6
CONTINUOUS
10
2.32443
20
0.264432
11
2.32273
21
0.266987
0
LINE
8
BLACK
6
CONTINUOUS
10
2.32273
20
0.266987
11
2.32213
21
0.27
0
LINE
8
BLACK
6
CONTINUOUS
10
2.32213
20
0.27
11
2.32213
21
0.33
0
LINE
8
BLACK
6
CONTINUOUS
10
2.32213
20
0.33
11
2.32273
21
0.333013
0
LINE
8
BLACK
6
CONTINUOUS
10
2.32273
20
0.333013
11
2.32443
21
0.335568
0
LINE
8
BLACK
6
CONTINUOUS
10
2.32443
20
0.335568
11
2.32699
21
0.337275
0
LINE
8
BLACK
6
CONTINUOUS
10
2.32699
20
0.337275
11
2.33
21
0.337874
0
LINE
8
BLACK
6
CONTINUOUS
10
2.33
20
0.337874
11
2.39
21
0.337874
0
LINE
8
BLACK
6
CONTINUOUS
10
2.39
20
0.337874
11
2.39301
21
0.337275
0
LINE
8
BLACK
6
CONTINUOUS
10
2.29301
20
0.337275
11
2.29557
21
0.335568
0
LINE
8
BLACK
6
CONTINUOUS
10
2.29557
20
0.335568
11
2.29727
21
0.333013
0
LINE
8
BLACK
6
CONTINUOUS
10
2.29727
20
0.333013
11
2.29787
21
0.33
0
LINE
8
BLACK
6
CONTINUOUS
10
2.29787
20
0.33
11
2.29787
21
0.27
0
LINE
8
BLACK
6
CONTINUOUS
10
2.29787
20
0.27
11
2.29727
21
0.266987
0
LINE
8
BLACK
6
CONTINUOUS
10
2.29727
20
0.266987
11
2.29557
21
0.264432
0
LINE
8
BLACK
6
CONTINUOUS
10
2.29557
20
0.264432
11
2.29301
21
0.262725
0
LINE
8
BLACK
6
CONTINUOUS
10
2.29301
20
0.262725
11
2.29
21
0.262126
0
LINE
8
BLACK
6
CONTINUOUS
10
2.29
20
0.262126
11
2.23
21
0.262126
0
LINE
8
BLACK
6
CONTINUOUS
10
2.23
20
0.262126
11
2.22699
21
0.262725
0
LINE
8
BLACK
6
CONTINUOUS
10
2.22699
20
0.262725
11
2.22443
21
0.264432
0
LINE
8
BLACK
6
CONTINUOUS
10
2.22443
20
0.264432
11
2.22273
21
0.266987
0
LINE
8
BLACK
6
CONTINUOUS
10
2.22273
20
0.266987
11
2.22213
21
0.27
0
LINE
8
BLACK
6
CONTINUOUS
10
2.22213
20
0.27
11
2.22213
21
0.33
0
LINE
8
BLACK
6
CONTINUOUS
10
2.22213
20
0.33
11
2.22273
21
0.333013
0
LINE
8
BLACK
6
CONTINUOUS
10
2.22273
20
0.333013
11
2.22443
21
0.335568
0
LINE
8
BLACK
6
CONTINUOUS
10
2.22443
20
0.335568
11
2.22699
21
0.337275
0
LINE
8
BLACK
6
CONTINUOUS
10
2.22699
20
0.337275
11
2.23
21
0.337874
0
LINE
8
BLACK
6
CONTINUOUS
10
2.23
20
0.337874
11
2.29
21
0.337874
0
LINE
8
BLACK
6
CONTINUOUS
10
2.29
20
0.337874
11
2.29301
21
0.337275
0
LINE
8
BLACK
6
CONTINUOUS
10
0.347729
20
0.335119
11
0.3527
21
0.333374
0
LINE
8
BLACK
6
CONTINUOUS
10
0.3527
20
0.333374
11
0.356937
21
0.330244
0
LINE
8
BLACK
6
CONTINUOUS
10
0.356937
20
0.330244
11
0.360067
21
0.326007
0
LINE
8
BLACK
6
CONTINUOUS
10
0.360067
20
0.326007
11
0.361812
21
0.321036
0
LINE
8
BLACK
6
CONTINUOUS
10
0.361812
20
0.321036
11
0.362126
21
0.317717
0
LINE
8
BLACK
6
CONTINUOUS
10
0.362126
20
0.317717
11
0.362126
21
0.282283
0
LINE
8
BLACK
6
CONTINUOUS
10
0.362126
20
0.282283
11
0.361812
21
0.278964
0
LINE
8
BLACK
6
CONTINUOUS
10
0.361812
20
0.278964
11
0.360067
21
0.273993
0
LINE
8
BLACK
6
CONTINUOUS
10
0.360067
20
0.273993
11
0.356937
21
0.269756
0
LINE
8
BLACK
6
CONTINUOUS
10
0.356937
20
0.269756
11
0.3527
21
0.266626
0
LINE
8
BLACK
6
CONTINUOUS
10
0.3527
20
0.266626
11
0.347729
21
0.264881
0
LINE
8
BLACK
6
CONTINUOUS
10
0.347729
20
0.264881
11
0.344409
21
0.264567
0
LINE
8
BLACK
6
CONTINUOUS
10
0.344409
20
0.264567
11
0.32374
21
0.264567
0
LINE
8
BLACK
6
CONTINUOUS
10
0.32374
20
0.264567
11
0.32042
21
0.264881
0
LINE
8
BLACK
6
CONTINUOUS
10
0.32042
20
0.264881
11
0.31545
21
0.266626
0
LINE
8
BLACK
6
CONTINUOUS
10
0.31545
20
0.266626
11
0.311213
21
0.269756
0
LINE
8
BLACK
6
CONTINUOUS
10
0.311213
20
0.269756
11
0.308083
21
0.273993
0
LINE
8
BLACK
6
CONTINUOUS
10
0.308083
20
0.273993
11
0.306337
21
0.278964
0
LINE
8
BLACK
6
CONTINUOUS
10
0.306337
20
0.278964
11
0.306024
21
0.282283
0
LINE
8
BLACK
6
CONTINUOUS
10
0.306024
20
0.282283
11
0.306024
21
0.317717
0
LINE
8
BLACK
6
CONTINUOUS
10
0.306024
20
0.317717
11
0.306337
21
0.321036
0
LINE
8
BLACK
6
CONTINUOUS
10
0.306337
20
0.321036
11
0.308083
21
0.326007
0
LINE
8
BLACK
6
CONTINUOUS
10
0.308083
20
0.326007
11
0.311213
21
0.330244
0
LINE
8
BLACK
6
CONTINUOUS
10
0.311213
20
0.330244
11
0.31545
21
0.333374
0
LINE
8
BLACK
6
CONTINUOUS
10
0.31545
20
0.333374
11
0.32042
21
0.335119
0
LINE
8
BLACK
6
CONTINUOUS
10
0.32042
20
0.335119
11
0.32374
21
0.335433
0
LINE
8
BLACK
6
CONTINUOUS
10
0.32374
20
0.335433
11
0.344409
21
0.335433
0
LINE
8
BLACK
6
CONTINUOUS
10
0.344409
20
0.335433
11
0.347729
21
0.335119
0
LINE
8
BLACK
6
CONTINUOUS
10
0.41958
20
0.335119
11
0.42455
21
0.333374
0
LINE
8
BLACK
6
CONTINUOUS
10
0.42455
20
0.333374
11
0.428787
21
0.330244
0
LINE
8
BLACK
6
CONTINUOUS
10
0.428787
20
0.330244
11
0.431917
21
0.326007
0
LINE
8
BLACK
6
CONTINUOUS
10
0.431917
20
0.326007
11
0.433663
21
0.321036
0
LINE
8
BLACK
6
CONTINUOUS
10
0.433663
20
0.321036
11
0.433976
21
0.317717
0
LINE
8
BLACK
6
CONTINUOUS
10
0.433976
20
0.317717
11
0.433976
21
0.282283
0
LINE
8
BLACK
6
CONTINUOUS
10
0.433976
20
0.282283
11
0.433663
21
0.278964
0
LINE
8
BLACK
6
CONTINUOUS
10
0.433663
20
0.278964
11
0.431917
21
0.273993
0
LINE
8
BLACK
6
CONTINUOUS
10
0.431917
20
0.273993
11
0.428787
21
0.269756
0
LINE
8
BLACK
6
CONTINUOUS
10
0.428787
20
0.269756
11
0.42455
21
0.266626
0
LINE
8
BLACK
6
CONTINUOUS
10
0.42455
20
0.266626
11
0.41958
21
0.264881
0
LINE
8
BLACK
6
CONTINUOUS
10
0.41958
20
0.264881
11
0.41626
21
0.264567
0
LINE
8
BLACK
6
CONTINUOUS
10
0.41626
20
0.264567
11
0.395591
21
0.264567
0
LINE
8
BLACK
6
CONTINUOUS
10
0.395591
20
0.264567
11
0.392271
21
0.264881
0
LINE
8
BLACK
6
CONTINUOUS
10
0.392271
20
0.264881
11
0.3873
21
0.266626
0
LINE
8
BLACK
6
CONTINUOUS
10
0.3873
20
0.266626
11
0.383063
21
0.269756
0
LINE
8
BLACK
6
CONTINUOUS
10
0.383063
20
0.269756
11
0.379933
21
0.273993
0
LINE
8
BLACK
6
CONTINUOUS
10
0.379933
20
0.273993
11
0.378188
21
0.278964
0
LINE
8
BLACK
6
CONTINUOUS
10
0.378188
20
0.278964
11
0.377874
21
0.282283
0
LINE
8
BLACK
6
CONTINUOUS
10
0.377874
20
0.282283
11
0.377874
21
0.317717
0
LINE
8
BLACK
6
CONTINUOUS
10
0.377874
20
0.317717
11
0.378188
21
0.321036
0
LINE
8
BLACK
6
CONTINUOUS
10
0.378188
20
0.321036
11
0.379933
21
0.326007
0
LINE
8
BLACK
6
CONTINUOUS
10
0.379933
20
0.326007
11
0.383063
21
0.330244
0
LINE
8
BLACK
6
CONTINUOUS
10
0.383063
20
0.330244
11
0.3873
21
0.333374
0
LINE
8
BLACK
6
CONTINUOUS
10
0.3873
20
0.333374
11
0.392271
21
0.335119
0
LINE
8
BLACK
6
CONTINUOUS
10
0.392271
20
0.335119
11
0.395591
21
0.335433
0
LINE
8
BLACK
6
CONTINUOUS
10
0.395591
20
0.335433
11
0.41626
21
0.335433
0
LINE
8
BLACK
6
CONTINUOUS
10
0.41626
20
0.335433
11
0.41958
21
0.335119
0
LINE
8
BLACK
6
CONTINUOUS
10
0.531036
20
0.329588
11
0.536007
21
0.327842
0
LINE
8
BLACK
6
CONTINUOUS
10
0.536007
20
0.327842
11
0.540244
21
0.324713
0
LINE
8
BLACK
6
CONTINUOUS
10
0.540244
20
0.324713
11
0.543374
21
0.320475
0
LINE
8
BLACK
6
CONTINUOUS
10
0.543374
20
0.320475
11
0.545119
21
0.315505
0
LINE
8
BLACK
6
CONTINUOUS
10
0.545119
20
0.315505
11
0.545433
21
0.312185
0
LINE
8
BLACK
6
CONTINUOUS
10
0.545433
20
0.312185
11
0.545433
21
0.291516
0
LINE
8
BLACK
6
CONTINUOUS
10
0.545433
20
0.291516
11
0.545119
21
0.288196
0
LINE
8
BLACK
6
CONTINUOUS
10
0.545119
20
0.288196
11
0.543374
21
0.283226
0
LINE
8
BLACK
6
CONTINUOUS
10
0.543374
20
0.283226
11
0.540244
21
0.278988
0
LINE
8
BLACK
6
CONTINUOUS
10
0.540244
20
0.278988
11
0.536007
21
0.275858
0
LINE
8
BLACK
6
CONTINUOUS
10
0.536007
20
0.275858
11
0.531036
21
0.274113
0
LINE
8
BLACK
6
CONTINUOUS
10
0.531036
20
0.274113
11
0.527717
21
0.273799
0
LINE
8
BLACK
6
CONTINUOUS
10
0.527717
20
0.273799
11
0.492283
21
0.273799
0
LINE
8
BLACK
6
CONTINUOUS
10
0.492283
20
0.273799
11
0.488964
21
0.274113
0
LINE
8
BLACK
6
CONTINUOUS
10
0.488964
20
0.274113
11
0.483993
21
0.275858
0
LINE
8
BLACK
6
CONTINUOUS
10
0.483993
20
0.275858
11
0.479756
21
0.278988
0
LINE
8
BLACK
6
CONTINUOUS
10
0.479756
20
0.278988
11
0.476626
21
0.283226
0
LINE
8
BLACK
6
CONTINUOUS
10
0.476626
20
0.283226
11
0.474881
21
0.288196
0
LINE
8
BLACK
6
CONTINUOUS
10
0.474881
20
0.288196
11
0.474567
21
0.291516
0
LINE
8
BLACK
6
CONTINUOUS
10
0.474567
20
0.291516
11
0.474567
21
0.312185
0
LINE
8
BLACK
6
CONTINUOUS
10
0.474567
20
0.312185
11
0.474881
21
0.315505
0
LINE
8
BLACK
6
CONTINUOUS
10
0.474881
20
0.315505
11
0.476626
21
0.320475
0
LINE
8
BLACK
6
CONTINUOUS
10
0.476626
20
0.320475
11
0.479756
21
0.324713
0
LINE
8
BLACK
6
CONTINUOUS
10
0.479756
20
0.324713
11
0.483993
21
0.327842
0
LINE
8
BLACK
6
CONTINUOUS
10
0.483993
20
0.327842
11
0.488964
21
0.329588
0
LINE
8
BLACK
6
CONTINUOUS
10
0.488964
20
0.329588
11
0.492283
21
0.329902
0
LINE
8
BLACK
6
CONTINUOUS
10
0.492283
20
0.329902
11
0.527717
21
0.329902
0
LINE
8
BLACK
6
CONTINUOUS
10
0.527717
20
0.329902
11
0.531036
21
0.329588
0
LINE
8
BLACK
6
CONTINUOUS
10
2.16104
20
0.333663
11
2.16601
21
0.331917
0
LINE
8
BLACK
6
CONTINUOUS
10
2.16601
20
0.331917
11
2.17024
21
0.328787
0
LINE
8
BLACK
6
CONTINUOUS
10
2.17024
20
0.328787
11
2.17337
21
0.32455
0
LINE
8
BLACK
6
CONTINUOUS
10
2.17337
20
0.32455
11
2.17512
21
0.31958
0
LINE
8
BLACK
6
CONTINUOUS
10
2.17512
20
0.31958
11
2.17543
21
0.31626
0
LINE
8
BLACK
6
CONTINUOUS
10
2.17543
20
0.31626
11
2.17543
21
0.295591
0
LINE
8
BLACK
6
CONTINUOUS
10
2.17543
20
0.295591
11
2.17512
21
0.292271
0
LINE
8
BLACK
6
CONTINUOUS
10
2.17512
20
0.292271
11
2.17337
21
0.2873
0
LINE
8
BLACK
6
CONTINUOUS
10
2.17337
20
0.2873
11
2.17024
21
0.283063
0
LINE
8
BLACK
6
CONTINUOUS
10
2.17024
20
0.283063
11
2.16601
21
0.279933
0
LINE
8
BLACK
6
CONTINUOUS
10
2.16601
20
0.279933
11
2.16104
21
0.278188
0
LINE
8
BLACK
6
CONTINUOUS
10
2.16104
20
0.278188
11
2.15772
21
0.277874
0
LINE
8
BLACK
6
CONTINUOUS
10
2.15772
20
0.277874
11
2.12228
21
0.277874
0
LINE
8
BLACK
6
CONTINUOUS
10
2.12228
20
0.277874
11
2.11896
21
0.278188
0
LINE
8
BLACK
6
CONTINUOUS
10
2.11896
20
0.278188
11
2.11399
21
0.279933
0
LINE
8
BLACK
6
CONTINUOUS
10
2.11399
20
0.279933
11
2.10976
21
0.283063
0
LINE
8
BLACK
6
CONTINUOUS
10
2.10976
20
0.283063
11
2.10663
21
0.2873
0
LINE
8
BLACK
6
CONTINUOUS
10
2.10663
20
0.2873
11
2.10488
21
0.292271
0
LINE
8
BLACK
6
CONTINUOUS
10
2.10488
20
0.292271
11
2.10457
21
0.295591
0
LINE
8
BLACK
6
CONTINUOUS
10
2.10457
20
0.295591
11
2.10457
21
0.31626
0
LINE
8
BLACK
6
CONTINUOUS
10
2.10457
20
0.31626
11
2.10488
21
0.31958
0
LINE
8
BLACK
6
CONTINUOUS
10
2.10488
20
0.31958
11
2.10663
21
0.32455
0
LINE
8
BLACK
6
CONTINUOUS
10
2.10663
20
0.32455
11
2.10976
21
0.328787
0
LINE
8
BLACK
6
CONTINUOUS
10
2.10976
20
0.328787
11
2.11399
21
0.331917
0
LINE
8
BLACK
6
CONTINUOUS
10
2.11399
20
0.331917
11
2.11896
21
0.333663
0
LINE
8
BLACK
6
CONTINUOUS
10
2.11896
20
0.333663
11
2.12228
21
0.333976
0
LINE
8
BLACK
6
CONTINUOUS
10
2.12228
20
0.333976
11
2.15772
21
0.333976
0
LINE
8
BLACK
6
CONTINUOUS
10
2.15772
20
0.333976
11
2.16104
21
0.333663
0
LINE
8
BLACK
6
CONTINUOUS
10
2.16104
20
0.401812
11
2.16601
21
0.400067
0
LINE
8
BLACK
6
CONTINUOUS
10
2.16601
20
0.400067
11
2.17024
21
0.396937
0
LINE
8
BLACK
6
CONTINUOUS
10
2.17024
20
0.396937
11
2.17337
21
0.3927
0
LINE
8
BLACK
6
CONTINUOUS
10
2.17337
20
0.3927
11
2.17512
21
0.387729
0
LINE
8
BLACK
6
CONTINUOUS
10
2.17512
20
0.387729
11
2.17543
21
0.384409
0
LINE
8
BLACK
6
CONTINUOUS
10
2.17543
20
0.384409
11
2.17543
21
0.36374
0
LINE
8
BLACK
6
CONTINUOUS
10
2.17543
20
0.36374
11
2.17512
21
0.36042
0
LINE
8
BLACK
6
CONTINUOUS
10
2.17512
20
0.36042
11
2.17337
21
0.35545
0
LINE
8
BLACK
6
CONTINUOUS
10
2.17337
20
0.35545
11
2.17024
21
0.351213
0
LINE
8
BLACK
6
CONTINUOUS
10
2.17024
20
0.351213
11
2.16601
21
0.348083
0
LINE
8
BLACK
6
CONTINUOUS
10
2.16601
20
0.348083
11
2.16104
21
0.346337
0
LINE
8
BLACK
6
CONTINUOUS
10
2.16104
20
0.346337
11
2.15772
21
0.346024
0
LINE
8
BLACK
6
CONTINUOUS
10
2.15772
20
0.346024
11
2.12228
21
0.346024
0
LINE
8
BLACK
6
CONTINUOUS
10
2.12228
20
0.346024
11
2.11896
21
0.346337
0
LINE
8
BLACK
6
CONTINUOUS
10
2.11896
20
0.346337
11
2.11399
21
0.348083
0
LINE
8
BLACK
6
CONTINUOUS
10
2.11399
20
0.348083
11
2.10976
21
0.351213
0
LINE
8
BLACK
6
CONTINUOUS
10
2.10976
20
0.351213
11
2.10663
21
0.35545
0
LINE
8
BLACK
6
CONTINUOUS
10
2.10663
20
0.35545
11
2.10488
21
0.36042
0
LINE
8
BLACK
6
CONTINUOUS
10
2.10488
20
0.36042
11
2.10457
21
0.36374
0
LINE
8
BLACK
6
CONTINUOUS
10
2.10457
20
0.36374
11
2.10457
21
0.384409
0
LINE
8
BLACK
6
CONTINUOUS
10
2.10457
20
0.384409
11
2.10488
21
0.387729
0
LINE
8
BLACK
6
CONTINUOUS
10
2.10488
20
0.387729
11
2.10663
21
0.3927
0
LINE
8
BLACK
6
CONTINUOUS
10
2.10663
20
0.3927
11
2.10976
21
0.396937
0
LINE
8
BLACK
6
CONTINUOUS
10
2.10976
20
0.396937
11
2.11399
21
0.400067
0
LINE
8
BLACK
6
CONTINUOUS
10
2.11399
20
0.400067
11
2.11896
21
0.401812
0
LINE
8
BLACK
6
CONTINUOUS
10
2.11896
20
0.401812
11
2.12228
21
0.402126
0
LINE
8
BLACK
6
CONTINUOUS
10
2.12228
20
0.402126
11
2.15772
21
0.402126
0
LINE
8
BLACK
6
CONTINUOUS
10
2.15772
20
0.402126
11
2.16104
21
0.401812
0
LINE
8
BLACK
6
CONTINUOUS
10
2.06687
20
0.467471
11
2.06943
21
0.465765
0
LINE
8
BLACK
6
CONTINUOUS
10
2.06943
20
0.465765
11
2.07113
21
0.46321
0
LINE
8
BLACK
6
CONTINUOUS
10
2.07113
20
0.46321
11
2.07173
21
0.460197
0
LINE
8
BLACK
6
CONTINUOUS
10
2.07173
20
0.460197
11
2.07173
21
0.434606
0
LINE
8
BLACK
6
CONTINUOUS
10
2.07173
20
0.434606
11
2.07113
21
0.431593
0
LINE
8
BLACK
6
CONTINUOUS
10
2.07113
20
0.431593
11
2.06943
21
0.429039
0
LINE
8
BLACK
6
CONTINUOUS
10
2.06943
20
0.429039
11
2.06892
21
0.428701
0
LINE
8
BLACK
6
CONTINUOUS
10
2.06892
20
0.428701
11
2.06943
21
0.428363
0
LINE
8
BLACK
6
CONTINUOUS
10
2.06943
20
0.428363
11
2.07113
21
0.425809
0
LINE
8
BLACK
6
CONTINUOUS
10
2.07113
20
0.425809
11
2.07173
21
0.422795
0
LINE
8
BLACK
6
CONTINUOUS
10
2.07173
20
0.422795
11
2.07173
21
0.397205
0
LINE
8
BLACK
6
CONTINUOUS
10
2.07173
20
0.397205
11
2.07113
21
0.394191
0
LINE
8
BLACK
6
CONTINUOUS
10
2.07113
20
0.394191
11
2.06943
21
0.391637
0
LINE
8
BLACK
6
CONTINUOUS
10
2.06943
20
0.391637
11
2.06892
21
0.391299
0
LINE
8
BLACK
6
CONTINUOUS
10
2.06892
20
0.391299
11
2.06943
21
0.390961
0
LINE
8
BLACK
6
CONTINUOUS
10
2.06943
20
0.390961
11
2.07113
21
0.388407
0
LINE
8
BLACK
6
CONTINUOUS
10
2.07113
20
0.388407
11
2.07173
21
0.385394
0
LINE
8
BLACK
6
CONTINUOUS
10
2.07173
20
0.385394
11
2.07173
21
0.359803
0
LINE
8
BLACK
6
CONTINUOUS
10
2.07173
20
0.359803
11
2.07113
21
0.35679
0
LINE
8
BLACK
6
CONTINUOUS
10
2.07113
20
0.35679
11
2.06943
21
0.354235
0
LINE
8
BLACK
6
CONTINUOUS
10
2.06943
20
0.354235
11
2.06687
21
0.352529
0
LINE
8
BLACK
6
CONTINUOUS
10
2.06687
20
0.352529
11
2.06386
21
0.351929
0
LINE
8
BLACK
6
CONTINUOUS
10
2.06386
20
0.351929
11
2.00244
21
0.351929
0
LINE
8
BLACK
6
CONTINUOUS
10
2.00244
20
0.351929
11
1.99943
21
0.352529
0
LINE
8
BLACK
6
CONTINUOUS
10
1.99943
20
0.352529
11
1.99687
21
0.354235
0
LINE
8
BLACK
6
CONTINUOUS
10
1.99687
20
0.354235
11
1.99517
21
0.35679
0
LINE
8
BLACK
6
CONTINUOUS
10
1.99517
20
0.35679
11
1.99457
21
0.359803
0
LINE
8
BLACK
6
CONTINUOUS
10
1.99457
20
0.359803
11
1.99457
21
0.385394
0
LINE
8
BLACK
6
CONTINUOUS
10
1.99457
20
0.385394
11
1.99517
21
0.388407
0
LINE
8
BLACK
6
CONTINUOUS
10
1.99517
20
0.388407
11
1.99687
21
0.390961
0
LINE
8
BLACK
6
CONTINUOUS
10
1.99687
20
0.390961
11
1.99738
21
0.391299
0
LINE
8
BLACK
6
CONTINUOUS
10
1.99738
20
0.391299
11
1.99687
21
0.391637
0
LINE
8
BLACK
6
CONTINUOUS
10
1.99687
20
0.391637
11
1.99517
21
0.394191
0
LINE
8
BLACK
6
CONTINUOUS
10
1.99517
20
0.394191
11
1.99457
21
0.397205
0
LINE
8
BLACK
6
CONTINUOUS
10
1.99457
20
0.397205
11
1.99457
21
0.422795
0
LINE
8
BLACK
6
CONTINUOUS
10
1.99457
20
0.422795
11
1.99517
21
0.425809
0
LINE
8
BLACK
6
CONTINUOUS
10
1.99517
20
0.425809
11
1.99687
21
0.428363
0
LINE
8
BLACK
6
CONTINUOUS
10
1.99687
20
0.428363
11
1.99738
21
0.428701
0
LINE
8
BLACK
6
CONTINUOUS
10
1.99738
20
0.428701
11
1.99687
21
0.429039
0
LINE
8
BLACK
6
CONTINUOUS
10
1.99687
20
0.429039
11
1.99517
21
0.431593
0
LINE
8
BLACK
6
CONTINUOUS
10
1.99517
20
0.431593
11
1.99457
21
0.434606
0
LINE
8
BLACK
6
CONTINUOUS
10
1.99457
20
0.434606
11
1.99457
21
0.460197
0
LINE
8
BLACK
6
CONTINUOUS
10
1.99457
20
0.460197
11
1.99517
21
0.46321
0
LINE
8
BLACK
6
CONTINUOUS
10
1.99517
20
0.46321
11
1.99687
21
0.465765
0
LINE
8
BLACK
6
CONTINUOUS
10
1.99687
20
0.465765
11
1.99943
21
0.467471
0
LINE
8
BLACK
6
CONTINUOUS
10
1.99943
20
0.467471
11
2.00244
21
0.468071
0
LINE
8
BLACK
6
CONTINUOUS
10
2.00244
20
0.468071
11
2.06386
21
0.468071
0
LINE
8
BLACK
6
CONTINUOUS
10
2.06386
20
0.468071
11
2.06687
21
0.467471
0
LINE
8
BLACK
6
CONTINUOUS
10
1.96057
20
0.467471
11
1.96313
21
0.465765
0
LINE
8
BLACK
6
CONTINUOUS
10
1.96313
20
0.465765
11
1.96483
21
0.46321
0
LINE
8
BLACK
6
CONTINUOUS
10
1.96483
20
0.46321
11
1.96543
21
0.460197
0
LINE
8
BLACK
6
CONTINUOUS
10
1.96543
20
0.460197
11
1.96543
21
0.434606
0
LINE
8
BLACK
6
CONTINUOUS
10
1.96543
20
0.434606
11
1.96483
21
0.431593
0
LINE
8
BLACK
6
CONTINUOUS
10
1.96483
20
0.431593
11
1.96313
21
0.429039
0
LINE
8
BLACK
6
CONTINUOUS
10
1.96313
20
0.429039
11
1.96262
21
0.428701
0
LINE
8
BLACK
6
CONTINUOUS
10
1.96262
20
0.428701
11
1.96313
21
0.428363
0
LINE
8
BLACK
6
CONTINUOUS
10
1.96313
20
0.428363
11
1.96483
21
0.425809
0
LINE
8
BLACK
6
CONTINUOUS
10
1.96483
20
0.425809
11
1.96543
21
0.422795
0
LINE
8
BLACK
6
CONTINUOUS
10
1.96543
20
0.422795
11
1.96543
21
0.397205
0
LINE
8
BLACK
6
CONTINUOUS
10
1.96543
20
0.397205
11
1.96483
21
0.394191
0
LINE
8
BLACK
6
CONTINUOUS
10
1.96483
20
0.394191
11
1.96313
21
0.391637
0
LINE
8
BLACK
6
CONTINUOUS
10
1.96313
20
0.391637
11
1.96262
21
0.391299
0
LINE
8
BLACK
6
CONTINUOUS
10
1.96262
20
0.391299
11
1.96313
21
0.390961
0
LINE
8
BLACK
6
CONTINUOUS
10
1.96313
20
0.390961
11
1.96483
21
0.388407
0
LINE
8
BLACK
6
CONTINUOUS
10
1.96483
20
0.388407
11
1.96543
21
0.385394
0
LINE
8
BLACK
6
CONTINUOUS
10
1.96543
20
0.385394
11
1.96543
21
0.359803
0
LINE
8
BLACK
6
CONTINUOUS
10
1.96543
20
0.359803
11
1.96483
21
0.35679
0
LINE
8
BLACK
6
CONTINUOUS
10
1.96483
20
0.35679
11
1.96313
21
0.354235
0
LINE
8
BLACK
6
CONTINUOUS
10
1.96313
20
0.354235
11
1.96057
21
0.352529
0
LINE
8
BLACK
6
CONTINUOUS
10
1.96057
20
0.352529
11
1.95756
21
0.351929
0
LINE
8
BLACK
6
CONTINUOUS
10
1.95756
20
0.351929
11
1.89614
21
0.351929
0
LINE
8
BLACK
6
CONTINUOUS
10
1.89614
20
0.351929
11
1.89313
21
0.352529
0
LINE
8
BLACK
6
CONTINUOUS
10
1.89313
20
0.352529
11
1.89057
21
0.354235
0
LINE
8
BLACK
6
CONTINUOUS
10
1.89057
20
0.354235
11
1.88887
21
0.35679
0
LINE
8
BLACK
6
CONTINUOUS
10
1.88887
20
0.35679
11
1.88827
21
0.359803
0
LINE
8
BLACK
6
CONTINUOUS
10
1.88827
20
0.359803
11
1.88827
21
0.385394
0
LINE
8
BLACK
6
CONTINUOUS
10
1.88827
20
0.385394
11
1.88887
21
0.388407
0
LINE
8
BLACK
6
CONTINUOUS
10
1.88887
20
0.388407
11
1.89057
21
0.390961
0
LINE
8
BLACK
6
CONTINUOUS
10
1.89057
20
0.390961
11
1.89108
21
0.391299
0
LINE
8
BLACK
6
CONTINUOUS
10
1.89108
20
0.391299
11
1.89057
21
0.391637
0
LINE
8
BLACK
6
CONTINUOUS
10
1.89057
20
0.391637
11
1.88887
21
0.394191
0
LINE
8
BLACK
6
CONTINUOUS
10
1.88887
20
0.394191
11
1.88827
21
0.397205
0
LINE
8
BLACK
6
CONTINUOUS
10
1.88827
20
0.397205
11
1.88827
21
0.422795
0
LINE
8
BLACK
6
CONTINUOUS
10
1.88827
20
0.422795
11
1.88887
21
0.425809
0
LINE
8
BLACK
6
CONTINUOUS
10
1.88887
20
0.425809
11
1.89057
21
0.428363
0
LINE
8
BLACK
6
CONTINUOUS
10
1.89057
20
0.428363
11
1.89108
21
0.428701
0
LINE
8
BLACK
6
CONTINUOUS
10
1.89108
20
0.428701
11
1.89057
21
0.429039
0
LINE
8
BLACK
6
CONTINUOUS
10
1.89057
20
0.429039
11
1.88887
21
0.431593
0
LINE
8
BLACK
6
CONTINUOUS
10
1.88887
20
0.431593
11
1.88827
21
0.434606
0
LINE
8
BLACK
6
CONTINUOUS
10
1.88827
20
0.434606
11
1.88827
21
0.460197
0
LINE
8
BLACK
6
CONTINUOUS
10
1.88827
20
0.460197
11
1.88887
21
0.46321
0
LINE
8
BLACK
6
CONTINUOUS
10
1.88887
20
0.46321
11
1.89057
21
0.465765
0
LINE
8
BLACK
6
CONTINUOUS
10
1.89057
20
0.465765
11
1.89313
21
0.467471
0
LINE
8
BLACK
6
CONTINUOUS
10
1.89313
20
0.467471
11
1.89614
21
0.468071
0
LINE
8
BLACK
6
CONTINUOUS
10
1.89614
20
0.468071
11
1.95756
21
0.468071
0
LINE
8
BLACK
6
CONTINUOUS
10
1.95756
20
0.468071
11
1.96057
21
0.467471
0
LINE
8
BLACK
6
CONTINUOUS
10
1.84564
20
0.427048
11
1.85061
21
0.425303
0
LINE
8
BLACK
6
CONTINUOUS
10
1.85061
20
0.425303
11
1.85485
21
0.422173
0
LINE
8
BLACK
6
CONTINUOUS
10
1.85485
20
0.422173
11
1.85798
21
0.417936
0
LINE
8
BLACK
6
CONTINUOUS
10
1.85798
20
0.417936
11
1.85973
21
0.412965
0
LINE
8
BLACK
6
CONTINUOUS
10
1.85973
20
0.412965
11
1.86004
21
0.409646
0
LINE
8
BLACK
6
CONTINUOUS
10
1.86004
20
0.409646
11
1.86004
21
0.373228
0
LINE
8
BLACK
6
CONTINUOUS
10
1.86004
20
0.373228
11
1.85973
21
0.369909
0
LINE
8
BLACK
6
CONTINUOUS
10
1.85973
20
0.369909
11
1.85798
21
0.364938
0
LINE
8
BLACK
6
CONTINUOUS
10
1.85798
20
0.364938
11
1.85485
21
0.360701
0
LINE
8
BLACK
6
CONTINUOUS
10
1.85485
20
0.360701
11
1.85061
21
0.357571
0
LINE
8
BLACK
6
CONTINUOUS
10
1.85061
20
0.357571
11
1.84564
21
0.355826
0
LINE
8
BLACK
6
CONTINUOUS
10
1.84564
20
0.355826
11
1.84232
21
0.355512
0
LINE
8
BLACK
6
CONTINUOUS
10
1.84232
20
0.355512
11
1.75768
21
0.355512
0
LINE
8
BLACK
6
CONTINUOUS
10
1.75768
20
0.355512
11
1.75436
21
0.355826
0
LINE
8
BLACK
6
CONTINUOUS
10
1.75436
20
0.355826
11
1.74939
21
0.357571
0
LINE
8
BLACK
6
CONTINUOUS
10
1.74939
20
0.357571
11
1.74515
21
0.360701
0
LINE
8
BLACK
6
CONTINUOUS
10
1.74515
20
0.360701
11
1.74202
21
0.364938
0
LINE
8
BLACK
6
CONTINUOUS
10
1.74202
20
0.364938
11
1.74027
21
0.369909
0
LINE
8
BLACK
6
CONTINUOUS
10
1.74027
20
0.369909
11
1.73996
21
0.373228
0
LINE
8
BLACK
6
CONTINUOUS
10
1.73996
20
0.373228
11
1.73996
21
0.409646
0
LINE
8
BLACK
6
CONTINUOUS
10
1.73996
20
0.409646
11
1.74027
21
0.412965
0
LINE
8
BLACK
6
CONTINUOUS
10
1.74027
20
0.412965
11
1.74202
21
0.417936
0
LINE
8
BLACK
6
CONTINUOUS
10
1.74202
20
0.417936
11
1.74515
21
0.422173
0
LINE
8
BLACK
6
CONTINUOUS
10
1.74515
20
0.422173
11
1.74939
21
0.425303
0
LINE
8
BLACK
6
CONTINUOUS
10
1.74939
20
0.425303
11
1.75436
21
0.427048
0
LINE
8
BLACK
6
CONTINUOUS
10
1.75436
20
0.427048
11
1.75768
21
0.427362
0
LINE
8
BLACK
6
CONTINUOUS
10
1.75768
20
0.427362
11
1.84232
21
0.427362
0
LINE
8
BLACK
6
CONTINUOUS
10
1.84232
20
0.427362
11
1.84564
21
0.427048
0
LINE
8
BLACK
6
CONTINUOUS
10
2.29301
20
0.437275
11
2.29557
21
0.435568
0
LINE
8
BLACK
6
CONTINUOUS
10
2.29557
20
0.435568
11
2.29727
21
0.433013
0
LINE
8
BLACK
6
CONTINUOUS
10
2.29727
20
0.433013
11
2.29787
21
0.43
0
LINE
8
BLACK
6
CONTINUOUS
10
2.29787
20
0.43
11
2.29787
21
0.37
0
LINE
8
BLACK
6
CONTINUOUS
10
2.29787
20
0.37
11
2.29727
21
0.366987
0
LINE
8
BLACK
6
CONTINUOUS
10
2.29727
20
0.366987
11
2.29557
21
0.364432
0
LINE
8
BLACK
6
CONTINUOUS
10
2.29557
20
0.364432
11
2.29301
21
0.362725
0
LINE
8
BLACK
6
CONTINUOUS
10
2.29301
20
0.362725
11
2.29
21
0.362126
0
LINE
8
BLACK
6
CONTINUOUS
10
2.29
20
0.362126
11
2.23
21
0.362126
0
LINE
8
BLACK
6
CONTINUOUS
10
2.23
20
0.362126
11
2.22699
21
0.362725
0
LINE
8
BLACK
6
CONTINUOUS
10
2.22699
20
0.362725
11
2.22443
21
0.364432
0
LINE
8
BLACK
6
CONTINUOUS
10
2.22443
20
0.364432
11
2.22273
21
0.366987
0
LINE
8
BLACK
6
CONTINUOUS
10
2.22273
20
0.366987
11
2.22213
21
0.37
0
LINE
8
BLACK
6
CONTINUOUS
10
2.22213
20
0.37
11
2.22213
21
0.43
0
LINE
8
BLACK
6
CONTINUOUS
10
2.22213
20
0.43
11
2.22273
21
0.433013
0
LINE
8
BLACK
6
CONTINUOUS
10
2.22273
20
0.433013
11
2.22443
21
0.435568
0
LINE
8
BLACK
6
CONTINUOUS
10
2.22443
20
0.435568
11
2.22699
21
0.437275
0
LINE
8
BLACK
6
CONTINUOUS
10
2.22699
20
0.437275
11
2.23
21
0.437874
0
LINE
8
BLACK
6
CONTINUOUS
10
2.23
20
0.437874
11
2.29
21
0.437874
0
LINE
8
BLACK
6
CONTINUOUS
10
2.29
20
0.437874
11
2.29301
21
0.437275
0
LINE
8
BLACK
6
CONTINUOUS
10
2.39301
20
0.437275
11
2.39557
21
0.435568
0
LINE
8
BLACK
6
CONTINUOUS
10
2.39557
20
0.435568
11
2.39727
21
0.433013
0
LINE
8
BLACK
6
CONTINUOUS
10
2.39727
20
0.433013
11
2.39787
21
0.43
0
LINE
8
BLACK
6
CONTINUOUS
10
2.39787
20
0.43
11
2.39787
21
0.37
0
LINE
8
BLACK
6
CONTINUOUS
10
2.39787
20
0.37
11
2.39727
21
0.366987
0
LINE
8
BLACK
6
CONTINUOUS
10
2.39727
20
0.366987
11
2.39557
21
0.364432
0
LINE
8
BLACK
6
CONTINUOUS
10
2.39557
20
0.364432
11
2.39301
21
0.362725
0
LINE
8
BLACK
6
CONTINUOUS
10
2.39301
20
0.362725
11
2.39
21
0.362126
0
LINE
8
BLACK
6
CONTINUOUS
10
2.39
20
0.362126
11
2.33
21
0.362126
0
LINE
8
BLACK
6
CONTINUOUS
10
2.33
20
0.362126
11
2.32699
21
0.362725
0
LINE
8
BLACK
6
CONTINUOUS
10
2.32699
20
0.362725
11
2.32443
21
0.364432
0
LINE
8
BLACK
6
CONTINUOUS
10
2.32443
20
0.364432
11
2.32273
21
0.366987
0
LINE
8
BLACK
6
CONTINUOUS
10
2.32273
20
0.366987
11
2.32213
21
0.37
0
LINE
8
BLACK
6
CONTINUOUS
10
2.32213
20
0.37
11
2.32213
21
0.43
0
LINE
8
BLACK
6
CONTINUOUS
10
2.32213
20
0.43
11
2.32273
21
0.433013
0
LINE
8
BLACK
6
CONTINUOUS
10
2.32273
20
0.433013
11
2.32443
21
0.435568
0
LINE
8
BLACK
6
CONTINUOUS
10
2.32443
20
0.435568
11
2.32699
21
0.437275
0
LINE
8
BLACK
6
CONTINUOUS
10
2.32699
20
0.437275
11
2.33
21
0.437874
0
LINE
8
BLACK
6
CONTINUOUS
10
2.33
20
0.437874
11
2.39
21
0.437874
0
LINE
8
BLACK
6
CONTINUOUS
10
2.39
20
0.437874
11
2.39301
21
0.437275
0
LINE
8
BLACK
6
CONTINUOUS
10
1.20773
20
0.475119
11
1.2127
21
0.473374
0
LINE
8
BLACK
6
CONTINUOUS
10
1.2127
20
0.473374
11
1.21694
21
0.470244
0
LINE
8
BLACK
6
CONTINUOUS
10
1.21694
20
0.470244
11
1.22007
21
0.466007
0
LINE
8
BLACK
6
CONTINUOUS
10
1.22007
20
0.466007
11
1.22181
21
0.461036
0
LINE
8
BLACK
6
CONTINUOUS
10
1.22181
20
0.461036
11
1.22213
21
0.457717
0
LINE
8
BLACK
6
CONTINUOUS
10
1.22213
20
0.457717
11
1.22213
21
0.422283
0
LINE
8
BLACK
6
CONTINUOUS
10
1.22213
20
0.422283
11
1.22181
21
0.418964
0
LINE
8
BLACK
6
CONTINUOUS
10
1.22181
20
0.418964
11
1.22007
21
0.413993
0
LINE
8
BLACK
6
CONTINUOUS
10
1.22007
20
0.413993
11
1.21694
21
0.409756
0
LINE
8
BLACK
6
CONTINUOUS
10
1.21694
20
0.409756
11
1.2127
21
0.406626
0
LINE
8
BLACK
6
CONTINUOUS
10
1.2127
20
0.406626
11
1.20773
21
0.404881
0
LINE
8
BLACK
6
CONTINUOUS
10
1.20773
20
0.404881
11
1.20441
21
0.404567
0
LINE
8
BLACK
6
CONTINUOUS
10
1.20441
20
0.404567
11
1.18374
21
0.404567
0
LINE
8
BLACK
6
CONTINUOUS
10
1.18374
20
0.404567
11
1.18042
21
0.404881
0
LINE
8
BLACK
6
CONTINUOUS
10
1.18042
20
0.404881
11
1.17545
21
0.406626
0
LINE
8
BLACK
6
CONTINUOUS
10
1.17545
20
0.406626
11
1.17121
21
0.409756
0
LINE
8
BLACK
6
CONTINUOUS
10
1.17121
20
0.409756
11
1.16808
21
0.413993
0
LINE
8
BLACK
6
CONTINUOUS
10
1.16808
20
0.413993
11
1.16634
21
0.418964
0
LINE
8
BLACK
6
CONTINUOUS
10
1.16634
20
0.418964
11
1.16602
21
0.422283
0
LINE
8
BLACK
6
CONTINUOUS
10
1.16602
20
0.422283
11
1.16602
21
0.457717
0
LINE
8
BLACK
6
CONTINUOUS
10
1.16602
20
0.457717
11
1.16634
21
0.461036
0
LINE
8
BLACK
6
CONTINUOUS
10
1.16634
20
0.461036
11
1.16808
21
0.466007
0
LINE
8
BLACK
6
CONTINUOUS
10
1.16808
20
0.466007
11
1.17121
21
0.470244
0
LINE
8
BLACK
6
CONTINUOUS
10
1.17121
20
0.470244
11
1.17545
21
0.473374
0
LINE
8
BLACK
6
CONTINUOUS
10
1.17545
20
0.473374
11
1.18042
21
0.475119
0
LINE
8
BLACK
6
CONTINUOUS
10
1.18042
20
0.475119
11
1.18374
21
0.475433
0
LINE
8
BLACK
6
CONTINUOUS
10
1.18374
20
0.475433
11
1.20441
21
0.475433
0
LINE
8
BLACK
6
CONTINUOUS
10
1.20441
20
0.475433
11
1.20773
21
0.475119
0
LINE
8
BLACK
6
CONTINUOUS
10
1.27958
20
0.475119
11
1.28455
21
0.473374
0
LINE
8
BLACK
6
CONTINUOUS
10
1.28455
20
0.473374
11
1.28879
21
0.470244
0
LINE
8
BLACK
6
CONTINUOUS
10
1.28879
20
0.470244
11
1.29192
21
0.466007
0
LINE
8
BLACK
6
CONTINUOUS
10
1.29192
20
0.466007
11
1.29366
21
0.461036
0
LINE
8
BLACK
6
CONTINUOUS
10
1.29366
20
0.461036
11
1.29398
21
0.457717
0
LINE
8
BLACK
6
CONTINUOUS
10
1.29398
20
0.457717
11
1.29398
21
0.422283
0
LINE
8
BLACK
6
CONTINUOUS
10
1.29398
20
0.422283
11
1.29366
21
0.418964
0
LINE
8
BLACK
6
CONTINUOUS
10
1.29366
20
0.418964
11
1.29192
21
0.413993
0
LINE
8
BLACK
6
CONTINUOUS
10
1.29192
20
0.413993
11
1.28879
21
0.409756
0
LINE
8
BLACK
6
CONTINUOUS
10
1.28879
20
0.409756
11
1.28455
21
0.406626
0
LINE
8
BLACK
6
CONTINUOUS
10
1.28455
20
0.406626
11
1.27958
21
0.404881
0
LINE
8
BLACK
6
CONTINUOUS
10
1.27958
20
0.404881
11
1.27626
21
0.404567
0
LINE
8
BLACK
6
CONTINUOUS
10
1.27626
20
0.404567
11
1.25559
21
0.404567
0
LINE
8
BLACK
6
CONTINUOUS
10
1.25559
20
0.404567
11
1.25227
21
0.404881
0
LINE
8
BLACK
6
CONTINUOUS
10
1.25227
20
0.404881
11
1.2473
21
0.406626
0
LINE
8
BLACK
6
CONTINUOUS
10
1.2473
20
0.406626
11
1.24306
21
0.409756
0
LINE
8
BLACK
6
CONTINUOUS
10
1.24306
20
0.409756
11
1.23993
21
0.413993
0
LINE
8
BLACK
6
CONTINUOUS
10
1.23993
20
0.413993
11
1.23819
21
0.418964
0
LINE
8
BLACK
6
CONTINUOUS
10
1.23819
20
0.418964
11
1.23787
21
0.422283
0
LINE
8
BLACK
6
CONTINUOUS
10
1.23787
20
0.422283
11
1.23787
21
0.457717
0
LINE
8
BLACK
6
CONTINUOUS
10
1.23787
20
0.457717
11
1.23819
21
0.461036
0
LINE
8
BLACK
6
CONTINUOUS
10
1.23819
20
0.461036
11
1.23993
21
0.466007
0
LINE
8
BLACK
6
CONTINUOUS
10
1.23993
20
0.466007
11
1.24306
21
0.470244
0
LINE
8
BLACK
6
CONTINUOUS
10
1.24306
20
0.470244
11
1.2473
21
0.473374
0
LINE
8
BLACK
6
CONTINUOUS
10
1.2473
20
0.473374
11
1.25227
21
0.475119
0
LINE
8
BLACK
6
CONTINUOUS
10
1.25227
20
0.475119
11
1.25559
21
0.475433
0
LINE
8
BLACK
6
CONTINUOUS
10
1.25559
20
0.475433
11
1.27626
21
0.475433
0
LINE
8
BLACK
6
CONTINUOUS
10
1.27626
20
0.475433
11
1.27958
21
0.475119
0
LINE
8
BLACK
6
CONTINUOUS
10
1.49202
20
0.459844
11
1.49699
21
0.458098
0
LINE
8
BLACK
6
CONTINUOUS
10
1.49699
20
0.458098
11
1.50123
21
0.454968
0
LINE
8
BLACK
6
CONTINUOUS
10
1.50123
20
0.454968
11
1.50436
21
0.450731
0
LINE
8
BLACK
6
CONTINUOUS
10
1.50436
20
0.450731
11
1.5061
21
0.445761
0
LINE
8
BLACK
6
CONTINUOUS
10
1.5061
20
0.445761
11
1.50642
21
0.442441
0
LINE
8
BLACK
6
CONTINUOUS
10
1.50642
20
0.442441
11
1.50642
21
0.422756
0
LINE
8
BLACK
6
CONTINUOUS
10
1.50642
20
0.422756
11
1.5061
21
0.419436
0
LINE
8
BLACK
6
CONTINUOUS
10
1.5061
20
0.419436
11
1.50436
21
0.414466
0
LINE
8
BLACK
6
CONTINUOUS
10
1.50436
20
0.414466
11
1.50123
21
0.410228
0
LINE
8
BLACK
6
CONTINUOUS
10
1.50123
20
0.410228
11
1.49699
21
0.407099
0
LINE
8
BLACK
6
CONTINUOUS
10
1.49699
20
0.407099
11
1.49202
21
0.405353
0
LINE
8
BLACK
6
CONTINUOUS
10
1.49202
20
0.405353
11
1.4887
21
0.405039
0
LINE
8
BLACK
6
CONTINUOUS
10
1.4887
20
0.405039
11
1.4513
21
0.405039
0
LINE
8
BLACK
6
CONTINUOUS
10
1.4513
20
0.405039
11
1.44798
21
0.405353
0
LINE
8
BLACK
6
CONTINUOUS
10
1.44798
20
0.405353
11
1.44301
21
0.407099
0
LINE
8
BLACK
6
CONTINUOUS
10
1.44301
20
0.407099
11
1.43877
21
0.410228
0
LINE
8
BLACK
6
CONTINUOUS
10
1.43877
20
0.410228
11
1.43564
21
0.414466
0
LINE
8
BLACK
6
CONTINUOUS
10
1.43564
20
0.414466
11
1.4339
21
0.419436
0
LINE
8
BLACK
6
CONTINUOUS
10
1.4339
20
0.419436
11
1.43358
21
0.422756
0
LINE
8
BLACK
6
CONTINUOUS
10
1.43358
20
0.422756
11
1.43358
21
0.442441
0
LINE
8
BLACK
6
CONTINUOUS
10
1.43358
20
0.442441
11
1.4339
21
0.445761
0
LINE
8
BLACK
6
CONTINUOUS
10
1.4339
20
0.445761
11
1.43564
21
0.450731
0
LINE
8
BLACK
6
CONTINUOUS
10
1.43564
20
0.450731
11
1.43877
21
0.454968
0
LINE
8
BLACK
6
CONTINUOUS
10
1.43877
20
0.454968
11
1.44301
21
0.458098
0
LINE
8
BLACK
6
CONTINUOUS
10
1.44301
20
0.458098
11
1.44798
21
0.459844
0
LINE
8
BLACK
6
CONTINUOUS
10
1.44798
20
0.459844
11
1.4513
21
0.460157
0
LINE
8
BLACK
6
CONTINUOUS
10
1.4513
20
0.460157
11
1.4887
21
0.460157
0
LINE
8
BLACK
6
CONTINUOUS
10
1.4887
20
0.460157
11
1.49202
21
0.459844
0
LINE
8
BLACK
6
CONTINUOUS
10
0.65958
20
0.485119
11
0.66455
21
0.483374
0
LINE
8
BLACK
6
CONTINUOUS
10
0.66455
20
0.483374
11
0.668787
21
0.480244
0
LINE
8
BLACK
6
CONTINUOUS
10
0.668787
20
0.480244
11
0.671917
21
0.476007
0
LINE
8
BLACK
6
CONTINUOUS
10
0.671917
20
0.476007
11
0.673663
21
0.471036
0
LINE
8
BLACK
6
CONTINUOUS
10
0.673663
20
0.471036
11
0.673976
21
0.467717
0
LINE
8
BLACK
6
CONTINUOUS
10
0.673976
20
0.467717
11
0.673976
21
0.432283
0
LINE
8
BLACK
6
CONTINUOUS
10
0.673976
20
0.432283
11
0.673663
21
0.428964
0
LINE
8
BLACK
6
CONTINUOUS
10
0.673663
20
0.428964
11
0.671917
21
0.423993
0
LINE
8
BLACK
6
CONTINUOUS
10
0.671917
20
0.423993
11
0.668787
21
0.419756
0
LINE
8
BLACK
6
CONTINUOUS
10
0.668787
20
0.419756
11
0.66455
21
0.416626
0
LINE
8
BLACK
6
CONTINUOUS
10
0.66455
20
0.416626
11
0.65958
21
0.414881
0
LINE
8
BLACK
6
CONTINUOUS
10
0.65958
20
0.414881
11
0.65626
21
0.414567
0
LINE
8
BLACK
6
CONTINUOUS
10
0.65626
20
0.414567
11
0.635591
21
0.414567
0
LINE
8
BLACK
6
CONTINUOUS
10
0.635591
20
0.414567
11
0.632271
21
0.414881
0
LINE
8
BLACK
6
CONTINUOUS
10
0.632271
20
0.414881
11
0.6273
21
0.416626
0
LINE
8
BLACK
6
CONTINUOUS
10
0.6273
20
0.416626
11
0.623063
21
0.419756
0
LINE
8
BLACK
6
CONTINUOUS
10
0.623063
20
0.419756
11
0.619933
21
0.423993
0
LINE
8
BLACK
6
CONTINUOUS
10
0.619933
20
0.423993
11
0.618188
21
0.428964
0
LINE
8
BLACK
6
CONTINUOUS
10
0.618188
20
0.428964
11
0.617874
21
0.432283
0
LINE
8
BLACK
6
CONTINUOUS
10
0.617874
20
0.432283
11
0.617874
21
0.467717
0
LINE
8
BLACK
6
CONTINUOUS
10
0.617874
20
0.467717
11
0.618188
21
0.471036
0
LINE
8
BLACK
6
CONTINUOUS
10
0.618188
20
0.471036
11
0.619933
21
0.476007
0
LINE
8
BLACK
6
CONTINUOUS
10
0.619933
20
0.476007
11
0.623063
21
0.480244
0
LINE
8
BLACK
6
CONTINUOUS
10
0.623063
20
0.480244
11
0.6273
21
0.483374
0
LINE
8
BLACK
6
CONTINUOUS
10
0.6273
20
0.483374
11
0.632271
21
0.485119
0
LINE
8
BLACK
6
CONTINUOUS
10
0.632271
20
0.485119
11
0.635591
21
0.485433
0
LINE
8
BLACK
6
CONTINUOUS
10
0.635591
20
0.485433
11
0.65626
21
0.485433
0
LINE
8
BLACK
6
CONTINUOUS
10
0.65626
20
0.485433
11
0.65958
21
0.485119
0
LINE
8
BLACK
6
CONTINUOUS
10
0.587729
20
0.485119
11
0.5927
21
0.483374
0
LINE
8
BLACK
6
CONTINUOUS
10
0.5927
20
0.483374
11
0.596937
21
0.480244
0
LINE
8
BLACK
6
CONTINUOUS
10
0.596937
20
0.480244
11
0.600067
21
0.476007
0
LINE
8
BLACK
6
CONTINUOUS
10
0.600067
20
0.476007
11
0.601812
21
0.471036
0
LINE
8
BLACK
6
CONTINUOUS
10
0.601812
20
0.471036
11
0.602126
21
0.467717
0
LINE
8
BLACK
6
CONTINUOUS
10
0.602126
20
0.467717
11
0.602126
21
0.432283
0
LINE
8
BLACK
6
CONTINUOUS
10
0.602126
20
0.432283
11
0.601812
21
0.428964
0
LINE
8
BLACK
6
CONTINUOUS
10
0.601812
20
0.428964
11
0.600067
21
0.423993
0
LINE
8
BLACK
6
CONTINUOUS
10
0.600067
20
0.423993
11
0.596937
21
0.419756
0
LINE
8
BLACK
6
CONTINUOUS
10
0.596937
20
0.419756
11
0.5927
21
0.416626
0
LINE
8
BLACK
6
CONTINUOUS
10
0.5927
20
0.416626
11
0.587729
21
0.414881
0
LINE
8
BLACK
6
CONTINUOUS
10
0.587729
20
0.414881
11
0.584409
21
0.414567
0
LINE
8
BLACK
6
CONTINUOUS
10
0.584409
20
0.414567
11
0.56374
21
0.414567
0
LINE
8
BLACK
6
CONTINUOUS
10
0.56374
20
0.414567
11
0.56042
21
0.414881
0
LINE
8
BLACK
6
CONTINUOUS
10
0.56042
20
0.414881
11
0.55545
21
0.416626
0
LINE
8
BLACK
6
CONTINUOUS
10
0.55545
20
0.416626
11
0.551213
21
0.419756
0
LINE
8
BLACK
6
CONTINUOUS
10
0.551213
20
0.419756
11
0.548083
21
0.423993
0
LINE
8
BLACK
6
CONTINUOUS
10
0.548083
20
0.423993
11
0.546337
21
0.428964
0
LINE
8
BLACK
6
CONTINUOUS
10
0.546337
20
0.428964
11
0.546024
21
0.432283
0
LINE
8
BLACK
6
CONTINUOUS
10
0.546024
20
0.432283
11
0.546024
21
0.467717
0
LINE
8
BLACK
6
CONTINUOUS
10
0.546024
20
0.467717
11
0.546337
21
0.471036
0
LINE
8
BLACK
6
CONTINUOUS
10
0.546337
20
0.471036
11
0.548083
21
0.476007
0
LINE
8
BLACK
6
CONTINUOUS
10
0.548083
20
0.476007
11
0.551213
21
0.480244
0
LINE
8
BLACK
6
CONTINUOUS
10
0.551213
20
0.480244
11
0.55545
21
0.483374
0
LINE
8
BLACK
6
CONTINUOUS
10
0.55545
20
0.483374
11
0.56042
21
0.485119
0
LINE
8
BLACK
6
CONTINUOUS
10
0.56042
20
0.485119
11
0.56374
21
0.485433
0
LINE
8
BLACK
6
CONTINUOUS
10
0.56374
20
0.485433
11
0.584409
21
0.485433
0
LINE
8
BLACK
6
CONTINUOUS
10
0.584409
20
0.485433
11
0.587729
21
0.485119
0
LINE
8
BLACK
6
CONTINUOUS
10
0.847729
20
0.485119
11
0.8527
21
0.483374
0
LINE
8
BLACK
6
CONTINUOUS
10
0.8527
20
0.483374
11
0.856937
21
0.480244
0
LINE
8
BLACK
6
CONTINUOUS
10
0.856937
20
0.480244
11
0.860067
21
0.476007
0
LINE
8
BLACK
6
CONTINUOUS
10
0.860067
20
0.476007
11
0.861812
21
0.471036
0
LINE
8
BLACK
6
CONTINUOUS
10
0.861812
20
0.471036
11
0.862126
21
0.467717
0
LINE
8
BLACK
6
CONTINUOUS
10
0.862126
20
0.467717
11
0.862126
21
0.432283
0
LINE
8
BLACK
6
CONTINUOUS
10
0.862126
20
0.432283
11
0.861812
21
0.428964
0
LINE
8
BLACK
6
CONTINUOUS
10
0.861812
20
0.428964
11
0.860067
21
0.423993
0
LINE
8
BLACK
6
CONTINUOUS
10
0.860067
20
0.423993
11
0.856937
21
0.419756
0
LINE
8
BLACK
6
CONTINUOUS
10
0.856937
20
0.419756
11
0.8527
21
0.416626
0
LINE
8
BLACK
6
CONTINUOUS
10
0.8527
20
0.416626
11
0.847729
21
0.414881
0
LINE
8
BLACK
6
CONTINUOUS
10
0.847729
20
0.414881
11
0.844409
21
0.414567
0
LINE
8
BLACK
6
CONTINUOUS
10
0.844409
20
0.414567
11
0.82374
21
0.414567
0
LINE
8
BLACK
6
CONTINUOUS
10
0.82374
20
0.414567
11
0.82042
21
0.414881
0
LINE
8
BLACK
6
CONTINUOUS
10
0.82042
20
0.414881
11
0.81545
21
0.416626
0
LINE
8
BLACK
6
CONTINUOUS
10
0.81545
20
0.416626
11
0.811213
21
0.419756
0
LINE
8
BLACK
6
CONTINUOUS
10
0.811213
20
0.419756
11
0.808083
21
0.423993
0
LINE
8
BLACK
6
CONTINUOUS
10
0.808083
20
0.423993
11
0.806337
21
0.428964
0
LINE
8
BLACK
6
CONTINUOUS
10
0.806337
20
0.428964
11
0.806024
21
0.432283
0
LINE
8
BLACK
6
CONTINUOUS
10
0.806024
20
0.432283
11
0.806024
21
0.467717
0
LINE
8
BLACK
6
CONTINUOUS
10
0.806024
20
0.467717
11
0.806337
21
0.471036
0
LINE
8
BLACK
6
CONTINUOUS
10
0.806337
20
0.471036
11
0.808083
21
0.476007
0
LINE
8
BLACK
6
CONTINUOUS
10
0.808083
20
0.476007
11
0.811213
21
0.480244
0
LINE
8
BLACK
6
CONTINUOUS
10
0.811213
20
0.480244
11
0.81545
21
0.483374
0
LINE
8
BLACK
6
CONTINUOUS
10
0.81545
20
0.483374
11
0.82042
21
0.485119
0
LINE
8
BLACK
6
CONTINUOUS
10
0.82042
20
0.485119
11
0.82374
21
0.485433
0
LINE
8
BLACK
6
CONTINUOUS
10
0.82374
20
0.485433
11
0.844409
21
0.485433
0
LINE
8
BLACK
6
CONTINUOUS
10
0.844409
20
0.485433
11
0.847729
21
0.485119
0
LINE
8
BLACK
6
CONTINUOUS
10
0.333654
20
0.485119
11
0.338625
21
0.483374
0
LINE
8
BLACK
6
CONTINUOUS
10
0.338625
20
0.483374
11
0.342862
21
0.480244
0
LINE
8
BLACK
6
CONTINUOUS
10
0.342862
20
0.480244
11
0.345992
21
0.476007
0
LINE
8
BLACK
6
CONTINUOUS
10
0.345992
20
0.476007
11
0.347737
21
0.471036
0
LINE
8
BLACK
6
CONTINUOUS
10
0.347737
20
0.471036
11
0.348051
21
0.467717
0
LINE
8
BLACK
6
CONTINUOUS
10
0.348051
20
0.467717
11
0.348051
21
0.432283
0
LINE
8
BLACK
6
CONTINUOUS
10
0.348051
20
0.432283
11
0.347737
21
0.428964
0
LINE
8
BLACK
6
CONTINUOUS
10
0.347737
20
0.428964
11
0.345992
21
0.423993
0
LINE
8
BLACK
6
CONTINUOUS
10
0.345992
20
0.423993
11
0.342862
21
0.419756
0
LINE
8
BLACK
6
CONTINUOUS
10
0.342862
20
0.419756
11
0.338625
21
0.416626
0
LINE
8
BLACK
6
CONTINUOUS
10
0.338625
20
0.416626
11
0.333654
21
0.414881
0
LINE
8
BLACK
6
CONTINUOUS
10
0.333654
20
0.414881
11
0.330335
21
0.414567
0
LINE
8
BLACK
6
CONTINUOUS
10
0.330335
20
0.414567
11
0.309665
21
0.414567
0
LINE
8
BLACK
6
CONTINUOUS
10
0.309665
20
0.414567
11
0.306346
21
0.414881
0
LINE
8
BLACK
6
CONTINUOUS
10
0.306346
20
0.414881
11
0.301375
21
0.416626
0
LINE
8
BLACK
6
CONTINUOUS
10
0.301375
20
0.416626
11
0.297138
21
0.419756
0
LINE
8
BLACK
6
CONTINUOUS
10
0.297138
20
0.419756
11
0.294008
21
0.423993
0
LINE
8
BLACK
6
CONTINUOUS
10
0.294008
20
0.423993
11
0.292263
21
0.428964
0
LINE
8
BLACK
6
CONTINUOUS
10
0.292263
20
0.428964
11
0.291949
21
0.432283
0
LINE
8
BLACK
6
CONTINUOUS
10
0.291949
20
0.432283
11
0.291949
21
0.467717
0
LINE
8
BLACK
6
CONTINUOUS
10
0.291949
20
0.467717
11
0.292263
21
0.471036
0
LINE
8
BLACK
6
CONTINUOUS
10
0.292263
20
0.471036
11
0.294008
21
0.476007
0
LINE
8
BLACK
6
CONTINUOUS
10
0.294008
20
0.476007
11
0.297138
21
0.480244
0
LINE
8
BLACK
6
CONTINUOUS
10
0.297138
20
0.480244
11
0.301375
21
0.483374
0
LINE
8
BLACK
6
CONTINUOUS
10
0.301375
20
0.483374
11
0.306346
21
0.485119
0
LINE
8
BLACK
6
CONTINUOUS
10
0.306346
20
0.485119
11
0.309665
21
0.485433
0
LINE
8
BLACK
6
CONTINUOUS
10
0.309665
20
0.485433
11
0.330335
21
0.485433
0
LINE
8
BLACK
6
CONTINUOUS
10
0.330335
20
0.485433
11
0.333654
21
0.485119
0
LINE
8
BLACK
6
CONTINUOUS
10
0.405505
20
0.485119
11
0.410475
21
0.483374
0
LINE
8
BLACK
6
CONTINUOUS
10
0.410475
20
0.483374
11
0.414713
21
0.480244
0
LINE
8
BLACK
6
CONTINUOUS
10
0.414713
20
0.480244
11
0.417842
21
0.476007
0
LINE
8
BLACK
6
CONTINUOUS
10
0.417842
20
0.476007
11
0.419588
21
0.471036
0
LINE
8
BLACK
6
CONTINUOUS
10
0.419588
20
0.471036
11
0.419902
21
0.467717
0
LINE
8
BLACK
6
CONTINUOUS
10
0.419902
20
0.467717
11
0.419902
21
0.432283
0
LINE
8
BLACK
6
CONTINUOUS
10
0.419902
20
0.432283
11
0.419588
21
0.428964
0
LINE
8
BLACK
6
CONTINUOUS
10
0.419588
20
0.428964
11
0.417842
21
0.423993
0
LINE
8
BLACK
6
CONTINUOUS
10
0.417842
20
0.423993
11
0.414713
21
0.419756
0
LINE
8
BLACK
6
CONTINUOUS
10
0.414713
20
0.419756
11
0.410475
21
0.416626
0
LINE
8
BLACK
6
CONTINUOUS
10
0.410475
20
0.416626
11
0.405505
21
0.414881
0
LINE
8
BLACK
6
CONTINUOUS
10
0.405505
20
0.414881
11
0.402185
21
0.414567
0
LINE
8
BLACK
6
CONTINUOUS
10
0.402185
20
0.414567
11
0.381516
21
0.414567
0
LINE
8
BLACK
6
CONTINUOUS
10
0.381516
20
0.414567
11
0.378196
21
0.414881
0
LINE
8
BLACK
6
CONTINUOUS
10
0.378196
20
0.414881
11
0.373226
21
0.416626
0
LINE
8
BLACK
6
CONTINUOUS
10
0.373226
20
0.416626
11
0.368988
21
0.419756
0
LINE
8
BLACK
6
CONTINUOUS
10
0.368988
20
0.419756
11
0.365858
21
0.423993
0
LINE
8
BLACK
6
CONTINUOUS
10
0.365858
20
0.423993
11
0.364113
21
0.428964
0
LINE
8
BLACK
6
CONTINUOUS
10
0.364113
20
0.428964
11
0.363799
21
0.432283
0
LINE
8
BLACK
6
CONTINUOUS
10
0.363799
20
0.432283
11
0.363799
21
0.467717
0
LINE
8
BLACK
6
CONTINUOUS
10
0.363799
20
0.467717
11
0.364113
21
0.471036
0
LINE
8
BLACK
6
CONTINUOUS
10
0.364113
20
0.471036
11
0.365858
21
0.476007
0
LINE
8
BLACK
6
CONTINUOUS
10
0.365858
20
0.476007
11
0.368988
21
0.480244
0
LINE
8
BLACK
6
CONTINUOUS
10
0.368988
20
0.480244
11
0.373226
21
0.483374
0
LINE
8
BLACK
6
CONTINUOUS
10
0.373226
20
0.483374
11
0.378196
21
0.485119
0
LINE
8
BLACK
6
CONTINUOUS
10
0.378196
20
0.485119
11
0.381516
21
0.485433
0
LINE
8
BLACK
6
CONTINUOUS
10
0.381516
20
0.485433
11
0.402185
21
0.485433
0
LINE
8
BLACK
6
CONTINUOUS
10
0.402185
20
0.485433
11
0.405505
21
0.485119
0
LINE
8
BLACK
6
CONTINUOUS
10
0.91958
20
0.485119
11
0.92455
21
0.483374
0
LINE
8
BLACK
6
CONTINUOUS
10
0.92455
20
0.483374
11
0.928787
21
0.480244
0
LINE
8
BLACK
6
CONTINUOUS
10
0.928787
20
0.480244
11
0.931917
21
0.476007
0
LINE
8
BLACK
6
CONTINUOUS
10
0.931917
20
0.476007
11
0.933663
21
0.471036
0
LINE
8
BLACK
6
CONTINUOUS
10
0.933663
20
0.471036
11
0.933976
21
0.467717
0
LINE
8
BLACK
6
CONTINUOUS
10
0.933976
20
0.467717
11
0.933976
21
0.432283
0
LINE
8
BLACK
6
CONTINUOUS
10
0.933976
20
0.432283
11
0.933663
21
0.428964
0
LINE
8
BLACK
6
CONTINUOUS
10
0.933663
20
0.428964
11
0.931917
21
0.423993
0
LINE
8
BLACK
6
CONTINUOUS
10
0.931917
20
0.423993
11
0.928787
21
0.419756
0
LINE
8
BLACK
6
CONTINUOUS
10
0.928787
20
0.419756
11
0.92455
21
0.416626
0
LINE
8
BLACK
6
CONTINUOUS
10
0.92455
20
0.416626
11
0.91958
21
0.414881
0
LINE
8
BLACK
6
CONTINUOUS
10
0.91958
20
0.414881
11
0.91626
21
0.414567
0
LINE
8
BLACK
6
CONTINUOUS
10
0.91626
20
0.414567
11
0.895591
21
0.414567
0
LINE
8
BLACK
6
CONTINUOUS
10
0.895591
20
0.414567
11
0.892271
21
0.414881
0
LINE
8
BLACK
6
CONTINUOUS
10
0.892271
20
0.414881
11
0.8873
21
0.416626
0
LINE
8
BLACK
6
CONTINUOUS
10
0.8873
20
0.416626
11
0.883063
21
0.419756
0
LINE
8
BLACK
6
CONTINUOUS
10
0.883063
20
0.419756
11
0.879933
21
0.423993
0
LINE
8
BLACK
6
CONTINUOUS
10
0.879933
20
0.423993
11
0.878188
21
0.428964
0
LINE
8
BLACK
6
CONTINUOUS
10
0.878188
20
0.428964
11
0.877874
21
0.432283
0
LINE
8
BLACK
6
CONTINUOUS
10
0.877874
20
0.432283
11
0.877874
21
0.467717
0
LINE
8
BLACK
6
CONTINUOUS
10
0.877874
20
0.467717
11
0.878188
21
0.471036
0
LINE
8
BLACK
6
CONTINUOUS
10
0.878188
20
0.471036
11
0.879933
21
0.476007
0
LINE
8
BLACK
6
CONTINUOUS
10
0.879933
20
0.476007
11
0.883063
21
0.480244
0
LINE
8
BLACK
6
CONTINUOUS
10
0.883063
20
0.480244
11
0.8873
21
0.483374
0
LINE
8
BLACK
6
CONTINUOUS
10
0.8873
20
0.483374
11
0.892271
21
0.485119
0
LINE
8
BLACK
6
CONTINUOUS
10
0.892271
20
0.485119
11
0.895591
21
0.485433
0
LINE
8
BLACK
6
CONTINUOUS
10
0.895591
20
0.485433
11
0.91626
21
0.485433
0
LINE
8
BLACK
6
CONTINUOUS
10
0.91626
20
0.485433
11
0.91958
21
0.485119
0
LINE
8
BLACK
6
CONTINUOUS
10
0.512021
20
0.469844
11
0.516991
21
0.468098
0
LINE
8
BLACK
6
CONTINUOUS
10
0.516991
20
0.468098
11
0.521228
21
0.464968
0
LINE
8
BLACK
6
CONTINUOUS
10
0.521228
20
0.464968
11
0.524358
21
0.460731
0
LINE
8
BLACK
6
CONTINUOUS
10
0.524358
20
0.460731
11
0.526104
21
0.455761
0
LINE
8
BLACK
6
CONTINUOUS
10
0.526104
20
0.455761
11
0.526417
21
0.452441
0
LINE
8
BLACK
6
CONTINUOUS
10
0.526417
20
0.452441
11
0.526417
21
0.432756
0
LINE
8
BLACK
6
CONTINUOUS
10
0.526417
20
0.432756
11
0.526104
21
0.429436
0
LINE
8
BLACK
6
CONTINUOUS
10
0.526104
20
0.429436
11
0.524358
21
0.424466
0
LINE
8
BLACK
6
CONTINUOUS
10
0.524358
20
0.424466
11
0.521228
21
0.420228
0
LINE
8
BLACK
6
CONTINUOUS
10
0.521228
20
0.420228
11
0.516991
21
0.417099
0
LINE
8
BLACK
6
CONTINUOUS
10
0.516991
20
0.417099
11
0.512021
21
0.415353
0
LINE
8
BLACK
6
CONTINUOUS
10
0.512021
20
0.415353
11
0.508701
21
0.415039
0
LINE
8
BLACK
6
CONTINUOUS
10
0.508701
20
0.415039
11
0.471299
21
0.415039
0
LINE
8
BLACK
6
CONTINUOUS
10
0.471299
20
0.415039
11
0.467979
21
0.415353
0
LINE
8
BLACK
6
CONTINUOUS
10
0.467979
20
0.415353
11
0.463009
21
0.417099
0
LINE
8
BLACK
6
CONTINUOUS
10
0.463009
20
0.417099
11
0.458772
21
0.420228
0
LINE
8
BLACK
6
CONTINUOUS
10
0.458772
20
0.420228
11
0.455642
21
0.424466
0
LINE
8
BLACK
6
CONTINUOUS
10
0.455642
20
0.424466
11
0.453896
21
0.429436
0
LINE
8
BLACK
6
CONTINUOUS
10
0.453896
20
0.429436
11
0.453583
21
0.432756
0
LINE
8
BLACK
6
CONTINUOUS
10
0.453583
20
0.432756
11
0.453583
21
0.452441
0
LINE
8
BLACK
6
CONTINUOUS
10
0.453583
20
0.452441
11
0.453896
21
0.455761
0
LINE
8
BLACK
6
CONTINUOUS
10
0.453896
20
0.455761
11
0.455642
21
0.460731
0
LINE
8
BLACK
6
CONTINUOUS
10
0.455642
20
0.460731
11
0.458772
21
0.464968
0
LINE
8
BLACK
6
CONTINUOUS
10
0.458772
20
0.464968
11
0.463009
21
0.468098
0
LINE
8
BLACK
6
CONTINUOUS
10
0.463009
20
0.468098
11
0.467979
21
0.469844
0
LINE
8
BLACK
6
CONTINUOUS
10
0.467979
20
0.469844
11
0.471299
21
0.470157
0
LINE
8
BLACK
6
CONTINUOUS
10
0.471299
20
0.470157
11
0.508701
21
0.470157
0
LINE
8
BLACK
6
CONTINUOUS
10
0.508701
20
0.470157
11
0.512021
21
0.469844
0
LINE
8
BLACK
6
CONTINUOUS
10
0.242021
20
0.469844
11
0.246991
21
0.468098
0
LINE
8
BLACK
6
CONTINUOUS
10
0.246991
20
0.468098
11
0.251228
21
0.464968
0
LINE
8
BLACK
6
CONTINUOUS
10
0.251228
20
0.464968
11
0.254358
21
0.460731
0
LINE
8
BLACK
6
CONTINUOUS
10
0.254358
20
0.460731
11
0.256104
21
0.455761
0
LINE
8
BLACK
6
CONTINUOUS
10
0.256104
20
0.455761
11
0.256417
21
0.452441
0
LINE
8
BLACK
6
CONTINUOUS
10
0.256417
20
0.452441
11
0.256417
21
0.432756
0
LINE
8
BLACK
6
CONTINUOUS
10
0.256417
20
0.432756
11
0.256104
21
0.429436
0
LINE
8
BLACK
6
CONTINUOUS
10
0.256104
20
0.429436
11
0.254358
21
0.424466
0
LINE
8
BLACK
6
CONTINUOUS
10
0.254358
20
0.424466
11
0.251228
21
0.420228
0
LINE
8
BLACK
6
CONTINUOUS
10
0.251228
20
0.420228
11
0.246991
21
0.417099
0
LINE
8
BLACK
6
CONTINUOUS
10
0.246991
20
0.417099
11
0.242021
21
0.415353
0
LINE
8
BLACK
6
CONTINUOUS
10
0.242021
20
0.415353
11
0.238701
21
0.415039
0
LINE
8
BLACK
6
CONTINUOUS
10
0.238701
20
0.415039
11
0.201299
21
0.415039
0
LINE
8
BLACK
6
CONTINUOUS
10
0.201299
20
0.415039
11
0.197979
21
0.415353
0
LINE
8
BLACK
6
CONTINUOUS
10
0.197979
20
0.415353
11
0.193009
21
0.417099
0
LINE
8
BLACK
6
CONTINUOUS
10
0.193009
20
0.417099
11
0.188772
21
0.420228
0
LINE
8
BLACK
6
CONTINUOUS
10
0.188772
20
0.420228
11
0.185642
21
0.424466
0
LINE
8
BLACK
6
CONTINUOUS
10
0.185642
20
0.424466
11
0.183896
21
0.429436
0
LINE
8
BLACK
6
CONTINUOUS
10
0.183896
20
0.429436
11
0.183583
21
0.432756
0
LINE
8
BLACK
6
CONTINUOUS
10
0.183583
20
0.432756
11
0.183583
21
0.452441
0
LINE
8
BLACK
6
CONTINUOUS
10
0.183583
20
0.452441
11
0.183896
21
0.455761
0
LINE
8
BLACK
6
CONTINUOUS
10
0.183896
20
0.455761
11
0.185642
21
0.460731
0
LINE
8
BLACK
6
CONTINUOUS
10
0.185642
20
0.460731
11
0.188772
21
0.464968
0
LINE
8
BLACK
6
CONTINUOUS
10
0.188772
20
0.464968
11
0.193009
21
0.468098
0
LINE
8
BLACK
6
CONTINUOUS
10
0.193009
20
0.468098
11
0.197979
21
0.469844
0
LINE
8
BLACK
6
CONTINUOUS
10
0.197979
20
0.469844
11
0.201299
21
0.470157
0
LINE
8
BLACK
6
CONTINUOUS
10
0.201299
20
0.470157
11
0.238701
21
0.470157
0
LINE
8
BLACK
6
CONTINUOUS
10
0.238701
20
0.470157
11
0.242021
21
0.469844
0
LINE
8
BLACK
6
CONTINUOUS
10
0.772021
20
0.469844
11
0.776991
21
0.468098
0
LINE
8
BLACK
6
CONTINUOUS
10
0.776991
20
0.468098
11
0.781228
21
0.464968
0
LINE
8
BLACK
6
CONTINUOUS
10
0.781228
20
0.464968
11
0.784358
21
0.460731
0
LINE
8
BLACK
6
CONTINUOUS
10
0.784358
20
0.460731
11
0.786104
21
0.455761
0
LINE
8
BLACK
6
CONTINUOUS
10
0.786104
20
0.455761
11
0.786417
21
0.452441
0
LINE
8
BLACK
6
CONTINUOUS
10
0.786417
20
0.452441
11
0.786417
21
0.432756
0
LINE
8
BLACK
6
CONTINUOUS
10
0.786417
20
0.432756
11
0.786104
21
0.429436
0
LINE
8
BLACK
6
CONTINUOUS
10
0.786104
20
0.429436
11
0.784358
21
0.424466
0
LINE
8
BLACK
6
CONTINUOUS
10
0.784358
20
0.424466
11
0.781228
21
0.420228
0
LINE
8
BLACK
6
CONTINUOUS
10
0.781228
20
0.420228
11
0.776991
21
0.417099
0
LINE
8
BLACK
6
CONTINUOUS
10
0.776991
20
0.417099
11
0.772021
21
0.415353
0
LINE
8
BLACK
6
CONTINUOUS
10
0.772021
20
0.415353
11
0.768701
21
0.415039
0
LINE
8
BLACK
6
CONTINUOUS
10
0.768701
20
0.415039
11
0.731299
21
0.415039
0
LINE
8
BLACK
6
CONTINUOUS
10
0.731299
20
0.415039
11
0.727979
21
0.415353
0
LINE
8
BLACK
6
CONTINUOUS
10
0.727979
20
0.415353
11
0.723009
21
0.417099
0
LINE
8
BLACK
6
CONTINUOUS
10
0.723009
20
0.417099
11
0.718772
21
0.420228
0
LINE
8
BLACK
6
CONTINUOUS
10
0.718772
20
0.420228
11
0.715642
21
0.424466
0
LINE
8
BLACK
6
CONTINUOUS
10
0.715642
20
0.424466
11
0.713896
21
0.429436
0
LINE
8
BLACK
6
CONTINUOUS
10
0.713896
20
0.429436
11
0.713583
21
0.432756
0
LINE
8
BLACK
6
CONTINUOUS
10
0.713583
20
0.432756
11
0.713583
21
0.452441
0
LINE
8
BLACK
6
CONTINUOUS
10
0.713583
20
0.452441
11
0.713896
21
0.455761
0
LINE
8
BLACK
6
CONTINUOUS
10
0.713896
20
0.455761
11
0.715642
21
0.460731
0
LINE
8
BLACK
6
CONTINUOUS
10
0.715642
20
0.460731
11
0.718772
21
0.464968
0
LINE
8
BLACK
6
CONTINUOUS
10
0.718772
20
0.464968
11
0.723009
21
0.468098
0
LINE
8
BLACK
6
CONTINUOUS
10
0.723009
20
0.468098
11
0.727979
21
0.469844
0
LINE
8
BLACK
6
CONTINUOUS
10
0.727979
20
0.469844
11
0.731299
21
0.470157
0
LINE
8
BLACK
6
CONTINUOUS
10
0.731299
20
0.470157
11
0.768701
21
0.470157
0
LINE
8
BLACK
6
CONTINUOUS
10
0.768701
20
0.470157
11
0.772021
21
0.469844
0
LINE
8
BLACK
6
CONTINUOUS
10
1.13202
20
0.469844
11
1.13699
21
0.468098
0
LINE
8
BLACK
6
CONTINUOUS
10
1.13699
20
0.468098
11
1.14123
21
0.464968
0
LINE
8
BLACK
6
CONTINUOUS
10
1.14123
20
0.464968
11
1.14436
21
0.460731
0
LINE
8
BLACK
6
CONTINUOUS
10
1.14436
20
0.460731
11
1.1461
21
0.455761
0
LINE
8
BLACK
6
CONTINUOUS
10
1.1461
20
0.455761
11
1.14642
21
0.452441
0
LINE
8
BLACK
6
CONTINUOUS
10
1.14642
20
0.452441
11
1.14642
21
0.432756
0
LINE
8
BLACK
6
CONTINUOUS
10
1.14642
20
0.432756
11
1.1461
21
0.429436
0
LINE
8
BLACK
6
CONTINUOUS
10
1.1461
20
0.429436
11
1.14436
21
0.424466
0
LINE
8
BLACK
6
CONTINUOUS
10
1.14436
20
0.424466
11
1.14123
21
0.420228
0
LINE
8
BLACK
6
CONTINUOUS
10
1.14123
20
0.420228
11
1.13699
21
0.417099
0
LINE
8
BLACK
6
CONTINUOUS
10
1.13699
20
0.417099
11
1.13202
21
0.415353
0
LINE
8
BLACK
6
CONTINUOUS
10
1.13202
20
0.415353
11
1.1287
21
0.415039
0
LINE
8
BLACK
6
CONTINUOUS
10
1.1287
20
0.415039
11
1.0913
21
0.415039
0
LINE
8
BLACK
6
CONTINUOUS
10
1.0913
20
0.415039
11
1.08798
21
0.415353
0
LINE
8
BLACK
6
CONTINUOUS
10
1.08798
20
0.415353
11
1.08301
21
0.417099
0
LINE
8
BLACK
6
CONTINUOUS
10
1.08301
20
0.417099
11
1.07877
21
0.420228
0
LINE
8
BLACK
6
CONTINUOUS
10
1.07877
20
0.420228
11
1.07564
21
0.424466
0
LINE
8
BLACK
6
CONTINUOUS
10
1.07564
20
0.424466
11
1.0739
21
0.429436
0
LINE
8
BLACK
6
CONTINUOUS
10
1.0739
20
0.429436
11
1.07358
21
0.432756
0
LINE
8
BLACK
6
CONTINUOUS
10
1.07358
20
0.432756
11
1.07358
21
0.452441
0
LINE
8
BLACK
6
CONTINUOUS
10
1.07358
20
0.452441
11
1.0739
21
0.455761
0
LINE
8
BLACK
6
CONTINUOUS
10
1.0739
20
0.455761
11
1.07564
21
0.460731
0
LINE
8
BLACK
6
CONTINUOUS
10
1.07564
20
0.460731
11
1.07877
21
0.464968
0
LINE
8
BLACK
6
CONTINUOUS
10
1.07877
20
0.464968
11
1.08301
21
0.468098
0
LINE
8
BLACK
6
CONTINUOUS
10
1.08301
20
0.468098
11
1.08798
21
0.469844
0
LINE
8
BLACK
6
CONTINUOUS
10
1.08798
20
0.469844
11
1.0913
21
0.470157
0
LINE
8
BLACK
6
CONTINUOUS
10
1.0913
20
0.470157
11
1.1287
21
0.470157
0
LINE
8
BLACK
6
CONTINUOUS
10
1.1287
20
0.470157
11
1.13202
21
0.469844
0
LINE
8
BLACK
6
CONTINUOUS
10
1.38202
20
0.469844
11
1.38699
21
0.468098
0
LINE
8
BLACK
6
CONTINUOUS
10
1.38699
20
0.468098
11
1.39123
21
0.464968
0
LINE
8
BLACK
6
CONTINUOUS
10
1.39123
20
0.464968
11
1.39436
21
0.460731
0
LINE
8
BLACK
6
CONTINUOUS
10
1.39436
20
0.460731
11
1.3961
21
0.455761
0
LINE
8
BLACK
6
CONTINUOUS
10
1.3961
20
0.455761
11
1.39642
21
0.452441
0
LINE
8
BLACK
6
CONTINUOUS
10
1.39642
20
0.452441
11
1.39642
21
0.432756
0
LINE
8
BLACK
6
CONTINUOUS
10
1.39642
20
0.432756
11
1.3961
21
0.429436
0
LINE
8
BLACK
6
CONTINUOUS
10
1.3961
20
0.429436
11
1.39436
21
0.424466
0
LINE
8
BLACK
6
CONTINUOUS
10
1.39436
20
0.424466
11
1.39123
21
0.420228
0
LINE
8
BLACK
6
CONTINUOUS
10
1.39123
20
0.420228
11
1.38699
21
0.417099
0
LINE
8
BLACK
6
CONTINUOUS
10
1.38699
20
0.417099
11
1.38202
21
0.415353
0
LINE
8
BLACK
6
CONTINUOUS
10
1.38202
20
0.415353
11
1.3787
21
0.415039
0
LINE
8
BLACK
6
CONTINUOUS
10
1.3787
20
0.415039
11
1.3413
21
0.415039
0
LINE
8
BLACK
6
CONTINUOUS
10
1.3413
20
0.415039
11
1.33798
21
0.415353
0
LINE
8
BLACK
6
CONTINUOUS
10
1.33798
20
0.415353
11
1.33301
21
0.417099
0
LINE
8
BLACK
6
CONTINUOUS
10
1.33301
20
0.417099
11
1.32877
21
0.420228
0
LINE
8
BLACK
6
CONTINUOUS
10
1.32877
20
0.420228
11
1.32564
21
0.424466
0
LINE
8
BLACK
6
CONTINUOUS
10
1.32564
20
0.424466
11
1.3239
21
0.429436
0
LINE
8
BLACK
6
CONTINUOUS
10
1.3239
20
0.429436
11
1.32358
21
0.432756
0
LINE
8
BLACK
6
CONTINUOUS
10
1.32358
20
0.432756
11
1.32358
21
0.452441
0
LINE
8
BLACK
6
CONTINUOUS
10
1.32358
20
0.452441
11
1.3239
21
0.455761
0
LINE
8
BLACK
6
CONTINUOUS
10
1.3239
20
0.455761
11
1.32564
21
0.460731
0
LINE
8
BLACK
6
CONTINUOUS
10
1.32564
20
0.460731
11
1.32877
21
0.464968
0
LINE
8
BLACK
6
CONTINUOUS
10
1.32877
20
0.464968
11
1.33301
21
0.468098
0
LINE
8
BLACK
6
CONTINUOUS
10
1.33301
20
0.468098
11
1.33798
21
0.469844
0
LINE
8
BLACK
6
CONTINUOUS
10
1.33798
20
0.469844
11
1.3413
21
0.470157
0
LINE
8
BLACK
6
CONTINUOUS
10
1.3413
20
0.470157
11
1.3787
21
0.470157
0
LINE
8
BLACK
6
CONTINUOUS
10
1.3787
20
0.470157
11
1.38202
21
0.469844
0
LINE
8
BLACK
6
CONTINUOUS
10
0.142021
20
0.469844
11
0.146991
21
0.468098
0
LINE
8
BLACK
6
CONTINUOUS
10
0.146991
20
0.468098
11
0.151228
21
0.464968
0
LINE
8
BLACK
6
CONTINUOUS
10
0.151228
20
0.464968
11
0.154358
21
0.460731
0
LINE
8
BLACK
6
CONTINUOUS
10
0.154358
20
0.460731
11
0.156104
21
0.455761
0
LINE
8
BLACK
6
CONTINUOUS
10
0.156104
20
0.455761
11
0.156417
21
0.452441
0
LINE
8
BLACK
6
CONTINUOUS
10
0.156417
20
0.452441
11
0.156417
21
0.432756
0
LINE
8
BLACK
6
CONTINUOUS
10
0.156417
20
0.432756
11
0.156104
21
0.429436
0
LINE
8
BLACK
6
CONTINUOUS
10
0.156104
20
0.429436
11
0.154358
21
0.424466
0
LINE
8
BLACK
6
CONTINUOUS
10
0.154358
20
0.424466
11
0.151228
21
0.420228
0
LINE
8
BLACK
6
CONTINUOUS
10
0.151228
20
0.420228
11
0.146991
21
0.417099
0
LINE
8
BLACK
6
CONTINUOUS
10
0.146991
20
0.417099
11
0.142021
21
0.415353
0
LINE
8
BLACK
6
CONTINUOUS
10
0.142021
20
0.415353
11
0.138701
21
0.415039
0
LINE
8
BLACK
6
CONTINUOUS
10
0.138701
20
0.415039
11
0.101299
21
0.415039
0
LINE
8
BLACK
6
CONTINUOUS
10
0.101299
20
0.415039
11
0.0979794
21
0.415353
0
LINE
8
BLACK
6
CONTINUOUS
10
0.0979794
20
0.415353
11
0.0930091
21
0.417099
0
LINE
8
BLACK
6
CONTINUOUS
10
0.0930091
20
0.417099
11
0.0887717
21
0.420228
0
LINE
8
BLACK
6
CONTINUOUS
10
0.0887717
20
0.420228
11
0.0856419
21
0.424466
0
LINE
8
BLACK
6
CONTINUOUS
10
0.0856419
20
0.424466
11
0.0838965
21
0.429436
0
LINE
8
BLACK
6
CONTINUOUS
10
0.0838965
20
0.429436
11
0.0835827
21
0.432756
0
LINE
8
BLACK
6
CONTINUOUS
10
0.0835827
20
0.432756
11
0.0835827
21
0.452441
0
LINE
8
BLACK
6
CONTINUOUS
10
0.0835827
20
0.452441
11
0.0838965
21
0.455761
0
LINE
8
BLACK
6
CONTINUOUS
10
0.0838965
20
0.455761
11
0.0856419
21
0.460731
0
LINE
8
BLACK
6
CONTINUOUS
10
0.0856419
20
0.460731
11
0.0887717
21
0.464968
0
LINE
8
BLACK
6
CONTINUOUS
10
0.0887717
20
0.464968
11
0.0930091
21
0.468098
0
LINE
8
BLACK
6
CONTINUOUS
10
0.0930091
20
0.468098
11
0.0979794
21
0.469844
0
LINE
8
BLACK
6
CONTINUOUS
10
0.0979794
20
0.469844
11
0.101299
21
0.470157
0
LINE
8
BLACK
6
CONTINUOUS
10
0.101299
20
0.470157
11
0.138701
21
0.470157
0
LINE
8
BLACK
6
CONTINUOUS
10
0.138701
20
0.470157
11
0.142021
21
0.469844
0
LINE
8
BLACK
6
CONTINUOUS
10
1.02202
20
0.469844
11
1.02699
21
0.468098
0
LINE
8
BLACK
6
CONTINUOUS
10
1.02699
20
0.468098
11
1.03123
21
0.464968
0
LINE
8
BLACK
6
CONTINUOUS
10
1.03123
20
0.464968
11
1.03436
21
0.460731
0
LINE
8
BLACK
6
CONTINUOUS
10
1.03436
20
0.460731
11
1.0361
21
0.455761
0
LINE
8
BLACK
6
CONTINUOUS
10
1.0361
20
0.455761
11
1.03642
21
0.452441
0
LINE
8
BLACK
6
CONTINUOUS
10
1.03642
20
0.452441
11
1.03642
21
0.432756
0
LINE
8
BLACK
6
CONTINUOUS
10
1.03642
20
0.432756
11
1.0361
21
0.429436
0
LINE
8
BLACK
6
CONTINUOUS
10
1.0361
20
0.429436
11
1.03436
21
0.424466
0
LINE
8
BLACK
6
CONTINUOUS
10
1.03436
20
0.424466
11
1.03123
21
0.420228
0
LINE
8
BLACK
6
CONTINUOUS
10
1.03123
20
0.420228
11
1.02699
21
0.417099
0
LINE
8
BLACK
6
CONTINUOUS
10
1.02699
20
0.417099
11
1.02202
21
0.415353
0
LINE
8
BLACK
6
CONTINUOUS
10
1.02202
20
0.415353
11
1.0187
21
0.415039
0
LINE
8
BLACK
6
CONTINUOUS
10
1.0187
20
0.415039
11
0.981299
21
0.415039
0
LINE
8
BLACK
6
CONTINUOUS
10
0.981299
20
0.415039
11
0.977979
21
0.415353
0
LINE
8
BLACK
6
CONTINUOUS
10
0.977979
20
0.415353
11
0.973009
21
0.417099
0
LINE
8
BLACK
6
CONTINUOUS
10
0.973009
20
0.417099
11
0.968772
21
0.420228
0
LINE
8
BLACK
6
CONTINUOUS
10
0.968772
20
0.420228
11
0.965642
21
0.424466
0
LINE
8
BLACK
6
CONTINUOUS
10
0.965642
20
0.424466
11
0.963896
21
0.429436
0
LINE
8
BLACK
6
CONTINUOUS
10
0.963896
20
0.429436
11
0.963583
21
0.432756
0
LINE
8
BLACK
6
CONTINUOUS
10
0.963583
20
0.432756
11
0.963583
21
0.452441
0
LINE
8
BLACK
6
CONTINUOUS
10
0.963583
20
0.452441
11
0.963896
21
0.455761
0
LINE
8
BLACK
6
CONTINUOUS
10
0.963896
20
0.455761
11
0.965642
21
0.460731
0
LINE
8
BLACK
6
CONTINUOUS
10
0.965642
20
0.460731
11
0.968772
21
0.464968
0
LINE
8
BLACK
6
CONTINUOUS
10
0.968772
20
0.464968
11
0.973009
21
0.468098
0
LINE
8
BLACK
6
CONTINUOUS
10
0.973009
20
0.468098
11
0.977979
21
0.469844
0
LINE
8
BLACK
6
CONTINUOUS
10
0.977979
20
0.469844
11
0.981299
21
0.470157
0
LINE
8
BLACK
6
CONTINUOUS
10
0.981299
20
0.470157
11
1.0187
21
0.470157
0
LINE
8
BLACK
6
CONTINUOUS
10
1.0187
20
0.470157
11
1.02202
21
0.469844
0
LINE
8
BLACK
6
CONTINUOUS
10
2.16104
20
0.473663
11
2.16601
21
0.471917
0
LINE
8
BLACK
6
CONTINUOUS
10
2.16601
20
0.471917
11
2.17024
21
0.468787
0
LINE
8
BLACK
6
CONTINUOUS
10
2.17024
20
0.468787
11
2.17337
21
0.46455
0
LINE
8
BLACK
6
CONTINUOUS
10
2.17337
20
0.46455
11
2.17512
21
0.45958
0
LINE
8
BLACK
6
CONTINUOUS
10
2.17512
20
0.45958
11
2.17543
21
0.45626
0
LINE
8
BLACK
6
CONTINUOUS
10
2.17543
20
0.45626
11
2.17543
21
0.435591
0
LINE
8
BLACK
6
CONTINUOUS
10
2.17543
20
0.435591
11
2.17512
21
0.432271
0
LINE
8
BLACK
6
CONTINUOUS
10
2.17512
20
0.432271
11
2.17337
21
0.4273
0
LINE
8
BLACK
6
CONTINUOUS
10
2.17337
20
0.4273
11
2.17024
21
0.423063
0
LINE
8
BLACK
6
CONTINUOUS
10
2.17024
20
0.423063
11
2.16601
21
0.419933
0
LINE
8
BLACK
6
CONTINUOUS
10
2.16601
20
0.419933
11
2.16104
21
0.418188
0
LINE
8
BLACK
6
CONTINUOUS
10
2.16104
20
0.418188
11
2.15772
21
0.417874
0
LINE
8
BLACK
6
CONTINUOUS
10
2.15772
20
0.417874
11
2.12228
21
0.417874
0
LINE
8
BLACK
6
CONTINUOUS
10
2.12228
20
0.417874
11
2.11896
21
0.418188
0
LINE
8
BLACK
6
CONTINUOUS
10
2.11896
20
0.418188
11
2.11399
21
0.419933
0
LINE
8
BLACK
6
CONTINUOUS
10
2.11399
20
0.419933
11
2.10976
21
0.423063
0
LINE
8
BLACK
6
CONTINUOUS
10
2.10976
20
0.423063
11
2.10663
21
0.4273
0
LINE
8
BLACK
6
CONTINUOUS
10
2.10663
20
0.4273
11
2.10488
21
0.432271
0
LINE
8
BLACK
6
CONTINUOUS
10
2.10488
20
0.432271
11
2.10457
21
0.435591
0
LINE
8
BLACK
6
CONTINUOUS
10
2.10457
20
0.435591
11
2.10457
21
0.45626
0
LINE
8
BLACK
6
CONTINUOUS
10
2.10457
20
0.45626
11
2.10488
21
0.45958
0
LINE
8
BLACK
6
CONTINUOUS
10
2.10488
20
0.45958
11
2.10663
21
0.46455
0
LINE
8
BLACK
6
CONTINUOUS
10
2.10663
20
0.46455
11
2.10976
21
0.468787
0
LINE
8
BLACK
6
CONTINUOUS
10
2.10976
20
0.468787
11
2.11399
21
0.471917
0
LINE
8
BLACK
6
CONTINUOUS
10
2.11399
20
0.471917
11
2.11896
21
0.473663
0
LINE
8
BLACK
6
CONTINUOUS
10
2.11896
20
0.473663
11
2.12228
21
0.473976
0
LINE
8
BLACK
6
CONTINUOUS
10
2.12228
20
0.473976
11
2.15772
21
0.473976
0
LINE
8
BLACK
6
CONTINUOUS
10
2.15772
20
0.473976
11
2.16104
21
0.473663
0
LINE
8
BLACK
6
CONTINUOUS
10
2.29301
20
0.537275
11
2.29557
21
0.535568
0
LINE
8
BLACK
6
CONTINUOUS
10
2.29557
20
0.535568
11
2.29727
21
0.533013
0
LINE
8
BLACK
6
CONTINUOUS
10
2.29727
20
0.533013
11
2.29787
21
0.53
0
LINE
8
BLACK
6
CONTINUOUS
10
2.29787
20
0.53
11
2.29787
21
0.47
0
LINE
8
BLACK
6
CONTINUOUS
10
2.29787
20
0.47
11
2.29727
21
0.466987
0
LINE
8
BLACK
6
CONTINUOUS
10
2.29727
20
0.466987
11
2.29557
21
0.464432
0
LINE
8
BLACK
6
CONTINUOUS
10
2.29557
20
0.464432
11
2.29301
21
0.462725
0
LINE
8
BLACK
6
CONTINUOUS
10
2.29301
20
0.462725
11
2.29
21
0.462126
0
LINE
8
BLACK
6
CONTINUOUS
10
2.29
20
0.462126
11
2.23
21
0.462126
0
LINE
8
BLACK
6
CONTINUOUS
10
2.23
20
0.462126
11
2.22699
21
0.462725
0
LINE
8
BLACK
6
CONTINUOUS
10
2.22699
20
0.462725
11
2.22443
21
0.464432
0
LINE
8
BLACK
6
CONTINUOUS
10
2.22443
20
0.464432
11
2.22273
21
0.466987
0
LINE
8
BLACK
6
CONTINUOUS
10
2.22273
20
0.466987
11
2.22213
21
0.47
0
LINE
8
BLACK
6
CONTINUOUS
10
2.22213
20
0.47
11
2.22213
21
0.53
0
LINE
8
BLACK
6
CONTINUOUS
10
2.22213
20
0.53
11
2.22273
21
0.533013
0
LINE
8
BLACK
6
CONTINUOUS
10
2.22273
20
0.533013
11
2.22443
21
0.535568
0
LINE
8
BLACK
6
CONTINUOUS
10
2.22443
20
0.535568
11
2.22699
21
0.537275
0
LINE
8
BLACK
6
CONTINUOUS
10
2.22699
20
0.537275
11
2.23
21
0.537874
0
LINE
8
BLACK
6
CONTINUOUS
10
2.23
20
0.537874
11
2.29
21
0.537874
0
LINE
8
BLACK
6
CONTINUOUS
10
2.29
20
0.537874
11
2.29301
21
0.537275
0
LINE
8
BLACK
6
CONTINUOUS
10
2.39301
20
0.537275
11
2.39557
21
0.535568
0
LINE
8
BLACK
6
CONTINUOUS
10
2.39557
20
0.535568
11
2.39727
21
0.533013
0
LINE
8
BLACK
6
CONTINUOUS
10
2.39727
20
0.533013
11
2.39787
21
0.53
0
LINE
8
BLACK
6
CONTINUOUS
10
2.39787
20
0.53
11
2.39787
21
0.47
0
LINE
8
BLACK
6
CONTINUOUS
10
2.39787
20
0.47
11
2.39727
21
0.466987
0
LINE
8
BLACK
6
CONTINUOUS
10
2.39727
20
0.466987
11
2.39557
21
0.464432
0
LINE
8
BLACK
6
CONTINUOUS
10
2.39557
20
0.464432
11
2.39301
21
0.462725
0
LINE
8
BLACK
6
CONTINUOUS
10
2.39301
20
0.462725
11
2.39
21
0.462126
0
LINE
8
BLACK
6
CONTINUOUS
10
2.39
20
0.462126
11
2.33
21
0.462126
0
LINE
8
BLACK
6
CONTINUOUS
10
2.33
20
0.462126
11
2.32699
21
0.462725
0
LINE
8
BLACK
6
CONTINUOUS
10
2.32699
20
0.462725
11
2.32443
21
0.464432
0
LINE
8
BLACK
6
CONTINUOUS
10
2.32443
20
0.464432
11
2.32273
21
0.466987
0
LINE
8
BLACK
6
CONTINUOUS
10
2.32273
20
0.466987
11
2.32213
21
0.47
0
LINE
8
BLACK
6
CONTINUOUS
10
2.32213
20
0.47
11
2.32213
21
0.53
0
LINE
8
BLACK
6
CONTINUOUS
10
2.32213
20
0.53
11
2.32273
21
0.533013
0
LINE
8
BLACK
6
CONTINUOUS
10
2.32273
20
0.533013
11
2.32443
21
0.535568
0
LINE
8
BLACK
6
CONTINUOUS
10
2.32443
20
0.535568
11
2.32699
21
0.537275
0
LINE
8
BLACK
6
CONTINUOUS
10
2.32699
20
0.537275
11
2.33
21
0.537874
0
LINE
8
BLACK
6
CONTINUOUS
10
2.33
20
0.537874
11
2.39
21
0.537874
0
LINE
8
BLACK
6
CONTINUOUS
10
2.39
20
0.537874
11
2.39301
21
0.537275
0
LINE
8
BLACK
6
CONTINUOUS
10
1.84564
20
0.544174
11
1.85061
21
0.542429
0
LINE
8
BLACK
6
CONTINUOUS
10
1.85061
20
0.542429
11
1.85485
21
0.539299
0
LINE
8
BLACK
6
CONTINUOUS
10
1.85485
20
0.539299
11
1.85798
21
0.535062
0
LINE
8
BLACK
6
CONTINUOUS
10
1.85798
20
0.535062
11
1.85973
21
0.530091
0
LINE
8
BLACK
6
CONTINUOUS
10
1.85973
20
0.530091
11
1.86004
21
0.526772
0
LINE
8
BLACK
6
CONTINUOUS
10
1.86004
20
0.526772
11
1.86004
21
0.490354
0
LINE
8
BLACK
6
CONTINUOUS
10
1.86004
20
0.490354
11
1.85973
21
0.487035
0
LINE
8
BLACK
6
CONTINUOUS
10
1.85973
20
0.487035
11
1.85798
21
0.482064
0
LINE
8
BLACK
6
CONTINUOUS
10
1.85798
20
0.482064
11
1.85485
21
0.477827
0
LINE
8
BLACK
6
CONTINUOUS
10
1.85485
20
0.477827
11
1.85061
21
0.474697
0
LINE
8
BLACK
6
CONTINUOUS
10
1.85061
20
0.474697
11
1.84564
21
0.472952
0
LINE
8
BLACK
6
CONTINUOUS
10
1.84564
20
0.472952
11
1.84232
21
0.472638
0
LINE
8
BLACK
6
CONTINUOUS
10
1.84232
20
0.472638
11
1.75768
21
0.472638
0
LINE
8
BLACK
6
CONTINUOUS
10
1.75768
20
0.472638
11
1.75436
21
0.472952
0
LINE
8
BLACK
6
CONTINUOUS
10
1.75436
20
0.472952
11
1.74939
21
0.474697
0
LINE
8
BLACK
6
CONTINUOUS
10
1.74939
20
0.474697
11
1.74515
21
0.477827
0
LINE
8
BLACK
6
CONTINUOUS
10
1.74515
20
0.477827
11
1.74202
21
0.482064
0
LINE
8
BLACK
6
CONTINUOUS
10
1.74202
20
0.482064
11
1.74027
21
0.487035
0
LINE
8
BLACK
6
CONTINUOUS
10
1.74027
20
0.487035
11
1.73996
21
0.490354
0
LINE
8
BLACK
6
CONTINUOUS
10
1.73996
20
0.490354
11
1.73996
21
0.526772
0
LINE
8
BLACK
6
CONTINUOUS
10
1.73996
20
0.526772
11
1.74027
21
0.530091
0
LINE
8
BLACK
6
CONTINUOUS
10
1.74027
20
0.530091
11
1.74202
21
0.535062
0
LINE
8
BLACK
6
CONTINUOUS
10
1.74202
20
0.535062
11
1.74515
21
0.539299
0
LINE
8
BLACK
6
CONTINUOUS
10
1.74515
20
0.539299
11
1.74939
21
0.542429
0
LINE
8
BLACK
6
CONTINUOUS
10
1.74939
20
0.542429
11
1.75436
21
0.544174
0
LINE
8
BLACK
6
CONTINUOUS
10
1.75436
20
0.544174
11
1.75768
21
0.544488
0
LINE
8
BLACK
6
CONTINUOUS
10
1.75768
20
0.544488
11
1.84232
21
0.544488
0
LINE
8
BLACK
6
CONTINUOUS
10
1.84232
20
0.544488
11
1.84564
21
0.544174
0
LINE
8
BLACK
6
CONTINUOUS
10
1.49202
20
0.534647
11
1.49699
21
0.532901
0
LINE
8
BLACK
6
CONTINUOUS
10
1.49699
20
0.532901
11
1.50123
21
0.529772
0
LINE
8
BLACK
6
CONTINUOUS
10
1.50123
20
0.529772
11
1.50436
21
0.525534
0
LINE
8
BLACK
6
CONTINUOUS
10
1.50436
20
0.525534
11
1.5061
21
0.520564
0
LINE
8
BLACK
6
CONTINUOUS
10
1.5061
20
0.520564
11
1.50642
21
0.517244
0
LINE
8
BLACK
6
CONTINUOUS
10
1.50642
20
0.517244
11
1.50642
21
0.497559
0
LINE
8
BLACK
6
CONTINUOUS
10
1.50642
20
0.497559
11
1.5061
21
0.494239
0
LINE
8
BLACK
6
CONTINUOUS
10
1.5061
20
0.494239
11
1.50436
21
0.489269
0
LINE
8
BLACK
6
CONTINUOUS
10
1.50436
20
0.489269
11
1.50123
21
0.485032
0
LINE
8
BLACK
6
CONTINUOUS
10
1.50123
20
0.485032
11
1.49699
21
0.481902
0
LINE
8
BLACK
6
CONTINUOUS
10
1.49699
20
0.481902
11
1.49202
21
0.480156
0
LINE
8
BLACK
6
CONTINUOUS
10
1.49202
20
0.480156
11
1.4887
21
0.479843
0
LINE
8
BLACK
6
CONTINUOUS
10
1.4887
20
0.479843
11
1.4513
21
0.479843
0
LINE
8
BLACK
6
CONTINUOUS
10
1.4513
20
0.479843
11
1.44798
21
0.480156
0
LINE
8
BLACK
6
CONTINUOUS
10
1.44798
20
0.480156
11
1.44301
21
0.481902
0
LINE
8
BLACK
6
CONTINUOUS
10
1.44301
20
0.481902
11
1.43877
21
0.485032
0
LINE
8
BLACK
6
CONTINUOUS
10
1.43877
20
0.485032
11
1.43564
21
0.489269
0
LINE
8
BLACK
6
CONTINUOUS
10
1.43564
20
0.489269
11
1.4339
21
0.494239
0
LINE
8
BLACK
6
CONTINUOUS
10
1.4339
20
0.494239
11
1.43358
21
0.497559
0
LINE
8
BLACK
6
CONTINUOUS
10
1.43358
20
0.497559
11
1.43358
21
0.517244
0
LINE
8
BLACK
6
CONTINUOUS
10
1.43358
20
0.517244
11
1.4339
21
0.520564
0
LINE
8
BLACK
6
CONTINUOUS
10
1.4339
20
0.520564
11
1.43564
21
0.525534
0
LINE
8
BLACK
6
CONTINUOUS
10
1.43564
20
0.525534
11
1.43877
21
0.529772
0
LINE
8
BLACK
6
CONTINUOUS
10
1.43877
20
0.529772
11
1.44301
21
0.532901
0
LINE
8
BLACK
6
CONTINUOUS
10
1.44301
20
0.532901
11
1.44798
21
0.534647
0
LINE
8
BLACK
6
CONTINUOUS
10
1.44798
20
0.534647
11
1.4513
21
0.534961
0
LINE
8
BLACK
6
CONTINUOUS
10
1.4513
20
0.534961
11
1.4887
21
0.534961
0
LINE
8
BLACK
6
CONTINUOUS
10
1.4887
20
0.534961
11
1.49202
21
0.534647
0
LINE
8
BLACK
6
CONTINUOUS
10
1.71238
20
0.531054
11
1.71494
21
0.529347
0
LINE
8
BLACK
6
CONTINUOUS
10
1.71494
20
0.529347
11
1.71664
21
0.526793
0
LINE
8
BLACK
6
CONTINUOUS
10
1.71664
20
0.526793
11
1.71724
21
0.52378
0
LINE
8
BLACK
6
CONTINUOUS
10
1.71724
20
0.52378
11
1.71724
21
0.49622
0
LINE
8
BLACK
6
CONTINUOUS
10
1.71724
20
0.49622
11
1.71664
21
0.493207
0
LINE
8
BLACK
6
CONTINUOUS
10
1.71664
20
0.493207
11
1.71494
21
0.490653
0
LINE
8
BLACK
6
CONTINUOUS
10
1.71494
20
0.490653
11
1.71238
21
0.488946
0
LINE
8
BLACK
6
CONTINUOUS
10
1.71238
20
0.488946
11
1.70937
21
0.488346
0
LINE
8
BLACK
6
CONTINUOUS
10
1.70937
20
0.488346
11
1.68575
21
0.488346
0
LINE
8
BLACK
6
CONTINUOUS
10
1.68575
20
0.488346
11
1.68273
21
0.488946
0
LINE
8
BLACK
6
CONTINUOUS
10
1.68273
20
0.488946
11
1.68018
21
0.490653
0
LINE
8
BLACK
6
CONTINUOUS
10
1.68018
20
0.490653
11
1.67847
21
0.493207
0
LINE
8
BLACK
6
CONTINUOUS
10
1.67847
20
0.493207
11
1.67787
21
0.49622
0
LINE
8
BLACK
6
CONTINUOUS
10
1.67787
20
0.49622
11
1.67787
21
0.52378
0
LINE
8
BLACK
6
CONTINUOUS
10
1.67787
20
0.52378
11
1.67847
21
0.526793
0
LINE
8
BLACK
6
CONTINUOUS
10
1.67847
20
0.526793
11
1.68018
21
0.529347
0
LINE
8
BLACK
6
CONTINUOUS
10
1.68018
20
0.529347
11
1.68273
21
0.531054
0
LINE
8
BLACK
6
CONTINUOUS
10
1.68273
20
0.531054
11
1.68575
21
0.531654
0
LINE
8
BLACK
6
CONTINUOUS
10
1.68575
20
0.531654
11
1.70937
21
0.531654
0
LINE
8
BLACK
6
CONTINUOUS
10
1.70937
20
0.531654
11
1.71238
21
0.531054
0
LINE
8
BLACK
6
CONTINUOUS
10
1.65727
20
0.531054
11
1.65982
21
0.529347
0
LINE
8
BLACK
6
CONTINUOUS
10
1.65982
20
0.529347
11
1.66153
21
0.526793
0
LINE
8
BLACK
6
CONTINUOUS
10
1.66153
20
0.526793
11
1.66213
21
0.52378
0
LINE
8
BLACK
6
CONTINUOUS
10
1.66213
20
0.52378
11
1.66213
21
0.49622
0
LINE
8
BLACK
6
CONTINUOUS
10
1.66213
20
0.49622
11
1.66153
21
0.493207
0
LINE
8
BLACK
6
CONTINUOUS
10
1.66153
20
0.493207
11
1.65982
21
0.490653
0
LINE
8
BLACK
6
CONTINUOUS
10
1.65982
20
0.490653
11
1.65727
21
0.488946
0
LINE
8
BLACK
6
CONTINUOUS
10
1.65727
20
0.488946
11
1.65425
21
0.488346
0
LINE
8
BLACK
6
CONTINUOUS
10
1.65425
20
0.488346
11
1.63063
21
0.488346
0
LINE
8
BLACK
6
CONTINUOUS
10
1.63063
20
0.488346
11
1.62762
21
0.488946
0
LINE
8
BLACK
6
CONTINUOUS
10
1.62762
20
0.488946
11
1.62506
21
0.490653
0
LINE
8
BLACK
6
CONTINUOUS
10
1.62506
20
0.490653
11
1.62336
21
0.493207
0
LINE
8
BLACK
6
CONTINUOUS
10
1.62336
20
0.493207
11
1.62276
21
0.49622
0
LINE
8
BLACK
6
CONTINUOUS
10
1.62276
20
0.49622
11
1.62276
21
0.52378
0
LINE
8
BLACK
6
CONTINUOUS
10
1.62276
20
0.52378
11
1.62336
21
0.526793
0
LINE
8
BLACK
6
CONTINUOUS
10
1.62336
20
0.526793
11
1.62506
21
0.529347
0
LINE
8
BLACK
6
CONTINUOUS
10
1.62506
20
0.529347
11
1.62762
21
0.531054
0
LINE
8
BLACK
6
CONTINUOUS
10
1.62762
20
0.531054
11
1.63063
21
0.531654
0
LINE
8
BLACK
6
CONTINUOUS
10
1.63063
20
0.531654
11
1.65425
21
0.531654
0
LINE
8
BLACK
6
CONTINUOUS
10
1.65425
20
0.531654
11
1.65727
21
0.531054
0
LINE
8
BLACK
6
CONTINUOUS
10
0.772021
20
0.544647
11
0.776991
21
0.542901
0
LINE
8
BLACK
6
CONTINUOUS
10
0.776991
20
0.542901
11
0.781228
21
0.539772
0
LINE
8
BLACK
6
CONTINUOUS
10
0.781228
20
0.539772
11
0.784358
21
0.535534
0
LINE
8
BLACK
6
CONTINUOUS
10
0.784358
20
0.535534
11
0.786104
21
0.530564
0
LINE
8
BLACK
6
CONTINUOUS
10
0.786104
20
0.530564
11
0.786417
21
0.527244
0
LINE
8
BLACK
6
CONTINUOUS
10
0.786417
20
0.527244
11
0.786417
21
0.507559
0
LINE
8
BLACK
6
CONTINUOUS
10
0.786417
20
0.507559
11
0.786104
21
0.504239
0
LINE
8
BLACK
6
CONTINUOUS
10
0.786104
20
0.504239
11
0.784358
21
0.499269
0
LINE
8
BLACK
6
CONTINUOUS
10
0.784358
20
0.499269
11
0.781228
21
0.495032
0
LINE
8
BLACK
6
CONTINUOUS
10
0.781228
20
0.495032
11
0.776991
21
0.491902
0
LINE
8
BLACK
6
CONTINUOUS
10
0.776991
20
0.491902
11
0.772021
21
0.490156
0
LINE
8
BLACK
6
CONTINUOUS
10
0.772021
20
0.490156
11
0.768701
21
0.489843
0
LINE
8
BLACK
6
CONTINUOUS
10
0.768701
20
0.489843
11
0.731299
21
0.489843
0
LINE
8
BLACK
6
CONTINUOUS
10
0.731299
20
0.489843
11
0.727979
21
0.490156
0
LINE
8
BLACK
6
CONTINUOUS
10
0.727979
20
0.490156
11
0.723009
21
0.491902
0
LINE
8
BLACK
6
CONTINUOUS
10
0.723009
20
0.491902
11
0.718772
21
0.495032
0
LINE
8
BLACK
6
CONTINUOUS
10
0.718772
20
0.495032
11
0.715642
21
0.499269
0
LINE
8
BLACK
6
CONTINUOUS
10
0.715642
20
0.499269
11
0.713896
21
0.504239
0
LINE
8
BLACK
6
CONTINUOUS
10
0.713896
20
0.504239
11
0.713583
21
0.507559
0
LINE
8
BLACK
6
CONTINUOUS
10
0.713583
20
0.507559
11
0.713583
21
0.527244
0
LINE
8
BLACK
6
CONTINUOUS
10
0.713583
20
0.527244
11
0.713896
21
0.530564
0
LINE
8
BLACK
6
CONTINUOUS
10
0.713896
20
0.530564
11
0.715642
21
0.535534
0
LINE
8
BLACK
6
CONTINUOUS
10
0.715642
20
0.535534
11
0.718772
21
0.539772
0
LINE
8
BLACK
6
CONTINUOUS
10
0.718772
20
0.539772
11
0.723009
21
0.542901
0
LINE
8
BLACK
6
CONTINUOUS
10
0.723009
20
0.542901
11
0.727979
21
0.544647
0
LINE
8
BLACK
6
CONTINUOUS
10
0.727979
20
0.544647
11
0.731299
21
0.544961
0
LINE
8
BLACK
6
CONTINUOUS
10
0.731299
20
0.544961
11
0.768701
21
0.544961
0
LINE
8
BLACK
6
CONTINUOUS
10
0.768701
20
0.544961
11
0.772021
21
0.544647
0
LINE
8
BLACK
6
CONTINUOUS
10
0.242021
20
0.544647
11
0.246991
21
0.542901
0
LINE
8
BLACK
6
CONTINUOUS
10
0.246991
20
0.542901
11
0.251228
21
0.539772
0
LINE
8
BLACK
6
CONTINUOUS
10
0.251228
20
0.539772
11
0.254358
21
0.535534
0
LINE
8
BLACK
6
CONTINUOUS
10
0.254358
20
0.535534
11
0.256104
21
0.530564
0
LINE
8
BLACK
6
CONTINUOUS
10
0.256104
20
0.530564
11
0.256417
21
0.527244
0
LINE
8
BLACK
6
CONTINUOUS
10
0.256417
20
0.527244
11
0.256417
21
0.507559
0
LINE
8
BLACK
6
CONTINUOUS
10
0.256417
20
0.507559
11
0.256104
21
0.504239
0
LINE
8
BLACK
6
CONTINUOUS
10
0.256104
20
0.504239
11
0.254358
21
0.499269
0
LINE
8
BLACK
6
CONTINUOUS
10
0.254358
20
0.499269
11
0.251228
21
0.495032
0
LINE
8
BLACK
6
CONTINUOUS
10
0.251228
20
0.495032
11
0.246991
21
0.491902
0
LINE
8
BLACK
6
CONTINUOUS
10
0.246991
20
0.491902
11
0.242021
21
0.490156
0
LINE
8
BLACK
6
CONTINUOUS
10
0.242021
20
0.490156
11
0.238701
21
0.489843
0
LINE
8
BLACK
6
CONTINUOUS
10
0.238701
20
0.489843
11
0.201299
21
0.489843
0
LINE
8
BLACK
6
CONTINUOUS
10
0.201299
20
0.489843
11
0.197979
21
0.490156
0
LINE
8
BLACK
6
CONTINUOUS
10
0.197979
20
0.490156
11
0.193009
21
0.491902
0
LINE
8
BLACK
6
CONTINUOUS
10
0.193009
20
0.491902
11
0.188772
21
0.495032
0
LINE
8
BLACK
6
CONTINUOUS
10
0.188772
20
0.495032
11
0.185642
21
0.499269
0
LINE
8
BLACK
6
CONTINUOUS
10
0.185642
20
0.499269
11
0.183896
21
0.504239
0
LINE
8
BLACK
6
CONTINUOUS
10
0.183896
20
0.504239
11
0.183583
21
0.507559
0
LINE
8
BLACK
6
CONTINUOUS
10
0.183583
20
0.507559
11
0.183583
21
0.527244
0
LINE
8
BLACK
6
CONTINUOUS
10
0.183583
20
0.527244
11
0.183896
21
0.530564
0
LINE
8
BLACK
6
CONTINUOUS
10
0.183896
20
0.530564
11
0.185642
21
0.535534
0
LINE
8
BLACK
6
CONTINUOUS
10
0.185642
20
0.535534
11
0.188772
21
0.539772
0
LINE
8
BLACK
6
CONTINUOUS
10
0.188772
20
0.539772
11
0.193009
21
0.542901
0
LINE
8
BLACK
6
CONTINUOUS
10
0.193009
20
0.542901
11
0.197979
21
0.544647
0
LINE
8
BLACK
6
CONTINUOUS
10
0.197979
20
0.544647
11
0.201299
21
0.544961
0
LINE
8
BLACK
6
CONTINUOUS
10
0.201299
20
0.544961
11
0.238701
21
0.544961
0
LINE
8
BLACK
6
CONTINUOUS
10
0.238701
20
0.544961
11
0.242021
21
0.544647
0
LINE
8
BLACK
6
CONTINUOUS
10
0.512021
20
0.544647
11
0.516991
21
0.542901
0
LINE
8
BLACK
6
CONTINUOUS
10
0.516991
20
0.542901
11
0.521228
21
0.539772
0
LINE
8
BLACK
6
CONTINUOUS
10
0.521228
20
0.539772
11
0.524358
21
0.535534
0
LINE
8
BLACK
6
CONTINUOUS
10
0.524358
20
0.535534
11
0.526104
21
0.530564
0
LINE
8
BLACK
6
CONTINUOUS
10
0.526104
20
0.530564
11
0.526417
21
0.527244
0
LINE
8
BLACK
6
CONTINUOUS
10
0.526417
20
0.527244
11
0.526417
21
0.507559
0
LINE
8
BLACK
6
CONTINUOUS
10
0.526417
20
0.507559
11
0.526104
21
0.504239
0
LINE
8
BLACK
6
CONTINUOUS
10
0.526104
20
0.504239
11
0.524358
21
0.499269
0
LINE
8
BLACK
6
CONTINUOUS
10
0.524358
20
0.499269
11
0.521228
21
0.495032
0
LINE
8
BLACK
6
CONTINUOUS
10
0.521228
20
0.495032
11
0.516991
21
0.491902
0
LINE
8
BLACK
6
CONTINUOUS
10
0.516991
20
0.491902
11
0.512021
21
0.490156
0
LINE
8
BLACK
6
CONTINUOUS
10
0.512021
20
0.490156
11
0.508701
21
0.489843
0
LINE
8
BLACK
6
CONTINUOUS
10
0.508701
20
0.489843
11
0.471299
21
0.489843
0
LINE
8
BLACK
6
CONTINUOUS
10
0.471299
20
0.489843
11
0.467979
21
0.490156
0
LINE
8
BLACK
6
CONTINUOUS
10
0.467979
20
0.490156
11
0.463009
21
0.491902
0
LINE
8
BLACK
6
CONTINUOUS
10
0.463009
20
0.491902
11
0.458772
21
0.495032
0
LINE
8
BLACK
6
CONTINUOUS
10
0.458772
20
0.495032
11
0.455642
21
0.499269
0
LINE
8
BLACK
6
CONTINUOUS
10
0.455642
20
0.499269
11
0.453896
21
0.504239
0
LINE
8
BLACK
6
CONTINUOUS
10
0.453896
20
0.504239
11
0.453583
21
0.507559
0
LINE
8
BLACK
6
CONTINUOUS
10
0.453583
20
0.507559
11
0.453583
21
0.527244
0
LINE
8
BLACK
6
CONTINUOUS
10
0.453583
20
0.527244
11
0.453896
21
0.530564
0
LINE
8
BLACK
6
CONTINUOUS
10
0.453896
20
0.530564
11
0.455642
21
0.535534
0
LINE
8
BLACK
6
CONTINUOUS
10
0.455642
20
0.535534
11
0.458772
21
0.539772
0
LINE
8
BLACK
6
CONTINUOUS
10
0.458772
20
0.539772
11
0.463009
21
0.542901
0
LINE
8
BLACK
6
CONTINUOUS
10
0.463009
20
0.542901
11
0.467979
21
0.544647
0
LINE
8
BLACK
6
CONTINUOUS
10
0.467979
20
0.544647
11
0.471299
21
0.544961
0
LINE
8
BLACK
6
CONTINUOUS
10
0.471299
20
0.544961
11
0.508701
21
0.544961
0
LINE
8
BLACK
6
CONTINUOUS
10
0.508701
20
0.544961
11
0.512021
21
0.544647
0
LINE
8
BLACK
6
CONTINUOUS
10
1.13202
20
0.544647
11
1.13699
21
0.542901
0
LINE
8
BLACK
6
CONTINUOUS
10
1.13699
20
0.542901
11
1.14123
21
0.539772
0
LINE
8
BLACK
6
CONTINUOUS
10
1.14123
20
0.539772
11
1.14436
21
0.535534
0
LINE
8
BLACK
6
CONTINUOUS
10
1.14436
20
0.535534
11
1.1461
21
0.530564
0
LINE
8
BLACK
6
CONTINUOUS
10
1.1461
20
0.530564
11
1.14642
21
0.527244
0
LINE
8
BLACK
6
CONTINUOUS
10
1.14642
20
0.527244
11
1.14642
21
0.507559
0
LINE
8
BLACK
6
CONTINUOUS
10
1.14642
20
0.507559
11
1.1461
21
0.504239
0
LINE
8
BLACK
6
CONTINUOUS
10
1.1461
20
0.504239
11
1.14436
21
0.499269
0
LINE
8
BLACK
6
CONTINUOUS
10
1.14436
20
0.499269
11
1.14123
21
0.495032
0
LINE
8
BLACK
6
CONTINUOUS
10
1.14123
20
0.495032
11
1.13699
21
0.491902
0
LINE
8
BLACK
6
CONTINUOUS
10
1.13699
20
0.491902
11
1.13202
21
0.490156
0
LINE
8
BLACK
6
CONTINUOUS
10
1.13202
20
0.490156
11
1.1287
21
0.489843
0
LINE
8
BLACK
6
CONTINUOUS
10
1.1287
20
0.489843
11
1.0913
21
0.489843
0
LINE
8
BLACK
6
CONTINUOUS
10
1.0913
20
0.489843
11
1.08798
21
0.490156
0
LINE
8
BLACK
6
CONTINUOUS
10
1.08798
20
0.490156
11
1.08301
21
0.491902
0
LINE
8
BLACK
6
CONTINUOUS
10
1.08301
20
0.491902
11
1.07877
21
0.495032
0
LINE
8
BLACK
6
CONTINUOUS
10
1.07877
20
0.495032
11
1.07564
21
0.499269
0
LINE
8
BLACK
6
CONTINUOUS
10
1.07564
20
0.499269
11
1.0739
21
0.504239
0
LINE
8
BLACK
6
CONTINUOUS
10
1.0739
20
0.504239
11
1.07358
21
0.507559
0
LINE
8
BLACK
6
CONTINUOUS
10
1.07358
20
0.507559
11
1.07358
21
0.527244
0
LINE
8
BLACK
6
CONTINUOUS
10
1.07358
20
0.527244
11
1.0739
21
0.530564
0
LINE
8
BLACK
6
CONTINUOUS
10
1.0739
20
0.530564
11
1.07564
21
0.535534
0
LINE
8
BLACK
6
CONTINUOUS
10
1.07564
20
0.535534
11
1.07877
21
0.539772
0
LINE
8
BLACK
6
CONTINUOUS
10
1.07877
20
0.539772
11
1.08301
21
0.542901
0
LINE
8
BLACK
6
CONTINUOUS
10
1.08301
20
0.542901
11
1.08798
21
0.544647
0
LINE
8
BLACK
6
CONTINUOUS
10
1.08798
20
0.544647
11
1.0913
21
0.544961
0
LINE
8
BLACK
6
CONTINUOUS
10
1.0913
20
0.544961
11
1.1287
21
0.544961
0
LINE
8
BLACK
6
CONTINUOUS
10
1.1287
20
0.544961
11
1.13202
21
0.544647
0
LINE
8
BLACK
6
CONTINUOUS
10
1.38202
20
0.544647
11
1.38699
21
0.542901
0
LINE
8
BLACK
6
CONTINUOUS
10
1.38699
20
0.542901
11
1.39123
21
0.539772
0
LINE
8
BLACK
6
CONTINUOUS
10
1.39123
20
0.539772
11
1.39436
21
0.535534
0
LINE
8
BLACK
6
CONTINUOUS
10
1.39436
20
0.535534
11
1.3961
21
0.530564
0
LINE
8
BLACK
6
CONTINUOUS
10
1.3961
20
0.530564
11
1.39642
21
0.527244
0
LINE
8
BLACK
6
CONTINUOUS
10
1.39642
20
0.527244
11
1.39642
21
0.507559
0
LINE
8
BLACK
6
CONTINUOUS
10
1.39642
20
0.507559
11
1.3961
21
0.504239
0
LINE
8
BLACK
6
CONTINUOUS
10
1.3961
20
0.504239
11
1.39436
21
0.499269
0
LINE
8
BLACK
6
CONTINUOUS
10
1.39436
20
0.499269
11
1.39123
21
0.495032
0
LINE
8
BLACK
6
CONTINUOUS
10
1.39123
20
0.495032
11
1.38699
21
0.491902
0
LINE
8
BLACK
6
CONTINUOUS
10
1.38699
20
0.491902
11
1.38202
21
0.490156
0
LINE
8
BLACK
6
CONTINUOUS
10
1.38202
20
0.490156
11
1.3787
21
0.489843
0
LINE
8
BLACK
6
CONTINUOUS
10
1.3787
20
0.489843
11
1.3413
21
0.489843
0
LINE
8
BLACK
6
CONTINUOUS
10
1.3413
20
0.489843
11
1.33798
21
0.490156
0
LINE
8
BLACK
6
CONTINUOUS
10
1.33798
20
0.490156
11
1.33301
21
0.491902
0
LINE
8
BLACK
6
CONTINUOUS
10
1.33301
20
0.491902
11
1.32877
21
0.495032
0
LINE
8
BLACK
6
CONTINUOUS
10
1.32877
20
0.495032
11
1.32564
21
0.499269
0
LINE
8
BLACK
6
CONTINUOUS
10
1.32564
20
0.499269
11
1.3239
21
0.504239
0
LINE
8
BLACK
6
CONTINUOUS
10
1.3239
20
0.504239
11
1.32358
21
0.507559
0
LINE
8
BLACK
6
CONTINUOUS
10
1.32358
20
0.507559
11
1.32358
21
0.527244
0
LINE
8
BLACK
6
CONTINUOUS
10
1.32358
20
0.527244
11
1.3239
21
0.530564
0
LINE
8
BLACK
6
CONTINUOUS
10
1.3239
20
0.530564
11
1.32564
21
0.535534
0
LINE
8
BLACK
6
CONTINUOUS
10
1.32564
20
0.535534
11
1.32877
21
0.539772
0
LINE
8
BLACK
6
CONTINUOUS
10
1.32877
20
0.539772
11
1.33301
21
0.542901
0
LINE
8
BLACK
6
CONTINUOUS
10
1.33301
20
0.542901
11
1.33798
21
0.544647
0
LINE
8
BLACK
6
CONTINUOUS
10
1.33798
20
0.544647
11
1.3413
21
0.544961
0
LINE
8
BLACK
6
CONTINUOUS
10
1.3413
20
0.544961
11
1.3787
21
0.544961
0
LINE
8
BLACK
6
CONTINUOUS
10
1.3787
20
0.544961
11
1.38202
21
0.544647
0
LINE
8
BLACK
6
CONTINUOUS
10
1.02202
20
0.544647
11
1.02699
21
0.542901
0
LINE
8
BLACK
6
CONTINUOUS
10
1.02699
20
0.542901
11
1.03123
21
0.539772
0
LINE
8
BLACK
6
CONTINUOUS
10
1.03123
20
0.539772
11
1.03436
21
0.535534
0
LINE
8
BLACK
6
CONTINUOUS
10
1.03436
20
0.535534
11
1.0361
21
0.530564
0
LINE
8
BLACK
6
CONTINUOUS
10
1.0361
20
0.530564
11
1.03642
21
0.527244
0
LINE
8
BLACK
6
CONTINUOUS
10
1.03642
20
0.527244
11
1.03642
21
0.507559
0
LINE
8
BLACK
6
CONTINUOUS
10
1.03642
20
0.507559
11
1.0361
21
0.504239
0
LINE
8
BLACK
6
CONTINUOUS
10
1.0361
20
0.504239
11
1.03436
21
0.499269
0
LINE
8
BLACK
6
CONTINUOUS
10
1.03436
20
0.499269
11
1.03123
21
0.495032
0
LINE
8
BLACK
6
CONTINUOUS
10
1.03123
20
0.495032
11
1.02699
21
0.491902
0
LINE
8
BLACK
6
CONTINUOUS
10
1.02699
20
0.491902
11
1.02202
21
0.490156
0
LINE
8
BLACK
6
CONTINUOUS
10
1.02202
20
0.490156
11
1.0187
21
0.489843
0
LINE
8
BLACK
6
CONTINUOUS
10
1.0187
20
0.489843
11
0.981299
21
0.489843
0
LINE
8
BLACK
6
CONTINUOUS
10
0.981299
20
0.489843
11
0.977979
21
0.490156
0
LINE
8
BLACK
6
CONTINUOUS
10
0.977979
20
0.490156
11
0.973009
21
0.491902
0
LINE
8
BLACK
6
CONTINUOUS
10
0.973009
20
0.491902
11
0.968772
21
0.495032
0
LINE
8
BLACK
6
CONTINUOUS
10
0.968772
20
0.495032
11
0.965642
21
0.499269
0
LINE
8
BLACK
6
CONTINUOUS
10
0.965642
20
0.499269
11
0.963896
21
0.504239
0
LINE
8
BLACK
6
CONTINUOUS
10
0.963896
20
0.504239
11
0.963583
21
0.507559
0
LINE
8
BLACK
6
CONTINUOUS
10
0.963583
20
0.507559
11
0.963583
21
0.527244
0
LINE
8
BLACK
6
CONTINUOUS
10
0.963583
20
0.527244
11
0.963896
21
0.530564
0
LINE
8
BLACK
6
CONTINUOUS
10
0.963896
20
0.530564
11
0.965642
21
0.535534
0
LINE
8
BLACK
6
CONTINUOUS
10
0.965642
20
0.535534
11
0.968772
21
0.539772
0
LINE
8
BLACK
6
CONTINUOUS
10
0.968772
20
0.539772
11
0.973009
21
0.542901
0
LINE
8
BLACK
6
CONTINUOUS
10
0.973009
20
0.542901
11
0.977979
21
0.544647
0
LINE
8
BLACK
6
CONTINUOUS
10
0.977979
20
0.544647
11
0.981299
21
0.544961
0
LINE
8
BLACK
6
CONTINUOUS
10
0.981299
20
0.544961
11
1.0187
21
0.544961
0
LINE
8
BLACK
6
CONTINUOUS
10
1.0187
20
0.544961
11
1.02202
21
0.544647
0
LINE
8
BLACK
6
CONTINUOUS
10
0.142021
20
0.544647
11
0.146991
21
0.542901
0
LINE
8
BLACK
6
CONTINUOUS
10
0.146991
20
0.542901
11
0.151228
21
0.539772
0
LINE
8
BLACK
6
CONTINUOUS
10
0.151228
20
0.539772
11
0.154358
21
0.535534
0
LINE
8
BLACK
6
CONTINUOUS
10
0.154358
20
0.535534
11
0.156104
21
0.530564
0
LINE
8
BLACK
6
CONTINUOUS
10
0.156104
20
0.530564
11
0.156417
21
0.527244
0
LINE
8
BLACK
6
CONTINUOUS
10
0.156417
20
0.527244
11
0.156417
21
0.507559
0
LINE
8
BLACK
6
CONTINUOUS
10
0.156417
20
0.507559
11
0.156104
21
0.504239
0
LINE
8
BLACK
6
CONTINUOUS
10
0.156104
20
0.504239
11
0.154358
21
0.499269
0
LINE
8
BLACK
6
CONTINUOUS
10
0.154358
20
0.499269
11
0.151228
21
0.495032
0
LINE
8
BLACK
6
CONTINUOUS
10
0.151228
20
0.495032
11
0.146991
21
0.491902
0
LINE
8
BLACK
6
CONTINUOUS
10
0.146991
20
0.491902
11
0.142021
21
0.490156
0
LINE
8
BLACK
6
CONTINUOUS
10
0.142021
20
0.490156
11
0.138701
21
0.489843
0
LINE
8
BLACK
6
CONTINUOUS
10
0.138701
20
0.489843
11
0.101299
21
0.489843
0
LINE
8
BLACK
6
CONTINUOUS
10
0.101299
20
0.489843
11
0.0979794
21
0.490156
0
LINE
8
BLACK
6
CONTINUOUS
10
0.0979794
20
0.490156
11
0.0930091
21
0.491902
0
LINE
8
BLACK
6
CONTINUOUS
10
0.0930091
20
0.491902
11
0.0887717
21
0.495032
0
LINE
8
BLACK
6
CONTINUOUS
10
0.0887717
20
0.495032
11
0.0856419
21
0.499269
0
LINE
8
BLACK
6
CONTINUOUS
10
0.0856419
20
0.499269
11
0.0838965
21
0.504239
0
LINE
8
BLACK
6
CONTINUOUS
10
0.0838965
20
0.504239
11
0.0835827
21
0.507559
0
LINE
8
BLACK
6
CONTINUOUS
10
0.0835827
20
0.507559
11
0.0835827
21
0.527244
0
LINE
8
BLACK
6
CONTINUOUS
10
0.0835827
20
0.527244
11
0.0838965
21
0.530564
0
LINE
8
BLACK
6
CONTINUOUS
10
0.0838965
20
0.530564
11
0.0856419
21
0.535534
0
LINE
8
BLACK
6
CONTINUOUS
10
0.0856419
20
0.535534
11
0.0887717
21
0.539772
0
LINE
8
BLACK
6
CONTINUOUS
10
0.0887717
20
0.539772
11
0.0930091
21
0.542901
0
LINE
8
BLACK
6
CONTINUOUS
10
0.0930091
20
0.542901
11
0.0979794
21
0.544647
0
LINE
8
BLACK
6
CONTINUOUS
10
0.0979794
20
0.544647
11
0.101299
21
0.544961
0
LINE
8
BLACK
6
CONTINUOUS
10
0.101299
20
0.544961
11
0.138701
21
0.544961
0
LINE
8
BLACK
6
CONTINUOUS
10
0.138701
20
0.544961
11
0.142021
21
0.544647
0
LINE
8
BLACK
6
CONTINUOUS
10
-0.0835081
20
2.29045
11
-0.0696566
21
2.28801
0
LINE
8
BLACK
6
CONTINUOUS
10
-0.0696566
20
2.28801
11
-0.0561636
21
2.28404
0
LINE
8
BLACK
6
CONTINUOUS
10
-0.0561636
20
2.28404
11
-0.0431973
21
2.27859
0
LINE
8
BLACK
6
CONTINUOUS
10
-0.0431973
20
2.27859
11
-0.0309194
21
2.27173
0
LINE
8
BLACK
6
CONTINUOUS
10
-0.0309194
20
2.27173
11
-0.019483
21
2.26354
0
LINE
8
BLACK
6
CONTINUOUS
10
-0.019483
20
2.26354
11
-0.00903047
21
2.25413
0
LINE
8
BLACK
6
CONTINUOUS
10
-0.00903047
20
2.25413
11
0.000307835
21
2.24361
0
LINE
8
BLACK
6
CONTINUOUS
10
0.000307835
20
2.24361
11
0.00841551
21
2.23212
0
LINE
8
BLACK
6
CONTINUOUS
10
0.00841551
20
2.23212
11
0.0151915
21
2.21979
0
LINE
8
BLACK
6
CONTINUOUS
10
0.0151915
20
2.21979
11
0.0205513
21
2.20679
0
LINE
8
BLACK
6
CONTINUOUS
10
0.0205513
20
2.20679
11
0.0244283
21
2.19327
0
LINE
8
BLACK
6
CONTINUOUS
10
0.0244283
20
2.19327
11
0.0267739
21
2.1794
0
LINE
8
BLACK
6
CONTINUOUS
10
0.0267739
20
2.1794
11
0.0275591
21
2.16535
0
LINE
8
BLACK
6
CONTINUOUS
10
0.0275591
20
2.16535
11
0.0275099
21
2.16184
0
LINE
8
BLACK
6
CONTINUOUS
10
0.0275099
20
2.16184
11
0.026333
21
2.14782
0
LINE
8
BLACK
6
CONTINUOUS
10
0.026333
20
2.14782
11
0.023601
21
2.13402
0
LINE
8
BLACK
6
CONTINUOUS
10
0.023601
20
2.13402
11
0.0193481
21
2.12062
0
LINE
8
BLACK
6
CONTINUOUS
10
0.0193481
20
2.12062
11
0.0136272
21
2.10777
0
LINE
8
BLACK
6
CONTINUOUS
10
0.0136272
20
2.10777
11
0.00650976
21
2.09564
0
LINE
8
BLACK
6
CONTINUOUS
10
0.00650976
20
2.09564
11
-0.00191567
21
2.08437
0
LINE
8
BLACK
6
CONTINUOUS
10
-0.00191567
20
2.08437
11
-0.011544
21
2.07412
0
LINE
8
BLACK
6
CONTINUOUS
10
-0.011544
20
2.07412
11
-0.0222552
21
2.065
0
LINE
8
BLACK
6
CONTINUOUS
10
-0.0222552
20
2.065
11
-0.0339159
21
2.05714
0
LINE
8
BLACK
6
CONTINUOUS
10
-0.0339159
20
2.05714
11
-0.0463806
21
2.05062
0
LINE
8
BLACK
6
CONTINUOUS
10
-0.0463806
20
2.05062
11
-0.0594939
21
2.04554
0
LINE
8
BLACK
6
CONTINUOUS
10
-0.0594939
20
2.04554
11
-0.0730926
21
2.04194
0
LINE
8
BLACK
6
CONTINUOUS
10
-0.0730926
20
2.04194
11
-0.0870069
21
2.03989
0
LINE
8
BLACK
6
CONTINUOUS
10
-0.0870069
20
2.03989
11
-0.101064
21
2.0394
0
LINE
8
BLACK
6
CONTINUOUS
10
-0.101064
20
2.0394
11
-0.115087
21
2.04048
0
LINE
8
BLACK
6
CONTINUOUS
10
-0.115087
20
2.04048
11
-0.128904
21
2.04311
0
LINE
8
BLACK
6
CONTINUOUS
10
-0.128904
20
2.04311
11
-0.14234
21
2.04727
0
LINE
8
BLACK
6
CONTINUOUS
10
-0.14234
20
2.04727
11
-0.155229
21
2.0529
0
LINE
8
BLACK
6
CONTINUOUS
10
-0.155229
20
2.0529
11
-0.16741
21
2.05994
0
LINE
8
BLACK
6
CONTINUOUS
10
-0.16741
20
2.05994
11
-0.178731
21
2.06828
0
LINE
8
BLACK
6
CONTINUOUS
10
-0.178731
20
2.06828
11
-0.189051
21
2.07784
0
LINE
8
BLACK
6
CONTINUOUS
10
-0.189051
20
2.07784
11
-0.198241
21
2.08849
0
LINE
8
BLACK
6
CONTINUOUS
10
-0.198241
20
2.08849
11
-0.206188
21
2.10009
0
LINE
8
BLACK
6
CONTINUOUS
10
-0.206188
20
2.10009
11
-0.212791
21
2.11251
0
LINE
8
BLACK
6
CONTINUOUS
10
-0.212791
20
2.11251
11
-0.217969
21
2.12559
0
LINE
8
BLACK
6
CONTINUOUS
10
-0.217969
20
2.12559
11
-0.221656
21
2.13916
0
LINE
8
BLACK
6
CONTINUOUS
10
-0.221656
20
2.13916
11
-0.223808
21
2.15306
0
LINE
8
BLACK
6
CONTINUOUS
10
-0.223808
20
2.15306
11
-0.224397
21
2.16711
0
LINE
8
BLACK
6
CONTINUOUS
10
-0.224397
20
2.16711
11
-0.223416
21
2.18114
0
LINE
8
BLACK
6
CONTINUOUS
10
-0.223416
20
2.18114
11
-0.220877
21
2.19498
0
LINE
8
BLACK
6
CONTINUOUS
10
-0.220877
20
2.19498
11
-0.216812
21
2.20844
0
LINE
8
BLACK
6
CONTINUOUS
10
-0.216812
20
2.20844
11
-0.211271
21
2.22137
0
LINE
8
BLACK
6
CONTINUOUS
10
-0.211271
20
2.22137
11
-0.204323
21
2.2336
0
LINE
8
BLACK
6
CONTINUOUS
10
-0.204323
20
2.2336
11
-0.196056
21
2.24498
0
LINE
8
BLACK
6
CONTINUOUS
10
-0.196056
20
2.24498
11
-0.186572
21
2.25537
0
LINE
8
BLACK
6
CONTINUOUS
10
-0.186572
20
2.25537
11
-0.175989
21
2.26463
0
LINE
8
BLACK
6
CONTINUOUS
10
-0.175989
20
2.26463
11
-0.164439
21
2.27266
0
LINE
8
BLACK
6
CONTINUOUS
10
-0.164439
20
2.27266
11
-0.152067
21
2.27935
0
LINE
8
BLACK
6
CONTINUOUS
10
-0.152067
20
2.27935
11
-0.139026
21
2.28462
0
LINE
8
BLACK
6
CONTINUOUS
10
-0.139026
20
2.28462
11
-0.125478
21
2.2884
0
LINE
8
BLACK
6
CONTINUOUS
10
-0.125478
20
2.2884
11
-0.111594
21
2.29065
0
LINE
8
BLACK
6
CONTINUOUS
10
-0.111594
20
2.29065
11
-0.0975457
21
2.29134
0
LINE
8
BLACK
6
CONTINUOUS
10
-0.0975457
20
2.29134
11
-0.0835081
21
2.29045
0
LINE
8
BLACK
6
CONTINUOUS
10
2.47555
20
2.4873
11
2.4894
21
2.48486
0
LINE
8
BLACK
6
CONTINUOUS
10
2.4894
20
2.48486
11
2.50289
21
2.48089
0
LINE
8
BLACK
6
CONTINUOUS
10
2.50289
20
2.48089
11
2.51586
21
2.47544
0
LINE
8
BLACK
6
CONTINUOUS
10
2.51586
20
2.47544
11
2.52814
21
2.46858
0
LINE
8
BLACK
6
CONTINUOUS
10
2.52814
20
2.46858
11
2.53957
21
2.46039
0
LINE
8
BLACK
6
CONTINUOUS
10
2.53957
20
2.46039
11
2.55002
21
2.45098
0
LINE
8
BLACK
6
CONTINUOUS
10
2.55002
20
2.45098
11
2.55936
21
2.44046
0
LINE
8
BLACK
6
CONTINUOUS
10
2.55936
20
2.44046
11
2.56747
21
2.42897
0
LINE
8
BLACK
6
CONTINUOUS
10
2.56747
20
2.42897
11
2.57425
21
2.41664
0
LINE
8
BLACK
6
CONTINUOUS
10
2.57425
20
2.41664
11
2.57961
21
2.40364
0
LINE
8
BLACK
6
CONTINUOUS
10
2.57961
20
2.40364
11
2.58348
21
2.39012
0
LINE
8
BLACK
6
CONTINUOUS
10
2.58348
20
2.39012
11
2.58583
21
2.37625
0
LINE
8
BLACK
6
CONTINUOUS
10
2.58583
20
2.37625
11
2.58661
21
2.3622
0
LINE
8
BLACK
6
CONTINUOUS
10
2.58661
20
2.3622
11
2.58657
21
2.35869
0
LINE
8
BLACK
6
CONTINUOUS
10
2.58657
20
2.35869
11
2.58539
21
2.34467
0
LINE
8
BLACK
6
CONTINUOUS
10
2.58539
20
2.34467
11
2.58266
21
2.33087
0
LINE
8
BLACK
6
CONTINUOUS
10
2.58266
20
2.33087
11
2.5784
21
2.31747
0
LINE
8
BLACK
6
CONTINUOUS
10
2.5784
20
2.31747
11
2.57268
21
2.30462
0
LINE
8
BLACK
6
CONTINUOUS
10
2.57268
20
2.30462
11
2.56556
21
2.29249
0
LINE
8
BLACK
6
CONTINUOUS
10
2.56556
20
2.29249
11
2.55714
21
2.28122
0
LINE
8
BLACK
6
CONTINUOUS
10
2.55714
20
2.28122
11
2.54751
21
2.27097
0
LINE
8
BLACK
6
CONTINUOUS
10
2.54751
20
2.27097
11
2.5368
21
2.26185
0
LINE
8
BLACK
6
CONTINUOUS
10
2.5368
20
2.26185
11
2.52514
21
2.25399
0
LINE
8
BLACK
6
CONTINUOUS
10
2.52514
20
2.25399
11
2.51267
21
2.24747
0
LINE
8
BLACK
6
CONTINUOUS
10
2.51267
20
2.24747
11
2.49956
21
2.24239
0
LINE
8
BLACK
6
CONTINUOUS
10
2.49956
20
2.24239
11
2.48596
21
2.23879
0
LINE
8
BLACK
6
CONTINUOUS
10
2.48596
20
2.23879
11
2.47205
21
2.23674
0
LINE
8
BLACK
6
CONTINUOUS
10
2.47205
20
2.23674
11
2.45799
21
2.23625
0
LINE
8
BLACK
6
CONTINUOUS
10
2.45799
20
2.23625
11
2.44397
21
2.23733
0
LINE
8
BLACK
6
CONTINUOUS
10
2.44397
20
2.23733
11
2.43015
21
2.23996
0
LINE
8
BLACK
6
CONTINUOUS
10
2.43015
20
2.23996
11
2.41672
21
2.24412
0
LINE
8
BLACK
6
CONTINUOUS
10
2.41672
20
2.24412
11
2.40383
21
2.24975
0
LINE
8
BLACK
6
CONTINUOUS
10
2.40383
20
2.24975
11
2.39165
21
2.25679
0
LINE
8
BLACK
6
CONTINUOUS
10
2.39165
20
2.25679
11
2.38032
21
2.26513
0
LINE
8
BLACK
6
CONTINUOUS
10
2.38032
20
2.26513
11
2.37
21
2.27469
0
LINE
8
BLACK
6
CONTINUOUS
10
2.37
20
2.27469
11
2.36081
21
2.28534
0
LINE
8
BLACK
6
CONTINUOUS
10
2.36081
20
2.28534
11
2.35287
21
2.29694
0
LINE
8
BLACK
6
CONTINUOUS
10
2.35287
20
2.29694
11
2.34626
21
2.30936
0
LINE
8
BLACK
6
CONTINUOUS
10
2.34626
20
2.30936
11
2.34109
21
2.32244
0
LINE
8
BLACK
6
CONTINUOUS
10
2.34109
20
2.32244
11
2.3374
21
2.33601
0
LINE
8
BLACK
6
CONTINUOUS
10
2.3374
20
2.33601
11
2.33525
21
2.34991
0
LINE
8
BLACK
6
CONTINUOUS
10
2.33525
20
2.34991
11
2.33466
21
2.36396
0
LINE
8
BLACK
6
CONTINUOUS
10
2.33466
20
2.36396
11
2.33564
21
2.37799
0
LINE
8
BLACK
6
CONTINUOUS
10
2.33564
20
2.37799
11
2.33818
21
2.39183
0
LINE
8
BLACK
6
CONTINUOUS
10
2.33818
20
2.39183
11
2.34224
21
2.40529
0
LINE
8
BLACK
6
CONTINUOUS
10
2.34224
20
2.40529
11
2.34778
21
2.41822
0
LINE
8
BLACK
6
CONTINUOUS
10
2.34778
20
2.41822
11
2.35473
21
2.43045
0
LINE
8
BLACK
6
CONTINUOUS
10
2.35473
20
2.43045
11
2.363
21
2.44183
0
LINE
8
BLACK
6
CONTINUOUS
10
2.363
20
2.44183
11
2.37248
21
2.45222
0
LINE
8
BLACK
6
CONTINUOUS
10
2.37248
20
2.45222
11
2.38307
21
2.46148
0
LINE
8
BLACK
6
CONTINUOUS
10
2.38307
20
2.46148
11
2.39462
21
2.46951
0
LINE
8
BLACK
6
CONTINUOUS
10
2.39462
20
2.46951
11
2.40699
21
2.4762
0
LINE
8
BLACK
6
CONTINUOUS
10
2.40699
20
2.4762
11
2.42003
21
2.48147
0
LINE
8
BLACK
6
CONTINUOUS
10
2.42003
20
2.48147
11
2.43358
21
2.48525
0
LINE
8
BLACK
6
CONTINUOUS
10
2.43358
20
2.48525
11
2.44746
21
2.4875
0
LINE
8
BLACK
6
CONTINUOUS
10
2.44746
20
2.4875
11
2.46151
21
2.48819
0
LINE
8
BLACK
6
CONTINUOUS
10
2.46151
20
2.48819
11
2.47555
21
2.4873
0
LINE
8
BLACK
6
CONTINUOUS
10
1.58972
20
2.68415
11
1.60357
21
2.68171
0
LINE
8
BLACK
6
CONTINUOUS
10
1.60357
20
2.68171
11
1.61706
21
2.67774
0
LINE
8
BLACK
6
CONTINUOUS
10
1.61706
20
2.67774
11
1.63003
21
2.67229
0
LINE
8
BLACK
6
CONTINUOUS
10
1.63003
20
2.67229
11
1.64231
21
2.66543
0
LINE
8
BLACK
6
CONTINUOUS
10
1.64231
20
2.66543
11
1.65375
21
2.65724
0
LINE
8
BLACK
6
CONTINUOUS
10
1.65375
20
2.65724
11
1.6642
21
2.64783
0
LINE
8
BLACK
6
CONTINUOUS
10
1.6642
20
2.64783
11
1.67354
21
2.63731
0
LINE
8
BLACK
6
CONTINUOUS
10
1.67354
20
2.63731
11
1.68164
21
2.62582
0
LINE
8
BLACK
6
CONTINUOUS
10
1.68164
20
2.62582
11
1.68842
21
2.61349
0
LINE
8
BLACK
6
CONTINUOUS
10
1.68842
20
2.61349
11
1.69378
21
2.60049
0
LINE
8
BLACK
6
CONTINUOUS
10
1.69378
20
2.60049
11
1.69766
21
2.58697
0
LINE
8
BLACK
6
CONTINUOUS
10
1.69766
20
2.58697
11
1.7
21
2.5731
0
LINE
8
BLACK
6
CONTINUOUS
10
1.7
20
2.5731
11
1.70079
21
2.55906
0
LINE
8
BLACK
6
CONTINUOUS
10
1.70079
20
2.55906
11
1.70074
21
2.55554
0
LINE
8
BLACK
6
CONTINUOUS
10
1.70074
20
2.55554
11
1.69956
21
2.54152
0
LINE
8
BLACK
6
CONTINUOUS
10
1.69956
20
2.54152
11
1.69683
21
2.52772
0
LINE
8
BLACK
6
CONTINUOUS
10
1.69683
20
2.52772
11
1.69258
21
2.51432
0
LINE
8
BLACK
6
CONTINUOUS
10
1.69258
20
2.51432
11
1.68686
21
2.50147
0
LINE
8
BLACK
6
CONTINUOUS
10
1.68686
20
2.50147
11
1.67974
21
2.48934
0
LINE
8
BLACK
6
CONTINUOUS
10
1.67974
20
2.48934
11
1.67131
21
2.47807
0
LINE
8
BLACK
6
CONTINUOUS
10
1.67131
20
2.47807
11
1.66168
21
2.46782
0
LINE
8
BLACK
6
CONTINUOUS
10
1.66168
20
2.46782
11
1.65097
21
2.4587
0
LINE
8
BLACK
6
CONTINUOUS
10
1.65097
20
2.4587
11
1.63931
21
2.45084
0
LINE
8
BLACK
6
CONTINUOUS
10
1.63931
20
2.45084
11
1.62685
21
2.44432
0
LINE
8
BLACK
6
CONTINUOUS
10
1.62685
20
2.44432
11
1.61373
21
2.43924
0
LINE
8
BLACK
6
CONTINUOUS
10
1.61373
20
2.43924
11
1.60014
21
2.43564
0
LINE
8
BLACK
6
CONTINUOUS
10
1.60014
20
2.43564
11
1.58622
21
2.43359
0
LINE
8
BLACK
6
CONTINUOUS
10
1.58622
20
2.43359
11
1.57216
21
2.4331
0
LINE
8
BLACK
6
CONTINUOUS
10
1.57216
20
2.4331
11
1.55814
21
2.43418
0
LINE
8
BLACK
6
CONTINUOUS
10
1.55814
20
2.43418
11
1.54432
21
2.43681
0
LINE
8
BLACK
6
CONTINUOUS
10
1.54432
20
2.43681
11
1.53089
21
2.44097
0
LINE
8
BLACK
6
CONTINUOUS
10
1.53089
20
2.44097
11
1.518
21
2.4466
0
LINE
8
BLACK
6
CONTINUOUS
10
1.518
20
2.4466
11
1.50582
21
2.45364
0
LINE
8
BLACK
6
CONTINUOUS
10
1.50582
20
2.45364
11
1.4945
21
2.46198
0
LINE
8
BLACK
6
CONTINUOUS
10
1.4945
20
2.46198
11
1.48418
21
2.47154
0
LINE
8
BLACK
6
CONTINUOUS
10
1.48418
20
2.47154
11
1.47499
21
2.48219
0
LINE
8
BLACK
6
CONTINUOUS
10
1.47499
20
2.48219
11
1.46704
21
2.49379
0
LINE
8
BLACK
6
CONTINUOUS
10
1.46704
20
2.49379
11
1.46044
21
2.50621
0
LINE
8
BLACK
6
CONTINUOUS
10
1.46044
20
2.50621
11
1.45526
21
2.51929
0
LINE
8
BLACK
6
CONTINUOUS
10
1.45526
20
2.51929
11
1.45157
21
2.53286
0
LINE
8
BLACK
6
CONTINUOUS
10
1.45157
20
2.53286
11
1.44942
21
2.54676
0
LINE
8
BLACK
6
CONTINUOUS
10
1.44942
20
2.54676
11
1.44883
21
2.56081
0
LINE
8
BLACK
6
CONTINUOUS
10
1.44883
20
2.56081
11
1.44981
21
2.57485
0
LINE
8
BLACK
6
CONTINUOUS
10
1.44981
20
2.57485
11
1.45235
21
2.58868
0
LINE
8
BLACK
6
CONTINUOUS
10
1.45235
20
2.58868
11
1.45642
21
2.60214
0
LINE
8
BLACK
6
CONTINUOUS
10
1.45642
20
2.60214
11
1.46196
21
2.61507
0
LINE
8
BLACK
6
CONTINUOUS
10
1.46196
20
2.61507
11
1.4689
21
2.6273
0
LINE
8
BLACK
6
CONTINUOUS
10
1.4689
20
2.6273
11
1.47717
21
2.63868
0
LINE
8
BLACK
6
CONTINUOUS
10
1.47717
20
2.63868
11
1.48666
21
2.64907
0
LINE
8
BLACK
6
CONTINUOUS
10
1.48666
20
2.64907
11
1.49724
21
2.65833
0
LINE
8
BLACK
6
CONTINUOUS
10
1.49724
20
2.65833
11
1.50879
21
2.66636
0
LINE
8
BLACK
6
CONTINUOUS
10
1.50879
20
2.66636
11
1.52116
21
2.67305
0
LINE
8
BLACK
6
CONTINUOUS
10
1.52116
20
2.67305
11
1.5342
21
2.67832
0
LINE
8
BLACK
6
CONTINUOUS
10
1.5342
20
2.67832
11
1.54775
21
2.6821
0
LINE
8
BLACK
6
CONTINUOUS
10
1.54775
20
2.6821
11
1.56163
21
2.68435
0
LINE
8
BLACK
6
CONTINUOUS
10
1.56163
20
2.68435
11
1.57568
21
2.68504
0
LINE
8
BLACK
6
CONTINUOUS
10
1.57568
20
2.68504
11
1.58972
21
2.68415
0
LINE
8
BLACK
6
CONTINUOUS
10
2.37712
20
2.78258
11
2.39097
21
2.78014
0
LINE
8
BLACK
6
CONTINUOUS
10
2.39097
20
2.78014
11
2.40447
21
2.77616
0
LINE
8
BLACK
6
CONTINUOUS
10
2.40447
20
2.77616
11
2.41743
21
2.77071
0
LINE
8
BLACK
6
CONTINUOUS
10
2.41743
20
2.77071
11
2.42971
21
2.76385
0
LINE
8
BLACK
6
CONTINUOUS
10
2.42971
20
2.76385
11
2.44115
21
2.75566
0
LINE
8
BLACK
6
CONTINUOUS
10
2.44115
20
2.75566
11
2.4516
21
2.74625
0
LINE
8
BLACK
6
CONTINUOUS
10
2.4516
20
2.74625
11
2.46094
21
2.73574
0
LINE
8
BLACK
6
CONTINUOUS
10
2.46094
20
2.73574
11
2.46905
21
2.72424
0
LINE
8
BLACK
6
CONTINUOUS
10
2.46905
20
2.72424
11
2.47582
21
2.71192
0
LINE
8
BLACK
6
CONTINUOUS
10
2.47582
20
2.71192
11
2.48118
21
2.69891
0
LINE
8
BLACK
6
CONTINUOUS
10
2.48118
20
2.69891
11
2.48506
21
2.68539
0
LINE
8
BLACK
6
CONTINUOUS
10
2.48506
20
2.68539
11
2.4874
21
2.67152
0
LINE
8
BLACK
6
CONTINUOUS
10
2.4874
20
2.67152
11
2.48819
21
2.65748
0
LINE
8
BLACK
6
CONTINUOUS
10
2.48819
20
2.65748
11
2.48814
21
2.65396
0
LINE
8
BLACK
6
CONTINUOUS
10
2.48814
20
2.65396
11
2.48696
21
2.63995
0
LINE
8
BLACK
6
CONTINUOUS
10
2.48696
20
2.63995
11
2.48423
21
2.62615
0
LINE
8
BLACK
6
CONTINUOUS
10
2.48423
20
2.62615
11
2.47998
21
2.61274
0
LINE
8
BLACK
6
CONTINUOUS
10
2.47998
20
2.61274
11
2.47426
21
2.59989
0
LINE
8
BLACK
6
CONTINUOUS
10
2.47426
20
2.59989
11
2.46714
21
2.58776
0
LINE
8
BLACK
6
CONTINUOUS
10
2.46714
20
2.58776
11
2.45871
21
2.5765
0
LINE
8
BLACK
6
CONTINUOUS
10
2.45871
20
2.5765
11
2.44909
21
2.56625
0
LINE
8
BLACK
6
CONTINUOUS
10
2.44909
20
2.56625
11
2.43837
21
2.55713
0
LINE
8
BLACK
6
CONTINUOUS
10
2.43837
20
2.55713
11
2.42671
21
2.54926
0
LINE
8
BLACK
6
CONTINUOUS
10
2.42671
20
2.54926
11
2.41425
21
2.54275
0
LINE
8
BLACK
6
CONTINUOUS
10
2.41425
20
2.54275
11
2.40114
21
2.53766
0
LINE
8
BLACK
6
CONTINUOUS
10
2.40114
20
2.53766
11
2.38754
21
2.53407
0
LINE
8
BLACK
6
CONTINUOUS
10
2.38754
20
2.53407
11
2.37362
21
2.53201
0
LINE
8
BLACK
6
CONTINUOUS
10
2.37362
20
2.53201
11
2.35957
21
2.53152
0
LINE
8
BLACK
6
CONTINUOUS
10
2.35957
20
2.53152
11
2.34554
21
2.5326
0
LINE
8
BLACK
6
CONTINUOUS
10
2.34554
20
2.5326
11
2.33173
21
2.53524
0
LINE
8
BLACK
6
CONTINUOUS
10
2.33173
20
2.53524
11
2.31829
21
2.5394
0
LINE
8
BLACK
6
CONTINUOUS
10
2.31829
20
2.5394
11
2.3054
21
2.54503
0
LINE
8
BLACK
6
CONTINUOUS
10
2.3054
20
2.54503
11
2.29322
21
2.55206
0
LINE
8
BLACK
6
CONTINUOUS
10
2.29322
20
2.55206
11
2.2819
21
2.56041
0
LINE
8
BLACK
6
CONTINUOUS
10
2.2819
20
2.56041
11
2.27158
21
2.56996
0
LINE
8
BLACK
6
CONTINUOUS
10
2.27158
20
2.56996
11
2.26239
21
2.58061
0
LINE
8
BLACK
6
CONTINUOUS
10
2.26239
20
2.58061
11
2.25444
21
2.59222
0
LINE
8
BLACK
6
CONTINUOUS
10
2.25444
20
2.59222
11
2.24784
21
2.60464
0
LINE
8
BLACK
6
CONTINUOUS
10
2.24784
20
2.60464
11
2.24266
21
2.61771
0
LINE
8
BLACK
6
CONTINUOUS
10
2.24266
20
2.61771
11
2.23897
21
2.63129
0
LINE
8
BLACK
6
CONTINUOUS
10
2.23897
20
2.63129
11
2.23682
21
2.64519
0
LINE
8
BLACK
6
CONTINUOUS
10
2.23682
20
2.64519
11
2.23623
21
2.65924
0
LINE
8
BLACK
6
CONTINUOUS
10
2.23623
20
2.65924
11
2.23721
21
2.67327
0
LINE
8
BLACK
6
CONTINUOUS
10
2.23721
20
2.67327
11
2.23975
21
2.6871
0
LINE
8
BLACK
6
CONTINUOUS
10
2.23975
20
2.6871
11
2.24382
21
2.70057
0
LINE
8
BLACK
6
CONTINUOUS
10
2.24382
20
2.70057
11
2.24936
21
2.7135
0
LINE
8
BLACK
6
CONTINUOUS
10
2.24936
20
2.7135
11
2.25631
21
2.72573
0
LINE
8
BLACK
6
CONTINUOUS
10
2.25631
20
2.72573
11
2.26457
21
2.73711
0
LINE
8
BLACK
6
CONTINUOUS
10
2.26457
20
2.73711
11
2.27406
21
2.74749
0
LINE
8
BLACK
6
CONTINUOUS
10
2.27406
20
2.74749
11
2.28464
21
2.75676
0
LINE
8
BLACK
6
CONTINUOUS
10
2.28464
20
2.75676
11
2.29619
21
2.76478
0
LINE
8
BLACK
6
CONTINUOUS
10
2.29619
20
2.76478
11
2.30856
21
2.77147
0
LINE
8
BLACK
6
CONTINUOUS
10
2.30856
20
2.77147
11
2.3216
21
2.77674
0
LINE
8
BLACK
6
CONTINUOUS
10
2.3216
20
2.77674
11
2.33515
21
2.78053
0
LINE
8
BLACK
6
CONTINUOUS
10
2.33515
20
2.78053
11
2.34904
21
2.78277
0
LINE
8
BLACK
6
CONTINUOUS
10
2.34904
20
2.78277
11
2.36308
21
2.78346
0
LINE
8
BLACK
6
CONTINUOUS
10
2.36308
20
2.78346
11
2.37712
21
2.78258
  0
ENDSEC
  0
EOF
