  0
SECTION
  2
HEADER
  9
$ANGBASE
  50
0.0
  9
$ANGDIR
  70
1
  9
$MEASUREMENT
  70
0
  0
ENDSEC
  0
SECTION
  2
TABLES
  0
TABLE
  2
LTYPE
  70
4
  0
LTYPE
  5
40F
  2
CONTINUOUS
  70
0
  3
Solid line
  72
65
  73
0
  40
0.0
  0
LTYPE
  5
410
  2
DASHDOT
 70
0
  3
Dash Dot ____ _ ____ _
 72
65
 73
4
 40
2.0
 49
1.25
 49
-0.25
 49
0.25
 49
-0.25
  0
LTYPE
  5
411
  2
DASHED
 70
0
  3
Dashed __ __ __ __ __
 72
65
 73
2
 40
0.75
 49
0.5
 49
-0.25
  0
LTYPE
  5
43B
  2
DOTTED
 70
0
  3
Dotted .  .  .  .
 72
65
 73
2
 40
0.2
 49
0.0
 49
-0.2
  0
ENDTAB
  0
TABLE
  2
STYLE
  70
4
  0
STYLE
  2
KICAD
  70
0
  40
0
  41
1
  42
1
  50
0
  71
0
  3
isocp.shx
  0
STYLE
  2
KICADB
  70
0
  40
0
  41
1
  42
1
  50
0
  71
0
  3
isocp.shx
  0
STYLE
  2
KICADI
  70
0
  40
0
  41
1
  42
1
  50
15
  71
0
  3
isocp.shx
  0
STYLE
  2
KICADBI
  70
0
  40
0
  41
1
  42
1
  50
15
  71
0
  3
isocp.shx
  0
ENDTAB
  0
TABLE
  2
LAYER
  70
1
  0
LAYER
  2
BLACK
  70
0
  62
7
  6
CONTINUOUS
  0
ENDTAB
  0
ENDSEC
  0
SECTION
  2
ENTITIES
0
LINE
8
BLACK
6
CONTINUOUS
10
6.9025813779527558
20
-3.8685394881889761
11
6.9031140551181105
21
-3.8690721653543307
0
LINE
8
BLACK
6
CONTINUOUS
10
6.9031140551181105
20
-3.8690721653543307
11
6.9031889763779528
21
-3.8694488188976379
0
LINE
8
BLACK
6
CONTINUOUS
10
6.9031889763779528
20
-3.8694488188976379
11
6.9031889763779528
21
-4.46
0
LINE
8
BLACK
6
CONTINUOUS
10
6.9031889763779528
20
-4.46
11
6.9031140551181105
21
-4.4603766535433067
0
LINE
8
BLACK
6
CONTINUOUS
10
6.9031140551181105
20
-4.4603766535433067
11
6.9025813779527558
21
-4.4609093307086614
0
LINE
8
BLACK
6
CONTINUOUS
10
6.9025813779527558
20
-4.4609093307086614
11
6.9022047244094491
21
-4.4609842519685037
0
LINE
8
BLACK
6
CONTINUOUS
10
6.9022047244094491
20
-4.4609842519685037
11
4.54
21
-4.4609842519685037
0
LINE
8
BLACK
6
CONTINUOUS
10
4.54
20
-4.4609842519685037
11
4.5396233464566924
21
-4.4609093307086614
0
LINE
8
BLACK
6
CONTINUOUS
10
4.5396233464566924
20
-4.4609093307086614
11
4.5390906692913386
21
-4.4603766535433067
0
LINE
8
BLACK
6
CONTINUOUS
10
4.5390906692913386
20
-4.4603766535433067
11
4.5390157480314963
21
-4.46
0
LINE
8
BLACK
6
CONTINUOUS
10
4.5390157480314963
20
-4.46
11
4.5390157480314963
21
-3.8694488188976379
0
LINE
8
BLACK
6
CONTINUOUS
10
4.5390157480314963
20
-3.8694488188976379
11
4.5390906692913386
21
-3.8690721653543307
0
LINE
8
BLACK
6
CONTINUOUS
10
4.5390906692913386
20
-3.8690721653543307
11
4.5396233464566924
21
-3.8685394881889761
0
LINE
8
BLACK
6
CONTINUOUS
10
4.5396233464566924
20
-3.8685394881889761
11
4.54
21
-3.8684645669291338
0
LINE
8
BLACK
6
CONTINUOUS
10
4.54
20
-3.8684645669291338
11
6.9022047244094491
21
-3.8684645669291338
0
LINE
8
BLACK
6
CONTINUOUS
10
6.9022047244094491
20
-3.8684645669291338
11
6.9025813779527558
21
-3.8685394881889761
0
LINE
8
BLACK
6
CONTINUOUS
10
4.5409842519685037
20
-3.8704330708661416
11
4.5409842519685037
21
-4.4590157480314963
0
LINE
8
BLACK
6
CONTINUOUS
10
4.5409842519685037
20
-4.4590157480314963
11
6.9012204724409445
21
-4.4590157480314963
0
LINE
8
BLACK
6
CONTINUOUS
10
6.9012204724409445
20
-4.4590157480314963
11
6.9012204724409445
21
-3.8704330708661416
0
LINE
8
BLACK
6
CONTINUOUS
10
6.9012204724409445
20
-3.8704330708661416
11
4.5409842519685037
21
-3.8704330708661416
0
CIRCLE
8
BLACK
10
6.71
20
-4.1647244094488185
40
0.0068897637795276
0
CIRCLE
8
BLACK
10
6.8099999999999996
20
-4.1647244094488185
40
0.0068897637795276
0
CIRCLE
8
BLACK
10
6.71
20
-3.9647244094488188
40
0.0068897637795276
0
CIRCLE
8
BLACK
10
6.8099999999999996
20
-3.9647244094488188
40
0.0068897637795276
0
CIRCLE
8
BLACK
10
6.71
20
-4.0647244094488189
40
0.0068897637795276
0
CIRCLE
8
BLACK
10
6.8099999999999996
20
-4.0647244094488189
40
0.0068897637795276
0
CIRCLE
8
BLACK
10
6.71
20
-4.264724409448819
40
0.0068897637795276
0
CIRCLE
8
BLACK
10
6.8099999999999996
20
-4.264724409448819
40
0.0068897637795276
0
CIRCLE
8
BLACK
10
6.71
20
-4.3647244094488187
40
0.0068897637795276
0
CIRCLE
8
BLACK
10
6.8099999999999996
20
-4.3647244094488187
40
0.0068897637795276
  0
ENDSEC
  0
EOF
