  0
SECTION
  2
HEADER
  9
$ANGBASE
  50
0.0
  9
$ANGDIR
  70
1
  9
$MEASUREMENT
  70
0
  0
ENDSEC
  0
SECTION
  2
TABLES
  0
TABLE
  2
LTYPE
  70
4
  0
LTYPE
  5
40F
  2
CONTINUOUS
  70
0
  3
Solid line
  72
65
  73
0
  40
0.0
  0
LTYPE
  5
410
  2
DASHDOT
 70
0
  3
Dash Dot ____ _ ____ _
 72
65
 73
4
 40
2.0
 49
1.25
 49
-0.25
 49
0.25
 49
-0.25
  0
LTYPE
  5
411
  2
DASHED
 70
0
  3
Dashed __ __ __ __ __
 72
65
 73
2
 40
0.75
 49
0.5
 49
-0.25
  0
LTYPE
  5
43B
  2
DOTTED
 70
0
  3
Dotted .  .  .  .
 72
65
 73
2
 40
0.2
 49
0.0
 49
-0.2
  0
ENDTAB
  0
TABLE
  2
STYLE
  70
4
  0
STYLE
  2
KICAD
  70
0
  40
0
  41
1
  42
1
  50
0
  71
0
  3
isocp.shx
  0
STYLE
  2
KICADB
  70
0
  40
0
  41
1
  42
1
  50
0
  71
0
  3
isocp.shx
  0
STYLE
  2
KICADI
  70
0
  40
0
  41
1
  42
1
  50
15
  71
0
  3
isocp.shx
  0
STYLE
  2
KICADBI
  70
0
  40
0
  41
1
  42
1
  50
15
  71
0
  3
isocp.shx
  0
ENDTAB
  0
TABLE
  2
LAYER
  70
1
  0
LAYER
  2
BLACK
  70
0
  62
7
  6
CONTINUOUS
  0
ENDTAB
  0
ENDSEC
  0
SECTION
  2
ENTITIES
0
LINE
8
BLACK
6
CONTINUOUS
10
2.39301
20
0.137275
11
2.39557
21
0.135568
0
LINE
8
BLACK
6
CONTINUOUS
10
2.39557
20
0.135568
11
2.39727
21
0.133013
0
LINE
8
BLACK
6
CONTINUOUS
10
2.39727
20
0.133013
11
2.39787
21
0.13
0
LINE
8
BLACK
6
CONTINUOUS
10
2.39787
20
0.13
11
2.39787
21
0.07
0
LINE
8
BLACK
6
CONTINUOUS
10
2.39787
20
0.07
11
2.39727
21
0.0669867
0
LINE
8
BLACK
6
CONTINUOUS
10
2.39727
20
0.0669867
11
2.39557
21
0.0644322
0
LINE
8
BLACK
6
CONTINUOUS
10
2.39557
20
0.0644322
11
2.39301
21
0.0627254
0
LINE
8
BLACK
6
CONTINUOUS
10
2.39301
20
0.0627254
11
2.39
21
0.062126
0
LINE
8
BLACK
6
CONTINUOUS
10
2.39
20
0.062126
11
2.33
21
0.062126
0
LINE
8
BLACK
6
CONTINUOUS
10
2.33
20
0.062126
11
2.32699
21
0.0627254
0
LINE
8
BLACK
6
CONTINUOUS
10
2.32699
20
0.0627254
11
2.32443
21
0.0644322
0
LINE
8
BLACK
6
CONTINUOUS
10
2.32443
20
0.0644322
11
2.32273
21
0.0669867
0
LINE
8
BLACK
6
CONTINUOUS
10
2.32273
20
0.0669867
11
2.32213
21
0.07
0
LINE
8
BLACK
6
CONTINUOUS
10
2.32213
20
0.07
11
2.32213
21
0.13
0
LINE
8
BLACK
6
CONTINUOUS
10
2.32213
20
0.13
11
2.32273
21
0.133013
0
LINE
8
BLACK
6
CONTINUOUS
10
2.32273
20
0.133013
11
2.32443
21
0.135568
0
LINE
8
BLACK
6
CONTINUOUS
10
2.32443
20
0.135568
11
2.32699
21
0.137275
0
LINE
8
BLACK
6
CONTINUOUS
10
2.32699
20
0.137275
11
2.33
21
0.137874
0
LINE
8
BLACK
6
CONTINUOUS
10
2.33
20
0.137874
11
2.39
21
0.137874
0
LINE
8
BLACK
6
CONTINUOUS
10
2.39
20
0.137874
11
2.39301
21
0.137275
0
LINE
8
BLACK
6
CONTINUOUS
10
2.29301
20
0.137275
11
2.29557
21
0.135568
0
LINE
8
BLACK
6
CONTINUOUS
10
2.29557
20
0.135568
11
2.29727
21
0.133013
0
LINE
8
BLACK
6
CONTINUOUS
10
2.29727
20
0.133013
11
2.29787
21
0.13
0
LINE
8
BLACK
6
CONTINUOUS
10
2.29787
20
0.13
11
2.29787
21
0.07
0
LINE
8
BLACK
6
CONTINUOUS
10
2.29787
20
0.07
11
2.29727
21
0.0669867
0
LINE
8
BLACK
6
CONTINUOUS
10
2.29727
20
0.0669867
11
2.29557
21
0.0644322
0
LINE
8
BLACK
6
CONTINUOUS
10
2.29557
20
0.0644322
11
2.29301
21
0.0627254
0
LINE
8
BLACK
6
CONTINUOUS
10
2.29301
20
0.0627254
11
2.29
21
0.062126
0
LINE
8
BLACK
6
CONTINUOUS
10
2.29
20
0.062126
11
2.23
21
0.062126
0
LINE
8
BLACK
6
CONTINUOUS
10
2.23
20
0.062126
11
2.22699
21
0.0627254
0
LINE
8
BLACK
6
CONTINUOUS
10
2.22699
20
0.0627254
11
2.22443
21
0.0644322
0
LINE
8
BLACK
6
CONTINUOUS
10
2.22443
20
0.0644322
11
2.22273
21
0.0669867
0
LINE
8
BLACK
6
CONTINUOUS
10
2.22273
20
0.0669867
11
2.22213
21
0.07
0
LINE
8
BLACK
6
CONTINUOUS
10
2.22213
20
0.07
11
2.22213
21
0.13
0
LINE
8
BLACK
6
CONTINUOUS
10
2.22213
20
0.13
11
2.22273
21
0.133013
0
LINE
8
BLACK
6
CONTINUOUS
10
2.22273
20
0.133013
11
2.22443
21
0.135568
0
LINE
8
BLACK
6
CONTINUOUS
10
2.22443
20
0.135568
11
2.22699
21
0.137275
0
LINE
8
BLACK
6
CONTINUOUS
10
2.22699
20
0.137275
11
2.23
21
0.137874
0
LINE
8
BLACK
6
CONTINUOUS
10
2.23
20
0.137874
11
2.29
21
0.137874
0
LINE
8
BLACK
6
CONTINUOUS
10
2.29
20
0.137874
11
2.29301
21
0.137275
0
LINE
8
BLACK
6
CONTINUOUS
10
0.503013
20
0.235621
11
0.505568
21
0.233914
0
LINE
8
BLACK
6
CONTINUOUS
10
0.505568
20
0.233914
11
0.507275
21
0.23136
0
LINE
8
BLACK
6
CONTINUOUS
10
0.507275
20
0.23136
11
0.507874
21
0.228346
0
LINE
8
BLACK
6
CONTINUOUS
10
0.507874
20
0.228346
11
0.507874
21
0.0905512
0
LINE
8
BLACK
6
CONTINUOUS
10
0.507874
20
0.0905512
11
0.507275
21
0.0875379
0
LINE
8
BLACK
6
CONTINUOUS
10
0.507275
20
0.0875379
11
0.505568
21
0.0849834
0
LINE
8
BLACK
6
CONTINUOUS
10
0.505568
20
0.0849834
11
0.503013
21
0.0832765
0
LINE
8
BLACK
6
CONTINUOUS
10
0.503013
20
0.0832765
11
0.5
21
0.0826772
0
LINE
8
BLACK
6
CONTINUOUS
10
0.5
20
0.0826772
11
0.362205
21
0.0826772
0
LINE
8
BLACK
6
CONTINUOUS
10
0.362205
20
0.0826772
11
0.359191
21
0.0832765
0
LINE
8
BLACK
6
CONTINUOUS
10
0.359191
20
0.0832765
11
0.356637
21
0.0849834
0
LINE
8
BLACK
6
CONTINUOUS
10
0.356637
20
0.0849834
11
0.35493
21
0.0875379
0
LINE
8
BLACK
6
CONTINUOUS
10
0.35493
20
0.0875379
11
0.354331
21
0.0905512
0
LINE
8
BLACK
6
CONTINUOUS
10
0.354331
20
0.0905512
11
0.354331
21
0.228346
0
LINE
8
BLACK
6
CONTINUOUS
10
0.354331
20
0.228346
11
0.35493
21
0.23136
0
LINE
8
BLACK
6
CONTINUOUS
10
0.35493
20
0.23136
11
0.356637
21
0.233914
0
LINE
8
BLACK
6
CONTINUOUS
10
0.356637
20
0.233914
11
0.359191
21
0.235621
0
LINE
8
BLACK
6
CONTINUOUS
10
0.359191
20
0.235621
11
0.362205
21
0.23622
0
LINE
8
BLACK
6
CONTINUOUS
10
0.362205
20
0.23622
11
0.5
21
0.23622
0
LINE
8
BLACK
6
CONTINUOUS
10
0.5
20
0.23622
11
0.503013
21
0.235621
0
LINE
8
BLACK
6
CONTINUOUS
10
0.23136
20
0.235621
11
0.233914
21
0.233914
0
LINE
8
BLACK
6
CONTINUOUS
10
0.233914
20
0.233914
11
0.235621
21
0.23136
0
LINE
8
BLACK
6
CONTINUOUS
10
0.235621
20
0.23136
11
0.23622
21
0.228346
0
LINE
8
BLACK
6
CONTINUOUS
10
0.23622
20
0.228346
11
0.23622
21
0.0905512
0
LINE
8
BLACK
6
CONTINUOUS
10
0.23622
20
0.0905512
11
0.235621
21
0.0875379
0
LINE
8
BLACK
6
CONTINUOUS
10
0.235621
20
0.0875379
11
0.233914
21
0.0849834
0
LINE
8
BLACK
6
CONTINUOUS
10
0.233914
20
0.0849834
11
0.23136
21
0.0832765
0
LINE
8
BLACK
6
CONTINUOUS
10
0.23136
20
0.0832765
11
0.228346
21
0.0826772
0
LINE
8
BLACK
6
CONTINUOUS
10
0.228346
20
0.0826772
11
0.0905512
21
0.0826772
0
LINE
8
BLACK
6
CONTINUOUS
10
0.0905512
20
0.0826772
11
0.0875379
21
0.0832765
0
LINE
8
BLACK
6
CONTINUOUS
10
0.0875379
20
0.0832765
11
0.0849834
21
0.0849834
0
LINE
8
BLACK
6
CONTINUOUS
10
0.0849834
20
0.0849834
11
0.0832765
21
0.0875379
0
LINE
8
BLACK
6
CONTINUOUS
10
0.0832765
20
0.0875379
11
0.0826772
21
0.0905512
0
LINE
8
BLACK
6
CONTINUOUS
10
0.0826772
20
0.0905512
11
0.0826772
21
0.228346
0
LINE
8
BLACK
6
CONTINUOUS
10
0.0826772
20
0.228346
11
0.0832765
21
0.23136
0
LINE
8
BLACK
6
CONTINUOUS
10
0.0832765
20
0.23136
11
0.0849834
21
0.233914
0
LINE
8
BLACK
6
CONTINUOUS
10
0.0849834
20
0.233914
11
0.0875379
21
0.235621
0
LINE
8
BLACK
6
CONTINUOUS
10
0.0875379
20
0.235621
11
0.0905512
21
0.23622
0
LINE
8
BLACK
6
CONTINUOUS
10
0.0905512
20
0.23622
11
0.228346
21
0.23622
0
LINE
8
BLACK
6
CONTINUOUS
10
0.228346
20
0.23622
11
0.23136
21
0.235621
0
LINE
8
BLACK
6
CONTINUOUS
10
2.29301
20
0.237275
11
2.29557
21
0.235568
0
LINE
8
BLACK
6
CONTINUOUS
10
2.29557
20
0.235568
11
2.29727
21
0.233013
0
LINE
8
BLACK
6
CONTINUOUS
10
2.29727
20
0.233013
11
2.29787
21
0.23
0
LINE
8
BLACK
6
CONTINUOUS
10
2.29787
20
0.23
11
2.29787
21
0.17
0
LINE
8
BLACK
6
CONTINUOUS
10
2.29787
20
0.17
11
2.29727
21
0.166987
0
LINE
8
BLACK
6
CONTINUOUS
10
2.29727
20
0.166987
11
2.29557
21
0.164432
0
LINE
8
BLACK
6
CONTINUOUS
10
2.29557
20
0.164432
11
2.29301
21
0.162725
0
LINE
8
BLACK
6
CONTINUOUS
10
2.29301
20
0.162725
11
2.29
21
0.162126
0
LINE
8
BLACK
6
CONTINUOUS
10
2.29
20
0.162126
11
2.23
21
0.162126
0
LINE
8
BLACK
6
CONTINUOUS
10
2.23
20
0.162126
11
2.22699
21
0.162725
0
LINE
8
BLACK
6
CONTINUOUS
10
2.22699
20
0.162725
11
2.22443
21
0.164432
0
LINE
8
BLACK
6
CONTINUOUS
10
2.22443
20
0.164432
11
2.22273
21
0.166987
0
LINE
8
BLACK
6
CONTINUOUS
10
2.22273
20
0.166987
11
2.22213
21
0.17
0
LINE
8
BLACK
6
CONTINUOUS
10
2.22213
20
0.17
11
2.22213
21
0.23
0
LINE
8
BLACK
6
CONTINUOUS
10
2.22213
20
0.23
11
2.22273
21
0.233013
0
LINE
8
BLACK
6
CONTINUOUS
10
2.22273
20
0.233013
11
2.22443
21
0.235568
0
LINE
8
BLACK
6
CONTINUOUS
10
2.22443
20
0.235568
11
2.22699
21
0.237275
0
LINE
8
BLACK
6
CONTINUOUS
10
2.22699
20
0.237275
11
2.23
21
0.237874
0
LINE
8
BLACK
6
CONTINUOUS
10
2.23
20
0.237874
11
2.29
21
0.237874
0
LINE
8
BLACK
6
CONTINUOUS
10
2.29
20
0.237874
11
2.29301
21
0.237275
0
LINE
8
BLACK
6
CONTINUOUS
10
2.39301
20
0.237275
11
2.39557
21
0.235568
0
LINE
8
BLACK
6
CONTINUOUS
10
2.39557
20
0.235568
11
2.39727
21
0.233013
0
LINE
8
BLACK
6
CONTINUOUS
10
2.39727
20
0.233013
11
2.39787
21
0.23
0
LINE
8
BLACK
6
CONTINUOUS
10
2.39787
20
0.23
11
2.39787
21
0.17
0
LINE
8
BLACK
6
CONTINUOUS
10
2.39787
20
0.17
11
2.39727
21
0.166987
0
LINE
8
BLACK
6
CONTINUOUS
10
2.39727
20
0.166987
11
2.39557
21
0.164432
0
LINE
8
BLACK
6
CONTINUOUS
10
2.39557
20
0.164432
11
2.39301
21
0.162725
0
LINE
8
BLACK
6
CONTINUOUS
10
2.39301
20
0.162725
11
2.39
21
0.162126
0
LINE
8
BLACK
6
CONTINUOUS
10
2.39
20
0.162126
11
2.33
21
0.162126
0
LINE
8
BLACK
6
CONTINUOUS
10
2.33
20
0.162126
11
2.32699
21
0.162725
0
LINE
8
BLACK
6
CONTINUOUS
10
2.32699
20
0.162725
11
2.32443
21
0.164432
0
LINE
8
BLACK
6
CONTINUOUS
10
2.32443
20
0.164432
11
2.32273
21
0.166987
0
LINE
8
BLACK
6
CONTINUOUS
10
2.32273
20
0.166987
11
2.32213
21
0.17
0
LINE
8
BLACK
6
CONTINUOUS
10
2.32213
20
0.17
11
2.32213
21
0.23
0
LINE
8
BLACK
6
CONTINUOUS
10
2.32213
20
0.23
11
2.32273
21
0.233013
0
LINE
8
BLACK
6
CONTINUOUS
10
2.32273
20
0.233013
11
2.32443
21
0.235568
0
LINE
8
BLACK
6
CONTINUOUS
10
2.32443
20
0.235568
11
2.32699
21
0.237275
0
LINE
8
BLACK
6
CONTINUOUS
10
2.32699
20
0.237275
11
2.33
21
0.237874
0
LINE
8
BLACK
6
CONTINUOUS
10
2.33
20
0.237874
11
2.39
21
0.237874
0
LINE
8
BLACK
6
CONTINUOUS
10
2.39
20
0.237874
11
2.39301
21
0.237275
0
LINE
8
BLACK
6
CONTINUOUS
10
2.29301
20
0.337275
11
2.29557
21
0.335568
0
LINE
8
BLACK
6
CONTINUOUS
10
2.29557
20
0.335568
11
2.29727
21
0.333013
0
LINE
8
BLACK
6
CONTINUOUS
10
2.29727
20
0.333013
11
2.29787
21
0.33
0
LINE
8
BLACK
6
CONTINUOUS
10
2.29787
20
0.33
11
2.29787
21
0.27
0
LINE
8
BLACK
6
CONTINUOUS
10
2.29787
20
0.27
11
2.29727
21
0.266987
0
LINE
8
BLACK
6
CONTINUOUS
10
2.29727
20
0.266987
11
2.29557
21
0.264432
0
LINE
8
BLACK
6
CONTINUOUS
10
2.29557
20
0.264432
11
2.29301
21
0.262725
0
LINE
8
BLACK
6
CONTINUOUS
10
2.29301
20
0.262725
11
2.29
21
0.262126
0
LINE
8
BLACK
6
CONTINUOUS
10
2.29
20
0.262126
11
2.23
21
0.262126
0
LINE
8
BLACK
6
CONTINUOUS
10
2.23
20
0.262126
11
2.22699
21
0.262725
0
LINE
8
BLACK
6
CONTINUOUS
10
2.22699
20
0.262725
11
2.22443
21
0.264432
0
LINE
8
BLACK
6
CONTINUOUS
10
2.22443
20
0.264432
11
2.22273
21
0.266987
0
LINE
8
BLACK
6
CONTINUOUS
10
2.22273
20
0.266987
11
2.22213
21
0.27
0
LINE
8
BLACK
6
CONTINUOUS
10
2.22213
20
0.27
11
2.22213
21
0.33
0
LINE
8
BLACK
6
CONTINUOUS
10
2.22213
20
0.33
11
2.22273
21
0.333013
0
LINE
8
BLACK
6
CONTINUOUS
10
2.22273
20
0.333013
11
2.22443
21
0.335568
0
LINE
8
BLACK
6
CONTINUOUS
10
2.22443
20
0.335568
11
2.22699
21
0.337275
0
LINE
8
BLACK
6
CONTINUOUS
10
2.22699
20
0.337275
11
2.23
21
0.337874
0
LINE
8
BLACK
6
CONTINUOUS
10
2.23
20
0.337874
11
2.29
21
0.337874
0
LINE
8
BLACK
6
CONTINUOUS
10
2.29
20
0.337874
11
2.29301
21
0.337275
0
LINE
8
BLACK
6
CONTINUOUS
10
2.39301
20
0.337275
11
2.39557
21
0.335568
0
LINE
8
BLACK
6
CONTINUOUS
10
2.39557
20
0.335568
11
2.39727
21
0.333013
0
LINE
8
BLACK
6
CONTINUOUS
10
2.39727
20
0.333013
11
2.39787
21
0.33
0
LINE
8
BLACK
6
CONTINUOUS
10
2.39787
20
0.33
11
2.39787
21
0.27
0
LINE
8
BLACK
6
CONTINUOUS
10
2.39787
20
0.27
11
2.39727
21
0.266987
0
LINE
8
BLACK
6
CONTINUOUS
10
2.39727
20
0.266987
11
2.39557
21
0.264432
0
LINE
8
BLACK
6
CONTINUOUS
10
2.39557
20
0.264432
11
2.39301
21
0.262725
0
LINE
8
BLACK
6
CONTINUOUS
10
2.39301
20
0.262725
11
2.39
21
0.262126
0
LINE
8
BLACK
6
CONTINUOUS
10
2.39
20
0.262126
11
2.33
21
0.262126
0
LINE
8
BLACK
6
CONTINUOUS
10
2.33
20
0.262126
11
2.32699
21
0.262725
0
LINE
8
BLACK
6
CONTINUOUS
10
2.32699
20
0.262725
11
2.32443
21
0.264432
0
LINE
8
BLACK
6
CONTINUOUS
10
2.32443
20
0.264432
11
2.32273
21
0.266987
0
LINE
8
BLACK
6
CONTINUOUS
10
2.32273
20
0.266987
11
2.32213
21
0.27
0
LINE
8
BLACK
6
CONTINUOUS
10
2.32213
20
0.27
11
2.32213
21
0.33
0
LINE
8
BLACK
6
CONTINUOUS
10
2.32213
20
0.33
11
2.32273
21
0.333013
0
LINE
8
BLACK
6
CONTINUOUS
10
2.32273
20
0.333013
11
2.32443
21
0.335568
0
LINE
8
BLACK
6
CONTINUOUS
10
2.32443
20
0.335568
11
2.32699
21
0.337275
0
LINE
8
BLACK
6
CONTINUOUS
10
2.32699
20
0.337275
11
2.33
21
0.337874
0
LINE
8
BLACK
6
CONTINUOUS
10
2.33
20
0.337874
11
2.39
21
0.337874
0
LINE
8
BLACK
6
CONTINUOUS
10
2.39
20
0.337874
11
2.39301
21
0.337275
0
LINE
8
BLACK
6
CONTINUOUS
10
0.23136
20
0.507275
11
0.233914
21
0.505568
0
LINE
8
BLACK
6
CONTINUOUS
10
0.233914
20
0.505568
11
0.235621
21
0.503013
0
LINE
8
BLACK
6
CONTINUOUS
10
0.235621
20
0.503013
11
0.23622
21
0.5
0
LINE
8
BLACK
6
CONTINUOUS
10
0.23622
20
0.5
11
0.23622
21
0.362205
0
LINE
8
BLACK
6
CONTINUOUS
10
0.23622
20
0.362205
11
0.235621
21
0.359191
0
LINE
8
BLACK
6
CONTINUOUS
10
0.235621
20
0.359191
11
0.233914
21
0.356637
0
LINE
8
BLACK
6
CONTINUOUS
10
0.233914
20
0.356637
11
0.23136
21
0.35493
0
LINE
8
BLACK
6
CONTINUOUS
10
0.23136
20
0.35493
11
0.228346
21
0.354331
0
LINE
8
BLACK
6
CONTINUOUS
10
0.228346
20
0.354331
11
0.0905512
21
0.354331
0
LINE
8
BLACK
6
CONTINUOUS
10
0.0905512
20
0.354331
11
0.0875379
21
0.35493
0
LINE
8
BLACK
6
CONTINUOUS
10
0.0875379
20
0.35493
11
0.0849834
21
0.356637
0
LINE
8
BLACK
6
CONTINUOUS
10
0.0849834
20
0.356637
11
0.0832765
21
0.359191
0
LINE
8
BLACK
6
CONTINUOUS
10
0.0832765
20
0.359191
11
0.0826772
21
0.362205
0
LINE
8
BLACK
6
CONTINUOUS
10
0.0826772
20
0.362205
11
0.0826772
21
0.5
0
LINE
8
BLACK
6
CONTINUOUS
10
0.0826772
20
0.5
11
0.0832765
21
0.503013
0
LINE
8
BLACK
6
CONTINUOUS
10
0.0832765
20
0.503013
11
0.0849834
21
0.505568
0
LINE
8
BLACK
6
CONTINUOUS
10
0.0849834
20
0.505568
11
0.0875379
21
0.507275
0
LINE
8
BLACK
6
CONTINUOUS
10
0.0875379
20
0.507275
11
0.0905512
21
0.507874
0
LINE
8
BLACK
6
CONTINUOUS
10
0.0905512
20
0.507874
11
0.228346
21
0.507874
0
LINE
8
BLACK
6
CONTINUOUS
10
0.228346
20
0.507874
11
0.23136
21
0.507275
0
LINE
8
BLACK
6
CONTINUOUS
10
0.503013
20
0.507275
11
0.505568
21
0.505568
0
LINE
8
BLACK
6
CONTINUOUS
10
0.505568
20
0.505568
11
0.507275
21
0.503013
0
LINE
8
BLACK
6
CONTINUOUS
10
0.507275
20
0.503013
11
0.507874
21
0.5
0
LINE
8
BLACK
6
CONTINUOUS
10
0.507874
20
0.5
11
0.507874
21
0.362205
0
LINE
8
BLACK
6
CONTINUOUS
10
0.507874
20
0.362205
11
0.507275
21
0.359191
0
LINE
8
BLACK
6
CONTINUOUS
10
0.507275
20
0.359191
11
0.505568
21
0.356637
0
LINE
8
BLACK
6
CONTINUOUS
10
0.505568
20
0.356637
11
0.503013
21
0.35493
0
LINE
8
BLACK
6
CONTINUOUS
10
0.503013
20
0.35493
11
0.5
21
0.354331
0
LINE
8
BLACK
6
CONTINUOUS
10
0.5
20
0.354331
11
0.362205
21
0.354331
0
LINE
8
BLACK
6
CONTINUOUS
10
0.362205
20
0.354331
11
0.359191
21
0.35493
0
LINE
8
BLACK
6
CONTINUOUS
10
0.359191
20
0.35493
11
0.356637
21
0.356637
0
LINE
8
BLACK
6
CONTINUOUS
10
0.356637
20
0.356637
11
0.35493
21
0.359191
0
LINE
8
BLACK
6
CONTINUOUS
10
0.35493
20
0.359191
11
0.354331
21
0.362205
0
LINE
8
BLACK
6
CONTINUOUS
10
0.354331
20
0.362205
11
0.354331
21
0.5
0
LINE
8
BLACK
6
CONTINUOUS
10
0.354331
20
0.5
11
0.35493
21
0.503013
0
LINE
8
BLACK
6
CONTINUOUS
10
0.35493
20
0.503013
11
0.356637
21
0.505568
0
LINE
8
BLACK
6
CONTINUOUS
10
0.356637
20
0.505568
11
0.359191
21
0.507275
0
LINE
8
BLACK
6
CONTINUOUS
10
0.359191
20
0.507275
11
0.362205
21
0.507874
0
LINE
8
BLACK
6
CONTINUOUS
10
0.362205
20
0.507874
11
0.5
21
0.507874
0
LINE
8
BLACK
6
CONTINUOUS
10
0.5
20
0.507874
11
0.503013
21
0.507275
0
LINE
8
BLACK
6
CONTINUOUS
10
2.29301
20
0.437275
11
2.29557
21
0.435568
0
LINE
8
BLACK
6
CONTINUOUS
10
2.29557
20
0.435568
11
2.29727
21
0.433013
0
LINE
8
BLACK
6
CONTINUOUS
10
2.29727
20
0.433013
11
2.29787
21
0.43
0
LINE
8
BLACK
6
CONTINUOUS
10
2.29787
20
0.43
11
2.29787
21
0.37
0
LINE
8
BLACK
6
CONTINUOUS
10
2.29787
20
0.37
11
2.29727
21
0.366987
0
LINE
8
BLACK
6
CONTINUOUS
10
2.29727
20
0.366987
11
2.29557
21
0.364432
0
LINE
8
BLACK
6
CONTINUOUS
10
2.29557
20
0.364432
11
2.29301
21
0.362725
0
LINE
8
BLACK
6
CONTINUOUS
10
2.29301
20
0.362725
11
2.29
21
0.362126
0
LINE
8
BLACK
6
CONTINUOUS
10
2.29
20
0.362126
11
2.23
21
0.362126
0
LINE
8
BLACK
6
CONTINUOUS
10
2.23
20
0.362126
11
2.22699
21
0.362725
0
LINE
8
BLACK
6
CONTINUOUS
10
2.22699
20
0.362725
11
2.22443
21
0.364432
0
LINE
8
BLACK
6
CONTINUOUS
10
2.22443
20
0.364432
11
2.22273
21
0.366987
0
LINE
8
BLACK
6
CONTINUOUS
10
2.22273
20
0.366987
11
2.22213
21
0.37
0
LINE
8
BLACK
6
CONTINUOUS
10
2.22213
20
0.37
11
2.22213
21
0.43
0
LINE
8
BLACK
6
CONTINUOUS
10
2.22213
20
0.43
11
2.22273
21
0.433013
0
LINE
8
BLACK
6
CONTINUOUS
10
2.22273
20
0.433013
11
2.22443
21
0.435568
0
LINE
8
BLACK
6
CONTINUOUS
10
2.22443
20
0.435568
11
2.22699
21
0.437275
0
LINE
8
BLACK
6
CONTINUOUS
10
2.22699
20
0.437275
11
2.23
21
0.437874
0
LINE
8
BLACK
6
CONTINUOUS
10
2.23
20
0.437874
11
2.29
21
0.437874
0
LINE
8
BLACK
6
CONTINUOUS
10
2.29
20
0.437874
11
2.29301
21
0.437275
0
LINE
8
BLACK
6
CONTINUOUS
10
2.39301
20
0.437275
11
2.39557
21
0.435568
0
LINE
8
BLACK
6
CONTINUOUS
10
2.39557
20
0.435568
11
2.39727
21
0.433013
0
LINE
8
BLACK
6
CONTINUOUS
10
2.39727
20
0.433013
11
2.39787
21
0.43
0
LINE
8
BLACK
6
CONTINUOUS
10
2.39787
20
0.43
11
2.39787
21
0.37
0
LINE
8
BLACK
6
CONTINUOUS
10
2.39787
20
0.37
11
2.39727
21
0.366987
0
LINE
8
BLACK
6
CONTINUOUS
10
2.39727
20
0.366987
11
2.39557
21
0.364432
0
LINE
8
BLACK
6
CONTINUOUS
10
2.39557
20
0.364432
11
2.39301
21
0.362725
0
LINE
8
BLACK
6
CONTINUOUS
10
2.39301
20
0.362725
11
2.39
21
0.362126
0
LINE
8
BLACK
6
CONTINUOUS
10
2.39
20
0.362126
11
2.33
21
0.362126
0
LINE
8
BLACK
6
CONTINUOUS
10
2.33
20
0.362126
11
2.32699
21
0.362725
0
LINE
8
BLACK
6
CONTINUOUS
10
2.32699
20
0.362725
11
2.32443
21
0.364432
0
LINE
8
BLACK
6
CONTINUOUS
10
2.32443
20
0.364432
11
2.32273
21
0.366987
0
LINE
8
BLACK
6
CONTINUOUS
10
2.32273
20
0.366987
11
2.32213
21
0.37
0
LINE
8
BLACK
6
CONTINUOUS
10
2.32213
20
0.37
11
2.32213
21
0.43
0
LINE
8
BLACK
6
CONTINUOUS
10
2.32213
20
0.43
11
2.32273
21
0.433013
0
LINE
8
BLACK
6
CONTINUOUS
10
2.32273
20
0.433013
11
2.32443
21
0.435568
0
LINE
8
BLACK
6
CONTINUOUS
10
2.32443
20
0.435568
11
2.32699
21
0.437275
0
LINE
8
BLACK
6
CONTINUOUS
10
2.32699
20
0.437275
11
2.33
21
0.437874
0
LINE
8
BLACK
6
CONTINUOUS
10
2.33
20
0.437874
11
2.39
21
0.437874
0
LINE
8
BLACK
6
CONTINUOUS
10
2.39
20
0.437874
11
2.39301
21
0.437275
0
LINE
8
BLACK
6
CONTINUOUS
10
2.39301
20
0.537275
11
2.39557
21
0.535568
0
LINE
8
BLACK
6
CONTINUOUS
10
2.39557
20
0.535568
11
2.39727
21
0.533013
0
LINE
8
BLACK
6
CONTINUOUS
10
2.39727
20
0.533013
11
2.39787
21
0.53
0
LINE
8
BLACK
6
CONTINUOUS
10
2.39787
20
0.53
11
2.39787
21
0.47
0
LINE
8
BLACK
6
CONTINUOUS
10
2.39787
20
0.47
11
2.39727
21
0.466987
0
LINE
8
BLACK
6
CONTINUOUS
10
2.39727
20
0.466987
11
2.39557
21
0.464432
0
LINE
8
BLACK
6
CONTINUOUS
10
2.39557
20
0.464432
11
2.39301
21
0.462725
0
LINE
8
BLACK
6
CONTINUOUS
10
2.39301
20
0.462725
11
2.39
21
0.462126
0
LINE
8
BLACK
6
CONTINUOUS
10
2.39
20
0.462126
11
2.33
21
0.462126
0
LINE
8
BLACK
6
CONTINUOUS
10
2.33
20
0.462126
11
2.32699
21
0.462725
0
LINE
8
BLACK
6
CONTINUOUS
10
2.32699
20
0.462725
11
2.32443
21
0.464432
0
LINE
8
BLACK
6
CONTINUOUS
10
2.32443
20
0.464432
11
2.32273
21
0.466987
0
LINE
8
BLACK
6
CONTINUOUS
10
2.32273
20
0.466987
11
2.32213
21
0.47
0
LINE
8
BLACK
6
CONTINUOUS
10
2.32213
20
0.47
11
2.32213
21
0.53
0
LINE
8
BLACK
6
CONTINUOUS
10
2.32213
20
0.53
11
2.32273
21
0.533013
0
LINE
8
BLACK
6
CONTINUOUS
10
2.32273
20
0.533013
11
2.32443
21
0.535568
0
LINE
8
BLACK
6
CONTINUOUS
10
2.32443
20
0.535568
11
2.32699
21
0.537275
0
LINE
8
BLACK
6
CONTINUOUS
10
2.32699
20
0.537275
11
2.33
21
0.537874
0
LINE
8
BLACK
6
CONTINUOUS
10
2.33
20
0.537874
11
2.39
21
0.537874
0
LINE
8
BLACK
6
CONTINUOUS
10
2.39
20
0.537874
11
2.39301
21
0.537275
0
LINE
8
BLACK
6
CONTINUOUS
10
2.29301
20
0.537275
11
2.29557
21
0.535568
0
LINE
8
BLACK
6
CONTINUOUS
10
2.29557
20
0.535568
11
2.29727
21
0.533013
0
LINE
8
BLACK
6
CONTINUOUS
10
2.29727
20
0.533013
11
2.29787
21
0.53
0
LINE
8
BLACK
6
CONTINUOUS
10
2.29787
20
0.53
11
2.29787
21
0.47
0
LINE
8
BLACK
6
CONTINUOUS
10
2.29787
20
0.47
11
2.29727
21
0.466987
0
LINE
8
BLACK
6
CONTINUOUS
10
2.29727
20
0.466987
11
2.29557
21
0.464432
0
LINE
8
BLACK
6
CONTINUOUS
10
2.29557
20
0.464432
11
2.29301
21
0.462725
0
LINE
8
BLACK
6
CONTINUOUS
10
2.29301
20
0.462725
11
2.29
21
0.462126
0
LINE
8
BLACK
6
CONTINUOUS
10
2.29
20
0.462126
11
2.23
21
0.462126
0
LINE
8
BLACK
6
CONTINUOUS
10
2.23
20
0.462126
11
2.22699
21
0.462725
0
LINE
8
BLACK
6
CONTINUOUS
10
2.22699
20
0.462725
11
2.22443
21
0.464432
0
LINE
8
BLACK
6
CONTINUOUS
10
2.22443
20
0.464432
11
2.22273
21
0.466987
0
LINE
8
BLACK
6
CONTINUOUS
10
2.22273
20
0.466987
11
2.22213
21
0.47
0
LINE
8
BLACK
6
CONTINUOUS
10
2.22213
20
0.47
11
2.22213
21
0.53
0
LINE
8
BLACK
6
CONTINUOUS
10
2.22213
20
0.53
11
2.22273
21
0.533013
0
LINE
8
BLACK
6
CONTINUOUS
10
2.22273
20
0.533013
11
2.22443
21
0.535568
0
LINE
8
BLACK
6
CONTINUOUS
10
2.22443
20
0.535568
11
2.22699
21
0.537275
0
LINE
8
BLACK
6
CONTINUOUS
10
2.22699
20
0.537275
11
2.23
21
0.537874
0
LINE
8
BLACK
6
CONTINUOUS
10
2.23
20
0.537874
11
2.29
21
0.537874
0
LINE
8
BLACK
6
CONTINUOUS
10
2.29
20
0.537874
11
2.29301
21
0.537275
0
LINE
8
BLACK
6
CONTINUOUS
10
-0.0835081
20
2.29045
11
-0.0696566
21
2.28801
0
LINE
8
BLACK
6
CONTINUOUS
10
-0.0696566
20
2.28801
11
-0.0561636
21
2.28404
0
LINE
8
BLACK
6
CONTINUOUS
10
-0.0561636
20
2.28404
11
-0.0431973
21
2.27859
0
LINE
8
BLACK
6
CONTINUOUS
10
-0.0431973
20
2.27859
11
-0.0309194
21
2.27173
0
LINE
8
BLACK
6
CONTINUOUS
10
-0.0309194
20
2.27173
11
-0.019483
21
2.26354
0
LINE
8
BLACK
6
CONTINUOUS
10
-0.019483
20
2.26354
11
-0.00903047
21
2.25413
0
LINE
8
BLACK
6
CONTINUOUS
10
-0.00903047
20
2.25413
11
0.000307835
21
2.24361
0
LINE
8
BLACK
6
CONTINUOUS
10
0.000307835
20
2.24361
11
0.00841551
21
2.23212
0
LINE
8
BLACK
6
CONTINUOUS
10
0.00841551
20
2.23212
11
0.0151915
21
2.21979
0
LINE
8
BLACK
6
CONTINUOUS
10
0.0151915
20
2.21979
11
0.0205513
21
2.20679
0
LINE
8
BLACK
6
CONTINUOUS
10
0.0205513
20
2.20679
11
0.0244283
21
2.19327
0
LINE
8
BLACK
6
CONTINUOUS
10
0.0244283
20
2.19327
11
0.0267739
21
2.1794
0
LINE
8
BLACK
6
CONTINUOUS
10
0.0267739
20
2.1794
11
0.0275591
21
2.16535
0
LINE
8
BLACK
6
CONTINUOUS
10
0.0275591
20
2.16535
11
0.0275099
21
2.16184
0
LINE
8
BLACK
6
CONTINUOUS
10
0.0275099
20
2.16184
11
0.026333
21
2.14782
0
LINE
8
BLACK
6
CONTINUOUS
10
0.026333
20
2.14782
11
0.023601
21
2.13402
0
LINE
8
BLACK
6
CONTINUOUS
10
0.023601
20
2.13402
11
0.0193481
21
2.12062
0
LINE
8
BLACK
6
CONTINUOUS
10
0.0193481
20
2.12062
11
0.0136272
21
2.10777
0
LINE
8
BLACK
6
CONTINUOUS
10
0.0136272
20
2.10777
11
0.00650976
21
2.09564
0
LINE
8
BLACK
6
CONTINUOUS
10
0.00650976
20
2.09564
11
-0.00191567
21
2.08437
0
LINE
8
BLACK
6
CONTINUOUS
10
-0.00191567
20
2.08437
11
-0.011544
21
2.07412
0
LINE
8
BLACK
6
CONTINUOUS
10
-0.011544
20
2.07412
11
-0.0222552
21
2.065
0
LINE
8
BLACK
6
CONTINUOUS
10
-0.0222552
20
2.065
11
-0.0339159
21
2.05714
0
LINE
8
BLACK
6
CONTINUOUS
10
-0.0339159
20
2.05714
11
-0.0463806
21
2.05062
0
LINE
8
BLACK
6
CONTINUOUS
10
-0.0463806
20
2.05062
11
-0.0594939
21
2.04554
0
LINE
8
BLACK
6
CONTINUOUS
10
-0.0594939
20
2.04554
11
-0.0730926
21
2.04194
0
LINE
8
BLACK
6
CONTINUOUS
10
-0.0730926
20
2.04194
11
-0.0870069
21
2.03989
0
LINE
8
BLACK
6
CONTINUOUS
10
-0.0870069
20
2.03989
11
-0.101064
21
2.0394
0
LINE
8
BLACK
6
CONTINUOUS
10
-0.101064
20
2.0394
11
-0.115087
21
2.04048
0
LINE
8
BLACK
6
CONTINUOUS
10
-0.115087
20
2.04048
11
-0.128904
21
2.04311
0
LINE
8
BLACK
6
CONTINUOUS
10
-0.128904
20
2.04311
11
-0.14234
21
2.04727
0
LINE
8
BLACK
6
CONTINUOUS
10
-0.14234
20
2.04727
11
-0.155229
21
2.0529
0
LINE
8
BLACK
6
CONTINUOUS
10
-0.155229
20
2.0529
11
-0.16741
21
2.05994
0
LINE
8
BLACK
6
CONTINUOUS
10
-0.16741
20
2.05994
11
-0.178731
21
2.06828
0
LINE
8
BLACK
6
CONTINUOUS
10
-0.178731
20
2.06828
11
-0.189051
21
2.07784
0
LINE
8
BLACK
6
CONTINUOUS
10
-0.189051
20
2.07784
11
-0.198241
21
2.08849
0
LINE
8
BLACK
6
CONTINUOUS
10
-0.198241
20
2.08849
11
-0.206188
21
2.10009
0
LINE
8
BLACK
6
CONTINUOUS
10
-0.206188
20
2.10009
11
-0.212791
21
2.11251
0
LINE
8
BLACK
6
CONTINUOUS
10
-0.212791
20
2.11251
11
-0.217969
21
2.12559
0
LINE
8
BLACK
6
CONTINUOUS
10
-0.217969
20
2.12559
11
-0.221656
21
2.13916
0
LINE
8
BLACK
6
CONTINUOUS
10
-0.221656
20
2.13916
11
-0.223808
21
2.15306
0
LINE
8
BLACK
6
CONTINUOUS
10
-0.223808
20
2.15306
11
-0.224397
21
2.16711
0
LINE
8
BLACK
6
CONTINUOUS
10
-0.224397
20
2.16711
11
-0.223416
21
2.18114
0
LINE
8
BLACK
6
CONTINUOUS
10
-0.223416
20
2.18114
11
-0.220877
21
2.19498
0
LINE
8
BLACK
6
CONTINUOUS
10
-0.220877
20
2.19498
11
-0.216812
21
2.20844
0
LINE
8
BLACK
6
CONTINUOUS
10
-0.216812
20
2.20844
11
-0.211271
21
2.22137
0
LINE
8
BLACK
6
CONTINUOUS
10
-0.211271
20
2.22137
11
-0.204323
21
2.2336
0
LINE
8
BLACK
6
CONTINUOUS
10
-0.204323
20
2.2336
11
-0.196056
21
2.24498
0
LINE
8
BLACK
6
CONTINUOUS
10
-0.196056
20
2.24498
11
-0.186572
21
2.25537
0
LINE
8
BLACK
6
CONTINUOUS
10
-0.186572
20
2.25537
11
-0.175989
21
2.26463
0
LINE
8
BLACK
6
CONTINUOUS
10
-0.175989
20
2.26463
11
-0.164439
21
2.27266
0
LINE
8
BLACK
6
CONTINUOUS
10
-0.164439
20
2.27266
11
-0.152067
21
2.27935
0
LINE
8
BLACK
6
CONTINUOUS
10
-0.152067
20
2.27935
11
-0.139026
21
2.28462
0
LINE
8
BLACK
6
CONTINUOUS
10
-0.139026
20
2.28462
11
-0.125478
21
2.2884
0
LINE
8
BLACK
6
CONTINUOUS
10
-0.125478
20
2.2884
11
-0.111594
21
2.29065
0
LINE
8
BLACK
6
CONTINUOUS
10
-0.111594
20
2.29065
11
-0.0975457
21
2.29134
0
LINE
8
BLACK
6
CONTINUOUS
10
-0.0975457
20
2.29134
11
-0.0835081
21
2.29045
0
LINE
8
BLACK
6
CONTINUOUS
10
2.47555
20
2.4873
11
2.4894
21
2.48486
0
LINE
8
BLACK
6
CONTINUOUS
10
2.4894
20
2.48486
11
2.50289
21
2.48089
0
LINE
8
BLACK
6
CONTINUOUS
10
2.50289
20
2.48089
11
2.51586
21
2.47544
0
LINE
8
BLACK
6
CONTINUOUS
10
2.51586
20
2.47544
11
2.52814
21
2.46858
0
LINE
8
BLACK
6
CONTINUOUS
10
2.52814
20
2.46858
11
2.53957
21
2.46039
0
LINE
8
BLACK
6
CONTINUOUS
10
2.53957
20
2.46039
11
2.55002
21
2.45098
0
LINE
8
BLACK
6
CONTINUOUS
10
2.55002
20
2.45098
11
2.55936
21
2.44046
0
LINE
8
BLACK
6
CONTINUOUS
10
2.55936
20
2.44046
11
2.56747
21
2.42897
0
LINE
8
BLACK
6
CONTINUOUS
10
2.56747
20
2.42897
11
2.57425
21
2.41664
0
LINE
8
BLACK
6
CONTINUOUS
10
2.57425
20
2.41664
11
2.57961
21
2.40364
0
LINE
8
BLACK
6
CONTINUOUS
10
2.57961
20
2.40364
11
2.58348
21
2.39012
0
LINE
8
BLACK
6
CONTINUOUS
10
2.58348
20
2.39012
11
2.58583
21
2.37625
0
LINE
8
BLACK
6
CONTINUOUS
10
2.58583
20
2.37625
11
2.58661
21
2.3622
0
LINE
8
BLACK
6
CONTINUOUS
10
2.58661
20
2.3622
11
2.58657
21
2.35869
0
LINE
8
BLACK
6
CONTINUOUS
10
2.58657
20
2.35869
11
2.58539
21
2.34467
0
LINE
8
BLACK
6
CONTINUOUS
10
2.58539
20
2.34467
11
2.58266
21
2.33087
0
LINE
8
BLACK
6
CONTINUOUS
10
2.58266
20
2.33087
11
2.5784
21
2.31747
0
LINE
8
BLACK
6
CONTINUOUS
10
2.5784
20
2.31747
11
2.57268
21
2.30462
0
LINE
8
BLACK
6
CONTINUOUS
10
2.57268
20
2.30462
11
2.56556
21
2.29249
0
LINE
8
BLACK
6
CONTINUOUS
10
2.56556
20
2.29249
11
2.55714
21
2.28122
0
LINE
8
BLACK
6
CONTINUOUS
10
2.55714
20
2.28122
11
2.54751
21
2.27097
0
LINE
8
BLACK
6
CONTINUOUS
10
2.54751
20
2.27097
11
2.5368
21
2.26185
0
LINE
8
BLACK
6
CONTINUOUS
10
2.5368
20
2.26185
11
2.52514
21
2.25399
0
LINE
8
BLACK
6
CONTINUOUS
10
2.52514
20
2.25399
11
2.51267
21
2.24747
0
LINE
8
BLACK
6
CONTINUOUS
10
2.51267
20
2.24747
11
2.49956
21
2.24239
0
LINE
8
BLACK
6
CONTINUOUS
10
2.49956
20
2.24239
11
2.48596
21
2.23879
0
LINE
8
BLACK
6
CONTINUOUS
10
2.48596
20
2.23879
11
2.47205
21
2.23674
0
LINE
8
BLACK
6
CONTINUOUS
10
2.47205
20
2.23674
11
2.45799
21
2.23625
0
LINE
8
BLACK
6
CONTINUOUS
10
2.45799
20
2.23625
11
2.44397
21
2.23733
0
LINE
8
BLACK
6
CONTINUOUS
10
2.44397
20
2.23733
11
2.43015
21
2.23996
0
LINE
8
BLACK
6
CONTINUOUS
10
2.43015
20
2.23996
11
2.41672
21
2.24412
0
LINE
8
BLACK
6
CONTINUOUS
10
2.41672
20
2.24412
11
2.40383
21
2.24975
0
LINE
8
BLACK
6
CONTINUOUS
10
2.40383
20
2.24975
11
2.39165
21
2.25679
0
LINE
8
BLACK
6
CONTINUOUS
10
2.39165
20
2.25679
11
2.38032
21
2.26513
0
LINE
8
BLACK
6
CONTINUOUS
10
2.38032
20
2.26513
11
2.37
21
2.27469
0
LINE
8
BLACK
6
CONTINUOUS
10
2.37
20
2.27469
11
2.36081
21
2.28534
0
LINE
8
BLACK
6
CONTINUOUS
10
2.36081
20
2.28534
11
2.35287
21
2.29694
0
LINE
8
BLACK
6
CONTINUOUS
10
2.35287
20
2.29694
11
2.34626
21
2.30936
0
LINE
8
BLACK
6
CONTINUOUS
10
2.34626
20
2.30936
11
2.34109
21
2.32244
0
LINE
8
BLACK
6
CONTINUOUS
10
2.34109
20
2.32244
11
2.3374
21
2.33601
0
LINE
8
BLACK
6
CONTINUOUS
10
2.3374
20
2.33601
11
2.33525
21
2.34991
0
LINE
8
BLACK
6
CONTINUOUS
10
2.33525
20
2.34991
11
2.33466
21
2.36396
0
LINE
8
BLACK
6
CONTINUOUS
10
2.33466
20
2.36396
11
2.33564
21
2.37799
0
LINE
8
BLACK
6
CONTINUOUS
10
2.33564
20
2.37799
11
2.33818
21
2.39183
0
LINE
8
BLACK
6
CONTINUOUS
10
2.33818
20
2.39183
11
2.34224
21
2.40529
0
LINE
8
BLACK
6
CONTINUOUS
10
2.34224
20
2.40529
11
2.34778
21
2.41822
0
LINE
8
BLACK
6
CONTINUOUS
10
2.34778
20
2.41822
11
2.35473
21
2.43045
0
LINE
8
BLACK
6
CONTINUOUS
10
2.35473
20
2.43045
11
2.363
21
2.44183
0
LINE
8
BLACK
6
CONTINUOUS
10
2.363
20
2.44183
11
2.37248
21
2.45222
0
LINE
8
BLACK
6
CONTINUOUS
10
2.37248
20
2.45222
11
2.38307
21
2.46148
0
LINE
8
BLACK
6
CONTINUOUS
10
2.38307
20
2.46148
11
2.39462
21
2.46951
0
LINE
8
BLACK
6
CONTINUOUS
10
2.39462
20
2.46951
11
2.40699
21
2.4762
0
LINE
8
BLACK
6
CONTINUOUS
10
2.40699
20
2.4762
11
2.42003
21
2.48147
0
LINE
8
BLACK
6
CONTINUOUS
10
2.42003
20
2.48147
11
2.43358
21
2.48525
0
LINE
8
BLACK
6
CONTINUOUS
10
2.43358
20
2.48525
11
2.44746
21
2.4875
0
LINE
8
BLACK
6
CONTINUOUS
10
2.44746
20
2.4875
11
2.46151
21
2.48819
0
LINE
8
BLACK
6
CONTINUOUS
10
2.46151
20
2.48819
11
2.47555
21
2.4873
0
LINE
8
BLACK
6
CONTINUOUS
10
1.58972
20
2.68415
11
1.60357
21
2.68171
0
LINE
8
BLACK
6
CONTINUOUS
10
1.60357
20
2.68171
11
1.61706
21
2.67774
0
LINE
8
BLACK
6
CONTINUOUS
10
1.61706
20
2.67774
11
1.63003
21
2.67229
0
LINE
8
BLACK
6
CONTINUOUS
10
1.63003
20
2.67229
11
1.64231
21
2.66543
0
LINE
8
BLACK
6
CONTINUOUS
10
1.64231
20
2.66543
11
1.65375
21
2.65724
0
LINE
8
BLACK
6
CONTINUOUS
10
1.65375
20
2.65724
11
1.6642
21
2.64783
0
LINE
8
BLACK
6
CONTINUOUS
10
1.6642
20
2.64783
11
1.67354
21
2.63731
0
LINE
8
BLACK
6
CONTINUOUS
10
1.67354
20
2.63731
11
1.68164
21
2.62582
0
LINE
8
BLACK
6
CONTINUOUS
10
1.68164
20
2.62582
11
1.68842
21
2.61349
0
LINE
8
BLACK
6
CONTINUOUS
10
1.68842
20
2.61349
11
1.69378
21
2.60049
0
LINE
8
BLACK
6
CONTINUOUS
10
1.69378
20
2.60049
11
1.69766
21
2.58697
0
LINE
8
BLACK
6
CONTINUOUS
10
1.69766
20
2.58697
11
1.7
21
2.5731
0
LINE
8
BLACK
6
CONTINUOUS
10
1.7
20
2.5731
11
1.70079
21
2.55906
0
LINE
8
BLACK
6
CONTINUOUS
10
1.70079
20
2.55906
11
1.70074
21
2.55554
0
LINE
8
BLACK
6
CONTINUOUS
10
1.70074
20
2.55554
11
1.69956
21
2.54152
0
LINE
8
BLACK
6
CONTINUOUS
10
1.69956
20
2.54152
11
1.69683
21
2.52772
0
LINE
8
BLACK
6
CONTINUOUS
10
1.69683
20
2.52772
11
1.69258
21
2.51432
0
LINE
8
BLACK
6
CONTINUOUS
10
1.69258
20
2.51432
11
1.68686
21
2.50147
0
LINE
8
BLACK
6
CONTINUOUS
10
1.68686
20
2.50147
11
1.67974
21
2.48934
0
LINE
8
BLACK
6
CONTINUOUS
10
1.67974
20
2.48934
11
1.67131
21
2.47807
0
LINE
8
BLACK
6
CONTINUOUS
10
1.67131
20
2.47807
11
1.66168
21
2.46782
0
LINE
8
BLACK
6
CONTINUOUS
10
1.66168
20
2.46782
11
1.65097
21
2.4587
0
LINE
8
BLACK
6
CONTINUOUS
10
1.65097
20
2.4587
11
1.63931
21
2.45084
0
LINE
8
BLACK
6
CONTINUOUS
10
1.63931
20
2.45084
11
1.62685
21
2.44432
0
LINE
8
BLACK
6
CONTINUOUS
10
1.62685
20
2.44432
11
1.61373
21
2.43924
0
LINE
8
BLACK
6
CONTINUOUS
10
1.61373
20
2.43924
11
1.60014
21
2.43564
0
LINE
8
BLACK
6
CONTINUOUS
10
1.60014
20
2.43564
11
1.58622
21
2.43359
0
LINE
8
BLACK
6
CONTINUOUS
10
1.58622
20
2.43359
11
1.57216
21
2.4331
0
LINE
8
BLACK
6
CONTINUOUS
10
1.57216
20
2.4331
11
1.55814
21
2.43418
0
LINE
8
BLACK
6
CONTINUOUS
10
1.55814
20
2.43418
11
1.54432
21
2.43681
0
LINE
8
BLACK
6
CONTINUOUS
10
1.54432
20
2.43681
11
1.53089
21
2.44097
0
LINE
8
BLACK
6
CONTINUOUS
10
1.53089
20
2.44097
11
1.518
21
2.4466
0
LINE
8
BLACK
6
CONTINUOUS
10
1.518
20
2.4466
11
1.50582
21
2.45364
0
LINE
8
BLACK
6
CONTINUOUS
10
1.50582
20
2.45364
11
1.4945
21
2.46198
0
LINE
8
BLACK
6
CONTINUOUS
10
1.4945
20
2.46198
11
1.48418
21
2.47154
0
LINE
8
BLACK
6
CONTINUOUS
10
1.48418
20
2.47154
11
1.47499
21
2.48219
0
LINE
8
BLACK
6
CONTINUOUS
10
1.47499
20
2.48219
11
1.46704
21
2.49379
0
LINE
8
BLACK
6
CONTINUOUS
10
1.46704
20
2.49379
11
1.46044
21
2.50621
0
LINE
8
BLACK
6
CONTINUOUS
10
1.46044
20
2.50621
11
1.45526
21
2.51929
0
LINE
8
BLACK
6
CONTINUOUS
10
1.45526
20
2.51929
11
1.45157
21
2.53286
0
LINE
8
BLACK
6
CONTINUOUS
10
1.45157
20
2.53286
11
1.44942
21
2.54676
0
LINE
8
BLACK
6
CONTINUOUS
10
1.44942
20
2.54676
11
1.44883
21
2.56081
0
LINE
8
BLACK
6
CONTINUOUS
10
1.44883
20
2.56081
11
1.44981
21
2.57485
0
LINE
8
BLACK
6
CONTINUOUS
10
1.44981
20
2.57485
11
1.45235
21
2.58868
0
LINE
8
BLACK
6
CONTINUOUS
10
1.45235
20
2.58868
11
1.45642
21
2.60214
0
LINE
8
BLACK
6
CONTINUOUS
10
1.45642
20
2.60214
11
1.46196
21
2.61507
0
LINE
8
BLACK
6
CONTINUOUS
10
1.46196
20
2.61507
11
1.4689
21
2.6273
0
LINE
8
BLACK
6
CONTINUOUS
10
1.4689
20
2.6273
11
1.47717
21
2.63868
0
LINE
8
BLACK
6
CONTINUOUS
10
1.47717
20
2.63868
11
1.48666
21
2.64907
0
LINE
8
BLACK
6
CONTINUOUS
10
1.48666
20
2.64907
11
1.49724
21
2.65833
0
LINE
8
BLACK
6
CONTINUOUS
10
1.49724
20
2.65833
11
1.50879
21
2.66636
0
LINE
8
BLACK
6
CONTINUOUS
10
1.50879
20
2.66636
11
1.52116
21
2.67305
0
LINE
8
BLACK
6
CONTINUOUS
10
1.52116
20
2.67305
11
1.5342
21
2.67832
0
LINE
8
BLACK
6
CONTINUOUS
10
1.5342
20
2.67832
11
1.54775
21
2.6821
0
LINE
8
BLACK
6
CONTINUOUS
10
1.54775
20
2.6821
11
1.56163
21
2.68435
0
LINE
8
BLACK
6
CONTINUOUS
10
1.56163
20
2.68435
11
1.57568
21
2.68504
0
LINE
8
BLACK
6
CONTINUOUS
10
1.57568
20
2.68504
11
1.58972
21
2.68415
0
LINE
8
BLACK
6
CONTINUOUS
10
2.37712
20
2.78258
11
2.39097
21
2.78014
0
LINE
8
BLACK
6
CONTINUOUS
10
2.39097
20
2.78014
11
2.40447
21
2.77616
0
LINE
8
BLACK
6
CONTINUOUS
10
2.40447
20
2.77616
11
2.41743
21
2.77071
0
LINE
8
BLACK
6
CONTINUOUS
10
2.41743
20
2.77071
11
2.42971
21
2.76385
0
LINE
8
BLACK
6
CONTINUOUS
10
2.42971
20
2.76385
11
2.44115
21
2.75566
0
LINE
8
BLACK
6
CONTINUOUS
10
2.44115
20
2.75566
11
2.4516
21
2.74625
0
LINE
8
BLACK
6
CONTINUOUS
10
2.4516
20
2.74625
11
2.46094
21
2.73574
0
LINE
8
BLACK
6
CONTINUOUS
10
2.46094
20
2.73574
11
2.46905
21
2.72424
0
LINE
8
BLACK
6
CONTINUOUS
10
2.46905
20
2.72424
11
2.47582
21
2.71192
0
LINE
8
BLACK
6
CONTINUOUS
10
2.47582
20
2.71192
11
2.48118
21
2.69891
0
LINE
8
BLACK
6
CONTINUOUS
10
2.48118
20
2.69891
11
2.48506
21
2.68539
0
LINE
8
BLACK
6
CONTINUOUS
10
2.48506
20
2.68539
11
2.4874
21
2.67152
0
LINE
8
BLACK
6
CONTINUOUS
10
2.4874
20
2.67152
11
2.48819
21
2.65748
0
LINE
8
BLACK
6
CONTINUOUS
10
2.48819
20
2.65748
11
2.48814
21
2.65396
0
LINE
8
BLACK
6
CONTINUOUS
10
2.48814
20
2.65396
11
2.48696
21
2.63995
0
LINE
8
BLACK
6
CONTINUOUS
10
2.48696
20
2.63995
11
2.48423
21
2.62615
0
LINE
8
BLACK
6
CONTINUOUS
10
2.48423
20
2.62615
11
2.47998
21
2.61274
0
LINE
8
BLACK
6
CONTINUOUS
10
2.47998
20
2.61274
11
2.47426
21
2.59989
0
LINE
8
BLACK
6
CONTINUOUS
10
2.47426
20
2.59989
11
2.46714
21
2.58776
0
LINE
8
BLACK
6
CONTINUOUS
10
2.46714
20
2.58776
11
2.45871
21
2.5765
0
LINE
8
BLACK
6
CONTINUOUS
10
2.45871
20
2.5765
11
2.44909
21
2.56625
0
LINE
8
BLACK
6
CONTINUOUS
10
2.44909
20
2.56625
11
2.43837
21
2.55713
0
LINE
8
BLACK
6
CONTINUOUS
10
2.43837
20
2.55713
11
2.42671
21
2.54926
0
LINE
8
BLACK
6
CONTINUOUS
10
2.42671
20
2.54926
11
2.41425
21
2.54275
0
LINE
8
BLACK
6
CONTINUOUS
10
2.41425
20
2.54275
11
2.40114
21
2.53766
0
LINE
8
BLACK
6
CONTINUOUS
10
2.40114
20
2.53766
11
2.38754
21
2.53407
0
LINE
8
BLACK
6
CONTINUOUS
10
2.38754
20
2.53407
11
2.37362
21
2.53201
0
LINE
8
BLACK
6
CONTINUOUS
10
2.37362
20
2.53201
11
2.35957
21
2.53152
0
LINE
8
BLACK
6
CONTINUOUS
10
2.35957
20
2.53152
11
2.34554
21
2.5326
0
LINE
8
BLACK
6
CONTINUOUS
10
2.34554
20
2.5326
11
2.33173
21
2.53524
0
LINE
8
BLACK
6
CONTINUOUS
10
2.33173
20
2.53524
11
2.31829
21
2.5394
0
LINE
8
BLACK
6
CONTINUOUS
10
2.31829
20
2.5394
11
2.3054
21
2.54503
0
LINE
8
BLACK
6
CONTINUOUS
10
2.3054
20
2.54503
11
2.29322
21
2.55206
0
LINE
8
BLACK
6
CONTINUOUS
10
2.29322
20
2.55206
11
2.2819
21
2.56041
0
LINE
8
BLACK
6
CONTINUOUS
10
2.2819
20
2.56041
11
2.27158
21
2.56996
0
LINE
8
BLACK
6
CONTINUOUS
10
2.27158
20
2.56996
11
2.26239
21
2.58061
0
LINE
8
BLACK
6
CONTINUOUS
10
2.26239
20
2.58061
11
2.25444
21
2.59222
0
LINE
8
BLACK
6
CONTINUOUS
10
2.25444
20
2.59222
11
2.24784
21
2.60464
0
LINE
8
BLACK
6
CONTINUOUS
10
2.24784
20
2.60464
11
2.24266
21
2.61771
0
LINE
8
BLACK
6
CONTINUOUS
10
2.24266
20
2.61771
11
2.23897
21
2.63129
0
LINE
8
BLACK
6
CONTINUOUS
10
2.23897
20
2.63129
11
2.23682
21
2.64519
0
LINE
8
BLACK
6
CONTINUOUS
10
2.23682
20
2.64519
11
2.23623
21
2.65924
0
LINE
8
BLACK
6
CONTINUOUS
10
2.23623
20
2.65924
11
2.23721
21
2.67327
0
LINE
8
BLACK
6
CONTINUOUS
10
2.23721
20
2.67327
11
2.23975
21
2.6871
0
LINE
8
BLACK
6
CONTINUOUS
10
2.23975
20
2.6871
11
2.24382
21
2.70057
0
LINE
8
BLACK
6
CONTINUOUS
10
2.24382
20
2.70057
11
2.24936
21
2.7135
0
LINE
8
BLACK
6
CONTINUOUS
10
2.24936
20
2.7135
11
2.25631
21
2.72573
0
LINE
8
BLACK
6
CONTINUOUS
10
2.25631
20
2.72573
11
2.26457
21
2.73711
0
LINE
8
BLACK
6
CONTINUOUS
10
2.26457
20
2.73711
11
2.27406
21
2.74749
0
LINE
8
BLACK
6
CONTINUOUS
10
2.27406
20
2.74749
11
2.28464
21
2.75676
0
LINE
8
BLACK
6
CONTINUOUS
10
2.28464
20
2.75676
11
2.29619
21
2.76478
0
LINE
8
BLACK
6
CONTINUOUS
10
2.29619
20
2.76478
11
2.30856
21
2.77147
0
LINE
8
BLACK
6
CONTINUOUS
10
2.30856
20
2.77147
11
2.3216
21
2.77674
0
LINE
8
BLACK
6
CONTINUOUS
10
2.3216
20
2.77674
11
2.33515
21
2.78053
0
LINE
8
BLACK
6
CONTINUOUS
10
2.33515
20
2.78053
11
2.34904
21
2.78277
0
LINE
8
BLACK
6
CONTINUOUS
10
2.34904
20
2.78277
11
2.36308
21
2.78346
0
LINE
8
BLACK
6
CONTINUOUS
10
2.36308
20
2.78346
11
2.37712
21
2.78258
  0
ENDSEC
  0
EOF
