%TF.GenerationSoftware,KiCad,Pcbnew,9.0.1+1*%
%TF.CreationDate,2025-09-21T20:30:55+00:00*%
%TF.ProjectId,USTSIPM01,55535453-4950-44d3-9031-2e6b69636164,rev?*%
%TF.SameCoordinates,Original*%
%TF.FileFunction,Soldermask,Bot*%
%TF.FilePolarity,Negative*%
%FSLAX46Y46*%
G04 Gerber Fmt 4.6, Leading zero omitted, Abs format (unit mm)*
G04 Created by KiCad (PCBNEW 9.0.1+1) date 2025-09-21 20:30:55*
%MOMM*%
%LPD*%
G01*
G04 APERTURE LIST*
G04 Aperture macros list*
%AMRoundRect*
0 Rectangle with rounded corners*
0 $1 Rounding radius*
0 $2 $3 $4 $5 $6 $7 $8 $9 X,Y pos of 4 corners*
0 Add a 4 corners polygon primitive as box body*
4,1,4,$2,$3,$4,$5,$6,$7,$8,$9,$2,$3,0*
0 Add four circle primitives for the rounded corners*
1,1,$1+$1,$2,$3*
1,1,$1+$1,$4,$5*
1,1,$1+$1,$6,$7*
1,1,$1+$1,$8,$9*
0 Add four rect primitives between the rounded corners*
20,1,$1+$1,$2,$3,$4,$5,0*
20,1,$1+$1,$4,$5,$6,$7,0*
20,1,$1+$1,$6,$7,$8,$9,0*
20,1,$1+$1,$8,$9,$2,$3,0*%
G04 Aperture macros list end*
%ADD10RoundRect,0.200000X-0.762000X-0.762000X0.762000X-0.762000X0.762000X0.762000X-0.762000X0.762000X0*%
%ADD11RoundRect,0.347560X-0.364940X-0.552440X0.364940X-0.552440X0.364940X0.552440X-0.364940X0.552440X0*%
%ADD12RoundRect,0.350000X0.575000X-0.350000X0.575000X0.350000X-0.575000X0.350000X-0.575000X-0.350000X0*%
%ADD13RoundRect,0.350000X-0.575000X0.350000X-0.575000X-0.350000X0.575000X-0.350000X0.575000X0.350000X0*%
%ADD14RoundRect,0.320176X1.204824X-0.592324X1.204824X0.592324X-1.204824X0.592324X-1.204824X-0.592324X0*%
%ADD15RoundRect,0.200000X0.300000X0.350000X-0.300000X0.350000X-0.300000X-0.350000X0.300000X-0.350000X0*%
%ADD16RoundRect,0.347560X0.552440X-0.364940X0.552440X0.364940X-0.552440X0.364940X-0.552440X-0.364940X0*%
%ADD17RoundRect,0.250000X-0.612500X-0.250000X0.612500X-0.250000X0.612500X0.250000X-0.612500X0.250000X0*%
%ADD18RoundRect,0.200000X0.350000X-0.300000X0.350000X0.300000X-0.350000X0.300000X-0.350000X-0.300000X0*%
%ADD19RoundRect,0.200000X0.780000X0.325000X-0.780000X0.325000X-0.780000X-0.325000X0.780000X-0.325000X0*%
%ADD20RoundRect,0.350000X-0.350000X-0.575000X0.350000X-0.575000X0.350000X0.575000X-0.350000X0.575000X0*%
G04 APERTURE END LIST*
D10*
%TO.C,J4*%
X170434000Y-105784000D03*
X172974000Y-105784000D03*
%TD*%
%TO.C,J6*%
X170434000Y-100704000D03*
X172974000Y-100704000D03*
%TD*%
%TO.C,J5*%
X170434000Y-103244000D03*
X172974000Y-103244000D03*
%TD*%
%TO.C,J8*%
X170434000Y-108324000D03*
X172974000Y-108324000D03*
%TD*%
%TO.C,J9*%
X170434000Y-110864000D03*
X172974000Y-110864000D03*
%TD*%
D11*
%TO.C,R13*%
X145391500Y-101854000D03*
X147216500Y-101854000D03*
%TD*%
D12*
%TO.C,C12*%
X143256000Y-102042000D03*
X143256000Y-100142000D03*
%TD*%
%TO.C,C9*%
X118364000Y-102042000D03*
X118364000Y-100142000D03*
%TD*%
%TO.C,C13*%
X140462000Y-102042000D03*
X140462000Y-100142000D03*
%TD*%
D13*
%TO.C,C14*%
X157226000Y-106746000D03*
X157226000Y-108646000D03*
%TD*%
D14*
%TO.C,L1*%
X158496000Y-103341500D03*
X158496000Y-100366500D03*
%TD*%
D15*
%TO.C,D2*%
X154240000Y-101346000D03*
X155640000Y-101346000D03*
%TD*%
D11*
%TO.C,R1*%
X136247500Y-101854000D03*
X138072500Y-101854000D03*
%TD*%
D13*
%TO.C,C3*%
X160274000Y-106746000D03*
X160274000Y-108646000D03*
%TD*%
D16*
%TO.C,R12*%
X122174000Y-111656500D03*
X122174000Y-109831500D03*
%TD*%
D13*
%TO.C,C15*%
X154178000Y-106746000D03*
X154178000Y-108646000D03*
%TD*%
D12*
%TO.C,C1*%
X133858000Y-102042000D03*
X133858000Y-100142000D03*
%TD*%
D17*
%TO.C,U2*%
X125335750Y-109492750D03*
X125335750Y-108542750D03*
X125335750Y-107592750D03*
X127610750Y-107592750D03*
X127610750Y-108542750D03*
X127610750Y-109492750D03*
%TD*%
D16*
%TO.C,R11*%
X130556000Y-109370500D03*
X130556000Y-107545500D03*
%TD*%
D11*
%TO.C,R6*%
X165457500Y-104140000D03*
X167282500Y-104140000D03*
%TD*%
%TO.C,R2*%
X129897500Y-101854000D03*
X131722500Y-101854000D03*
%TD*%
D13*
%TO.C,C50*%
X119869250Y-106830750D03*
X119869250Y-108730750D03*
%TD*%
D12*
%TO.C,C11*%
X149352000Y-102042000D03*
X149352000Y-100142000D03*
%TD*%
D13*
%TO.C,C8*%
X133096000Y-107508000D03*
X133096000Y-109408000D03*
%TD*%
D11*
%TO.C,R4*%
X123444000Y-101854000D03*
X125269000Y-101854000D03*
%TD*%
D13*
%TO.C,C4*%
X151130000Y-106746000D03*
X151130000Y-108646000D03*
%TD*%
D16*
%TO.C,R5*%
X117583250Y-108693250D03*
X117583250Y-106868250D03*
%TD*%
%TO.C,R7*%
X167386000Y-102004500D03*
X167386000Y-100179500D03*
%TD*%
D11*
%TO.C,R9*%
X126068750Y-105494750D03*
X127893750Y-105494750D03*
%TD*%
D18*
%TO.C,D1*%
X163576000Y-106742000D03*
X163576000Y-108142000D03*
%TD*%
D12*
%TO.C,C6*%
X120904000Y-102042000D03*
X120904000Y-100142000D03*
%TD*%
D19*
%TO.C,U3*%
X164418000Y-100142000D03*
X164418000Y-101092000D03*
X164418000Y-102042000D03*
X161718000Y-102042000D03*
X161718000Y-101092000D03*
X161718000Y-100142000D03*
%TD*%
D12*
%TO.C,C5*%
X127508000Y-102042000D03*
X127508000Y-100142000D03*
%TD*%
D11*
%TO.C,R3*%
X146407500Y-106934000D03*
X148232500Y-106934000D03*
%TD*%
D12*
%TO.C,C10*%
X151892000Y-102042000D03*
X151892000Y-100142000D03*
%TD*%
D20*
%TO.C,C2*%
X161610000Y-104394000D03*
X163510000Y-104394000D03*
%TD*%
D13*
%TO.C,C7*%
X135890000Y-106238000D03*
X135890000Y-108138000D03*
%TD*%
D16*
%TO.C,R10*%
X122682000Y-107997000D03*
X122682000Y-106172000D03*
%TD*%
M02*
