M48
; DRILL file {KiCad 9.0.1+1} date 2025-09-21T20:30:55+0000
; FORMAT={3:3/ absolute / metric / suppress leading zeros}
; #@! TF.CreationDate,2025-09-21T20:30:55+00:00
; #@! TF.GenerationSoftware,Kicad,Pcbnew,9.0.1+1
; #@! TF.FileFunction,Plated,1,2,PTH
FMAT,2
METRIC,TZ
; #@! TA.AperFunction,Plated,PTH,ViaDrill
T1C0.400
; #@! TA.AperFunction,Plated,PTH,ComponentDrill
T2C0.889
%
G90
G05
T1
X116332Y-109982
X116586Y-99822
X116586Y-104394
X117094Y-105918
X117094Y-112014
X118872Y-112014
X122682Y-99822
X125476Y-100076
X129540Y-110744
X129794Y-103632
X129794Y-105664
X130556Y-99822
X131318Y-105664
X131318Y-110744
X132842Y-103632
X132842Y-105664
X133350Y-110744
X134366Y-104902
X134874Y-109728
X135890Y-104648
X135890Y-110490
X137160Y-99822
X137668Y-109728
X137922Y-104902
X139446Y-104902
X140970Y-104902
X140970Y-109982
X140970Y-112268
X142494Y-104902
X144018Y-104902
X144018Y-109982
X144272Y-112268
X145542Y-104902
X145796Y-109982
X146304Y-100076
X147066Y-104902
X148590Y-104902
X148590Y-109982
X148590Y-112268
X150114Y-104902
X151384Y-109982
X151638Y-104902
X151892Y-112268
X153162Y-104140
X154178Y-105156
X154178Y-109982
X154686Y-112268
X154940Y-99822
X155448Y-102616
X155702Y-103886
X155702Y-105918
X156972Y-109982
X157734Y-112268
X158496Y-101854
X158750Y-105918
X160020Y-104902
X160020Y-109982
X160782Y-112268
X163322Y-112268
X163576Y-109474
X164846Y-105156
X164846Y-111760
X165354Y-107950
X165862Y-101092
X166116Y-110744
X167132Y-109728
X168402Y-106934
X168656Y-109474
T2
X170434Y-100704
X170434Y-103244
X170434Y-105784
X170434Y-108324
X170434Y-110864
X172974Y-100704
X172974Y-103244
X172974Y-105784
X172974Y-108324
X172974Y-110864
M30
