%TF.GenerationSoftware,KiCad,Pcbnew,9.0.1+1*%
%TF.CreationDate,2025-09-21T20:30:55+00:00*%
%TF.ProjectId,USTSIPM01,55535453-4950-44d3-9031-2e6b69636164,rev?*%
%TF.SameCoordinates,Original*%
%TF.FileFunction,Legend,Top*%
%TF.FilePolarity,Positive*%
%FSLAX46Y46*%
G04 Gerber Fmt 4.6, Leading zero omitted, Abs format (unit mm)*
G04 Created by KiCad (PCBNEW 9.0.1+1) date 2025-09-21 20:30:55*
%MOMM*%
%LPD*%
G01*
G04 APERTURE LIST*
%ADD10C,0.200000*%
%ADD11C,0.150000*%
G04 APERTURE END LIST*
D10*
X166060993Y-110216909D02*
X165937183Y-110155004D01*
X165937183Y-110155004D02*
X165751469Y-110155004D01*
X165751469Y-110155004D02*
X165565755Y-110216909D01*
X165565755Y-110216909D02*
X165441945Y-110340719D01*
X165441945Y-110340719D02*
X165380040Y-110464528D01*
X165380040Y-110464528D02*
X165318136Y-110712147D01*
X165318136Y-110712147D02*
X165318136Y-110897861D01*
X165318136Y-110897861D02*
X165380040Y-111145480D01*
X165380040Y-111145480D02*
X165441945Y-111269290D01*
X165441945Y-111269290D02*
X165565755Y-111393100D01*
X165565755Y-111393100D02*
X165751469Y-111455004D01*
X165751469Y-111455004D02*
X165875278Y-111455004D01*
X165875278Y-111455004D02*
X166060993Y-111393100D01*
X166060993Y-111393100D02*
X166122897Y-111331195D01*
X166122897Y-111331195D02*
X166122897Y-110897861D01*
X166122897Y-110897861D02*
X165875278Y-110897861D01*
X166680040Y-111455004D02*
X166680040Y-110155004D01*
X166680040Y-110155004D02*
X167422897Y-111455004D01*
X167422897Y-111455004D02*
X167422897Y-110155004D01*
X168041945Y-111455004D02*
X168041945Y-110155004D01*
X168041945Y-110155004D02*
X168351469Y-110155004D01*
X168351469Y-110155004D02*
X168537183Y-110216909D01*
X168537183Y-110216909D02*
X168660993Y-110340719D01*
X168660993Y-110340719D02*
X168722898Y-110464528D01*
X168722898Y-110464528D02*
X168784802Y-110712147D01*
X168784802Y-110712147D02*
X168784802Y-110897861D01*
X168784802Y-110897861D02*
X168722898Y-111145480D01*
X168722898Y-111145480D02*
X168660993Y-111269290D01*
X168660993Y-111269290D02*
X168537183Y-111393100D01*
X168537183Y-111393100D02*
X168351469Y-111455004D01*
X168351469Y-111455004D02*
X168041945Y-111455004D01*
X139683714Y-105686541D02*
X139683714Y-106738922D01*
X139683714Y-106738922D02*
X139745619Y-106862732D01*
X139745619Y-106862732D02*
X139807524Y-106924637D01*
X139807524Y-106924637D02*
X139931333Y-106986541D01*
X139931333Y-106986541D02*
X140178952Y-106986541D01*
X140178952Y-106986541D02*
X140302762Y-106924637D01*
X140302762Y-106924637D02*
X140364667Y-106862732D01*
X140364667Y-106862732D02*
X140426571Y-106738922D01*
X140426571Y-106738922D02*
X140426571Y-105686541D01*
X140983715Y-106924637D02*
X141169429Y-106986541D01*
X141169429Y-106986541D02*
X141478953Y-106986541D01*
X141478953Y-106986541D02*
X141602762Y-106924637D01*
X141602762Y-106924637D02*
X141664667Y-106862732D01*
X141664667Y-106862732D02*
X141726572Y-106738922D01*
X141726572Y-106738922D02*
X141726572Y-106615113D01*
X141726572Y-106615113D02*
X141664667Y-106491303D01*
X141664667Y-106491303D02*
X141602762Y-106429398D01*
X141602762Y-106429398D02*
X141478953Y-106367494D01*
X141478953Y-106367494D02*
X141231334Y-106305589D01*
X141231334Y-106305589D02*
X141107524Y-106243684D01*
X141107524Y-106243684D02*
X141045619Y-106181779D01*
X141045619Y-106181779D02*
X140983715Y-106057970D01*
X140983715Y-106057970D02*
X140983715Y-105934160D01*
X140983715Y-105934160D02*
X141045619Y-105810351D01*
X141045619Y-105810351D02*
X141107524Y-105748446D01*
X141107524Y-105748446D02*
X141231334Y-105686541D01*
X141231334Y-105686541D02*
X141540857Y-105686541D01*
X141540857Y-105686541D02*
X141726572Y-105748446D01*
X142098000Y-105686541D02*
X142840857Y-105686541D01*
X142469429Y-106986541D02*
X142469429Y-105686541D01*
X143274190Y-106862732D02*
X143336095Y-106924637D01*
X143336095Y-106924637D02*
X143274190Y-106986541D01*
X143274190Y-106986541D02*
X143212286Y-106924637D01*
X143212286Y-106924637D02*
X143274190Y-106862732D01*
X143274190Y-106862732D02*
X143274190Y-106986541D01*
X144636095Y-106862732D02*
X144574191Y-106924637D01*
X144574191Y-106924637D02*
X144388476Y-106986541D01*
X144388476Y-106986541D02*
X144264667Y-106986541D01*
X144264667Y-106986541D02*
X144078953Y-106924637D01*
X144078953Y-106924637D02*
X143955143Y-106800827D01*
X143955143Y-106800827D02*
X143893238Y-106677017D01*
X143893238Y-106677017D02*
X143831334Y-106429398D01*
X143831334Y-106429398D02*
X143831334Y-106243684D01*
X143831334Y-106243684D02*
X143893238Y-105996065D01*
X143893238Y-105996065D02*
X143955143Y-105872256D01*
X143955143Y-105872256D02*
X144078953Y-105748446D01*
X144078953Y-105748446D02*
X144264667Y-105686541D01*
X144264667Y-105686541D02*
X144388476Y-105686541D01*
X144388476Y-105686541D02*
X144574191Y-105748446D01*
X144574191Y-105748446D02*
X144636095Y-105810351D01*
X145069429Y-105686541D02*
X145936095Y-105686541D01*
X145936095Y-105686541D02*
X145069429Y-106986541D01*
X145069429Y-106986541D02*
X145936095Y-106986541D01*
X137145619Y-107779468D02*
X137145619Y-108831849D01*
X137145619Y-108831849D02*
X137207524Y-108955659D01*
X137207524Y-108955659D02*
X137269429Y-109017564D01*
X137269429Y-109017564D02*
X137393238Y-109079468D01*
X137393238Y-109079468D02*
X137640857Y-109079468D01*
X137640857Y-109079468D02*
X137764667Y-109017564D01*
X137764667Y-109017564D02*
X137826572Y-108955659D01*
X137826572Y-108955659D02*
X137888476Y-108831849D01*
X137888476Y-108831849D02*
X137888476Y-107779468D01*
X138445620Y-109017564D02*
X138631334Y-109079468D01*
X138631334Y-109079468D02*
X138940858Y-109079468D01*
X138940858Y-109079468D02*
X139064667Y-109017564D01*
X139064667Y-109017564D02*
X139126572Y-108955659D01*
X139126572Y-108955659D02*
X139188477Y-108831849D01*
X139188477Y-108831849D02*
X139188477Y-108708040D01*
X139188477Y-108708040D02*
X139126572Y-108584230D01*
X139126572Y-108584230D02*
X139064667Y-108522325D01*
X139064667Y-108522325D02*
X138940858Y-108460421D01*
X138940858Y-108460421D02*
X138693239Y-108398516D01*
X138693239Y-108398516D02*
X138569429Y-108336611D01*
X138569429Y-108336611D02*
X138507524Y-108274706D01*
X138507524Y-108274706D02*
X138445620Y-108150897D01*
X138445620Y-108150897D02*
X138445620Y-108027087D01*
X138445620Y-108027087D02*
X138507524Y-107903278D01*
X138507524Y-107903278D02*
X138569429Y-107841373D01*
X138569429Y-107841373D02*
X138693239Y-107779468D01*
X138693239Y-107779468D02*
X139002762Y-107779468D01*
X139002762Y-107779468D02*
X139188477Y-107841373D01*
X139559905Y-107779468D02*
X140302762Y-107779468D01*
X139931334Y-109079468D02*
X139931334Y-107779468D01*
X140674191Y-109017564D02*
X140859905Y-109079468D01*
X140859905Y-109079468D02*
X141169429Y-109079468D01*
X141169429Y-109079468D02*
X141293238Y-109017564D01*
X141293238Y-109017564D02*
X141355143Y-108955659D01*
X141355143Y-108955659D02*
X141417048Y-108831849D01*
X141417048Y-108831849D02*
X141417048Y-108708040D01*
X141417048Y-108708040D02*
X141355143Y-108584230D01*
X141355143Y-108584230D02*
X141293238Y-108522325D01*
X141293238Y-108522325D02*
X141169429Y-108460421D01*
X141169429Y-108460421D02*
X140921810Y-108398516D01*
X140921810Y-108398516D02*
X140798000Y-108336611D01*
X140798000Y-108336611D02*
X140736095Y-108274706D01*
X140736095Y-108274706D02*
X140674191Y-108150897D01*
X140674191Y-108150897D02*
X140674191Y-108027087D01*
X140674191Y-108027087D02*
X140736095Y-107903278D01*
X140736095Y-107903278D02*
X140798000Y-107841373D01*
X140798000Y-107841373D02*
X140921810Y-107779468D01*
X140921810Y-107779468D02*
X141231333Y-107779468D01*
X141231333Y-107779468D02*
X141417048Y-107841373D01*
X141974190Y-109079468D02*
X141974190Y-107779468D01*
X142593238Y-109079468D02*
X142593238Y-107779468D01*
X142593238Y-107779468D02*
X143088476Y-107779468D01*
X143088476Y-107779468D02*
X143212286Y-107841373D01*
X143212286Y-107841373D02*
X143274191Y-107903278D01*
X143274191Y-107903278D02*
X143336095Y-108027087D01*
X143336095Y-108027087D02*
X143336095Y-108212802D01*
X143336095Y-108212802D02*
X143274191Y-108336611D01*
X143274191Y-108336611D02*
X143212286Y-108398516D01*
X143212286Y-108398516D02*
X143088476Y-108460421D01*
X143088476Y-108460421D02*
X142593238Y-108460421D01*
X143893238Y-109079468D02*
X143893238Y-107779468D01*
X143893238Y-107779468D02*
X144326572Y-108708040D01*
X144326572Y-108708040D02*
X144759905Y-107779468D01*
X144759905Y-107779468D02*
X144759905Y-109079468D01*
X145626571Y-107779468D02*
X145750381Y-107779468D01*
X145750381Y-107779468D02*
X145874190Y-107841373D01*
X145874190Y-107841373D02*
X145936095Y-107903278D01*
X145936095Y-107903278D02*
X145998000Y-108027087D01*
X145998000Y-108027087D02*
X146059905Y-108274706D01*
X146059905Y-108274706D02*
X146059905Y-108584230D01*
X146059905Y-108584230D02*
X145998000Y-108831849D01*
X145998000Y-108831849D02*
X145936095Y-108955659D01*
X145936095Y-108955659D02*
X145874190Y-109017564D01*
X145874190Y-109017564D02*
X145750381Y-109079468D01*
X145750381Y-109079468D02*
X145626571Y-109079468D01*
X145626571Y-109079468D02*
X145502762Y-109017564D01*
X145502762Y-109017564D02*
X145440857Y-108955659D01*
X145440857Y-108955659D02*
X145378952Y-108831849D01*
X145378952Y-108831849D02*
X145317048Y-108584230D01*
X145317048Y-108584230D02*
X145317048Y-108274706D01*
X145317048Y-108274706D02*
X145378952Y-108027087D01*
X145378952Y-108027087D02*
X145440857Y-107903278D01*
X145440857Y-107903278D02*
X145502762Y-107841373D01*
X145502762Y-107841373D02*
X145626571Y-107779468D01*
X147298000Y-109079468D02*
X146555143Y-109079468D01*
X146926571Y-109079468D02*
X146926571Y-107779468D01*
X146926571Y-107779468D02*
X146802762Y-107965183D01*
X146802762Y-107965183D02*
X146678952Y-108088992D01*
X146678952Y-108088992D02*
X146555143Y-108150897D01*
X147793238Y-108708040D02*
X148412285Y-108708040D01*
X147669428Y-109079468D02*
X148102761Y-107779468D01*
X148102761Y-107779468D02*
X148536095Y-109079468D01*
X165875278Y-107615004D02*
X166122897Y-107615004D01*
X166122897Y-107615004D02*
X166246707Y-107676909D01*
X166246707Y-107676909D02*
X166370516Y-107800719D01*
X166370516Y-107800719D02*
X166432421Y-108048338D01*
X166432421Y-108048338D02*
X166432421Y-108481671D01*
X166432421Y-108481671D02*
X166370516Y-108729290D01*
X166370516Y-108729290D02*
X166246707Y-108853100D01*
X166246707Y-108853100D02*
X166122897Y-108915004D01*
X166122897Y-108915004D02*
X165875278Y-108915004D01*
X165875278Y-108915004D02*
X165751469Y-108853100D01*
X165751469Y-108853100D02*
X165627659Y-108729290D01*
X165627659Y-108729290D02*
X165565755Y-108481671D01*
X165565755Y-108481671D02*
X165565755Y-108048338D01*
X165565755Y-108048338D02*
X165627659Y-107800719D01*
X165627659Y-107800719D02*
X165751469Y-107676909D01*
X165751469Y-107676909D02*
X165875278Y-107615004D01*
X166989564Y-107615004D02*
X166989564Y-108667385D01*
X166989564Y-108667385D02*
X167051469Y-108791195D01*
X167051469Y-108791195D02*
X167113374Y-108853100D01*
X167113374Y-108853100D02*
X167237183Y-108915004D01*
X167237183Y-108915004D02*
X167484802Y-108915004D01*
X167484802Y-108915004D02*
X167608612Y-108853100D01*
X167608612Y-108853100D02*
X167670517Y-108791195D01*
X167670517Y-108791195D02*
X167732421Y-108667385D01*
X167732421Y-108667385D02*
X167732421Y-107615004D01*
X168165755Y-107615004D02*
X168908612Y-107615004D01*
X168537184Y-108915004D02*
X168537184Y-107615004D01*
X166060993Y-100056909D02*
X165937183Y-99995004D01*
X165937183Y-99995004D02*
X165751469Y-99995004D01*
X165751469Y-99995004D02*
X165565755Y-100056909D01*
X165565755Y-100056909D02*
X165441945Y-100180719D01*
X165441945Y-100180719D02*
X165380040Y-100304528D01*
X165380040Y-100304528D02*
X165318136Y-100552147D01*
X165318136Y-100552147D02*
X165318136Y-100737861D01*
X165318136Y-100737861D02*
X165380040Y-100985480D01*
X165380040Y-100985480D02*
X165441945Y-101109290D01*
X165441945Y-101109290D02*
X165565755Y-101233100D01*
X165565755Y-101233100D02*
X165751469Y-101295004D01*
X165751469Y-101295004D02*
X165875278Y-101295004D01*
X165875278Y-101295004D02*
X166060993Y-101233100D01*
X166060993Y-101233100D02*
X166122897Y-101171195D01*
X166122897Y-101171195D02*
X166122897Y-100737861D01*
X166122897Y-100737861D02*
X165875278Y-100737861D01*
X166680040Y-101295004D02*
X166680040Y-99995004D01*
X166680040Y-99995004D02*
X167422897Y-101295004D01*
X167422897Y-101295004D02*
X167422897Y-99995004D01*
X168041945Y-101295004D02*
X168041945Y-99995004D01*
X168041945Y-99995004D02*
X168351469Y-99995004D01*
X168351469Y-99995004D02*
X168537183Y-100056909D01*
X168537183Y-100056909D02*
X168660993Y-100180719D01*
X168660993Y-100180719D02*
X168722898Y-100304528D01*
X168722898Y-100304528D02*
X168784802Y-100552147D01*
X168784802Y-100552147D02*
X168784802Y-100737861D01*
X168784802Y-100737861D02*
X168722898Y-100985480D01*
X168722898Y-100985480D02*
X168660993Y-101109290D01*
X168660993Y-101109290D02*
X168537183Y-101233100D01*
X168537183Y-101233100D02*
X168351469Y-101295004D01*
X168351469Y-101295004D02*
X168041945Y-101295004D01*
X165627660Y-102535004D02*
X166432422Y-102535004D01*
X166432422Y-102535004D02*
X165999088Y-103030242D01*
X165999088Y-103030242D02*
X166184803Y-103030242D01*
X166184803Y-103030242D02*
X166308612Y-103092147D01*
X166308612Y-103092147D02*
X166370517Y-103154052D01*
X166370517Y-103154052D02*
X166432422Y-103277861D01*
X166432422Y-103277861D02*
X166432422Y-103587385D01*
X166432422Y-103587385D02*
X166370517Y-103711195D01*
X166370517Y-103711195D02*
X166308612Y-103773100D01*
X166308612Y-103773100D02*
X166184803Y-103835004D01*
X166184803Y-103835004D02*
X165813374Y-103835004D01*
X165813374Y-103835004D02*
X165689565Y-103773100D01*
X165689565Y-103773100D02*
X165627660Y-103711195D01*
X166803850Y-102535004D02*
X167237183Y-103835004D01*
X167237183Y-103835004D02*
X167670517Y-102535004D01*
X168660993Y-102535004D02*
X168413374Y-102535004D01*
X168413374Y-102535004D02*
X168289565Y-102596909D01*
X168289565Y-102596909D02*
X168227660Y-102658814D01*
X168227660Y-102658814D02*
X168103850Y-102844528D01*
X168103850Y-102844528D02*
X168041946Y-103092147D01*
X168041946Y-103092147D02*
X168041946Y-103587385D01*
X168041946Y-103587385D02*
X168103850Y-103711195D01*
X168103850Y-103711195D02*
X168165755Y-103773100D01*
X168165755Y-103773100D02*
X168289565Y-103835004D01*
X168289565Y-103835004D02*
X168537184Y-103835004D01*
X168537184Y-103835004D02*
X168660993Y-103773100D01*
X168660993Y-103773100D02*
X168722898Y-103711195D01*
X168722898Y-103711195D02*
X168784803Y-103587385D01*
X168784803Y-103587385D02*
X168784803Y-103277861D01*
X168784803Y-103277861D02*
X168722898Y-103154052D01*
X168722898Y-103154052D02*
X168660993Y-103092147D01*
X168660993Y-103092147D02*
X168537184Y-103030242D01*
X168537184Y-103030242D02*
X168289565Y-103030242D01*
X168289565Y-103030242D02*
X168165755Y-103092147D01*
X168165755Y-103092147D02*
X168103850Y-103154052D01*
X168103850Y-103154052D02*
X168041946Y-103277861D01*
X166060993Y-105136909D02*
X165937183Y-105075004D01*
X165937183Y-105075004D02*
X165751469Y-105075004D01*
X165751469Y-105075004D02*
X165565755Y-105136909D01*
X165565755Y-105136909D02*
X165441945Y-105260719D01*
X165441945Y-105260719D02*
X165380040Y-105384528D01*
X165380040Y-105384528D02*
X165318136Y-105632147D01*
X165318136Y-105632147D02*
X165318136Y-105817861D01*
X165318136Y-105817861D02*
X165380040Y-106065480D01*
X165380040Y-106065480D02*
X165441945Y-106189290D01*
X165441945Y-106189290D02*
X165565755Y-106313100D01*
X165565755Y-106313100D02*
X165751469Y-106375004D01*
X165751469Y-106375004D02*
X165875278Y-106375004D01*
X165875278Y-106375004D02*
X166060993Y-106313100D01*
X166060993Y-106313100D02*
X166122897Y-106251195D01*
X166122897Y-106251195D02*
X166122897Y-105817861D01*
X166122897Y-105817861D02*
X165875278Y-105817861D01*
X166680040Y-106375004D02*
X166680040Y-105075004D01*
X166680040Y-105075004D02*
X167422897Y-106375004D01*
X167422897Y-106375004D02*
X167422897Y-105075004D01*
X168041945Y-106375004D02*
X168041945Y-105075004D01*
X168041945Y-105075004D02*
X168351469Y-105075004D01*
X168351469Y-105075004D02*
X168537183Y-105136909D01*
X168537183Y-105136909D02*
X168660993Y-105260719D01*
X168660993Y-105260719D02*
X168722898Y-105384528D01*
X168722898Y-105384528D02*
X168784802Y-105632147D01*
X168784802Y-105632147D02*
X168784802Y-105817861D01*
X168784802Y-105817861D02*
X168722898Y-106065480D01*
X168722898Y-106065480D02*
X168660993Y-106189290D01*
X168660993Y-106189290D02*
X168537183Y-106313100D01*
X168537183Y-106313100D02*
X168351469Y-106375004D01*
X168351469Y-106375004D02*
X168041945Y-106375004D01*
D11*
X122035345Y-105061569D02*
X122035345Y-105871092D01*
X122035345Y-105871092D02*
X122082964Y-105966330D01*
X122082964Y-105966330D02*
X122130583Y-106013950D01*
X122130583Y-106013950D02*
X122225821Y-106061569D01*
X122225821Y-106061569D02*
X122416297Y-106061569D01*
X122416297Y-106061569D02*
X122511535Y-106013950D01*
X122511535Y-106013950D02*
X122559154Y-105966330D01*
X122559154Y-105966330D02*
X122606773Y-105871092D01*
X122606773Y-105871092D02*
X122606773Y-105061569D01*
X123606773Y-106061569D02*
X123035345Y-106061569D01*
X123321059Y-106061569D02*
X123321059Y-105061569D01*
X123321059Y-105061569D02*
X123225821Y-105204426D01*
X123225821Y-105204426D02*
X123130583Y-105299664D01*
X123130583Y-105299664D02*
X123035345Y-105347283D01*
%TO.C,J4*%
X169164000Y-107054000D02*
X169164000Y-104768000D01*
X174244000Y-104768000D02*
X174244000Y-107054000D01*
X174244000Y-107054000D02*
X169164000Y-107054000D01*
%TO.C,J6*%
X169164000Y-101974000D02*
X169164000Y-99688000D01*
X174244000Y-99688000D02*
X174244000Y-101974000D01*
X174244000Y-101974000D02*
X169164000Y-101974000D01*
%TO.C,J5*%
X169164000Y-104514000D02*
X169164000Y-102228000D01*
X174244000Y-102228000D02*
X174244000Y-104514000D01*
X174244000Y-104514000D02*
X169164000Y-104514000D01*
%TO.C,J8*%
X169164000Y-109594000D02*
X169164000Y-107308000D01*
X174244000Y-107308000D02*
X174244000Y-109594000D01*
X174244000Y-109594000D02*
X169164000Y-109594000D01*
%TO.C,U1*%
X119316000Y-107184000D02*
X119316000Y-104384000D01*
X121416000Y-102284000D02*
X124216000Y-102284000D01*
X124216000Y-109284000D02*
X121416000Y-109284000D01*
X126316000Y-104384000D02*
X126316000Y-107184000D01*
X120385509Y-106812700D02*
G75*
G02*
X119582291Y-106812700I-401609J0D01*
G01*
X119582291Y-106812700D02*
G75*
G02*
X120385509Y-106812700I401609J0D01*
G01*
%TO.C,J9*%
X169164000Y-112134000D02*
X169164000Y-109848000D01*
X174244000Y-109848000D02*
X174244000Y-112134000D01*
X174244000Y-112134000D02*
X169164000Y-112134000D01*
%TD*%
M02*
