%TF.GenerationSoftware,KiCad,Pcbnew,9.0.1+1*%
%TF.CreationDate,2025-09-21T20:30:55+00:00*%
%TF.ProjectId,USTSIPM01,55535453-4950-44d3-9031-2e6b69636164,rev?*%
%TF.SameCoordinates,Original*%
%TF.FileFunction,Legend,Bot*%
%TF.FilePolarity,Positive*%
%FSLAX46Y46*%
G04 Gerber Fmt 4.6, Leading zero omitted, Abs format (unit mm)*
G04 Created by KiCad (PCBNEW 9.0.1+1) date 2025-09-21 20:30:55*
%MOMM*%
%LPD*%
G01*
G04 APERTURE LIST*
%ADD10C,0.150000*%
%ADD11C,0.120000*%
G04 APERTURE END LIST*
D10*
X147454857Y-104086819D02*
X147788190Y-103610628D01*
X148026285Y-104086819D02*
X148026285Y-103086819D01*
X148026285Y-103086819D02*
X147645333Y-103086819D01*
X147645333Y-103086819D02*
X147550095Y-103134438D01*
X147550095Y-103134438D02*
X147502476Y-103182057D01*
X147502476Y-103182057D02*
X147454857Y-103277295D01*
X147454857Y-103277295D02*
X147454857Y-103420152D01*
X147454857Y-103420152D02*
X147502476Y-103515390D01*
X147502476Y-103515390D02*
X147550095Y-103563009D01*
X147550095Y-103563009D02*
X147645333Y-103610628D01*
X147645333Y-103610628D02*
X148026285Y-103610628D01*
X146502476Y-104086819D02*
X147073904Y-104086819D01*
X146788190Y-104086819D02*
X146788190Y-103086819D01*
X146788190Y-103086819D02*
X146883428Y-103229676D01*
X146883428Y-103229676D02*
X146978666Y-103324914D01*
X146978666Y-103324914D02*
X147073904Y-103372533D01*
X146169142Y-103086819D02*
X145550095Y-103086819D01*
X145550095Y-103086819D02*
X145883428Y-103467771D01*
X145883428Y-103467771D02*
X145740571Y-103467771D01*
X145740571Y-103467771D02*
X145645333Y-103515390D01*
X145645333Y-103515390D02*
X145597714Y-103563009D01*
X145597714Y-103563009D02*
X145550095Y-103658247D01*
X145550095Y-103658247D02*
X145550095Y-103896342D01*
X145550095Y-103896342D02*
X145597714Y-103991580D01*
X145597714Y-103991580D02*
X145645333Y-104039200D01*
X145645333Y-104039200D02*
X145740571Y-104086819D01*
X145740571Y-104086819D02*
X146026285Y-104086819D01*
X146026285Y-104086819D02*
X146121523Y-104039200D01*
X146121523Y-104039200D02*
X146169142Y-103991580D01*
X144152857Y-103991580D02*
X144200476Y-104039200D01*
X144200476Y-104039200D02*
X144343333Y-104086819D01*
X144343333Y-104086819D02*
X144438571Y-104086819D01*
X144438571Y-104086819D02*
X144581428Y-104039200D01*
X144581428Y-104039200D02*
X144676666Y-103943961D01*
X144676666Y-103943961D02*
X144724285Y-103848723D01*
X144724285Y-103848723D02*
X144771904Y-103658247D01*
X144771904Y-103658247D02*
X144771904Y-103515390D01*
X144771904Y-103515390D02*
X144724285Y-103324914D01*
X144724285Y-103324914D02*
X144676666Y-103229676D01*
X144676666Y-103229676D02*
X144581428Y-103134438D01*
X144581428Y-103134438D02*
X144438571Y-103086819D01*
X144438571Y-103086819D02*
X144343333Y-103086819D01*
X144343333Y-103086819D02*
X144200476Y-103134438D01*
X144200476Y-103134438D02*
X144152857Y-103182057D01*
X143200476Y-104086819D02*
X143771904Y-104086819D01*
X143486190Y-104086819D02*
X143486190Y-103086819D01*
X143486190Y-103086819D02*
X143581428Y-103229676D01*
X143581428Y-103229676D02*
X143676666Y-103324914D01*
X143676666Y-103324914D02*
X143771904Y-103372533D01*
X142819523Y-103182057D02*
X142771904Y-103134438D01*
X142771904Y-103134438D02*
X142676666Y-103086819D01*
X142676666Y-103086819D02*
X142438571Y-103086819D01*
X142438571Y-103086819D02*
X142343333Y-103134438D01*
X142343333Y-103134438D02*
X142295714Y-103182057D01*
X142295714Y-103182057D02*
X142248095Y-103277295D01*
X142248095Y-103277295D02*
X142248095Y-103372533D01*
X142248095Y-103372533D02*
X142295714Y-103515390D01*
X142295714Y-103515390D02*
X142867142Y-104086819D01*
X142867142Y-104086819D02*
X142248095Y-104086819D01*
X118723580Y-103719333D02*
X118771200Y-103671714D01*
X118771200Y-103671714D02*
X118818819Y-103528857D01*
X118818819Y-103528857D02*
X118818819Y-103433619D01*
X118818819Y-103433619D02*
X118771200Y-103290762D01*
X118771200Y-103290762D02*
X118675961Y-103195524D01*
X118675961Y-103195524D02*
X118580723Y-103147905D01*
X118580723Y-103147905D02*
X118390247Y-103100286D01*
X118390247Y-103100286D02*
X118247390Y-103100286D01*
X118247390Y-103100286D02*
X118056914Y-103147905D01*
X118056914Y-103147905D02*
X117961676Y-103195524D01*
X117961676Y-103195524D02*
X117866438Y-103290762D01*
X117866438Y-103290762D02*
X117818819Y-103433619D01*
X117818819Y-103433619D02*
X117818819Y-103528857D01*
X117818819Y-103528857D02*
X117866438Y-103671714D01*
X117866438Y-103671714D02*
X117914057Y-103719333D01*
X118818819Y-104195524D02*
X118818819Y-104386000D01*
X118818819Y-104386000D02*
X118771200Y-104481238D01*
X118771200Y-104481238D02*
X118723580Y-104528857D01*
X118723580Y-104528857D02*
X118580723Y-104624095D01*
X118580723Y-104624095D02*
X118390247Y-104671714D01*
X118390247Y-104671714D02*
X118009295Y-104671714D01*
X118009295Y-104671714D02*
X117914057Y-104624095D01*
X117914057Y-104624095D02*
X117866438Y-104576476D01*
X117866438Y-104576476D02*
X117818819Y-104481238D01*
X117818819Y-104481238D02*
X117818819Y-104290762D01*
X117818819Y-104290762D02*
X117866438Y-104195524D01*
X117866438Y-104195524D02*
X117914057Y-104147905D01*
X117914057Y-104147905D02*
X118009295Y-104100286D01*
X118009295Y-104100286D02*
X118247390Y-104100286D01*
X118247390Y-104100286D02*
X118342628Y-104147905D01*
X118342628Y-104147905D02*
X118390247Y-104195524D01*
X118390247Y-104195524D02*
X118437866Y-104290762D01*
X118437866Y-104290762D02*
X118437866Y-104481238D01*
X118437866Y-104481238D02*
X118390247Y-104576476D01*
X118390247Y-104576476D02*
X118342628Y-104624095D01*
X118342628Y-104624095D02*
X118247390Y-104671714D01*
X141104857Y-103991580D02*
X141152476Y-104039200D01*
X141152476Y-104039200D02*
X141295333Y-104086819D01*
X141295333Y-104086819D02*
X141390571Y-104086819D01*
X141390571Y-104086819D02*
X141533428Y-104039200D01*
X141533428Y-104039200D02*
X141628666Y-103943961D01*
X141628666Y-103943961D02*
X141676285Y-103848723D01*
X141676285Y-103848723D02*
X141723904Y-103658247D01*
X141723904Y-103658247D02*
X141723904Y-103515390D01*
X141723904Y-103515390D02*
X141676285Y-103324914D01*
X141676285Y-103324914D02*
X141628666Y-103229676D01*
X141628666Y-103229676D02*
X141533428Y-103134438D01*
X141533428Y-103134438D02*
X141390571Y-103086819D01*
X141390571Y-103086819D02*
X141295333Y-103086819D01*
X141295333Y-103086819D02*
X141152476Y-103134438D01*
X141152476Y-103134438D02*
X141104857Y-103182057D01*
X140152476Y-104086819D02*
X140723904Y-104086819D01*
X140438190Y-104086819D02*
X140438190Y-103086819D01*
X140438190Y-103086819D02*
X140533428Y-103229676D01*
X140533428Y-103229676D02*
X140628666Y-103324914D01*
X140628666Y-103324914D02*
X140723904Y-103372533D01*
X139819142Y-103086819D02*
X139200095Y-103086819D01*
X139200095Y-103086819D02*
X139533428Y-103467771D01*
X139533428Y-103467771D02*
X139390571Y-103467771D01*
X139390571Y-103467771D02*
X139295333Y-103515390D01*
X139295333Y-103515390D02*
X139247714Y-103563009D01*
X139247714Y-103563009D02*
X139200095Y-103658247D01*
X139200095Y-103658247D02*
X139200095Y-103896342D01*
X139200095Y-103896342D02*
X139247714Y-103991580D01*
X139247714Y-103991580D02*
X139295333Y-104039200D01*
X139295333Y-104039200D02*
X139390571Y-104086819D01*
X139390571Y-104086819D02*
X139676285Y-104086819D01*
X139676285Y-104086819D02*
X139771523Y-104039200D01*
X139771523Y-104039200D02*
X139819142Y-103991580D01*
X156588619Y-99579133D02*
X156588619Y-99102943D01*
X156588619Y-99102943D02*
X155588619Y-99102943D01*
X156588619Y-100436276D02*
X156588619Y-99864848D01*
X156588619Y-100150562D02*
X155588619Y-100150562D01*
X155588619Y-100150562D02*
X155731476Y-100055324D01*
X155731476Y-100055324D02*
X155826714Y-99960086D01*
X155826714Y-99960086D02*
X155874333Y-99864848D01*
X155678094Y-103324819D02*
X155678094Y-102324819D01*
X155678094Y-102324819D02*
X155439999Y-102324819D01*
X155439999Y-102324819D02*
X155297142Y-102372438D01*
X155297142Y-102372438D02*
X155201904Y-102467676D01*
X155201904Y-102467676D02*
X155154285Y-102562914D01*
X155154285Y-102562914D02*
X155106666Y-102753390D01*
X155106666Y-102753390D02*
X155106666Y-102896247D01*
X155106666Y-102896247D02*
X155154285Y-103086723D01*
X155154285Y-103086723D02*
X155201904Y-103181961D01*
X155201904Y-103181961D02*
X155297142Y-103277200D01*
X155297142Y-103277200D02*
X155439999Y-103324819D01*
X155439999Y-103324819D02*
X155678094Y-103324819D01*
X154725713Y-102420057D02*
X154678094Y-102372438D01*
X154678094Y-102372438D02*
X154582856Y-102324819D01*
X154582856Y-102324819D02*
X154344761Y-102324819D01*
X154344761Y-102324819D02*
X154249523Y-102372438D01*
X154249523Y-102372438D02*
X154201904Y-102420057D01*
X154201904Y-102420057D02*
X154154285Y-102515295D01*
X154154285Y-102515295D02*
X154154285Y-102610533D01*
X154154285Y-102610533D02*
X154201904Y-102753390D01*
X154201904Y-102753390D02*
X154773332Y-103324819D01*
X154773332Y-103324819D02*
X154154285Y-103324819D01*
X137326666Y-103958819D02*
X137659999Y-103482628D01*
X137898094Y-103958819D02*
X137898094Y-102958819D01*
X137898094Y-102958819D02*
X137517142Y-102958819D01*
X137517142Y-102958819D02*
X137421904Y-103006438D01*
X137421904Y-103006438D02*
X137374285Y-103054057D01*
X137374285Y-103054057D02*
X137326666Y-103149295D01*
X137326666Y-103149295D02*
X137326666Y-103292152D01*
X137326666Y-103292152D02*
X137374285Y-103387390D01*
X137374285Y-103387390D02*
X137421904Y-103435009D01*
X137421904Y-103435009D02*
X137517142Y-103482628D01*
X137517142Y-103482628D02*
X137898094Y-103482628D01*
X136374285Y-103958819D02*
X136945713Y-103958819D01*
X136659999Y-103958819D02*
X136659999Y-102958819D01*
X136659999Y-102958819D02*
X136755237Y-103101676D01*
X136755237Y-103101676D02*
X136850475Y-103196914D01*
X136850475Y-103196914D02*
X136945713Y-103244533D01*
X124305219Y-110228142D02*
X123829028Y-109894809D01*
X124305219Y-109656714D02*
X123305219Y-109656714D01*
X123305219Y-109656714D02*
X123305219Y-110037666D01*
X123305219Y-110037666D02*
X123352838Y-110132904D01*
X123352838Y-110132904D02*
X123400457Y-110180523D01*
X123400457Y-110180523D02*
X123495695Y-110228142D01*
X123495695Y-110228142D02*
X123638552Y-110228142D01*
X123638552Y-110228142D02*
X123733790Y-110180523D01*
X123733790Y-110180523D02*
X123781409Y-110132904D01*
X123781409Y-110132904D02*
X123829028Y-110037666D01*
X123829028Y-110037666D02*
X123829028Y-109656714D01*
X124305219Y-111180523D02*
X124305219Y-110609095D01*
X124305219Y-110894809D02*
X123305219Y-110894809D01*
X123305219Y-110894809D02*
X123448076Y-110799571D01*
X123448076Y-110799571D02*
X123543314Y-110704333D01*
X123543314Y-110704333D02*
X123590933Y-110609095D01*
X123400457Y-111561476D02*
X123352838Y-111609095D01*
X123352838Y-111609095D02*
X123305219Y-111704333D01*
X123305219Y-111704333D02*
X123305219Y-111942428D01*
X123305219Y-111942428D02*
X123352838Y-112037666D01*
X123352838Y-112037666D02*
X123400457Y-112085285D01*
X123400457Y-112085285D02*
X123495695Y-112132904D01*
X123495695Y-112132904D02*
X123590933Y-112132904D01*
X123590933Y-112132904D02*
X123733790Y-112085285D01*
X123733790Y-112085285D02*
X124305219Y-111513857D01*
X124305219Y-111513857D02*
X124305219Y-112132904D01*
X134217580Y-103719333D02*
X134265200Y-103671714D01*
X134265200Y-103671714D02*
X134312819Y-103528857D01*
X134312819Y-103528857D02*
X134312819Y-103433619D01*
X134312819Y-103433619D02*
X134265200Y-103290762D01*
X134265200Y-103290762D02*
X134169961Y-103195524D01*
X134169961Y-103195524D02*
X134074723Y-103147905D01*
X134074723Y-103147905D02*
X133884247Y-103100286D01*
X133884247Y-103100286D02*
X133741390Y-103100286D01*
X133741390Y-103100286D02*
X133550914Y-103147905D01*
X133550914Y-103147905D02*
X133455676Y-103195524D01*
X133455676Y-103195524D02*
X133360438Y-103290762D01*
X133360438Y-103290762D02*
X133312819Y-103433619D01*
X133312819Y-103433619D02*
X133312819Y-103528857D01*
X133312819Y-103528857D02*
X133360438Y-103671714D01*
X133360438Y-103671714D02*
X133408057Y-103719333D01*
X134312819Y-104671714D02*
X134312819Y-104100286D01*
X134312819Y-104386000D02*
X133312819Y-104386000D01*
X133312819Y-104386000D02*
X133455676Y-104290762D01*
X133455676Y-104290762D02*
X133550914Y-104195524D01*
X133550914Y-104195524D02*
X133598533Y-104100286D01*
X127253904Y-110452819D02*
X127253904Y-111262342D01*
X127253904Y-111262342D02*
X127206285Y-111357580D01*
X127206285Y-111357580D02*
X127158666Y-111405200D01*
X127158666Y-111405200D02*
X127063428Y-111452819D01*
X127063428Y-111452819D02*
X126872952Y-111452819D01*
X126872952Y-111452819D02*
X126777714Y-111405200D01*
X126777714Y-111405200D02*
X126730095Y-111357580D01*
X126730095Y-111357580D02*
X126682476Y-111262342D01*
X126682476Y-111262342D02*
X126682476Y-110452819D01*
X126253904Y-110548057D02*
X126206285Y-110500438D01*
X126206285Y-110500438D02*
X126111047Y-110452819D01*
X126111047Y-110452819D02*
X125872952Y-110452819D01*
X125872952Y-110452819D02*
X125777714Y-110500438D01*
X125777714Y-110500438D02*
X125730095Y-110548057D01*
X125730095Y-110548057D02*
X125682476Y-110643295D01*
X125682476Y-110643295D02*
X125682476Y-110738533D01*
X125682476Y-110738533D02*
X125730095Y-110881390D01*
X125730095Y-110881390D02*
X126301523Y-111452819D01*
X126301523Y-111452819D02*
X125682476Y-111452819D01*
X134246857Y-111452819D02*
X134580190Y-110976628D01*
X134818285Y-111452819D02*
X134818285Y-110452819D01*
X134818285Y-110452819D02*
X134437333Y-110452819D01*
X134437333Y-110452819D02*
X134342095Y-110500438D01*
X134342095Y-110500438D02*
X134294476Y-110548057D01*
X134294476Y-110548057D02*
X134246857Y-110643295D01*
X134246857Y-110643295D02*
X134246857Y-110786152D01*
X134246857Y-110786152D02*
X134294476Y-110881390D01*
X134294476Y-110881390D02*
X134342095Y-110929009D01*
X134342095Y-110929009D02*
X134437333Y-110976628D01*
X134437333Y-110976628D02*
X134818285Y-110976628D01*
X133294476Y-111452819D02*
X133865904Y-111452819D01*
X133580190Y-111452819D02*
X133580190Y-110452819D01*
X133580190Y-110452819D02*
X133675428Y-110595676D01*
X133675428Y-110595676D02*
X133770666Y-110690914D01*
X133770666Y-110690914D02*
X133865904Y-110738533D01*
X132342095Y-111452819D02*
X132913523Y-111452819D01*
X132627809Y-111452819D02*
X132627809Y-110452819D01*
X132627809Y-110452819D02*
X132723047Y-110595676D01*
X132723047Y-110595676D02*
X132818285Y-110690914D01*
X132818285Y-110690914D02*
X132913523Y-110738533D01*
X166536666Y-106244819D02*
X166869999Y-105768628D01*
X167108094Y-106244819D02*
X167108094Y-105244819D01*
X167108094Y-105244819D02*
X166727142Y-105244819D01*
X166727142Y-105244819D02*
X166631904Y-105292438D01*
X166631904Y-105292438D02*
X166584285Y-105340057D01*
X166584285Y-105340057D02*
X166536666Y-105435295D01*
X166536666Y-105435295D02*
X166536666Y-105578152D01*
X166536666Y-105578152D02*
X166584285Y-105673390D01*
X166584285Y-105673390D02*
X166631904Y-105721009D01*
X166631904Y-105721009D02*
X166727142Y-105768628D01*
X166727142Y-105768628D02*
X167108094Y-105768628D01*
X165679523Y-105244819D02*
X165869999Y-105244819D01*
X165869999Y-105244819D02*
X165965237Y-105292438D01*
X165965237Y-105292438D02*
X166012856Y-105340057D01*
X166012856Y-105340057D02*
X166108094Y-105482914D01*
X166108094Y-105482914D02*
X166155713Y-105673390D01*
X166155713Y-105673390D02*
X166155713Y-106054342D01*
X166155713Y-106054342D02*
X166108094Y-106149580D01*
X166108094Y-106149580D02*
X166060475Y-106197200D01*
X166060475Y-106197200D02*
X165965237Y-106244819D01*
X165965237Y-106244819D02*
X165774761Y-106244819D01*
X165774761Y-106244819D02*
X165679523Y-106197200D01*
X165679523Y-106197200D02*
X165631904Y-106149580D01*
X165631904Y-106149580D02*
X165584285Y-106054342D01*
X165584285Y-106054342D02*
X165584285Y-105816247D01*
X165584285Y-105816247D02*
X165631904Y-105721009D01*
X165631904Y-105721009D02*
X165679523Y-105673390D01*
X165679523Y-105673390D02*
X165774761Y-105625771D01*
X165774761Y-105625771D02*
X165965237Y-105625771D01*
X165965237Y-105625771D02*
X166060475Y-105673390D01*
X166060475Y-105673390D02*
X166108094Y-105721009D01*
X166108094Y-105721009D02*
X166155713Y-105816247D01*
X131738666Y-104086819D02*
X132071999Y-103610628D01*
X132310094Y-104086819D02*
X132310094Y-103086819D01*
X132310094Y-103086819D02*
X131929142Y-103086819D01*
X131929142Y-103086819D02*
X131833904Y-103134438D01*
X131833904Y-103134438D02*
X131786285Y-103182057D01*
X131786285Y-103182057D02*
X131738666Y-103277295D01*
X131738666Y-103277295D02*
X131738666Y-103420152D01*
X131738666Y-103420152D02*
X131786285Y-103515390D01*
X131786285Y-103515390D02*
X131833904Y-103563009D01*
X131833904Y-103563009D02*
X131929142Y-103610628D01*
X131929142Y-103610628D02*
X132310094Y-103610628D01*
X131357713Y-103182057D02*
X131310094Y-103134438D01*
X131310094Y-103134438D02*
X131214856Y-103086819D01*
X131214856Y-103086819D02*
X130976761Y-103086819D01*
X130976761Y-103086819D02*
X130881523Y-103134438D01*
X130881523Y-103134438D02*
X130833904Y-103182057D01*
X130833904Y-103182057D02*
X130786285Y-103277295D01*
X130786285Y-103277295D02*
X130786285Y-103372533D01*
X130786285Y-103372533D02*
X130833904Y-103515390D01*
X130833904Y-103515390D02*
X131405332Y-104086819D01*
X131405332Y-104086819D02*
X130786285Y-104086819D01*
X120196780Y-110405942D02*
X120244400Y-110358323D01*
X120244400Y-110358323D02*
X120292019Y-110215466D01*
X120292019Y-110215466D02*
X120292019Y-110120228D01*
X120292019Y-110120228D02*
X120244400Y-109977371D01*
X120244400Y-109977371D02*
X120149161Y-109882133D01*
X120149161Y-109882133D02*
X120053923Y-109834514D01*
X120053923Y-109834514D02*
X119863447Y-109786895D01*
X119863447Y-109786895D02*
X119720590Y-109786895D01*
X119720590Y-109786895D02*
X119530114Y-109834514D01*
X119530114Y-109834514D02*
X119434876Y-109882133D01*
X119434876Y-109882133D02*
X119339638Y-109977371D01*
X119339638Y-109977371D02*
X119292019Y-110120228D01*
X119292019Y-110120228D02*
X119292019Y-110215466D01*
X119292019Y-110215466D02*
X119339638Y-110358323D01*
X119339638Y-110358323D02*
X119387257Y-110405942D01*
X119292019Y-111310704D02*
X119292019Y-110834514D01*
X119292019Y-110834514D02*
X119768209Y-110786895D01*
X119768209Y-110786895D02*
X119720590Y-110834514D01*
X119720590Y-110834514D02*
X119672971Y-110929752D01*
X119672971Y-110929752D02*
X119672971Y-111167847D01*
X119672971Y-111167847D02*
X119720590Y-111263085D01*
X119720590Y-111263085D02*
X119768209Y-111310704D01*
X119768209Y-111310704D02*
X119863447Y-111358323D01*
X119863447Y-111358323D02*
X120101542Y-111358323D01*
X120101542Y-111358323D02*
X120196780Y-111310704D01*
X120196780Y-111310704D02*
X120244400Y-111263085D01*
X120244400Y-111263085D02*
X120292019Y-111167847D01*
X120292019Y-111167847D02*
X120292019Y-110929752D01*
X120292019Y-110929752D02*
X120244400Y-110834514D01*
X120244400Y-110834514D02*
X120196780Y-110786895D01*
X119292019Y-111977371D02*
X119292019Y-112072609D01*
X119292019Y-112072609D02*
X119339638Y-112167847D01*
X119339638Y-112167847D02*
X119387257Y-112215466D01*
X119387257Y-112215466D02*
X119482495Y-112263085D01*
X119482495Y-112263085D02*
X119672971Y-112310704D01*
X119672971Y-112310704D02*
X119911066Y-112310704D01*
X119911066Y-112310704D02*
X120101542Y-112263085D01*
X120101542Y-112263085D02*
X120196780Y-112215466D01*
X120196780Y-112215466D02*
X120244400Y-112167847D01*
X120244400Y-112167847D02*
X120292019Y-112072609D01*
X120292019Y-112072609D02*
X120292019Y-111977371D01*
X120292019Y-111977371D02*
X120244400Y-111882133D01*
X120244400Y-111882133D02*
X120196780Y-111834514D01*
X120196780Y-111834514D02*
X120101542Y-111786895D01*
X120101542Y-111786895D02*
X119911066Y-111739276D01*
X119911066Y-111739276D02*
X119672971Y-111739276D01*
X119672971Y-111739276D02*
X119482495Y-111786895D01*
X119482495Y-111786895D02*
X119387257Y-111834514D01*
X119387257Y-111834514D02*
X119339638Y-111882133D01*
X119339638Y-111882133D02*
X119292019Y-111977371D01*
X149711580Y-103751142D02*
X149759200Y-103703523D01*
X149759200Y-103703523D02*
X149806819Y-103560666D01*
X149806819Y-103560666D02*
X149806819Y-103465428D01*
X149806819Y-103465428D02*
X149759200Y-103322571D01*
X149759200Y-103322571D02*
X149663961Y-103227333D01*
X149663961Y-103227333D02*
X149568723Y-103179714D01*
X149568723Y-103179714D02*
X149378247Y-103132095D01*
X149378247Y-103132095D02*
X149235390Y-103132095D01*
X149235390Y-103132095D02*
X149044914Y-103179714D01*
X149044914Y-103179714D02*
X148949676Y-103227333D01*
X148949676Y-103227333D02*
X148854438Y-103322571D01*
X148854438Y-103322571D02*
X148806819Y-103465428D01*
X148806819Y-103465428D02*
X148806819Y-103560666D01*
X148806819Y-103560666D02*
X148854438Y-103703523D01*
X148854438Y-103703523D02*
X148902057Y-103751142D01*
X149806819Y-104703523D02*
X149806819Y-104132095D01*
X149806819Y-104417809D02*
X148806819Y-104417809D01*
X148806819Y-104417809D02*
X148949676Y-104322571D01*
X148949676Y-104322571D02*
X149044914Y-104227333D01*
X149044914Y-104227333D02*
X149092533Y-104132095D01*
X149806819Y-105655904D02*
X149806819Y-105084476D01*
X149806819Y-105370190D02*
X148806819Y-105370190D01*
X148806819Y-105370190D02*
X148949676Y-105274952D01*
X148949676Y-105274952D02*
X149044914Y-105179714D01*
X149044914Y-105179714D02*
X149092533Y-105084476D01*
X124523166Y-104086819D02*
X124856499Y-103610628D01*
X125094594Y-104086819D02*
X125094594Y-103086819D01*
X125094594Y-103086819D02*
X124713642Y-103086819D01*
X124713642Y-103086819D02*
X124618404Y-103134438D01*
X124618404Y-103134438D02*
X124570785Y-103182057D01*
X124570785Y-103182057D02*
X124523166Y-103277295D01*
X124523166Y-103277295D02*
X124523166Y-103420152D01*
X124523166Y-103420152D02*
X124570785Y-103515390D01*
X124570785Y-103515390D02*
X124618404Y-103563009D01*
X124618404Y-103563009D02*
X124713642Y-103610628D01*
X124713642Y-103610628D02*
X125094594Y-103610628D01*
X123666023Y-103420152D02*
X123666023Y-104086819D01*
X123904118Y-103039200D02*
X124142213Y-103753485D01*
X124142213Y-103753485D02*
X123523166Y-103753485D01*
X118056819Y-110323333D02*
X117580628Y-109990000D01*
X118056819Y-109751905D02*
X117056819Y-109751905D01*
X117056819Y-109751905D02*
X117056819Y-110132857D01*
X117056819Y-110132857D02*
X117104438Y-110228095D01*
X117104438Y-110228095D02*
X117152057Y-110275714D01*
X117152057Y-110275714D02*
X117247295Y-110323333D01*
X117247295Y-110323333D02*
X117390152Y-110323333D01*
X117390152Y-110323333D02*
X117485390Y-110275714D01*
X117485390Y-110275714D02*
X117533009Y-110228095D01*
X117533009Y-110228095D02*
X117580628Y-110132857D01*
X117580628Y-110132857D02*
X117580628Y-109751905D01*
X117056819Y-111228095D02*
X117056819Y-110751905D01*
X117056819Y-110751905D02*
X117533009Y-110704286D01*
X117533009Y-110704286D02*
X117485390Y-110751905D01*
X117485390Y-110751905D02*
X117437771Y-110847143D01*
X117437771Y-110847143D02*
X117437771Y-111085238D01*
X117437771Y-111085238D02*
X117485390Y-111180476D01*
X117485390Y-111180476D02*
X117533009Y-111228095D01*
X117533009Y-111228095D02*
X117628247Y-111275714D01*
X117628247Y-111275714D02*
X117866342Y-111275714D01*
X117866342Y-111275714D02*
X117961580Y-111228095D01*
X117961580Y-111228095D02*
X118009200Y-111180476D01*
X118009200Y-111180476D02*
X118056819Y-111085238D01*
X118056819Y-111085238D02*
X118056819Y-110847143D01*
X118056819Y-110847143D02*
X118009200Y-110751905D01*
X118009200Y-110751905D02*
X117961580Y-110704286D01*
X129706666Y-105102819D02*
X130039999Y-104626628D01*
X130278094Y-105102819D02*
X130278094Y-104102819D01*
X130278094Y-104102819D02*
X129897142Y-104102819D01*
X129897142Y-104102819D02*
X129801904Y-104150438D01*
X129801904Y-104150438D02*
X129754285Y-104198057D01*
X129754285Y-104198057D02*
X129706666Y-104293295D01*
X129706666Y-104293295D02*
X129706666Y-104436152D01*
X129706666Y-104436152D02*
X129754285Y-104531390D01*
X129754285Y-104531390D02*
X129801904Y-104579009D01*
X129801904Y-104579009D02*
X129897142Y-104626628D01*
X129897142Y-104626628D02*
X130278094Y-104626628D01*
X129230475Y-105102819D02*
X129039999Y-105102819D01*
X129039999Y-105102819D02*
X128944761Y-105055200D01*
X128944761Y-105055200D02*
X128897142Y-105007580D01*
X128897142Y-105007580D02*
X128801904Y-104864723D01*
X128801904Y-104864723D02*
X128754285Y-104674247D01*
X128754285Y-104674247D02*
X128754285Y-104293295D01*
X128754285Y-104293295D02*
X128801904Y-104198057D01*
X128801904Y-104198057D02*
X128849523Y-104150438D01*
X128849523Y-104150438D02*
X128944761Y-104102819D01*
X128944761Y-104102819D02*
X129135237Y-104102819D01*
X129135237Y-104102819D02*
X129230475Y-104150438D01*
X129230475Y-104150438D02*
X129278094Y-104198057D01*
X129278094Y-104198057D02*
X129325713Y-104293295D01*
X129325713Y-104293295D02*
X129325713Y-104531390D01*
X129325713Y-104531390D02*
X129278094Y-104626628D01*
X129278094Y-104626628D02*
X129230475Y-104674247D01*
X129230475Y-104674247D02*
X129135237Y-104721866D01*
X129135237Y-104721866D02*
X128944761Y-104721866D01*
X128944761Y-104721866D02*
X128849523Y-104674247D01*
X128849523Y-104674247D02*
X128801904Y-104626628D01*
X128801904Y-104626628D02*
X128754285Y-104531390D01*
X162506819Y-106703905D02*
X161506819Y-106703905D01*
X161506819Y-106703905D02*
X161506819Y-106942000D01*
X161506819Y-106942000D02*
X161554438Y-107084857D01*
X161554438Y-107084857D02*
X161649676Y-107180095D01*
X161649676Y-107180095D02*
X161744914Y-107227714D01*
X161744914Y-107227714D02*
X161935390Y-107275333D01*
X161935390Y-107275333D02*
X162078247Y-107275333D01*
X162078247Y-107275333D02*
X162268723Y-107227714D01*
X162268723Y-107227714D02*
X162363961Y-107180095D01*
X162363961Y-107180095D02*
X162459200Y-107084857D01*
X162459200Y-107084857D02*
X162506819Y-106942000D01*
X162506819Y-106942000D02*
X162506819Y-106703905D01*
X162506819Y-108227714D02*
X162506819Y-107656286D01*
X162506819Y-107942000D02*
X161506819Y-107942000D01*
X161506819Y-107942000D02*
X161649676Y-107846762D01*
X161649676Y-107846762D02*
X161744914Y-107751524D01*
X161744914Y-107751524D02*
X161792533Y-107656286D01*
X121263580Y-103719333D02*
X121311200Y-103671714D01*
X121311200Y-103671714D02*
X121358819Y-103528857D01*
X121358819Y-103528857D02*
X121358819Y-103433619D01*
X121358819Y-103433619D02*
X121311200Y-103290762D01*
X121311200Y-103290762D02*
X121215961Y-103195524D01*
X121215961Y-103195524D02*
X121120723Y-103147905D01*
X121120723Y-103147905D02*
X120930247Y-103100286D01*
X120930247Y-103100286D02*
X120787390Y-103100286D01*
X120787390Y-103100286D02*
X120596914Y-103147905D01*
X120596914Y-103147905D02*
X120501676Y-103195524D01*
X120501676Y-103195524D02*
X120406438Y-103290762D01*
X120406438Y-103290762D02*
X120358819Y-103433619D01*
X120358819Y-103433619D02*
X120358819Y-103528857D01*
X120358819Y-103528857D02*
X120406438Y-103671714D01*
X120406438Y-103671714D02*
X120454057Y-103719333D01*
X120358819Y-104576476D02*
X120358819Y-104386000D01*
X120358819Y-104386000D02*
X120406438Y-104290762D01*
X120406438Y-104290762D02*
X120454057Y-104243143D01*
X120454057Y-104243143D02*
X120596914Y-104147905D01*
X120596914Y-104147905D02*
X120787390Y-104100286D01*
X120787390Y-104100286D02*
X121168342Y-104100286D01*
X121168342Y-104100286D02*
X121263580Y-104147905D01*
X121263580Y-104147905D02*
X121311200Y-104195524D01*
X121311200Y-104195524D02*
X121358819Y-104290762D01*
X121358819Y-104290762D02*
X121358819Y-104481238D01*
X121358819Y-104481238D02*
X121311200Y-104576476D01*
X121311200Y-104576476D02*
X121263580Y-104624095D01*
X121263580Y-104624095D02*
X121168342Y-104671714D01*
X121168342Y-104671714D02*
X120930247Y-104671714D01*
X120930247Y-104671714D02*
X120835009Y-104624095D01*
X120835009Y-104624095D02*
X120787390Y-104576476D01*
X120787390Y-104576476D02*
X120739771Y-104481238D01*
X120739771Y-104481238D02*
X120739771Y-104290762D01*
X120739771Y-104290762D02*
X120787390Y-104195524D01*
X120787390Y-104195524D02*
X120835009Y-104147905D01*
X120835009Y-104147905D02*
X120930247Y-104100286D01*
X127674666Y-103991580D02*
X127722285Y-104039200D01*
X127722285Y-104039200D02*
X127865142Y-104086819D01*
X127865142Y-104086819D02*
X127960380Y-104086819D01*
X127960380Y-104086819D02*
X128103237Y-104039200D01*
X128103237Y-104039200D02*
X128198475Y-103943961D01*
X128198475Y-103943961D02*
X128246094Y-103848723D01*
X128246094Y-103848723D02*
X128293713Y-103658247D01*
X128293713Y-103658247D02*
X128293713Y-103515390D01*
X128293713Y-103515390D02*
X128246094Y-103324914D01*
X128246094Y-103324914D02*
X128198475Y-103229676D01*
X128198475Y-103229676D02*
X128103237Y-103134438D01*
X128103237Y-103134438D02*
X127960380Y-103086819D01*
X127960380Y-103086819D02*
X127865142Y-103086819D01*
X127865142Y-103086819D02*
X127722285Y-103134438D01*
X127722285Y-103134438D02*
X127674666Y-103182057D01*
X126769904Y-103086819D02*
X127246094Y-103086819D01*
X127246094Y-103086819D02*
X127293713Y-103563009D01*
X127293713Y-103563009D02*
X127246094Y-103515390D01*
X127246094Y-103515390D02*
X127150856Y-103467771D01*
X127150856Y-103467771D02*
X126912761Y-103467771D01*
X126912761Y-103467771D02*
X126817523Y-103515390D01*
X126817523Y-103515390D02*
X126769904Y-103563009D01*
X126769904Y-103563009D02*
X126722285Y-103658247D01*
X126722285Y-103658247D02*
X126722285Y-103896342D01*
X126722285Y-103896342D02*
X126769904Y-103991580D01*
X126769904Y-103991580D02*
X126817523Y-104039200D01*
X126817523Y-104039200D02*
X126912761Y-104086819D01*
X126912761Y-104086819D02*
X127150856Y-104086819D01*
X127150856Y-104086819D02*
X127246094Y-104039200D01*
X127246094Y-104039200D02*
X127293713Y-103991580D01*
X147486666Y-109166819D02*
X147819999Y-108690628D01*
X148058094Y-109166819D02*
X148058094Y-108166819D01*
X148058094Y-108166819D02*
X147677142Y-108166819D01*
X147677142Y-108166819D02*
X147581904Y-108214438D01*
X147581904Y-108214438D02*
X147534285Y-108262057D01*
X147534285Y-108262057D02*
X147486666Y-108357295D01*
X147486666Y-108357295D02*
X147486666Y-108500152D01*
X147486666Y-108500152D02*
X147534285Y-108595390D01*
X147534285Y-108595390D02*
X147581904Y-108643009D01*
X147581904Y-108643009D02*
X147677142Y-108690628D01*
X147677142Y-108690628D02*
X148058094Y-108690628D01*
X147153332Y-108166819D02*
X146534285Y-108166819D01*
X146534285Y-108166819D02*
X146867618Y-108547771D01*
X146867618Y-108547771D02*
X146724761Y-108547771D01*
X146724761Y-108547771D02*
X146629523Y-108595390D01*
X146629523Y-108595390D02*
X146581904Y-108643009D01*
X146581904Y-108643009D02*
X146534285Y-108738247D01*
X146534285Y-108738247D02*
X146534285Y-108976342D01*
X146534285Y-108976342D02*
X146581904Y-109071580D01*
X146581904Y-109071580D02*
X146629523Y-109119200D01*
X146629523Y-109119200D02*
X146724761Y-109166819D01*
X146724761Y-109166819D02*
X147010475Y-109166819D01*
X147010475Y-109166819D02*
X147105713Y-109119200D01*
X147105713Y-109119200D02*
X147153332Y-109071580D01*
X152251580Y-103751142D02*
X152299200Y-103703523D01*
X152299200Y-103703523D02*
X152346819Y-103560666D01*
X152346819Y-103560666D02*
X152346819Y-103465428D01*
X152346819Y-103465428D02*
X152299200Y-103322571D01*
X152299200Y-103322571D02*
X152203961Y-103227333D01*
X152203961Y-103227333D02*
X152108723Y-103179714D01*
X152108723Y-103179714D02*
X151918247Y-103132095D01*
X151918247Y-103132095D02*
X151775390Y-103132095D01*
X151775390Y-103132095D02*
X151584914Y-103179714D01*
X151584914Y-103179714D02*
X151489676Y-103227333D01*
X151489676Y-103227333D02*
X151394438Y-103322571D01*
X151394438Y-103322571D02*
X151346819Y-103465428D01*
X151346819Y-103465428D02*
X151346819Y-103560666D01*
X151346819Y-103560666D02*
X151394438Y-103703523D01*
X151394438Y-103703523D02*
X151442057Y-103751142D01*
X152346819Y-104703523D02*
X152346819Y-104132095D01*
X152346819Y-104417809D02*
X151346819Y-104417809D01*
X151346819Y-104417809D02*
X151489676Y-104322571D01*
X151489676Y-104322571D02*
X151584914Y-104227333D01*
X151584914Y-104227333D02*
X151632533Y-104132095D01*
X151346819Y-105322571D02*
X151346819Y-105417809D01*
X151346819Y-105417809D02*
X151394438Y-105513047D01*
X151394438Y-105513047D02*
X151442057Y-105560666D01*
X151442057Y-105560666D02*
X151537295Y-105608285D01*
X151537295Y-105608285D02*
X151727771Y-105655904D01*
X151727771Y-105655904D02*
X151965866Y-105655904D01*
X151965866Y-105655904D02*
X152156342Y-105608285D01*
X152156342Y-105608285D02*
X152251580Y-105560666D01*
X152251580Y-105560666D02*
X152299200Y-105513047D01*
X152299200Y-105513047D02*
X152346819Y-105417809D01*
X152346819Y-105417809D02*
X152346819Y-105322571D01*
X152346819Y-105322571D02*
X152299200Y-105227333D01*
X152299200Y-105227333D02*
X152251580Y-105179714D01*
X152251580Y-105179714D02*
X152156342Y-105132095D01*
X152156342Y-105132095D02*
X151965866Y-105084476D01*
X151965866Y-105084476D02*
X151727771Y-105084476D01*
X151727771Y-105084476D02*
X151537295Y-105132095D01*
X151537295Y-105132095D02*
X151442057Y-105179714D01*
X151442057Y-105179714D02*
X151394438Y-105227333D01*
X151394438Y-105227333D02*
X151346819Y-105322571D01*
X138281580Y-107529333D02*
X138329200Y-107481714D01*
X138329200Y-107481714D02*
X138376819Y-107338857D01*
X138376819Y-107338857D02*
X138376819Y-107243619D01*
X138376819Y-107243619D02*
X138329200Y-107100762D01*
X138329200Y-107100762D02*
X138233961Y-107005524D01*
X138233961Y-107005524D02*
X138138723Y-106957905D01*
X138138723Y-106957905D02*
X137948247Y-106910286D01*
X137948247Y-106910286D02*
X137805390Y-106910286D01*
X137805390Y-106910286D02*
X137614914Y-106957905D01*
X137614914Y-106957905D02*
X137519676Y-107005524D01*
X137519676Y-107005524D02*
X137424438Y-107100762D01*
X137424438Y-107100762D02*
X137376819Y-107243619D01*
X137376819Y-107243619D02*
X137376819Y-107338857D01*
X137376819Y-107338857D02*
X137424438Y-107481714D01*
X137424438Y-107481714D02*
X137472057Y-107529333D01*
X137376819Y-107862667D02*
X137376819Y-108529333D01*
X137376819Y-108529333D02*
X138376819Y-108100762D01*
X122755819Y-103497142D02*
X122279628Y-103163809D01*
X122755819Y-102925714D02*
X121755819Y-102925714D01*
X121755819Y-102925714D02*
X121755819Y-103306666D01*
X121755819Y-103306666D02*
X121803438Y-103401904D01*
X121803438Y-103401904D02*
X121851057Y-103449523D01*
X121851057Y-103449523D02*
X121946295Y-103497142D01*
X121946295Y-103497142D02*
X122089152Y-103497142D01*
X122089152Y-103497142D02*
X122184390Y-103449523D01*
X122184390Y-103449523D02*
X122232009Y-103401904D01*
X122232009Y-103401904D02*
X122279628Y-103306666D01*
X122279628Y-103306666D02*
X122279628Y-102925714D01*
X122755819Y-104449523D02*
X122755819Y-103878095D01*
X122755819Y-104163809D02*
X121755819Y-104163809D01*
X121755819Y-104163809D02*
X121898676Y-104068571D01*
X121898676Y-104068571D02*
X121993914Y-103973333D01*
X121993914Y-103973333D02*
X122041533Y-103878095D01*
X121755819Y-105068571D02*
X121755819Y-105163809D01*
X121755819Y-105163809D02*
X121803438Y-105259047D01*
X121803438Y-105259047D02*
X121851057Y-105306666D01*
X121851057Y-105306666D02*
X121946295Y-105354285D01*
X121946295Y-105354285D02*
X122136771Y-105401904D01*
X122136771Y-105401904D02*
X122374866Y-105401904D01*
X122374866Y-105401904D02*
X122565342Y-105354285D01*
X122565342Y-105354285D02*
X122660580Y-105306666D01*
X122660580Y-105306666D02*
X122708200Y-105259047D01*
X122708200Y-105259047D02*
X122755819Y-105163809D01*
X122755819Y-105163809D02*
X122755819Y-105068571D01*
X122755819Y-105068571D02*
X122708200Y-104973333D01*
X122708200Y-104973333D02*
X122660580Y-104925714D01*
X122660580Y-104925714D02*
X122565342Y-104878095D01*
X122565342Y-104878095D02*
X122374866Y-104830476D01*
X122374866Y-104830476D02*
X122136771Y-104830476D01*
X122136771Y-104830476D02*
X121946295Y-104878095D01*
X121946295Y-104878095D02*
X121851057Y-104925714D01*
X121851057Y-104925714D02*
X121803438Y-104973333D01*
X121803438Y-104973333D02*
X121755819Y-105068571D01*
D11*
%TO.C,R13*%
X146076936Y-101119000D02*
X146531064Y-101119000D01*
X146076936Y-102589000D02*
X146531064Y-102589000D01*
%TO.C,C12*%
X142521000Y-101353252D02*
X142521000Y-100830748D01*
X143991000Y-101353252D02*
X143991000Y-100830748D01*
%TO.C,C9*%
X117629000Y-101353252D02*
X117629000Y-100830748D01*
X119099000Y-101353252D02*
X119099000Y-100830748D01*
%TO.C,C13*%
X139727000Y-101353252D02*
X139727000Y-100830748D01*
X141197000Y-101353252D02*
X141197000Y-100830748D01*
%TO.C,C14*%
X156491000Y-107434748D02*
X156491000Y-107957252D01*
X157961000Y-107434748D02*
X157961000Y-107957252D01*
%TO.C,L1*%
X157136000Y-102456064D02*
X157136000Y-101251936D01*
X159856000Y-102456064D02*
X159856000Y-101251936D01*
%TO.C,D2*%
X153790000Y-101946000D02*
X153790000Y-100746000D01*
X155640000Y-100746000D02*
X153790000Y-100746000D01*
X155640000Y-101946000D02*
X153790000Y-101946000D01*
%TO.C,R1*%
X136932936Y-101119000D02*
X137387064Y-101119000D01*
X136932936Y-102589000D02*
X137387064Y-102589000D01*
%TO.C,C3*%
X159539000Y-107434748D02*
X159539000Y-107957252D01*
X161009000Y-107434748D02*
X161009000Y-107957252D01*
%TO.C,R12*%
X121439000Y-110971064D02*
X121439000Y-110516936D01*
X122909000Y-110971064D02*
X122909000Y-110516936D01*
%TO.C,C15*%
X153443000Y-107434748D02*
X153443000Y-107957252D01*
X154913000Y-107434748D02*
X154913000Y-107957252D01*
%TO.C,C1*%
X133123000Y-101353252D02*
X133123000Y-100830748D01*
X134593000Y-101353252D02*
X134593000Y-100830748D01*
%TO.C,U2*%
X126473250Y-106982750D02*
X125673250Y-106982750D01*
X126473250Y-106982750D02*
X127273250Y-106982750D01*
X126473250Y-110102750D02*
X124673250Y-110102750D01*
X126473250Y-110102750D02*
X127273250Y-110102750D01*
%TO.C,R11*%
X129821000Y-108685064D02*
X129821000Y-108230936D01*
X131291000Y-108685064D02*
X131291000Y-108230936D01*
%TO.C,R6*%
X166142936Y-103405000D02*
X166597064Y-103405000D01*
X166142936Y-104875000D02*
X166597064Y-104875000D01*
%TO.C,R2*%
X130582936Y-101119000D02*
X131037064Y-101119000D01*
X130582936Y-102589000D02*
X131037064Y-102589000D01*
%TO.C,C50*%
X119134250Y-107519498D02*
X119134250Y-108042002D01*
X120604250Y-107519498D02*
X120604250Y-108042002D01*
%TO.C,C11*%
X148617000Y-101353252D02*
X148617000Y-100830748D01*
X150087000Y-101353252D02*
X150087000Y-100830748D01*
%TO.C,C8*%
X132361000Y-108196748D02*
X132361000Y-108719252D01*
X133831000Y-108196748D02*
X133831000Y-108719252D01*
%TO.C,R4*%
X124129436Y-101119000D02*
X124583564Y-101119000D01*
X124129436Y-102589000D02*
X124583564Y-102589000D01*
%TO.C,C4*%
X150395000Y-107434748D02*
X150395000Y-107957252D01*
X151865000Y-107434748D02*
X151865000Y-107957252D01*
%TO.C,R5*%
X116848250Y-108007814D02*
X116848250Y-107553686D01*
X118318250Y-108007814D02*
X118318250Y-107553686D01*
%TO.C,R7*%
X166651000Y-101319064D02*
X166651000Y-100864936D01*
X168121000Y-101319064D02*
X168121000Y-100864936D01*
%TO.C,R9*%
X126754186Y-104759750D02*
X127208314Y-104759750D01*
X126754186Y-106229750D02*
X127208314Y-106229750D01*
%TO.C,D1*%
X162976000Y-106292000D02*
X164176000Y-106292000D01*
X162976000Y-108142000D02*
X162976000Y-106292000D01*
X164176000Y-108142000D02*
X164176000Y-106292000D01*
%TO.C,C6*%
X120169000Y-101353252D02*
X120169000Y-100830748D01*
X121639000Y-101353252D02*
X121639000Y-100830748D01*
%TO.C,U3*%
X162168000Y-99482000D02*
X165118000Y-99482000D01*
X163968000Y-102702000D02*
X162168000Y-102702000D01*
%TO.C,C5*%
X126773000Y-101353252D02*
X126773000Y-100830748D01*
X128243000Y-101353252D02*
X128243000Y-100830748D01*
%TO.C,R3*%
X147092936Y-106199000D02*
X147547064Y-106199000D01*
X147092936Y-107669000D02*
X147547064Y-107669000D01*
%TO.C,C10*%
X151157000Y-101353252D02*
X151157000Y-100830748D01*
X152627000Y-101353252D02*
X152627000Y-100830748D01*
%TO.C,C2*%
X162298748Y-103659000D02*
X162821252Y-103659000D01*
X162298748Y-105129000D02*
X162821252Y-105129000D01*
%TO.C,C7*%
X135155000Y-106926748D02*
X135155000Y-107449252D01*
X136625000Y-106926748D02*
X136625000Y-107449252D01*
%TO.C,R10*%
X121947000Y-107311564D02*
X121947000Y-106857436D01*
X123417000Y-107311564D02*
X123417000Y-106857436D01*
%TD*%
M02*
