%TF.GenerationSoftware,KiCad,Pcbnew,9.0.1+1*%
%TF.CreationDate,2025-09-21T20:30:55+00:00*%
%TF.ProjectId,USTSIPM01,55535453-4950-44d3-9031-2e6b69636164,rev?*%
%TF.SameCoordinates,Original*%
%TF.FileFunction,Copper,L2,Bot*%
%TF.FilePolarity,Positive*%
%FSLAX46Y46*%
G04 Gerber Fmt 4.6, Leading zero omitted, Abs format (unit mm)*
G04 Created by KiCad (PCBNEW 9.0.1+1) date 2025-09-21 20:30:55*
%MOMM*%
%LPD*%
G01*
G04 APERTURE LIST*
G04 Aperture macros list*
%AMRoundRect*
0 Rectangle with rounded corners*
0 $1 Rounding radius*
0 $2 $3 $4 $5 $6 $7 $8 $9 X,Y pos of 4 corners*
0 Add a 4 corners polygon primitive as box body*
4,1,4,$2,$3,$4,$5,$6,$7,$8,$9,$2,$3,0*
0 Add four circle primitives for the rounded corners*
1,1,$1+$1,$2,$3*
1,1,$1+$1,$4,$5*
1,1,$1+$1,$6,$7*
1,1,$1+$1,$8,$9*
0 Add four rect primitives between the rounded corners*
20,1,$1+$1,$2,$3,$4,$5,0*
20,1,$1+$1,$4,$5,$6,$7,0*
20,1,$1+$1,$6,$7,$8,$9,0*
20,1,$1+$1,$8,$9,$2,$3,0*%
G04 Aperture macros list end*
%TA.AperFunction,ComponentPad*%
%ADD10R,1.524000X1.524000*%
%TD*%
%TA.AperFunction,SMDPad,CuDef*%
%ADD11RoundRect,0.250000X-0.262500X-0.450000X0.262500X-0.450000X0.262500X0.450000X-0.262500X0.450000X0*%
%TD*%
%TA.AperFunction,SMDPad,CuDef*%
%ADD12RoundRect,0.250000X0.475000X-0.250000X0.475000X0.250000X-0.475000X0.250000X-0.475000X-0.250000X0*%
%TD*%
%TA.AperFunction,SMDPad,CuDef*%
%ADD13RoundRect,0.250000X-0.475000X0.250000X-0.475000X-0.250000X0.475000X-0.250000X0.475000X0.250000X0*%
%TD*%
%TA.AperFunction,SMDPad,CuDef*%
%ADD14RoundRect,0.250001X1.074999X-0.462499X1.074999X0.462499X-1.074999X0.462499X-1.074999X-0.462499X0*%
%TD*%
%TA.AperFunction,SMDPad,CuDef*%
%ADD15R,0.600000X0.700000*%
%TD*%
%TA.AperFunction,SMDPad,CuDef*%
%ADD16RoundRect,0.250000X0.450000X-0.262500X0.450000X0.262500X-0.450000X0.262500X-0.450000X-0.262500X0*%
%TD*%
%TA.AperFunction,SMDPad,CuDef*%
%ADD17RoundRect,0.150000X-0.512500X-0.150000X0.512500X-0.150000X0.512500X0.150000X-0.512500X0.150000X0*%
%TD*%
%TA.AperFunction,SMDPad,CuDef*%
%ADD18R,0.700000X0.600000*%
%TD*%
%TA.AperFunction,SMDPad,CuDef*%
%ADD19R,1.560000X0.650000*%
%TD*%
%TA.AperFunction,SMDPad,CuDef*%
%ADD20RoundRect,0.250000X-0.250000X-0.475000X0.250000X-0.475000X0.250000X0.475000X-0.250000X0.475000X0*%
%TD*%
%TA.AperFunction,ViaPad*%
%ADD21C,0.800000*%
%TD*%
%TA.AperFunction,Conductor*%
%ADD22C,0.600000*%
%TD*%
%TA.AperFunction,Conductor*%
%ADD23C,0.400000*%
%TD*%
G04 APERTURE END LIST*
D10*
%TO.P,J4,1*%
%TO.N,GND*%
X170434000Y-105784000D03*
%TO.P,J4,2*%
X172974000Y-105784000D03*
%TD*%
%TO.P,J6,1*%
%TO.N,GND*%
X170434000Y-100704000D03*
%TO.P,J6,2*%
X172974000Y-100704000D03*
%TD*%
%TO.P,J5,1*%
%TO.N,/+3V6*%
X170434000Y-103244000D03*
%TO.P,J5,2*%
X172974000Y-103244000D03*
%TD*%
%TO.P,J8,1*%
%TO.N,/OUT*%
X170434000Y-108324000D03*
%TO.P,J8,2*%
X172974000Y-108324000D03*
%TD*%
%TO.P,J9,1*%
%TO.N,GND*%
X170434000Y-110864000D03*
%TO.P,J9,2*%
X172974000Y-110864000D03*
%TD*%
D11*
%TO.P,R13,1*%
%TO.N,31V7*%
X145391500Y-101854000D03*
%TO.P,R13,2*%
%TO.N,Net-(D2-K)*%
X147216500Y-101854000D03*
%TD*%
D12*
%TO.P,C12,1*%
%TO.N,31V7*%
X143256000Y-102042000D03*
%TO.P,C12,2*%
%TO.N,GND*%
X143256000Y-100142000D03*
%TD*%
%TO.P,C9,1*%
%TO.N,Net-(U1-K)*%
X118364000Y-102042000D03*
%TO.P,C9,2*%
%TO.N,GND*%
X118364000Y-100142000D03*
%TD*%
%TO.P,C13,1*%
%TO.N,31V7*%
X140462000Y-102042000D03*
%TO.P,C13,2*%
%TO.N,GND*%
X140462000Y-100142000D03*
%TD*%
D13*
%TO.P,C14,1*%
%TO.N,/+3V6*%
X157226000Y-106746000D03*
%TO.P,C14,2*%
%TO.N,GND*%
X157226000Y-108646000D03*
%TD*%
D14*
%TO.P,L1,1*%
%TO.N,/+3V6*%
X158496000Y-103341500D03*
%TO.P,L1,2*%
%TO.N,Net-(D2-A)*%
X158496000Y-100366500D03*
%TD*%
D15*
%TO.P,D2,1,K*%
%TO.N,Net-(D2-K)*%
X154240000Y-101346000D03*
%TO.P,D2,2,A*%
%TO.N,Net-(D2-A)*%
X155640000Y-101346000D03*
%TD*%
D11*
%TO.P,R1,1*%
%TO.N,Net-(C1-Pad1)*%
X136247500Y-101854000D03*
%TO.P,R1,2*%
%TO.N,31V7*%
X138072500Y-101854000D03*
%TD*%
D13*
%TO.P,C3,1*%
%TO.N,/+3V6*%
X160274000Y-106746000D03*
%TO.P,C3,2*%
%TO.N,GND*%
X160274000Y-108646000D03*
%TD*%
D16*
%TO.P,R12,1*%
%TO.N,/OUT*%
X122174000Y-111656500D03*
%TO.P,R12,2*%
%TO.N,Net-(R10-Pad1)*%
X122174000Y-109831500D03*
%TD*%
D13*
%TO.P,C15,1*%
%TO.N,/+3V6*%
X154178000Y-106746000D03*
%TO.P,C15,2*%
%TO.N,GND*%
X154178000Y-108646000D03*
%TD*%
D12*
%TO.P,C1,1*%
%TO.N,Net-(C1-Pad1)*%
X133858000Y-102042000D03*
%TO.P,C1,2*%
%TO.N,GND*%
X133858000Y-100142000D03*
%TD*%
D17*
%TO.P,U2,1*%
%TO.N,Net-(R10-Pad1)*%
X125335750Y-109492750D03*
%TO.P,U2,2,V-*%
%TO.N,GND*%
X125335750Y-108542750D03*
%TO.P,U2,3,+*%
%TO.N,Net-(U1-A)*%
X125335750Y-107592750D03*
%TO.P,U2,4,-*%
%TO.N,Net-(U2--)*%
X127610750Y-107592750D03*
%TO.P,U2,5,~{DIS}*%
%TO.N,Net-(U2-~{DIS})*%
X127610750Y-108542750D03*
%TO.P,U2,6,V+*%
%TO.N,+3V3*%
X127610750Y-109492750D03*
%TD*%
D16*
%TO.P,R11,1*%
%TO.N,+3V3*%
X130556000Y-109370500D03*
%TO.P,R11,2*%
%TO.N,Net-(U2-~{DIS})*%
X130556000Y-107545500D03*
%TD*%
D11*
%TO.P,R6,1*%
%TO.N,Net-(D2-K)*%
X165457500Y-104140000D03*
%TO.P,R6,2*%
%TO.N,/FB*%
X167282500Y-104140000D03*
%TD*%
%TO.P,R2,1*%
%TO.N,Net-(C5-Pad1)*%
X129897500Y-101854000D03*
%TO.P,R2,2*%
%TO.N,Net-(C1-Pad1)*%
X131722500Y-101854000D03*
%TD*%
D13*
%TO.P,C50,1*%
%TO.N,Net-(U1-A)*%
X119869250Y-106830750D03*
%TO.P,C50,2*%
%TO.N,GND*%
X119869250Y-108730750D03*
%TD*%
D12*
%TO.P,C11,1*%
%TO.N,Net-(D2-K)*%
X149352000Y-102042000D03*
%TO.P,C11,2*%
%TO.N,GND*%
X149352000Y-100142000D03*
%TD*%
D13*
%TO.P,C8,1*%
%TO.N,+3V3*%
X133096000Y-107508000D03*
%TO.P,C8,2*%
%TO.N,GND*%
X133096000Y-109408000D03*
%TD*%
D11*
%TO.P,R4,1*%
%TO.N,Net-(U1-K)*%
X123444000Y-101854000D03*
%TO.P,R4,2*%
%TO.N,Net-(C5-Pad1)*%
X125269000Y-101854000D03*
%TD*%
D13*
%TO.P,C4,1*%
%TO.N,/+3V6*%
X151130000Y-106746000D03*
%TO.P,C4,2*%
%TO.N,GND*%
X151130000Y-108646000D03*
%TD*%
D16*
%TO.P,R5,1*%
%TO.N,GND*%
X117583250Y-108693250D03*
%TO.P,R5,2*%
%TO.N,Net-(U1-A)*%
X117583250Y-106868250D03*
%TD*%
%TO.P,R7,1*%
%TO.N,/FB*%
X167386000Y-102004500D03*
%TO.P,R7,2*%
%TO.N,GND*%
X167386000Y-100179500D03*
%TD*%
D11*
%TO.P,R9,1*%
%TO.N,Net-(U2--)*%
X126068750Y-105494750D03*
%TO.P,R9,2*%
%TO.N,GND*%
X127893750Y-105494750D03*
%TD*%
D18*
%TO.P,D1,1,K*%
%TO.N,/+3V6*%
X163576000Y-106742000D03*
%TO.P,D1,2,A*%
%TO.N,GND*%
X163576000Y-108142000D03*
%TD*%
D12*
%TO.P,C6,1*%
%TO.N,Net-(U1-K)*%
X120904000Y-102042000D03*
%TO.P,C6,2*%
%TO.N,GND*%
X120904000Y-100142000D03*
%TD*%
D19*
%TO.P,U3,1,PGND*%
%TO.N,GND*%
X164418000Y-100142000D03*
%TO.P,U3,2,GND*%
X164418000Y-101092000D03*
%TO.P,U3,3,FB*%
%TO.N,/FB*%
X164418000Y-102042000D03*
%TO.P,U3,4,SHDN*%
%TO.N,/+3V6*%
X161718000Y-102042000D03*
%TO.P,U3,5,VCC*%
X161718000Y-101092000D03*
%TO.P,U3,6,LX*%
%TO.N,Net-(D2-A)*%
X161718000Y-100142000D03*
%TD*%
D12*
%TO.P,C5,1*%
%TO.N,Net-(C5-Pad1)*%
X127508000Y-102042000D03*
%TO.P,C5,2*%
%TO.N,GND*%
X127508000Y-100142000D03*
%TD*%
D11*
%TO.P,R3,1*%
%TO.N,+3V3*%
X146407500Y-106934000D03*
%TO.P,R3,2*%
%TO.N,/+3V6*%
X148232500Y-106934000D03*
%TD*%
D12*
%TO.P,C10,1*%
%TO.N,Net-(D2-K)*%
X151892000Y-102042000D03*
%TO.P,C10,2*%
%TO.N,GND*%
X151892000Y-100142000D03*
%TD*%
D20*
%TO.P,C2,1*%
%TO.N,/+3V6*%
X161610000Y-104394000D03*
%TO.P,C2,2*%
%TO.N,GND*%
X163510000Y-104394000D03*
%TD*%
D13*
%TO.P,C7,1*%
%TO.N,+3V3*%
X135890000Y-106238000D03*
%TO.P,C7,2*%
%TO.N,GND*%
X135890000Y-108138000D03*
%TD*%
D16*
%TO.P,R10,1*%
%TO.N,Net-(R10-Pad1)*%
X122682000Y-107997000D03*
%TO.P,R10,2*%
%TO.N,Net-(U2--)*%
X122682000Y-106172000D03*
%TD*%
D21*
%TO.N,GND*%
X129540000Y-110744000D03*
X151892000Y-112268000D03*
X116586000Y-104394000D03*
X145542000Y-104902000D03*
X137160000Y-99822000D03*
X151638000Y-104902000D03*
X144018000Y-109982000D03*
X154940000Y-99822000D03*
X118872000Y-112014000D03*
X139446000Y-104902000D03*
X154178000Y-109982000D03*
X131318000Y-110744000D03*
X135890000Y-110490000D03*
X158496000Y-101854000D03*
X116332000Y-109982000D03*
X129794000Y-103632000D03*
X168656000Y-109474000D03*
X140970000Y-112268000D03*
X144018000Y-104902000D03*
X132842000Y-103632000D03*
X137668000Y-109728000D03*
X154178000Y-105156000D03*
X148590000Y-109982000D03*
X153162000Y-104140000D03*
X163576000Y-109474000D03*
X165862000Y-101092000D03*
X155702000Y-105918000D03*
X163322000Y-112268000D03*
X155702000Y-103886000D03*
X116586000Y-99822000D03*
X134366000Y-104902000D03*
X151384000Y-109982000D03*
X160782000Y-112268000D03*
X137922000Y-104902000D03*
X129794000Y-105664000D03*
X157734000Y-112268000D03*
X122682000Y-99822000D03*
X148590000Y-112268000D03*
X135890000Y-104648000D03*
X148590000Y-104902000D03*
X156972000Y-109982000D03*
X167132000Y-109728000D03*
X146304000Y-100076000D03*
X134874000Y-109728000D03*
X165354000Y-107950000D03*
X132842000Y-105664000D03*
X158750000Y-105918000D03*
X155448000Y-102616000D03*
X150114000Y-104902000D03*
X140970000Y-109982000D03*
X145796000Y-109982000D03*
X160020000Y-109982000D03*
X117094000Y-112014000D03*
X147066000Y-104902000D03*
X133350000Y-110744000D03*
X140970000Y-104902000D03*
X154686000Y-112268000D03*
X168402000Y-106934000D03*
X164846000Y-111760000D03*
X142494000Y-104902000D03*
X131318000Y-105664000D03*
X144272000Y-112268000D03*
X166116000Y-110744000D03*
X130556000Y-99822000D03*
%TO.N,Net-(U1-K)*%
X125476000Y-100076000D03*
%TO.N,Net-(D2-K)*%
X164846000Y-105156000D03*
X160020000Y-104902000D03*
%TO.N,Net-(U1-A)*%
X117094000Y-105918000D03*
%TD*%
D22*
%TO.N,Net-(C1-Pad1)*%
X134046000Y-101854000D02*
X133858000Y-102042000D01*
X136247500Y-101854000D02*
X134046000Y-101854000D01*
X133858000Y-102042000D02*
X131910500Y-102042000D01*
X131910500Y-102042000D02*
X131722500Y-101854000D01*
%TO.N,GND*%
X163068000Y-101287978D02*
X163068000Y-103952000D01*
X164418000Y-101092000D02*
X164418000Y-100142000D01*
X170283500Y-100179500D02*
X170434000Y-100330000D01*
X163068000Y-103952000D02*
X163510000Y-104394000D01*
X164418000Y-101092000D02*
X163263978Y-101092000D01*
X167348500Y-100142000D02*
X167386000Y-100179500D01*
X164418000Y-100142000D02*
X167348500Y-100142000D01*
X163263978Y-101092000D02*
X163068000Y-101287978D01*
%TO.N,Net-(U1-K)*%
X120904000Y-102042000D02*
X123256000Y-102042000D01*
X118364000Y-102042000D02*
X120904000Y-102042000D01*
X125222000Y-100076000D02*
X125476000Y-100076000D01*
X123444000Y-101854000D02*
X125222000Y-100076000D01*
X123256000Y-102042000D02*
X123444000Y-101854000D01*
D23*
%TO.N,/+3V6*%
X151130000Y-106746000D02*
X154178000Y-106746000D01*
X157226000Y-106746000D02*
X160274000Y-106746000D01*
D22*
X170434000Y-103244000D02*
X172974000Y-103244000D01*
D23*
X154178000Y-106746000D02*
X157226000Y-106746000D01*
D22*
X164846000Y-106742000D02*
X166452981Y-106742000D01*
X170434000Y-103244000D02*
X170434000Y-103378000D01*
X161606000Y-106742000D02*
X160278000Y-106742000D01*
X161580500Y-103341500D02*
X161610000Y-103312000D01*
X158496000Y-103341500D02*
X161580500Y-103341500D01*
D23*
X148232500Y-106934000D02*
X150942000Y-106934000D01*
D22*
X167070000Y-106742000D02*
X166452981Y-106742000D01*
X161610000Y-104394000D02*
X161610000Y-106738000D01*
X170070981Y-103124000D02*
X172974000Y-103124000D01*
X170434000Y-103378000D02*
X167070000Y-106742000D01*
X161718000Y-101092000D02*
X161718000Y-102042000D01*
X161610000Y-103312000D02*
X161610000Y-102150000D01*
X164846000Y-106742000D02*
X161606000Y-106742000D01*
X161610000Y-102150000D02*
X161718000Y-102042000D01*
X161610000Y-104394000D02*
X161610000Y-103312000D01*
X160278000Y-106742000D02*
X160274000Y-106746000D01*
D23*
X150942000Y-106934000D02*
X151130000Y-106746000D01*
D22*
X161610000Y-106738000D02*
X161606000Y-106742000D01*
%TO.N,Net-(C5-Pad1)*%
X127508000Y-102042000D02*
X125457000Y-102042000D01*
X129709500Y-102042000D02*
X129897500Y-101854000D01*
X127508000Y-102042000D02*
X129709500Y-102042000D01*
X125457000Y-102042000D02*
X125269000Y-101854000D01*
D23*
%TO.N,Net-(D2-K)*%
X152212000Y-102042000D02*
X152908000Y-101346000D01*
X152908000Y-101346000D02*
X154240000Y-101346000D01*
X154240000Y-101346000D02*
X154240000Y-103694000D01*
X154240000Y-103694000D02*
X155194000Y-104648000D01*
X155448000Y-104902000D02*
X160020000Y-104902000D01*
X155194000Y-104648000D02*
X155448000Y-104902000D01*
X147404500Y-102042000D02*
X147216500Y-101854000D01*
D22*
X165457500Y-104140000D02*
X165457500Y-104544500D01*
D23*
X151892000Y-102042000D02*
X152212000Y-102042000D01*
X149352000Y-102042000D02*
X147404500Y-102042000D01*
D22*
X165457500Y-104544500D02*
X164846000Y-105156000D01*
D23*
X151892000Y-102042000D02*
X149352000Y-102042000D01*
%TO.N,+3V3*%
X131233500Y-109370500D02*
X133096000Y-107508000D01*
X130556000Y-109370500D02*
X131233500Y-109370500D01*
X130433750Y-109492750D02*
X130556000Y-109370500D01*
X135890000Y-106238000D02*
X145711500Y-106238000D01*
X135890000Y-106238000D02*
X134366000Y-106238000D01*
X145711500Y-106238000D02*
X146407500Y-106934000D01*
X134366000Y-106238000D02*
X133096000Y-107508000D01*
X127610750Y-109492750D02*
X130433750Y-109492750D01*
D22*
%TO.N,31V7*%
X143256000Y-102042000D02*
X145203500Y-102042000D01*
X145203500Y-102042000D02*
X145391500Y-101854000D01*
X140462000Y-102042000D02*
X138260500Y-102042000D01*
X143256000Y-102042000D02*
X140462000Y-102042000D01*
X138260500Y-102042000D02*
X138072500Y-101854000D01*
D23*
%TO.N,Net-(U1-A)*%
X117583250Y-106868250D02*
X119869250Y-106868250D01*
X124610750Y-107592750D02*
X124102020Y-107084020D01*
D22*
X117094000Y-106379000D02*
X117583250Y-106868250D01*
D23*
X124102020Y-107084020D02*
X120085020Y-107084020D01*
D22*
X117094000Y-105918000D02*
X117094000Y-106379000D01*
D23*
X120085020Y-107084020D02*
X119869250Y-106868250D01*
X125335750Y-107592750D02*
X124610750Y-107592750D01*
X125335750Y-107592750D02*
X125270230Y-107527230D01*
D22*
%TO.N,Net-(D2-A)*%
X158720500Y-100142000D02*
X158496000Y-100366500D01*
X158496000Y-100366500D02*
X157951500Y-100366500D01*
X161718000Y-100142000D02*
X158720500Y-100142000D01*
X157951500Y-100366500D02*
X156972000Y-101346000D01*
X156972000Y-101346000D02*
X155640000Y-101346000D01*
D23*
%TO.N,/OUT*%
X121920000Y-111995250D02*
X136924750Y-111995250D01*
X166758000Y-108324000D02*
X170434000Y-108324000D01*
X172974000Y-108324000D02*
X170434000Y-108324000D01*
X166758000Y-108324000D02*
X166370000Y-108712000D01*
X164084000Y-110998000D02*
X166758000Y-108324000D01*
X137922000Y-110998000D02*
X164084000Y-110998000D01*
X164084000Y-110998000D02*
X166370000Y-108712000D01*
X136924750Y-111995250D02*
X137922000Y-110998000D01*
%TO.N,/FB*%
X167348500Y-102042000D02*
X167386000Y-102004500D01*
X167386000Y-102004500D02*
X167386000Y-103989500D01*
X164418000Y-102042000D02*
X167348500Y-102042000D01*
%TO.N,Net-(U2--)*%
X127508000Y-106934000D02*
X126068750Y-105494750D01*
X122682000Y-106172000D02*
X123359250Y-105494750D01*
X127610750Y-107592750D02*
X127508000Y-107490000D01*
X127508000Y-107490000D02*
X127508000Y-106934000D01*
X123359250Y-105494750D02*
X126068750Y-105494750D01*
%TO.N,Net-(U2-~{DIS})*%
X127610750Y-108542750D02*
X129558750Y-108542750D01*
X129558750Y-108542750D02*
X130556000Y-107545500D01*
%TO.N,Net-(R10-Pad1)*%
X122663250Y-108439250D02*
X122663250Y-109427000D01*
X122663250Y-109427000D02*
X121920000Y-110170250D01*
X123716750Y-109492750D02*
X124187250Y-109492750D01*
X122729000Y-109492750D02*
X122663250Y-109427000D01*
X124187250Y-109492750D02*
X122729000Y-109492750D01*
X124187250Y-109492750D02*
X125335750Y-109492750D01*
%TD*%
%TA.AperFunction,Conductor*%
%TO.N,GND*%
G36*
X160579621Y-100762502D02*
G01*
X160626114Y-100816158D01*
X160637500Y-100868500D01*
X160637500Y-101461859D01*
X160637501Y-101461866D01*
X160640415Y-101486992D01*
X160653270Y-101516106D01*
X160662488Y-101586502D01*
X160653271Y-101617892D01*
X160640414Y-101647009D01*
X160637500Y-101672129D01*
X160637500Y-102411859D01*
X160637501Y-102411866D01*
X160640414Y-102436990D01*
X160640416Y-102436994D01*
X160685793Y-102539763D01*
X160688554Y-102543794D01*
X160710549Y-102611298D01*
X160692557Y-102679977D01*
X160640290Y-102728026D01*
X160584603Y-102741000D01*
X160194093Y-102741000D01*
X160125972Y-102720998D01*
X160079479Y-102667342D01*
X160076878Y-102661223D01*
X160055362Y-102606661D01*
X160055361Y-102606658D01*
X159963922Y-102486078D01*
X159843342Y-102394639D01*
X159843340Y-102394638D01*
X159702566Y-102339124D01*
X159702561Y-102339123D01*
X159628080Y-102330179D01*
X159614099Y-102328500D01*
X159614098Y-102328500D01*
X157377906Y-102328500D01*
X157377897Y-102328501D01*
X157289436Y-102339123D01*
X157148659Y-102394638D01*
X157028078Y-102486078D01*
X156936638Y-102606659D01*
X156881124Y-102747433D01*
X156881123Y-102747438D01*
X156870500Y-102835899D01*
X156870500Y-103847093D01*
X156870501Y-103847102D01*
X156881123Y-103935563D01*
X156936502Y-104075994D01*
X156936639Y-104076342D01*
X157028078Y-104196922D01*
X157028079Y-104196923D01*
X157029932Y-104199366D01*
X157055155Y-104265731D01*
X157040494Y-104335198D01*
X156990605Y-104385711D01*
X156929534Y-104401500D01*
X155707504Y-104401500D01*
X155639383Y-104381498D01*
X155618409Y-104364595D01*
X154777405Y-103523591D01*
X154743379Y-103461279D01*
X154740500Y-103434496D01*
X154740500Y-101972661D01*
X154757516Y-101909427D01*
X154765770Y-101895200D01*
X154792206Y-101868765D01*
X154827541Y-101788738D01*
X154831015Y-101782751D01*
X154851936Y-101762888D01*
X154870547Y-101740855D01*
X154877344Y-101738765D01*
X154882503Y-101733868D01*
X154910838Y-101728470D01*
X154938410Y-101719995D01*
X154945259Y-101721912D01*
X154952245Y-101720582D01*
X154978995Y-101731357D01*
X155006777Y-101739136D01*
X155011502Y-101744452D01*
X155018099Y-101747110D01*
X155034778Y-101770639D01*
X155053943Y-101792201D01*
X155055263Y-101795090D01*
X155087794Y-101868765D01*
X155087795Y-101868767D01*
X155167232Y-101948204D01*
X155167234Y-101948205D01*
X155167235Y-101948206D01*
X155270009Y-101993585D01*
X155295135Y-101996500D01*
X155984864Y-101996499D01*
X156009991Y-101993585D01*
X156092314Y-101957236D01*
X156143208Y-101946500D01*
X156885209Y-101946500D01*
X156885225Y-101946501D01*
X156892943Y-101946501D01*
X157051054Y-101946501D01*
X157051057Y-101946501D01*
X157203785Y-101905577D01*
X157267545Y-101868765D01*
X157267546Y-101868765D01*
X157340709Y-101826524D01*
X157340708Y-101826524D01*
X157340716Y-101826520D01*
X157452520Y-101714716D01*
X157462885Y-101704351D01*
X157462891Y-101704342D01*
X157750832Y-101416401D01*
X157813142Y-101382378D01*
X157839925Y-101379499D01*
X159614093Y-101379499D01*
X159614098Y-101379499D01*
X159702564Y-101368876D01*
X159843342Y-101313361D01*
X159963922Y-101221922D01*
X160055361Y-101101342D01*
X160110876Y-100960564D01*
X160121500Y-100872099D01*
X160121500Y-100868500D01*
X160141502Y-100800379D01*
X160195158Y-100753886D01*
X160247500Y-100742500D01*
X160511500Y-100742500D01*
X160579621Y-100762502D01*
G37*
%TD.AperFunction*%
%TA.AperFunction,Conductor*%
G36*
X174757621Y-98804502D02*
G01*
X174804114Y-98858158D01*
X174815500Y-98910500D01*
X174815500Y-112657500D01*
X174795498Y-112725621D01*
X174741842Y-112772114D01*
X174689500Y-112783500D01*
X115942500Y-112783500D01*
X115874379Y-112763498D01*
X115827886Y-112709842D01*
X115816500Y-112657500D01*
X115816500Y-105849004D01*
X116393500Y-105849004D01*
X116393500Y-105986995D01*
X116420420Y-106122328D01*
X116420421Y-106122331D01*
X116473228Y-106249819D01*
X116476144Y-106255274D01*
X116474669Y-106256061D01*
X116493479Y-106316117D01*
X116493499Y-106318375D01*
X116493499Y-106458057D01*
X116534423Y-106610785D01*
X116562227Y-106658943D01*
X116562228Y-106658945D01*
X116562227Y-106658945D01*
X116565864Y-106665243D01*
X116582750Y-106728251D01*
X116582750Y-107173855D01*
X116593372Y-107262314D01*
X116648888Y-107403091D01*
X116648891Y-107403095D01*
X116740327Y-107523672D01*
X116860904Y-107615108D01*
X116860908Y-107615111D01*
X117001685Y-107670627D01*
X117001684Y-107670627D01*
X117029644Y-107673984D01*
X117090148Y-107681250D01*
X117090151Y-107681250D01*
X118076349Y-107681250D01*
X118076352Y-107681250D01*
X118164814Y-107670627D01*
X118305592Y-107615111D01*
X118426172Y-107523672D01*
X118475789Y-107458243D01*
X118505839Y-107418616D01*
X118509250Y-107416095D01*
X118511012Y-107412238D01*
X118537550Y-107395182D01*
X118562937Y-107376423D01*
X118568188Y-107375492D01*
X118570738Y-107373854D01*
X118606236Y-107368750D01*
X118859180Y-107368750D01*
X118927301Y-107388752D01*
X118959577Y-107418616D01*
X119001327Y-107473672D01*
X119121904Y-107565108D01*
X119121908Y-107565111D01*
X119262685Y-107620627D01*
X119262684Y-107620627D01*
X119290644Y-107623984D01*
X119351148Y-107631250D01*
X119351151Y-107631250D01*
X120387349Y-107631250D01*
X120387352Y-107631250D01*
X120475814Y-107620627D01*
X120545097Y-107593304D01*
X120591321Y-107584520D01*
X121555500Y-107584520D01*
X121623621Y-107604522D01*
X121670114Y-107658178D01*
X121681500Y-107710520D01*
X121681500Y-108302605D01*
X121692122Y-108391064D01*
X121747638Y-108531841D01*
X121747641Y-108531845D01*
X121839077Y-108652422D01*
X121959654Y-108743858D01*
X121959658Y-108743861D01*
X122039343Y-108775285D01*
X122095376Y-108818883D01*
X122118944Y-108885854D01*
X122102562Y-108954935D01*
X122051434Y-109004193D01*
X121993119Y-109018500D01*
X121680894Y-109018500D01*
X121592435Y-109029122D01*
X121451658Y-109084638D01*
X121451654Y-109084641D01*
X121331077Y-109176077D01*
X121239641Y-109296654D01*
X121239638Y-109296658D01*
X121184122Y-109437435D01*
X121173500Y-109525894D01*
X121173500Y-110137105D01*
X121184123Y-110225564D01*
X121184122Y-110225564D01*
X121239638Y-110366341D01*
X121239641Y-110366345D01*
X121331077Y-110486922D01*
X121451654Y-110578358D01*
X121451658Y-110578361D01*
X121574451Y-110626785D01*
X121630484Y-110670383D01*
X121654052Y-110737354D01*
X121637670Y-110806435D01*
X121586542Y-110855693D01*
X121574451Y-110861215D01*
X121451658Y-110909638D01*
X121451654Y-110909641D01*
X121331077Y-111001077D01*
X121239641Y-111121654D01*
X121239638Y-111121658D01*
X121184122Y-111262435D01*
X121173500Y-111350894D01*
X121173500Y-111962105D01*
X121184122Y-112050564D01*
X121239638Y-112191341D01*
X121239641Y-112191345D01*
X121331077Y-112311922D01*
X121451654Y-112403358D01*
X121451658Y-112403361D01*
X121592435Y-112458877D01*
X121592434Y-112458877D01*
X121615436Y-112461639D01*
X121680898Y-112469500D01*
X121739552Y-112469500D01*
X121772162Y-112473792D01*
X121854108Y-112495750D01*
X121854109Y-112495750D01*
X136990640Y-112495750D01*
X136990642Y-112495750D01*
X137117936Y-112461642D01*
X137232064Y-112395750D01*
X138092410Y-111535403D01*
X138154721Y-111501380D01*
X138181504Y-111498500D01*
X164149890Y-111498500D01*
X164149892Y-111498500D01*
X164277186Y-111464392D01*
X164391314Y-111398500D01*
X165564250Y-110225564D01*
X165732613Y-110057201D01*
X169372000Y-110057201D01*
X169372000Y-110714000D01*
X170014012Y-110714000D01*
X169989500Y-110805480D01*
X169989500Y-110922520D01*
X170014012Y-111014000D01*
X169372001Y-111014000D01*
X169372001Y-111670794D01*
X169374909Y-111695873D01*
X169374911Y-111695878D01*
X169420212Y-111798477D01*
X169499520Y-111877785D01*
X169499522Y-111877786D01*
X169602126Y-111923090D01*
X169602125Y-111923090D01*
X169627203Y-111925999D01*
X170284000Y-111925999D01*
X170284000Y-111283987D01*
X170375480Y-111308500D01*
X170492520Y-111308500D01*
X170584000Y-111283987D01*
X170584000Y-111925999D01*
X171240789Y-111925999D01*
X171240794Y-111925998D01*
X171265873Y-111923090D01*
X171265878Y-111923088D01*
X171368477Y-111877787D01*
X171447785Y-111798479D01*
X171447786Y-111798477D01*
X171493090Y-111695873D01*
X171495999Y-111670798D01*
X171496000Y-111670795D01*
X171496000Y-111014000D01*
X170853988Y-111014000D01*
X170878500Y-110922520D01*
X170878500Y-110805480D01*
X170853988Y-110714000D01*
X171495999Y-110714000D01*
X171495999Y-110057212D01*
X171495998Y-110057204D01*
X171495998Y-110057201D01*
X171912000Y-110057201D01*
X171912000Y-110714000D01*
X172554012Y-110714000D01*
X172529500Y-110805480D01*
X172529500Y-110922520D01*
X172554012Y-111014000D01*
X171912001Y-111014000D01*
X171912001Y-111670794D01*
X171914909Y-111695873D01*
X171914911Y-111695878D01*
X171960212Y-111798477D01*
X172039520Y-111877785D01*
X172039522Y-111877786D01*
X172142126Y-111923090D01*
X172142125Y-111923090D01*
X172167203Y-111925999D01*
X172824000Y-111925999D01*
X172824000Y-111283987D01*
X172915480Y-111308500D01*
X173032520Y-111308500D01*
X173124000Y-111283987D01*
X173124000Y-111925999D01*
X173780789Y-111925999D01*
X173780794Y-111925998D01*
X173805873Y-111923090D01*
X173805878Y-111923088D01*
X173908477Y-111877787D01*
X173987785Y-111798479D01*
X173987786Y-111798477D01*
X174033090Y-111695873D01*
X174035999Y-111670798D01*
X174036000Y-111670795D01*
X174036000Y-111014000D01*
X173393988Y-111014000D01*
X173418500Y-110922520D01*
X173418500Y-110805480D01*
X173393988Y-110714000D01*
X174035999Y-110714000D01*
X174035999Y-110057211D01*
X174035998Y-110057205D01*
X174033090Y-110032126D01*
X174033088Y-110032121D01*
X173987787Y-109929522D01*
X173908479Y-109850214D01*
X173908477Y-109850213D01*
X173805873Y-109804909D01*
X173805874Y-109804909D01*
X173780798Y-109802000D01*
X173124000Y-109802000D01*
X173124000Y-110444012D01*
X173032520Y-110419500D01*
X172915480Y-110419500D01*
X172824000Y-110444012D01*
X172824000Y-109802000D01*
X172167211Y-109802000D01*
X172167205Y-109802001D01*
X172142126Y-109804909D01*
X172142121Y-109804911D01*
X172039522Y-109850212D01*
X171960214Y-109929520D01*
X171960213Y-109929522D01*
X171914909Y-110032126D01*
X171912000Y-110057201D01*
X171495998Y-110057201D01*
X171493090Y-110032126D01*
X171493088Y-110032121D01*
X171447787Y-109929522D01*
X171368479Y-109850214D01*
X171368477Y-109850213D01*
X171265873Y-109804909D01*
X171265874Y-109804909D01*
X171240798Y-109802000D01*
X170584000Y-109802000D01*
X170584000Y-110444012D01*
X170492520Y-110419500D01*
X170375480Y-110419500D01*
X170284000Y-110444012D01*
X170284000Y-109802000D01*
X169627211Y-109802000D01*
X169627205Y-109802001D01*
X169602126Y-109804909D01*
X169602121Y-109804911D01*
X169499522Y-109850212D01*
X169420214Y-109929520D01*
X169420213Y-109929522D01*
X169374909Y-110032126D01*
X169372000Y-110057201D01*
X165732613Y-110057201D01*
X166928409Y-108861405D01*
X166990721Y-108827379D01*
X167017504Y-108824500D01*
X169245501Y-108824500D01*
X169313622Y-108844502D01*
X169360115Y-108898158D01*
X169371501Y-108950500D01*
X169371501Y-109130866D01*
X169374414Y-109155990D01*
X169374416Y-109155994D01*
X169419793Y-109258765D01*
X169499232Y-109338204D01*
X169499234Y-109338205D01*
X169499235Y-109338206D01*
X169602009Y-109383585D01*
X169627135Y-109386500D01*
X171240864Y-109386499D01*
X171265991Y-109383585D01*
X171368765Y-109338206D01*
X171448206Y-109258765D01*
X171493585Y-109155991D01*
X171496500Y-109130865D01*
X171496500Y-108950500D01*
X171499091Y-108941674D01*
X171497782Y-108932568D01*
X171508937Y-108908142D01*
X171516502Y-108882379D01*
X171523455Y-108876354D01*
X171527276Y-108867988D01*
X171549861Y-108853473D01*
X171570158Y-108835886D01*
X171580844Y-108833561D01*
X171587002Y-108829604D01*
X171622500Y-108824500D01*
X171785501Y-108824500D01*
X171853622Y-108844502D01*
X171900115Y-108898158D01*
X171911501Y-108950500D01*
X171911501Y-109130866D01*
X171914414Y-109155990D01*
X171914416Y-109155994D01*
X171959793Y-109258765D01*
X172039232Y-109338204D01*
X172039234Y-109338205D01*
X172039235Y-109338206D01*
X172142009Y-109383585D01*
X172167135Y-109386500D01*
X173780864Y-109386499D01*
X173805991Y-109383585D01*
X173908765Y-109338206D01*
X173988206Y-109258765D01*
X174033585Y-109155991D01*
X174036500Y-109130865D01*
X174036499Y-107517136D01*
X174033585Y-107492009D01*
X174008270Y-107434675D01*
X173988206Y-107389234D01*
X173908767Y-107309795D01*
X173908765Y-107309794D01*
X173805989Y-107264414D01*
X173805990Y-107264414D01*
X173780868Y-107261500D01*
X172167140Y-107261500D01*
X172167133Y-107261501D01*
X172142009Y-107264414D01*
X172142005Y-107264416D01*
X172039234Y-107309793D01*
X171959795Y-107389232D01*
X171959794Y-107389234D01*
X171914414Y-107492009D01*
X171911500Y-107517129D01*
X171911500Y-107697500D01*
X171908908Y-107706325D01*
X171910218Y-107715432D01*
X171899062Y-107739857D01*
X171891498Y-107765621D01*
X171884544Y-107771645D01*
X171880724Y-107780012D01*
X171858138Y-107794526D01*
X171837842Y-107812114D01*
X171827155Y-107814438D01*
X171820998Y-107818396D01*
X171785500Y-107823500D01*
X171622499Y-107823500D01*
X171554378Y-107803498D01*
X171507885Y-107749842D01*
X171496499Y-107697500D01*
X171496499Y-107517140D01*
X171496499Y-107517136D01*
X171493585Y-107492009D01*
X171468270Y-107434675D01*
X171448206Y-107389234D01*
X171368767Y-107309795D01*
X171368765Y-107309794D01*
X171265989Y-107264414D01*
X171265990Y-107264414D01*
X171240868Y-107261500D01*
X169627140Y-107261500D01*
X169627133Y-107261501D01*
X169602009Y-107264414D01*
X169602005Y-107264416D01*
X169499234Y-107309793D01*
X169419795Y-107389232D01*
X169419794Y-107389234D01*
X169374414Y-107492009D01*
X169371500Y-107517129D01*
X169371500Y-107697500D01*
X169351498Y-107765621D01*
X169297842Y-107812114D01*
X169245500Y-107823500D01*
X166823893Y-107823500D01*
X166823892Y-107823500D01*
X166692108Y-107823500D01*
X166637299Y-107838186D01*
X166564816Y-107857607D01*
X166564809Y-107857610D01*
X166450689Y-107923497D01*
X166450679Y-107923505D01*
X164848288Y-109525898D01*
X163913591Y-110460595D01*
X163851279Y-110494621D01*
X163824496Y-110497500D01*
X137987892Y-110497500D01*
X137856107Y-110497500D01*
X137787893Y-110515777D01*
X137728816Y-110531607D01*
X137728809Y-110531610D01*
X137614689Y-110597497D01*
X136754341Y-111457845D01*
X136692029Y-111491871D01*
X136665246Y-111494750D01*
X123300500Y-111494750D01*
X123232379Y-111474748D01*
X123185886Y-111421092D01*
X123174500Y-111368750D01*
X123174500Y-111350901D01*
X123174500Y-111350898D01*
X123163877Y-111262436D01*
X123108361Y-111121658D01*
X123108358Y-111121654D01*
X123016922Y-111001077D01*
X122896345Y-110909641D01*
X122896341Y-110909638D01*
X122773548Y-110861215D01*
X122717515Y-110817617D01*
X122693947Y-110750646D01*
X122710328Y-110681565D01*
X122761457Y-110632307D01*
X122773548Y-110626785D01*
X122778163Y-110624965D01*
X122896342Y-110578361D01*
X123016922Y-110486922D01*
X123108361Y-110366342D01*
X123163877Y-110225564D01*
X123174500Y-110137102D01*
X123174500Y-110119250D01*
X123194502Y-110051129D01*
X123248158Y-110004636D01*
X123300500Y-109993250D01*
X123650858Y-109993250D01*
X124121358Y-109993250D01*
X124498051Y-109993250D01*
X124566172Y-110013252D01*
X124572872Y-110017871D01*
X124610363Y-110045541D01*
X124610368Y-110045543D01*
X124738551Y-110090396D01*
X124768984Y-110093250D01*
X124768986Y-110093250D01*
X125902514Y-110093250D01*
X125902516Y-110093250D01*
X125932949Y-110090396D01*
X126061132Y-110045543D01*
X126079312Y-110032126D01*
X126170400Y-109964900D01*
X126251041Y-109855635D01*
X126251043Y-109855631D01*
X126252939Y-109850214D01*
X126295896Y-109727449D01*
X126298750Y-109697016D01*
X126298750Y-109288484D01*
X126295896Y-109258051D01*
X126251043Y-109129868D01*
X126251041Y-109129864D01*
X126170400Y-109020599D01*
X126061135Y-108939958D01*
X126061131Y-108939956D01*
X125932954Y-108895105D01*
X125932950Y-108895104D01*
X125902516Y-108892250D01*
X124768984Y-108892250D01*
X124768983Y-108892250D01*
X124738549Y-108895104D01*
X124738545Y-108895105D01*
X124610368Y-108939956D01*
X124610363Y-108939958D01*
X124572872Y-108967629D01*
X124506185Y-108991987D01*
X124498051Y-108992250D01*
X123437446Y-108992250D01*
X123369325Y-108972248D01*
X123322832Y-108918592D01*
X123312728Y-108848318D01*
X123342222Y-108783738D01*
X123391220Y-108749035D01*
X123404342Y-108743861D01*
X123524922Y-108652422D01*
X123616361Y-108531842D01*
X123671877Y-108391064D01*
X123682500Y-108302602D01*
X123682500Y-107710520D01*
X123685091Y-107701694D01*
X123683782Y-107692588D01*
X123694937Y-107668162D01*
X123702502Y-107642399D01*
X123709455Y-107636374D01*
X123713276Y-107628008D01*
X123735861Y-107613493D01*
X123756158Y-107595906D01*
X123766844Y-107593581D01*
X123773002Y-107589624D01*
X123808500Y-107584520D01*
X123842516Y-107584520D01*
X123910637Y-107604522D01*
X123931611Y-107621425D01*
X124210250Y-107900064D01*
X124303436Y-107993250D01*
X124417564Y-108059142D01*
X124513439Y-108084831D01*
X124555646Y-108105156D01*
X124610368Y-108145543D01*
X124610371Y-108145544D01*
X124610373Y-108145545D01*
X124734564Y-108189001D01*
X124738551Y-108190396D01*
X124768984Y-108193250D01*
X124768986Y-108193250D01*
X125902514Y-108193250D01*
X125902516Y-108193250D01*
X125932949Y-108190396D01*
X126061132Y-108145543D01*
X126170400Y-108064900D01*
X126195906Y-108030341D01*
X126251041Y-107955635D01*
X126251043Y-107955631D01*
X126256666Y-107939563D01*
X126295896Y-107827449D01*
X126298750Y-107797016D01*
X126298750Y-107388484D01*
X126295896Y-107358051D01*
X126290454Y-107342500D01*
X126251043Y-107229868D01*
X126251041Y-107229864D01*
X126170400Y-107120599D01*
X126061135Y-107039958D01*
X126061131Y-107039956D01*
X125932954Y-106995105D01*
X125932950Y-106995104D01*
X125902516Y-106992250D01*
X124770254Y-106992250D01*
X124702133Y-106972248D01*
X124681163Y-106955349D01*
X124409334Y-106683520D01*
X124409332Y-106683519D01*
X124409330Y-106683517D01*
X124295210Y-106617630D01*
X124295207Y-106617629D01*
X124295206Y-106617628D01*
X124295204Y-106617627D01*
X124295203Y-106617627D01*
X124261093Y-106608487D01*
X124167912Y-106583520D01*
X124167910Y-106583520D01*
X123808500Y-106583520D01*
X123740379Y-106563518D01*
X123693886Y-106509862D01*
X123682500Y-106457520D01*
X123682500Y-106121250D01*
X123702502Y-106053129D01*
X123756158Y-106006636D01*
X123808500Y-105995250D01*
X125148650Y-105995250D01*
X125216771Y-106015252D01*
X125263264Y-106068908D01*
X125265865Y-106075026D01*
X125321888Y-106217091D01*
X125321891Y-106217095D01*
X125413327Y-106337672D01*
X125533904Y-106429108D01*
X125533908Y-106429111D01*
X125674685Y-106484627D01*
X125674684Y-106484627D01*
X125702644Y-106487984D01*
X125763148Y-106495250D01*
X126309246Y-106495250D01*
X126377367Y-106515252D01*
X126398341Y-106532155D01*
X126793790Y-106927604D01*
X126827816Y-106989916D01*
X126822751Y-107060731D01*
X126780204Y-107117567D01*
X126779518Y-107118077D01*
X126776099Y-107120600D01*
X126695458Y-107229864D01*
X126695456Y-107229868D01*
X126650605Y-107358045D01*
X126650604Y-107358049D01*
X126647750Y-107388483D01*
X126647750Y-107797016D01*
X126650604Y-107827450D01*
X126650605Y-107827454D01*
X126695456Y-107955631D01*
X126722983Y-107992929D01*
X126747340Y-108059617D01*
X126731777Y-108128886D01*
X126722983Y-108142571D01*
X126695456Y-108179868D01*
X126650605Y-108308045D01*
X126650604Y-108308049D01*
X126647750Y-108338483D01*
X126647750Y-108747016D01*
X126650604Y-108777450D01*
X126650605Y-108777454D01*
X126695456Y-108905631D01*
X126722983Y-108942929D01*
X126747340Y-109009617D01*
X126731777Y-109078886D01*
X126722983Y-109092571D01*
X126695456Y-109129868D01*
X126650605Y-109258045D01*
X126650604Y-109258049D01*
X126647750Y-109288483D01*
X126647750Y-109697016D01*
X126650604Y-109727450D01*
X126650605Y-109727454D01*
X126695456Y-109855631D01*
X126695458Y-109855635D01*
X126776099Y-109964900D01*
X126885364Y-110045541D01*
X126885368Y-110045543D01*
X127013551Y-110090396D01*
X127043984Y-110093250D01*
X127043986Y-110093250D01*
X128177514Y-110093250D01*
X128177516Y-110093250D01*
X128207949Y-110090396D01*
X128336132Y-110045543D01*
X128336133Y-110045542D01*
X128336136Y-110045541D01*
X128373628Y-110017871D01*
X128440315Y-109993513D01*
X128448449Y-109993250D01*
X129628215Y-109993250D01*
X129696336Y-110013252D01*
X129705977Y-110021022D01*
X129706211Y-110020715D01*
X129833654Y-110117358D01*
X129833658Y-110117361D01*
X129974435Y-110172877D01*
X129974434Y-110172877D01*
X130002394Y-110176234D01*
X130062898Y-110183500D01*
X130062901Y-110183500D01*
X131049099Y-110183500D01*
X131049102Y-110183500D01*
X131137564Y-110172877D01*
X131278342Y-110117361D01*
X131398922Y-110025922D01*
X131490361Y-109905342D01*
X131535378Y-109791185D01*
X131563494Y-109748318D01*
X132966411Y-108345402D01*
X133028721Y-108311379D01*
X133055504Y-108308500D01*
X133614099Y-108308500D01*
X133614102Y-108308500D01*
X133702564Y-108297877D01*
X133843342Y-108242361D01*
X133963922Y-108150922D01*
X134055361Y-108030342D01*
X134110877Y-107889564D01*
X134121500Y-107801102D01*
X134121500Y-107242503D01*
X134141502Y-107174382D01*
X134158405Y-107153408D01*
X134536408Y-106775405D01*
X134563776Y-106760460D01*
X134590005Y-106743604D01*
X134596303Y-106742698D01*
X134598720Y-106741379D01*
X134625503Y-106738500D01*
X134851493Y-106738500D01*
X134919614Y-106758502D01*
X134951890Y-106788366D01*
X135022077Y-106880922D01*
X135142654Y-106972358D01*
X135142658Y-106972361D01*
X135283435Y-107027877D01*
X135283434Y-107027877D01*
X135311394Y-107031234D01*
X135371898Y-107038500D01*
X135371901Y-107038500D01*
X136408099Y-107038500D01*
X136408102Y-107038500D01*
X136496564Y-107027877D01*
X136637342Y-106972361D01*
X136757922Y-106880922D01*
X136820318Y-106798641D01*
X136828110Y-106788366D01*
X136885208Y-106746173D01*
X136928507Y-106738500D01*
X145451996Y-106738500D01*
X145481911Y-106747283D01*
X145512381Y-106753912D01*
X145517476Y-106757726D01*
X145520117Y-106758502D01*
X145541091Y-106775405D01*
X145557595Y-106791909D01*
X145591621Y-106854221D01*
X145594500Y-106881004D01*
X145594500Y-107427105D01*
X145605122Y-107515564D01*
X145660638Y-107656341D01*
X145660641Y-107656345D01*
X145752077Y-107776922D01*
X145872654Y-107868358D01*
X145872658Y-107868361D01*
X146013435Y-107923877D01*
X146013434Y-107923877D01*
X146041394Y-107927234D01*
X146101898Y-107934500D01*
X146101901Y-107934500D01*
X146713099Y-107934500D01*
X146713102Y-107934500D01*
X146801564Y-107923877D01*
X146942342Y-107868361D01*
X147062922Y-107776922D01*
X147154361Y-107656342D01*
X147202785Y-107533548D01*
X147246383Y-107477515D01*
X147313354Y-107453947D01*
X147382435Y-107470328D01*
X147431693Y-107521457D01*
X147437215Y-107533548D01*
X147485638Y-107656341D01*
X147485641Y-107656345D01*
X147577077Y-107776922D01*
X147697654Y-107868358D01*
X147697658Y-107868361D01*
X147838435Y-107923877D01*
X147838434Y-107923877D01*
X147866394Y-107927234D01*
X147926898Y-107934500D01*
X147926901Y-107934500D01*
X148538099Y-107934500D01*
X148538102Y-107934500D01*
X148626564Y-107923877D01*
X148767342Y-107868361D01*
X148887922Y-107776922D01*
X148979361Y-107656342D01*
X149034257Y-107517136D01*
X149035385Y-107514276D01*
X149078983Y-107458243D01*
X149145954Y-107434675D01*
X149152600Y-107434500D01*
X150279809Y-107434500D01*
X150347930Y-107454502D01*
X150355942Y-107460101D01*
X150382658Y-107480361D01*
X150523435Y-107535877D01*
X150523434Y-107535877D01*
X150551394Y-107539234D01*
X150611898Y-107546500D01*
X150611901Y-107546500D01*
X151648099Y-107546500D01*
X151648102Y-107546500D01*
X151736564Y-107535877D01*
X151877342Y-107480361D01*
X151997922Y-107388922D01*
X152008106Y-107375492D01*
X152068110Y-107296366D01*
X152125208Y-107254173D01*
X152168507Y-107246500D01*
X153139493Y-107246500D01*
X153207614Y-107266502D01*
X153239890Y-107296366D01*
X153310077Y-107388922D01*
X153430654Y-107480358D01*
X153430658Y-107480361D01*
X153571435Y-107535877D01*
X153571434Y-107535877D01*
X153599394Y-107539234D01*
X153659898Y-107546500D01*
X153659901Y-107546500D01*
X154696099Y-107546500D01*
X154696102Y-107546500D01*
X154784564Y-107535877D01*
X154925342Y-107480361D01*
X155045922Y-107388922D01*
X155056106Y-107375492D01*
X155116110Y-107296366D01*
X155173208Y-107254173D01*
X155216507Y-107246500D01*
X156187493Y-107246500D01*
X156255614Y-107266502D01*
X156287890Y-107296366D01*
X156358077Y-107388922D01*
X156478654Y-107480358D01*
X156478658Y-107480361D01*
X156619435Y-107535877D01*
X156619434Y-107535877D01*
X156647394Y-107539234D01*
X156707898Y-107546500D01*
X156707901Y-107546500D01*
X157744099Y-107546500D01*
X157744102Y-107546500D01*
X157832564Y-107535877D01*
X157973342Y-107480361D01*
X158093922Y-107388922D01*
X158104106Y-107375492D01*
X158164110Y-107296366D01*
X158221208Y-107254173D01*
X158264507Y-107246500D01*
X159235493Y-107246500D01*
X159303614Y-107266502D01*
X159335890Y-107296366D01*
X159406077Y-107388922D01*
X159526654Y-107480358D01*
X159526658Y-107480361D01*
X159667435Y-107535877D01*
X159667434Y-107535877D01*
X159695394Y-107539234D01*
X159755898Y-107546500D01*
X159755901Y-107546500D01*
X160792099Y-107546500D01*
X160792102Y-107546500D01*
X160880564Y-107535877D01*
X161021342Y-107480361D01*
X161141922Y-107388922D01*
X161141924Y-107388920D01*
X161148017Y-107382828D01*
X161149801Y-107384612D01*
X161196415Y-107350171D01*
X161239708Y-107342500D01*
X161526939Y-107342500D01*
X161526943Y-107342501D01*
X161685057Y-107342501D01*
X161685061Y-107342500D01*
X163181135Y-107342500D01*
X164766943Y-107342500D01*
X166373924Y-107342500D01*
X166983209Y-107342500D01*
X166983225Y-107342501D01*
X166990943Y-107342501D01*
X167149054Y-107342501D01*
X167149057Y-107342501D01*
X167301785Y-107301577D01*
X167326308Y-107287417D01*
X167351881Y-107272653D01*
X167351891Y-107272645D01*
X167351904Y-107272639D01*
X167438716Y-107222520D01*
X167550520Y-107110716D01*
X167550520Y-107110714D01*
X167560890Y-107100345D01*
X167560894Y-107100340D01*
X169156907Y-105504326D01*
X169219217Y-105470302D01*
X169290032Y-105475367D01*
X169346868Y-105517914D01*
X169371679Y-105584434D01*
X169372000Y-105593423D01*
X169372000Y-105634000D01*
X170014012Y-105634000D01*
X169989500Y-105725480D01*
X169989500Y-105842520D01*
X170014012Y-105934000D01*
X169372001Y-105934000D01*
X169372001Y-106590794D01*
X169374909Y-106615873D01*
X169374911Y-106615878D01*
X169420212Y-106718477D01*
X169499520Y-106797785D01*
X169499522Y-106797786D01*
X169602126Y-106843090D01*
X169602125Y-106843090D01*
X169627203Y-106845999D01*
X170284000Y-106845999D01*
X170284000Y-106203987D01*
X170375480Y-106228500D01*
X170492520Y-106228500D01*
X170584000Y-106203987D01*
X170584000Y-106845999D01*
X171240789Y-106845999D01*
X171240794Y-106845998D01*
X171265873Y-106843090D01*
X171265878Y-106843088D01*
X171368477Y-106797787D01*
X171447785Y-106718479D01*
X171447786Y-106718477D01*
X171493090Y-106615873D01*
X171495999Y-106590798D01*
X171496000Y-106590795D01*
X171496000Y-105934000D01*
X170853988Y-105934000D01*
X170878500Y-105842520D01*
X170878500Y-105725480D01*
X170853988Y-105634000D01*
X171495999Y-105634000D01*
X171495999Y-104977212D01*
X171495998Y-104977204D01*
X171495998Y-104977201D01*
X171912000Y-104977201D01*
X171912000Y-105634000D01*
X172554012Y-105634000D01*
X172529500Y-105725480D01*
X172529500Y-105842520D01*
X172554012Y-105934000D01*
X171912001Y-105934000D01*
X171912001Y-106590794D01*
X171914909Y-106615873D01*
X171914911Y-106615878D01*
X171960212Y-106718477D01*
X172039520Y-106797785D01*
X172039522Y-106797786D01*
X172142126Y-106843090D01*
X172142125Y-106843090D01*
X172167203Y-106845999D01*
X172824000Y-106845999D01*
X172824000Y-106203987D01*
X172915480Y-106228500D01*
X173032520Y-106228500D01*
X173124000Y-106203987D01*
X173124000Y-106845999D01*
X173780789Y-106845999D01*
X173780794Y-106845998D01*
X173805873Y-106843090D01*
X173805878Y-106843088D01*
X173908477Y-106797787D01*
X173987785Y-106718479D01*
X173987786Y-106718477D01*
X174033090Y-106615873D01*
X174035999Y-106590798D01*
X174036000Y-106590795D01*
X174036000Y-105934000D01*
X173393988Y-105934000D01*
X173418500Y-105842520D01*
X173418500Y-105725480D01*
X173393988Y-105634000D01*
X174035999Y-105634000D01*
X174035999Y-104977211D01*
X174035998Y-104977205D01*
X174033090Y-104952126D01*
X174033088Y-104952121D01*
X173987787Y-104849522D01*
X173908479Y-104770214D01*
X173908477Y-104770213D01*
X173805873Y-104724909D01*
X173805874Y-104724909D01*
X173780798Y-104722000D01*
X173124000Y-104722000D01*
X173124000Y-105364012D01*
X173032520Y-105339500D01*
X172915480Y-105339500D01*
X172824000Y-105364012D01*
X172824000Y-104722000D01*
X172167211Y-104722000D01*
X172167205Y-104722001D01*
X172142126Y-104724909D01*
X172142121Y-104724911D01*
X172039522Y-104770212D01*
X171960214Y-104849520D01*
X171960213Y-104849522D01*
X171914909Y-104952126D01*
X171912000Y-104977201D01*
X171495998Y-104977201D01*
X171493090Y-104952126D01*
X171493088Y-104952121D01*
X171447787Y-104849522D01*
X171368479Y-104770214D01*
X171368477Y-104770213D01*
X171265873Y-104724909D01*
X171265874Y-104724909D01*
X171240798Y-104722000D01*
X170584000Y-104722000D01*
X170584000Y-105364012D01*
X170492520Y-105339500D01*
X170375480Y-105339500D01*
X170284000Y-105364012D01*
X170284000Y-104722000D01*
X170243425Y-104722000D01*
X170175304Y-104701998D01*
X170128811Y-104648342D01*
X170118707Y-104578068D01*
X170148201Y-104513488D01*
X170154330Y-104506905D01*
X170317831Y-104343404D01*
X170380143Y-104309378D01*
X170406926Y-104306499D01*
X171240860Y-104306499D01*
X171240864Y-104306499D01*
X171265991Y-104303585D01*
X171368765Y-104258206D01*
X171448206Y-104178765D01*
X171493585Y-104075991D01*
X171496500Y-104050865D01*
X171496500Y-103970500D01*
X171499091Y-103961674D01*
X171497782Y-103952568D01*
X171508937Y-103928142D01*
X171516502Y-103902379D01*
X171523455Y-103896354D01*
X171527276Y-103887988D01*
X171549861Y-103873473D01*
X171570158Y-103855886D01*
X171580844Y-103853561D01*
X171587002Y-103849604D01*
X171622500Y-103844500D01*
X171785501Y-103844500D01*
X171853622Y-103864502D01*
X171900115Y-103918158D01*
X171911501Y-103970500D01*
X171911501Y-104050866D01*
X171914414Y-104075990D01*
X171914416Y-104075994D01*
X171959793Y-104178765D01*
X172039232Y-104258204D01*
X172039234Y-104258205D01*
X172039235Y-104258206D01*
X172142009Y-104303585D01*
X172167135Y-104306500D01*
X173780864Y-104306499D01*
X173805991Y-104303585D01*
X173908765Y-104258206D01*
X173988206Y-104178765D01*
X174033585Y-104075991D01*
X174036500Y-104050865D01*
X174036499Y-102437136D01*
X174033585Y-102412009D01*
X173999629Y-102335105D01*
X173988206Y-102309234D01*
X173908767Y-102229795D01*
X173908765Y-102229794D01*
X173805989Y-102184414D01*
X173805990Y-102184414D01*
X173780868Y-102181500D01*
X172167140Y-102181500D01*
X172167133Y-102181501D01*
X172142009Y-102184414D01*
X172142005Y-102184416D01*
X172039234Y-102229793D01*
X171959795Y-102309232D01*
X171959794Y-102309234D01*
X171914414Y-102412009D01*
X171914413Y-102412026D01*
X171914405Y-102412044D01*
X171913802Y-102414259D01*
X171913971Y-102415432D01*
X171912765Y-102418072D01*
X171911927Y-102421153D01*
X171911421Y-102421015D01*
X171899911Y-102446216D01*
X171886691Y-102477387D01*
X171885216Y-102478392D01*
X171884477Y-102480012D01*
X171856024Y-102498297D01*
X171828033Y-102517384D01*
X171825770Y-102517740D01*
X171824751Y-102518396D01*
X171789253Y-102523500D01*
X171618747Y-102523500D01*
X171550626Y-102503498D01*
X171504133Y-102449842D01*
X171496128Y-102421136D01*
X171496072Y-102421152D01*
X171493648Y-102412244D01*
X171493586Y-102412019D01*
X171493585Y-102412009D01*
X171459629Y-102335105D01*
X171448206Y-102309234D01*
X171368767Y-102229795D01*
X171368765Y-102229794D01*
X171265989Y-102184414D01*
X171265990Y-102184414D01*
X171240868Y-102181500D01*
X169627140Y-102181500D01*
X169627133Y-102181501D01*
X169602009Y-102184414D01*
X169602005Y-102184416D01*
X169499234Y-102229793D01*
X169419795Y-102309232D01*
X169419794Y-102309234D01*
X169374414Y-102412009D01*
X169371500Y-102437129D01*
X169371500Y-103539074D01*
X169351498Y-103607195D01*
X169334595Y-103628169D01*
X168310595Y-104652169D01*
X168248283Y-104686195D01*
X168177468Y-104681130D01*
X168120632Y-104638583D01*
X168095821Y-104572063D01*
X168095500Y-104563074D01*
X168095500Y-103646901D01*
X168095500Y-103646898D01*
X168084877Y-103558436D01*
X168072115Y-103526075D01*
X168029361Y-103417658D01*
X168029358Y-103417654D01*
X167937920Y-103297075D01*
X167936360Y-103295892D01*
X167935293Y-103294448D01*
X167931829Y-103290984D01*
X167932349Y-103290463D01*
X167894170Y-103238791D01*
X167886500Y-103195500D01*
X167886500Y-102924599D01*
X167906502Y-102856478D01*
X167960158Y-102809985D01*
X167966277Y-102807384D01*
X167967562Y-102806877D01*
X167967564Y-102806877D01*
X168108342Y-102751361D01*
X168228922Y-102659922D01*
X168320361Y-102539342D01*
X168375877Y-102398564D01*
X168386500Y-102310102D01*
X168386500Y-101698898D01*
X168375877Y-101610436D01*
X168349769Y-101544232D01*
X168320361Y-101469658D01*
X168320358Y-101469654D01*
X168228922Y-101349077D01*
X168108345Y-101257641D01*
X168108341Y-101257638D01*
X167967564Y-101202122D01*
X167967565Y-101202122D01*
X167879105Y-101191500D01*
X167879102Y-101191500D01*
X166892898Y-101191500D01*
X166892894Y-101191500D01*
X166804435Y-101202122D01*
X166663658Y-101257638D01*
X166663654Y-101257641D01*
X166543077Y-101349077D01*
X166451641Y-101469654D01*
X166447416Y-101477169D01*
X166444149Y-101475332D01*
X166411302Y-101517662D01*
X166344362Y-101541316D01*
X166337553Y-101541500D01*
X165499661Y-101541500D01*
X165431540Y-101521498D01*
X165410570Y-101504599D01*
X165370765Y-101464794D01*
X165370764Y-101464793D01*
X165267989Y-101419414D01*
X165267990Y-101419414D01*
X165242868Y-101416500D01*
X163593140Y-101416500D01*
X163593133Y-101416501D01*
X163568009Y-101419414D01*
X163568005Y-101419416D01*
X163465234Y-101464793D01*
X163385795Y-101544232D01*
X163385794Y-101544234D01*
X163340414Y-101647009D01*
X163337500Y-101672129D01*
X163337500Y-102411859D01*
X163337501Y-102411866D01*
X163340414Y-102436990D01*
X163340416Y-102436994D01*
X163385793Y-102539765D01*
X163465232Y-102619204D01*
X163465234Y-102619205D01*
X163465235Y-102619206D01*
X163568009Y-102664585D01*
X163593135Y-102667500D01*
X165242864Y-102667499D01*
X165267991Y-102664585D01*
X165370765Y-102619206D01*
X165410567Y-102579403D01*
X165472876Y-102545380D01*
X165499661Y-102542500D01*
X166391451Y-102542500D01*
X166459572Y-102562502D01*
X166491848Y-102592366D01*
X166543077Y-102659922D01*
X166663654Y-102751358D01*
X166663660Y-102751362D01*
X166704140Y-102767325D01*
X166804436Y-102806877D01*
X166804437Y-102806877D01*
X166805723Y-102807384D01*
X166822581Y-102820501D01*
X166842012Y-102829375D01*
X166850038Y-102841864D01*
X166861757Y-102850982D01*
X166868848Y-102871132D01*
X166880396Y-102889101D01*
X166884004Y-102914200D01*
X166885325Y-102917952D01*
X166885500Y-102924599D01*
X166885500Y-103065525D01*
X166865498Y-103133646D01*
X166811842Y-103180139D01*
X166805725Y-103182740D01*
X166747656Y-103205639D01*
X166747654Y-103205641D01*
X166627077Y-103297077D01*
X166535641Y-103417654D01*
X166535638Y-103417658D01*
X166487215Y-103540451D01*
X166443617Y-103596484D01*
X166376646Y-103620052D01*
X166307565Y-103603670D01*
X166258307Y-103552542D01*
X166252785Y-103540451D01*
X166204361Y-103417658D01*
X166204358Y-103417654D01*
X166112922Y-103297077D01*
X165992345Y-103205641D01*
X165992341Y-103205638D01*
X165851564Y-103150122D01*
X165851565Y-103150122D01*
X165763105Y-103139500D01*
X165763102Y-103139500D01*
X165151898Y-103139500D01*
X165151894Y-103139500D01*
X165063435Y-103150122D01*
X164922658Y-103205638D01*
X164922654Y-103205641D01*
X164802077Y-103297077D01*
X164710641Y-103417654D01*
X164710638Y-103417658D01*
X164655122Y-103558435D01*
X164644500Y-103646894D01*
X164644500Y-104397057D01*
X164624498Y-104465178D01*
X164570842Y-104511671D01*
X164566720Y-104513465D01*
X164514190Y-104535224D01*
X164514189Y-104535224D01*
X164399458Y-104611885D01*
X164399452Y-104611890D01*
X164301890Y-104709452D01*
X164301885Y-104709458D01*
X164225225Y-104824189D01*
X164172421Y-104951668D01*
X164172420Y-104951671D01*
X164145500Y-105087004D01*
X164145500Y-105224995D01*
X164172420Y-105360328D01*
X164172421Y-105360331D01*
X164189888Y-105402500D01*
X164225225Y-105487811D01*
X164276447Y-105564471D01*
X164301885Y-105602541D01*
X164301890Y-105602547D01*
X164399452Y-105700109D01*
X164399458Y-105700114D01*
X164514189Y-105776775D01*
X164641672Y-105829580D01*
X164777007Y-105856500D01*
X164777008Y-105856500D01*
X164914992Y-105856500D01*
X164914993Y-105856500D01*
X165050328Y-105829580D01*
X165177811Y-105776775D01*
X165292542Y-105700114D01*
X165390114Y-105602542D01*
X165466775Y-105487811D01*
X165519580Y-105360328D01*
X165519581Y-105360321D01*
X165521377Y-105354404D01*
X165522977Y-105354889D01*
X165528148Y-105345000D01*
X165532235Y-105326217D01*
X165551268Y-105300790D01*
X165552142Y-105299121D01*
X165553727Y-105297507D01*
X165673832Y-105177404D01*
X165736145Y-105143379D01*
X165759349Y-105140884D01*
X165759340Y-105140725D01*
X165762710Y-105140523D01*
X165762927Y-105140500D01*
X165763099Y-105140500D01*
X165763102Y-105140500D01*
X165851564Y-105129877D01*
X165992342Y-105074361D01*
X166112922Y-104982922D01*
X166204361Y-104862342D01*
X166252785Y-104739548D01*
X166296383Y-104683515D01*
X166363354Y-104659947D01*
X166432435Y-104676328D01*
X166481693Y-104727457D01*
X166487215Y-104739548D01*
X166535638Y-104862341D01*
X166535641Y-104862345D01*
X166627077Y-104982922D01*
X166747654Y-105074358D01*
X166747658Y-105074361D01*
X166888435Y-105129877D01*
X166888434Y-105129877D01*
X166916394Y-105133234D01*
X166976898Y-105140500D01*
X166976901Y-105140500D01*
X167518075Y-105140500D01*
X167586196Y-105160502D01*
X167632689Y-105214158D01*
X167642793Y-105284432D01*
X167613299Y-105349012D01*
X167607170Y-105355595D01*
X166858170Y-106104595D01*
X166795858Y-106138621D01*
X166769075Y-106141500D01*
X162336500Y-106141500D01*
X162268379Y-106121498D01*
X162221886Y-106067842D01*
X162210500Y-106015500D01*
X162210500Y-105356534D01*
X162230502Y-105288413D01*
X162247408Y-105267435D01*
X162252913Y-105261928D01*
X162252922Y-105261922D01*
X162344361Y-105141342D01*
X162399877Y-105000564D01*
X162410500Y-104912102D01*
X162410500Y-103875898D01*
X162399877Y-103787436D01*
X162389014Y-103759890D01*
X162344361Y-103646658D01*
X162344358Y-103646654D01*
X162252920Y-103526075D01*
X162247405Y-103520560D01*
X162213379Y-103458248D01*
X162210500Y-103431465D01*
X162210500Y-102793499D01*
X162230502Y-102725378D01*
X162284158Y-102678885D01*
X162336500Y-102667499D01*
X162542860Y-102667499D01*
X162542864Y-102667499D01*
X162567991Y-102664585D01*
X162670765Y-102619206D01*
X162750206Y-102539765D01*
X162795585Y-102436991D01*
X162798500Y-102411865D01*
X162798499Y-101672136D01*
X162795585Y-101647009D01*
X162782728Y-101617892D01*
X162773511Y-101547499D01*
X162782730Y-101516104D01*
X162795584Y-101486993D01*
X162795583Y-101486993D01*
X162795585Y-101486991D01*
X162798500Y-101461865D01*
X162798499Y-100722136D01*
X162795585Y-100697009D01*
X162775729Y-100652040D01*
X162773269Y-100634888D01*
X162775961Y-100616210D01*
X162773511Y-100597499D01*
X162782730Y-100566104D01*
X162795584Y-100536993D01*
X162795583Y-100536993D01*
X162795585Y-100536991D01*
X162798500Y-100511865D01*
X162798499Y-99897201D01*
X169372000Y-99897201D01*
X169372000Y-100554000D01*
X170014012Y-100554000D01*
X169989500Y-100645480D01*
X169989500Y-100762520D01*
X170014012Y-100854000D01*
X169372001Y-100854000D01*
X169372001Y-101510794D01*
X169374909Y-101535873D01*
X169374911Y-101535878D01*
X169420212Y-101638477D01*
X169499520Y-101717785D01*
X169499522Y-101717786D01*
X169602126Y-101763090D01*
X169602125Y-101763090D01*
X169627203Y-101765999D01*
X170284000Y-101765999D01*
X170284000Y-101123987D01*
X170375480Y-101148500D01*
X170492520Y-101148500D01*
X170584000Y-101123987D01*
X170584000Y-101765999D01*
X171240789Y-101765999D01*
X171240794Y-101765998D01*
X171265873Y-101763090D01*
X171265878Y-101763088D01*
X171368477Y-101717787D01*
X171447785Y-101638479D01*
X171447786Y-101638477D01*
X171493090Y-101535873D01*
X171495999Y-101510798D01*
X171496000Y-101510795D01*
X171496000Y-100854000D01*
X170853988Y-100854000D01*
X170878500Y-100762520D01*
X170878500Y-100645480D01*
X170853988Y-100554000D01*
X171495999Y-100554000D01*
X171495999Y-99897212D01*
X171495998Y-99897204D01*
X171495998Y-99897201D01*
X171912000Y-99897201D01*
X171912000Y-100554000D01*
X172554012Y-100554000D01*
X172529500Y-100645480D01*
X172529500Y-100762520D01*
X172554012Y-100854000D01*
X171912001Y-100854000D01*
X171912001Y-101510794D01*
X171914909Y-101535873D01*
X171914911Y-101535878D01*
X171960212Y-101638477D01*
X172039520Y-101717785D01*
X172039522Y-101717786D01*
X172142126Y-101763090D01*
X172142125Y-101763090D01*
X172167203Y-101765999D01*
X172824000Y-101765999D01*
X172824000Y-101123987D01*
X172915480Y-101148500D01*
X173032520Y-101148500D01*
X173124000Y-101123987D01*
X173124000Y-101765999D01*
X173780789Y-101765999D01*
X173780794Y-101765998D01*
X173805873Y-101763090D01*
X173805878Y-101763088D01*
X173908477Y-101717787D01*
X173987785Y-101638479D01*
X173987786Y-101638477D01*
X174033090Y-101535873D01*
X174035999Y-101510798D01*
X174036000Y-101510795D01*
X174036000Y-100854000D01*
X173393988Y-100854000D01*
X173418500Y-100762520D01*
X173418500Y-100645480D01*
X173393988Y-100554000D01*
X174035999Y-100554000D01*
X174035999Y-99897211D01*
X174035998Y-99897205D01*
X174033090Y-99872126D01*
X174033088Y-99872121D01*
X173987787Y-99769522D01*
X173908479Y-99690214D01*
X173908477Y-99690213D01*
X173805873Y-99644909D01*
X173805874Y-99644909D01*
X173780798Y-99642000D01*
X173124000Y-99642000D01*
X173124000Y-100284012D01*
X173032520Y-100259500D01*
X172915480Y-100259500D01*
X172824000Y-100284012D01*
X172824000Y-99642000D01*
X172167211Y-99642000D01*
X172167205Y-99642001D01*
X172142126Y-99644909D01*
X172142121Y-99644911D01*
X172039522Y-99690212D01*
X171960214Y-99769520D01*
X171960213Y-99769522D01*
X171914909Y-99872126D01*
X171912000Y-99897201D01*
X171495998Y-99897201D01*
X171493090Y-99872126D01*
X171493088Y-99872121D01*
X171447787Y-99769522D01*
X171368479Y-99690214D01*
X171368477Y-99690213D01*
X171265873Y-99644909D01*
X171265874Y-99644909D01*
X171240798Y-99642000D01*
X170584000Y-99642000D01*
X170584000Y-100284012D01*
X170492520Y-100259500D01*
X170375480Y-100259500D01*
X170284000Y-100284012D01*
X170284000Y-99642000D01*
X169627211Y-99642000D01*
X169627205Y-99642001D01*
X169602126Y-99644909D01*
X169602121Y-99644911D01*
X169499522Y-99690212D01*
X169420214Y-99769520D01*
X169420213Y-99769522D01*
X169374909Y-99872126D01*
X169372000Y-99897201D01*
X162798499Y-99897201D01*
X162798499Y-99772136D01*
X162795585Y-99747009D01*
X162770507Y-99690212D01*
X162750206Y-99644234D01*
X162670767Y-99564795D01*
X162670765Y-99564794D01*
X162567989Y-99519414D01*
X162567990Y-99519414D01*
X162542868Y-99516500D01*
X160893140Y-99516500D01*
X160893133Y-99516501D01*
X160868009Y-99519414D01*
X160868005Y-99519416D01*
X160842305Y-99530764D01*
X160791411Y-99541500D01*
X160046411Y-99541500D01*
X159978290Y-99521498D01*
X159970277Y-99515897D01*
X159890269Y-99455225D01*
X159843342Y-99419639D01*
X159772953Y-99391881D01*
X159702566Y-99364124D01*
X159702561Y-99364123D01*
X159628080Y-99355179D01*
X159614099Y-99353500D01*
X159614098Y-99353500D01*
X157377906Y-99353500D01*
X157377897Y-99353501D01*
X157289436Y-99364123D01*
X157148659Y-99419638D01*
X157028078Y-99511078D01*
X156936638Y-99631659D01*
X156881124Y-99772433D01*
X156881123Y-99772438D01*
X156870500Y-99860899D01*
X156870500Y-100546073D01*
X156861715Y-100575989D01*
X156855088Y-100606458D01*
X156851273Y-100611554D01*
X156850498Y-100614194D01*
X156833596Y-100635168D01*
X156760170Y-100708595D01*
X156697858Y-100742620D01*
X156671074Y-100745500D01*
X156143208Y-100745500D01*
X156092314Y-100734764D01*
X156009989Y-100698414D01*
X156009990Y-100698414D01*
X155984868Y-100695500D01*
X155295140Y-100695500D01*
X155295133Y-100695501D01*
X155270009Y-100698414D01*
X155270005Y-100698416D01*
X155167234Y-100743793D01*
X155087793Y-100823234D01*
X155055264Y-100896908D01*
X155009451Y-100951145D01*
X154941587Y-100972004D01*
X154873220Y-100952862D01*
X154826055Y-100899796D01*
X154824736Y-100896908D01*
X154792206Y-100823234D01*
X154712767Y-100743795D01*
X154712765Y-100743794D01*
X154609989Y-100698414D01*
X154609990Y-100698414D01*
X154584868Y-100695500D01*
X153895140Y-100695500D01*
X153895133Y-100695501D01*
X153870009Y-100698414D01*
X153870005Y-100698416D01*
X153767234Y-100743793D01*
X153767232Y-100743795D01*
X153702433Y-100808595D01*
X153640121Y-100842621D01*
X153613338Y-100845500D01*
X152973893Y-100845500D01*
X152842108Y-100845500D01*
X152773894Y-100863777D01*
X152714816Y-100879607D01*
X152714809Y-100879610D01*
X152600689Y-100945497D01*
X152600683Y-100945502D01*
X152535109Y-101011077D01*
X152341589Y-101204596D01*
X152279279Y-101238620D01*
X152252496Y-101241500D01*
X151373894Y-101241500D01*
X151285435Y-101252122D01*
X151144658Y-101307638D01*
X151144654Y-101307641D01*
X151024077Y-101399077D01*
X150953890Y-101491634D01*
X150896792Y-101533827D01*
X150853493Y-101541500D01*
X150390507Y-101541500D01*
X150322386Y-101521498D01*
X150290110Y-101491634D01*
X150219922Y-101399077D01*
X150099345Y-101307641D01*
X150099341Y-101307638D01*
X149958564Y-101252122D01*
X149958565Y-101252122D01*
X149870105Y-101241500D01*
X149870102Y-101241500D01*
X148833898Y-101241500D01*
X148833894Y-101241500D01*
X148745435Y-101252122D01*
X148604658Y-101307638D01*
X148604654Y-101307641D01*
X148484077Y-101399077D01*
X148413890Y-101491634D01*
X148410478Y-101494154D01*
X148408717Y-101498012D01*
X148382178Y-101515067D01*
X148356792Y-101533827D01*
X148351540Y-101534757D01*
X148348991Y-101536396D01*
X148313493Y-101541500D01*
X148155500Y-101541500D01*
X148087379Y-101521498D01*
X148040886Y-101467842D01*
X148029500Y-101415500D01*
X148029500Y-101360901D01*
X148029500Y-101360898D01*
X148018877Y-101272436D01*
X148013041Y-101257638D01*
X147963361Y-101131658D01*
X147963358Y-101131654D01*
X147871922Y-101011077D01*
X147751345Y-100919641D01*
X147751341Y-100919638D01*
X147610564Y-100864122D01*
X147610565Y-100864122D01*
X147522105Y-100853500D01*
X147522102Y-100853500D01*
X146910898Y-100853500D01*
X146910894Y-100853500D01*
X146822435Y-100864122D01*
X146681658Y-100919638D01*
X146681654Y-100919641D01*
X146561077Y-101011077D01*
X146469641Y-101131654D01*
X146469638Y-101131658D01*
X146421215Y-101254451D01*
X146377617Y-101310484D01*
X146310646Y-101334052D01*
X146241565Y-101317670D01*
X146192307Y-101266542D01*
X146186785Y-101254451D01*
X146138361Y-101131658D01*
X146138358Y-101131654D01*
X146046922Y-101011077D01*
X145926345Y-100919641D01*
X145926341Y-100919638D01*
X145785564Y-100864122D01*
X145785565Y-100864122D01*
X145697105Y-100853500D01*
X145697102Y-100853500D01*
X145085898Y-100853500D01*
X145085894Y-100853500D01*
X144997435Y-100864122D01*
X144856658Y-100919638D01*
X144856654Y-100919641D01*
X144736077Y-101011077D01*
X144644641Y-101131654D01*
X144644638Y-101131658D01*
X144589122Y-101272435D01*
X144582148Y-101330522D01*
X144581547Y-101331921D01*
X144581765Y-101333432D01*
X144567604Y-101364438D01*
X144554168Y-101395772D01*
X144552903Y-101396626D01*
X144552271Y-101398012D01*
X144523609Y-101416432D01*
X144495352Y-101435536D01*
X144493413Y-101435837D01*
X144492545Y-101436396D01*
X144457047Y-101441500D01*
X144218535Y-101441500D01*
X144150414Y-101421498D01*
X144129440Y-101404595D01*
X144123924Y-101399079D01*
X144003345Y-101307641D01*
X144003341Y-101307638D01*
X143862564Y-101252122D01*
X143862565Y-101252122D01*
X143774105Y-101241500D01*
X143774102Y-101241500D01*
X142737898Y-101241500D01*
X142737894Y-101241500D01*
X142649435Y-101252122D01*
X142508658Y-101307638D01*
X142508654Y-101307641D01*
X142388075Y-101399079D01*
X142382560Y-101404595D01*
X142320248Y-101438621D01*
X142293465Y-101441500D01*
X141424535Y-101441500D01*
X141356414Y-101421498D01*
X141335440Y-101404595D01*
X141329924Y-101399079D01*
X141209345Y-101307641D01*
X141209341Y-101307638D01*
X141068564Y-101252122D01*
X141068565Y-101252122D01*
X140980105Y-101241500D01*
X140980102Y-101241500D01*
X139943898Y-101241500D01*
X139943894Y-101241500D01*
X139855435Y-101252122D01*
X139714658Y-101307638D01*
X139714654Y-101307641D01*
X139594075Y-101399079D01*
X139588560Y-101404595D01*
X139526248Y-101438621D01*
X139499465Y-101441500D01*
X139006953Y-101441500D01*
X138938832Y-101421498D01*
X138892339Y-101367842D01*
X138881852Y-101330522D01*
X138879104Y-101307641D01*
X138874877Y-101272436D01*
X138869041Y-101257638D01*
X138819361Y-101131658D01*
X138819358Y-101131654D01*
X138727922Y-101011077D01*
X138607345Y-100919641D01*
X138607341Y-100919638D01*
X138466564Y-100864122D01*
X138466565Y-100864122D01*
X138378105Y-100853500D01*
X138378102Y-100853500D01*
X137766898Y-100853500D01*
X137766894Y-100853500D01*
X137678435Y-100864122D01*
X137537658Y-100919638D01*
X137537654Y-100919641D01*
X137417077Y-101011077D01*
X137325641Y-101131654D01*
X137325638Y-101131658D01*
X137277215Y-101254451D01*
X137233617Y-101310484D01*
X137166646Y-101334052D01*
X137097565Y-101317670D01*
X137048307Y-101266542D01*
X137042785Y-101254451D01*
X136994361Y-101131658D01*
X136994358Y-101131654D01*
X136902922Y-101011077D01*
X136782345Y-100919641D01*
X136782341Y-100919638D01*
X136641564Y-100864122D01*
X136641565Y-100864122D01*
X136553105Y-100853500D01*
X136553102Y-100853500D01*
X135941898Y-100853500D01*
X135941894Y-100853500D01*
X135853435Y-100864122D01*
X135712658Y-100919638D01*
X135712654Y-100919641D01*
X135592077Y-101011077D01*
X135500641Y-101131654D01*
X135500640Y-101131656D01*
X135500639Y-101131657D01*
X135500639Y-101131658D01*
X135493998Y-101148500D01*
X135484050Y-101173725D01*
X135440451Y-101229758D01*
X135373480Y-101253325D01*
X135366835Y-101253500D01*
X134483568Y-101253500D01*
X134468545Y-101252601D01*
X134376105Y-101241500D01*
X134376102Y-101241500D01*
X133339898Y-101241500D01*
X133339894Y-101241500D01*
X133251435Y-101252122D01*
X133110658Y-101307638D01*
X133110654Y-101307641D01*
X132990075Y-101399079D01*
X132984560Y-101404595D01*
X132957191Y-101419539D01*
X132930963Y-101436396D01*
X132924664Y-101437301D01*
X132922248Y-101438621D01*
X132895465Y-101441500D01*
X132656953Y-101441500D01*
X132588832Y-101421498D01*
X132542339Y-101367842D01*
X132531852Y-101330522D01*
X132529104Y-101307641D01*
X132524877Y-101272436D01*
X132519041Y-101257638D01*
X132469361Y-101131658D01*
X132469358Y-101131654D01*
X132377922Y-101011077D01*
X132257345Y-100919641D01*
X132257341Y-100919638D01*
X132116564Y-100864122D01*
X132116565Y-100864122D01*
X132028105Y-100853500D01*
X132028102Y-100853500D01*
X131416898Y-100853500D01*
X131416894Y-100853500D01*
X131328435Y-100864122D01*
X131187658Y-100919638D01*
X131187654Y-100919641D01*
X131067077Y-101011077D01*
X130975641Y-101131654D01*
X130975638Y-101131658D01*
X130927215Y-101254451D01*
X130883617Y-101310484D01*
X130816646Y-101334052D01*
X130747565Y-101317670D01*
X130698307Y-101266542D01*
X130692785Y-101254451D01*
X130644361Y-101131658D01*
X130644358Y-101131654D01*
X130552922Y-101011077D01*
X130432345Y-100919641D01*
X130432341Y-100919638D01*
X130291564Y-100864122D01*
X130291565Y-100864122D01*
X130203105Y-100853500D01*
X130203102Y-100853500D01*
X129591898Y-100853500D01*
X129591894Y-100853500D01*
X129503435Y-100864122D01*
X129362658Y-100919638D01*
X129362654Y-100919641D01*
X129242077Y-101011077D01*
X129150641Y-101131654D01*
X129150638Y-101131658D01*
X129095122Y-101272435D01*
X129088148Y-101330522D01*
X129060168Y-101395772D01*
X129001352Y-101435536D01*
X128963047Y-101441500D01*
X128470535Y-101441500D01*
X128402414Y-101421498D01*
X128381440Y-101404595D01*
X128375924Y-101399079D01*
X128255345Y-101307641D01*
X128255341Y-101307638D01*
X128114564Y-101252122D01*
X128114565Y-101252122D01*
X128026105Y-101241500D01*
X128026102Y-101241500D01*
X126989898Y-101241500D01*
X126989894Y-101241500D01*
X126901435Y-101252122D01*
X126760658Y-101307638D01*
X126760654Y-101307641D01*
X126640075Y-101399079D01*
X126634560Y-101404595D01*
X126572248Y-101438621D01*
X126545465Y-101441500D01*
X126203453Y-101441500D01*
X126135332Y-101421498D01*
X126088839Y-101367842D01*
X126078352Y-101330522D01*
X126075604Y-101307641D01*
X126071377Y-101272436D01*
X126065541Y-101257638D01*
X126015861Y-101131658D01*
X126015858Y-101131654D01*
X125924422Y-101011077D01*
X125803842Y-100919638D01*
X125802879Y-100919097D01*
X125802171Y-100918371D01*
X125796975Y-100914431D01*
X125797566Y-100913650D01*
X125753306Y-100868273D01*
X125739080Y-100798717D01*
X125764717Y-100732510D01*
X125802715Y-100700291D01*
X125802664Y-100700214D01*
X125803337Y-100699763D01*
X125805247Y-100698145D01*
X125807798Y-100696780D01*
X125807811Y-100696775D01*
X125922542Y-100620114D01*
X126020114Y-100522542D01*
X126096775Y-100407811D01*
X126149580Y-100280328D01*
X126176500Y-100144993D01*
X126176500Y-100007007D01*
X126149580Y-99871672D01*
X126096775Y-99744189D01*
X126020114Y-99629458D01*
X126020109Y-99629452D01*
X125922547Y-99531890D01*
X125922541Y-99531885D01*
X125884471Y-99506447D01*
X125807811Y-99455225D01*
X125721903Y-99419641D01*
X125680331Y-99402421D01*
X125680328Y-99402420D01*
X125544995Y-99375500D01*
X125544993Y-99375500D01*
X125407007Y-99375500D01*
X125407004Y-99375500D01*
X125271671Y-99402420D01*
X125271668Y-99402421D01*
X125144186Y-99455225D01*
X125111658Y-99476960D01*
X125074272Y-99493899D01*
X124990218Y-99516422D01*
X124990216Y-99516422D01*
X124990216Y-99516423D01*
X124963435Y-99531885D01*
X124853285Y-99595479D01*
X124853281Y-99595482D01*
X124587865Y-99860899D01*
X123632168Y-100816596D01*
X123569858Y-100850620D01*
X123543075Y-100853500D01*
X123138394Y-100853500D01*
X123049935Y-100864122D01*
X122909158Y-100919638D01*
X122909154Y-100919641D01*
X122788577Y-101011077D01*
X122697141Y-101131654D01*
X122697138Y-101131658D01*
X122641622Y-101272435D01*
X122634648Y-101330522D01*
X122606668Y-101395772D01*
X122547852Y-101435536D01*
X122509547Y-101441500D01*
X121866535Y-101441500D01*
X121798414Y-101421498D01*
X121777440Y-101404595D01*
X121771924Y-101399079D01*
X121651345Y-101307641D01*
X121651341Y-101307638D01*
X121510564Y-101252122D01*
X121510565Y-101252122D01*
X121422105Y-101241500D01*
X121422102Y-101241500D01*
X120385898Y-101241500D01*
X120385894Y-101241500D01*
X120297435Y-101252122D01*
X120156658Y-101307638D01*
X120156654Y-101307641D01*
X120036075Y-101399079D01*
X120030560Y-101404595D01*
X119968248Y-101438621D01*
X119941465Y-101441500D01*
X119326535Y-101441500D01*
X119258414Y-101421498D01*
X119237440Y-101404595D01*
X119231924Y-101399079D01*
X119111345Y-101307641D01*
X119111341Y-101307638D01*
X118970564Y-101252122D01*
X118970565Y-101252122D01*
X118882105Y-101241500D01*
X118882102Y-101241500D01*
X117845898Y-101241500D01*
X117845894Y-101241500D01*
X117757435Y-101252122D01*
X117616658Y-101307638D01*
X117616654Y-101307641D01*
X117496077Y-101399077D01*
X117404641Y-101519654D01*
X117404638Y-101519658D01*
X117349122Y-101660435D01*
X117338500Y-101748894D01*
X117338500Y-102335105D01*
X117349122Y-102423564D01*
X117404638Y-102564341D01*
X117404641Y-102564345D01*
X117496077Y-102684922D01*
X117616654Y-102776358D01*
X117616658Y-102776361D01*
X117757435Y-102831877D01*
X117757434Y-102831877D01*
X117785394Y-102835234D01*
X117845898Y-102842500D01*
X117845901Y-102842500D01*
X118882099Y-102842500D01*
X118882102Y-102842500D01*
X118970564Y-102831877D01*
X119111342Y-102776361D01*
X119231922Y-102684922D01*
X119231924Y-102684920D01*
X119237440Y-102679405D01*
X119299752Y-102645379D01*
X119326535Y-102642500D01*
X119941465Y-102642500D01*
X120009586Y-102662502D01*
X120030560Y-102679405D01*
X120036075Y-102684920D01*
X120156654Y-102776358D01*
X120156658Y-102776361D01*
X120297435Y-102831877D01*
X120297434Y-102831877D01*
X120325394Y-102835234D01*
X120385898Y-102842500D01*
X120385901Y-102842500D01*
X121422099Y-102842500D01*
X121422102Y-102842500D01*
X121510564Y-102831877D01*
X121651342Y-102776361D01*
X121771922Y-102684922D01*
X121771924Y-102684920D01*
X121777440Y-102679405D01*
X121839752Y-102645379D01*
X121866535Y-102642500D01*
X122684726Y-102642500D01*
X122752847Y-102662502D01*
X122785124Y-102692367D01*
X122788579Y-102696923D01*
X122909154Y-102788358D01*
X122909158Y-102788361D01*
X123049935Y-102843877D01*
X123049934Y-102843877D01*
X123077894Y-102847234D01*
X123138398Y-102854500D01*
X123138401Y-102854500D01*
X123749599Y-102854500D01*
X123749602Y-102854500D01*
X123838064Y-102843877D01*
X123978842Y-102788361D01*
X124099422Y-102696922D01*
X124190861Y-102576342D01*
X124239285Y-102453548D01*
X124282883Y-102397515D01*
X124349854Y-102373947D01*
X124418935Y-102390328D01*
X124468193Y-102441457D01*
X124473715Y-102453548D01*
X124522138Y-102576341D01*
X124522141Y-102576345D01*
X124613577Y-102696922D01*
X124734154Y-102788358D01*
X124734158Y-102788361D01*
X124874935Y-102843877D01*
X124874934Y-102843877D01*
X124902894Y-102847234D01*
X124963398Y-102854500D01*
X124963401Y-102854500D01*
X125574599Y-102854500D01*
X125574602Y-102854500D01*
X125663064Y-102843877D01*
X125803842Y-102788361D01*
X125924422Y-102696922D01*
X125927876Y-102692366D01*
X125984975Y-102650173D01*
X126028274Y-102642500D01*
X126545465Y-102642500D01*
X126613586Y-102662502D01*
X126634560Y-102679405D01*
X126640075Y-102684920D01*
X126760654Y-102776358D01*
X126760658Y-102776361D01*
X126901435Y-102831877D01*
X126901434Y-102831877D01*
X126929394Y-102835234D01*
X126989898Y-102842500D01*
X126989901Y-102842500D01*
X128026099Y-102842500D01*
X128026102Y-102842500D01*
X128114564Y-102831877D01*
X128255342Y-102776361D01*
X128375922Y-102684922D01*
X128375924Y-102684920D01*
X128381440Y-102679405D01*
X128443752Y-102645379D01*
X128470535Y-102642500D01*
X129138226Y-102642500D01*
X129206347Y-102662502D01*
X129238624Y-102692367D01*
X129242079Y-102696923D01*
X129362654Y-102788358D01*
X129362658Y-102788361D01*
X129503435Y-102843877D01*
X129503434Y-102843877D01*
X129531394Y-102847234D01*
X129591898Y-102854500D01*
X129591901Y-102854500D01*
X130203099Y-102854500D01*
X130203102Y-102854500D01*
X130291564Y-102843877D01*
X130432342Y-102788361D01*
X130552922Y-102696922D01*
X130644361Y-102576342D01*
X130692785Y-102453548D01*
X130736383Y-102397515D01*
X130803354Y-102373947D01*
X130872435Y-102390328D01*
X130921693Y-102441457D01*
X130927215Y-102453548D01*
X130975638Y-102576341D01*
X130975641Y-102576345D01*
X131067077Y-102696922D01*
X131187654Y-102788358D01*
X131187658Y-102788361D01*
X131328435Y-102843877D01*
X131328434Y-102843877D01*
X131356394Y-102847234D01*
X131416898Y-102854500D01*
X131416901Y-102854500D01*
X132028099Y-102854500D01*
X132028102Y-102854500D01*
X132116564Y-102843877D01*
X132257342Y-102788361D01*
X132377922Y-102696922D01*
X132381376Y-102692366D01*
X132438475Y-102650173D01*
X132481774Y-102642500D01*
X132895465Y-102642500D01*
X132963586Y-102662502D01*
X132984560Y-102679405D01*
X132990075Y-102684920D01*
X133110654Y-102776358D01*
X133110658Y-102776361D01*
X133251435Y-102831877D01*
X133251434Y-102831877D01*
X133279394Y-102835234D01*
X133339898Y-102842500D01*
X133339901Y-102842500D01*
X134376099Y-102842500D01*
X134376102Y-102842500D01*
X134464564Y-102831877D01*
X134605342Y-102776361D01*
X134725922Y-102684922D01*
X134817361Y-102564342D01*
X134829217Y-102534274D01*
X134872815Y-102478243D01*
X134939786Y-102454675D01*
X134946432Y-102454500D01*
X135366835Y-102454500D01*
X135434956Y-102474502D01*
X135481449Y-102528158D01*
X135484045Y-102534264D01*
X135500639Y-102576342D01*
X135500640Y-102576343D01*
X135500641Y-102576345D01*
X135592077Y-102696922D01*
X135712654Y-102788358D01*
X135712658Y-102788361D01*
X135853435Y-102843877D01*
X135853434Y-102843877D01*
X135881394Y-102847234D01*
X135941898Y-102854500D01*
X135941901Y-102854500D01*
X136553099Y-102854500D01*
X136553102Y-102854500D01*
X136641564Y-102843877D01*
X136782342Y-102788361D01*
X136902922Y-102696922D01*
X136994361Y-102576342D01*
X137042785Y-102453548D01*
X137086383Y-102397515D01*
X137153354Y-102373947D01*
X137222435Y-102390328D01*
X137271693Y-102441457D01*
X137277215Y-102453548D01*
X137325638Y-102576341D01*
X137325641Y-102576345D01*
X137417077Y-102696922D01*
X137537654Y-102788358D01*
X137537658Y-102788361D01*
X137678435Y-102843877D01*
X137678434Y-102843877D01*
X137706394Y-102847234D01*
X137766898Y-102854500D01*
X137766901Y-102854500D01*
X138378099Y-102854500D01*
X138378102Y-102854500D01*
X138466564Y-102843877D01*
X138607342Y-102788361D01*
X138727922Y-102696922D01*
X138731376Y-102692366D01*
X138788475Y-102650173D01*
X138831774Y-102642500D01*
X139499465Y-102642500D01*
X139567586Y-102662502D01*
X139588560Y-102679405D01*
X139594075Y-102684920D01*
X139714654Y-102776358D01*
X139714658Y-102776361D01*
X139855435Y-102831877D01*
X139855434Y-102831877D01*
X139883394Y-102835234D01*
X139943898Y-102842500D01*
X139943901Y-102842500D01*
X140980099Y-102842500D01*
X140980102Y-102842500D01*
X141068564Y-102831877D01*
X141209342Y-102776361D01*
X141329922Y-102684922D01*
X141329924Y-102684920D01*
X141335440Y-102679405D01*
X141397752Y-102645379D01*
X141424535Y-102642500D01*
X142293465Y-102642500D01*
X142361586Y-102662502D01*
X142382560Y-102679405D01*
X142388075Y-102684920D01*
X142508654Y-102776358D01*
X142508658Y-102776361D01*
X142649435Y-102831877D01*
X142649434Y-102831877D01*
X142677394Y-102835234D01*
X142737898Y-102842500D01*
X142737901Y-102842500D01*
X143774099Y-102842500D01*
X143774102Y-102842500D01*
X143862564Y-102831877D01*
X144003342Y-102776361D01*
X144123922Y-102684922D01*
X144123924Y-102684920D01*
X144129440Y-102679405D01*
X144191752Y-102645379D01*
X144218535Y-102642500D01*
X144632226Y-102642500D01*
X144700347Y-102662502D01*
X144732624Y-102692367D01*
X144736079Y-102696923D01*
X144856654Y-102788358D01*
X144856658Y-102788361D01*
X144997435Y-102843877D01*
X144997434Y-102843877D01*
X145025394Y-102847234D01*
X145085898Y-102854500D01*
X145085901Y-102854500D01*
X145697099Y-102854500D01*
X145697102Y-102854500D01*
X145785564Y-102843877D01*
X145926342Y-102788361D01*
X146046922Y-102696922D01*
X146138361Y-102576342D01*
X146186785Y-102453548D01*
X146230383Y-102397515D01*
X146297354Y-102373947D01*
X146366435Y-102390328D01*
X146415693Y-102441457D01*
X146421215Y-102453548D01*
X146469638Y-102576341D01*
X146469641Y-102576345D01*
X146561077Y-102696922D01*
X146681654Y-102788358D01*
X146681658Y-102788361D01*
X146822435Y-102843877D01*
X146822434Y-102843877D01*
X146850394Y-102847234D01*
X146910898Y-102854500D01*
X146910901Y-102854500D01*
X147522099Y-102854500D01*
X147522102Y-102854500D01*
X147610564Y-102843877D01*
X147751342Y-102788361D01*
X147871922Y-102696922D01*
X147885600Y-102678885D01*
X147951210Y-102592366D01*
X148008309Y-102550173D01*
X148051607Y-102542500D01*
X148313493Y-102542500D01*
X148381614Y-102562502D01*
X148413890Y-102592366D01*
X148484077Y-102684922D01*
X148604654Y-102776358D01*
X148604658Y-102776361D01*
X148745435Y-102831877D01*
X148745434Y-102831877D01*
X148773394Y-102835234D01*
X148833898Y-102842500D01*
X148833901Y-102842500D01*
X149870099Y-102842500D01*
X149870102Y-102842500D01*
X149958564Y-102831877D01*
X150099342Y-102776361D01*
X150219922Y-102684922D01*
X150275753Y-102611298D01*
X150290110Y-102592366D01*
X150347208Y-102550173D01*
X150390507Y-102542500D01*
X150853493Y-102542500D01*
X150921614Y-102562502D01*
X150953890Y-102592366D01*
X151024077Y-102684922D01*
X151144654Y-102776358D01*
X151144658Y-102776361D01*
X151285435Y-102831877D01*
X151285434Y-102831877D01*
X151313394Y-102835234D01*
X151373898Y-102842500D01*
X151373901Y-102842500D01*
X152410099Y-102842500D01*
X152410102Y-102842500D01*
X152498564Y-102831877D01*
X152639342Y-102776361D01*
X152759922Y-102684922D01*
X152851361Y-102564342D01*
X152906877Y-102423564D01*
X152917500Y-102335102D01*
X152917500Y-102096504D01*
X152926283Y-102066588D01*
X152932912Y-102036119D01*
X152936726Y-102031023D01*
X152937502Y-102028383D01*
X152954405Y-102007409D01*
X153078409Y-101883405D01*
X153140721Y-101849379D01*
X153167504Y-101846500D01*
X153613338Y-101846500D01*
X153681459Y-101866502D01*
X153702157Y-101883129D01*
X153702319Y-101883290D01*
X153736537Y-101945497D01*
X153739500Y-101972661D01*
X153739500Y-103628108D01*
X153739500Y-103759892D01*
X153762170Y-103844500D01*
X153773607Y-103887183D01*
X153773610Y-103887190D01*
X153839497Y-104001310D01*
X153839505Y-104001320D01*
X154793499Y-104955314D01*
X154793500Y-104955314D01*
X155040314Y-105202127D01*
X155040327Y-105202142D01*
X155140679Y-105302494D01*
X155140683Y-105302497D01*
X155140686Y-105302500D01*
X155228780Y-105353361D01*
X155228781Y-105353362D01*
X155254808Y-105368389D01*
X155254810Y-105368390D01*
X155254814Y-105368392D01*
X155382107Y-105402500D01*
X155382108Y-105402500D01*
X159477653Y-105402500D01*
X159545774Y-105422502D01*
X159566748Y-105439405D01*
X159573452Y-105446109D01*
X159573458Y-105446114D01*
X159688189Y-105522775D01*
X159815672Y-105575580D01*
X159951007Y-105602500D01*
X159951008Y-105602500D01*
X160088992Y-105602500D01*
X160088993Y-105602500D01*
X160224328Y-105575580D01*
X160351811Y-105522775D01*
X160466542Y-105446114D01*
X160564114Y-105348542D01*
X160640775Y-105233811D01*
X160664447Y-105176659D01*
X160668007Y-105172242D01*
X160669105Y-105166674D01*
X160690037Y-105144903D01*
X160708993Y-105121381D01*
X160714379Y-105119588D01*
X160718313Y-105115497D01*
X160747693Y-105108499D01*
X160776356Y-105098959D01*
X160781856Y-105100362D01*
X160787377Y-105099048D01*
X160815877Y-105109045D01*
X160845147Y-105116516D01*
X160850425Y-105121165D01*
X160854371Y-105122549D01*
X160876650Y-105144260D01*
X160880223Y-105147407D01*
X160880780Y-105148122D01*
X160967078Y-105261922D01*
X160973014Y-105266423D01*
X160982868Y-105279062D01*
X160993180Y-105305136D01*
X161006619Y-105329745D01*
X161008003Y-105342614D01*
X161008979Y-105345082D01*
X161008519Y-105347414D01*
X161009500Y-105356534D01*
X161009500Y-105829570D01*
X160989498Y-105897691D01*
X160935842Y-105944184D01*
X160868478Y-105954671D01*
X160792107Y-105945500D01*
X160792102Y-105945500D01*
X159755898Y-105945500D01*
X159755894Y-105945500D01*
X159667435Y-105956122D01*
X159526658Y-106011638D01*
X159526654Y-106011641D01*
X159406077Y-106103077D01*
X159335890Y-106195634D01*
X159278792Y-106237827D01*
X159235493Y-106245500D01*
X158264507Y-106245500D01*
X158196386Y-106225498D01*
X158164110Y-106195634D01*
X158093922Y-106103077D01*
X157973345Y-106011641D01*
X157973341Y-106011638D01*
X157832564Y-105956122D01*
X157832565Y-105956122D01*
X157744105Y-105945500D01*
X157744102Y-105945500D01*
X156707898Y-105945500D01*
X156707894Y-105945500D01*
X156619435Y-105956122D01*
X156478658Y-106011638D01*
X156478654Y-106011641D01*
X156358077Y-106103077D01*
X156287890Y-106195634D01*
X156230792Y-106237827D01*
X156187493Y-106245500D01*
X155216507Y-106245500D01*
X155148386Y-106225498D01*
X155116110Y-106195634D01*
X155045922Y-106103077D01*
X154925345Y-106011641D01*
X154925341Y-106011638D01*
X154784564Y-105956122D01*
X154784565Y-105956122D01*
X154696105Y-105945500D01*
X154696102Y-105945500D01*
X153659898Y-105945500D01*
X153659894Y-105945500D01*
X153571435Y-105956122D01*
X153430658Y-106011638D01*
X153430654Y-106011641D01*
X153310077Y-106103077D01*
X153239890Y-106195634D01*
X153182792Y-106237827D01*
X153139493Y-106245500D01*
X152168507Y-106245500D01*
X152100386Y-106225498D01*
X152068110Y-106195634D01*
X151997922Y-106103077D01*
X151877345Y-106011641D01*
X151877341Y-106011638D01*
X151736564Y-105956122D01*
X151736565Y-105956122D01*
X151648105Y-105945500D01*
X151648102Y-105945500D01*
X150611898Y-105945500D01*
X150611894Y-105945500D01*
X150523435Y-105956122D01*
X150382658Y-106011638D01*
X150382654Y-106011641D01*
X150262077Y-106103077D01*
X150170641Y-106223654D01*
X150170638Y-106223658D01*
X150119347Y-106353724D01*
X150075749Y-106409757D01*
X150008778Y-106433325D01*
X150002132Y-106433500D01*
X149152600Y-106433500D01*
X149084479Y-106413498D01*
X149037986Y-106359842D01*
X149035385Y-106353724D01*
X148979361Y-106211658D01*
X148979358Y-106211654D01*
X148887922Y-106091077D01*
X148767345Y-105999641D01*
X148767341Y-105999638D01*
X148626564Y-105944122D01*
X148626565Y-105944122D01*
X148538105Y-105933500D01*
X148538102Y-105933500D01*
X147926898Y-105933500D01*
X147926894Y-105933500D01*
X147838435Y-105944122D01*
X147697658Y-105999638D01*
X147697654Y-105999641D01*
X147577077Y-106091077D01*
X147485641Y-106211654D01*
X147485638Y-106211658D01*
X147437215Y-106334451D01*
X147393617Y-106390484D01*
X147326646Y-106414052D01*
X147257565Y-106397670D01*
X147208307Y-106346542D01*
X147202785Y-106334451D01*
X147154361Y-106211658D01*
X147154358Y-106211654D01*
X147062922Y-106091077D01*
X146942345Y-105999641D01*
X146942341Y-105999638D01*
X146801564Y-105944122D01*
X146801565Y-105944122D01*
X146713105Y-105933500D01*
X146713102Y-105933500D01*
X146167004Y-105933500D01*
X146098883Y-105913498D01*
X146077913Y-105896599D01*
X146018814Y-105837500D01*
X146018813Y-105837499D01*
X146018810Y-105837497D01*
X145904690Y-105771610D01*
X145904687Y-105771609D01*
X145904686Y-105771608D01*
X145904684Y-105771607D01*
X145904683Y-105771607D01*
X145870573Y-105762467D01*
X145777392Y-105737500D01*
X145777390Y-105737500D01*
X136928507Y-105737500D01*
X136860386Y-105717498D01*
X136828110Y-105687634D01*
X136757922Y-105595077D01*
X136637345Y-105503641D01*
X136637341Y-105503638D01*
X136496564Y-105448122D01*
X136496565Y-105448122D01*
X136408105Y-105437500D01*
X136408102Y-105437500D01*
X135371898Y-105437500D01*
X135371894Y-105437500D01*
X135283435Y-105448122D01*
X135142658Y-105503638D01*
X135142654Y-105503641D01*
X135022077Y-105595077D01*
X134951890Y-105687634D01*
X134894792Y-105729827D01*
X134851493Y-105737500D01*
X134431892Y-105737500D01*
X134300107Y-105737500D01*
X134231893Y-105755777D01*
X134172816Y-105771607D01*
X134172809Y-105771610D01*
X134058689Y-105837497D01*
X134058684Y-105837501D01*
X134029792Y-105866394D01*
X133965500Y-105930686D01*
X133225591Y-106670595D01*
X133163279Y-106704621D01*
X133136496Y-106707500D01*
X132577894Y-106707500D01*
X132489435Y-106718122D01*
X132348658Y-106773638D01*
X132348654Y-106773641D01*
X132228077Y-106865077D01*
X132136641Y-106985654D01*
X132136638Y-106985658D01*
X132081122Y-107126435D01*
X132070500Y-107214894D01*
X132070500Y-107773495D01*
X132050498Y-107841616D01*
X132033599Y-107862585D01*
X131865844Y-108030341D01*
X131707184Y-108189001D01*
X131644872Y-108223026D01*
X131574056Y-108217961D01*
X131517221Y-108175414D01*
X131492410Y-108108894D01*
X131500873Y-108053684D01*
X131545877Y-107939564D01*
X131556500Y-107851102D01*
X131556500Y-107239898D01*
X131545877Y-107151436D01*
X131536018Y-107126436D01*
X131490361Y-107010658D01*
X131490358Y-107010654D01*
X131398922Y-106890077D01*
X131278345Y-106798641D01*
X131278341Y-106798638D01*
X131137564Y-106743122D01*
X131137565Y-106743122D01*
X131049105Y-106732500D01*
X131049102Y-106732500D01*
X130062898Y-106732500D01*
X130062894Y-106732500D01*
X129974435Y-106743122D01*
X129833658Y-106798638D01*
X129833654Y-106798641D01*
X129713077Y-106890077D01*
X129621641Y-107010654D01*
X129621638Y-107010658D01*
X129566122Y-107151435D01*
X129555500Y-107239894D01*
X129555500Y-107785996D01*
X129546716Y-107815911D01*
X129540088Y-107846381D01*
X129536273Y-107851476D01*
X129535498Y-107854117D01*
X129518595Y-107875091D01*
X129388341Y-108005345D01*
X129326029Y-108039371D01*
X129299246Y-108042250D01*
X128673315Y-108042250D01*
X128605194Y-108022248D01*
X128558701Y-107968592D01*
X128548597Y-107898318D01*
X128554385Y-107874636D01*
X128561564Y-107854117D01*
X128570896Y-107827449D01*
X128573750Y-107797016D01*
X128573750Y-107388484D01*
X128570896Y-107358051D01*
X128565454Y-107342500D01*
X128526043Y-107229868D01*
X128526041Y-107229864D01*
X128445400Y-107120599D01*
X128336135Y-107039958D01*
X128336131Y-107039956D01*
X128207954Y-106995105D01*
X128207950Y-106995104D01*
X128177516Y-106992250D01*
X128134500Y-106992250D01*
X128066379Y-106972248D01*
X128019886Y-106918592D01*
X128010654Y-106876155D01*
X128009578Y-106876297D01*
X128008500Y-106868110D01*
X128008500Y-106868108D01*
X127974392Y-106740814D01*
X127941313Y-106683520D01*
X127908502Y-106626689D01*
X127908498Y-106626684D01*
X127865334Y-106583520D01*
X127815314Y-106533500D01*
X126918655Y-105636841D01*
X126884629Y-105574529D01*
X126881750Y-105547746D01*
X126881750Y-105001651D01*
X126881750Y-105001648D01*
X126871127Y-104913186D01*
X126870698Y-104912099D01*
X126815611Y-104772408D01*
X126815608Y-104772404D01*
X126724172Y-104651827D01*
X126603595Y-104560391D01*
X126603591Y-104560388D01*
X126462814Y-104504872D01*
X126462815Y-104504872D01*
X126374355Y-104494250D01*
X126374352Y-104494250D01*
X125763148Y-104494250D01*
X125763144Y-104494250D01*
X125674685Y-104504872D01*
X125533908Y-104560388D01*
X125533904Y-104560391D01*
X125413327Y-104651827D01*
X125321891Y-104772404D01*
X125321888Y-104772408D01*
X125265865Y-104914474D01*
X125222267Y-104970507D01*
X125155296Y-104994075D01*
X125148650Y-104994250D01*
X123425142Y-104994250D01*
X123293357Y-104994250D01*
X123225143Y-105012527D01*
X123166066Y-105028357D01*
X123166059Y-105028360D01*
X123051939Y-105094247D01*
X123051933Y-105094252D01*
X122985684Y-105160502D01*
X122824089Y-105322096D01*
X122761779Y-105356120D01*
X122734996Y-105359000D01*
X122188894Y-105359000D01*
X122100435Y-105369622D01*
X121959658Y-105425138D01*
X121959654Y-105425141D01*
X121839077Y-105516577D01*
X121747641Y-105637154D01*
X121747638Y-105637158D01*
X121692122Y-105777935D01*
X121681500Y-105866394D01*
X121681500Y-106457520D01*
X121661498Y-106525641D01*
X121607842Y-106572134D01*
X121555500Y-106583520D01*
X121012033Y-106583520D01*
X120943912Y-106563518D01*
X120897419Y-106509862D01*
X120886932Y-106472543D01*
X120884127Y-106449185D01*
X120828611Y-106308408D01*
X120828608Y-106308404D01*
X120737172Y-106187827D01*
X120616595Y-106096391D01*
X120616591Y-106096388D01*
X120475814Y-106040872D01*
X120475815Y-106040872D01*
X120387355Y-106030250D01*
X120387352Y-106030250D01*
X119351148Y-106030250D01*
X119351144Y-106030250D01*
X119262685Y-106040872D01*
X119121908Y-106096388D01*
X119121904Y-106096391D01*
X119001327Y-106187827D01*
X118904681Y-106315275D01*
X118902797Y-106313846D01*
X118898041Y-106324262D01*
X118878474Y-106336836D01*
X118861823Y-106353079D01*
X118847761Y-106356575D01*
X118838315Y-106362646D01*
X118802817Y-106367750D01*
X118606236Y-106367750D01*
X118538115Y-106347748D01*
X118505839Y-106317884D01*
X118426172Y-106212827D01*
X118305595Y-106121391D01*
X118305591Y-106121388D01*
X118164814Y-106065872D01*
X118164815Y-106065872D01*
X118076355Y-106055250D01*
X118076352Y-106055250D01*
X117920500Y-106055250D01*
X117852379Y-106035248D01*
X117805886Y-105981592D01*
X117794500Y-105929250D01*
X117794500Y-105849008D01*
X117794499Y-105849004D01*
X117767580Y-105713672D01*
X117714775Y-105586189D01*
X117638114Y-105471458D01*
X117638109Y-105471452D01*
X117540547Y-105373890D01*
X117540541Y-105373885D01*
X117463031Y-105322095D01*
X117425811Y-105297225D01*
X117340572Y-105261918D01*
X117298331Y-105244421D01*
X117298328Y-105244420D01*
X117162995Y-105217500D01*
X117162993Y-105217500D01*
X117025007Y-105217500D01*
X117025004Y-105217500D01*
X116889671Y-105244420D01*
X116889668Y-105244421D01*
X116762189Y-105297225D01*
X116647458Y-105373885D01*
X116647452Y-105373890D01*
X116549890Y-105471452D01*
X116549885Y-105471458D01*
X116473225Y-105586189D01*
X116420421Y-105713668D01*
X116420420Y-105713671D01*
X116393500Y-105849004D01*
X115816500Y-105849004D01*
X115816500Y-98910500D01*
X115836502Y-98842379D01*
X115890158Y-98795886D01*
X115942500Y-98784500D01*
X174689500Y-98784500D01*
X174757621Y-98804502D01*
G37*
%TD.AperFunction*%
%TD*%
M02*
